<?xml version="1.0" encoding="UTF-8" standalone="no"?>
<!DOCTYPE svg PUBLIC "-//W3C//DTD SVG 1.1//EN"
 "http://www.w3.org/Graphics/SVG/1.1/DTD/svg11.dtd">
<!-- Generated by graphviz version 2.43.0 (0)
 -->
<!-- Title: recurseLowerCase Pages: 1 -->
<svg width="250pt" height="45pt"
 viewBox="0.00 0.00 250.00 45.00" xmlns="http://www.w3.org/2000/svg" xmlns:xlink="http://www.w3.org/1999/xlink">
<g id="graph0" class="graph" transform="scale(1 1) rotate(0) translate(4 41)">
<title>recurseLowerCase</title>
<!-- Node1 -->
<g id="Node000001" class="node">
<title>Node1</title>
<g id="a_Node000001"><a xlink:href="acsConfig_8cpp.html#aa55c94b6e925c376c2cc32826b3a2015" target="_top" xlink:title=" ">
<path fill="#fff0f0" stroke="red" stroke-width="2" d="M235.67,-19C235.67,-19 142.33,-19 142.33,-19 139.17,-19 136,-15.83 136,-12.67 136,-12.67 136,-6.33 136,-6.33 136,-3.17 139.17,0 142.33,0 142.33,0 235.67,0 235.67,0 238.83,0 242,-3.17 242,-6.33 242,-6.33 242,-12.67 242,-12.67 242,-15.83 238.83,-19 235.67,-19"/>
<text text-anchor="middle" x="189" y="-7" font-family="Helvetica,sans-Serif" font-size="10.00">recurseLowerCase</text>
</a>
</g>
</g>
<!-- Node1&#45;&gt;Node1 -->
<g id="edge2_Node000001_Node000001" class="edge">
<title>Node1&#45;&gt;Node1</title>
<g id="a_edge2_Node000001_Node000001"><a xlink:title=" ">
<path fill="none" stroke="#63b8ff" d="M214.67,-28.19C213.27,-33.2 204.71,-37 189,-37 164.47,-37 157.38,-27.73 167.73,-19.08"/>
<polygon fill="#63b8ff" stroke="#63b8ff" points="217.77,-26.56 210.27,-19.08 211.47,-29.61 217.77,-26.56"/>
</a>
</g>
</g>
<!-- Node2 -->
<g id="Node000002" class="node">
<title>Node2</title>
<g id="a_Node000002"><a xlink:href="structACSConfig.html#acbe400e2cc2760cbebd28dda6413c4ad" target="_top" xlink:title="Parse options to set acsConfig values.">
<path fill="#fff0f0" stroke="red" d="M93.67,-19C93.67,-19 6.33,-19 6.33,-19 3.17,-19 0,-15.83 0,-12.67 0,-12.67 0,-6.33 0,-6.33 0,-3.17 3.17,0 6.33,0 6.33,0 93.67,0 93.67,0 96.83,0 100,-3.17 100,-6.33 100,-6.33 100,-12.67 100,-12.67 100,-15.83 96.83,-19 93.67,-19"/>
<text text-anchor="middle" x="50" y="-7" font-family="Helvetica,sans-Serif" font-size="10.00">ACSConfig::parse</text>
</a>
</g>
</g>
<!-- Node1&#45;&gt;Node2 -->
<g id="edge1_Node000001_Node000002" class="edge">
<title>Node1&#45;&gt;Node2</title>
<g id="a_edge1_Node000001_Node000002"><a xlink:title=" ">
<path fill="none" stroke="#63b8ff" d="M125.58,-9.5C117.12,-9.5 108.53,-9.5 100.33,-9.5"/>
<polygon fill="#63b8ff" stroke="#63b8ff" points="125.82,-13 135.82,-9.5 125.82,-6 125.82,-13"/>
</a>
</g>
</g>
</g>
</svg>
