<?xml version="1.0" encoding="UTF-8" standalone="no"?>
<!DOCTYPE svg PUBLIC "-//W3C//DTD SVG 1.1//EN"
 "http://www.w3.org/Graphics/SVG/1.1/DTD/svg11.dtd">
<!-- Generated by graphviz version 2.43.0 (0)
 -->
<!-- Title: conditionalPrefix Pages: 1 -->
<svg width="223pt" height="27pt"
 viewBox="0.00 0.00 223.00 27.00" xmlns="http://www.w3.org/2000/svg" xmlns:xlink="http://www.w3.org/1999/xlink">
<g id="graph0" class="graph" transform="scale(1 1) rotate(0) translate(4 23)">
<title>conditionalPrefix</title>
<!-- Node1 -->
<g id="Node000001" class="node">
<title>Node1</title>
<g id="a_Node000001"><a xlink:href="acsConfig_8cpp.html#aa3c0ea195ecdd16cb7f57431995a4faa" target="_top" xlink:title=" ">
<path fill="#fff0f0" stroke="red" stroke-width="2" d="M91.67,-19C91.67,-19 6.33,-19 6.33,-19 3.17,-19 0,-15.83 0,-12.67 0,-12.67 0,-6.33 0,-6.33 0,-3.17 3.17,0 6.33,0 6.33,0 91.67,0 91.67,0 94.83,0 98,-3.17 98,-6.33 98,-6.33 98,-12.67 98,-12.67 98,-15.83 94.83,-19 91.67,-19"/>
<text text-anchor="middle" x="49" y="-7" font-family="Helvetica,sans-Serif" font-size="10.00">conditionalPrefix</text>
</a>
</g>
</g>
<!-- Node2 -->
<g id="Node000002" class="node">
<title>Node2</title>
<g id="a_Node000002"><a xlink:href="acsConfig_8cpp.html#a611c3086ccdeb877c19a6b1d603227a4" target="_top" xlink:title="search for and replace section of string">
<path fill="#fff0f0" stroke="red" d="M208.67,-19C208.67,-19 140.33,-19 140.33,-19 137.17,-19 134,-15.83 134,-12.67 134,-12.67 134,-6.33 134,-6.33 134,-3.17 137.17,0 140.33,0 140.33,0 208.67,0 208.67,0 211.83,0 215,-3.17 215,-6.33 215,-6.33 215,-12.67 215,-12.67 215,-15.83 211.83,-19 208.67,-19"/>
<text text-anchor="middle" x="174.5" y="-7" font-family="Helvetica,sans-Serif" font-size="10.00">replaceString</text>
</a>
</g>
</g>
<!-- Node1&#45;&gt;Node2 -->
<g id="edge1_Node000001_Node000002" class="edge">
<title>Node1&#45;&gt;Node2</title>
<g id="a_edge1_Node000001_Node000002"><a xlink:title=" ">
<path fill="none" stroke="#63b8ff" d="M98.1,-2.9C106.48,-2.71 115.21,-2.7 123.64,-2.86"/>
<polygon fill="#63b8ff" stroke="#63b8ff" points="123.62,-6.36 133.71,-3.14 123.82,0.63 123.62,-6.36"/>
</a>
</g>
</g>
<!-- Node1&#45;&gt;Node2 -->
<g id="edge2_Node000001_Node000002" class="edge">
<title>Node1&#45;&gt;Node2</title>
<g id="a_edge2_Node000001_Node000002"><a xlink:title=" ">
<path fill="none" stroke="#63b8ff" d="M98.1,-16.1C106.48,-16.29 115.21,-16.3 123.64,-16.14"/>
<polygon fill="#63b8ff" stroke="#63b8ff" points="123.82,-19.63 133.71,-15.86 123.62,-12.64 123.82,-19.63"/>
</a>
</g>
</g>
</g>
</svg>
