<?xml version="1.0" encoding="UTF-8" standalone="no"?>
<!DOCTYPE svg PUBLIC "-//W3C//DTD SVG 1.1//EN"
 "http://www.w3.org/Graphics/SVG/1.1/DTD/svg11.dtd">
<!-- Generated by graphviz version 2.43.0 (0)
 -->
<!-- Title: outputDefaultSiblings Pages: 1 -->
<svg width="306pt" height="51pt"
 viewBox="0.00 0.00 306.00 50.50" xmlns="http://www.w3.org/2000/svg" xmlns:xlink="http://www.w3.org/1999/xlink">
<g id="graph0" class="graph" transform="scale(1 1) rotate(0) translate(4 46.5)">
<title>outputDefaultSiblings</title>
<!-- Node1 -->
<g id="Node000001" class="node">
<title>Node1</title>
<g id="a_Node000001"><a xlink:href="acsConfig_8cpp.html#a645953816b624b82aa0680893e61c3a0" target="_top" xlink:title="Recursive function to output the default values of all siblings with a common root.">
<path fill="#fff0f0" stroke="red" stroke-width="2" d="M291.67,-24.5C291.67,-24.5 182.33,-24.5 182.33,-24.5 179.17,-24.5 176,-21.33 176,-18.17 176,-18.17 176,-11.83 176,-11.83 176,-8.67 179.17,-5.5 182.33,-5.5 182.33,-5.5 291.67,-5.5 291.67,-5.5 294.83,-5.5 298,-8.67 298,-11.83 298,-11.83 298,-18.17 298,-18.17 298,-21.33 294.83,-24.5 291.67,-24.5"/>
<text text-anchor="middle" x="237" y="-12.5" font-family="Helvetica,sans-Serif" font-size="10.00">outputDefaultSiblings</text>
</a>
</g>
</g>
<!-- Node1&#45;&gt;Node1 -->
<g id="edge2_Node000001_Node000001" class="edge">
<title>Node1&#45;&gt;Node1</title>
<g id="a_edge2_Node000001_Node000001"><a xlink:title=" ">
<path fill="none" stroke="#63b8ff" d="M267.99,-33.32C266.69,-38.51 256.36,-42.5 237,-42.5 207.5,-42.5 198.97,-33.23 211.41,-24.58"/>
<polygon fill="#63b8ff" stroke="#63b8ff" points="270.82,-31.25 262.59,-24.58 264.87,-34.93 270.82,-31.25"/>
</a>
</g>
</g>
<!-- Node2 -->
<g id="Node000002" class="node">
<title>Node2</title>
<g id="a_Node000002"><a xlink:href="structACSConfig.html#a12622cd32773b55c6fb2717f998b25ed" target="_top" xlink:title="Outputs default configuration and a configurator The default values, and descriptions of each paramet...">
<path fill="#fff0f0" stroke="red" d="M130,-30C130,-30 10,-30 10,-30 5,-30 0,-25 0,-20 0,-20 0,-10 0,-10 0,-5 5,0 10,0 10,0 130,0 130,0 135,0 140,-5 140,-10 140,-10 140,-20 140,-20 140,-25 135,-30 130,-30"/>
<text text-anchor="start" x="8" y="-18" font-family="Helvetica,sans-Serif" font-size="10.00">ACSConfig::outputDefault</text>
<text text-anchor="middle" x="70" y="-7" font-family="Helvetica,sans-Serif" font-size="10.00">Configuration</text>
</a>
</g>
</g>
<!-- Node1&#45;&gt;Node2 -->
<g id="edge1_Node000001_Node000002" class="edge">
<title>Node1&#45;&gt;Node2</title>
<g id="a_edge1_Node000001_Node000002"><a xlink:title=" ">
<path fill="none" stroke="#63b8ff" d="M165.76,-15C157.3,-15 148.67,-15 140.23,-15"/>
<polygon fill="#63b8ff" stroke="#63b8ff" points="165.96,-18.5 175.96,-15 165.96,-11.5 165.96,-18.5"/>
</a>
</g>
</g>
</g>
</svg>
