<?xml version="1.0" encoding="UTF-8" standalone="no"?>
<!DOCTYPE svg PUBLIC "-//W3C//DTD SVG 1.1//EN"
 "http://www.w3.org/Graphics/SVG/1.1/DTD/svg11.dtd">
<!-- Generated by graphviz version 2.43.0 (0)
 -->
<!-- Title: stringify Pages: 1 -->
<svg width="156pt" height="27pt"
 viewBox="0.00 0.00 156.00 27.00" xmlns="http://www.w3.org/2000/svg" xmlns:xlink="http://www.w3.org/1999/xlink">
<g id="graph0" class="graph" transform="scale(1 1) rotate(0) translate(4 23)">
<title>stringify</title>
<!-- Node1 -->
<g id="Node000001" class="node">
<title>Node1</title>
<g id="a_Node000001"><a xlink:href="acsConfig_8cpp.html#a7893fe7769393260cd874085df17a3fa" target="_top" xlink:title=" ">
<path fill="#fff0f0" stroke="red" stroke-width="2" d="M49.67,-19C49.67,-19 6.33,-19 6.33,-19 3.17,-19 0,-15.83 0,-12.67 0,-12.67 0,-6.33 0,-6.33 0,-3.17 3.17,0 6.33,0 6.33,0 49.67,0 49.67,0 52.83,0 56,-3.17 56,-6.33 56,-6.33 56,-12.67 56,-12.67 56,-15.83 52.83,-19 49.67,-19"/>
<text text-anchor="middle" x="28" y="-7" font-family="Helvetica,sans-Serif" font-size="10.00">stringify</text>
</a>
</g>
</g>
<!-- Node2 -->
<g id="Node000002" class="node">
<title>Node2</title>
<g id="a_Node000002"><a xlink:href="acsConfig_8cpp.html#a4d3955f209663e9e9066b939224afe62" target="_top" xlink:title=" ">
<path fill="#fff0f0" stroke="red" d="M141.67,-19C141.67,-19 98.33,-19 98.33,-19 95.17,-19 92,-15.83 92,-12.67 92,-12.67 92,-6.33 92,-6.33 92,-3.17 95.17,0 98.33,0 98.33,0 141.67,0 141.67,0 144.83,0 148,-3.17 148,-6.33 148,-6.33 148,-12.67 148,-12.67 148,-15.83 144.83,-19 141.67,-19"/>
<text text-anchor="middle" x="120" y="-7" font-family="Helvetica,sans-Serif" font-size="10.00">stringify</text>
</a>
</g>
</g>
<!-- Node1&#45;&gt;Node2 -->
<g id="edge1_Node000001_Node000002" class="edge">
<title>Node1&#45;&gt;Node2</title>
<g id="a_edge1_Node000001_Node000002"><a xlink:title=" ">
<path fill="none" stroke="#63b8ff" d="M56,-9.5C64.03,-9.5 72.97,-9.5 81.53,-9.5"/>
<polygon fill="#63b8ff" stroke="#63b8ff" points="81.71,-13 91.71,-9.5 81.7,-6 81.71,-13"/>
</a>
</g>
</g>
</g>
</svg>
