<?xml version="1.0" encoding="UTF-8" standalone="no"?>
<!DOCTYPE svg PUBLIC "-//W3C//DTD SVG 1.1//EN"
 "http://www.w3.org/Graphics/SVG/1.1/DTD/svg11.dtd">
<!-- Generated by graphviz version 2.43.0 (0)
 -->
<!-- Title: recurseLowerCase Pages: 1 -->
<svg width="114pt" height="45pt"
 viewBox="0.00 0.00 114.00 45.00" xmlns="http://www.w3.org/2000/svg" xmlns:xlink="http://www.w3.org/1999/xlink">
<g id="graph0" class="graph" transform="scale(1 1) rotate(0) translate(4 41)">
<title>recurseLowerCase</title>
<!-- Node1 -->
<g id="Node000001" class="node">
<title>Node1</title>
<g id="a_Node000001"><a xlink:href="acsConfig_8cpp.html#aa55c94b6e925c376c2cc32826b3a2015" target="_top" xlink:title=" ">
<path fill="#fff0f0" stroke="red" stroke-width="2" d="M99.67,-19C99.67,-19 6.33,-19 6.33,-19 3.17,-19 0,-15.83 0,-12.67 0,-12.67 0,-6.33 0,-6.33 0,-3.17 3.17,0 6.33,0 6.33,0 99.67,0 99.67,0 102.83,0 106,-3.17 106,-6.33 106,-6.33 106,-12.67 106,-12.67 106,-15.83 102.83,-19 99.67,-19"/>
<text text-anchor="middle" x="53" y="-7" font-family="Helvetica,sans-Serif" font-size="10.00">recurseLowerCase</text>
</a>
</g>
</g>
<!-- Node1&#45;&gt;Node1 -->
<g id="edge1_Node000001_Node000001" class="edge">
<title>Node1&#45;&gt;Node1</title>
<g id="a_edge1_Node000001_Node000001"><a xlink:title=" ">
<path fill="none" stroke="#63b8ff" d="M36.97,-19.08C29.17,-27.73 34.52,-37 53,-37 64.55,-37 70.97,-33.38 72.26,-28.55"/>
<polygon fill="#63b8ff" stroke="#63b8ff" points="75.57,-27.42 69.03,-19.08 68.94,-29.68 75.57,-27.42"/>
</a>
</g>
</g>
</g>
</svg>
