<?xml version="1.0" encoding="UTF-8" standalone="no"?>
<!DOCTYPE svg PUBLIC "-//W3C//DTD SVG 1.1//EN"
 "http://www.w3.org/Graphics/SVG/1.1/DTD/svg11.dtd">
<!-- Generated by graphviz version 2.43.0 (0)
 -->
<!-- Title: tryGetFromOpts Pages: 1 -->
<svg width="243pt" height="101pt"
 viewBox="0.00 0.00 243.00 101.00" xmlns="http://www.w3.org/2000/svg" xmlns:xlink="http://www.w3.org/1999/xlink">
<g id="graph0" class="graph" transform="scale(1 1) rotate(0) translate(4 97)">
<title>tryGetFromOpts</title>
<!-- Node1 -->
<g id="Node000001" class="node">
<title>Node1</title>
<g id="a_Node000001"><a xlink:href="acsConfig_8cpp.html#a0fcf1c83ce70ba46187369e55c85d67a" target="_top" xlink:title="Set an output from command line options if found.">
<path fill="#fff0f0" stroke="red" stroke-width="2" d="M228.67,-56C228.67,-56 146.33,-56 146.33,-56 143.17,-56 140,-52.83 140,-49.67 140,-49.67 140,-43.33 140,-43.33 140,-40.17 143.17,-37 146.33,-37 146.33,-37 228.67,-37 228.67,-37 231.83,-37 235,-40.17 235,-43.33 235,-43.33 235,-49.67 235,-49.67 235,-52.83 231.83,-56 228.67,-56"/>
<text text-anchor="middle" x="187.5" y="-44" font-family="Helvetica,sans-Serif" font-size="10.00">tryGetFromOpts</text>
</a>
</g>
</g>
<!-- Node2 -->
<g id="Node000002" class="node">
<title>Node2</title>
<g id="a_Node000002"><a xlink:href="acsConfig_8cpp.html#a428af53af7dd917738fb5d204948f74f" target="_top" xlink:title="Prepare the configuration of the program.">
<path fill="#fff0f0" stroke="red" d="M76.67,-93C76.67,-93 27.33,-93 27.33,-93 24.17,-93 21,-89.83 21,-86.67 21,-86.67 21,-80.33 21,-80.33 21,-77.17 24.17,-74 27.33,-74 27.33,-74 76.67,-74 76.67,-74 79.83,-74 83,-77.17 83,-80.33 83,-80.33 83,-86.67 83,-86.67 83,-89.83 79.83,-93 76.67,-93"/>
<text text-anchor="middle" x="52" y="-81" font-family="Helvetica,sans-Serif" font-size="10.00">configure</text>
</a>
</g>
</g>
<!-- Node1&#45;&gt;Node2 -->
<g id="edge1_Node000001_Node000002" class="edge">
<title>Node1&#45;&gt;Node2</title>
<g id="a_edge1_Node000001_Node000002"><a xlink:title=" ">
<path fill="none" stroke="#63b8ff" d="M142.28,-58.76C122.89,-64.13 100.62,-70.3 83.17,-75.14"/>
<polygon fill="#63b8ff" stroke="#63b8ff" points="143.42,-62.07 152.12,-56.03 141.55,-55.33 143.42,-62.07"/>
</a>
</g>
</g>
<!-- Node5 -->
<g id="Node000005" class="node">
<title>Node5</title>
<g id="a_Node000005"><a xlink:href="acsConfig_8cpp.html#a8792819d2710d1833ba6a75a405f2141" target="_top" xlink:title="Set an output from any config source if found.">
<path fill="#fff0f0" stroke="red" d="M91.17,-56C91.17,-56 12.83,-56 12.83,-56 9.67,-56 6.5,-52.83 6.5,-49.67 6.5,-49.67 6.5,-43.33 6.5,-43.33 6.5,-40.17 9.67,-37 12.83,-37 12.83,-37 91.17,-37 91.17,-37 94.33,-37 97.5,-40.17 97.5,-43.33 97.5,-43.33 97.5,-49.67 97.5,-49.67 97.5,-52.83 94.33,-56 91.17,-56"/>
<text text-anchor="middle" x="52" y="-44" font-family="Helvetica,sans-Serif" font-size="10.00">tryGetFromAny</text>
</a>
</g>
</g>
<!-- Node1&#45;&gt;Node5 -->
<g id="edge2_Node000001_Node000005" class="edge">
<title>Node1&#45;&gt;Node5</title>
<g id="a_edge2_Node000001_Node000005"><a xlink:title=" ">
<path fill="none" stroke="#63b8ff" d="M129.68,-46.5C118.97,-46.5 107.92,-46.5 97.64,-46.5"/>
<polygon fill="#63b8ff" stroke="#63b8ff" points="129.81,-50 139.81,-46.5 129.81,-43 129.81,-50"/>
</a>
</g>
</g>
<!-- Node7 -->
<g id="Node000007" class="node">
<title>Node7</title>
<g id="a_Node000007"><a xlink:href="acsConfig_8cpp.html#a99c86abc990a77e44192c57c6a7a7371" target="_top" xlink:title=" ">
<path fill="#fff0f0" stroke="red" d="M97.67,-19C97.67,-19 6.33,-19 6.33,-19 3.17,-19 0,-15.83 0,-12.67 0,-12.67 0,-6.33 0,-6.33 0,-3.17 3.17,0 6.33,0 6.33,0 97.67,0 97.67,0 100.83,0 104,-3.17 104,-6.33 104,-6.33 104,-12.67 104,-12.67 104,-15.83 100.83,-19 97.67,-19"/>
<text text-anchor="middle" x="52" y="-7" font-family="Helvetica,sans-Serif" font-size="10.00">tryGetMappedList</text>
</a>
</g>
</g>
<!-- Node1&#45;&gt;Node7 -->
<g id="edge3_Node000001_Node000007" class="edge">
<title>Node1&#45;&gt;Node7</title>
<g id="a_edge3_Node000001_Node000007"><a xlink:title=" ">
<path fill="none" stroke="#63b8ff" d="M142.03,-34.17C124.34,-29.27 104.31,-23.72 87.73,-19.12"/>
<polygon fill="#63b8ff" stroke="#63b8ff" points="141.55,-37.67 152.12,-36.97 143.42,-30.93 141.55,-37.67"/>
</a>
</g>
</g>
</g>
</svg>
