<?xml version="1.0" encoding="UTF-8" standalone="no"?>
<!DOCTYPE svg PUBLIC "-//W3C//DTD SVG 1.1//EN"
 "http://www.w3.org/Graphics/SVG/1.1/DTD/svg11.dtd">
<!-- Generated by graphviz version 2.43.0 (0)
 -->
<!-- Title: tryGetFromAny Pages: 1 -->
<svg width="230pt" height="64pt"
 viewBox="0.00 0.00 230.00 64.00" xmlns="http://www.w3.org/2000/svg" xmlns:xlink="http://www.w3.org/1999/xlink">
<g id="graph0" class="graph" transform="scale(1 1) rotate(0) translate(4 60)">
<title>tryGetFromAny</title>
<!-- Node1 -->
<g id="Node000001" class="node">
<title>Node1</title>
<g id="a_Node000001"><a xlink:href="acsConfig_8cpp.html#a8792819d2710d1833ba6a75a405f2141" target="_top" xlink:title="Set an output from any config source if found.">
<path fill="#fff0f0" stroke="red" stroke-width="2" d="M84.67,-37C84.67,-37 6.33,-37 6.33,-37 3.17,-37 0,-33.83 0,-30.67 0,-30.67 0,-24.33 0,-24.33 0,-21.17 3.17,-18 6.33,-18 6.33,-18 84.67,-18 84.67,-18 87.83,-18 91,-21.17 91,-24.33 91,-24.33 91,-30.67 91,-30.67 91,-33.83 87.83,-37 84.67,-37"/>
<text text-anchor="middle" x="45.5" y="-25" font-family="Helvetica,sans-Serif" font-size="10.00">tryGetFromAny</text>
</a>
</g>
</g>
<!-- Node2 -->
<g id="Node000002" class="node">
<title>Node2</title>
<g id="a_Node000002"><a xlink:href="acsConfig_8cpp.html#a5e7bdb984a957f6949a0b1d49e3f6538" target="_top" xlink:title="Set an output from yaml object if found.">
<path fill="#fff0f0" stroke="red" d="M215.67,-56C215.67,-56 133.33,-56 133.33,-56 130.17,-56 127,-52.83 127,-49.67 127,-49.67 127,-43.33 127,-43.33 127,-40.17 130.17,-37 133.33,-37 133.33,-37 215.67,-37 215.67,-37 218.83,-37 222,-40.17 222,-43.33 222,-43.33 222,-49.67 222,-49.67 222,-52.83 218.83,-56 215.67,-56"/>
<text text-anchor="middle" x="174.5" y="-44" font-family="Helvetica,sans-Serif" font-size="10.00">tryGetFromYaml</text>
</a>
</g>
</g>
<!-- Node1&#45;&gt;Node2 -->
<g id="edge1_Node000001_Node000002" class="edge">
<title>Node1&#45;&gt;Node2</title>
<g id="a_edge1_Node000001_Node000002"><a xlink:title=" ">
<path fill="none" stroke="#63b8ff" d="M91.28,-34.2C99.59,-35.44 108.38,-36.76 116.99,-38.05"/>
<polygon fill="#63b8ff" stroke="#63b8ff" points="116.57,-41.52 126.98,-39.54 117.61,-34.6 116.57,-41.52"/>
</a>
</g>
</g>
<!-- Node7 -->
<g id="Node000007" class="node">
<title>Node7</title>
<g id="a_Node000007"><a xlink:href="acsConfig_8cpp.html#a0fcf1c83ce70ba46187369e55c85d67a" target="_top" xlink:title="Set an output from command line options if found.">
<path fill="#fff0f0" stroke="red" d="M215.67,-19C215.67,-19 133.33,-19 133.33,-19 130.17,-19 127,-15.83 127,-12.67 127,-12.67 127,-6.33 127,-6.33 127,-3.17 130.17,0 133.33,0 133.33,0 215.67,0 215.67,0 218.83,0 222,-3.17 222,-6.33 222,-6.33 222,-12.67 222,-12.67 222,-15.83 218.83,-19 215.67,-19"/>
<text text-anchor="middle" x="174.5" y="-7" font-family="Helvetica,sans-Serif" font-size="10.00">tryGetFromOpts</text>
</a>
</g>
</g>
<!-- Node1&#45;&gt;Node7 -->
<g id="edge2_Node000001_Node000007" class="edge">
<title>Node1&#45;&gt;Node7</title>
<g id="a_edge2_Node000001_Node000007"><a xlink:title=" ">
<path fill="none" stroke="#63b8ff" d="M91.28,-21.15C99.59,-19.98 108.38,-18.73 116.99,-17.51"/>
<polygon fill="#63b8ff" stroke="#63b8ff" points="117.57,-20.96 126.98,-16.09 116.59,-14.03 117.57,-20.96"/>
</a>
</g>
</g>
</g>
</svg>
