<?xml version="1.0" encoding="UTF-8" standalone="no"?>
<!DOCTYPE svg PUBLIC "-//W3C//DTD SVG 1.1//EN"
 "http://www.w3.org/Graphics/SVG/1.1/DTD/svg11.dtd">
<!-- Generated by graphviz version 2.43.0 (0)
 -->
<!-- Title: Aliases_And_Inheritance__ Pages: 1 -->
<svg width="970pt" height="1948pt"
 viewBox="0.00 0.00 970.00 1947.58" xmlns="http://www.w3.org/2000/svg" xmlns:xlink="http://www.w3.org/1999/xlink">
<g id="graph0" class="graph" transform="scale(1 1) rotate(0) translate(4 1943.58)">
<title>Aliases_And_Inheritance__</title>
<!-- Node1 -->
<g id="Node000001" class="node">
<title>Node1</title>
<g id="a_Node000001"><a xlink:href="acsConfig_8cpp.html#a57142261136f5897c47c628a876837a7" target="_top" xlink:title="Some configuration structures are possible to be configured specific for eg a receiver or signal or c...">
<polygon fill="#88ff88" stroke="#00aa00" stroke-width="2" points="962,-989.9 816,-989.9 816,-970.9 962,-970.9 962,-989.9"/>
<text text-anchor="middle" x="889" y="-977.9" font-family="Helvetica,sans-Serif" font-size="10.00">Aliases_And_Inheritance__</text>
</a>
</g>
</g>
<!-- Node2 -->
<g id="Node000002" class="node">
<title>Node2</title>
<g id="a_Node000002"><a xlink:href="acsConfig_8cpp.html#ae92af27db5dcd388f3d7ef53d96f1f51" target="_top" xlink:title="YAML based configuration.">
<polygon fill="#88ff88" stroke="#00aa00" points="744.5,-1910.9 686.5,-1910.9 686.5,-1891.9 744.5,-1891.9 744.5,-1910.9"/>
<text text-anchor="middle" x="715.5" y="-1898.9" font-family="Helvetica,sans-Serif" font-size="10.00">Config__</text>
</a>
</g>
</g>
<!-- Node1&#45;&gt;Node2 -->
<g id="edge1_Node000001_Node000002" class="edge">
<title>Node1&#45;&gt;Node2</title>
<g id="a_edge1_Node000001_Node000002"><a xlink:title=" ">
<path fill="none" stroke="#63b8ff" d="M884.32,-1000.17C861.06,-1125.07 734.94,-1802.38 718.31,-1891.68"/>
<polygon fill="#63b8ff" stroke="#63b8ff" points="887.8,-1000.6 886.19,-990.12 880.92,-999.31 887.8,-1000.6"/>
</a>
</g>
</g>
<!-- Node8 -->
<g id="Node000008" class="node">
<title>Node8</title>
<g id="a_Node000008"><a xlink:href="structACSConfig.html#acbb130e061ba4b7bf620e4fb68e1b794" target="_top" xlink:title="Set receiver options for a specific receiver using a hierarchy of sources.">
<path fill="#fff0f0" stroke="red" d="M773.67,-989.9C773.67,-989.9 657.33,-989.9 657.33,-989.9 654.17,-989.9 651,-986.74 651,-983.57 651,-983.57 651,-977.24 651,-977.24 651,-974.07 654.17,-970.9 657.33,-970.9 657.33,-970.9 773.67,-970.9 773.67,-970.9 776.83,-970.9 780,-974.07 780,-977.24 780,-977.24 780,-983.57 780,-983.57 780,-986.74 776.83,-989.9 773.67,-989.9"/>
<text text-anchor="middle" x="715.5" y="-977.9" font-family="Helvetica,sans-Serif" font-size="10.00">ACSConfig::getRecOpts</text>
</a>
</g>
</g>
<!-- Node1&#45;&gt;Node8 -->
<g id="edge5_Node000001_Node000008" class="edge">
<title>Node1&#45;&gt;Node8</title>
<g id="a_edge5_Node000001_Node000008"><a xlink:title=" ">
<path fill="none" stroke="#63b8ff" d="M805.74,-980.4C797.16,-980.4 788.54,-980.4 780.21,-980.4"/>
<polygon fill="#63b8ff" stroke="#63b8ff" points="805.77,-983.9 815.77,-980.4 805.77,-976.9 805.77,-983.9"/>
</a>
</g>
</g>
<!-- Node116 -->
<g id="Node000116" class="node">
<title>Node116</title>
<g id="a_Node000116"><a xlink:href="structACSConfig.html#a20ca3689eafecfa2b7e656c28e340256" target="_top" xlink:title="Set satellite options for a specific satellite using a hierarchy of sources.">
<path fill="#fff0f0" stroke="red" d="M772.67,-952.9C772.67,-952.9 658.33,-952.9 658.33,-952.9 655.17,-952.9 652,-949.74 652,-946.57 652,-946.57 652,-940.24 652,-940.24 652,-937.07 655.17,-933.9 658.33,-933.9 658.33,-933.9 772.67,-933.9 772.67,-933.9 775.83,-933.9 779,-937.07 779,-940.24 779,-940.24 779,-946.57 779,-946.57 779,-949.74 775.83,-952.9 772.67,-952.9"/>
<text text-anchor="middle" x="715.5" y="-940.9" font-family="Helvetica,sans-Serif" font-size="10.00">ACSConfig::getSatOpts</text>
</a>
</g>
</g>
<!-- Node1&#45;&gt;Node116 -->
<g id="edge64_Node000001_Node000116" class="edge">
<title>Node1&#45;&gt;Node116</title>
<g id="a_edge64_Node000001_Node000116"><a xlink:title=" ">
<path fill="none" stroke="#63b8ff" d="M833.99,-968.75C810.43,-963.67 783.15,-957.78 760.81,-952.97"/>
<polygon fill="#63b8ff" stroke="#63b8ff" points="833.32,-972.19 843.83,-970.88 834.8,-965.35 833.32,-972.19"/>
</a>
</g>
</g>
<!-- Node3 -->
<g id="Node000003" class="node">
<title>Node3</title>
<g id="a_Node000003"><a xlink:href="structACSConfig.html#acbe400e2cc2760cbebd28dda6413c4ad" target="_top" xlink:title="Parse options to set acsConfig values.">
<path fill="#fff0f0" stroke="red" d="M201.17,-971.9C201.17,-971.9 113.83,-971.9 113.83,-971.9 110.67,-971.9 107.5,-968.74 107.5,-965.57 107.5,-965.57 107.5,-959.24 107.5,-959.24 107.5,-956.07 110.67,-952.9 113.83,-952.9 113.83,-952.9 201.17,-952.9 201.17,-952.9 204.33,-952.9 207.5,-956.07 207.5,-959.24 207.5,-959.24 207.5,-965.57 207.5,-965.57 207.5,-968.74 204.33,-971.9 201.17,-971.9"/>
<text text-anchor="middle" x="157.5" y="-959.9" font-family="Helvetica,sans-Serif" font-size="10.00">ACSConfig::parse</text>
</a>
</g>
</g>
<!-- Node2&#45;&gt;Node3 -->
<g id="edge2_Node000002_Node000003" class="edge">
<title>Node2&#45;&gt;Node3</title>
<g id="a_edge2_Node000002_Node000003"><a xlink:title=" ">
<path fill="none" stroke="#63b8ff" d="M680.6,-1914.23C627.86,-1931.97 524.28,-1957.84 448,-1920.4 334.52,-1864.71 317.86,-1813.96 274,-1695.4 246.48,-1621.01 288.33,-1043.71 238,-982.4 230.41,-973.16 219.25,-967.84 207.67,-964.84"/>
<polygon fill="#63b8ff" stroke="#63b8ff" points="681.85,-1917.5 690.15,-1910.92 679.55,-1910.89 681.85,-1917.5"/>
</a>
</g>
</g>
<!-- Node6 -->
<g id="Node000006" class="node">
<title>Node6</title>
<g id="a_Node000006"><a xlink:href="Ginan_8cpp.html#a59a8bad8519426f9742fa63079e4a5e9" target="_top" xlink:title="Ginan&#39;s main processing executable.">
<polygon fill="#88ff88" stroke="#00aa00" points="554,-1910.9 509,-1910.9 509,-1891.9 554,-1891.9 554,-1910.9"/>
<text text-anchor="middle" x="531.5" y="-1898.9" font-family="Helvetica,sans-Serif" font-size="10.00">Pea__</text>
</a>
</g>
</g>
<!-- Node2&#45;&gt;Node6 -->
<g id="edge4_Node000002_Node000006" class="edge">
<title>Node2&#45;&gt;Node6</title>
<g id="a_edge4_Node000002_Node000006"><a xlink:title=" ">
<path fill="none" stroke="#63b8ff" d="M676.02,-1901.4C638.89,-1901.4 584.01,-1901.4 554.02,-1901.4"/>
<polygon fill="#63b8ff" stroke="#63b8ff" points="676.46,-1904.9 686.46,-1901.4 676.46,-1897.9 676.46,-1904.9"/>
</a>
</g>
</g>
<!-- Node5 -->
<g id="Node000005" class="node">
<title>Node5</title>
<g id="a_Node000005"><a xlink:href="main_8cpp.html#a3c04138a5bfe5d72780bb7e82a18e627" target="_top" xlink:title=" ">
<path fill="#fff0f0" stroke="red" d="M34.67,-1122.9C34.67,-1122.9 6.33,-1122.9 6.33,-1122.9 3.17,-1122.9 0,-1119.74 0,-1116.57 0,-1116.57 0,-1110.24 0,-1110.24 0,-1107.07 3.17,-1103.9 6.33,-1103.9 6.33,-1103.9 34.67,-1103.9 34.67,-1103.9 37.83,-1103.9 41,-1107.07 41,-1110.24 41,-1110.24 41,-1116.57 41,-1116.57 41,-1119.74 37.83,-1122.9 34.67,-1122.9"/>
<text text-anchor="middle" x="20.5" y="-1110.9" font-family="Helvetica,sans-Serif" font-size="10.00">main</text>
</a>
</g>
</g>
<!-- Node3&#45;&gt;Node5 -->
<g id="edge3_Node000003_Node000005" class="edge">
<title>Node3&#45;&gt;Node5</title>
<g id="a_edge3_Node000003_Node000005"><a xlink:title=" ">
<path fill="none" stroke="#63b8ff" d="M97.65,-970.53C90.15,-973.41 83,-977.26 77,-982.4 38.54,-1015.34 26.09,-1079.53 22.65,-1103.8"/>
<polygon fill="#63b8ff" stroke="#63b8ff" points="98.87,-973.81 107.29,-967.38 96.69,-967.16 98.87,-973.81"/>
</a>
</g>
</g>
<!-- Node8&#45;&gt;Node3 -->
<g id="edge38_Node000008_Node000003" class="edge">
<title>Node8&#45;&gt;Node3</title>
<g id="a_edge38_Node000008_Node000003"><a xlink:title=" ">
<path fill="none" stroke="#63b8ff" d="M666.85,-967.95C661.45,-966.23 656.07,-964.37 651,-962.4 634.32,-955.94 632.41,-948.51 615,-944.4 467.37,-909.55 285.54,-936.82 203,-952.84"/>
<polygon fill="#63b8ff" stroke="#63b8ff" points="665.92,-971.33 676.51,-970.89 667.96,-964.63 665.92,-971.33"/>
</a>
</g>
</g>
<!-- Node8&#45;&gt;Node5 -->
<g id="edge31_Node000008_Node000005" class="edge">
<title>Node8&#45;&gt;Node5</title>
<g id="a_edge31_Node000008_Node000005"><a xlink:title=" ">
<path fill="none" stroke="#63b8ff" d="M714.77,-1000.16C714.31,-1054.3 704.7,-1205.34 615,-1270.4 492.31,-1359.39 419.56,-1315.64 274,-1273.4 168.34,-1242.75 64.52,-1153.14 31.95,-1123.24"/>
<polygon fill="#63b8ff" stroke="#63b8ff" points="718.27,-1000.14 714.76,-990.14 711.27,-1000.15 718.27,-1000.14"/>
</a>
</g>
</g>
<!-- Node9 -->
<g id="Node000009" class="node">
<title>Node9</title>
<g id="a_Node000009"><a xlink:href="inputs_8cpp.html#a69d21c6d14168a8a526a87a509002d41" target="_top" xlink:title="Create a station object from an input.">
<path fill="#fff0f0" stroke="red" d="M571.17,-1873.9C571.17,-1873.9 491.83,-1873.9 491.83,-1873.9 488.67,-1873.9 485.5,-1870.74 485.5,-1867.57 485.5,-1867.57 485.5,-1861.24 485.5,-1861.24 485.5,-1858.07 488.67,-1854.9 491.83,-1854.9 491.83,-1854.9 571.17,-1854.9 571.17,-1854.9 574.33,-1854.9 577.5,-1858.07 577.5,-1861.24 577.5,-1861.24 577.5,-1867.57 577.5,-1867.57 577.5,-1870.74 574.33,-1873.9 571.17,-1873.9"/>
<text text-anchor="middle" x="531.5" y="-1861.9" font-family="Helvetica,sans-Serif" font-size="10.00">addStationData</text>
</a>
</g>
</g>
<!-- Node8&#45;&gt;Node9 -->
<g id="edge6_Node000008_Node000009" class="edge">
<title>Node8&#45;&gt;Node9</title>
<g id="a_edge6_Node000008_Node000009"><a xlink:title=" ">
<path fill="none" stroke="#63b8ff" d="M713.58,-1000.46C707.69,-1124.25 673.82,-1781.37 615,-1846.4 605.56,-1856.84 591.6,-1861.98 577.83,-1864.33"/>
<polygon fill="#63b8ff" stroke="#63b8ff" points="717.09,-1000.33 714.06,-990.18 710.09,-1000 717.09,-1000.33"/>
</a>
</g>
</g>
<!-- Node12 -->
<g id="Node000012" class="node">
<title>Node12</title>
<g id="a_Node000012"><a xlink:href="ppp__pseudoobs_8cpp.html#a02995a7f24f39419730eea3b664553cf" target="_top" xlink:title=" ">
<path fill="#fff0f0" stroke="red" d="M574.17,-1836.9C574.17,-1836.9 488.83,-1836.9 488.83,-1836.9 485.67,-1836.9 482.5,-1833.74 482.5,-1830.57 482.5,-1830.57 482.5,-1824.24 482.5,-1824.24 482.5,-1821.07 485.67,-1817.9 488.83,-1817.9 488.83,-1817.9 574.17,-1817.9 574.17,-1817.9 577.33,-1817.9 580.5,-1821.07 580.5,-1824.24 580.5,-1824.24 580.5,-1830.57 580.5,-1830.57 580.5,-1833.74 577.33,-1836.9 574.17,-1836.9"/>
<text text-anchor="middle" x="531.5" y="-1824.9" font-family="Helvetica,sans-Serif" font-size="10.00">ambgPseudoObs</text>
</a>
</g>
</g>
<!-- Node8&#45;&gt;Node12 -->
<g id="edge7_Node000008_Node000012" class="edge">
<title>Node8&#45;&gt;Node12</title>
<g id="a_edge7_Node000008_Node000012"><a xlink:title=" ">
<path fill="none" stroke="#63b8ff" d="M713.47,-1000.34C707.1,-1120.7 671.38,-1747.38 615,-1809.4 606.22,-1819.06 593.58,-1824.18 580.82,-1826.74"/>
<polygon fill="#63b8ff" stroke="#63b8ff" points="716.99,-1000.21 714.01,-990.04 710,-999.84 716.99,-1000.21"/>
</a>
</g>
</g>
<!-- Node15 -->
<g id="Node000015" class="node">
<title>Node15</title>
<g id="a_Node000015"><a xlink:href="main_8cpp.html#a85051f6840a4b64c19e25a4b461723e4" target="_top" xlink:title=" ">
<path fill="#fff0f0" stroke="red" d="M570.67,-1799.9C570.67,-1799.9 492.33,-1799.9 492.33,-1799.9 489.17,-1799.9 486,-1796.74 486,-1793.57 486,-1793.57 486,-1787.24 486,-1787.24 486,-1784.07 489.17,-1780.9 492.33,-1780.9 492.33,-1780.9 570.67,-1780.9 570.67,-1780.9 573.83,-1780.9 577,-1784.07 577,-1787.24 577,-1787.24 577,-1793.57 577,-1793.57 577,-1796.74 573.83,-1799.9 570.67,-1799.9"/>
<text text-anchor="middle" x="531.5" y="-1787.9" font-family="Helvetica,sans-Serif" font-size="10.00">avoidCollisions</text>
</a>
</g>
</g>
<!-- Node8&#45;&gt;Node15 -->
<g id="edge8_Node000008_Node000015" class="edge">
<title>Node8&#45;&gt;Node15</title>
<g id="a_edge8_Node000008_Node000015"><a xlink:title=" ">
<path fill="none" stroke="#63b8ff" d="M714.82,-1000.23C716.19,-1110.37 717.45,-1646.44 615,-1766.4 605.51,-1777.52 591.19,-1783.64 577.14,-1786.97"/>
<polygon fill="#63b8ff" stroke="#63b8ff" points="718.31,-999.87 714.67,-989.92 711.32,-999.97 718.31,-999.87"/>
</a>
</g>
</g>
<!-- Node16 -->
<g id="Node000016" class="node">
<title>Node16</title>
<g id="a_Node000016"><a xlink:href="localAtmosRegion_8cpp.html#a4f2c14c2994a3bb5761636e9196b34e8" target="_top" xlink:title=" ">
<path fill="#fff0f0" stroke="red" d="M209.17,-1592.9C209.17,-1592.9 105.83,-1592.9 105.83,-1592.9 102.67,-1592.9 99.5,-1589.74 99.5,-1586.57 99.5,-1586.57 99.5,-1580.24 99.5,-1580.24 99.5,-1577.07 102.67,-1573.9 105.83,-1573.9 105.83,-1573.9 209.17,-1573.9 209.17,-1573.9 212.33,-1573.9 215.5,-1577.07 215.5,-1580.24 215.5,-1580.24 215.5,-1586.57 215.5,-1586.57 215.5,-1589.74 212.33,-1592.9 209.17,-1592.9"/>
<text text-anchor="middle" x="157.5" y="-1580.9" font-family="Helvetica,sans-Serif" font-size="10.00">configAtmosRegions</text>
</a>
</g>
</g>
<!-- Node8&#45;&gt;Node16 -->
<g id="edge9_Node000008_Node000016" class="edge">
<title>Node8&#45;&gt;Node16</title>
<g id="a_edge9_Node000008_Node000016"><a xlink:title=" ">
<path fill="none" stroke="#63b8ff" d="M713.42,-1000.08C707,-1113.76 672.1,-1683.35 615,-1733.4 557.66,-1783.66 341.18,-1731.46 274,-1695.4 224.53,-1668.86 181.54,-1614.95 165.35,-1593.02"/>
<polygon fill="#63b8ff" stroke="#63b8ff" points="716.92,-1000.2 713.98,-990.02 709.93,-999.81 716.92,-1000.2"/>
</a>
</g>
</g>
<!-- Node17 -->
<g id="Node000017" class="node">
<title>Node17</title>
<g id="a_Node000017"><a xlink:href="acsQC_8cpp.html#a9a7675a515de2802ed917e9d32dd897d" target="_top" xlink:title="Cycle slip detection for dual&#45;frequency.">
<path fill="#fff0f0" stroke="red" d="M557.67,-1723.9C557.67,-1723.9 505.33,-1723.9 505.33,-1723.9 502.17,-1723.9 499,-1720.74 499,-1717.57 499,-1717.57 499,-1711.24 499,-1711.24 499,-1708.07 502.17,-1704.9 505.33,-1704.9 505.33,-1704.9 557.67,-1704.9 557.67,-1704.9 560.83,-1704.9 564,-1708.07 564,-1711.24 564,-1711.24 564,-1717.57 564,-1717.57 564,-1720.74 560.83,-1723.9 557.67,-1723.9"/>
<text text-anchor="middle" x="531.5" y="-1711.9" font-family="Helvetica,sans-Serif" font-size="10.00">cycleslip2</text>
</a>
</g>
</g>
<!-- Node8&#45;&gt;Node17 -->
<g id="edge11_Node000008_Node000017" class="edge">
<title>Node8&#45;&gt;Node17</title>
<g id="a_edge11_Node000008_Node000017"><a xlink:title=" ">
<path fill="none" stroke="#63b8ff" d="M714.68,-1000.52C715.19,-1105.7 712.19,-1591.45 615,-1696.4 602.25,-1710.17 581.63,-1714.67 564.19,-1715.73"/>
<polygon fill="#63b8ff" stroke="#63b8ff" points="718.18,-1000.32 714.61,-990.34 711.18,-1000.36 718.18,-1000.32"/>
</a>
</g>
</g>
<!-- Node18 -->
<g id="Node000018" class="node">
<title>Node18</title>
<g id="a_Node000018"><a xlink:href="acsQC_8cpp.html#a7b37fc255c80330a5497de5bee8f2dbb" target="_top" xlink:title="Cycle slip detection and repair.">
<path fill="#fff0f0" stroke="red" d="M369.17,-1685.9C369.17,-1685.9 316.83,-1685.9 316.83,-1685.9 313.67,-1685.9 310.5,-1682.74 310.5,-1679.57 310.5,-1679.57 310.5,-1673.24 310.5,-1673.24 310.5,-1670.07 313.67,-1666.9 316.83,-1666.9 316.83,-1666.9 369.17,-1666.9 369.17,-1666.9 372.33,-1666.9 375.5,-1670.07 375.5,-1673.24 375.5,-1673.24 375.5,-1679.57 375.5,-1679.57 375.5,-1682.74 372.33,-1685.9 369.17,-1685.9"/>
<text text-anchor="middle" x="343" y="-1673.9" font-family="Helvetica,sans-Serif" font-size="10.00">detectslip</text>
</a>
</g>
</g>
<!-- Node8&#45;&gt;Node18 -->
<g id="edge18_Node000008_Node000018" class="edge">
<title>Node8&#45;&gt;Node18</title>
<g id="a_edge18_Node000008_Node000018"><a xlink:title=" ">
<path fill="none" stroke="#63b8ff" d="M713.26,-1000.32C707.67,-1083.4 682.15,-1401.27 615,-1470.4 561.89,-1525.08 509.96,-1465.02 448,-1509.4 389.41,-1551.37 356.75,-1637.61 347.08,-1666.63"/>
<polygon fill="#63b8ff" stroke="#63b8ff" points="716.76,-1000.41 713.92,-990.2 709.77,-999.96 716.76,-1000.41"/>
</a>
</g>
</g>
<!-- Node22 -->
<g id="Node000022" class="node">
<title>Node22</title>
<g id="a_Node000022"><a xlink:href="acsQC_8cpp.html#a5278f59e23c92b2a1912d5dde5e2f809" target="_top" xlink:title="Cycle slip detection and repair for triple&#45;frequency.">
<path fill="#fff0f0" stroke="red" d="M557.67,-1686.9C557.67,-1686.9 505.33,-1686.9 505.33,-1686.9 502.17,-1686.9 499,-1683.74 499,-1680.57 499,-1680.57 499,-1674.24 499,-1674.24 499,-1671.07 502.17,-1667.9 505.33,-1667.9 505.33,-1667.9 557.67,-1667.9 557.67,-1667.9 560.83,-1667.9 564,-1671.07 564,-1674.24 564,-1674.24 564,-1680.57 564,-1680.57 564,-1683.74 560.83,-1686.9 557.67,-1686.9"/>
<text text-anchor="middle" x="531.5" y="-1674.9" font-family="Helvetica,sans-Serif" font-size="10.00">cycleslip3</text>
</a>
</g>
</g>
<!-- Node8&#45;&gt;Node22 -->
<g id="edge13_Node000008_Node000022" class="edge">
<title>Node8&#45;&gt;Node22</title>
<g id="a_edge13_Node000008_Node000022"><a xlink:title=" ">
<path fill="none" stroke="#63b8ff" d="M714.51,-1000.44C714.15,-1102.15 707.35,-1560.43 615,-1659.4 602.2,-1673.13 581.57,-1677.63 564.15,-1678.69"/>
<polygon fill="#63b8ff" stroke="#63b8ff" points="718.01,-1000.31 714.53,-990.31 711.01,-1000.3 718.01,-1000.31"/>
</a>
</g>
</g>
<!-- Node23 -->
<g id="Node000023" class="node">
<title>Node23</title>
<g id="a_Node000023"><a xlink:href="debug_8cpp.html#a9779f5f24c300e72581f3858ed638c9e" target="_top" xlink:title=" ">
<path fill="#fff0f0" stroke="red" d="M568.17,-1573.9C568.17,-1573.9 494.83,-1573.9 494.83,-1573.9 491.67,-1573.9 488.5,-1570.74 488.5,-1567.57 488.5,-1567.57 488.5,-1561.24 488.5,-1561.24 488.5,-1558.07 491.67,-1554.9 494.83,-1554.9 494.83,-1554.9 568.17,-1554.9 568.17,-1554.9 571.33,-1554.9 574.5,-1558.07 574.5,-1561.24 574.5,-1561.24 574.5,-1567.57 574.5,-1567.57 574.5,-1570.74 571.33,-1573.9 568.17,-1573.9"/>
<text text-anchor="middle" x="531.5" y="-1561.9" font-family="Helvetica,sans-Serif" font-size="10.00">debugAttitude</text>
</a>
</g>
</g>
<!-- Node8&#45;&gt;Node23 -->
<g id="edge15_Node000008_Node000023" class="edge">
<title>Node8&#45;&gt;Node23</title>
<g id="a_edge15_Node000008_Node000023"><a xlink:title=" ">
<path fill="none" stroke="#63b8ff" d="M713.88,-1000.15C710.63,-1090.73 692.61,-1465.56 615,-1546.4 604.64,-1557.19 589.44,-1562.24 574.9,-1564.41"/>
<polygon fill="#63b8ff" stroke="#63b8ff" points="717.39,-1000.04 714.23,-989.93 710.39,-999.8 717.39,-1000.04"/>
</a>
</g>
</g>
<!-- Node24 -->
<g id="Node000024" class="node">
<title>Node24</title>
<g id="a_Node000024"><a xlink:href="rinex_8cpp.html#a774458b36a7a13e1263568e05106dc83" target="_top" xlink:title="Decode obs header.">
<path fill="#fff0f0" stroke="red" d="M564.17,-1536.9C564.17,-1536.9 498.83,-1536.9 498.83,-1536.9 495.67,-1536.9 492.5,-1533.74 492.5,-1530.57 492.5,-1530.57 492.5,-1524.24 492.5,-1524.24 492.5,-1521.07 495.67,-1517.9 498.83,-1517.9 498.83,-1517.9 564.17,-1517.9 564.17,-1517.9 567.33,-1517.9 570.5,-1521.07 570.5,-1524.24 570.5,-1524.24 570.5,-1530.57 570.5,-1530.57 570.5,-1533.74 567.33,-1536.9 564.17,-1536.9"/>
<text text-anchor="middle" x="531.5" y="-1524.9" font-family="Helvetica,sans-Serif" font-size="10.00">decodeObsH</text>
</a>
</g>
</g>
<!-- Node8&#45;&gt;Node24 -->
<g id="edge16_Node000008_Node000024" class="edge">
<title>Node8&#45;&gt;Node24</title>
<g id="a_edge16_Node000008_Node000024"><a xlink:title=" ">
<path fill="none" stroke="#63b8ff" d="M713.44,-1000.16C708.43,-1086.16 684.4,-1427.07 615,-1503.4 603.76,-1515.77 586.57,-1521.91 570.78,-1524.9"/>
<polygon fill="#63b8ff" stroke="#63b8ff" points="716.94,-1000.15 714.01,-989.96 709.96,-999.75 716.94,-1000.15"/>
</a>
</g>
</g>
<!-- Node25 -->
<g id="Node000025" class="node">
<title>Node25</title>
<g id="a_Node000025"><a xlink:href="rinex_8cpp.html#a8751d1a1d98fb7862f17d0a3ebc22310" target="_top" xlink:title="Read rinex header.">
<path fill="#fff0f0" stroke="red" d="M369.17,-801.9C369.17,-801.9 316.83,-801.9 316.83,-801.9 313.67,-801.9 310.5,-798.74 310.5,-795.57 310.5,-795.57 310.5,-789.24 310.5,-789.24 310.5,-786.07 313.67,-782.9 316.83,-782.9 316.83,-782.9 369.17,-782.9 369.17,-782.9 372.33,-782.9 375.5,-786.07 375.5,-789.24 375.5,-789.24 375.5,-795.57 375.5,-795.57 375.5,-798.74 372.33,-801.9 369.17,-801.9"/>
<text text-anchor="middle" x="343" y="-789.9" font-family="Helvetica,sans-Serif" font-size="10.00">readRnxH</text>
</a>
</g>
</g>
<!-- Node8&#45;&gt;Node25 -->
<g id="edge47_Node000008_Node000025" class="edge">
<title>Node8&#45;&gt;Node25</title>
<g id="a_edge47_Node000008_Node000025"><a xlink:title=" ">
<path fill="none" stroke="#63b8ff" d="M652.98,-964.55C652.29,-963.87 651.63,-963.15 651,-962.4 604.59,-907.65 668.51,-689.25 615,-641.4 559.67,-591.93 513.7,-606.88 448,-641.4 388.83,-672.5 356.75,-754.19 347.14,-782.54"/>
<polygon fill="#63b8ff" stroke="#63b8ff" points="651.14,-967.56 661.2,-970.88 655.41,-962.01 651.14,-967.56"/>
</a>
</g>
</g>
<!-- Node28 -->
<g id="Node000028" class="node">
<title>Node28</title>
<g id="a_Node000028"><a xlink:href="spp_8cpp.html#ad923112e4e6dfdfc8b050b68851fe1d0" target="_top" xlink:title="Estimate receiver position and biases using code measurements.">
<path fill="#fff0f0" stroke="red" d="M549.67,-1460.9C549.67,-1460.9 513.33,-1460.9 513.33,-1460.9 510.17,-1460.9 507,-1457.74 507,-1454.57 507,-1454.57 507,-1448.24 507,-1448.24 507,-1445.07 510.17,-1441.9 513.33,-1441.9 513.33,-1441.9 549.67,-1441.9 549.67,-1441.9 552.83,-1441.9 556,-1445.07 556,-1448.24 556,-1448.24 556,-1454.57 556,-1454.57 556,-1457.74 552.83,-1460.9 549.67,-1460.9"/>
<text text-anchor="middle" x="531.5" y="-1448.9" font-family="Helvetica,sans-Serif" font-size="10.00">estpos</text>
</a>
</g>
</g>
<!-- Node8&#45;&gt;Node28 -->
<g id="edge19_Node000008_Node000028" class="edge">
<title>Node8&#45;&gt;Node28</title>
<g id="a_edge19_Node000008_Node000028"><a xlink:title=" ">
<path fill="none" stroke="#63b8ff" d="M712.93,-1000.34C706.28,-1079.54 677.86,-1370.63 615,-1433.4 599.75,-1448.63 574.81,-1452.31 556.34,-1452.68"/>
<polygon fill="#63b8ff" stroke="#63b8ff" points="716.43,-1000.5 713.75,-990.25 709.45,-999.93 716.43,-1000.5"/>
</a>
</g>
</g>
<!-- Node31 -->
<g id="Node000031" class="node">
<title>Node31</title>
<g id="a_Node000031"><a xlink:href="ionoModel_8cpp.html#ae7821a74f98f349d4508712aeced88e1" target="_top" xlink:title="Updating the ionosphere model parameters The ionosphere model should be initialized by calling &#39;confi...">
<path fill="#fff0f0" stroke="red" d="M571.67,-1423.9C571.67,-1423.9 491.33,-1423.9 491.33,-1423.9 488.17,-1423.9 485,-1420.74 485,-1417.57 485,-1417.57 485,-1411.24 485,-1411.24 485,-1408.07 488.17,-1404.9 491.33,-1404.9 491.33,-1404.9 571.67,-1404.9 571.67,-1404.9 574.83,-1404.9 578,-1408.07 578,-1411.24 578,-1411.24 578,-1417.57 578,-1417.57 578,-1420.74 574.83,-1423.9 571.67,-1423.9"/>
<text text-anchor="middle" x="531.5" y="-1411.9" font-family="Helvetica,sans-Serif" font-size="10.00">filterIonosphere</text>
</a>
</g>
</g>
<!-- Node8&#45;&gt;Node31 -->
<g id="edge20_Node000008_Node000031" class="edge">
<title>Node8&#45;&gt;Node31</title>
<g id="a_edge20_Node000008_Node000031"><a xlink:title=" ">
<path fill="none" stroke="#63b8ff" d="M712.53,-1000.14C704.67,-1074.92 673.13,-1339.42 615,-1396.4 605.26,-1405.95 591.71,-1410.93 578.41,-1413.41"/>
<polygon fill="#63b8ff" stroke="#63b8ff" points="716.01,-1000.49 713.55,-990.18 709.05,-999.77 716.01,-1000.49"/>
</a>
</g>
</g>
<!-- Node33 -->
<g id="Node000033" class="node">
<title>Node33</title>
<g id="a_Node000033"><a xlink:href="erp_8cpp.html#afe3874cc58d609f4ccc2b03a5ef632b8" target="_top" xlink:title="Get earth rotation parameter values.">
<path fill="#fff0f0" stroke="red" d="M549.17,-1386.9C549.17,-1386.9 513.83,-1386.9 513.83,-1386.9 510.67,-1386.9 507.5,-1383.74 507.5,-1380.57 507.5,-1380.57 507.5,-1374.24 507.5,-1374.24 507.5,-1371.07 510.67,-1367.9 513.83,-1367.9 513.83,-1367.9 549.17,-1367.9 549.17,-1367.9 552.33,-1367.9 555.5,-1371.07 555.5,-1374.24 555.5,-1374.24 555.5,-1380.57 555.5,-1380.57 555.5,-1383.74 552.33,-1386.9 549.17,-1386.9"/>
<text text-anchor="middle" x="531.5" y="-1374.9" font-family="Helvetica,sans-Serif" font-size="10.00">getErp</text>
</a>
</g>
</g>
<!-- Node8&#45;&gt;Node33 -->
<g id="edge21_Node000008_Node000033" class="edge">
<title>Node8&#45;&gt;Node33</title>
<g id="a_edge21_Node000008_Node000033"><a xlink:title=" ">
<path fill="none" stroke="#63b8ff" d="M712.04,-1000.17C702.85,-1070.65 668.37,-1308.22 615,-1359.4 599.34,-1374.42 574.21,-1378.09 555.8,-1378.51"/>
<polygon fill="#63b8ff" stroke="#63b8ff" points="715.54,-1000.37 713.33,-990.01 708.59,-999.49 715.54,-1000.37"/>
</a>
</g>
</g>
<!-- Node62 -->
<g id="Node000062" class="node">
<title>Node62</title>
<g id="a_Node000062"><a xlink:href="minimumConstraints_8cpp.html#aa40934b017f373d875c3470591eff52e" target="_top" xlink:title=" ">
<path fill="#fff0f0" stroke="red" d="M363.17,-1235.9C363.17,-1235.9 322.83,-1235.9 322.83,-1235.9 319.67,-1235.9 316.5,-1232.74 316.5,-1229.57 316.5,-1229.57 316.5,-1223.24 316.5,-1223.24 316.5,-1220.07 319.67,-1216.9 322.83,-1216.9 322.83,-1216.9 363.17,-1216.9 363.17,-1216.9 366.33,-1216.9 369.5,-1220.07 369.5,-1223.24 369.5,-1223.24 369.5,-1229.57 369.5,-1229.57 369.5,-1232.74 366.33,-1235.9 363.17,-1235.9"/>
<text text-anchor="middle" x="343" y="-1223.9" font-family="Helvetica,sans-Serif" font-size="10.00">mincon</text>
</a>
</g>
</g>
<!-- Node8&#45;&gt;Node62 -->
<g id="edge33_Node000008_Node000062" class="edge">
<title>Node8&#45;&gt;Node62</title>
<g id="a_edge33_Node000008_Node000062"><a xlink:title=" ">
<path fill="none" stroke="#63b8ff" d="M712.48,-1000.46C706.71,-1046.09 685.69,-1157.59 615,-1207.4 539.63,-1260.52 421.33,-1243.59 369.62,-1232.62"/>
<polygon fill="#63b8ff" stroke="#63b8ff" points="715.98,-1000.69 713.64,-990.35 709.02,-999.89 715.98,-1000.69"/>
</a>
</g>
</g>
<!-- Node64 -->
<g id="Node000064" class="node">
<title>Node64</title>
<g id="a_Node000064"><a xlink:href="ppp__pseudoobs_8cpp.html#ac2b5126ef33590aefb40b9f839bc4ba6" target="_top" xlink:title=" ">
<path fill="#fff0f0" stroke="red" d="M206.17,-763.9C206.17,-763.9 108.83,-763.9 108.83,-763.9 105.67,-763.9 102.5,-760.74 102.5,-757.57 102.5,-757.57 102.5,-751.24 102.5,-751.24 102.5,-748.07 105.67,-744.9 108.83,-744.9 108.83,-744.9 206.17,-744.9 206.17,-744.9 209.33,-744.9 212.5,-748.07 212.5,-751.24 212.5,-751.24 212.5,-757.57 212.5,-757.57 212.5,-760.74 209.33,-763.9 206.17,-763.9"/>
<text text-anchor="middle" x="157.5" y="-751.9" font-family="Helvetica,sans-Serif" font-size="10.00">receiverPseudoObs</text>
</a>
</g>
</g>
<!-- Node8&#45;&gt;Node64 -->
<g id="edge48_Node000008_Node000064" class="edge">
<title>Node8&#45;&gt;Node64</title>
<g id="a_edge48_Node000008_Node000064"><a xlink:title=" ">
<path fill="none" stroke="#63b8ff" d="M652.92,-964.51C652.25,-963.84 651.61,-963.13 651,-962.4 599.92,-901.47 673.99,-659.73 615,-606.4 474.39,-479.3 223.18,-694.99 168.99,-744.58"/>
<polygon fill="#63b8ff" stroke="#63b8ff" points="650.84,-967.33 660.87,-970.74 655.15,-961.82 650.84,-967.33"/>
</a>
</g>
</g>
<!-- Node46 -->
<g id="Node000046" class="node">
<title>Node46</title>
<g id="a_Node000046"><a xlink:href="ppp__slr_8cpp.html#a0f53eb82b1b0572a1aabec8b6fe5a6ad" target="_top" xlink:title=" ">
<path fill="#fff0f0" stroke="red" d="M371.17,-554.9C371.17,-554.9 314.83,-554.9 314.83,-554.9 311.67,-554.9 308.5,-551.74 308.5,-548.57 308.5,-548.57 308.5,-542.24 308.5,-542.24 308.5,-539.07 311.67,-535.9 314.83,-535.9 314.83,-535.9 371.17,-535.9 371.17,-535.9 374.33,-535.9 377.5,-539.07 377.5,-542.24 377.5,-542.24 377.5,-548.57 377.5,-548.57 377.5,-551.74 374.33,-554.9 371.17,-554.9"/>
<text text-anchor="middle" x="343" y="-542.9" font-family="Helvetica,sans-Serif" font-size="10.00">receiverSlr</text>
</a>
</g>
</g>
<!-- Node8&#45;&gt;Node46 -->
<g id="edge49_Node000008_Node000046" class="edge">
<title>Node8&#45;&gt;Node46</title>
<g id="a_edge49_Node000008_Node000046"><a xlink:title=" ">
<path fill="none" stroke="#63b8ff" d="M652.91,-964.52C652.24,-963.84 651.61,-963.14 651,-962.4 594.98,-894.93 677.11,-631.32 615,-569.4 552.12,-506.71 435.44,-523.15 377.89,-536.31"/>
<polygon fill="#63b8ff" stroke="#63b8ff" points="650.81,-967.33 660.83,-970.76 655.14,-961.83 650.81,-967.33"/>
</a>
</g>
</g>
<!-- Node43 -->
<g id="Node000043" class="node">
<title>Node43</title>
<g id="a_Node000043"><a xlink:href="ppp__obs_8cpp.html#a375577932a02b1ae21ad60b7e39b040e" target="_top" xlink:title=" ">
<path fill="#fff0f0" stroke="red" d="M389.17,-517.9C389.17,-517.9 296.83,-517.9 296.83,-517.9 293.67,-517.9 290.5,-514.74 290.5,-511.57 290.5,-511.57 290.5,-505.24 290.5,-505.24 290.5,-502.07 293.67,-498.9 296.83,-498.9 296.83,-498.9 389.17,-498.9 389.17,-498.9 392.33,-498.9 395.5,-502.07 395.5,-505.24 395.5,-505.24 395.5,-511.57 395.5,-511.57 395.5,-514.74 392.33,-517.9 389.17,-517.9"/>
<text text-anchor="middle" x="343" y="-505.9" font-family="Helvetica,sans-Serif" font-size="10.00">receiverUducGnss</text>
</a>
</g>
</g>
<!-- Node8&#45;&gt;Node43 -->
<g id="edge50_Node000008_Node000043" class="edge">
<title>Node8&#45;&gt;Node43</title>
<g id="a_edge50_Node000008_Node000043"><a xlink:title=" ">
<path fill="none" stroke="#63b8ff" d="M652.9,-964.53C652.24,-963.85 651.6,-963.14 651,-962.4 588.56,-886.45 685.68,-589.76 615,-521.4 584.86,-492.26 465.62,-497.36 395.75,-503.17"/>
<polygon fill="#63b8ff" stroke="#63b8ff" points="650.79,-967.32 660.8,-970.79 655.14,-961.84 650.79,-967.32"/>
</a>
</g>
</g>
<!-- Node86 -->
<g id="Node000086" class="node">
<title>Node86</title>
<g id="a_Node000086"><a xlink:href="tides_8cpp.html#a39a8c3eb047cfec80cee2b90ad29962d" target="_top" xlink:title=" ">
<path fill="#fff0f0" stroke="red" d="M365.17,-442.9C365.17,-442.9 320.83,-442.9 320.83,-442.9 317.67,-442.9 314.5,-439.74 314.5,-436.57 314.5,-436.57 314.5,-430.24 314.5,-430.24 314.5,-427.07 317.67,-423.9 320.83,-423.9 320.83,-423.9 365.17,-423.9 365.17,-423.9 368.33,-423.9 371.5,-427.07 371.5,-430.24 371.5,-430.24 371.5,-436.57 371.5,-436.57 371.5,-439.74 368.33,-442.9 365.17,-442.9"/>
<text text-anchor="middle" x="343" y="-430.9" font-family="Helvetica,sans-Serif" font-size="10.00">tideDisp</text>
</a>
</g>
</g>
<!-- Node8&#45;&gt;Node86 -->
<g id="edge58_Node000008_Node000086" class="edge">
<title>Node8&#45;&gt;Node86</title>
<g id="a_edge58_Node000008_Node000086"><a xlink:title=" ">
<path fill="none" stroke="#63b8ff" d="M652.53,-964.22C652,-963.63 651.49,-963.03 651,-962.4 590.14,-885.21 685.91,-146.49 615,-78.4 561.46,-27 503.95,-29.64 448,-78.4 403.86,-116.87 433.81,-285.07 412,-339.4 398.12,-373.99 368.79,-407.68 353.59,-423.7"/>
<polygon fill="#63b8ff" stroke="#63b8ff" points="650.44,-967.02 660.36,-970.73 654.92,-961.64 650.44,-967.02"/>
</a>
</g>
</g>
<!-- Node92 -->
<g id="Node000092" class="node">
<title>Node92</title>
<g id="a_Node000092"><a xlink:href="ppp__pseudoobs_8cpp.html#ae73c509527efa6401eb80a02825fb7fd" target="_top" xlink:title=" ">
<path fill="#fff0f0" stroke="red" d="M571.17,-1349.9C571.17,-1349.9 491.83,-1349.9 491.83,-1349.9 488.67,-1349.9 485.5,-1346.74 485.5,-1343.57 485.5,-1343.57 485.5,-1337.24 485.5,-1337.24 485.5,-1334.07 488.67,-1330.9 491.83,-1330.9 491.83,-1330.9 571.17,-1330.9 571.17,-1330.9 574.33,-1330.9 577.5,-1334.07 577.5,-1337.24 577.5,-1337.24 577.5,-1343.57 577.5,-1343.57 577.5,-1346.74 574.33,-1349.9 571.17,-1349.9"/>
<text text-anchor="middle" x="531.5" y="-1337.9" font-family="Helvetica,sans-Serif" font-size="10.00">ionoPseudoObs</text>
</a>
</g>
</g>
<!-- Node8&#45;&gt;Node92 -->
<g id="edge30_Node000008_Node000092" class="edge">
<title>Node8&#45;&gt;Node92</title>
<g id="a_edge30_Node000008_Node000092"><a xlink:title=" ">
<path fill="none" stroke="#63b8ff" d="M714.79,-1000.3C714.5,-1057.87 705.57,-1226.27 615,-1316.4 605.06,-1326.3 591.3,-1332.16 577.86,-1335.62"/>
<polygon fill="#63b8ff" stroke="#63b8ff" points="718.29,-1000.02 714.75,-990.04 711.29,-1000.05 718.29,-1000.02"/>
</a>
</g>
</g>
<!-- Node21 -->
<g id="Node000021" class="node">
<title>Node21</title>
<g id="a_Node000021"><a xlink:href="main_8cpp.html#ae9a767ba206649ca2e395dd210c2218b" target="_top" xlink:title="Perform operations for each station This function occurs in parallel with other stations &#45; ensure tha...">
<path fill="#fff0f0" stroke="red" d="M231.67,-1009.9C231.67,-1009.9 83.33,-1009.9 83.33,-1009.9 80.17,-1009.9 77,-1006.74 77,-1003.57 77,-1003.57 77,-997.24 77,-997.24 77,-994.07 80.17,-990.9 83.33,-990.9 83.33,-990.9 231.67,-990.9 231.67,-990.9 234.83,-990.9 238,-994.07 238,-997.24 238,-997.24 238,-1003.57 238,-1003.57 238,-1006.74 234.83,-1009.9 231.67,-1009.9"/>
<text text-anchor="middle" x="157.5" y="-997.9" font-family="Helvetica,sans-Serif" font-size="10.00">mainOncePerEpochPerStation</text>
</a>
</g>
</g>
<!-- Node8&#45;&gt;Node21 -->
<g id="edge32_Node000008_Node000021" class="edge">
<title>Node8&#45;&gt;Node21</title>
<g id="a_edge32_Node000008_Node000021"><a xlink:title=" ">
<path fill="none" stroke="#63b8ff" d="M713.82,-1000.32C710.9,-1050.53 695.56,-1182.28 615,-1239.4 553.18,-1283.24 338.01,-1285.99 274,-1245.4 186.43,-1189.88 164.03,-1048.24 159.5,-1010.03"/>
<polygon fill="#63b8ff" stroke="#63b8ff" points="717.32,-1000.31 714.3,-990.15 710.33,-999.98 717.32,-1000.31"/>
</a>
</g>
</g>
<!-- Node93 -->
<g id="Node000093" class="node">
<title>Node93</title>
<g id="a_Node000093"><a xlink:href="ionoMeas_8cpp.html#ab3f111d5e6d66de4751fbce467a29372" target="_top" xlink:title=" ">
<path fill="#fff0f0" stroke="red" d="M564.17,-1197.9C564.17,-1197.9 498.83,-1197.9 498.83,-1197.9 495.67,-1197.9 492.5,-1194.74 492.5,-1191.57 492.5,-1191.57 492.5,-1185.24 492.5,-1185.24 492.5,-1182.07 495.67,-1178.9 498.83,-1178.9 498.83,-1178.9 564.17,-1178.9 564.17,-1178.9 567.33,-1178.9 570.5,-1182.07 570.5,-1185.24 570.5,-1185.24 570.5,-1191.57 570.5,-1191.57 570.5,-1194.74 567.33,-1197.9 564.17,-1197.9"/>
<text text-anchor="middle" x="531.5" y="-1185.9" font-family="Helvetica,sans-Serif" font-size="10.00">obsIonoData</text>
</a>
</g>
</g>
<!-- Node8&#45;&gt;Node93 -->
<g id="edge34_Node000008_Node000093" class="edge">
<title>Node8&#45;&gt;Node93</title>
<g id="a_edge34_Node000008_Node000093"><a xlink:title=" ">
<path fill="none" stroke="#63b8ff" d="M710.11,-1000.01C700.3,-1039.01 672.79,-1126.33 615,-1170.4 602.41,-1180.01 585.76,-1184.71 570.72,-1186.94"/>
<polygon fill="#63b8ff" stroke="#63b8ff" points="713.54,-1000.71 712.46,-990.17 706.73,-999.08 713.54,-1000.71"/>
</a>
</g>
</g>
<!-- Node94 -->
<g id="Node000094" class="node">
<title>Node94</title>
<g id="a_Node000094"><a xlink:href="preprocessor_8cpp.html#a5bf581abef6389557c3fdd95086a5c42" target="_top" xlink:title=" ">
<path fill="#fff0f0" stroke="red" d="M565.67,-1008.9C565.67,-1008.9 497.33,-1008.9 497.33,-1008.9 494.17,-1008.9 491,-1005.74 491,-1002.57 491,-1002.57 491,-996.24 491,-996.24 491,-993.07 494.17,-989.9 497.33,-989.9 497.33,-989.9 565.67,-989.9 565.67,-989.9 568.83,-989.9 572,-993.07 572,-996.24 572,-996.24 572,-1002.57 572,-1002.57 572,-1005.74 568.83,-1008.9 565.67,-1008.9"/>
<text text-anchor="middle" x="531.5" y="-996.9" font-family="Helvetica,sans-Serif" font-size="10.00">obsVariances</text>
</a>
</g>
</g>
<!-- Node8&#45;&gt;Node94 -->
<g id="edge35_Node000008_Node000094" class="edge">
<title>Node8&#45;&gt;Node94</title>
<g id="a_edge35_Node000008_Node000094"><a xlink:title=" ">
<path fill="none" stroke="#63b8ff" d="M640.59,-988.12C617.22,-990.56 592.29,-993.16 572.26,-995.25"/>
<polygon fill="#63b8ff" stroke="#63b8ff" points="641.26,-991.57 650.85,-987.05 640.54,-984.61 641.26,-991.57"/>
</a>
</g>
</g>
<!-- Node95 -->
<g id="Node000095" class="node">
<title>Node95</title>
<g id="a_Node000095"><a xlink:href="cost_8cpp.html#abc021ac32635abe4cf6daef44cabb888" target="_top" xlink:title="Outputs troposphere COST file.">
<path fill="#fff0f0" stroke="red" d="M560.17,-971.9C560.17,-971.9 502.83,-971.9 502.83,-971.9 499.67,-971.9 496.5,-968.74 496.5,-965.57 496.5,-965.57 496.5,-959.24 496.5,-959.24 496.5,-956.07 499.67,-952.9 502.83,-952.9 502.83,-952.9 560.17,-952.9 560.17,-952.9 563.33,-952.9 566.5,-956.07 566.5,-959.24 566.5,-959.24 566.5,-965.57 566.5,-965.57 566.5,-968.74 563.33,-971.9 560.17,-971.9"/>
<text text-anchor="middle" x="531.5" y="-959.9" font-family="Helvetica,sans-Serif" font-size="10.00">outputCost</text>
</a>
</g>
</g>
<!-- Node8&#45;&gt;Node95 -->
<g id="edge37_Node000008_Node000095" class="edge">
<title>Node8&#45;&gt;Node95</title>
<g id="a_edge37_Node000008_Node000095"><a xlink:title=" ">
<path fill="none" stroke="#63b8ff" d="M640.76,-973.11C615.13,-970.58 587.6,-967.85 566.72,-965.79"/>
<polygon fill="#63b8ff" stroke="#63b8ff" points="640.55,-976.61 650.85,-974.11 641.24,-969.64 640.55,-976.61"/>
</a>
</g>
</g>
<!-- Node96 -->
<g id="Node000096" class="node">
<title>Node96</title>
<g id="a_Node000096"><a xlink:href="ppp__obs_8cpp.html#a9b2ff8aad927c7fc5fd2303a9d473f3e" target="_top" xlink:title=" ">
<path fill="#fff0f0" stroke="red" d="M574.17,-895.9C574.17,-895.9 488.83,-895.9 488.83,-895.9 485.67,-895.9 482.5,-892.74 482.5,-889.57 482.5,-889.57 482.5,-883.24 482.5,-883.24 482.5,-880.07 485.67,-876.9 488.83,-876.9 488.83,-876.9 574.17,-876.9 574.17,-876.9 577.33,-876.9 580.5,-880.07 580.5,-883.24 580.5,-883.24 580.5,-889.57 580.5,-889.57 580.5,-892.74 577.33,-895.9 574.17,-895.9"/>
<text text-anchor="middle" x="531.5" y="-883.9" font-family="Helvetica,sans-Serif" font-size="10.00">pppRecCodeBias</text>
</a>
</g>
</g>
<!-- Node8&#45;&gt;Node96 -->
<g id="edge39_Node000008_Node000096" class="edge">
<title>Node8&#45;&gt;Node96</title>
<g id="a_edge39_Node000008_Node000096"><a xlink:title=" ">
<path fill="none" stroke="#63b8ff" d="M657.56,-966.51C655.28,-965.26 653.08,-963.89 651,-962.4 628.13,-946.06 637.81,-926.83 615,-910.4 604.95,-903.17 592.75,-898.1 580.84,-894.56"/>
<polygon fill="#63b8ff" stroke="#63b8ff" points="656.16,-969.72 666.7,-970.8 659.14,-963.38 656.16,-969.72"/>
</a>
</g>
</g>
<!-- Node20 -->
<g id="Node000020" class="node">
<title>Node20</title>
<g id="a_Node000020"><a xlink:href="preprocessor_8cpp.html#a4fe89d45413a11705ec5dc9999e6daac" target="_top" xlink:title=" ">
<path fill="#fff0f0" stroke="red" d="M376.67,-971.9C376.67,-971.9 309.33,-971.9 309.33,-971.9 306.17,-971.9 303,-968.74 303,-965.57 303,-965.57 303,-959.24 303,-959.24 303,-956.07 306.17,-952.9 309.33,-952.9 309.33,-952.9 376.67,-952.9 376.67,-952.9 379.83,-952.9 383,-956.07 383,-959.24 383,-959.24 383,-965.57 383,-965.57 383,-968.74 379.83,-971.9 376.67,-971.9"/>
<text text-anchor="middle" x="343" y="-959.9" font-family="Helvetica,sans-Serif" font-size="10.00">preprocessor</text>
</a>
</g>
</g>
<!-- Node8&#45;&gt;Node20 -->
<g id="edge41_Node000008_Node000020" class="edge">
<title>Node8&#45;&gt;Node20</title>
<g id="a_edge41_Node000008_Node000020"><a xlink:title=" ">
<path fill="none" stroke="#63b8ff" d="M654,-965.14C652.95,-964.28 651.95,-963.37 651,-962.4 608.48,-919.54 663.02,-868.01 615,-831.4 555.97,-786.41 513.29,-796.11 448,-831.4 422.3,-845.3 429.79,-863.23 412,-886.4 392.81,-911.4 367.43,-938.38 353.75,-952.5"/>
<polygon fill="#63b8ff" stroke="#63b8ff" points="652.4,-968.28 662.67,-970.86 656.25,-962.43 652.4,-968.28"/>
</a>
</g>
</g>
<!-- Node97 -->
<g id="Node000097" class="node">
<title>Node97</title>
<g id="a_Node000097"><a xlink:href="ppp__pseudoobs_8cpp.html#accfefc993178e71db6783bbe525342a7" target="_top" xlink:title=" ">
<path fill="#fff0f0" stroke="red" d="M569.67,-858.9C569.67,-858.9 493.33,-858.9 493.33,-858.9 490.17,-858.9 487,-855.74 487,-852.57 487,-852.57 487,-846.24 487,-846.24 487,-843.07 490.17,-839.9 493.33,-839.9 493.33,-839.9 569.67,-839.9 569.67,-839.9 572.83,-839.9 576,-843.07 576,-846.24 576,-846.24 576,-852.57 576,-852.57 576,-855.74 572.83,-858.9 569.67,-858.9"/>
<text text-anchor="middle" x="531.5" y="-846.9" font-family="Helvetica,sans-Serif" font-size="10.00">pseudoRecDcb</text>
</a>
</g>
</g>
<!-- Node8&#45;&gt;Node97 -->
<g id="edge45_Node000008_Node000097" class="edge">
<title>Node8&#45;&gt;Node97</title>
<g id="a_edge45_Node000008_Node000097"><a xlink:title=" ">
<path fill="none" stroke="#63b8ff" d="M655.04,-965.69C653.63,-964.67 652.28,-963.57 651,-962.4 617.98,-932.22 648.76,-897.76 615,-868.4 604.35,-859.15 590.09,-854.16 576.42,-851.54"/>
<polygon fill="#63b8ff" stroke="#63b8ff" points="653.26,-968.71 663.64,-970.82 656.84,-962.69 653.26,-968.71"/>
</a>
</g>
</g>
<!-- Node98 -->
<g id="Node000098" class="node">
<title>Node98</title>
<g id="a_Node000098"><a xlink:href="ppp__ambres_8cpp.html#a020b06329797411a2dc7746aadd19361" target="_top" xlink:title=" ">
<path fill="#fff0f0" stroke="red" d="M565.17,-668.9C565.17,-668.9 497.83,-668.9 497.83,-668.9 494.67,-668.9 491.5,-665.74 491.5,-662.57 491.5,-662.57 491.5,-656.24 491.5,-656.24 491.5,-653.07 494.67,-649.9 497.83,-649.9 497.83,-649.9 565.17,-649.9 565.17,-649.9 568.33,-649.9 571.5,-653.07 571.5,-656.24 571.5,-656.24 571.5,-662.57 571.5,-662.57 571.5,-665.74 568.33,-668.9 565.17,-668.9"/>
<text text-anchor="middle" x="531.5" y="-656.9" font-family="Helvetica,sans-Serif" font-size="10.00">queryBiasUC</text>
</a>
</g>
</g>
<!-- Node8&#45;&gt;Node98 -->
<g id="edge46_Node000008_Node000098" class="edge">
<title>Node8&#45;&gt;Node98</title>
<g id="a_edge46_Node000008_Node000098"><a xlink:title=" ">
<path fill="none" stroke="#63b8ff" d="M653.85,-965.14C652.86,-964.28 651.91,-963.37 651,-962.4 599.58,-907.73 642.62,-867.2 615,-797.4 594.56,-745.75 556.05,-691.02 539.91,-669.2"/>
<polygon fill="#63b8ff" stroke="#63b8ff" points="651.96,-968.09 662.17,-970.88 655.93,-962.33 651.96,-968.09"/>
</a>
</g>
</g>
<!-- Node102 -->
<g id="Node000102" class="node">
<title>Node102</title>
<g id="a_Node000102"><a xlink:href="ppp_8cpp.html#a075655f5235940732703f2e6ca41421a" target="_top" xlink:title="Remove ambiguity states from filter when they deemed old or bad This effectively reinitialises them o...">
<path fill="#fff0f0" stroke="red" d="M590.67,-478.9C590.67,-478.9 472.33,-478.9 472.33,-478.9 469.17,-478.9 466,-475.74 466,-472.57 466,-472.57 466,-466.24 466,-466.24 466,-463.07 469.17,-459.9 472.33,-459.9 472.33,-459.9 590.67,-459.9 590.67,-459.9 593.83,-459.9 597,-463.07 597,-466.24 597,-466.24 597,-472.57 597,-472.57 597,-475.74 593.83,-478.9 590.67,-478.9"/>
<text text-anchor="middle" x="531.5" y="-466.9" font-family="Helvetica,sans-Serif" font-size="10.00">removeBadAmbiguities</text>
</a>
</g>
</g>
<!-- Node8&#45;&gt;Node102 -->
<g id="edge51_Node000008_Node000102" class="edge">
<title>Node8&#45;&gt;Node102</title>
<g id="a_edge51_Node000008_Node000102"><a xlink:title=" ">
<path fill="none" stroke="#63b8ff" d="M652.89,-964.53C652.23,-963.85 651.6,-963.14 651,-962.4 584.82,-881.49 680.9,-574.54 615,-493.4 609.92,-487.15 603.31,-482.47 596.05,-478.97"/>
<polygon fill="#63b8ff" stroke="#63b8ff" points="650.78,-967.32 660.78,-970.81 655.13,-961.84 650.78,-967.32"/>
</a>
</g>
</g>
<!-- Node103 -->
<g id="Node000103" class="node">
<title>Node103</title>
<g id="a_Node000103"><a xlink:href="ppp_8cpp.html#a3d11452be1ce2ea58117c7fd3ac9f981" target="_top" xlink:title="Remove ambiguity states from filter when they deemed old or bad This effectively reinitialises them o...">
<path fill="#fff0f0" stroke="red" d="M591.17,-441.9C591.17,-441.9 471.83,-441.9 471.83,-441.9 468.67,-441.9 465.5,-438.74 465.5,-435.57 465.5,-435.57 465.5,-429.24 465.5,-429.24 465.5,-426.07 468.67,-422.9 471.83,-422.9 471.83,-422.9 591.17,-422.9 591.17,-422.9 594.33,-422.9 597.5,-426.07 597.5,-429.24 597.5,-429.24 597.5,-435.57 597.5,-435.57 597.5,-438.74 594.33,-441.9 591.17,-441.9"/>
<text text-anchor="middle" x="531.5" y="-429.9" font-family="Helvetica,sans-Serif" font-size="10.00">removeBadIonospheres</text>
</a>
</g>
</g>
<!-- Node8&#45;&gt;Node103 -->
<g id="edge52_Node000008_Node000103" class="edge">
<title>Node8&#45;&gt;Node103</title>
<g id="a_edge52_Node000008_Node000103"><a xlink:title=" ">
<path fill="none" stroke="#63b8ff" d="M652.88,-964.54C652.23,-963.85 651.6,-963.14 651,-962.4 579.07,-873.89 689.61,-536.67 615,-450.4 610.3,-444.97 604.38,-440.96 597.87,-438.02"/>
<polygon fill="#63b8ff" stroke="#63b8ff" points="650.76,-967.32 660.76,-970.83 655.13,-961.85 650.76,-967.32"/>
</a>
</g>
</g>
<!-- Node104 -->
<g id="Node000104" class="node">
<title>Node104</title>
<g id="a_Node000104"><a xlink:href="ppp_8cpp.html#a147ea2bf0bd356bafdb785a868364b5f" target="_top" xlink:title=" ">
<path fill="#fff0f0" stroke="red" d="M580.67,-404.9C580.67,-404.9 482.33,-404.9 482.33,-404.9 479.17,-404.9 476,-401.74 476,-398.57 476,-398.57 476,-392.24 476,-392.24 476,-389.07 479.17,-385.9 482.33,-385.9 482.33,-385.9 580.67,-385.9 580.67,-385.9 583.83,-385.9 587,-389.07 587,-392.24 587,-392.24 587,-398.57 587,-398.57 587,-401.74 583.83,-404.9 580.67,-404.9"/>
<text text-anchor="middle" x="531.5" y="-392.9" font-family="Helvetica,sans-Serif" font-size="10.00">selectAprioriSource</text>
</a>
</g>
</g>
<!-- Node8&#45;&gt;Node104 -->
<g id="edge53_Node000008_Node000104" class="edge">
<title>Node8&#45;&gt;Node104</title>
<g id="a_edge53_Node000008_Node000104"><a xlink:title=" ">
<path fill="none" stroke="#63b8ff" d="M652.88,-964.54C652.23,-963.86 651.6,-963.15 651,-962.4 574.12,-867.34 694.76,-506.07 615,-413.4 607.83,-405.07 597.78,-400.08 587.15,-397.18"/>
<polygon fill="#63b8ff" stroke="#63b8ff" points="650.75,-967.32 660.74,-970.84 655.13,-961.86 650.75,-967.32"/>
</a>
</g>
</g>
<!-- Node105 -->
<g id="Node000105" class="node">
<title>Node105</title>
<g id="a_Node000105"><a xlink:href="tropSinex_8cpp.html#a97e226ce7219f7e1f35c2fde83f435af" target="_top" xlink:title="Set data for trop description block.">
<path fill="#fff0f0" stroke="red" d="M568.67,-367.9C568.67,-367.9 494.33,-367.9 494.33,-367.9 491.17,-367.9 488,-364.74 488,-361.57 488,-361.57 488,-355.24 488,-355.24 488,-352.07 491.17,-348.9 494.33,-348.9 494.33,-348.9 568.67,-348.9 568.67,-348.9 571.83,-348.9 575,-352.07 575,-355.24 575,-355.24 575,-361.57 575,-361.57 575,-364.74 571.83,-367.9 568.67,-367.9"/>
<text text-anchor="middle" x="531.5" y="-355.9" font-family="Helvetica,sans-Serif" font-size="10.00">setDescription</text>
</a>
</g>
</g>
<!-- Node8&#45;&gt;Node105 -->
<g id="edge54_Node000008_Node000105" class="edge">
<title>Node8&#45;&gt;Node105</title>
<g id="a_edge54_Node000008_Node000105"><a xlink:title=" ">
<path fill="none" stroke="#63b8ff" d="M652.87,-964.54C652.22,-963.86 651.6,-963.15 651,-962.4 569.17,-860.79 699.91,-475.46 615,-376.4 605.17,-364.94 589.9,-359.79 575.15,-357.72"/>
<polygon fill="#63b8ff" stroke="#63b8ff" points="650.74,-967.32 660.72,-970.85 655.12,-961.86 650.74,-967.32"/>
</a>
</g>
</g>
<!-- Node107 -->
<g id="Node000107" class="node">
<title>Node107</title>
<g id="a_Node000107"><a xlink:href="tropSinex_8cpp.html#ad57f3048f1df0be47d338e2a87bea7ae" target="_top" xlink:title="Set troposphere solution data from filter.">
<path fill="#fff0f0" stroke="red" d="M583.17,-330.9C583.17,-330.9 479.83,-330.9 479.83,-330.9 476.67,-330.9 473.5,-327.74 473.5,-324.57 473.5,-324.57 473.5,-318.24 473.5,-318.24 473.5,-315.07 476.67,-311.9 479.83,-311.9 479.83,-311.9 583.17,-311.9 583.17,-311.9 586.33,-311.9 589.5,-315.07 589.5,-318.24 589.5,-318.24 589.5,-324.57 589.5,-324.57 589.5,-327.74 586.33,-330.9 583.17,-330.9"/>
<text text-anchor="middle" x="531.5" y="-318.9" font-family="Helvetica,sans-Serif" font-size="10.00">setTropSolFromFilter</text>
</a>
</g>
</g>
<!-- Node8&#45;&gt;Node107 -->
<g id="edge55_Node000008_Node000107" class="edge">
<title>Node8&#45;&gt;Node107</title>
<g id="a_edge55_Node000008_Node000107"><a xlink:title=" ">
<path fill="none" stroke="#63b8ff" d="M652.87,-964.55C652.22,-963.86 651.6,-963.15 651,-962.4 564.22,-854.24 705.06,-444.85 615,-339.4 608.43,-331.71 599.41,-326.86 589.73,-323.87"/>
<polygon fill="#63b8ff" stroke="#63b8ff" points="650.73,-967.32 660.71,-970.87 655.12,-961.86 650.73,-967.32"/>
</a>
</g>
</g>
<!-- Node109 -->
<g id="Node000109" class="node">
<title>Node109</title>
<g id="a_Node000109"><a xlink:href="pea__snx_8cpp.html#a92a02d9dc16f06646c5c668b81caaa1f" target="_top" xlink:title=" ">
<path fill="#fff0f0" stroke="red" d="M405.67,-330.9C405.67,-330.9 280.33,-330.9 280.33,-330.9 277.17,-330.9 274,-327.74 274,-324.57 274,-324.57 274,-318.24 274,-318.24 274,-315.07 277.17,-311.9 280.33,-311.9 280.33,-311.9 405.67,-311.9 405.67,-311.9 408.83,-311.9 412,-315.07 412,-318.24 412,-318.24 412,-324.57 412,-324.57 412,-327.74 408.83,-330.9 405.67,-330.9"/>
<text text-anchor="middle" x="343" y="-318.9" font-family="Helvetica,sans-Serif" font-size="10.00">sinexPerEpochPerStation</text>
</a>
</g>
</g>
<!-- Node8&#45;&gt;Node109 -->
<g id="edge56_Node000008_Node000109" class="edge">
<title>Node8&#45;&gt;Node109</title>
<g id="a_edge56_Node000008_Node000109"><a xlink:title=" ">
<path fill="none" stroke="#63b8ff" d="M652.87,-964.55C652.22,-963.86 651.59,-963.15 651,-962.4 605.13,-905.05 668.33,-352.9 615,-302.4 544.45,-235.6 411.96,-288.61 362.9,-311.87"/>
<polygon fill="#63b8ff" stroke="#63b8ff" points="650.72,-967.31 660.7,-970.87 655.12,-961.87 650.72,-967.31"/>
</a>
</g>
</g>
<!-- Node110 -->
<g id="Node000110" class="node">
<title>Node110</title>
<g id="a_Node000110"><a xlink:href="ppp__pseudoobs_8cpp.html#a0df461e27bceaa75ec50285c2abf8f27" target="_top" xlink:title=" ">
<path fill="#fff0f0" stroke="red" d="M570.17,-254.9C570.17,-254.9 492.83,-254.9 492.83,-254.9 489.67,-254.9 486.5,-251.74 486.5,-248.57 486.5,-248.57 486.5,-242.24 486.5,-242.24 486.5,-239.07 489.67,-235.9 492.83,-235.9 492.83,-235.9 570.17,-235.9 570.17,-235.9 573.33,-235.9 576.5,-239.07 576.5,-242.24 576.5,-242.24 576.5,-248.57 576.5,-248.57 576.5,-251.74 573.33,-254.9 570.17,-254.9"/>
<text text-anchor="middle" x="531.5" y="-242.9" font-family="Helvetica,sans-Serif" font-size="10.00">tropPseudoObs</text>
</a>
</g>
</g>
<!-- Node8&#45;&gt;Node110 -->
<g id="edge59_Node000008_Node000110" class="edge">
<title>Node8&#45;&gt;Node110</title>
<g id="a_edge59_Node000008_Node000110"><a xlink:title=" ">
<path fill="none" stroke="#63b8ff" d="M652.86,-964.55C652.22,-963.86 651.59,-963.15 651,-962.4 554.85,-841.84 710.74,-390.29 615,-269.4 605.74,-257.71 591.13,-251.49 576.75,-248.25"/>
<polygon fill="#63b8ff" stroke="#63b8ff" points="650.71,-967.31 660.69,-970.88 655.12,-961.87 650.71,-967.31"/>
</a>
</g>
</g>
<!-- Node111 -->
<g id="Node000111" class="node">
<title>Node111</title>
<g id="a_Node000111"><a xlink:href="ppppp_8cpp.html#a45f0cda97e5e3cff2eeb13b2cea9562f" target="_top" xlink:title="Prepare stec values clocks to minimise residuals to klobuchar model.">
<path fill="#fff0f0" stroke="red" d="M586.17,-217.9C586.17,-217.9 476.83,-217.9 476.83,-217.9 473.67,-217.9 470.5,-214.74 470.5,-211.57 470.5,-211.57 470.5,-205.24 470.5,-205.24 470.5,-202.07 473.67,-198.9 476.83,-198.9 476.83,-198.9 586.17,-198.9 586.17,-198.9 589.33,-198.9 592.5,-202.07 592.5,-205.24 592.5,-205.24 592.5,-211.57 592.5,-211.57 592.5,-214.74 589.33,-217.9 586.17,-217.9"/>
<text text-anchor="middle" x="531.5" y="-205.9" font-family="Helvetica,sans-Serif" font-size="10.00">updateAvgIonosphere</text>
</a>
</g>
</g>
<!-- Node8&#45;&gt;Node111 -->
<g id="edge60_Node000008_Node000111" class="edge">
<title>Node8&#45;&gt;Node111</title>
<g id="a_edge60_Node000008_Node000111"><a xlink:title=" ">
<path fill="none" stroke="#63b8ff" d="M652.86,-964.55C652.21,-963.87 651.59,-963.15 651,-962.4 549.09,-834.23 720.8,-351.39 615,-226.4 609.13,-219.47 601.26,-214.83 592.71,-211.8"/>
<polygon fill="#63b8ff" stroke="#63b8ff" points="650.71,-967.31 660.68,-970.89 655.11,-961.87 650.71,-967.31"/>
</a>
</g>
</g>
<!-- Node112 -->
<g id="Node000112" class="node">
<title>Node112</title>
<g id="a_Node000112"><a xlink:href="ppppp_8cpp.html#a1a8f284c03d52ec377672f704c6f3504" target="_top" xlink:title="Prepare receiver clocks using spp values to minimise pre&#45;fit residuals.">
<path fill="#fff0f0" stroke="red" d="M575.67,-180.9C575.67,-180.9 487.33,-180.9 487.33,-180.9 484.17,-180.9 481,-177.74 481,-174.57 481,-174.57 481,-168.24 481,-168.24 481,-165.07 484.17,-161.9 487.33,-161.9 487.33,-161.9 575.67,-161.9 575.67,-161.9 578.83,-161.9 582,-165.07 582,-168.24 582,-168.24 582,-174.57 582,-174.57 582,-177.74 578.83,-180.9 575.67,-180.9"/>
<text text-anchor="middle" x="531.5" y="-168.9" font-family="Helvetica,sans-Serif" font-size="10.00">updateRecClocks</text>
</a>
</g>
</g>
<!-- Node8&#45;&gt;Node112 -->
<g id="edge61_Node000008_Node000112" class="edge">
<title>Node8&#45;&gt;Node112</title>
<g id="a_edge61_Node000008_Node000112"><a xlink:title=" ">
<path fill="none" stroke="#63b8ff" d="M652.86,-964.56C652.21,-963.87 651.59,-963.15 651,-962.4 597.57,-895.04 670.47,-255.1 615,-189.4 606.77,-179.66 594.61,-174.46 582.13,-171.84"/>
<polygon fill="#63b8ff" stroke="#63b8ff" points="650.7,-967.31 660.67,-970.9 655.11,-961.88 650.7,-967.31"/>
</a>
</g>
</g>
<!-- Node113 -->
<g id="Node000113" class="node">
<title>Node113</title>
<g id="a_Node000113"><a xlink:href="biasSINEXwrite_8cpp.html#ab94f8678684d9733ffbe150e860a564a" target="_top" xlink:title="Write bias SINEX head for the first time.">
<path fill="#fff0f0" stroke="red" d="M581.67,-143.9C581.67,-143.9 481.33,-143.9 481.33,-143.9 478.17,-143.9 475,-140.74 475,-137.57 475,-137.57 475,-131.24 475,-131.24 475,-128.07 478.17,-124.9 481.33,-124.9 481.33,-124.9 581.67,-124.9 581.67,-124.9 584.83,-124.9 588,-128.07 588,-131.24 588,-131.24 588,-137.57 588,-137.57 588,-140.74 584.83,-143.9 581.67,-143.9"/>
<text text-anchor="middle" x="531.5" y="-131.9" font-family="Helvetica,sans-Serif" font-size="10.00">writeBSINEXHeader</text>
</a>
</g>
</g>
<!-- Node8&#45;&gt;Node113 -->
<g id="edge62_Node000008_Node000113" class="edge">
<title>Node8&#45;&gt;Node113</title>
<g id="a_edge62_Node000008_Node000113"><a xlink:title=" ">
<path fill="none" stroke="#63b8ff" d="M652.86,-964.56C652.21,-963.87 651.59,-963.15 651,-962.4 595.09,-891.76 673.05,-221.3 615,-152.4 608.1,-144.22 598.43,-139.24 588.13,-136.3"/>
<polygon fill="#63b8ff" stroke="#63b8ff" points="650.69,-967.31 660.66,-970.9 655.11,-961.88 650.69,-967.31"/>
</a>
</g>
</g>
<!-- Node114 -->
<g id="Node000114" class="node">
<title>Node114</title>
<g id="a_Node000114"><a xlink:href="ionexWrite_8cpp.html#a210edc109068291059974a8a9622aa1a" target="_top" xlink:title=" ">
<path fill="#fff0f0" stroke="red" d="M572.17,-106.9C572.17,-106.9 490.83,-106.9 490.83,-106.9 487.67,-106.9 484.5,-103.74 484.5,-100.57 484.5,-100.57 484.5,-94.24 484.5,-94.24 484.5,-91.07 487.67,-87.9 490.83,-87.9 490.83,-87.9 572.17,-87.9 572.17,-87.9 575.33,-87.9 578.5,-91.07 578.5,-94.24 578.5,-94.24 578.5,-100.57 578.5,-100.57 578.5,-103.74 575.33,-106.9 572.17,-106.9"/>
<text text-anchor="middle" x="531.5" y="-94.9" font-family="Helvetica,sans-Serif" font-size="10.00">writeIonexHead</text>
</a>
</g>
</g>
<!-- Node8&#45;&gt;Node114 -->
<g id="edge63_Node000008_Node000114" class="edge">
<title>Node8&#45;&gt;Node114</title>
<g id="a_edge63_Node000008_Node000114"><a xlink:title=" ">
<path fill="none" stroke="#63b8ff" d="M652.54,-964.21C652.01,-963.63 651.49,-963.03 651,-962.4 592.61,-888.49 675.63,-187.5 615,-115.4 606.04,-104.75 592.36,-99.52 578.71,-97.16"/>
<polygon fill="#63b8ff" stroke="#63b8ff" points="650.44,-967.02 660.37,-970.73 654.92,-961.64 650.44,-967.02"/>
</a>
</g>
</g>
<!-- Node16&#45;&gt;Node5 -->
<g id="edge10_Node000016_Node000005" class="edge">
<title>Node16&#45;&gt;Node5</title>
<g id="a_edge10_Node000016_Node000005"><a xlink:title=" ">
<path fill="none" stroke="#63b8ff" d="M146.9,-1564.52C130.39,-1531.32 96.51,-1459.98 77,-1396.4 44.9,-1291.82 27.16,-1159.6 22.66,-1123.11"/>
<polygon fill="#63b8ff" stroke="#63b8ff" points="143.82,-1566.18 151.43,-1573.55 150.08,-1563.04 143.82,-1566.18"/>
</a>
</g>
</g>
<!-- Node17&#45;&gt;Node18 -->
<g id="edge12_Node000017_Node000018" class="edge">
<title>Node17&#45;&gt;Node18</title>
<g id="a_edge12_Node000017_Node000018"><a xlink:title=" ">
<path fill="none" stroke="#63b8ff" d="M488.72,-1705.89C454.54,-1698.93 406.93,-1689.23 375.79,-1682.88"/>
<polygon fill="#63b8ff" stroke="#63b8ff" points="488.37,-1709.39 498.86,-1707.96 489.76,-1702.53 488.37,-1709.39"/>
</a>
</g>
</g>
<!-- Node22&#45;&gt;Node18 -->
<g id="edge14_Node000022_Node000018" class="edge">
<title>Node22&#45;&gt;Node18</title>
<g id="a_edge14_Node000022_Node000018"><a xlink:title=" ">
<path fill="none" stroke="#63b8ff" d="M488.72,-1677.18C454.54,-1677 406.93,-1676.74 375.79,-1676.58"/>
<polygon fill="#63b8ff" stroke="#63b8ff" points="488.84,-1680.68 498.86,-1677.24 488.88,-1673.68 488.84,-1680.68"/>
</a>
</g>
</g>
<!-- Node24&#45;&gt;Node25 -->
<g id="edge17_Node000024_Node000025" class="edge">
<title>Node24&#45;&gt;Node25</title>
<g id="a_edge17_Node000024_Node000025"><a xlink:title=" ">
<path fill="none" stroke="#63b8ff" d="M497.33,-1513.42C479.46,-1504.02 458.9,-1489.79 448,-1470.4 380.27,-1349.9 474.05,-972.93 412,-849.4 401.28,-828.07 378.61,-811.67 362.4,-802.06"/>
<polygon fill="#63b8ff" stroke="#63b8ff" points="495.85,-1516.59 506.36,-1517.89 498.95,-1510.31 495.85,-1516.59"/>
</a>
</g>
</g>
<!-- Node34 -->
<g id="Node000034" class="node">
<title>Node34</title>
<g id="a_Node000034"><a xlink:href="compare_8cpp.html#aa8c289d9d4e60f862fb0a60566b76bd0" target="_top" xlink:title=" ">
<path fill="#fff0f0" stroke="red" d="M195.67,-1386.9C195.67,-1386.9 119.33,-1386.9 119.33,-1386.9 116.17,-1386.9 113,-1383.74 113,-1380.57 113,-1380.57 113,-1374.24 113,-1374.24 113,-1371.07 116.17,-1367.9 119.33,-1367.9 119.33,-1367.9 195.67,-1367.9 195.67,-1367.9 198.83,-1367.9 202,-1371.07 202,-1374.24 202,-1374.24 202,-1380.57 202,-1380.57 202,-1383.74 198.83,-1386.9 195.67,-1386.9"/>
<text text-anchor="middle" x="157.5" y="-1374.9" font-family="Helvetica,sans-Serif" font-size="10.00">compareOrbits</text>
</a>
</g>
</g>
<!-- Node33&#45;&gt;Node34 -->
<g id="edge22_Node000033_Node000034" class="edge">
<title>Node33&#45;&gt;Node34</title>
<g id="a_edge22_Node000033_Node000034"><a xlink:title=" ">
<path fill="none" stroke="#63b8ff" d="M497.17,-1377.4C429.78,-1377.4 277.37,-1377.4 202.16,-1377.4"/>
<polygon fill="#63b8ff" stroke="#63b8ff" points="497.23,-1380.9 507.23,-1377.4 497.23,-1373.9 497.23,-1380.9"/>
</a>
</g>
</g>
<!-- Node33&#45;&gt;Node62 -->
<g id="edge23_Node000033_Node000062" class="edge">
<title>Node33&#45;&gt;Node62</title>
<g id="a_edge23_Node000033_Node000062"><a xlink:title=" ">
<path fill="none" stroke="#63b8ff" d="M497.25,-1375.38C481.36,-1373.16 462.66,-1368.62 448,-1359.4 396.87,-1327.28 360.69,-1260.74 348.5,-1235.97"/>
<polygon fill="#63b8ff" stroke="#63b8ff" points="496.87,-1378.86 507.21,-1376.53 497.68,-1371.91 496.87,-1378.86"/>
</a>
</g>
</g>
<!-- Node65 -->
<g id="Node000065" class="node">
<title>Node65</title>
<g id="a_Node000065"><a xlink:href="ppp__pseudoobs_8cpp.html#a49ce4050de278a66c933406b92bbbf39" target="_top" xlink:title=" ">
<path fill="#fff0f0" stroke="red" d="M383.17,-876.9C383.17,-876.9 302.83,-876.9 302.83,-876.9 299.67,-876.9 296.5,-873.74 296.5,-870.57 296.5,-870.57 296.5,-864.24 296.5,-864.24 296.5,-861.07 299.67,-857.9 302.83,-857.9 302.83,-857.9 383.17,-857.9 383.17,-857.9 386.33,-857.9 389.5,-861.07 389.5,-864.24 389.5,-864.24 389.5,-870.57 389.5,-870.57 389.5,-873.74 386.33,-876.9 383.17,-876.9"/>
<text text-anchor="middle" x="343" y="-864.9" font-family="Helvetica,sans-Serif" font-size="10.00">orbitPseudoObs</text>
</a>
</g>
</g>
<!-- Node33&#45;&gt;Node65 -->
<g id="edge26_Node000033_Node000065" class="edge">
<title>Node33&#45;&gt;Node65</title>
<g id="a_edge26_Node000033_Node000065"><a xlink:title=" ">
<path fill="none" stroke="#63b8ff" d="M496.98,-1378.88C479.8,-1377.72 460.02,-1373.08 448,-1359.4 386.87,-1289.89 448.47,-1029.49 412,-944.4 399.7,-915.72 372.44,-890.27 356.42,-877.04"/>
<polygon fill="#63b8ff" stroke="#63b8ff" points="497.14,-1382.38 507.25,-1379.2 497.36,-1375.39 497.14,-1382.38"/>
</a>
</g>
</g>
<!-- Node33&#45;&gt;Node46 -->
<g id="edge27_Node000033_Node000046" class="edge">
<title>Node33&#45;&gt;Node46</title>
<g id="a_edge27_Node000033_Node000046"><a xlink:title=" ">
<path fill="none" stroke="#63b8ff" d="M496.84,-1379C479.63,-1377.88 459.85,-1373.23 448,-1359.4 405.61,-1309.96 423.34,-838.53 412,-774.4 396.62,-687.42 359.76,-586.65 347.81,-555.25"/>
<polygon fill="#63b8ff" stroke="#63b8ff" points="497.05,-1382.5 507.14,-1379.29 497.24,-1375.51 497.05,-1382.5"/>
</a>
</g>
</g>
<!-- Node33&#45;&gt;Node43 -->
<g id="edge28_Node000033_Node000043" class="edge">
<title>Node33&#45;&gt;Node43</title>
<g id="a_edge28_Node000033_Node000043"><a xlink:title=" ">
<path fill="none" stroke="#63b8ff" d="M497.09,-1379.1C479.76,-1378.05 459.8,-1373.43 448,-1359.4 388.35,-1288.52 470.08,-598.58 412,-526.4 407.71,-521.08 402.05,-517.22 395.81,-514.44"/>
<polygon fill="#63b8ff" stroke="#63b8ff" points="497.36,-1382.61 507.44,-1379.35 497.53,-1375.61 497.36,-1382.61"/>
</a>
</g>
</g>
<!-- Node33&#45;&gt;Node86 -->
<g id="edge29_Node000033_Node000086" class="edge">
<title>Node33&#45;&gt;Node86</title>
<g id="a_edge29_Node000033_Node000086"><a xlink:title=" ">
<path fill="none" stroke="#63b8ff" d="M497.08,-1379.11C479.75,-1378.06 459.79,-1373.44 448,-1359.4 385.77,-1285.32 455.09,-576.03 412,-489.4 401.51,-468.32 379.03,-452.34 362.79,-442.95"/>
<polygon fill="#63b8ff" stroke="#63b8ff" points="497.35,-1382.62 507.43,-1379.36 497.52,-1375.62 497.35,-1382.62"/>
</a>
</g>
</g>
<!-- Node62&#45;&gt;Node34 -->
<g id="edge24_Node000062_Node000034" class="edge">
<title>Node62&#45;&gt;Node34</title>
<g id="a_edge24_Node000062_Node000034"><a xlink:title=" ">
<path fill="none" stroke="#63b8ff" d="M322.41,-1242.52C284.32,-1273.87 201.29,-1342.19 170.4,-1367.61"/>
<polygon fill="#63b8ff" stroke="#63b8ff" points="324.74,-1245.14 330.24,-1236.08 320.3,-1239.73 324.74,-1245.14"/>
</a>
</g>
</g>
<!-- Node62&#45;&gt;Node64 -->
<g id="edge25_Node000062_Node000064" class="edge">
<title>Node62&#45;&gt;Node64</title>
<g id="a_edge25_Node000062_Node000064"><a xlink:title=" ">
<path fill="none" stroke="#63b8ff" d="M335.18,-1207.03C318.96,-1161.15 276.55,-1042.41 238,-944.4 210.64,-874.86 174.97,-792.23 162.79,-764.23"/>
<polygon fill="#63b8ff" stroke="#63b8ff" points="331.93,-1208.34 338.56,-1216.61 338.53,-1206.01 331.93,-1208.34"/>
</a>
</g>
</g>
<!-- Node94&#45;&gt;Node21 -->
<g id="edge36_Node000094_Node000021" class="edge">
<title>Node94&#45;&gt;Node21</title>
<g id="a_edge36_Node000094_Node000021"><a xlink:title=" ">
<path fill="none" stroke="#63b8ff" d="M480.37,-999.54C418.27,-999.71 311.7,-999.99 238.3,-1000.19"/>
<polygon fill="#63b8ff" stroke="#63b8ff" points="480.7,-1003.04 490.69,-999.51 480.68,-996.04 480.7,-1003.04"/>
</a>
</g>
</g>
<!-- Node96&#45;&gt;Node43 -->
<g id="edge40_Node000096_Node000043" class="edge">
<title>Node96&#45;&gt;Node43</title>
<g id="a_edge40_Node000096_Node000043"><a xlink:title=" ">
<path fill="none" stroke="#63b8ff" d="M472.31,-883.29C463.08,-880.31 454.46,-875.62 448,-868.4 346.03,-754.56 511.45,-642.47 412,-526.4 407.55,-521.21 401.79,-517.43 395.51,-514.69"/>
<polygon fill="#63b8ff" stroke="#63b8ff" points="471.54,-886.71 482.09,-885.83 473.29,-879.93 471.54,-886.71"/>
</a>
</g>
</g>
<!-- Node20&#45;&gt;Node3 -->
<g id="edge44_Node000020_Node000003" class="edge">
<title>Node20&#45;&gt;Node3</title>
<g id="a_edge44_Node000020_Node000003"><a xlink:title=" ">
<path fill="none" stroke="#63b8ff" d="M292.49,-962.4C266.16,-962.4 233.89,-962.4 207.62,-962.4"/>
<polygon fill="#63b8ff" stroke="#63b8ff" points="292.63,-965.9 302.63,-962.4 292.63,-958.9 292.63,-965.9"/>
</a>
</g>
</g>
<!-- Node20&#45;&gt;Node5 -->
<g id="edge42_Node000020_Node000005" class="edge">
<title>Node20&#45;&gt;Node5</title>
<g id="a_edge42_Node000020_Node000005"><a xlink:title=" ">
<path fill="none" stroke="#63b8ff" d="M316.82,-977.05C295.97,-988.98 265.42,-1005.97 238,-1019.4 166.79,-1054.28 79.54,-1090.14 41.18,-1105.57"/>
<polygon fill="#63b8ff" stroke="#63b8ff" points="318.75,-979.98 325.67,-971.96 315.26,-973.91 318.75,-979.98"/>
</a>
</g>
</g>
<!-- Node20&#45;&gt;Node21 -->
<g id="edge43_Node000020_Node000021" class="edge">
<title>Node20&#45;&gt;Node21</title>
<g id="a_edge43_Node000020_Node000021"><a xlink:title=" ">
<path fill="none" stroke="#63b8ff" d="M292.49,-972.66C265.15,-978.32 231.39,-985.31 204.61,-990.86"/>
<polygon fill="#63b8ff" stroke="#63b8ff" points="293.55,-976.01 302.63,-970.56 292.13,-969.16 293.55,-976.01"/>
</a>
</g>
</g>
<!-- Node109&#45;&gt;Node21 -->
<g id="edge57_Node000109_Node000021" class="edge">
<title>Node109&#45;&gt;Node21</title>
<g id="a_edge57_Node000109_Node000021"><a xlink:title=" ">
<path fill="none" stroke="#63b8ff" d="M324.5,-338.75C308.18,-356.18 284.77,-384.67 274,-414.4 231.02,-533.12 319.32,-884.82 238,-981.4 234.8,-985.2 230.99,-988.32 226.8,-990.87"/>
<polygon fill="#63b8ff" stroke="#63b8ff" points="327.44,-340.75 331.86,-331.12 322.4,-335.89 327.44,-340.75"/>
</a>
</g>
</g>
<!-- Node116&#45;&gt;Node3 -->
<g id="edge76_Node000116_Node000003" class="edge">
<title>Node116&#45;&gt;Node3</title>
<g id="a_edge76_Node000116_Node000003"><a xlink:title=" ">
<path fill="none" stroke="#63b8ff" d="M710.04,-923.72C700.29,-885.94 673.14,-804.04 615,-770.4 483.8,-694.51 405.42,-698.91 274,-774.4 202.59,-815.43 169.66,-920.15 160.94,-952.64"/>
<polygon fill="#63b8ff" stroke="#63b8ff" points="706.66,-924.64 712.43,-933.53 713.46,-922.98 706.66,-924.64"/>
</a>
</g>
</g>
<!-- Node116&#45;&gt;Node5 -->
<g id="edge71_Node000116_Node000005" class="edge">
<title>Node116&#45;&gt;Node5</title>
<g id="a_edge71_Node000116_Node000005"><a xlink:title=" ">
<path fill="none" stroke="#63b8ff" d="M655.55,-958.37C653.94,-959.61 652.42,-960.95 651,-962.4 608.53,-1005.93 662.73,-1056.73 615,-1094.4 569.13,-1130.62 138.89,-1117.59 41.18,-1114.14"/>
<polygon fill="#63b8ff" stroke="#63b8ff" points="657.56,-961.24 664.19,-952.98 653.85,-955.3 657.56,-961.24"/>
</a>
</g>
</g>
<!-- Node116&#45;&gt;Node23 -->
<g id="edge68_Node000116_Node000023" class="edge">
<title>Node116&#45;&gt;Node23</title>
<g id="a_edge68_Node000116_Node000023"><a xlink:title=" ">
<path fill="none" stroke="#63b8ff" d="M654.1,-958.99C653,-960.06 651.96,-961.19 651,-962.4 570.17,-1064.25 699.63,-1447.7 615,-1546.4 605.08,-1557.98 589.6,-1563.12 574.72,-1565.14"/>
<polygon fill="#63b8ff" stroke="#63b8ff" points="656.27,-961.73 662.16,-952.93 652.06,-956.14 656.27,-961.73"/>
</a>
</g>
</g>
<!-- Node116&#45;&gt;Node31 -->
<g id="edge69_Node000116_Node000031" class="edge">
<title>Node116&#45;&gt;Node31</title>
<g id="a_edge69_Node000116_Node000031"><a xlink:title=" ">
<path fill="none" stroke="#63b8ff" d="M654.13,-959.02C653.02,-960.08 651.97,-961.2 651,-962.4 590.04,-1037.57 678.77,-1323.61 615,-1396.4 605.73,-1406.99 591.81,-1412.17 578.03,-1414.51"/>
<polygon fill="#63b8ff" stroke="#63b8ff" points="656.3,-961.77 662.25,-953 652.13,-956.14 656.3,-961.77"/>
</a>
</g>
</g>
<!-- Node116&#45;&gt;Node34 -->
<g id="edge67_Node000116_Node000034" class="edge">
<title>Node116&#45;&gt;Node34</title>
<g id="a_edge67_Node000116_Node000034"><a xlink:title=" ">
<path fill="none" stroke="#63b8ff" d="M654.09,-958.99C652.99,-960.05 651.96,-961.19 651,-962.4 608.14,-1016.62 665.27,-1535.97 615,-1583.4 469.24,-1720.96 215.88,-1443.8 166.85,-1387.22"/>
<polygon fill="#63b8ff" stroke="#63b8ff" points="656.27,-961.73 662.15,-952.92 652.05,-956.14 656.27,-961.73"/>
</a>
</g>
</g>
<!-- Node116&#45;&gt;Node62 -->
<g id="edge73_Node000116_Node000062" class="edge">
<title>Node116&#45;&gt;Node62</title>
<g id="a_edge73_Node000116_Node000062"><a xlink:title=" ">
<path fill="none" stroke="#63b8ff" d="M658.97,-957.31C656.17,-958.84 653.49,-960.53 651,-962.4 627.36,-980.2 639.18,-1001.35 615,-1018.4 552.72,-1062.35 509.84,-1012.85 448,-1057.4 389.02,-1099.89 356.61,-1187.15 347.04,-1216.51"/>
<polygon fill="#63b8ff" stroke="#63b8ff" points="660.64,-960.39 668.21,-952.98 657.67,-954.05 660.64,-960.39"/>
</a>
</g>
</g>
<!-- Node116&#45;&gt;Node65 -->
<g id="edge75_Node000116_Node000065" class="edge">
<title>Node116&#45;&gt;Node65</title>
<g id="a_edge75_Node000116_Node000065"><a xlink:title=" ">
<path fill="none" stroke="#63b8ff" d="M708.29,-924.34C696.32,-891.17 666.58,-823.78 615,-796.4 549.44,-761.61 518.92,-774.51 448,-796.4 408.52,-808.6 370.65,-841.49 353.53,-857.87"/>
<polygon fill="#63b8ff" stroke="#63b8ff" points="704.98,-925.5 711.55,-933.81 711.6,-923.22 704.98,-925.5"/>
</a>
</g>
</g>
<!-- Node116&#45;&gt;Node46 -->
<g id="edge79_Node000116_Node000046" class="edge">
<title>Node116&#45;&gt;Node46</title>
<g id="a_edge79_Node000116_Node000046"><a xlink:title=" ">
<path fill="none" stroke="#63b8ff" d="M713.77,-923.59C708.99,-799.85 680.45,-136.75 615,-78.4 559.6,-29.01 502.54,-28.07 448,-78.4 374.6,-146.14 475.52,-449.33 412,-526.4 403.66,-536.53 390.41,-541.51 377.82,-543.87"/>
<polygon fill="#63b8ff" stroke="#63b8ff" points="710.28,-923.98 714.16,-933.84 717.27,-923.71 710.28,-923.98"/>
</a>
</g>
</g>
<!-- Node116&#45;&gt;Node43 -->
<g id="edge80_Node000116_Node000043" class="edge">
<title>Node116&#45;&gt;Node43</title>
<g id="a_edge80_Node000116_Node000043"><a xlink:title=" ">
<path fill="none" stroke="#63b8ff" d="M713.87,-923.44C709.64,-795.92 683.49,-98.79 615,-37.4 559.73,12.13 502.71,12.75 448,-37.4 379.93,-99.81 454.64,-369.49 412,-451.4 400.9,-472.72 378.08,-489.22 361.94,-498.86"/>
<polygon fill="#63b8ff" stroke="#63b8ff" points="710.38,-923.8 714.2,-933.68 717.38,-923.57 710.38,-923.8"/>
</a>
</g>
</g>
<!-- Node116&#45;&gt;Node94 -->
<g id="edge74_Node000116_Node000094" class="edge">
<title>Node116&#45;&gt;Node94</title>
<g id="a_edge74_Node000116_Node000094"><a xlink:title=" ">
<path fill="none" stroke="#63b8ff" d="M668.31,-956.07C662.42,-958.02 656.53,-960.14 651,-962.4 634.25,-969.25 631.99,-975.2 615,-981.4 601.37,-986.38 585.94,-990.2 572.15,-993.02"/>
<polygon fill="#63b8ff" stroke="#63b8ff" points="669.67,-959.31 678.14,-952.96 667.55,-952.64 669.67,-959.31"/>
</a>
</g>
</g>
<!-- Node116&#45;&gt;Node20 -->
<g id="edge77_Node000116_Node000020" class="edge">
<title>Node116&#45;&gt;Node20</title>
<g id="a_edge77_Node000116_Node000020"><a xlink:title=" ">
<path fill="none" stroke="#63b8ff" d="M708.29,-924.34C696.32,-891.17 666.58,-823.78 615,-796.4 549.44,-761.61 509.46,-754.79 448,-796.4 412.33,-820.56 434.71,-849.79 412,-886.4 395.57,-912.88 369.59,-938.88 354.96,-952.54"/>
<polygon fill="#63b8ff" stroke="#63b8ff" points="704.98,-925.5 711.55,-933.81 711.6,-923.22 704.98,-925.5"/>
</a>
</g>
</g>
<!-- Node116&#45;&gt;Node98 -->
<g id="edge78_Node000116_Node000098" class="edge">
<title>Node116&#45;&gt;Node98</title>
<g id="a_edge78_Node000116_Node000098"><a xlink:title=" ">
<path fill="none" stroke="#63b8ff" d="M712.8,-923.61C707.58,-875.24 687.41,-750.08 615,-683.4 603.26,-672.59 586.92,-666.63 571.88,-663.34"/>
<polygon fill="#63b8ff" stroke="#63b8ff" points="709.33,-924.09 713.79,-933.7 716.3,-923.41 709.33,-924.09"/>
</a>
</g>
</g>
<!-- Node117 -->
<g id="Node000117" class="node">
<title>Node117</title>
<g id="a_Node000117"><a xlink:href="acsQC_8cpp.html#a87aa50724c534eed1c0d4b99329a6d97" target="_top" xlink:title=" ">
<path fill="#fff0f0" stroke="red" d="M557.17,-1649.9C557.17,-1649.9 505.83,-1649.9 505.83,-1649.9 502.67,-1649.9 499.5,-1646.74 499.5,-1643.57 499.5,-1643.57 499.5,-1637.24 499.5,-1637.24 499.5,-1634.07 502.67,-1630.9 505.83,-1630.9 505.83,-1630.9 557.17,-1630.9 557.17,-1630.9 560.33,-1630.9 563.5,-1634.07 563.5,-1637.24 563.5,-1637.24 563.5,-1643.57 563.5,-1643.57 563.5,-1646.74 560.33,-1649.9 557.17,-1649.9"/>
<text text-anchor="middle" x="531.5" y="-1637.9" font-family="Helvetica,sans-Serif" font-size="10.00">clearSlips</text>
</a>
</g>
</g>
<!-- Node116&#45;&gt;Node117 -->
<g id="edge65_Node000116_Node000117" class="edge">
<title>Node116&#45;&gt;Node117</title>
<g id="a_edge65_Node000116_Node000117"><a xlink:title=" ">
<path fill="none" stroke="#63b8ff" d="M654.08,-958.98C652.99,-960.05 651.96,-961.19 651,-962.4 560.9,-1076.72 705.54,-1502.44 615,-1616.4 602.84,-1631.7 581.53,-1637.63 563.61,-1639.77"/>
<polygon fill="#63b8ff" stroke="#63b8ff" points="656.26,-961.72 662.13,-952.91 652.04,-956.14 656.26,-961.72"/>
</a>
</g>
</g>
<!-- Node118 -->
<g id="Node000118" class="node">
<title>Node118</title>
<g id="a_Node000118"><a xlink:href="ppp__pseudoobs_8cpp.html#a7d44bfc5636f42952bed064438699ba7" target="_top" xlink:title=" ">
<path fill="#fff0f0" stroke="red" d="M568.17,-1160.9C568.17,-1160.9 494.83,-1160.9 494.83,-1160.9 491.67,-1160.9 488.5,-1157.74 488.5,-1154.57 488.5,-1154.57 488.5,-1148.24 488.5,-1148.24 488.5,-1145.07 491.67,-1141.9 494.83,-1141.9 494.83,-1141.9 568.17,-1141.9 568.17,-1141.9 571.33,-1141.9 574.5,-1145.07 574.5,-1148.24 574.5,-1148.24 574.5,-1154.57 574.5,-1154.57 574.5,-1157.74 571.33,-1160.9 568.17,-1160.9"/>
<text text-anchor="middle" x="531.5" y="-1148.9" font-family="Helvetica,sans-Serif" font-size="10.00">initPseudoObs</text>
</a>
</g>
</g>
<!-- Node116&#45;&gt;Node118 -->
<g id="edge70_Node000116_Node000118" class="edge">
<title>Node116&#45;&gt;Node118</title>
<g id="a_edge70_Node000116_Node000118"><a xlink:title=" ">
<path fill="none" stroke="#63b8ff" d="M654.96,-958.67C653.56,-959.83 652.24,-961.07 651,-962.4 599.98,-1017.45 666.23,-1072.55 615,-1127.4 604.61,-1138.52 589.41,-1144.59 574.87,-1147.87"/>
<polygon fill="#63b8ff" stroke="#63b8ff" points="657.24,-961.36 663.68,-952.95 653.4,-955.51 657.24,-961.36"/>
</a>
</g>
</g>
<!-- Node53 -->
<g id="Node000053" class="node">
<title>Node53</title>
<g id="a_Node000053"><a xlink:href="main_8cpp.html#a79eb17a8eaafbf1dde7569cb7eae3b7e" target="_top" xlink:title=" ">
<path fill="#fff0f0" stroke="red" d="M608.67,-1084.9C608.67,-1084.9 454.33,-1084.9 454.33,-1084.9 451.17,-1084.9 448,-1081.74 448,-1078.57 448,-1078.57 448,-1072.24 448,-1072.24 448,-1069.07 451.17,-1065.9 454.33,-1065.9 454.33,-1065.9 608.67,-1065.9 608.67,-1065.9 611.83,-1065.9 615,-1069.07 615,-1072.24 615,-1072.24 615,-1078.57 615,-1078.57 615,-1081.74 611.83,-1084.9 608.67,-1084.9"/>
<text text-anchor="middle" x="531.5" y="-1072.9" font-family="Helvetica,sans-Serif" font-size="10.00">mainOncePerEpochPerSatellite</text>
</a>
</g>
</g>
<!-- Node116&#45;&gt;Node53 -->
<g id="edge72_Node000116_Node000053" class="edge">
<title>Node116&#45;&gt;Node53</title>
<g id="a_edge72_Node000116_Node000053"><a xlink:title=" ">
<path fill="none" stroke="#63b8ff" d="M656.53,-958.06C654.58,-959.39 652.73,-960.83 651,-962.4 619.45,-991.13 646.66,-1022.8 615,-1051.4 608.03,-1057.7 599.49,-1062.36 590.58,-1065.79"/>
<polygon fill="#63b8ff" stroke="#63b8ff" points="658.57,-960.93 665.59,-952.99 655.15,-954.82 658.57,-960.93"/>
</a>
</g>
</g>
<!-- Node117&#45;&gt;Node20 -->
<g id="edge66_Node000117_Node000020" class="edge">
<title>Node117&#45;&gt;Node20</title>
<g id="a_edge66_Node000117_Node000020"><a xlink:title=" ">
<path fill="none" stroke="#63b8ff" d="M497.6,-1626.26C479.82,-1616.81 459.26,-1602.58 448,-1583.4 405.61,-1511.21 427.21,-1290.73 412,-1208.4 394.69,-1114.72 358.49,-1004.88 347.34,-972.1"/>
<polygon fill="#63b8ff" stroke="#63b8ff" points="496.07,-1629.41 506.58,-1630.76 499.21,-1623.15 496.07,-1629.41"/>
</a>
</g>
</g>
</g>
</svg>
