<?xml version="1.0" encoding="UTF-8" standalone="no"?>
<!DOCTYPE svg PUBLIC "-//W3C//DTD SVG 1.1//EN"
 "http://www.w3.org/Graphics/SVG/1.1/DTD/svg11.dtd">
<!-- Generated by graphviz version 2.43.0 (0)
 -->
<!-- Title: getOptionsFromYaml Pages: 1 -->
<svg width="690pt" height="289pt"
 viewBox="0.00 0.00 690.00 288.83" xmlns="http://www.w3.org/2000/svg" xmlns:xlink="http://www.w3.org/1999/xlink">
<g id="graph0" class="graph" transform="scale(1 1) rotate(0) translate(4 284.83)">
<title>getOptionsFromYaml</title>
<!-- Node1 -->
<g id="Node000001" class="node">
<title>Node1</title>
<g id="a_Node000001"><a xlink:href="acsConfig_8cpp.html#a0f2335afb661d750d160690e50e4e917" target="_top" xlink:title="Set receiver options from yaml.">
<path fill="#fff0f0" stroke="red" stroke-width="2" d="M111.67,-103C111.67,-103 6.33,-103 6.33,-103 3.17,-103 0,-99.83 0,-96.67 0,-96.67 0,-90.33 0,-90.33 0,-87.17 3.17,-84 6.33,-84 6.33,-84 111.67,-84 111.67,-84 114.83,-84 118,-87.17 118,-90.33 118,-90.33 118,-96.67 118,-96.67 118,-99.83 114.83,-103 111.67,-103"/>
<text text-anchor="middle" x="59" y="-91" font-family="Helvetica,sans-Serif" font-size="10.00">getOptionsFromYaml</text>
</a>
</g>
</g>
<!-- Node2 -->
<g id="Node000002" class="node">
<title>Node2</title>
<g id="a_Node000002"><a xlink:href="acsConfig_8cpp.html#aaeb305db9559c585125ced693d9360d1" target="_top" xlink:title="Get an object within a hierarchy of yaml structure using a vector of nodes.">
<path fill="#fff0f0" stroke="red" d="M675.67,-253C675.67,-253 573.33,-253 573.33,-253 570.17,-253 567,-249.83 567,-246.67 567,-246.67 567,-240.33 567,-240.33 567,-237.17 570.17,-234 573.33,-234 573.33,-234 675.67,-234 675.67,-234 678.83,-234 682,-237.17 682,-240.33 682,-240.33 682,-246.67 682,-246.67 682,-249.83 678.83,-253 675.67,-253"/>
<text text-anchor="middle" x="624.5" y="-241" font-family="Helvetica,sans-Serif" font-size="10.00">stringsToYamlObject</text>
</a>
</g>
</g>
<!-- Node1&#45;&gt;Node2 -->
<g id="edge1_Node000001_Node000002" class="edge">
<title>Node1&#45;&gt;Node2</title>
<g id="a_edge1_Node000001_Node000002"><a xlink:title=" ">
<path fill="none" stroke="#63b8ff" d="M66.87,-103.06C79.85,-125.67 110.61,-180.07 154,-206.5 279.45,-282.91 460.41,-265.76 556.93,-251.93"/>
<polygon fill="#63b8ff" stroke="#63b8ff" points="557.47,-255.39 566.86,-250.48 556.46,-248.47 557.47,-255.39"/>
</a>
</g>
</g>
<!-- Node1&#45;&gt;Node2 -->
<g id="edge16_Node000001_Node000002" class="edge">
<title>Node1&#45;&gt;Node2</title>
<g id="a_edge16_Node000001_Node000002"><a xlink:title=" ">
<path fill="none" stroke="#63b8ff" d="M62.68,-103.25C71.97,-128.87 104.9,-194.6 154,-224.5 296.11,-311.06 509.48,-277.55 590.61,-255.74"/>
<polygon fill="#63b8ff" stroke="#63b8ff" points="591.6,-259.1 600.28,-253.02 589.7,-252.36 591.6,-259.1"/>
</a>
</g>
</g>
<!-- Node5 -->
<g id="Node000005" class="node">
<title>Node5</title>
<g id="a_Node000005"><a xlink:href="acsConfig_8cpp.html#a5094f0121a324e01a0dbb41eeac8a703" target="_top" xlink:title="Set common options from yaml.">
<path fill="#fff0f0" stroke="red" d="M265.67,-206C265.67,-206 160.33,-206 160.33,-206 157.17,-206 154,-202.83 154,-199.67 154,-199.67 154,-193.33 154,-193.33 154,-190.17 157.17,-187 160.33,-187 160.33,-187 265.67,-187 265.67,-187 268.83,-187 272,-190.17 272,-193.33 272,-193.33 272,-199.67 272,-199.67 272,-202.83 268.83,-206 265.67,-206"/>
<text text-anchor="middle" x="213" y="-194" font-family="Helvetica,sans-Serif" font-size="10.00">getOptionsFromYaml</text>
</a>
</g>
</g>
<!-- Node1&#45;&gt;Node5 -->
<g id="edge2_Node000001_Node000005" class="edge">
<title>Node1&#45;&gt;Node5</title>
<g id="a_edge2_Node000001_Node000005"><a xlink:title=" ">
<path fill="none" stroke="#63b8ff" d="M69.38,-103.11C85.47,-119.2 119.92,-151.81 154,-172.5 160.4,-176.39 167.55,-179.92 174.58,-183"/>
<polygon fill="#63b8ff" stroke="#63b8ff" points="173.44,-186.32 184.01,-186.93 176.12,-179.85 173.44,-186.32"/>
</a>
</g>
</g>
<!-- Node6 -->
<g id="Node000006" class="node">
<title>Node6</title>
<g id="a_Node000006"><a xlink:href="acsConfig_8cpp.html#afbb4ad5e0459e2bb029f3e874ec566d5" target="_top" xlink:title="Use pointer arithmetic to keep track of variables that have been initialised.">
<path fill="#fff0f0" stroke="red" d="M377.17,-206C377.17,-206 330.83,-206 330.83,-206 327.67,-206 324.5,-202.83 324.5,-199.67 324.5,-199.67 324.5,-193.33 324.5,-193.33 324.5,-190.17 327.67,-187 330.83,-187 330.83,-187 377.17,-187 377.17,-187 380.33,-187 383.5,-190.17 383.5,-193.33 383.5,-193.33 383.5,-199.67 383.5,-199.67 383.5,-202.83 380.33,-206 377.17,-206"/>
<text text-anchor="middle" x="354" y="-194" font-family="Helvetica,sans-Serif" font-size="10.00">setInited</text>
</a>
</g>
</g>
<!-- Node1&#45;&gt;Node6 -->
<g id="edge17_Node000001_Node000006" class="edge">
<title>Node1&#45;&gt;Node6</title>
<g id="a_edge17_Node000001_Node000006"><a xlink:title=" ">
<path fill="none" stroke="#63b8ff" d="M101.05,-103.07C161.88,-121.71 274.32,-161.48 325.88,-182.85"/>
<polygon fill="#63b8ff" stroke="#63b8ff" points="324.77,-186.18 335.35,-186.86 327.51,-179.74 324.77,-186.18"/>
</a>
</g>
</g>
<!-- Node1&#45;&gt;Node6 -->
<g id="edge19_Node000001_Node000006" class="edge">
<title>Node1&#45;&gt;Node6</title>
<g id="a_edge19_Node000001_Node000006"><a xlink:title=" ">
<path fill="none" stroke="#63b8ff" d="M77.45,-103.05C123.76,-123.28 250.59,-168.31 314.75,-187.78"/>
<polygon fill="#63b8ff" stroke="#63b8ff" points="313.91,-191.18 324.49,-190.68 315.9,-184.47 313.91,-191.18"/>
</a>
</g>
</g>
<!-- Node7 -->
<g id="Node000007" class="node">
<title>Node7</title>
<g id="a_Node000007"><a xlink:href="acsConfig_8cpp.html#a5e7bdb984a957f6949a0b1d49e3f6538" target="_top" xlink:title="Set an output from yaml object if found.">
<path fill="#fff0f0" stroke="red" d="M524.67,-134C524.67,-134 442.33,-134 442.33,-134 439.17,-134 436,-130.83 436,-127.67 436,-127.67 436,-121.33 436,-121.33 436,-118.17 439.17,-115 442.33,-115 442.33,-115 524.67,-115 524.67,-115 527.83,-115 531,-118.17 531,-121.33 531,-121.33 531,-127.67 531,-127.67 531,-130.83 527.83,-134 524.67,-134"/>
<text text-anchor="middle" x="483.5" y="-122" font-family="Helvetica,sans-Serif" font-size="10.00">tryGetFromYaml</text>
</a>
</g>
</g>
<!-- Node1&#45;&gt;Node7 -->
<g id="edge18_Node000001_Node000007" class="edge">
<title>Node1&#45;&gt;Node7</title>
<g id="a_edge18_Node000001_Node000007"><a xlink:title=" ">
<path fill="none" stroke="#63b8ff" d="M118.3,-92.95C199.33,-96.32 345.06,-107.03 425.42,-115.52"/>
<polygon fill="#63b8ff" stroke="#63b8ff" points="425.52,-119.05 435.84,-116.65 426.28,-112.09 425.52,-119.05"/>
</a>
</g>
</g>
<!-- Node1&#45;&gt;Node7 -->
<g id="edge21_Node000001_Node000007" class="edge">
<title>Node1&#45;&gt;Node7</title>
<g id="a_edge21_Node000001_Node000007"><a xlink:title=" ">
<path fill="none" stroke="#63b8ff" d="M118.3,-102.61C199.33,-111.13 345.06,-121.8 425.42,-125.1"/>
<polygon fill="#63b8ff" stroke="#63b8ff" points="425.71,-128.62 435.84,-125.5 425.98,-121.62 425.71,-128.62"/>
</a>
</g>
</g>
<!-- Node9 -->
<g id="Node000009" class="node">
<title>Node9</title>
<g id="a_Node000009"><a xlink:href="acsConfig_8cpp.html#a60714267e76a2a470bca66ad21e913a0" target="_top" xlink:title=" ">
<path fill="#fff0f0" stroke="red" d="M393.67,-56C393.67,-56 314.33,-56 314.33,-56 311.17,-56 308,-52.83 308,-49.67 308,-49.67 308,-43.33 308,-43.33 308,-40.17 311.17,-37 314.33,-37 314.33,-37 393.67,-37 393.67,-37 396.83,-37 400,-40.17 400,-43.33 400,-43.33 400,-49.67 400,-49.67 400,-52.83 396.83,-56 393.67,-56"/>
<text text-anchor="middle" x="354" y="-44" font-family="Helvetica,sans-Serif" font-size="10.00">tryGetEnumVec</text>
</a>
</g>
</g>
<!-- Node1&#45;&gt;Node9 -->
<g id="edge20_Node000001_Node000009" class="edge">
<title>Node1&#45;&gt;Node9</title>
<g id="a_edge20_Node000001_Node000009"><a xlink:title=" ">
<path fill="none" stroke="#63b8ff" d="M72.67,-83.91C90.63,-75.88 124.58,-66.85 154,-61.5 202.19,-52.73 257.54,-46.35 297.62,-43.88"/>
<polygon fill="#63b8ff" stroke="#63b8ff" points="297.93,-47.37 307.72,-43.32 297.54,-40.38 297.93,-47.37"/>
</a>
</g>
</g>
<!-- Node1&#45;&gt;Node9 -->
<g id="edge24_Node000001_Node000009" class="edge">
<title>Node1&#45;&gt;Node9</title>
<g id="a_edge24_Node000001_Node000009"><a xlink:title=" ">
<path fill="none" stroke="#63b8ff" d="M118.18,-86.92C129.98,-84.32 142.35,-81.62 154,-79.5 206.28,-69.99 267,-63.28 307.49,-57.51"/>
<polygon fill="#63b8ff" stroke="#63b8ff" points="308.2,-60.95 317.58,-56.02 307.18,-54.02 308.2,-60.95"/>
</a>
</g>
</g>
<!-- Node13 -->
<g id="Node000013" class="node">
<title>Node13</title>
<g id="a_Node000013"><a xlink:href="acsConfig_8cpp.html#aaf018a36c1eb75f5745d21e53d528732" target="_top" xlink:title="Set an enum from yaml, decoding strings to ints.">
<path fill="#fff0f0" stroke="red" d="M393.67,-19C393.67,-19 314.33,-19 314.33,-19 311.17,-19 308,-15.83 308,-12.67 308,-12.67 308,-6.33 308,-6.33 308,-3.17 311.17,0 314.33,0 314.33,0 393.67,0 393.67,0 396.83,0 400,-3.17 400,-6.33 400,-6.33 400,-12.67 400,-12.67 400,-15.83 396.83,-19 393.67,-19"/>
<text text-anchor="middle" x="354" y="-7" font-family="Helvetica,sans-Serif" font-size="10.00">tryGetEnumOpt</text>
</a>
</g>
</g>
<!-- Node1&#45;&gt;Node13 -->
<g id="edge22_Node000001_Node000013" class="edge">
<title>Node1&#45;&gt;Node13</title>
<g id="a_edge22_Node000001_Node000013"><a xlink:title=" ">
<path fill="none" stroke="#63b8ff" d="M68.03,-83.85C83.93,-71.06 120.8,-51.43 154,-40.5 201.52,-24.85 257.53,-14.26 298.01,-9.46"/>
<polygon fill="#63b8ff" stroke="#63b8ff" points="298.39,-12.94 307.95,-8.37 297.63,-5.98 298.39,-12.94"/>
</a>
</g>
</g>
<!-- Node1&#45;&gt;Node13 -->
<g id="edge23_Node000001_Node000013" class="edge">
<title>Node1&#45;&gt;Node13</title>
<g id="a_edge23_Node000001_Node000013"><a xlink:title=" ">
<path fill="none" stroke="#63b8ff" d="M92.71,-83.83C110.43,-75.86 132.95,-65.43 154,-58.5 208.5,-40.56 274.18,-29.26 314.76,-21.09"/>
<polygon fill="#63b8ff" stroke="#63b8ff" points="315.68,-24.48 324.77,-19.03 314.27,-17.62 315.68,-24.48"/>
</a>
</g>
</g>
<!-- Node5&#45;&gt;Node2 -->
<g id="edge3_Node000005_Node000002" class="edge">
<title>Node5&#45;&gt;Node2</title>
<g id="a_edge3_Node000005_Node000002"><a xlink:title=" ">
<path fill="none" stroke="#63b8ff" d="M272.24,-200.51C284.04,-202.62 296.38,-204.82 308,-206.5 394.09,-218.98 494.26,-226.73 558.23,-232.95"/>
<polygon fill="#63b8ff" stroke="#63b8ff" points="558.27,-236.47 568.57,-233.98 558.96,-229.51 558.27,-236.47"/>
</a>
</g>
</g>
<!-- Node5&#45;&gt;Node2 -->
<g id="edge4_Node000005_Node000002" class="edge">
<title>Node5&#45;&gt;Node2</title>
<g id="a_edge4_Node000005_Node000002"><a xlink:title=" ">
<path fill="none" stroke="#63b8ff" d="M228.25,-206.12C246.59,-213.14 279.49,-220.37 308,-224.5 393.32,-236.87 492.46,-244.59 556.5,-246.65"/>
<polygon fill="#63b8ff" stroke="#63b8ff" points="556.76,-250.16 566.86,-246.94 556.96,-243.16 556.76,-250.16"/>
</a>
</g>
</g>
<!-- Node5&#45;&gt;Node6 -->
<g id="edge5_Node000005_Node000006" class="edge">
<title>Node5&#45;&gt;Node6</title>
<g id="a_edge5_Node000005_Node000006"><a xlink:title=" ">
<path fill="none" stroke="#63b8ff" d="M272.14,-189.83C286.35,-189.63 301.21,-189.81 314.25,-190.38"/>
<polygon fill="#63b8ff" stroke="#63b8ff" points="314.11,-193.87 324.28,-190.91 314.48,-186.88 314.11,-193.87"/>
</a>
</g>
</g>
<!-- Node5&#45;&gt;Node6 -->
<g id="edge8_Node000005_Node000006" class="edge">
<title>Node5&#45;&gt;Node6</title>
<g id="a_edge8_Node000005_Node000006"><a xlink:title=" ">
<path fill="none" stroke="#63b8ff" d="M272.14,-203.17C286.35,-203.37 301.21,-203.19 314.25,-202.62"/>
<polygon fill="#63b8ff" stroke="#63b8ff" points="314.48,-206.12 324.28,-202.09 314.11,-199.13 314.48,-206.12"/>
</a>
</g>
</g>
<!-- Node5&#45;&gt;Node7 -->
<g id="edge6_Node000005_Node000007" class="edge">
<title>Node5&#45;&gt;Node7</title>
<g id="a_edge6_Node000005_Node000007"><a xlink:title=" ">
<path fill="none" stroke="#63b8ff" d="M235.52,-186.85C276.4,-172.78 366.49,-148.04 425.82,-134.07"/>
<polygon fill="#63b8ff" stroke="#63b8ff" points="426.84,-137.43 435.79,-131.76 425.26,-130.61 426.84,-137.43"/>
</a>
</g>
</g>
<!-- Node5&#45;&gt;Node7 -->
<g id="edge9_Node000005_Node000007" class="edge">
<title>Node5&#45;&gt;Node7</title>
<g id="a_edge9_Node000005_Node000007"><a xlink:title=" ">
<path fill="none" stroke="#63b8ff" d="M270.61,-186.94C325.71,-173.98 407.39,-151.7 451.51,-137.31"/>
<polygon fill="#63b8ff" stroke="#63b8ff" points="452.74,-140.6 461.11,-134.1 450.52,-133.96 452.74,-140.6"/>
</a>
</g>
</g>
<!-- Node5&#45;&gt;Node9 -->
<g id="edge10_Node000005_Node000009" class="edge">
<title>Node5&#45;&gt;Node9</title>
<g id="a_edge10_Node000005_Node000009"><a xlink:title=" ">
<path fill="none" stroke="#63b8ff" d="M223.12,-186.66C246.3,-161.65 307.68,-95.4 336.99,-63.78"/>
<polygon fill="#63b8ff" stroke="#63b8ff" points="339.8,-65.9 344.03,-56.18 334.66,-61.14 339.8,-65.9"/>
</a>
</g>
</g>
<!-- Node5&#45;&gt;Node13 -->
<g id="edge13_Node000005_Node000013" class="edge">
<title>Node5&#45;&gt;Node13</title>
<g id="a_edge13_Node000005_Node000013"><a xlink:title=" ">
<path fill="none" stroke="#63b8ff" d="M215.91,-186.68C223.09,-157.97 250.7,-76.46 300.82,-26.32"/>
<polygon fill="#63b8ff" stroke="#63b8ff" points="303.53,-28.58 308.38,-19.16 298.71,-23.5 303.53,-28.58"/>
</a>
</g>
</g>
<!-- Node5&#45;&gt;Node13 -->
<g id="edge15_Node000005_Node000013" class="edge">
<title>Node5&#45;&gt;Node13</title>
<g id="a_edge15_Node000005_Node000013"><a xlink:title=" ">
<path fill="none" stroke="#63b8ff" d="M218.53,-186.59C229.13,-158.77 258.44,-81.86 308,-37.5 314.99,-31.24 324.35,-26.84 332.72,-23.14"/>
<polygon fill="#63b8ff" stroke="#63b8ff" points="334.19,-26.31 341.9,-19.04 331.34,-19.92 334.19,-26.31"/>
</a>
</g>
</g>
<!-- Node7&#45;&gt;Node2 -->
<g id="edge7_Node000007_Node000002" class="edge">
<title>Node7&#45;&gt;Node2</title>
<g id="a_edge7_Node000007_Node000002"><a xlink:title=" ">
<path fill="none" stroke="#63b8ff" d="M502.81,-134.2C511.65,-139.2 522.21,-145.69 531,-152.5 560.62,-175.47 590.81,-207.02 608.32,-226.3"/>
<polygon fill="#63b8ff" stroke="#63b8ff" points="605.93,-228.88 615.21,-233.98 611.14,-224.2 605.93,-228.88"/>
</a>
</g>
</g>
<!-- Node9&#45;&gt;Node2 -->
<g id="edge11_Node000009_Node000002" class="edge">
<title>Node9&#45;&gt;Node2</title>
<g id="a_edge11_Node000009_Node000002"><a xlink:title=" ">
<path fill="none" stroke="#63b8ff" d="M361.14,-56.09C373.49,-74.79 402.97,-116.65 436,-143.5 484.03,-182.54 549.64,-213.36 589.16,-229.97"/>
<polygon fill="#63b8ff" stroke="#63b8ff" points="588.04,-233.29 598.62,-233.88 590.71,-226.82 588.04,-233.29"/>
</a>
</g>
</g>
<!-- Node9&#45;&gt;Node7 -->
<g id="edge12_Node000009_Node000007" class="edge">
<title>Node9&#45;&gt;Node7</title>
<g id="a_edge12_Node000009_Node000007"><a xlink:title=" ">
<path fill="none" stroke="#63b8ff" d="M374.04,-56.17C382.13,-60.41 391.62,-65.54 400,-70.5 420.88,-82.87 443.93,-98.09 460.35,-109.22"/>
<polygon fill="#63b8ff" stroke="#63b8ff" points="458.49,-112.2 468.73,-114.94 462.44,-106.41 458.49,-112.2"/>
</a>
</g>
</g>
<!-- Node13&#45;&gt;Node2 -->
<g id="edge14_Node000013_Node000002" class="edge">
<title>Node13&#45;&gt;Node2</title>
<g id="a_edge14_Node000013_Node000002"><a xlink:title=" ">
<path fill="none" stroke="#63b8ff" d="M381.18,-19.03C418.02,-33.45 485.73,-63.73 531,-106.5 568.9,-142.31 599.6,-196.3 614.22,-224.62"/>
<polygon fill="#63b8ff" stroke="#63b8ff" points="611.23,-226.47 618.87,-233.82 617.48,-223.31 611.23,-226.47"/>
</a>
</g>
</g>
</g>
</svg>
