<?xml version="1.0" encoding="UTF-8" standalone="no"?>
<!DOCTYPE svg PUBLIC "-//W3C//DTD SVG 1.1//EN"
 "http://www.w3.org/Graphics/SVG/1.1/DTD/svg11.dtd">
<!-- Generated by graphviz version 2.43.0 (0)
 -->
<!-- Title: mwnoise Pages: 1 -->
<svg width="170pt" height="64pt"
 viewBox="0.00 0.00 170.00 64.00" xmlns="http://www.w3.org/2000/svg" xmlns:xlink="http://www.w3.org/1999/xlink">
<g id="graph0" class="graph" transform="scale(1 1) rotate(0) translate(4 60)">
<title>mwnoise</title>
<!-- Node1 -->
<g id="Node000001" class="node">
<title>Node1</title>
<g id="a_Node000001"><a xlink:href="acsQC_8cpp.html#ae3b62ae16be377006095445f8e3043ad" target="_top" xlink:title="Melbourne&#45;Wenbunna (MW) measurement noise (m)">
<path fill="#fff0f0" stroke="red" stroke-width="2" d="M155.67,-37C155.67,-37 107.33,-37 107.33,-37 104.17,-37 101,-33.83 101,-30.67 101,-30.67 101,-24.33 101,-24.33 101,-21.17 104.17,-18 107.33,-18 107.33,-18 155.67,-18 155.67,-18 158.83,-18 162,-21.17 162,-24.33 162,-24.33 162,-30.67 162,-30.67 162,-33.83 158.83,-37 155.67,-37"/>
<text text-anchor="middle" x="131.5" y="-25" font-family="Helvetica,sans-Serif" font-size="10.00">mwnoise</text>
</a>
</g>
</g>
<!-- Node2 -->
<g id="Node000002" class="node">
<title>Node2</title>
<g id="a_Node000002"><a xlink:href="acsQC_8cpp.html#a9a7675a515de2802ed917e9d32dd897d" target="_top" xlink:title="Cycle slip detection for dual&#45;frequency.">
<path fill="#fff0f0" stroke="red" d="M58.67,-56C58.67,-56 6.33,-56 6.33,-56 3.17,-56 0,-52.83 0,-49.67 0,-49.67 0,-43.33 0,-43.33 0,-40.17 3.17,-37 6.33,-37 6.33,-37 58.67,-37 58.67,-37 61.83,-37 65,-40.17 65,-43.33 65,-43.33 65,-49.67 65,-49.67 65,-52.83 61.83,-56 58.67,-56"/>
<text text-anchor="middle" x="32.5" y="-44" font-family="Helvetica,sans-Serif" font-size="10.00">cycleslip2</text>
</a>
</g>
</g>
<!-- Node1&#45;&gt;Node2 -->
<g id="edge1_Node000001_Node000002" class="edge">
<title>Node1&#45;&gt;Node2</title>
<g id="a_edge1_Node000001_Node000002"><a xlink:title=" ">
<path fill="none" stroke="#63b8ff" d="M90.78,-35.28C82.3,-36.94 73.45,-38.68 65.31,-40.27"/>
<polygon fill="#63b8ff" stroke="#63b8ff" points="91.73,-38.66 100.87,-33.3 90.38,-31.79 91.73,-38.66"/>
</a>
</g>
</g>
<!-- Node11 -->
<g id="Node000011" class="node">
<title>Node11</title>
<g id="a_Node000011"><a xlink:href="acsQC_8cpp.html#a5278f59e23c92b2a1912d5dde5e2f809" target="_top" xlink:title="Cycle slip detection and repair for triple&#45;frequency.">
<path fill="#fff0f0" stroke="red" d="M58.67,-19C58.67,-19 6.33,-19 6.33,-19 3.17,-19 0,-15.83 0,-12.67 0,-12.67 0,-6.33 0,-6.33 0,-3.17 3.17,0 6.33,0 6.33,0 58.67,0 58.67,0 61.83,0 65,-3.17 65,-6.33 65,-6.33 65,-12.67 65,-12.67 65,-15.83 61.83,-19 58.67,-19"/>
<text text-anchor="middle" x="32.5" y="-7" font-family="Helvetica,sans-Serif" font-size="10.00">cycleslip3</text>
</a>
</g>
</g>
<!-- Node1&#45;&gt;Node11 -->
<g id="edge2_Node000001_Node000011" class="edge">
<title>Node1&#45;&gt;Node11</title>
<g id="a_edge2_Node000001_Node000011"><a xlink:title=" ">
<path fill="none" stroke="#63b8ff" d="M90.78,-20.13C82.3,-18.56 73.45,-16.91 65.31,-15.4"/>
<polygon fill="#63b8ff" stroke="#63b8ff" points="90.4,-23.62 100.87,-22 91.68,-16.74 90.4,-23.62"/>
</a>
</g>
</g>
</g>
</svg>
