<?xml version="1.0" encoding="UTF-8" standalone="no"?>
<!DOCTYPE svg PUBLIC "-//W3C//DTD SVG 1.1//EN"
 "http://www.w3.org/Graphics/SVG/1.1/DTD/svg11.dtd">
<!-- Generated by graphviz version 2.43.0 (0)
 -->
<!-- Title: detslp_ll Pages: 1 -->
<svg width="159pt" height="27pt"
 viewBox="0.00 0.00 159.00 27.00" xmlns="http://www.w3.org/2000/svg" xmlns:xlink="http://www.w3.org/1999/xlink">
<g id="graph0" class="graph" transform="scale(1 1) rotate(0) translate(4 23)">
<title>detslp_ll</title>
<!-- Node1 -->
<g id="Node000001" class="node">
<title>Node1</title>
<g id="a_Node000001"><a xlink:href="acsQC_8cpp.html#a7cae7a76a291c0a56b01d929cb94e3ff" target="_top" xlink:title="Detect cycle slip by reported loss of lock.">
<path fill="#fff0f0" stroke="red" stroke-width="2" d="M51.67,-19C51.67,-19 6.33,-19 6.33,-19 3.17,-19 0,-15.83 0,-12.67 0,-12.67 0,-6.33 0,-6.33 0,-3.17 3.17,0 6.33,0 6.33,0 51.67,0 51.67,0 54.83,0 58,-3.17 58,-6.33 58,-6.33 58,-12.67 58,-12.67 58,-15.83 54.83,-19 51.67,-19"/>
<text text-anchor="middle" x="29" y="-7" font-family="Helvetica,sans-Serif" font-size="10.00">detslp_ll</text>
</a>
</g>
</g>
<!-- Node2 -->
<g id="Node000002" class="node">
<title>Node2</title>
<g id="a_Node000002"><a xlink:href="ppp_8cpp.html#add1aa65516313588ef8e125a7d748f51" target="_top" xlink:title=" ">
<path fill="#fff0f0" stroke="red" d="M144.67,-19C144.67,-19 100.33,-19 100.33,-19 97.17,-19 94,-15.83 94,-12.67 94,-12.67 94,-6.33 94,-6.33 94,-3.17 97.17,0 100.33,0 100.33,0 144.67,0 144.67,0 147.83,0 151,-3.17 151,-6.33 151,-6.33 151,-12.67 151,-12.67 151,-15.83 147.83,-19 144.67,-19"/>
<text text-anchor="middle" x="122.5" y="-7" font-family="Helvetica,sans-Serif" font-size="10.00">ft2string</text>
</a>
</g>
</g>
<!-- Node1&#45;&gt;Node2 -->
<g id="edge1_Node000001_Node000002" class="edge">
<title>Node1&#45;&gt;Node2</title>
<g id="a_edge1_Node000001_Node000002"><a xlink:title=" ">
<path fill="none" stroke="#63b8ff" d="M58.45,-3.2C66.43,-2.77 75.24,-2.65 83.67,-2.84"/>
<polygon fill="#63b8ff" stroke="#63b8ff" points="83.57,-6.34 93.7,-3.23 83.84,0.66 83.57,-6.34"/>
</a>
</g>
</g>
<!-- Node1&#45;&gt;Node2 -->
<g id="edge2_Node000001_Node000002" class="edge">
<title>Node1&#45;&gt;Node2</title>
<g id="a_edge2_Node000001_Node000002"><a xlink:title=" ">
<path fill="none" stroke="#63b8ff" d="M58.45,-15.8C66.43,-16.23 75.24,-16.35 83.67,-16.16"/>
<polygon fill="#63b8ff" stroke="#63b8ff" points="83.84,-19.66 93.7,-15.77 83.57,-12.66 83.84,-19.66"/>
</a>
</g>
</g>
</g>
</svg>
