<?xml version="1.0" encoding="UTF-8" standalone="no"?>
<!DOCTYPE svg PUBLIC "-//W3C//DTD SVG 1.1//EN"
 "http://www.w3.org/Graphics/SVG/1.1/DTD/svg11.dtd">
<!-- Generated by graphviz version 2.43.0 (0)
 -->
<!-- Title: cycleslip3 Pages: 1 -->
<svg width="332pt" height="289pt"
 viewBox="0.00 0.00 332.00 288.84" xmlns="http://www.w3.org/2000/svg" xmlns:xlink="http://www.w3.org/1999/xlink">
<g id="graph0" class="graph" transform="scale(1 1) rotate(0) translate(4 284.84)">
<title>cycleslip3</title>
<!-- Node1 -->
<g id="Node000001" class="node">
<title>Node1</title>
<g id="a_Node000001"><a xlink:href="acsQC_8cpp.html#a5278f59e23c92b2a1912d5dde5e2f809" target="_top" xlink:title="Cycle slip detection and repair for triple&#45;frequency.">
<path fill="#fff0f0" stroke="red" stroke-width="2" d="M58.67,-148.84C58.67,-148.84 6.33,-148.84 6.33,-148.84 3.17,-148.84 0,-145.67 0,-142.5 0,-142.5 0,-136.17 0,-136.17 0,-133 3.17,-129.84 6.33,-129.84 6.33,-129.84 58.67,-129.84 58.67,-129.84 61.83,-129.84 65,-133 65,-136.17 65,-136.17 65,-142.5 65,-142.5 65,-145.67 61.83,-148.84 58.67,-148.84"/>
<text text-anchor="middle" x="32.5" y="-136.84" font-family="Helvetica,sans-Serif" font-size="10.00">cycleslip3</text>
</a>
</g>
</g>
<!-- Node2 -->
<g id="Node000002" class="node">
<title>Node2</title>
<g id="a_Node000002"><a xlink:href="structACSConfig.html#acbb130e061ba4b7bf620e4fb68e1b794" target="_top" xlink:title="Set receiver options for a specific receiver using a hierarchy of sources.">
<path fill="#fff0f0" stroke="red" d="M223.67,-280.84C223.67,-280.84 107.33,-280.84 107.33,-280.84 104.17,-280.84 101,-277.67 101,-274.5 101,-274.5 101,-268.17 101,-268.17 101,-265 104.17,-261.84 107.33,-261.84 107.33,-261.84 223.67,-261.84 223.67,-261.84 226.83,-261.84 230,-265 230,-268.17 230,-268.17 230,-274.5 230,-274.5 230,-277.67 226.83,-280.84 223.67,-280.84"/>
<text text-anchor="middle" x="165.5" y="-268.84" font-family="Helvetica,sans-Serif" font-size="10.00">ACSConfig::getRecOpts</text>
</a>
</g>
</g>
<!-- Node1&#45;&gt;Node2 -->
<g id="edge1_Node000001_Node000002" class="edge">
<title>Node1&#45;&gt;Node2</title>
<g id="a_edge1_Node000001_Node000002"><a xlink:title=" ">
<path fill="none" stroke="#63b8ff" d="M36.99,-148.87C45.06,-169.65 66.97,-219.44 101,-247.34 105.96,-251.41 111.69,-254.83 117.63,-257.7"/>
<polygon fill="#63b8ff" stroke="#63b8ff" points="116.49,-261.02 127.06,-261.77 119.26,-254.59 116.49,-261.02"/>
</a>
</g>
</g>
<!-- Node19 -->
<g id="Node000019" class="node">
<title>Node19</title>
<g id="a_Node000019"><a xlink:href="acsQC_8cpp.html#abd57aff1d197b2747eab5e751cbb0b57" target="_top" xlink:title=" ">
<path fill="#fff0f0" stroke="red" d="M317.67,-77.84C317.67,-77.84 272.33,-77.84 272.33,-77.84 269.17,-77.84 266,-74.67 266,-71.5 266,-71.5 266,-65.17 266,-65.17 266,-62 269.17,-58.84 272.33,-58.84 272.33,-58.84 317.67,-58.84 317.67,-58.84 320.83,-58.84 324,-62 324,-65.17 324,-65.17 324,-71.5 324,-71.5 324,-74.67 320.83,-77.84 317.67,-77.84"/>
<text text-anchor="middle" x="295" y="-65.84" font-family="Helvetica,sans-Serif" font-size="10.00">satFreqs</text>
</a>
</g>
</g>
<!-- Node1&#45;&gt;Node19 -->
<g id="edge2_Node000001_Node000019" class="edge">
<title>Node1&#45;&gt;Node19</title>
<g id="a_edge2_Node000001_Node000019"><a xlink:title=" ">
<path fill="none" stroke="#63b8ff" d="M38.58,-149.02C48.14,-166.04 70.6,-200.8 101,-214.34 153.37,-237.66 182.01,-245.7 230,-214.34 273.31,-186.03 287.5,-121.2 292,-88.29"/>
<polygon fill="#63b8ff" stroke="#63b8ff" points="295.5,-88.44 293.22,-78.09 288.55,-87.61 295.5,-88.44"/>
</a>
</g>
</g>
<!-- Node20 -->
<g id="Node000020" class="node">
<title>Node20</title>
<g id="a_Node000020"><a xlink:href="acsQC_8cpp.html#ae3b62ae16be377006095445f8e3043ad" target="_top" xlink:title="Melbourne&#45;Wenbunna (MW) measurement noise (m)">
<path fill="#fff0f0" stroke="red" d="M189.67,-204.84C189.67,-204.84 141.33,-204.84 141.33,-204.84 138.17,-204.84 135,-201.67 135,-198.5 135,-198.5 135,-192.17 135,-192.17 135,-189 138.17,-185.84 141.33,-185.84 141.33,-185.84 189.67,-185.84 189.67,-185.84 192.83,-185.84 196,-189 196,-192.17 196,-192.17 196,-198.5 196,-198.5 196,-201.67 192.83,-204.84 189.67,-204.84"/>
<text text-anchor="middle" x="165.5" y="-192.84" font-family="Helvetica,sans-Serif" font-size="10.00">mwnoise</text>
</a>
</g>
</g>
<!-- Node1&#45;&gt;Node20 -->
<g id="edge3_Node000001_Node000020" class="edge">
<title>Node1&#45;&gt;Node20</title>
<g id="a_edge3_Node000001_Node000020"><a xlink:title=" ">
<path fill="none" stroke="#63b8ff" d="M61.98,-149.01C73.74,-155.26 87.72,-162.81 101,-168.34 114.22,-173.84 129.67,-178.26 142.02,-182.39"/>
<polygon fill="#63b8ff" stroke="#63b8ff" points="140.95,-185.73 151.55,-185.81 143.32,-179.14 140.95,-185.73"/>
</a>
</g>
</g>
<!-- Node1&#45;&gt;Node20 -->
<g id="edge4_Node000001_Node000020" class="edge">
<title>Node1&#45;&gt;Node20</title>
<g id="a_edge4_Node000001_Node000020"><a xlink:title=" ">
<path fill="none" stroke="#63b8ff" d="M39.94,-148.97C51.66,-160.34 77.41,-176.52 101,-186.34 108.59,-189.5 116.91,-192.3 124.95,-194.5"/>
<polygon fill="#63b8ff" stroke="#63b8ff" points="124.38,-197.96 134.92,-196.94 126.04,-191.16 124.38,-197.96"/>
</a>
</g>
</g>
<!-- Node21 -->
<g id="Node000021" class="node">
<title>Node21</title>
<g id="a_Node000021"><a xlink:href="linearCombo_8cpp.html#afdd3451cef793c3574f718f2f79d9278" target="_top" xlink:title="Create combinations between specific observation values.">
<path fill="#fff0f0" stroke="red" d="M181.17,-167.84C181.17,-167.84 149.83,-167.84 149.83,-167.84 146.67,-167.84 143.5,-164.67 143.5,-161.5 143.5,-161.5 143.5,-155.17 143.5,-155.17 143.5,-152 146.67,-148.84 149.83,-148.84 149.83,-148.84 181.17,-148.84 181.17,-148.84 184.33,-148.84 187.5,-152 187.5,-155.17 187.5,-155.17 187.5,-161.5 187.5,-161.5 187.5,-164.67 184.33,-167.84 181.17,-167.84"/>
<text text-anchor="middle" x="165.5" y="-155.84" font-family="Helvetica,sans-Serif" font-size="10.00">getLC</text>
</a>
</g>
</g>
<!-- Node1&#45;&gt;Node21 -->
<g id="edge5_Node000001_Node000021" class="edge">
<title>Node1&#45;&gt;Node21</title>
<g id="a_edge5_Node000001_Node000021"><a xlink:title=" ">
<path fill="none" stroke="#63b8ff" d="M65.21,-138.06C85.94,-139.89 112.89,-143.81 133.48,-148"/>
<polygon fill="#63b8ff" stroke="#63b8ff" points="132.79,-151.43 143.31,-150.14 134.28,-144.59 132.79,-151.43"/>
</a>
</g>
</g>
<!-- Node1&#45;&gt;Node21 -->
<g id="edge6_Node000001_Node000021" class="edge">
<title>Node1&#45;&gt;Node21</title>
<g id="a_edge6_Node000001_Node000021"><a xlink:title=" ">
<path fill="none" stroke="#63b8ff" d="M60.64,-148.87C81.77,-153.38 111.11,-157.72 133.22,-159.65"/>
<polygon fill="#63b8ff" stroke="#63b8ff" points="133.2,-163.16 143.43,-160.4 133.71,-156.18 133.2,-163.16"/>
</a>
</g>
</g>
<!-- Node22 -->
<g id="Node000022" class="node">
<title>Node22</title>
<g id="a_Node000022"><a xlink:href="tropGPT2_8cpp.html#a9ede7017ee42a297c0ad06e997d57a29" target="_top" xlink:title="coefficients multiplication">
<path fill="#fff0f0" stroke="red" d="M178.17,-130.84C178.17,-130.84 152.83,-130.84 152.83,-130.84 149.67,-130.84 146.5,-127.67 146.5,-124.5 146.5,-124.5 146.5,-118.17 146.5,-118.17 146.5,-115 149.67,-111.84 152.83,-111.84 152.83,-111.84 178.17,-111.84 178.17,-111.84 181.33,-111.84 184.5,-115 184.5,-118.17 184.5,-118.17 184.5,-124.5 184.5,-124.5 184.5,-127.67 181.33,-130.84 178.17,-130.84"/>
<text text-anchor="middle" x="165.5" y="-118.84" font-family="Helvetica,sans-Serif" font-size="10.00">coef</text>
</a>
</g>
</g>
<!-- Node1&#45;&gt;Node22 -->
<g id="edge7_Node000001_Node000022" class="edge">
<title>Node1&#45;&gt;Node22</title>
<g id="a_edge7_Node000001_Node000022"><a xlink:title=" ">
<path fill="none" stroke="#63b8ff" d="M61.6,-129.82C83.57,-125.35 113.98,-121.17 136.03,-119.57"/>
<polygon fill="#63b8ff" stroke="#63b8ff" points="136.33,-123.06 146.12,-119 135.94,-116.07 136.33,-123.06"/>
</a>
</g>
</g>
<!-- Node1&#45;&gt;Node22 -->
<g id="edge15_Node000001_Node000022" class="edge">
<title>Node1&#45;&gt;Node22</title>
<g id="a_edge15_Node000001_Node000022"><a xlink:title=" ">
<path fill="none" stroke="#63b8ff" d="M65.21,-140.86C86.98,-139.1 115.6,-135.09 136.52,-130.83"/>
<polygon fill="#63b8ff" stroke="#63b8ff" points="137.37,-134.23 146.39,-128.66 135.87,-127.39 137.37,-134.23"/>
</a>
</g>
</g>
<!-- Node23 -->
<g id="Node000023" class="node">
<title>Node23</title>
<g id="a_Node000023"><a xlink:href="structSatSys.html#aec6d07b90d1e8172b8b6a6966abef4fd" target="_top" xlink:title="Returns a std::string of this satellite&#39;s id.">
<path fill="#fff0f0" stroke="red" d="M191.67,-93.84C191.67,-93.84 139.33,-93.84 139.33,-93.84 136.17,-93.84 133,-90.67 133,-87.5 133,-87.5 133,-81.17 133,-81.17 133,-78 136.17,-74.84 139.33,-74.84 139.33,-74.84 191.67,-74.84 191.67,-74.84 194.83,-74.84 198,-78 198,-81.17 198,-81.17 198,-87.5 198,-87.5 198,-90.67 194.83,-93.84 191.67,-93.84"/>
<text text-anchor="middle" x="165.5" y="-81.84" font-family="Helvetica,sans-Serif" font-size="10.00">SatSys::id</text>
</a>
</g>
</g>
<!-- Node1&#45;&gt;Node23 -->
<g id="edge8_Node000001_Node000023" class="edge">
<title>Node1&#45;&gt;Node23</title>
<g id="a_edge8_Node000001_Node000023"><a xlink:title=" ">
<path fill="none" stroke="#63b8ff" d="M49.16,-129.83C62.57,-121.97 82.58,-110.92 101,-103.34 108.03,-100.44 115.66,-97.78 123.11,-95.42"/>
<polygon fill="#63b8ff" stroke="#63b8ff" points="124.19,-98.75 132.74,-92.49 122.15,-92.05 124.19,-98.75"/>
</a>
</g>
</g>
<!-- Node26 -->
<g id="Node000026" class="node">
<title>Node26</title>
<g id="a_Node000026"><a xlink:href="acsQC_8cpp.html#a501b956d22444b573a8867d87ad590d5" target="_top" xlink:title="Single channel detection–identification–adaptation (DIA) for integer cycle slips.">
<path fill="#fff0f0" stroke="red" d="M180.17,-56.84C180.17,-56.84 150.83,-56.84 150.83,-56.84 147.67,-56.84 144.5,-53.67 144.5,-50.5 144.5,-50.5 144.5,-44.17 144.5,-44.17 144.5,-41 147.67,-37.84 150.83,-37.84 150.83,-37.84 180.17,-37.84 180.17,-37.84 183.33,-37.84 186.5,-41 186.5,-44.17 186.5,-44.17 186.5,-50.5 186.5,-50.5 186.5,-53.67 183.33,-56.84 180.17,-56.84"/>
<text text-anchor="middle" x="165.5" y="-44.84" font-family="Helvetica,sans-Serif" font-size="10.00">scdia</text>
</a>
</g>
</g>
<!-- Node1&#45;&gt;Node26 -->
<g id="edge9_Node000001_Node000026" class="edge">
<title>Node1&#45;&gt;Node26</title>
<g id="a_edge9_Node000001_Node000026"><a xlink:title=" ">
<path fill="none" stroke="#63b8ff" d="M39.77,-129.76C50.47,-114.16 73.76,-83.33 101,-66.34 111.17,-60 123.57,-55.67 134.7,-52.77"/>
<polygon fill="#63b8ff" stroke="#63b8ff" points="135.53,-56.17 144.48,-50.49 133.94,-49.35 135.53,-56.17"/>
</a>
</g>
</g>
<!-- Node37 -->
<g id="Node000037" class="node">
<title>Node37</title>
<g id="a_Node000037"><a xlink:href="ppp_8cpp.html#add1aa65516313588ef8e125a7d748f51" target="_top" xlink:title=" ">
<path fill="#fff0f0" stroke="red" d="M317.17,-35.84C317.17,-35.84 272.83,-35.84 272.83,-35.84 269.67,-35.84 266.5,-32.67 266.5,-29.5 266.5,-29.5 266.5,-23.17 266.5,-23.17 266.5,-20 269.67,-16.84 272.83,-16.84 272.83,-16.84 317.17,-16.84 317.17,-16.84 320.33,-16.84 323.5,-20 323.5,-23.17 323.5,-23.17 323.5,-29.5 323.5,-29.5 323.5,-32.67 320.33,-35.84 317.17,-35.84"/>
<text text-anchor="middle" x="295" y="-23.84" font-family="Helvetica,sans-Serif" font-size="10.00">ft2string</text>
</a>
</g>
</g>
<!-- Node1&#45;&gt;Node37 -->
<g id="edge13_Node000001_Node000037" class="edge">
<title>Node1&#45;&gt;Node37</title>
<g id="a_edge13_Node000001_Node000037"><a xlink:title=" ">
<path fill="none" stroke="#63b8ff" d="M34.97,-129.54C40.07,-104.74 59.05,-43.21 101,-19.34 154.07,10.86 229.37,-0.92 268.37,-13.46"/>
<polygon fill="#63b8ff" stroke="#63b8ff" points="267.32,-16.8 277.91,-16.81 269.64,-10.19 267.32,-16.8"/>
</a>
</g>
</g>
<!-- Node1&#45;&gt;Node37 -->
<g id="edge14_Node000001_Node000037" class="edge">
<title>Node1&#45;&gt;Node37</title>
<g id="a_edge14_Node000001_Node000037"><a xlink:title=" ">
<path fill="none" stroke="#63b8ff" d="M37.58,-129.53C45.22,-107.81 64.34,-58.2 101,-37.34 148.96,-10.05 215.07,-17.04 256.14,-23.1"/>
<polygon fill="#63b8ff" stroke="#63b8ff" points="255.86,-26.6 266.27,-24.64 256.91,-19.68 255.86,-26.6"/>
</a>
</g>
</g>
<!-- Node26&#45;&gt;Node19 -->
<g id="edge10_Node000026_Node000019" class="edge">
<title>Node26&#45;&gt;Node19</title>
<g id="a_edge10_Node000026_Node000019"><a xlink:title=" ">
<path fill="none" stroke="#63b8ff" d="M186.7,-50.66C205.21,-53.71 233.11,-58.31 255.82,-62.05"/>
<polygon fill="#63b8ff" stroke="#63b8ff" points="255.4,-65.53 265.83,-63.7 256.53,-58.62 255.4,-65.53"/>
</a>
</g>
</g>
<!-- Node26&#45;&gt;Node37 -->
<g id="edge11_Node000026_Node000037" class="edge">
<title>Node26&#45;&gt;Node37</title>
<g id="a_edge11_Node000026_Node000037"><a xlink:title=" ">
<path fill="none" stroke="#63b8ff" d="M186.7,-38.92C205.34,-34.12 233.48,-29.11 256.26,-26.33"/>
<polygon fill="#63b8ff" stroke="#63b8ff" points="256.75,-29.8 266.3,-25.22 255.98,-22.84 256.75,-29.8"/>
</a>
</g>
</g>
<!-- Node26&#45;&gt;Node37 -->
<g id="edge12_Node000026_Node000037" class="edge">
<title>Node26&#45;&gt;Node37</title>
<g id="a_edge12_Node000026_Node000037"><a xlink:title=" ">
<path fill="none" stroke="#63b8ff" d="M186.7,-49.1C206.15,-47.7 235.96,-43.12 259.23,-38.15"/>
<polygon fill="#63b8ff" stroke="#63b8ff" points="260.09,-41.54 269.08,-35.93 258.55,-34.72 260.09,-41.54"/>
</a>
</g>
</g>
</g>
</svg>
