<?xml version="1.0" encoding="UTF-8" standalone="no"?>
<!DOCTYPE svg PUBLIC "-//W3C//DTD SVG 1.1//EN"
 "http://www.w3.org/Graphics/SVG/1.1/DTD/svg11.dtd">
<!-- Generated by graphviz version 2.43.0 (0)
 -->
<!-- Title: detslp_mw Pages: 1 -->
<svg width="184pt" height="27pt"
 viewBox="0.00 0.00 184.00 27.00" xmlns="http://www.w3.org/2000/svg" xmlns:xlink="http://www.w3.org/1999/xlink">
<g id="graph0" class="graph" transform="scale(1 1) rotate(0) translate(4 23)">
<title>detslp_mw</title>
<!-- Node1 -->
<g id="Node000001" class="node">
<title>Node1</title>
<g id="a_Node000001"><a xlink:href="acsQC_8cpp.html#a36663ab87649ee3624e072af7fec6409" target="_top" xlink:title="Detect slip by Melbourne&#45;Wubbena linear combination jump.">
<path fill="#fff0f0" stroke="red" stroke-width="2" d="M169.67,-19C169.67,-19 112.33,-19 112.33,-19 109.17,-19 106,-15.83 106,-12.67 106,-12.67 106,-6.33 106,-6.33 106,-3.17 109.17,0 112.33,0 112.33,0 169.67,0 169.67,0 172.83,0 176,-3.17 176,-6.33 176,-6.33 176,-12.67 176,-12.67 176,-15.83 172.83,-19 169.67,-19"/>
<text text-anchor="middle" x="141" y="-7" font-family="Helvetica,sans-Serif" font-size="10.00">detslp_mw</text>
</a>
</g>
</g>
<!-- Node2 -->
<g id="Node000002" class="node">
<title>Node2</title>
<g id="a_Node000002"><a xlink:href="acsQC_8cpp.html#ae13db6fb21721c9fcb1eb93ea40ba2ff" target="_top" xlink:title="Detect slips for multiple observations.">
<path fill="#fff0f0" stroke="red" d="M63.67,-19C63.67,-19 6.33,-19 6.33,-19 3.17,-19 0,-15.83 0,-12.67 0,-12.67 0,-6.33 0,-6.33 0,-3.17 3.17,0 6.33,0 6.33,0 63.67,0 63.67,0 66.83,0 70,-3.17 70,-6.33 70,-6.33 70,-12.67 70,-12.67 70,-15.83 66.83,-19 63.67,-19"/>
<text text-anchor="middle" x="35" y="-7" font-family="Helvetica,sans-Serif" font-size="10.00">detectslips</text>
</a>
</g>
</g>
<!-- Node1&#45;&gt;Node2 -->
<g id="edge1_Node000001_Node000002" class="edge">
<title>Node1&#45;&gt;Node2</title>
<g id="a_edge1_Node000001_Node000002"><a xlink:title=" ">
<path fill="none" stroke="#63b8ff" d="M95.71,-9.5C87.15,-9.5 78.3,-9.5 70.13,-9.5"/>
<polygon fill="#63b8ff" stroke="#63b8ff" points="95.95,-13 105.95,-9.5 95.95,-6 95.95,-13"/>
</a>
</g>
</g>
</g>
</svg>
