<?xml version="1.0" encoding="UTF-8" standalone="no"?>
<!DOCTYPE svg PUBLIC "-//W3C//DTD SVG 1.1//EN"
 "http://www.w3.org/Graphics/SVG/1.1/DTD/svg11.dtd">
<!-- Generated by graphviz version 2.43.0 (0)
 -->
<!-- Title: Kalman_Filter__ Pages: 1 -->
<svg width="564pt" height="399pt"
 viewBox="0.00 0.00 564.00 399.00" xmlns="http://www.w3.org/2000/svg" xmlns:xlink="http://www.w3.org/1999/xlink">
<g id="graph0" class="graph" transform="scale(1 1) rotate(0) translate(4 395)">
<title>Kalman_Filter__</title>
<!-- Node1 -->
<g id="Node000001" class="node">
<title>Node1</title>
<g id="a_Node000001"><a xlink:href="algebra_8cpp.html#a4f61fee46942aeff4254e6e547ddf18c" target="_top" xlink:title="Kalman Filter.">
<polygon fill="#88ff88" stroke="#00aa00" stroke-width="2" points="556,-168 463.11,-168 461,-165.89 461,-149 553.89,-149 556,-151.11 556,-168"/>
<polyline fill="none" stroke="#00aa00" stroke-width="2" points="553.89,-165.89 461,-165.89 "/>
<polyline fill="none" stroke="#00aa00" stroke-width="2" points="553.89,-165.89 553.89,-149 "/>
<polyline fill="none" stroke="#00aa00" stroke-width="2" points="553.89,-165.89 556,-168 "/>
<text text-anchor="middle" x="508.5" y="-156" font-family="Helvetica,sans-Serif" font-size="10.00">Kalman_Filter__</text>
</a>
</g>
</g>
<!-- Node2 -->
<g id="Node000002" class="node">
<title>Node2</title>
<g id="a_Node000002"><a xlink:href="structKFState.html#a0d12c57e70876543084c182a660bbbd3" target="_top" xlink:title="Kalman filter operation.">
<path fill="#fff0f0" stroke="red" d="M418.67,-206C418.67,-206 311.33,-206 311.33,-206 308.17,-206 305,-202.83 305,-199.67 305,-199.67 305,-193.33 305,-193.33 305,-190.17 308.17,-187 311.33,-187 311.33,-187 418.67,-187 418.67,-187 421.83,-187 425,-190.17 425,-193.33 425,-193.33 425,-199.67 425,-199.67 425,-202.83 421.83,-206 418.67,-206"/>
<text text-anchor="middle" x="365" y="-194" font-family="Helvetica,sans-Serif" font-size="10.00">KFState::filterKalman</text>
</a>
</g>
</g>
<!-- Node1&#45;&gt;Node2 -->
<g id="edge1_Node000001_Node000002" class="edge">
<title>Node1&#45;&gt;Node2</title>
<g id="a_edge1_Node000001_Node000002"><a xlink:title=" ">
<path fill="none" stroke="#63b8ff" d="M461.9,-170.75C442.39,-175.98 419.96,-182.01 401.7,-186.91"/>
<polygon fill="#63b8ff" stroke="#63b8ff" points="463.04,-174.06 471.79,-168.09 461.23,-167.3 463.04,-174.06"/>
</a>
</g>
</g>
<!-- Node26 -->
<g id="Node000026" class="node">
<title>Node26</title>
<g id="a_Node000026"><a xlink:href="ppppp_8cpp.html#a806c4571abfde8d490598ec186768d7f" target="_top" xlink:title="Primary estimation and filtering.">
<polygon fill="#88ff88" stroke="#00aa00" points="405.5,-130 324.5,-130 324.5,-111 405.5,-111 405.5,-130"/>
<text text-anchor="middle" x="365" y="-118" font-family="Helvetica,sans-Serif" font-size="10.00">Main_Filter__</text>
</a>
</g>
</g>
<!-- Node1&#45;&gt;Node26 -->
<g id="edge13_Node000001_Node000026" class="edge">
<title>Node1&#45;&gt;Node26</title>
<g id="a_edge13_Node000001_Node000026"><a xlink:title=" ">
<path fill="none" stroke="#63b8ff" d="M461.9,-146.25C442.39,-141.02 419.96,-134.99 401.7,-130.09"/>
<polygon fill="#63b8ff" stroke="#63b8ff" points="461.23,-149.7 471.79,-148.91 463.04,-142.94 461.23,-149.7"/>
</a>
</g>
</g>
<!-- Node3 -->
<g id="Node000003" class="node">
<title>Node3</title>
<g id="a_Node000003"><a xlink:href="debug_8cpp.html#ae4e8d5c9ae89428a527a780093a3d872" target="_top" xlink:title=" ">
<path fill="#fff0f0" stroke="red" d="M208.67,-391C208.67,-391 179.33,-391 179.33,-391 176.17,-391 173,-387.83 173,-384.67 173,-384.67 173,-378.33 173,-378.33 173,-375.17 176.17,-372 179.33,-372 179.33,-372 208.67,-372 208.67,-372 211.83,-372 215,-375.17 215,-378.33 215,-378.33 215,-384.67 215,-384.67 215,-387.83 211.83,-391 208.67,-391"/>
<text text-anchor="middle" x="194" y="-379" font-family="Helvetica,sans-Serif" font-size="10.00">accel</text>
</a>
</g>
</g>
<!-- Node2&#45;&gt;Node3 -->
<g id="edge2_Node000002_Node000003" class="edge">
<title>Node2&#45;&gt;Node3</title>
<g id="a_edge2_Node000002_Node000003"><a xlink:title=" ">
<path fill="none" stroke="#63b8ff" d="M358.47,-216.25C347.54,-251.53 319.71,-325.26 269,-363.5 253.38,-375.28 231.08,-379.46 215.06,-380.88"/>
<polygon fill="#63b8ff" stroke="#63b8ff" points="361.95,-216.82 361.43,-206.24 355.24,-214.83 361.95,-216.82"/>
</a>
</g>
</g>
<!-- Node4 -->
<g id="Node000004" class="node">
<title>Node4</title>
<g id="a_Node000004"><a xlink:href="ppp__ambres_8cpp.html#ad41d635b049a650ddbe2f7e13d29e85b" target="_top" xlink:title=" ">
<path fill="#fff0f0" stroke="red" d="M262.67,-354C262.67,-354 125.33,-354 125.33,-354 122.17,-354 119,-350.83 119,-347.67 119,-347.67 119,-341.33 119,-341.33 119,-338.17 122.17,-335 125.33,-335 125.33,-335 262.67,-335 262.67,-335 265.83,-335 269,-338.17 269,-341.33 269,-341.33 269,-347.67 269,-347.67 269,-350.83 265.83,-354 262.67,-354"/>
<text text-anchor="middle" x="194" y="-342" font-family="Helvetica,sans-Serif" font-size="10.00">applyBestIntegerAmbiguity</text>
</a>
</g>
</g>
<!-- Node2&#45;&gt;Node4 -->
<g id="edge3_Node000002_Node000004" class="edge">
<title>Node2&#45;&gt;Node4</title>
<g id="a_edge3_Node000002_Node000004"><a xlink:title=" ">
<path fill="none" stroke="#63b8ff" d="M355.51,-215.45C341.66,-244.11 311.43,-298.14 269,-326.5 263.94,-329.88 258.31,-332.63 252.48,-334.86"/>
<polygon fill="#63b8ff" stroke="#63b8ff" points="358.8,-216.67 359.86,-206.13 352.46,-213.71 358.8,-216.67"/>
</a>
</g>
</g>
<!-- Node12 -->
<g id="Node000012" class="node">
<title>Node12</title>
<g id="a_Node000012"><a xlink:href="ppp__ambres_8cpp.html#a604fb46557eb8261b38abf76fb147433" target="_top" xlink:title=" ">
<path fill="#fff0f0" stroke="red" d="M245.67,-317C245.67,-317 142.33,-317 142.33,-317 139.17,-317 136,-313.83 136,-310.67 136,-310.67 136,-304.33 136,-304.33 136,-301.17 139.17,-298 142.33,-298 142.33,-298 245.67,-298 245.67,-298 248.83,-298 252,-301.17 252,-304.33 252,-304.33 252,-310.67 252,-310.67 252,-313.83 248.83,-317 245.67,-317"/>
<text text-anchor="middle" x="194" y="-305" font-family="Helvetica,sans-Serif" font-size="10.00">applyUCAmbiguities</text>
</a>
</g>
</g>
<!-- Node2&#45;&gt;Node12 -->
<g id="edge4_Node000002_Node000012" class="edge">
<title>Node2&#45;&gt;Node12</title>
<g id="a_edge4_Node000002_Node000012"><a xlink:title=" ">
<path fill="none" stroke="#63b8ff" d="M350.5,-214.31C333.69,-235.22 303.01,-269.46 269,-288.5 262.06,-292.39 254.3,-295.5 246.5,-297.98"/>
<polygon fill="#63b8ff" stroke="#63b8ff" points="353.4,-216.27 356.82,-206.25 347.9,-211.95 353.4,-216.27"/>
</a>
</g>
</g>
<!-- Node13 -->
<g id="Node000013" class="node">
<title>Node13</title>
<g id="a_Node000013"><a xlink:href="ionoModel_8cpp.html#ae7821a74f98f349d4508712aeced88e1" target="_top" xlink:title="Updating the ionosphere model parameters The ionosphere model should be initialized by calling &#39;confi...">
<path fill="#fff0f0" stroke="red" d="M234.17,-280C234.17,-280 153.83,-280 153.83,-280 150.67,-280 147.5,-276.83 147.5,-273.67 147.5,-273.67 147.5,-267.33 147.5,-267.33 147.5,-264.17 150.67,-261 153.83,-261 153.83,-261 234.17,-261 234.17,-261 237.33,-261 240.5,-264.17 240.5,-267.33 240.5,-267.33 240.5,-273.67 240.5,-273.67 240.5,-276.83 237.33,-280 234.17,-280"/>
<text text-anchor="middle" x="194" y="-268" font-family="Helvetica,sans-Serif" font-size="10.00">filterIonosphere</text>
</a>
</g>
</g>
<!-- Node2&#45;&gt;Node13 -->
<g id="edge5_Node000002_Node000013" class="edge">
<title>Node2&#45;&gt;Node13</title>
<g id="a_edge5_Node000002_Node000013"><a xlink:title=" ">
<path fill="none" stroke="#63b8ff" d="M341.74,-211.74C323.03,-223.96 295.23,-240.78 269,-251.5 259.91,-255.21 249.9,-258.37 240.25,-260.98"/>
<polygon fill="#63b8ff" stroke="#63b8ff" points="343.75,-214.61 350.14,-206.16 339.87,-208.78 343.75,-214.61"/>
</a>
</g>
</g>
<!-- Node14 -->
<g id="Node000014" class="node">
<title>Node14</title>
<g id="a_Node000014"><a xlink:href="debug_8cpp.html#a6b386ae3f1e24bab3a4c831fa043a400" target="_top" xlink:title=" ">
<path fill="#fff0f0" stroke="red" d="M222.67,-243C222.67,-243 165.33,-243 165.33,-243 162.17,-243 159,-239.83 159,-236.67 159,-236.67 159,-230.33 159,-230.33 159,-227.17 162.17,-224 165.33,-224 165.33,-224 222.67,-224 222.67,-224 225.83,-224 229,-227.17 229,-230.33 229,-230.33 229,-236.67 229,-236.67 229,-239.83 225.83,-243 222.67,-243"/>
<text text-anchor="middle" x="194" y="-231" font-family="Helvetica,sans-Serif" font-size="10.00">infiniteTest</text>
</a>
</g>
</g>
<!-- Node2&#45;&gt;Node14 -->
<g id="edge6_Node000002_Node000014" class="edge">
<title>Node2&#45;&gt;Node14</title>
<g id="a_edge6_Node000002_Node000014"><a xlink:title=" ">
<path fill="none" stroke="#63b8ff" d="M310.52,-208.21C283.85,-214.05 252.39,-220.93 229.05,-226.05"/>
<polygon fill="#63b8ff" stroke="#63b8ff" points="311.46,-211.59 320.48,-206.03 309.96,-204.75 311.46,-211.59"/>
</a>
</g>
</g>
<!-- Node15 -->
<g id="Node000015" class="node">
<title>Node15</title>
<g id="a_Node000015"><a xlink:href="minimumConstraints_8cpp.html#aa40934b017f373d875c3470591eff52e" target="_top" xlink:title=" ">
<path fill="#fff0f0" stroke="red" d="M214.17,-206C214.17,-206 173.83,-206 173.83,-206 170.67,-206 167.5,-202.83 167.5,-199.67 167.5,-199.67 167.5,-193.33 167.5,-193.33 167.5,-190.17 170.67,-187 173.83,-187 173.83,-187 214.17,-187 214.17,-187 217.33,-187 220.5,-190.17 220.5,-193.33 220.5,-193.33 220.5,-199.67 220.5,-199.67 220.5,-202.83 217.33,-206 214.17,-206"/>
<text text-anchor="middle" x="194" y="-194" font-family="Helvetica,sans-Serif" font-size="10.00">mincon</text>
</a>
</g>
</g>
<!-- Node2&#45;&gt;Node15 -->
<g id="edge7_Node000002_Node000015" class="edge">
<title>Node2&#45;&gt;Node15</title>
<g id="a_edge7_Node000002_Node000015"><a xlink:title=" ">
<path fill="none" stroke="#63b8ff" d="M294.63,-196.5C268.54,-196.5 240.47,-196.5 220.79,-196.5"/>
<polygon fill="#63b8ff" stroke="#63b8ff" points="294.89,-200 304.89,-196.5 294.89,-193 294.89,-200"/>
</a>
</g>
</g>
<!-- Node19 -->
<g id="Node000019" class="node">
<title>Node19</title>
<g id="a_Node000019"><a xlink:href="debug_8cpp.html#a80d24c0bf09dad23394c5fcac25aa80b" target="_top" xlink:title=" ">
<path fill="#fff0f0" stroke="red" d="M76.67,-187C76.67,-187 6.33,-187 6.33,-187 3.17,-187 0,-183.83 0,-180.67 0,-180.67 0,-174.33 0,-174.33 0,-171.17 3.17,-168 6.33,-168 6.33,-168 76.67,-168 76.67,-168 79.83,-168 83,-171.17 83,-174.33 83,-174.33 83,-180.67 83,-180.67 83,-183.83 79.83,-187 76.67,-187"/>
<text text-anchor="middle" x="41.5" y="-175" font-family="Helvetica,sans-Serif" font-size="10.00">minimumTest</text>
</a>
</g>
</g>
<!-- Node2&#45;&gt;Node19 -->
<g id="edge9_Node000002_Node000019" class="edge">
<title>Node2&#45;&gt;Node19</title>
<g id="a_edge9_Node000002_Node000019"><a xlink:title=" ">
<path fill="none" stroke="#63b8ff" d="M315.46,-184.88C300.64,-181.84 284.23,-179.01 269,-177.5 204.24,-171.09 128.55,-172.97 83.12,-175.1"/>
<polygon fill="#63b8ff" stroke="#63b8ff" points="314.93,-188.34 325.43,-186.99 316.38,-181.49 314.93,-188.34"/>
</a>
</g>
</g>
<!-- Node22 -->
<g id="Node000022" class="node">
<title>Node22</title>
<g id="a_Node000022"><a xlink:href="ppppp_8cpp.html#a9997f03cab80cd8db895650860eb025e" target="_top" xlink:title=" ">
<path fill="#fff0f0" stroke="red" d="M205.17,-93C205.17,-93 182.83,-93 182.83,-93 179.67,-93 176.5,-89.83 176.5,-86.67 176.5,-86.67 176.5,-80.33 176.5,-80.33 176.5,-77.17 179.67,-74 182.83,-74 182.83,-74 205.17,-74 205.17,-74 208.33,-74 211.5,-77.17 211.5,-80.33 211.5,-80.33 211.5,-86.67 211.5,-86.67 211.5,-89.83 208.33,-93 205.17,-93"/>
<text text-anchor="middle" x="194" y="-81" font-family="Helvetica,sans-Serif" font-size="10.00">ppp</text>
</a>
</g>
</g>
<!-- Node2&#45;&gt;Node22 -->
<g id="edge10_Node000002_Node000022" class="edge">
<title>Node2&#45;&gt;Node22</title>
<g id="a_edge10_Node000002_Node000022"><a xlink:title=" ">
<path fill="none" stroke="#63b8ff" d="M346.47,-179.47C334.68,-167.97 318.83,-152.4 305,-138.5 288.82,-122.23 288.92,-112.88 269,-101.5 250.97,-91.21 227.23,-86.77 211.55,-84.88"/>
<polygon fill="#63b8ff" stroke="#63b8ff" points="344.31,-182.24 353.91,-186.72 349.19,-177.23 344.31,-182.24"/>
</a>
</g>
</g>
<!-- Node23 -->
<g id="Node000023" class="node">
<title>Node23</title>
<g id="a_Node000023"><a xlink:href="walkthrough_8cpp.html#af3e41749378ce9de79e7bdb41df88419" target="_top" xlink:title="Ginan kalman filter basics The basic structure for kalman filtering in ginan is the KFState struct,...">
<path fill="#fff0f0" stroke="red" d="M229.17,-56C229.17,-56 158.83,-56 158.83,-56 155.67,-56 152.5,-52.83 152.5,-49.67 152.5,-49.67 152.5,-43.33 152.5,-43.33 152.5,-40.17 155.67,-37 158.83,-37 158.83,-37 229.17,-37 229.17,-37 232.33,-37 235.5,-40.17 235.5,-43.33 235.5,-43.33 235.5,-49.67 235.5,-49.67 235.5,-52.83 232.33,-56 229.17,-56"/>
<text text-anchor="middle" x="194" y="-44" font-family="Helvetica,sans-Serif" font-size="10.00">walkthrough1</text>
</a>
</g>
</g>
<!-- Node2&#45;&gt;Node23 -->
<g id="edge11_Node000002_Node000023" class="edge">
<title>Node2&#45;&gt;Node23</title>
<g id="a_edge11_Node000002_Node000023"><a xlink:title=" ">
<path fill="none" stroke="#63b8ff" d="M344.02,-180C331.7,-169.12 316.17,-154.04 305,-138.5 283.65,-108.8 297.48,-87.45 269,-64.5 259.53,-56.87 247.31,-52.4 235.54,-49.8"/>
<polygon fill="#63b8ff" stroke="#63b8ff" points="342.08,-182.95 351.95,-186.82 346.65,-177.65 342.08,-182.95"/>
</a>
</g>
</g>
<!-- Node25 -->
<g id="Node000025" class="node">
<title>Node25</title>
<g id="a_Node000025"><a xlink:href="walkthrough_8cpp.html#aff7ddc151473d418c066b30f06e6b42e" target="_top" xlink:title=" ">
<path fill="#fff0f0" stroke="red" d="M229.17,-19C229.17,-19 158.83,-19 158.83,-19 155.67,-19 152.5,-15.83 152.5,-12.67 152.5,-12.67 152.5,-6.33 152.5,-6.33 152.5,-3.17 155.67,0 158.83,0 158.83,0 229.17,0 229.17,0 232.33,0 235.5,-3.17 235.5,-6.33 235.5,-6.33 235.5,-12.67 235.5,-12.67 235.5,-15.83 232.33,-19 229.17,-19"/>
<text text-anchor="middle" x="194" y="-7" font-family="Helvetica,sans-Serif" font-size="10.00">walkthrough2</text>
</a>
</g>
</g>
<!-- Node2&#45;&gt;Node25 -->
<g id="edge12_Node000002_Node000025" class="edge">
<title>Node2&#45;&gt;Node25</title>
<g id="a_edge12_Node000002_Node000025"><a xlink:title=" ">
<path fill="none" stroke="#63b8ff" d="M343.15,-180.42C330.55,-169.74 315.04,-154.74 305,-138.5 277.72,-94.39 307.02,-62.77 269,-27.5 259.99,-19.14 247.75,-14.48 235.83,-11.93"/>
<polygon fill="#63b8ff" stroke="#63b8ff" points="340.97,-183.16 350.93,-186.79 345.41,-177.75 340.97,-183.16"/>
</a>
</g>
</g>
<!-- Node15&#45;&gt;Node19 -->
<g id="edge8_Node000015_Node000019" class="edge">
<title>Node15&#45;&gt;Node19</title>
<g id="a_edge8_Node000015_Node000019"><a xlink:title=" ">
<path fill="none" stroke="#63b8ff" d="M157.43,-192.01C135.16,-189.2 106.4,-185.57 83.22,-182.64"/>
<polygon fill="#63b8ff" stroke="#63b8ff" points="157.11,-195.5 167.47,-193.28 157.99,-188.55 157.11,-195.5"/>
</a>
</g>
</g>
<!-- Node26&#45;&gt;Node22 -->
<g id="edge15_Node000026_Node000022" class="edge">
<title>Node26&#45;&gt;Node22</title>
<g id="a_edge15_Node000026_Node000022"><a xlink:title=" ">
<path fill="none" stroke="#63b8ff" d="M314.42,-109.64C279.75,-102.05 235.56,-92.38 211.85,-87.19"/>
<polygon fill="#63b8ff" stroke="#63b8ff" points="313.86,-113.11 324.38,-111.83 315.36,-106.27 313.86,-113.11"/>
</a>
</g>
</g>
<!-- Node27 -->
<g id="Node000027" class="node">
<title>Node27</title>
<g id="a_Node000027"><a xlink:href="Ginan_8cpp.html#a59a8bad8519426f9742fa63079e4a5e9" target="_top" xlink:title="Ginan&#39;s main processing executable.">
<polygon fill="#88ff88" stroke="#00aa00" points="216.5,-130 171.5,-130 171.5,-111 216.5,-111 216.5,-130"/>
<text text-anchor="middle" x="194" y="-118" font-family="Helvetica,sans-Serif" font-size="10.00">Pea__</text>
</a>
</g>
</g>
<!-- Node26&#45;&gt;Node27 -->
<g id="edge14_Node000026_Node000027" class="edge">
<title>Node26&#45;&gt;Node27</title>
<g id="a_edge14_Node000026_Node000027"><a xlink:title=" ">
<path fill="none" stroke="#63b8ff" d="M314.19,-120.5C281.85,-120.5 241.3,-120.5 216.81,-120.5"/>
<polygon fill="#63b8ff" stroke="#63b8ff" points="314.38,-124 324.38,-120.5 314.38,-117 314.38,-124"/>
</a>
</g>
</g>
</g>
</svg>
