<?xml version="1.0" encoding="UTF-8" standalone="no"?>
<!DOCTYPE svg PUBLIC "-//W3C//DTD SVG 1.1//EN"
 "http://www.w3.org/Graphics/SVG/1.1/DTD/svg11.dtd">
<!-- Generated by graphviz version 2.43.0 (0)
 -->
<!-- Title: filter_ Pages: 1 -->
<svg width="232pt" height="205pt"
 viewBox="0.00 0.00 232.00 205.00" xmlns="http://www.w3.org/2000/svg" xmlns:xlink="http://www.w3.org/1999/xlink">
<g id="graph0" class="graph" transform="scale(1 1) rotate(0) translate(4 201)">
<title>filter_</title>
<!-- Node1 -->
<g id="Node000001" class="node">
<title>Node1</title>
<g id="a_Node000001"><a xlink:href="algebra__old_8cpp.html#a56b19c4e307111fe68e1e2c1f57868a1" target="_top" xlink:title=" ">
<path fill="#fff0f0" stroke="red" stroke-width="2" d="M37.67,-103C37.67,-103 6.33,-103 6.33,-103 3.17,-103 0,-99.83 0,-96.67 0,-96.67 0,-90.33 0,-90.33 0,-87.17 3.17,-84 6.33,-84 6.33,-84 37.67,-84 37.67,-84 40.83,-84 44,-87.17 44,-90.33 44,-90.33 44,-96.67 44,-96.67 44,-99.83 40.83,-103 37.67,-103"/>
<text text-anchor="middle" x="22" y="-91" font-family="Helvetica,sans-Serif" font-size="10.00">filter_</text>
</a>
</g>
</g>
<!-- Node2 -->
<g id="Node000002" class="node">
<title>Node2</title>
<g id="a_Node000002"><a xlink:href="algebra__old_8cpp.html#a1d2c1ecab5b17dcc773fcd83c0b87b7e" target="_top" xlink:title=" ">
<path fill="#fff0f0" stroke="red" d="M209.17,-197C209.17,-197 185.83,-197 185.83,-197 182.67,-197 179.5,-193.83 179.5,-190.67 179.5,-190.67 179.5,-184.33 179.5,-184.33 179.5,-181.17 182.67,-178 185.83,-178 185.83,-178 209.17,-178 209.17,-178 212.33,-178 215.5,-181.17 215.5,-184.33 215.5,-184.33 215.5,-190.67 215.5,-190.67 215.5,-193.83 212.33,-197 209.17,-197"/>
<text text-anchor="middle" x="197.5" y="-185" font-family="Helvetica,sans-Serif" font-size="10.00">mat</text>
</a>
</g>
</g>
<!-- Node1&#45;&gt;Node2 -->
<g id="edge1_Node000001_Node000002" class="edge">
<title>Node1&#45;&gt;Node2</title>
<g id="a_edge1_Node000001_Node000002"><a xlink:title=" ">
<path fill="none" stroke="#63b8ff" d="M32.87,-103C42.86,-116.11 59.7,-138.13 80,-150.5 107.67,-167.36 144.79,-174.07 169.62,-178.76"/>
<polygon fill="#63b8ff" stroke="#63b8ff" points="168.97,-182.2 179.45,-180.68 170.3,-175.33 168.97,-182.2"/>
</a>
</g>
</g>
<!-- Node1&#45;&gt;Node2 -->
<g id="edge2_Node000001_Node000002" class="edge">
<title>Node1&#45;&gt;Node2</title>
<g id="a_edge2_Node000001_Node000002"><a xlink:title=" ">
<path fill="none" stroke="#63b8ff" d="M25.84,-103.02C33.09,-120.06 53.62,-152.43 80,-168.5 107.55,-185.28 144.46,-192.01 169.29,-192.7"/>
<polygon fill="#63b8ff" stroke="#63b8ff" points="169.48,-196.2 179.45,-192.63 169.43,-189.2 169.48,-196.2"/>
</a>
</g>
</g>
<!-- Node3 -->
<g id="Node000003" class="node">
<title>Node3</title>
<g id="a_Node000003"><a xlink:href="algebra__old_8cpp.html#adfe9cb36e0f4af6b1ca11bdfbe66e55c" target="_top" xlink:title=" ">
<path fill="#fff0f0" stroke="red" d="M118.67,-150C118.67,-150 96.33,-150 96.33,-150 93.17,-150 90,-146.83 90,-143.67 90,-143.67 90,-137.33 90,-137.33 90,-134.17 93.17,-131 96.33,-131 96.33,-131 118.67,-131 118.67,-131 121.83,-131 125,-134.17 125,-137.33 125,-137.33 125,-143.67 125,-143.67 125,-146.83 121.83,-150 118.67,-150"/>
<text text-anchor="middle" x="107.5" y="-138" font-family="Helvetica,sans-Serif" font-size="10.00">eye</text>
</a>
</g>
</g>
<!-- Node1&#45;&gt;Node3 -->
<g id="edge3_Node000001_Node000003" class="edge">
<title>Node1&#45;&gt;Node3</title>
<g id="a_edge3_Node000001_Node000003"><a xlink:title=" ">
<path fill="none" stroke="#63b8ff" d="M39.9,-103.01C51.75,-109.68 67.79,-118.71 81.17,-126.24"/>
<polygon fill="#63b8ff" stroke="#63b8ff" points="79.48,-129.31 89.91,-131.16 82.92,-123.21 79.48,-129.31"/>
</a>
</g>
</g>
<!-- Node5 -->
<g id="Node000005" class="node">
<title>Node5</title>
<g id="a_Node000005"><a xlink:href="algebra__old_8cpp.html#a50d2d9511da542d472f3390449fedf38" target="_top" xlink:title=" ">
<path fill="#fff0f0" stroke="red" d="M217.67,-103C217.67,-103 177.33,-103 177.33,-103 174.17,-103 171,-99.83 171,-96.67 171,-96.67 171,-90.33 171,-90.33 171,-87.17 174.17,-84 177.33,-84 177.33,-84 217.67,-84 217.67,-84 220.83,-84 224,-87.17 224,-90.33 224,-90.33 224,-96.67 224,-96.67 224,-99.83 220.83,-103 217.67,-103"/>
<text text-anchor="middle" x="197.5" y="-91" font-family="Helvetica,sans-Serif" font-size="10.00">matcpy</text>
</a>
</g>
</g>
<!-- Node1&#45;&gt;Node5 -->
<g id="edge4_Node000001_Node000005" class="edge">
<title>Node1&#45;&gt;Node5</title>
<g id="a_edge4_Node000001_Node000005"><a xlink:title=" ">
<path fill="none" stroke="#63b8ff" d="M44.27,-88.89C73.22,-86.41 125.42,-86.09 160.52,-87.91"/>
<polygon fill="#63b8ff" stroke="#63b8ff" points="160.62,-91.42 170.82,-88.54 161.05,-84.43 160.62,-91.42"/>
</a>
</g>
</g>
<!-- Node1&#45;&gt;Node5 -->
<g id="edge5_Node000001_Node000005" class="edge">
<title>Node1&#45;&gt;Node5</title>
<g id="a_edge5_Node000001_Node000005"><a xlink:title=" ">
<path fill="none" stroke="#63b8ff" d="M44.27,-98.11C73.22,-100.59 125.42,-100.91 160.52,-99.09"/>
<polygon fill="#63b8ff" stroke="#63b8ff" points="161.05,-102.57 170.82,-98.46 160.62,-95.58 161.05,-102.57"/>
</a>
</g>
</g>
<!-- Node6 -->
<g id="Node000006" class="node">
<title>Node6</title>
<g id="a_Node000006"><a xlink:href="algebra__old_8cpp.html#adc33998911a24938042604ba1f8e6196" target="_top" xlink:title=" ">
<path fill="#fff0f0" stroke="red" d="M128.67,-56C128.67,-56 86.33,-56 86.33,-56 83.17,-56 80,-52.83 80,-49.67 80,-49.67 80,-43.33 80,-43.33 80,-40.17 83.17,-37 86.33,-37 86.33,-37 128.67,-37 128.67,-37 131.83,-37 135,-40.17 135,-43.33 135,-43.33 135,-49.67 135,-49.67 135,-52.83 131.83,-56 128.67,-56"/>
<text text-anchor="middle" x="107.5" y="-44" font-family="Helvetica,sans-Serif" font-size="10.00">matmul</text>
</a>
</g>
</g>
<!-- Node1&#45;&gt;Node6 -->
<g id="edge6_Node000001_Node000006" class="edge">
<title>Node1&#45;&gt;Node6</title>
<g id="a_edge6_Node000001_Node000006"><a xlink:title=" ">
<path fill="none" stroke="#63b8ff" d="M32.25,-83.86C41.59,-76.81 56.6,-67.61 70.68,-59.97"/>
<polygon fill="#63b8ff" stroke="#63b8ff" points="72.51,-62.96 79.74,-55.22 69.26,-56.77 72.51,-62.96"/>
</a>
</g>
</g>
<!-- Node1&#45;&gt;Node6 -->
<g id="edge7_Node000001_Node000006" class="edge">
<title>Node1&#45;&gt;Node6</title>
<g id="a_edge7_Node000001_Node000006"><a xlink:title=" ">
<path fill="none" stroke="#63b8ff" d="M44.07,-87.59C57.89,-80.98 75.75,-70.82 88.82,-62.08"/>
<polygon fill="#63b8ff" stroke="#63b8ff" points="90.84,-64.94 97,-56.32 86.81,-59.22 90.84,-64.94"/>
</a>
</g>
</g>
<!-- Node7 -->
<g id="Node000007" class="node">
<title>Node7</title>
<g id="a_Node000007"><a xlink:href="algebra__old_8cpp.html#a4035d20f11b4bd8085e6b0f84f8c0764" target="_top" xlink:title=" ">
<path fill="#fff0f0" stroke="red" d="M126.67,-19C126.67,-19 88.33,-19 88.33,-19 85.17,-19 82,-15.83 82,-12.67 82,-12.67 82,-6.33 82,-6.33 82,-3.17 85.17,0 88.33,0 88.33,0 126.67,0 126.67,0 129.83,0 133,-3.17 133,-6.33 133,-6.33 133,-12.67 133,-12.67 133,-15.83 129.83,-19 126.67,-19"/>
<text text-anchor="middle" x="107.5" y="-7" font-family="Helvetica,sans-Serif" font-size="10.00">matinv</text>
</a>
</g>
</g>
<!-- Node1&#45;&gt;Node7 -->
<g id="edge8_Node000001_Node000007" class="edge">
<title>Node1&#45;&gt;Node7</title>
<g id="a_edge8_Node000001_Node000007"><a xlink:title=" ">
<path fill="none" stroke="#63b8ff" d="M30.05,-83.84C40.18,-70.33 59.87,-45.42 80,-27.5 80.83,-26.76 81.69,-26.03 82.58,-25.3"/>
<polygon fill="#63b8ff" stroke="#63b8ff" points="84.93,-27.91 90.86,-19.13 80.75,-22.3 84.93,-27.91"/>
</a>
</g>
</g>
<!-- Node7&#45;&gt;Node2 -->
<g id="edge9_Node000007_Node000002" class="edge">
<title>Node7&#45;&gt;Node2</title>
<g id="a_edge9_Node000007_Node000002"><a xlink:title=" ">
<path fill="none" stroke="#63b8ff" d="M126.03,-19.17C129.33,-21.57 132.51,-24.36 135,-27.5 144.15,-39.03 175.89,-128.32 189.84,-168.27"/>
<polygon fill="#63b8ff" stroke="#63b8ff" points="186.61,-169.63 193.2,-177.92 193.22,-167.33 186.61,-169.63"/>
</a>
</g>
</g>
<!-- Node7&#45;&gt;Node5 -->
<g id="edge10_Node000007_Node000005" class="edge">
<title>Node7&#45;&gt;Node5</title>
<g id="a_edge10_Node000007_Node000005"><a xlink:title=" ">
<path fill="none" stroke="#63b8ff" d="M123.79,-19.03C127.57,-21.62 131.54,-24.53 135,-27.5 152.53,-42.53 170.26,-62.13 182.15,-76.06"/>
<polygon fill="#63b8ff" stroke="#63b8ff" points="179.63,-78.5 188.75,-83.91 184.99,-74 179.63,-78.5"/>
</a>
</g>
</g>
</g>
</svg>
