<?xml version="1.0" encoding="UTF-8" standalone="no"?>
<!DOCTYPE svg PUBLIC "-//W3C//DTD SVG 1.1//EN"
 "http://www.w3.org/Graphics/SVG/1.1/DTD/svg11.dtd">
<!-- Generated by graphviz version 2.43.0 (0)
 -->
<!-- Title: spitFilterToFile Pages: 1 -->
<svg width="390pt" height="214pt"
 viewBox="0.00 0.00 390.00 214.00" xmlns="http://www.w3.org/2000/svg" xmlns:xlink="http://www.w3.org/1999/xlink">
<g id="graph0" class="graph" transform="scale(1 1) rotate(0) translate(4 210)">
<title>spitFilterToFile</title>
<!-- Node1 -->
<g id="Node000001" class="node">
<title>Node1</title>
<g id="a_Node000001"><a xlink:href="algebraTrace_8hpp.html#a763d8db4343fa73fa264de91d8cda786" target="_top" xlink:title="Output filter state to a file for later reading.">
<path fill="#fff0f0" stroke="red" stroke-width="2" d="M375.67,-113C375.67,-113 301.33,-113 301.33,-113 298.17,-113 295,-109.83 295,-106.67 295,-106.67 295,-100.33 295,-100.33 295,-97.17 298.17,-94 301.33,-94 301.33,-94 375.67,-94 375.67,-94 378.83,-94 382,-97.17 382,-100.33 382,-100.33 382,-106.67 382,-106.67 382,-109.83 378.83,-113 375.67,-113"/>
<text text-anchor="middle" x="338.5" y="-101" font-family="Helvetica,sans-Serif" font-size="10.00">spitFilterToFile</text>
</a>
</g>
</g>
<!-- Node2 -->
<g id="Node000002" class="node">
<title>Node2</title>
<g id="a_Node000002"><a xlink:href="main_8cpp.html#afc11530de7eb5cfd21c9b3185337af96" target="_top" xlink:title="Create new empty trace files only when required when the filename is changed.">
<path fill="#fff0f0" stroke="red" d="M214.17,-206C214.17,-206 133.83,-206 133.83,-206 130.67,-206 127.5,-202.83 127.5,-199.67 127.5,-199.67 127.5,-193.33 127.5,-193.33 127.5,-190.17 130.67,-187 133.83,-187 133.83,-187 214.17,-187 214.17,-187 217.33,-187 220.5,-190.17 220.5,-193.33 220.5,-193.33 220.5,-199.67 220.5,-199.67 220.5,-202.83 217.33,-206 214.17,-206"/>
<text text-anchor="middle" x="174" y="-194" font-family="Helvetica,sans-Serif" font-size="10.00">createTracefiles</text>
</a>
</g>
</g>
<!-- Node1&#45;&gt;Node2 -->
<g id="edge1_Node000001_Node000002" class="edge">
<title>Node1&#45;&gt;Node2</title>
<g id="a_edge1_Node000001_Node000002"><a xlink:title=" ">
<path fill="none" stroke="#63b8ff" d="M323.93,-121.25C309.68,-138.59 285.67,-164.38 259,-178.5 247.27,-184.71 233.54,-188.78 220.62,-191.44"/>
<polygon fill="#63b8ff" stroke="#63b8ff" points="326.96,-123.06 330.46,-113.05 321.49,-118.7 326.96,-123.06"/>
</a>
</g>
</g>
<!-- Node6 -->
<g id="Node000006" class="node">
<title>Node6</title>
<g id="a_Node000006"><a xlink:href="structKFState.html#a0d12c57e70876543084c182a660bbbd3" target="_top" xlink:title="Kalman filter operation.">
<path fill="#fff0f0" stroke="red" d="M227.67,-169C227.67,-169 120.33,-169 120.33,-169 117.17,-169 114,-165.83 114,-162.67 114,-162.67 114,-156.33 114,-156.33 114,-153.17 117.17,-150 120.33,-150 120.33,-150 227.67,-150 227.67,-150 230.83,-150 234,-153.17 234,-156.33 234,-156.33 234,-162.67 234,-162.67 234,-165.83 230.83,-169 227.67,-169"/>
<text text-anchor="middle" x="174" y="-157" font-family="Helvetica,sans-Serif" font-size="10.00">KFState::filterKalman</text>
</a>
</g>
</g>
<!-- Node1&#45;&gt;Node6 -->
<g id="edge2_Node000001_Node000006" class="edge">
<title>Node1&#45;&gt;Node6</title>
<g id="a_edge2_Node000001_Node000006"><a xlink:title=" ">
<path fill="none" stroke="#63b8ff" d="M311.7,-117.94C296.69,-125.83 277.21,-135.24 259,-141.5 249.41,-144.8 238.99,-147.61 228.85,-149.97"/>
<polygon fill="#63b8ff" stroke="#63b8ff" points="313.7,-120.83 320.85,-113.02 310.38,-114.67 313.7,-120.83"/>
</a>
</g>
</g>
<!-- Node17 -->
<g id="Node000017" class="node">
<title>Node17</title>
<g id="a_Node000017"><a xlink:href="minimumConstraints_8cpp.html#aa40934b017f373d875c3470591eff52e" target="_top" xlink:title=" ">
<path fill="#fff0f0" stroke="red" d="M46.67,-94C46.67,-94 6.33,-94 6.33,-94 3.17,-94 0,-90.83 0,-87.67 0,-87.67 0,-81.33 0,-81.33 0,-78.17 3.17,-75 6.33,-75 6.33,-75 46.67,-75 46.67,-75 49.83,-75 53,-78.17 53,-81.33 53,-81.33 53,-87.67 53,-87.67 53,-90.83 49.83,-94 46.67,-94"/>
<text text-anchor="middle" x="26.5" y="-82" font-family="Helvetica,sans-Serif" font-size="10.00">mincon</text>
</a>
</g>
</g>
<!-- Node1&#45;&gt;Node17 -->
<g id="edge5_Node000001_Node000017" class="edge">
<title>Node1&#45;&gt;Node17</title>
<g id="a_edge5_Node000001_Node000017"><a xlink:title=" ">
<path fill="none" stroke="#63b8ff" d="M284.74,-100.27C217.44,-96.14 103.72,-89.17 53.11,-86.07"/>
<polygon fill="#63b8ff" stroke="#63b8ff" points="284.53,-103.76 294.72,-100.88 284.95,-96.77 284.53,-103.76"/>
</a>
</g>
</g>
<!-- Node27 -->
<g id="Node000027" class="node">
<title>Node27</title>
<g id="a_Node000027"><a xlink:href="structKFState.html#a35b82ca74c6a6795abf1b6e919a4fec1" target="_top" xlink:title="Add process noise and dynamics to filter object manually.">
<path fill="#fff0f0" stroke="red" d="M252.67,-132C252.67,-132 95.33,-132 95.33,-132 92.17,-132 89,-128.83 89,-125.67 89,-125.67 89,-119.33 89,-119.33 89,-116.17 92.17,-113 95.33,-113 95.33,-113 252.67,-113 252.67,-113 255.83,-113 259,-116.17 259,-119.33 259,-119.33 259,-125.67 259,-125.67 259,-128.83 255.83,-132 252.67,-132"/>
<text text-anchor="middle" x="174" y="-120" font-family="Helvetica,sans-Serif" font-size="10.00">KFState::manualStateTransition</text>
</a>
</g>
</g>
<!-- Node1&#45;&gt;Node27 -->
<g id="edge4_Node000001_Node000027" class="edge">
<title>Node1&#45;&gt;Node27</title>
<g id="a_edge4_Node000001_Node000027"><a xlink:title=" ">
<path fill="none" stroke="#63b8ff" d="M284.8,-109.66C275.7,-110.73 266.05,-111.85 256.41,-112.98"/>
<polygon fill="#63b8ff" stroke="#63b8ff" points="285.28,-113.13 294.81,-108.49 284.47,-106.18 285.28,-113.13"/>
</a>
</g>
</g>
<!-- Node30 -->
<g id="Node000030" class="node">
<title>Node30</title>
<g id="a_Node000030"><a xlink:href="algebraTrace_8cpp.html#ab985d37dc7eba5832e0b6867d2e45dd6" target="_top" xlink:title=" ">
<path fill="#fff0f0" stroke="red" d="M217.67,-56C217.67,-56 130.33,-56 130.33,-56 127.17,-56 124,-52.83 124,-49.67 124,-49.67 124,-43.33 124,-43.33 124,-40.17 127.17,-37 130.33,-37 130.33,-37 217.67,-37 217.67,-37 220.83,-37 224,-40.17 224,-43.33 224,-43.33 224,-49.67 224,-49.67 224,-52.83 220.83,-56 217.67,-56"/>
<text text-anchor="middle" x="174" y="-44" font-family="Helvetica,sans-Serif" font-size="10.00">spitQueuedToFile</text>
</a>
</g>
</g>
<!-- Node1&#45;&gt;Node30 -->
<g id="edge6_Node000001_Node000030" class="edge">
<title>Node1&#45;&gt;Node30</title>
<g id="a_edge6_Node000001_Node000030"><a xlink:title=" ">
<path fill="none" stroke="#63b8ff" d="M307.33,-89.82C292.87,-83.52 275.2,-76.2 259,-70.5 243.83,-65.17 226.83,-60.14 212.1,-56.07"/>
<polygon fill="#63b8ff" stroke="#63b8ff" points="306.21,-93.15 316.78,-93.99 309.04,-86.75 306.21,-93.15"/>
</a>
</g>
</g>
<!-- Node33 -->
<g id="Node000033" class="node">
<title>Node33</title>
<g id="a_Node000033"><a xlink:href="structKFState.html#a7f8e4b9291361c063cef8d9178f07707" target="_top" xlink:title="Add process noise and dynamics to filter object according to time gap.">
<path fill="#fff0f0" stroke="red" d="M233.67,-19C233.67,-19 114.33,-19 114.33,-19 111.17,-19 108,-15.83 108,-12.67 108,-12.67 108,-6.33 108,-6.33 108,-3.17 111.17,0 114.33,0 114.33,0 233.67,0 233.67,0 236.83,0 240,-3.17 240,-6.33 240,-6.33 240,-12.67 240,-12.67 240,-15.83 236.83,-19 233.67,-19"/>
<text text-anchor="middle" x="174" y="-7" font-family="Helvetica,sans-Serif" font-size="10.00">KFState::stateTransition</text>
</a>
</g>
</g>
<!-- Node1&#45;&gt;Node33 -->
<g id="edge7_Node000001_Node000033" class="edge">
<title>Node1&#45;&gt;Node33</title>
<g id="a_edge7_Node000001_Node000033"><a xlink:title=" ">
<path fill="none" stroke="#63b8ff" d="M323.9,-85.82C309.62,-68.52 285.59,-42.77 259,-28.5 251.75,-24.61 243.74,-21.52 235.63,-19.05"/>
<polygon fill="#63b8ff" stroke="#63b8ff" points="321.45,-88.36 330.44,-93.98 326.92,-83.99 321.45,-88.36"/>
</a>
</g>
</g>
<!-- Node6&#45;&gt;Node17 -->
<g id="edge3_Node000006_Node000017" class="edge">
<title>Node6&#45;&gt;Node17</title>
<g id="a_edge3_Node000006_Node000017"><a xlink:title=" ">
<path fill="none" stroke="#63b8ff" d="M104.18,-147.99C98.92,-146.14 93.8,-143.99 89,-141.5 66.27,-129.69 45.72,-107.17 35.1,-94.26"/>
<polygon fill="#63b8ff" stroke="#63b8ff" points="103.17,-151.34 113.76,-151.01 105.27,-144.67 103.17,-151.34"/>
</a>
</g>
</g>
<!-- Node33&#45;&gt;Node17 -->
<g id="edge8_Node000033_Node000017" class="edge">
<title>Node33&#45;&gt;Node17</title>
<g id="a_edge8_Node000033_Node000017"><a xlink:title=" ">
<path fill="none" stroke="#63b8ff" d="M103.28,-22.26C98.34,-24.07 93.52,-26.14 89,-28.5 66.46,-40.25 45.85,-62.31 35.16,-74.95"/>
<polygon fill="#63b8ff" stroke="#63b8ff" points="104.5,-25.54 112.9,-19.08 102.3,-18.9 104.5,-25.54"/>
</a>
</g>
</g>
</g>
</svg>
