<?xml version="1.0" encoding="UTF-8" standalone="no"?>
<!DOCTYPE svg PUBLIC "-//W3C//DTD SVG 1.1//EN"
 "http://www.w3.org/Graphics/SVG/1.1/DTD/svg11.dtd">
<!-- Generated by graphviz version 2.43.0 (0)
 -->
<!-- Title: lsqqc Pages: 1 -->
<svg width="228pt" height="240pt"
 viewBox="0.00 0.00 228.00 239.85" xmlns="http://www.w3.org/2000/svg" xmlns:xlink="http://www.w3.org/1999/xlink">
<g id="graph0" class="graph" transform="scale(1 1) rotate(0) translate(4 235.85)">
<title>lsqqc</title>
<!-- Node1 -->
<g id="Node000001" class="node">
<title>Node1</title>
<g id="a_Node000001"><a xlink:href="algebra__old_8cpp.html#acc2b857563b3c233a09fe2427965f7b2" target="_top" xlink:title=" ">
<path fill="#fff0f0" stroke="red" stroke-width="2" d="M35.67,-159C35.67,-159 6.33,-159 6.33,-159 3.17,-159 0,-155.83 0,-152.67 0,-152.67 0,-146.33 0,-146.33 0,-143.17 3.17,-140 6.33,-140 6.33,-140 35.67,-140 35.67,-140 38.83,-140 42,-143.17 42,-146.33 42,-146.33 42,-152.67 42,-152.67 42,-155.83 38.83,-159 35.67,-159"/>
<text text-anchor="middle" x="21" y="-147" font-family="Helvetica,sans-Serif" font-size="10.00">lsqqc</text>
</a>
</g>
</g>
<!-- Node2 -->
<g id="Node000002" class="node">
<title>Node2</title>
<g id="a_Node000002"><a xlink:href="algebra__old_8cpp.html#a1d2c1ecab5b17dcc773fcd83c0b87b7e" target="_top" xlink:title=" ">
<path fill="#fff0f0" stroke="red" d="M204.17,-213C204.17,-213 180.83,-213 180.83,-213 177.67,-213 174.5,-209.83 174.5,-206.67 174.5,-206.67 174.5,-200.33 174.5,-200.33 174.5,-197.17 177.67,-194 180.83,-194 180.83,-194 204.17,-194 204.17,-194 207.33,-194 210.5,-197.17 210.5,-200.33 210.5,-200.33 210.5,-206.67 210.5,-206.67 210.5,-209.83 207.33,-213 204.17,-213"/>
<text text-anchor="middle" x="192.5" y="-201" font-family="Helvetica,sans-Serif" font-size="10.00">mat</text>
</a>
</g>
</g>
<!-- Node1&#45;&gt;Node2 -->
<g id="edge1_Node000001_Node000002" class="edge">
<title>Node1&#45;&gt;Node2</title>
<g id="a_edge1_Node000001_Node000002"><a xlink:title=" ">
<path fill="none" stroke="#63b8ff" d="M30.34,-159.06C39.56,-172.85 56.05,-196.34 78,-206.5 105.57,-219.26 140.82,-212.44 164.67,-206.84"/>
<polygon fill="#63b8ff" stroke="#63b8ff" points="165.53,-210.23 174.45,-204.5 163.91,-203.42 165.53,-210.23"/>
</a>
</g>
</g>
<!-- Node1&#45;&gt;Node2 -->
<g id="edge2_Node000001_Node000002" class="edge">
<title>Node1&#45;&gt;Node2</title>
<g id="a_edge2_Node000001_Node000002"><a xlink:title=" ">
<path fill="none" stroke="#63b8ff" d="M24.45,-159.15C30.95,-177.02 50.05,-211.56 78,-224.5 108.68,-238.7 148.88,-228.64 172.29,-217.69"/>
<polygon fill="#63b8ff" stroke="#63b8ff" points="173.98,-220.75 181.21,-213.01 170.73,-214.55 173.98,-220.75"/>
</a>
</g>
</g>
<!-- Node3 -->
<g id="Node000003" class="node">
<title>Node3</title>
<g id="a_Node000003"><a xlink:href="algebra__old_8cpp.html#a446a2803e5eaeb996733dd8d73966f00" target="_top" xlink:title=" ">
<path fill="#fff0f0" stroke="red" d="M118.67,-206C118.67,-206 88.33,-206 88.33,-206 85.17,-206 82,-202.83 82,-199.67 82,-199.67 82,-193.33 82,-193.33 82,-190.17 85.17,-187 88.33,-187 88.33,-187 118.67,-187 118.67,-187 121.83,-187 125,-190.17 125,-193.33 125,-193.33 125,-199.67 125,-199.67 125,-202.83 121.83,-206 118.67,-206"/>
<text text-anchor="middle" x="103.5" y="-194" font-family="Helvetica,sans-Serif" font-size="10.00">zeros</text>
</a>
</g>
</g>
<!-- Node1&#45;&gt;Node3 -->
<g id="edge3_Node000001_Node000003" class="edge">
<title>Node1&#45;&gt;Node3</title>
<g id="a_edge3_Node000001_Node000003"><a xlink:title=" ">
<path fill="none" stroke="#63b8ff" d="M38.29,-159.01C49.46,-165.53 64.49,-174.31 77.2,-181.73"/>
<polygon fill="#63b8ff" stroke="#63b8ff" points="75.56,-184.82 85.96,-186.84 79.09,-178.78 75.56,-184.82"/>
</a>
</g>
</g>
<!-- Node4 -->
<g id="Node000004" class="node">
<title>Node4</title>
<g id="a_Node000004"><a xlink:href="algebra__old_8cpp.html#adc33998911a24938042604ba1f8e6196" target="_top" xlink:title=" ">
<path fill="#fff0f0" stroke="red" d="M213.67,-137C213.67,-137 171.33,-137 171.33,-137 168.17,-137 165,-133.83 165,-130.67 165,-130.67 165,-124.33 165,-124.33 165,-121.17 168.17,-118 171.33,-118 171.33,-118 213.67,-118 213.67,-118 216.83,-118 220,-121.17 220,-124.33 220,-124.33 220,-130.67 220,-130.67 220,-133.83 216.83,-137 213.67,-137"/>
<text text-anchor="middle" x="192.5" y="-125" font-family="Helvetica,sans-Serif" font-size="10.00">matmul</text>
</a>
</g>
</g>
<!-- Node1&#45;&gt;Node4 -->
<g id="edge4_Node000001_Node000004" class="edge">
<title>Node1&#45;&gt;Node4</title>
<g id="a_edge4_Node000001_Node000004"><a xlink:title=" ">
<path fill="none" stroke="#63b8ff" d="M42.11,-142.34C69.77,-136.26 120.03,-129.36 154.56,-126.61"/>
<polygon fill="#63b8ff" stroke="#63b8ff" points="155,-130.09 164.73,-125.89 154.51,-123.1 155,-130.09"/>
</a>
</g>
</g>
<!-- Node1&#45;&gt;Node4 -->
<g id="edge5_Node000001_Node000004" class="edge">
<title>Node1&#45;&gt;Node4</title>
<g id="a_edge5_Node000001_Node000004"><a xlink:title=" ">
<path fill="none" stroke="#63b8ff" d="M42.11,-151.44C69.77,-150.34 120.03,-144.19 154.56,-137.98"/>
<polygon fill="#63b8ff" stroke="#63b8ff" points="155.55,-141.36 164.73,-136.06 154.25,-134.48 155.55,-141.36"/>
</a>
</g>
</g>
<!-- Node5 -->
<g id="Node000005" class="node">
<title>Node5</title>
<g id="a_Node000005"><a xlink:href="algebra__old_8cpp.html#a50d2d9511da542d472f3390449fedf38" target="_top" xlink:title=" ">
<path fill="#fff0f0" stroke="red" d="M212.67,-79C212.67,-79 172.33,-79 172.33,-79 169.17,-79 166,-75.83 166,-72.67 166,-72.67 166,-66.33 166,-66.33 166,-63.17 169.17,-60 172.33,-60 172.33,-60 212.67,-60 212.67,-60 215.83,-60 219,-63.17 219,-66.33 219,-66.33 219,-72.67 219,-72.67 219,-75.83 215.83,-79 212.67,-79"/>
<text text-anchor="middle" x="192.5" y="-67" font-family="Helvetica,sans-Serif" font-size="10.00">matcpy</text>
</a>
</g>
</g>
<!-- Node1&#45;&gt;Node5 -->
<g id="edge6_Node000001_Node000005" class="edge">
<title>Node1&#45;&gt;Node5</title>
<g id="a_edge6_Node000001_Node000005"><a xlink:title=" ">
<path fill="none" stroke="#63b8ff" d="M34.46,-139.88C59.8,-124.68 118.12,-96.53 156.12,-80.59"/>
<polygon fill="#63b8ff" stroke="#63b8ff" points="157.86,-83.66 165.78,-76.63 155.2,-77.19 157.86,-83.66"/>
</a>
</g>
</g>
<!-- Node1&#45;&gt;Node5 -->
<g id="edge15_Node000001_Node000005" class="edge">
<title>Node1&#45;&gt;Node5</title>
<g id="a_edge15_Node000001_Node000005"><a xlink:title=" ">
<path fill="none" stroke="#63b8ff" d="M42.11,-144.56C74.35,-132.24 137.34,-102.55 170.27,-84.17"/>
<polygon fill="#63b8ff" stroke="#63b8ff" points="172.18,-87.11 179.09,-79.09 168.68,-81.05 172.18,-87.11"/>
</a>
</g>
</g>
<!-- Node6 -->
<g id="Node000006" class="node">
<title>Node6</title>
<g id="a_Node000006"><a xlink:href="algebra__old_8cpp.html#a4035d20f11b4bd8085e6b0f84f8c0764" target="_top" xlink:title=" ">
<path fill="#fff0f0" stroke="red" d="M122.67,-56C122.67,-56 84.33,-56 84.33,-56 81.17,-56 78,-52.83 78,-49.67 78,-49.67 78,-43.33 78,-43.33 78,-40.17 81.17,-37 84.33,-37 84.33,-37 122.67,-37 122.67,-37 125.83,-37 129,-40.17 129,-43.33 129,-43.33 129,-49.67 129,-49.67 129,-52.83 125.83,-56 122.67,-56"/>
<text text-anchor="middle" x="103.5" y="-44" font-family="Helvetica,sans-Serif" font-size="10.00">matinv</text>
</a>
</g>
</g>
<!-- Node1&#45;&gt;Node6 -->
<g id="edge7_Node000001_Node000006" class="edge">
<title>Node1&#45;&gt;Node6</title>
<g id="a_edge7_Node000001_Node000006"><a xlink:title=" ">
<path fill="none" stroke="#63b8ff" d="M28.03,-139.85C37.78,-124.55 57.93,-94.04 78,-70.5 79.96,-68.21 82.1,-65.88 84.27,-63.63"/>
<polygon fill="#63b8ff" stroke="#63b8ff" points="86.94,-65.91 91.59,-56.38 82.02,-60.93 86.94,-65.91"/>
</a>
</g>
</g>
<!-- Node10 -->
<g id="Node000010" class="node">
<title>Node10</title>
<g id="a_Node000010"><a xlink:href="algebra__old_8cpp.html#aeeb14c76251388cfcbcbcf3177990976" target="_top" xlink:title=" ">
<path fill="#fff0f0" stroke="red" d="M118.17,-19C118.17,-19 88.83,-19 88.83,-19 85.67,-19 82.5,-15.83 82.5,-12.67 82.5,-12.67 82.5,-6.33 82.5,-6.33 82.5,-3.17 85.67,0 88.83,0 88.83,0 118.17,0 118.17,0 121.33,0 124.5,-3.17 124.5,-6.33 124.5,-6.33 124.5,-12.67 124.5,-12.67 124.5,-15.83 121.33,-19 118.17,-19"/>
<text text-anchor="middle" x="103.5" y="-7" font-family="Helvetica,sans-Serif" font-size="10.00">chiqc</text>
</a>
</g>
</g>
<!-- Node1&#45;&gt;Node10 -->
<g id="edge10_Node000001_Node000010" class="edge">
<title>Node1&#45;&gt;Node10</title>
<g id="a_edge10_Node000001_Node000010"><a xlink:title=" ">
<path fill="none" stroke="#63b8ff" d="M24.64,-139.73C30.94,-117.77 48.56,-63.63 78,-27.5 78.48,-26.92 78.97,-26.34 79.49,-25.78"/>
<polygon fill="#63b8ff" stroke="#63b8ff" points="81.86,-28.36 86.95,-19.07 77.18,-23.15 81.86,-28.36"/>
</a>
</g>
</g>
<!-- Node6&#45;&gt;Node2 -->
<g id="edge8_Node000006_Node000002" class="edge">
<title>Node6&#45;&gt;Node2</title>
<g id="a_edge8_Node000006_Node000002"><a xlink:title=" ">
<path fill="none" stroke="#63b8ff" d="M109.94,-56.32C124.16,-81.98 162.61,-151.37 181.18,-184.88"/>
<polygon fill="#63b8ff" stroke="#63b8ff" points="178.15,-186.63 186.06,-193.68 184.27,-183.24 178.15,-186.63"/>
</a>
</g>
</g>
<!-- Node6&#45;&gt;Node5 -->
<g id="edge9_Node000006_Node000005" class="edge">
<title>Node6&#45;&gt;Node5</title>
<g id="a_edge9_Node000006_Node000005"><a xlink:title=" ">
<path fill="none" stroke="#63b8ff" d="M129.2,-53.03C137.52,-55.23 146.98,-57.73 155.97,-60.11"/>
<polygon fill="#63b8ff" stroke="#63b8ff" points="155.27,-63.54 165.83,-62.71 157.06,-56.77 155.27,-63.54"/>
</a>
</g>
</g>
<!-- Node10&#45;&gt;Node2 -->
<g id="edge11_Node000010_Node000002" class="edge">
<title>Node10&#45;&gt;Node2</title>
<g id="a_edge11_Node000010_Node000002"><a xlink:title=" ">
<path fill="none" stroke="#63b8ff" d="M120.62,-19.02C123.75,-21.46 126.75,-24.31 129,-27.5 160.9,-72.62 145.3,-94.87 165,-146.5 170,-159.61 176.67,-173.94 182.06,-184.95"/>
<polygon fill="#63b8ff" stroke="#63b8ff" points="178.98,-186.61 186.58,-194 185.24,-183.49 178.98,-186.61"/>
</a>
</g>
</g>
<!-- Node10&#45;&gt;Node4 -->
<g id="edge13_Node000010_Node000004" class="edge">
<title>Node10&#45;&gt;Node4</title>
<g id="a_edge13_Node000010_Node000004"><a xlink:title=" ">
<path fill="none" stroke="#63b8ff" d="M124.85,-14.45C126.32,-15.73 127.72,-17.1 129,-18.5 149.94,-41.49 148.41,-52.2 165,-78.5 171.2,-88.33 178.52,-99.33 183.89,-108.76"/>
<polygon fill="#63b8ff" stroke="#63b8ff" points="180.93,-110.65 188.65,-117.9 187.13,-107.42 180.93,-110.65"/>
</a>
</g>
</g>
<!-- Node10&#45;&gt;Node4 -->
<g id="edge14_Node000010_Node000004" class="edge">
<title>Node10&#45;&gt;Node4</title>
<g id="a_edge14_Node000010_Node000004"><a xlink:title=" ">
<path fill="none" stroke="#63b8ff" d="M109.85,-19.36C115.16,-24.79 123.31,-30.26 129,-36.5 149.94,-59.49 148.41,-70.2 165,-96.5 167.69,-100.77 170.59,-105.25 173.45,-109.5"/>
<polygon fill="#63b8ff" stroke="#63b8ff" points="170.6,-111.52 179.19,-117.72 176.34,-107.52 170.6,-111.52"/>
</a>
</g>
</g>
<!-- Node10&#45;&gt;Node5 -->
<g id="edge12_Node000010_Node000005" class="edge">
<title>Node10&#45;&gt;Node5</title>
<g id="a_edge12_Node000010_Node000005"><a xlink:title=" ">
<path fill="none" stroke="#63b8ff" d="M118.48,-19.14C132.18,-28.59 153.27,-43.13 169.27,-54.17"/>
<polygon fill="#63b8ff" stroke="#63b8ff" points="167.34,-57.09 177.56,-59.88 171.31,-51.33 167.34,-57.09"/>
</a>
</g>
</g>
</g>
</svg>
