<?xml version="1.0" encoding="UTF-8" standalone="no"?>
<!DOCTYPE svg PUBLIC "-//W3C//DTD SVG 1.1//EN"
 "http://www.w3.org/Graphics/SVG/1.1/DTD/svg11.dtd">
<!-- Generated by graphviz version 2.43.0 (0)
 -->
<!-- Title: matinv Pages: 1 -->
<svg width="220pt" height="177pt"
 viewBox="0.00 0.00 220.00 177.00" xmlns="http://www.w3.org/2000/svg" xmlns:xlink="http://www.w3.org/1999/xlink">
<g id="graph0" class="graph" transform="scale(1 1) rotate(0) translate(4 173)">
<title>matinv</title>
<!-- Node1 -->
<g id="Node000001" class="node">
<title>Node1</title>
<g id="a_Node000001"><a xlink:href="algebra__old_8cpp.html#a4035d20f11b4bd8085e6b0f84f8c0764" target="_top" xlink:title=" ">
<path fill="#fff0f0" stroke="red" stroke-width="2" d="M44.67,-93C44.67,-93 6.33,-93 6.33,-93 3.17,-93 0,-89.83 0,-86.67 0,-86.67 0,-80.33 0,-80.33 0,-77.17 3.17,-74 6.33,-74 6.33,-74 44.67,-74 44.67,-74 47.83,-74 51,-77.17 51,-80.33 51,-80.33 51,-86.67 51,-86.67 51,-89.83 47.83,-93 44.67,-93"/>
<text text-anchor="middle" x="25.5" y="-81" font-family="Helvetica,sans-Serif" font-size="10.00">matinv</text>
</a>
</g>
</g>
<!-- Node2 -->
<g id="Node000002" class="node">
<title>Node2</title>
<g id="a_Node000002"><a xlink:href="algebra__old_8cpp.html#a794beae67990a536bcf5a0d3928b5a87" target="_top" xlink:title=" ">
<path fill="#fff0f0" stroke="red" d="M126.67,-169C126.67,-169 100.33,-169 100.33,-169 97.17,-169 94,-165.83 94,-162.67 94,-162.67 94,-156.33 94,-156.33 94,-153.17 97.17,-150 100.33,-150 100.33,-150 126.67,-150 126.67,-150 129.83,-150 133,-153.17 133,-156.33 133,-156.33 133,-162.67 133,-162.67 133,-165.83 129.83,-169 126.67,-169"/>
<text text-anchor="middle" x="113.5" y="-157" font-family="Helvetica,sans-Serif" font-size="10.00">imat</text>
</a>
</g>
</g>
<!-- Node1&#45;&gt;Node2 -->
<g id="edge1_Node000001_Node000002" class="edge">
<title>Node1&#45;&gt;Node2</title>
<g id="a_edge1_Node000001_Node000002"><a xlink:title=" ">
<path fill="none" stroke="#63b8ff" d="M37.39,-93.13C51.61,-105.69 76.7,-127.87 93.94,-143.1"/>
<polygon fill="#63b8ff" stroke="#63b8ff" points="91.89,-145.95 101.7,-149.95 96.52,-140.71 91.89,-145.95"/>
</a>
</g>
</g>
<!-- Node3 -->
<g id="Node000003" class="node">
<title>Node3</title>
<g id="a_Node000003"><a xlink:href="algebra__old_8cpp.html#a1d2c1ecab5b17dcc773fcd83c0b87b7e" target="_top" xlink:title=" ">
<path fill="#fff0f0" stroke="red" d="M205.67,-93C205.67,-93 182.33,-93 182.33,-93 179.17,-93 176,-89.83 176,-86.67 176,-86.67 176,-80.33 176,-80.33 176,-77.17 179.17,-74 182.33,-74 182.33,-74 205.67,-74 205.67,-74 208.83,-74 212,-77.17 212,-80.33 212,-80.33 212,-86.67 212,-86.67 212,-89.83 208.83,-93 205.67,-93"/>
<text text-anchor="middle" x="194" y="-81" font-family="Helvetica,sans-Serif" font-size="10.00">mat</text>
</a>
</g>
</g>
<!-- Node1&#45;&gt;Node3 -->
<g id="edge2_Node000001_Node000003" class="edge">
<title>Node1&#45;&gt;Node3</title>
<g id="a_edge2_Node000001_Node000003"><a xlink:title=" ">
<path fill="none" stroke="#63b8ff" d="M51.12,-93.1C61.94,-96.83 74.92,-100.65 87,-102.5 110.28,-106.07 116.79,-106.53 140,-102.5 148.76,-100.98 157.99,-98.14 166.25,-95.11"/>
<polygon fill="#63b8ff" stroke="#63b8ff" points="167.71,-98.29 175.75,-91.39 165.16,-91.78 167.71,-98.29"/>
</a>
</g>
</g>
<!-- Node4 -->
<g id="Node000004" class="node">
<title>Node4</title>
<g id="a_Node000004"><a xlink:href="algebra__old_8cpp.html#a50d2d9511da542d472f3390449fedf38" target="_top" xlink:title=" ">
<path fill="#fff0f0" stroke="red" d="M133.67,-93C133.67,-93 93.33,-93 93.33,-93 90.17,-93 87,-89.83 87,-86.67 87,-86.67 87,-80.33 87,-80.33 87,-77.17 90.17,-74 93.33,-74 93.33,-74 133.67,-74 133.67,-74 136.83,-74 140,-77.17 140,-80.33 140,-80.33 140,-86.67 140,-86.67 140,-89.83 136.83,-93 133.67,-93"/>
<text text-anchor="middle" x="113.5" y="-81" font-family="Helvetica,sans-Serif" font-size="10.00">matcpy</text>
</a>
</g>
</g>
<!-- Node1&#45;&gt;Node4 -->
<g id="edge3_Node000001_Node000004" class="edge">
<title>Node1&#45;&gt;Node4</title>
<g id="a_edge3_Node000001_Node000004"><a xlink:title=" ">
<path fill="none" stroke="#63b8ff" d="M51.37,-83.5C59.27,-83.5 68.17,-83.5 76.69,-83.5"/>
<polygon fill="#63b8ff" stroke="#63b8ff" points="76.78,-87 86.78,-83.5 76.78,-80 76.78,-87"/>
</a>
</g>
</g>
<!-- Node5 -->
<g id="Node000005" class="node">
<title>Node5</title>
<g id="a_Node000005"><a xlink:href="algebra__old_8cpp.html#a7098620b4cf8e43e18b502711fa84a85" target="_top" xlink:title=" ">
<path fill="#fff0f0" stroke="red" d="M133.67,-56C133.67,-56 93.33,-56 93.33,-56 90.17,-56 87,-52.83 87,-49.67 87,-49.67 87,-43.33 87,-43.33 87,-40.17 90.17,-37 93.33,-37 93.33,-37 133.67,-37 133.67,-37 136.83,-37 140,-40.17 140,-43.33 140,-43.33 140,-49.67 140,-49.67 140,-52.83 136.83,-56 133.67,-56"/>
<text text-anchor="middle" x="113.5" y="-44" font-family="Helvetica,sans-Serif" font-size="10.00">ludcmp</text>
</a>
</g>
</g>
<!-- Node1&#45;&gt;Node5 -->
<g id="edge4_Node000001_Node000005" class="edge">
<title>Node1&#45;&gt;Node5</title>
<g id="a_edge4_Node000001_Node000005"><a xlink:title=" ">
<path fill="none" stroke="#63b8ff" d="M48.65,-73.97C58.4,-69.77 70.05,-64.77 80.7,-60.18"/>
<polygon fill="#63b8ff" stroke="#63b8ff" points="82.33,-63.29 90.13,-56.12 79.56,-56.86 82.33,-63.29"/>
</a>
</g>
</g>
<!-- Node6 -->
<g id="Node000006" class="node">
<title>Node6</title>
<g id="a_Node000006"><a xlink:href="algebra__old_8cpp.html#a88edaf81ff75ad385771737fdbd611f9" target="_top" xlink:title=" ">
<path fill="#fff0f0" stroke="red" d="M131.67,-19C131.67,-19 95.33,-19 95.33,-19 92.17,-19 89,-15.83 89,-12.67 89,-12.67 89,-6.33 89,-6.33 89,-3.17 92.17,0 95.33,0 95.33,0 131.67,0 131.67,0 134.83,0 138,-3.17 138,-6.33 138,-6.33 138,-12.67 138,-12.67 138,-15.83 134.83,-19 131.67,-19"/>
<text text-anchor="middle" x="113.5" y="-7" font-family="Helvetica,sans-Serif" font-size="10.00">lubksb</text>
</a>
</g>
</g>
<!-- Node1&#45;&gt;Node6 -->
<g id="edge6_Node000001_Node000006" class="edge">
<title>Node1&#45;&gt;Node6</title>
<g id="a_edge6_Node000001_Node000006"><a xlink:title=" ">
<path fill="none" stroke="#63b8ff" d="M36.51,-73.85C48.29,-62.61 68.59,-43.66 87,-28.5 88.32,-27.41 89.69,-26.31 91.08,-25.22"/>
<polygon fill="#63b8ff" stroke="#63b8ff" points="93.25,-27.97 99.08,-19.12 89,-22.4 93.25,-27.97"/>
</a>
</g>
</g>
<!-- Node5&#45;&gt;Node3 -->
<g id="edge5_Node000005_Node000003" class="edge">
<title>Node5&#45;&gt;Node3</title>
<g id="a_edge5_Node000005_Node000003"><a xlink:title=" ">
<path fill="none" stroke="#63b8ff" d="M134.72,-56.03C144.45,-60.62 156.26,-66.18 166.69,-71.1"/>
<polygon fill="#63b8ff" stroke="#63b8ff" points="165.24,-74.29 175.78,-75.38 168.23,-67.95 165.24,-74.29"/>
</a>
</g>
</g>
</g>
</svg>
