<?xml version="1.0" encoding="UTF-8" standalone="no"?>
<!DOCTYPE svg PUBLIC "-//W3C//DTD SVG 1.1//EN"
 "http://www.w3.org/Graphics/SVG/1.1/DTD/svg11.dtd">
<!-- Generated by graphviz version 2.43.0 (0)
 -->
<!-- Title: norm Pages: 1 -->
<svg width="319pt" height="215pt"
 viewBox="0.00 0.00 319.00 215.00" xmlns="http://www.w3.org/2000/svg" xmlns:xlink="http://www.w3.org/1999/xlink">
<g id="graph0" class="graph" transform="scale(1 1) rotate(0) translate(4 211)">
<title>norm</title>
<!-- Node1 -->
<g id="Node000001" class="node">
<title>Node1</title>
<g id="a_Node000001"><a xlink:href="algebra__old_8cpp.html#abaa5d4a31df361116a9b2be552624cf9" target="_top" xlink:title=" ">
<path fill="#fff0f0" stroke="red" stroke-width="2" d="M304.67,-113C304.67,-113 275.33,-113 275.33,-113 272.17,-113 269,-109.83 269,-106.67 269,-106.67 269,-100.33 269,-100.33 269,-97.17 272.17,-94 275.33,-94 275.33,-94 304.67,-94 304.67,-94 307.83,-94 311,-97.17 311,-100.33 311,-100.33 311,-106.67 311,-106.67 311,-109.83 307.83,-113 304.67,-113"/>
<text text-anchor="middle" x="290" y="-101" font-family="Helvetica,sans-Serif" font-size="10.00">norm</text>
</a>
</g>
</g>
<!-- Node2 -->
<g id="Node000002" class="node">
<title>Node2</title>
<g id="a_Node000002"><a xlink:href="debug_8cpp.html#ab1c89bb12579ace0fe0ec45523ed9567" target="_top" xlink:title=" ">
<path fill="#fff0f0" stroke="red" d="M226.67,-207C226.67,-207 147.33,-207 147.33,-207 144.17,-207 141,-203.83 141,-200.67 141,-200.67 141,-194.33 141,-194.33 141,-191.17 144.17,-188 147.33,-188 147.33,-188 226.67,-188 226.67,-188 229.83,-188 233,-191.17 233,-194.33 233,-194.33 233,-200.67 233,-200.67 233,-203.83 229.83,-207 226.67,-207"/>
<text text-anchor="middle" x="187" y="-195" font-family="Helvetica,sans-Serif" font-size="10.00">debugTideSolid</text>
</a>
</g>
</g>
<!-- Node1&#45;&gt;Node2 -->
<g id="edge1_Node000001_Node000002" class="edge">
<title>Node1&#45;&gt;Node2</title>
<g id="a_edge1_Node000001_Node000002"><a xlink:title=" ">
<path fill="none" stroke="#63b8ff" d="M279.36,-121.97C269.66,-138.96 253.27,-163.83 233,-179.5 228.74,-182.79 223.8,-185.57 218.78,-187.87"/>
<polygon fill="#63b8ff" stroke="#63b8ff" points="282.54,-123.45 284.27,-113 276.4,-120.09 282.54,-123.45"/>
</a>
</g>
</g>
<!-- Node3 -->
<g id="Node000003" class="node">
<title>Node3</title>
<g id="a_Node000003"><a xlink:href="ionModels_8cpp.html#a57191b4303a5b58e1a21fe08ab32538c" target="_top" xlink:title=" ">
<path fill="#fff0f0" stroke="red" d="M211.67,-170C211.67,-170 162.33,-170 162.33,-170 159.17,-170 156,-166.83 156,-163.67 156,-163.67 156,-157.33 156,-157.33 156,-154.17 159.17,-151 162.33,-151 162.33,-151 211.67,-151 211.67,-151 214.83,-151 218,-154.17 218,-157.33 218,-157.33 218,-163.67 218,-163.67 218,-166.83 214.83,-170 211.67,-170"/>
<text text-anchor="middle" x="187" y="-158" font-family="Helvetica,sans-Serif" font-size="10.00">ionmodel</text>
</a>
</g>
</g>
<!-- Node1&#45;&gt;Node3 -->
<g id="edge2_Node000001_Node000003" class="edge">
<title>Node1&#45;&gt;Node3</title>
<g id="a_edge2_Node000001_Node000003"><a xlink:title=" ">
<path fill="none" stroke="#63b8ff" d="M264.2,-118.42C254.52,-124.16 243.29,-130.73 233,-136.5 224.35,-141.35 214.66,-146.55 206.49,-150.87"/>
<polygon fill="#63b8ff" stroke="#63b8ff" points="266.13,-121.34 272.93,-113.21 262.55,-115.33 266.13,-121.34"/>
</a>
</g>
</g>
<!-- Node22 -->
<g id="Node000022" class="node">
<title>Node22</title>
<g id="a_Node000022"><a xlink:href="ppp__slr_8cpp.html#a0f53eb82b1b0572a1aabec8b6fe5a6ad" target="_top" xlink:title=" ">
<path fill="#fff0f0" stroke="red" d="M80.67,-112C80.67,-112 24.33,-112 24.33,-112 21.17,-112 18,-108.83 18,-105.67 18,-105.67 18,-99.33 18,-99.33 18,-96.17 21.17,-93 24.33,-93 24.33,-93 80.67,-93 80.67,-93 83.83,-93 87,-96.17 87,-99.33 87,-99.33 87,-105.67 87,-105.67 87,-108.83 83.83,-112 80.67,-112"/>
<text text-anchor="middle" x="52.5" y="-100" font-family="Helvetica,sans-Serif" font-size="10.00">receiverSlr</text>
</a>
</g>
</g>
<!-- Node1&#45;&gt;Node22 -->
<g id="edge3_Node000001_Node000022" class="edge">
<title>Node1&#45;&gt;Node22</title>
<g id="a_edge3_Node000001_Node000022"><a xlink:title=" ">
<path fill="none" stroke="#63b8ff" d="M258.85,-103.37C214.86,-103.19 133.35,-102.84 87.35,-102.64"/>
<polygon fill="#63b8ff" stroke="#63b8ff" points="258.91,-106.87 268.92,-103.41 258.94,-99.87 258.91,-106.87"/>
</a>
</g>
</g>
<!-- Node15 -->
<g id="Node000015" class="node">
<title>Node15</title>
<g id="a_Node000015"><a xlink:href="ppp__obs_8cpp.html#a375577932a02b1ae21ad60b7e39b040e" target="_top" xlink:title=" ">
<path fill="#fff0f0" stroke="red" d="M98.67,-56C98.67,-56 6.33,-56 6.33,-56 3.17,-56 0,-52.83 0,-49.67 0,-49.67 0,-43.33 0,-43.33 0,-40.17 3.17,-37 6.33,-37 6.33,-37 98.67,-37 98.67,-37 101.83,-37 105,-40.17 105,-43.33 105,-43.33 105,-49.67 105,-49.67 105,-52.83 101.83,-56 98.67,-56"/>
<text text-anchor="middle" x="52.5" y="-44" font-family="Helvetica,sans-Serif" font-size="10.00">receiverUducGnss</text>
</a>
</g>
</g>
<!-- Node1&#45;&gt;Node15 -->
<g id="edge4_Node000001_Node000015" class="edge">
<title>Node1&#45;&gt;Node15</title>
<g id="a_edge4_Node000001_Node000015"><a xlink:title=" ">
<path fill="none" stroke="#63b8ff" d="M258.97,-96.23C216.71,-86 139.65,-67.35 92.86,-56.03"/>
<polygon fill="#63b8ff" stroke="#63b8ff" points="258.38,-99.69 268.92,-98.64 260.03,-92.89 258.38,-99.69"/>
</a>
</g>
</g>
<!-- Node23 -->
<g id="Node000023" class="node">
<title>Node23</title>
<g id="a_Node000023"><a xlink:href="ppp__obs_8cpp.html#a95b80f698e09fd842a664863d7a7cd69" target="_top" xlink:title=" ">
<path fill="#fff0f0" stroke="red" d="M214.17,-56C214.17,-56 159.83,-56 159.83,-56 156.67,-56 153.5,-52.83 153.5,-49.67 153.5,-49.67 153.5,-43.33 153.5,-43.33 153.5,-40.17 156.67,-37 159.83,-37 159.83,-37 214.17,-37 214.17,-37 217.33,-37 220.5,-40.17 220.5,-43.33 220.5,-43.33 220.5,-49.67 220.5,-49.67 220.5,-52.83 217.33,-56 214.17,-56"/>
<text text-anchor="middle" x="187" y="-44" font-family="Helvetica,sans-Serif" font-size="10.00">relativity2</text>
</a>
</g>
</g>
<!-- Node1&#45;&gt;Node23 -->
<g id="edge5_Node000001_Node000023" class="edge">
<title>Node1&#45;&gt;Node23</title>
<g id="a_edge5_Node000001_Node000023"><a xlink:title=" ">
<path fill="none" stroke="#63b8ff" d="M264.2,-88.58C254.52,-82.84 243.29,-76.27 233,-70.5 224.35,-65.65 214.66,-60.45 206.49,-56.13"/>
<polygon fill="#63b8ff" stroke="#63b8ff" points="262.55,-91.67 272.93,-93.79 266.13,-85.66 262.55,-91.67"/>
</a>
</g>
</g>
<!-- Node26 -->
<g id="Node000026" class="node">
<title>Node26</title>
<g id="a_Node000026"><a xlink:href="ephemeris_8cpp.html#a346b6446fcd54ef489b40cf028168b5c" target="_top" xlink:title="compute satellite position and clock satellite clock does not include code bias correction (tgd or bg...">
<path fill="#fff0f0" stroke="red" d="M205.17,-19C205.17,-19 168.83,-19 168.83,-19 165.67,-19 162.5,-15.83 162.5,-12.67 162.5,-12.67 162.5,-6.33 162.5,-6.33 162.5,-3.17 165.67,0 168.83,0 168.83,0 205.17,0 205.17,0 208.33,0 211.5,-3.17 211.5,-6.33 211.5,-6.33 211.5,-12.67 211.5,-12.67 211.5,-15.83 208.33,-19 205.17,-19"/>
<text text-anchor="middle" x="187" y="-7" font-family="Helvetica,sans-Serif" font-size="10.00">satpos</text>
</a>
</g>
</g>
<!-- Node1&#45;&gt;Node26 -->
<g id="edge6_Node000001_Node000026" class="edge">
<title>Node1&#45;&gt;Node26</title>
<g id="a_edge6_Node000001_Node000026"><a xlink:title=" ">
<path fill="none" stroke="#63b8ff" d="M279.36,-85.03C269.66,-68.04 253.27,-43.17 233,-27.5 226.74,-22.66 219.01,-18.95 211.74,-16.19"/>
<polygon fill="#63b8ff" stroke="#63b8ff" points="276.4,-86.91 284.27,-94 282.54,-83.55 276.4,-86.91"/>
</a>
</g>
</g>
<!-- Node26&#45;&gt;Node22 -->
<g id="edge7_Node000026_Node000022" class="edge">
<title>Node26&#45;&gt;Node22</title>
<g id="a_edge7_Node000026_Node000022"><a xlink:title=" ">
<path fill="none" stroke="#63b8ff" d="M152.68,-20.97C148.61,-22.9 144.62,-25.08 141,-27.5 121.93,-40.26 122.29,-49.42 105,-64.5 93.11,-74.87 78.57,-85.43 67.97,-92.78"/>
<polygon fill="#63b8ff" stroke="#63b8ff" points="154.37,-24.05 162.18,-16.9 151.61,-17.62 154.37,-24.05"/>
</a>
</g>
</g>
<!-- Node26&#45;&gt;Node15 -->
<g id="edge8_Node000026_Node000015" class="edge">
<title>Node26&#45;&gt;Node15</title>
<g id="a_edge8_Node000026_Node000015"><a xlink:title=" ">
<path fill="none" stroke="#63b8ff" d="M152.48,-18.86C132.66,-24.39 107.62,-31.39 87.69,-36.95"/>
<polygon fill="#63b8ff" stroke="#63b8ff" points="153.62,-22.18 162.31,-16.11 151.74,-15.43 153.62,-22.18"/>
</a>
</g>
</g>
</g>
</svg>
