<?xml version="1.0" encoding="UTF-8" standalone="no"?>
<!DOCTYPE svg PUBLIC "-//W3C//DTD SVG 1.1//EN"
 "http://www.w3.org/Graphics/SVG/1.1/DTD/svg11.dtd">
<!-- Generated by graphviz version 2.43.0 (0)
 -->
<!-- Title: ludcmp Pages: 1 -->
<svg width="148pt" height="27pt"
 viewBox="0.00 0.00 148.00 27.00" xmlns="http://www.w3.org/2000/svg" xmlns:xlink="http://www.w3.org/1999/xlink">
<g id="graph0" class="graph" transform="scale(1 1) rotate(0) translate(4 23)">
<title>ludcmp</title>
<!-- Node1 -->
<g id="Node000001" class="node">
<title>Node1</title>
<g id="a_Node000001"><a xlink:href="algebra__old_8cpp.html#a7098620b4cf8e43e18b502711fa84a85" target="_top" xlink:title=" ">
<path fill="#fff0f0" stroke="red" stroke-width="2" d="M133.67,-19C133.67,-19 93.33,-19 93.33,-19 90.17,-19 87,-15.83 87,-12.67 87,-12.67 87,-6.33 87,-6.33 87,-3.17 90.17,0 93.33,0 93.33,0 133.67,0 133.67,0 136.83,0 140,-3.17 140,-6.33 140,-6.33 140,-12.67 140,-12.67 140,-15.83 136.83,-19 133.67,-19"/>
<text text-anchor="middle" x="113.5" y="-7" font-family="Helvetica,sans-Serif" font-size="10.00">ludcmp</text>
</a>
</g>
</g>
<!-- Node2 -->
<g id="Node000002" class="node">
<title>Node2</title>
<g id="a_Node000002"><a xlink:href="algebra__old_8cpp.html#a4035d20f11b4bd8085e6b0f84f8c0764" target="_top" xlink:title=" ">
<path fill="#fff0f0" stroke="red" d="M44.67,-19C44.67,-19 6.33,-19 6.33,-19 3.17,-19 0,-15.83 0,-12.67 0,-12.67 0,-6.33 0,-6.33 0,-3.17 3.17,0 6.33,0 6.33,0 44.67,0 44.67,0 47.83,0 51,-3.17 51,-6.33 51,-6.33 51,-12.67 51,-12.67 51,-15.83 47.83,-19 44.67,-19"/>
<text text-anchor="middle" x="25.5" y="-7" font-family="Helvetica,sans-Serif" font-size="10.00">matinv</text>
</a>
</g>
</g>
<!-- Node1&#45;&gt;Node2 -->
<g id="edge1_Node000001_Node000002" class="edge">
<title>Node1&#45;&gt;Node2</title>
<g id="a_edge1_Node000001_Node000002"><a xlink:title=" ">
<path fill="none" stroke="#63b8ff" d="M76.54,-9.5C67.97,-9.5 59.03,-9.5 51.1,-9.5"/>
<polygon fill="#63b8ff" stroke="#63b8ff" points="76.7,-13 86.7,-9.5 76.7,-6 76.7,-13"/>
</a>
</g>
</g>
</g>
</svg>
