<?xml version="1.0" encoding="UTF-8" standalone="no"?>
<!DOCTYPE svg PUBLIC "-//W3C//DTD SVG 1.1//EN"
 "http://www.w3.org/Graphics/SVG/1.1/DTD/svg11.dtd">
<!-- Generated by graphviz version 2.43.0 (0)
 -->
<!-- Title: ludcmp Pages: 1 -->
<svg width="133pt" height="27pt"
 viewBox="0.00 0.00 133.00 27.00" xmlns="http://www.w3.org/2000/svg" xmlns:xlink="http://www.w3.org/1999/xlink">
<g id="graph0" class="graph" transform="scale(1 1) rotate(0) translate(4 23)">
<title>ludcmp</title>
<!-- Node1 -->
<g id="Node000001" class="node">
<title>Node1</title>
<g id="a_Node000001"><a xlink:href="algebra__old_8cpp.html#a7098620b4cf8e43e18b502711fa84a85" target="_top" xlink:title=" ">
<path fill="#fff0f0" stroke="red" stroke-width="2" d="M46.67,-19C46.67,-19 6.33,-19 6.33,-19 3.17,-19 0,-15.83 0,-12.67 0,-12.67 0,-6.33 0,-6.33 0,-3.17 3.17,0 6.33,0 6.33,0 46.67,0 46.67,0 49.83,0 53,-3.17 53,-6.33 53,-6.33 53,-12.67 53,-12.67 53,-15.83 49.83,-19 46.67,-19"/>
<text text-anchor="middle" x="26.5" y="-7" font-family="Helvetica,sans-Serif" font-size="10.00">ludcmp</text>
</a>
</g>
</g>
<!-- Node2 -->
<g id="Node000002" class="node">
<title>Node2</title>
<g id="a_Node000002"><a xlink:href="algebra__old_8cpp.html#a1d2c1ecab5b17dcc773fcd83c0b87b7e" target="_top" xlink:title=" ">
<path fill="#fff0f0" stroke="red" d="M118.67,-19C118.67,-19 95.33,-19 95.33,-19 92.17,-19 89,-15.83 89,-12.67 89,-12.67 89,-6.33 89,-6.33 89,-3.17 92.17,0 95.33,0 95.33,0 118.67,0 118.67,0 121.83,0 125,-3.17 125,-6.33 125,-6.33 125,-12.67 125,-12.67 125,-15.83 121.83,-19 118.67,-19"/>
<text text-anchor="middle" x="107" y="-7" font-family="Helvetica,sans-Serif" font-size="10.00">mat</text>
</a>
</g>
</g>
<!-- Node1&#45;&gt;Node2 -->
<g id="edge1_Node000001_Node000002" class="edge">
<title>Node1&#45;&gt;Node2</title>
<g id="a_edge1_Node000001_Node000002"><a xlink:title=" ">
<path fill="none" stroke="#63b8ff" d="M53.2,-9.5C61.29,-9.5 70.24,-9.5 78.45,-9.5"/>
<polygon fill="#63b8ff" stroke="#63b8ff" points="78.67,-13 88.67,-9.5 78.67,-6 78.67,-13"/>
</a>
</g>
</g>
</g>
</svg>
