<?xml version="1.0" encoding="UTF-8" standalone="no"?>
<!DOCTYPE svg PUBLIC "-//W3C//DTD SVG 1.1//EN"
 "http://www.w3.org/Graphics/SVG/1.1/DTD/svg11.dtd">
<!-- Generated by graphviz version 2.43.0 (0)
 -->
<!-- Title: getFilterTypeFromFile Pages: 1 -->
<svg width="350pt" height="103pt"
 viewBox="0.00 0.00 350.00 103.00" xmlns="http://www.w3.org/2000/svg" xmlns:xlink="http://www.w3.org/1999/xlink">
<g id="graph0" class="graph" transform="scale(1 1) rotate(0) translate(4 99)">
<title>getFilterTypeFromFile</title>
<!-- Node1 -->
<g id="Node000001" class="node">
<title>Node1</title>
<g id="a_Node000001"><a xlink:href="algebraTrace_8cpp.html#aa526df463f08398d3cb422d191c56cfb" target="_top" xlink:title="Returns the type of object that is located at the specified position in a file.">
<path fill="#fff0f0" stroke="red" stroke-width="2" d="M335.67,-57C335.67,-57 226.33,-57 226.33,-57 223.17,-57 220,-53.83 220,-50.67 220,-50.67 220,-44.33 220,-44.33 220,-41.17 223.17,-38 226.33,-38 226.33,-38 335.67,-38 335.67,-38 338.83,-38 342,-41.17 342,-44.33 342,-44.33 342,-50.67 342,-50.67 342,-53.83 338.83,-57 335.67,-57"/>
<text text-anchor="middle" x="281" y="-45" font-family="Helvetica,sans-Serif" font-size="10.00">getFilterTypeFromFile</text>
</a>
</g>
</g>
<!-- Node2 -->
<g id="Node000002" class="node">
<title>Node2</title>
<g id="a_Node000002"><a xlink:href="minimumConstraints_8cpp.html#aa40934b017f373d875c3470591eff52e" target="_top" xlink:title=" ">
<path fill="#fff0f0" stroke="red" d="M167.67,-95C167.67,-95 127.33,-95 127.33,-95 124.17,-95 121,-91.83 121,-88.67 121,-88.67 121,-82.33 121,-82.33 121,-79.17 124.17,-76 127.33,-76 127.33,-76 167.67,-76 167.67,-76 170.83,-76 174,-79.17 174,-82.33 174,-82.33 174,-88.67 174,-88.67 174,-91.83 170.83,-95 167.67,-95"/>
<text text-anchor="middle" x="147.5" y="-83" font-family="Helvetica,sans-Serif" font-size="10.00">mincon</text>
</a>
</g>
</g>
<!-- Node1&#45;&gt;Node2 -->
<g id="edge1_Node000001_Node000002" class="edge">
<title>Node1&#45;&gt;Node2</title>
<g id="a_edge1_Node000001_Node000002"><a xlink:title=" ">
<path fill="none" stroke="#63b8ff" d="M236.95,-59.94C216.21,-65.93 192.04,-72.92 174.21,-78.07"/>
<polygon fill="#63b8ff" stroke="#63b8ff" points="238.18,-63.23 246.82,-57.09 236.24,-56.5 238.18,-63.23"/>
</a>
</g>
</g>
<!-- Node7 -->
<g id="Node000007" class="node">
<title>Node7</title>
<g id="a_Node000007"><a xlink:href="minimumConstraints_8cpp.html#aeb8c374e79e38289a66b8b65d6574141" target="_top" xlink:title=" ">
<path fill="#fff0f0" stroke="red" d="M68.67,-76C68.67,-76 6.33,-76 6.33,-76 3.17,-76 0,-72.83 0,-69.67 0,-69.67 0,-63.33 0,-63.33 0,-60.17 3.17,-57 6.33,-57 6.33,-57 68.67,-57 68.67,-57 71.83,-57 75,-60.17 75,-63.33 75,-63.33 75,-69.67 75,-69.67 75,-72.83 71.83,-76 68.67,-76"/>
<text text-anchor="middle" x="37.5" y="-64" font-family="Helvetica,sans-Serif" font-size="10.00">minconOnly</text>
</a>
</g>
</g>
<!-- Node1&#45;&gt;Node7 -->
<g id="edge3_Node000001_Node000007" class="edge">
<title>Node1&#45;&gt;Node7</title>
<g id="a_edge3_Node000001_Node000007"><a xlink:title=" ">
<path fill="none" stroke="#63b8ff" d="M209.92,-53.01C165.91,-56.48 110.92,-60.8 75.28,-63.61"/>
<polygon fill="#63b8ff" stroke="#63b8ff" points="210.3,-56.49 219.99,-52.22 209.75,-49.52 210.3,-56.49"/>
</a>
</g>
</g>
<!-- Node12 -->
<g id="Node000012" class="node">
<title>Node12</title>
<g id="a_Node000012"><a xlink:href="rtsSmoothing_8cpp.html#a958fb7d14a3dce0701755666b0833795" target="_top" xlink:title="Output filter states in chronological order from a reversed binary trace file.">
<path fill="#fff0f0" stroke="red" d="M177.67,-19C177.67,-19 117.33,-19 117.33,-19 114.17,-19 111,-15.83 111,-12.67 111,-12.67 111,-6.33 111,-6.33 111,-3.17 114.17,0 117.33,0 117.33,0 177.67,0 177.67,0 180.83,0 184,-3.17 184,-6.33 184,-6.33 184,-12.67 184,-12.67 184,-15.83 180.83,-19 177.67,-19"/>
<text text-anchor="middle" x="147.5" y="-7" font-family="Helvetica,sans-Serif" font-size="10.00">RTS_Output</text>
</a>
</g>
</g>
<!-- Node1&#45;&gt;Node12 -->
<g id="edge4_Node000001_Node000012" class="edge">
<title>Node1&#45;&gt;Node12</title>
<g id="a_edge4_Node000001_Node000012"><a xlink:title=" ">
<path fill="none" stroke="#63b8ff" d="M237.12,-35.11C219.11,-29.91 198.49,-23.95 181.67,-19.09"/>
<polygon fill="#63b8ff" stroke="#63b8ff" points="236.24,-38.5 246.82,-37.91 238.18,-31.77 236.24,-38.5"/>
</a>
</g>
</g>
<!-- Node2&#45;&gt;Node7 -->
<g id="edge2_Node000002_Node000007" class="edge">
<title>Node2&#45;&gt;Node7</title>
<g id="a_edge2_Node000002_Node000007"><a xlink:title=" ">
<path fill="none" stroke="#63b8ff" d="M110.86,-79.23C99.47,-77.23 86.84,-75 75.36,-72.98"/>
<polygon fill="#63b8ff" stroke="#63b8ff" points="110.45,-82.71 120.91,-81 111.66,-75.82 110.45,-82.71"/>
</a>
</g>
</g>
</g>
</svg>
