<?xml version="1.0" encoding="UTF-8" standalone="no"?>
<!DOCTYPE svg PUBLIC "-//W3C//DTD SVG 1.1//EN"
 "http://www.w3.org/Graphics/SVG/1.1/DTD/svg11.dtd">
<!-- Generated by graphviz version 2.43.0 (0)
 -->
<!-- Title: tryPrepareFilterPointers Pages: 1 -->
<svg width="268pt" height="64pt"
 viewBox="0.00 0.00 268.00 64.00" xmlns="http://www.w3.org/2000/svg" xmlns:xlink="http://www.w3.org/1999/xlink">
<g id="graph0" class="graph" transform="scale(1 1) rotate(0) translate(4 60)">
<title>tryPrepareFilterPointers</title>
<!-- Node1 -->
<g id="Node000001" class="node">
<title>Node1</title>
<g id="a_Node000001"><a xlink:href="algebraTrace_8cpp.html#abda0fa310f025963b9aa17a48ee8a643" target="_top" xlink:title=" ">
<path fill="#fff0f0" stroke="red" stroke-width="2" d="M253.67,-37C253.67,-37 134.33,-37 134.33,-37 131.17,-37 128,-33.83 128,-30.67 128,-30.67 128,-24.33 128,-24.33 128,-21.17 131.17,-18 134.33,-18 134.33,-18 253.67,-18 253.67,-18 256.83,-18 260,-21.17 260,-24.33 260,-24.33 260,-30.67 260,-30.67 260,-33.83 256.83,-37 253.67,-37"/>
<text text-anchor="middle" x="194" y="-25" font-family="Helvetica,sans-Serif" font-size="10.00">tryPrepareFilterPointers</text>
</a>
</g>
</g>
<!-- Node2 -->
<g id="Node000002" class="node">
<title>Node2</title>
<g id="a_Node000002"><a xlink:href="minimumConstraints_8cpp.html#aeb8c374e79e38289a66b8b65d6574141" target="_top" xlink:title=" ">
<path fill="#fff0f0" stroke="red" d="M77.17,-56C77.17,-56 14.83,-56 14.83,-56 11.67,-56 8.5,-52.83 8.5,-49.67 8.5,-49.67 8.5,-43.33 8.5,-43.33 8.5,-40.17 11.67,-37 14.83,-37 14.83,-37 77.17,-37 77.17,-37 80.33,-37 83.5,-40.17 83.5,-43.33 83.5,-43.33 83.5,-49.67 83.5,-49.67 83.5,-52.83 80.33,-56 77.17,-56"/>
<text text-anchor="middle" x="46" y="-44" font-family="Helvetica,sans-Serif" font-size="10.00">minconOnly</text>
</a>
</g>
</g>
<!-- Node1&#45;&gt;Node2 -->
<g id="edge1_Node000001_Node000002" class="edge">
<title>Node1&#45;&gt;Node2</title>
<g id="a_edge1_Node000001_Node000002"><a xlink:title=" ">
<path fill="none" stroke="#63b8ff" d="M117.43,-37.33C105.75,-38.85 94.16,-40.36 83.86,-41.7"/>
<polygon fill="#63b8ff" stroke="#63b8ff" points="118.22,-40.76 127.69,-36 117.32,-33.82 118.22,-40.76"/>
</a>
</g>
</g>
<!-- Node4 -->
<g id="Node000004" class="node">
<title>Node4</title>
<g id="a_Node000004"><a xlink:href="rtsSmoothing_8cpp.html#a65cd5f94ab58227ab032b1e894ca3987" target="_top" xlink:title=" ">
<path fill="#fff0f0" stroke="red" d="M85.67,-19C85.67,-19 6.33,-19 6.33,-19 3.17,-19 0,-15.83 0,-12.67 0,-12.67 0,-6.33 0,-6.33 0,-3.17 3.17,0 6.33,0 6.33,0 85.67,0 85.67,0 88.83,0 92,-3.17 92,-6.33 92,-6.33 92,-12.67 92,-12.67 92,-15.83 88.83,-19 85.67,-19"/>
<text text-anchor="middle" x="46" y="-7" font-family="Helvetica,sans-Serif" font-size="10.00">postRTSActions</text>
</a>
</g>
</g>
<!-- Node1&#45;&gt;Node4 -->
<g id="edge2_Node000001_Node000004" class="edge">
<title>Node1&#45;&gt;Node4</title>
<g id="a_edge2_Node000001_Node000004"><a xlink:title=" ">
<path fill="none" stroke="#63b8ff" d="M117.53,-18.2C108.87,-17.13 100.25,-16.07 92.17,-15.07"/>
<polygon fill="#63b8ff" stroke="#63b8ff" points="117.33,-21.7 127.69,-19.45 118.19,-14.75 117.33,-21.7"/>
</a>
</g>
</g>
</g>
</svg>
