<?xml version="1.0" encoding="UTF-8" standalone="no"?>
<!DOCTYPE svg PUBLIC "-//W3C//DTD SVG 1.1//EN"
 "http://www.w3.org/Graphics/SVG/1.1/DTD/svg11.dtd">
<!-- Generated by graphviz version 2.43.0 (0)
 -->
<!-- Title: antPcv Pages: 1 -->
<svg width="166pt" height="64pt"
 viewBox="0.00 0.00 166.00 64.00" xmlns="http://www.w3.org/2000/svg" xmlns:xlink="http://www.w3.org/1999/xlink">
<g id="graph0" class="graph" transform="scale(1 1) rotate(0) translate(4 60)">
<title>antPcv</title>
<!-- Node1 -->
<g id="Node000001" class="node">
<title>Node1</title>
<g id="a_Node000001"><a xlink:href="antenna_8cpp.html#a803e19596e682a54b66749c4ef3f8b16" target="_top" xlink:title="find and interpolate antenna pcv">
<path fill="#fff0f0" stroke="red" stroke-width="2" d="M151.67,-37C151.67,-37 114.33,-37 114.33,-37 111.17,-37 108,-33.83 108,-30.67 108,-30.67 108,-24.33 108,-24.33 108,-21.17 111.17,-18 114.33,-18 114.33,-18 151.67,-18 151.67,-18 154.83,-18 158,-21.17 158,-24.33 158,-24.33 158,-30.67 158,-30.67 158,-33.83 154.83,-37 151.67,-37"/>
<text text-anchor="middle" x="133" y="-25" font-family="Helvetica,sans-Serif" font-size="10.00">antPcv</text>
</a>
</g>
</g>
<!-- Node2 -->
<g id="Node000002" class="node">
<title>Node2</title>
<g id="a_Node000002"><a xlink:href="ppp__obs_8cpp.html#a5fc50f4bff2d9739d74946eb6a48995e" target="_top" xlink:title=" ">
<path fill="#fff0f0" stroke="red" d="M65.67,-56C65.67,-56 6.33,-56 6.33,-56 3.17,-56 0,-52.83 0,-49.67 0,-49.67 0,-43.33 0,-43.33 0,-40.17 3.17,-37 6.33,-37 6.33,-37 65.67,-37 65.67,-37 68.83,-37 72,-40.17 72,-43.33 72,-43.33 72,-49.67 72,-49.67 72,-52.83 68.83,-56 65.67,-56"/>
<text text-anchor="middle" x="36" y="-44" font-family="Helvetica,sans-Serif" font-size="10.00">pppRecPCV</text>
</a>
</g>
</g>
<!-- Node1&#45;&gt;Node2 -->
<g id="edge1_Node000001_Node000002" class="edge">
<title>Node1&#45;&gt;Node2</title>
<g id="a_edge1_Node000001_Node000002"><a xlink:title=" ">
<path fill="none" stroke="#63b8ff" d="M97.47,-34.41C89.22,-36.06 80.4,-37.82 72.13,-39.47"/>
<polygon fill="#63b8ff" stroke="#63b8ff" points="98.42,-37.79 107.54,-32.39 97.04,-30.92 98.42,-37.79"/>
</a>
</g>
</g>
<!-- Node8 -->
<g id="Node000008" class="node">
<title>Node8</title>
<g id="a_Node000008"><a xlink:href="ppp__obs_8cpp.html#a44ce714a47bca55d42b59db2ef8c71d8" target="_top" xlink:title=" ">
<path fill="#fff0f0" stroke="red" d="M64.67,-19C64.67,-19 7.33,-19 7.33,-19 4.17,-19 1,-15.83 1,-12.67 1,-12.67 1,-6.33 1,-6.33 1,-3.17 4.17,0 7.33,0 7.33,0 64.67,0 64.67,0 67.83,0 71,-3.17 71,-6.33 71,-6.33 71,-12.67 71,-12.67 71,-15.83 67.83,-19 64.67,-19"/>
<text text-anchor="middle" x="36" y="-7" font-family="Helvetica,sans-Serif" font-size="10.00">pppSatPCV</text>
</a>
</g>
</g>
<!-- Node1&#45;&gt;Node8 -->
<g id="edge2_Node000001_Node000008" class="edge">
<title>Node1&#45;&gt;Node8</title>
<g id="a_edge2_Node000001_Node000008"><a xlink:title=" ">
<path fill="none" stroke="#63b8ff" d="M97.43,-20.95C88.83,-19.32 79.62,-17.58 71.05,-15.95"/>
<polygon fill="#63b8ff" stroke="#63b8ff" points="97.06,-24.44 107.54,-22.86 98.36,-17.56 97.06,-24.44"/>
</a>
</g>
</g>
</g>
</svg>
