<?xml version="1.0" encoding="UTF-8" standalone="no"?>
<!DOCTYPE svg PUBLIC "-//W3C//DTD SVG 1.1//EN"
 "http://www.w3.org/Graphics/SVG/1.1/DTD/svg11.dtd">
<!-- Generated by graphviz version 2.43.0 (0)
 -->
<!-- Title: antPcv Pages: 1 -->
<svg width="169pt" height="101pt"
 viewBox="0.00 0.00 169.00 101.00" xmlns="http://www.w3.org/2000/svg" xmlns:xlink="http://www.w3.org/1999/xlink">
<g id="graph0" class="graph" transform="scale(1 1) rotate(0) translate(4 97)">
<title>antPcv</title>
<!-- Node1 -->
<g id="Node000001" class="node">
<title>Node1</title>
<g id="a_Node000001"><a xlink:href="antenna_8cpp.html#a803e19596e682a54b66749c4ef3f8b16" target="_top" xlink:title="find and interpolate antenna pcv">
<path fill="#fff0f0" stroke="red" stroke-width="2" d="M43.67,-37C43.67,-37 6.33,-37 6.33,-37 3.17,-37 0,-33.83 0,-30.67 0,-30.67 0,-24.33 0,-24.33 0,-21.17 3.17,-18 6.33,-18 6.33,-18 43.67,-18 43.67,-18 46.83,-18 50,-21.17 50,-24.33 50,-24.33 50,-30.67 50,-30.67 50,-33.83 46.83,-37 43.67,-37"/>
<text text-anchor="middle" x="25" y="-25" font-family="Helvetica,sans-Serif" font-size="10.00">antPcv</text>
</a>
</g>
</g>
<!-- Node2 -->
<g id="Node000002" class="node">
<title>Node2</title>
<g id="a_Node000002"><a xlink:href="attitude_8cpp.html#a1a74c02f9b5272b79ed718d28dcc3429" target="_top" xlink:title="Converts coords of frame A (expressed in frame G) into transformation matrix from A to G E....">
<path fill="#fff0f0" stroke="red" d="M154.67,-93C154.67,-93 92.33,-93 92.33,-93 89.17,-93 86,-89.83 86,-86.67 86,-86.67 86,-80.33 86,-80.33 86,-77.17 89.17,-74 92.33,-74 92.33,-74 154.67,-74 154.67,-74 157.83,-74 161,-77.17 161,-80.33 161,-80.33 161,-86.67 161,-86.67 161,-89.83 157.83,-93 154.67,-93"/>
<text text-anchor="middle" x="123.5" y="-81" font-family="Helvetica,sans-Serif" font-size="10.00">rotBasisMat</text>
</a>
</g>
</g>
<!-- Node1&#45;&gt;Node2 -->
<g id="edge1_Node000001_Node000002" class="edge">
<title>Node1&#45;&gt;Node2</title>
<g id="a_edge1_Node000001_Node000002"><a xlink:title=" ">
<path fill="none" stroke="#63b8ff" d="M40.53,-37.31C52.52,-45.26 70.09,-56.57 86,-65.5 88.35,-66.82 90.8,-68.14 93.28,-69.44"/>
<polygon fill="#63b8ff" stroke="#63b8ff" points="91.72,-72.57 102.22,-73.98 94.89,-66.33 91.72,-72.57"/>
</a>
</g>
</g>
<!-- Node3 -->
<g id="Node000003" class="node">
<title>Node3</title>
<g id="a_Node000003"><a xlink:href="common_8cpp.html#ab91cc987d7ae8b6c023a1c1004d54b75" target="_top" xlink:title="Wrap angle between [0, 2pi)">
<path fill="#fff0f0" stroke="red" d="M145.17,-56C145.17,-56 101.83,-56 101.83,-56 98.67,-56 95.5,-52.83 95.5,-49.67 95.5,-49.67 95.5,-43.33 95.5,-43.33 95.5,-40.17 98.67,-37 101.83,-37 101.83,-37 145.17,-37 145.17,-37 148.33,-37 151.5,-40.17 151.5,-43.33 151.5,-43.33 151.5,-49.67 151.5,-49.67 151.5,-52.83 148.33,-56 145.17,-56"/>
<text text-anchor="middle" x="123.5" y="-44" font-family="Helvetica,sans-Serif" font-size="10.00">wrap2Pi</text>
</a>
</g>
</g>
<!-- Node1&#45;&gt;Node3 -->
<g id="edge2_Node000001_Node000003" class="edge">
<title>Node1&#45;&gt;Node3</title>
<g id="a_edge2_Node000001_Node000003"><a xlink:title=" ">
<path fill="none" stroke="#63b8ff" d="M50.35,-32.29C60.97,-34.39 73.67,-36.88 85.42,-39.2"/>
<polygon fill="#63b8ff" stroke="#63b8ff" points="84.95,-42.67 95.43,-41.17 86.3,-35.81 84.95,-42.67"/>
</a>
</g>
</g>
<!-- Node4 -->
<g id="Node000004" class="node">
<title>Node4</title>
<g id="a_Node000004"><a xlink:href="antenna_8cpp.html#aab187c8cc9326a1fc5bf589023c923c9" target="_top" xlink:title="linearly interpolate">
<path fill="#fff0f0" stroke="red" d="M139.67,-19C139.67,-19 107.33,-19 107.33,-19 104.17,-19 101,-15.83 101,-12.67 101,-12.67 101,-6.33 101,-6.33 101,-3.17 104.17,0 107.33,0 107.33,0 139.67,0 139.67,0 142.83,0 146,-3.17 146,-6.33 146,-6.33 146,-12.67 146,-12.67 146,-15.83 142.83,-19 139.67,-19"/>
<text text-anchor="middle" x="123.5" y="-7" font-family="Helvetica,sans-Serif" font-size="10.00">interp</text>
</a>
</g>
</g>
<!-- Node1&#45;&gt;Node4 -->
<g id="edge3_Node000001_Node000004" class="edge">
<title>Node1&#45;&gt;Node4</title>
<g id="a_edge3_Node000001_Node000004"><a xlink:title=" ">
<path fill="none" stroke="#63b8ff" d="M46.94,-17.92C59.79,-14.38 76.48,-11.04 90.91,-9.01"/>
<polygon fill="#63b8ff" stroke="#63b8ff" points="91.43,-12.48 100.93,-7.79 90.58,-5.53 91.43,-12.48"/>
</a>
</g>
</g>
<!-- Node1&#45;&gt;Node4 -->
<g id="edge4_Node000001_Node000004" class="edge">
<title>Node1&#45;&gt;Node4</title>
<g id="a_edge4_Node000001_Node000004"><a xlink:title=" ">
<path fill="none" stroke="#63b8ff" d="M50.35,-28.91C62.99,-27.47 78.55,-24.69 91.98,-21.52"/>
<polygon fill="#63b8ff" stroke="#63b8ff" points="92.93,-24.89 101.75,-19.03 91.2,-18.11 92.93,-24.89"/>
</a>
</g>
</g>
</g>
</svg>
