<?xml version="1.0" encoding="UTF-8" standalone="no"?>
<!DOCTYPE svg PUBLIC "-//W3C//DTD SVG 1.1//EN"
 "http://www.w3.org/Graphics/SVG/1.1/DTD/svg11.dtd">
<!-- Generated by graphviz version 2.43.0 (0)
 -->
<!-- Title: satYawGpsIIR Pages: 1 -->
<svg width="520pt" height="233pt"
 viewBox="0.00 0.00 520.00 233.00" xmlns="http://www.w3.org/2000/svg" xmlns:xlink="http://www.w3.org/1999/xlink">
<g id="graph0" class="graph" transform="scale(1 1) rotate(0) translate(4 229)">
<title>satYawGpsIIR</title>
<!-- Node1 -->
<g id="Node000001" class="node">
<title>Node1</title>
<g id="a_Node000001"><a xlink:href="attitude_8cpp.html#a43e7b17b62853da813d5289667b3284e" target="_top" xlink:title="Yaw model for GPS&#45;IIR sats Ref: http://acc.igs.org/orbits/EclipseReadMe.pdf Ref: https://igsac&#45;cnes....">
<path fill="#fff0f0" stroke="red" stroke-width="2" d="M75.67,-103C75.67,-103 6.33,-103 6.33,-103 3.17,-103 0,-99.83 0,-96.67 0,-96.67 0,-90.33 0,-90.33 0,-87.17 3.17,-84 6.33,-84 6.33,-84 75.67,-84 75.67,-84 78.83,-84 82,-87.17 82,-90.33 82,-90.33 82,-96.67 82,-96.67 82,-99.83 78.83,-103 75.67,-103"/>
<text text-anchor="middle" x="41" y="-91" font-family="Helvetica,sans-Serif" font-size="10.00">satYawGpsIIR</text>
</a>
</g>
</g>
<!-- Node2 -->
<g id="Node000002" class="node">
<title>Node2</title>
<g id="a_Node000002"><a xlink:href="sinex_8cpp.html#aa047ec8b34506643b3e286d61d819a82" target="_top" xlink:title="Get yaw rate sinex entry for sat.">
<path fill="#fff0f0" stroke="red" d="M240.17,-225C240.17,-225 124.83,-225 124.83,-225 121.67,-225 118.5,-221.83 118.5,-218.67 118.5,-218.67 118.5,-212.33 118.5,-212.33 118.5,-209.17 121.67,-206 124.83,-206 124.83,-206 240.17,-206 240.17,-206 243.33,-206 246.5,-209.17 246.5,-212.33 246.5,-212.33 246.5,-218.67 246.5,-218.67 246.5,-221.83 243.33,-225 240.17,-225"/>
<text text-anchor="middle" x="182.5" y="-213" font-family="Helvetica,sans-Serif" font-size="10.00">getSnxSatMaxYawRate</text>
</a>
</g>
</g>
<!-- Node1&#45;&gt;Node2 -->
<g id="edge1_Node000001_Node000002" class="edge">
<title>Node1&#45;&gt;Node2</title>
<g id="a_edge1_Node000001_Node000002"><a xlink:title=" ">
<path fill="none" stroke="#63b8ff" d="M46.34,-103.2C56.07,-123.83 81.66,-172.21 118,-197.5 120.22,-199.04 122.56,-200.45 125,-201.74"/>
<polygon fill="#63b8ff" stroke="#63b8ff" points="123.56,-204.94 134.11,-205.91 126.47,-198.57 123.56,-204.94"/>
</a>
</g>
</g>
<!-- Node3 -->
<g id="Node000003" class="node">
<title>Node3</title>
<g id="a_Node000003"><a xlink:href="structSatSys.html#a1da3994cf03ff0ec115928954c9307bb" target="_top" xlink:title=" ">
<path fill="#fff0f0" stroke="red" d="M212.67,-188C212.67,-188 152.33,-188 152.33,-188 149.17,-188 146,-184.83 146,-181.67 146,-181.67 146,-175.33 146,-175.33 146,-172.17 149.17,-169 152.33,-169 152.33,-169 212.67,-169 212.67,-169 215.83,-169 219,-172.17 219,-175.33 219,-175.33 219,-181.67 219,-181.67 219,-184.83 215.83,-188 212.67,-188"/>
<text text-anchor="middle" x="182.5" y="-176" font-family="Helvetica,sans-Serif" font-size="10.00">SatSys::svn</text>
</a>
</g>
</g>
<!-- Node1&#45;&gt;Node3 -->
<g id="edge2_Node000001_Node000003" class="edge">
<title>Node1&#45;&gt;Node3</title>
<g id="a_edge2_Node000001_Node000003"><a xlink:title=" ">
<path fill="none" stroke="#63b8ff" d="M59.56,-103.02C74.25,-114.64 96.26,-133.08 118,-145.5 131.57,-153.25 148.11,-159.41 160.91,-164.79"/>
<polygon fill="#63b8ff" stroke="#63b8ff" points="159.69,-168.08 170.24,-168.97 162.54,-161.69 159.69,-168.08"/>
</a>
</g>
</g>
<!-- Node1&#45;&gt;Node3 -->
<g id="edge3_Node000001_Node000003" class="edge">
<title>Node1&#45;&gt;Node3</title>
<g id="a_edge3_Node000001_Node000003"><a xlink:title=" ">
<path fill="none" stroke="#63b8ff" d="M47.1,-103.28C58.76,-118.93 88.62,-146.72 118,-163.5 123.71,-166.76 129.94,-169.74 136.21,-172.31"/>
<polygon fill="#63b8ff" stroke="#63b8ff" points="135.41,-175.75 146,-176 137.87,-169.2 135.41,-175.75"/>
</a>
</g>
</g>
<!-- Node4 -->
<g id="Node000004" class="node">
<title>Node4</title>
<g id="a_Node000004"><a xlink:href="attitude_8cpp.html#a4a86c05583dbc7b327e2158d99afae5f" target="_top" xlink:title="Calculate nominal (ideal) sat yaw for GPS sats Returns result between (&#45;PI, PI].">
<path fill="#fff0f0" stroke="red" d="M370.67,-56C370.67,-56 289.33,-56 289.33,-56 286.17,-56 283,-52.83 283,-49.67 283,-49.67 283,-43.33 283,-43.33 283,-40.17 286.17,-37 289.33,-37 289.33,-37 370.67,-37 370.67,-37 373.83,-37 377,-40.17 377,-43.33 377,-43.33 377,-49.67 377,-49.67 377,-52.83 373.83,-56 370.67,-56"/>
<text text-anchor="middle" x="330" y="-44" font-family="Helvetica,sans-Serif" font-size="10.00">nominalYawGps</text>
</a>
</g>
</g>
<!-- Node1&#45;&gt;Node4 -->
<g id="edge4_Node000001_Node000004" class="edge">
<title>Node1&#45;&gt;Node4</title>
<g id="a_edge4_Node000001_Node000004"><a xlink:title=" ">
<path fill="none" stroke="#63b8ff" d="M82.24,-89.11C123.7,-84.33 190.12,-75.95 247,-65.5 258.11,-63.46 270,-60.92 281.17,-58.36"/>
<polygon fill="#63b8ff" stroke="#63b8ff" points="282.24,-61.71 291.18,-56.03 280.65,-54.89 282.24,-61.71"/>
</a>
</g>
</g>
<!-- Node5 -->
<g id="Node000005" class="node">
<title>Node5</title>
<g id="a_Node000005"><a xlink:href="common_8cpp.html#ad96246b7344aed2150ca622b91214cb2" target="_top" xlink:title="Wrap angle between (&#45;pi, pi].">
<path fill="#fff0f0" stroke="red" d="M505.67,-103C505.67,-103 419.33,-103 419.33,-103 416.17,-103 413,-99.83 413,-96.67 413,-96.67 413,-90.33 413,-90.33 413,-87.17 416.17,-84 419.33,-84 419.33,-84 505.67,-84 505.67,-84 508.83,-84 512,-87.17 512,-90.33 512,-90.33 512,-96.67 512,-96.67 512,-99.83 508.83,-103 505.67,-103"/>
<text text-anchor="middle" x="462.5" y="-91" font-family="Helvetica,sans-Serif" font-size="10.00">wrapPlusMinusPi</text>
</a>
</g>
</g>
<!-- Node1&#45;&gt;Node5 -->
<g id="edge6_Node000001_Node000005" class="edge">
<title>Node1&#45;&gt;Node5</title>
<g id="a_edge6_Node000001_Node000005"><a xlink:title=" ">
<path fill="none" stroke="#63b8ff" d="M82.22,-89.32C156.61,-86.14 315.98,-85.91 402.57,-88.64"/>
<polygon fill="#63b8ff" stroke="#63b8ff" points="402.64,-92.14 412.76,-88.98 402.88,-85.14 402.64,-92.14"/>
</a>
</g>
</g>
<!-- Node1&#45;&gt;Node5 -->
<g id="edge10_Node000001_Node000005" class="edge">
<title>Node1&#45;&gt;Node5</title>
<g id="a_edge10_Node000001_Node000005"><a xlink:title=" ">
<path fill="none" stroke="#63b8ff" d="M82.22,-97.68C156.61,-100.86 315.98,-101.09 402.57,-98.36"/>
<polygon fill="#63b8ff" stroke="#63b8ff" points="402.88,-101.86 412.76,-98.02 402.64,-94.86 402.88,-101.86"/>
</a>
</g>
</g>
<!-- Node6 -->
<g id="Node000006" class="node">
<title>Node6</title>
<g id="a_Node000006"><a xlink:href="structGTime.html#aaa8a379d11cd6c040a6bbe680c0e913e" target="_top" xlink:title="Uninitialised time for comparisons.">
<path fill="#fff0f0" stroke="red" d="M222.17,-56C222.17,-56 142.83,-56 142.83,-56 139.67,-56 136.5,-52.83 136.5,-49.67 136.5,-49.67 136.5,-43.33 136.5,-43.33 136.5,-40.17 139.67,-37 142.83,-37 142.83,-37 222.17,-37 222.17,-37 225.33,-37 228.5,-40.17 228.5,-43.33 228.5,-43.33 228.5,-49.67 228.5,-49.67 228.5,-52.83 225.33,-56 222.17,-56"/>
<text text-anchor="middle" x="182.5" y="-44" font-family="Helvetica,sans-Serif" font-size="10.00">GTime::noTime</text>
</a>
</g>
</g>
<!-- Node1&#45;&gt;Node6 -->
<g id="edge7_Node000001_Node000006" class="edge">
<title>Node1&#45;&gt;Node6</title>
<g id="a_edge7_Node000001_Node000006"><a xlink:title=" ">
<path fill="none" stroke="#63b8ff" d="M57.19,-83.98C73.84,-76.43 101.5,-66.37 126.51,-58.41"/>
<polygon fill="#63b8ff" stroke="#63b8ff" points="127.8,-61.68 136.3,-55.36 125.71,-55 127.8,-61.68"/>
</a>
</g>
</g>
<!-- Node1&#45;&gt;Node6 -->
<g id="edge11_Node000001_Node000006" class="edge">
<title>Node1&#45;&gt;Node6</title>
<g id="a_edge11_Node000001_Node000006"><a xlink:title=" ">
<path fill="none" stroke="#63b8ff" d="M82.35,-86.09C106.41,-78.96 136.19,-68.63 156.8,-60.12"/>
<polygon fill="#63b8ff" stroke="#63b8ff" points="158.32,-63.28 166.12,-56.11 155.55,-56.85 158.32,-63.28"/>
</a>
</g>
</g>
<!-- Node7 -->
<g id="Node000007" class="node">
<title>Node7</title>
<g id="a_Node000007"><a xlink:href="attitude_8cpp.html#a7100ddd974fc8c19b64512488cd8f42e" target="_top" xlink:title="Calculate nominal sat yaw for GPS sats at a given time Returns result between (&#45;PI,...">
<path fill="#fff0f0" stroke="red" d="M240.67,-19C240.67,-19 124.33,-19 124.33,-19 121.17,-19 118,-15.83 118,-12.67 118,-12.67 118,-6.33 118,-6.33 118,-3.17 121.17,0 124.33,0 124.33,0 240.67,0 240.67,0 243.83,0 247,-3.17 247,-6.33 247,-6.33 247,-12.67 247,-12.67 247,-15.83 243.83,-19 240.67,-19"/>
<text text-anchor="middle" x="182.5" y="-7" font-family="Helvetica,sans-Serif" font-size="10.00">nominalYawGpsAtTime</text>
</a>
</g>
</g>
<!-- Node1&#45;&gt;Node7 -->
<g id="edge8_Node000001_Node000007" class="edge">
<title>Node1&#45;&gt;Node7</title>
<g id="a_edge8_Node000001_Node000007"><a xlink:title=" ">
<path fill="none" stroke="#63b8ff" d="M50.37,-83.94C63.41,-69.6 90.02,-42.63 118,-27.5 121.32,-25.7 124.84,-24.07 128.44,-22.59"/>
<polygon fill="#63b8ff" stroke="#63b8ff" points="129.96,-25.76 138.14,-19.02 127.54,-19.2 129.96,-25.76"/>
</a>
</g>
</g>
<!-- Node4&#45;&gt;Node5 -->
<g id="edge5_Node000004_Node000005" class="edge">
<title>Node4&#45;&gt;Node5</title>
<g id="a_edge5_Node000004_Node000005"><a xlink:title=" ">
<path fill="none" stroke="#63b8ff" d="M357.41,-56.01C376.91,-63.04 403.7,-72.68 425.21,-80.43"/>
<polygon fill="#63b8ff" stroke="#63b8ff" points="424.09,-83.75 434.68,-83.84 426.46,-77.16 424.09,-83.75"/>
</a>
</g>
</g>
<!-- Node7&#45;&gt;Node4 -->
<g id="edge9_Node000007_Node000004" class="edge">
<title>Node7&#45;&gt;Node4</title>
<g id="a_edge9_Node000007_Node000004"><a xlink:title=" ">
<path fill="none" stroke="#63b8ff" d="M220.97,-19.03C239.48,-23.74 262.02,-29.47 281.7,-34.47"/>
<polygon fill="#63b8ff" stroke="#63b8ff" points="280.85,-37.87 291.4,-36.94 282.58,-31.08 280.85,-37.87"/>
</a>
</g>
</g>
</g>
</svg>
