<?xml version="1.0" encoding="UTF-8" standalone="no"?>
<!DOCTYPE svg PUBLIC "-//W3C//DTD SVG 1.1//EN"
 "http://www.w3.org/Graphics/SVG/1.1/DTD/svg11.dtd">
<!-- Generated by graphviz version 2.43.0 (0)
 -->
<!-- Title: satOrbitGeometry Pages: 1 -->
<svg width="233pt" height="27pt"
 viewBox="0.00 0.00 233.00 27.00" xmlns="http://www.w3.org/2000/svg" xmlns:xlink="http://www.w3.org/1999/xlink">
<g id="graph0" class="graph" transform="scale(1 1) rotate(0) translate(4 23)">
<title>satOrbitGeometry</title>
<!-- Node1 -->
<g id="Node000001" class="node">
<title>Node1</title>
<g id="a_Node000001"><a xlink:href="attitude_8cpp.html#a1d392d7cfe6d33e3fa11664aeeef4f12" target="_top" xlink:title="Calculates satellite orbit geometry &#45; for use in calculating modelled yaw.">
<path fill="#fff0f0" stroke="red" stroke-width="2" d="M218.67,-19C218.67,-19 127.33,-19 127.33,-19 124.17,-19 121,-15.83 121,-12.67 121,-12.67 121,-6.33 121,-6.33 121,-3.17 124.17,0 127.33,0 127.33,0 218.67,0 218.67,0 221.83,0 225,-3.17 225,-6.33 225,-6.33 225,-12.67 225,-12.67 225,-15.83 221.83,-19 218.67,-19"/>
<text text-anchor="middle" x="173" y="-7" font-family="Helvetica,sans-Serif" font-size="10.00">satOrbitGeometry</text>
</a>
</g>
</g>
<!-- Node2 -->
<g id="Node000002" class="node">
<title>Node2</title>
<g id="a_Node000002"><a xlink:href="attitude_8cpp.html#aac7be95f5d7dbf6cf5d647524555edcb" target="_top" xlink:title="Calculates nominal &amp; model yaw.">
<path fill="#fff0f0" stroke="red" d="M78.67,-19C78.67,-19 6.33,-19 6.33,-19 3.17,-19 0,-15.83 0,-12.67 0,-12.67 0,-6.33 0,-6.33 0,-3.17 3.17,0 6.33,0 6.33,0 78.67,0 78.67,0 81.83,0 85,-3.17 85,-6.33 85,-6.33 85,-12.67 85,-12.67 85,-15.83 81.83,-19 78.67,-19"/>
<text text-anchor="middle" x="42.5" y="-7" font-family="Helvetica,sans-Serif" font-size="10.00">updateSatYaw</text>
</a>
</g>
</g>
<!-- Node1&#45;&gt;Node2 -->
<g id="edge1_Node000001_Node000002" class="edge">
<title>Node1&#45;&gt;Node2</title>
<g id="a_edge1_Node000001_Node000002"><a xlink:title=" ">
<path fill="none" stroke="#63b8ff" d="M110.82,-9.5C102.21,-9.5 93.53,-9.5 85.4,-9.5"/>
<polygon fill="#63b8ff" stroke="#63b8ff" points="110.84,-13 120.84,-9.5 110.84,-6 110.84,-13"/>
</a>
</g>
</g>
</g>
</svg>
