<?xml version="1.0" encoding="UTF-8" standalone="no"?>
<!DOCTYPE svg PUBLIC "-//W3C//DTD SVG 1.1//EN"
 "http://www.w3.org/Graphics/SVG/1.1/DTD/svg11.dtd">
<!-- Generated by graphviz version 2.43.0 (0)
 -->
<!-- Title: inEclipse Pages: 1 -->
<svg width="181pt" height="27pt"
 viewBox="0.00 0.00 181.00 27.00" xmlns="http://www.w3.org/2000/svg" xmlns:xlink="http://www.w3.org/1999/xlink">
<g id="graph0" class="graph" transform="scale(1 1) rotate(0) translate(4 23)">
<title>inEclipse</title>
<!-- Node1 -->
<g id="Node000001" class="node">
<title>Node1</title>
<g id="a_Node000001"><a xlink:href="attitude_8cpp.html#a3b2447912b724e96167465b4813d591b" target="_top" xlink:title="Returns true if satellite is in eclipse (shadow umbra); else false.">
<path fill="#fff0f0" stroke="red" stroke-width="2" d="M53.67,-19C53.67,-19 6.33,-19 6.33,-19 3.17,-19 0,-15.83 0,-12.67 0,-12.67 0,-6.33 0,-6.33 0,-3.17 3.17,0 6.33,0 6.33,0 53.67,0 53.67,0 56.83,0 60,-3.17 60,-6.33 60,-6.33 60,-12.67 60,-12.67 60,-15.83 56.83,-19 53.67,-19"/>
<text text-anchor="middle" x="30" y="-7" font-family="Helvetica,sans-Serif" font-size="10.00">inEclipse</text>
</a>
</g>
</g>
<!-- Node2 -->
<g id="Node000002" class="node">
<title>Node2</title>
<g id="a_Node000002"><a xlink:href="attitude_8cpp.html#a543fde2ca3f11becceecfce52de34cd8" target="_top" xlink:title="Calculates fraction of Sun&#39;s disk visible by spacecraft 0 = full eclipse (umbra) 0 &lt; fraction &lt; 1 = p...">
<path fill="#fff0f0" stroke="red" d="M166.67,-19C166.67,-19 102.33,-19 102.33,-19 99.17,-19 96,-15.83 96,-12.67 96,-12.67 96,-6.33 96,-6.33 96,-3.17 99.17,0 102.33,0 102.33,0 166.67,0 166.67,0 169.83,0 173,-3.17 173,-6.33 173,-6.33 173,-12.67 173,-12.67 173,-15.83 169.83,-19 166.67,-19"/>
<text text-anchor="middle" x="134.5" y="-7" font-family="Helvetica,sans-Serif" font-size="10.00">sunVisibility</text>
</a>
</g>
</g>
<!-- Node1&#45;&gt;Node2 -->
<g id="edge1_Node000001_Node000002" class="edge">
<title>Node1&#45;&gt;Node2</title>
<g id="a_edge1_Node000001_Node000002"><a xlink:title=" ">
<path fill="none" stroke="#63b8ff" d="M60.1,-9.5C68.1,-9.5 76.98,-9.5 85.74,-9.5"/>
<polygon fill="#63b8ff" stroke="#63b8ff" points="85.89,-13 95.89,-9.5 85.89,-6 85.89,-13"/>
</a>
</g>
</g>
</g>
</svg>
