<?xml version="1.0" encoding="UTF-8" standalone="no"?>
<!DOCTYPE svg PUBLIC "-//W3C//DTD SVG 1.1//EN"
 "http://www.w3.org/Graphics/SVG/1.1/DTD/svg11.dtd">
<!-- Generated by graphviz version 2.43.0 (0)
 -->
<!-- Title: sunMoonPos Pages: 1 -->
<svg width="246pt" height="27pt"
 viewBox="0.00 0.00 246.00 27.00" xmlns="http://www.w3.org/2000/svg" xmlns:xlink="http://www.w3.org/1999/xlink">
<g id="graph0" class="graph" transform="scale(1 1) rotate(0) translate(4 23)">
<title>sunMoonPos</title>
<!-- Node1 -->
<g id="Node000001" class="node">
<title>Node1</title>
<g id="a_Node000001"><a xlink:href="attitude_8cpp.html#ab4c1ce1e9929d8f0ea84cffbc8705adc" target="_top" xlink:title=" ">
<path fill="#fff0f0" stroke="red" stroke-width="2" d="M231.67,-19C231.67,-19 166.33,-19 166.33,-19 163.17,-19 160,-15.83 160,-12.67 160,-12.67 160,-6.33 160,-6.33 160,-3.17 163.17,0 166.33,0 166.33,0 231.67,0 231.67,0 234.83,0 238,-3.17 238,-6.33 238,-6.33 238,-12.67 238,-12.67 238,-15.83 234.83,-19 231.67,-19"/>
<text text-anchor="middle" x="199" y="-7" font-family="Helvetica,sans-Serif" font-size="10.00">sunMoonPos</text>
</a>
</g>
</g>
<!-- Node2 -->
<g id="Node000002" class="node">
<title>Node2</title>
<g id="a_Node000002"><a xlink:href="attitude_8cpp.html#a1b479682868a13d0db3a05d5c6d38461" target="_top" xlink:title="Finds time when eclipse started, prior (default) to this point in time For finding eclipses forward i...">
<path fill="#fff0f0" stroke="red" d="M117.67,-19C117.67,-19 6.33,-19 6.33,-19 3.17,-19 0,-15.83 0,-12.67 0,-12.67 0,-6.33 0,-6.33 0,-3.17 3.17,0 6.33,0 6.33,0 117.67,0 117.67,0 120.83,0 124,-3.17 124,-6.33 124,-6.33 124,-12.67 124,-12.67 124,-15.83 120.83,-19 117.67,-19"/>
<text text-anchor="middle" x="62" y="-7" font-family="Helvetica,sans-Serif" font-size="10.00">findEclipseBoundaries</text>
</a>
</g>
</g>
<!-- Node1&#45;&gt;Node2 -->
<g id="edge1_Node000001_Node000002" class="edge">
<title>Node1&#45;&gt;Node2</title>
<g id="a_edge1_Node000001_Node000002"><a xlink:title=" ">
<path fill="none" stroke="#63b8ff" d="M149.52,-9.5C141.29,-9.5 132.65,-9.5 124.15,-9.5"/>
<polygon fill="#63b8ff" stroke="#63b8ff" points="149.68,-13 159.68,-9.5 149.68,-6 149.68,-13"/>
</a>
</g>
</g>
</g>
</svg>
