<?xml version="1.0" encoding="UTF-8" standalone="no"?>
<!DOCTYPE svg PUBLIC "-//W3C//DTD SVG 1.1//EN"
 "http://www.w3.org/Graphics/SVG/1.1/DTD/svg11.dtd">
<!-- Generated by graphviz version 2.43.0 (0)
 -->
<!-- Title: updateAntAtt Pages: 1 -->
<svg width="200pt" height="27pt"
 viewBox="0.00 0.00 200.00 27.00" xmlns="http://www.w3.org/2000/svg" xmlns:xlink="http://www.w3.org/1999/xlink">
<g id="graph0" class="graph" transform="scale(1 1) rotate(0) translate(4 23)">
<title>updateAntAtt</title>
<!-- Node1 -->
<g id="Node000001" class="node">
<title>Node1</title>
<g id="a_Node000001"><a xlink:href="attitude_8cpp.html#af213faee69eab1e3eb2f3955c2ab9233" target="_top" xlink:title="Calculates antenna attitude &#45; unit vectors of antenna&#45;fixed coordinates (ECEF)">
<path fill="#fff0f0" stroke="red" stroke-width="2" d="M74.67,-19C74.67,-19 6.33,-19 6.33,-19 3.17,-19 0,-15.83 0,-12.67 0,-12.67 0,-6.33 0,-6.33 0,-3.17 3.17,0 6.33,0 6.33,0 74.67,0 74.67,0 77.83,0 81,-3.17 81,-6.33 81,-6.33 81,-12.67 81,-12.67 81,-15.83 77.83,-19 74.67,-19"/>
<text text-anchor="middle" x="40.5" y="-7" font-family="Helvetica,sans-Serif" font-size="10.00">updateAntAtt</text>
</a>
</g>
</g>
<!-- Node2 -->
<g id="Node000002" class="node">
<title>Node2</title>
<g id="a_Node000002"><a xlink:href="attitude_8cpp.html#a1a74c02f9b5272b79ed718d28dcc3429" target="_top" xlink:title="Converts coords of frame A (expressed in frame G) into transformation matrix from A to G E....">
<path fill="#fff0f0" stroke="red" d="M185.67,-19C185.67,-19 123.33,-19 123.33,-19 120.17,-19 117,-15.83 117,-12.67 117,-12.67 117,-6.33 117,-6.33 117,-3.17 120.17,0 123.33,0 123.33,0 185.67,0 185.67,0 188.83,0 192,-3.17 192,-6.33 192,-6.33 192,-12.67 192,-12.67 192,-15.83 188.83,-19 185.67,-19"/>
<text text-anchor="middle" x="154.5" y="-7" font-family="Helvetica,sans-Serif" font-size="10.00">rotBasisMat</text>
</a>
</g>
</g>
<!-- Node1&#45;&gt;Node2 -->
<g id="edge1_Node000001_Node000002" class="edge">
<title>Node1&#45;&gt;Node2</title>
<g id="a_edge1_Node000001_Node000002"><a xlink:title=" ">
<path fill="none" stroke="#63b8ff" d="M81.3,-3.01C89.53,-2.74 98.26,-2.68 106.71,-2.83"/>
<polygon fill="#63b8ff" stroke="#63b8ff" points="106.72,-6.33 116.82,-3.12 106.92,0.66 106.72,-6.33"/>
</a>
</g>
</g>
<!-- Node1&#45;&gt;Node2 -->
<g id="edge2_Node000001_Node000002" class="edge">
<title>Node1&#45;&gt;Node2</title>
<g id="a_edge2_Node000001_Node000002"><a xlink:title=" ">
<path fill="none" stroke="#63b8ff" d="M81.3,-15.99C89.53,-16.26 98.26,-16.32 106.71,-16.17"/>
<polygon fill="#63b8ff" stroke="#63b8ff" points="106.92,-19.66 116.82,-15.88 106.72,-12.67 106.92,-19.66"/>
</a>
</g>
</g>
</g>
</svg>
