<?xml version="1.0" encoding="UTF-8" standalone="no"?>
<!DOCTYPE svg PUBLIC "-//W3C//DTD SVG 1.1//EN"
 "http://www.w3.org/Graphics/SVG/1.1/DTD/svg11.dtd">
<!-- Generated by graphviz version 2.43.0 (0)
 -->
<!-- Title: smoothedYaw Pages: 1 -->
<svg width="211pt" height="64pt"
 viewBox="0.00 0.00 211.00 64.00" xmlns="http://www.w3.org/2000/svg" xmlns:xlink="http://www.w3.org/1999/xlink">
<g id="graph0" class="graph" transform="scale(1 1) rotate(0) translate(4 60)">
<title>smoothedYaw</title>
<!-- Node1 -->
<g id="Node000001" class="node">
<title>Node1</title>
<g id="a_Node000001"><a xlink:href="attitude_8cpp.html#aafc9b40350ab3ffb027aa7572be560db" target="_top" xlink:title="Smoothed yaw steering for GAL &amp; BDS.">
<path fill="#fff0f0" stroke="red" stroke-width="2" d="M196.67,-37C196.67,-37 125.33,-37 125.33,-37 122.17,-37 119,-33.83 119,-30.67 119,-30.67 119,-24.33 119,-24.33 119,-21.17 122.17,-18 125.33,-18 125.33,-18 196.67,-18 196.67,-18 199.83,-18 203,-21.17 203,-24.33 203,-24.33 203,-30.67 203,-30.67 203,-33.83 199.83,-37 196.67,-37"/>
<text text-anchor="middle" x="161" y="-25" font-family="Helvetica,sans-Serif" font-size="10.00">smoothedYaw</text>
</a>
</g>
</g>
<!-- Node2 -->
<g id="Node000002" class="node">
<title>Node2</title>
<g id="a_Node000002"><a xlink:href="attitude_8cpp.html#a72b1b0bdafc8daa3b75faa96049b514f" target="_top" xlink:title="Yaw model for BDS&#45;3I/3M satellites Ref: https://doi.org/10.1007/s10291&#45;018&#45;0783&#45;1 https://doi....">
<path fill="#fff0f0" stroke="red" d="M72.17,-56C72.17,-56 10.83,-56 10.83,-56 7.67,-56 4.5,-52.83 4.5,-49.67 4.5,-49.67 4.5,-43.33 4.5,-43.33 4.5,-40.17 7.67,-37 10.83,-37 10.83,-37 72.17,-37 72.17,-37 75.33,-37 78.5,-40.17 78.5,-43.33 78.5,-43.33 78.5,-49.67 78.5,-49.67 78.5,-52.83 75.33,-56 72.17,-56"/>
<text text-anchor="middle" x="41.5" y="-44" font-family="Helvetica,sans-Serif" font-size="10.00">satYawBds3</text>
</a>
</g>
</g>
<!-- Node1&#45;&gt;Node2 -->
<g id="edge1_Node000001_Node000002" class="edge">
<title>Node1&#45;&gt;Node2</title>
<g id="a_edge1_Node000001_Node000002"><a xlink:title=" ">
<path fill="none" stroke="#63b8ff" d="M108.88,-35.77C98.71,-37.41 88.22,-39.11 78.68,-40.65"/>
<polygon fill="#63b8ff" stroke="#63b8ff" points="109.59,-39.2 118.9,-34.15 108.47,-32.29 109.59,-39.2"/>
</a>
</g>
</g>
<!-- Node18 -->
<g id="Node000018" class="node">
<title>Node18</title>
<g id="a_Node000018"><a xlink:href="attitude_8cpp.html#abdce260d1dd40f5c15f4003e87bafd3b" target="_top" xlink:title="Yaw model for GAL FOC sats.">
<path fill="#fff0f0" stroke="red" d="M76.67,-19C76.67,-19 6.33,-19 6.33,-19 3.17,-19 0,-15.83 0,-12.67 0,-12.67 0,-6.33 0,-6.33 0,-3.17 3.17,0 6.33,0 6.33,0 76.67,0 76.67,0 79.83,0 83,-3.17 83,-6.33 83,-6.33 83,-12.67 83,-12.67 83,-15.83 79.83,-19 76.67,-19"/>
<text text-anchor="middle" x="41.5" y="-7" font-family="Helvetica,sans-Serif" font-size="10.00">satYawGalFoc</text>
</a>
</g>
</g>
<!-- Node1&#45;&gt;Node18 -->
<g id="edge2_Node000001_Node000018" class="edge">
<title>Node1&#45;&gt;Node18</title>
<g id="a_edge2_Node000001_Node000018"><a xlink:title=" ">
<path fill="none" stroke="#63b8ff" d="M109,-19.69C100.43,-18.37 91.64,-17.03 83.37,-15.76"/>
<polygon fill="#63b8ff" stroke="#63b8ff" points="108.49,-23.15 118.9,-21.2 109.55,-16.23 108.49,-23.15"/>
</a>
</g>
</g>
</g>
</svg>
