<?xml version="1.0" encoding="UTF-8" standalone="no"?>
<!DOCTYPE svg PUBLIC "-//W3C//DTD SVG 1.1//EN"
 "http://www.w3.org/Graphics/SVG/1.1/DTD/svg11.dtd">
<!-- Generated by graphviz version 2.43.0 (0)
 -->
<!-- Title: updateSatAtts Pages: 1 -->
<svg width="267pt" height="113pt"
 viewBox="0.00 0.00 267.00 112.50" xmlns="http://www.w3.org/2000/svg" xmlns:xlink="http://www.w3.org/1999/xlink">
<g id="graph0" class="graph" transform="scale(1 1) rotate(0) translate(4 108.5)">
<title>updateSatAtts</title>
<!-- Node1 -->
<g id="Node000001" class="node">
<title>Node1</title>
<g id="a_Node000001"><a xlink:href="attitude_8cpp.html#a0584e56d2ad0d93d89079e841a6dba28" target="_top" xlink:title="Update sat nominal/model yaws.">
<path fill="#fff0f0" stroke="red" stroke-width="2" d="M252.67,-56C252.67,-56 179.33,-56 179.33,-56 176.17,-56 173,-52.83 173,-49.67 173,-49.67 173,-43.33 173,-43.33 173,-40.17 176.17,-37 179.33,-37 179.33,-37 252.67,-37 252.67,-37 255.83,-37 259,-40.17 259,-43.33 259,-43.33 259,-49.67 259,-49.67 259,-52.83 255.83,-56 252.67,-56"/>
<text text-anchor="middle" x="216" y="-44" font-family="Helvetica,sans-Serif" font-size="10.00">updateSatAtts</text>
</a>
</g>
</g>
<!-- Node2 -->
<g id="Node000002" class="node">
<title>Node2</title>
<g id="a_Node000002"><a xlink:href="structOrbitIntegrator.html#a3ed19521cfc21cdaa2d7c8fa4f385499" target="_top" xlink:title=" ">
<path fill="#fff0f0" stroke="red" d="M127,-104.5C127,-104.5 10,-104.5 10,-104.5 5,-104.5 0,-99.5 0,-94.5 0,-94.5 0,-84.5 0,-84.5 0,-79.5 5,-74.5 10,-74.5 10,-74.5 127,-74.5 127,-74.5 132,-74.5 137,-79.5 137,-84.5 137,-84.5 137,-94.5 137,-94.5 137,-99.5 132,-104.5 127,-104.5"/>
<text text-anchor="start" x="8" y="-92.5" font-family="Helvetica,sans-Serif" font-size="10.00">OrbitIntegrator::compute</text>
<text text-anchor="middle" x="68.5" y="-81.5" font-family="Helvetica,sans-Serif" font-size="10.00">Acceleration</text>
</a>
</g>
</g>
<!-- Node1&#45;&gt;Node2 -->
<g id="edge1_Node000001_Node000002" class="edge">
<title>Node1&#45;&gt;Node2</title>
<g id="a_edge1_Node000001_Node000002"><a xlink:title=" ">
<path fill="none" stroke="#63b8ff" d="M172.85,-58.96C156.42,-63.81 137.45,-69.42 120.28,-74.49"/>
<polygon fill="#63b8ff" stroke="#63b8ff" points="174.11,-62.23 182.71,-56.04 172.13,-55.52 174.11,-62.23"/>
</a>
</g>
</g>
<!-- Node4 -->
<g id="Node000004" class="node">
<title>Node4</title>
<g id="a_Node000004"><a xlink:href="debug_8cpp.html#a9779f5f24c300e72581f3858ed638c9e" target="_top" xlink:title=" ">
<path fill="#fff0f0" stroke="red" d="M105.17,-56C105.17,-56 31.83,-56 31.83,-56 28.67,-56 25.5,-52.83 25.5,-49.67 25.5,-49.67 25.5,-43.33 25.5,-43.33 25.5,-40.17 28.67,-37 31.83,-37 31.83,-37 105.17,-37 105.17,-37 108.33,-37 111.5,-40.17 111.5,-43.33 111.5,-43.33 111.5,-49.67 111.5,-49.67 111.5,-52.83 108.33,-56 105.17,-56"/>
<text text-anchor="middle" x="68.5" y="-44" font-family="Helvetica,sans-Serif" font-size="10.00">debugAttitude</text>
</a>
</g>
</g>
<!-- Node1&#45;&gt;Node4 -->
<g id="edge2_Node000001_Node000004" class="edge">
<title>Node1&#45;&gt;Node4</title>
<g id="a_edge2_Node000001_Node000004"><a xlink:title=" ">
<path fill="none" stroke="#63b8ff" d="M162.73,-46.5C145.99,-46.5 127.67,-46.5 111.74,-46.5"/>
<polygon fill="#63b8ff" stroke="#63b8ff" points="162.92,-50 172.92,-46.5 162.92,-43 162.92,-50"/>
</a>
</g>
</g>
<!-- Node5 -->
<g id="Node000005" class="node">
<title>Node5</title>
<g id="a_Node000005"><a xlink:href="ppp_8cpp.html#addf444b8f568363246958de68c55772d" target="_top" xlink:title="Compare estimated station position with benchmark in SINEX file.">
<path fill="#fff0f0" stroke="red" d="M117.67,-19C117.67,-19 19.33,-19 19.33,-19 16.17,-19 13,-15.83 13,-12.67 13,-12.67 13,-6.33 13,-6.33 13,-3.17 16.17,0 19.33,0 19.33,0 117.67,0 117.67,0 120.83,0 124,-3.17 124,-6.33 124,-6.33 124,-12.67 124,-12.67 124,-15.83 120.83,-19 117.67,-19"/>
<text text-anchor="middle" x="68.5" y="-7" font-family="Helvetica,sans-Serif" font-size="10.00">selectAprioriSource</text>
</a>
</g>
</g>
<!-- Node1&#45;&gt;Node5 -->
<g id="edge3_Node000001_Node000005" class="edge">
<title>Node1&#45;&gt;Node5</title>
<g id="a_edge3_Node000001_Node000005"><a xlink:title=" ">
<path fill="none" stroke="#63b8ff" d="M167.84,-34.51C148.16,-29.5 125.63,-23.77 107.1,-19.06"/>
<polygon fill="#63b8ff" stroke="#63b8ff" points="166.98,-37.9 177.53,-36.97 168.7,-31.11 166.98,-37.9"/>
</a>
</g>
</g>
</g>
</svg>
