<?xml version="1.0" encoding="UTF-8" standalone="no"?>
<!DOCTYPE svg PUBLIC "-//W3C//DTD SVG 1.1//EN"
 "http://www.w3.org/Graphics/SVG/1.1/DTD/svg11.dtd">
<!-- Generated by graphviz version 2.43.0 (0)
 -->
<!-- Title: satYawGpsIII Pages: 1 -->
<svg width="207pt" height="27pt"
 viewBox="0.00 0.00 207.00 27.00" xmlns="http://www.w3.org/2000/svg" xmlns:xlink="http://www.w3.org/1999/xlink">
<g id="graph0" class="graph" transform="scale(1 1) rotate(0) translate(4 23)">
<title>satYawGpsIII</title>
<!-- Node1 -->
<g id="Node000001" class="node">
<title>Node1</title>
<g id="a_Node000001"><a xlink:href="attitude_8cpp.html#afd2653cc1d2bee172447ed161bf0f19d" target="_top" xlink:title="Yaw model for GPS&#45;III sats Ref: https://www.gpsworld.com/new&#45;type&#45;on&#45;the&#45;block&#45;generating&#45;high&#45;precis...">
<path fill="#fff0f0" stroke="red" stroke-width="2" d="M192.67,-19C192.67,-19 127.33,-19 127.33,-19 124.17,-19 121,-15.83 121,-12.67 121,-12.67 121,-6.33 121,-6.33 121,-3.17 124.17,0 127.33,0 127.33,0 192.67,0 192.67,0 195.83,0 199,-3.17 199,-6.33 199,-6.33 199,-12.67 199,-12.67 199,-15.83 195.83,-19 192.67,-19"/>
<text text-anchor="middle" x="160" y="-7" font-family="Helvetica,sans-Serif" font-size="10.00">satYawGpsIII</text>
</a>
</g>
</g>
<!-- Node2 -->
<g id="Node000002" class="node">
<title>Node2</title>
<g id="a_Node000002"><a xlink:href="attitude_8cpp.html#aac7be95f5d7dbf6cf5d647524555edcb" target="_top" xlink:title="Calculates nominal &amp; model yaw.">
<path fill="#fff0f0" stroke="red" d="M78.67,-19C78.67,-19 6.33,-19 6.33,-19 3.17,-19 0,-15.83 0,-12.67 0,-12.67 0,-6.33 0,-6.33 0,-3.17 3.17,0 6.33,0 6.33,0 78.67,0 78.67,0 81.83,0 85,-3.17 85,-6.33 85,-6.33 85,-12.67 85,-12.67 85,-15.83 81.83,-19 78.67,-19"/>
<text text-anchor="middle" x="42.5" y="-7" font-family="Helvetica,sans-Serif" font-size="10.00">updateSatYaw</text>
</a>
</g>
</g>
<!-- Node1&#45;&gt;Node2 -->
<g id="edge1_Node000001_Node000002" class="edge">
<title>Node1&#45;&gt;Node2</title>
<g id="a_edge1_Node000001_Node000002"><a xlink:title=" ">
<path fill="none" stroke="#63b8ff" d="M110.71,-9.5C102.22,-9.5 93.46,-9.5 85.18,-9.5"/>
<polygon fill="#63b8ff" stroke="#63b8ff" points="110.86,-13 120.86,-9.5 110.86,-6 110.86,-13"/>
</a>
</g>
</g>
</g>
</svg>
