<?xml version="1.0" encoding="UTF-8" standalone="no"?>
<!DOCTYPE svg PUBLIC "-//W3C//DTD SVG 1.1//EN"
 "http://www.w3.org/Graphics/SVG/1.1/DTD/svg11.dtd">
<!-- Generated by graphviz version 2.43.0 (0)
 -->
<!-- Title: phaseWindup Pages: 1 -->
<svg width="246pt" height="27pt"
 viewBox="0.00 0.00 246.00 27.00" xmlns="http://www.w3.org/2000/svg" xmlns:xlink="http://www.w3.org/1999/xlink">
<g id="graph0" class="graph" transform="scale(1 1) rotate(0) translate(4 23)">
<title>phaseWindup</title>
<!-- Node1 -->
<g id="Node000001" class="node">
<title>Node1</title>
<g id="a_Node000001"><a xlink:href="attitude_8cpp.html#a13aed6859d278593c72f5fdbe4a3b684" target="_top" xlink:title="phase windup model">
<path fill="#fff0f0" stroke="red" stroke-width="2" d="M231.67,-19C231.67,-19 161.33,-19 161.33,-19 158.17,-19 155,-15.83 155,-12.67 155,-12.67 155,-6.33 155,-6.33 155,-3.17 158.17,0 161.33,0 161.33,0 231.67,0 231.67,0 234.83,0 238,-3.17 238,-6.33 238,-6.33 238,-12.67 238,-12.67 238,-15.83 234.83,-19 231.67,-19"/>
<text text-anchor="middle" x="196.5" y="-7" font-family="Helvetica,sans-Serif" font-size="10.00">phaseWindup</text>
</a>
</g>
</g>
<!-- Node2 -->
<g id="Node000002" class="node">
<title>Node2</title>
<g id="a_Node000002"><a xlink:href="ppp__obs_8cpp.html#a00edf95b4e699d6e9c00ef7ef301cef7" target="_top" xlink:title=" ">
<path fill="#fff0f0" stroke="red" d="M112.67,-19C112.67,-19 6.33,-19 6.33,-19 3.17,-19 0,-15.83 0,-12.67 0,-12.67 0,-6.33 0,-6.33 0,-3.17 3.17,0 6.33,0 6.33,0 112.67,0 112.67,0 115.83,0 119,-3.17 119,-6.33 119,-6.33 119,-12.67 119,-12.67 119,-15.83 115.83,-19 112.67,-19"/>
<text text-anchor="middle" x="59.5" y="-7" font-family="Helvetica,sans-Serif" font-size="10.00">pppRecPhaseWindup</text>
</a>
</g>
</g>
<!-- Node1&#45;&gt;Node2 -->
<g id="edge1_Node000001_Node000002" class="edge">
<title>Node1&#45;&gt;Node2</title>
<g id="a_edge1_Node000001_Node000002"><a xlink:title=" ">
<path fill="none" stroke="#63b8ff" d="M144.76,-9.5C136.5,-9.5 127.88,-9.5 119.44,-9.5"/>
<polygon fill="#63b8ff" stroke="#63b8ff" points="145,-13 155,-9.5 145,-6 145,-13"/>
</a>
</g>
</g>
</g>
</svg>
