<?xml version="1.0" encoding="UTF-8" standalone="no"?>
<!DOCTYPE svg PUBLIC "-//W3C//DTD SVG 1.1//EN"
 "http://www.w3.org/Graphics/SVG/1.1/DTD/svg11.dtd">
<!-- Generated by graphviz version 2.43.0 (0)
 -->
<!-- Title: colinearAngle Pages: 1 -->
<svg width="91pt" height="63pt"
 viewBox="0.00 0.00 91.00 63.00" xmlns="http://www.w3.org/2000/svg" xmlns:xlink="http://www.w3.org/1999/xlink">
<g id="graph0" class="graph" transform="scale(1 1) rotate(0) translate(4 59)">
<title>colinearAngle</title>
<!-- Node1 -->
<g id="Node000001" class="node">
<title>Node1</title>
<g id="a_Node000001"><a xlink:href="attitude_8cpp.html#a95558ed9944dff71b37d685647155248" target="_top" xlink:title="Calculates colinear angle &#45; the scalar angle between midnight or noon, whichever is closest.">
<path fill="#fff0f0" stroke="red" stroke-width="2" d="M76.67,-19C76.67,-19 6.33,-19 6.33,-19 3.17,-19 0,-15.83 0,-12.67 0,-12.67 0,-6.33 0,-6.33 0,-3.17 3.17,0 6.33,0 6.33,0 76.67,0 76.67,0 79.83,0 83,-3.17 83,-6.33 83,-6.33 83,-12.67 83,-12.67 83,-15.83 79.83,-19 76.67,-19"/>
<text text-anchor="middle" x="41.5" y="-7" font-family="Helvetica,sans-Serif" font-size="10.00">colinearAngle</text>
</a>
</g>
</g>
<!-- Node1&#45;&gt;Node1 -->
<g id="edge1_Node000001_Node000001" class="edge">
<title>Node1&#45;&gt;Node1</title>
<g id="a_edge1_Node000001_Node000001"><a xlink:title=" ">
<path fill="none" stroke="#63b8ff" d="M35.18,-19.08C32.11,-27.73 34.21,-37 41.5,-37 45.83,-37 48.33,-33.73 49,-29.27"/>
<polygon fill="#63b8ff" stroke="#63b8ff" points="52.45,-28.61 47.82,-19.08 45.5,-29.42 52.45,-28.61"/>
</a>
</g>
</g>
<!-- Node1&#45;&gt;Node1 -->
<g id="edge2_Node000001_Node000001" class="edge">
<title>Node1&#45;&gt;Node1</title>
<g id="a_edge2_Node000001_Node000001"><a xlink:title=" ">
<path fill="none" stroke="#63b8ff" d="M32.13,-19.33C21.72,-34.98 24.84,-55 41.5,-55 55.03,-55 59.63,-41.78 55.3,-28.43"/>
<polygon fill="#63b8ff" stroke="#63b8ff" points="58.39,-26.79 50.87,-19.33 52.1,-29.85 58.39,-26.79"/>
</a>
</g>
</g>
</g>
</svg>
