<?xml version="1.0" encoding="UTF-8" standalone="no"?>
<!DOCTYPE svg PUBLIC "-//W3C//DTD SVG 1.1//EN"
 "http://www.w3.org/Graphics/SVG/1.1/DTD/svg11.dtd">
<!-- Generated by graphviz version 2.43.0 (0)
 -->
<!-- Title: colinearAngle Pages: 1 -->
<svg width="210pt" height="45pt"
 viewBox="0.00 0.00 210.00 45.00" xmlns="http://www.w3.org/2000/svg" xmlns:xlink="http://www.w3.org/1999/xlink">
<g id="graph0" class="graph" transform="scale(1 1) rotate(0) translate(4 41)">
<title>colinearAngle</title>
<!-- Node1 -->
<g id="Node000001" class="node">
<title>Node1</title>
<g id="a_Node000001"><a xlink:href="attitude_8cpp.html#a95558ed9944dff71b37d685647155248" target="_top" xlink:title="Calculates colinear angle &#45; the scalar angle between midnight or noon, whichever is closest.">
<path fill="#fff0f0" stroke="red" stroke-width="2" d="M195.67,-19C195.67,-19 125.33,-19 125.33,-19 122.17,-19 119,-15.83 119,-12.67 119,-12.67 119,-6.33 119,-6.33 119,-3.17 122.17,0 125.33,0 125.33,0 195.67,0 195.67,0 198.83,0 202,-3.17 202,-6.33 202,-6.33 202,-12.67 202,-12.67 202,-15.83 198.83,-19 195.67,-19"/>
<text text-anchor="middle" x="160.5" y="-7" font-family="Helvetica,sans-Serif" font-size="10.00">colinearAngle</text>
</a>
</g>
</g>
<!-- Node1&#45;&gt;Node1 -->
<g id="edge1_Node000001_Node000001" class="edge">
<title>Node1&#45;&gt;Node1</title>
<g id="a_edge1_Node000001_Node000001"><a xlink:title=" ">
<path fill="none" stroke="#63b8ff" d="M182.35,-28.55C180.89,-33.38 173.61,-37 160.5,-37 139.53,-37 133.46,-27.73 142.31,-19.08"/>
<polygon fill="#63b8ff" stroke="#63b8ff" points="185.56,-27.15 178.69,-19.08 179.03,-29.67 185.56,-27.15"/>
</a>
</g>
</g>
<!-- Node2 -->
<g id="Node000002" class="node">
<title>Node2</title>
<g id="a_Node000002"><a xlink:href="attitude_8cpp.html#abdce260d1dd40f5c15f4003e87bafd3b" target="_top" xlink:title="Yaw model for GAL FOC sats.">
<path fill="#fff0f0" stroke="red" d="M76.67,-19C76.67,-19 6.33,-19 6.33,-19 3.17,-19 0,-15.83 0,-12.67 0,-12.67 0,-6.33 0,-6.33 0,-3.17 3.17,0 6.33,0 6.33,0 76.67,0 76.67,0 79.83,0 83,-3.17 83,-6.33 83,-6.33 83,-12.67 83,-12.67 83,-15.83 79.83,-19 76.67,-19"/>
<text text-anchor="middle" x="41.5" y="-7" font-family="Helvetica,sans-Serif" font-size="10.00">satYawGalFoc</text>
</a>
</g>
</g>
<!-- Node1&#45;&gt;Node2 -->
<g id="edge2_Node000001_Node000002" class="edge">
<title>Node1&#45;&gt;Node2</title>
<g id="a_edge2_Node000001_Node000002"><a xlink:title=" ">
<path fill="none" stroke="#63b8ff" d="M108.91,-9.5C100.25,-9.5 91.37,-9.5 83.02,-9.5"/>
<polygon fill="#63b8ff" stroke="#63b8ff" points="108.91,-13 118.91,-9.5 108.91,-6 108.91,-13"/>
</a>
</g>
</g>
</g>
</svg>
