<?xml version="1.0" encoding="UTF-8" standalone="no"?>
<!DOCTYPE svg PUBLIC "-//W3C//DTD SVG 1.1//EN"
 "http://www.w3.org/Graphics/SVG/1.1/DTD/svg11.dtd">
<!-- Generated by graphviz version 2.43.0 (0)
 -->
<!-- Title: nominalYawGpsAtTime Pages: 1 -->
<svg width="406pt" height="290pt"
 viewBox="0.00 0.00 406.00 290.00" xmlns="http://www.w3.org/2000/svg" xmlns:xlink="http://www.w3.org/1999/xlink">
<g id="graph0" class="graph" transform="scale(1 1) rotate(0) translate(4 286)">
<title>nominalYawGpsAtTime</title>
<!-- Node1 -->
<g id="Node000001" class="node">
<title>Node1</title>
<g id="a_Node000001"><a xlink:href="attitude_8cpp.html#a7100ddd974fc8c19b64512488cd8f42e" target="_top" xlink:title="Calculate nominal sat yaw for GPS sats at a given time Returns result between (&#45;PI,...">
<path fill="#fff0f0" stroke="red" stroke-width="2" d="M391.67,-152C391.67,-152 275.33,-152 275.33,-152 272.17,-152 269,-148.83 269,-145.67 269,-145.67 269,-139.33 269,-139.33 269,-136.17 272.17,-133 275.33,-133 275.33,-133 391.67,-133 391.67,-133 394.83,-133 398,-136.17 398,-139.33 398,-139.33 398,-145.67 398,-145.67 398,-148.83 394.83,-152 391.67,-152"/>
<text text-anchor="middle" x="333.5" y="-140" font-family="Helvetica,sans-Serif" font-size="10.00">nominalYawGpsAtTime</text>
</a>
</g>
</g>
<!-- Node2 -->
<g id="Node000002" class="node">
<title>Node2</title>
<g id="a_Node000002"><a xlink:href="attitude_8cpp.html#a3e9ea3b9538484ff8cb97789446dd1d1" target="_top" xlink:title="Finds time when midnight/noon&#45;centred max yaw started, previous to this point in time.">
<path fill="#fff0f0" stroke="red" d="M226.67,-282C226.67,-282 124.33,-282 124.33,-282 121.17,-282 118,-278.83 118,-275.67 118,-275.67 118,-269.33 118,-269.33 118,-266.17 121.17,-263 124.33,-263 124.33,-263 226.67,-263 226.67,-263 229.83,-263 233,-266.17 233,-269.33 233,-269.33 233,-275.67 233,-275.67 233,-278.83 229.83,-282 226.67,-282"/>
<text text-anchor="middle" x="175.5" y="-270" font-family="Helvetica,sans-Serif" font-size="10.00">findCentredYawStart</text>
</a>
</g>
</g>
<!-- Node1&#45;&gt;Node2 -->
<g id="edge1_Node000001_Node000002" class="edge">
<title>Node1&#45;&gt;Node2</title>
<g id="a_edge1_Node000001_Node000002"><a xlink:title=" ">
<path fill="none" stroke="#63b8ff" d="M321.05,-160.6C304.51,-185.3 271.67,-229.36 233,-254.5 227.82,-257.87 221.97,-260.64 216.04,-262.92"/>
<polygon fill="#63b8ff" stroke="#63b8ff" points="324.02,-162.45 326.56,-152.16 318.16,-158.62 324.02,-162.45"/>
</a>
</g>
</g>
<!-- Node3 -->
<g id="Node000003" class="node">
<title>Node3</title>
<g id="a_Node000003"><a xlink:href="attitude_8cpp.html#af64a8516da71e0d4f37682b1935fdca3" target="_top" xlink:title="Yaw model for GLONASS sats Returns false if no modelled yaw available Ref: https://igsac&#45;cnes....">
<path fill="#fff0f0" stroke="red" d="M68.17,-207C68.17,-207 13.83,-207 13.83,-207 10.67,-207 7.5,-203.83 7.5,-200.67 7.5,-200.67 7.5,-194.33 7.5,-194.33 7.5,-191.17 10.67,-188 13.83,-188 13.83,-188 68.17,-188 68.17,-188 71.33,-188 74.5,-191.17 74.5,-194.33 74.5,-194.33 74.5,-200.67 74.5,-200.67 74.5,-203.83 71.33,-207 68.17,-207"/>
<text text-anchor="middle" x="41" y="-195" font-family="Helvetica,sans-Serif" font-size="10.00">satYawGlo</text>
</a>
</g>
</g>
<!-- Node1&#45;&gt;Node3 -->
<g id="edge6_Node000001_Node000003" class="edge">
<title>Node1&#45;&gt;Node3</title>
<g id="a_edge6_Node000001_Node000003"><a xlink:title=" ">
<path fill="none" stroke="#63b8ff" d="M259.23,-132.05C216.96,-128.65 163.36,-128.91 118,-143.5 90.57,-152.32 64.54,-174.98 51.23,-187.97"/>
<polygon fill="#63b8ff" stroke="#63b8ff" points="259.18,-135.56 269.45,-132.96 259.8,-128.59 259.18,-135.56"/>
</a>
</g>
</g>
<!-- Node19 -->
<g id="Node000019" class="node">
<title>Node19</title>
<g id="a_Node000019"><a xlink:href="attitude_8cpp.html#a21b7413e5d98632f35b2e26ebcbacaf8" target="_top" xlink:title="Calculates nominal yaw rate.">
<path fill="#fff0f0" stroke="red" d="M218.17,-245C218.17,-245 132.83,-245 132.83,-245 129.67,-245 126.5,-241.83 126.5,-238.67 126.5,-238.67 126.5,-232.33 126.5,-232.33 126.5,-229.17 129.67,-226 132.83,-226 132.83,-226 218.17,-226 218.17,-226 221.33,-226 224.5,-229.17 224.5,-232.33 224.5,-232.33 224.5,-238.67 224.5,-238.67 224.5,-241.83 221.33,-245 218.17,-245"/>
<text text-anchor="middle" x="175.5" y="-233" font-family="Helvetica,sans-Serif" font-size="10.00">nominalYawRate</text>
</a>
</g>
</g>
<!-- Node1&#45;&gt;Node19 -->
<g id="edge3_Node000001_Node000019" class="edge">
<title>Node1&#45;&gt;Node19</title>
<g id="a_edge3_Node000001_Node000019"><a xlink:title=" ">
<path fill="none" stroke="#63b8ff" d="M314.71,-158.89C295.71,-175.64 264.13,-201.4 233,-217.5 226.69,-220.76 219.68,-223.57 212.8,-225.94"/>
<polygon fill="#63b8ff" stroke="#63b8ff" points="317.16,-161.39 322.27,-152.11 312.49,-156.18 317.16,-161.39"/>
</a>
</g>
</g>
<!-- Node21 -->
<g id="Node000021" class="node">
<title>Node21</title>
<g id="a_Node000021"><a xlink:href="attitude_8cpp.html#a72b1b0bdafc8daa3b75faa96049b514f" target="_top" xlink:title="Yaw model for BDS&#45;3I/3M satellites Ref: https://doi.org/10.1007/s10291&#45;018&#45;0783&#45;1 https://doi....">
<path fill="#fff0f0" stroke="red" d="M206.17,-208C206.17,-208 144.83,-208 144.83,-208 141.67,-208 138.5,-204.83 138.5,-201.67 138.5,-201.67 138.5,-195.33 138.5,-195.33 138.5,-192.17 141.67,-189 144.83,-189 144.83,-189 206.17,-189 206.17,-189 209.33,-189 212.5,-192.17 212.5,-195.33 212.5,-195.33 212.5,-201.67 212.5,-201.67 212.5,-204.83 209.33,-208 206.17,-208"/>
<text text-anchor="middle" x="175.5" y="-196" font-family="Helvetica,sans-Serif" font-size="10.00">satYawBds3</text>
</a>
</g>
</g>
<!-- Node1&#45;&gt;Node21 -->
<g id="edge4_Node000001_Node000021" class="edge">
<title>Node1&#45;&gt;Node21</title>
<g id="a_edge4_Node000001_Node000021"><a xlink:title=" ">
<path fill="none" stroke="#63b8ff" d="M299,-155.83C279.78,-163.35 255.15,-172.75 233,-180.5 224.84,-183.36 215.95,-186.28 207.69,-188.91"/>
<polygon fill="#63b8ff" stroke="#63b8ff" points="300.49,-159.01 308.51,-152.1 297.93,-152.5 300.49,-159.01"/>
</a>
</g>
</g>
<!-- Node23 -->
<g id="Node000023" class="node">
<title>Node23</title>
<g id="a_Node000023"><a xlink:href="attitude_8cpp.html#abdce260d1dd40f5c15f4003e87bafd3b" target="_top" xlink:title="Yaw model for GAL FOC sats.">
<path fill="#fff0f0" stroke="red" d="M210.67,-171C210.67,-171 140.33,-171 140.33,-171 137.17,-171 134,-167.83 134,-164.67 134,-164.67 134,-158.33 134,-158.33 134,-155.17 137.17,-152 140.33,-152 140.33,-152 210.67,-152 210.67,-152 213.83,-152 217,-155.17 217,-158.33 217,-158.33 217,-164.67 217,-164.67 217,-167.83 213.83,-171 210.67,-171"/>
<text text-anchor="middle" x="175.5" y="-159" font-family="Helvetica,sans-Serif" font-size="10.00">satYawGalFoc</text>
</a>
</g>
</g>
<!-- Node1&#45;&gt;Node23 -->
<g id="edge5_Node000001_Node000023" class="edge">
<title>Node1&#45;&gt;Node23</title>
<g id="a_edge5_Node000001_Node000023"><a xlink:title=" ">
<path fill="none" stroke="#63b8ff" d="M258.36,-151.53C244.22,-153.25 229.91,-155 217.29,-156.53"/>
<polygon fill="#63b8ff" stroke="#63b8ff" points="259.1,-154.97 268.6,-150.28 258.25,-148.02 259.1,-154.97"/>
</a>
</g>
</g>
<!-- Node24 -->
<g id="Node000024" class="node">
<title>Node24</title>
<g id="a_Node000024"><a xlink:href="attitude_8cpp.html#a46cec52b21a1c337c0ca23eba28f5bca" target="_top" xlink:title="Yaw model for GPS&#45;IIA sats Ref: http://acc.igs.org/orbits/EclipseReadMe.pdf Ref: https://igsac&#45;cnes....">
<path fill="#fff0f0" stroke="red" d="M75.67,-85C75.67,-85 6.33,-85 6.33,-85 3.17,-85 0,-81.83 0,-78.67 0,-78.67 0,-72.33 0,-72.33 0,-69.17 3.17,-66 6.33,-66 6.33,-66 75.67,-66 75.67,-66 78.83,-66 82,-69.17 82,-72.33 82,-72.33 82,-78.67 82,-78.67 82,-81.83 78.83,-85 75.67,-85"/>
<text text-anchor="middle" x="41" y="-73" font-family="Helvetica,sans-Serif" font-size="10.00">satYawGpsIIA</text>
</a>
</g>
</g>
<!-- Node1&#45;&gt;Node24 -->
<g id="edge7_Node000001_Node000024" class="edge">
<title>Node1&#45;&gt;Node24</title>
<g id="a_edge7_Node000001_Node000024"><a xlink:title=" ">
<path fill="none" stroke="#63b8ff" d="M281.34,-130.7C224.58,-117.61 134.17,-96.76 82.24,-84.78"/>
<polygon fill="#63b8ff" stroke="#63b8ff" points="280.66,-134.13 291.19,-132.97 282.23,-127.31 280.66,-134.13"/>
</a>
</g>
</g>
<!-- Node25 -->
<g id="Node000025" class="node">
<title>Node25</title>
<g id="a_Node000025"><a xlink:href="attitude_8cpp.html#af06aa2920ea6c715fd8973e86ab0822f" target="_top" xlink:title="Yaw model for GPS&#45;IIF sats Ref: https://www.researchgate.net/publication/306924379_Observed_features_...">
<path fill="#fff0f0" stroke="red" d="M75.17,-38C75.17,-38 6.83,-38 6.83,-38 3.67,-38 0.5,-34.83 0.5,-31.67 0.5,-31.67 0.5,-25.33 0.5,-25.33 0.5,-22.17 3.67,-19 6.83,-19 6.83,-19 75.17,-19 75.17,-19 78.33,-19 81.5,-22.17 81.5,-25.33 81.5,-25.33 81.5,-31.67 81.5,-31.67 81.5,-34.83 78.33,-38 75.17,-38"/>
<text text-anchor="middle" x="41" y="-26" font-family="Helvetica,sans-Serif" font-size="10.00">satYawGpsIIF</text>
</a>
</g>
</g>
<!-- Node1&#45;&gt;Node25 -->
<g id="edge8_Node000001_Node000025" class="edge">
<title>Node1&#45;&gt;Node25</title>
<g id="a_edge8_Node000001_Node000025"><a xlink:title=" ">
<path fill="none" stroke="#63b8ff" d="M308.46,-127.75C288.71,-116.04 259.71,-99.82 233,-88.5 181.32,-66.6 118.83,-48.45 79.74,-38.04"/>
<polygon fill="#63b8ff" stroke="#63b8ff" points="306.73,-130.79 317.11,-132.93 310.33,-124.79 306.73,-130.79"/>
</a>
</g>
</g>
<!-- Node26 -->
<g id="Node000026" class="node">
<title>Node26</title>
<g id="a_Node000026"><a xlink:href="attitude_8cpp.html#a43e7b17b62853da813d5289667b3284e" target="_top" xlink:title="Yaw model for GPS&#45;IIR sats Ref: http://acc.igs.org/orbits/EclipseReadMe.pdf Ref: https://igsac&#45;cnes....">
<path fill="#fff0f0" stroke="red" d="M210.17,-19C210.17,-19 140.83,-19 140.83,-19 137.67,-19 134.5,-15.83 134.5,-12.67 134.5,-12.67 134.5,-6.33 134.5,-6.33 134.5,-3.17 137.67,0 140.83,0 140.83,0 210.17,0 210.17,0 213.33,0 216.5,-3.17 216.5,-6.33 216.5,-6.33 216.5,-12.67 216.5,-12.67 216.5,-15.83 213.33,-19 210.17,-19"/>
<text text-anchor="middle" x="175.5" y="-7" font-family="Helvetica,sans-Serif" font-size="10.00">satYawGpsIIR</text>
</a>
</g>
</g>
<!-- Node1&#45;&gt;Node26 -->
<g id="edge9_Node000001_Node000026" class="edge">
<title>Node1&#45;&gt;Node26</title>
<g id="a_edge9_Node000001_Node000026"><a xlink:title=" ">
<path fill="none" stroke="#63b8ff" d="M319.85,-124.37C302.57,-100.74 269.55,-59.39 233,-33.5 224.74,-27.65 214.83,-22.83 205.63,-19.09"/>
<polygon fill="#63b8ff" stroke="#63b8ff" points="317.2,-126.68 325.87,-132.77 322.89,-122.6 317.2,-126.68"/>
</a>
</g>
</g>
<!-- Node2&#45;&gt;Node3 -->
<g id="edge2_Node000002_Node000003" class="edge">
<title>Node2&#45;&gt;Node3</title>
<g id="a_edge2_Node000002_Node000003"><a xlink:title=" ">
<path fill="none" stroke="#63b8ff" d="M128.53,-259.31C124.91,-257.83 121.35,-256.23 118,-254.5 92.49,-241.35 66.55,-219.74 52.55,-207.25"/>
<polygon fill="#63b8ff" stroke="#63b8ff" points="127.62,-262.7 138.21,-262.93 130.07,-256.15 127.62,-262.7"/>
</a>
</g>
</g>
<!-- Node26&#45;&gt;Node24 -->
<g id="edge10_Node000026_Node000024" class="edge">
<title>Node26&#45;&gt;Node24</title>
<g id="a_edge10_Node000026_Node000024"><a xlink:title=" ">
<path fill="none" stroke="#63b8ff" d="M146.04,-23.68C120.45,-36.42 83.58,-54.79 61.29,-65.89"/>
<polygon fill="#63b8ff" stroke="#63b8ff" points="147.84,-26.69 155.23,-19.1 144.72,-20.42 147.84,-26.69"/>
</a>
</g>
</g>
<!-- Node26&#45;&gt;Node25 -->
<g id="edge11_Node000026_Node000025" class="edge">
<title>Node26&#45;&gt;Node25</title>
<g id="a_edge11_Node000026_Node000025"><a xlink:title=" ">
<path fill="none" stroke="#63b8ff" d="M124.3,-16.7C110.15,-18.73 94.95,-20.91 81.52,-22.83"/>
<polygon fill="#63b8ff" stroke="#63b8ff" points="124.98,-20.14 134.39,-15.25 123.99,-13.21 124.98,-20.14"/>
</a>
</g>
</g>
</g>
</svg>
