<?xml version="1.0" encoding="UTF-8" standalone="no"?>
<!DOCTYPE svg PUBLIC "-//W3C//DTD SVG 1.1//EN"
 "http://www.w3.org/Graphics/SVG/1.1/DTD/svg11.dtd">
<!-- Generated by graphviz version 2.43.0 (0)
 -->
<!-- Title: calculateBias Pages: 1 -->
<svg width="218pt" height="64pt"
 viewBox="0.00 0.00 218.00 64.00" xmlns="http://www.w3.org/2000/svg" xmlns:xlink="http://www.w3.org/1999/xlink">
<g id="graph0" class="graph" transform="scale(1 1) rotate(0) translate(4 60)">
<title>calculateBias</title>
<!-- Node1 -->
<g id="Node000001" class="node">
<title>Node1</title>
<g id="a_Node000001"><a xlink:href="biases_8cpp.html#ac35aee460f932095f5be80ed33f9fa74" target="_top" xlink:title=" ">
<path fill="#fff0f0" stroke="red" stroke-width="2" d="M75.67,-37C75.67,-37 6.33,-37 6.33,-37 3.17,-37 0,-33.83 0,-30.67 0,-30.67 0,-24.33 0,-24.33 0,-21.17 3.17,-18 6.33,-18 6.33,-18 75.67,-18 75.67,-18 78.83,-18 82,-21.17 82,-24.33 82,-24.33 82,-30.67 82,-30.67 82,-33.83 78.83,-37 75.67,-37"/>
<text text-anchor="middle" x="41" y="-25" font-family="Helvetica,sans-Serif" font-size="10.00">calculateBias</text>
</a>
</g>
</g>
<!-- Node2 -->
<g id="Node000002" class="node">
<title>Node2</title>
<g id="a_Node000002"><a xlink:href="structGTime.html#aaa8a379d11cd6c040a6bbe680c0e913e" target="_top" xlink:title="Uninitialised time for comparisons.">
<path fill="#fff0f0" stroke="red" d="M203.67,-56C203.67,-56 124.33,-56 124.33,-56 121.17,-56 118,-52.83 118,-49.67 118,-49.67 118,-43.33 118,-43.33 118,-40.17 121.17,-37 124.33,-37 124.33,-37 203.67,-37 203.67,-37 206.83,-37 210,-40.17 210,-43.33 210,-43.33 210,-49.67 210,-49.67 210,-52.83 206.83,-56 203.67,-56"/>
<text text-anchor="middle" x="164" y="-44" font-family="Helvetica,sans-Serif" font-size="10.00">GTime::noTime</text>
</a>
</g>
</g>
<!-- Node1&#45;&gt;Node2 -->
<g id="edge1_Node000001_Node000002" class="edge">
<title>Node1&#45;&gt;Node2</title>
<g id="a_edge1_Node000001_Node000002"><a xlink:title=" ">
<path fill="none" stroke="#63b8ff" d="M82.29,-33.83C90.49,-35.11 99.26,-36.49 107.87,-37.84"/>
<polygon fill="#63b8ff" stroke="#63b8ff" points="107.45,-41.32 117.88,-39.41 108.54,-34.41 107.45,-41.32"/>
</a>
</g>
</g>
<!-- Node3 -->
<g id="Node000003" class="node">
<title>Node3</title>
<g id="a_Node000003"><a xlink:href="biases_8cpp.html#a20480b486ae340ec77ab235e5d5ee38c" target="_top" xlink:title=" ">
<path fill="#fff0f0" stroke="red" d="M203.17,-19C203.17,-19 124.83,-19 124.83,-19 121.67,-19 118.5,-15.83 118.5,-12.67 118.5,-12.67 118.5,-6.33 118.5,-6.33 118.5,-3.17 121.67,0 124.83,0 124.83,0 203.17,0 203.17,0 206.33,0 209.5,-3.17 209.5,-6.33 209.5,-6.33 209.5,-12.67 209.5,-12.67 209.5,-15.83 206.33,-19 203.17,-19"/>
<text text-anchor="middle" x="164" y="-7" font-family="Helvetica,sans-Serif" font-size="10.00">interpolateBias</text>
</a>
</g>
</g>
<!-- Node1&#45;&gt;Node3 -->
<g id="edge2_Node000001_Node000003" class="edge">
<title>Node1&#45;&gt;Node3</title>
<g id="a_edge2_Node000001_Node000003"><a xlink:title=" ">
<path fill="none" stroke="#63b8ff" d="M82.29,-21.51C90.59,-20.27 99.47,-18.95 108.18,-17.65"/>
<polygon fill="#63b8ff" stroke="#63b8ff" points="108.92,-21.08 118.3,-16.15 107.89,-14.16 108.92,-21.08"/>
</a>
</g>
</g>
</g>
</svg>
