<?xml version="1.0" encoding="UTF-8" standalone="no"?>
<!DOCTYPE svg PUBLIC "-//W3C//DTD SVG 1.1//EN"
 "http://www.w3.org/Graphics/SVG/1.1/DTD/svg11.dtd">
<!-- Generated by graphviz version 2.43.0 (0)
 -->
<!-- Title: calculateBias Pages: 1 -->
<svg width="206pt" height="45pt"
 viewBox="0.00 0.00 206.00 45.00" xmlns="http://www.w3.org/2000/svg" xmlns:xlink="http://www.w3.org/1999/xlink">
<g id="graph0" class="graph" transform="scale(1 1) rotate(0) translate(4 41)">
<title>calculateBias</title>
<!-- Node1 -->
<g id="Node000001" class="node">
<title>Node1</title>
<g id="a_Node000001"><a xlink:href="biases_8cpp.html#ac35aee460f932095f5be80ed33f9fa74" target="_top" xlink:title=" ">
<path fill="#fff0f0" stroke="red" stroke-width="2" d="M191.67,-19C191.67,-19 122.33,-19 122.33,-19 119.17,-19 116,-15.83 116,-12.67 116,-12.67 116,-6.33 116,-6.33 116,-3.17 119.17,0 122.33,0 122.33,0 191.67,0 191.67,0 194.83,0 198,-3.17 198,-6.33 198,-6.33 198,-12.67 198,-12.67 198,-15.83 194.83,-19 191.67,-19"/>
<text text-anchor="middle" x="157" y="-7" font-family="Helvetica,sans-Serif" font-size="10.00">calculateBias</text>
</a>
</g>
</g>
<!-- Node2 -->
<g id="Node000002" class="node">
<title>Node2</title>
<g id="a_Node000002"><a xlink:href="biases_8cpp.html#a6773866b48aa86a6f6b6a609706ca1e4" target="_top" xlink:title="Recurser of bias chaining, i.e.">
<path fill="#fff0f0" stroke="red" d="M73.67,-19C73.67,-19 6.33,-19 6.33,-19 3.17,-19 0,-15.83 0,-12.67 0,-12.67 0,-6.33 0,-6.33 0,-3.17 3.17,0 6.33,0 6.33,0 73.67,0 73.67,0 76.83,0 80,-3.17 80,-6.33 80,-6.33 80,-12.67 80,-12.67 80,-15.83 76.83,-19 73.67,-19"/>
<text text-anchor="middle" x="40" y="-7" font-family="Helvetica,sans-Serif" font-size="10.00">biasRecurser</text>
</a>
</g>
</g>
<!-- Node1&#45;&gt;Node2 -->
<g id="edge1_Node000001_Node000002" class="edge">
<title>Node1&#45;&gt;Node2</title>
<g id="a_edge1_Node000001_Node000002"><a xlink:title=" ">
<path fill="none" stroke="#63b8ff" d="M105.58,-9.5C97.08,-9.5 88.38,-9.5 80.23,-9.5"/>
<polygon fill="#63b8ff" stroke="#63b8ff" points="105.78,-13 115.78,-9.5 105.78,-6 105.78,-13"/>
</a>
</g>
</g>
<!-- Node2&#45;&gt;Node2 -->
<g id="edge2_Node000002_Node000002" class="edge">
<title>Node2&#45;&gt;Node2</title>
<g id="a_edge2_Node000002_Node000002"><a xlink:title=" ">
<path fill="none" stroke="#63b8ff" d="M61.48,-28.55C60.05,-33.38 52.89,-37 40,-37 19.38,-37 13.42,-27.73 22.12,-19.08"/>
<polygon fill="#63b8ff" stroke="#63b8ff" points="64.7,-27.19 57.88,-19.08 58.16,-29.67 64.7,-27.19"/>
</a>
</g>
</g>
</g>
</svg>
