<?xml version="1.0" encoding="UTF-8" standalone="no"?>
<!DOCTYPE svg PUBLIC "-//W3C//DTD SVG 1.1//EN"
 "http://www.w3.org/Graphics/SVG/1.1/DTD/svg11.dtd">
<!-- Generated by graphviz version 2.43.0 (0)
 -->
<!-- Title: biasRecurser Pages: 1 -->
<svg width="256pt" height="64pt"
 viewBox="0.00 0.00 256.00 64.00" xmlns="http://www.w3.org/2000/svg" xmlns:xlink="http://www.w3.org/1999/xlink">
<g id="graph0" class="graph" transform="scale(1 1) rotate(0) translate(4 60)">
<title>biasRecurser</title>
<!-- Node1 -->
<g id="Node000001" class="node">
<title>Node1</title>
<g id="a_Node000001"><a xlink:href="biases_8cpp.html#a3dde985df8b970e9d9a640c08868969b" target="_top" xlink:title="Recurser of bias chaining, i.e.">
<path fill="#fff0f0" stroke="red" stroke-width="2" d="M73.67,-37C73.67,-37 6.33,-37 6.33,-37 3.17,-37 0,-33.83 0,-30.67 0,-30.67 0,-24.33 0,-24.33 0,-21.17 3.17,-18 6.33,-18 6.33,-18 73.67,-18 73.67,-18 76.83,-18 80,-21.17 80,-24.33 80,-24.33 80,-30.67 80,-30.67 80,-33.83 76.83,-37 73.67,-37"/>
<text text-anchor="middle" x="40" y="-25" font-family="Helvetica,sans-Serif" font-size="10.00">biasRecurser</text>
</a>
</g>
</g>
<!-- Node1&#45;&gt;Node1 -->
<g id="edge1_Node000001_Node000001" class="edge">
<title>Node1&#45;&gt;Node1</title>
<g id="a_edge1_Node000001_Node000001"><a xlink:title=" ">
<path fill="none" stroke="#63b8ff" d="M18.11,-37.08C7.47,-45.73 14.76,-55 40,-55 56.17,-55 64.97,-51.2 66.41,-46.19"/>
<polygon fill="#63b8ff" stroke="#63b8ff" points="69.47,-44.48 61.89,-37.08 63.2,-47.6 69.47,-44.48"/>
</a>
</g>
</g>
<!-- Node2 -->
<g id="Node000002" class="node">
<title>Node2</title>
<g id="a_Node000002"><a xlink:href="biases_8cpp.html#ae2c152c632df4d2be43398c1a39e9748" target="_top" xlink:title=" ">
<path fill="#fff0f0" stroke="red" d="M241.67,-56C241.67,-56 122.33,-56 122.33,-56 119.17,-56 116,-52.83 116,-49.67 116,-49.67 116,-43.33 116,-43.33 116,-40.17 119.17,-37 122.33,-37 122.33,-37 241.67,-37 241.67,-37 244.83,-37 248,-40.17 248,-43.33 248,-43.33 248,-49.67 248,-49.67 248,-52.83 244.83,-56 241.67,-56"/>
<text text-anchor="middle" x="182" y="-44" font-family="Helvetica,sans-Serif" font-size="10.00">setRestrictiveStartTime</text>
</a>
</g>
</g>
<!-- Node1&#45;&gt;Node2 -->
<g id="edge2_Node000001_Node000002" class="edge">
<title>Node1&#45;&gt;Node2</title>
<g id="a_edge2_Node000001_Node000002"><a xlink:title=" ">
<path fill="none" stroke="#63b8ff" d="M80.37,-32.84C88.42,-33.94 97.14,-35.12 105.98,-36.32"/>
<polygon fill="#63b8ff" stroke="#63b8ff" points="105.58,-39.8 115.96,-37.67 106.52,-32.86 105.58,-39.8"/>
</a>
</g>
</g>
<!-- Node3 -->
<g id="Node000003" class="node">
<title>Node3</title>
<g id="a_Node000003"><a xlink:href="biases_8cpp.html#a498a9e57eece625ada36154eb3745803" target="_top" xlink:title=" ">
<path fill="#fff0f0" stroke="red" d="M239.17,-19C239.17,-19 124.83,-19 124.83,-19 121.67,-19 118.5,-15.83 118.5,-12.67 118.5,-12.67 118.5,-6.33 118.5,-6.33 118.5,-3.17 121.67,0 124.83,0 124.83,0 239.17,0 239.17,0 242.33,0 245.5,-3.17 245.5,-6.33 245.5,-6.33 245.5,-12.67 245.5,-12.67 245.5,-15.83 242.33,-19 239.17,-19"/>
<text text-anchor="middle" x="182" y="-7" font-family="Helvetica,sans-Serif" font-size="10.00">setRestrictiveEndTime</text>
</a>
</g>
</g>
<!-- Node1&#45;&gt;Node3 -->
<g id="edge3_Node000001_Node000003" class="edge">
<title>Node1&#45;&gt;Node3</title>
<g id="a_edge3_Node000001_Node000003"><a xlink:title=" ">
<path fill="none" stroke="#63b8ff" d="M80.37,-22.44C89.13,-21.31 98.7,-20.08 108.32,-18.84"/>
<polygon fill="#63b8ff" stroke="#63b8ff" points="108.88,-22.3 118.35,-17.55 107.99,-15.36 108.88,-22.3"/>
</a>
</g>
</g>
</g>
</svg>
