<?xml version="1.0" encoding="UTF-8" standalone="no"?>
<!DOCTYPE svg PUBLIC "-//W3C//DTD SVG 1.1//EN"
 "http://www.w3.org/Graphics/SVG/1.1/DTD/svg11.dtd">
<!-- Generated by graphviz version 2.43.0 (0)
 -->
<!-- Title: read_biasSINEX_line Pages: 1 -->
<svg width="255pt" height="212pt"
 viewBox="0.00 0.00 255.00 212.00" xmlns="http://www.w3.org/2000/svg" xmlns:xlink="http://www.w3.org/1999/xlink">
<g id="graph0" class="graph" transform="scale(1 1) rotate(0) translate(4 208)">
<title>read_biasSINEX_line</title>
<!-- Node1 -->
<g id="Node000001" class="node">
<title>Node1</title>
<g id="a_Node000001"><a xlink:href="biasSINEXread_8cpp.html#a3f0946f586f8337c5d03d50c09d7bc52" target="_top" xlink:title="Read data line in bias SINEX file.">
<path fill="#fff0f0" stroke="red" stroke-width="2" d="M109.67,-130C109.67,-130 6.33,-130 6.33,-130 3.17,-130 0,-126.83 0,-123.67 0,-123.67 0,-117.33 0,-117.33 0,-114.17 3.17,-111 6.33,-111 6.33,-111 109.67,-111 109.67,-111 112.83,-111 116,-114.17 116,-117.33 116,-117.33 116,-123.67 116,-123.67 116,-126.83 112.83,-130 109.67,-130"/>
<text text-anchor="middle" x="58" y="-118" font-family="Helvetica,sans-Serif" font-size="10.00">read_biasSINEX_line</text>
</a>
</g>
</g>
<!-- Node2 -->
<g id="Node000002" class="node">
<title>Node2</title>
<g id="a_Node000002"><a xlink:href="biasSINEXread_8cpp.html#a4bffe1ef2eba2828588d627449699cbe" target="_top" xlink:title="Convert observation code string to enum code.">
<path fill="#fff0f0" stroke="red" d="M222.67,-204C222.67,-204 176.33,-204 176.33,-204 173.17,-204 170,-200.83 170,-197.67 170,-197.67 170,-191.33 170,-191.33 170,-188.17 173.17,-185 176.33,-185 176.33,-185 222.67,-185 222.67,-185 225.83,-185 229,-188.17 229,-191.33 229,-191.33 229,-197.67 229,-197.67 229,-200.83 225.83,-204 222.67,-204"/>
<text text-anchor="middle" x="199.5" y="-192" font-family="Helvetica,sans-Serif" font-size="10.00">str2code</text>
</a>
</g>
</g>
<!-- Node1&#45;&gt;Node2 -->
<g id="edge1_Node000001_Node000002" class="edge">
<title>Node1&#45;&gt;Node2</title>
<g id="a_edge1_Node000001_Node000002"><a xlink:title=" ">
<path fill="none" stroke="#63b8ff" d="M84.78,-130.12C103.08,-140.45 128.48,-155.97 152,-167.5 161.26,-172.04 171.98,-176.25 180.78,-180.37"/>
<polygon fill="#63b8ff" stroke="#63b8ff" points="179.25,-183.51 189.74,-184.98 182.45,-177.29 179.25,-183.51"/>
</a>
</g>
</g>
<!-- Node1&#45;&gt;Node2 -->
<g id="edge2_Node000001_Node000002" class="edge">
<title>Node1&#45;&gt;Node2</title>
<g id="a_edge2_Node000001_Node000002"><a xlink:title=" ">
<path fill="none" stroke="#63b8ff" d="M66,-130.13C81.18,-144.56 118.49,-169.08 152,-185.5 154.62,-186.79 157.36,-188.05 160.14,-189.24"/>
<polygon fill="#63b8ff" stroke="#63b8ff" points="159.05,-192.58 169.64,-193.02 161.64,-186.07 159.05,-192.58"/>
</a>
</g>
</g>
<!-- Node3 -->
<g id="Node000003" class="node">
<title>Node3</title>
<g id="a_Node000003"><a xlink:href="biasSINEXread_8cpp.html#a02e220f170d09398d4bac63d463a8ef0" target="_top" xlink:title="Convert time string in bias SINEX to gtime struct.">
<path fill="#fff0f0" stroke="red" d="M240.67,-167C240.67,-167 158.33,-167 158.33,-167 155.17,-167 152,-163.83 152,-160.67 152,-160.67 152,-154.33 152,-154.33 152,-151.17 155.17,-148 158.33,-148 158.33,-148 240.67,-148 240.67,-148 243.83,-148 247,-151.17 247,-154.33 247,-154.33 247,-160.67 247,-160.67 247,-163.83 243.83,-167 240.67,-167"/>
<text text-anchor="middle" x="199.5" y="-155" font-family="Helvetica,sans-Serif" font-size="10.00">sinex_time_text</text>
</a>
</g>
</g>
<!-- Node1&#45;&gt;Node3 -->
<g id="edge3_Node000001_Node000003" class="edge">
<title>Node1&#45;&gt;Node3</title>
<g id="a_edge3_Node000001_Node000003"><a xlink:title=" ">
<path fill="none" stroke="#63b8ff" d="M116.14,-129.01C135.03,-133.72 155.19,-139.44 170.84,-144.65"/>
<polygon fill="#63b8ff" stroke="#63b8ff" points="169.82,-148 180.41,-147.99 172.12,-141.39 169.82,-148"/>
</a>
</g>
</g>
<!-- Node1&#45;&gt;Node3 -->
<g id="edge4_Node000001_Node000003" class="edge">
<title>Node1&#45;&gt;Node3</title>
<g id="a_edge4_Node000001_Node000003"><a xlink:title=" ">
<path fill="none" stroke="#63b8ff" d="M77.24,-130.07C93.72,-136.1 118.86,-143.4 141.99,-149.15"/>
<polygon fill="#63b8ff" stroke="#63b8ff" points="141.21,-152.56 151.75,-151.51 142.85,-145.76 141.21,-152.56"/>
</a>
</g>
</g>
<!-- Node5 -->
<g id="Node000005" class="node">
<title>Node5</title>
<g id="a_Node000005"><a xlink:href="structGTime.html#aaa8a379d11cd6c040a6bbe680c0e913e" target="_top" xlink:title="Uninitialised time for comparisons.">
<path fill="#fff0f0" stroke="red" d="M239.17,-130C239.17,-130 159.83,-130 159.83,-130 156.67,-130 153.5,-126.83 153.5,-123.67 153.5,-123.67 153.5,-117.33 153.5,-117.33 153.5,-114.17 156.67,-111 159.83,-111 159.83,-111 239.17,-111 239.17,-111 242.33,-111 245.5,-114.17 245.5,-117.33 245.5,-117.33 245.5,-123.67 245.5,-123.67 245.5,-126.83 242.33,-130 239.17,-130"/>
<text text-anchor="middle" x="199.5" y="-118" font-family="Helvetica,sans-Serif" font-size="10.00">GTime::noTime</text>
</a>
</g>
</g>
<!-- Node1&#45;&gt;Node5 -->
<g id="edge5_Node000001_Node000005" class="edge">
<title>Node1&#45;&gt;Node5</title>
<g id="a_edge5_Node000001_Node000005"><a xlink:title=" ">
<path fill="none" stroke="#63b8ff" d="M116.14,-113.85C125.01,-113.71 134.16,-113.72 142.99,-113.88"/>
<polygon fill="#63b8ff" stroke="#63b8ff" points="143.1,-117.38 153.18,-114.13 143.27,-110.38 143.1,-117.38"/>
</a>
</g>
</g>
<!-- Node1&#45;&gt;Node5 -->
<g id="edge6_Node000001_Node000005" class="edge">
<title>Node1&#45;&gt;Node5</title>
<g id="a_edge6_Node000001_Node000005"><a xlink:title=" ">
<path fill="none" stroke="#63b8ff" d="M116.14,-127.15C125.01,-127.29 134.16,-127.28 142.99,-127.12"/>
<polygon fill="#63b8ff" stroke="#63b8ff" points="143.27,-130.62 153.18,-126.87 143.1,-123.62 143.27,-130.62"/>
</a>
</g>
</g>
<!-- Node6 -->
<g id="Node000006" class="node">
<title>Node6</title>
<g id="a_Node000006"><a xlink:href="structSatSys.html#aec6d07b90d1e8172b8b6a6966abef4fd" target="_top" xlink:title="Returns a std::string of this satellite&#39;s id.">
<path fill="#fff0f0" stroke="red" d="M225.67,-93C225.67,-93 173.33,-93 173.33,-93 170.17,-93 167,-89.83 167,-86.67 167,-86.67 167,-80.33 167,-80.33 167,-77.17 170.17,-74 173.33,-74 173.33,-74 225.67,-74 225.67,-74 228.83,-74 232,-77.17 232,-80.33 232,-80.33 232,-86.67 232,-86.67 232,-89.83 228.83,-93 225.67,-93"/>
<text text-anchor="middle" x="199.5" y="-81" font-family="Helvetica,sans-Serif" font-size="10.00">SatSys::id</text>
</a>
</g>
</g>
<!-- Node1&#45;&gt;Node6 -->
<g id="edge7_Node000001_Node000006" class="edge">
<title>Node1&#45;&gt;Node6</title>
<g id="a_edge7_Node000001_Node000006"><a xlink:title=" ">
<path fill="none" stroke="#63b8ff" d="M77.24,-110.93C97.41,-103.55 130.56,-94.26 157.11,-88.25"/>
<polygon fill="#63b8ff" stroke="#63b8ff" points="157.89,-91.66 166.92,-86.12 156.41,-84.82 157.89,-91.66"/>
</a>
</g>
</g>
<!-- Node1&#45;&gt;Node6 -->
<g id="edge9_Node000001_Node000006" class="edge">
<title>Node1&#45;&gt;Node6</title>
<g id="a_edge9_Node000001_Node000006"><a xlink:title=" ">
<path fill="none" stroke="#63b8ff" d="M116.14,-111.99C135.03,-107.28 155.19,-101.56 170.84,-96.35"/>
<polygon fill="#63b8ff" stroke="#63b8ff" points="172.12,-99.61 180.41,-93.01 169.82,-93 172.12,-99.61"/>
</a>
</g>
</g>
<!-- Node9 -->
<g id="Node000009" class="node">
<title>Node9</title>
<g id="a_Node000009"><a xlink:href="biases_8cpp.html#ad7402956db3836fc8dbe7b8b51d04c69" target="_top" xlink:title="Push forward and reverse bias entry into biasMaps.">
<path fill="#fff0f0" stroke="red" d="M236.17,-56C236.17,-56 162.83,-56 162.83,-56 159.67,-56 156.5,-52.83 156.5,-49.67 156.5,-49.67 156.5,-43.33 156.5,-43.33 156.5,-40.17 159.67,-37 162.83,-37 162.83,-37 236.17,-37 236.17,-37 239.33,-37 242.5,-40.17 242.5,-43.33 242.5,-43.33 242.5,-49.67 242.5,-49.67 242.5,-52.83 239.33,-56 236.17,-56"/>
<text text-anchor="middle" x="199.5" y="-44" font-family="Helvetica,sans-Serif" font-size="10.00">pushBiasEntry</text>
</a>
</g>
</g>
<!-- Node1&#45;&gt;Node9 -->
<g id="edge8_Node000001_Node000009" class="edge">
<title>Node1&#45;&gt;Node9</title>
<g id="a_edge8_Node000001_Node000009"><a xlink:title=" ">
<path fill="none" stroke="#63b8ff" d="M66.5,-110.59C80.77,-97.57 113.14,-76.66 147.16,-59.05"/>
<polygon fill="#63b8ff" stroke="#63b8ff" points="148.96,-62.06 156.3,-54.42 145.8,-55.82 148.96,-62.06"/>
</a>
</g>
</g>
<!-- Node1&#45;&gt;Node9 -->
<g id="edge10_Node000001_Node000009" class="edge">
<title>Node1&#45;&gt;Node9</title>
<g id="a_edge10_Node000001_Node000009"><a xlink:title=" ">
<path fill="none" stroke="#63b8ff" d="M85.68,-110.93C103.97,-100.88 128.98,-85.93 152,-74.5 161.42,-69.82 172.29,-65.33 181.14,-60.95"/>
<polygon fill="#63b8ff" stroke="#63b8ff" points="183.01,-63.92 190.11,-56.05 179.65,-57.78 183.01,-63.92"/>
</a>
</g>
</g>
<!-- Node8 -->
<g id="Node000008" class="node">
<title>Node8</title>
<g id="a_Node000008"><a xlink:href="structSatSys.html#abfd7e43b0d57c2718d05ca595ee360dd" target="_top" xlink:title="Returns the character used as a prefix for this system.">
<path fill="#fff0f0" stroke="red" d="M240.67,-19C240.67,-19 158.33,-19 158.33,-19 155.17,-19 152,-15.83 152,-12.67 152,-12.67 152,-6.33 152,-6.33 152,-3.17 155.17,0 158.33,0 158.33,0 240.67,0 240.67,0 243.83,0 247,-3.17 247,-6.33 247,-6.33 247,-12.67 247,-12.67 247,-15.83 243.83,-19 240.67,-19"/>
<text text-anchor="middle" x="199.5" y="-7" font-family="Helvetica,sans-Serif" font-size="10.00">SatSys::sysChar</text>
</a>
</g>
</g>
<!-- Node1&#45;&gt;Node8 -->
<g id="edge11_Node000001_Node000008" class="edge">
<title>Node1&#45;&gt;Node8</title>
<g id="a_edge11_Node000001_Node000008"><a xlink:title=" ">
<path fill="none" stroke="#63b8ff" d="M66.48,-110.92C81.14,-92.68 115.43,-52.67 152,-28.5 154.76,-26.67 157.73,-24.97 160.78,-23.39"/>
<polygon fill="#63b8ff" stroke="#63b8ff" points="162.49,-26.46 170.06,-19.05 159.52,-20.12 162.49,-26.46"/>
</a>
</g>
</g>
</g>
</svg>
