<?xml version="1.0" encoding="UTF-8" standalone="no"?>
<!DOCTYPE svg PUBLIC "-//W3C//DTD SVG 1.1//EN"
 "http://www.w3.org/Graphics/SVG/1.1/DTD/svg11.dtd">
<!-- Generated by graphviz version 2.43.0 (0)
 -->
<!-- Title: read_biasSINEX_head Pages: 1 -->
<svg width="252pt" height="27pt"
 viewBox="0.00 0.00 252.00 27.00" xmlns="http://www.w3.org/2000/svg" xmlns:xlink="http://www.w3.org/1999/xlink">
<g id="graph0" class="graph" transform="scale(1 1) rotate(0) translate(4 23)">
<title>read_biasSINEX_head</title>
<!-- Node1 -->
<g id="Node000001" class="node">
<title>Node1</title>
<g id="a_Node000001"><a xlink:href="biasSINEXread_8cpp.html#a7bedabb30d7e162ea04c4027051041f6" target="_top" xlink:title="Read header line in bias SINEX file.">
<path fill="#fff0f0" stroke="red" stroke-width="2" d="M237.67,-19C237.67,-19 128.33,-19 128.33,-19 125.17,-19 122,-15.83 122,-12.67 122,-12.67 122,-6.33 122,-6.33 122,-3.17 125.17,0 128.33,0 128.33,0 237.67,0 237.67,0 240.83,0 244,-3.17 244,-6.33 244,-6.33 244,-12.67 244,-12.67 244,-15.83 240.83,-19 237.67,-19"/>
<text text-anchor="middle" x="183" y="-7" font-family="Helvetica,sans-Serif" font-size="10.00">read_biasSINEX_head</text>
</a>
</g>
</g>
<!-- Node2 -->
<g id="Node000002" class="node">
<title>Node2</title>
<g id="a_Node000002"><a xlink:href="biasSINEXread_8cpp.html#a9de856d6ae992fe8b154b1a7d847f057" target="_top" xlink:title="Read single bias SINEX file.">
<path fill="#fff0f0" stroke="red" d="M79.67,-19C79.67,-19 6.33,-19 6.33,-19 3.17,-19 0,-15.83 0,-12.67 0,-12.67 0,-6.33 0,-6.33 0,-3.17 3.17,0 6.33,0 6.33,0 79.67,0 79.67,0 82.83,0 86,-3.17 86,-6.33 86,-6.33 86,-12.67 86,-12.67 86,-15.83 82.83,-19 79.67,-19"/>
<text text-anchor="middle" x="43" y="-7" font-family="Helvetica,sans-Serif" font-size="10.00">readBiasSinex</text>
</a>
</g>
</g>
<!-- Node1&#45;&gt;Node2 -->
<g id="edge1_Node000001_Node000002" class="edge">
<title>Node1&#45;&gt;Node2</title>
<g id="a_edge1_Node000001_Node000002"><a xlink:title=" ">
<path fill="none" stroke="#63b8ff" d="M111.65,-9.5C102.92,-9.5 94.22,-9.5 86.1,-9.5"/>
<polygon fill="#63b8ff" stroke="#63b8ff" points="111.87,-13 121.87,-9.5 111.87,-6 111.87,-13"/>
</a>
</g>
</g>
</g>
</svg>
