<?xml version="1.0" encoding="UTF-8" standalone="no"?>
<!DOCTYPE svg PUBLIC "-//W3C//DTD SVG 1.1//EN"
 "http://www.w3.org/Graphics/SVG/1.1/DTD/svg11.dtd">
<!-- Generated by graphviz version 2.43.0 (0)
 -->
<!-- Title: decomposeDSBBias Pages: 1 -->
<svg width="244pt" height="49pt"
 viewBox="0.00 0.00 244.00 48.94" xmlns="http://www.w3.org/2000/svg" xmlns:xlink="http://www.w3.org/1999/xlink">
<g id="graph0" class="graph" transform="scale(1 1) rotate(0) translate(4 44.94)">
<title>decomposeDSBBias</title>
<!-- Node1 -->
<g id="Node000001" class="node">
<title>Node1</title>
<g id="a_Node000001"><a xlink:href="biases_8cpp.html#ad3b67b7688710f1132eae080f0c5fdd8" target="_top" xlink:title="Decompose DSB or DCB into OSBs.">
<path fill="#fff0f0" stroke="red" stroke-width="2" d="M107.67,-29.97C107.67,-29.97 6.33,-29.97 6.33,-29.97 3.17,-29.97 0,-26.8 0,-23.64 0,-23.64 0,-17.3 0,-17.3 0,-14.14 3.17,-10.97 6.33,-10.97 6.33,-10.97 107.67,-10.97 107.67,-10.97 110.83,-10.97 114,-14.14 114,-17.3 114,-17.3 114,-23.64 114,-23.64 114,-26.8 110.83,-29.97 107.67,-29.97"/>
<text text-anchor="middle" x="57" y="-17.97" font-family="Helvetica,sans-Serif" font-size="10.00">decomposeDSBBias</text>
</a>
</g>
</g>
<!-- Node2 -->
<g id="Node000002" class="node">
<title>Node2</title>
<g id="a_Node000002"><a xlink:href="biases_8cpp.html#ad7402956db3836fc8dbe7b8b51d04c69" target="_top" xlink:title="Push forward and reverse bias entry into biasMaps.">
<path fill="#fff0f0" stroke="red" d="M229.67,-29.97C229.67,-29.97 156.33,-29.97 156.33,-29.97 153.17,-29.97 150,-26.8 150,-23.64 150,-23.64 150,-17.3 150,-17.3 150,-14.14 153.17,-10.97 156.33,-10.97 156.33,-10.97 229.67,-10.97 229.67,-10.97 232.83,-10.97 236,-14.14 236,-17.3 236,-17.3 236,-23.64 236,-23.64 236,-26.8 232.83,-29.97 229.67,-29.97"/>
<text text-anchor="middle" x="193" y="-17.97" font-family="Helvetica,sans-Serif" font-size="10.00">pushBiasEntry</text>
</a>
</g>
</g>
<!-- Node1&#45;&gt;Node2 -->
<g id="edge1_Node000001_Node000002" class="edge">
<title>Node1&#45;&gt;Node2</title>
<g id="a_edge1_Node000001_Node000002"><a xlink:title=" ">
<path fill="none" stroke="#63b8ff" d="M64.83,-10.91C85.25,1.76 146.27,3.17 175.73,-6.68"/>
<polygon fill="#63b8ff" stroke="#63b8ff" points="174.46,-9.95 185.02,-10.82 177.31,-3.55 174.46,-9.95"/>
</a>
</g>
</g>
<!-- Node1&#45;&gt;Node2 -->
<g id="edge4_Node000001_Node000002" class="edge">
<title>Node1&#45;&gt;Node2</title>
<g id="a_edge4_Node000001_Node000002"><a xlink:title=" ">
<path fill="none" stroke="#63b8ff" d="M64.83,-30.03C85.25,-42.7 146.27,-44.11 175.73,-34.26"/>
<polygon fill="#63b8ff" stroke="#63b8ff" points="177.31,-37.39 185.02,-30.12 174.46,-30.99 177.31,-37.39"/>
</a>
</g>
</g>
<!-- Node2&#45;&gt;Node1 -->
<g id="edge2_Node000002_Node000001" class="edge">
<title>Node2&#45;&gt;Node1</title>
<g id="a_edge2_Node000002_Node000001"><a xlink:title=" ">
<path fill="none" stroke="#63b8ff" d="M149.63,-14.14C141.51,-13.85 132.83,-13.71 124.17,-13.72"/>
<polygon fill="#63b8ff" stroke="#63b8ff" points="124.02,-10.22 114.05,-13.8 124.08,-17.22 124.02,-10.22"/>
</a>
</g>
</g>
<!-- Node2&#45;&gt;Node1 -->
<g id="edge3_Node000002_Node000001" class="edge">
<title>Node2&#45;&gt;Node1</title>
<g id="a_edge3_Node000002_Node000001"><a xlink:title=" ">
<path fill="none" stroke="#63b8ff" d="M149.63,-26.8C141.51,-27.09 132.83,-27.23 124.17,-27.22"/>
<polygon fill="#63b8ff" stroke="#63b8ff" points="124.08,-23.72 114.05,-27.14 124.02,-30.72 124.08,-23.72"/>
</a>
</g>
</g>
</g>
</svg>
