<?xml version="1.0" encoding="UTF-8" standalone="no"?>
<!DOCTYPE svg PUBLIC "-//W3C//DTD SVG 1.1//EN"
 "http://www.w3.org/Graphics/SVG/1.1/DTD/svg11.dtd">
<!-- Generated by graphviz version 2.43.0 (0)
 -->
<!-- Title: writeBSINEXHeader Pages: 1 -->
<svg width="347pt" height="79pt"
 viewBox="0.00 0.00 347.00 78.93" xmlns="http://www.w3.org/2000/svg" xmlns:xlink="http://www.w3.org/1999/xlink">
<g id="graph0" class="graph" transform="scale(1 1) rotate(0) translate(4 74.93)">
<title>writeBSINEXHeader</title>
<!-- Node1 -->
<g id="Node000001" class="node">
<title>Node1</title>
<g id="a_Node000001"><a xlink:href="biasSINEXwrite_8cpp.html#ab94f8678684d9733ffbe150e860a564a" target="_top" xlink:title="Write bias SINEX head for the first time.">
<path fill="#fff0f0" stroke="red" stroke-width="2" d="M106.67,-37C106.67,-37 6.33,-37 6.33,-37 3.17,-37 0,-33.83 0,-30.67 0,-30.67 0,-24.33 0,-24.33 0,-21.17 3.17,-18 6.33,-18 6.33,-18 106.67,-18 106.67,-18 109.83,-18 113,-21.17 113,-24.33 113,-24.33 113,-30.67 113,-30.67 113,-33.83 109.83,-37 106.67,-37"/>
<text text-anchor="middle" x="56.5" y="-25" font-family="Helvetica,sans-Serif" font-size="10.00">writeBSINEXHeader</text>
</a>
</g>
</g>
<!-- Node2 -->
<g id="Node000002" class="node">
<title>Node2</title>
<g id="a_Node000002"><a xlink:href="gTime_8cpp.html#a37bc65d232e726cdbc51122a8a8ec00e" target="_top" xlink:title=" ">
<path fill="#fff0f0" stroke="red" d="M332.67,-56C332.67,-56 283.33,-56 283.33,-56 280.17,-56 277,-52.83 277,-49.67 277,-49.67 277,-43.33 277,-43.33 277,-40.17 280.17,-37 283.33,-37 283.33,-37 332.67,-37 332.67,-37 335.83,-37 339,-40.17 339,-43.33 339,-43.33 339,-49.67 339,-49.67 339,-52.83 335.83,-56 332.67,-56"/>
<text text-anchor="middle" x="308" y="-44" font-family="Helvetica,sans-Serif" font-size="10.00">time2yds</text>
</a>
</g>
</g>
<!-- Node1&#45;&gt;Node2 -->
<g id="edge1_Node000001_Node000002" class="edge">
<title>Node1&#45;&gt;Node2</title>
<g id="a_edge1_Node000001_Node000002"><a xlink:title=" ">
<path fill="none" stroke="#63b8ff" d="M74.73,-37.08C92.65,-46.45 121.84,-60.08 149,-65.5 189.1,-73.5 200.51,-71.21 241,-65.5 250.81,-64.12 261.21,-61.63 270.78,-58.9"/>
<polygon fill="#63b8ff" stroke="#63b8ff" points="271.83,-62.24 280.4,-56 269.81,-55.53 271.83,-62.24"/>
</a>
</g>
</g>
<!-- Node6 -->
<g id="Node000006" class="node">
<title>Node6</title>
<g id="a_Node000006"><a xlink:href="biasSINEXwrite_8cpp.html#a986e047c2dd383adf5526d99e5c418c4" target="_top" xlink:title="Update bias SINEX first line.">
<path fill="#fff0f0" stroke="red" d="M234.67,-56C234.67,-56 155.33,-56 155.33,-56 152.17,-56 149,-52.83 149,-49.67 149,-49.67 149,-43.33 149,-43.33 149,-40.17 152.17,-37 155.33,-37 155.33,-37 234.67,-37 234.67,-37 237.83,-37 241,-40.17 241,-43.33 241,-43.33 241,-49.67 241,-49.67 241,-52.83 237.83,-56 234.67,-56"/>
<text text-anchor="middle" x="195" y="-44" font-family="Helvetica,sans-Serif" font-size="10.00">updateFirstLine</text>
</a>
</g>
</g>
<!-- Node1&#45;&gt;Node6 -->
<g id="edge2_Node000001_Node000006" class="edge">
<title>Node1&#45;&gt;Node6</title>
<g id="a_edge2_Node000001_Node000006"><a xlink:title=" ">
<path fill="none" stroke="#63b8ff" d="M113.02,-35.23C121.61,-36.42 130.49,-37.66 139.07,-38.85"/>
<polygon fill="#63b8ff" stroke="#63b8ff" points="138.59,-42.32 148.97,-40.23 139.55,-35.39 138.59,-42.32"/>
</a>
</g>
</g>
<!-- Node8 -->
<g id="Node000008" class="node">
<title>Node8</title>
<g id="a_Node000008"><a xlink:href="algebra__old_8cpp.html#a54fd9b64416949c38e879ac889964d2a" target="_top" xlink:title=" ">
<path fill="#fff0f0" stroke="red" d="M210.17,-19C210.17,-19 179.83,-19 179.83,-19 176.67,-19 173.5,-15.83 173.5,-12.67 173.5,-12.67 173.5,-6.33 173.5,-6.33 173.5,-3.17 176.67,0 179.83,0 179.83,0 210.17,0 210.17,0 213.33,0 216.5,-3.17 216.5,-6.33 216.5,-6.33 216.5,-12.67 216.5,-12.67 216.5,-15.83 213.33,-19 210.17,-19"/>
<text text-anchor="middle" x="195" y="-7" font-family="Helvetica,sans-Serif" font-size="10.00">solve</text>
</a>
</g>
</g>
<!-- Node1&#45;&gt;Node8 -->
<g id="edge5_Node000001_Node000008" class="edge">
<title>Node1&#45;&gt;Node8</title>
<g id="a_edge5_Node000001_Node000008"><a xlink:title=" ">
<path fill="none" stroke="#63b8ff" d="M86.78,-17.98C109.23,-13.6 140.15,-9.49 163.01,-7.82"/>
<polygon fill="#63b8ff" stroke="#63b8ff" points="163.43,-11.31 173.21,-7.23 163.02,-4.32 163.43,-11.31"/>
</a>
</g>
</g>
<!-- Node1&#45;&gt;Node8 -->
<g id="edge6_Node000001_Node000008" class="edge">
<title>Node1&#45;&gt;Node8</title>
<g id="a_edge6_Node000001_Node000008"><a xlink:title=" ">
<path fill="none" stroke="#63b8ff" d="M113.02,-26.82C130.13,-24.85 148.34,-22.16 163.15,-19.32"/>
<polygon fill="#63b8ff" stroke="#63b8ff" points="164.18,-22.68 173.27,-17.24 162.77,-15.83 164.18,-22.68"/>
</a>
</g>
</g>
<!-- Node6&#45;&gt;Node2 -->
<g id="edge3_Node000006_Node000002" class="edge">
<title>Node6&#45;&gt;Node2</title>
<g id="a_edge3_Node000006_Node000002"><a xlink:title=" ">
<path fill="none" stroke="#63b8ff" d="M241.15,-39.86C249.59,-39.68 258.36,-39.72 266.64,-39.98"/>
<polygon fill="#63b8ff" stroke="#63b8ff" points="266.67,-43.48 276.82,-40.42 266.98,-36.49 266.67,-43.48"/>
</a>
</g>
</g>
<!-- Node6&#45;&gt;Node2 -->
<g id="edge4_Node000006_Node000002" class="edge">
<title>Node6&#45;&gt;Node2</title>
<g id="a_edge4_Node000006_Node000002"><a xlink:title=" ">
<path fill="none" stroke="#63b8ff" d="M241.15,-53.14C249.59,-53.32 258.36,-53.28 266.64,-53.02"/>
<polygon fill="#63b8ff" stroke="#63b8ff" points="266.98,-56.51 276.82,-52.58 266.67,-49.52 266.98,-56.51"/>
</a>
</g>
</g>
</g>
</svg>
