<?xml version="1.0" encoding="UTF-8" standalone="no"?>
<!DOCTYPE svg PUBLIC "-//W3C//DTD SVG 1.1//EN"
 "http://www.w3.org/Graphics/SVG/1.1/DTD/svg11.dtd">
<!-- Generated by graphviz version 2.43.0 (0)
 -->
<!-- Title: sinex_time_text Pages: 1 -->
<svg width="201pt" height="27pt"
 viewBox="0.00 0.00 201.00 27.00" xmlns="http://www.w3.org/2000/svg" xmlns:xlink="http://www.w3.org/1999/xlink">
<g id="graph0" class="graph" transform="scale(1 1) rotate(0) translate(4 23)">
<title>sinex_time_text</title>
<!-- Node1 -->
<g id="Node000001" class="node">
<title>Node1</title>
<g id="a_Node000001"><a xlink:href="biasSINEXread_8cpp.html#a02e220f170d09398d4bac63d463a8ef0" target="_top" xlink:title="Convert time string in bias SINEX to gtime struct.">
<path fill="#fff0f0" stroke="red" stroke-width="2" d="M88.67,-19C88.67,-19 6.33,-19 6.33,-19 3.17,-19 0,-15.83 0,-12.67 0,-12.67 0,-6.33 0,-6.33 0,-3.17 3.17,0 6.33,0 6.33,0 88.67,0 88.67,0 91.83,0 95,-3.17 95,-6.33 95,-6.33 95,-12.67 95,-12.67 95,-15.83 91.83,-19 88.67,-19"/>
<text text-anchor="middle" x="47.5" y="-7" font-family="Helvetica,sans-Serif" font-size="10.00">sinex_time_text</text>
</a>
</g>
</g>
<!-- Node2 -->
<g id="Node000002" class="node">
<title>Node2</title>
<g id="a_Node000002"><a xlink:href="gTime_8cpp.html#a25abbda5263c0b29ab3479dd35b140e3" target="_top" xlink:title=" ">
<path fill="#fff0f0" stroke="red" d="M186.67,-19C186.67,-19 137.33,-19 137.33,-19 134.17,-19 131,-15.83 131,-12.67 131,-12.67 131,-6.33 131,-6.33 131,-3.17 134.17,0 137.33,0 137.33,0 186.67,0 186.67,0 189.83,0 193,-3.17 193,-6.33 193,-6.33 193,-12.67 193,-12.67 193,-15.83 189.83,-19 186.67,-19"/>
<text text-anchor="middle" x="162" y="-7" font-family="Helvetica,sans-Serif" font-size="10.00">yds2time</text>
</a>
</g>
</g>
<!-- Node1&#45;&gt;Node2 -->
<g id="edge1_Node000001_Node000002" class="edge">
<title>Node1&#45;&gt;Node2</title>
<g id="a_edge1_Node000001_Node000002"><a xlink:title=" ">
<path fill="none" stroke="#63b8ff" d="M95.23,-9.5C103.72,-9.5 112.51,-9.5 120.79,-9.5"/>
<polygon fill="#63b8ff" stroke="#63b8ff" points="120.95,-13 130.95,-9.5 120.95,-6 120.95,-13"/>
</a>
</g>
</g>
</g>
</svg>
