<?xml version="1.0" encoding="UTF-8" standalone="no"?>
<!DOCTYPE svg PUBLIC "-//W3C//DTD SVG 1.1//EN"
 "http://www.w3.org/Graphics/SVG/1.1/DTD/svg11.dtd">
<!-- Generated by graphviz version 2.43.0 (0)
 -->
<!-- Title: getNormal Pages: 1 -->
<svg width="231pt" height="64pt"
 viewBox="0.00 0.00 231.00 64.00" xmlns="http://www.w3.org/2000/svg" xmlns:xlink="http://www.w3.org/1999/xlink">
<g id="graph0" class="graph" transform="scale(1 1) rotate(0) translate(4 60)">
<title>getNormal</title>
<!-- Node1 -->
<g id="Node000001" class="node">
<title>Node1</title>
<g id="a_Node000001"><a xlink:href="boxwing_8cpp.html#af9d0a4c2731d524d34cbf7a86b43a7f7" target="_top" xlink:title=" ">
<path fill="#fff0f0" stroke="red" stroke-width="2" d="M216.67,-37C216.67,-37 161.33,-37 161.33,-37 158.17,-37 155,-33.83 155,-30.67 155,-30.67 155,-24.33 155,-24.33 155,-21.17 158.17,-18 161.33,-18 161.33,-18 216.67,-18 216.67,-18 219.83,-18 223,-21.17 223,-24.33 223,-24.33 223,-30.67 223,-30.67 223,-33.83 219.83,-37 216.67,-37"/>
<text text-anchor="middle" x="189" y="-25" font-family="Helvetica,sans-Serif" font-size="10.00">getNormal</text>
</a>
</g>
</g>
<!-- Node2 -->
<g id="Node000002" class="node">
<title>Node2</title>
<g id="a_Node000002"><a xlink:href="boxwing_8cpp.html#a004235dcf1fb99c3adeb2be5839dc22a" target="_top" xlink:title=" ">
<path fill="#fff0f0" stroke="red" d="M112.67,-56C112.67,-56 6.33,-56 6.33,-56 3.17,-56 0,-52.83 0,-49.67 0,-49.67 0,-43.33 0,-43.33 0,-40.17 3.17,-37 6.33,-37 6.33,-37 112.67,-37 112.67,-37 115.83,-37 119,-40.17 119,-43.33 119,-43.33 119,-49.67 119,-49.67 119,-52.83 115.83,-56 112.67,-56"/>
<text text-anchor="middle" x="59.5" y="-44" font-family="Helvetica,sans-Serif" font-size="10.00">applyBoxwingAlbedo</text>
</a>
</g>
</g>
<!-- Node1&#45;&gt;Node2 -->
<g id="edge1_Node000001_Node000002" class="edge">
<title>Node1&#45;&gt;Node2</title>
<g id="a_edge1_Node000001_Node000002"><a xlink:title=" ">
<path fill="none" stroke="#63b8ff" d="M144.74,-33.95C136.52,-35.17 127.79,-36.47 119.19,-37.75"/>
<polygon fill="#63b8ff" stroke="#63b8ff" points="145.46,-37.38 154.83,-32.44 144.43,-30.45 145.46,-37.38"/>
</a>
</g>
</g>
<!-- Node5 -->
<g id="Node000005" class="node">
<title>Node5</title>
<g id="a_Node000005"><a xlink:href="boxwing_8cpp.html#a0f2ed5ce271eca9d462328ef96a20804" target="_top" xlink:title=" ">
<path fill="#fff0f0" stroke="red" d="M103.67,-19C103.67,-19 15.33,-19 15.33,-19 12.17,-19 9,-15.83 9,-12.67 9,-12.67 9,-6.33 9,-6.33 9,-3.17 12.17,0 15.33,0 15.33,0 103.67,0 103.67,0 106.83,0 110,-3.17 110,-6.33 110,-6.33 110,-12.67 110,-12.67 110,-15.83 106.83,-19 103.67,-19"/>
<text text-anchor="middle" x="59.5" y="-7" font-family="Helvetica,sans-Serif" font-size="10.00">applyBoxwingSrp</text>
</a>
</g>
</g>
<!-- Node1&#45;&gt;Node5 -->
<g id="edge2_Node000001_Node000005" class="edge">
<title>Node1&#45;&gt;Node5</title>
<g id="a_edge2_Node000001_Node000005"><a xlink:title=" ">
<path fill="none" stroke="#63b8ff" d="M144.59,-21.37C133.57,-19.82 121.64,-18.13 110.33,-16.53"/>
<polygon fill="#63b8ff" stroke="#63b8ff" points="144.44,-24.89 154.83,-22.82 145.42,-17.95 144.44,-24.89"/>
</a>
</g>
</g>
</g>
</svg>
