<?xml version="1.0" encoding="UTF-8" standalone="no"?>
<!DOCTYPE svg PUBLIC "-//W3C//DTD SVG 1.1//EN"
 "http://www.w3.org/Graphics/SVG/1.1/DTD/svg11.dtd">
<!-- Generated by graphviz version 2.43.0 (0)
 -->
<!-- Title: loading::interpolate_gh Pages: 1 -->
<svg width="243pt" height="27pt"
 viewBox="0.00 0.00 243.00 27.00" xmlns="http://www.w3.org/2000/svg" xmlns:xlink="http://www.w3.org/1999/xlink">
<g id="graph0" class="graph" transform="scale(1 1) rotate(0) translate(4 23)">
<title>loading::interpolate_gh</title>
<!-- Node1 -->
<g id="Node000001" class="node">
<title>Node1</title>
<g id="a_Node000001"><a xlink:href="classloading.html#ae5c197cd3a6a0023831291addfbf9094" target="_top" xlink:title=" ">
<path fill="#fff0f0" stroke="red" stroke-width="2" d="M122.67,-19C122.67,-19 6.33,-19 6.33,-19 3.17,-19 0,-15.83 0,-12.67 0,-12.67 0,-6.33 0,-6.33 0,-3.17 3.17,0 6.33,0 6.33,0 122.67,0 122.67,0 125.83,0 129,-3.17 129,-6.33 129,-6.33 129,-12.67 129,-12.67 129,-15.83 125.83,-19 122.67,-19"/>
<text text-anchor="middle" x="64.5" y="-7" font-family="Helvetica,sans-Serif" font-size="10.00">loading::interpolate_gh</text>
</a>
</g>
</g>
<!-- Node2 -->
<g id="Node000002" class="node">
<title>Node2</title>
<g id="a_Node000002"><a xlink:href="ephPrecise_8cpp.html#a9a01152aef47228af7e3cfa035bd643d" target="_top" xlink:title="polynomial interpolation by Neville&#39;s algorithm">
<path fill="#fff0f0" stroke="red" d="M228.67,-19C228.67,-19 171.33,-19 171.33,-19 168.17,-19 165,-15.83 165,-12.67 165,-12.67 165,-6.33 165,-6.33 165,-3.17 168.17,0 171.33,0 171.33,0 228.67,0 228.67,0 231.83,0 235,-3.17 235,-6.33 235,-6.33 235,-12.67 235,-12.67 235,-15.83 231.83,-19 228.67,-19"/>
<text text-anchor="middle" x="200" y="-7" font-family="Helvetica,sans-Serif" font-size="10.00">interpolate</text>
</a>
</g>
</g>
<!-- Node1&#45;&gt;Node2 -->
<g id="edge1_Node000001_Node000002" class="edge">
<title>Node1&#45;&gt;Node2</title>
<g id="a_edge1_Node000001_Node000002"><a xlink:title=" ">
<path fill="none" stroke="#63b8ff" d="M129.12,-9.5C137.81,-9.5 146.57,-9.5 154.81,-9.5"/>
<polygon fill="#63b8ff" stroke="#63b8ff" points="154.92,-13 164.92,-9.5 154.92,-6 154.92,-13"/>
</a>
</g>
</g>
</g>
</svg>
