<?xml version="1.0" encoding="UTF-8" standalone="no"?>
<!DOCTYPE svg PUBLIC "-//W3C//DTD SVG 1.1//EN"
 "http://www.w3.org/Graphics/SVG/1.1/DTD/svg11.dtd">
<!-- Generated by graphviz version 2.43.0 (0)
 -->
<!-- Title: replaceTimes Pages: 1 -->
<svg width="260pt" height="323pt"
 viewBox="0.00 0.00 260.00 323.00" xmlns="http://www.w3.org/2000/svg" xmlns:xlink="http://www.w3.org/1999/xlink">
<g id="graph0" class="graph" transform="scale(1 1) rotate(0) translate(4 319)">
<title>replaceTimes</title>
<!-- Node1 -->
<g id="Node000001" class="node">
<title>Node1</title>
<g id="a_Node000001"><a xlink:href="acsConfig_8cpp.html#a75a34dc41e76a8680e3aa6d62ff4c800" target="_top" xlink:title="Time to use for replacements.">
<path fill="#fff0f0" stroke="red" stroke-width="2" d="M245.67,-167C245.67,-167 175.33,-167 175.33,-167 172.17,-167 169,-163.83 169,-160.67 169,-160.67 169,-154.33 169,-154.33 169,-151.17 172.17,-148 175.33,-148 175.33,-148 245.67,-148 245.67,-148 248.83,-148 252,-151.17 252,-154.33 252,-154.33 252,-160.67 252,-160.67 252,-163.83 248.83,-167 245.67,-167"/>
<text text-anchor="middle" x="210.5" y="-155" font-family="Helvetica,sans-Serif" font-size="10.00">replaceTimes</text>
</a>
</g>
</g>
<!-- Node2 -->
<g id="Node000002" class="node">
<title>Node2</title>
<g id="a_Node000002"><a xlink:href="main_8cpp.html#a2206cd179576b10f99dbe50e8e7ddc5a" target="_top" xlink:title="Create directories if required.">
<path fill="#fff0f0" stroke="red" d="M110.67,-315C110.67,-315 22.33,-315 22.33,-315 19.17,-315 16,-311.83 16,-308.67 16,-308.67 16,-302.33 16,-302.33 16,-299.17 19.17,-296 22.33,-296 22.33,-296 110.67,-296 110.67,-296 113.83,-296 117,-299.17 117,-302.33 117,-302.33 117,-308.67 117,-308.67 117,-311.83 113.83,-315 110.67,-315"/>
<text text-anchor="middle" x="66.5" y="-303" font-family="Helvetica,sans-Serif" font-size="10.00">createDirectories</text>
</a>
</g>
</g>
<!-- Node1&#45;&gt;Node2 -->
<g id="edge1_Node000001_Node000002" class="edge">
<title>Node1&#45;&gt;Node2</title>
<g id="a_edge1_Node000001_Node000002"><a xlink:title=" ">
<path fill="none" stroke="#63b8ff" d="M203.47,-176.65C193.49,-205.17 170.79,-258.56 133,-287.5 128.22,-291.16 122.75,-294.07 117.05,-296.39"/>
<polygon fill="#63b8ff" stroke="#63b8ff" points="206.83,-177.63 206.68,-167.04 200.19,-175.41 206.83,-177.63"/>
</a>
</g>
</g>
<!-- Node9 -->
<g id="Node000009" class="node">
<title>Node9</title>
<g id="a_Node000009"><a xlink:href="trace_8cpp.html#a7eec1631c0092ac9e6c3222345cd3601" target="_top" xlink:title=" ">
<path fill="#fff0f0" stroke="red" d="M116.17,-278C116.17,-278 16.83,-278 16.83,-278 13.67,-278 10.5,-274.83 10.5,-271.67 10.5,-271.67 10.5,-265.33 10.5,-265.33 10.5,-262.17 13.67,-259 16.83,-259 16.83,-259 116.17,-259 116.17,-259 119.33,-259 122.5,-262.17 122.5,-265.33 122.5,-265.33 122.5,-271.67 122.5,-271.67 122.5,-274.83 119.33,-278 116.17,-278"/>
<text text-anchor="middle" x="66.5" y="-266" font-family="Helvetica,sans-Serif" font-size="10.00">createNewTraceFile</text>
</a>
</g>
</g>
<!-- Node1&#45;&gt;Node9 -->
<g id="edge2_Node000001_Node000009" class="edge">
<title>Node1&#45;&gt;Node9</title>
<g id="a_edge2_Node000001_Node000009"><a xlink:title=" ">
<path fill="none" stroke="#63b8ff" d="M199.29,-175.72C186.52,-196.86 162.66,-231.26 133,-250.5 127.76,-253.9 121.88,-256.66 115.85,-258.91"/>
<polygon fill="#63b8ff" stroke="#63b8ff" points="202.34,-177.45 204.37,-167.05 196.3,-173.91 202.34,-177.45"/>
</a>
</g>
</g>
<!-- Node10 -->
<g id="Node000010" class="node">
<title>Node10</title>
<g id="a_Node000010"><a xlink:href="rinexClkWrite_8cpp.html#a87a652e05ec91c35c1e56c0650176dfa" target="_top" xlink:title=" ">
<path fill="#fff0f0" stroke="red" d="M126.67,-241C126.67,-241 6.33,-241 6.33,-241 3.17,-241 0,-237.83 0,-234.67 0,-234.67 0,-228.33 0,-228.33 0,-225.17 3.17,-222 6.33,-222 6.33,-222 126.67,-222 126.67,-222 129.83,-222 133,-225.17 133,-228.33 133,-228.33 133,-234.67 133,-234.67 133,-237.83 129.83,-241 126.67,-241"/>
<text text-anchor="middle" x="66.5" y="-229" font-family="Helvetica,sans-Serif" font-size="10.00">getSysOutputFilenames</text>
</a>
</g>
</g>
<!-- Node1&#45;&gt;Node10 -->
<g id="edge3_Node000001_Node000010" class="edge">
<title>Node1&#45;&gt;Node10</title>
<g id="a_edge3_Node000001_Node000010"><a xlink:title=" ">
<path fill="none" stroke="#63b8ff" d="M191.08,-173.98C176.31,-186.43 154.56,-203.09 133,-213.5 126.1,-216.83 118.48,-219.64 110.95,-221.96"/>
<polygon fill="#63b8ff" stroke="#63b8ff" points="193.63,-176.4 198.92,-167.22 189.06,-171.1 193.63,-176.4"/>
</a>
</g>
</g>
<!-- Node19 -->
<g id="Node000019" class="node">
<title>Node19</title>
<g id="a_Node000019"><a xlink:href="orbitProp_8cpp.html#a03c4ef0fbfbbf301403de6a3a8e27cc3" target="_top" xlink:title=" ">
<path fill="#fff0f0" stroke="red" d="M111.67,-204C111.67,-204 21.33,-204 21.33,-204 18.17,-204 15,-200.83 15,-197.67 15,-197.67 15,-191.33 15,-191.33 15,-188.17 18.17,-185 21.33,-185 21.33,-185 111.67,-185 111.67,-185 114.83,-185 118,-188.17 118,-191.33 118,-191.33 118,-197.67 118,-197.67 118,-200.83 114.83,-204 111.67,-204"/>
<text text-anchor="middle" x="66.5" y="-192" font-family="Helvetica,sans-Serif" font-size="10.00">outputOrbitConfig</text>
</a>
</g>
</g>
<!-- Node1&#45;&gt;Node19 -->
<g id="edge4_Node000001_Node000019" class="edge">
<title>Node1&#45;&gt;Node19</title>
<g id="a_edge4_Node000001_Node000019"><a xlink:title=" ">
<path fill="none" stroke="#63b8ff" d="M163.25,-169.55C144.19,-174.52 122.4,-180.19 104.44,-184.88"/>
<polygon fill="#63b8ff" stroke="#63b8ff" points="164.14,-172.94 172.93,-167.03 162.37,-166.16 164.14,-172.94"/>
</a>
</g>
</g>
<!-- Node20 -->
<g id="Node000020" class="node">
<title>Node20</title>
<g id="a_Node000020"><a xlink:href="tropSinex_8cpp.html#a7d4d797b1dca3898283e8b3d00b0e60f" target="_top" xlink:title="Output troposphere SINEX data.">
<path fill="#fff0f0" stroke="red" d="M107.67,-167C107.67,-167 25.33,-167 25.33,-167 22.17,-167 19,-163.83 19,-160.67 19,-160.67 19,-154.33 19,-154.33 19,-151.17 22.17,-148 25.33,-148 25.33,-148 107.67,-148 107.67,-148 110.83,-148 114,-151.17 114,-154.33 114,-154.33 114,-160.67 114,-160.67 114,-163.83 110.83,-167 107.67,-167"/>
<text text-anchor="middle" x="66.5" y="-155" font-family="Helvetica,sans-Serif" font-size="10.00">outputTropSinex</text>
</a>
</g>
</g>
<!-- Node1&#45;&gt;Node20 -->
<g id="edge5_Node000001_Node000020" class="edge">
<title>Node1&#45;&gt;Node20</title>
<g id="a_edge5_Node000001_Node000020"><a xlink:title=" ">
<path fill="none" stroke="#63b8ff" d="M158.53,-157.5C144.07,-157.5 128.4,-157.5 114.21,-157.5"/>
<polygon fill="#63b8ff" stroke="#63b8ff" points="158.81,-161 168.81,-157.5 158.81,-154 158.81,-161"/>
</a>
</g>
</g>
<!-- Node21 -->
<g id="Node000021" class="node">
<title>Node21</title>
<g id="a_Node000021"><a xlink:href="acsConfig_8cpp.html#ac51b4717ad47f45c4b1e373882b6f131" target="_top" xlink:title=" ">
<path fill="#fff0f0" stroke="red" d="M101.67,-130C101.67,-130 31.33,-130 31.33,-130 28.17,-130 25,-126.83 25,-123.67 25,-123.67 25,-117.33 25,-117.33 25,-114.17 28.17,-111 31.33,-111 31.33,-111 101.67,-111 101.67,-111 104.83,-111 108,-114.17 108,-117.33 108,-117.33 108,-123.67 108,-123.67 108,-126.83 104.83,-130 101.67,-130"/>
<text text-anchor="middle" x="66.5" y="-118" font-family="Helvetica,sans-Serif" font-size="10.00">replaceTimes</text>
</a>
</g>
</g>
<!-- Node1&#45;&gt;Node21 -->
<g id="edge6_Node000001_Node000021" class="edge">
<title>Node1&#45;&gt;Node21</title>
<g id="a_edge6_Node000001_Node000021"><a xlink:title=" ">
<path fill="none" stroke="#63b8ff" d="M163.25,-145.45C144.19,-140.48 122.4,-134.81 104.44,-130.12"/>
<polygon fill="#63b8ff" stroke="#63b8ff" points="162.37,-148.84 172.93,-147.97 164.14,-142.06 162.37,-148.84"/>
</a>
</g>
</g>
<!-- Node22 -->
<g id="Node000022" class="node">
<title>Node22</title>
<g id="a_Node000022"><a xlink:href="pea__snx_8cpp.html#a4ded3444eea8dfc8736567542792d17e" target="_top" xlink:title=" ">
<path fill="#fff0f0" stroke="red" d="M118.17,-93C118.17,-93 14.83,-93 14.83,-93 11.67,-93 8.5,-89.83 8.5,-86.67 8.5,-86.67 8.5,-80.33 8.5,-80.33 8.5,-77.17 11.67,-74 14.83,-74 14.83,-74 118.17,-74 118.17,-74 121.33,-74 124.5,-77.17 124.5,-80.33 124.5,-80.33 124.5,-86.67 124.5,-86.67 124.5,-89.83 121.33,-93 118.17,-93"/>
<text text-anchor="middle" x="66.5" y="-81" font-family="Helvetica,sans-Serif" font-size="10.00">sinexPostProcessing</text>
</a>
</g>
</g>
<!-- Node1&#45;&gt;Node22 -->
<g id="edge7_Node000001_Node000022" class="edge">
<title>Node1&#45;&gt;Node22</title>
<g id="a_edge7_Node000001_Node000022"><a xlink:title=" ">
<path fill="none" stroke="#63b8ff" d="M190.48,-140.99C175.67,-128.87 154.15,-112.79 133,-102.5 125.33,-98.77 116.8,-95.64 108.49,-93.06"/>
<polygon fill="#63b8ff" stroke="#63b8ff" points="188.45,-143.86 198.37,-147.6 192.95,-138.49 188.45,-143.86"/>
</a>
</g>
</g>
<!-- Node24 -->
<g id="Node000024" class="node">
<title>Node24</title>
<g id="a_Node000024"><a xlink:href="mongo_8cpp.html#a52ea466b77ea949c69649373cb073616" target="_top" xlink:title=" ">
<path fill="#fff0f0" stroke="red" d="M113.67,-56C113.67,-56 19.33,-56 19.33,-56 16.17,-56 13,-52.83 13,-49.67 13,-49.67 13,-43.33 13,-43.33 13,-40.17 16.17,-37 19.33,-37 19.33,-37 113.67,-37 113.67,-37 116.83,-37 120,-40.17 120,-43.33 120,-43.33 120,-49.67 120,-49.67 120,-52.83 116.83,-56 113.67,-56"/>
<text text-anchor="middle" x="66.5" y="-44" font-family="Helvetica,sans-Serif" font-size="10.00">startNewMongoDb</text>
</a>
</g>
</g>
<!-- Node1&#45;&gt;Node24 -->
<g id="edge8_Node000001_Node000024" class="edge">
<title>Node1&#45;&gt;Node24</title>
<g id="a_edge8_Node000001_Node000024"><a xlink:title=" ">
<path fill="none" stroke="#63b8ff" d="M199,-139.22C186.08,-118.36 162.24,-84.64 133,-65.5 127.06,-61.61 120.3,-58.5 113.44,-56.01"/>
<polygon fill="#63b8ff" stroke="#63b8ff" points="196,-141.03 204.14,-147.81 202.01,-137.43 196,-141.03"/>
</a>
</g>
</g>
<!-- Node25 -->
<g id="Node000025" class="node">
<title>Node25</title>
<g id="a_Node000025"><a xlink:href="sbas_8cpp.html#a6f4229224f8d8f8b8cf050533b992fcc" target="_top" xlink:title="Write received SBAS messages into EMS files.">
<path fill="#fff0f0" stroke="red" d="M102.17,-19C102.17,-19 30.83,-19 30.83,-19 27.67,-19 24.5,-15.83 24.5,-12.67 24.5,-12.67 24.5,-6.33 24.5,-6.33 24.5,-3.17 27.67,0 30.83,0 30.83,0 102.17,0 102.17,0 105.33,0 108.5,-3.17 108.5,-6.33 108.5,-6.33 108.5,-12.67 108.5,-12.67 108.5,-15.83 105.33,-19 102.17,-19"/>
<text text-anchor="middle" x="66.5" y="-7" font-family="Helvetica,sans-Serif" font-size="10.00">writeEMSdata</text>
</a>
</g>
</g>
<!-- Node1&#45;&gt;Node25 -->
<g id="edge9_Node000001_Node000025" class="edge">
<title>Node1&#45;&gt;Node25</title>
<g id="a_edge9_Node000001_Node000025"><a xlink:title=" ">
<path fill="none" stroke="#63b8ff" d="M203.23,-138.15C193.05,-109.83 170.24,-57.34 133,-28.5 125.89,-22.99 117.22,-19.08 108.56,-16.3"/>
<polygon fill="#63b8ff" stroke="#63b8ff" points="199.95,-139.4 206.51,-147.72 206.57,-137.13 199.95,-139.4"/>
</a>
</g>
</g>
</g>
</svg>
