<?xml version="1.0" encoding="UTF-8" standalone="no"?>
<!DOCTYPE svg PUBLIC "-//W3C//DTD SVG 1.1//EN"
 "http://www.w3.org/Graphics/SVG/1.1/DTD/svg11.dtd">
<!-- Generated by graphviz version 2.43.0 (0)
 -->
<!-- Title: createDirectories Pages: 1 -->
<svg width="318pt" height="83pt"
 viewBox="0.00 0.00 318.00 83.00" xmlns="http://www.w3.org/2000/svg" xmlns:xlink="http://www.w3.org/1999/xlink">
<g id="graph0" class="graph" transform="scale(1 1) rotate(0) translate(4 79)">
<title>createDirectories</title>
<!-- Node1 -->
<g id="Node000001" class="node">
<title>Node1</title>
<g id="a_Node000001"><a xlink:href="main_8cpp.html#a2206cd179576b10f99dbe50e8e7ddc5a" target="_top" xlink:title="Create directories if required.">
<path fill="#fff0f0" stroke="red" stroke-width="2" d="M303.67,-38C303.67,-38 215.33,-38 215.33,-38 212.17,-38 209,-34.83 209,-31.67 209,-31.67 209,-25.33 209,-25.33 209,-22.17 212.17,-19 215.33,-19 215.33,-19 303.67,-19 303.67,-19 306.83,-19 310,-22.17 310,-25.33 310,-25.33 310,-31.67 310,-31.67 310,-34.83 306.83,-38 303.67,-38"/>
<text text-anchor="middle" x="259.5" y="-26" font-family="Helvetica,sans-Serif" font-size="10.00">createDirectories</text>
</a>
</g>
</g>
<!-- Node2 -->
<g id="Node000002" class="node">
<title>Node2</title>
<g id="a_Node000002"><a xlink:href="compare_8cpp.html#aa8c289d9d4e60f862fb0a60566b76bd0" target="_top" xlink:title=" ">
<path fill="#fff0f0" stroke="red" d="M164.67,-75C164.67,-75 88.33,-75 88.33,-75 85.17,-75 82,-71.83 82,-68.67 82,-68.67 82,-62.33 82,-62.33 82,-59.17 85.17,-56 88.33,-56 88.33,-56 164.67,-56 164.67,-56 167.83,-56 171,-59.17 171,-62.33 171,-62.33 171,-68.67 171,-68.67 171,-71.83 167.83,-75 164.67,-75"/>
<text text-anchor="middle" x="126.5" y="-63" font-family="Helvetica,sans-Serif" font-size="10.00">compareOrbits</text>
</a>
</g>
</g>
<!-- Node1&#45;&gt;Node2 -->
<g id="edge1_Node000001_Node000002" class="edge">
<title>Node1&#45;&gt;Node2</title>
<g id="a_edge1_Node000001_Node000002"><a xlink:title=" ">
<path fill="none" stroke="#63b8ff" d="M214.86,-40.83C197.51,-45.73 177.85,-51.28 161.58,-55.88"/>
<polygon fill="#63b8ff" stroke="#63b8ff" points="216.09,-44.11 224.76,-38.03 214.19,-37.38 216.09,-44.11"/>
</a>
</g>
</g>
<!-- Node6 -->
<g id="Node000006" class="node">
<title>Node6</title>
<g id="a_Node000006"><a xlink:href="main_8cpp.html#afc11530de7eb5cfd21c9b3185337af96" target="_top" xlink:title="Create new empty trace files only when required when the filename is changed.">
<path fill="#fff0f0" stroke="red" d="M166.67,-38C166.67,-38 86.33,-38 86.33,-38 83.17,-38 80,-34.83 80,-31.67 80,-31.67 80,-25.33 80,-25.33 80,-22.17 83.17,-19 86.33,-19 86.33,-19 166.67,-19 166.67,-19 169.83,-19 173,-22.17 173,-25.33 173,-25.33 173,-31.67 173,-31.67 173,-34.83 169.83,-38 166.67,-38"/>
<text text-anchor="middle" x="126.5" y="-26" font-family="Helvetica,sans-Serif" font-size="10.00">createTracefiles</text>
</a>
</g>
</g>
<!-- Node1&#45;&gt;Node6 -->
<g id="edge2_Node000001_Node000006" class="edge">
<title>Node1&#45;&gt;Node6</title>
<g id="a_edge2_Node000001_Node000006"><a xlink:title=" ">
<path fill="none" stroke="#63b8ff" d="M198.93,-28.5C190.3,-28.5 181.52,-28.5 173.21,-28.5"/>
<polygon fill="#63b8ff" stroke="#63b8ff" points="198.97,-32 208.97,-28.5 198.97,-25 198.97,-32"/>
</a>
</g>
</g>
<!-- Node4 -->
<g id="Node000004" class="node">
<title>Node4</title>
<g id="a_Node000004"><a xlink:href="main_8cpp.html#a2c1eabb2ea9b242d8d9fd2c1795849e9" target="_top" xlink:title=" ">
<path fill="#fff0f0" stroke="red" d="M37.67,-19C37.67,-19 6.33,-19 6.33,-19 3.17,-19 0,-15.83 0,-12.67 0,-12.67 0,-6.33 0,-6.33 0,-3.17 3.17,0 6.33,0 6.33,0 37.67,0 37.67,0 40.83,0 44,-3.17 44,-6.33 44,-6.33 44,-12.67 44,-12.67 44,-15.83 40.83,-19 37.67,-19"/>
<text text-anchor="middle" x="22" y="-7" font-family="Helvetica,sans-Serif" font-size="10.00">ginan</text>
</a>
</g>
</g>
<!-- Node1&#45;&gt;Node4 -->
<g id="edge4_Node000001_Node000004" class="edge">
<title>Node1&#45;&gt;Node4</title>
<g id="a_edge4_Node000001_Node000004"><a xlink:title=" ">
<path fill="none" stroke="#63b8ff" d="M211.2,-16.78C198.85,-14.2 185.49,-11.84 173,-10.5 127.43,-5.6 73.62,-6.97 44.44,-8.3"/>
<polygon fill="#63b8ff" stroke="#63b8ff" points="210.79,-20.27 221.3,-18.97 212.28,-13.43 210.79,-20.27"/>
</a>
</g>
</g>
<!-- Node6&#45;&gt;Node4 -->
<g id="edge3_Node000006_Node000004" class="edge">
<title>Node6&#45;&gt;Node4</title>
<g id="a_edge3_Node000006_Node000004"><a xlink:title=" ">
<path fill="none" stroke="#63b8ff" d="M69.93,-18.2C60.73,-16.49 51.7,-14.82 44.07,-13.41"/>
<polygon fill="#63b8ff" stroke="#63b8ff" points="69.47,-21.67 79.95,-20.06 70.75,-14.79 69.47,-21.67"/>
</a>
</g>
</g>
</g>
</svg>
