<?xml version="1.0" encoding="UTF-8" standalone="no"?>
<!DOCTYPE svg PUBLIC "-//W3C//DTD SVG 1.1//EN"
 "http://www.w3.org/Graphics/SVG/1.1/DTD/svg11.dtd">
<!-- Generated by graphviz version 2.43.0 (0)
 -->
<!-- Title: freq2CodeHax Pages: 1 -->
<svg width="237pt" height="64pt"
 viewBox="0.00 0.00 237.00 64.00" xmlns="http://www.w3.org/2000/svg" xmlns:xlink="http://www.w3.org/1999/xlink">
<g id="graph0" class="graph" transform="scale(1 1) rotate(0) translate(4 60)">
<title>freq2CodeHax</title>
<!-- Node1 -->
<g id="Node000001" class="node">
<title>Node1</title>
<g id="a_Node000001"><a xlink:href="constants_8cpp.html#aae430c4cbc58c8759813666dd50f8aed" target="_top" xlink:title=" ">
<path fill="#fff0f0" stroke="red" stroke-width="2" d="M222.67,-37C222.67,-37 149.33,-37 149.33,-37 146.17,-37 143,-33.83 143,-30.67 143,-30.67 143,-24.33 143,-24.33 143,-21.17 146.17,-18 149.33,-18 149.33,-18 222.67,-18 222.67,-18 225.83,-18 229,-21.17 229,-24.33 229,-24.33 229,-30.67 229,-30.67 229,-33.83 225.83,-37 222.67,-37"/>
<text text-anchor="middle" x="186" y="-25" font-family="Helvetica,sans-Serif" font-size="10.00">freq2CodeHax</text>
</a>
</g>
</g>
<!-- Node2 -->
<g id="Node000002" class="node">
<title>Node2</title>
<g id="a_Node000002"><a xlink:href="biases_8cpp.html#a6f49cb0a55e482e3d3defdb6ab521563" target="_top" xlink:title="Search for hardware biases in phase and code.">
<path fill="#fff0f0" stroke="red" d="M73.67,-56C73.67,-56 33.33,-56 33.33,-56 30.17,-56 27,-52.83 27,-49.67 27,-49.67 27,-43.33 27,-43.33 27,-40.17 30.17,-37 33.33,-37 33.33,-37 73.67,-37 73.67,-37 76.83,-37 80,-40.17 80,-43.33 80,-43.33 80,-49.67 80,-49.67 80,-52.83 76.83,-56 73.67,-56"/>
<text text-anchor="middle" x="53.5" y="-44" font-family="Helvetica,sans-Serif" font-size="10.00">getBias</text>
</a>
</g>
</g>
<!-- Node1&#45;&gt;Node2 -->
<g id="edge1_Node000001_Node000002" class="edge">
<title>Node1&#45;&gt;Node2</title>
<g id="a_edge1_Node000001_Node000002"><a xlink:title=" ">
<path fill="none" stroke="#63b8ff" d="M133.06,-35.06C114.84,-37.72 95.17,-40.58 80.08,-42.78"/>
<polygon fill="#63b8ff" stroke="#63b8ff" points="133.6,-38.52 142.99,-33.62 132.59,-31.59 133.6,-38.52"/>
</a>
</g>
</g>
<!-- Node25 -->
<g id="Node000025" class="node">
<title>Node25</title>
<g id="a_Node000025"><a xlink:href="prototypeCmpSSREncode_8cpp.html#a2f7cefae27bafd9b9afc72ae950d2d92" target="_top" xlink:title=" ">
<path fill="#fff0f0" stroke="red" d="M100.67,-19C100.67,-19 6.33,-19 6.33,-19 3.17,-19 0,-15.83 0,-12.67 0,-12.67 0,-6.33 0,-6.33 0,-3.17 3.17,0 6.33,0 6.33,0 100.67,0 100.67,0 103.83,0 107,-3.17 107,-6.33 107,-6.33 107,-12.67 107,-12.67 107,-15.83 103.83,-19 100.67,-19"/>
<text text-anchor="middle" x="53.5" y="-7" font-family="Helvetica,sans-Serif" font-size="10.00">phaseBiasDiscChk</text>
</a>
</g>
</g>
<!-- Node1&#45;&gt;Node25 -->
<g id="edge2_Node000001_Node000025" class="edge">
<title>Node1&#45;&gt;Node25</title>
<g id="a_edge2_Node000001_Node000025"><a xlink:title=" ">
<path fill="none" stroke="#63b8ff" d="M132.94,-20.32C124.54,-19.16 115.84,-17.96 107.43,-16.8"/>
<polygon fill="#63b8ff" stroke="#63b8ff" points="132.61,-23.81 142.99,-21.71 133.56,-16.87 132.61,-23.81"/>
</a>
</g>
</g>
</g>
</svg>
