<?xml version="1.0" encoding="UTF-8" standalone="no"?>
<!DOCTYPE svg PUBLIC "-//W3C//DTD SVG 1.1//EN"
 "http://www.w3.org/Graphics/SVG/1.1/DTD/svg11.dtd">
<!-- Generated by graphviz version 2.43.0 (0)
 -->
<!-- Title: ecef2body Pages: 1 -->
<svg width="207pt" height="101pt"
 viewBox="0.00 0.00 207.00 101.00" xmlns="http://www.w3.org/2000/svg" xmlns:xlink="http://www.w3.org/1999/xlink">
<g id="graph0" class="graph" transform="scale(1 1) rotate(0) translate(4 97)">
<title>ecef2body</title>
<!-- Node1 -->
<g id="Node000001" class="node">
<title>Node1</title>
<g id="a_Node000001"><a xlink:href="coordinates_8cpp.html#a10be80caafde8ea24dcfaf9296cb2daa" target="_top" xlink:title="transform vector in ecef frame to body">
<path fill="#fff0f0" stroke="red" stroke-width="2" d="M192.67,-56C192.67,-56 137.33,-56 137.33,-56 134.17,-56 131,-52.83 131,-49.67 131,-49.67 131,-43.33 131,-43.33 131,-40.17 134.17,-37 137.33,-37 137.33,-37 192.67,-37 192.67,-37 195.83,-37 199,-40.17 199,-43.33 199,-43.33 199,-49.67 199,-49.67 199,-52.83 195.83,-56 192.67,-56"/>
<text text-anchor="middle" x="165" y="-44" font-family="Helvetica,sans-Serif" font-size="10.00">ecef2body</text>
</a>
</g>
</g>
<!-- Node2 -->
<g id="Node000002" class="node">
<title>Node2</title>
<g id="a_Node000002"><a xlink:href="ppp__obs_8cpp.html#a66209429092f04db7d0a2ed848d3be51" target="_top" xlink:title=" ">
<path fill="#fff0f0" stroke="red" d="M88.67,-93C88.67,-93 6.33,-93 6.33,-93 3.17,-93 0,-89.83 0,-86.67 0,-86.67 0,-80.33 0,-80.33 0,-77.17 3.17,-74 6.33,-74 6.33,-74 88.67,-74 88.67,-74 91.83,-74 95,-77.17 95,-80.33 95,-80.33 95,-86.67 95,-86.67 95,-89.83 91.83,-93 88.67,-93"/>
<text text-anchor="middle" x="47.5" y="-81" font-family="Helvetica,sans-Serif" font-size="10.00">pppRecAntDelta</text>
</a>
</g>
</g>
<!-- Node1&#45;&gt;Node2 -->
<g id="edge1_Node000001_Node000002" class="edge">
<title>Node1&#45;&gt;Node2</title>
<g id="a_edge1_Node000001_Node000002"><a xlink:title=" ">
<path fill="none" stroke="#63b8ff" d="M124.66,-59.1C109.58,-63.93 92.62,-69.37 78.54,-73.88"/>
<polygon fill="#63b8ff" stroke="#63b8ff" points="125.8,-62.41 134.26,-56.03 123.66,-55.75 125.8,-62.41"/>
</a>
</g>
</g>
<!-- Node8 -->
<g id="Node000008" class="node">
<title>Node8</title>
<g id="a_Node000008"><a xlink:href="ppp__obs_8cpp.html#a81fcf009e435ccfebb73a8d3b0130cc9" target="_top" xlink:title=" ">
<path fill="#fff0f0" stroke="red" d="M77.67,-56C77.67,-56 17.33,-56 17.33,-56 14.17,-56 11,-52.83 11,-49.67 11,-49.67 11,-43.33 11,-43.33 11,-40.17 14.17,-37 17.33,-37 17.33,-37 77.67,-37 77.67,-37 80.83,-37 84,-40.17 84,-43.33 84,-43.33 84,-49.67 84,-49.67 84,-52.83 80.83,-56 77.67,-56"/>
<text text-anchor="middle" x="47.5" y="-44" font-family="Helvetica,sans-Serif" font-size="10.00">pppRecPCO</text>
</a>
</g>
</g>
<!-- Node1&#45;&gt;Node8 -->
<g id="edge2_Node000001_Node000008" class="edge">
<title>Node1&#45;&gt;Node8</title>
<g id="a_edge2_Node000001_Node000008"><a xlink:title=" ">
<path fill="none" stroke="#63b8ff" d="M120.59,-46.5C108.53,-46.5 95.58,-46.5 84.02,-46.5"/>
<polygon fill="#63b8ff" stroke="#63b8ff" points="120.9,-50 130.9,-46.5 120.9,-43 120.9,-50"/>
</a>
</g>
</g>
<!-- Node9 -->
<g id="Node000009" class="node">
<title>Node9</title>
<g id="a_Node000009"><a xlink:href="ppp__obs_8cpp.html#a9bc4546491a8e07950393f1e734ee77a" target="_top" xlink:title=" ">
<path fill="#fff0f0" stroke="red" d="M76.67,-19C76.67,-19 18.33,-19 18.33,-19 15.17,-19 12,-15.83 12,-12.67 12,-12.67 12,-6.33 12,-6.33 12,-3.17 15.17,0 18.33,0 18.33,0 76.67,0 76.67,0 79.83,0 83,-3.17 83,-6.33 83,-6.33 83,-12.67 83,-12.67 83,-15.83 79.83,-19 76.67,-19"/>
<text text-anchor="middle" x="47.5" y="-7" font-family="Helvetica,sans-Serif" font-size="10.00">pppSatPCO</text>
</a>
</g>
</g>
<!-- Node1&#45;&gt;Node9 -->
<g id="edge3_Node000001_Node000009" class="edge">
<title>Node1&#45;&gt;Node9</title>
<g id="a_edge3_Node000001_Node000009"><a xlink:title=" ">
<path fill="none" stroke="#63b8ff" d="M124.66,-33.9C109.58,-29.07 92.62,-23.63 78.54,-19.12"/>
<polygon fill="#63b8ff" stroke="#63b8ff" points="123.66,-37.25 134.26,-36.97 125.8,-30.59 123.66,-37.25"/>
</a>
</g>
</g>
</g>
</svg>
