<?xml version="1.0" encoding="UTF-8" standalone="no"?>
<!DOCTYPE svg PUBLIC "-//W3C//DTD SVG 1.1//EN"
 "http://www.w3.org/Graphics/SVG/1.1/DTD/svg11.dtd">
<!-- Generated by graphviz version 2.43.0 (0)
 -->
<!-- Title: enu2ecef Pages: 1 -->
<svg width="243pt" height="101pt"
 viewBox="0.00 0.00 243.00 101.00" xmlns="http://www.w3.org/2000/svg" xmlns:xlink="http://www.w3.org/1999/xlink">
<g id="graph0" class="graph" transform="scale(1 1) rotate(0) translate(4 97)">
<title>enu2ecef</title>
<!-- Node1 -->
<g id="Node000001" class="node">
<title>Node1</title>
<g id="a_Node000001"><a xlink:href="coordinates_8cpp.html#a46582195cc36d33afb1a3d469eec8127" target="_top" xlink:title="transform local tangental coordinate vector to ecef">
<path fill="#fff0f0" stroke="red" stroke-width="2" d="M228.67,-56C228.67,-56 179.33,-56 179.33,-56 176.17,-56 173,-52.83 173,-49.67 173,-49.67 173,-43.33 173,-43.33 173,-40.17 176.17,-37 179.33,-37 179.33,-37 228.67,-37 228.67,-37 231.83,-37 235,-40.17 235,-43.33 235,-43.33 235,-49.67 235,-49.67 235,-52.83 231.83,-56 228.67,-56"/>
<text text-anchor="middle" x="204" y="-44" font-family="Helvetica,sans-Serif" font-size="10.00">enu2ecef</text>
</a>
</g>
</g>
<!-- Node2 -->
<g id="Node000002" class="node">
<title>Node2</title>
<g id="a_Node000002"><a xlink:href="geomagField_8cpp.html#a59c145bc8f2b7d8ca2fe761d1c093134" target="_top" xlink:title="Compute the geomagnetic field components in ECEF reference system at given time and position.">
<path fill="#fff0f0" stroke="red" d="M130.67,-93C130.67,-93 6.33,-93 6.33,-93 3.17,-93 0,-89.83 0,-86.67 0,-86.67 0,-80.33 0,-80.33 0,-77.17 3.17,-74 6.33,-74 6.33,-74 130.67,-74 130.67,-74 133.83,-74 137,-77.17 137,-80.33 137,-80.33 137,-86.67 137,-86.67 137,-89.83 133.83,-93 130.67,-93"/>
<text text-anchor="middle" x="68.5" y="-81" font-family="Helvetica,sans-Serif" font-size="10.00">getGeomagIntensityEcef</text>
</a>
</g>
</g>
<!-- Node1&#45;&gt;Node2 -->
<g id="edge1_Node000001_Node000002" class="edge">
<title>Node1&#45;&gt;Node2</title>
<g id="a_edge1_Node000001_Node000002"><a xlink:title=" ">
<path fill="none" stroke="#63b8ff" d="M163.01,-58.15C154.44,-60.61 145.42,-63.16 137,-65.5 126.95,-68.29 116.03,-71.23 105.97,-73.92"/>
<polygon fill="#63b8ff" stroke="#63b8ff" points="164.17,-61.46 172.81,-55.33 162.23,-54.73 164.17,-61.46"/>
</a>
</g>
</g>
<!-- Node9 -->
<g id="Node000009" class="node">
<title>Node9</title>
<g id="a_Node000009"><a xlink:href="tides_8cpp.html#a39a8c3eb047cfec80cee2b90ad29962d" target="_top" xlink:title=" ">
<path fill="#fff0f0" stroke="red" d="M90.67,-56C90.67,-56 46.33,-56 46.33,-56 43.17,-56 40,-52.83 40,-49.67 40,-49.67 40,-43.33 40,-43.33 40,-40.17 43.17,-37 46.33,-37 46.33,-37 90.67,-37 90.67,-37 93.83,-37 97,-40.17 97,-43.33 97,-43.33 97,-49.67 97,-49.67 97,-52.83 93.83,-56 90.67,-56"/>
<text text-anchor="middle" x="68.5" y="-44" font-family="Helvetica,sans-Serif" font-size="10.00">tideDisp</text>
</a>
</g>
</g>
<!-- Node1&#45;&gt;Node9 -->
<g id="edge2_Node000001_Node000009" class="edge">
<title>Node1&#45;&gt;Node9</title>
<g id="a_edge2_Node000001_Node000009"><a xlink:title=" ">
<path fill="none" stroke="#63b8ff" d="M162.45,-46.5C141.4,-46.5 116.23,-46.5 97.4,-46.5"/>
<polygon fill="#63b8ff" stroke="#63b8ff" points="162.71,-50 172.71,-46.5 162.71,-43 162.71,-50"/>
</a>
</g>
</g>
<!-- Node14 -->
<g id="Node000014" class="node">
<title>Node14</title>
<g id="a_Node000014"><a xlink:href="tropSinex_8cpp.html#a1faee2ac53f3a75f110a3d3fadd79354" target="_top" xlink:title="Write SITE/ID block.">
<path fill="#fff0f0" stroke="red" d="M106.67,-19C106.67,-19 30.33,-19 30.33,-19 27.17,-19 24,-15.83 24,-12.67 24,-12.67 24,-6.33 24,-6.33 24,-3.17 27.17,0 30.33,0 30.33,0 106.67,0 106.67,0 109.83,0 113,-3.17 113,-6.33 113,-6.33 113,-12.67 113,-12.67 113,-15.83 109.83,-19 106.67,-19"/>
<text text-anchor="middle" x="68.5" y="-7" font-family="Helvetica,sans-Serif" font-size="10.00">writeTropSiteId</text>
</a>
</g>
</g>
<!-- Node1&#45;&gt;Node14 -->
<g id="edge3_Node000001_Node000014" class="edge">
<title>Node1&#45;&gt;Node14</title>
<g id="a_edge3_Node000001_Node000014"><a xlink:title=" ">
<path fill="none" stroke="#63b8ff" d="M162.94,-35.4C144.13,-30.18 121.94,-24.04 103.91,-19.04"/>
<polygon fill="#63b8ff" stroke="#63b8ff" points="162.14,-38.81 172.71,-38.1 164,-32.06 162.14,-38.81"/>
</a>
</g>
</g>
</g>
</svg>
