<?xml version="1.0" encoding="UTF-8" standalone="no"?>
<!DOCTYPE svg PUBLIC "-//W3C//DTD SVG 1.1//EN"
 "http://www.w3.org/Graphics/SVG/1.1/DTD/svg11.dtd">
<!-- Generated by graphviz version 2.43.0 (0)
 -->
<!-- Title: readRefOtlDisp Pages: 1 -->
<svg width="233pt" height="64pt"
 viewBox="0.00 0.00 233.00 64.00" xmlns="http://www.w3.org/2000/svg" xmlns:xlink="http://www.w3.org/1999/xlink">
<g id="graph0" class="graph" transform="scale(1 1) rotate(0) translate(4 60)">
<title>readRefOtlDisp</title>
<!-- Node1 -->
<g id="Node000001" class="node">
<title>Node1</title>
<g id="a_Node000001"><a xlink:href="debug_8cpp.html#ab6e342c0a1fc50000f51952bad77d7e2" target="_top" xlink:title=" ">
<path fill="#fff0f0" stroke="red" stroke-width="2" d="M218.67,-37C218.67,-37 140.33,-37 140.33,-37 137.17,-37 134,-33.83 134,-30.67 134,-30.67 134,-24.33 134,-24.33 134,-21.17 137.17,-18 140.33,-18 140.33,-18 218.67,-18 218.67,-18 221.83,-18 225,-21.17 225,-24.33 225,-24.33 225,-30.67 225,-30.67 225,-33.83 221.83,-37 218.67,-37"/>
<text text-anchor="middle" x="179.5" y="-25" font-family="Helvetica,sans-Serif" font-size="10.00">readRefOtlDisp</text>
</a>
</g>
</g>
<!-- Node2 -->
<g id="Node000002" class="node">
<title>Node2</title>
<g id="a_Node000002"><a xlink:href="debug_8cpp.html#a561256d9ead53db67f481d3bf5c19ca7" target="_top" xlink:title=" ">
<path fill="#fff0f0" stroke="red" d="M84.67,-56C84.67,-56 13.33,-56 13.33,-56 10.17,-56 7,-52.83 7,-49.67 7,-49.67 7,-43.33 7,-43.33 7,-40.17 10.17,-37 13.33,-37 13.33,-37 84.67,-37 84.67,-37 87.83,-37 91,-40.17 91,-43.33 91,-43.33 91,-49.67 91,-49.67 91,-52.83 87.83,-56 84.67,-56"/>
<text text-anchor="middle" x="49" y="-44" font-family="Helvetica,sans-Serif" font-size="10.00">debugHardisp</text>
</a>
</g>
</g>
<!-- Node1&#45;&gt;Node2 -->
<g id="edge1_Node000001_Node000002" class="edge">
<title>Node1&#45;&gt;Node2</title>
<g id="a_edge1_Node000001_Node000002"><a xlink:title=" ">
<path fill="none" stroke="#63b8ff" d="M123.95,-35.57C112.93,-37.2 101.52,-38.88 91.06,-40.43"/>
<polygon fill="#63b8ff" stroke="#63b8ff" points="124.54,-39.02 133.92,-34.09 123.51,-32.09 124.54,-39.02"/>
</a>
</g>
</g>
<!-- Node3 -->
<g id="Node000003" class="node">
<title>Node3</title>
<g id="a_Node000003"><a xlink:href="debug_8cpp.html#af70de86752b2299dc960e06802ce7295" target="_top" xlink:title=" ">
<path fill="#fff0f0" stroke="red" d="M91.67,-19C91.67,-19 6.33,-19 6.33,-19 3.17,-19 0,-15.83 0,-12.67 0,-12.67 0,-6.33 0,-6.33 0,-3.17 3.17,0 6.33,0 6.33,0 91.67,0 91.67,0 94.83,0 98,-3.17 98,-6.33 98,-6.33 98,-12.67 98,-12.67 98,-15.83 94.83,-19 91.67,-19"/>
<text text-anchor="middle" x="49" y="-7" font-family="Helvetica,sans-Serif" font-size="10.00">debugTideOcean</text>
</a>
</g>
</g>
<!-- Node1&#45;&gt;Node3 -->
<g id="edge2_Node000001_Node000003" class="edge">
<title>Node1&#45;&gt;Node3</title>
<g id="a_edge2_Node000001_Node000003"><a xlink:title=" ">
<path fill="none" stroke="#63b8ff" d="M123.95,-19.86C115.32,-18.65 106.47,-17.41 98.01,-16.22"/>
<polygon fill="#63b8ff" stroke="#63b8ff" points="123.53,-23.33 133.92,-21.25 124.5,-16.4 123.53,-23.33"/>
</a>
</g>
</g>
</g>
</svg>
