<?xml version="1.0" encoding="UTF-8" standalone="no"?>
<!DOCTYPE svg PUBLIC "-//W3C//DTD SVG 1.1//EN"
 "http://www.w3.org/Graphics/SVG/1.1/DTD/svg11.dtd">
<!-- Generated by graphviz version 2.43.0 (0)
 -->
<!-- Title: timecheck Pages: 1 -->
<svg width="168pt" height="27pt"
 viewBox="0.00 0.00 168.00 27.00" xmlns="http://www.w3.org/2000/svg" xmlns:xlink="http://www.w3.org/1999/xlink">
<g id="graph0" class="graph" transform="scale(1 1) rotate(0) translate(4 23)">
<title>timecheck</title>
<!-- Node1 -->
<g id="Node000001" class="node">
<title>Node1</title>
<g id="a_Node000001"><a xlink:href="debug_8cpp.html#a48ec21d056df993e81de30a4d1306899" target="_top" xlink:title="Compare the orbital states created by pseudo&#45;linear state transitions with the original values.">
<path fill="#fff0f0" stroke="red" stroke-width="2" d="M61.67,-19C61.67,-19 6.33,-19 6.33,-19 3.17,-19 0,-15.83 0,-12.67 0,-12.67 0,-6.33 0,-6.33 0,-3.17 3.17,0 6.33,0 6.33,0 61.67,0 61.67,0 64.83,0 68,-3.17 68,-6.33 68,-6.33 68,-12.67 68,-12.67 68,-15.83 64.83,-19 61.67,-19"/>
<text text-anchor="middle" x="34" y="-7" font-family="Helvetica,sans-Serif" font-size="10.00">timecheck</text>
</a>
</g>
</g>
<!-- Node2 -->
<g id="Node000002" class="node">
<title>Node2</title>
<g id="a_Node000002"><a xlink:href="gTime_8cpp.html#abc73cf336f9fa1b3622c933d5925e073" target="_top" xlink:title=" ">
<path fill="#fff0f0" stroke="red" d="M153.67,-19C153.67,-19 110.33,-19 110.33,-19 107.17,-19 104,-15.83 104,-12.67 104,-12.67 104,-6.33 104,-6.33 104,-3.17 107.17,0 110.33,0 110.33,0 153.67,0 153.67,0 156.83,0 160,-3.17 160,-6.33 160,-6.33 160,-12.67 160,-12.67 160,-15.83 156.83,-19 153.67,-19"/>
<text text-anchor="middle" x="132" y="-7" font-family="Helvetica,sans-Serif" font-size="10.00">timeGet</text>
</a>
</g>
</g>
<!-- Node1&#45;&gt;Node2 -->
<g id="edge1_Node000001_Node000002" class="edge">
<title>Node1&#45;&gt;Node2</title>
<g id="a_edge1_Node000001_Node000002"><a xlink:title=" ">
<path fill="none" stroke="#63b8ff" d="M68.04,-9.5C76.37,-9.5 85.36,-9.5 93.88,-9.5"/>
<polygon fill="#63b8ff" stroke="#63b8ff" points="93.95,-13 103.95,-9.5 93.95,-6 93.95,-13"/>
</a>
</g>
</g>
</g>
</svg>
