<?xml version="1.0" encoding="UTF-8" standalone="no"?>
<!DOCTYPE svg PUBLIC "-//W3C//DTD SVG 1.1//EN"
 "http://www.w3.org/Graphics/SVG/1.1/DTD/svg11.dtd">
<!-- Generated by graphviz version 2.43.0 (0)
 -->
<!-- Title: debugBlq Pages: 1 -->
<svg width="160pt" height="27pt"
 viewBox="0.00 0.00 160.00 27.00" xmlns="http://www.w3.org/2000/svg" xmlns:xlink="http://www.w3.org/1999/xlink">
<g id="graph0" class="graph" transform="scale(1 1) rotate(0) translate(4 23)">
<title>debugBlq</title>
<!-- Node1 -->
<g id="Node000001" class="node">
<title>Node1</title>
<g id="a_Node000001"><a xlink:href="debug_8cpp.html#aa28517a08d101376c353af9c09cf495c" target="_top" xlink:title=" ">
<path fill="#fff0f0" stroke="red" stroke-width="2" d="M55.67,-19C55.67,-19 6.33,-19 6.33,-19 3.17,-19 0,-15.83 0,-12.67 0,-12.67 0,-6.33 0,-6.33 0,-3.17 3.17,0 6.33,0 6.33,0 55.67,0 55.67,0 58.83,0 62,-3.17 62,-6.33 62,-6.33 62,-12.67 62,-12.67 62,-15.83 58.83,-19 55.67,-19"/>
<text text-anchor="middle" x="31" y="-7" font-family="Helvetica,sans-Serif" font-size="10.00">debugBlq</text>
</a>
</g>
</g>
<!-- Node2 -->
<g id="Node000002" class="node">
<title>Node2</title>
<g id="a_Node000002"><a xlink:href="tides_8cpp.html#aeb36d9680b44b6ea52bc6f261fe64130" target="_top" xlink:title="Read BLQ ocean/atmospheric tide loading parameters.">
<path fill="#fff0f0" stroke="red" d="M145.67,-19C145.67,-19 104.33,-19 104.33,-19 101.17,-19 98,-15.83 98,-12.67 98,-12.67 98,-6.33 98,-6.33 98,-3.17 101.17,0 104.33,0 104.33,0 145.67,0 145.67,0 148.83,0 152,-3.17 152,-6.33 152,-6.33 152,-12.67 152,-12.67 152,-15.83 148.83,-19 145.67,-19"/>
<text text-anchor="middle" x="125" y="-7" font-family="Helvetica,sans-Serif" font-size="10.00">readBlq</text>
</a>
</g>
</g>
<!-- Node1&#45;&gt;Node2 -->
<g id="edge1_Node000001_Node000002" class="edge">
<title>Node1&#45;&gt;Node2</title>
<g id="a_edge1_Node000001_Node000002"><a xlink:title=" ">
<path fill="none" stroke="#63b8ff" d="M62.12,-3.12C70.32,-2.72 79.28,-2.65 87.78,-2.89"/>
<polygon fill="#63b8ff" stroke="#63b8ff" points="87.68,-6.39 97.83,-3.34 88,0.61 87.68,-6.39"/>
</a>
</g>
</g>
<!-- Node1&#45;&gt;Node2 -->
<g id="edge2_Node000001_Node000002" class="edge">
<title>Node1&#45;&gt;Node2</title>
<g id="a_edge2_Node000001_Node000002"><a xlink:title=" ">
<path fill="none" stroke="#63b8ff" d="M62.12,-15.88C70.32,-16.28 79.28,-16.35 87.78,-16.11"/>
<polygon fill="#63b8ff" stroke="#63b8ff" points="88,-19.61 97.83,-15.66 87.68,-12.61 88,-19.61"/>
</a>
</g>
</g>
</g>
</svg>
