<?xml version="1.0" encoding="UTF-8" standalone="no"?>
<!DOCTYPE svg PUBLIC "-//W3C//DTD SVG 1.1//EN"
 "http://www.w3.org/Graphics/SVG/1.1/DTD/svg11.dtd">
<!-- Generated by graphviz version 2.43.0 (0)
 -->
<!-- Title: minimumTest Pages: 1 -->
<svg width="447pt" height="406pt"
 viewBox="0.00 0.00 447.00 406.33" xmlns="http://www.w3.org/2000/svg" xmlns:xlink="http://www.w3.org/1999/xlink">
<g id="graph0" class="graph" transform="scale(1 1) rotate(0) translate(4 402.33)">
<title>minimumTest</title>
<!-- Node1 -->
<g id="Node000001" class="node">
<title>Node1</title>
<g id="a_Node000001"><a xlink:href="debug_8cpp.html#a80d24c0bf09dad23394c5fcac25aa80b" target="_top" xlink:title=" ">
<path fill="#fff0f0" stroke="red" stroke-width="2" d="M76.67,-227C76.67,-227 6.33,-227 6.33,-227 3.17,-227 0,-223.83 0,-220.67 0,-220.67 0,-214.33 0,-214.33 0,-211.17 3.17,-208 6.33,-208 6.33,-208 76.67,-208 76.67,-208 79.83,-208 83,-211.17 83,-214.33 83,-214.33 83,-220.67 83,-220.67 83,-223.83 79.83,-227 76.67,-227"/>
<text text-anchor="middle" x="41.5" y="-215" font-family="Helvetica,sans-Serif" font-size="10.00">minimumTest</text>
</a>
</g>
</g>
<!-- Node2 -->
<g id="Node000002" class="node">
<title>Node2</title>
<g id="a_Node000002"><a xlink:href="erp_8cpp.html#afe3874cc58d609f4ccc2b03a5ef632b8" target="_top" xlink:title="Get earth rotation parameter values.">
<path fill="#fff0f0" stroke="red" d="M379.17,-395C379.17,-395 343.83,-395 343.83,-395 340.67,-395 337.5,-391.83 337.5,-388.67 337.5,-388.67 337.5,-382.33 337.5,-382.33 337.5,-379.17 340.67,-376 343.83,-376 343.83,-376 379.17,-376 379.17,-376 382.33,-376 385.5,-379.17 385.5,-382.33 385.5,-382.33 385.5,-388.67 385.5,-388.67 385.5,-391.83 382.33,-395 379.17,-395"/>
<text text-anchor="middle" x="361.5" y="-383" font-family="Helvetica,sans-Serif" font-size="10.00">getErp</text>
</a>
</g>
</g>
<!-- Node1&#45;&gt;Node2 -->
<g id="edge1_Node000001_Node000002" class="edge">
<title>Node1&#45;&gt;Node2</title>
<g id="a_edge1_Node000001_Node000002"><a xlink:title=" ">
<path fill="none" stroke="#63b8ff" d="M44.23,-227.17C49.65,-254.26 69,-331.1 119,-364.5 182.55,-406.94 277.45,-399.74 327.25,-391.97"/>
<polygon fill="#63b8ff" stroke="#63b8ff" points="327.88,-395.41 337.17,-390.32 326.73,-388.51 327.88,-395.41"/>
</a>
</g>
</g>
<!-- Node22 -->
<g id="Node000022" class="node">
<title>Node22</title>
<g id="a_Node000022"><a xlink:href="structKFMeasEntry.html#a358f854f4544c59fd129e46a1baf0e34" target="_top" xlink:title="Adds a design matrix entry for this measurement.">
<path fill="#fff0f0" stroke="red" d="M432.67,-339C432.67,-339 290.33,-339 290.33,-339 287.17,-339 284,-335.83 284,-332.67 284,-332.67 284,-326.33 284,-326.33 284,-323.17 287.17,-320 290.33,-320 290.33,-320 432.67,-320 432.67,-320 435.83,-320 439,-323.17 439,-326.33 439,-326.33 439,-332.67 439,-332.67 439,-335.83 435.83,-339 432.67,-339"/>
<text text-anchor="middle" x="361.5" y="-327" font-family="Helvetica,sans-Serif" font-size="10.00">KFMeasEntry::addDsgnEntry</text>
</a>
</g>
</g>
<!-- Node1&#45;&gt;Node22 -->
<g id="edge2_Node000001_Node000022" class="edge">
<title>Node1&#45;&gt;Node22</title>
<g id="a_edge2_Node000001_Node000022"><a xlink:title=" ">
<path fill="none" stroke="#63b8ff" d="M47.5,-227.33C56.84,-249.47 79.66,-300.62 119,-321.5 168.29,-347.65 231.6,-346.34 281.03,-340.32"/>
<polygon fill="#63b8ff" stroke="#63b8ff" points="281.57,-343.78 291.04,-339.02 280.67,-336.84 281.57,-343.78"/>
</a>
</g>
</g>
<!-- Node1&#45;&gt;Node22 -->
<g id="edge3_Node000001_Node000022" class="edge">
<title>Node1&#45;&gt;Node22</title>
<g id="a_edge3_Node000001_Node000022"><a xlink:title=" ">
<path fill="none" stroke="#63b8ff" d="M44.3,-227.1C50.63,-252.15 74.01,-315.63 119,-339.5 189.24,-376.77 287.95,-358.27 334.4,-342.52"/>
<polygon fill="#63b8ff" stroke="#63b8ff" points="335.81,-345.73 344.01,-339.02 333.41,-339.15 335.81,-345.73"/>
</a>
</g>
</g>
<!-- Node23 -->
<g id="Node000023" class="node">
<title>Node23</title>
<g id="a_Node000023"><a xlink:href="structKFState.html#a8f43fca242e78201e48996ebbb4fd69f" target="_top" xlink:title="Tries to add a state to the filter object.">
<path fill="#fff0f0" stroke="red" d="M235.17,-321C235.17,-321 131.83,-321 131.83,-321 128.67,-321 125.5,-317.83 125.5,-314.67 125.5,-314.67 125.5,-308.33 125.5,-308.33 125.5,-305.17 128.67,-302 131.83,-302 131.83,-302 235.17,-302 235.17,-302 238.33,-302 241.5,-305.17 241.5,-308.33 241.5,-308.33 241.5,-314.67 241.5,-314.67 241.5,-317.83 238.33,-321 235.17,-321"/>
<text text-anchor="middle" x="183.5" y="-309" font-family="Helvetica,sans-Serif" font-size="10.00">KFState::addKFState</text>
</a>
</g>
</g>
<!-- Node1&#45;&gt;Node23 -->
<g id="edge4_Node000001_Node000023" class="edge">
<title>Node1&#45;&gt;Node23</title>
<g id="a_edge4_Node000001_Node000023"><a xlink:title=" ">
<path fill="none" stroke="#63b8ff" d="M50.98,-227.36C64.2,-242.2 91.09,-270.34 119,-287.5 125.71,-291.62 133.24,-295.23 140.7,-298.31"/>
<polygon fill="#63b8ff" stroke="#63b8ff" points="139.47,-301.58 150.06,-301.92 141.99,-295.05 139.47,-301.58"/>
</a>
</g>
</g>
<!-- Node24 -->
<g id="Node000024" class="node">
<title>Node24</title>
<g id="a_Node000024"><a xlink:href="structKFMeasEntry.html#a7d612c21a6d8f4367e273baf672e6cbd" target="_top" xlink:title="Adds the actual measurement value for this measurement.">
<path fill="#fff0f0" stroke="red" d="M419.17,-274C419.17,-274 303.83,-274 303.83,-274 300.67,-274 297.5,-270.83 297.5,-267.67 297.5,-267.67 297.5,-261.33 297.5,-261.33 297.5,-258.17 300.67,-255 303.83,-255 303.83,-255 419.17,-255 419.17,-255 422.33,-255 425.5,-258.17 425.5,-261.33 425.5,-261.33 425.5,-267.67 425.5,-267.67 425.5,-270.83 422.33,-274 419.17,-274"/>
<text text-anchor="middle" x="361.5" y="-262" font-family="Helvetica,sans-Serif" font-size="10.00">KFMeasEntry::setValue</text>
</a>
</g>
</g>
<!-- Node1&#45;&gt;Node24 -->
<g id="edge5_Node000001_Node000024" class="edge">
<title>Node1&#45;&gt;Node24</title>
<g id="a_edge5_Node000001_Node000024"><a xlink:title=" ">
<path fill="none" stroke="#63b8ff" d="M83.18,-219.98C94.7,-222.5 107.29,-225.38 119,-227.5 184.53,-239.39 261.02,-247.26 310.06,-253.65"/>
<polygon fill="#63b8ff" stroke="#63b8ff" points="309.72,-257.14 320.1,-255 310.65,-250.2 309.72,-257.14"/>
</a>
</g>
</g>
<!-- Node1&#45;&gt;Node24 -->
<g id="edge6_Node000001_Node000024" class="edge">
<title>Node1&#45;&gt;Node24</title>
<g id="a_edge6_Node000001_Node000024"><a xlink:title=" ">
<path fill="none" stroke="#63b8ff" d="M54.06,-227.09C68.96,-234.08 95.71,-241.27 119,-245.5 175.12,-255.68 239.29,-262.91 287.37,-266.15"/>
<polygon fill="#63b8ff" stroke="#63b8ff" points="287.17,-269.65 297.38,-266.78 287.61,-262.66 287.17,-269.65"/>
</a>
</g>
</g>
<!-- Node25 -->
<g id="Node000025" class="node">
<title>Node25</title>
<g id="a_Node000025"><a xlink:href="structKFMeasEntry.html#a58172784aeb65ed62d2b21ee570f4980" target="_top" xlink:title="Adds the measurement noise entry for this measurement.">
<path fill="#fff0f0" stroke="red" d="M241.67,-227C241.67,-227 125.33,-227 125.33,-227 122.17,-227 119,-223.83 119,-220.67 119,-220.67 119,-214.33 119,-214.33 119,-211.17 122.17,-208 125.33,-208 125.33,-208 241.67,-208 241.67,-208 244.83,-208 248,-211.17 248,-214.33 248,-214.33 248,-220.67 248,-220.67 248,-223.83 244.83,-227 241.67,-227"/>
<text text-anchor="middle" x="183.5" y="-215" font-family="Helvetica,sans-Serif" font-size="10.00">KFMeasEntry::setNoise</text>
</a>
</g>
</g>
<!-- Node1&#45;&gt;Node25 -->
<g id="edge7_Node000001_Node000025" class="edge">
<title>Node1&#45;&gt;Node25</title>
<g id="a_edge7_Node000001_Node000025"><a xlink:title=" ">
<path fill="none" stroke="#63b8ff" d="M83.37,-211.3C91.38,-210.98 100,-210.8 108.7,-210.76"/>
<polygon fill="#63b8ff" stroke="#63b8ff" points="108.92,-214.26 118.92,-210.78 108.93,-207.26 108.92,-214.26"/>
</a>
</g>
</g>
<!-- Node1&#45;&gt;Node25 -->
<g id="edge8_Node000001_Node000025" class="edge">
<title>Node1&#45;&gt;Node25</title>
<g id="a_edge8_Node000001_Node000025"><a xlink:title=" ">
<path fill="none" stroke="#63b8ff" d="M83.37,-223.7C91.38,-224.02 100,-224.2 108.7,-224.24"/>
<polygon fill="#63b8ff" stroke="#63b8ff" points="108.93,-227.74 118.92,-224.22 108.92,-220.74 108.93,-227.74"/>
</a>
</g>
</g>
<!-- Node26 -->
<g id="Node000026" class="node">
<title>Node26</title>
<g id="a_Node000026"><a xlink:href="structKFState.html#a7f8e4b9291361c063cef8d9178f07707" target="_top" xlink:title="Add process noise and dynamics to filter object according to time gap.">
<path fill="#fff0f0" stroke="red" d="M421.17,-142C421.17,-142 301.83,-142 301.83,-142 298.67,-142 295.5,-138.83 295.5,-135.67 295.5,-135.67 295.5,-129.33 295.5,-129.33 295.5,-126.17 298.67,-123 301.83,-123 301.83,-123 421.17,-123 421.17,-123 424.33,-123 427.5,-126.17 427.5,-129.33 427.5,-129.33 427.5,-135.67 427.5,-135.67 427.5,-138.83 424.33,-142 421.17,-142"/>
<text text-anchor="middle" x="361.5" y="-130" font-family="Helvetica,sans-Serif" font-size="10.00">KFState::stateTransition</text>
</a>
</g>
</g>
<!-- Node1&#45;&gt;Node26 -->
<g id="edge9_Node000001_Node000026" class="edge">
<title>Node1&#45;&gt;Node26</title>
<g id="a_edge9_Node000001_Node000026"><a xlink:title=" ">
<path fill="none" stroke="#63b8ff" d="M78.05,-208C136.05,-192.49 250.95,-161.78 314.88,-144.69"/>
<polygon fill="#63b8ff" stroke="#63b8ff" points="315.93,-148.04 324.69,-142.07 314.12,-141.27 315.93,-148.04"/>
</a>
</g>
</g>
<!-- Node34 -->
<g id="Node000034" class="node">
<title>Node34</title>
<g id="a_Node000034"><a xlink:href="structKFState.html#ae1fc274c403b77dc814ed90763b4dea1" target="_top" xlink:title="Least squares estimator for new kalman filter states.">
<path fill="#fff0f0" stroke="red" d="M418.5,-104.5C418.5,-104.5 304.5,-104.5 304.5,-104.5 299.5,-104.5 294.5,-99.5 294.5,-94.5 294.5,-94.5 294.5,-84.5 294.5,-84.5 294.5,-79.5 299.5,-74.5 304.5,-74.5 304.5,-74.5 418.5,-74.5 418.5,-74.5 423.5,-74.5 428.5,-79.5 428.5,-84.5 428.5,-84.5 428.5,-94.5 428.5,-94.5 428.5,-99.5 423.5,-104.5 418.5,-104.5"/>
<text text-anchor="start" x="302.5" y="-92.5" font-family="Helvetica,sans-Serif" font-size="10.00">KFState::leastSquareInit</text>
<text text-anchor="middle" x="361.5" y="-81.5" font-family="Helvetica,sans-Serif" font-size="10.00">States</text>
</a>
</g>
</g>
<!-- Node1&#45;&gt;Node34 -->
<g id="edge10_Node000001_Node000034" class="edge">
<title>Node1&#45;&gt;Node34</title>
<g id="a_edge10_Node000001_Node000034"><a xlink:title=" ">
<path fill="none" stroke="#63b8ff" d="M53.08,-207.66C67.14,-195.08 93.22,-173.38 119,-160.5 149.18,-145.43 230.81,-122.71 290.84,-107.05"/>
<polygon fill="#63b8ff" stroke="#63b8ff" points="291.86,-110.4 300.66,-104.5 290.1,-103.63 291.86,-110.4"/>
</a>
</g>
</g>
<!-- Node36 -->
<g id="Node000036" class="node">
<title>Node36</title>
<g id="a_Node000036"><a xlink:href="structKFState.html#a0d12c57e70876543084c182a660bbbd3" target="_top" xlink:title="Kalman filter operation.">
<path fill="#fff0f0" stroke="red" d="M415.17,-19C415.17,-19 307.83,-19 307.83,-19 304.67,-19 301.5,-15.83 301.5,-12.67 301.5,-12.67 301.5,-6.33 301.5,-6.33 301.5,-3.17 304.67,0 307.83,0 307.83,0 415.17,0 415.17,0 418.33,0 421.5,-3.17 421.5,-6.33 421.5,-6.33 421.5,-12.67 421.5,-12.67 421.5,-15.83 418.33,-19 415.17,-19"/>
<text text-anchor="middle" x="361.5" y="-7" font-family="Helvetica,sans-Serif" font-size="10.00">KFState::filterKalman</text>
</a>
</g>
</g>
<!-- Node1&#45;&gt;Node36 -->
<g id="edge11_Node000001_Node000036" class="edge">
<title>Node1&#45;&gt;Node36</title>
<g id="a_edge11_Node000001_Node000036"><a xlink:title=" ">
<path fill="none" stroke="#63b8ff" d="M47.94,-207.88C59.16,-188.7 86.57,-145.16 119,-117.5 126.92,-110.74 274.29,-32.26 284,-28.5 290.43,-26.01 297.3,-23.77 304.17,-21.77"/>
<polygon fill="#63b8ff" stroke="#63b8ff" points="305.49,-25.03 314.21,-19.01 303.64,-18.28 305.49,-25.03"/>
</a>
</g>
</g>
<!-- Node60 -->
<g id="Node000060" class="node">
<title>Node60</title>
<g id="a_Node000060"><a xlink:href="structKFState.html#a0c84e911a5ea760fe728baec661e33f0" target="_top" xlink:title="Output keys and states in human readable format.">
<path fill="#fff0f0" stroke="red" d="M416.17,-56C416.17,-56 306.83,-56 306.83,-56 303.67,-56 300.5,-52.83 300.5,-49.67 300.5,-49.67 300.5,-43.33 300.5,-43.33 300.5,-40.17 303.67,-37 306.83,-37 306.83,-37 416.17,-37 416.17,-37 419.33,-37 422.5,-40.17 422.5,-43.33 422.5,-43.33 422.5,-49.67 422.5,-49.67 422.5,-52.83 419.33,-56 416.17,-56"/>
<text text-anchor="middle" x="361.5" y="-44" font-family="Helvetica,sans-Serif" font-size="10.00">KFState::outputStates</text>
</a>
</g>
</g>
<!-- Node1&#45;&gt;Node60 -->
<g id="edge12_Node000001_Node000060" class="edge">
<title>Node1&#45;&gt;Node60</title>
<g id="a_edge12_Node000001_Node000060"><a xlink:title=" ">
<path fill="none" stroke="#63b8ff" d="M46.94,-207.93C56.86,-187.57 82.86,-139.78 119,-114.5 169.95,-78.87 239.16,-61.83 290.43,-53.73"/>
<polygon fill="#63b8ff" stroke="#63b8ff" points="291.06,-57.17 300.43,-52.23 290.02,-50.25 291.06,-57.17"/>
</a>
</g>
</g>
<!-- Node61 -->
<g id="Node000061" class="node">
<title>Node61</title>
<g id="a_Node000061"><a xlink:href="minimumConstraints_8cpp.html#aa40934b017f373d875c3470591eff52e" target="_top" xlink:title=" ">
<path fill="#fff0f0" stroke="red" d="M203.67,-37C203.67,-37 163.33,-37 163.33,-37 160.17,-37 157,-33.83 157,-30.67 157,-30.67 157,-24.33 157,-24.33 157,-21.17 160.17,-18 163.33,-18 163.33,-18 203.67,-18 203.67,-18 206.83,-18 210,-21.17 210,-24.33 210,-24.33 210,-30.67 210,-30.67 210,-33.83 206.83,-37 203.67,-37"/>
<text text-anchor="middle" x="183.5" y="-25" font-family="Helvetica,sans-Serif" font-size="10.00">mincon</text>
</a>
</g>
</g>
<!-- Node1&#45;&gt;Node61 -->
<g id="edge13_Node000001_Node000061" class="edge">
<title>Node1&#45;&gt;Node61</title>
<g id="a_edge13_Node000001_Node000061"><a xlink:title=" ">
<path fill="none" stroke="#63b8ff" d="M44.3,-207.75C50,-179.53 70.25,-96.93 119,-51.5 126.82,-44.21 137.08,-39.07 147.06,-35.48"/>
<polygon fill="#63b8ff" stroke="#63b8ff" points="148.38,-38.73 156.85,-32.37 146.26,-32.06 148.38,-38.73"/>
</a>
</g>
</g>
<!-- Node61&#45;&gt;Node2 -->
<g id="edge14_Node000061_Node000002" class="edge">
<title>Node61&#45;&gt;Node2</title>
<g id="a_edge14_Node000061_Node000002"><a xlink:title=" ">
<path fill="none" stroke="#63b8ff" d="M188.48,-37.06C199.14,-62.91 228.82,-136.46 248,-199.5 267.83,-264.68 241.23,-295.47 284,-348.5 295.02,-362.16 312.31,-371.11 327.67,-376.79"/>
<polygon fill="#63b8ff" stroke="#63b8ff" points="326.81,-380.19 337.4,-380.06 329.04,-373.55 326.81,-380.19"/>
</a>
</g>
</g>
<!-- Node61&#45;&gt;Node22 -->
<g id="edge15_Node000061_Node000022" class="edge">
<title>Node61&#45;&gt;Node22</title>
<g id="a_edge15_Node000061_Node000022"><a xlink:title=" ">
<path fill="none" stroke="#63b8ff" d="M189.22,-37.07C207.83,-81.79 275.53,-264.45 284,-274.5 299.27,-292.63 323.61,-305.52 340.72,-314.88"/>
<polygon fill="#63b8ff" stroke="#63b8ff" points="339.41,-318.15 349.84,-319.99 342.83,-312.05 339.41,-318.15"/>
</a>
</g>
</g>
<!-- Node61&#45;&gt;Node22 -->
<g id="edge16_Node000061_Node000022" class="edge">
<title>Node61&#45;&gt;Node22</title>
<g id="a_edge16_Node000061_Node000022"><a xlink:title=" ">
<path fill="none" stroke="#63b8ff" d="M187.1,-37.03C201.89,-83.73 275.17,-282.02 284,-292.5 291.34,-301.21 300.77,-308.71 310.49,-314.77"/>
<polygon fill="#63b8ff" stroke="#63b8ff" points="309.02,-317.96 319.44,-319.91 312.51,-311.9 309.02,-317.96"/>
</a>
</g>
</g>
<!-- Node61&#45;&gt;Node24 -->
<g id="edge17_Node000061_Node000024" class="edge">
<title>Node61&#45;&gt;Node24</title>
<g id="a_edge17_Node000061_Node000024"><a xlink:title=" ">
<path fill="none" stroke="#63b8ff" d="M191.62,-37.08C218.26,-72.96 312.36,-199.68 347.31,-246.74"/>
<polygon fill="#63b8ff" stroke="#63b8ff" points="344.52,-248.85 353.29,-254.8 350.14,-244.68 344.52,-248.85"/>
</a>
</g>
</g>
<!-- Node61&#45;&gt;Node26 -->
<g id="edge18_Node000061_Node000026" class="edge">
<title>Node61&#45;&gt;Node26</title>
<g id="a_edge18_Node000061_Node000026"><a xlink:title=" ">
<path fill="none" stroke="#63b8ff" d="M198.35,-37.09C216.2,-53.82 249.13,-86.43 284,-104.5 298.47,-112 316.03,-116.63 330.68,-120.35"/>
<polygon fill="#63b8ff" stroke="#63b8ff" points="330.19,-123.84 340.74,-122.92 331.92,-117.05 330.19,-123.84"/>
</a>
</g>
</g>
<!-- Node61&#45;&gt;Node26 -->
<g id="edge23_Node000061_Node000026" class="edge">
<title>Node61&#45;&gt;Node26</title>
<g id="a_edge23_Node000061_Node000026"><a xlink:title=" ">
<path fill="none" stroke="#63b8ff" d="M189.05,-37.01C202.12,-57.12 241.63,-100.54 284,-122.5 284.68,-122.85 285.37,-123.2 286.07,-123.54"/>
<polygon fill="#63b8ff" stroke="#63b8ff" points="284.86,-126.83 295.43,-127.62 287.66,-120.42 284.86,-126.83"/>
</a>
</g>
</g>
<!-- Node61&#45;&gt;Node34 -->
<g id="edge19_Node000061_Node000034" class="edge">
<title>Node61&#45;&gt;Node34</title>
<g id="a_edge19_Node000061_Node000034"><a xlink:title=" ">
<path fill="none" stroke="#63b8ff" d="M208.48,-37.13C228.54,-45.07 257.97,-56.46 284,-65.5 289.56,-67.43 295.37,-69.38 301.19,-71.29"/>
<polygon fill="#63b8ff" stroke="#63b8ff" points="300.38,-74.7 310.97,-74.45 302.53,-68.04 300.38,-74.7"/>
</a>
</g>
</g>
<!-- Node61&#45;&gt;Node36 -->
<g id="edge21_Node000061_Node000036" class="edge">
<title>Node61&#45;&gt;Node36</title>
<g id="a_edge21_Node000061_Node000036"><a xlink:title=" ">
<path fill="none" stroke="#63b8ff" d="M210.09,-24.88C231.41,-22.7 262.8,-19.49 291.4,-16.57"/>
<polygon fill="#63b8ff" stroke="#63b8ff" points="291.78,-20.05 301.38,-15.55 291.07,-13.08 291.78,-20.05"/>
</a>
</g>
</g>
<!-- Node61&#45;&gt;Node60 -->
<g id="edge20_Node000061_Node000060" class="edge">
<title>Node61&#45;&gt;Node60</title>
<g id="a_edge20_Node000061_Node000060"><a xlink:title=" ">
<path fill="none" stroke="#63b8ff" d="M210.09,-25.33C237.31,-26.29 280.93,-30.64 314.21,-35.48"/>
<polygon fill="#63b8ff" stroke="#63b8ff" points="313.76,-38.95 324.17,-36.99 314.81,-32.03 313.76,-38.95"/>
</a>
</g>
</g>
<!-- Node61&#45;&gt;Node60 -->
<g id="edge22_Node000061_Node000060" class="edge">
<title>Node61&#45;&gt;Node60</title>
<g id="a_edge22_Node000061_Node000060"><a xlink:title=" ">
<path fill="none" stroke="#63b8ff" d="M210.09,-35.19C231.06,-38.98 261.78,-42.86 290,-45.52"/>
<polygon fill="#63b8ff" stroke="#63b8ff" points="289.98,-49.03 300.26,-46.44 290.61,-42.06 289.98,-49.03"/>
</a>
</g>
</g>
</g>
</svg>
