<?xml version="1.0" encoding="UTF-8" standalone="no"?>
<!DOCTYPE svg PUBLIC "-//W3C//DTD SVG 1.1//EN"
 "http://www.w3.org/Graphics/SVG/1.1/DTD/svg11.dtd">
<!-- Generated by graphviz version 2.43.0 (0)
 -->
<!-- Title: alternatePostfits Pages: 1 -->
<svg width="211pt" height="64pt"
 viewBox="0.00 0.00 211.00 64.00" xmlns="http://www.w3.org/2000/svg" xmlns:xlink="http://www.w3.org/1999/xlink">
<g id="graph0" class="graph" transform="scale(1 1) rotate(0) translate(4 60)">
<title>alternatePostfits</title>
<!-- Node1 -->
<g id="Node000001" class="node">
<title>Node1</title>
<g id="a_Node000001"><a xlink:href="ppppp_8cpp.html#ae4469a04171cca583bbf37c4443b3dd3" target="_top" xlink:title=" ">
<path fill="#fff0f0" stroke="red" stroke-width="2" d="M196.67,-37C196.67,-37 112.33,-37 112.33,-37 109.17,-37 106,-33.83 106,-30.67 106,-30.67 106,-24.33 106,-24.33 106,-21.17 109.17,-18 112.33,-18 112.33,-18 196.67,-18 196.67,-18 199.83,-18 203,-21.17 203,-24.33 203,-24.33 203,-30.67 203,-30.67 203,-33.83 199.83,-37 196.67,-37"/>
<text text-anchor="middle" x="154.5" y="-25" font-family="Helvetica,sans-Serif" font-size="10.00">alternatePostfits</text>
</a>
</g>
</g>
<!-- Node2 -->
<g id="Node000002" class="node">
<title>Node2</title>
<g id="a_Node000002"><a xlink:href="debug_8cpp.html#a6b386ae3f1e24bab3a4c831fa043a400" target="_top" xlink:title=" ">
<path fill="#fff0f0" stroke="red" d="M63.67,-56C63.67,-56 6.33,-56 6.33,-56 3.17,-56 0,-52.83 0,-49.67 0,-49.67 0,-43.33 0,-43.33 0,-40.17 3.17,-37 6.33,-37 6.33,-37 63.67,-37 63.67,-37 66.83,-37 70,-40.17 70,-43.33 70,-43.33 70,-49.67 70,-49.67 70,-52.83 66.83,-56 63.67,-56"/>
<text text-anchor="middle" x="35" y="-44" font-family="Helvetica,sans-Serif" font-size="10.00">infiniteTest</text>
</a>
</g>
</g>
<!-- Node1&#45;&gt;Node2 -->
<g id="edge1_Node000001_Node000002" class="edge">
<title>Node1&#45;&gt;Node2</title>
<g id="a_edge1_Node000001_Node000002"><a xlink:title=" ">
<path fill="none" stroke="#63b8ff" d="M95.81,-36.83C87,-38.25 78.15,-39.68 70.06,-40.99"/>
<polygon fill="#63b8ff" stroke="#63b8ff" points="96.4,-40.28 105.71,-35.23 95.28,-33.37 96.4,-40.28"/>
</a>
</g>
</g>
<!-- Node3 -->
<g id="Node000003" class="node">
<title>Node3</title>
<g id="a_Node000003"><a xlink:href="ppppp_8cpp.html#a9997f03cab80cd8db895650860eb025e" target="_top" xlink:title=" ">
<path fill="#fff0f0" stroke="red" d="M46.17,-19C46.17,-19 23.83,-19 23.83,-19 20.67,-19 17.5,-15.83 17.5,-12.67 17.5,-12.67 17.5,-6.33 17.5,-6.33 17.5,-3.17 20.67,0 23.83,0 23.83,0 46.17,0 46.17,0 49.33,0 52.5,-3.17 52.5,-6.33 52.5,-6.33 52.5,-12.67 52.5,-12.67 52.5,-15.83 49.33,-19 46.17,-19"/>
<text text-anchor="middle" x="35" y="-7" font-family="Helvetica,sans-Serif" font-size="10.00">ppp</text>
</a>
</g>
</g>
<!-- Node1&#45;&gt;Node3 -->
<g id="edge2_Node000001_Node000003" class="edge">
<title>Node1&#45;&gt;Node3</title>
<g id="a_edge2_Node000001_Node000003"><a xlink:title=" ">
<path fill="none" stroke="#63b8ff" d="M95.47,-18.61C79.8,-16.21 64.06,-13.8 52.71,-12.06"/>
<polygon fill="#63b8ff" stroke="#63b8ff" points="95.29,-22.12 105.71,-20.18 96.35,-15.2 95.29,-22.12"/>
</a>
</g>
</g>
</g>
</svg>
