<?xml version="1.0" encoding="UTF-8" standalone="no"?>
<!DOCTYPE svg PUBLIC "-//W3C//DTD SVG 1.1//EN"
 "http://www.w3.org/Graphics/SVG/1.1/DTD/svg11.dtd">
<!-- Generated by graphviz version 2.43.0 (0)
 -->
<!-- Title: accel Pages: 1 -->
<svg width="393pt" height="387pt"
 viewBox="0.00 0.00 393.00 387.16" xmlns="http://www.w3.org/2000/svg" xmlns:xlink="http://www.w3.org/1999/xlink">
<g id="graph0" class="graph" transform="scale(1 1) rotate(0) translate(4 383.16)">
<title>accel</title>
<!-- Node1 -->
<g id="Node000001" class="node">
<title>Node1</title>
<g id="a_Node000001"><a xlink:href="debug_8cpp.html#ae4e8d5c9ae89428a527a780093a3d872" target="_top" xlink:title=" ">
<path fill="#fff0f0" stroke="red" stroke-width="2" d="M35.67,-167C35.67,-167 6.33,-167 6.33,-167 3.17,-167 0,-163.83 0,-160.67 0,-160.67 0,-154.33 0,-154.33 0,-151.17 3.17,-148 6.33,-148 6.33,-148 35.67,-148 35.67,-148 38.83,-148 42,-151.17 42,-154.33 42,-154.33 42,-160.67 42,-160.67 42,-163.83 38.83,-167 35.67,-167"/>
<text text-anchor="middle" x="21" y="-155" font-family="Helvetica,sans-Serif" font-size="10.00">accel</text>
</a>
</g>
</g>
<!-- Node2 -->
<g id="Node000002" class="node">
<title>Node2</title>
<g id="a_Node000002"><a xlink:href="structKFState.html#a8f43fca242e78201e48996ebbb4fd69f" target="_top" xlink:title="Tries to add a state to the filter object.">
<path fill="#fff0f0" stroke="red" d="M378.67,-218C378.67,-218 275.33,-218 275.33,-218 272.17,-218 269,-214.83 269,-211.67 269,-211.67 269,-205.33 269,-205.33 269,-202.17 272.17,-199 275.33,-199 275.33,-199 378.67,-199 378.67,-199 381.83,-199 385,-202.17 385,-205.33 385,-205.33 385,-211.67 385,-211.67 385,-214.83 381.83,-218 378.67,-218"/>
<text text-anchor="middle" x="327" y="-206" font-family="Helvetica,sans-Serif" font-size="10.00">KFState::addKFState</text>
</a>
</g>
</g>
<!-- Node1&#45;&gt;Node2 -->
<g id="edge1_Node000001_Node000002" class="edge">
<title>Node1&#45;&gt;Node2</title>
<g id="a_edge1_Node000001_Node000002"><a xlink:title=" ">
<path fill="none" stroke="#63b8ff" d="M21.2,-167.34C20.08,-198.53 22.76,-292.5 78,-333.5 133.32,-374.55 171.96,-365.44 233,-333.5 276.77,-310.6 304.07,-256.69 317.02,-227.51"/>
<polygon fill="#63b8ff" stroke="#63b8ff" points="320.24,-228.88 321.01,-218.32 313.82,-226.1 320.24,-228.88"/>
</a>
</g>
</g>
<!-- Node1&#45;&gt;Node2 -->
<g id="edge5_Node000001_Node000002" class="edge">
<title>Node1&#45;&gt;Node2</title>
<g id="a_edge5_Node000001_Node000002"><a xlink:title=" ">
<path fill="none" stroke="#63b8ff" d="M21.54,-167.2C20,-200.58 18.18,-307.1 78,-351.5 133.32,-392.55 171.96,-383.44 233,-351.5 282.14,-325.79 310.53,-260.98 321.15,-227.92"/>
<polygon fill="#63b8ff" stroke="#63b8ff" points="324.6,-228.61 324.08,-218.03 317.88,-226.63 324.6,-228.61"/>
</a>
</g>
</g>
<!-- Node3 -->
<g id="Node000003" class="node">
<title>Node3</title>
<g id="a_Node000003"><a xlink:href="structKFState.html#ad64649e053946581c4ef20dc70b5fa16" target="_top" xlink:title="Remove a state from a kalman filter object.">
<path fill="#fff0f0" stroke="red" d="M210.67,-333C210.67,-333 100.33,-333 100.33,-333 97.17,-333 94,-329.83 94,-326.67 94,-326.67 94,-320.33 94,-320.33 94,-317.17 97.17,-314 100.33,-314 100.33,-314 210.67,-314 210.67,-314 213.83,-314 217,-317.17 217,-320.33 217,-320.33 217,-326.67 217,-326.67 217,-329.83 213.83,-333 210.67,-333"/>
<text text-anchor="middle" x="155.5" y="-321" font-family="Helvetica,sans-Serif" font-size="10.00">KFState::removeState</text>
</a>
</g>
</g>
<!-- Node1&#45;&gt;Node3 -->
<g id="edge2_Node000001_Node000003" class="edge">
<title>Node1&#45;&gt;Node3</title>
<g id="a_edge2_Node000001_Node000003"><a xlink:title=" ">
<path fill="none" stroke="#63b8ff" d="M22.64,-167.18C24.92,-193.67 35.04,-267.82 78,-305.5 80.02,-307.27 82.18,-308.88 84.45,-310.33"/>
<polygon fill="#63b8ff" stroke="#63b8ff" points="83.19,-313.63 93.67,-315.22 86.48,-307.44 83.19,-313.63"/>
</a>
</g>
</g>
<!-- Node4 -->
<g id="Node000004" class="node">
<title>Node4</title>
<g id="a_Node000004"><a xlink:href="structKFState.html#a7f8e4b9291361c063cef8d9178f07707" target="_top" xlink:title="Add process noise and dynamics to filter object according to time gap.">
<path fill="#fff0f0" stroke="red" d="M215.17,-296C215.17,-296 95.83,-296 95.83,-296 92.67,-296 89.5,-292.83 89.5,-289.67 89.5,-289.67 89.5,-283.33 89.5,-283.33 89.5,-280.17 92.67,-277 95.83,-277 95.83,-277 215.17,-277 215.17,-277 218.33,-277 221.5,-280.17 221.5,-283.33 221.5,-283.33 221.5,-289.67 221.5,-289.67 221.5,-292.83 218.33,-296 215.17,-296"/>
<text text-anchor="middle" x="155.5" y="-284" font-family="Helvetica,sans-Serif" font-size="10.00">KFState::stateTransition</text>
</a>
</g>
</g>
<!-- Node1&#45;&gt;Node4 -->
<g id="edge3_Node000001_Node000004" class="edge">
<title>Node1&#45;&gt;Node4</title>
<g id="a_edge3_Node000001_Node000004"><a xlink:title=" ">
<path fill="none" stroke="#63b8ff" d="M25.3,-167.07C31.36,-187.82 46.63,-234.79 78,-259.5 87.8,-267.22 100.35,-271.72 112.44,-274.73"/>
<polygon fill="#63b8ff" stroke="#63b8ff" points="111.9,-278.19 122.42,-276.94 113.42,-271.36 111.9,-278.19"/>
</a>
</g>
</g>
<!-- Node1&#45;&gt;Node4 -->
<g id="edge16_Node000001_Node000004" class="edge">
<title>Node1&#45;&gt;Node4</title>
<g id="a_edge16_Node000001_Node000004"><a xlink:title=" ">
<path fill="none" stroke="#63b8ff" d="M23.15,-167.25C27.1,-191.1 41.89,-249.05 78,-277.5 78.75,-278.09 79.52,-278.66 80.3,-279.22"/>
<polygon fill="#63b8ff" stroke="#63b8ff" points="78.78,-282.38 89.16,-284.46 82.34,-276.36 78.78,-282.38"/>
</a>
</g>
</g>
<!-- Node13 -->
<g id="Node000013" class="node">
<title>Node13</title>
<g id="a_Node000013"><a xlink:href="structKFState.html#a0c84e911a5ea760fe728baec661e33f0" target="_top" xlink:title="Output keys and states in human readable format.">
<path fill="#fff0f0" stroke="red" d="M210.17,-259C210.17,-259 100.83,-259 100.83,-259 97.67,-259 94.5,-255.83 94.5,-252.67 94.5,-252.67 94.5,-246.33 94.5,-246.33 94.5,-243.17 97.67,-240 100.83,-240 100.83,-240 210.17,-240 210.17,-240 213.33,-240 216.5,-243.17 216.5,-246.33 216.5,-246.33 216.5,-252.67 216.5,-252.67 216.5,-255.83 213.33,-259 210.17,-259"/>
<text text-anchor="middle" x="155.5" y="-247" font-family="Helvetica,sans-Serif" font-size="10.00">KFState::outputStates</text>
</a>
</g>
</g>
<!-- Node1&#45;&gt;Node13 -->
<g id="edge4_Node000001_Node000013" class="edge">
<title>Node1&#45;&gt;Node13</title>
<g id="a_edge4_Node000001_Node000013"><a xlink:title=" ">
<path fill="none" stroke="#63b8ff" d="M29.92,-167.08C39.1,-181.77 55.86,-208.09 78,-222.5 89.94,-230.27 104.86,-234.7 118.35,-237.82"/>
<polygon fill="#63b8ff" stroke="#63b8ff" points="117.79,-241.29 128.31,-240 119.28,-234.45 117.79,-241.29"/>
</a>
</g>
</g>
<!-- Node1&#45;&gt;Node13 -->
<g id="edge18_Node000001_Node000013" class="edge">
<title>Node1&#45;&gt;Node13</title>
<g id="a_edge18_Node000001_Node000013"><a xlink:title=" ">
<path fill="none" stroke="#63b8ff" d="M24.39,-167.1C30.87,-185.51 50.18,-222.39 78,-240.5 80.28,-241.98 82.67,-243.35 85.14,-244.59"/>
<polygon fill="#63b8ff" stroke="#63b8ff" points="83.79,-247.82 94.35,-248.6 86.58,-241.4 83.79,-247.82"/>
</a>
</g>
</g>
<!-- Node15 -->
<g id="Node000015" class="node">
<title>Node15</title>
<g id="a_Node000015"><a xlink:href="structKFState.html#aeca6e3874ad0c94607152d244016582f" target="_top" xlink:title="Returns the value and variance of a state within the kalman filter object.">
<path fill="#fff0f0" stroke="red" d="M207.17,-204C207.17,-204 103.83,-204 103.83,-204 100.67,-204 97.5,-200.83 97.5,-197.67 97.5,-197.67 97.5,-191.33 97.5,-191.33 97.5,-188.17 100.67,-185 103.83,-185 103.83,-185 207.17,-185 207.17,-185 210.33,-185 213.5,-188.17 213.5,-191.33 213.5,-191.33 213.5,-197.67 213.5,-197.67 213.5,-200.83 210.33,-204 207.17,-204"/>
<text text-anchor="middle" x="155.5" y="-192" font-family="Helvetica,sans-Serif" font-size="10.00">KFState::getKFValue</text>
</a>
</g>
</g>
<!-- Node1&#45;&gt;Node15 -->
<g id="edge6_Node000001_Node000015" class="edge">
<title>Node1&#45;&gt;Node15</title>
<g id="a_edge6_Node000001_Node000015"><a xlink:title=" ">
<path fill="none" stroke="#63b8ff" d="M42.07,-156.81C52.68,-159.57 65.96,-164.05 78,-167.5 95.48,-172.51 115.49,-177.18 130.66,-181.78"/>
<polygon fill="#63b8ff" stroke="#63b8ff" points="129.7,-185.15 140.3,-184.95 131.89,-178.5 129.7,-185.15"/>
</a>
</g>
</g>
<!-- Node1&#45;&gt;Node15 -->
<g id="edge19_Node000001_Node000015" class="edge">
<title>Node1&#45;&gt;Node15</title>
<g id="a_edge19_Node000001_Node000015"><a xlink:title=" ">
<path fill="none" stroke="#63b8ff" d="M31.03,-167.23C42.03,-173.89 61.22,-180.69 78,-185.5 80.99,-186.36 84.05,-187.2 87.14,-188.03"/>
<polygon fill="#63b8ff" stroke="#63b8ff" points="86.56,-191.49 97.12,-190.57 88.29,-184.71 86.56,-191.49"/>
</a>
</g>
</g>
<!-- Node16 -->
<g id="Node000016" class="node">
<title>Node16</title>
<g id="a_Node000016"><a xlink:href="structKFMeasEntry.html#a358f854f4544c59fd129e46a1baf0e34" target="_top" xlink:title="Adds a design matrix entry for this measurement.">
<path fill="#fff0f0" stroke="red" d="M226.67,-167C226.67,-167 84.33,-167 84.33,-167 81.17,-167 78,-163.83 78,-160.67 78,-160.67 78,-154.33 78,-154.33 78,-151.17 81.17,-148 84.33,-148 84.33,-148 226.67,-148 226.67,-148 229.83,-148 233,-151.17 233,-154.33 233,-154.33 233,-160.67 233,-160.67 233,-163.83 229.83,-167 226.67,-167"/>
<text text-anchor="middle" x="155.5" y="-155" font-family="Helvetica,sans-Serif" font-size="10.00">KFMeasEntry::addDsgnEntry</text>
</a>
</g>
</g>
<!-- Node1&#45;&gt;Node16 -->
<g id="edge8_Node000001_Node000016" class="edge">
<title>Node1&#45;&gt;Node16</title>
<g id="a_edge8_Node000001_Node000016"><a xlink:title=" ">
<path fill="none" stroke="#63b8ff" d="M42.12,-152.49C49.49,-151.81 58.35,-151.32 67.84,-151.04"/>
<polygon fill="#63b8ff" stroke="#63b8ff" points="68,-154.54 77.92,-150.82 67.84,-147.54 68,-154.54"/>
</a>
</g>
</g>
<!-- Node1&#45;&gt;Node16 -->
<g id="edge9_Node000001_Node000016" class="edge">
<title>Node1&#45;&gt;Node16</title>
<g id="a_edge9_Node000001_Node000016"><a xlink:title=" ">
<path fill="none" stroke="#63b8ff" d="M42.12,-162.51C49.49,-163.19 58.35,-163.68 67.84,-163.96"/>
<polygon fill="#63b8ff" stroke="#63b8ff" points="67.84,-167.46 77.92,-164.18 68,-160.46 67.84,-167.46"/>
</a>
</g>
</g>
<!-- Node17 -->
<g id="Node000017" class="node">
<title>Node17</title>
<g id="a_Node000017"><a xlink:href="structKFMeasEntry.html#ac15ff59e0acb09be8ed75ccee2411dd2" target="_top" xlink:title="Adds the innovation value for this measurement.">
<path fill="#fff0f0" stroke="red" d="M213.17,-130C213.17,-130 97.83,-130 97.83,-130 94.67,-130 91.5,-126.83 91.5,-123.67 91.5,-123.67 91.5,-117.33 91.5,-117.33 91.5,-114.17 94.67,-111 97.83,-111 97.83,-111 213.17,-111 213.17,-111 216.33,-111 219.5,-114.17 219.5,-117.33 219.5,-117.33 219.5,-123.67 219.5,-123.67 219.5,-126.83 216.33,-130 213.17,-130"/>
<text text-anchor="middle" x="155.5" y="-118" font-family="Helvetica,sans-Serif" font-size="10.00">KFMeasEntry::setInnov</text>
</a>
</g>
</g>
<!-- Node1&#45;&gt;Node17 -->
<g id="edge10_Node000001_Node000017" class="edge">
<title>Node1&#45;&gt;Node17</title>
<g id="a_edge10_Node000001_Node000017"><a xlink:title=" ">
<path fill="none" stroke="#63b8ff" d="M31.45,-147.79C42.54,-141.48 61.5,-135.2 78,-130.5 79.22,-130.15 80.46,-129.81 81.7,-129.46"/>
<polygon fill="#63b8ff" stroke="#63b8ff" points="82.64,-132.83 91.37,-126.84 80.81,-126.07 82.64,-132.83"/>
</a>
</g>
</g>
<!-- Node1&#45;&gt;Node17 -->
<g id="edge20_Node000001_Node000017" class="edge">
<title>Node1&#45;&gt;Node17</title>
<g id="a_edge20_Node000001_Node000017"><a xlink:title=" ">
<path fill="none" stroke="#63b8ff" d="M42.12,-158.7C52.74,-156.16 66.02,-151.91 78,-148.5 95.86,-143.42 116.28,-138.39 131.53,-133.44"/>
<polygon fill="#63b8ff" stroke="#63b8ff" points="132.9,-136.66 141.16,-130.03 130.57,-130.06 132.9,-136.66"/>
</a>
</g>
</g>
<!-- Node18 -->
<g id="Node000018" class="node">
<title>Node18</title>
<g id="a_Node000018"><a xlink:href="structKFMeasEntry.html#a58172784aeb65ed62d2b21ee570f4980" target="_top" xlink:title="Adds the measurement noise entry for this measurement.">
<path fill="#fff0f0" stroke="red" d="M213.67,-93C213.67,-93 97.33,-93 97.33,-93 94.17,-93 91,-89.83 91,-86.67 91,-86.67 91,-80.33 91,-80.33 91,-77.17 94.17,-74 97.33,-74 97.33,-74 213.67,-74 213.67,-74 216.83,-74 220,-77.17 220,-80.33 220,-80.33 220,-86.67 220,-86.67 220,-89.83 216.83,-93 213.67,-93"/>
<text text-anchor="middle" x="155.5" y="-81" font-family="Helvetica,sans-Serif" font-size="10.00">KFMeasEntry::setNoise</text>
</a>
</g>
</g>
<!-- Node1&#45;&gt;Node18 -->
<g id="edge11_Node000001_Node000018" class="edge">
<title>Node1&#45;&gt;Node18</title>
<g id="a_edge11_Node000001_Node000018"><a xlink:title=" ">
<path fill="none" stroke="#63b8ff" d="M25.45,-147.96C33.41,-132.89 54.21,-106.8 78,-93.5 79.14,-92.86 80.31,-92.24 81.49,-91.65"/>
<polygon fill="#63b8ff" stroke="#63b8ff" points="83.14,-94.74 90.85,-87.48 80.29,-88.35 83.14,-94.74"/>
</a>
</g>
</g>
<!-- Node1&#45;&gt;Node18 -->
<g id="edge21_Node000001_Node000018" class="edge">
<title>Node1&#45;&gt;Node18</title>
<g id="a_edge21_Node000001_Node000018"><a xlink:title=" ">
<path fill="none" stroke="#63b8ff" d="M35.38,-147.58C45.73,-136.83 61.11,-120.95 78,-111.5 91.94,-103.71 109.06,-99.07 123.57,-95.48"/>
<polygon fill="#63b8ff" stroke="#63b8ff" points="124.72,-98.8 133.59,-93.02 123.05,-92 124.72,-98.8"/>
</a>
</g>
</g>
<!-- Node19 -->
<g id="Node000019" class="node">
<title>Node19</title>
<g id="a_Node000019"><a xlink:href="structKFState.html#af0d847a26215ec8ba638677576d8cae9" target="_top" xlink:title="Adds dynamics to a filter state by inserting off&#45;diagonal, time dependent elements to transition matr...">
<path fill="#fff0f0" stroke="red" d="M216.67,-56C216.67,-56 94.33,-56 94.33,-56 91.17,-56 88,-52.83 88,-49.67 88,-49.67 88,-43.33 88,-43.33 88,-40.17 91.17,-37 94.33,-37 94.33,-37 216.67,-37 216.67,-37 219.83,-37 223,-40.17 223,-43.33 223,-43.33 223,-49.67 223,-49.67 223,-52.83 219.83,-56 216.67,-56"/>
<text text-anchor="middle" x="155.5" y="-44" font-family="Helvetica,sans-Serif" font-size="10.00">KFState::setKFTransRate</text>
</a>
</g>
</g>
<!-- Node1&#45;&gt;Node19 -->
<g id="edge12_Node000001_Node000019" class="edge">
<title>Node1&#45;&gt;Node19</title>
<g id="a_edge12_Node000001_Node000019"><a xlink:title=" ">
<path fill="none" stroke="#63b8ff" d="M23.71,-147.88C28.95,-126.76 46.36,-79.75 78,-56.5 78.39,-56.22 78.78,-55.94 79.17,-55.66"/>
<polygon fill="#63b8ff" stroke="#63b8ff" points="81.08,-58.6 87.89,-50.48 77.51,-52.58 81.08,-58.6"/>
</a>
</g>
</g>
<!-- Node1&#45;&gt;Node19 -->
<g id="edge15_Node000001_Node000019" class="edge">
<title>Node1&#45;&gt;Node19</title>
<g id="a_edge15_Node000001_Node000019"><a xlink:title=" ">
<path fill="none" stroke="#63b8ff" d="M27.22,-147.95C34.96,-130.16 51.48,-93.99 78,-74.5 89.34,-66.17 103.9,-61.47 117.28,-58.24"/>
<polygon fill="#63b8ff" stroke="#63b8ff" points="118.21,-61.62 127.2,-56.02 116.68,-54.78 118.21,-61.62"/>
</a>
</g>
</g>
<!-- Node20 -->
<g id="Node000020" class="node">
<title>Node20</title>
<g id="a_Node000020"><a xlink:href="structKFState.html#a0d12c57e70876543084c182a660bbbd3" target="_top" xlink:title="Kalman filter operation.">
<path fill="#fff0f0" stroke="red" d="M209.17,-19C209.17,-19 101.83,-19 101.83,-19 98.67,-19 95.5,-15.83 95.5,-12.67 95.5,-12.67 95.5,-6.33 95.5,-6.33 95.5,-3.17 98.67,0 101.83,0 101.83,0 209.17,0 209.17,0 212.33,0 215.5,-3.17 215.5,-6.33 215.5,-6.33 215.5,-12.67 215.5,-12.67 215.5,-15.83 212.33,-19 209.17,-19"/>
<text text-anchor="middle" x="155.5" y="-7" font-family="Helvetica,sans-Serif" font-size="10.00">KFState::filterKalman</text>
</a>
</g>
</g>
<!-- Node1&#45;&gt;Node20 -->
<g id="edge17_Node000001_Node000020" class="edge">
<title>Node1&#45;&gt;Node20</title>
<g id="a_edge17_Node000001_Node000020"><a xlink:title=" ">
<path fill="none" stroke="#63b8ff" d="M22.73,-147.94C25.55,-121.98 37.74,-53.57 78,-19.5 80.56,-17.33 83.33,-15.41 86.25,-13.71"/>
<polygon fill="#63b8ff" stroke="#63b8ff" points="87.93,-16.78 95.38,-9.24 84.85,-10.49 87.93,-16.78"/>
</a>
</g>
</g>
<!-- Node1&#45;&gt;Node20 -->
<g id="edge22_Node000001_Node000020" class="edge">
<title>Node1&#45;&gt;Node20</title>
<g id="a_edge22_Node000001_Node000020"><a xlink:title=" ">
<path fill="none" stroke="#63b8ff" d="M24.11,-147.86C28.75,-124.61 42.4,-67.62 78,-37.5 87.81,-29.2 100.71,-24.43 113.12,-21.28"/>
<polygon fill="#63b8ff" stroke="#63b8ff" points="113.93,-24.68 122.9,-19.06 112.38,-17.86 113.93,-24.68"/>
</a>
</g>
</g>
<!-- Node15&#45;&gt;Node15 -->
<g id="edge7_Node000015_Node000015" class="edge">
<title>Node15&#45;&gt;Node15</title>
<g id="a_edge7_Node000015_Node000015"><a xlink:title=" ">
<path fill="none" stroke="#63b8ff" d="M134.85,-204.08C124.8,-212.73 131.68,-222 155.5,-222 170.76,-222 179.07,-218.2 180.43,-213.19"/>
<polygon fill="#63b8ff" stroke="#63b8ff" points="183.57,-211.65 176.15,-204.08 177.23,-214.62 183.57,-211.65"/>
</a>
</g>
</g>
<!-- Node19&#45;&gt;Node2 -->
<g id="edge13_Node000019_Node000002" class="edge">
<title>Node19&#45;&gt;Node2</title>
<g id="a_edge13_Node000019_Node000002"><a xlink:title=" ">
<path fill="none" stroke="#63b8ff" d="M223.03,-50.59C226.53,-52.31 229.88,-54.28 233,-56.5 280.03,-89.99 309.37,-155.41 320.68,-188.68"/>
<polygon fill="#63b8ff" stroke="#63b8ff" points="317.48,-190.15 323.83,-198.63 324.15,-188.04 317.48,-190.15"/>
</a>
</g>
</g>
<!-- Node19&#45;&gt;Node2 -->
<g id="edge14_Node000019_Node000002" class="edge">
<title>Node19&#45;&gt;Node2</title>
<g id="a_edge14_Node000019_Node000002"><a xlink:title=" ">
<path fill="none" stroke="#63b8ff" d="M182.96,-56.02C198.71,-59.37 218.4,-64.1 233,-74.5 275.08,-104.47 302.99,-159.99 316.51,-189.48"/>
<polygon fill="#63b8ff" stroke="#63b8ff" points="313.38,-191.06 320.69,-198.74 319.76,-188.19 313.38,-191.06"/>
</a>
</g>
</g>
</g>
</svg>
