<?xml version="1.0" encoding="UTF-8" standalone="no"?>
<!DOCTYPE svg PUBLIC "-//W3C//DTD SVG 1.1//EN"
 "http://www.w3.org/Graphics/SVG/1.1/DTD/svg11.dtd">
<!-- Generated by graphviz version 2.43.0 (0)
 -->
<!-- Title: satPosBroadcast Pages: 1 -->
<svg width="461pt" height="252pt"
 viewBox="0.00 0.00 461.00 252.00" xmlns="http://www.w3.org/2000/svg" xmlns:xlink="http://www.w3.org/1999/xlink">
<g id="graph0" class="graph" transform="scale(1 1) rotate(0) translate(4 248)">
<title>satPosBroadcast</title>
<!-- Node1 -->
<g id="Node000001" class="node">
<title>Node1</title>
<g id="a_Node000001"><a xlink:href="ephBroadcast_8cpp.html#a7a12481a61ef763e3db3bac720587930" target="_top" xlink:title=" ">
<path fill="#fff0f0" stroke="red" stroke-width="2" d="M446.67,-130C446.67,-130 361.33,-130 361.33,-130 358.17,-130 355,-126.83 355,-123.67 355,-123.67 355,-117.33 355,-117.33 355,-114.17 358.17,-111 361.33,-111 361.33,-111 446.67,-111 446.67,-111 449.83,-111 453,-114.17 453,-117.33 453,-117.33 453,-123.67 453,-123.67 453,-126.83 449.83,-130 446.67,-130"/>
<text text-anchor="middle" x="404" y="-118" font-family="Helvetica,sans-Serif" font-size="10.00">satPosBroadcast</text>
</a>
</g>
</g>
<!-- Node2 -->
<g id="Node000002" class="node">
<title>Node2</title>
<g id="a_Node000002"><a xlink:href="ppp_8cpp.html#a1a529bfb379c76f71546a80022b8f123" target="_top" xlink:title=" ">
<path fill="#fff0f0" stroke="red" d="M303.67,-244C303.67,-244 236.33,-244 236.33,-244 233.17,-244 230,-240.83 230,-237.67 230,-237.67 230,-231.33 230,-231.33 230,-228.17 233.17,-225 236.33,-225 236.33,-225 303.67,-225 303.67,-225 306.83,-225 310,-228.17 310,-231.33 310,-231.33 310,-237.67 310,-237.67 310,-240.83 306.83,-244 303.67,-244"/>
<text text-anchor="middle" x="270" y="-232" font-family="Helvetica,sans-Serif" font-size="10.00">outputApriori</text>
</a>
</g>
</g>
<!-- Node1&#45;&gt;Node2 -->
<g id="edge1_Node000001_Node000002" class="edge">
<title>Node1&#45;&gt;Node2</title>
<g id="a_edge1_Node000001_Node000002"><a xlink:title=" ">
<path fill="none" stroke="#63b8ff" d="M389.59,-138.3C374.18,-157.86 347.36,-189.31 319,-210.5 311.54,-216.08 302.58,-220.96 294.44,-224.84"/>
<polygon fill="#63b8ff" stroke="#63b8ff" points="392.48,-140.29 395.83,-130.23 386.94,-136 392.48,-140.29"/>
</a>
</g>
</g>
<!-- Node6 -->
<g id="Node000006" class="node">
<title>Node6</title>
<g id="a_Node000006"><a xlink:href="mongoWrite_8cpp.html#a0936cc081f59031ee1253c909285838c" target="_top" xlink:title="Write states generating SSR corrections to Mongo DB.">
<path fill="#fff0f0" stroke="red" d="M93.67,-187C93.67,-187 6.33,-187 6.33,-187 3.17,-187 0,-183.83 0,-180.67 0,-180.67 0,-174.33 0,-174.33 0,-171.17 3.17,-168 6.33,-168 6.33,-168 93.67,-168 93.67,-168 96.83,-168 100,-171.17 100,-174.33 100,-174.33 100,-180.67 100,-180.67 100,-183.83 96.83,-187 93.67,-187"/>
<text text-anchor="middle" x="50" y="-175" font-family="Helvetica,sans-Serif" font-size="10.00">prepareSsrStates</text>
</a>
</g>
</g>
<!-- Node1&#45;&gt;Node6 -->
<g id="edge2_Node000001_Node000006" class="edge">
<title>Node1&#45;&gt;Node6</title>
<g id="a_edge2_Node000001_Node000006"><a xlink:title=" ">
<path fill="none" stroke="#63b8ff" d="M377.34,-134.88C361.09,-143.36 339.38,-153.55 319,-159.5 244.92,-181.13 154.61,-182.32 100.02,-180.45"/>
<polygon fill="#63b8ff" stroke="#63b8ff" points="379.05,-137.94 386.22,-130.14 375.75,-131.77 379.05,-137.94"/>
</a>
</g>
</g>
<!-- Node7 -->
<g id="Node000007" class="node">
<title>Node7</title>
<g id="a_Node000007"><a xlink:href="ephemeris_8cpp.html#a346b6446fcd54ef489b40cf028168b5c" target="_top" xlink:title="compute satellite position and clock satellite clock does not include code bias correction (tgd or bg...">
<path fill="#fff0f0" stroke="red" d="M178.67,-168C178.67,-168 142.33,-168 142.33,-168 139.17,-168 136,-164.83 136,-161.67 136,-161.67 136,-155.33 136,-155.33 136,-152.17 139.17,-149 142.33,-149 142.33,-149 178.67,-149 178.67,-149 181.83,-149 185,-152.17 185,-155.33 185,-155.33 185,-161.67 185,-161.67 185,-164.83 181.83,-168 178.67,-168"/>
<text text-anchor="middle" x="160.5" y="-156" font-family="Helvetica,sans-Serif" font-size="10.00">satpos</text>
</a>
</g>
</g>
<!-- Node1&#45;&gt;Node7 -->
<g id="edge3_Node000001_Node000007" class="edge">
<title>Node1&#45;&gt;Node7</title>
<g id="a_edge3_Node000001_Node000007"><a xlink:title=" ">
<path fill="none" stroke="#63b8ff" d="M354.7,-132.31C343.06,-134.91 330.62,-137.49 319,-139.5 271.78,-147.67 215.99,-153.51 185.09,-156.41"/>
<polygon fill="#63b8ff" stroke="#63b8ff" points="355.72,-135.67 364.69,-130.03 354.17,-128.85 355.72,-135.67"/>
</a>
</g>
</g>
<!-- Node32 -->
<g id="Node000032" class="node">
<title>Node32</title>
<g id="a_Node000032"><a xlink:href="ephBroadcast_8cpp.html#a6e1be43e469337e49df999cf3fb349ec" target="_top" xlink:title=" ">
<path fill="#fff0f0" stroke="red" d="M312.67,-130C312.67,-130 227.33,-130 227.33,-130 224.17,-130 221,-126.83 221,-123.67 221,-123.67 221,-117.33 221,-117.33 221,-114.17 224.17,-111 227.33,-111 227.33,-111 312.67,-111 312.67,-111 315.83,-111 319,-114.17 319,-117.33 319,-117.33 319,-123.67 319,-123.67 319,-126.83 315.83,-130 312.67,-130"/>
<text text-anchor="middle" x="270" y="-118" font-family="Helvetica,sans-Serif" font-size="10.00">satPosBroadcast</text>
</a>
</g>
</g>
<!-- Node1&#45;&gt;Node32 -->
<g id="edge5_Node000001_Node000032" class="edge">
<title>Node1&#45;&gt;Node32</title>
<g id="a_edge5_Node000001_Node000032"><a xlink:title=" ">
<path fill="none" stroke="#63b8ff" d="M344.71,-120.5C336.19,-120.5 327.5,-120.5 319.21,-120.5"/>
<polygon fill="#63b8ff" stroke="#63b8ff" points="344.97,-124 354.97,-120.5 344.97,-117 344.97,-124"/>
</a>
</g>
</g>
<!-- Node33 -->
<g id="Node000033" class="node">
<title>Node33</title>
<g id="a_Node000033"><a xlink:href="ephBroadcast_8cpp.html#ab65510857d2c691b3cf584204dead8e7" target="_top" xlink:title=" ">
<path fill="#fff0f0" stroke="red" d="M312.67,-93C312.67,-93 227.33,-93 227.33,-93 224.17,-93 221,-89.83 221,-86.67 221,-86.67 221,-80.33 221,-80.33 221,-77.17 224.17,-74 227.33,-74 227.33,-74 312.67,-74 312.67,-74 315.83,-74 319,-77.17 319,-80.33 319,-80.33 319,-86.67 319,-86.67 319,-89.83 315.83,-93 312.67,-93"/>
<text text-anchor="middle" x="270" y="-81" font-family="Helvetica,sans-Serif" font-size="10.00">satPosBroadcast</text>
</a>
</g>
</g>
<!-- Node1&#45;&gt;Node33 -->
<g id="edge6_Node000001_Node000033" class="edge">
<title>Node1&#45;&gt;Node33</title>
<g id="a_edge6_Node000001_Node000033"><a xlink:title=" ">
<path fill="none" stroke="#63b8ff" d="M359.03,-108.17C341.54,-103.27 321.73,-97.72 305.34,-93.12"/>
<polygon fill="#63b8ff" stroke="#63b8ff" points="358.43,-111.64 369.01,-110.97 360.32,-104.9 358.43,-111.64"/>
</a>
</g>
</g>
<!-- Node34 -->
<g id="Node000034" class="node">
<title>Node34</title>
<g id="a_Node000034"><a xlink:href="ephSSR_8cpp.html#ab46bbc0b3a67c74f5ab3520bea51162d" target="_top" xlink:title="satellite position and clock with ssr correction">
<path fill="#fff0f0" stroke="red" d="M297.67,-56C297.67,-56 242.33,-56 242.33,-56 239.17,-56 236,-52.83 236,-49.67 236,-49.67 236,-43.33 236,-43.33 236,-40.17 239.17,-37 242.33,-37 242.33,-37 297.67,-37 297.67,-37 300.83,-37 304,-40.17 304,-43.33 304,-43.33 304,-49.67 304,-49.67 304,-52.83 300.83,-56 297.67,-56"/>
<text text-anchor="middle" x="270" y="-44" font-family="Helvetica,sans-Serif" font-size="10.00">satPosSSR</text>
</a>
</g>
</g>
<!-- Node1&#45;&gt;Node34 -->
<g id="edge7_Node000001_Node000034" class="edge">
<title>Node1&#45;&gt;Node34</title>
<g id="a_edge7_Node000001_Node000034"><a xlink:title=" ">
<path fill="none" stroke="#63b8ff" d="M382.12,-104.61C365.61,-92.54 341.64,-76.1 319,-64.5 312.9,-61.38 306.13,-58.5 299.64,-56.01"/>
<polygon fill="#63b8ff" stroke="#63b8ff" points="380.35,-107.66 390.47,-110.81 384.52,-102.04 380.35,-107.66"/>
</a>
</g>
</g>
<!-- Node35 -->
<g id="Node000035" class="node">
<title>Node35</title>
<g id="a_Node000035"><a xlink:href="ppppp_8cpp.html#a6dcbf3bfe96a469cacb8a075506998ea" target="_top" xlink:title="Prepare Satellite clocks to minimise residuals to broadcast clocks.">
<path fill="#fff0f0" stroke="red" d="M312.67,-19C312.67,-19 227.33,-19 227.33,-19 224.17,-19 221,-15.83 221,-12.67 221,-12.67 221,-6.33 221,-6.33 221,-3.17 224.17,0 227.33,0 227.33,0 312.67,0 312.67,0 315.83,0 319,-3.17 319,-6.33 319,-6.33 319,-12.67 319,-12.67 319,-15.83 315.83,-19 312.67,-19"/>
<text text-anchor="middle" x="270" y="-7" font-family="Helvetica,sans-Serif" font-size="10.00">updateAvgOrbits</text>
</a>
</g>
</g>
<!-- Node1&#45;&gt;Node35 -->
<g id="edge9_Node000001_Node000035" class="edge">
<title>Node1&#45;&gt;Node35</title>
<g id="a_edge9_Node000001_Node000035"><a xlink:title=" ">
<path fill="none" stroke="#63b8ff" d="M391.02,-102.74C376.27,-82.09 349.4,-48.18 319,-27.5 314.14,-24.2 308.6,-21.4 303.05,-19.07"/>
<polygon fill="#63b8ff" stroke="#63b8ff" points="388.16,-104.75 396.75,-110.96 393.9,-100.75 388.16,-104.75"/>
</a>
</g>
</g>
<!-- Node7&#45;&gt;Node6 -->
<g id="edge4_Node000007_Node000006" class="edge">
<title>Node7&#45;&gt;Node6</title>
<g id="a_edge4_Node000007_Node000006"><a xlink:title=" ">
<path fill="none" stroke="#63b8ff" d="M126.1,-164.35C117.95,-165.78 109.06,-167.33 100.34,-168.86"/>
<polygon fill="#63b8ff" stroke="#63b8ff" points="126.71,-167.8 135.96,-162.62 125.5,-160.9 126.71,-167.8"/>
</a>
</g>
</g>
<!-- Node34&#45;&gt;Node7 -->
<g id="edge8_Node000034_Node000007" class="edge">
<title>Node34&#45;&gt;Node7</title>
<g id="a_edge8_Node000034_Node000007"><a xlink:title=" ">
<path fill="none" stroke="#63b8ff" d="M226.73,-60.45C224.72,-61.69 222.8,-63.04 221,-64.5 191.93,-88.14 172.75,-129.93 165.16,-148.79"/>
<polygon fill="#63b8ff" stroke="#63b8ff" points="228.72,-63.36 235.96,-55.62 225.47,-57.15 228.72,-63.36"/>
</a>
</g>
</g>
</g>
</svg>
