<?xml version="1.0" encoding="UTF-8" standalone="no"?>
<!DOCTYPE svg PUBLIC "-//W3C//DTD SVG 1.1//EN"
 "http://www.w3.org/Graphics/SVG/1.1/DTD/svg11.dtd">
<!-- Generated by graphviz version 2.43.0 (0)
 -->
<!-- Title: eph2Clk Pages: 1 -->
<svg width="64pt" height="45pt"
 viewBox="0.00 0.00 64.00 45.00" xmlns="http://www.w3.org/2000/svg" xmlns:xlink="http://www.w3.org/1999/xlink">
<g id="graph0" class="graph" transform="scale(1 1) rotate(0) translate(4 41)">
<title>eph2Clk</title>
<!-- Node1 -->
<g id="Node000001" class="node">
<title>Node1</title>
<g id="a_Node000001"><a xlink:href="ephBroadcast_8cpp.html#a775758c448a2af0905843385abe0c4fe" target="_top" xlink:title="broadcast ephemeris to satellite clock bias compute satellite clock bias with broadcast ephemeris (gp...">
<path fill="#fff0f0" stroke="red" stroke-width="2" d="M49.67,-19C49.67,-19 6.33,-19 6.33,-19 3.17,-19 0,-15.83 0,-12.67 0,-12.67 0,-6.33 0,-6.33 0,-3.17 3.17,0 6.33,0 6.33,0 49.67,0 49.67,0 52.83,0 56,-3.17 56,-6.33 56,-6.33 56,-12.67 56,-12.67 56,-15.83 52.83,-19 49.67,-19"/>
<text text-anchor="middle" x="28" y="-7" font-family="Helvetica,sans-Serif" font-size="10.00">eph2Clk</text>
</a>
</g>
</g>
<!-- Node1&#45;&gt;Node1 -->
<g id="edge1_Node000001_Node000001" class="edge">
<title>Node1&#45;&gt;Node1</title>
<g id="a_edge1_Node000001_Node000001"><a xlink:title=" ">
<path fill="none" stroke="#63b8ff" d="M19.68,-19.08C15.63,-27.73 18.4,-37 28,-37 33.7,-37 36.99,-33.73 37.88,-29.27"/>
<polygon fill="#63b8ff" stroke="#63b8ff" points="41.29,-28.44 36.32,-19.08 34.37,-29.5 41.29,-28.44"/>
</a>
</g>
</g>
</g>
</svg>
