<?xml version="1.0" encoding="UTF-8" standalone="no"?>
<!DOCTYPE svg PUBLIC "-//W3C//DTD SVG 1.1//EN"
 "http://www.w3.org/Graphics/SVG/1.1/DTD/svg11.dtd">
<!-- Generated by graphviz version 2.43.0 (0)
 -->
<!-- Title: seleph&lt; ION &gt; Pages: 1 -->
<svg width="253pt" height="101pt"
 viewBox="0.00 0.00 253.00 101.00" xmlns="http://www.w3.org/2000/svg" xmlns:xlink="http://www.w3.org/1999/xlink">
<g id="graph0" class="graph" transform="scale(1 1) rotate(0) translate(4 97)">
<title>seleph&lt; ION &gt;</title>
<!-- Node1 -->
<g id="Node000001" class="node">
<title>Node1</title>
<g id="a_Node000001"><a xlink:href="ephBroadcast_8cpp.html#ad506cac35e66f4336a1e14217d7c60e5" target="_top" xlink:title=" ">
<path fill="#fff0f0" stroke="red" stroke-width="2" d="M238.67,-56C238.67,-56 162.33,-56 162.33,-56 159.17,-56 156,-52.83 156,-49.67 156,-49.67 156,-43.33 156,-43.33 156,-40.17 159.17,-37 162.33,-37 162.33,-37 238.67,-37 238.67,-37 241.83,-37 245,-40.17 245,-43.33 245,-43.33 245,-49.67 245,-49.67 245,-52.83 241.83,-56 238.67,-56"/>
<text text-anchor="middle" x="200.5" y="-44" font-family="Helvetica,sans-Serif" font-size="10.00">seleph&lt; ION &gt;</text>
</a>
</g>
</g>
<!-- Node2 -->
<g id="Node000002" class="node">
<title>Node2</title>
<g id="a_Node000002"><a xlink:href="spp_8cpp.html#a46206d6393631e3df6644a21e78cea88" target="_top" xlink:title="Compute ionospheric corrections.">
<path fill="#fff0f0" stroke="red" d="M81.67,-93C81.67,-93 38.33,-93 38.33,-93 35.17,-93 32,-89.83 32,-86.67 32,-86.67 32,-80.33 32,-80.33 32,-77.17 35.17,-74 38.33,-74 38.33,-74 81.67,-74 81.67,-74 84.83,-74 88,-77.17 88,-80.33 88,-80.33 88,-86.67 88,-86.67 88,-89.83 84.83,-93 81.67,-93"/>
<text text-anchor="middle" x="60" y="-81" font-family="Helvetica,sans-Serif" font-size="10.00">ionocorr</text>
</a>
</g>
</g>
<!-- Node1&#45;&gt;Node2 -->
<g id="edge1_Node000001_Node000002" class="edge">
<title>Node1&#45;&gt;Node2</title>
<g id="a_edge1_Node000001_Node000002"><a xlink:title=" ">
<path fill="none" stroke="#63b8ff" d="M154.12,-58.62C132.35,-64.44 106.99,-71.21 88.24,-76.22"/>
<polygon fill="#63b8ff" stroke="#63b8ff" points="155.07,-61.99 163.83,-56.03 153.27,-55.23 155.07,-61.99"/>
</a>
</g>
</g>
<!-- Node12 -->
<g id="Node000012" class="node">
<title>Node12</title>
<g id="a_Node000012"><a xlink:href="ionModels_8cpp.html#a40543623e2cbff738c3ce74aeda214fd" target="_top" xlink:title="ionospheric model">
<path fill="#fff0f0" stroke="red" d="M87.67,-56C87.67,-56 32.33,-56 32.33,-56 29.17,-56 26,-52.83 26,-49.67 26,-49.67 26,-43.33 26,-43.33 26,-40.17 29.17,-37 32.33,-37 32.33,-37 87.67,-37 87.67,-37 90.83,-37 94,-40.17 94,-43.33 94,-43.33 94,-49.67 94,-49.67 94,-52.83 90.83,-56 87.67,-56"/>
<text text-anchor="middle" x="60" y="-44" font-family="Helvetica,sans-Serif" font-size="10.00">ionoModel</text>
</a>
</g>
</g>
<!-- Node1&#45;&gt;Node12 -->
<g id="edge2_Node000001_Node000012" class="edge">
<title>Node1&#45;&gt;Node12</title>
<g id="a_edge2_Node000001_Node000012"><a xlink:title=" ">
<path fill="none" stroke="#63b8ff" d="M145.22,-46.5C128.08,-46.5 109.67,-46.5 94.44,-46.5"/>
<polygon fill="#63b8ff" stroke="#63b8ff" points="145.68,-50 155.68,-46.5 145.68,-43 145.68,-50"/>
</a>
</g>
</g>
<!-- Node19 -->
<g id="Node000019" class="node">
<title>Node19</title>
<g id="a_Node000019"><a xlink:href="rinexNavWrite_8cpp.html#a13224b67c146a6c8edd36e0e98bb4e76" target="_top" xlink:title=" ">
<path fill="#fff0f0" stroke="red" d="M113.67,-19C113.67,-19 6.33,-19 6.33,-19 3.17,-19 0,-15.83 0,-12.67 0,-12.67 0,-6.33 0,-6.33 0,-3.17 3.17,0 6.33,0 6.33,0 113.67,0 113.67,0 116.83,0 120,-3.17 120,-6.33 120,-6.33 120,-12.67 120,-12.67 120,-15.83 116.83,-19 113.67,-19"/>
<text text-anchor="middle" x="60" y="-7" font-family="Helvetica,sans-Serif" font-size="10.00">outputNavRinexBody</text>
</a>
</g>
</g>
<!-- Node1&#45;&gt;Node19 -->
<g id="edge3_Node000001_Node000019" class="edge">
<title>Node1&#45;&gt;Node19</title>
<g id="a_edge3_Node000001_Node000019"><a xlink:title=" ">
<path fill="none" stroke="#63b8ff" d="M154.13,-34.38C135.6,-29.43 114.47,-23.78 97.03,-19.12"/>
<polygon fill="#63b8ff" stroke="#63b8ff" points="153.27,-37.77 163.83,-36.97 155.07,-31.01 153.27,-37.77"/>
</a>
</g>
</g>
</g>
</svg>
