<?xml version="1.0" encoding="UTF-8" standalone="no"?>
<!DOCTYPE svg PUBLIC "-//W3C//DTD SVG 1.1//EN"
 "http://www.w3.org/Graphics/SVG/1.1/DTD/svg11.dtd">
<!-- Generated by graphviz version 2.43.0 (0)
 -->
<!-- Title: seleph&lt; Geph &gt; Pages: 1 -->
<svg width="251pt" height="27pt"
 viewBox="0.00 0.00 251.00 27.00" xmlns="http://www.w3.org/2000/svg" xmlns:xlink="http://www.w3.org/1999/xlink">
<g id="graph0" class="graph" transform="scale(1 1) rotate(0) translate(4 23)">
<title>seleph&lt; Geph &gt;</title>
<!-- Node1 -->
<g id="Node000001" class="node">
<title>Node1</title>
<g id="a_Node000001"><a xlink:href="ephBroadcast_8cpp.html#aa9d94c33df0fa25cd32e6e066c3fb977" target="_top" xlink:title=" ">
<path fill="#fff0f0" stroke="red" stroke-width="2" d="M90.67,-19C90.67,-19 6.33,-19 6.33,-19 3.17,-19 0,-15.83 0,-12.67 0,-12.67 0,-6.33 0,-6.33 0,-3.17 3.17,0 6.33,0 6.33,0 90.67,0 90.67,0 93.83,0 97,-3.17 97,-6.33 97,-6.33 97,-12.67 97,-12.67 97,-15.83 93.83,-19 90.67,-19"/>
<text text-anchor="middle" x="48.5" y="-7" font-family="Helvetica,sans-Serif" font-size="10.00">seleph&lt; Geph &gt;</text>
</a>
</g>
</g>
<!-- Node2 -->
<g id="Node000002" class="node">
<title>Node2</title>
<g id="a_Node000002"><a xlink:href="ephBroadcast_8cpp.html#af1a1de2c0706b1f21cc4ed11233c40cb" target="_top" xlink:title="select ephememeris">
<path fill="#fff0f0" stroke="red" d="M236.67,-19C236.67,-19 139.33,-19 139.33,-19 136.17,-19 133,-15.83 133,-12.67 133,-12.67 133,-6.33 133,-6.33 133,-3.17 136.17,0 139.33,0 139.33,0 236.67,0 236.67,0 239.83,0 243,-3.17 243,-6.33 243,-6.33 243,-12.67 243,-12.67 243,-15.83 239.83,-19 236.67,-19"/>
<text text-anchor="middle" x="188" y="-7" font-family="Helvetica,sans-Serif" font-size="10.00">selSatEphFromMap</text>
</a>
</g>
</g>
<!-- Node1&#45;&gt;Node2 -->
<g id="edge1_Node000001_Node000002" class="edge">
<title>Node1&#45;&gt;Node2</title>
<g id="a_edge1_Node000001_Node000002"><a xlink:title=" ">
<path fill="none" stroke="#63b8ff" d="M97.2,-9.5C105.46,-9.5 114.15,-9.5 122.76,-9.5"/>
<polygon fill="#63b8ff" stroke="#63b8ff" points="122.78,-13 132.78,-9.5 122.78,-6 122.78,-13"/>
</a>
</g>
</g>
</g>
</svg>
