<?xml version="1.0" encoding="UTF-8" standalone="no"?>
<!DOCTYPE svg PUBLIC "-//W3C//DTD SVG 1.1//EN"
 "http://www.w3.org/Graphics/SVG/1.1/DTD/svg11.dtd">
<!-- Generated by graphviz version 2.43.0 (0)
 -->
<!-- Title: var_uraeph Pages: 1 -->
<svg width="173pt" height="64pt"
 viewBox="0.00 0.00 173.00 64.00" xmlns="http://www.w3.org/2000/svg" xmlns:xlink="http://www.w3.org/1999/xlink">
<g id="graph0" class="graph" transform="scale(1 1) rotate(0) translate(4 60)">
<title>var_uraeph</title>
<!-- Node1 -->
<g id="Node000001" class="node">
<title>Node1</title>
<g id="a_Node000001"><a xlink:href="ephBroadcast_8cpp.html#a44b66dafdc2256a58461f7eee35058a7" target="_top" xlink:title="variance by ura ephemeris (ref [1] 20.3.3.3.1.1)">
<path fill="#fff0f0" stroke="red" stroke-width="2" d="M158.67,-37C158.67,-37 100.33,-37 100.33,-37 97.17,-37 94,-33.83 94,-30.67 94,-30.67 94,-24.33 94,-24.33 94,-21.17 97.17,-18 100.33,-18 100.33,-18 158.67,-18 158.67,-18 161.83,-18 165,-21.17 165,-24.33 165,-24.33 165,-30.67 165,-30.67 165,-33.83 161.83,-37 158.67,-37"/>
<text text-anchor="middle" x="129.5" y="-25" font-family="Helvetica,sans-Serif" font-size="10.00">var_uraeph</text>
</a>
</g>
</g>
<!-- Node2 -->
<g id="Node000002" class="node">
<title>Node2</title>
<g id="a_Node000002"><a xlink:href="ephBroadcast_8cpp.html#a231da19d50156a3a585df5e427b7723c" target="_top" xlink:title="broadcast ephemeris to satellite position and clock bias compute satellite position and clock bias wi...">
<path fill="#fff0f0" stroke="red" d="M51.67,-56C51.67,-56 6.33,-56 6.33,-56 3.17,-56 0,-52.83 0,-49.67 0,-49.67 0,-43.33 0,-43.33 0,-40.17 3.17,-37 6.33,-37 6.33,-37 51.67,-37 51.67,-37 54.83,-37 58,-40.17 58,-43.33 58,-43.33 58,-49.67 58,-49.67 58,-52.83 54.83,-56 51.67,-56"/>
<text text-anchor="middle" x="29" y="-44" font-family="Helvetica,sans-Serif" font-size="10.00">eph2Pos</text>
</a>
</g>
</g>
<!-- Node1&#45;&gt;Node2 -->
<g id="edge1_Node000001_Node000002" class="edge">
<title>Node1&#45;&gt;Node2</title>
<g id="a_edge1_Node000001_Node000002"><a xlink:title=" ">
<path fill="none" stroke="#63b8ff" d="M83.74,-36.13C75.07,-37.81 66.21,-39.52 58.25,-41.05"/>
<polygon fill="#63b8ff" stroke="#63b8ff" points="84.62,-39.53 93.77,-34.2 83.29,-32.66 84.62,-39.53"/>
</a>
</g>
</g>
<!-- Node39 -->
<g id="Node000039" class="node">
<title>Node39</title>
<g id="a_Node000039"><a xlink:href="ephBroadcast_8cpp.html#adf4c2fc1bf32e9e47969abf380cb2196" target="_top" xlink:title="sbas ephemeris to satellite position and clock bias compute satellite position and clock bias with sb...">
<path fill="#fff0f0" stroke="red" d="M51.67,-19C51.67,-19 6.33,-19 6.33,-19 3.17,-19 0,-15.83 0,-12.67 0,-12.67 0,-6.33 0,-6.33 0,-3.17 3.17,0 6.33,0 6.33,0 51.67,0 51.67,0 54.83,0 58,-3.17 58,-6.33 58,-6.33 58,-12.67 58,-12.67 58,-15.83 54.83,-19 51.67,-19"/>
<text text-anchor="middle" x="29" y="-7" font-family="Helvetica,sans-Serif" font-size="10.00">eph2Pos</text>
</a>
</g>
</g>
<!-- Node1&#45;&gt;Node39 -->
<g id="edge2_Node000001_Node000039" class="edge">
<title>Node1&#45;&gt;Node39</title>
<g id="a_edge2_Node000001_Node000039"><a xlink:title=" ">
<path fill="none" stroke="#63b8ff" d="M83.74,-19.32C75.07,-17.74 66.21,-16.12 58.25,-14.66"/>
<polygon fill="#63b8ff" stroke="#63b8ff" points="83.31,-22.8 93.77,-21.15 84.56,-15.91 83.31,-22.8"/>
</a>
</g>
</g>
</g>
</svg>
