<?xml version="1.0" encoding="UTF-8" standalone="no"?>
<!DOCTYPE svg PUBLIC "-//W3C//DTD SVG 1.1//EN"
 "http://www.w3.org/Graphics/SVG/1.1/DTD/svg11.dtd">
<!-- Generated by graphviz version 2.43.0 (0)
 -->
<!-- Title: selSatEphFromMap Pages: 1 -->
<svg width="252pt" height="64pt"
 viewBox="0.00 0.00 252.00 64.00" xmlns="http://www.w3.org/2000/svg" xmlns:xlink="http://www.w3.org/1999/xlink">
<g id="graph0" class="graph" transform="scale(1 1) rotate(0) translate(4 60)">
<title>selSatEphFromMap</title>
<!-- Node1 -->
<g id="Node000001" class="node">
<title>Node1</title>
<g id="a_Node000001"><a xlink:href="ephBroadcast_8cpp.html#af1a1de2c0706b1f21cc4ed11233c40cb" target="_top" xlink:title="select ephememeris">
<path fill="#fff0f0" stroke="red" stroke-width="2" d="M103.67,-37C103.67,-37 6.33,-37 6.33,-37 3.17,-37 0,-33.83 0,-30.67 0,-30.67 0,-24.33 0,-24.33 0,-21.17 3.17,-18 6.33,-18 6.33,-18 103.67,-18 103.67,-18 106.83,-18 110,-21.17 110,-24.33 110,-24.33 110,-30.67 110,-30.67 110,-33.83 106.83,-37 103.67,-37"/>
<text text-anchor="middle" x="55" y="-25" font-family="Helvetica,sans-Serif" font-size="10.00">selSatEphFromMap</text>
</a>
</g>
</g>
<!-- Node2 -->
<g id="Node000002" class="node">
<title>Node2</title>
<g id="a_Node000002"><a xlink:href="structGTime.html#a98fdbaaec5a132a7e694f28b4f1907cb" target="_top" xlink:title=" ">
<path fill="#fff0f0" stroke="red" d="M237.67,-56C237.67,-56 152.33,-56 152.33,-56 149.17,-56 146,-52.83 146,-49.67 146,-49.67 146,-43.33 146,-43.33 146,-40.17 149.17,-37 152.33,-37 152.33,-37 237.67,-37 237.67,-37 240.83,-37 244,-40.17 244,-43.33 244,-43.33 244,-49.67 244,-49.67 244,-52.83 240.83,-56 237.67,-56"/>
<text text-anchor="middle" x="195" y="-44" font-family="Helvetica,sans-Serif" font-size="10.00">GTime::to_string</text>
</a>
</g>
</g>
<!-- Node1&#45;&gt;Node2 -->
<g id="edge1_Node000001_Node000002" class="edge">
<title>Node1&#45;&gt;Node2</title>
<g id="a_edge1_Node000001_Node000002"><a xlink:title=" ">
<path fill="none" stroke="#63b8ff" d="M110.15,-28.35C125.34,-30.14 141.53,-32.54 155.6,-35.09"/>
<polygon fill="#63b8ff" stroke="#63b8ff" points="154.95,-38.53 165.43,-36.97 156.27,-31.66 154.95,-38.53"/>
</a>
</g>
</g>
<!-- Node1&#45;&gt;Node2 -->
<g id="edge3_Node000001_Node000002" class="edge">
<title>Node1&#45;&gt;Node2</title>
<g id="a_edge3_Node000001_Node000002"><a xlink:title=" ">
<path fill="none" stroke="#63b8ff" d="M84.59,-37.03C99.38,-40.03 117.98,-42.95 135.63,-45.14"/>
<polygon fill="#63b8ff" stroke="#63b8ff" points="135.54,-48.66 145.88,-46.34 136.35,-41.7 135.54,-48.66"/>
</a>
</g>
</g>
<!-- Node3 -->
<g id="Node000003" class="node">
<title>Node3</title>
<g id="a_Node000003"><a xlink:href="structSatSys.html#aec6d07b90d1e8172b8b6a6966abef4fd" target="_top" xlink:title="Returns a std::string of this satellite&#39;s id.">
<path fill="#fff0f0" stroke="red" d="M221.17,-19C221.17,-19 168.83,-19 168.83,-19 165.67,-19 162.5,-15.83 162.5,-12.67 162.5,-12.67 162.5,-6.33 162.5,-6.33 162.5,-3.17 165.67,0 168.83,0 168.83,0 221.17,0 221.17,0 224.33,0 227.5,-3.17 227.5,-6.33 227.5,-6.33 227.5,-12.67 227.5,-12.67 227.5,-15.83 224.33,-19 221.17,-19"/>
<text text-anchor="middle" x="195" y="-7" font-family="Helvetica,sans-Serif" font-size="10.00">SatSys::id</text>
</a>
</g>
</g>
<!-- Node1&#45;&gt;Node3 -->
<g id="edge2_Node000001_Node000003" class="edge">
<title>Node1&#45;&gt;Node3</title>
<g id="a_edge2_Node000001_Node000003"><a xlink:title=" ">
<path fill="none" stroke="#63b8ff" d="M85.6,-17.98C104.93,-14.25 130.47,-10.71 151.89,-8.72"/>
<polygon fill="#63b8ff" stroke="#63b8ff" points="152.37,-12.19 162.04,-7.87 151.78,-5.22 152.37,-12.19"/>
</a>
</g>
</g>
<!-- Node1&#45;&gt;Node3 -->
<g id="edge4_Node000001_Node000003" class="edge">
<title>Node1&#45;&gt;Node3</title>
<g id="a_edge4_Node000001_Node000003"><a xlink:title=" ">
<path fill="none" stroke="#63b8ff" d="M110.15,-27.05C124.83,-25.41 140.45,-23.23 154.18,-20.88"/>
<polygon fill="#63b8ff" stroke="#63b8ff" points="155.06,-24.27 164.27,-19.04 153.81,-17.39 155.06,-24.27"/>
</a>
</g>
</g>
</g>
</svg>
