<?xml version="1.0" encoding="UTF-8" standalone="no"?>
<!DOCTYPE svg PUBLIC "-//W3C//DTD SVG 1.1//EN"
 "http://www.w3.org/Graphics/SVG/1.1/DTD/svg11.dtd">
<!-- Generated by graphviz version 2.43.0 (0)
 -->
<!-- Title: satPosBroadcast Pages: 1 -->
<svg width="240pt" height="27pt"
 viewBox="0.00 0.00 240.00 27.00" xmlns="http://www.w3.org/2000/svg" xmlns:xlink="http://www.w3.org/1999/xlink">
<g id="graph0" class="graph" transform="scale(1 1) rotate(0) translate(4 23)">
<title>satPosBroadcast</title>
<!-- Node1 -->
<g id="Node000001" class="node">
<title>Node1</title>
<g id="a_Node000001"><a xlink:href="ephBroadcast_8cpp.html#ab65510857d2c691b3cf584204dead8e7" target="_top" xlink:title=" ">
<path fill="#fff0f0" stroke="red" stroke-width="2" d="M91.67,-19C91.67,-19 6.33,-19 6.33,-19 3.17,-19 0,-15.83 0,-12.67 0,-12.67 0,-6.33 0,-6.33 0,-3.17 3.17,0 6.33,0 6.33,0 91.67,0 91.67,0 94.83,0 98,-3.17 98,-6.33 98,-6.33 98,-12.67 98,-12.67 98,-15.83 94.83,-19 91.67,-19"/>
<text text-anchor="middle" x="49" y="-7" font-family="Helvetica,sans-Serif" font-size="10.00">satPosBroadcast</text>
</a>
</g>
</g>
<!-- Node2 -->
<g id="Node000002" class="node">
<title>Node2</title>
<g id="a_Node000002"><a xlink:href="ephBroadcast_8cpp.html#a7a12481a61ef763e3db3bac720587930" target="_top" xlink:title=" ">
<path fill="#fff0f0" stroke="red" d="M225.67,-19C225.67,-19 140.33,-19 140.33,-19 137.17,-19 134,-15.83 134,-12.67 134,-12.67 134,-6.33 134,-6.33 134,-3.17 137.17,0 140.33,0 140.33,0 225.67,0 225.67,0 228.83,0 232,-3.17 232,-6.33 232,-6.33 232,-12.67 232,-12.67 232,-15.83 228.83,-19 225.67,-19"/>
<text text-anchor="middle" x="183" y="-7" font-family="Helvetica,sans-Serif" font-size="10.00">satPosBroadcast</text>
</a>
</g>
</g>
<!-- Node1&#45;&gt;Node2 -->
<g id="edge1_Node000001_Node000002" class="edge">
<title>Node1&#45;&gt;Node2</title>
<g id="a_edge1_Node000001_Node000002"><a xlink:title=" ">
<path fill="none" stroke="#63b8ff" d="M98.03,-2.98C106.31,-2.76 115,-2.7 123.52,-2.79"/>
<polygon fill="#63b8ff" stroke="#63b8ff" points="123.73,-6.29 133.79,-2.97 123.85,0.71 123.73,-6.29"/>
</a>
</g>
</g>
<!-- Node1&#45;&gt;Node2 -->
<g id="edge2_Node000001_Node000002" class="edge">
<title>Node1&#45;&gt;Node2</title>
<g id="a_edge2_Node000001_Node000002"><a xlink:title=" ">
<path fill="none" stroke="#63b8ff" d="M98.03,-16.02C106.31,-16.24 115,-16.3 123.52,-16.21"/>
<polygon fill="#63b8ff" stroke="#63b8ff" points="123.85,-19.71 133.79,-16.03 123.73,-12.71 123.85,-19.71"/>
</a>
</g>
</g>
</g>
</svg>
