<?xml version="1.0" encoding="UTF-8" standalone="no"?>
<!DOCTYPE svg PUBLIC "-//W3C//DTD SVG 1.1//EN"
 "http://www.w3.org/Graphics/SVG/1.1/DTD/svg11.dtd">
<!-- Generated by graphviz version 2.43.0 (0)
 -->
<!-- Title: cullEphMap Pages: 1 -->
<svg width="221pt" height="27pt"
 viewBox="0.00 0.00 221.00 27.00" xmlns="http://www.w3.org/2000/svg" xmlns:xlink="http://www.w3.org/1999/xlink">
<g id="graph0" class="graph" transform="scale(1 1) rotate(0) translate(4 23)">
<title>cullEphMap</title>
<!-- Node1 -->
<g id="Node000001" class="node">
<title>Node1</title>
<g id="a_Node000001"><a xlink:href="ephemeris_8cpp.html#a54c09f3ed2a61e7f23caae21c73a0e8e" target="_top" xlink:title=" ">
<path fill="#fff0f0" stroke="red" stroke-width="2" d="M66.67,-19C66.67,-19 6.33,-19 6.33,-19 3.17,-19 0,-15.83 0,-12.67 0,-12.67 0,-6.33 0,-6.33 0,-3.17 3.17,0 6.33,0 6.33,0 66.67,0 66.67,0 69.83,0 73,-3.17 73,-6.33 73,-6.33 73,-12.67 73,-12.67 73,-15.83 69.83,-19 66.67,-19"/>
<text text-anchor="middle" x="36.5" y="-7" font-family="Helvetica,sans-Serif" font-size="10.00">cullEphMap</text>
</a>
</g>
</g>
<!-- Node2 -->
<g id="Node000002" class="node">
<title>Node2</title>
<g id="a_Node000002"><a xlink:href="structSatSys.html#aa31d14f6b8c2100c085c732b9a3fef3f" target="_top" xlink:title="Constructs a SatSys object from it&#39;s hash uid.">
<path fill="#fff0f0" stroke="red" d="M206.67,-19C206.67,-19 115.33,-19 115.33,-19 112.17,-19 109,-15.83 109,-12.67 109,-12.67 109,-6.33 109,-6.33 109,-3.17 112.17,0 115.33,0 115.33,0 206.67,0 206.67,0 209.83,0 213,-3.17 213,-6.33 213,-6.33 213,-12.67 213,-12.67 213,-15.83 209.83,-19 206.67,-19"/>
<text text-anchor="middle" x="161" y="-7" font-family="Helvetica,sans-Serif" font-size="10.00">SatSys::fromHash</text>
</a>
</g>
</g>
<!-- Node1&#45;&gt;Node2 -->
<g id="edge1_Node000001_Node000002" class="edge">
<title>Node1&#45;&gt;Node2</title>
<g id="a_edge1_Node000001_Node000002"><a xlink:title=" ">
<path fill="none" stroke="#63b8ff" d="M73.26,-9.5C81.28,-9.5 90.01,-9.5 98.74,-9.5"/>
<polygon fill="#63b8ff" stroke="#63b8ff" points="98.95,-13 108.95,-9.5 98.95,-6 98.95,-13"/>
</a>
</g>
</g>
</g>
</svg>
