<?xml version="1.0" encoding="UTF-8" standalone="no"?>
<!DOCTYPE svg PUBLIC "-//W3C//DTD SVG 1.1//EN"
 "http://www.w3.org/Graphics/SVG/1.1/DTD/svg11.dtd">
<!-- Generated by graphviz version 2.43.0 (0)
 -->
<!-- Title: satpos Pages: 1 -->
<svg width="370pt" height="436pt"
 viewBox="0.00 0.00 370.00 436.00" xmlns="http://www.w3.org/2000/svg" xmlns:xlink="http://www.w3.org/1999/xlink">
<g id="graph0" class="graph" transform="scale(1 1) rotate(0) translate(4 432)">
<title>satpos</title>
<!-- Node1 -->
<g id="Node000001" class="node">
<title>Node1</title>
<g id="a_Node000001"><a xlink:href="ephemeris_8cpp.html#a346b6446fcd54ef489b40cf028168b5c" target="_top" xlink:title="compute satellite position and clock satellite clock does not include code bias correction (tgd or bg...">
<path fill="#fff0f0" stroke="red" stroke-width="2" d="M355.67,-224C355.67,-224 319.33,-224 319.33,-224 316.17,-224 313,-220.83 313,-217.67 313,-217.67 313,-211.33 313,-211.33 313,-208.17 316.17,-205 319.33,-205 319.33,-205 355.67,-205 355.67,-205 358.83,-205 362,-208.17 362,-211.33 362,-211.33 362,-217.67 362,-217.67 362,-220.83 358.83,-224 355.67,-224"/>
<text text-anchor="middle" x="337.5" y="-212" font-family="Helvetica,sans-Serif" font-size="10.00">satpos</text>
</a>
</g>
</g>
<!-- Node2 -->
<g id="Node000002" class="node">
<title>Node2</title>
<g id="a_Node000002"><a xlink:href="debug_8cpp.html#a9779f5f24c300e72581f3858ed638c9e" target="_top" xlink:title=" ">
<path fill="#fff0f0" stroke="red" d="M230.17,-428C230.17,-428 156.83,-428 156.83,-428 153.67,-428 150.5,-424.83 150.5,-421.67 150.5,-421.67 150.5,-415.33 150.5,-415.33 150.5,-412.17 153.67,-409 156.83,-409 156.83,-409 230.17,-409 230.17,-409 233.33,-409 236.5,-412.17 236.5,-415.33 236.5,-415.33 236.5,-421.67 236.5,-421.67 236.5,-424.83 233.33,-428 230.17,-428"/>
<text text-anchor="middle" x="193.5" y="-416" font-family="Helvetica,sans-Serif" font-size="10.00">debugAttitude</text>
</a>
</g>
</g>
<!-- Node1&#45;&gt;Node2 -->
<g id="edge1_Node000001_Node000002" class="edge">
<title>Node1&#45;&gt;Node2</title>
<g id="a_edge1_Node000001_Node000002"><a xlink:title=" ">
<path fill="none" stroke="#63b8ff" d="M336.26,-234.73C334.65,-273.09 325.42,-356.47 277,-400.5 266.05,-410.46 250.89,-415.37 236.56,-417.65"/>
<polygon fill="#63b8ff" stroke="#63b8ff" points="339.77,-234.46 336.55,-224.37 332.77,-234.27 339.77,-234.46"/>
</a>
</g>
</g>
<!-- Node3 -->
<g id="Node000003" class="node">
<title>Node3</title>
<g id="a_Node000003"><a xlink:href="rinexClkWrite_8cpp.html#a535b0918c35ce41fd00a48c5b8a4bab9" target="_top" xlink:title=" ">
<path fill="#fff0f0" stroke="red" d="M243.17,-391C243.17,-391 143.83,-391 143.83,-391 140.67,-391 137.5,-387.83 137.5,-384.67 137.5,-384.67 137.5,-378.33 137.5,-378.33 137.5,-375.17 140.67,-372 143.83,-372 143.83,-372 243.17,-372 243.17,-372 246.33,-372 249.5,-375.17 249.5,-378.33 249.5,-378.33 249.5,-384.67 249.5,-384.67 249.5,-387.83 246.33,-391 243.17,-391"/>
<text text-anchor="middle" x="193.5" y="-379" font-family="Helvetica,sans-Serif" font-size="10.00">getSatClksFromEph</text>
</a>
</g>
</g>
<!-- Node1&#45;&gt;Node3 -->
<g id="edge2_Node000001_Node000003" class="edge">
<title>Node1&#45;&gt;Node3</title>
<g id="a_edge2_Node000001_Node000003"><a xlink:title=" ">
<path fill="none" stroke="#63b8ff" d="M334.46,-234.28C330.04,-266.49 316.54,-330 277,-363.5 269.28,-370.04 259.73,-374.36 249.9,-377.18"/>
<polygon fill="#63b8ff" stroke="#63b8ff" points="337.94,-234.65 335.67,-224.3 330.99,-233.81 337.94,-234.65"/>
</a>
</g>
</g>
<!-- Node12 -->
<g id="Node000012" class="node">
<title>Node12</title>
<g id="a_Node000012"><a xlink:href="main_8cpp.html#a79eb17a8eaafbf1dde7569cb7eae3b7e" target="_top" xlink:title=" ">
<path fill="#fff0f0" stroke="red" d="M270.67,-354C270.67,-354 116.33,-354 116.33,-354 113.17,-354 110,-350.83 110,-347.67 110,-347.67 110,-341.33 110,-341.33 110,-338.17 113.17,-335 116.33,-335 116.33,-335 270.67,-335 270.67,-335 273.83,-335 277,-338.17 277,-341.33 277,-341.33 277,-347.67 277,-347.67 277,-350.83 273.83,-354 270.67,-354"/>
<text text-anchor="middle" x="193.5" y="-342" font-family="Helvetica,sans-Serif" font-size="10.00">mainOncePerEpochPerSatellite</text>
</a>
</g>
</g>
<!-- Node1&#45;&gt;Node12 -->
<g id="edge3_Node000001_Node000012" class="edge">
<title>Node1&#45;&gt;Node12</title>
<g id="a_edge3_Node000001_Node000012"><a xlink:title=" ">
<path fill="none" stroke="#63b8ff" d="M331.63,-234.01C324.25,-259.39 307.72,-303.21 277,-326.5 272.56,-329.87 267.62,-332.63 262.43,-334.89"/>
<polygon fill="#63b8ff" stroke="#63b8ff" points="335.09,-234.65 334.32,-224.09 328.33,-232.82 335.09,-234.65"/>
</a>
</g>
</g>
<!-- Node13 -->
<g id="Node000013" class="node">
<title>Node13</title>
<g id="a_Node000013"><a xlink:href="main_8cpp.html#a2b0d1066eac1a878cf982adcdd550ce1" target="_top" xlink:title="Perform any post&#45;final epoch calculations and outputs, then begin reverse smoothing and tidy up.">
<path fill="#fff0f0" stroke="red" d="M244.67,-317C244.67,-317 142.33,-317 142.33,-317 139.17,-317 136,-313.83 136,-310.67 136,-310.67 136,-304.33 136,-304.33 136,-301.17 139.17,-298 142.33,-298 142.33,-298 244.67,-298 244.67,-298 247.83,-298 251,-301.17 251,-304.33 251,-304.33 251,-310.67 251,-310.67 251,-313.83 247.83,-317 244.67,-317"/>
<text text-anchor="middle" x="193.5" y="-305" font-family="Helvetica,sans-Serif" font-size="10.00">mainPostProcessing</text>
</a>
</g>
</g>
<!-- Node1&#45;&gt;Node13 -->
<g id="edge4_Node000001_Node000013" class="edge">
<title>Node1&#45;&gt;Node13</title>
<g id="a_edge4_Node000001_Node000013"><a xlink:title=" ">
<path fill="none" stroke="#63b8ff" d="M326.65,-233.23C316.54,-250.56 299.17,-275.68 277,-289.5 269.16,-294.39 260.19,-297.96 251.11,-300.57"/>
<polygon fill="#63b8ff" stroke="#63b8ff" points="329.95,-234.51 331.75,-224.06 323.83,-231.1 329.95,-234.51"/>
</a>
</g>
</g>
<!-- Node14 -->
<g id="Node000014" class="node">
<title>Node14</title>
<g id="a_Node000014"><a xlink:href="minimumConstraints_8cpp.html#aeb8c374e79e38289a66b8b65d6574141" target="_top" xlink:title=" ">
<path fill="#fff0f0" stroke="red" d="M224.67,-280C224.67,-280 162.33,-280 162.33,-280 159.17,-280 156,-276.83 156,-273.67 156,-273.67 156,-267.33 156,-267.33 156,-264.17 159.17,-261 162.33,-261 162.33,-261 224.67,-261 224.67,-261 227.83,-261 231,-264.17 231,-267.33 231,-267.33 231,-273.67 231,-273.67 231,-276.83 227.83,-280 224.67,-280"/>
<text text-anchor="middle" x="193.5" y="-268" font-family="Helvetica,sans-Serif" font-size="10.00">minconOnly</text>
</a>
</g>
</g>
<!-- Node1&#45;&gt;Node14 -->
<g id="edge5_Node000001_Node000014" class="edge">
<title>Node1&#45;&gt;Node14</title>
<g id="a_edge5_Node000001_Node000014"><a xlink:title=" ">
<path fill="none" stroke="#63b8ff" d="M316.32,-229.94C305.24,-237.74 290.95,-246.74 277,-252.5 262.5,-258.49 245.71,-262.61 231.08,-265.39"/>
<polygon fill="#63b8ff" stroke="#63b8ff" points="318.42,-232.74 324.45,-224.02 314.3,-227.07 318.42,-232.74"/>
</a>
</g>
</g>
<!-- Node15 -->
<g id="Node000015" class="node">
<title>Node15</title>
<g id="a_Node000015"><a xlink:href="ppp__pseudoobs_8cpp.html#a49ce4050de278a66c933406b92bbbf39" target="_top" xlink:title=" ">
<path fill="#fff0f0" stroke="red" d="M233.67,-243C233.67,-243 153.33,-243 153.33,-243 150.17,-243 147,-239.83 147,-236.67 147,-236.67 147,-230.33 147,-230.33 147,-227.17 150.17,-224 153.33,-224 153.33,-224 233.67,-224 233.67,-224 236.83,-224 240,-227.17 240,-230.33 240,-230.33 240,-236.67 240,-236.67 240,-239.83 236.83,-243 233.67,-243"/>
<text text-anchor="middle" x="193.5" y="-231" font-family="Helvetica,sans-Serif" font-size="10.00">orbitPseudoObs</text>
</a>
</g>
</g>
<!-- Node1&#45;&gt;Node15 -->
<g id="edge6_Node000001_Node000015" class="edge">
<title>Node1&#45;&gt;Node15</title>
<g id="a_edge6_Node000001_Node000015"><a xlink:title=" ">
<path fill="none" stroke="#63b8ff" d="M302.62,-219.03C283.93,-221.53 260.47,-224.67 240.19,-227.39"/>
<polygon fill="#63b8ff" stroke="#63b8ff" points="303.28,-222.48 312.73,-217.68 302.36,-215.54 303.28,-222.48"/>
</a>
</g>
</g>
<!-- Node17 -->
<g id="Node000017" class="node">
<title>Node17</title>
<g id="a_Node000017"><a xlink:href="mongoWrite_8cpp.html#a0936cc081f59031ee1253c909285838c" target="_top" xlink:title="Write states generating SSR corrections to Mongo DB.">
<path fill="#fff0f0" stroke="red" d="M237.17,-206C237.17,-206 149.83,-206 149.83,-206 146.67,-206 143.5,-202.83 143.5,-199.67 143.5,-199.67 143.5,-193.33 143.5,-193.33 143.5,-190.17 146.67,-187 149.83,-187 149.83,-187 237.17,-187 237.17,-187 240.33,-187 243.5,-190.17 243.5,-193.33 243.5,-193.33 243.5,-199.67 243.5,-199.67 243.5,-202.83 240.33,-206 237.17,-206"/>
<text text-anchor="middle" x="193.5" y="-194" font-family="Helvetica,sans-Serif" font-size="10.00">prepareSsrStates</text>
</a>
</g>
</g>
<!-- Node1&#45;&gt;Node17 -->
<g id="edge7_Node000001_Node000017" class="edge">
<title>Node1&#45;&gt;Node17</title>
<g id="a_edge7_Node000001_Node000017"><a xlink:title=" ">
<path fill="none" stroke="#63b8ff" d="M302.39,-210.18C284.81,-207.95 263.05,-205.19 243.7,-202.74"/>
<polygon fill="#63b8ff" stroke="#63b8ff" points="302.37,-213.7 312.73,-211.49 303.25,-206.76 302.37,-213.7"/>
</a>
</g>
</g>
<!-- Node18 -->
<g id="Node000018" class="node">
<title>Node18</title>
<g id="a_Node000018"><a xlink:href="ppp__obs_8cpp.html#aa9dc8925a7e4b904e12660d44616f1fc" target="_top" xlink:title=" ">
<path fill="#fff0f0" stroke="red" d="M67.67,-130C67.67,-130 6.33,-130 6.33,-130 3.17,-130 0,-126.83 0,-123.67 0,-123.67 0,-117.33 0,-117.33 0,-114.17 3.17,-111 6.33,-111 6.33,-111 67.67,-111 67.67,-111 70.83,-111 74,-114.17 74,-117.33 74,-117.33 74,-123.67 74,-123.67 74,-126.83 70.83,-130 67.67,-130"/>
<text text-anchor="middle" x="37" y="-118" font-family="Helvetica,sans-Serif" font-size="10.00">receiverPPP</text>
</a>
</g>
</g>
<!-- Node1&#45;&gt;Node18 -->
<g id="edge8_Node000001_Node000018" class="edge">
<title>Node1&#45;&gt;Node18</title>
<g id="a_edge8_Node000001_Node000018"><a xlink:title=" ">
<path fill="none" stroke="#63b8ff" d="M314.98,-199.22C304.04,-192.05 290.28,-183.91 277,-178.5 206.41,-149.75 183.97,-157.89 110,-139.5 98.08,-136.54 85.09,-133.16 73.47,-130.08"/>
<polygon fill="#63b8ff" stroke="#63b8ff" points="313.19,-202.23 323.43,-204.93 317.11,-196.43 313.19,-202.23"/>
</a>
</g>
</g>
<!-- Node19 -->
<g id="Node000019" class="node">
<title>Node19</title>
<g id="a_Node000019"><a xlink:href="ppp__slr_8cpp.html#a0f53eb82b1b0572a1aabec8b6fe5a6ad" target="_top" xlink:title=" ">
<path fill="#fff0f0" stroke="red" d="M221.67,-130C221.67,-130 165.33,-130 165.33,-130 162.17,-130 159,-126.83 159,-123.67 159,-123.67 159,-117.33 159,-117.33 159,-114.17 162.17,-111 165.33,-111 165.33,-111 221.67,-111 221.67,-111 224.83,-111 228,-114.17 228,-117.33 228,-117.33 228,-123.67 228,-123.67 228,-126.83 224.83,-130 221.67,-130"/>
<text text-anchor="middle" x="193.5" y="-118" font-family="Helvetica,sans-Serif" font-size="10.00">receiverSlr</text>
</a>
</g>
</g>
<!-- Node1&#45;&gt;Node19 -->
<g id="edge9_Node000001_Node000019" class="edge">
<title>Node1&#45;&gt;Node19</title>
<g id="a_edge9_Node000001_Node000019"><a xlink:title=" ">
<path fill="none" stroke="#63b8ff" d="M325.47,-196.32C314.92,-180.42 297.59,-157.84 277,-144.5 262.35,-135.01 243.86,-129.18 228.1,-125.65"/>
<polygon fill="#63b8ff" stroke="#63b8ff" points="322.54,-198.24 330.87,-204.79 328.45,-194.48 322.54,-198.24"/>
</a>
</g>
</g>
<!-- Node20 -->
<g id="Node000020" class="node">
<title>Node20</title>
<g id="a_Node000020"><a xlink:href="ephemeris_8cpp.html#ae3fc266561960e17c92108efd742606f" target="_top" xlink:title="satellite positions and clocks.">
<path fill="#fff0f0" stroke="red" d="M219.67,-93C219.67,-93 167.33,-93 167.33,-93 164.17,-93 161,-89.83 161,-86.67 161,-86.67 161,-80.33 161,-80.33 161,-77.17 164.17,-74 167.33,-74 167.33,-74 219.67,-74 219.67,-74 222.83,-74 226,-77.17 226,-80.33 226,-80.33 226,-86.67 226,-86.67 226,-89.83 222.83,-93 219.67,-93"/>
<text text-anchor="middle" x="193.5" y="-81" font-family="Helvetica,sans-Serif" font-size="10.00">satPosClk</text>
</a>
</g>
</g>
<!-- Node1&#45;&gt;Node20 -->
<g id="edge10_Node000001_Node000020" class="edge">
<title>Node1&#45;&gt;Node20</title>
<g id="a_edge10_Node000001_Node000020"><a xlink:title=" ">
<path fill="none" stroke="#63b8ff" d="M331.59,-195.04C324.17,-169.72 307.59,-125.97 277,-102.5 262.54,-91.41 242.73,-86.6 226.15,-84.6"/>
<polygon fill="#63b8ff" stroke="#63b8ff" points="328.29,-196.22 334.3,-204.94 335.04,-194.37 328.29,-196.22"/>
</a>
</g>
</g>
<!-- Node25 -->
<g id="Node000025" class="node">
<title>Node25</title>
<g id="a_Node000025"><a xlink:href="orbexWrite_8cpp.html#a180ef8ef5918ebb390be583771a0f4b7" target="_top" xlink:title="Retrieve satellite orbits, clocks and attitudes for all included systems and write out to an ORBEX fi...">
<path fill="#fff0f0" stroke="red" d="M239.17,-56C239.17,-56 147.83,-56 147.83,-56 144.67,-56 141.5,-52.83 141.5,-49.67 141.5,-49.67 141.5,-43.33 141.5,-43.33 141.5,-40.17 144.67,-37 147.83,-37 147.83,-37 239.17,-37 239.17,-37 242.33,-37 245.5,-40.17 245.5,-43.33 245.5,-43.33 245.5,-49.67 245.5,-49.67 245.5,-52.83 242.33,-56 239.17,-56"/>
<text text-anchor="middle" x="193.5" y="-44" font-family="Helvetica,sans-Serif" font-size="10.00">writeSysSetOrbex</text>
</a>
</g>
</g>
<!-- Node1&#45;&gt;Node25 -->
<g id="edge12_Node000001_Node000025" class="edge">
<title>Node1&#45;&gt;Node25</title>
<g id="a_edge12_Node000001_Node000025"><a xlink:title=" ">
<path fill="none" stroke="#63b8ff" d="M334.41,-194.77C329.93,-162.64 316.35,-99.23 277,-65.5 268.18,-57.94 256.95,-53.24 245.64,-50.35"/>
<polygon fill="#63b8ff" stroke="#63b8ff" points="330.95,-195.23 335.65,-204.73 337.89,-194.37 330.95,-195.23"/>
</a>
</g>
</g>
<!-- Node27 -->
<g id="Node000027" class="node">
<title>Node27</title>
<g id="a_Node000027"><a xlink:href="sp3Write_8cpp.html#a63449e78bf1e8eb81fdd0486adf37cb2" target="_top" xlink:title=" ">
<path fill="#fff0f0" stroke="red" d="M233.17,-19C233.17,-19 153.83,-19 153.83,-19 150.67,-19 147.5,-15.83 147.5,-12.67 147.5,-12.67 147.5,-6.33 147.5,-6.33 147.5,-3.17 150.67,0 153.83,0 153.83,0 233.17,0 233.17,0 236.33,0 239.5,-3.17 239.5,-6.33 239.5,-6.33 239.5,-12.67 239.5,-12.67 239.5,-15.83 236.33,-19 233.17,-19"/>
<text text-anchor="middle" x="193.5" y="-7" font-family="Helvetica,sans-Serif" font-size="10.00">writeSysSetSp3</text>
</a>
</g>
</g>
<!-- Node1&#45;&gt;Node27 -->
<g id="edge13_Node000001_Node000027" class="edge">
<title>Node1&#45;&gt;Node27</title>
<g id="a_edge13_Node000001_Node000027"><a xlink:title=" ">
<path fill="none" stroke="#63b8ff" d="M336.21,-194.32C334.52,-156.05 325.16,-72.81 277,-28.5 266.83,-19.15 253.01,-14.1 239.58,-11.46"/>
<polygon fill="#63b8ff" stroke="#63b8ff" points="332.72,-194.77 336.53,-204.66 339.72,-194.56 332.72,-194.77"/>
</a>
</g>
</g>
<!-- Node20&#45;&gt;Node18 -->
<g id="edge11_Node000020_Node000018" class="edge">
<title>Node20&#45;&gt;Node18</title>
<g id="a_edge11_Node000020_Node000018"><a xlink:title=" ">
<path fill="none" stroke="#63b8ff" d="M150.63,-92.98C137.6,-95.98 123.19,-99.33 110,-102.5 98.35,-105.3 85.66,-108.44 74.23,-111.3"/>
<polygon fill="#63b8ff" stroke="#63b8ff" points="151.77,-96.31 160.73,-90.67 150.21,-89.49 151.77,-96.31"/>
</a>
</g>
</g>
</g>
</svg>
