<?xml version="1.0" encoding="UTF-8" standalone="no"?>
<!DOCTYPE svg PUBLIC "-//W3C//DTD SVG 1.1//EN"
 "http://www.w3.org/Graphics/SVG/1.1/DTD/svg11.dtd">
<!-- Generated by graphviz version 2.43.0 (0)
 -->
<!-- Title: satPosClk Pages: 1 -->
<svg width="183pt" height="64pt"
 viewBox="0.00 0.00 183.00 64.00" xmlns="http://www.w3.org/2000/svg" xmlns:xlink="http://www.w3.org/1999/xlink">
<g id="graph0" class="graph" transform="scale(1 1) rotate(0) translate(4 60)">
<title>satPosClk</title>
<!-- Node1 -->
<g id="Node000001" class="node">
<title>Node1</title>
<g id="a_Node000001"><a xlink:href="ephemeris_8cpp.html#ae3fc266561960e17c92108efd742606f" target="_top" xlink:title="satellite positions and clocks.">
<path fill="#fff0f0" stroke="red" stroke-width="2" d="M168.67,-37C168.67,-37 116.33,-37 116.33,-37 113.17,-37 110,-33.83 110,-30.67 110,-30.67 110,-24.33 110,-24.33 110,-21.17 113.17,-18 116.33,-18 116.33,-18 168.67,-18 168.67,-18 171.83,-18 175,-21.17 175,-24.33 175,-24.33 175,-30.67 175,-30.67 175,-33.83 171.83,-37 168.67,-37"/>
<text text-anchor="middle" x="142.5" y="-25" font-family="Helvetica,sans-Serif" font-size="10.00">satPosClk</text>
</a>
</g>
</g>
<!-- Node2 -->
<g id="Node000002" class="node">
<title>Node2</title>
<g id="a_Node000002"><a xlink:href="ppp__obs_8cpp.html#aa9dc8925a7e4b904e12660d44616f1fc" target="_top" xlink:title=" ">
<path fill="#fff0f0" stroke="red" d="M67.67,-56C67.67,-56 6.33,-56 6.33,-56 3.17,-56 0,-52.83 0,-49.67 0,-49.67 0,-43.33 0,-43.33 0,-40.17 3.17,-37 6.33,-37 6.33,-37 67.67,-37 67.67,-37 70.83,-37 74,-40.17 74,-43.33 74,-43.33 74,-49.67 74,-49.67 74,-52.83 70.83,-56 67.67,-56"/>
<text text-anchor="middle" x="37" y="-44" font-family="Helvetica,sans-Serif" font-size="10.00">receiverPPP</text>
</a>
</g>
</g>
<!-- Node1&#45;&gt;Node2 -->
<g id="edge1_Node000001_Node000002" class="edge">
<title>Node1&#45;&gt;Node2</title>
<g id="a_edge1_Node000001_Node000002"><a xlink:title=" ">
<path fill="none" stroke="#63b8ff" d="M99.77,-35.16C91.28,-36.72 82.41,-38.35 74.13,-39.87"/>
<polygon fill="#63b8ff" stroke="#63b8ff" points="100.68,-38.55 109.88,-33.3 99.42,-31.67 100.68,-38.55"/>
</a>
</g>
</g>
<!-- Node7 -->
<g id="Node000007" class="node">
<title>Node7</title>
<g id="a_Node000007"><a xlink:href="spp_8cpp.html#a2ec47af9ec762fa7586a8309d413cf84" target="_top" xlink:title="Compute receiver position, velocity, clock bias by single&#45;point positioning with pseudorange observab...">
<path fill="#fff0f0" stroke="red" d="M47.67,-19C47.67,-19 26.33,-19 26.33,-19 23.17,-19 20,-15.83 20,-12.67 20,-12.67 20,-6.33 20,-6.33 20,-3.17 23.17,0 26.33,0 26.33,0 47.67,0 47.67,0 50.83,0 54,-3.17 54,-6.33 54,-6.33 54,-12.67 54,-12.67 54,-15.83 50.83,-19 47.67,-19"/>
<text text-anchor="middle" x="37" y="-7" font-family="Helvetica,sans-Serif" font-size="10.00">spp</text>
</a>
</g>
</g>
<!-- Node1&#45;&gt;Node7 -->
<g id="edge2_Node000001_Node000007" class="edge">
<title>Node1&#45;&gt;Node7</title>
<g id="a_edge2_Node000001_Node000007"><a xlink:title=" ">
<path fill="none" stroke="#63b8ff" d="M99.63,-20.22C83.63,-17.44 66.32,-14.43 54.13,-12.31"/>
<polygon fill="#63b8ff" stroke="#63b8ff" points="99.43,-23.74 109.88,-22 100.63,-16.84 99.43,-23.74"/>
</a>
</g>
</g>
</g>
</svg>
