<?xml version="1.0" encoding="UTF-8" standalone="no"?>
<!DOCTYPE svg PUBLIC "-//W3C//DTD SVG 1.1//EN"
 "http://www.w3.org/Graphics/SVG/1.1/DTD/svg11.dtd">
<!-- Generated by graphviz version 2.43.0 (0)
 -->
<!-- Title: satpos Pages: 1 -->
<svg width="349pt" height="438pt"
 viewBox="0.00 0.00 349.00 438.00" xmlns="http://www.w3.org/2000/svg" xmlns:xlink="http://www.w3.org/1999/xlink">
<g id="graph0" class="graph" transform="scale(1 1) rotate(0) translate(4 434)">
<title>satpos</title>
<!-- Node1 -->
<g id="Node000001" class="node">
<title>Node1</title>
<g id="a_Node000001"><a xlink:href="ephemeris_8cpp.html#a346b6446fcd54ef489b40cf028168b5c" target="_top" xlink:title="compute satellite position and clock satellite clock does not include code bias correction (tgd or bg...">
<path fill="#fff0f0" stroke="red" stroke-width="2" d="M334.67,-224C334.67,-224 298.33,-224 298.33,-224 295.17,-224 292,-220.83 292,-217.67 292,-217.67 292,-211.33 292,-211.33 292,-208.17 295.17,-205 298.33,-205 298.33,-205 334.67,-205 334.67,-205 337.83,-205 341,-208.17 341,-211.33 341,-211.33 341,-217.67 341,-217.67 341,-220.83 337.83,-224 334.67,-224"/>
<text text-anchor="middle" x="316.5" y="-212" font-family="Helvetica,sans-Serif" font-size="10.00">satpos</text>
</a>
</g>
</g>
<!-- Node2 -->
<g id="Node000002" class="node">
<title>Node2</title>
<g id="a_Node000002"><a xlink:href="debug_8cpp.html#a9779f5f24c300e72581f3858ed638c9e" target="_top" xlink:title=" ">
<path fill="#fff0f0" stroke="red" d="M235.17,-430C235.17,-430 161.83,-430 161.83,-430 158.67,-430 155.5,-426.83 155.5,-423.67 155.5,-423.67 155.5,-417.33 155.5,-417.33 155.5,-414.17 158.67,-411 161.83,-411 161.83,-411 235.17,-411 235.17,-411 238.33,-411 241.5,-414.17 241.5,-417.33 241.5,-417.33 241.5,-423.67 241.5,-423.67 241.5,-426.83 238.33,-430 235.17,-430"/>
<text text-anchor="middle" x="198.5" y="-418" font-family="Helvetica,sans-Serif" font-size="10.00">debugAttitude</text>
</a>
</g>
</g>
<!-- Node1&#45;&gt;Node2 -->
<g id="edge1_Node000001_Node000002" class="edge">
<title>Node1&#45;&gt;Node2</title>
<g id="a_edge1_Node000001_Node000002"><a xlink:title=" ">
<path fill="none" stroke="#63b8ff" d="M314.94,-234.54C312.79,-272.6 302.68,-355.73 256,-402.5 251.93,-406.58 246.93,-409.74 241.61,-412.18"/>
<polygon fill="#63b8ff" stroke="#63b8ff" points="318.45,-234.4 315.39,-224.26 311.46,-234.1 318.45,-234.4"/>
</a>
</g>
</g>
<!-- Node3 -->
<g id="Node000003" class="node">
<title>Node3</title>
<g id="a_Node000003"><a xlink:href="rinexClkWrite_8cpp.html#ae31955d6539bae1237bbdae75c412c3a" target="_top" xlink:title=" ">
<path fill="#fff0f0" stroke="red" d="M248.17,-393C248.17,-393 148.83,-393 148.83,-393 145.67,-393 142.5,-389.83 142.5,-386.67 142.5,-386.67 142.5,-380.33 142.5,-380.33 142.5,-377.17 145.67,-374 148.83,-374 148.83,-374 248.17,-374 248.17,-374 251.33,-374 254.5,-377.17 254.5,-380.33 254.5,-380.33 254.5,-386.67 254.5,-386.67 254.5,-389.83 251.33,-393 248.17,-393"/>
<text text-anchor="middle" x="198.5" y="-381" font-family="Helvetica,sans-Serif" font-size="10.00">getSatClksFromEph</text>
</a>
</g>
</g>
<!-- Node1&#45;&gt;Node3 -->
<g id="edge2_Node000001_Node000003" class="edge">
<title>Node1&#45;&gt;Node3</title>
<g id="a_edge2_Node000001_Node000003"><a xlink:title=" ">
<path fill="none" stroke="#63b8ff" d="M313.18,-234.13C308.35,-266.17 294.29,-329.69 256,-365.5 252.32,-368.95 247.97,-371.73 243.36,-373.98"/>
<polygon fill="#63b8ff" stroke="#63b8ff" points="316.65,-234.59 314.52,-224.21 309.71,-233.65 316.65,-234.59"/>
</a>
</g>
</g>
<!-- Node11 -->
<g id="Node000011" class="node">
<title>Node11</title>
<g id="a_Node000011"><a xlink:href="main_8cpp.html#a2b0d1066eac1a878cf982adcdd550ce1" target="_top" xlink:title="Perform any post&#45;final epoch calculations and outputs, then begin reverse smoothing and tidy up.">
<path fill="#fff0f0" stroke="red" d="M249.67,-356C249.67,-356 147.33,-356 147.33,-356 144.17,-356 141,-352.83 141,-349.67 141,-349.67 141,-343.33 141,-343.33 141,-340.17 144.17,-337 147.33,-337 147.33,-337 249.67,-337 249.67,-337 252.83,-337 256,-340.17 256,-343.33 256,-343.33 256,-349.67 256,-349.67 256,-352.83 252.83,-356 249.67,-356"/>
<text text-anchor="middle" x="198.5" y="-344" font-family="Helvetica,sans-Serif" font-size="10.00">mainPostProcessing</text>
</a>
</g>
</g>
<!-- Node1&#45;&gt;Node11 -->
<g id="edge3_Node000001_Node000011" class="edge">
<title>Node1&#45;&gt;Node11</title>
<g id="a_edge3_Node000001_Node000011"><a xlink:title=" ">
<path fill="none" stroke="#63b8ff" d="M309.27,-233.91C300.73,-257.69 283.28,-297.87 256,-322.5 249.2,-328.64 240.59,-333.37 232.16,-336.93"/>
<polygon fill="#63b8ff" stroke="#63b8ff" points="312.65,-234.84 312.57,-224.24 306.02,-232.58 312.65,-234.84"/>
</a>
</g>
</g>
<!-- Node12 -->
<g id="Node000012" class="node">
<title>Node12</title>
<g id="a_Node000012"><a xlink:href="minimumConstraints_8cpp.html#aeb8c374e79e38289a66b8b65d6574141" target="_top" xlink:title=" ">
<path fill="#fff0f0" stroke="red" d="M83.67,-252C83.67,-252 21.33,-252 21.33,-252 18.17,-252 15,-248.83 15,-245.67 15,-245.67 15,-239.33 15,-239.33 15,-236.17 18.17,-233 21.33,-233 21.33,-233 83.67,-233 83.67,-233 86.83,-233 90,-236.17 90,-239.33 90,-239.33 90,-245.67 90,-245.67 90,-248.83 86.83,-252 83.67,-252"/>
<text text-anchor="middle" x="52.5" y="-240" font-family="Helvetica,sans-Serif" font-size="10.00">minconOnly</text>
</a>
</g>
</g>
<!-- Node1&#45;&gt;Node12 -->
<g id="edge4_Node000001_Node000012" class="edge">
<title>Node1&#45;&gt;Node12</title>
<g id="a_edge4_Node000001_Node000012"><a xlink:title=" ">
<path fill="none" stroke="#63b8ff" d="M306.83,-233.24C297.27,-251.42 279.99,-277.91 256,-289.5 209.98,-311.73 190.57,-301.97 141,-289.5 112.24,-282.26 82.63,-263.53 66.29,-252.02"/>
<polygon fill="#63b8ff" stroke="#63b8ff" points="310.04,-234.66 311.34,-224.15 303.77,-231.55 310.04,-234.66"/>
</a>
</g>
</g>
<!-- Node13 -->
<g id="Node000013" class="node">
<title>Node13</title>
<g id="a_Node000013"><a xlink:href="ppp__pseudoobs_8cpp.html#a49ce4050de278a66c933406b92bbbf39" target="_top" xlink:title=" ">
<path fill="#fff0f0" stroke="red" d="M238.67,-280C238.67,-280 158.33,-280 158.33,-280 155.17,-280 152,-276.83 152,-273.67 152,-273.67 152,-267.33 152,-267.33 152,-264.17 155.17,-261 158.33,-261 158.33,-261 238.67,-261 238.67,-261 241.83,-261 245,-264.17 245,-267.33 245,-267.33 245,-273.67 245,-273.67 245,-276.83 241.83,-280 238.67,-280"/>
<text text-anchor="middle" x="198.5" y="-268" font-family="Helvetica,sans-Serif" font-size="10.00">orbitPseudoObs</text>
</a>
</g>
</g>
<!-- Node1&#45;&gt;Node13 -->
<g id="edge5_Node000001_Node000013" class="edge">
<title>Node1&#45;&gt;Node13</title>
<g id="a_edge5_Node000001_Node000013"><a xlink:title=" ">
<path fill="none" stroke="#63b8ff" d="M293.89,-230.23C282.93,-237.7 269.18,-246.32 256,-252.5 249.2,-255.69 241.68,-258.52 234.41,-260.95"/>
<polygon fill="#63b8ff" stroke="#63b8ff" points="296.18,-232.9 302.37,-224.3 292.17,-227.16 296.18,-232.9"/>
</a>
</g>
</g>
<!-- Node16 -->
<g id="Node000016" class="node">
<title>Node16</title>
<g id="a_Node000016"><a xlink:href="mongoWrite_8cpp.html#a0936cc081f59031ee1253c909285838c" target="_top" xlink:title="Write states generating SSR corrections to Mongo DB.">
<path fill="#fff0f0" stroke="red" d="M242.17,-243C242.17,-243 154.83,-243 154.83,-243 151.67,-243 148.5,-239.83 148.5,-236.67 148.5,-236.67 148.5,-230.33 148.5,-230.33 148.5,-227.17 151.67,-224 154.83,-224 154.83,-224 242.17,-224 242.17,-224 245.33,-224 248.5,-227.17 248.5,-230.33 248.5,-230.33 248.5,-236.67 248.5,-236.67 248.5,-239.83 245.33,-243 242.17,-243"/>
<text text-anchor="middle" x="198.5" y="-231" font-family="Helvetica,sans-Serif" font-size="10.00">prepareSsrStates</text>
</a>
</g>
</g>
<!-- Node1&#45;&gt;Node16 -->
<g id="edge6_Node000001_Node000016" class="edge">
<title>Node1&#45;&gt;Node16</title>
<g id="a_edge6_Node000001_Node000016"><a xlink:title=" ">
<path fill="none" stroke="#63b8ff" d="M281.85,-220.01C271.46,-221.71 259.8,-223.62 248.6,-225.46"/>
<polygon fill="#63b8ff" stroke="#63b8ff" points="282.44,-223.46 291.75,-218.39 281.31,-216.55 282.44,-223.46"/>
</a>
</g>
</g>
<!-- Node17 -->
<g id="Node000017" class="node">
<title>Node17</title>
<g id="a_Node000017"><a xlink:href="ppp__slr_8cpp.html#a0f53eb82b1b0572a1aabec8b6fe5a6ad" target="_top" xlink:title=" ">
<path fill="#fff0f0" stroke="red" d="M226.67,-206C226.67,-206 170.33,-206 170.33,-206 167.17,-206 164,-202.83 164,-199.67 164,-199.67 164,-193.33 164,-193.33 164,-190.17 167.17,-187 170.33,-187 170.33,-187 226.67,-187 226.67,-187 229.83,-187 233,-190.17 233,-193.33 233,-193.33 233,-199.67 233,-199.67 233,-202.83 229.83,-206 226.67,-206"/>
<text text-anchor="middle" x="198.5" y="-194" font-family="Helvetica,sans-Serif" font-size="10.00">receiverSlr</text>
</a>
</g>
</g>
<!-- Node1&#45;&gt;Node17 -->
<g id="edge7_Node000001_Node000017" class="edge">
<title>Node1&#45;&gt;Node17</title>
<g id="a_edge7_Node000001_Node000017"><a xlink:title=" ">
<path fill="none" stroke="#63b8ff" d="M281.71,-209.26C266.49,-206.9 248.56,-204.11 233.34,-201.75"/>
<polygon fill="#63b8ff" stroke="#63b8ff" points="281.33,-212.74 291.75,-210.81 282.4,-205.82 281.33,-212.74"/>
</a>
</g>
</g>
<!-- Node18 -->
<g id="Node000018" class="node">
<title>Node18</title>
<g id="a_Node000018"><a xlink:href="ppp__obs_8cpp.html#a375577932a02b1ae21ad60b7e39b040e" target="_top" xlink:title=" ">
<path fill="#fff0f0" stroke="red" d="M98.67,-149C98.67,-149 6.33,-149 6.33,-149 3.17,-149 0,-145.83 0,-142.67 0,-142.67 0,-136.33 0,-136.33 0,-133.17 3.17,-130 6.33,-130 6.33,-130 98.67,-130 98.67,-130 101.83,-130 105,-133.17 105,-136.33 105,-136.33 105,-142.67 105,-142.67 105,-145.83 101.83,-149 98.67,-149"/>
<text text-anchor="middle" x="52.5" y="-137" font-family="Helvetica,sans-Serif" font-size="10.00">receiverUducGnss</text>
</a>
</g>
</g>
<!-- Node1&#45;&gt;Node18 -->
<g id="edge8_Node000001_Node000018" class="edge">
<title>Node1&#45;&gt;Node18</title>
<g id="a_edge8_Node000001_Node000018"><a xlink:title=" ">
<path fill="none" stroke="#63b8ff" d="M294.07,-198.99C283.15,-191.77 269.38,-183.65 256,-178.5 206.71,-159.54 147,-149.48 105.23,-144.36"/>
<polygon fill="#63b8ff" stroke="#63b8ff" points="292.27,-202 302.5,-204.77 296.23,-196.23 292.27,-202"/>
</a>
</g>
</g>
<!-- Node19 -->
<g id="Node000019" class="node">
<title>Node19</title>
<g id="a_Node000019"><a xlink:href="ephemeris_8cpp.html#ae3fc266561960e17c92108efd742606f" target="_top" xlink:title="satellite positions and clocks.">
<path fill="#fff0f0" stroke="red" d="M224.67,-130C224.67,-130 172.33,-130 172.33,-130 169.17,-130 166,-126.83 166,-123.67 166,-123.67 166,-117.33 166,-117.33 166,-114.17 169.17,-111 172.33,-111 172.33,-111 224.67,-111 224.67,-111 227.83,-111 231,-114.17 231,-117.33 231,-117.33 231,-123.67 231,-123.67 231,-126.83 227.83,-130 224.67,-130"/>
<text text-anchor="middle" x="198.5" y="-118" font-family="Helvetica,sans-Serif" font-size="10.00">satPosClk</text>
</a>
</g>
</g>
<!-- Node1&#45;&gt;Node19 -->
<g id="edge9_Node000001_Node000019" class="edge">
<title>Node1&#45;&gt;Node19</title>
<g id="a_edge9_Node000001_Node000019"><a xlink:title=" ">
<path fill="none" stroke="#63b8ff" d="M303.41,-195.95C292.55,-180.48 275.37,-158.74 256,-144.5 247.93,-138.57 238.17,-133.75 229.04,-130.04"/>
<polygon fill="#63b8ff" stroke="#63b8ff" points="300.81,-198.34 309.32,-204.64 306.6,-194.41 300.81,-198.34"/>
</a>
</g>
</g>
<!-- Node24 -->
<g id="Node000024" class="node">
<title>Node24</title>
<g id="a_Node000024"><a xlink:href="ppp_8cpp.html#addf444b8f568363246958de68c55772d" target="_top" xlink:title="Compare estimated station position with benchmark in SINEX file.">
<path fill="#fff0f0" stroke="red" d="M247.67,-93C247.67,-93 149.33,-93 149.33,-93 146.17,-93 143,-89.83 143,-86.67 143,-86.67 143,-80.33 143,-80.33 143,-77.17 146.17,-74 149.33,-74 149.33,-74 247.67,-74 247.67,-74 250.83,-74 254,-77.17 254,-80.33 254,-80.33 254,-86.67 254,-86.67 254,-89.83 250.83,-93 247.67,-93"/>
<text text-anchor="middle" x="198.5" y="-81" font-family="Helvetica,sans-Serif" font-size="10.00">selectAprioriSource</text>
</a>
</g>
</g>
<!-- Node1&#45;&gt;Node24 -->
<g id="edge11_Node000001_Node000024" class="edge">
<title>Node1&#45;&gt;Node24</title>
<g id="a_edge11_Node000001_Node000024"><a xlink:title=" ">
<path fill="none" stroke="#63b8ff" d="M310.23,-194.87C302.48,-169.68 285.61,-126.3 256,-101.5 251.9,-98.06 247.13,-95.28 242.14,-93.03"/>
<polygon fill="#63b8ff" stroke="#63b8ff" points="306.94,-196.1 313.08,-204.73 313.67,-194.15 306.94,-196.1"/>
</a>
</g>
</g>
<!-- Node26 -->
<g id="Node000026" class="node">
<title>Node26</title>
<g id="a_Node000026"><a xlink:href="orbexWrite_8cpp.html#a180ef8ef5918ebb390be583771a0f4b7" target="_top" xlink:title="Retrieve satellite orbits, clocks and attitudes for all included systems and write out to an ORBEX fi...">
<path fill="#fff0f0" stroke="red" d="M244.17,-56C244.17,-56 152.83,-56 152.83,-56 149.67,-56 146.5,-52.83 146.5,-49.67 146.5,-49.67 146.5,-43.33 146.5,-43.33 146.5,-40.17 149.67,-37 152.83,-37 152.83,-37 244.17,-37 244.17,-37 247.33,-37 250.5,-40.17 250.5,-43.33 250.5,-43.33 250.5,-49.67 250.5,-49.67 250.5,-52.83 247.33,-56 244.17,-56"/>
<text text-anchor="middle" x="198.5" y="-44" font-family="Helvetica,sans-Serif" font-size="10.00">writeSysSetOrbex</text>
</a>
</g>
</g>
<!-- Node1&#45;&gt;Node26 -->
<g id="edge13_Node000001_Node000026" class="edge">
<title>Node1&#45;&gt;Node26</title>
<g id="a_edge13_Node000001_Node000026"><a xlink:title=" ">
<path fill="none" stroke="#63b8ff" d="M313.07,-194.58C308.13,-162.62 293.95,-99.91 256,-64.5 252.31,-61.06 247.97,-58.28 243.35,-56.02"/>
<polygon fill="#63b8ff" stroke="#63b8ff" points="309.66,-195.43 314.5,-204.85 316.59,-194.46 309.66,-195.43"/>
</a>
</g>
</g>
<!-- Node28 -->
<g id="Node000028" class="node">
<title>Node28</title>
<g id="a_Node000028"><a xlink:href="sp3Write_8cpp.html#a63449e78bf1e8eb81fdd0486adf37cb2" target="_top" xlink:title=" ">
<path fill="#fff0f0" stroke="red" d="M238.17,-19C238.17,-19 158.83,-19 158.83,-19 155.67,-19 152.5,-15.83 152.5,-12.67 152.5,-12.67 152.5,-6.33 152.5,-6.33 152.5,-3.17 155.67,0 158.83,0 158.83,0 238.17,0 238.17,0 241.33,0 244.5,-3.17 244.5,-6.33 244.5,-6.33 244.5,-12.67 244.5,-12.67 244.5,-15.83 241.33,-19 238.17,-19"/>
<text text-anchor="middle" x="198.5" y="-7" font-family="Helvetica,sans-Serif" font-size="10.00">writeSysSetSp3</text>
</a>
</g>
</g>
<!-- Node1&#45;&gt;Node28 -->
<g id="edge14_Node000001_Node000028" class="edge">
<title>Node1&#45;&gt;Node28</title>
<g id="a_edge14_Node000001_Node000028"><a xlink:title=" ">
<path fill="none" stroke="#63b8ff" d="M314.91,-194.57C312.7,-156.7 302.49,-74.01 256,-27.5 252.58,-24.08 248.51,-21.31 244.15,-19.06"/>
<polygon fill="#63b8ff" stroke="#63b8ff" points="311.42,-194.96 315.37,-204.79 318.42,-194.64 311.42,-194.96"/>
</a>
</g>
</g>
<!-- Node19&#45;&gt;Node18 -->
<g id="edge10_Node000019_Node000018" class="edge">
<title>Node19&#45;&gt;Node18</title>
<g id="a_edge10_Node000019_Node000018"><a xlink:title=" ">
<path fill="none" stroke="#63b8ff" d="M155.87,-125.99C140.03,-128.08 121.78,-130.49 105.12,-132.69"/>
<polygon fill="#63b8ff" stroke="#63b8ff" points="156.44,-129.45 165.9,-124.67 155.53,-122.51 156.44,-129.45"/>
</a>
</g>
</g>
<!-- Node24&#45;&gt;Node12 -->
<g id="edge12_Node000024_Node000012" class="edge">
<title>Node24&#45;&gt;Node12</title>
<g id="a_edge12_Node000024_Node000012"><a xlink:title=" ">
<path fill="none" stroke="#63b8ff" d="M146.64,-97.65C144.67,-98.83 142.78,-100.11 141,-101.5 139.47,-102.69 78.79,-201.33 59.4,-232.9"/>
<polygon fill="#63b8ff" stroke="#63b8ff" points="148.34,-100.71 155.67,-93.05 145.17,-94.47 148.34,-100.71"/>
</a>
</g>
</g>
</g>
</svg>
