<?xml version="1.0" encoding="UTF-8" standalone="no"?>
<!DOCTYPE svg PUBLIC "-//W3C//DTD SVG 1.1//EN"
 "http://www.w3.org/Graphics/SVG/1.1/DTD/svg11.dtd">
<!-- Generated by graphviz version 2.43.0 (0)
 -->
<!-- Title: cullEphMap Pages: 1 -->
<svg width="191pt" height="27pt"
 viewBox="0.00 0.00 191.00 27.00" xmlns="http://www.w3.org/2000/svg" xmlns:xlink="http://www.w3.org/1999/xlink">
<g id="graph0" class="graph" transform="scale(1 1) rotate(0) translate(4 23)">
<title>cullEphMap</title>
<!-- Node1 -->
<g id="Node000001" class="node">
<title>Node1</title>
<g id="a_Node000001"><a xlink:href="ephemeris_8cpp.html#a54c09f3ed2a61e7f23caae21c73a0e8e" target="_top" xlink:title=" ">
<path fill="#fff0f0" stroke="red" stroke-width="2" d="M176.67,-19C176.67,-19 116.33,-19 116.33,-19 113.17,-19 110,-15.83 110,-12.67 110,-12.67 110,-6.33 110,-6.33 110,-3.17 113.17,0 116.33,0 116.33,0 176.67,0 176.67,0 179.83,0 183,-3.17 183,-6.33 183,-6.33 183,-12.67 183,-12.67 183,-15.83 179.83,-19 176.67,-19"/>
<text text-anchor="middle" x="146.5" y="-7" font-family="Helvetica,sans-Serif" font-size="10.00">cullEphMap</text>
</a>
</g>
</g>
<!-- Node2 -->
<g id="Node000002" class="node">
<title>Node2</title>
<g id="a_Node000002"><a xlink:href="ephemeris_8cpp.html#aec22060c47a6a68b1f56a0d513a8df8a" target="_top" xlink:title=" ">
<path fill="#fff0f0" stroke="red" d="M67.67,-19C67.67,-19 6.33,-19 6.33,-19 3.17,-19 0,-15.83 0,-12.67 0,-12.67 0,-6.33 0,-6.33 0,-3.17 3.17,0 6.33,0 6.33,0 67.67,0 67.67,0 70.83,0 74,-3.17 74,-6.33 74,-6.33 74,-12.67 74,-12.67 74,-15.83 70.83,-19 67.67,-19"/>
<text text-anchor="middle" x="37" y="-7" font-family="Helvetica,sans-Serif" font-size="10.00">cullOldEphs</text>
</a>
</g>
</g>
<!-- Node1&#45;&gt;Node2 -->
<g id="edge1_Node000001_Node000002" class="edge">
<title>Node1&#45;&gt;Node2</title>
<g id="a_edge1_Node000001_Node000002"><a xlink:title=" ">
<path fill="none" stroke="#63b8ff" d="M99.5,-9.5C90.97,-9.5 82.18,-9.5 74.01,-9.5"/>
<polygon fill="#63b8ff" stroke="#63b8ff" points="99.7,-13 109.7,-9.5 99.7,-6 99.7,-13"/>
</a>
</g>
</g>
</g>
</svg>
