<?xml version="1.0" encoding="UTF-8" standalone="no"?>
<!DOCTYPE svg PUBLIC "-//W3C//DTD SVG 1.1//EN"
 "http://www.w3.org/Graphics/SVG/1.1/DTD/svg11.dtd">
<!-- Generated by graphviz version 2.43.0 (0)
 -->
<!-- Title: adjustRelativity Pages: 1 -->
<svg width="205pt" height="27pt"
 viewBox="0.00 0.00 205.00 27.00" xmlns="http://www.w3.org/2000/svg" xmlns:xlink="http://www.w3.org/1999/xlink">
<g id="graph0" class="graph" transform="scale(1 1) rotate(0) translate(4 23)">
<title>adjustRelativity</title>
<!-- Node1 -->
<g id="Node000001" class="node">
<title>Node1</title>
<g id="a_Node000001"><a xlink:href="ephemeris_8cpp.html#a9f782f472dfa7b3977fa16aebccadf4f" target="_top" xlink:title=" ">
<path fill="#fff0f0" stroke="red" stroke-width="2" d="M87.67,-19C87.67,-19 6.33,-19 6.33,-19 3.17,-19 0,-15.83 0,-12.67 0,-12.67 0,-6.33 0,-6.33 0,-3.17 3.17,0 6.33,0 6.33,0 87.67,0 87.67,0 90.83,0 94,-3.17 94,-6.33 94,-6.33 94,-12.67 94,-12.67 94,-15.83 90.83,-19 87.67,-19"/>
<text text-anchor="middle" x="47" y="-7" font-family="Helvetica,sans-Serif" font-size="10.00">adjustRelativity</text>
</a>
</g>
</g>
<!-- Node2 -->
<g id="Node000002" class="node">
<title>Node2</title>
<g id="a_Node000002"><a xlink:href="ephemeris_8cpp.html#a825cb3c61ee628e2b78ed0b360e6a617" target="_top" xlink:title=" ">
<path fill="#fff0f0" stroke="red" d="M190.67,-19C190.67,-19 136.33,-19 136.33,-19 133.17,-19 130,-15.83 130,-12.67 130,-12.67 130,-6.33 130,-6.33 130,-3.17 133.17,0 136.33,0 136.33,0 190.67,0 190.67,0 193.83,0 197,-3.17 197,-6.33 197,-6.33 197,-12.67 197,-12.67 197,-15.83 193.83,-19 190.67,-19"/>
<text text-anchor="middle" x="163.5" y="-7" font-family="Helvetica,sans-Serif" font-size="10.00">relativity1</text>
</a>
</g>
</g>
<!-- Node1&#45;&gt;Node2 -->
<g id="edge1_Node000001_Node000002" class="edge">
<title>Node1&#45;&gt;Node2</title>
<g id="a_edge1_Node000001_Node000002"><a xlink:title=" ">
<path fill="none" stroke="#63b8ff" d="M94.24,-9.5C102.62,-9.5 111.33,-9.5 119.6,-9.5"/>
<polygon fill="#63b8ff" stroke="#63b8ff" points="119.8,-13 129.8,-9.5 119.8,-6 119.8,-13"/>
</a>
</g>
</g>
</g>
</svg>
