<?xml version="1.0" encoding="UTF-8" standalone="no"?>
<!DOCTYPE svg PUBLIC "-//W3C//DTD SVG 1.1//EN"
 "http://www.w3.org/Graphics/SVG/1.1/DTD/svg11.dtd">
<!-- Generated by graphviz version 2.43.0 (0)
 -->
<!-- Title: satClkPrecise Pages: 1 -->
<svg width="173pt" height="27pt"
 viewBox="0.00 0.00 173.00 27.00" xmlns="http://www.w3.org/2000/svg" xmlns:xlink="http://www.w3.org/1999/xlink">
<g id="graph0" class="graph" transform="scale(1 1) rotate(0) translate(4 23)">
<title>satClkPrecise</title>
<!-- Node1 -->
<g id="Node000001" class="node">
<title>Node1</title>
<g id="a_Node000001"><a xlink:href="ephPrecise_8cpp.html#a99b848b35a95f1521e4bfe1f222f8505" target="_top" xlink:title=" ">
<path fill="#fff0f0" stroke="red" stroke-width="2" d="M158.67,-19C158.67,-19 88.33,-19 88.33,-19 85.17,-19 82,-15.83 82,-12.67 82,-12.67 82,-6.33 82,-6.33 82,-3.17 85.17,0 88.33,0 88.33,0 158.67,0 158.67,0 161.83,0 165,-3.17 165,-6.33 165,-6.33 165,-12.67 165,-12.67 165,-15.83 161.83,-19 158.67,-19"/>
<text text-anchor="middle" x="123.5" y="-7" font-family="Helvetica,sans-Serif" font-size="10.00">satClkPrecise</text>
</a>
</g>
</g>
<!-- Node2 -->
<g id="Node000002" class="node">
<title>Node2</title>
<g id="a_Node000002"><a xlink:href="ephemeris_8cpp.html#a7696664ba7fdd776d9ba929b11325e05" target="_top" xlink:title=" ">
<path fill="#fff0f0" stroke="red" d="M39.67,-19C39.67,-19 6.33,-19 6.33,-19 3.17,-19 0,-15.83 0,-12.67 0,-12.67 0,-6.33 0,-6.33 0,-3.17 3.17,0 6.33,0 6.33,0 39.67,0 39.67,0 42.83,0 46,-3.17 46,-6.33 46,-6.33 46,-12.67 46,-12.67 46,-15.83 42.83,-19 39.67,-19"/>
<text text-anchor="middle" x="23" y="-7" font-family="Helvetica,sans-Serif" font-size="10.00">satclk</text>
</a>
</g>
</g>
<!-- Node1&#45;&gt;Node2 -->
<g id="edge1_Node000001_Node000002" class="edge">
<title>Node1&#45;&gt;Node2</title>
<g id="a_edge1_Node000001_Node000002"><a xlink:title=" ">
<path fill="none" stroke="#63b8ff" d="M71.77,-9.5C62.79,-9.5 53.88,-9.5 46.23,-9.5"/>
<polygon fill="#63b8ff" stroke="#63b8ff" points="71.87,-13 81.87,-9.5 71.87,-6 71.87,-13"/>
</a>
</g>
</g>
</g>
</svg>
