<?xml version="1.0" encoding="UTF-8" standalone="no"?>
<!DOCTYPE svg PUBLIC "-//W3C//DTD SVG 1.1//EN"
 "http://www.w3.org/Graphics/SVG/1.1/DTD/svg11.dtd">
<!-- Generated by graphviz version 2.43.0 (0)
 -->
<!-- Title: readdcb Pages: 1 -->
<svg width="195pt" height="138pt"
 viewBox="0.00 0.00 195.00 138.00" xmlns="http://www.w3.org/2000/svg" xmlns:xlink="http://www.w3.org/1999/xlink">
<g id="graph0" class="graph" transform="scale(1 1) rotate(0) translate(4 134)">
<title>readdcb</title>
<!-- Node1 -->
<g id="Node000001" class="node">
<title>Node1</title>
<g id="a_Node000001"><a xlink:href="ephPrecise_8cpp.html#af673ac04c3dea7304383eb4ef76318ba" target="_top" xlink:title="read dcb parameters file">
<path fill="#fff0f0" stroke="red" stroke-width="2" d="M49.67,-93C49.67,-93 6.33,-93 6.33,-93 3.17,-93 0,-89.83 0,-86.67 0,-86.67 0,-80.33 0,-80.33 0,-77.17 3.17,-74 6.33,-74 6.33,-74 49.67,-74 49.67,-74 52.83,-74 56,-77.17 56,-80.33 56,-80.33 56,-86.67 56,-86.67 56,-89.83 52.83,-93 49.67,-93"/>
<text text-anchor="middle" x="28" y="-81" font-family="Helvetica,sans-Serif" font-size="10.00">readdcb</text>
</a>
</g>
</g>
<!-- Node2 -->
<g id="Node000002" class="node">
<title>Node2</title>
<g id="a_Node000002"><a xlink:href="gTime_8cpp.html#aca21817ee2127e89013ae4252c5f9abe" target="_top" xlink:title=" ">
<path fill="#fff0f0" stroke="red" d="M161.67,-130C161.67,-130 117.33,-130 117.33,-130 114.17,-130 111,-126.83 111,-123.67 111,-123.67 111,-117.33 111,-117.33 111,-114.17 114.17,-111 117.33,-111 117.33,-111 161.67,-111 161.67,-111 164.83,-111 168,-114.17 168,-117.33 168,-117.33 168,-123.67 168,-123.67 168,-126.83 164.83,-130 161.67,-130"/>
<text text-anchor="middle" x="139.5" y="-118" font-family="Helvetica,sans-Serif" font-size="10.00">str2num</text>
</a>
</g>
</g>
<!-- Node1&#45;&gt;Node2 -->
<g id="edge1_Node000001_Node000002" class="edge">
<title>Node1&#45;&gt;Node2</title>
<g id="a_edge1_Node000001_Node000002"><a xlink:title=" ">
<path fill="none" stroke="#63b8ff" d="M56.07,-86.73C74.07,-91.63 97.49,-99.62 114.76,-106.8"/>
<polygon fill="#63b8ff" stroke="#63b8ff" points="113.57,-110.1 124.13,-110.91 116.38,-103.69 113.57,-110.1"/>
</a>
</g>
</g>
<!-- Node1&#45;&gt;Node2 -->
<g id="edge2_Node000001_Node000002" class="edge">
<title>Node1&#45;&gt;Node2</title>
<g id="a_edge2_Node000001_Node000002"><a xlink:title=" ">
<path fill="none" stroke="#63b8ff" d="M43.32,-93.07C57.9,-99.86 81.12,-108.28 100.98,-114.26"/>
<polygon fill="#63b8ff" stroke="#63b8ff" points="100.12,-117.66 110.7,-117.07 102.06,-110.93 100.12,-117.66"/>
</a>
</g>
</g>
<!-- Node3 -->
<g id="Node000003" class="node">
<title>Node3</title>
<g id="a_Node000003"><a xlink:href="structSatSys.html#aec6d07b90d1e8172b8b6a6966abef4fd" target="_top" xlink:title="Returns a std::string of this satellite&#39;s id.">
<path fill="#fff0f0" stroke="red" d="M165.67,-93C165.67,-93 113.33,-93 113.33,-93 110.17,-93 107,-89.83 107,-86.67 107,-86.67 107,-80.33 107,-80.33 107,-77.17 110.17,-74 113.33,-74 113.33,-74 165.67,-74 165.67,-74 168.83,-74 172,-77.17 172,-80.33 172,-80.33 172,-86.67 172,-86.67 172,-89.83 168.83,-93 165.67,-93"/>
<text text-anchor="middle" x="139.5" y="-81" font-family="Helvetica,sans-Serif" font-size="10.00">SatSys::id</text>
</a>
</g>
</g>
<!-- Node1&#45;&gt;Node3 -->
<g id="edge3_Node000001_Node000003" class="edge">
<title>Node1&#45;&gt;Node3</title>
<g id="a_edge3_Node000001_Node000003"><a xlink:title=" ">
<path fill="none" stroke="#63b8ff" d="M56.07,-77.58C68.28,-76.78 82.99,-76.56 96.58,-76.92"/>
<polygon fill="#63b8ff" stroke="#63b8ff" points="96.57,-80.42 106.69,-77.31 96.83,-73.42 96.57,-80.42"/>
</a>
</g>
</g>
<!-- Node1&#45;&gt;Node3 -->
<g id="edge5_Node000001_Node000003" class="edge">
<title>Node1&#45;&gt;Node3</title>
<g id="a_edge5_Node000001_Node000003"><a xlink:title=" ">
<path fill="none" stroke="#63b8ff" d="M56.07,-89.42C68.28,-90.22 82.99,-90.44 96.58,-90.08"/>
<polygon fill="#63b8ff" stroke="#63b8ff" points="96.83,-93.58 106.69,-89.69 96.57,-86.58 96.83,-93.58"/>
</a>
</g>
</g>
<!-- Node6 -->
<g id="Node000006" class="node">
<title>Node6</title>
<g id="a_Node000006"><a xlink:href="biases_8cpp.html#ad7402956db3836fc8dbe7b8b51d04c69" target="_top" xlink:title="Push forward and reverse bias entry into biasMaps.">
<path fill="#fff0f0" stroke="red" d="M176.17,-56C176.17,-56 102.83,-56 102.83,-56 99.67,-56 96.5,-52.83 96.5,-49.67 96.5,-49.67 96.5,-43.33 96.5,-43.33 96.5,-40.17 99.67,-37 102.83,-37 102.83,-37 176.17,-37 176.17,-37 179.33,-37 182.5,-40.17 182.5,-43.33 182.5,-43.33 182.5,-49.67 182.5,-49.67 182.5,-52.83 179.33,-56 176.17,-56"/>
<text text-anchor="middle" x="139.5" y="-44" font-family="Helvetica,sans-Serif" font-size="10.00">pushBiasEntry</text>
</a>
</g>
</g>
<!-- Node1&#45;&gt;Node6 -->
<g id="edge4_Node000001_Node000006" class="edge">
<title>Node1&#45;&gt;Node6</title>
<g id="a_edge4_Node000001_Node000006"><a xlink:title=" ">
<path fill="none" stroke="#63b8ff" d="M43.32,-73.93C54.45,-68.74 70.63,-62.6 86.51,-57.33"/>
<polygon fill="#63b8ff" stroke="#63b8ff" points="87.86,-60.57 96.3,-54.17 85.71,-53.91 87.86,-60.57"/>
</a>
</g>
</g>
<!-- Node1&#45;&gt;Node6 -->
<g id="edge6_Node000001_Node000006" class="edge">
<title>Node1&#45;&gt;Node6</title>
<g id="a_edge6_Node000001_Node000006"><a xlink:title=" ">
<path fill="none" stroke="#63b8ff" d="M56.07,-80.27C74.07,-75.37 97.49,-67.38 114.76,-60.2"/>
<polygon fill="#63b8ff" stroke="#63b8ff" points="116.38,-63.31 124.13,-56.09 113.57,-56.9 116.38,-63.31"/>
</a>
</g>
</g>
<!-- Node5 -->
<g id="Node000005" class="node">
<title>Node5</title>
<g id="a_Node000005"><a xlink:href="structSatSys.html#abfd7e43b0d57c2718d05ca595ee360dd" target="_top" xlink:title="Returns the character used as a prefix for this system.">
<path fill="#fff0f0" stroke="red" d="M180.67,-19C180.67,-19 98.33,-19 98.33,-19 95.17,-19 92,-15.83 92,-12.67 92,-12.67 92,-6.33 92,-6.33 92,-3.17 95.17,0 98.33,0 98.33,0 180.67,0 180.67,0 183.83,0 187,-3.17 187,-6.33 187,-6.33 187,-12.67 187,-12.67 187,-15.83 183.83,-19 180.67,-19"/>
<text text-anchor="middle" x="139.5" y="-7" font-family="Helvetica,sans-Serif" font-size="10.00">SatSys::sysChar</text>
</a>
</g>
</g>
<!-- Node1&#45;&gt;Node5 -->
<g id="edge7_Node000001_Node000005" class="edge">
<title>Node1&#45;&gt;Node5</title>
<g id="a_edge7_Node000001_Node000005"><a xlink:title=" ">
<path fill="none" stroke="#63b8ff" d="M38.03,-73.86C49.61,-61.93 70.75,-41.61 92,-28.5 94.99,-26.66 98.18,-24.93 101.44,-23.32"/>
<polygon fill="#63b8ff" stroke="#63b8ff" points="103.06,-26.43 110.72,-19.1 100.16,-20.05 103.06,-26.43"/>
</a>
</g>
</g>
</g>
</svg>
