<?xml version="1.0" encoding="UTF-8" standalone="no"?>
<!DOCTYPE svg PUBLIC "-//W3C//DTD SVG 1.1//EN"
 "http://www.w3.org/Graphics/SVG/1.1/DTD/svg11.dtd">
<!-- Generated by graphviz version 2.43.0 (0)
 -->
<!-- Title: pephclk Pages: 1 -->
<svg width="173pt" height="27pt"
 viewBox="0.00 0.00 173.00 27.00" xmlns="http://www.w3.org/2000/svg" xmlns:xlink="http://www.w3.org/1999/xlink">
<g id="graph0" class="graph" transform="scale(1 1) rotate(0) translate(4 23)">
<title>pephclk</title>
<!-- Node1 -->
<g id="Node000001" class="node">
<title>Node1</title>
<g id="a_Node000001"><a xlink:href="ephPrecise_8cpp.html#a7152f02ef77017fa75612ac13eeda408" target="_top" xlink:title="clock by precise clock">
<path fill="#fff0f0" stroke="red" stroke-width="2" d="M48.67,-19C48.67,-19 6.33,-19 6.33,-19 3.17,-19 0,-15.83 0,-12.67 0,-12.67 0,-6.33 0,-6.33 0,-3.17 3.17,0 6.33,0 6.33,0 48.67,0 48.67,0 51.83,0 55,-3.17 55,-6.33 55,-6.33 55,-12.67 55,-12.67 55,-15.83 51.83,-19 48.67,-19"/>
<text text-anchor="middle" x="27.5" y="-7" font-family="Helvetica,sans-Serif" font-size="10.00">pephclk</text>
</a>
</g>
</g>
<!-- Node2 -->
<g id="Node000002" class="node">
<title>Node2</title>
<g id="a_Node000002"><a xlink:href="ephPrecise_8cpp.html#aeafc4280f42e4ecc5c204970f33bd07b" target="_top" xlink:title=" ">
<path fill="#fff0f0" stroke="red" d="M158.67,-19C158.67,-19 97.33,-19 97.33,-19 94.17,-19 91,-15.83 91,-12.67 91,-12.67 91,-6.33 91,-6.33 91,-3.17 94.17,0 97.33,0 97.33,0 158.67,0 158.67,0 161.83,0 165,-3.17 165,-6.33 165,-6.33 165,-12.67 165,-12.67 165,-15.83 161.83,-19 158.67,-19"/>
<text text-anchor="middle" x="128" y="-7" font-family="Helvetica,sans-Serif" font-size="10.00">pclkMapClk</text>
</a>
</g>
</g>
<!-- Node1&#45;&gt;Node2 -->
<g id="edge1_Node000001_Node000002" class="edge">
<title>Node1&#45;&gt;Node2</title>
<g id="a_edge1_Node000001_Node000002"><a xlink:title=" ">
<path fill="none" stroke="#63b8ff" d="M55.16,-3.43C63.02,-2.92 71.86,-2.7 80.59,-2.76"/>
<polygon fill="#63b8ff" stroke="#63b8ff" points="80.64,-6.26 90.71,-2.96 80.78,0.74 80.64,-6.26"/>
</a>
</g>
</g>
<!-- Node1&#45;&gt;Node2 -->
<g id="edge2_Node000001_Node000002" class="edge">
<title>Node1&#45;&gt;Node2</title>
<g id="a_edge2_Node000001_Node000002"><a xlink:title=" ">
<path fill="none" stroke="#63b8ff" d="M55.16,-15.57C63.02,-16.08 71.86,-16.3 80.59,-16.24"/>
<polygon fill="#63b8ff" stroke="#63b8ff" points="80.78,-19.74 90.71,-16.04 80.64,-12.74 80.78,-19.74"/>
</a>
</g>
</g>
</g>
</svg>
