<?xml version="1.0" encoding="UTF-8" standalone="no"?>
<!DOCTYPE svg PUBLIC "-//W3C//DTD SVG 1.1//EN"
 "http://www.w3.org/Graphics/SVG/1.1/DTD/svg11.dtd">
<!-- Generated by graphviz version 2.43.0 (0)
 -->
<!-- Title: satPosSSR Pages: 1 -->
<svg width="344pt" height="325pt"
 viewBox="0.00 0.00 344.00 325.00" xmlns="http://www.w3.org/2000/svg" xmlns:xlink="http://www.w3.org/1999/xlink">
<g id="graph0" class="graph" transform="scale(1 1) rotate(0) translate(4 321)">
<title>satPosSSR</title>
<!-- Node1 -->
<g id="Node000001" class="node">
<title>Node1</title>
<g id="a_Node000001"><a xlink:href="ephSSR_8cpp.html#ab46bbc0b3a67c74f5ab3520bea51162d" target="_top" xlink:title="satellite position and clock with ssr correction">
<path fill="#fff0f0" stroke="red" stroke-width="2" d="M61.67,-177C61.67,-177 6.33,-177 6.33,-177 3.17,-177 0,-173.83 0,-170.67 0,-170.67 0,-164.33 0,-164.33 0,-161.17 3.17,-158 6.33,-158 6.33,-158 61.67,-158 61.67,-158 64.83,-158 68,-161.17 68,-164.33 68,-164.33 68,-170.67 68,-170.67 68,-173.83 64.83,-177 61.67,-177"/>
<text text-anchor="middle" x="34" y="-165" font-family="Helvetica,sans-Serif" font-size="10.00">satPosSSR</text>
</a>
</g>
</g>
<!-- Node2 -->
<g id="Node000002" class="node">
<title>Node2</title>
<g id="a_Node000002"><a xlink:href="ephSSR_8cpp.html#aca05186d4697c30f82bc92eb91caa178" target="_top" xlink:title=" ">
<path fill="#fff0f0" stroke="red" d="M183.67,-317C183.67,-317 122.33,-317 122.33,-317 119.17,-317 116,-313.83 116,-310.67 116,-310.67 116,-304.33 116,-304.33 116,-301.17 119.17,-298 122.33,-298 122.33,-298 183.67,-298 183.67,-298 186.83,-298 190,-301.17 190,-304.33 190,-304.33 190,-310.67 190,-310.67 190,-313.83 186.83,-317 183.67,-317"/>
<text text-anchor="middle" x="153" y="-305" font-family="Helvetica,sans-Serif" font-size="10.00">ssrPosDelta</text>
</a>
</g>
</g>
<!-- Node1&#45;&gt;Node2 -->
<g id="edge1_Node000001_Node000002" class="edge">
<title>Node1&#45;&gt;Node2</title>
<g id="a_edge1_Node000001_Node000002"><a xlink:title=" ">
<path fill="none" stroke="#63b8ff" d="M37.93,-177.23C45.28,-200.06 66.64,-257.56 104,-289.5 105.35,-290.65 106.78,-291.74 108.27,-292.75"/>
<polygon fill="#63b8ff" stroke="#63b8ff" points="106.89,-295.99 117.32,-297.87 110.34,-289.9 106.89,-295.99"/>
</a>
</g>
</g>
<!-- Node3 -->
<g id="Node000003" class="node">
<title>Node3</title>
<g id="a_Node000003"><a xlink:href="structGTime.html#a98fdbaaec5a132a7e694f28b4f1907cb" target="_top" xlink:title=" ">
<path fill="#fff0f0" stroke="red" d="M329.67,-187C329.67,-187 244.33,-187 244.33,-187 241.17,-187 238,-183.83 238,-180.67 238,-180.67 238,-174.33 238,-174.33 238,-171.17 241.17,-168 244.33,-168 244.33,-168 329.67,-168 329.67,-168 332.83,-168 336,-171.17 336,-174.33 336,-174.33 336,-180.67 336,-180.67 336,-183.83 332.83,-187 329.67,-187"/>
<text text-anchor="middle" x="287" y="-175" font-family="Helvetica,sans-Serif" font-size="10.00">GTime::to_string</text>
</a>
</g>
</g>
<!-- Node1&#45;&gt;Node3 -->
<g id="edge12_Node000001_Node000003" class="edge">
<title>Node1&#45;&gt;Node3</title>
<g id="a_edge12_Node000001_Node000003"><a xlink:title=" ">
<path fill="none" stroke="#63b8ff" d="M68.07,-164.07C108.59,-163.43 177.94,-165.84 227.53,-169.36"/>
<polygon fill="#63b8ff" stroke="#63b8ff" points="227.56,-172.87 237.8,-170.13 228.08,-165.89 227.56,-172.87"/>
</a>
</g>
</g>
<!-- Node1&#45;&gt;Node3 -->
<g id="edge13_Node000001_Node000003" class="edge">
<title>Node1&#45;&gt;Node3</title>
<g id="a_edge13_Node000001_Node000003"><a xlink:title=" ">
<path fill="none" stroke="#63b8ff" d="M68.07,-173.56C108.59,-177.43 177.94,-180.55 227.53,-180.98"/>
<polygon fill="#63b8ff" stroke="#63b8ff" points="227.78,-184.48 237.8,-181.03 227.81,-177.48 227.78,-184.48"/>
</a>
</g>
</g>
<!-- Node4 -->
<g id="Node000004" class="node">
<title>Node4</title>
<g id="a_Node000004"><a xlink:href="structSatSys.html#aec6d07b90d1e8172b8b6a6966abef4fd" target="_top" xlink:title="Returns a std::string of this satellite&#39;s id.">
<path fill="#fff0f0" stroke="red" d="M313.17,-233C313.17,-233 260.83,-233 260.83,-233 257.67,-233 254.5,-229.83 254.5,-226.67 254.5,-226.67 254.5,-220.33 254.5,-220.33 254.5,-217.17 257.67,-214 260.83,-214 260.83,-214 313.17,-214 313.17,-214 316.33,-214 319.5,-217.17 319.5,-220.33 319.5,-220.33 319.5,-226.67 319.5,-226.67 319.5,-229.83 316.33,-233 313.17,-233"/>
<text text-anchor="middle" x="287" y="-221" font-family="Helvetica,sans-Serif" font-size="10.00">SatSys::id</text>
</a>
</g>
</g>
<!-- Node1&#45;&gt;Node4 -->
<g id="edge10_Node000001_Node000004" class="edge">
<title>Node1&#45;&gt;Node4</title>
<g id="a_edge10_Node000001_Node000004"><a xlink:title=" ">
<path fill="none" stroke="#63b8ff" d="M68.2,-173.63C79.4,-177.65 92.08,-182.26 104,-185.5 151.27,-198.35 207.1,-206.21 244.34,-212.37"/>
<polygon fill="#63b8ff" stroke="#63b8ff" points="243.88,-215.84 254.33,-214.06 245.05,-208.94 243.88,-215.84"/>
</a>
</g>
</g>
<!-- Node1&#45;&gt;Node4 -->
<g id="edge11_Node000001_Node000004" class="edge">
<title>Node1&#45;&gt;Node4</title>
<g id="a_edge11_Node000001_Node000004"><a xlink:title=" ">
<path fill="none" stroke="#63b8ff" d="M43.3,-177.19C56.06,-186.3 81.41,-197.36 104,-203.5 151.27,-216.35 207.1,-224.21 244.34,-226.52"/>
<polygon fill="#63b8ff" stroke="#63b8ff" points="244.16,-230.01 254.33,-227.02 244.52,-223.02 244.16,-230.01"/>
</a>
</g>
</g>
<!-- Node7 -->
<g id="Node000007" class="node">
<title>Node7</title>
<g id="a_Node000007"><a xlink:href="ephSSR_8cpp.html#aa7c23253963fe9c81c4019561e594559" target="_top" xlink:title=" ">
<path fill="#fff0f0" stroke="red" d="M183.17,-280C183.17,-280 122.83,-280 122.83,-280 119.67,-280 116.5,-276.83 116.5,-273.67 116.5,-273.67 116.5,-267.33 116.5,-267.33 116.5,-264.17 119.67,-261 122.83,-261 122.83,-261 183.17,-261 183.17,-261 186.33,-261 189.5,-264.17 189.5,-267.33 189.5,-267.33 189.5,-273.67 189.5,-273.67 189.5,-276.83 186.33,-280 183.17,-280"/>
<text text-anchor="middle" x="153" y="-268" font-family="Helvetica,sans-Serif" font-size="10.00">ssrClkDelta</text>
</a>
</g>
</g>
<!-- Node1&#45;&gt;Node7 -->
<g id="edge5_Node000001_Node000007" class="edge">
<title>Node1&#45;&gt;Node7</title>
<g id="a_edge5_Node000001_Node000007"><a xlink:title=" ">
<path fill="none" stroke="#63b8ff" d="M41.46,-177.08C52.66,-193.12 77.06,-225.67 104,-246.5 108.72,-250.15 114.09,-253.48 119.48,-256.41"/>
<polygon fill="#63b8ff" stroke="#63b8ff" points="117.96,-259.57 128.46,-260.97 121.13,-253.33 117.96,-259.57"/>
</a>
</g>
</g>
<!-- Node8 -->
<g id="Node000008" class="node">
<title>Node8</title>
<g id="a_Node000008"><a xlink:href="ephBroadcast_8cpp.html#a7a12481a61ef763e3db3bac720587930" target="_top" xlink:title=" ">
<path fill="#fff0f0" stroke="red" d="M195.67,-130C195.67,-130 110.33,-130 110.33,-130 107.17,-130 104,-126.83 104,-123.67 104,-123.67 104,-117.33 104,-117.33 104,-114.17 107.17,-111 110.33,-111 110.33,-111 195.67,-111 195.67,-111 198.83,-111 202,-114.17 202,-117.33 202,-117.33 202,-123.67 202,-123.67 202,-126.83 198.83,-130 195.67,-130"/>
<text text-anchor="middle" x="153" y="-118" font-family="Helvetica,sans-Serif" font-size="10.00">satPosBroadcast</text>
</a>
</g>
</g>
<!-- Node1&#45;&gt;Node8 -->
<g id="edge14_Node000001_Node000008" class="edge">
<title>Node1&#45;&gt;Node8</title>
<g id="a_edge14_Node000001_Node000008"><a xlink:title=" ">
<path fill="none" stroke="#63b8ff" d="M58.68,-157.99C75.85,-151.09 99.32,-141.66 118.42,-133.99"/>
<polygon fill="#63b8ff" stroke="#63b8ff" points="119.98,-137.13 127.96,-130.16 117.37,-130.64 119.98,-137.13"/>
</a>
</g>
</g>
<!-- Node12 -->
<g id="Node000012" class="node">
<title>Node12</title>
<g id="a_Node000012"><a xlink:href="ephBroadcast_8cpp.html#ab1c1a98259589f6e077e68b8c70091b9" target="_top" xlink:title=" ">
<path fill="#fff0f0" stroke="red" d="M194.67,-93C194.67,-93 111.33,-93 111.33,-93 108.17,-93 105,-89.83 105,-86.67 105,-86.67 105,-80.33 105,-80.33 105,-77.17 108.17,-74 111.33,-74 111.33,-74 194.67,-74 194.67,-74 197.83,-74 201,-77.17 201,-80.33 201,-80.33 201,-86.67 201,-86.67 201,-89.83 197.83,-93 194.67,-93"/>
<text text-anchor="middle" x="153" y="-81" font-family="Helvetica,sans-Serif" font-size="10.00">satClkBroadcast</text>
</a>
</g>
</g>
<!-- Node1&#45;&gt;Node12 -->
<g id="edge17_Node000001_Node000012" class="edge">
<title>Node1&#45;&gt;Node12</title>
<g id="a_edge17_Node000001_Node000012"><a xlink:title=" ">
<path fill="none" stroke="#63b8ff" d="M43.02,-157.92C55.04,-144.07 79,-118.39 104,-102.5 106.96,-100.62 110.15,-98.86 113.41,-97.25"/>
<polygon fill="#63b8ff" stroke="#63b8ff" points="115.03,-100.35 122.71,-93.05 112.15,-93.97 115.03,-100.35"/>
</a>
</g>
</g>
<!-- Node14 -->
<g id="Node000014" class="node">
<title>Node14</title>
<g id="a_Node000014"><a xlink:href="ephSSR_8cpp.html#a8bdff335e8cf4b98bed4b31c8c943b55" target="_top" xlink:title=" ">
<path fill="#fff0f0" stroke="red" d="M176.17,-56C176.17,-56 129.83,-56 129.83,-56 126.67,-56 123.5,-52.83 123.5,-49.67 123.5,-49.67 123.5,-43.33 123.5,-43.33 123.5,-40.17 126.67,-37 129.83,-37 129.83,-37 176.17,-37 176.17,-37 179.33,-37 182.5,-40.17 182.5,-43.33 182.5,-43.33 182.5,-49.67 182.5,-49.67 182.5,-52.83 179.33,-56 176.17,-56"/>
<text text-anchor="middle" x="153" y="-44" font-family="Helvetica,sans-Serif" font-size="10.00">rac2ecef</text>
</a>
</g>
</g>
<!-- Node1&#45;&gt;Node14 -->
<g id="edge20_Node000001_Node000014" class="edge">
<title>Node1&#45;&gt;Node14</title>
<g id="a_edge20_Node000001_Node000014"><a xlink:title=" ">
<path fill="none" stroke="#63b8ff" d="M39.07,-157.95C48,-138.06 71.16,-91.87 104,-65.5 107.1,-63.01 110.56,-60.82 114.17,-58.89"/>
<polygon fill="#63b8ff" stroke="#63b8ff" points="115.73,-62.02 123.31,-54.63 112.77,-55.68 115.73,-62.02"/>
</a>
</g>
</g>
<!-- Node16 -->
<g id="Node000016" class="node">
<title>Node16</title>
<g id="a_Node000016"><a xlink:href="ephSSR_8cpp.html#a16f6ba062b344678a58d194d9c4a8410" target="_top" xlink:title="variance by ura ssr (ref [4])">
<path fill="#fff0f0" stroke="red" d="M180.67,-19C180.67,-19 125.33,-19 125.33,-19 122.17,-19 119,-15.83 119,-12.67 119,-12.67 119,-6.33 119,-6.33 119,-3.17 122.17,0 125.33,0 125.33,0 180.67,0 180.67,0 183.83,0 187,-3.17 187,-6.33 187,-6.33 187,-12.67 187,-12.67 187,-15.83 183.83,-19 180.67,-19"/>
<text text-anchor="middle" x="153" y="-7" font-family="Helvetica,sans-Serif" font-size="10.00">var_urassr</text>
</a>
</g>
</g>
<!-- Node1&#45;&gt;Node16 -->
<g id="edge21_Node000001_Node000016" class="edge">
<title>Node1&#45;&gt;Node16</title>
<g id="a_edge21_Node000001_Node000016"><a xlink:title=" ">
<path fill="none" stroke="#63b8ff" d="M37.13,-157.85C43.16,-132.79 62.62,-64.97 104,-27.5 105.72,-25.95 107.58,-24.52 109.54,-23.22"/>
<polygon fill="#63b8ff" stroke="#63b8ff" points="111.54,-26.11 118.63,-18.24 108.17,-19.98 111.54,-26.11"/>
</a>
</g>
</g>
<!-- Node2&#45;&gt;Node3 -->
<g id="edge2_Node000002_Node000003" class="edge">
<title>Node2&#45;&gt;Node3</title>
<g id="a_edge2_Node000002_Node000003"><a xlink:title=" ">
<path fill="none" stroke="#63b8ff" d="M168.2,-297.86C178.7,-293.94 192.73,-289.35 202,-280.5 231.38,-252.45 211.1,-226.93 238,-196.5 238.86,-195.52 239.77,-194.57 240.71,-193.65"/>
<polygon fill="#63b8ff" stroke="#63b8ff" points="243.1,-196.21 248.5,-187.1 238.59,-190.85 243.1,-196.21"/>
</a>
</g>
</g>
<!-- Node2&#45;&gt;Node3 -->
<g id="edge3_Node000002_Node000003" class="edge">
<title>Node2&#45;&gt;Node3</title>
<g id="a_edge3_Node000002_Node000003"><a xlink:title=" ">
<path fill="none" stroke="#63b8ff" d="M190,-306.68C194.38,-304.54 198.52,-301.82 202,-298.5 231.38,-270.45 211.1,-244.93 238,-214.5 246.23,-205.19 258.33,-198.16 268.33,-192.32"/>
<polygon fill="#63b8ff" stroke="#63b8ff" points="270.3,-195.22 277.07,-187.06 266.69,-189.22 270.3,-195.22"/>
</a>
</g>
</g>
<!-- Node2&#45;&gt;Node4 -->
<g id="edge4_Node000002_Node000004" class="edge">
<title>Node2&#45;&gt;Node4</title>
<g id="a_edge4_Node000002_Node000004"><a xlink:title=" ">
<path fill="none" stroke="#63b8ff" d="M183.84,-297.94C190,-295.52 196.34,-292.69 202,-289.5 226.78,-275.56 252,-254.65 268.25,-240.12"/>
<polygon fill="#63b8ff" stroke="#63b8ff" points="270.84,-242.49 275.88,-233.17 266.13,-237.32 270.84,-242.49"/>
</a>
</g>
</g>
<!-- Node7&#45;&gt;Node3 -->
<g id="edge7_Node000007_Node000003" class="edge">
<title>Node7&#45;&gt;Node3</title>
<g id="a_edge7_Node000007_Node000003"><a xlink:title=" ">
<path fill="none" stroke="#63b8ff" d="M159.91,-260.78C173.35,-245.19 207.42,-217.12 238,-196.5 240.1,-195.08 242.27,-193.66 244.48,-192.27"/>
<polygon fill="#63b8ff" stroke="#63b8ff" points="246.38,-195.21 253.11,-187.03 242.75,-189.22 246.38,-195.21"/>
</a>
</g>
</g>
<!-- Node7&#45;&gt;Node3 -->
<g id="edge9_Node000007_Node000003" class="edge">
<title>Node7&#45;&gt;Node3</title>
<g id="a_edge9_Node000007_Node000003"><a xlink:title=" ">
<path fill="none" stroke="#63b8ff" d="M174.16,-260.96C190.83,-249.1 215.37,-229.76 238,-214.5 248.79,-207.22 261.54,-199.84 271.18,-193.17"/>
<polygon fill="#63b8ff" stroke="#63b8ff" points="273.45,-195.84 279.31,-187.01 269.23,-190.26 273.45,-195.84"/>
</a>
</g>
</g>
<!-- Node7&#45;&gt;Node4 -->
<g id="edge6_Node000007_Node000004" class="edge">
<title>Node7&#45;&gt;Node4</title>
<g id="a_edge6_Node000007_Node000004"><a xlink:title=" ">
<path fill="none" stroke="#63b8ff" d="M168.38,-260.98C186.57,-252.26 218.67,-240.19 244.74,-231.88"/>
<polygon fill="#63b8ff" stroke="#63b8ff" points="245.88,-235.19 254.4,-228.89 243.81,-228.51 245.88,-235.19"/>
</a>
</g>
</g>
<!-- Node7&#45;&gt;Node4 -->
<g id="edge8_Node000007_Node000004" class="edge">
<title>Node7&#45;&gt;Node4</title>
<g id="a_edge8_Node000007_Node000004"><a xlink:title=" ">
<path fill="none" stroke="#63b8ff" d="M189.72,-263.86C212.82,-256.74 242.23,-246.01 262.43,-237.2"/>
<polygon fill="#63b8ff" stroke="#63b8ff" points="263.89,-240.39 271.54,-233.06 260.99,-234.02 263.89,-240.39"/>
</a>
</g>
</g>
<!-- Node8&#45;&gt;Node3 -->
<g id="edge16_Node000008_Node000003" class="edge">
<title>Node8&#45;&gt;Node3</title>
<g id="a_edge16_Node000008_Node000003"><a xlink:title=" ">
<path fill="none" stroke="#63b8ff" d="M176.09,-130.04C197.51,-139.29 230.21,-153.41 254.38,-163.85"/>
<polygon fill="#63b8ff" stroke="#63b8ff" points="253.27,-167.18 263.83,-167.93 256.04,-160.75 253.27,-167.18"/>
</a>
</g>
</g>
<!-- Node8&#45;&gt;Node4 -->
<g id="edge15_Node000008_Node000004" class="edge">
<title>Node8&#45;&gt;Node4</title>
<g id="a_edge15_Node000008_Node000004"><a xlink:title=" ">
<path fill="none" stroke="#63b8ff" d="M163.23,-130.14C178.09,-145.35 208.63,-175.36 238,-196.5 244.19,-200.95 251.18,-205.25 257.87,-209.06"/>
<polygon fill="#63b8ff" stroke="#63b8ff" points="256.26,-212.17 266.71,-213.92 259.63,-206.04 256.26,-212.17"/>
</a>
</g>
</g>
<!-- Node12&#45;&gt;Node3 -->
<g id="edge19_Node000012_Node000003" class="edge">
<title>Node12&#45;&gt;Node3</title>
<g id="a_edge19_Node000012_Node000003"><a xlink:title=" ">
<path fill="none" stroke="#63b8ff" d="M182.97,-93.06C189.44,-95.71 196.13,-98.88 202,-102.5 228.31,-118.73 254.16,-143.53 270.09,-160.11"/>
<polygon fill="#63b8ff" stroke="#63b8ff" points="267.66,-162.64 277.07,-167.52 272.76,-157.84 267.66,-162.64"/>
</a>
</g>
</g>
<!-- Node12&#45;&gt;Node4 -->
<g id="edge18_Node000012_Node000004" class="edge">
<title>Node12&#45;&gt;Node4</title>
<g id="a_edge18_Node000012_Node000004"><a xlink:title=" ">
<path fill="none" stroke="#63b8ff" d="M188.68,-93.13C193.57,-95.6 198.22,-98.68 202,-102.5 233.46,-134.31 208.77,-162.63 238,-196.5 242.18,-201.34 247.46,-205.5 252.97,-209"/>
<polygon fill="#63b8ff" stroke="#63b8ff" points="251.28,-212.07 261.71,-213.96 254.74,-205.98 251.28,-212.07"/>
</a>
</g>
</g>
</g>
</svg>
