<?xml version="1.0" encoding="UTF-8" standalone="no"?>
<!DOCTYPE svg PUBLIC "-//W3C//DTD SVG 1.1//EN"
 "http://www.w3.org/Graphics/SVG/1.1/DTD/svg11.dtd">
<!-- Generated by graphviz version 2.43.0 (0)
 -->
<!-- Title: ssrPosDelta Pages: 1 -->
<svg width="186pt" height="27pt"
 viewBox="0.00 0.00 186.00 27.00" xmlns="http://www.w3.org/2000/svg" xmlns:xlink="http://www.w3.org/1999/xlink">
<g id="graph0" class="graph" transform="scale(1 1) rotate(0) translate(4 23)">
<title>ssrPosDelta</title>
<!-- Node1 -->
<g id="Node000001" class="node">
<title>Node1</title>
<g id="a_Node000001"><a xlink:href="ephSSR_8cpp.html#aca05186d4697c30f82bc92eb91caa178" target="_top" xlink:title=" ">
<path fill="#fff0f0" stroke="red" stroke-width="2" d="M171.67,-19C171.67,-19 110.33,-19 110.33,-19 107.17,-19 104,-15.83 104,-12.67 104,-12.67 104,-6.33 104,-6.33 104,-3.17 107.17,0 110.33,0 110.33,0 171.67,0 171.67,0 174.83,0 178,-3.17 178,-6.33 178,-6.33 178,-12.67 178,-12.67 178,-15.83 174.83,-19 171.67,-19"/>
<text text-anchor="middle" x="141" y="-7" font-family="Helvetica,sans-Serif" font-size="10.00">ssrPosDelta</text>
</a>
</g>
</g>
<!-- Node2 -->
<g id="Node000002" class="node">
<title>Node2</title>
<g id="a_Node000002"><a xlink:href="ephSSR_8cpp.html#ab46bbc0b3a67c74f5ab3520bea51162d" target="_top" xlink:title="satellite position and clock with ssr correction">
<path fill="#fff0f0" stroke="red" d="M61.67,-19C61.67,-19 6.33,-19 6.33,-19 3.17,-19 0,-15.83 0,-12.67 0,-12.67 0,-6.33 0,-6.33 0,-3.17 3.17,0 6.33,0 6.33,0 61.67,0 61.67,0 64.83,0 68,-3.17 68,-6.33 68,-6.33 68,-12.67 68,-12.67 68,-15.83 64.83,-19 61.67,-19"/>
<text text-anchor="middle" x="34" y="-7" font-family="Helvetica,sans-Serif" font-size="10.00">satPosSSR</text>
</a>
</g>
</g>
<!-- Node1&#45;&gt;Node2 -->
<g id="edge1_Node000001_Node000002" class="edge">
<title>Node1&#45;&gt;Node2</title>
<g id="a_edge1_Node000001_Node000002"><a xlink:title=" ">
<path fill="none" stroke="#63b8ff" d="M93.83,-9.5C85.14,-9.5 76.22,-9.5 68.03,-9.5"/>
<polygon fill="#63b8ff" stroke="#63b8ff" points="93.86,-13 103.86,-9.5 93.86,-6 93.86,-13"/>
</a>
</g>
</g>
</g>
</svg>
