<?xml version="1.0" encoding="UTF-8" standalone="no"?>
<!DOCTYPE svg PUBLIC "-//W3C//DTD SVG 1.1//EN"
 "http://www.w3.org/Graphics/SVG/1.1/DTD/svg11.dtd">
<!-- Generated by graphviz version 2.43.0 (0)
 -->
<!-- Title: cullOldSSRs Pages: 1 -->
<svg width="192pt" height="27pt"
 viewBox="0.00 0.00 192.00 27.00" xmlns="http://www.w3.org/2000/svg" xmlns:xlink="http://www.w3.org/1999/xlink">
<g id="graph0" class="graph" transform="scale(1 1) rotate(0) translate(4 23)">
<title>cullOldSSRs</title>
<!-- Node1 -->
<g id="Node000001" class="node">
<title>Node1</title>
<g id="a_Node000001"><a xlink:href="ephSSR_8cpp.html#af3a8b4b103b082a7cab9c5e53b5f4338" target="_top" xlink:title=" ">
<path fill="#fff0f0" stroke="red" stroke-width="2" d="M67.67,-19C67.67,-19 6.33,-19 6.33,-19 3.17,-19 0,-15.83 0,-12.67 0,-12.67 0,-6.33 0,-6.33 0,-3.17 3.17,0 6.33,0 6.33,0 67.67,0 67.67,0 70.83,0 74,-3.17 74,-6.33 74,-6.33 74,-12.67 74,-12.67 74,-15.83 70.83,-19 67.67,-19"/>
<text text-anchor="middle" x="37" y="-7" font-family="Helvetica,sans-Serif" font-size="10.00">cullOldSSRs</text>
</a>
</g>
</g>
<!-- Node2 -->
<g id="Node000002" class="node">
<title>Node2</title>
<g id="a_Node000002"><a xlink:href="ephSSR_8cpp.html#ab0454d2b2803d537bbbfe5ee1405f547" target="_top" xlink:title=" ">
<path fill="#fff0f0" stroke="red" d="M177.67,-19C177.67,-19 116.33,-19 116.33,-19 113.17,-19 110,-15.83 110,-12.67 110,-12.67 110,-6.33 110,-6.33 110,-3.17 113.17,0 116.33,0 116.33,0 177.67,0 177.67,0 180.83,0 184,-3.17 184,-6.33 184,-6.33 184,-12.67 184,-12.67 184,-15.83 180.83,-19 177.67,-19"/>
<text text-anchor="middle" x="147" y="-7" font-family="Helvetica,sans-Serif" font-size="10.00">cullSSRMap</text>
</a>
</g>
</g>
<!-- Node1&#45;&gt;Node2 -->
<g id="edge1_Node000001_Node000002" class="edge">
<title>Node1&#45;&gt;Node2</title>
<g id="a_edge1_Node000001_Node000002"><a xlink:title=" ">
<path fill="none" stroke="#63b8ff" d="M74.26,-3.08C82.37,-2.77 91.07,-2.68 99.52,-2.81"/>
<polygon fill="#63b8ff" stroke="#63b8ff" points="99.56,-6.31 109.65,-3.08 99.75,0.69 99.56,-6.31"/>
</a>
</g>
</g>
<!-- Node1&#45;&gt;Node2 -->
<g id="edge2_Node000001_Node000002" class="edge">
<title>Node1&#45;&gt;Node2</title>
<g id="a_edge2_Node000001_Node000002"><a xlink:title=" ">
<path fill="none" stroke="#63b8ff" d="M74.26,-15.92C82.37,-16.23 91.07,-16.32 99.52,-16.19"/>
<polygon fill="#63b8ff" stroke="#63b8ff" points="99.75,-19.69 109.65,-15.92 99.56,-12.69 99.75,-19.69"/>
</a>
</g>
</g>
</g>
</svg>
