<?xml version="1.0" encoding="UTF-8" standalone="no"?>
<!DOCTYPE svg PUBLIC "-//W3C//DTD SVG 1.1//EN"
 "http://www.w3.org/Graphics/SVG/1.1/DTD/svg11.dtd">
<!-- Generated by graphviz version 2.43.0 (0)
 -->
<!-- Title: ssrClkDelta Pages: 1 -->
<svg width="215pt" height="64pt"
 viewBox="0.00 0.00 215.00 64.00" xmlns="http://www.w3.org/2000/svg" xmlns:xlink="http://www.w3.org/1999/xlink">
<g id="graph0" class="graph" transform="scale(1 1) rotate(0) translate(4 60)">
<title>ssrClkDelta</title>
<!-- Node1 -->
<g id="Node000001" class="node">
<title>Node1</title>
<g id="a_Node000001"><a xlink:href="ephSSR_8cpp.html#aa7c23253963fe9c81c4019561e594559" target="_top" xlink:title=" ">
<path fill="#fff0f0" stroke="red" stroke-width="2" d="M66.67,-37C66.67,-37 6.33,-37 6.33,-37 3.17,-37 0,-33.83 0,-30.67 0,-30.67 0,-24.33 0,-24.33 0,-21.17 3.17,-18 6.33,-18 6.33,-18 66.67,-18 66.67,-18 69.83,-18 73,-21.17 73,-24.33 73,-24.33 73,-30.67 73,-30.67 73,-33.83 69.83,-37 66.67,-37"/>
<text text-anchor="middle" x="36.5" y="-25" font-family="Helvetica,sans-Serif" font-size="10.00">ssrClkDelta</text>
</a>
</g>
</g>
<!-- Node2 -->
<g id="Node000002" class="node">
<title>Node2</title>
<g id="a_Node000002"><a xlink:href="structSatSys.html#aec6d07b90d1e8172b8b6a6966abef4fd" target="_top" xlink:title="Returns a std::string of this satellite&#39;s id.">
<path fill="#fff0f0" stroke="red" d="M184.17,-56C184.17,-56 131.83,-56 131.83,-56 128.67,-56 125.5,-52.83 125.5,-49.67 125.5,-49.67 125.5,-43.33 125.5,-43.33 125.5,-40.17 128.67,-37 131.83,-37 131.83,-37 184.17,-37 184.17,-37 187.33,-37 190.5,-40.17 190.5,-43.33 190.5,-43.33 190.5,-49.67 190.5,-49.67 190.5,-52.83 187.33,-56 184.17,-56"/>
<text text-anchor="middle" x="158" y="-44" font-family="Helvetica,sans-Serif" font-size="10.00">SatSys::id</text>
</a>
</g>
</g>
<!-- Node1&#45;&gt;Node2 -->
<g id="edge1_Node000001_Node000002" class="edge">
<title>Node1&#45;&gt;Node2</title>
<g id="a_edge1_Node000001_Node000002"><a xlink:title=" ">
<path fill="none" stroke="#63b8ff" d="M73.03,-26.92C88.46,-28.67 106.48,-31.54 121.86,-34.7"/>
<polygon fill="#63b8ff" stroke="#63b8ff" points="121.51,-38.21 132.03,-36.92 123.01,-31.37 121.51,-38.21"/>
</a>
</g>
</g>
<!-- Node1&#45;&gt;Node2 -->
<g id="edge3_Node000001_Node000002" class="edge">
<title>Node1&#45;&gt;Node2</title>
<g id="a_edge3_Node000001_Node000002"><a xlink:title=" ">
<path fill="none" stroke="#63b8ff" d="M62.26,-37.03C77.58,-40.62 97.63,-44.1 115.34,-46.34"/>
<polygon fill="#63b8ff" stroke="#63b8ff" points="115.11,-49.84 125.44,-47.51 115.91,-42.89 115.11,-49.84"/>
</a>
</g>
</g>
<!-- Node5 -->
<g id="Node000005" class="node">
<title>Node5</title>
<g id="a_Node000005"><a xlink:href="structGTime.html#a98fdbaaec5a132a7e694f28b4f1907cb" target="_top" xlink:title=" ">
<path fill="#fff0f0" stroke="red" d="M200.67,-19C200.67,-19 115.33,-19 115.33,-19 112.17,-19 109,-15.83 109,-12.67 109,-12.67 109,-6.33 109,-6.33 109,-3.17 112.17,0 115.33,0 115.33,0 200.67,0 200.67,0 203.83,0 207,-3.17 207,-6.33 207,-6.33 207,-12.67 207,-12.67 207,-15.83 203.83,-19 200.67,-19"/>
<text text-anchor="middle" x="158" y="-7" font-family="Helvetica,sans-Serif" font-size="10.00">GTime::to_string</text>
</a>
</g>
</g>
<!-- Node1&#45;&gt;Node5 -->
<g id="edge2_Node000001_Node000005" class="edge">
<title>Node1&#45;&gt;Node5</title>
<g id="a_edge2_Node000001_Node000005"><a xlink:title=" ">
<path fill="none" stroke="#63b8ff" d="M63.14,-17.98C73.63,-15.64 86.24,-13.38 98.77,-11.52"/>
<polygon fill="#63b8ff" stroke="#63b8ff" points="99.33,-14.98 108.75,-10.13 98.36,-8.05 99.33,-14.98"/>
</a>
</g>
</g>
<!-- Node1&#45;&gt;Node5 -->
<g id="edge4_Node000001_Node000005" class="edge">
<title>Node1&#45;&gt;Node5</title>
<g id="a_edge4_Node000001_Node000005"><a xlink:title=" ">
<path fill="none" stroke="#63b8ff" d="M73.03,-28.38C88.24,-26.78 105.96,-24.11 121.19,-21.14"/>
<polygon fill="#63b8ff" stroke="#63b8ff" points="122.2,-24.5 131.28,-19.04 120.78,-17.65 122.2,-24.5"/>
</a>
</g>
</g>
</g>
</svg>
