<?xml version="1.0" encoding="UTF-8" standalone="no"?>
<!DOCTYPE svg PUBLIC "-//W3C//DTD SVG 1.1//EN"
 "http://www.w3.org/Graphics/SVG/1.1/DTD/svg11.dtd">
<!-- Generated by graphviz version 2.43.0 (0)
 -->
<!-- Title: writeErp Pages: 1 -->
<svg width="223pt" height="101pt"
 viewBox="0.00 0.00 223.00 101.00" xmlns="http://www.w3.org/2000/svg" xmlns:xlink="http://www.w3.org/1999/xlink">
<g id="graph0" class="graph" transform="scale(1 1) rotate(0) translate(4 97)">
<title>writeErp</title>
<!-- Node1 -->
<g id="Node000001" class="node">
<title>Node1</title>
<g id="a_Node000001"><a xlink:href="erp_8cpp.html#af7d1a2cc7083f35bd4abd4879cfb0ef3" target="_top" xlink:title=" ">
<path fill="#fff0f0" stroke="red" stroke-width="2" d="M50.67,-56C50.67,-56 6.33,-56 6.33,-56 3.17,-56 0,-52.83 0,-49.67 0,-49.67 0,-43.33 0,-43.33 0,-40.17 3.17,-37 6.33,-37 6.33,-37 50.67,-37 50.67,-37 53.83,-37 57,-40.17 57,-43.33 57,-43.33 57,-49.67 57,-49.67 57,-52.83 53.83,-56 50.67,-56"/>
<text text-anchor="middle" x="28.5" y="-44" font-family="Helvetica,sans-Serif" font-size="10.00">writeErp</text>
</a>
</g>
</g>
<!-- Node2 -->
<g id="Node000002" class="node">
<title>Node2</title>
<g id="a_Node000002"><a xlink:href="peaCommitStrings_8cpp.html#a7b85d404d14d148d2aee13c900420a07" target="_top" xlink:title=" ">
<path fill="#fff0f0" stroke="red" d="M207.17,-93C207.17,-93 100.83,-93 100.83,-93 97.67,-93 94.5,-89.83 94.5,-86.67 94.5,-86.67 94.5,-80.33 94.5,-80.33 94.5,-77.17 97.67,-74 100.83,-74 100.83,-74 207.17,-74 207.17,-74 210.33,-74 213.5,-77.17 213.5,-80.33 213.5,-80.33 213.5,-86.67 213.5,-86.67 213.5,-89.83 210.33,-93 207.17,-93"/>
<text text-anchor="middle" x="154" y="-81" font-family="Helvetica,sans-Serif" font-size="10.00">ginanCommitVersion</text>
</a>
</g>
</g>
<!-- Node1&#45;&gt;Node2 -->
<g id="edge1_Node000001_Node000002" class="edge">
<title>Node1&#45;&gt;Node2</title>
<g id="a_edge1_Node000001_Node000002"><a xlink:title=" ">
<path fill="none" stroke="#63b8ff" d="M57.22,-54.8C73.18,-59.59 93.55,-65.69 111.4,-71.04"/>
<polygon fill="#63b8ff" stroke="#63b8ff" points="110.43,-74.4 121.01,-73.92 112.44,-67.69 110.43,-74.4"/>
</a>
</g>
</g>
<!-- Node3 -->
<g id="Node000003" class="node">
<title>Node3</title>
<g id="a_Node000003"><a xlink:href="peaCommitStrings_8cpp.html#a7fe65f9b3d5d39575ea3c8dcf9c4b4b6" target="_top" xlink:title=" ">
<path fill="#fff0f0" stroke="red" d="M201.17,-56C201.17,-56 106.83,-56 106.83,-56 103.67,-56 100.5,-52.83 100.5,-49.67 100.5,-49.67 100.5,-43.33 100.5,-43.33 100.5,-40.17 103.67,-37 106.83,-37 106.83,-37 201.17,-37 201.17,-37 204.33,-37 207.5,-40.17 207.5,-43.33 207.5,-43.33 207.5,-49.67 207.5,-49.67 207.5,-52.83 204.33,-56 201.17,-56"/>
<text text-anchor="middle" x="154" y="-44" font-family="Helvetica,sans-Serif" font-size="10.00">ginanBranchName</text>
</a>
</g>
</g>
<!-- Node1&#45;&gt;Node3 -->
<g id="edge2_Node000001_Node000003" class="edge">
<title>Node1&#45;&gt;Node3</title>
<g id="a_edge2_Node000001_Node000003"><a xlink:title=" ">
<path fill="none" stroke="#63b8ff" d="M57.22,-46.5C67.01,-46.5 78.46,-46.5 89.97,-46.5"/>
<polygon fill="#63b8ff" stroke="#63b8ff" points="90.06,-50 100.06,-46.5 90.06,-43 90.06,-50"/>
</a>
</g>
</g>
<!-- Node4 -->
<g id="Node000004" class="node">
<title>Node4</title>
<g id="a_Node000004"><a xlink:href="structMjDateUtc.html#ac35e3ac8d68de9b2bdae2c893e6e6fc8" target="_top" xlink:title=" ">
<path fill="#fff0f0" stroke="red" d="M208.67,-19C208.67,-19 99.33,-19 99.33,-19 96.17,-19 93,-15.83 93,-12.67 93,-12.67 93,-6.33 93,-6.33 93,-3.17 96.17,0 99.33,0 99.33,0 208.67,0 208.67,0 211.83,0 215,-3.17 215,-6.33 215,-6.33 215,-12.67 215,-12.67 215,-15.83 211.83,-19 208.67,-19"/>
<text text-anchor="middle" x="154" y="-7" font-family="Helvetica,sans-Serif" font-size="10.00">MjDateUtc::to_double</text>
</a>
</g>
</g>
<!-- Node1&#45;&gt;Node4 -->
<g id="edge3_Node000001_Node000004" class="edge">
<title>Node1&#45;&gt;Node4</title>
<g id="a_edge3_Node000001_Node000004"><a xlink:title=" ">
<path fill="none" stroke="#63b8ff" d="M57.22,-38.2C73.18,-33.41 93.55,-27.31 111.4,-21.96"/>
<polygon fill="#63b8ff" stroke="#63b8ff" points="112.44,-25.31 121.01,-19.08 110.43,-18.6 112.44,-25.31"/>
</a>
</g>
</g>
</g>
</svg>
