<?xml version="1.0" encoding="UTF-8" standalone="no"?>
<!DOCTYPE svg PUBLIC "-//W3C//DTD SVG 1.1//EN"
 "http://www.w3.org/Graphics/SVG/1.1/DTD/svg11.dtd">
<!-- Generated by graphviz version 2.43.0 (0)
 -->
<!-- Title: readErp Pages: 1 -->
<svg width="193pt" height="27pt"
 viewBox="0.00 0.00 193.00 27.00" xmlns="http://www.w3.org/2000/svg" xmlns:xlink="http://www.w3.org/1999/xlink">
<g id="graph0" class="graph" transform="scale(1 1) rotate(0) translate(4 23)">
<title>readErp</title>
<!-- Node1 -->
<g id="Node000001" class="node">
<title>Node1</title>
<g id="a_Node000001"><a xlink:href="erp_8cpp.html#a76c420194b20727ba241223dad38241c" target="_top" xlink:title="read earth rotation parameters">
<path fill="#fff0f0" stroke="red" stroke-width="2" d="M178.67,-19C178.67,-19 137.33,-19 137.33,-19 134.17,-19 131,-15.83 131,-12.67 131,-12.67 131,-6.33 131,-6.33 131,-3.17 134.17,0 137.33,0 137.33,0 178.67,0 178.67,0 181.83,0 185,-3.17 185,-6.33 185,-6.33 185,-12.67 185,-12.67 185,-15.83 181.83,-19 178.67,-19"/>
<text text-anchor="middle" x="158" y="-7" font-family="Helvetica,sans-Serif" font-size="10.00">readErp</text>
</a>
</g>
</g>
<!-- Node2 -->
<g id="Node000002" class="node">
<title>Node2</title>
<g id="a_Node000002"><a xlink:href="inputs_8cpp.html#a414f34e8bd65aa4d83398bab54236157" target="_top" xlink:title=" ">
<path fill="#fff0f0" stroke="red" d="M88.67,-19C88.67,-19 6.33,-19 6.33,-19 3.17,-19 0,-15.83 0,-12.67 0,-12.67 0,-6.33 0,-6.33 0,-3.17 3.17,0 6.33,0 6.33,0 88.67,0 88.67,0 91.83,0 95,-3.17 95,-6.33 95,-6.33 95,-12.67 95,-12.67 95,-15.83 91.83,-19 88.67,-19"/>
<text text-anchor="middle" x="47.5" y="-7" font-family="Helvetica,sans-Serif" font-size="10.00">reloadInputFiles</text>
</a>
</g>
</g>
<!-- Node1&#45;&gt;Node2 -->
<g id="edge1_Node000001_Node000002" class="edge">
<title>Node1&#45;&gt;Node2</title>
<g id="a_edge1_Node000001_Node000002"><a xlink:title=" ">
<path fill="none" stroke="#63b8ff" d="M120.51,-9.5C112.41,-9.5 103.73,-9.5 95.29,-9.5"/>
<polygon fill="#63b8ff" stroke="#63b8ff" points="120.74,-13 130.74,-9.5 120.74,-6 120.74,-13"/>
</a>
</g>
</g>
</g>
</svg>
