<?xml version="1.0" encoding="UTF-8" standalone="no"?>
<!DOCTYPE svg PUBLIC "-//W3C//DTD SVG 1.1//EN"
 "http://www.w3.org/Graphics/SVG/1.1/DTD/svg11.dtd">
<!-- Generated by graphviz version 2.43.0 (0)
 -->
<!-- Title: getErpFromFilter Pages: 1 -->
<svg width="608pt" height="119pt"
 viewBox="0.00 0.00 608.00 119.00" xmlns="http://www.w3.org/2000/svg" xmlns:xlink="http://www.w3.org/1999/xlink">
<g id="graph0" class="graph" transform="scale(1 1) rotate(0) translate(4 115)">
<title>getErpFromFilter</title>
<!-- Node1 -->
<g id="Node000001" class="node">
<title>Node1</title>
<g id="a_Node000001"><a xlink:href="erp_8cpp.html#aa281b734dbbef403ca921fc9d09e9961" target="_top" xlink:title="Get earth rotation parameter values.">
<path fill="#fff0f0" stroke="red" stroke-width="2" d="M593.67,-76C593.67,-76 508.33,-76 508.33,-76 505.17,-76 502,-72.83 502,-69.67 502,-69.67 502,-63.33 502,-63.33 502,-60.17 505.17,-57 508.33,-57 508.33,-57 593.67,-57 593.67,-57 596.83,-57 600,-60.17 600,-63.33 600,-63.33 600,-69.67 600,-69.67 600,-72.83 596.83,-76 593.67,-76"/>
<text text-anchor="middle" x="551" y="-64" font-family="Helvetica,sans-Serif" font-size="10.00">getErpFromFilter</text>
</a>
</g>
</g>
<!-- Node2 -->
<g id="Node000002" class="node">
<title>Node2</title>
<g id="a_Node000002"><a xlink:href="main_8cpp.html#a479f892b35943104163405de9a93be14" target="_top" xlink:title=" ">
<path fill="#fff0f0" stroke="red" d="M104.67,-111C104.67,-111 6.33,-111 6.33,-111 3.17,-111 0,-107.83 0,-104.67 0,-104.67 0,-98.33 0,-98.33 0,-95.17 3.17,-92 6.33,-92 6.33,-92 104.67,-92 104.67,-92 107.83,-92 111,-95.17 111,-98.33 111,-98.33 111,-104.67 111,-104.67 111,-107.83 107.83,-111 104.67,-111"/>
<text text-anchor="middle" x="55.5" y="-99" font-family="Helvetica,sans-Serif" font-size="10.00">mainOncePerEpoch</text>
</a>
</g>
</g>
<!-- Node1&#45;&gt;Node2 -->
<g id="edge1_Node000001_Node000002" class="edge">
<title>Node1&#45;&gt;Node2</title>
<g id="a_edge1_Node000001_Node000002"><a xlink:title=" ">
<path fill="none" stroke="#63b8ff" d="M504.16,-78.47C491.83,-81.4 478.46,-84.32 466,-86.5 326.12,-110.98 288.98,-106.85 147,-104.5 135.37,-104.31 122.9,-103.98 111.05,-103.6"/>
<polygon fill="#63b8ff" stroke="#63b8ff" points="505.34,-81.79 514.23,-76.03 503.68,-74.99 505.34,-81.79"/>
</a>
</g>
</g>
<!-- Node5 -->
<g id="Node000005" class="node">
<title>Node5</title>
<g id="a_Node000005"><a xlink:href="main_8cpp.html#a712043e1e94db2f9f7c1022f2bc006e2" target="_top" xlink:title=" ">
<path fill="#fff0f0" stroke="red" d="M297,-95.5C297,-95.5 157,-95.5 157,-95.5 152,-95.5 147,-90.5 147,-85.5 147,-85.5 147,-75.5 147,-75.5 147,-70.5 152,-65.5 157,-65.5 157,-65.5 297,-65.5 297,-65.5 302,-65.5 307,-70.5 307,-75.5 307,-75.5 307,-85.5 307,-85.5 307,-90.5 302,-95.5 297,-95.5"/>
<text text-anchor="start" x="155" y="-83.5" font-family="Helvetica,sans-Serif" font-size="10.00">mainPerEpochPostProcessing</text>
<text text-anchor="middle" x="227" y="-72.5" font-family="Helvetica,sans-Serif" font-size="10.00">AndOutputs</text>
</a>
</g>
</g>
<!-- Node1&#45;&gt;Node5 -->
<g id="edge2_Node000001_Node000005" class="edge">
<title>Node1&#45;&gt;Node5</title>
<g id="a_edge2_Node000001_Node000005"><a xlink:title=" ">
<path fill="none" stroke="#63b8ff" d="M491.48,-69.04C439.88,-71.29 364.23,-74.58 307.21,-77.06"/>
<polygon fill="#63b8ff" stroke="#63b8ff" points="491.95,-72.53 501.79,-68.6 491.65,-65.53 491.95,-72.53"/>
</a>
</g>
</g>
<!-- Node6 -->
<g id="Node000006" class="node">
<title>Node6</title>
<g id="a_Node000006"><a xlink:href="rtsSmoothing_8cpp.html#a65cd5f94ab58227ab032b1e894ca3987" target="_top" xlink:title=" ">
<path fill="#fff0f0" stroke="red" d="M266.67,-33C266.67,-33 187.33,-33 187.33,-33 184.17,-33 181,-29.83 181,-26.67 181,-26.67 181,-20.33 181,-20.33 181,-17.17 184.17,-14 187.33,-14 187.33,-14 266.67,-14 266.67,-14 269.83,-14 273,-17.17 273,-20.33 273,-20.33 273,-26.67 273,-26.67 273,-29.83 269.83,-33 266.67,-33"/>
<text text-anchor="middle" x="227" y="-21" font-family="Helvetica,sans-Serif" font-size="10.00">postRTSActions</text>
</a>
</g>
</g>
<!-- Node1&#45;&gt;Node6 -->
<g id="edge4_Node000001_Node000006" class="edge">
<title>Node1&#45;&gt;Node6</title>
<g id="a_edge4_Node000001_Node000006"><a xlink:title=" ">
<path fill="none" stroke="#63b8ff" d="M491.65,-58.71C428.85,-50.32 330.3,-37.16 273.15,-29.53"/>
<polygon fill="#63b8ff" stroke="#63b8ff" points="491.42,-62.21 501.79,-60.06 492.34,-55.27 491.42,-62.21"/>
</a>
</g>
</g>
<!-- Node8 -->
<g id="Node000008" class="node">
<title>Node8</title>
<g id="a_Node000008"><a xlink:href="erp_8cpp.html#ab3d1603dc3b9792fd8a9116558ba1d49" target="_top" xlink:title=" ">
<path fill="#fff0f0" stroke="red" d="M459.67,-19C459.67,-19 349.33,-19 349.33,-19 346.17,-19 343,-15.83 343,-12.67 343,-12.67 343,-6.33 343,-6.33 343,-3.17 346.17,0 349.33,0 349.33,0 459.67,0 459.67,0 462.83,0 466,-3.17 466,-6.33 466,-6.33 466,-12.67 466,-12.67 466,-15.83 462.83,-19 459.67,-19"/>
<text text-anchor="middle" x="404.5" y="-7" font-family="Helvetica,sans-Serif" font-size="10.00">writeErpFromNetwork</text>
</a>
</g>
</g>
<!-- Node1&#45;&gt;Node8 -->
<g id="edge5_Node000001_Node000008" class="edge">
<title>Node1&#45;&gt;Node8</title>
<g id="a_edge5_Node000001_Node000008"><a xlink:title=" ">
<path fill="none" stroke="#63b8ff" d="M516.18,-53.16C489.68,-42.7 453.45,-28.41 429.76,-19.07"/>
<polygon fill="#63b8ff" stroke="#63b8ff" points="515.23,-56.55 525.81,-56.96 517.8,-50.03 515.23,-56.55"/>
</a>
</g>
</g>
<!-- Node5&#45;&gt;Node2 -->
<g id="edge3_Node000005_Node000002" class="edge">
<title>Node5&#45;&gt;Node2</title>
<g id="a_edge3_Node000005_Node000002"><a xlink:title=" ">
<path fill="none" stroke="#63b8ff" d="M136.52,-91.59C127.84,-92.66 119.24,-93.73 111.06,-94.74"/>
<polygon fill="#63b8ff" stroke="#63b8ff" points="137.22,-95.03 146.71,-90.32 136.35,-88.08 137.22,-95.03"/>
</a>
</g>
</g>
<!-- Node8&#45;&gt;Node5 -->
<g id="edge6_Node000008_Node000005" class="edge">
<title>Node8&#45;&gt;Node5</title>
<g id="a_edge6_Node000008_Node000005"><a xlink:title=" ">
<path fill="none" stroke="#63b8ff" d="M370.27,-22.94C340.37,-35.04 296.49,-52.79 265.38,-65.38"/>
<polygon fill="#63b8ff" stroke="#63b8ff" points="371.87,-26.07 379.83,-19.08 369.25,-19.58 371.87,-26.07"/>
</a>
</g>
</g>
<!-- Node8&#45;&gt;Node6 -->
<g id="edge7_Node000008_Node000006" class="edge">
<title>Node8&#45;&gt;Node6</title>
<g id="a_edge7_Node000008_Node000006"><a xlink:title=" ">
<path fill="none" stroke="#63b8ff" d="M332.55,-15.16C312.44,-16.76 291.12,-18.46 273.01,-19.91"/>
<polygon fill="#63b8ff" stroke="#63b8ff" points="332.92,-18.64 342.61,-14.36 332.36,-11.66 332.92,-18.64"/>
</a>
</g>
</g>
</g>
</svg>
