<?xml version="1.0" encoding="UTF-8" standalone="no"?>
<!DOCTYPE svg PUBLIC "-//W3C//DTD SVG 1.1//EN"
 "http://www.w3.org/Graphics/SVG/1.1/DTD/svg11.dtd">
<!-- Generated by graphviz version 2.43.0 (0)
 -->
<!-- Title: readIgsErp Pages: 1 -->
<svg width="166pt" height="27pt"
 viewBox="0.00 0.00 166.00 27.00" xmlns="http://www.w3.org/2000/svg" xmlns:xlink="http://www.w3.org/1999/xlink">
<g id="graph0" class="graph" transform="scale(1 1) rotate(0) translate(4 23)">
<title>readIgsErp</title>
<!-- Node1 -->
<g id="Node000001" class="node">
<title>Node1</title>
<g id="a_Node000001"><a xlink:href="erp_8cpp.html#a6693c4ce302638d8fb26901aae89eebd" target="_top" xlink:title="read IGS ERP products">
<path fill="#fff0f0" stroke="red" stroke-width="2" d="M151.67,-19C151.67,-19 96.33,-19 96.33,-19 93.17,-19 90,-15.83 90,-12.67 90,-12.67 90,-6.33 90,-6.33 90,-3.17 93.17,0 96.33,0 96.33,0 151.67,0 151.67,0 154.83,0 158,-3.17 158,-6.33 158,-6.33 158,-12.67 158,-12.67 158,-15.83 154.83,-19 151.67,-19"/>
<text text-anchor="middle" x="124" y="-7" font-family="Helvetica,sans-Serif" font-size="10.00">readIgsErp</text>
</a>
</g>
</g>
<!-- Node2 -->
<g id="Node000002" class="node">
<title>Node2</title>
<g id="a_Node000002"><a xlink:href="erp_8cpp.html#a76c420194b20727ba241223dad38241c" target="_top" xlink:title="read earth rotation parameters">
<path fill="#fff0f0" stroke="red" d="M47.67,-19C47.67,-19 6.33,-19 6.33,-19 3.17,-19 0,-15.83 0,-12.67 0,-12.67 0,-6.33 0,-6.33 0,-3.17 3.17,0 6.33,0 6.33,0 47.67,0 47.67,0 50.83,0 54,-3.17 54,-6.33 54,-6.33 54,-12.67 54,-12.67 54,-15.83 50.83,-19 47.67,-19"/>
<text text-anchor="middle" x="27" y="-7" font-family="Helvetica,sans-Serif" font-size="10.00">readErp</text>
</a>
</g>
</g>
<!-- Node1&#45;&gt;Node2 -->
<g id="edge1_Node000001_Node000002" class="edge">
<title>Node1&#45;&gt;Node2</title>
<g id="a_edge1_Node000001_Node000002"><a xlink:title=" ">
<path fill="none" stroke="#63b8ff" d="M79.7,-9.5C70.99,-9.5 62.08,-9.5 54.18,-9.5"/>
<polygon fill="#63b8ff" stroke="#63b8ff" points="79.77,-13 89.77,-9.5 79.77,-6 79.77,-13"/>
</a>
</g>
</g>
</g>
</svg>
