<?xml version="1.0" encoding="UTF-8" standalone="no"?>
<!DOCTYPE svg PUBLIC "-//W3C//DTD SVG 1.1//EN"
 "http://www.w3.org/Graphics/SVG/1.1/DTD/svg11.dtd">
<!-- Generated by graphviz version 2.43.0 (0)
 -->
<!-- Title: readErp Pages: 1 -->
<svg width="199pt" height="175pt"
 viewBox="0.00 0.00 199.00 175.00" xmlns="http://www.w3.org/2000/svg" xmlns:xlink="http://www.w3.org/1999/xlink">
<g id="graph0" class="graph" transform="scale(1 1) rotate(0) translate(4 171)">
<title>readErp</title>
<!-- Node1 -->
<g id="Node000001" class="node">
<title>Node1</title>
<g id="a_Node000001"><a xlink:href="erp_8cpp.html#a76c420194b20727ba241223dad38241c" target="_top" xlink:title="read earth rotation parameters">
<path fill="#fff0f0" stroke="red" stroke-width="2" d="M47.67,-93C47.67,-93 6.33,-93 6.33,-93 3.17,-93 0,-89.83 0,-86.67 0,-86.67 0,-80.33 0,-80.33 0,-77.17 3.17,-74 6.33,-74 6.33,-74 47.67,-74 47.67,-74 50.83,-74 54,-77.17 54,-80.33 54,-80.33 54,-86.67 54,-86.67 54,-89.83 50.83,-93 47.67,-93"/>
<text text-anchor="middle" x="27" y="-81" font-family="Helvetica,sans-Serif" font-size="10.00">readErp</text>
</a>
</g>
</g>
<!-- Node2 -->
<g id="Node000002" class="node">
<title>Node2</title>
<g id="a_Node000002"><a xlink:href="erp_8cpp.html#a65e5b05849c2712fe7fc84de6140b13f" target="_top" xlink:title="read IERS final EOP products">
<path fill="#fff0f0" stroke="red" d="M174.17,-167C174.17,-167 106.83,-167 106.83,-167 103.67,-167 100.5,-163.83 100.5,-160.67 100.5,-160.67 100.5,-154.33 100.5,-154.33 100.5,-151.17 103.67,-148 106.83,-148 106.83,-148 174.17,-148 174.17,-148 177.33,-148 180.5,-151.17 180.5,-154.33 180.5,-154.33 180.5,-160.67 180.5,-160.67 180.5,-163.83 177.33,-167 174.17,-167"/>
<text text-anchor="middle" x="140.5" y="-155" font-family="Helvetica,sans-Serif" font-size="10.00">readIersFinal</text>
</a>
</g>
</g>
<!-- Node1&#45;&gt;Node2 -->
<g id="edge1_Node000001_Node000002" class="edge">
<title>Node1&#45;&gt;Node2</title>
<g id="a_edge1_Node000001_Node000002"><a xlink:title=" ">
<path fill="none" stroke="#63b8ff" d="M36.35,-93.05C47.5,-105.29 68.38,-126.49 90,-139.5 92.62,-141.08 95.4,-142.55 98.25,-143.91"/>
<polygon fill="#63b8ff" stroke="#63b8ff" points="96.94,-147.16 107.5,-147.93 99.72,-140.74 96.94,-147.16"/>
</a>
</g>
</g>
<!-- Node4 -->
<g id="Node000004" class="node">
<title>Node4</title>
<g id="a_Node000004"><a xlink:href="erp_8cpp.html#aea74a6a66f8dbe955856469da9df6a43" target="_top" xlink:title="read IERS C04 EOP products">
<path fill="#fff0f0" stroke="red" d="M177.67,-130C177.67,-130 103.33,-130 103.33,-130 100.17,-130 97,-126.83 97,-123.67 97,-123.67 97,-117.33 97,-117.33 97,-114.17 100.17,-111 103.33,-111 103.33,-111 177.67,-111 177.67,-111 180.83,-111 184,-114.17 184,-117.33 184,-117.33 184,-123.67 184,-123.67 184,-126.83 180.83,-130 177.67,-130"/>
<text text-anchor="middle" x="140.5" y="-118" font-family="Helvetica,sans-Serif" font-size="10.00">readIers20C04</text>
</a>
</g>
</g>
<!-- Node1&#45;&gt;Node4 -->
<g id="edge2_Node000001_Node000004" class="edge">
<title>Node1&#45;&gt;Node4</title>
<g id="a_edge2_Node000001_Node000004"><a xlink:title=" ">
<path fill="none" stroke="#63b8ff" d="M54.14,-92.17C68.08,-96.8 85.5,-102.58 100.96,-107.71"/>
<polygon fill="#63b8ff" stroke="#63b8ff" points="100.19,-111.14 110.78,-110.97 102.39,-104.5 100.19,-111.14"/>
</a>
</g>
</g>
<!-- Node6 -->
<g id="Node000006" class="node">
<title>Node6</title>
<g id="a_Node000006"><a xlink:href="erp_8cpp.html#a33c70b74bb73dd330fcbe0193762aa11" target="_top" xlink:title="read IERS C04 EOP products">
<path fill="#fff0f0" stroke="red" d="M177.67,-93C177.67,-93 103.33,-93 103.33,-93 100.17,-93 97,-89.83 97,-86.67 97,-86.67 97,-80.33 97,-80.33 97,-77.17 100.17,-74 103.33,-74 103.33,-74 177.67,-74 177.67,-74 180.83,-74 184,-77.17 184,-80.33 184,-80.33 184,-86.67 184,-86.67 184,-89.83 180.83,-93 177.67,-93"/>
<text text-anchor="middle" x="140.5" y="-81" font-family="Helvetica,sans-Serif" font-size="10.00">readIers14C04</text>
</a>
</g>
</g>
<!-- Node1&#45;&gt;Node6 -->
<g id="edge3_Node000001_Node000006" class="edge">
<title>Node1&#45;&gt;Node6</title>
<g id="a_edge3_Node000001_Node000006"><a xlink:title=" ">
<path fill="none" stroke="#63b8ff" d="M54.14,-83.5C63.9,-83.5 75.36,-83.5 86.66,-83.5"/>
<polygon fill="#63b8ff" stroke="#63b8ff" points="86.95,-87 96.95,-83.5 86.95,-80 86.95,-87"/>
</a>
</g>
</g>
<!-- Node7 -->
<g id="Node000007" class="node">
<title>Node7</title>
<g id="a_Node000007"><a xlink:href="erp_8cpp.html#a6693c4ce302638d8fb26901aae89eebd" target="_top" xlink:title="read IGS ERP products">
<path fill="#fff0f0" stroke="red" d="M168.17,-56C168.17,-56 112.83,-56 112.83,-56 109.67,-56 106.5,-52.83 106.5,-49.67 106.5,-49.67 106.5,-43.33 106.5,-43.33 106.5,-40.17 109.67,-37 112.83,-37 112.83,-37 168.17,-37 168.17,-37 171.33,-37 174.5,-40.17 174.5,-43.33 174.5,-43.33 174.5,-49.67 174.5,-49.67 174.5,-52.83 171.33,-56 168.17,-56"/>
<text text-anchor="middle" x="140.5" y="-44" font-family="Helvetica,sans-Serif" font-size="10.00">readIgsErp</text>
</a>
</g>
</g>
<!-- Node1&#45;&gt;Node7 -->
<g id="edge4_Node000001_Node000007" class="edge">
<title>Node1&#45;&gt;Node7</title>
<g id="a_edge4_Node000001_Node000007"><a xlink:title=" ">
<path fill="none" stroke="#63b8ff" d="M54.14,-74.83C68.08,-70.2 85.5,-64.42 100.96,-59.29"/>
<polygon fill="#63b8ff" stroke="#63b8ff" points="102.39,-62.5 110.78,-56.03 100.19,-55.86 102.39,-62.5"/>
</a>
</g>
</g>
<!-- Node8 -->
<g id="Node000008" class="node">
<title>Node8</title>
<g id="a_Node000008"><a xlink:href="erp_8cpp.html#a4d450703022d8769efa3e5df2f84b0e4" target="_top" xlink:title="read IERS Bulletin&#45;A EOP products">
<path fill="#fff0f0" stroke="red" d="M184.67,-19C184.67,-19 96.33,-19 96.33,-19 93.17,-19 90,-15.83 90,-12.67 90,-12.67 90,-6.33 90,-6.33 90,-3.17 93.17,0 96.33,0 96.33,0 184.67,0 184.67,0 187.83,0 191,-3.17 191,-6.33 191,-6.33 191,-12.67 191,-12.67 191,-15.83 187.83,-19 184.67,-19"/>
<text text-anchor="middle" x="140.5" y="-7" font-family="Helvetica,sans-Serif" font-size="10.00">readIersBulletinA</text>
</a>
</g>
</g>
<!-- Node1&#45;&gt;Node8 -->
<g id="edge5_Node000001_Node000008" class="edge">
<title>Node1&#45;&gt;Node8</title>
<g id="a_edge5_Node000001_Node000008"><a xlink:title=" ">
<path fill="none" stroke="#63b8ff" d="M36.81,-73.77C48.13,-61.76 68.85,-41.35 90,-28.5 93.18,-26.57 96.58,-24.78 100.07,-23.12"/>
<polygon fill="#63b8ff" stroke="#63b8ff" points="101.59,-26.28 109.36,-19.08 98.8,-19.86 101.59,-26.28"/>
</a>
</g>
</g>
</g>
</svg>
