<?xml version="1.0" encoding="UTF-8" standalone="no"?>
<!DOCTYPE svg PUBLIC "-//W3C//DTD SVG 1.1//EN"
 "http://www.w3.org/Graphics/SVG/1.1/DTD/svg11.dtd">
<!-- Generated by graphviz version 2.43.0 (0)
 -->
<!-- Title: getSHCoef Pages: 1 -->
<svg width="210pt" height="64pt"
 viewBox="0.00 0.00 210.00 64.00" xmlns="http://www.w3.org/2000/svg" xmlns:xlink="http://www.w3.org/1999/xlink">
<g id="graph0" class="graph" transform="scale(1 1) rotate(0) translate(4 60)">
<title>getSHCoef</title>
<!-- Node1 -->
<g id="Node000001" class="node">
<title>Node1</title>
<g id="a_Node000001"><a xlink:href="geomagField_8cpp.html#afdeec0e39b8804b13d87c0d552f57438" target="_top" xlink:title="Calculate the SH coefficients at given epoch based on a piecewise linear model For years starting in ...">
<path fill="#fff0f0" stroke="red" stroke-width="2" d="M61.67,-37C61.67,-37 6.33,-37 6.33,-37 3.17,-37 0,-33.83 0,-30.67 0,-30.67 0,-24.33 0,-24.33 0,-21.17 3.17,-18 6.33,-18 6.33,-18 61.67,-18 61.67,-18 64.83,-18 68,-21.17 68,-24.33 68,-24.33 68,-30.67 68,-30.67 68,-33.83 64.83,-37 61.67,-37"/>
<text text-anchor="middle" x="34" y="-25" font-family="Helvetica,sans-Serif" font-size="10.00">getSHCoef</text>
</a>
</g>
</g>
<!-- Node2 -->
<g id="Node000002" class="node">
<title>Node2</title>
<g id="a_Node000002"><a xlink:href="geomagField_8cpp.html#a0a9caa8fcb5ab39e9a2a86d9840aef8e" target="_top" xlink:title="Convert time to decimal year For example: 2019&#45;07&#45;18 00:00:00 &#45;&gt; 2019.54247.">
<path fill="#fff0f0" stroke="red" d="M184.67,-56C184.67,-56 121.33,-56 121.33,-56 118.17,-56 115,-52.83 115,-49.67 115,-49.67 115,-43.33 115,-43.33 115,-40.17 118.17,-37 121.33,-37 121.33,-37 184.67,-37 184.67,-37 187.83,-37 191,-40.17 191,-43.33 191,-43.33 191,-49.67 191,-49.67 191,-52.83 187.83,-56 184.67,-56"/>
<text text-anchor="middle" x="153" y="-44" font-family="Helvetica,sans-Serif" font-size="10.00">decimalYear</text>
</a>
</g>
</g>
<!-- Node1&#45;&gt;Node2 -->
<g id="edge1_Node000001_Node000002" class="edge">
<title>Node1&#45;&gt;Node2</title>
<g id="a_edge1_Node000001_Node000002"><a xlink:title=" ">
<path fill="none" stroke="#63b8ff" d="M68.21,-32.89C79.51,-34.73 92.36,-36.82 104.55,-38.79"/>
<polygon fill="#63b8ff" stroke="#63b8ff" points="104.15,-42.28 114.58,-40.42 105.27,-35.37 104.15,-42.28"/>
</a>
</g>
</g>
<!-- Node3 -->
<g id="Node000003" class="node">
<title>Node3</title>
<g id="a_Node000003"><a xlink:href="structGTime.html#a98fdbaaec5a132a7e694f28b4f1907cb" target="_top" xlink:title=" ">
<path fill="#fff0f0" stroke="red" d="M195.67,-19C195.67,-19 110.33,-19 110.33,-19 107.17,-19 104,-15.83 104,-12.67 104,-12.67 104,-6.33 104,-6.33 104,-3.17 107.17,0 110.33,0 110.33,0 195.67,0 195.67,0 198.83,0 202,-3.17 202,-6.33 202,-6.33 202,-12.67 202,-12.67 202,-15.83 198.83,-19 195.67,-19"/>
<text text-anchor="middle" x="153" y="-7" font-family="Helvetica,sans-Serif" font-size="10.00">GTime::to_string</text>
</a>
</g>
</g>
<!-- Node1&#45;&gt;Node3 -->
<g id="edge2_Node000001_Node000003" class="edge">
<title>Node1&#45;&gt;Node3</title>
<g id="a_edge2_Node000001_Node000003"><a xlink:title=" ">
<path fill="none" stroke="#63b8ff" d="M68.21,-22.39C76.26,-21.15 85.11,-19.79 93.93,-18.43"/>
<polygon fill="#63b8ff" stroke="#63b8ff" points="94.5,-21.89 103.85,-16.91 93.44,-14.97 94.5,-21.89"/>
</a>
</g>
</g>
</g>
</svg>
