<?xml version="1.0" encoding="UTF-8" standalone="no"?>
<!DOCTYPE svg PUBLIC "-//W3C//DTD SVG 1.1//EN"
 "http://www.w3.org/Graphics/SVG/1.1/DTD/svg11.dtd">
<!-- Generated by graphviz version 2.43.0 (0)
 -->
<!-- Title: getGeomagIntensity Pages: 1 -->
<svg width="272pt" height="249pt"
 viewBox="0.00 0.00 272.00 249.00" xmlns="http://www.w3.org/2000/svg" xmlns:xlink="http://www.w3.org/1999/xlink">
<g id="graph0" class="graph" transform="scale(1 1) rotate(0) translate(4 245)">
<title>getGeomagIntensity</title>
<!-- Node1 -->
<g id="Node000001" class="node">
<title>Node1</title>
<g id="a_Node000001"><a xlink:href="geomagField_8cpp.html#a1a9089a9e8fb29db7da8a88c9abcf491" target="_top" xlink:title="Compute the geomagnetic field components in geocentric local reference system at given time and posit...">
<path fill="#fff0f0" stroke="red" stroke-width="2" d="M109.67,-148C109.67,-148 6.33,-148 6.33,-148 3.17,-148 0,-144.83 0,-141.67 0,-141.67 0,-135.33 0,-135.33 0,-132.17 3.17,-129 6.33,-129 6.33,-129 109.67,-129 109.67,-129 112.83,-129 116,-132.17 116,-135.33 116,-135.33 116,-141.67 116,-141.67 116,-144.83 112.83,-148 109.67,-148"/>
<text text-anchor="middle" x="58" y="-136" font-family="Helvetica,sans-Serif" font-size="10.00">getGeomagIntensity</text>
</a>
</g>
</g>
<!-- Node2 -->
<g id="Node000002" class="node">
<title>Node2</title>
<g id="a_Node000002"><a xlink:href="geomagField_8cpp.html#afdeec0e39b8804b13d87c0d552f57438" target="_top" xlink:title="Calculate the SH coefficients at given epoch based on a piecewise linear model For years starting in ...">
<path fill="#fff0f0" stroke="red" d="M235.67,-241C235.67,-241 180.33,-241 180.33,-241 177.17,-241 174,-237.83 174,-234.67 174,-234.67 174,-228.33 174,-228.33 174,-225.17 177.17,-222 180.33,-222 180.33,-222 235.67,-222 235.67,-222 238.83,-222 242,-225.17 242,-228.33 242,-228.33 242,-234.67 242,-234.67 242,-237.83 238.83,-241 235.67,-241"/>
<text text-anchor="middle" x="208" y="-229" font-family="Helvetica,sans-Serif" font-size="10.00">getSHCoef</text>
</a>
</g>
</g>
<!-- Node1&#45;&gt;Node2 -->
<g id="edge1_Node000001_Node000002" class="edge">
<title>Node1&#45;&gt;Node2</title>
<g id="a_edge1_Node000001_Node000002"><a xlink:title=" ">
<path fill="none" stroke="#63b8ff" d="M68.45,-148.13C84.36,-163.84 118.1,-195.09 152,-213.5 155.93,-215.63 160.16,-217.57 164.46,-219.31"/>
<polygon fill="#63b8ff" stroke="#63b8ff" points="163.31,-222.62 173.91,-222.82 165.75,-216.06 163.31,-222.62"/>
</a>
</g>
</g>
<!-- Node5 -->
<g id="Node000005" class="node">
<title>Node5</title>
<g id="a_Node000005"><a xlink:href="structVectorPos.html#a63e862a389b3548bc5b4aedabd94540b" target="_top" xlink:title=" ">
<path fill="#fff0f0" stroke="red" d="M243.17,-204C243.17,-204 172.83,-204 172.83,-204 169.67,-204 166.5,-200.83 166.5,-197.67 166.5,-197.67 166.5,-191.33 166.5,-191.33 166.5,-188.17 169.67,-185 172.83,-185 172.83,-185 243.17,-185 243.17,-185 246.33,-185 249.5,-188.17 249.5,-191.33 249.5,-191.33 249.5,-197.67 249.5,-197.67 249.5,-200.83 246.33,-204 243.17,-204"/>
<text text-anchor="middle" x="208" y="-192" font-family="Helvetica,sans-Serif" font-size="10.00">VectorPos::lat</text>
</a>
</g>
</g>
<!-- Node1&#45;&gt;Node5 -->
<g id="edge2_Node000001_Node000005" class="edge">
<title>Node1&#45;&gt;Node5</title>
<g id="a_edge2_Node000001_Node000005"><a xlink:title=" ">
<path fill="none" stroke="#63b8ff" d="M101.34,-148.12C117.14,-154.09 135.3,-161.36 152,-167.5 163.86,-171.86 177.35,-176.28 188,-180.72"/>
<polygon fill="#63b8ff" stroke="#63b8ff" points="186.65,-183.95 197.19,-184.98 189.59,-177.6 186.65,-183.95"/>
</a>
</g>
</g>
<!-- Node1&#45;&gt;Node5 -->
<g id="edge4_Node000001_Node000005" class="edge">
<title>Node1&#45;&gt;Node5</title>
<g id="a_edge4_Node000001_Node000005"><a xlink:title=" ">
<path fill="none" stroke="#63b8ff" d="M68.68,-148.16C85.49,-159 121.22,-174.19 152,-185.5 153.59,-186.08 155.21,-186.67 156.84,-187.25"/>
<polygon fill="#63b8ff" stroke="#63b8ff" points="155.74,-190.57 166.34,-190.49 158.01,-183.95 155.74,-190.57"/>
</a>
</g>
</g>
<!-- Node6 -->
<g id="Node000006" class="node">
<title>Node6</title>
<g id="a_Node000006"><a xlink:href="structVectorPos.html#ab7ade23bd200ec4145eb389b58737dee" target="_top" xlink:title=" ">
<path fill="#fff0f0" stroke="red" d="M244.67,-167C244.67,-167 171.33,-167 171.33,-167 168.17,-167 165,-163.83 165,-160.67 165,-160.67 165,-154.33 165,-154.33 165,-151.17 168.17,-148 171.33,-148 171.33,-148 244.67,-148 244.67,-148 247.83,-148 251,-151.17 251,-154.33 251,-154.33 251,-160.67 251,-160.67 251,-163.83 247.83,-167 244.67,-167"/>
<text text-anchor="middle" x="208" y="-155" font-family="Helvetica,sans-Serif" font-size="10.00">VectorPos::lon</text>
</a>
</g>
</g>
<!-- Node1&#45;&gt;Node6 -->
<g id="edge3_Node000001_Node000006" class="edge">
<title>Node1&#45;&gt;Node6</title>
<g id="a_edge3_Node000001_Node000006"><a xlink:title=" ">
<path fill="none" stroke="#63b8ff" d="M116.22,-145.85C128.8,-147.46 142.07,-149.16 154.46,-150.75"/>
<polygon fill="#63b8ff" stroke="#63b8ff" points="154.26,-154.26 164.62,-152.06 155.15,-147.31 154.26,-154.26"/>
</a>
</g>
</g>
<!-- Node7 -->
<g id="Node000007" class="node">
<title>Node7</title>
<g id="a_Node000007"><a xlink:href="structLegendre.html#a5a8d9f92b728272375c620f652f7ea36" target="_top" xlink:title=" ">
<path fill="#fff0f0" stroke="red" d="M257.67,-130C257.67,-130 158.33,-130 158.33,-130 155.17,-130 152,-126.83 152,-123.67 152,-123.67 152,-117.33 152,-117.33 152,-114.17 155.17,-111 158.33,-111 158.33,-111 257.67,-111 257.67,-111 260.83,-111 264,-114.17 264,-117.33 264,-117.33 264,-123.67 264,-123.67 264,-126.83 260.83,-130 257.67,-130"/>
<text text-anchor="middle" x="208" y="-118" font-family="Helvetica,sans-Serif" font-size="10.00">Legendre::calculate</text>
</a>
</g>
</g>
<!-- Node1&#45;&gt;Node7 -->
<g id="edge5_Node000001_Node000007" class="edge">
<title>Node1&#45;&gt;Node7</title>
<g id="a_edge5_Node000001_Node000007"><a xlink:title=" ">
<path fill="none" stroke="#63b8ff" d="M116.22,-131.54C124.64,-130.52 133.36,-129.46 141.93,-128.41"/>
<polygon fill="#63b8ff" stroke="#63b8ff" points="142.37,-131.89 151.88,-127.2 141.53,-124.94 142.37,-131.89"/>
</a>
</g>
</g>
<!-- Node8 -->
<g id="Node000008" class="node">
<title>Node8</title>
<g id="a_Node000008"><a xlink:href="structVectorEnu.html#ae90c6dd0141c45c334e8df0f7a1eee4f" target="_top" xlink:title=" ">
<path fill="#fff0f0" stroke="red" d="M240.17,-93C240.17,-93 175.83,-93 175.83,-93 172.67,-93 169.5,-89.83 169.5,-86.67 169.5,-86.67 169.5,-80.33 169.5,-80.33 169.5,-77.17 172.67,-74 175.83,-74 175.83,-74 240.17,-74 240.17,-74 243.33,-74 246.5,-77.17 246.5,-80.33 246.5,-80.33 246.5,-86.67 246.5,-86.67 246.5,-89.83 243.33,-93 240.17,-93"/>
<text text-anchor="middle" x="208" y="-81" font-family="Helvetica,sans-Serif" font-size="10.00">VectorEnu::e</text>
</a>
</g>
</g>
<!-- Node1&#45;&gt;Node8 -->
<g id="edge6_Node000001_Node000008" class="edge">
<title>Node1&#45;&gt;Node8</title>
<g id="a_edge6_Node000001_Node000008"><a xlink:title=" ">
<path fill="none" stroke="#63b8ff" d="M82.99,-128.93C101.72,-121.53 128.43,-111.13 152,-102.5 157.53,-100.48 163.39,-98.39 169.15,-96.37"/>
<polygon fill="#63b8ff" stroke="#63b8ff" points="170.37,-99.65 178.67,-93.07 168.07,-93.04 170.37,-99.65"/>
</a>
</g>
</g>
<!-- Node9 -->
<g id="Node000009" class="node">
<title>Node9</title>
<g id="a_Node000009"><a xlink:href="structVectorEnu.html#a6909ce4148ab35bce7d6333be89bad3d" target="_top" xlink:title=" ">
<path fill="#fff0f0" stroke="red" d="M240.17,-56C240.17,-56 175.83,-56 175.83,-56 172.67,-56 169.5,-52.83 169.5,-49.67 169.5,-49.67 169.5,-43.33 169.5,-43.33 169.5,-40.17 172.67,-37 175.83,-37 175.83,-37 240.17,-37 240.17,-37 243.33,-37 246.5,-40.17 246.5,-43.33 246.5,-43.33 246.5,-49.67 246.5,-49.67 246.5,-52.83 243.33,-56 240.17,-56"/>
<text text-anchor="middle" x="208" y="-44" font-family="Helvetica,sans-Serif" font-size="10.00">VectorEnu::n</text>
</a>
</g>
</g>
<!-- Node1&#45;&gt;Node9 -->
<g id="edge7_Node000001_Node000009" class="edge">
<title>Node1&#45;&gt;Node9</title>
<g id="a_edge7_Node000001_Node000009"><a xlink:title=" ">
<path fill="none" stroke="#63b8ff" d="M68.8,-128.96C84.94,-113.7 118.66,-83.67 152,-65.5 155.9,-63.38 160.08,-61.42 164.33,-59.64"/>
<polygon fill="#63b8ff" stroke="#63b8ff" points="165.6,-62.9 173.66,-56.02 163.07,-56.37 165.6,-62.9"/>
</a>
</g>
</g>
<!-- Node10 -->
<g id="Node000010" class="node">
<title>Node10</title>
<g id="a_Node000010"><a xlink:href="structVectorEnu.html#a9dc9aa9b550edbb98110a836698a71e5" target="_top" xlink:title=" ">
<path fill="#fff0f0" stroke="red" d="M240.17,-19C240.17,-19 175.83,-19 175.83,-19 172.67,-19 169.5,-15.83 169.5,-12.67 169.5,-12.67 169.5,-6.33 169.5,-6.33 169.5,-3.17 172.67,0 175.83,0 175.83,0 240.17,0 240.17,0 243.33,0 246.5,-3.17 246.5,-6.33 246.5,-6.33 246.5,-12.67 246.5,-12.67 246.5,-15.83 243.33,-19 240.17,-19"/>
<text text-anchor="middle" x="208" y="-7" font-family="Helvetica,sans-Serif" font-size="10.00">VectorEnu::u</text>
</a>
</g>
</g>
<!-- Node1&#45;&gt;Node10 -->
<g id="edge8_Node000001_Node000010" class="edge">
<title>Node1&#45;&gt;Node10</title>
<g id="a_edge8_Node000001_Node000010"><a xlink:title=" ">
<path fill="none" stroke="#63b8ff" d="M64.67,-128.75C77.52,-107.5 110.95,-56.63 152,-28.5 154.88,-26.53 157.98,-24.74 161.2,-23.13"/>
<polygon fill="#63b8ff" stroke="#63b8ff" points="162.74,-26.27 170.46,-19.02 159.9,-19.87 162.74,-26.27"/>
</a>
</g>
</g>
</g>
</svg>
