<?xml version="1.0" encoding="UTF-8" standalone="no"?>
<!DOCTYPE svg PUBLIC "-//W3C//DTD SVG 1.1//EN"
 "http://www.w3.org/Graphics/SVG/1.1/DTD/svg11.dtd">
<!-- Generated by graphviz version 2.43.0 (0)
 -->
<!-- Title: Boost__ Pages: 1 -->
<svg width="249pt" height="27pt"
 viewBox="0.00 0.00 249.00 27.00" xmlns="http://www.w3.org/2000/svg" xmlns:xlink="http://www.w3.org/1999/xlink">
<g id="graph0" class="graph" transform="scale(1 1) rotate(0) translate(4 23)">
<title>Boost__</title>
<!-- Node1 -->
<g id="Node000001" class="node">
<title>Node1</title>
<g id="a_Node000001"><a xlink:href="Ginan_8cpp.html#a44b52eb6f1cd854c04fae132163eade8" target="_top" xlink:title="C++ Extensions.">
<polygon fill="#8888ff" stroke="#0000aa" stroke-width="2" points="241,-19 239.42,-21.11 228.33,-21.11 226.75,-19 186,-19 186,0 241,0 241,-19"/>
<text text-anchor="middle" x="213.5" y="-7" font-family="Helvetica,sans-Serif" font-size="10.00">Boost__</text>
</a>
</g>
</g>
<!-- Node2 -->
<g id="Node000002" class="node">
<title>Node2</title>
<g id="a_Node000002"><a xlink:href="Ginan_8cpp.html#ad1ea9b59f3d98f3b75d7a93ca29d4d3a" target="_top" xlink:title="3rd&#45;party libraries extend functionality.">
<polygon fill="#88ff88" stroke="#00aa00" points="150,-19 81,-19 81,0 150,0 150,-19"/>
<text text-anchor="middle" x="115.5" y="-7" font-family="Helvetica,sans-Serif" font-size="10.00">Libraries__</text>
</a>
</g>
</g>
<!-- Node1&#45;&gt;Node2 -->
<g id="edge1_Node000001_Node000002" class="edge">
<title>Node1&#45;&gt;Node2</title>
<g id="a_edge1_Node000001_Node000002"><a xlink:title=" ">
<path fill="none" stroke="#63b8ff" d="M175.56,-9.5C167.25,-9.5 158.48,-9.5 150.3,-9.5"/>
<polygon fill="#63b8ff" stroke="#63b8ff" points="175.76,-13 185.76,-9.5 175.76,-6 175.76,-13"/>
</a>
</g>
</g>
<!-- Node3 -->
<g id="Node000003" class="node">
<title>Node3</title>
<g id="a_Node000003"><a xlink:href="Ginan_8cpp.html#a59a8bad8519426f9742fa63079e4a5e9" target="_top" xlink:title="Ginan&#39;s main processing executable.">
<polygon fill="#88ff88" stroke="#00aa00" points="45,-19 0,-19 0,0 45,0 45,-19"/>
<text text-anchor="middle" x="22.5" y="-7" font-family="Helvetica,sans-Serif" font-size="10.00">Pea__</text>
</a>
</g>
</g>
<!-- Node2&#45;&gt;Node3 -->
<g id="edge2_Node000002_Node000003" class="edge">
<title>Node2&#45;&gt;Node3</title>
<g id="a_edge2_Node000002_Node000003"><a xlink:title=" ">
<path fill="none" stroke="#63b8ff" d="M70.59,-9.5C61.74,-9.5 52.8,-9.5 45.13,-9.5"/>
<polygon fill="#63b8ff" stroke="#63b8ff" points="70.87,-13 80.87,-9.5 70.87,-6 70.87,-13"/>
</a>
</g>
</g>
</g>
</svg>
