<?xml version="1.0" encoding="UTF-8" standalone="no"?>
<!DOCTYPE svg PUBLIC "-//W3C//DTD SVG 1.1//EN"
 "http://www.w3.org/Graphics/SVG/1.1/DTD/svg11.dtd">
<!-- Generated by graphviz version 2.43.0 (0)
 -->
<!-- Title: Libraries__ Pages: 1 -->
<svg width="412pt" height="323pt"
 viewBox="0.00 0.00 412.00 323.00" xmlns="http://www.w3.org/2000/svg" xmlns:xlink="http://www.w3.org/1999/xlink">
<g id="graph0" class="graph" transform="scale(1 1) rotate(0) translate(4 319)">
<title>Libraries__</title>
<!-- Node1 -->
<g id="Node000001" class="node">
<title>Node1</title>
<g id="a_Node000001"><a xlink:href="Ginan_8cpp.html#ad1ea9b59f3d98f3b75d7a93ca29d4d3a" target="_top" xlink:title="3rd&#45;party libraries extend functionality.">
<polygon fill="#88ff88" stroke="#00aa00" stroke-width="2" points="69,-167 0,-167 0,-148 69,-148 69,-167"/>
<text text-anchor="middle" x="34.5" y="-155" font-family="Helvetica,sans-Serif" font-size="10.00">Libraries__</text>
</a>
</g>
</g>
<!-- Node2 -->
<g id="Node000002" class="node">
<title>Node2</title>
<g id="a_Node000002"><a xlink:href="Ginan_8cpp.html#afb47959f4aeefc0ec3cc418fe6e35065" target="_top" xlink:title="Linear algebra library.">
<polygon fill="#8888ff" stroke="#0000aa" points="213,-315 211.42,-317.11 200.33,-317.11 198.75,-315 159,-315 159,-296 213,-296 213,-315"/>
<text text-anchor="middle" x="186" y="-303" font-family="Helvetica,sans-Serif" font-size="10.00">Eigen__</text>
</a>
</g>
</g>
<!-- Node1&#45;&gt;Node2 -->
<g id="edge1_Node000001_Node000002" class="edge">
<title>Node1&#45;&gt;Node2</title>
<g id="a_edge1_Node000001_Node000002"><a xlink:title=" ">
<path fill="none" stroke="#63b8ff" d="M37.71,-167.14C43.8,-191.48 63.25,-255.73 105,-287.5 117.4,-296.94 133.81,-301.59 148.55,-303.83"/>
<polygon fill="#63b8ff" stroke="#63b8ff" points="148.56,-307.36 158.9,-305.07 149.39,-300.41 148.56,-307.36"/>
</a>
</g>
</g>
<!-- Node3 -->
<g id="Node000003" class="node">
<title>Node3</title>
<g id="a_Node000003"><a xlink:href="Ginan_8cpp.html#acf09caf451ba7132bec24a2c359cf769" target="_top" xlink:title="YAML file&#45;format parser.">
<polygon fill="#8888ff" stroke="#0000aa" points="223,-278 221.42,-280.11 210.33,-280.11 208.75,-278 149,-278 149,-259 223,-259 223,-278"/>
<text text-anchor="middle" x="186" y="-266" font-family="Helvetica,sans-Serif" font-size="10.00">Yaml_Cpp__</text>
</a>
</g>
</g>
<!-- Node1&#45;&gt;Node3 -->
<g id="edge2_Node000001_Node000003" class="edge">
<title>Node1&#45;&gt;Node3</title>
<g id="a_edge2_Node000001_Node000003"><a xlink:title=" ">
<path fill="none" stroke="#63b8ff" d="M39.84,-167.18C48.96,-186.35 72.02,-229.12 105,-250.5 114.98,-256.97 126.96,-261.13 138.58,-263.81"/>
<polygon fill="#63b8ff" stroke="#63b8ff" points="138.15,-267.29 148.64,-265.79 139.51,-260.42 138.15,-267.29"/>
</a>
</g>
</g>
<!-- Node4 -->
<g id="Node000004" class="node">
<title>Node4</title>
<g id="a_Node000004"><a xlink:href="Ginan_8cpp.html#a44b52eb6f1cd854c04fae132163eade8" target="_top" xlink:title="C++ Extensions.">
<polygon fill="#8888ff" stroke="#0000aa" points="213.5,-241 211.92,-243.11 200.83,-243.11 199.25,-241 158.5,-241 158.5,-222 213.5,-222 213.5,-241"/>
<text text-anchor="middle" x="186" y="-229" font-family="Helvetica,sans-Serif" font-size="10.00">Boost__</text>
</a>
</g>
</g>
<!-- Node1&#45;&gt;Node4 -->
<g id="edge3_Node000001_Node000004" class="edge">
<title>Node1&#45;&gt;Node4</title>
<g id="a_edge3_Node000001_Node000004"><a xlink:title=" ">
<path fill="none" stroke="#63b8ff" d="M44.42,-167.01C56.8,-179.62 80.44,-201.64 105,-213.5 118.51,-220.02 134.46,-224.23 148.55,-226.92"/>
<polygon fill="#63b8ff" stroke="#63b8ff" points="147.97,-230.37 158.42,-228.62 149.16,-223.47 147.97,-230.37"/>
</a>
</g>
</g>
<!-- Node6 -->
<g id="Node000006" class="node">
<title>Node6</title>
<g id="a_Node000006"><a xlink:href="Ginan_8cpp.html#aa0c7dac4f680a00d7bb077372bc71084" target="_top" xlink:title="Analytic reference frame and timing routines.">
<polygon fill="#8888ff" stroke="#0000aa" points="210.5,-204 208.92,-206.11 197.83,-206.11 196.25,-204 161.5,-204 161.5,-185 210.5,-185 210.5,-204"/>
<text text-anchor="middle" x="186" y="-192" font-family="Helvetica,sans-Serif" font-size="10.00">Sofa__</text>
</a>
</g>
</g>
<!-- Node1&#45;&gt;Node6 -->
<g id="edge5_Node000001_Node000006" class="edge">
<title>Node1&#45;&gt;Node6</title>
<g id="a_edge5_Node000001_Node000006"><a xlink:title=" ">
<path fill="none" stroke="#63b8ff" d="M69,-166.99C80.4,-170.13 93.23,-173.57 105,-176.5 120.23,-180.29 137.18,-184.16 151.54,-187.33"/>
<polygon fill="#63b8ff" stroke="#63b8ff" points="150.96,-190.78 161.48,-189.5 152.46,-183.95 150.96,-190.78"/>
</a>
</g>
</g>
<!-- Node7 -->
<g id="Node000007" class="node">
<title>Node7</title>
<g id="a_Node000007"><a xlink:href="Ginan_8cpp.html#a14985c4da659775dd661145a40a30e11" target="_top" xlink:title=" ">
<polygon fill="#8888ff" stroke="#0000aa" points="267,-167 265.42,-169.11 254.33,-169.11 252.75,-167 105,-167 105,-148 267,-148 267,-167"/>
<text text-anchor="middle" x="186" y="-155" font-family="Helvetica,sans-Serif" font-size="10.00">JPL_Planetary_Ephemerides__</text>
</a>
</g>
</g>
<!-- Node1&#45;&gt;Node7 -->
<g id="edge6_Node000001_Node000007" class="edge">
<title>Node1&#45;&gt;Node7</title>
<g id="a_edge6_Node000001_Node000007"><a xlink:title=" ">
<path fill="none" stroke="#63b8ff" d="M69.05,-157.5C76.87,-157.5 85.56,-157.5 94.57,-157.5"/>
<polygon fill="#63b8ff" stroke="#63b8ff" points="94.85,-161 104.85,-157.5 94.85,-154 94.85,-161"/>
</a>
</g>
</g>
<!-- Node8 -->
<g id="Node000008" class="node">
<title>Node8</title>
<g id="a_Node000008"><a xlink:href="Ginan_8cpp.html#aa2139f7962c40d9a5d110da4906d54aa" target="_top" xlink:title=" ">
<polygon fill="#8888ff" stroke="#0000aa" points="222.5,-130 220.92,-132.11 209.83,-132.11 208.25,-130 149.5,-130 149.5,-111 222.5,-111 222.5,-130"/>
<text text-anchor="middle" x="186" y="-118" font-family="Helvetica,sans-Serif" font-size="10.00">IERS2010__</text>
</a>
</g>
</g>
<!-- Node1&#45;&gt;Node8 -->
<g id="edge7_Node000001_Node000008" class="edge">
<title>Node1&#45;&gt;Node8</title>
<g id="a_edge7_Node000001_Node000008"><a xlink:title=" ">
<path fill="none" stroke="#63b8ff" d="M69.05,-148.67C80.45,-145.7 93.27,-142.41 105,-139.5 116.03,-136.76 127.94,-133.89 139.11,-131.23"/>
<polygon fill="#63b8ff" stroke="#63b8ff" points="140.2,-134.57 149.12,-128.86 138.58,-127.76 140.2,-134.57"/>
</a>
</g>
</g>
<!-- Node9 -->
<g id="Node000009" class="node">
<title>Node9</title>
<g id="a_Node000009"><a xlink:href="Ginan_8cpp.html#a589e666f3993f46aa871ce08ef3c10d9" target="_top" xlink:title="C++ MongoDB API.">
<polygon fill="#8888ff" stroke="#0000aa" points="225.5,-93 223.92,-95.11 212.83,-95.11 211.25,-93 146.5,-93 146.5,-74 225.5,-74 225.5,-93"/>
<text text-anchor="middle" x="186" y="-81" font-family="Helvetica,sans-Serif" font-size="10.00">MongoCxx__</text>
</a>
</g>
</g>
<!-- Node1&#45;&gt;Node9 -->
<g id="edge8_Node000001_Node000009" class="edge">
<title>Node1&#45;&gt;Node9</title>
<g id="a_edge8_Node000001_Node000009"><a xlink:title=" ">
<path fill="none" stroke="#63b8ff" d="M44.91,-147.78C57.46,-135.39 80.91,-114.18 105,-102.5 114.73,-97.78 125.72,-94.19 136.35,-91.48"/>
<polygon fill="#63b8ff" stroke="#63b8ff" points="137.45,-94.81 146.39,-89.13 135.86,-88 137.45,-94.81"/>
</a>
</g>
</g>
<!-- Node10 -->
<g id="Node000010" class="node">
<title>Node10</title>
<g id="a_Node000010"><a xlink:href="Ginan_8cpp.html#ae9bddec85264aa6e825206040b8184e1" target="_top" xlink:title="Automated source code documentation generator.">
<polygon fill="#8888ff" stroke="#0000aa" points="221.5,-56 219.92,-58.11 208.83,-58.11 207.25,-56 150.5,-56 150.5,-37 221.5,-37 221.5,-56"/>
<text text-anchor="middle" x="186" y="-44" font-family="Helvetica,sans-Serif" font-size="10.00">Doxygen__</text>
</a>
</g>
</g>
<!-- Node1&#45;&gt;Node10 -->
<g id="edge9_Node000001_Node000010" class="edge">
<title>Node1&#45;&gt;Node10</title>
<g id="a_edge9_Node000001_Node000010"><a xlink:title=" ">
<path fill="none" stroke="#63b8ff" d="M39.89,-147.95C49.1,-129.05 72.32,-86.84 105,-65.5 115.46,-58.67 128.11,-54.29 140.24,-51.48"/>
<polygon fill="#63b8ff" stroke="#63b8ff" points="141.13,-54.87 150.25,-49.47 139.75,-48.01 141.13,-54.87"/>
</a>
</g>
</g>
<!-- Node11 -->
<g id="Node000011" class="node">
<title>Node11</title>
<g id="a_Node000011"><a xlink:href="Ginan_8cpp.html#aa2395b269853a0f3e33b384ec1566021" target="_top" xlink:title="GNSS processing toolkit.">
<polygon fill="#8888ff" stroke="#0000aa" points="216,-19 214.42,-21.11 203.33,-21.11 201.75,-19 156,-19 156,0 216,0 216,-19"/>
<text text-anchor="middle" x="186" y="-7" font-family="Helvetica,sans-Serif" font-size="10.00">RTKLib__</text>
</a>
</g>
</g>
<!-- Node1&#45;&gt;Node11 -->
<g id="edge10_Node000001_Node000011" class="edge">
<title>Node1&#45;&gt;Node11</title>
<g id="a_edge10_Node000001_Node000011"><a xlink:title=" ">
<path fill="none" stroke="#63b8ff" d="M37.75,-147.96C43.95,-123.88 63.64,-60.26 105,-28.5 116.66,-19.54 131.89,-14.72 145.93,-12.15"/>
<polygon fill="#63b8ff" stroke="#63b8ff" points="146.5,-15.6 155.87,-10.65 145.46,-8.68 146.5,-15.6"/>
</a>
</g>
</g>
<!-- Node5 -->
<g id="Node000005" class="node">
<title>Node5</title>
<g id="a_Node000005"><a xlink:href="algebraTrace_8cpp.html#a26cbe32ecdc0d1af8afc182528de5f31" target="_top" xlink:title="Save complex variables to files.">
<polygon fill="#88ff88" stroke="#00aa00" points="404,-241 303,-241 303,-222 404,-222 404,-241"/>
<text text-anchor="middle" x="353.5" y="-229" font-family="Helvetica,sans-Serif" font-size="10.00">Binary_Archive__</text>
</a>
</g>
</g>
<!-- Node4&#45;&gt;Node5 -->
<g id="edge4_Node000004_Node000005" class="edge">
<title>Node4&#45;&gt;Node5</title>
<g id="a_edge4_Node000004_Node000005"><a xlink:title=" ">
<path fill="none" stroke="#63b8ff" d="M213.59,-231.5C234.9,-231.5 265.62,-231.5 292.75,-231.5"/>
<polygon fill="#63b8ff" stroke="#63b8ff" points="292.94,-235 302.94,-231.5 292.94,-228 292.94,-235"/>
</a>
</g>
</g>
</g>
</svg>
