<?xml version="1.0" encoding="UTF-8" standalone="no"?>
<!DOCTYPE svg PUBLIC "-//W3C//DTD SVG 1.1//EN"
 "http://www.w3.org/Graphics/SVG/1.1/DTD/svg11.dtd">
<!-- Generated by graphviz version 2.43.0 (0)
 -->
<!-- Title: Pea__ Pages: 1 -->
<svg width="467pt" height="1157pt"
 viewBox="0.00 0.00 467.00 1156.56" xmlns="http://www.w3.org/2000/svg" xmlns:xlink="http://www.w3.org/1999/xlink">
<g id="graph0" class="graph" transform="scale(1 1) rotate(0) translate(4 1152.56)">
<title>Pea__</title>
<!-- Node1 -->
<g id="Node000001" class="node">
<title>Node1</title>
<g id="a_Node000001"><a xlink:href="Ginan_8cpp.html#a59a8bad8519426f9742fa63079e4a5e9" target="_top" xlink:title="Ginan&#39;s main processing executable.">
<polygon fill="#88ff88" stroke="#00aa00" stroke-width="2" points="45,-599.56 0,-599.56 0,-580.56 45,-580.56 45,-599.56"/>
<text text-anchor="middle" x="22.5" y="-587.56" font-family="Helvetica,sans-Serif" font-size="10.00">Pea__</text>
</a>
</g>
</g>
<!-- Node2 -->
<g id="Node000002" class="node">
<title>Node2</title>
<g id="a_Node000002"><a xlink:href="Ginan_8cpp.html#ad1ea9b59f3d98f3b75d7a93ca29d4d3a" target="_top" xlink:title="3rd&#45;party libraries extend functionality.">
<polygon fill="#88ff88" stroke="#00aa00" points="203,-981.56 134,-981.56 134,-962.56 203,-962.56 203,-981.56"/>
<text text-anchor="middle" x="168.5" y="-969.56" font-family="Helvetica,sans-Serif" font-size="10.00">Libraries__</text>
</a>
</g>
</g>
<!-- Node1&#45;&gt;Node2 -->
<g id="edge1_Node000001_Node000002" class="edge">
<title>Node1&#45;&gt;Node2</title>
<g id="a_edge1_Node000001_Node000002"><a xlink:title=" ">
<path fill="none" stroke="#63b8ff" d="M26.34,-599.7C34.29,-626.38 57.66,-703.41 81,-766.06 107.01,-835.87 142.67,-916.87 158.87,-952.98"/>
<polygon fill="#63b8ff" stroke="#63b8ff" points="155.77,-954.63 163.07,-962.31 162.16,-951.76 155.77,-954.63"/>
</a>
</g>
</g>
<!-- Node13 -->
<g id="Node000013" class="node">
<title>Node13</title>
<g id="a_Node000013"><a xlink:href="acsConfig_8cpp.html#ae92af27db5dcd388f3d7ef53d96f1f51" target="_top" xlink:title="YAML based configuration.">
<polygon fill="#88ff88" stroke="#00aa00" points="197.5,-756.56 139.5,-756.56 139.5,-737.56 197.5,-737.56 197.5,-756.56"/>
<text text-anchor="middle" x="168.5" y="-744.56" font-family="Helvetica,sans-Serif" font-size="10.00">Config__</text>
</a>
</g>
</g>
<!-- Node1&#45;&gt;Node13 -->
<g id="edge11_Node000001_Node000013" class="edge">
<title>Node1&#45;&gt;Node13</title>
<g id="a_edge11_Node000001_Node000013"><a xlink:title=" ">
<path fill="none" stroke="#63b8ff" d="M30.13,-599.68C40.39,-614.33 61.02,-642.87 81,-665.06 102.85,-689.33 130.64,-714.84 148.74,-730.84"/>
<polygon fill="#63b8ff" stroke="#63b8ff" points="146.49,-733.52 156.31,-737.48 151.1,-728.26 146.49,-733.52"/>
</a>
</g>
</g>
<!-- Node17 -->
<g id="Node000017" class="node">
<title>Node17</title>
<g id="a_Node000017"><a xlink:href="inputs_8cpp.html#a3f8b2c6b14e9c0440a9f26006979eb42" target="_top" xlink:title=" ">
<polygon fill="#ffc770" stroke="#ff8f00" points="208.5,-655.56 134.83,-655.56 134.83,-657.67 128.5,-657.67 128.5,-636.56 208.5,-636.56 208.5,-655.56"/>
<polyline fill="none" stroke="#ff8f00" points="128.5,-655.56 134.83,-655.56 "/>
<text text-anchor="middle" x="168.5" y="-643.56" font-family="Helvetica,sans-Serif" font-size="10.00">Input_Files__</text>
</a>
</g>
</g>
<!-- Node1&#45;&gt;Node17 -->
<g id="edge15_Node000001_Node000017" class="edge">
<title>Node1&#45;&gt;Node17</title>
<g id="a_edge15_Node000001_Node000017"><a xlink:title=" ">
<path fill="none" stroke="#63b8ff" d="M35.08,-599.64C46.19,-608.35 63.77,-620.89 81,-628.06 92.73,-632.95 105.93,-636.56 118.42,-639.2"/>
<polygon fill="#63b8ff" stroke="#63b8ff" points="117.75,-642.64 128.24,-641.13 119.1,-635.77 117.75,-642.64"/>
</a>
</g>
</g>
<!-- Node28 -->
<g id="Node000028" class="node">
<title>Node28</title>
<g id="a_Node000028"><a xlink:href="main_8cpp.html#a6569312eb882688f16b76afafe5a2cee" target="_top" xlink:title="Retrieve data from streams and process together once per epoch.">
<polygon fill="#88ff88" stroke="#00aa00" points="256,-618.56 81,-618.56 81,-599.56 256,-599.56 256,-618.56"/>
<text text-anchor="middle" x="168.5" y="-606.56" font-family="Helvetica,sans-Serif" font-size="10.00">Streams_And_Synchronisation__</text>
</a>
</g>
</g>
<!-- Node1&#45;&gt;Node28 -->
<g id="edge19_Node000001_Node000028" class="edge">
<title>Node1&#45;&gt;Node28</title>
<g id="a_edge19_Node000001_Node000028"><a xlink:title=" ">
<path fill="none" stroke="#63b8ff" d="M45.06,-592.91C56.09,-594.36 70.29,-596.24 85.09,-598.19"/>
<polygon fill="#63b8ff" stroke="#63b8ff" points="85.03,-601.71 95.4,-599.55 85.94,-594.77 85.03,-601.71"/>
</a>
</g>
</g>
<!-- Node29 -->
<g id="Node000029" class="node">
<title>Node29</title>
<g id="a_Node000029"><a xlink:href="preprocessor_8cpp.html#ada86c114890b8228a687807983a2d0d3" target="_top" xlink:title="Perform basic quality checks on observations.">
<polygon fill="#88ff88" stroke="#00aa00" points="216,-581.56 121,-581.56 121,-562.56 216,-562.56 216,-581.56"/>
<text text-anchor="middle" x="168.5" y="-569.56" font-family="Helvetica,sans-Serif" font-size="10.00">Preprocessing__</text>
</a>
</g>
</g>
<!-- Node1&#45;&gt;Node29 -->
<g id="edge20_Node000001_Node000029" class="edge">
<title>Node1&#45;&gt;Node29</title>
<g id="a_edge20_Node000001_Node000029"><a xlink:title=" ">
<path fill="none" stroke="#63b8ff" d="M45.06,-587.37C62.42,-585.2 87.64,-582.05 110.69,-579.16"/>
<polygon fill="#63b8ff" stroke="#63b8ff" points="111.25,-582.62 120.74,-577.91 110.39,-575.67 111.25,-582.62"/>
</a>
</g>
</g>
<!-- Node32 -->
<g id="Node000032" class="node">
<title>Node32</title>
<g id="a_Node000032"><a xlink:href="Ginan_8cpp.html#a7b5924de2294fef5088b63d0c98afc14" target="_top" xlink:title=" ">
<polygon fill="#88ff88" stroke="#00aa00" points="226.5,-544.56 110.5,-544.56 110.5,-525.56 226.5,-525.56 226.5,-544.56"/>
<text text-anchor="middle" x="168.5" y="-532.56" font-family="Helvetica,sans-Serif" font-size="10.00">State_Propagation__</text>
</a>
</g>
</g>
<!-- Node1&#45;&gt;Node32 -->
<g id="edge23_Node000001_Node000032" class="edge">
<title>Node1&#45;&gt;Node32</title>
<g id="a_edge23_Node000001_Node000032"><a xlink:title=" ">
<path fill="none" stroke="#63b8ff" d="M36.05,-580.42C47.26,-572.25 64.43,-560.83 81,-554.06 87.31,-551.48 94.03,-549.23 100.83,-547.26"/>
<polygon fill="#63b8ff" stroke="#63b8ff" points="102.06,-550.56 110.81,-544.58 100.24,-543.8 102.06,-550.56"/>
</a>
</g>
</g>
<!-- Node34 -->
<g id="Node000034" class="node">
<title>Node34</title>
<g id="a_Node000034"><a xlink:href="ppppp_8cpp.html#a806c4571abfde8d490598ec186768d7f" target="_top" xlink:title="Primary estimation and filtering.">
<polygon fill="#88ff88" stroke="#00aa00" points="209,-433.56 128,-433.56 128,-414.56 209,-414.56 209,-433.56"/>
<text text-anchor="middle" x="168.5" y="-421.56" font-family="Helvetica,sans-Serif" font-size="10.00">Main_Filter__</text>
</a>
</g>
</g>
<!-- Node1&#45;&gt;Node34 -->
<g id="edge25_Node000001_Node000034" class="edge">
<title>Node1&#45;&gt;Node34</title>
<g id="a_edge25_Node000001_Node000034"><a xlink:title=" ">
<path fill="none" stroke="#63b8ff" d="M30.7,-580.41C41.36,-566.25 62.11,-539.12 81,-517.06 104.38,-489.76 133.07,-459.51 150.81,-441.15"/>
<polygon fill="#63b8ff" stroke="#63b8ff" points="153.69,-443.21 158.14,-433.6 148.66,-438.34 153.69,-443.21"/>
</a>
</g>
</g>
<!-- Node41 -->
<g id="Node000041" class="node">
<title>Node41</title>
<g id="a_Node000041"><a xlink:href="outputs_8cpp.html#a6cd5e5db4d14fd454e8a75fea48e0a84" target="_top" xlink:title=" ">
<polygon fill="#ffc770" stroke="#ff8f00" points="201,-174.56 142.33,-174.56 142.33,-176.67 136,-176.67 136,-155.56 201,-155.56 201,-174.56"/>
<polyline fill="none" stroke="#ff8f00" points="136,-174.56 142.33,-174.56 "/>
<text text-anchor="middle" x="168.5" y="-162.56" font-family="Helvetica,sans-Serif" font-size="10.00">Outputs__</text>
</a>
</g>
</g>
<!-- Node1&#45;&gt;Node41 -->
<g id="edge32_Node000001_Node000041" class="edge">
<title>Node1&#45;&gt;Node41</title>
<g id="a_edge32_Node000001_Node000041"><a xlink:title=" ">
<path fill="none" stroke="#63b8ff" d="M26.35,-580.44C34.5,-553.05 58.75,-472.38 81,-406.06 108.91,-322.88 145.2,-224.72 160.36,-184.11"/>
<polygon fill="#63b8ff" stroke="#63b8ff" points="163.67,-185.25 163.89,-174.65 157.11,-182.79 163.67,-185.25"/>
</a>
</g>
</g>
<!-- Node3 -->
<g id="Node000003" class="node">
<title>Node3</title>
<g id="a_Node000003"><a xlink:href="Ginan_8cpp.html#afb47959f4aeefc0ec3cc418fe6e35065" target="_top" xlink:title="Linear algebra library.">
<polygon fill="#8888ff" stroke="#0000aa" points="402.5,-1148.56 400.92,-1150.67 389.83,-1150.67 388.25,-1148.56 348.5,-1148.56 348.5,-1129.56 402.5,-1129.56 402.5,-1148.56"/>
<text text-anchor="middle" x="375.5" y="-1136.56" font-family="Helvetica,sans-Serif" font-size="10.00">Eigen__</text>
</a>
</g>
</g>
<!-- Node2&#45;&gt;Node3 -->
<g id="edge2_Node000002_Node000003" class="edge">
<title>Node2&#45;&gt;Node3</title>
<g id="a_edge2_Node000002_Node000003"><a xlink:title=" ">
<path fill="none" stroke="#63b8ff" d="M174.33,-981.59C188.43,-1008.35 232.29,-1084.55 292,-1121.06 305.82,-1129.51 323.08,-1134.02 338.24,-1136.42"/>
<polygon fill="#63b8ff" stroke="#63b8ff" points="337.95,-1139.91 348.32,-1137.76 338.87,-1132.97 337.95,-1139.91"/>
</a>
</g>
</g>
<!-- Node4 -->
<g id="Node000004" class="node">
<title>Node4</title>
<g id="a_Node000004"><a xlink:href="Ginan_8cpp.html#acf09caf451ba7132bec24a2c359cf769" target="_top" xlink:title="YAML file&#45;format parser.">
<polygon fill="#8888ff" stroke="#0000aa" points="412.5,-1111.56 410.92,-1113.67 399.83,-1113.67 398.25,-1111.56 338.5,-1111.56 338.5,-1092.56 412.5,-1092.56 412.5,-1111.56"/>
<text text-anchor="middle" x="375.5" y="-1099.56" font-family="Helvetica,sans-Serif" font-size="10.00">Yaml_Cpp__</text>
</a>
</g>
</g>
<!-- Node2&#45;&gt;Node4 -->
<g id="edge3_Node000002_Node000004" class="edge">
<title>Node2&#45;&gt;Node4</title>
<g id="a_edge3_Node000002_Node000004"><a xlink:title=" ">
<path fill="none" stroke="#63b8ff" d="M176.91,-981.66C194.38,-1003.58 240.56,-1057.43 292,-1084.06 303.09,-1089.8 315.93,-1093.72 328.12,-1096.38"/>
<polygon fill="#63b8ff" stroke="#63b8ff" points="327.68,-1099.86 338.17,-1098.34 329.02,-1092.99 327.68,-1099.86"/>
</a>
</g>
</g>
<!-- Node5 -->
<g id="Node000005" class="node">
<title>Node5</title>
<g id="a_Node000005"><a xlink:href="Ginan_8cpp.html#a44b52eb6f1cd854c04fae132163eade8" target="_top" xlink:title="C++ Extensions.">
<polygon fill="#8888ff" stroke="#0000aa" points="403,-1074.56 401.42,-1076.67 390.33,-1076.67 388.75,-1074.56 348,-1074.56 348,-1055.56 403,-1055.56 403,-1074.56"/>
<text text-anchor="middle" x="375.5" y="-1062.56" font-family="Helvetica,sans-Serif" font-size="10.00">Boost__</text>
</a>
</g>
</g>
<!-- Node2&#45;&gt;Node5 -->
<g id="edge4_Node000002_Node000005" class="edge">
<title>Node2&#45;&gt;Node5</title>
<g id="a_edge4_Node000002_Node000005"><a xlink:title=" ">
<path fill="none" stroke="#63b8ff" d="M181.97,-981.68C203.31,-997.67 248.73,-1029.68 292,-1047.06 306.45,-1052.87 323.11,-1056.96 337.66,-1059.75"/>
<polygon fill="#63b8ff" stroke="#63b8ff" points="337.36,-1063.25 347.82,-1061.56 338.59,-1056.36 337.36,-1063.25"/>
</a>
</g>
</g>
<!-- Node7 -->
<g id="Node000007" class="node">
<title>Node7</title>
<g id="a_Node000007"><a xlink:href="Ginan_8cpp.html#aa0c7dac4f680a00d7bb077372bc71084" target="_top" xlink:title="Analytic reference frame and timing routines.">
<polygon fill="#8888ff" stroke="#0000aa" points="400,-1037.56 398.42,-1039.67 387.33,-1039.67 385.75,-1037.56 351,-1037.56 351,-1018.56 400,-1018.56 400,-1037.56"/>
<text text-anchor="middle" x="375.5" y="-1025.56" font-family="Helvetica,sans-Serif" font-size="10.00">Sofa__</text>
</a>
</g>
</g>
<!-- Node2&#45;&gt;Node7 -->
<g id="edge5_Node000002_Node000007" class="edge">
<title>Node2&#45;&gt;Node7</title>
<g id="a_edge5_Node000002_Node000007"><a xlink:title=" ">
<path fill="none" stroke="#63b8ff" d="M198.01,-981.67C222.71,-989.81 259.49,-1001.49 292,-1010.06 308.01,-1014.28 325.95,-1018.28 341,-1021.44"/>
<polygon fill="#63b8ff" stroke="#63b8ff" points="340.4,-1024.89 350.9,-1023.48 341.81,-1018.03 340.4,-1024.89"/>
</a>
</g>
</g>
<!-- Node8 -->
<g id="Node000008" class="node">
<title>Node8</title>
<g id="a_Node000008"><a xlink:href="Ginan_8cpp.html#a14985c4da659775dd661145a40a30e11" target="_top" xlink:title=" ">
<polygon fill="#8888ff" stroke="#0000aa" points="456.5,-1000.56 454.92,-1002.67 443.83,-1002.67 442.25,-1000.56 294.5,-1000.56 294.5,-981.56 456.5,-981.56 456.5,-1000.56"/>
<text text-anchor="middle" x="375.5" y="-988.56" font-family="Helvetica,sans-Serif" font-size="10.00">JPL_Planetary_Ephemerides__</text>
</a>
</g>
</g>
<!-- Node2&#45;&gt;Node8 -->
<g id="edge6_Node000002_Node000008" class="edge">
<title>Node2&#45;&gt;Node8</title>
<g id="a_edge6_Node000002_Node000008"><a xlink:title=" ">
<path fill="none" stroke="#63b8ff" d="M203.35,-975.2C225.43,-977.25 255.36,-980.02 284.03,-982.68"/>
<polygon fill="#63b8ff" stroke="#63b8ff" points="283.82,-986.17 294.1,-983.61 284.46,-979.2 283.82,-986.17"/>
</a>
</g>
</g>
<!-- Node9 -->
<g id="Node000009" class="node">
<title>Node9</title>
<g id="a_Node000009"><a xlink:href="Ginan_8cpp.html#aa2139f7962c40d9a5d110da4906d54aa" target="_top" xlink:title=" ">
<polygon fill="#8888ff" stroke="#0000aa" points="412,-963.56 410.42,-965.67 399.33,-965.67 397.75,-963.56 339,-963.56 339,-944.56 412,-944.56 412,-963.56"/>
<text text-anchor="middle" x="375.5" y="-951.56" font-family="Helvetica,sans-Serif" font-size="10.00">IERS2010__</text>
</a>
</g>
</g>
<!-- Node2&#45;&gt;Node9 -->
<g id="edge7_Node000002_Node000009" class="edge">
<title>Node2&#45;&gt;Node9</title>
<g id="a_edge7_Node000002_Node000009"><a xlink:title=" ">
<path fill="none" stroke="#63b8ff" d="M203.35,-969.09C237.55,-966.09 290.62,-961.43 328.59,-958.09"/>
<polygon fill="#63b8ff" stroke="#63b8ff" points="329.22,-961.55 338.88,-957.19 328.61,-954.58 329.22,-961.55"/>
</a>
</g>
</g>
<!-- Node10 -->
<g id="Node000010" class="node">
<title>Node10</title>
<g id="a_Node000010"><a xlink:href="Ginan_8cpp.html#a589e666f3993f46aa871ce08ef3c10d9" target="_top" xlink:title="C++ MongoDB API.">
<polygon fill="#8888ff" stroke="#0000aa" points="415,-926.56 413.42,-928.67 402.33,-928.67 400.75,-926.56 336,-926.56 336,-907.56 415,-907.56 415,-926.56"/>
<text text-anchor="middle" x="375.5" y="-914.56" font-family="Helvetica,sans-Serif" font-size="10.00">MongoCxx__</text>
</a>
</g>
</g>
<!-- Node2&#45;&gt;Node10 -->
<g id="edge8_Node000002_Node000010" class="edge">
<title>Node2&#45;&gt;Node10</title>
<g id="a_edge8_Node000002_Node000010"><a xlink:title=" ">
<path fill="none" stroke="#63b8ff" d="M200.07,-962.53C224.77,-954.96 260.48,-944.32 292,-936.06 302.89,-933.21 314.64,-930.37 325.77,-927.78"/>
<polygon fill="#63b8ff" stroke="#63b8ff" points="326.81,-931.13 335.77,-925.48 325.24,-924.31 326.81,-931.13"/>
</a>
</g>
</g>
<!-- Node11 -->
<g id="Node000011" class="node">
<title>Node11</title>
<g id="a_Node000011"><a xlink:href="Ginan_8cpp.html#ae9bddec85264aa6e825206040b8184e1" target="_top" xlink:title="Automated source code documentation generator.">
<polygon fill="#8888ff" stroke="#0000aa" points="411,-889.56 409.42,-891.67 398.33,-891.67 396.75,-889.56 340,-889.56 340,-870.56 411,-870.56 411,-889.56"/>
<text text-anchor="middle" x="375.5" y="-877.56" font-family="Helvetica,sans-Serif" font-size="10.00">Doxygen__</text>
</a>
</g>
</g>
<!-- Node2&#45;&gt;Node11 -->
<g id="edge9_Node000002_Node000011" class="edge">
<title>Node2&#45;&gt;Node11</title>
<g id="a_edge9_Node000002_Node000011"><a xlink:title=" ">
<path fill="none" stroke="#63b8ff" d="M182.38,-962.52C203.96,-946.98 249.27,-916.22 292,-899.06 303.83,-894.31 317.11,-890.6 329.5,-887.77"/>
<polygon fill="#63b8ff" stroke="#63b8ff" points="330.61,-891.11 339.65,-885.59 329.14,-884.27 330.61,-891.11"/>
</a>
</g>
</g>
<!-- Node12 -->
<g id="Node000012" class="node">
<title>Node12</title>
<g id="a_Node000012"><a xlink:href="Ginan_8cpp.html#aa2395b269853a0f3e33b384ec1566021" target="_top" xlink:title="GNSS processing toolkit.">
<polygon fill="#8888ff" stroke="#0000aa" points="405.5,-852.56 403.92,-854.67 392.83,-854.67 391.25,-852.56 345.5,-852.56 345.5,-833.56 405.5,-833.56 405.5,-852.56"/>
<text text-anchor="middle" x="375.5" y="-840.56" font-family="Helvetica,sans-Serif" font-size="10.00">RTKLib__</text>
</a>
</g>
</g>
<!-- Node2&#45;&gt;Node12 -->
<g id="edge10_Node000002_Node000012" class="edge">
<title>Node2&#45;&gt;Node12</title>
<g id="a_edge10_Node000002_Node000012"><a xlink:title=" ">
<path fill="none" stroke="#63b8ff" d="M177.24,-962.36C195.04,-940.73 241.27,-888.41 292,-862.06 305.33,-855.14 321.16,-850.72 335.38,-847.9"/>
<polygon fill="#63b8ff" stroke="#63b8ff" points="336.15,-851.32 345.39,-846.12 334.93,-844.43 336.15,-851.32"/>
</a>
</g>
</g>
<!-- Node14 -->
<g id="Node000014" class="node">
<title>Node14</title>
<g id="a_Node000014"><a xlink:href="acsConfig_8cpp.html#a4ffbdfb38acaf4c2163815381bf3fb89" target="_top" xlink:title="Automatic expansion of configs.">
<polygon fill="#88ff88" stroke="#00aa00" points="436.5,-815.56 314.5,-815.56 314.5,-796.56 436.5,-796.56 436.5,-815.56"/>
<text text-anchor="middle" x="375.5" y="-803.56" font-family="Helvetica,sans-Serif" font-size="10.00">Globbing_And_Tags__</text>
</a>
</g>
</g>
<!-- Node13&#45;&gt;Node14 -->
<g id="edge12_Node000013_Node000014" class="edge">
<title>Node13&#45;&gt;Node14</title>
<g id="a_edge12_Node000013_Node000014"><a xlink:title=" ">
<path fill="none" stroke="#63b8ff" d="M195.53,-756.69C220.16,-765.58 258.27,-778.77 292,-788.06 300.02,-790.27 308.55,-792.39 316.96,-794.34"/>
<polygon fill="#63b8ff" stroke="#63b8ff" points="316.21,-797.76 326.73,-796.56 317.75,-790.94 316.21,-797.76"/>
</a>
</g>
</g>
<!-- Node15 -->
<g id="Node000015" class="node">
<title>Node15</title>
<g id="a_Node000015"><a xlink:href="acsConfig_8cpp.html#a57142261136f5897c47c628a876837a7" target="_top" xlink:title="Some configuration structures are possible to be configured specific for eg a receiver or signal or c...">
<polygon fill="#88ff88" stroke="#00aa00" points="448.5,-778.56 302.5,-778.56 302.5,-759.56 448.5,-759.56 448.5,-778.56"/>
<text text-anchor="middle" x="375.5" y="-766.56" font-family="Helvetica,sans-Serif" font-size="10.00">Aliases_And_Inheritance__</text>
</a>
</g>
</g>
<!-- Node13&#45;&gt;Node15 -->
<g id="edge13_Node000013_Node000015" class="edge">
<title>Node13&#45;&gt;Node15</title>
<g id="a_edge13_Node000013_Node000015"><a xlink:title=" ">
<path fill="none" stroke="#63b8ff" d="M197.57,-750.08C221.92,-752.69 258.42,-756.61 291.96,-760.2"/>
<polygon fill="#63b8ff" stroke="#63b8ff" points="291.94,-763.72 302.26,-761.31 292.69,-756.76 291.94,-763.72"/>
</a>
</g>
</g>
<!-- Node16 -->
<g id="Node000016" class="node">
<title>Node16</title>
<g id="a_Node000016"><a xlink:href="acsConfig_8cpp.html#a46e5e771dfbdcafbb98f322bd67a0bff" target="_top" xlink:title="Each configuration parameter is defined with a default initialisation value which is most sensible fo...">
<polygon fill="#88ff88" stroke="#00aa00" points="432.5,-741.06 318.5,-741.06 318.5,-711.06 432.5,-711.06 432.5,-741.06"/>
<text text-anchor="start" x="326.5" y="-729.06" font-family="Helvetica,sans-Serif" font-size="10.00">Default_Values_And</text>
<text text-anchor="middle" x="375.5" y="-718.06" font-family="Helvetica,sans-Serif" font-size="10.00">_Configurator__</text>
</a>
</g>
</g>
<!-- Node13&#45;&gt;Node16 -->
<g id="edge14_Node000013_Node000016" class="edge">
<title>Node13&#45;&gt;Node16</title>
<g id="a_edge14_Node000013_Node000016"><a xlink:title=" ">
<path fill="none" stroke="#63b8ff" d="M197.57,-744.19C225.84,-741.29 270.49,-736.72 307.86,-732.89"/>
<polygon fill="#63b8ff" stroke="#63b8ff" points="308.6,-736.33 318.19,-731.83 307.88,-729.37 308.6,-736.33"/>
</a>
</g>
</g>
<!-- Node18 -->
<g id="Node000018" class="node">
<title>Node18</title>
<g id="a_Node000018"><a xlink:href="ubxDecoder_8cpp.html#a98af07cd7c15e736163cadc831936fb7" target="_top" xlink:title=" ">
<polygon fill="#ffc770" stroke="#ff8f00" points="396.33,-692.56 351.5,-692.56 351.5,-673.56 399.5,-673.56 399.5,-689.4 396.33,-692.56"/>
<polyline fill="none" stroke="#ff8f00" points="396.33,-692.56 396.33,-689.4 "/>
<polyline fill="none" stroke="#ff8f00" points="399.5,-689.4 396.33,-689.4 "/>
<text text-anchor="middle" x="375.5" y="-680.56" font-family="Helvetica,sans-Serif" font-size="10.00">UBX__</text>
</a>
</g>
</g>
<!-- Node17&#45;&gt;Node18 -->
<g id="edge16_Node000017_Node000018" class="edge">
<title>Node17&#45;&gt;Node18</title>
<g id="a_edge16_Node000017_Node000018"><a xlink:title=" ">
<path fill="none" stroke="#63b8ff" d="M208.54,-653.11C246.92,-660.04 304.87,-670.5 341.16,-677.04"/>
<polygon fill="#63b8ff" stroke="#63b8ff" points="340.77,-680.53 351.23,-678.86 342.01,-673.64 340.77,-680.53"/>
</a>
</g>
</g>
<!-- Node19 -->
<g id="Node000019" class="node">
<title>Node19</title>
<g id="a_Node000019"><a xlink:href="acsConfig_8cpp.html#a0687bbe75589698dcaf1909950703f2f" target="_top" xlink:title=" ">
<polygon fill="#ffc770" stroke="#ff8f00" points="398.83,-655.56 349,-655.56 349,-636.56 402,-636.56 402,-652.4 398.83,-655.56"/>
<polyline fill="none" stroke="#ff8f00" points="398.83,-655.56 398.83,-652.4 "/>
<polyline fill="none" stroke="#ff8f00" points="402,-652.4 398.83,-652.4 "/>
<text text-anchor="middle" x="375.5" y="-643.56" font-family="Helvetica,sans-Serif" font-size="10.00">YAML__</text>
</a>
</g>
</g>
<!-- Node17&#45;&gt;Node19 -->
<g id="edge17_Node000017_Node000019" class="edge">
<title>Node17&#45;&gt;Node19</title>
<g id="a_edge17_Node000017_Node000019"><a xlink:title=" ">
<path fill="none" stroke="#63b8ff" d="M208.54,-646.06C246.08,-646.06 302.33,-646.06 338.73,-646.06"/>
<polygon fill="#63b8ff" stroke="#63b8ff" points="338.89,-649.56 348.89,-646.06 338.89,-642.56 338.89,-649.56"/>
</a>
</g>
</g>
<!-- Node20 -->
<g id="Node000020" class="node">
<title>Node20</title>
<g id="a_Node000020"><a xlink:href="Ginan_8cpp.html#a637a31e8501122706a266ba2e89f2684" target="_top" xlink:title=" ">
<polygon fill="#ffc770" stroke="#ff8f00" points="407.83,-248.56 340,-248.56 340,-229.56 411,-229.56 411,-245.4 407.83,-248.56"/>
<polyline fill="none" stroke="#ff8f00" points="407.83,-248.56 407.83,-245.4 "/>
<polyline fill="none" stroke="#ff8f00" points="411,-245.4 407.83,-245.4 "/>
<text text-anchor="middle" x="375.5" y="-236.56" font-family="Helvetica,sans-Serif" font-size="10.00">IGS_Files__</text>
</a>
</g>
</g>
<!-- Node17&#45;&gt;Node20 -->
<g id="edge18_Node000017_Node000020" class="edge">
<title>Node17&#45;&gt;Node20</title>
<g id="a_edge18_Node000017_Node000020"><a xlink:title=" ">
<path fill="none" stroke="#63b8ff" d="M208.6,-647.65C225.57,-646.16 244.22,-641.19 256,-628.06 311.31,-566.4 236.99,-318.99 292,-257.06 301.48,-246.39 315.68,-241.23 329.65,-238.94"/>
<polygon fill="#63b8ff" stroke="#63b8ff" points="330.18,-242.4 339.7,-237.74 329.35,-235.45 330.18,-242.4"/>
</a>
</g>
</g>
<!-- Node30 -->
<g id="Node000030" class="node">
<title>Node30</title>
<g id="a_Node000030"><a xlink:href="preprocessor_8cpp.html#ab17618d9937719736076fbd1e12c53cd" target="_top" xlink:title="Use linear combinations of primary signals to detect jumps in carrier phase observations.">
<polygon fill="#88ff88" stroke="#00aa00" points="440.5,-618.56 310.5,-618.56 310.5,-599.56 440.5,-599.56 440.5,-618.56"/>
<text text-anchor="middle" x="375.5" y="-606.56" font-family="Helvetica,sans-Serif" font-size="10.00">Cycle_Slip_Detection__</text>
</a>
</g>
</g>
<!-- Node29&#45;&gt;Node30 -->
<g id="edge21_Node000029_Node000030" class="edge">
<title>Node29&#45;&gt;Node30</title>
<g id="a_edge21_Node000029_Node000030"><a xlink:title=" ">
<path fill="none" stroke="#63b8ff" d="M216.02,-580.46C244.25,-585.55 280.65,-592.12 311.45,-597.68"/>
<polygon fill="#63b8ff" stroke="#63b8ff" points="311.2,-601.19 321.66,-599.53 312.44,-594.31 311.2,-601.19"/>
</a>
</g>
</g>
<!-- Node31 -->
<g id="Node000031" class="node">
<title>Node31</title>
<g id="a_Node000031"><a xlink:href="spp_8cpp.html#a78c00131ae97c18e54cabc8c45a43f5b" target="_top" xlink:title=" ">
<polygon fill="#88ff88" stroke="#00aa00" points="398,-581.56 353,-581.56 353,-562.56 398,-562.56 398,-581.56"/>
<text text-anchor="middle" x="375.5" y="-569.56" font-family="Helvetica,sans-Serif" font-size="10.00">SPP__</text>
</a>
</g>
</g>
<!-- Node29&#45;&gt;Node31 -->
<g id="edge22_Node000029_Node000031" class="edge">
<title>Node29&#45;&gt;Node31</title>
<g id="a_edge22_Node000029_Node000031"><a xlink:title=" ">
<path fill="none" stroke="#63b8ff" d="M216.02,-572.06C254.71,-572.06 308.76,-572.06 342.68,-572.06"/>
<polygon fill="#63b8ff" stroke="#63b8ff" points="342.94,-575.56 352.94,-572.06 342.94,-568.56 342.94,-575.56"/>
</a>
</g>
</g>
<!-- Node33 -->
<g id="Node000033" class="node">
<title>Node33</title>
<g id="a_Node000033"><a xlink:href="orbitProp_8cpp.html#a98af3c9c870069b16141208082c569b6" target="_top" xlink:title=" ">
<polygon fill="#88ff88" stroke="#00aa00" points="427.5,-544.56 323.5,-544.56 323.5,-525.56 427.5,-525.56 427.5,-544.56"/>
<text text-anchor="middle" x="375.5" y="-532.56" font-family="Helvetica,sans-Serif" font-size="10.00">Orbit_Integrator__</text>
</a>
</g>
</g>
<!-- Node32&#45;&gt;Node33 -->
<g id="edge24_Node000032_Node000033" class="edge">
<title>Node32&#45;&gt;Node33</title>
<g id="a_edge24_Node000032_Node000033"><a xlink:title=" ">
<path fill="none" stroke="#63b8ff" d="M226.6,-535.06C253.5,-535.06 285.62,-535.06 313.04,-535.06"/>
<polygon fill="#63b8ff" stroke="#63b8ff" points="313.3,-538.56 323.3,-535.06 313.3,-531.56 313.3,-538.56"/>
</a>
</g>
</g>
<!-- Node35 -->
<g id="Node000035" class="node">
<title>Node35</title>
<g id="a_Node000035"><a xlink:href="ppp__obs_8cpp.html#ada5fe24ea6a0478bd24de2f008d9edca" target="_top" xlink:title=" ">
<polygon fill="#88ff88" stroke="#00aa00" points="459,-507.56 294.11,-507.56 292,-505.45 292,-488.56 456.89,-488.56 459,-490.67 459,-507.56"/>
<polyline fill="none" stroke="#00aa00" points="456.89,-505.45 292,-505.45 "/>
<polyline fill="none" stroke="#00aa00" points="456.89,-505.45 456.89,-488.56 "/>
<polyline fill="none" stroke="#00aa00" points="456.89,-505.45 459,-507.56 "/>
<text text-anchor="middle" x="375.5" y="-495.56" font-family="Helvetica,sans-Serif" font-size="10.00">UDUC_GNSS_Measurements__</text>
</a>
</g>
</g>
<!-- Node34&#45;&gt;Node35 -->
<g id="edge26_Node000034_Node000035" class="edge">
<title>Node34&#45;&gt;Node35</title>
<g id="a_edge26_Node000034_Node000035"><a xlink:title=" ">
<path fill="none" stroke="#63b8ff" d="M187.27,-433.66C210.68,-445.95 253.4,-467.19 292,-480.06 298.54,-482.24 305.46,-484.23 312.41,-486.02"/>
<polygon fill="#63b8ff" stroke="#63b8ff" points="312,-489.53 322.55,-488.5 313.67,-482.73 312,-489.53"/>
</a>
</g>
</g>
<!-- Node36 -->
<g id="Node000036" class="node">
<title>Node36</title>
<g id="a_Node000036"><a xlink:href="ppp__slr_8cpp.html#a594a00fc9ba865f562fba4ee11cedc2a" target="_top" xlink:title="Satellite Laser Ranging.">
<polygon fill="#88ff88" stroke="#00aa00" points="437,-470.56 316.11,-470.56 314,-468.45 314,-451.56 434.89,-451.56 437,-453.67 437,-470.56"/>
<polyline fill="none" stroke="#00aa00" points="434.89,-468.45 314,-468.45 "/>
<polyline fill="none" stroke="#00aa00" points="434.89,-468.45 434.89,-451.56 "/>
<polyline fill="none" stroke="#00aa00" points="434.89,-468.45 437,-470.56 "/>
<text text-anchor="middle" x="375.5" y="-458.56" font-family="Helvetica,sans-Serif" font-size="10.00">SLR_Mesaurements__</text>
</a>
</g>
</g>
<!-- Node34&#45;&gt;Node36 -->
<g id="edge27_Node000034_Node000036" class="edge">
<title>Node34&#45;&gt;Node36</title>
<g id="a_edge27_Node000034_Node000036"><a xlink:title=" ">
<path fill="none" stroke="#63b8ff" d="M209.03,-431.2C238.02,-436.43 278,-443.64 311.39,-449.67"/>
<polygon fill="#63b8ff" stroke="#63b8ff" points="311.06,-453.17 321.52,-451.5 312.3,-446.28 311.06,-453.17"/>
</a>
</g>
</g>
<!-- Node37 -->
<g id="Node000037" class="node">
<title>Node37</title>
<g id="a_Node000037"><a xlink:href="ppppp_8cpp.html#ad03fbb733b994516cac4c58913ab3c76" target="_top" xlink:title=" ">
<polygon fill="#88ff88" stroke="#00aa00" points="420,-433.56 331,-433.56 331,-414.56 420,-414.56 420,-433.56"/>
<text text-anchor="middle" x="375.5" y="-421.56" font-family="Helvetica,sans-Serif" font-size="10.00">Combinators__</text>
</a>
</g>
</g>
<!-- Node34&#45;&gt;Node37 -->
<g id="edge28_Node000034_Node000037" class="edge">
<title>Node34&#45;&gt;Node37</title>
<g id="a_edge28_Node000034_Node000037"><a xlink:title=" ">
<path fill="none" stroke="#63b8ff" d="M209.03,-424.06C240.79,-424.06 285.74,-424.06 320.77,-424.06"/>
<polygon fill="#63b8ff" stroke="#63b8ff" points="320.84,-427.56 330.84,-424.06 320.84,-420.56 320.84,-427.56"/>
</a>
</g>
</g>
<!-- Node38 -->
<g id="Node000038" class="node">
<title>Node38</title>
<g id="a_Node000038"><a xlink:href="ppp__pseudoobs_8cpp.html#a89c2ced133f3d935edea1e0601d74876" target="_top" xlink:title=" ">
<polygon fill="#88ff88" stroke="#00aa00" points="441.5,-396.56 309.5,-396.56 309.5,-377.56 441.5,-377.56 441.5,-396.56"/>
<text text-anchor="middle" x="375.5" y="-384.56" font-family="Helvetica,sans-Serif" font-size="10.00">Pseudo_Observations__</text>
</a>
</g>
</g>
<!-- Node34&#45;&gt;Node38 -->
<g id="edge29_Node000034_Node000038" class="edge">
<title>Node34&#45;&gt;Node38</title>
<g id="a_edge29_Node000034_Node000038"><a xlink:title=" ">
<path fill="none" stroke="#63b8ff" d="M209.03,-416.93C238.02,-411.7 278,-404.48 311.39,-398.45"/>
<polygon fill="#63b8ff" stroke="#63b8ff" points="312.3,-401.84 321.52,-396.62 311.06,-394.96 312.3,-401.84"/>
</a>
</g>
</g>
<!-- Node39 -->
<g id="Node000039" class="node">
<title>Node39</title>
<g id="a_Node000039"><a xlink:href="algebra_8cpp.html#a4f61fee46942aeff4254e6e547ddf18c" target="_top" xlink:title="Kalman Filter.">
<polygon fill="#88ff88" stroke="#00aa00" points="423,-359.56 330.11,-359.56 328,-357.45 328,-340.56 420.89,-340.56 423,-342.67 423,-359.56"/>
<polyline fill="none" stroke="#00aa00" points="420.89,-357.45 328,-357.45 "/>
<polyline fill="none" stroke="#00aa00" points="420.89,-357.45 420.89,-340.56 "/>
<polyline fill="none" stroke="#00aa00" points="420.89,-357.45 423,-359.56 "/>
<text text-anchor="middle" x="375.5" y="-347.56" font-family="Helvetica,sans-Serif" font-size="10.00">Kalman_Filter__</text>
</a>
</g>
</g>
<!-- Node34&#45;&gt;Node39 -->
<g id="edge30_Node000034_Node000039" class="edge">
<title>Node34&#45;&gt;Node39</title>
<g id="a_edge30_Node000034_Node000039"><a xlink:title=" ">
<path fill="none" stroke="#63b8ff" d="M187.72,-414.52C211.27,-402.51 253.77,-381.91 292,-369.06 300.3,-366.27 309.21,-363.75 317.99,-361.53"/>
<polygon fill="#63b8ff" stroke="#63b8ff" points="318.91,-364.9 327.8,-359.14 317.26,-358.1 318.91,-364.9"/>
</a>
</g>
</g>
<!-- Node40 -->
<g id="Node000040" class="node">
<title>Node40</title>
<g id="a_Node000040"><a xlink:href="Ginan_8cpp.html#aebeda650bc9e3e6d087a3fc6590641f0" target="_top" xlink:title=" ">
<polygon fill="#88ff88" stroke="#00aa00" points="425,-322.56 326,-322.56 326,-303.56 425,-303.56 425,-322.56"/>
<text text-anchor="middle" x="375.5" y="-310.56" font-family="Helvetica,sans-Serif" font-size="10.00">Error_Handling__</text>
</a>
</g>
</g>
<!-- Node34&#45;&gt;Node40 -->
<g id="edge31_Node000034_Node000040" class="edge">
<title>Node34&#45;&gt;Node40</title>
<g id="a_edge31_Node000034_Node000040"><a xlink:title=" ">
<path fill="none" stroke="#63b8ff" d="M179.34,-414.32C198.99,-395.43 245.21,-353.82 292,-332.06 299.57,-328.54 307.84,-325.65 316.12,-323.28"/>
<polygon fill="#63b8ff" stroke="#63b8ff" points="317.04,-326.66 325.82,-320.73 315.26,-319.89 317.04,-326.66"/>
</a>
</g>
</g>
<!-- Node41&#45;&gt;Node20 -->
<g id="edge34_Node000041_Node000020" class="edge">
<title>Node41&#45;&gt;Node20</title>
<g id="a_edge34_Node000041_Node000020"><a xlink:title=" ">
<path fill="none" stroke="#63b8ff" d="M187.72,-174.61C211.27,-186.61 253.77,-207.22 292,-220.06 304.08,-224.12 317.45,-227.61 329.84,-230.45"/>
<polygon fill="#63b8ff" stroke="#63b8ff" points="329.45,-233.95 339.96,-232.68 330.95,-227.11 329.45,-233.95"/>
</a>
</g>
</g>
<!-- Node42 -->
<g id="Node000042" class="node">
<title>Node42</title>
<g id="a_Node000042"><a xlink:href="trace_8cpp.html#ad47125490368116bd3e166cfc0a689f6" target="_top" xlink:title="Semi&#45;formatted text&#45;based outputs.">
<polygon fill="#ffc770" stroke="#ff8f00" points="412.33,-285.56 335.5,-285.56 335.5,-266.56 415.5,-266.56 415.5,-282.4 412.33,-285.56"/>
<polyline fill="none" stroke="#ff8f00" points="412.33,-285.56 412.33,-282.4 "/>
<polyline fill="none" stroke="#ff8f00" points="415.5,-282.4 412.33,-282.4 "/>
<text text-anchor="middle" x="375.5" y="-273.56" font-family="Helvetica,sans-Serif" font-size="10.00">Trace_Files__</text>
</a>
</g>
</g>
<!-- Node41&#45;&gt;Node42 -->
<g id="edge33_Node000041_Node000042" class="edge">
<title>Node41&#45;&gt;Node42</title>
<g id="a_edge33_Node000041_Node000042"><a xlink:title=" ">
<path fill="none" stroke="#63b8ff" d="M179.34,-174.81C198.99,-193.69 245.21,-235.31 292,-257.06 302.31,-261.85 313.91,-265.49 325.1,-268.22"/>
<polygon fill="#63b8ff" stroke="#63b8ff" points="324.67,-271.71 335.2,-270.48 326.2,-264.88 324.67,-271.71"/>
</a>
</g>
</g>
<!-- Node43 -->
<g id="Node000043" class="node">
<title>Node43</title>
<g id="a_Node000043"><a xlink:href="gpx_8cpp.html#abeded60a0c58bf826f9c657c8e2c1300" target="_top" xlink:title=" ">
<polygon fill="#ffc770" stroke="#ff8f00" points="395.83,-211.56 352,-211.56 352,-192.56 399,-192.56 399,-208.4 395.83,-211.56"/>
<polyline fill="none" stroke="#ff8f00" points="395.83,-211.56 395.83,-208.4 "/>
<polyline fill="none" stroke="#ff8f00" points="399,-208.4 395.83,-208.4 "/>
<text text-anchor="middle" x="375.5" y="-199.56" font-family="Helvetica,sans-Serif" font-size="10.00">GPX__</text>
</a>
</g>
</g>
<!-- Node41&#45;&gt;Node43 -->
<g id="edge35_Node000041_Node000043" class="edge">
<title>Node41&#45;&gt;Node43</title>
<g id="a_edge35_Node000041_Node000043"><a xlink:title=" ">
<path fill="none" stroke="#63b8ff" d="M201.08,-170.76C239.17,-177.64 302.88,-189.14 341.56,-196.12"/>
<polygon fill="#63b8ff" stroke="#63b8ff" points="341.31,-199.63 351.77,-197.96 342.55,-192.74 341.31,-199.63"/>
</a>
</g>
</g>
<!-- Node44 -->
<g id="Node000044" class="node">
<title>Node44</title>
<g id="a_Node000044"><a xlink:href="Ginan_8cpp.html#ac82f96ee92a4e47f3c69d588e5e1ee03" target="_top" xlink:title=" ">
<polygon fill="#ffc770" stroke="#ff8f00" points="397.83,-174.56 350,-174.56 350,-155.56 401,-155.56 401,-171.4 397.83,-174.56"/>
<polyline fill="none" stroke="#ff8f00" points="397.83,-174.56 397.83,-171.4 "/>
<polyline fill="none" stroke="#ff8f00" points="401,-171.4 397.83,-171.4 "/>
<text text-anchor="middle" x="375.5" y="-162.56" font-family="Helvetica,sans-Serif" font-size="10.00">JSON__</text>
</a>
</g>
</g>
<!-- Node41&#45;&gt;Node44 -->
<g id="edge36_Node000041_Node000044" class="edge">
<title>Node41&#45;&gt;Node44</title>
<g id="a_edge36_Node000041_Node000044"><a xlink:title=" ">
<path fill="none" stroke="#63b8ff" d="M201.08,-165.06C238.55,-165.06 300.83,-165.06 339.67,-165.06"/>
<polygon fill="#63b8ff" stroke="#63b8ff" points="339.96,-168.56 349.96,-165.06 339.96,-161.56 339.96,-168.56"/>
</a>
</g>
</g>
<!-- Node45 -->
<g id="Node000045" class="node">
<title>Node45</title>
<g id="a_Node000045"><a xlink:href="cost_8cpp.html#a1c73087806f083c987c0e791a1263738" target="_top" xlink:title=" ">
<polygon fill="#ffc770" stroke="#ff8f00" points="398.83,-137.56 349,-137.56 349,-118.56 402,-118.56 402,-134.4 398.83,-137.56"/>
<polyline fill="none" stroke="#ff8f00" points="398.83,-137.56 398.83,-134.4 "/>
<polyline fill="none" stroke="#ff8f00" points="402,-134.4 398.83,-134.4 "/>
<text text-anchor="middle" x="375.5" y="-125.56" font-family="Helvetica,sans-Serif" font-size="10.00">COST__</text>
</a>
</g>
</g>
<!-- Node41&#45;&gt;Node45 -->
<g id="edge37_Node000041_Node000045" class="edge">
<title>Node41&#45;&gt;Node45</title>
<g id="a_edge37_Node000041_Node000045"><a xlink:title=" ">
<path fill="none" stroke="#63b8ff" d="M201.08,-159.36C238.3,-152.64 299.99,-141.51 338.88,-134.49"/>
<polygon fill="#63b8ff" stroke="#63b8ff" points="339.51,-137.94 348.73,-132.71 338.26,-131.05 339.51,-137.94"/>
</a>
</g>
</g>
<!-- Node46 -->
<g id="Node000046" class="node">
<title>Node46</title>
<g id="a_Node000046"><a xlink:href="rtcmDecoder_8cpp.html#a86269987a67664557b35764919fd334b" target="_top" xlink:title=" ">
<polygon fill="#ffc770" stroke="#ff8f00" points="399.33,-100.56 348.5,-100.56 348.5,-81.56 402.5,-81.56 402.5,-97.4 399.33,-100.56"/>
<polyline fill="none" stroke="#ff8f00" points="399.33,-100.56 399.33,-97.4 "/>
<polyline fill="none" stroke="#ff8f00" points="402.5,-97.4 399.33,-97.4 "/>
<text text-anchor="middle" x="375.5" y="-88.56" font-family="Helvetica,sans-Serif" font-size="10.00">RTCM__</text>
</a>
</g>
</g>
<!-- Node41&#45;&gt;Node46 -->
<g id="edge38_Node000041_Node000046" class="edge">
<title>Node41&#45;&gt;Node46</title>
<g id="a_edge38_Node000041_Node000046"><a xlink:title=" ">
<path fill="none" stroke="#63b8ff" d="M187.27,-155.47C210.68,-143.18 253.4,-121.93 292,-109.06 306.88,-104.1 323.74,-100.14 338.32,-97.21"/>
<polygon fill="#63b8ff" stroke="#63b8ff" points="339.31,-100.59 348.48,-95.26 338,-93.71 339.31,-100.59"/>
</a>
</g>
</g>
<!-- Node47 -->
<g id="Node000047" class="node">
<title>Node47</title>
<g id="a_Node000047"><a xlink:href="pos_8cpp.html#a64301cfe8699c63ec7930233b39f65e0" target="_top" xlink:title=" ">
<polygon fill="#ffc770" stroke="#ff8f00" points="395.83,-63.56 352,-63.56 352,-44.56 399,-44.56 399,-60.4 395.83,-63.56"/>
<polyline fill="none" stroke="#ff8f00" points="395.83,-63.56 395.83,-60.4 "/>
<polyline fill="none" stroke="#ff8f00" points="399,-60.4 395.83,-60.4 "/>
<text text-anchor="middle" x="375.5" y="-51.56" font-family="Helvetica,sans-Serif" font-size="10.00">POS__</text>
</a>
</g>
</g>
<!-- Node41&#45;&gt;Node47 -->
<g id="edge39_Node000041_Node000047" class="edge">
<title>Node41&#45;&gt;Node47</title>
<g id="a_edge39_Node000041_Node000047"><a xlink:title=" ">
<path fill="none" stroke="#63b8ff" d="M179,-155.45C198.39,-136.41 244.72,-93.87 292,-72.06 307.58,-64.88 326.15,-60.5 341.72,-57.87"/>
<polygon fill="#63b8ff" stroke="#63b8ff" points="342.59,-61.27 351.95,-56.31 341.54,-54.35 342.59,-61.27"/>
</a>
</g>
</g>
<!-- Node48 -->
<g id="Node000048" class="node">
<title>Node48</title>
<g id="a_Node000048"><a xlink:href="mongo_8cpp.html#ac25d7a53dfa925957f12845afd38f5b0" target="_top" xlink:title="Persistant formatted storage and inter&#45;process communication.">
<path fill="#ffc770" stroke="#ff8f00" d="M431.5,-23.8C431.5,-25.12 406.4,-26.19 375.5,-26.19 344.6,-26.19 319.5,-25.12 319.5,-23.8 319.5,-23.8 319.5,-2.32 319.5,-2.32 319.5,-1.01 344.6,0.06 375.5,0.06 406.4,0.06 431.5,-1.01 431.5,-2.32 431.5,-2.32 431.5,-23.8 431.5,-23.8"/>
<path fill="none" stroke="#ff8f00" d="M431.5,-23.8C431.5,-22.48 406.4,-21.41 375.5,-21.41 344.6,-21.41 319.5,-22.48 319.5,-23.8"/>
<text text-anchor="middle" x="375.5" y="-10.56" font-family="Helvetica,sans-Serif" font-size="10.00">Mongo_Database__</text>
</a>
</g>
</g>
<!-- Node41&#45;&gt;Node48 -->
<g id="edge40_Node000041_Node000048" class="edge">
<title>Node41&#45;&gt;Node48</title>
<g id="a_edge40_Node000041_Node000048"><a xlink:title=" ">
<path fill="none" stroke="#63b8ff" d="M175.65,-155.52C191.69,-131.4 237.4,-67.63 292,-35.06 297.43,-31.82 303.34,-29.05 309.42,-26.68"/>
<polygon fill="#63b8ff" stroke="#63b8ff" points="310.8,-29.91 319.07,-23.28 308.48,-23.31 310.8,-29.91"/>
</a>
</g>
</g>
</g>
</svg>
