<?xml version="1.0" encoding="UTF-8" standalone="no"?>
<!DOCTYPE svg PUBLIC "-//W3C//DTD SVG 1.1//EN"
 "http://www.w3.org/Graphics/SVG/1.1/DTD/svg11.dtd">
<!-- Generated by graphviz version 2.43.0 (0)
 -->
<!-- Title: Ginan__ Pages: 1 -->
<svg width="558pt" height="399pt"
 viewBox="0.00 0.00 558.00 399.00" xmlns="http://www.w3.org/2000/svg" xmlns:xlink="http://www.w3.org/1999/xlink">
<g id="graph0" class="graph" transform="scale(1 1) rotate(0) translate(4 395)">
<title>Ginan__</title>
<!-- Node1 -->
<g id="Node000001" class="node">
<title>Node1</title>
<g id="a_Node000001"><a xlink:href="Ginan_8cpp.html#a5bdf8cdda721ab07dcd6033a15eeba3c" target="_top" xlink:title="Ginan is a toolkit for processing GNSS measurements to produce precise positioning products.">
<polygon fill="#88ff88" stroke="#00aa00" stroke-width="2" points="56,-94 0,-94 0,-75 56,-75 56,-94"/>
<text text-anchor="middle" x="28" y="-82" font-family="Helvetica,sans-Serif" font-size="10.00">Ginan__</text>
</a>
</g>
</g>
<!-- Node2 -->
<g id="Node000002" class="node">
<title>Node2</title>
<g id="a_Node000002"><a xlink:href="Ginan_8cpp.html#a59a8bad8519426f9742fa63079e4a5e9" target="_top" xlink:title="Ginan&#39;s main processing executable.">
<polygon fill="#88ff88" stroke="#00aa00" points="164,-243 119,-243 119,-224 164,-224 164,-243"/>
<text text-anchor="middle" x="141.5" y="-231" font-family="Helvetica,sans-Serif" font-size="10.00">Pea__</text>
</a>
</g>
</g>
<!-- Node1&#45;&gt;Node2 -->
<g id="edge1_Node000001_Node000002" class="edge">
<title>Node1&#45;&gt;Node2</title>
<g id="a_edge1_Node000001_Node000002"><a xlink:title=" ">
<path fill="none" stroke="#63b8ff" d="M36.32,-94.28C54.75,-118.91 103.31,-183.8 127.05,-215.53"/>
<polygon fill="#63b8ff" stroke="#63b8ff" points="124.51,-217.97 133.3,-223.88 130.11,-213.78 124.51,-217.97"/>
</a>
</g>
</g>
<!-- Node49 -->
<g id="Node000049" class="node">
<title>Node49</title>
<g id="a_Node000049"><a xlink:href="mongo_8cpp.html#ac25d7a53dfa925957f12845afd38f5b0" target="_top" xlink:title="Persistant formatted storage and inter&#45;process communication.">
<path fill="#ffc770" stroke="#ff8f00" d="M550,-95.24C550,-96.56 524.9,-97.63 494,-97.63 463.1,-97.63 438,-96.56 438,-95.24 438,-95.24 438,-73.76 438,-73.76 438,-72.44 463.1,-71.37 494,-71.37 524.9,-71.37 550,-72.44 550,-73.76 550,-73.76 550,-95.24 550,-95.24"/>
<path fill="none" stroke="#ff8f00" d="M550,-95.24C550,-93.92 524.9,-92.85 494,-92.85 463.1,-92.85 438,-93.92 438,-95.24"/>
<text text-anchor="middle" x="494" y="-82" font-family="Helvetica,sans-Serif" font-size="10.00">Mongo_Database__</text>
</a>
</g>
</g>
<!-- Node1&#45;&gt;Node49 -->
<g id="edge11_Node000001_Node000049" class="edge">
<title>Node1&#45;&gt;Node49</title>
<g id="a_edge11_Node000001_Node000049"><a xlink:title=" ">
<path fill="none" stroke="#63b8ff" d="M56.29,-84.5C128.22,-84.5 324.52,-84.5 427.68,-84.5"/>
<polygon fill="#63b8ff" stroke="#63b8ff" points="427.97,-88 437.97,-84.5 427.97,-81 427.97,-88"/>
</a>
</g>
</g>
<!-- Node50 -->
<g id="Node000050" class="node">
<title>Node50</title>
<g id="a_Node000050"><a xlink:href="Ginan_8cpp.html#a41e457d7b9634e671454da85de6ec311" target="_top" xlink:title="Utility scripts and visualisations.">
<polygon fill="#88ff88" stroke="#00aa00" points="191,-56 92,-56 92,-37 191,-37 191,-56"/>
<text text-anchor="middle" x="141.5" y="-44" font-family="Helvetica,sans-Serif" font-size="10.00">Python_Scripts__</text>
</a>
</g>
</g>
<!-- Node1&#45;&gt;Node50 -->
<g id="edge12_Node000001_Node000050" class="edge">
<title>Node1&#45;&gt;Node50</title>
<g id="a_edge12_Node000001_Node000050"><a xlink:title=" ">
<path fill="none" stroke="#63b8ff" d="M56.28,-75.2C70.24,-70.45 87.46,-64.58 102.68,-59.39"/>
<polygon fill="#63b8ff" stroke="#63b8ff" points="104.01,-62.64 112.34,-56.1 101.75,-56.01 104.01,-62.64"/>
</a>
</g>
</g>
<!-- Node3 -->
<g id="Node000003" class="node">
<title>Node3</title>
<g id="a_Node000003"><a xlink:href="Ginan_8cpp.html#ad1ea9b59f3d98f3b75d7a93ca29d4d3a" target="_top" xlink:title="3rd&#45;party libraries extend functionality.">
<polygon fill="#88ff88" stroke="#00aa00" points="349,-391 280,-391 280,-372 349,-372 349,-391"/>
<text text-anchor="middle" x="314.5" y="-379" font-family="Helvetica,sans-Serif" font-size="10.00">Libraries__</text>
</a>
</g>
</g>
<!-- Node2&#45;&gt;Node3 -->
<g id="edge2_Node000002_Node000003" class="edge">
<title>Node2&#45;&gt;Node3</title>
<g id="a_edge2_Node000002_Node000003"><a xlink:title=" ">
<path fill="none" stroke="#63b8ff" d="M145.8,-243.21C154.67,-267.73 181.45,-332.35 227,-363.5 239.55,-372.08 255.35,-376.72 270,-379.18"/>
<polygon fill="#63b8ff" stroke="#63b8ff" points="269.52,-382.64 279.91,-380.55 270.48,-375.71 269.52,-382.64"/>
</a>
</g>
</g>
<!-- Node14 -->
<g id="Node000014" class="node">
<title>Node14</title>
<g id="a_Node000014"><a xlink:href="acsConfig_8cpp.html#ae92af27db5dcd388f3d7ef53d96f1f51" target="_top" xlink:title="YAML based configuration.">
<polygon fill="#88ff88" stroke="#00aa00" points="343.5,-354 285.5,-354 285.5,-335 343.5,-335 343.5,-354"/>
<text text-anchor="middle" x="314.5" y="-342" font-family="Helvetica,sans-Serif" font-size="10.00">Config__</text>
</a>
</g>
</g>
<!-- Node2&#45;&gt;Node14 -->
<g id="edge3_Node000002_Node000014" class="edge">
<title>Node2&#45;&gt;Node14</title>
<g id="a_edge3_Node000002_Node000014"><a xlink:title=" ">
<path fill="none" stroke="#63b8ff" d="M148.32,-243.23C160.37,-262.48 190.07,-305.39 227,-326.5 241.64,-334.87 259.65,-339.37 275.45,-341.78"/>
<polygon fill="#63b8ff" stroke="#63b8ff" points="275.08,-345.26 285.45,-343.08 275.98,-338.32 275.08,-345.26"/>
</a>
</g>
</g>
<!-- Node18 -->
<g id="Node000018" class="node">
<title>Node18</title>
<g id="a_Node000018"><a xlink:href="inputs_8cpp.html#a3f8b2c6b14e9c0440a9f26006979eb42" target="_top" xlink:title=" ">
<polygon fill="#ffc770" stroke="#ff8f00" points="354.5,-317 280.83,-317 280.83,-319.11 274.5,-319.11 274.5,-298 354.5,-298 354.5,-317"/>
<polyline fill="none" stroke="#ff8f00" points="274.5,-317 280.83,-317 "/>
<text text-anchor="middle" x="314.5" y="-305" font-family="Helvetica,sans-Serif" font-size="10.00">Input_Files__</text>
</a>
</g>
</g>
<!-- Node2&#45;&gt;Node18 -->
<g id="edge4_Node000002_Node000018" class="edge">
<title>Node2&#45;&gt;Node18</title>
<g id="a_edge4_Node000002_Node000018"><a xlink:title=" ">
<path fill="none" stroke="#63b8ff" d="M153.99,-243.21C169.53,-255.83 198.58,-277.64 227,-289.5 238.73,-294.39 251.93,-298 264.41,-300.65"/>
<polygon fill="#63b8ff" stroke="#63b8ff" points="263.75,-304.09 274.23,-302.57 265.09,-297.22 263.75,-304.09"/>
</a>
</g>
</g>
<!-- Node29 -->
<g id="Node000029" class="node">
<title>Node29</title>
<g id="a_Node000029"><a xlink:href="main_8cpp.html#a6569312eb882688f16b76afafe5a2cee" target="_top" xlink:title="Retrieve data from streams and process together once per epoch.">
<polygon fill="#88ff88" stroke="#00aa00" points="402,-280 227,-280 227,-261 402,-261 402,-280"/>
<text text-anchor="middle" x="314.5" y="-268" font-family="Helvetica,sans-Serif" font-size="10.00">Streams_And_Synchronisation__</text>
</a>
</g>
</g>
<!-- Node2&#45;&gt;Node29 -->
<g id="edge5_Node000002_Node000029" class="edge">
<title>Node2&#45;&gt;Node29</title>
<g id="a_edge5_Node000002_Node000029"><a xlink:title=" ">
<path fill="none" stroke="#63b8ff" d="M164.01,-238.44C181.08,-242.33 205.54,-247.86 227,-252.5 236.67,-254.59 246.96,-256.77 256.94,-258.87"/>
<polygon fill="#63b8ff" stroke="#63b8ff" points="256.28,-262.3 266.78,-260.92 257.71,-255.45 256.28,-262.3"/>
</a>
</g>
</g>
<!-- Node30 -->
<g id="Node000030" class="node">
<title>Node30</title>
<g id="a_Node000030"><a xlink:href="preprocessor_8cpp.html#ada86c114890b8228a687807983a2d0d3" target="_top" xlink:title="Perform basic quality checks on observations.">
<polygon fill="#88ff88" stroke="#00aa00" points="362,-243 267,-243 267,-224 362,-224 362,-243"/>
<text text-anchor="middle" x="314.5" y="-231" font-family="Helvetica,sans-Serif" font-size="10.00">Preprocessing__</text>
</a>
</g>
</g>
<!-- Node2&#45;&gt;Node30 -->
<g id="edge6_Node000002_Node000030" class="edge">
<title>Node2&#45;&gt;Node30</title>
<g id="a_edge6_Node000002_Node000030"><a xlink:title=" ">
<path fill="none" stroke="#63b8ff" d="M164.16,-233.5C187.35,-233.5 225.1,-233.5 256.85,-233.5"/>
<polygon fill="#63b8ff" stroke="#63b8ff" points="256.92,-237 266.92,-233.5 256.92,-230 256.92,-237"/>
</a>
</g>
</g>
<!-- Node33 -->
<g id="Node000033" class="node">
<title>Node33</title>
<g id="a_Node000033"><a xlink:href="Ginan_8cpp.html#a7b5924de2294fef5088b63d0c98afc14" target="_top" xlink:title=" ">
<polygon fill="#88ff88" stroke="#00aa00" points="372.5,-206 256.5,-206 256.5,-187 372.5,-187 372.5,-206"/>
<text text-anchor="middle" x="314.5" y="-194" font-family="Helvetica,sans-Serif" font-size="10.00">State_Propagation__</text>
</a>
</g>
</g>
<!-- Node2&#45;&gt;Node33 -->
<g id="edge7_Node000002_Node000033" class="edge">
<title>Node2&#45;&gt;Node33</title>
<g id="a_edge7_Node000002_Node000033"><a xlink:title=" ">
<path fill="none" stroke="#63b8ff" d="M164.16,-228.81C187.92,-223.67 226.96,-215.22 259.17,-208.26"/>
<polygon fill="#63b8ff" stroke="#63b8ff" points="260.32,-211.59 269.36,-206.05 258.84,-204.75 260.32,-211.59"/>
</a>
</g>
</g>
<!-- Node35 -->
<g id="Node000035" class="node">
<title>Node35</title>
<g id="a_Node000035"><a xlink:href="ppppp_8cpp.html#a806c4571abfde8d490598ec186768d7f" target="_top" xlink:title="Primary estimation and filtering.">
<polygon fill="#88ff88" stroke="#00aa00" points="355,-169 274,-169 274,-150 355,-150 355,-169"/>
<text text-anchor="middle" x="314.5" y="-157" font-family="Helvetica,sans-Serif" font-size="10.00">Main_Filter__</text>
</a>
</g>
</g>
<!-- Node2&#45;&gt;Node35 -->
<g id="edge8_Node000002_Node000035" class="edge">
<title>Node2&#45;&gt;Node35</title>
<g id="a_edge8_Node000002_Node000035"><a xlink:title=" ">
<path fill="none" stroke="#63b8ff" d="M154.31,-223.81C169.97,-211.45 198.91,-190.27 227,-178.5 238.52,-173.67 251.44,-170 263.72,-167.23"/>
<polygon fill="#63b8ff" stroke="#63b8ff" points="264.76,-170.59 273.83,-165.11 263.32,-163.73 264.76,-170.59"/>
</a>
</g>
</g>
<!-- Node42 -->
<g id="Node000042" class="node">
<title>Node42</title>
<g id="a_Node000042"><a xlink:href="outputs_8cpp.html#a6cd5e5db4d14fd454e8a75fea48e0a84" target="_top" xlink:title=" ">
<polygon fill="#ffc770" stroke="#ff8f00" points="347,-132 288.33,-132 288.33,-134.11 282,-134.11 282,-113 347,-113 347,-132"/>
<polyline fill="none" stroke="#ff8f00" points="282,-132 288.33,-132 "/>
<text text-anchor="middle" x="314.5" y="-120" font-family="Helvetica,sans-Serif" font-size="10.00">Outputs__</text>
</a>
</g>
</g>
<!-- Node2&#45;&gt;Node42 -->
<g id="edge9_Node000002_Node000042" class="edge">
<title>Node2&#45;&gt;Node42</title>
<g id="a_edge9_Node000002_Node000042"><a xlink:title=" ">
<path fill="none" stroke="#63b8ff" d="M148.36,-223.91C160.5,-204.93 190.34,-162.59 227,-141.5 240.54,-133.71 256.95,-129.11 271.82,-126.4"/>
<polygon fill="#63b8ff" stroke="#63b8ff" points="272.49,-129.84 281.82,-124.81 271.39,-122.92 272.49,-129.84"/>
</a>
</g>
</g>
<!-- Node42&#45;&gt;Node49 -->
<g id="edge10_Node000042_Node000049" class="edge">
<title>Node42&#45;&gt;Node49</title>
<g id="a_edge10_Node000042_Node000049"><a xlink:title=" ">
<path fill="none" stroke="#63b8ff" d="M347.23,-115.71C369.61,-110.92 400.38,-104.33 427.89,-98.44"/>
<polygon fill="#63b8ff" stroke="#63b8ff" points="428.8,-101.82 437.85,-96.31 427.34,-94.98 428.8,-101.82"/>
</a>
</g>
</g>
<!-- Node51 -->
<g id="Node000051" class="node">
<title>Node51</title>
<g id="a_Node000051"><a xlink:href="Ginan_8cpp.html#a96a83fcedcc9bfe0a6e3eaf944e00fe6" target="_top" xlink:title="Exploratory Data Analysis tool.">
<polygon fill="#88ff88" stroke="#00aa00" points="355,-56 274,-56 274,-37 355,-37 355,-56"/>
<text text-anchor="middle" x="314.5" y="-44" font-family="Helvetica,sans-Serif" font-size="10.00">Ginan_EDA__</text>
</a>
</g>
</g>
<!-- Node50&#45;&gt;Node51 -->
<g id="edge13_Node000050_Node000051" class="edge">
<title>Node50&#45;&gt;Node51</title>
<g id="a_edge13_Node000050_Node000051"><a xlink:title=" ">
<path fill="none" stroke="#63b8ff" d="M191.04,-46.5C213.74,-46.5 240.73,-46.5 263.59,-46.5"/>
<polygon fill="#63b8ff" stroke="#63b8ff" points="263.77,-50 273.77,-46.5 263.77,-43 263.77,-50"/>
</a>
</g>
</g>
<!-- Node52 -->
<g id="Node000052" class="node">
<title>Node52</title>
<g id="a_Node000052"><a xlink:href="Ginan_8cpp.html#a28411755d87a2e0d6d27fb63a286fa78" target="_top" xlink:title="Download files required by processing.">
<polygon fill="#88ff88" stroke="#00aa00" points="366.5,-19 262.5,-19 262.5,0 366.5,0 366.5,-19"/>
<text text-anchor="middle" x="314.5" y="-7" font-family="Helvetica,sans-Serif" font-size="10.00">Auto_Download__</text>
</a>
</g>
</g>
<!-- Node50&#45;&gt;Node52 -->
<g id="edge15_Node000050_Node000052" class="edge">
<title>Node50&#45;&gt;Node52</title>
<g id="a_edge15_Node000050_Node000052"><a xlink:title=" ">
<path fill="none" stroke="#63b8ff" d="M184.16,-36.99C197.8,-33.92 213.04,-30.52 227,-27.5 236.67,-25.41 246.96,-23.23 256.94,-21.13"/>
<polygon fill="#63b8ff" stroke="#63b8ff" points="257.71,-24.55 266.78,-19.08 256.28,-17.7 257.71,-24.55"/>
</a>
</g>
</g>
<!-- Node51&#45;&gt;Node49 -->
<g id="edge14_Node000051_Node000049" class="edge">
<title>Node51&#45;&gt;Node49</title>
<g id="a_edge14_Node000051_Node000049"><a xlink:title=" ">
<path fill="none" stroke="#63b8ff" d="M355.33,-55.03C376.72,-59.61 403.6,-65.36 427.93,-70.57"/>
<polygon fill="#63b8ff" stroke="#63b8ff" points="427.31,-74.02 437.82,-72.69 428.77,-67.17 427.31,-74.02"/>
</a>
</g>
</g>
</g>
</svg>
