<?xml version="1.0" encoding="UTF-8" standalone="no"?>
<!DOCTYPE svg PUBLIC "-//W3C//DTD SVG 1.1//EN"
 "http://www.w3.org/Graphics/SVG/1.1/DTD/svg11.dtd">
<!-- Generated by graphviz version 2.43.0 (0)
 -->
<!-- Title: Error_Handling__ Pages: 1 -->
<svg width="305pt" height="64pt"
 viewBox="0.00 0.00 305.00 64.00" xmlns="http://www.w3.org/2000/svg" xmlns:xlink="http://www.w3.org/1999/xlink">
<g id="graph0" class="graph" transform="scale(1 1) rotate(0) translate(4 60)">
<title>Error_Handling__</title>
<!-- Node1 -->
<g id="Node000001" class="node">
<title>Node1</title>
<g id="a_Node000001"><a xlink:href="Ginan_8cpp.html#aebeda650bc9e3e6d087a3fc6590641f0" target="_top" xlink:title=" ">
<polygon fill="#88ff88" stroke="#00aa00" stroke-width="2" points="297,-37 198,-37 198,-18 297,-18 297,-37"/>
<text text-anchor="middle" x="247.5" y="-25" font-family="Helvetica,sans-Serif" font-size="10.00">Error_Handling__</text>
</a>
</g>
</g>
<!-- Node2 -->
<g id="Node000002" class="node">
<title>Node2</title>
<g id="a_Node000002"><a xlink:href="ppppp_8cpp.html#a806c4571abfde8d490598ec186768d7f" target="_top" xlink:title="Primary estimation and filtering.">
<polygon fill="#88ff88" stroke="#00aa00" points="162,-37 81,-37 81,-18 162,-18 162,-37"/>
<text text-anchor="middle" x="121.5" y="-25" font-family="Helvetica,sans-Serif" font-size="10.00">Main_Filter__</text>
</a>
</g>
</g>
<!-- Node1&#45;&gt;Node2 -->
<g id="edge1_Node000001_Node000002" class="edge">
<title>Node1&#45;&gt;Node2</title>
<g id="a_edge1_Node000001_Node000002"><a xlink:title=" ">
<path fill="none" stroke="#63b8ff" d="M187.77,-27.5C179.11,-27.5 170.37,-27.5 162.22,-27.5"/>
<polygon fill="#63b8ff" stroke="#63b8ff" points="187.85,-31 197.85,-27.5 187.85,-24 187.85,-31"/>
</a>
</g>
</g>
<!-- Node3 -->
<g id="Node000003" class="node">
<title>Node3</title>
<g id="a_Node000003"><a xlink:href="Ginan_8cpp.html#a59a8bad8519426f9742fa63079e4a5e9" target="_top" xlink:title="Ginan&#39;s main processing executable.">
<polygon fill="#88ff88" stroke="#00aa00" points="45,-56 0,-56 0,-37 45,-37 45,-56"/>
<text text-anchor="middle" x="22.5" y="-44" font-family="Helvetica,sans-Serif" font-size="10.00">Pea__</text>
</a>
</g>
</g>
<!-- Node2&#45;&gt;Node3 -->
<g id="edge2_Node000002_Node000003" class="edge">
<title>Node2&#45;&gt;Node3</title>
<g id="a_edge2_Node000002_Node000003"><a xlink:title=" ">
<path fill="none" stroke="#63b8ff" d="M70.7,-37.25C61.76,-39.01 52.87,-40.75 45.26,-42.24"/>
<polygon fill="#63b8ff" stroke="#63b8ff" points="71.63,-40.64 80.77,-35.28 70.28,-33.77 71.63,-40.64"/>
</a>
</g>
</g>
<!-- Node5 -->
<g id="Node000005" class="node">
<title>Node5</title>
<g id="a_Node000005"><a xlink:href="ppppp_8cpp.html#a9997f03cab80cd8db895650860eb025e" target="_top" xlink:title=" ">
<path fill="#fff0f0" stroke="red" d="M33.67,-19C33.67,-19 11.33,-19 11.33,-19 8.17,-19 5,-15.83 5,-12.67 5,-12.67 5,-6.33 5,-6.33 5,-3.17 8.17,0 11.33,0 11.33,0 33.67,0 33.67,0 36.83,0 40,-3.17 40,-6.33 40,-6.33 40,-12.67 40,-12.67 40,-15.83 36.83,-19 33.67,-19"/>
<text text-anchor="middle" x="22.5" y="-7" font-family="Helvetica,sans-Serif" font-size="10.00">ppp</text>
</a>
</g>
</g>
<!-- Node2&#45;&gt;Node5 -->
<g id="edge3_Node000002_Node000005" class="edge">
<title>Node2&#45;&gt;Node5</title>
<g id="a_edge3_Node000002_Node000005"><a xlink:title=" ">
<path fill="none" stroke="#63b8ff" d="M70.65,-18.25C59.6,-16.2 48.64,-14.17 40.07,-12.58"/>
<polygon fill="#63b8ff" stroke="#63b8ff" points="70.3,-21.74 80.77,-20.13 71.57,-14.86 70.3,-21.74"/>
</a>
</g>
</g>
</g>
</svg>
