<?xml version="1.0" encoding="UTF-8" standalone="no"?>
<!DOCTYPE svg PUBLIC "-//W3C//DTD SVG 1.1//EN"
 "http://www.w3.org/Graphics/SVG/1.1/DTD/svg11.dtd">
<!-- Generated by graphviz version 2.43.0 (0)
 -->
<!-- Title: IGS_Files__ Pages: 1 -->
<svg width="163pt" height="175pt"
 viewBox="0.00 0.00 163.00 175.00" xmlns="http://www.w3.org/2000/svg" xmlns:xlink="http://www.w3.org/1999/xlink">
<g id="graph0" class="graph" transform="scale(1 1) rotate(0) translate(4 171)">
<title>IGS_Files__</title>
<!-- Node1 -->
<g id="Node000001" class="node">
<title>Node1</title>
<g id="a_Node000001"><a xlink:href="Ginan_8cpp.html#a637a31e8501122706a266ba2e89f2684" target="_top" xlink:title=" ">
<polygon fill="#ffc770" stroke="#ff8f00" stroke-width="2" points="67.83,-93 0,-93 0,-74 71,-74 71,-89.83 67.83,-93"/>
<polyline fill="none" stroke="#ff8f00" stroke-width="2" points="67.83,-93 67.83,-89.83 "/>
<polyline fill="none" stroke="#ff8f00" stroke-width="2" points="71,-89.83 67.83,-89.83 "/>
<text text-anchor="middle" x="35.5" y="-81" font-family="Helvetica,sans-Serif" font-size="10.00">IGS_Files__</text>
</a>
</g>
</g>
<!-- Node2 -->
<g id="Node000002" class="node">
<title>Node2</title>
<g id="a_Node000002"><a xlink:href="Ginan_8cpp.html#adc9d8495aa5c958843f2eb3c4315292a" target="_top" xlink:title=" ">
<polygon fill="#ffc770" stroke="#ff8f00" points="150.33,-167 108.5,-167 108.5,-148 153.5,-148 153.5,-163.83 150.33,-167"/>
<polyline fill="none" stroke="#ff8f00" points="150.33,-167 150.33,-163.83 "/>
<polyline fill="none" stroke="#ff8f00" points="153.5,-163.83 150.33,-163.83 "/>
<text text-anchor="middle" x="131" y="-155" font-family="Helvetica,sans-Serif" font-size="10.00">SP3__</text>
</a>
</g>
</g>
<!-- Node1&#45;&gt;Node2 -->
<g id="edge1_Node000001_Node000002" class="edge">
<title>Node1&#45;&gt;Node2</title>
<g id="a_edge1_Node000001_Node000002"><a xlink:title=" ">
<path fill="none" stroke="#63b8ff" d="M48.45,-93.04C62.46,-104.2 86.38,-123.24 107,-139.5 107.88,-140.19 108.77,-140.9 109.68,-141.61"/>
<polygon fill="#63b8ff" stroke="#63b8ff" points="107.78,-144.57 117.81,-147.99 112.1,-139.06 107.78,-144.57"/>
</a>
</g>
</g>
<!-- Node3 -->
<g id="Node000003" class="node">
<title>Node3</title>
<g id="a_Node000003"><a xlink:href="Ginan_8cpp.html#ae4ef89e1cf2a1fafab6dbeb5e739f79d" target="_top" xlink:title=" ">
<polygon fill="#ffc770" stroke="#ff8f00" points="150.83,-130 108,-130 108,-111 154,-111 154,-126.83 150.83,-130"/>
<polyline fill="none" stroke="#ff8f00" points="150.83,-130 150.83,-126.83 "/>
<polyline fill="none" stroke="#ff8f00" points="154,-126.83 150.83,-126.83 "/>
<text text-anchor="middle" x="131" y="-118" font-family="Helvetica,sans-Serif" font-size="10.00">ATX__</text>
</a>
</g>
</g>
<!-- Node1&#45;&gt;Node3 -->
<g id="edge2_Node000001_Node000003" class="edge">
<title>Node1&#45;&gt;Node3</title>
<g id="a_edge2_Node000001_Node000003"><a xlink:title=" ">
<path fill="none" stroke="#63b8ff" d="M60.58,-93.03C72.11,-97.59 86.06,-103.11 98.43,-108.01"/>
<polygon fill="#63b8ff" stroke="#63b8ff" points="97.34,-111.34 107.93,-111.76 99.91,-104.83 97.34,-111.34"/>
</a>
</g>
</g>
<!-- Node4 -->
<g id="Node000004" class="node">
<title>Node4</title>
<g id="a_Node000004"><a xlink:href="Ginan_8cpp.html#a499b57365fb1a4d2b1b0abe547dd5f02" target="_top" xlink:title=" ">
<polygon fill="#ffc770" stroke="#ff8f00" points="151.33,-93 107.5,-93 107.5,-74 154.5,-74 154.5,-89.83 151.33,-93"/>
<polyline fill="none" stroke="#ff8f00" points="151.33,-93 151.33,-89.83 "/>
<polyline fill="none" stroke="#ff8f00" points="154.5,-89.83 151.33,-89.83 "/>
<text text-anchor="middle" x="131" y="-81" font-family="Helvetica,sans-Serif" font-size="10.00">SNX__</text>
</a>
</g>
</g>
<!-- Node1&#45;&gt;Node4 -->
<g id="edge3_Node000001_Node000004" class="edge">
<title>Node1&#45;&gt;Node4</title>
<g id="a_edge3_Node000001_Node000004"><a xlink:title=" ">
<path fill="none" stroke="#63b8ff" d="M71.05,-83.5C79.54,-83.5 88.6,-83.5 97.01,-83.5"/>
<polygon fill="#63b8ff" stroke="#63b8ff" points="97.22,-87 107.22,-83.5 97.22,-80 97.22,-87"/>
</a>
</g>
</g>
<!-- Node5 -->
<g id="Node000005" class="node">
<title>Node5</title>
<g id="a_Node000005"><a xlink:href="Ginan_8cpp.html#a0a2d594bdc32a9e5ceac6807e27401e6" target="_top" xlink:title=" ">
<polygon fill="#ffc770" stroke="#ff8f00" points="151.83,-56 107,-56 107,-37 155,-37 155,-52.83 151.83,-56"/>
<polyline fill="none" stroke="#ff8f00" points="151.83,-56 151.83,-52.83 "/>
<polyline fill="none" stroke="#ff8f00" points="155,-52.83 151.83,-52.83 "/>
<text text-anchor="middle" x="131" y="-44" font-family="Helvetica,sans-Serif" font-size="10.00">RNX__</text>
</a>
</g>
</g>
<!-- Node1&#45;&gt;Node5 -->
<g id="edge4_Node000001_Node000005" class="edge">
<title>Node1&#45;&gt;Node5</title>
<g id="a_edge4_Node000001_Node000005"><a xlink:title=" ">
<path fill="none" stroke="#63b8ff" d="M60.58,-73.97C71.85,-69.51 85.44,-64.13 97.6,-59.32"/>
<polygon fill="#63b8ff" stroke="#63b8ff" points="98.96,-62.55 106.97,-55.61 96.38,-56.04 98.96,-62.55"/>
</a>
</g>
</g>
<!-- Node6 -->
<g id="Node000006" class="node">
<title>Node6</title>
<g id="a_Node000006"><a xlink:href="Ginan_8cpp.html#a4b1c381628bc7152fe9ecc816ba9cdfc" target="_top" xlink:title=" ">
<polygon fill="#ffc770" stroke="#ff8f00" points="151.83,-19 107,-19 107,0 155,0 155,-15.83 151.83,-19"/>
<polyline fill="none" stroke="#ff8f00" points="151.83,-19 151.83,-15.83 "/>
<polyline fill="none" stroke="#ff8f00" points="155,-15.83 151.83,-15.83 "/>
<text text-anchor="middle" x="131" y="-7" font-family="Helvetica,sans-Serif" font-size="10.00">OBX__</text>
</a>
</g>
</g>
<!-- Node1&#45;&gt;Node6 -->
<g id="edge5_Node000001_Node000006" class="edge">
<title>Node1&#45;&gt;Node6</title>
<g id="a_edge5_Node000001_Node000006"><a xlink:title=" ">
<path fill="none" stroke="#63b8ff" d="M48.72,-73.83C64.26,-61.53 91.3,-40.13 109.9,-25.41"/>
<polygon fill="#63b8ff" stroke="#63b8ff" points="112.1,-28.13 117.77,-19.18 107.76,-22.64 112.1,-28.13"/>
</a>
</g>
</g>
</g>
</svg>
