<?xml version="1.0" encoding="UTF-8" standalone="no"?>
<!DOCTYPE svg PUBLIC "-//W3C//DTD SVG 1.1//EN"
 "http://www.w3.org/Graphics/SVG/1.1/DTD/svg11.dtd">
<!-- Generated by graphviz version 2.43.0 (0)
 -->
<!-- Title: Ztrans_reduction Pages: 1 -->
<svg width="250pt" height="27pt"
 viewBox="0.00 0.00 250.00 27.00" xmlns="http://www.w3.org/2000/svg" xmlns:xlink="http://www.w3.org/1999/xlink">
<g id="graph0" class="graph" transform="scale(1 1) rotate(0) translate(4 23)">
<title>Ztrans_reduction</title>
<!-- Node1 -->
<g id="Node000001" class="node">
<title>Node1</title>
<g id="a_Node000001"><a xlink:href="GNSSambres_8cpp.html#a5499472ab2c3558fb4d2af6a3d896c36" target="_top" xlink:title="Lambda decorrelation (trough Z transform)">
<path fill="#fff0f0" stroke="red" stroke-width="2" d="M92.67,-19C92.67,-19 6.33,-19 6.33,-19 3.17,-19 0,-15.83 0,-12.67 0,-12.67 0,-6.33 0,-6.33 0,-3.17 3.17,0 6.33,0 6.33,0 92.67,0 92.67,0 95.83,0 99,-3.17 99,-6.33 99,-6.33 99,-12.67 99,-12.67 99,-15.83 95.83,-19 92.67,-19"/>
<text text-anchor="middle" x="49.5" y="-7" font-family="Helvetica,sans-Serif" font-size="10.00">Ztrans_reduction</text>
</a>
</g>
</g>
<!-- Node2 -->
<g id="Node000002" class="node">
<title>Node2</title>
<g id="a_Node000002"><a xlink:href="GNSSambres_8cpp.html#a8150538543c3e5e033a935cc47d0a7df" target="_top" xlink:title=" ">
<path fill="#fff0f0" stroke="red" d="M235.67,-19C235.67,-19 141.33,-19 141.33,-19 138.17,-19 135,-15.83 135,-12.67 135,-12.67 135,-6.33 135,-6.33 135,-3.17 138.17,0 141.33,0 141.33,0 235.67,0 235.67,0 238.83,0 242,-3.17 242,-6.33 242,-6.33 242,-12.67 242,-12.67 242,-15.83 238.83,-19 235.67,-19"/>
<text text-anchor="middle" x="188.5" y="-7" font-family="Helvetica,sans-Serif" font-size="10.00">LTDL_factorization</text>
</a>
</g>
</g>
<!-- Node1&#45;&gt;Node2 -->
<g id="edge1_Node000001_Node000002" class="edge">
<title>Node1&#45;&gt;Node2</title>
<g id="a_edge1_Node000001_Node000002"><a xlink:title=" ">
<path fill="none" stroke="#63b8ff" d="M99.19,-9.5C107.39,-9.5 116,-9.5 124.51,-9.5"/>
<polygon fill="#63b8ff" stroke="#63b8ff" points="124.79,-13 134.79,-9.5 124.79,-6 124.79,-13"/>
</a>
</g>
</g>
</g>
</svg>
