<?xml version="1.0" encoding="UTF-8" standalone="no"?>
<!DOCTYPE svg PUBLIC "-//W3C//DTD SVG 1.1//EN"
 "http://www.w3.org/Graphics/SVG/1.1/DTD/svg11.dtd">
<!-- Generated by graphviz version 2.43.0 (0)
 -->
<!-- Title: writeGPX Pages: 1 -->
<svg width="266pt" height="76pt"
 viewBox="0.00 0.00 266.00 75.50" xmlns="http://www.w3.org/2000/svg" xmlns:xlink="http://www.w3.org/1999/xlink">
<g id="graph0" class="graph" transform="scale(1 1) rotate(0) translate(4 71.5)">
<title>writeGPX</title>
<!-- Node1 -->
<g id="Node000001" class="node">
<title>Node1</title>
<g id="a_Node000001"><a xlink:href="gpx_8cpp.html#a6a003c9cf2dd5732000ebbaf4dd8a6b7" target="_top" xlink:title=" ">
<path fill="#fff0f0" stroke="red" stroke-width="2" d="M251.67,-40C251.67,-40 202.33,-40 202.33,-40 199.17,-40 196,-36.83 196,-33.67 196,-33.67 196,-27.33 196,-27.33 196,-24.17 199.17,-21 202.33,-21 202.33,-21 251.67,-21 251.67,-21 254.83,-21 258,-24.17 258,-27.33 258,-27.33 258,-33.67 258,-33.67 258,-36.83 254.83,-40 251.67,-40"/>
<text text-anchor="middle" x="227" y="-28" font-family="Helvetica,sans-Serif" font-size="10.00">writeGPX</text>
</a>
</g>
</g>
<!-- Node2 -->
<g id="Node000002" class="node">
<title>Node2</title>
<g id="a_Node000002"><a xlink:href="main_8cpp.html#a712043e1e94db2f9f7c1022f2bc006e2" target="_top" xlink:title=" ">
<path fill="#fff0f0" stroke="red" d="M150,-67.5C150,-67.5 10,-67.5 10,-67.5 5,-67.5 0,-62.5 0,-57.5 0,-57.5 0,-47.5 0,-47.5 0,-42.5 5,-37.5 10,-37.5 10,-37.5 150,-37.5 150,-37.5 155,-37.5 160,-42.5 160,-47.5 160,-47.5 160,-57.5 160,-57.5 160,-62.5 155,-67.5 150,-67.5"/>
<text text-anchor="start" x="8" y="-55.5" font-family="Helvetica,sans-Serif" font-size="10.00">mainPerEpochPostProcessing</text>
<text text-anchor="middle" x="80" y="-44.5" font-family="Helvetica,sans-Serif" font-size="10.00">AndOutputs</text>
</a>
</g>
</g>
<!-- Node1&#45;&gt;Node2 -->
<g id="edge1_Node000001_Node000002" class="edge">
<title>Node1&#45;&gt;Node2</title>
<g id="a_edge1_Node000001_Node000002"><a xlink:title=" ">
<path fill="none" stroke="#63b8ff" d="M186.05,-36.56C177.9,-37.8 169.05,-39.14 160.08,-40.5"/>
<polygon fill="#63b8ff" stroke="#63b8ff" points="186.59,-40.02 195.96,-35.06 185.54,-33.1 186.59,-40.02"/>
</a>
</g>
</g>
<!-- Node6 -->
<g id="Node000006" class="node">
<title>Node6</title>
<g id="a_Node000006"><a xlink:href="rtsSmoothing_8cpp.html#a65cd5f94ab58227ab032b1e894ca3987" target="_top" xlink:title=" ">
<path fill="#fff0f0" stroke="red" d="M119.67,-19C119.67,-19 40.33,-19 40.33,-19 37.17,-19 34,-15.83 34,-12.67 34,-12.67 34,-6.33 34,-6.33 34,-3.17 37.17,0 40.33,0 40.33,0 119.67,0 119.67,0 122.83,0 126,-3.17 126,-6.33 126,-6.33 126,-12.67 126,-12.67 126,-15.83 122.83,-19 119.67,-19"/>
<text text-anchor="middle" x="80" y="-7" font-family="Helvetica,sans-Serif" font-size="10.00">postRTSActions</text>
</a>
</g>
</g>
<!-- Node1&#45;&gt;Node6 -->
<g id="edge2_Node000001_Node000006" class="edge">
<title>Node1&#45;&gt;Node6</title>
<g id="a_edge2_Node000001_Node000006"><a xlink:title=" ">
<path fill="none" stroke="#63b8ff" d="M186.05,-24.71C167.49,-22.03 145.33,-18.82 126.16,-16.04"/>
<polygon fill="#63b8ff" stroke="#63b8ff" points="185.56,-28.18 195.96,-26.15 186.56,-21.25 185.56,-28.18"/>
</a>
</g>
</g>
</g>
</svg>
