<?xml version="1.0" encoding="UTF-8" standalone="no"?>
<!DOCTYPE svg PUBLIC "-//W3C//DTD SVG 1.1//EN"
 "http://www.w3.org/Graphics/SVG/1.1/DTD/svg11.dtd">
<!-- Generated by graphviz version 2.43.0 (0)
 -->
<!-- Title: writeGPXHeader Pages: 1 -->
<svg width="203pt" height="27pt"
 viewBox="0.00 0.00 203.00 27.00" xmlns="http://www.w3.org/2000/svg" xmlns:xlink="http://www.w3.org/1999/xlink">
<g id="graph0" class="graph" transform="scale(1 1) rotate(0) translate(4 23)">
<title>writeGPXHeader</title>
<!-- Node1 -->
<g id="Node000001" class="node">
<title>Node1</title>
<g id="a_Node000001"><a xlink:href="gpx_8cpp.html#a1f690875b92547177281af427c3abd5e" target="_top" xlink:title=" ">
<path fill="#fff0f0" stroke="red" stroke-width="2" d="M188.67,-19C188.67,-19 104.33,-19 104.33,-19 101.17,-19 98,-15.83 98,-12.67 98,-12.67 98,-6.33 98,-6.33 98,-3.17 101.17,0 104.33,0 104.33,0 188.67,0 188.67,0 191.83,0 195,-3.17 195,-6.33 195,-6.33 195,-12.67 195,-12.67 195,-15.83 191.83,-19 188.67,-19"/>
<text text-anchor="middle" x="146.5" y="-7" font-family="Helvetica,sans-Serif" font-size="10.00">writeGPXHeader</text>
</a>
</g>
</g>
<!-- Node2 -->
<g id="Node000002" class="node">
<title>Node2</title>
<g id="a_Node000002"><a xlink:href="gpx_8cpp.html#a6a003c9cf2dd5732000ebbaf4dd8a6b7" target="_top" xlink:title=" ">
<path fill="#fff0f0" stroke="red" d="M55.67,-19C55.67,-19 6.33,-19 6.33,-19 3.17,-19 0,-15.83 0,-12.67 0,-12.67 0,-6.33 0,-6.33 0,-3.17 3.17,0 6.33,0 6.33,0 55.67,0 55.67,0 58.83,0 62,-3.17 62,-6.33 62,-6.33 62,-12.67 62,-12.67 62,-15.83 58.83,-19 55.67,-19"/>
<text text-anchor="middle" x="31" y="-7" font-family="Helvetica,sans-Serif" font-size="10.00">writeGPX</text>
</a>
</g>
</g>
<!-- Node1&#45;&gt;Node2 -->
<g id="edge1_Node000001_Node000002" class="edge">
<title>Node1&#45;&gt;Node2</title>
<g id="a_edge1_Node000001_Node000002"><a xlink:title=" ">
<path fill="none" stroke="#63b8ff" d="M87.49,-9.5C78.78,-9.5 70.1,-9.5 62.28,-9.5"/>
<polygon fill="#63b8ff" stroke="#63b8ff" points="87.69,-13 97.69,-9.5 87.69,-6 87.69,-13"/>
</a>
</g>
</g>
</g>
</svg>
