<?xml version="1.0" encoding="UTF-8" standalone="no"?>
<!DOCTYPE svg PUBLIC "-//W3C//DTD SVG 1.1//EN"
 "http://www.w3.org/Graphics/SVG/1.1/DTD/svg11.dtd">
<!-- Generated by graphviz version 2.43.0 (0)
 -->
<!-- Title: epoch2time Pages: 1 -->
<svg width="308pt" height="46pt"
 viewBox="0.00 0.00 308.00 46.00" xmlns="http://www.w3.org/2000/svg" xmlns:xlink="http://www.w3.org/1999/xlink">
<g id="graph0" class="graph" transform="scale(1 1) rotate(0) translate(4 42)">
<title>epoch2time</title>
<!-- Node1 -->
<g id="Node000001" class="node">
<title>Node1</title>
<g id="a_Node000001"><a xlink:href="gTime_8cpp.html#a42f524ddac7eb2f122e34df9a5a1f08f" target="_top" xlink:title=" ">
<path fill="#fff0f0" stroke="red" stroke-width="2" d="M67.67,-38C67.67,-38 6.33,-38 6.33,-38 3.17,-38 0,-34.83 0,-31.67 0,-31.67 0,-25.33 0,-25.33 0,-22.17 3.17,-19 6.33,-19 6.33,-19 67.67,-19 67.67,-19 70.83,-19 74,-22.17 74,-25.33 74,-25.33 74,-31.67 74,-31.67 74,-34.83 70.83,-38 67.67,-38"/>
<text text-anchor="middle" x="37" y="-26" font-family="Helvetica,sans-Serif" font-size="10.00">epoch2time</text>
</a>
</g>
</g>
<!-- Node2 -->
<g id="Node000002" class="node">
<title>Node2</title>
<g id="a_Node000002"><a xlink:href="structGTime.html#aaa8a379d11cd6c040a6bbe680c0e913e" target="_top" xlink:title="Uninitialised time for comparisons.">
<path fill="#fff0f0" stroke="red" d="M293.67,-38C293.67,-38 214.33,-38 214.33,-38 211.17,-38 208,-34.83 208,-31.67 208,-31.67 208,-25.33 208,-25.33 208,-22.17 211.17,-19 214.33,-19 214.33,-19 293.67,-19 293.67,-19 296.83,-19 300,-22.17 300,-25.33 300,-25.33 300,-31.67 300,-31.67 300,-34.83 296.83,-38 293.67,-38"/>
<text text-anchor="middle" x="254" y="-26" font-family="Helvetica,sans-Serif" font-size="10.00">GTime::noTime</text>
</a>
</g>
</g>
<!-- Node1&#45;&gt;Node2 -->
<g id="edge1_Node000001_Node000002" class="edge">
<title>Node1&#45;&gt;Node2</title>
<g id="a_edge1_Node000001_Node000002"><a xlink:title=" ">
<path fill="none" stroke="#63b8ff" d="M74.47,-28.5C108.23,-28.5 158.92,-28.5 197.67,-28.5"/>
<polygon fill="#63b8ff" stroke="#63b8ff" points="197.75,-32 207.75,-28.5 197.75,-25 197.75,-32"/>
</a>
</g>
</g>
<!-- Node3 -->
<g id="Node000003" class="node">
<title>Node3</title>
<g id="a_Node000003"><a xlink:href="gTime_8cpp.html#a25abbda5263c0b29ab3479dd35b140e3" target="_top" xlink:title=" ">
<path fill="#fff0f0" stroke="red" d="M165.67,-19C165.67,-19 116.33,-19 116.33,-19 113.17,-19 110,-15.83 110,-12.67 110,-12.67 110,-6.33 110,-6.33 110,-3.17 113.17,0 116.33,0 116.33,0 165.67,0 165.67,0 168.83,0 172,-3.17 172,-6.33 172,-6.33 172,-12.67 172,-12.67 172,-15.83 168.83,-19 165.67,-19"/>
<text text-anchor="middle" x="141" y="-7" font-family="Helvetica,sans-Serif" font-size="10.00">yds2time</text>
</a>
</g>
</g>
<!-- Node1&#45;&gt;Node3 -->
<g id="edge2_Node000001_Node000003" class="edge">
<title>Node1&#45;&gt;Node3</title>
<g id="a_edge2_Node000001_Node000003"><a xlink:title=" ">
<path fill="none" stroke="#63b8ff" d="M74.25,-21.75C82.55,-20.2 91.43,-18.55 99.89,-16.97"/>
<polygon fill="#63b8ff" stroke="#63b8ff" points="100.74,-20.37 109.93,-15.1 99.45,-13.49 100.74,-20.37"/>
</a>
</g>
</g>
<!-- Node3&#45;&gt;Node2 -->
<g id="edge3_Node000003_Node000002" class="edge">
<title>Node3&#45;&gt;Node2</title>
<g id="a_edge3_Node000003_Node000002"><a xlink:title=" ">
<path fill="none" stroke="#63b8ff" d="M172.04,-14.64C180.06,-16.02 188.99,-17.54 197.91,-19.07"/>
<polygon fill="#63b8ff" stroke="#63b8ff" points="197.47,-22.55 207.92,-20.78 198.65,-15.65 197.47,-22.55"/>
</a>
</g>
</g>
</g>
</svg>
