<?xml version="1.0" encoding="UTF-8" standalone="no"?>
<!DOCTYPE svg PUBLIC "-//W3C//DTD SVG 1.1//EN"
 "http://www.w3.org/Graphics/SVG/1.1/DTD/svg11.dtd">
<!-- Generated by graphviz version 2.43.0 (0)
 -->
<!-- Title: timeGet Pages: 1 -->
<svg width="386pt" height="1266pt"
 viewBox="0.00 0.00 386.00 1266.00" xmlns="http://www.w3.org/2000/svg" xmlns:xlink="http://www.w3.org/1999/xlink">
<g id="graph0" class="graph" transform="scale(1 1) rotate(0) translate(4 1262)">
<title>timeGet</title>
<!-- Node1 -->
<g id="Node000001" class="node">
<title>Node1</title>
<g id="a_Node000001"><a xlink:href="gTime_8cpp.html#abc73cf336f9fa1b3622c933d5925e073" target="_top" xlink:title=" ">
<path fill="#fff0f0" stroke="red" stroke-width="2" d="M371.67,-611C371.67,-611 328.33,-611 328.33,-611 325.17,-611 322,-607.83 322,-604.67 322,-604.67 322,-598.33 322,-598.33 322,-595.17 325.17,-592 328.33,-592 328.33,-592 371.67,-592 371.67,-592 374.83,-592 378,-595.17 378,-598.33 378,-598.33 378,-604.67 378,-604.67 378,-607.83 374.83,-611 371.67,-611"/>
<text text-anchor="middle" x="350" y="-599" font-family="Helvetica,sans-Serif" font-size="10.00">timeGet</text>
</a>
</g>
</g>
<!-- Node2 -->
<g id="Node000002" class="node">
<title>Node2</title>
<g id="a_Node000002"><a xlink:href="structTcpSocket.html#a70b1ac4ab92ceee63c2088cb2ffcf2f8" target="_top" xlink:title=" ">
<path fill="#fff0f0" stroke="red" d="M250.17,-1258C250.17,-1258 115.83,-1258 115.83,-1258 112.67,-1258 109.5,-1254.83 109.5,-1251.67 109.5,-1251.67 109.5,-1245.33 109.5,-1245.33 109.5,-1242.17 112.67,-1239 115.83,-1239 115.83,-1239 250.17,-1239 250.17,-1239 253.33,-1239 256.5,-1242.17 256.5,-1245.33 256.5,-1245.33 256.5,-1251.67 256.5,-1251.67 256.5,-1254.83 253.33,-1258 250.17,-1258"/>
<text text-anchor="middle" x="183" y="-1246" font-family="Helvetica,sans-Serif" font-size="10.00">TcpSocket::connectionError</text>
</a>
</g>
</g>
<!-- Node1&#45;&gt;Node2 -->
<g id="edge1_Node000001_Node000002" class="edge">
<title>Node1&#45;&gt;Node2</title>
<g id="a_edge1_Node000001_Node000002"><a xlink:title=" ">
<path fill="none" stroke="#63b8ff" d="M348.42,-621.15C345.24,-722.66 328.5,-1184.7 286,-1230.5 278.11,-1239 267.72,-1244.36 256.59,-1247.63"/>
<polygon fill="#63b8ff" stroke="#63b8ff" points="351.92,-621.17 348.73,-611.06 344.92,-620.95 351.92,-621.17"/>
</a>
</g>
</g>
<!-- Node3 -->
<g id="Node000003" class="node">
<title>Node3</title>
<g id="a_Node000003"><a xlink:href="structFileLog.html#a4c522b80ca142d8e05f0d7e0cee5d186" target="_top" xlink:title=" ">
<path fill="#fff0f0" stroke="red" d="M227.17,-1221C227.17,-1221 138.83,-1221 138.83,-1221 135.67,-1221 132.5,-1217.83 132.5,-1214.67 132.5,-1214.67 132.5,-1208.33 132.5,-1208.33 132.5,-1205.17 135.67,-1202 138.83,-1202 138.83,-1202 227.17,-1202 227.17,-1202 230.33,-1202 233.5,-1205.17 233.5,-1208.33 233.5,-1208.33 233.5,-1214.67 233.5,-1214.67 233.5,-1217.83 230.33,-1221 227.17,-1221"/>
<text text-anchor="middle" x="183" y="-1209" font-family="Helvetica,sans-Serif" font-size="10.00">FileLog::consume</text>
</a>
</g>
</g>
<!-- Node1&#45;&gt;Node3 -->
<g id="edge2_Node000001_Node000003" class="edge">
<title>Node1&#45;&gt;Node3</title>
<g id="a_edge2_Node000001_Node000003"><a xlink:title=" ">
<path fill="none" stroke="#63b8ff" d="M348.28,-621.53C344.53,-720.1 325.95,-1150.71 286,-1193.5 272.75,-1207.7 252.52,-1213.12 233.57,-1214.64"/>
<polygon fill="#63b8ff" stroke="#63b8ff" points="351.78,-621.55 348.65,-611.42 344.78,-621.29 351.78,-621.55"/>
</a>
</g>
</g>
<!-- Node4 -->
<g id="Node000004" class="node">
<title>Node4</title>
<g id="a_Node000004"><a xlink:href="debug_8cpp.html#af275684b11864c00a1be8ec4f9498ef6" target="_top" xlink:title=" ">
<path fill="#fff0f0" stroke="red" d="M212.17,-1184C212.17,-1184 153.83,-1184 153.83,-1184 150.67,-1184 147.5,-1180.83 147.5,-1177.67 147.5,-1177.67 147.5,-1171.33 147.5,-1171.33 147.5,-1168.17 150.67,-1165 153.83,-1165 153.83,-1165 212.17,-1165 212.17,-1165 215.33,-1165 218.5,-1168.17 218.5,-1171.33 218.5,-1171.33 218.5,-1177.67 218.5,-1177.67 218.5,-1180.83 215.33,-1184 212.17,-1184"/>
<text text-anchor="middle" x="183" y="-1172" font-family="Helvetica,sans-Serif" font-size="10.00">debugTime</text>
</a>
</g>
</g>
<!-- Node1&#45;&gt;Node4 -->
<g id="edge3_Node000001_Node000004" class="edge">
<title>Node1&#45;&gt;Node4</title>
<g id="a_edge3_Node000001_Node000004"><a xlink:title=" ">
<path fill="none" stroke="#63b8ff" d="M348.13,-621.45C343.82,-716.06 323.46,-1116.65 286,-1156.5 269.13,-1174.45 241.1,-1178.34 218.69,-1178.08"/>
<polygon fill="#63b8ff" stroke="#63b8ff" points="351.64,-621.4 348.59,-611.25 344.64,-621.09 351.64,-621.4"/>
</a>
</g>
</g>
<!-- Node5 -->
<g id="Node000005" class="node">
<title>Node5</title>
<g id="a_Node000005"><a xlink:href="structRtcmDecoder.html#a3b7993d7cc20610d8770c2f4d1e902d6" target="_top" xlink:title=" ">
<path fill="#fff0f0" stroke="red" d="M257.17,-1147C257.17,-1147 108.83,-1147 108.83,-1147 105.67,-1147 102.5,-1143.83 102.5,-1140.67 102.5,-1140.67 102.5,-1134.33 102.5,-1134.33 102.5,-1131.17 105.67,-1128 108.83,-1128 108.83,-1128 257.17,-1128 257.17,-1128 260.33,-1128 263.5,-1131.17 263.5,-1134.33 263.5,-1134.33 263.5,-1140.67 263.5,-1140.67 263.5,-1143.83 260.33,-1147 257.17,-1147"/>
<text text-anchor="middle" x="183" y="-1135" font-family="Helvetica,sans-Serif" font-size="10.00">RtcmDecoder::decodeCustom</text>
</a>
</g>
</g>
<!-- Node1&#45;&gt;Node5 -->
<g id="edge4_Node000001_Node000005" class="edge">
<title>Node1&#45;&gt;Node5</title>
<g id="a_edge4_Node000001_Node000005"><a xlink:title=" ">
<path fill="none" stroke="#63b8ff" d="M347.97,-621.24C343.09,-711.55 321,-1082.57 286,-1119.5 279.75,-1126.09 272,-1130.78 263.58,-1134.07"/>
<polygon fill="#63b8ff" stroke="#63b8ff" points="351.48,-621.2 348.51,-611.03 344.49,-620.83 351.48,-621.2"/>
</a>
</g>
</g>
<!-- Node8 -->
<g id="Node000008" class="node">
<title>Node8</title>
<g id="a_Node000008"><a xlink:href="structIcdDecoder.html#ad30f4972810c88dd00450b8a1ad2d244" target="_top" xlink:title=" ">
<path fill="#fff0f0" stroke="red" d="M269.17,-1110C269.17,-1110 96.83,-1110 96.83,-1110 93.67,-1110 90.5,-1106.83 90.5,-1103.67 90.5,-1103.67 90.5,-1097.33 90.5,-1097.33 90.5,-1094.17 93.67,-1091 96.83,-1091 96.83,-1091 269.17,-1091 269.17,-1091 272.33,-1091 275.5,-1094.17 275.5,-1097.33 275.5,-1097.33 275.5,-1103.67 275.5,-1103.67 275.5,-1106.83 272.33,-1110 269.17,-1110"/>
<text text-anchor="middle" x="183" y="-1098" font-family="Helvetica,sans-Serif" font-size="10.00">IcdDecoder::decodeGPSSubframe1</text>
</a>
</g>
</g>
<!-- Node1&#45;&gt;Node8 -->
<g id="edge5_Node000001_Node000008" class="edge">
<title>Node1&#45;&gt;Node8</title>
<g id="a_edge5_Node000001_Node000008"><a xlink:title=" ">
<path fill="none" stroke="#63b8ff" d="M349.39,-621.57C350.54,-703.96 350.5,-1015.07 286,-1082.5 282.89,-1085.75 279.42,-1088.53 275.68,-1090.92"/>
<polygon fill="#63b8ff" stroke="#63b8ff" points="352.88,-621.07 349.22,-611.13 345.88,-621.18 352.88,-621.07"/>
</a>
</g>
</g>
<!-- Node15 -->
<g id="Node000015" class="node">
<title>Node15</title>
<g id="a_Node000015"><a xlink:href="structRtcmEncoder.html#aec43680779bba008687e1f4f792960e1" target="_top" xlink:title=" ">
<path fill="#fff0f0" stroke="red" d="M279.67,-1073C279.67,-1073 86.33,-1073 86.33,-1073 83.17,-1073 80,-1069.83 80,-1066.67 80,-1066.67 80,-1060.33 80,-1060.33 80,-1057.17 83.17,-1054 86.33,-1054 86.33,-1054 279.67,-1054 279.67,-1054 282.83,-1054 286,-1057.17 286,-1060.33 286,-1060.33 286,-1066.67 286,-1066.67 286,-1069.83 282.83,-1073 279.67,-1073"/>
<text text-anchor="middle" x="183" y="-1061" font-family="Helvetica,sans-Serif" font-size="10.00">RtcmEncoder::encodeTimeStampRTCM</text>
</a>
</g>
</g>
<!-- Node1&#45;&gt;Node15 -->
<g id="edge6_Node000001_Node000015" class="edge">
<title>Node1&#45;&gt;Node15</title>
<g id="a_edge6_Node000001_Node000015"><a xlink:title=" ">
<path fill="none" stroke="#63b8ff" d="M349.12,-621.45C349.16,-699.47 345.17,-982.74 286,-1044.5 282.51,-1048.14 278.56,-1051.21 274.3,-1053.8"/>
<polygon fill="#63b8ff" stroke="#63b8ff" points="352.62,-621.1 349.09,-611.11 345.62,-621.12 352.62,-621.1"/>
</a>
</g>
</g>
<!-- Node17 -->
<g id="Node000017" class="node">
<title>Node17</title>
<g id="a_Node000017"><a xlink:href="structNetworkStatistics.html#a6355d0b3c27f8f95ad1b6646fa7333f8" target="_top" xlink:title=" ">
<path fill="#fff0f0" stroke="red" d="M232.5,-1035.5C232.5,-1035.5 133.5,-1035.5 133.5,-1035.5 128.5,-1035.5 123.5,-1030.5 123.5,-1025.5 123.5,-1025.5 123.5,-1015.5 123.5,-1015.5 123.5,-1010.5 128.5,-1005.5 133.5,-1005.5 133.5,-1005.5 232.5,-1005.5 232.5,-1005.5 237.5,-1005.5 242.5,-1010.5 242.5,-1015.5 242.5,-1015.5 242.5,-1025.5 242.5,-1025.5 242.5,-1030.5 237.5,-1035.5 232.5,-1035.5"/>
<text text-anchor="start" x="131.5" y="-1023.5" font-family="Helvetica,sans-Serif" font-size="10.00">NetworkStatistics::</text>
<text text-anchor="middle" x="183" y="-1012.5" font-family="Helvetica,sans-Serif" font-size="10.00">getNetworkStatistics</text>
</a>
</g>
</g>
<!-- Node1&#45;&gt;Node17 -->
<g id="edge7_Node000001_Node000017" class="edge">
<title>Node1&#45;&gt;Node17</title>
<g id="a_edge7_Node000001_Node000017"><a xlink:title=" ">
<path fill="none" stroke="#63b8ff" d="M348.51,-621.63C346.38,-693.45 335.55,-935.8 286,-991.5 274.87,-1004.02 258.76,-1011.3 242.62,-1015.49"/>
<polygon fill="#63b8ff" stroke="#63b8ff" points="352.02,-621.37 348.8,-611.28 345.03,-621.18 352.02,-621.37"/>
</a>
</g>
</g>
<!-- Node18 -->
<g id="Node000018" class="node">
<title>Node18</title>
<g id="a_Node000018"><a xlink:href="main_8cpp.html#a2c1eabb2ea9b242d8d9fd2c1795849e9" target="_top" xlink:title=" ">
<path fill="#fff0f0" stroke="red" d="M37.67,-820C37.67,-820 6.33,-820 6.33,-820 3.17,-820 0,-816.83 0,-813.67 0,-813.67 0,-807.33 0,-807.33 0,-804.17 3.17,-801 6.33,-801 6.33,-801 37.67,-801 37.67,-801 40.83,-801 44,-804.17 44,-807.33 44,-807.33 44,-813.67 44,-813.67 44,-816.83 40.83,-820 37.67,-820"/>
<text text-anchor="middle" x="22" y="-808" font-family="Helvetica,sans-Serif" font-size="10.00">ginan</text>
</a>
</g>
</g>
<!-- Node1&#45;&gt;Node18 -->
<g id="edge8_Node000001_Node000018" class="edge">
<title>Node1&#45;&gt;Node18</title>
<g id="a_edge8_Node000001_Node000018"><a xlink:title=" ">
<path fill="none" stroke="#63b8ff" d="M348.69,-621.27C347.16,-689.7 338.19,-914.72 286,-958.5 250.93,-987.92 117.74,-984.41 80,-958.5 32.56,-925.93 24.59,-847.9 23.26,-820.34"/>
<polygon fill="#63b8ff" stroke="#63b8ff" points="352.19,-621.1 348.89,-611.03 345.2,-620.96 352.19,-621.1"/>
</a>
</g>
</g>
<!-- Node20 -->
<g id="Node000020" class="node">
<title>Node20</title>
<g id="a_Node000020"><a xlink:href="structRtcmTrace.html#a4b1c85cac6c9887a50ce3f059e4570bc" target="_top" xlink:title=" ">
<path fill="#fff0f0" stroke="red" d="M257.17,-949C257.17,-949 108.83,-949 108.83,-949 105.67,-949 102.5,-945.83 102.5,-942.67 102.5,-942.67 102.5,-936.33 102.5,-936.33 102.5,-933.17 105.67,-930 108.83,-930 108.83,-930 257.17,-930 257.17,-930 260.33,-930 263.5,-933.17 263.5,-936.33 263.5,-936.33 263.5,-942.67 263.5,-942.67 263.5,-945.83 260.33,-949 257.17,-949"/>
<text text-anchor="middle" x="183" y="-937" font-family="Helvetica,sans-Serif" font-size="10.00">RtcmTrace::messageRtcmLog</text>
</a>
</g>
</g>
<!-- Node1&#45;&gt;Node20 -->
<g id="edge9_Node000001_Node000020" class="edge">
<title>Node1&#45;&gt;Node20</title>
<g id="a_edge9_Node000001_Node000020"><a xlink:title=" ">
<path fill="none" stroke="#63b8ff" d="M347.92,-621.28C344.07,-684.19 328.88,-878.08 286,-920.5 279.66,-926.77 271.96,-931.33 263.66,-934.6"/>
<polygon fill="#63b8ff" stroke="#63b8ff" points="351.42,-621.31 348.51,-611.12 344.44,-620.9 351.42,-621.31"/>
</a>
</g>
</g>
<!-- Node21 -->
<g id="Node000021" class="node">
<title>Node21</title>
<g id="a_Node000021"><a xlink:href="structNtripUploader.html#aed62670c2d0d02f1bb0d930f42e68609" target="_top" xlink:title=" ">
<path fill="#fff0f0" stroke="red" d="M261,-893.5C261,-893.5 105,-893.5 105,-893.5 100,-893.5 95,-888.5 95,-883.5 95,-883.5 95,-873.5 95,-873.5 95,-868.5 100,-863.5 105,-863.5 105,-863.5 261,-863.5 261,-863.5 266,-863.5 271,-868.5 271,-873.5 271,-873.5 271,-883.5 271,-883.5 271,-888.5 266,-893.5 261,-893.5"/>
<text text-anchor="start" x="103" y="-881.5" font-family="Helvetica,sans-Serif" font-size="10.00">NtripUploader::messageTimeout</text>
<text text-anchor="middle" x="183" y="-870.5" font-family="Helvetica,sans-Serif" font-size="10.00">Handler</text>
</a>
</g>
</g>
<!-- Node1&#45;&gt;Node21 -->
<g id="edge10_Node000001_Node000021" class="edge">
<title>Node1&#45;&gt;Node21</title>
<g id="a_edge10_Node000001_Node000021"><a xlink:title=" ">
<path fill="none" stroke="#63b8ff" d="M346.74,-621.21C340.19,-674.81 319.53,-821.4 286,-854.5 281.6,-858.85 276.57,-862.46 271.15,-865.46"/>
<polygon fill="#63b8ff" stroke="#63b8ff" points="350.22,-621.6 347.92,-611.26 343.26,-620.78 350.22,-621.6"/>
</a>
</g>
</g>
<!-- Node24 -->
<g id="Node000024" class="node">
<title>Node24</title>
<g id="a_Node000024"><a xlink:href="structRtcmTrace.html#a43de333946bf6415ccb695e73beceec2" target="_top" xlink:title=" ">
<path fill="#fff0f0" stroke="red" d="M242.17,-845C242.17,-845 123.83,-845 123.83,-845 120.67,-845 117.5,-841.83 117.5,-838.67 117.5,-838.67 117.5,-832.33 117.5,-832.33 117.5,-829.17 120.67,-826 123.83,-826 123.83,-826 242.17,-826 242.17,-826 245.33,-826 248.5,-829.17 248.5,-832.33 248.5,-832.33 248.5,-838.67 248.5,-838.67 248.5,-841.83 245.33,-845 242.17,-845"/>
<text text-anchor="middle" x="183" y="-833" font-family="Helvetica,sans-Serif" font-size="10.00">RtcmTrace::networkLog</text>
</a>
</g>
</g>
<!-- Node1&#45;&gt;Node24 -->
<g id="edge12_Node000001_Node000024" class="edge">
<title>Node1&#45;&gt;Node24</title>
<g id="a_edge12_Node000001_Node000024"><a xlink:title=" ">
<path fill="none" stroke="#63b8ff" d="M349.63,-621.28C349.83,-664.1 343.82,-765.67 286,-817.5 275.69,-826.74 262.35,-832.05 248.75,-834.96"/>
<polygon fill="#63b8ff" stroke="#63b8ff" points="353.13,-621.01 349.45,-611.07 346.13,-621.13 353.13,-621.01"/>
</a>
</g>
</g>
<!-- Node25 -->
<g id="Node000025" class="node">
<title>Node25</title>
<g id="a_Node000025"><a xlink:href="rinexNavWrite_8cpp.html#aaab5fb708037f164d86cfa62039eb845" target="_top" xlink:title=" ">
<path fill="#fff0f0" stroke="red" d="M224.67,-808C224.67,-808 141.33,-808 141.33,-808 138.17,-808 135,-804.83 135,-801.67 135,-801.67 135,-795.33 135,-795.33 135,-792.17 138.17,-789 141.33,-789 141.33,-789 224.67,-789 224.67,-789 227.83,-789 231,-792.17 231,-795.33 231,-795.33 231,-801.67 231,-801.67 231,-804.83 227.83,-808 224.67,-808"/>
<text text-anchor="middle" x="183" y="-796" font-family="Helvetica,sans-Serif" font-size="10.00">rinexNavHeader</text>
</a>
</g>
</g>
<!-- Node1&#45;&gt;Node25 -->
<g id="edge13_Node000001_Node000025" class="edge">
<title>Node1&#45;&gt;Node25</title>
<g id="a_edge13_Node000001_Node000025"><a xlink:title=" ">
<path fill="none" stroke="#63b8ff" d="M348.24,-621.19C345.68,-658.49 334.49,-739.36 286,-780.5 270.98,-793.24 250.15,-798.37 231.23,-800.08"/>
<polygon fill="#63b8ff" stroke="#63b8ff" points="351.74,-621.29 348.79,-611.11 344.75,-620.91 351.74,-621.29"/>
</a>
</g>
</g>
<!-- Node30 -->
<g id="Node000030" class="node">
<title>Node30</title>
<g id="a_Node000030"><a xlink:href="structRtcmDecoder.html#af4dcc94b23423696a4e8025d8235a1b1" target="_top" xlink:title=" ">
<path fill="#fff0f0" stroke="red" d="M244.67,-771C244.67,-771 121.33,-771 121.33,-771 118.17,-771 115,-767.83 115,-764.67 115,-764.67 115,-758.33 115,-758.33 115,-755.17 118.17,-752 121.33,-752 121.33,-752 244.67,-752 244.67,-752 247.83,-752 251,-755.17 251,-758.33 251,-758.33 251,-764.67 251,-764.67 251,-767.83 247.83,-771 244.67,-771"/>
<text text-anchor="middle" x="183" y="-759" font-family="Helvetica,sans-Serif" font-size="10.00">RtcmDecoder::rtcmTime</text>
</a>
</g>
</g>
<!-- Node1&#45;&gt;Node30 -->
<g id="edge14_Node000001_Node000030" class="edge">
<title>Node1&#45;&gt;Node30</title>
<g id="a_edge14_Node000001_Node000030"><a xlink:title=" ">
<path fill="none" stroke="#63b8ff" d="M346.16,-621.44C340.59,-652.71 325.16,-712.86 286,-743.5 275.95,-751.37 263.62,-756.26 251.06,-759.21"/>
<polygon fill="#63b8ff" stroke="#63b8ff" points="349.65,-621.76 347.79,-611.33 342.74,-620.65 349.65,-621.76"/>
</a>
</g>
</g>
<!-- Node37 -->
<g id="Node000037" class="node">
<title>Node37</title>
<g id="a_Node000037"><a xlink:href="structNtripStream.html#a83b83e8224d27404c02a2427069fb78e" target="_top" xlink:title=" ">
<path fill="#fff0f0" stroke="red" d="M256.67,-734C256.67,-734 109.33,-734 109.33,-734 106.17,-734 103,-730.83 103,-727.67 103,-727.67 103,-721.33 103,-721.33 103,-718.17 106.17,-715 109.33,-715 109.33,-715 256.67,-715 256.67,-715 259.83,-715 263,-718.17 263,-721.33 263,-721.33 263,-727.67 263,-727.67 263,-730.83 259.83,-734 256.67,-734"/>
<text text-anchor="middle" x="183" y="-722" font-family="Helvetica,sans-Serif" font-size="10.00">NtripStream::serverResponse</text>
</a>
</g>
</g>
<!-- Node1&#45;&gt;Node37 -->
<g id="edge15_Node000001_Node000037" class="edge">
<title>Node1&#45;&gt;Node37</title>
<g id="a_edge15_Node000001_Node000037"><a xlink:title=" ">
<path fill="none" stroke="#63b8ff" d="M343.03,-620.74C334.49,-644.87 316.36,-685.62 286,-706.5 279.04,-711.29 271.19,-714.93 263.02,-717.67"/>
<polygon fill="#63b8ff" stroke="#63b8ff" points="346.36,-621.83 346.2,-611.23 339.72,-619.61 346.36,-621.83"/>
</a>
</g>
</g>
<!-- Node39 -->
<g id="Node000039" class="node">
<title>Node39</title>
<g id="a_Node000039"><a xlink:href="structNtripUploader.html#ad9efbf425316c17c8d8aeda75c7ba4fb" target="_top" xlink:title=" ">
<path fill="#fff0f0" stroke="red" d="M261.17,-697C261.17,-697 104.83,-697 104.83,-697 101.67,-697 98.5,-693.83 98.5,-690.67 98.5,-690.67 98.5,-684.33 98.5,-684.33 98.5,-681.17 101.67,-678 104.83,-678 104.83,-678 261.17,-678 261.17,-678 264.33,-678 267.5,-681.17 267.5,-684.33 267.5,-684.33 267.5,-690.67 267.5,-690.67 267.5,-693.83 264.33,-697 261.17,-697"/>
<text text-anchor="middle" x="183" y="-685" font-family="Helvetica,sans-Serif" font-size="10.00">NtripUploader::serverResponse</text>
</a>
</g>
</g>
<!-- Node1&#45;&gt;Node39 -->
<g id="edge16_Node000001_Node000039" class="edge">
<title>Node1&#45;&gt;Node39</title>
<g id="a_edge16_Node000001_Node000039"><a xlink:title=" ">
<path fill="none" stroke="#63b8ff" d="M337.2,-619.37C325.95,-634.91 307.55,-656.72 286,-668.5 278.89,-672.39 271.12,-675.5 263.16,-677.98"/>
<polygon fill="#63b8ff" stroke="#63b8ff" points="340.14,-621.28 342.97,-611.07 334.39,-617.29 340.14,-621.28"/>
</a>
</g>
</g>
<!-- Node40 -->
<g id="Node000040" class="node">
<title>Node40</title>
<g id="a_Node000040"><a xlink:href="structInteractiveTerminal.html#a1673a1bc7c18472e291aa3b1ed1bb1b7" target="_top" xlink:title=" ">
<path fill="#fff0f0" stroke="red" d="M228.5,-659.5C228.5,-659.5 137.5,-659.5 137.5,-659.5 132.5,-659.5 127.5,-654.5 127.5,-649.5 127.5,-649.5 127.5,-639.5 127.5,-639.5 127.5,-634.5 132.5,-629.5 137.5,-629.5 137.5,-629.5 228.5,-629.5 228.5,-629.5 233.5,-629.5 238.5,-634.5 238.5,-639.5 238.5,-639.5 238.5,-649.5 238.5,-649.5 238.5,-654.5 233.5,-659.5 228.5,-659.5"/>
<text text-anchor="start" x="135.5" y="-647.5" font-family="Helvetica,sans-Serif" font-size="10.00">InteractiveTerminal</text>
<text text-anchor="middle" x="183" y="-636.5" font-family="Helvetica,sans-Serif" font-size="10.00">::setMode</text>
</a>
</g>
</g>
<!-- Node1&#45;&gt;Node40 -->
<g id="edge17_Node000001_Node000040" class="edge">
<title>Node1&#45;&gt;Node40</title>
<g id="a_edge17_Node000001_Node000040"><a xlink:title=" ">
<path fill="none" stroke="#63b8ff" d="M312.1,-613.04C303.56,-615.6 294.49,-618.22 286,-620.5 270.71,-624.6 254.04,-628.68 238.68,-632.29"/>
<polygon fill="#63b8ff" stroke="#63b8ff" points="313.26,-616.35 321.82,-610.1 311.23,-609.65 313.26,-616.35"/>
</a>
</g>
</g>
<!-- Node48 -->
<g id="Node000048" class="node">
<title>Node48</title>
<g id="a_Node000048"><a xlink:href="debug_8cpp.html#a48ec21d056df993e81de30a4d1306899" target="_top" xlink:title="Compare the orbital states created by pseudo&#45;linear state transitions with the original values.">
<path fill="#fff0f0" stroke="red" d="M210.67,-611C210.67,-611 155.33,-611 155.33,-611 152.17,-611 149,-607.83 149,-604.67 149,-604.67 149,-598.33 149,-598.33 149,-595.17 152.17,-592 155.33,-592 155.33,-592 210.67,-592 210.67,-592 213.83,-592 217,-595.17 217,-598.33 217,-598.33 217,-604.67 217,-604.67 217,-607.83 213.83,-611 210.67,-611"/>
<text text-anchor="middle" x="183" y="-599" font-family="Helvetica,sans-Serif" font-size="10.00">timecheck</text>
</a>
</g>
</g>
<!-- Node1&#45;&gt;Node48 -->
<g id="edge19_Node000001_Node000048" class="edge">
<title>Node1&#45;&gt;Node48</title>
<g id="a_edge19_Node000001_Node000048"><a xlink:title=" ">
<path fill="none" stroke="#63b8ff" d="M311.43,-601.5C283.07,-601.5 244.52,-601.5 217.27,-601.5"/>
<polygon fill="#63b8ff" stroke="#63b8ff" points="311.75,-605 321.75,-601.5 311.75,-598 311.75,-605"/>
</a>
</g>
</g>
<!-- Node49 -->
<g id="Node000049" class="node">
<title>Node49</title>
<g id="a_Node000049"><a xlink:href="structRtcmTrace.html#a7988263389150711e951a4df5f1dcdd1" target="_top" xlink:title="Write decoded/encoded GPS/GAL/BDS/QZS ephemeris messages to a json file.">
<path fill="#fff0f0" stroke="red" d="M245.67,-574C245.67,-574 120.33,-574 120.33,-574 117.17,-574 114,-570.83 114,-567.67 114,-567.67 114,-561.33 114,-561.33 114,-558.17 117.17,-555 120.33,-555 120.33,-555 245.67,-555 245.67,-555 248.83,-555 252,-558.17 252,-561.33 252,-561.33 252,-567.67 252,-567.67 252,-570.83 248.83,-574 245.67,-574"/>
<text text-anchor="middle" x="183" y="-562" font-family="Helvetica,sans-Serif" font-size="10.00">RtcmTrace::traceBrdcEph</text>
</a>
</g>
</g>
<!-- Node1&#45;&gt;Node49 -->
<g id="edge20_Node000001_Node000049" class="edge">
<title>Node1&#45;&gt;Node49</title>
<g id="a_edge20_Node000001_Node000049"><a xlink:title=" ">
<path fill="none" stroke="#63b8ff" d="M312.14,-590.34C303.6,-587.93 294.52,-585.5 286,-583.5 271.27,-580.03 255.23,-576.79 240.32,-574.01"/>
<polygon fill="#63b8ff" stroke="#63b8ff" points="311.28,-593.73 321.86,-593.14 313.22,-587.01 311.28,-593.73"/>
</a>
</g>
</g>
<!-- Node52 -->
<g id="Node000052" class="node">
<title>Node52</title>
<g id="a_Node000052"><a xlink:href="structRtcmTrace.html#af164612e34a83d1452ef214af3736004" target="_top" xlink:title="Write decoded/encoded GAL ephemeris messages to a json file.">
<path fill="#fff0f0" stroke="red" d="M245.67,-537C245.67,-537 120.33,-537 120.33,-537 117.17,-537 114,-533.83 114,-530.67 114,-530.67 114,-524.33 114,-524.33 114,-521.17 117.17,-518 120.33,-518 120.33,-518 245.67,-518 245.67,-518 248.83,-518 252,-521.17 252,-524.33 252,-524.33 252,-530.67 252,-530.67 252,-533.83 248.83,-537 245.67,-537"/>
<text text-anchor="middle" x="183" y="-525" font-family="Helvetica,sans-Serif" font-size="10.00">RtcmTrace::traceBrdcEph</text>
</a>
</g>
</g>
<!-- Node1&#45;&gt;Node52 -->
<g id="edge21_Node000001_Node000052" class="edge">
<title>Node1&#45;&gt;Node52</title>
<g id="a_edge21_Node000001_Node000052"><a xlink:title=" ">
<path fill="none" stroke="#63b8ff" d="M333.87,-584.03C322.09,-571.59 304.65,-555.53 286,-546.5 275.46,-541.4 263.7,-537.66 252.01,-534.93"/>
<polygon fill="#63b8ff" stroke="#63b8ff" points="331.42,-586.54 340.75,-591.57 336.6,-581.83 331.42,-586.54"/>
</a>
</g>
</g>
<!-- Node53 -->
<g id="Node000053" class="node">
<title>Node53</title>
<g id="a_Node000053"><a xlink:href="structRtcmDecoder.html#a2d3cb177d3e79308289e9b23b5c46bbc" target="_top" xlink:title=" ">
<path fill="#fff0f0" stroke="red" d="M252.67,-500C252.67,-500 113.33,-500 113.33,-500 110.17,-500 107,-496.83 107,-493.67 107,-493.67 107,-487.33 107,-487.33 107,-484.17 110.17,-481 113.33,-481 113.33,-481 252.67,-481 252.67,-481 255.83,-481 259,-484.17 259,-487.33 259,-487.33 259,-493.67 259,-493.67 259,-496.83 255.83,-500 252.67,-500"/>
<text text-anchor="middle" x="183" y="-488" font-family="Helvetica,sans-Serif" font-size="10.00">RtcmDecoder::traceLatency</text>
</a>
</g>
</g>
<!-- Node1&#45;&gt;Node53 -->
<g id="edge22_Node000001_Node000053" class="edge">
<title>Node1&#45;&gt;Node53</title>
<g id="a_edge22_Node000001_Node000053"><a xlink:title=" ">
<path fill="none" stroke="#63b8ff" d="M341.37,-582.49C331.77,-561.15 313.18,-527.2 286,-509.5 277.85,-504.19 268.6,-500.28 259.07,-497.41"/>
<polygon fill="#63b8ff" stroke="#63b8ff" points="338.21,-584.01 345.36,-591.83 344.65,-581.26 338.21,-584.01"/>
</a>
</g>
</g>
<!-- Node54 -->
<g id="Node000054" class="node">
<title>Node54</title>
<g id="a_Node000054"><a xlink:href="structRtcmTrace.html#abcc1eaba01587cf66fb1637b0969c161" target="_top" xlink:title="Write msm message to a json file.">
<path fill="#fff0f0" stroke="red" d="M237.67,-463C237.67,-463 128.33,-463 128.33,-463 125.17,-463 122,-459.83 122,-456.67 122,-456.67 122,-450.33 122,-450.33 122,-447.17 125.17,-444 128.33,-444 128.33,-444 237.67,-444 237.67,-444 240.83,-444 244,-447.17 244,-450.33 244,-450.33 244,-456.67 244,-456.67 244,-459.83 240.83,-463 237.67,-463"/>
<text text-anchor="middle" x="183" y="-451" font-family="Helvetica,sans-Serif" font-size="10.00">RtcmTrace::traceMSM</text>
</a>
</g>
</g>
<!-- Node1&#45;&gt;Node54 -->
<g id="edge23_Node000001_Node000054" class="edge">
<title>Node1&#45;&gt;Node54</title>
<g id="a_edge23_Node000001_Node000054"><a xlink:title=" ">
<path fill="none" stroke="#63b8ff" d="M345.19,-581.79C338.53,-552.98 321.9,-499.81 286,-472.5 274.03,-463.39 259.02,-458.21 244.22,-455.35"/>
<polygon fill="#63b8ff" stroke="#63b8ff" points="341.83,-582.81 347.34,-591.86 348.67,-581.35 341.83,-582.81"/>
</a>
</g>
</g>
<!-- Node55 -->
<g id="Node000055" class="node">
<title>Node55</title>
<g id="a_Node000055"><a xlink:href="structRtcmTrace.html#a77967bdcccaac67fdcd956d47da16055" target="_top" xlink:title=" ">
<path fill="#fff0f0" stroke="red" d="M241.17,-426C241.17,-426 124.83,-426 124.83,-426 121.67,-426 118.5,-422.83 118.5,-419.67 118.5,-419.67 118.5,-413.33 118.5,-413.33 118.5,-410.17 121.67,-407 124.83,-407 124.83,-407 241.17,-407 241.17,-407 244.33,-407 247.5,-410.17 247.5,-413.33 247.5,-413.33 247.5,-419.67 247.5,-419.67 247.5,-422.83 244.33,-426 241.17,-426"/>
<text text-anchor="middle" x="183" y="-414" font-family="Helvetica,sans-Serif" font-size="10.00">RtcmTrace::traceSsrClk</text>
</a>
</g>
</g>
<!-- Node1&#45;&gt;Node55 -->
<g id="edge24_Node000001_Node000055" class="edge">
<title>Node1&#45;&gt;Node55</title>
<g id="a_edge24_Node000001_Node000055"><a xlink:title=" ">
<path fill="none" stroke="#63b8ff" d="M347.58,-581.8C343.93,-546.61 331.03,-473.13 286,-435.5 275.22,-426.49 261.54,-421.21 247.73,-418.22"/>
<polygon fill="#63b8ff" stroke="#63b8ff" points="344.1,-582.13 348.47,-591.78 351.07,-581.51 344.1,-582.13"/>
</a>
</g>
</g>
<!-- Node57 -->
<g id="Node000057" class="node">
<title>Node57</title>
<g id="a_Node000057"><a xlink:href="structRtcmTrace.html#abcf156ad1b35a69c33db080f609b6f16" target="_top" xlink:title=" ">
<path fill="#fff0f0" stroke="red" d="M256.17,-389C256.17,-389 109.83,-389 109.83,-389 106.67,-389 103.5,-385.83 103.5,-382.67 103.5,-382.67 103.5,-376.33 103.5,-376.33 103.5,-373.17 106.67,-370 109.83,-370 109.83,-370 256.17,-370 256.17,-370 259.33,-370 262.5,-373.17 262.5,-376.33 262.5,-376.33 262.5,-382.67 262.5,-382.67 262.5,-385.83 259.33,-389 256.17,-389"/>
<text text-anchor="middle" x="183" y="-377" font-family="Helvetica,sans-Serif" font-size="10.00">RtcmTrace::traceSsrCodeBias</text>
</a>
</g>
</g>
<!-- Node1&#45;&gt;Node57 -->
<g id="edge25_Node000001_Node000057" class="edge">
<title>Node1&#45;&gt;Node57</title>
<g id="a_edge25_Node000001_Node000057"><a xlink:title=" ">
<path fill="none" stroke="#63b8ff" d="M349.15,-581.52C348.3,-540.53 340.18,-446.7 286,-398.5 279.2,-392.45 271.12,-388.05 262.52,-384.89"/>
<polygon fill="#63b8ff" stroke="#63b8ff" points="345.65,-581.63 349.23,-591.6 352.65,-581.58 345.65,-581.63"/>
</a>
</g>
</g>
<!-- Node59 -->
<g id="Node000059" class="node">
<title>Node59</title>
<g id="a_Node000059"><a xlink:href="structRtcmTrace.html#ab77b0368e1844bb77eb8a91845c35673" target="_top" xlink:title=" ">
<path fill="#fff0f0" stroke="red" d="M242.17,-352C242.17,-352 123.83,-352 123.83,-352 120.67,-352 117.5,-348.83 117.5,-345.67 117.5,-345.67 117.5,-339.33 117.5,-339.33 117.5,-336.17 120.67,-333 123.83,-333 123.83,-333 242.17,-333 242.17,-333 245.33,-333 248.5,-336.17 248.5,-339.33 248.5,-339.33 248.5,-345.67 248.5,-345.67 248.5,-348.83 245.33,-352 242.17,-352"/>
<text text-anchor="middle" x="183" y="-340" font-family="Helvetica,sans-Serif" font-size="10.00">RtcmTrace::traceSsrEph</text>
</a>
</g>
</g>
<!-- Node1&#45;&gt;Node59 -->
<g id="edge26_Node000001_Node000059" class="edge">
<title>Node1&#45;&gt;Node59</title>
<g id="a_edge26_Node000001_Node000059"><a xlink:title=" ">
<path fill="none" stroke="#63b8ff" d="M346.53,-581.72C339.66,-529.85 318.63,-391.84 286,-361.5 275.78,-351.99 262.4,-346.5 248.71,-343.46"/>
<polygon fill="#63b8ff" stroke="#63b8ff" points="343.1,-582.45 347.85,-591.92 350.04,-581.56 343.1,-582.45"/>
</a>
</g>
</g>
<!-- Node60 -->
<g id="Node000060" class="node">
<title>Node60</title>
<g id="a_Node000060"><a xlink:href="structRtcmTrace.html#a72cc456a169363422bbdb71c4f12ab4f" target="_top" xlink:title=" ">
<path fill="#fff0f0" stroke="red" d="M248.17,-315C248.17,-315 117.83,-315 117.83,-315 114.67,-315 111.5,-311.83 111.5,-308.67 111.5,-308.67 111.5,-302.33 111.5,-302.33 111.5,-299.17 114.67,-296 117.83,-296 117.83,-296 248.17,-296 248.17,-296 251.33,-296 254.5,-299.17 254.5,-302.33 254.5,-302.33 254.5,-308.67 254.5,-308.67 254.5,-311.83 251.33,-315 248.17,-315"/>
<text text-anchor="middle" x="183" y="-303" font-family="Helvetica,sans-Serif" font-size="10.00">RtcmTrace::traceSsrHRClk</text>
</a>
</g>
</g>
<!-- Node1&#45;&gt;Node60 -->
<g id="edge27_Node000001_Node000060" class="edge">
<title>Node1&#45;&gt;Node60</title>
<g id="a_edge27_Node000001_Node000060"><a xlink:title=" ">
<path fill="none" stroke="#63b8ff" d="M347.28,-581.77C341.9,-524.57 323.42,-360.47 286,-324.5 277.36,-316.2 266.33,-310.93 254.73,-307.67"/>
<polygon fill="#63b8ff" stroke="#63b8ff" points="343.82,-582.35 348.21,-591.99 350.79,-581.71 343.82,-582.35"/>
</a>
</g>
</g>
<!-- Node61 -->
<g id="Node000061" class="node">
<title>Node61</title>
<g id="a_Node000061"><a xlink:href="structRtcmTrace.html#ab176960d2a094f050f187909b777d677" target="_top" xlink:title=" ">
<path fill="#fff0f0" stroke="red" d="M255.67,-278C255.67,-278 110.33,-278 110.33,-278 107.17,-278 104,-274.83 104,-271.67 104,-271.67 104,-265.33 104,-265.33 104,-262.17 107.17,-259 110.33,-259 110.33,-259 255.67,-259 255.67,-259 258.83,-259 262,-262.17 262,-265.33 262,-265.33 262,-271.67 262,-271.67 262,-274.83 258.83,-278 255.67,-278"/>
<text text-anchor="middle" x="183" y="-266" font-family="Helvetica,sans-Serif" font-size="10.00">RtcmTrace::traceSsrPhasBias</text>
</a>
</g>
</g>
<!-- Node1&#45;&gt;Node61 -->
<g id="edge28_Node000001_Node000061" class="edge">
<title>Node1&#45;&gt;Node61</title>
<g id="a_edge28_Node000001_Node000061"><a xlink:title=" ">
<path fill="none" stroke="#63b8ff" d="M347.85,-581.62C343.81,-519.25 328.2,-329.12 286,-287.5 279.27,-280.86 271.01,-276.14 262.13,-272.84"/>
<polygon fill="#63b8ff" stroke="#63b8ff" points="344.36,-581.95 348.47,-591.71 351.35,-581.52 344.36,-581.95"/>
</a>
</g>
</g>
<!-- Node63 -->
<g id="Node000063" class="node">
<title>Node63</title>
<g id="a_Node000063"><a xlink:href="structRtcmTrace.html#aa9417bd4a22314d42e8064f78f12d26d" target="_top" xlink:title=" ">
<path fill="#fff0f0" stroke="red" d="M242.17,-241C242.17,-241 123.83,-241 123.83,-241 120.67,-241 117.5,-237.83 117.5,-234.67 117.5,-234.67 117.5,-228.33 117.5,-228.33 117.5,-225.17 120.67,-222 123.83,-222 123.83,-222 242.17,-222 242.17,-222 245.33,-222 248.5,-225.17 248.5,-228.33 248.5,-228.33 248.5,-234.67 248.5,-234.67 248.5,-237.83 245.33,-241 242.17,-241"/>
<text text-anchor="middle" x="183" y="-229" font-family="Helvetica,sans-Serif" font-size="10.00">RtcmTrace::traceSsrUra</text>
</a>
</g>
</g>
<!-- Node1&#45;&gt;Node63 -->
<g id="edge29_Node000001_Node000063" class="edge">
<title>Node1&#45;&gt;Node63</title>
<g id="a_edge29_Node000001_Node000063"><a xlink:title=" ">
<path fill="none" stroke="#63b8ff" d="M348.32,-581.95C345.58,-515.21 333.13,-297.94 286,-250.5 276.03,-240.47 262.59,-234.8 248.74,-231.77"/>
<polygon fill="#63b8ff" stroke="#63b8ff" points="344.82,-582.1 348.7,-591.96 351.82,-581.83 344.82,-582.1"/>
</a>
</g>
</g>
<!-- Node65 -->
<g id="Node000065" class="node">
<title>Node65</title>
<g id="a_Node000065"><a xlink:href="biasSINEXwrite_8cpp.html#a986e047c2dd383adf5526d99e5c418c4" target="_top" xlink:title="Update bias SINEX first line.">
<path fill="#fff0f0" stroke="red" d="M222.67,-204C222.67,-204 143.33,-204 143.33,-204 140.17,-204 137,-200.83 137,-197.67 137,-197.67 137,-191.33 137,-191.33 137,-188.17 140.17,-185 143.33,-185 143.33,-185 222.67,-185 222.67,-185 225.83,-185 229,-188.17 229,-191.33 229,-191.33 229,-197.67 229,-197.67 229,-200.83 225.83,-204 222.67,-204"/>
<text text-anchor="middle" x="183" y="-192" font-family="Helvetica,sans-Serif" font-size="10.00">updateFirstLine</text>
</a>
</g>
</g>
<!-- Node1&#45;&gt;Node65 -->
<g id="edge30_Node000001_Node000065" class="edge">
<title>Node1&#45;&gt;Node65</title>
<g id="a_edge30_Node000001_Node000065"><a xlink:title=" ">
<path fill="none" stroke="#63b8ff" d="M348.67,-581.31C347.07,-509.31 337.84,-266.56 286,-213.5 271.4,-198.55 249.09,-193.25 229.05,-191.92"/>
<polygon fill="#63b8ff" stroke="#63b8ff" points="345.18,-581.76 348.87,-591.69 352.18,-581.62 345.18,-581.76"/>
</a>
</g>
</g>
<!-- Node68 -->
<g id="Node000068" class="node">
<title>Node68</title>
<g id="a_Node000068"><a xlink:href="sinex_8cpp.html#a9bfed2d672ee9bb9add94ca832d4cfba" target="_top" xlink:title=" ">
<path fill="#fff0f0" stroke="red" d="M233.17,-167C233.17,-167 132.83,-167 132.83,-167 129.67,-167 126.5,-163.83 126.5,-160.67 126.5,-160.67 126.5,-154.33 126.5,-154.33 126.5,-151.17 129.67,-148 132.83,-148 132.83,-148 233.17,-148 233.17,-148 236.33,-148 239.5,-151.17 239.5,-154.33 239.5,-154.33 239.5,-160.67 239.5,-160.67 239.5,-163.83 236.33,-167 233.17,-167"/>
<text text-anchor="middle" x="183" y="-155" font-family="Helvetica,sans-Serif" font-size="10.00">updateSinexHeader</text>
</a>
</g>
</g>
<!-- Node1&#45;&gt;Node68 -->
<g id="edge31_Node000001_Node000068" class="edge">
<title>Node1&#45;&gt;Node68</title>
<g id="a_edge31_Node000001_Node000068"><a xlink:title=" ">
<path fill="none" stroke="#63b8ff" d="M348.99,-581.87C348.53,-506.3 342.86,-235.51 286,-176.5 274,-164.05 256.66,-158.26 239.66,-155.9"/>
<polygon fill="#63b8ff" stroke="#63b8ff" points="345.49,-581.92 349.03,-591.91 352.49,-581.89 345.49,-581.92"/>
</a>
</g>
</g>
<!-- Node72 -->
<g id="Node000072" class="node">
<title>Node72</title>
<g id="a_Node000072"><a xlink:href="ionexWrite_8cpp.html#a210edc109068291059974a8a9622aa1a" target="_top" xlink:title=" ">
<path fill="#fff0f0" stroke="red" d="M223.67,-130C223.67,-130 142.33,-130 142.33,-130 139.17,-130 136,-126.83 136,-123.67 136,-123.67 136,-117.33 136,-117.33 136,-114.17 139.17,-111 142.33,-111 142.33,-111 223.67,-111 223.67,-111 226.83,-111 230,-114.17 230,-117.33 230,-117.33 230,-123.67 230,-123.67 230,-126.83 226.83,-130 223.67,-130"/>
<text text-anchor="middle" x="183" y="-118" font-family="Helvetica,sans-Serif" font-size="10.00">writeIonexHead</text>
</a>
</g>
</g>
<!-- Node1&#45;&gt;Node72 -->
<g id="edge32_Node000001_Node000072" class="edge">
<title>Node1&#45;&gt;Node72</title>
<g id="a_edge32_Node000001_Node000072"><a xlink:title=" ">
<path fill="none" stroke="#63b8ff" d="M349.25,-581.72C349.82,-501.85 347.73,-204.31 286,-139.5 271.77,-124.57 249.87,-119.19 230,-117.81"/>
<polygon fill="#63b8ff" stroke="#63b8ff" points="345.75,-581.84 349.15,-591.87 352.75,-581.91 345.75,-581.84"/>
</a>
</g>
</g>
<!-- Node74 -->
<g id="Node000074" class="node">
<title>Node74</title>
<g id="a_Node000074"><a xlink:href="orbexWrite_8cpp.html#a68acb232854e3173995f4c0441d7de70" target="_top" xlink:title="Write ORBEX header lines and header blocks including FILE/DESCRIPTION and SATELLITE/ID_AND_DESCRIPTIO...">
<path fill="#fff0f0" stroke="red" d="M229.67,-93C229.67,-93 136.33,-93 136.33,-93 133.17,-93 130,-89.83 130,-86.67 130,-86.67 130,-80.33 130,-80.33 130,-77.17 133.17,-74 136.33,-74 136.33,-74 229.67,-74 229.67,-74 232.83,-74 236,-77.17 236,-80.33 236,-80.33 236,-86.67 236,-86.67 236,-89.83 232.83,-93 229.67,-93"/>
<text text-anchor="middle" x="183" y="-81" font-family="Helvetica,sans-Serif" font-size="10.00">writeOrbexHeader</text>
</a>
</g>
</g>
<!-- Node1&#45;&gt;Node74 -->
<g id="edge33_Node000001_Node000074" class="edge">
<title>Node1&#45;&gt;Node74</title>
<g id="a_edge33_Node000001_Node000074"><a xlink:title=" ">
<path fill="none" stroke="#63b8ff" d="M349.47,-581.77C351.03,-498.04 352.66,-173.18 286,-102.5 273.27,-89 254.27,-83.29 236.11,-81.28"/>
<polygon fill="#63b8ff" stroke="#63b8ff" points="345.97,-581.86 349.26,-591.93 352.97,-582.01 345.97,-581.86"/>
</a>
</g>
</g>
<!-- Node78 -->
<g id="Node000078" class="node">
<title>Node78</title>
<g id="a_Node000078"><a xlink:href="rinexObsWrite_8cpp.html#a17ede47eaf17a5f797910579288b6904" target="_top" xlink:title=" ">
<path fill="#fff0f0" stroke="red" d="M238.17,-56C238.17,-56 127.83,-56 127.83,-56 124.67,-56 121.5,-52.83 121.5,-49.67 121.5,-49.67 121.5,-43.33 121.5,-43.33 121.5,-40.17 124.67,-37 127.83,-37 127.83,-37 238.17,-37 238.17,-37 241.33,-37 244.5,-40.17 244.5,-43.33 244.5,-43.33 244.5,-49.67 244.5,-49.67 244.5,-52.83 241.33,-56 238.17,-56"/>
<text text-anchor="middle" x="183" y="-44" font-family="Helvetica,sans-Serif" font-size="10.00">writeRinexObsHeader</text>
</a>
</g>
</g>
<!-- Node1&#45;&gt;Node78 -->
<g id="edge34_Node000001_Node000078" class="edge">
<title>Node1&#45;&gt;Node78</title>
<g id="a_edge34_Node000001_Node000078"><a xlink:title=" ">
<path fill="none" stroke="#63b8ff" d="M348.03,-581.37C343.36,-488.47 321.98,-103.98 286,-65.5 275.3,-54.05 260.09,-48.19 244.67,-45.44"/>
<polygon fill="#63b8ff" stroke="#63b8ff" points="344.55,-581.83 348.54,-591.64 351.54,-581.48 344.55,-581.83"/>
</a>
</g>
</g>
<!-- Node81 -->
<g id="Node000081" class="node">
<title>Node81</title>
<g id="a_Node000081"><a xlink:href="sp3Write_8cpp.html#ab4606ad3c7415880b4adc10c1bfeab0e" target="_top" xlink:title=" ">
<path fill="#fff0f0" stroke="red" d="M224.17,-19C224.17,-19 141.83,-19 141.83,-19 138.67,-19 135.5,-15.83 135.5,-12.67 135.5,-12.67 135.5,-6.33 135.5,-6.33 135.5,-3.17 138.67,0 141.83,0 141.83,0 224.17,0 224.17,0 227.33,0 230.5,-3.17 230.5,-6.33 230.5,-6.33 230.5,-12.67 230.5,-12.67 230.5,-15.83 227.33,-19 224.17,-19"/>
<text text-anchor="middle" x="183" y="-7" font-family="Helvetica,sans-Serif" font-size="10.00">writeSp3Header</text>
</a>
</g>
</g>
<!-- Node1&#45;&gt;Node81 -->
<g id="edge35_Node000001_Node000081" class="edge">
<title>Node1&#45;&gt;Node81</title>
<g id="a_edge35_Node000001_Node000081"><a xlink:title=" ">
<path fill="none" stroke="#63b8ff" d="M348.21,-581.83C344.17,-485.89 324.51,-70 286,-28.5 272.09,-13.51 250.47,-8.08 230.7,-6.68"/>
<polygon fill="#63b8ff" stroke="#63b8ff" points="344.71,-582.05 348.62,-591.9 351.71,-581.76 344.71,-582.05"/>
</a>
</g>
</g>
<!-- Node21&#45;&gt;Node21 -->
<g id="edge11_Node000021_Node000021" class="edge">
<title>Node21&#45;&gt;Node21</title>
<g id="a_edge11_Node000021_Node000021"><a xlink:title=" ">
<path fill="none" stroke="#63b8ff" d="M211.01,-904.1C207.18,-908.47 197.84,-911.5 183,-911.5 158,-911.5 148.62,-902.91 154.88,-893.78"/>
<polygon fill="#63b8ff" stroke="#63b8ff" points="214.51,-903.82 211.12,-893.78 207.51,-903.73 214.51,-903.82"/>
</a>
</g>
</g>
<!-- Node40&#45;&gt;Node18 -->
<g id="edge18_Node000040_Node000018" class="edge">
<title>Node40&#45;&gt;Node18</title>
<g id="a_edge18_Node000040_Node000018"><a xlink:title=" ">
<path fill="none" stroke="#63b8ff" d="M117.41,-650.68C103.88,-654.47 90.54,-660.38 80,-669.5 38.68,-705.27 26.91,-775.38 23.92,-800.91"/>
<polygon fill="#63b8ff" stroke="#63b8ff" points="118.37,-654.05 127.25,-648.28 116.71,-647.25 118.37,-654.05"/>
</a>
</g>
</g>
</g>
</svg>
