<?xml version="1.0" encoding="UTF-8" standalone="no"?>
<!DOCTYPE svg PUBLIC "-//W3C//DTD SVG 1.1//EN"
 "http://www.w3.org/Graphics/SVG/1.1/DTD/svg11.dtd">
<!-- Generated by graphviz version 2.43.0 (0)
 -->
<!-- Title: nearestTime Pages: 1 -->
<svg width="209pt" height="64pt"
 viewBox="0.00 0.00 209.00 64.00" xmlns="http://www.w3.org/2000/svg" xmlns:xlink="http://www.w3.org/1999/xlink">
<g id="graph0" class="graph" transform="scale(1 1) rotate(0) translate(4 60)">
<title>nearestTime</title>
<!-- Node1 -->
<g id="Node000001" class="node">
<title>Node1</title>
<g id="a_Node000001"><a xlink:href="gTime_8cpp.html#a001b94b278b88e03ac91aa9736c31f65" target="_top" xlink:title="Use a time of modulus and recent time to calculate the new time.">
<path fill="#fff0f0" stroke="red" stroke-width="2" d="M194.67,-37C194.67,-37 129.33,-37 129.33,-37 126.17,-37 123,-33.83 123,-30.67 123,-30.67 123,-24.33 123,-24.33 123,-21.17 126.17,-18 129.33,-18 129.33,-18 194.67,-18 194.67,-18 197.83,-18 201,-21.17 201,-24.33 201,-24.33 201,-30.67 201,-30.67 201,-33.83 197.83,-37 194.67,-37"/>
<text text-anchor="middle" x="162" y="-25" font-family="Helvetica,sans-Serif" font-size="10.00">nearestTime</text>
</a>
</g>
</g>
<!-- Node2 -->
<g id="Node000002" class="node">
<title>Node2</title>
<g id="a_Node000002"><a xlink:href="structGTime.html#a250b532df1f7b6496ad7044152bd05e8" target="_top" xlink:title=" ">
<path fill="#fff0f0" stroke="red" d="M80.67,-56C80.67,-56 6.33,-56 6.33,-56 3.17,-56 0,-52.83 0,-49.67 0,-49.67 0,-43.33 0,-43.33 0,-40.17 3.17,-37 6.33,-37 6.33,-37 80.67,-37 80.67,-37 83.83,-37 87,-40.17 87,-43.33 87,-43.33 87,-49.67 87,-49.67 87,-52.83 83.83,-56 80.67,-56"/>
<text text-anchor="middle" x="43.5" y="-44" font-family="Helvetica,sans-Serif" font-size="10.00">GTime::GTime</text>
</a>
</g>
</g>
<!-- Node1&#45;&gt;Node2 -->
<g id="edge1_Node000001_Node000002" class="edge">
<title>Node1&#45;&gt;Node2</title>
<g id="a_edge1_Node000001_Node000002"><a xlink:title=" ">
<path fill="none" stroke="#63b8ff" d="M112.71,-35.38C104.24,-36.76 95.47,-38.19 87.17,-39.54"/>
<polygon fill="#63b8ff" stroke="#63b8ff" points="113.55,-38.79 122.85,-33.72 112.42,-31.88 113.55,-38.79"/>
</a>
</g>
</g>
<!-- Node3 -->
<g id="Node000003" class="node">
<title>Node3</title>
<g id="a_Node000003"><a xlink:href="structGTime.html#a9c3afec890ece4e0c1e56a8f66091736" target="_top" xlink:title=" ">
<path fill="#fff0f0" stroke="red" d="M80.67,-19C80.67,-19 6.33,-19 6.33,-19 3.17,-19 0,-15.83 0,-12.67 0,-12.67 0,-6.33 0,-6.33 0,-3.17 3.17,0 6.33,0 6.33,0 80.67,0 80.67,0 83.83,0 87,-3.17 87,-6.33 87,-6.33 87,-12.67 87,-12.67 87,-15.83 83.83,-19 80.67,-19"/>
<text text-anchor="middle" x="43.5" y="-7" font-family="Helvetica,sans-Serif" font-size="10.00">GTime::GTime</text>
</a>
</g>
</g>
<!-- Node1&#45;&gt;Node3 -->
<g id="edge2_Node000001_Node000003" class="edge">
<title>Node1&#45;&gt;Node3</title>
<g id="a_edge2_Node000001_Node000003"><a xlink:title=" ">
<path fill="none" stroke="#63b8ff" d="M112.71,-20.04C104.24,-18.73 95.47,-17.38 87.17,-16.09"/>
<polygon fill="#63b8ff" stroke="#63b8ff" points="112.44,-23.54 122.85,-21.61 113.51,-16.62 112.44,-23.54"/>
</a>
</g>
</g>
</g>
</svg>
