<?xml version="1.0" encoding="UTF-8" standalone="no"?>
<!DOCTYPE svg PUBLIC "-//W3C//DTD SVG 1.1//EN"
 "http://www.w3.org/Graphics/SVG/1.1/DTD/svg11.dtd">
<!-- Generated by graphviz version 2.43.0 (0)
 -->
<!-- Title: timeGet Pages: 1 -->
<svg width="383pt" height="1266pt"
 viewBox="0.00 0.00 383.00 1266.00" xmlns="http://www.w3.org/2000/svg" xmlns:xlink="http://www.w3.org/1999/xlink">
<g id="graph0" class="graph" transform="scale(1 1) rotate(0) translate(4 1262)">
<title>timeGet</title>
<!-- Node1 -->
<g id="Node000001" class="node">
<title>Node1</title>
<g id="a_Node000001"><a xlink:href="gTime_8cpp.html#abc73cf336f9fa1b3622c933d5925e073" target="_top" xlink:title=" ">
<path fill="#fff0f0" stroke="red" stroke-width="2" d="M368.67,-611C368.67,-611 325.33,-611 325.33,-611 322.17,-611 319,-607.83 319,-604.67 319,-604.67 319,-598.33 319,-598.33 319,-595.17 322.17,-592 325.33,-592 325.33,-592 368.67,-592 368.67,-592 371.83,-592 375,-595.17 375,-598.33 375,-598.33 375,-604.67 375,-604.67 375,-607.83 371.83,-611 368.67,-611"/>
<text text-anchor="middle" x="347" y="-599" font-family="Helvetica,sans-Serif" font-size="10.00">timeGet</text>
</a>
</g>
</g>
<!-- Node2 -->
<g id="Node000002" class="node">
<title>Node2</title>
<g id="a_Node000002"><a xlink:href="structTcpSocket.html#a70b1ac4ab92ceee63c2088cb2ffcf2f8" target="_top" xlink:title=" ">
<path fill="#fff0f0" stroke="red" d="M247.17,-1258C247.17,-1258 112.83,-1258 112.83,-1258 109.67,-1258 106.5,-1254.83 106.5,-1251.67 106.5,-1251.67 106.5,-1245.33 106.5,-1245.33 106.5,-1242.17 109.67,-1239 112.83,-1239 112.83,-1239 247.17,-1239 247.17,-1239 250.33,-1239 253.5,-1242.17 253.5,-1245.33 253.5,-1245.33 253.5,-1251.67 253.5,-1251.67 253.5,-1254.83 250.33,-1258 247.17,-1258"/>
<text text-anchor="middle" x="180" y="-1246" font-family="Helvetica,sans-Serif" font-size="10.00">TcpSocket::connectionError</text>
</a>
</g>
</g>
<!-- Node1&#45;&gt;Node2 -->
<g id="edge1_Node000001_Node000002" class="edge">
<title>Node1&#45;&gt;Node2</title>
<g id="a_edge1_Node000001_Node000002"><a xlink:title=" ">
<path fill="none" stroke="#63b8ff" d="M345.42,-621.15C342.24,-722.66 325.5,-1184.7 283,-1230.5 275.11,-1239 264.72,-1244.36 253.59,-1247.63"/>
<polygon fill="#63b8ff" stroke="#63b8ff" points="348.92,-621.17 345.73,-611.06 341.92,-620.95 348.92,-621.17"/>
</a>
</g>
</g>
<!-- Node3 -->
<g id="Node000003" class="node">
<title>Node3</title>
<g id="a_Node000003"><a xlink:href="structFileLog.html#a4c522b80ca142d8e05f0d7e0cee5d186" target="_top" xlink:title=" ">
<path fill="#fff0f0" stroke="red" d="M224.17,-1221C224.17,-1221 135.83,-1221 135.83,-1221 132.67,-1221 129.5,-1217.83 129.5,-1214.67 129.5,-1214.67 129.5,-1208.33 129.5,-1208.33 129.5,-1205.17 132.67,-1202 135.83,-1202 135.83,-1202 224.17,-1202 224.17,-1202 227.33,-1202 230.5,-1205.17 230.5,-1208.33 230.5,-1208.33 230.5,-1214.67 230.5,-1214.67 230.5,-1217.83 227.33,-1221 224.17,-1221"/>
<text text-anchor="middle" x="180" y="-1209" font-family="Helvetica,sans-Serif" font-size="10.00">FileLog::consume</text>
</a>
</g>
</g>
<!-- Node1&#45;&gt;Node3 -->
<g id="edge2_Node000001_Node000003" class="edge">
<title>Node1&#45;&gt;Node3</title>
<g id="a_edge2_Node000001_Node000003"><a xlink:title=" ">
<path fill="none" stroke="#63b8ff" d="M345.28,-621.53C341.53,-720.1 322.95,-1150.71 283,-1193.5 269.75,-1207.7 249.52,-1213.12 230.57,-1214.64"/>
<polygon fill="#63b8ff" stroke="#63b8ff" points="348.78,-621.55 345.65,-611.42 341.78,-621.29 348.78,-621.55"/>
</a>
</g>
</g>
<!-- Node4 -->
<g id="Node000004" class="node">
<title>Node4</title>
<g id="a_Node000004"><a xlink:href="debug_8cpp.html#af275684b11864c00a1be8ec4f9498ef6" target="_top" xlink:title=" ">
<path fill="#fff0f0" stroke="red" d="M209.17,-1184C209.17,-1184 150.83,-1184 150.83,-1184 147.67,-1184 144.5,-1180.83 144.5,-1177.67 144.5,-1177.67 144.5,-1171.33 144.5,-1171.33 144.5,-1168.17 147.67,-1165 150.83,-1165 150.83,-1165 209.17,-1165 209.17,-1165 212.33,-1165 215.5,-1168.17 215.5,-1171.33 215.5,-1171.33 215.5,-1177.67 215.5,-1177.67 215.5,-1180.83 212.33,-1184 209.17,-1184"/>
<text text-anchor="middle" x="180" y="-1172" font-family="Helvetica,sans-Serif" font-size="10.00">debugTime</text>
</a>
</g>
</g>
<!-- Node1&#45;&gt;Node4 -->
<g id="edge3_Node000001_Node000004" class="edge">
<title>Node1&#45;&gt;Node4</title>
<g id="a_edge3_Node000001_Node000004"><a xlink:title=" ">
<path fill="none" stroke="#63b8ff" d="M345.13,-621.45C340.82,-716.06 320.46,-1116.65 283,-1156.5 266.13,-1174.45 238.1,-1178.34 215.69,-1178.08"/>
<polygon fill="#63b8ff" stroke="#63b8ff" points="348.64,-621.4 345.59,-611.25 341.64,-621.09 348.64,-621.4"/>
</a>
</g>
</g>
<!-- Node5 -->
<g id="Node000005" class="node">
<title>Node5</title>
<g id="a_Node000005"><a xlink:href="structRtcmDecoder.html#a3b7993d7cc20610d8770c2f4d1e902d6" target="_top" xlink:title=" ">
<path fill="#fff0f0" stroke="red" d="M254.17,-1147C254.17,-1147 105.83,-1147 105.83,-1147 102.67,-1147 99.5,-1143.83 99.5,-1140.67 99.5,-1140.67 99.5,-1134.33 99.5,-1134.33 99.5,-1131.17 102.67,-1128 105.83,-1128 105.83,-1128 254.17,-1128 254.17,-1128 257.33,-1128 260.5,-1131.17 260.5,-1134.33 260.5,-1134.33 260.5,-1140.67 260.5,-1140.67 260.5,-1143.83 257.33,-1147 254.17,-1147"/>
<text text-anchor="middle" x="180" y="-1135" font-family="Helvetica,sans-Serif" font-size="10.00">RtcmDecoder::decodeCustom</text>
</a>
</g>
</g>
<!-- Node1&#45;&gt;Node5 -->
<g id="edge4_Node000001_Node000005" class="edge">
<title>Node1&#45;&gt;Node5</title>
<g id="a_edge4_Node000001_Node000005"><a xlink:title=" ">
<path fill="none" stroke="#63b8ff" d="M344.97,-621.24C340.09,-711.55 318,-1082.57 283,-1119.5 276.75,-1126.09 269,-1130.78 260.58,-1134.07"/>
<polygon fill="#63b8ff" stroke="#63b8ff" points="348.48,-621.2 345.51,-611.03 341.49,-620.83 348.48,-621.2"/>
</a>
</g>
</g>
<!-- Node8 -->
<g id="Node000008" class="node">
<title>Node8</title>
<g id="a_Node000008"><a xlink:href="structIcdDecoder.html#ad30f4972810c88dd00450b8a1ad2d244" target="_top" xlink:title=" ">
<path fill="#fff0f0" stroke="red" d="M266.17,-1110C266.17,-1110 93.83,-1110 93.83,-1110 90.67,-1110 87.5,-1106.83 87.5,-1103.67 87.5,-1103.67 87.5,-1097.33 87.5,-1097.33 87.5,-1094.17 90.67,-1091 93.83,-1091 93.83,-1091 266.17,-1091 266.17,-1091 269.33,-1091 272.5,-1094.17 272.5,-1097.33 272.5,-1097.33 272.5,-1103.67 272.5,-1103.67 272.5,-1106.83 269.33,-1110 266.17,-1110"/>
<text text-anchor="middle" x="180" y="-1098" font-family="Helvetica,sans-Serif" font-size="10.00">IcdDecoder::decodeGPSSubframe1</text>
</a>
</g>
</g>
<!-- Node1&#45;&gt;Node8 -->
<g id="edge5_Node000001_Node000008" class="edge">
<title>Node1&#45;&gt;Node8</title>
<g id="a_edge5_Node000001_Node000008"><a xlink:title=" ">
<path fill="none" stroke="#63b8ff" d="M346.39,-621.57C347.54,-703.96 347.5,-1015.07 283,-1082.5 279.89,-1085.75 276.42,-1088.53 272.68,-1090.92"/>
<polygon fill="#63b8ff" stroke="#63b8ff" points="349.88,-621.07 346.22,-611.13 342.88,-621.18 349.88,-621.07"/>
</a>
</g>
</g>
<!-- Node15 -->
<g id="Node000015" class="node">
<title>Node15</title>
<g id="a_Node000015"><a xlink:href="structRtcmEncoder.html#aec43680779bba008687e1f4f792960e1" target="_top" xlink:title=" ">
<path fill="#fff0f0" stroke="red" d="M276.67,-1073C276.67,-1073 83.33,-1073 83.33,-1073 80.17,-1073 77,-1069.83 77,-1066.67 77,-1066.67 77,-1060.33 77,-1060.33 77,-1057.17 80.17,-1054 83.33,-1054 83.33,-1054 276.67,-1054 276.67,-1054 279.83,-1054 283,-1057.17 283,-1060.33 283,-1060.33 283,-1066.67 283,-1066.67 283,-1069.83 279.83,-1073 276.67,-1073"/>
<text text-anchor="middle" x="180" y="-1061" font-family="Helvetica,sans-Serif" font-size="10.00">RtcmEncoder::encodeTimeStampRTCM</text>
</a>
</g>
</g>
<!-- Node1&#45;&gt;Node15 -->
<g id="edge6_Node000001_Node000015" class="edge">
<title>Node1&#45;&gt;Node15</title>
<g id="a_edge6_Node000001_Node000015"><a xlink:title=" ">
<path fill="none" stroke="#63b8ff" d="M346.12,-621.45C346.16,-699.47 342.17,-982.74 283,-1044.5 279.51,-1048.14 275.56,-1051.21 271.3,-1053.8"/>
<polygon fill="#63b8ff" stroke="#63b8ff" points="349.62,-621.1 346.09,-611.11 342.62,-621.12 349.62,-621.1"/>
</a>
</g>
</g>
<!-- Node17 -->
<g id="Node000017" class="node">
<title>Node17</title>
<g id="a_Node000017"><a xlink:href="structNetworkStatistics.html#a6355d0b3c27f8f95ad1b6646fa7333f8" target="_top" xlink:title=" ">
<path fill="#fff0f0" stroke="red" d="M229.5,-1035.5C229.5,-1035.5 130.5,-1035.5 130.5,-1035.5 125.5,-1035.5 120.5,-1030.5 120.5,-1025.5 120.5,-1025.5 120.5,-1015.5 120.5,-1015.5 120.5,-1010.5 125.5,-1005.5 130.5,-1005.5 130.5,-1005.5 229.5,-1005.5 229.5,-1005.5 234.5,-1005.5 239.5,-1010.5 239.5,-1015.5 239.5,-1015.5 239.5,-1025.5 239.5,-1025.5 239.5,-1030.5 234.5,-1035.5 229.5,-1035.5"/>
<text text-anchor="start" x="128.5" y="-1023.5" font-family="Helvetica,sans-Serif" font-size="10.00">NetworkStatistics::</text>
<text text-anchor="middle" x="180" y="-1012.5" font-family="Helvetica,sans-Serif" font-size="10.00">getNetworkStatistics</text>
</a>
</g>
</g>
<!-- Node1&#45;&gt;Node17 -->
<g id="edge7_Node000001_Node000017" class="edge">
<title>Node1&#45;&gt;Node17</title>
<g id="a_edge7_Node000001_Node000017"><a xlink:title=" ">
<path fill="none" stroke="#63b8ff" d="M345.51,-621.63C343.38,-693.45 332.55,-935.8 283,-991.5 271.87,-1004.02 255.76,-1011.3 239.62,-1015.49"/>
<polygon fill="#63b8ff" stroke="#63b8ff" points="349.02,-621.37 345.8,-611.28 342.03,-621.18 349.02,-621.37"/>
</a>
</g>
</g>
<!-- Node18 -->
<g id="Node000018" class="node">
<title>Node18</title>
<g id="a_Node000018"><a xlink:href="main_8cpp.html#a3c04138a5bfe5d72780bb7e82a18e627" target="_top" xlink:title=" ">
<path fill="#fff0f0" stroke="red" d="M34.67,-820C34.67,-820 6.33,-820 6.33,-820 3.17,-820 0,-816.83 0,-813.67 0,-813.67 0,-807.33 0,-807.33 0,-804.17 3.17,-801 6.33,-801 6.33,-801 34.67,-801 34.67,-801 37.83,-801 41,-804.17 41,-807.33 41,-807.33 41,-813.67 41,-813.67 41,-816.83 37.83,-820 34.67,-820"/>
<text text-anchor="middle" x="20.5" y="-808" font-family="Helvetica,sans-Serif" font-size="10.00">main</text>
</a>
</g>
</g>
<!-- Node1&#45;&gt;Node18 -->
<g id="edge8_Node000001_Node000018" class="edge">
<title>Node1&#45;&gt;Node18</title>
<g id="a_edge8_Node000001_Node000018"><a xlink:title=" ">
<path fill="none" stroke="#63b8ff" d="M345.69,-621.27C344.16,-689.7 335.19,-914.72 283,-958.5 247.93,-987.92 114.63,-984.57 77,-958.5 29.86,-925.83 22.7,-847.86 21.66,-820.33"/>
<polygon fill="#63b8ff" stroke="#63b8ff" points="349.19,-621.1 345.89,-611.03 342.2,-620.96 349.19,-621.1"/>
</a>
</g>
</g>
<!-- Node19 -->
<g id="Node000019" class="node">
<title>Node19</title>
<g id="a_Node000019"><a xlink:href="structRtcmTrace.html#a4b1c85cac6c9887a50ce3f059e4570bc" target="_top" xlink:title=" ">
<path fill="#fff0f0" stroke="red" d="M254.17,-949C254.17,-949 105.83,-949 105.83,-949 102.67,-949 99.5,-945.83 99.5,-942.67 99.5,-942.67 99.5,-936.33 99.5,-936.33 99.5,-933.17 102.67,-930 105.83,-930 105.83,-930 254.17,-930 254.17,-930 257.33,-930 260.5,-933.17 260.5,-936.33 260.5,-936.33 260.5,-942.67 260.5,-942.67 260.5,-945.83 257.33,-949 254.17,-949"/>
<text text-anchor="middle" x="180" y="-937" font-family="Helvetica,sans-Serif" font-size="10.00">RtcmTrace::messageRtcmLog</text>
</a>
</g>
</g>
<!-- Node1&#45;&gt;Node19 -->
<g id="edge9_Node000001_Node000019" class="edge">
<title>Node1&#45;&gt;Node19</title>
<g id="a_edge9_Node000001_Node000019"><a xlink:title=" ">
<path fill="none" stroke="#63b8ff" d="M344.92,-621.28C341.07,-684.19 325.88,-878.08 283,-920.5 276.66,-926.77 268.96,-931.33 260.66,-934.6"/>
<polygon fill="#63b8ff" stroke="#63b8ff" points="348.42,-621.31 345.51,-611.12 341.44,-620.9 348.42,-621.31"/>
</a>
</g>
</g>
<!-- Node20 -->
<g id="Node000020" class="node">
<title>Node20</title>
<g id="a_Node000020"><a xlink:href="structNtripUploader.html#aed62670c2d0d02f1bb0d930f42e68609" target="_top" xlink:title=" ">
<path fill="#fff0f0" stroke="red" d="M258,-893.5C258,-893.5 102,-893.5 102,-893.5 97,-893.5 92,-888.5 92,-883.5 92,-883.5 92,-873.5 92,-873.5 92,-868.5 97,-863.5 102,-863.5 102,-863.5 258,-863.5 258,-863.5 263,-863.5 268,-868.5 268,-873.5 268,-873.5 268,-883.5 268,-883.5 268,-888.5 263,-893.5 258,-893.5"/>
<text text-anchor="start" x="100" y="-881.5" font-family="Helvetica,sans-Serif" font-size="10.00">NtripUploader::messageTimeout</text>
<text text-anchor="middle" x="180" y="-870.5" font-family="Helvetica,sans-Serif" font-size="10.00">Handler</text>
</a>
</g>
</g>
<!-- Node1&#45;&gt;Node20 -->
<g id="edge10_Node000001_Node000020" class="edge">
<title>Node1&#45;&gt;Node20</title>
<g id="a_edge10_Node000001_Node000020"><a xlink:title=" ">
<path fill="none" stroke="#63b8ff" d="M343.74,-621.21C337.19,-674.81 316.53,-821.4 283,-854.5 278.6,-858.85 273.57,-862.46 268.15,-865.46"/>
<polygon fill="#63b8ff" stroke="#63b8ff" points="347.22,-621.6 344.92,-611.26 340.26,-620.78 347.22,-621.6"/>
</a>
</g>
</g>
<!-- Node23 -->
<g id="Node000023" class="node">
<title>Node23</title>
<g id="a_Node000023"><a xlink:href="structRtcmTrace.html#a43de333946bf6415ccb695e73beceec2" target="_top" xlink:title=" ">
<path fill="#fff0f0" stroke="red" d="M239.17,-845C239.17,-845 120.83,-845 120.83,-845 117.67,-845 114.5,-841.83 114.5,-838.67 114.5,-838.67 114.5,-832.33 114.5,-832.33 114.5,-829.17 117.67,-826 120.83,-826 120.83,-826 239.17,-826 239.17,-826 242.33,-826 245.5,-829.17 245.5,-832.33 245.5,-832.33 245.5,-838.67 245.5,-838.67 245.5,-841.83 242.33,-845 239.17,-845"/>
<text text-anchor="middle" x="180" y="-833" font-family="Helvetica,sans-Serif" font-size="10.00">RtcmTrace::networkLog</text>
</a>
</g>
</g>
<!-- Node1&#45;&gt;Node23 -->
<g id="edge12_Node000001_Node000023" class="edge">
<title>Node1&#45;&gt;Node23</title>
<g id="a_edge12_Node000001_Node000023"><a xlink:title=" ">
<path fill="none" stroke="#63b8ff" d="M346.63,-621.28C346.83,-664.1 340.82,-765.67 283,-817.5 272.69,-826.74 259.35,-832.05 245.75,-834.96"/>
<polygon fill="#63b8ff" stroke="#63b8ff" points="350.13,-621.01 346.45,-611.07 343.13,-621.13 350.13,-621.01"/>
</a>
</g>
</g>
<!-- Node24 -->
<g id="Node000024" class="node">
<title>Node24</title>
<g id="a_Node000024"><a xlink:href="rinexNavWrite_8cpp.html#aaab5fb708037f164d86cfa62039eb845" target="_top" xlink:title=" ">
<path fill="#fff0f0" stroke="red" d="M221.67,-808C221.67,-808 138.33,-808 138.33,-808 135.17,-808 132,-804.83 132,-801.67 132,-801.67 132,-795.33 132,-795.33 132,-792.17 135.17,-789 138.33,-789 138.33,-789 221.67,-789 221.67,-789 224.83,-789 228,-792.17 228,-795.33 228,-795.33 228,-801.67 228,-801.67 228,-804.83 224.83,-808 221.67,-808"/>
<text text-anchor="middle" x="180" y="-796" font-family="Helvetica,sans-Serif" font-size="10.00">rinexNavHeader</text>
</a>
</g>
</g>
<!-- Node1&#45;&gt;Node24 -->
<g id="edge13_Node000001_Node000024" class="edge">
<title>Node1&#45;&gt;Node24</title>
<g id="a_edge13_Node000001_Node000024"><a xlink:title=" ">
<path fill="none" stroke="#63b8ff" d="M345.24,-621.19C342.68,-658.49 331.49,-739.36 283,-780.5 267.98,-793.24 247.15,-798.37 228.23,-800.08"/>
<polygon fill="#63b8ff" stroke="#63b8ff" points="348.74,-621.29 345.79,-611.11 341.75,-620.91 348.74,-621.29"/>
</a>
</g>
</g>
<!-- Node29 -->
<g id="Node000029" class="node">
<title>Node29</title>
<g id="a_Node000029"><a xlink:href="structRtcmDecoder.html#af4dcc94b23423696a4e8025d8235a1b1" target="_top" xlink:title=" ">
<path fill="#fff0f0" stroke="red" d="M241.67,-771C241.67,-771 118.33,-771 118.33,-771 115.17,-771 112,-767.83 112,-764.67 112,-764.67 112,-758.33 112,-758.33 112,-755.17 115.17,-752 118.33,-752 118.33,-752 241.67,-752 241.67,-752 244.83,-752 248,-755.17 248,-758.33 248,-758.33 248,-764.67 248,-764.67 248,-767.83 244.83,-771 241.67,-771"/>
<text text-anchor="middle" x="180" y="-759" font-family="Helvetica,sans-Serif" font-size="10.00">RtcmDecoder::rtcmTime</text>
</a>
</g>
</g>
<!-- Node1&#45;&gt;Node29 -->
<g id="edge14_Node000001_Node000029" class="edge">
<title>Node1&#45;&gt;Node29</title>
<g id="a_edge14_Node000001_Node000029"><a xlink:title=" ">
<path fill="none" stroke="#63b8ff" d="M343.16,-621.44C337.59,-652.71 322.16,-712.86 283,-743.5 272.95,-751.37 260.62,-756.26 248.06,-759.21"/>
<polygon fill="#63b8ff" stroke="#63b8ff" points="346.65,-621.76 344.79,-611.33 339.74,-620.65 346.65,-621.76"/>
</a>
</g>
</g>
<!-- Node36 -->
<g id="Node000036" class="node">
<title>Node36</title>
<g id="a_Node000036"><a xlink:href="structNtripStream.html#a83b83e8224d27404c02a2427069fb78e" target="_top" xlink:title=" ">
<path fill="#fff0f0" stroke="red" d="M253.67,-734C253.67,-734 106.33,-734 106.33,-734 103.17,-734 100,-730.83 100,-727.67 100,-727.67 100,-721.33 100,-721.33 100,-718.17 103.17,-715 106.33,-715 106.33,-715 253.67,-715 253.67,-715 256.83,-715 260,-718.17 260,-721.33 260,-721.33 260,-727.67 260,-727.67 260,-730.83 256.83,-734 253.67,-734"/>
<text text-anchor="middle" x="180" y="-722" font-family="Helvetica,sans-Serif" font-size="10.00">NtripStream::serverResponse</text>
</a>
</g>
</g>
<!-- Node1&#45;&gt;Node36 -->
<g id="edge15_Node000001_Node000036" class="edge">
<title>Node1&#45;&gt;Node36</title>
<g id="a_edge15_Node000001_Node000036"><a xlink:title=" ">
<path fill="none" stroke="#63b8ff" d="M340.03,-620.74C331.49,-644.87 313.36,-685.62 283,-706.5 276.04,-711.29 268.19,-714.93 260.02,-717.67"/>
<polygon fill="#63b8ff" stroke="#63b8ff" points="343.36,-621.83 343.2,-611.23 336.72,-619.61 343.36,-621.83"/>
</a>
</g>
</g>
<!-- Node38 -->
<g id="Node000038" class="node">
<title>Node38</title>
<g id="a_Node000038"><a xlink:href="structNtripUploader.html#ad9efbf425316c17c8d8aeda75c7ba4fb" target="_top" xlink:title=" ">
<path fill="#fff0f0" stroke="red" d="M258.17,-697C258.17,-697 101.83,-697 101.83,-697 98.67,-697 95.5,-693.83 95.5,-690.67 95.5,-690.67 95.5,-684.33 95.5,-684.33 95.5,-681.17 98.67,-678 101.83,-678 101.83,-678 258.17,-678 258.17,-678 261.33,-678 264.5,-681.17 264.5,-684.33 264.5,-684.33 264.5,-690.67 264.5,-690.67 264.5,-693.83 261.33,-697 258.17,-697"/>
<text text-anchor="middle" x="180" y="-685" font-family="Helvetica,sans-Serif" font-size="10.00">NtripUploader::serverResponse</text>
</a>
</g>
</g>
<!-- Node1&#45;&gt;Node38 -->
<g id="edge16_Node000001_Node000038" class="edge">
<title>Node1&#45;&gt;Node38</title>
<g id="a_edge16_Node000001_Node000038"><a xlink:title=" ">
<path fill="none" stroke="#63b8ff" d="M334.2,-619.37C322.95,-634.91 304.55,-656.72 283,-668.5 275.89,-672.39 268.12,-675.5 260.16,-677.98"/>
<polygon fill="#63b8ff" stroke="#63b8ff" points="337.14,-621.28 339.97,-611.07 331.39,-617.29 337.14,-621.28"/>
</a>
</g>
</g>
<!-- Node39 -->
<g id="Node000039" class="node">
<title>Node39</title>
<g id="a_Node000039"><a xlink:href="structInteractiveTerminal.html#a1673a1bc7c18472e291aa3b1ed1bb1b7" target="_top" xlink:title=" ">
<path fill="#fff0f0" stroke="red" d="M225.5,-659.5C225.5,-659.5 134.5,-659.5 134.5,-659.5 129.5,-659.5 124.5,-654.5 124.5,-649.5 124.5,-649.5 124.5,-639.5 124.5,-639.5 124.5,-634.5 129.5,-629.5 134.5,-629.5 134.5,-629.5 225.5,-629.5 225.5,-629.5 230.5,-629.5 235.5,-634.5 235.5,-639.5 235.5,-639.5 235.5,-649.5 235.5,-649.5 235.5,-654.5 230.5,-659.5 225.5,-659.5"/>
<text text-anchor="start" x="132.5" y="-647.5" font-family="Helvetica,sans-Serif" font-size="10.00">InteractiveTerminal</text>
<text text-anchor="middle" x="180" y="-636.5" font-family="Helvetica,sans-Serif" font-size="10.00">::setMode</text>
</a>
</g>
</g>
<!-- Node1&#45;&gt;Node39 -->
<g id="edge17_Node000001_Node000039" class="edge">
<title>Node1&#45;&gt;Node39</title>
<g id="a_edge17_Node000001_Node000039"><a xlink:title=" ">
<path fill="none" stroke="#63b8ff" d="M309.1,-613.04C300.56,-615.6 291.49,-618.22 283,-620.5 267.71,-624.6 251.04,-628.68 235.68,-632.29"/>
<polygon fill="#63b8ff" stroke="#63b8ff" points="310.26,-616.35 318.82,-610.1 308.23,-609.65 310.26,-616.35"/>
</a>
</g>
</g>
<!-- Node47 -->
<g id="Node000047" class="node">
<title>Node47</title>
<g id="a_Node000047"><a xlink:href="debug_8cpp.html#a48ec21d056df993e81de30a4d1306899" target="_top" xlink:title="Compare the orbital states created by pseudo&#45;linear state transitions with the original values.">
<path fill="#fff0f0" stroke="red" d="M207.67,-611C207.67,-611 152.33,-611 152.33,-611 149.17,-611 146,-607.83 146,-604.67 146,-604.67 146,-598.33 146,-598.33 146,-595.17 149.17,-592 152.33,-592 152.33,-592 207.67,-592 207.67,-592 210.83,-592 214,-595.17 214,-598.33 214,-598.33 214,-604.67 214,-604.67 214,-607.83 210.83,-611 207.67,-611"/>
<text text-anchor="middle" x="180" y="-599" font-family="Helvetica,sans-Serif" font-size="10.00">timecheck</text>
</a>
</g>
</g>
<!-- Node1&#45;&gt;Node47 -->
<g id="edge19_Node000001_Node000047" class="edge">
<title>Node1&#45;&gt;Node47</title>
<g id="a_edge19_Node000001_Node000047"><a xlink:title=" ">
<path fill="none" stroke="#63b8ff" d="M308.43,-601.5C280.07,-601.5 241.52,-601.5 214.27,-601.5"/>
<polygon fill="#63b8ff" stroke="#63b8ff" points="308.75,-605 318.75,-601.5 308.75,-598 308.75,-605"/>
</a>
</g>
</g>
<!-- Node48 -->
<g id="Node000048" class="node">
<title>Node48</title>
<g id="a_Node000048"><a xlink:href="structRtcmTrace.html#a7988263389150711e951a4df5f1dcdd1" target="_top" xlink:title="Write decoded/encoded GPS/GAL/BDS/QZS ephemeris messages to a json file.">
<path fill="#fff0f0" stroke="red" d="M242.67,-574C242.67,-574 117.33,-574 117.33,-574 114.17,-574 111,-570.83 111,-567.67 111,-567.67 111,-561.33 111,-561.33 111,-558.17 114.17,-555 117.33,-555 117.33,-555 242.67,-555 242.67,-555 245.83,-555 249,-558.17 249,-561.33 249,-561.33 249,-567.67 249,-567.67 249,-570.83 245.83,-574 242.67,-574"/>
<text text-anchor="middle" x="180" y="-562" font-family="Helvetica,sans-Serif" font-size="10.00">RtcmTrace::traceBrdcEph</text>
</a>
</g>
</g>
<!-- Node1&#45;&gt;Node48 -->
<g id="edge20_Node000001_Node000048" class="edge">
<title>Node1&#45;&gt;Node48</title>
<g id="a_edge20_Node000001_Node000048"><a xlink:title=" ">
<path fill="none" stroke="#63b8ff" d="M309.14,-590.34C300.6,-587.93 291.52,-585.5 283,-583.5 268.27,-580.03 252.23,-576.79 237.32,-574.01"/>
<polygon fill="#63b8ff" stroke="#63b8ff" points="308.28,-593.73 318.86,-593.14 310.22,-587.01 308.28,-593.73"/>
</a>
</g>
</g>
<!-- Node51 -->
<g id="Node000051" class="node">
<title>Node51</title>
<g id="a_Node000051"><a xlink:href="structRtcmTrace.html#af164612e34a83d1452ef214af3736004" target="_top" xlink:title="Write decoded/encoded GAL ephemeris messages to a json file.">
<path fill="#fff0f0" stroke="red" d="M242.67,-537C242.67,-537 117.33,-537 117.33,-537 114.17,-537 111,-533.83 111,-530.67 111,-530.67 111,-524.33 111,-524.33 111,-521.17 114.17,-518 117.33,-518 117.33,-518 242.67,-518 242.67,-518 245.83,-518 249,-521.17 249,-524.33 249,-524.33 249,-530.67 249,-530.67 249,-533.83 245.83,-537 242.67,-537"/>
<text text-anchor="middle" x="180" y="-525" font-family="Helvetica,sans-Serif" font-size="10.00">RtcmTrace::traceBrdcEph</text>
</a>
</g>
</g>
<!-- Node1&#45;&gt;Node51 -->
<g id="edge21_Node000001_Node000051" class="edge">
<title>Node1&#45;&gt;Node51</title>
<g id="a_edge21_Node000001_Node000051"><a xlink:title=" ">
<path fill="none" stroke="#63b8ff" d="M330.87,-584.03C319.09,-571.59 301.65,-555.53 283,-546.5 272.46,-541.4 260.7,-537.66 249.01,-534.93"/>
<polygon fill="#63b8ff" stroke="#63b8ff" points="328.42,-586.54 337.75,-591.57 333.6,-581.83 328.42,-586.54"/>
</a>
</g>
</g>
<!-- Node52 -->
<g id="Node000052" class="node">
<title>Node52</title>
<g id="a_Node000052"><a xlink:href="structRtcmDecoder.html#a2d3cb177d3e79308289e9b23b5c46bbc" target="_top" xlink:title=" ">
<path fill="#fff0f0" stroke="red" d="M249.67,-500C249.67,-500 110.33,-500 110.33,-500 107.17,-500 104,-496.83 104,-493.67 104,-493.67 104,-487.33 104,-487.33 104,-484.17 107.17,-481 110.33,-481 110.33,-481 249.67,-481 249.67,-481 252.83,-481 256,-484.17 256,-487.33 256,-487.33 256,-493.67 256,-493.67 256,-496.83 252.83,-500 249.67,-500"/>
<text text-anchor="middle" x="180" y="-488" font-family="Helvetica,sans-Serif" font-size="10.00">RtcmDecoder::traceLatency</text>
</a>
</g>
</g>
<!-- Node1&#45;&gt;Node52 -->
<g id="edge22_Node000001_Node000052" class="edge">
<title>Node1&#45;&gt;Node52</title>
<g id="a_edge22_Node000001_Node000052"><a xlink:title=" ">
<path fill="none" stroke="#63b8ff" d="M338.37,-582.49C328.77,-561.15 310.18,-527.2 283,-509.5 274.85,-504.19 265.6,-500.28 256.07,-497.41"/>
<polygon fill="#63b8ff" stroke="#63b8ff" points="335.21,-584.01 342.36,-591.83 341.65,-581.26 335.21,-584.01"/>
</a>
</g>
</g>
<!-- Node53 -->
<g id="Node000053" class="node">
<title>Node53</title>
<g id="a_Node000053"><a xlink:href="structRtcmTrace.html#abcc1eaba01587cf66fb1637b0969c161" target="_top" xlink:title="Write msm message to a json file.">
<path fill="#fff0f0" stroke="red" d="M234.67,-463C234.67,-463 125.33,-463 125.33,-463 122.17,-463 119,-459.83 119,-456.67 119,-456.67 119,-450.33 119,-450.33 119,-447.17 122.17,-444 125.33,-444 125.33,-444 234.67,-444 234.67,-444 237.83,-444 241,-447.17 241,-450.33 241,-450.33 241,-456.67 241,-456.67 241,-459.83 237.83,-463 234.67,-463"/>
<text text-anchor="middle" x="180" y="-451" font-family="Helvetica,sans-Serif" font-size="10.00">RtcmTrace::traceMSM</text>
</a>
</g>
</g>
<!-- Node1&#45;&gt;Node53 -->
<g id="edge23_Node000001_Node000053" class="edge">
<title>Node1&#45;&gt;Node53</title>
<g id="a_edge23_Node000001_Node000053"><a xlink:title=" ">
<path fill="none" stroke="#63b8ff" d="M342.19,-581.79C335.53,-552.98 318.9,-499.81 283,-472.5 271.03,-463.39 256.02,-458.21 241.22,-455.35"/>
<polygon fill="#63b8ff" stroke="#63b8ff" points="338.83,-582.81 344.34,-591.86 345.67,-581.35 338.83,-582.81"/>
</a>
</g>
</g>
<!-- Node54 -->
<g id="Node000054" class="node">
<title>Node54</title>
<g id="a_Node000054"><a xlink:href="structRtcmTrace.html#a77967bdcccaac67fdcd956d47da16055" target="_top" xlink:title=" ">
<path fill="#fff0f0" stroke="red" d="M238.17,-426C238.17,-426 121.83,-426 121.83,-426 118.67,-426 115.5,-422.83 115.5,-419.67 115.5,-419.67 115.5,-413.33 115.5,-413.33 115.5,-410.17 118.67,-407 121.83,-407 121.83,-407 238.17,-407 238.17,-407 241.33,-407 244.5,-410.17 244.5,-413.33 244.5,-413.33 244.5,-419.67 244.5,-419.67 244.5,-422.83 241.33,-426 238.17,-426"/>
<text text-anchor="middle" x="180" y="-414" font-family="Helvetica,sans-Serif" font-size="10.00">RtcmTrace::traceSsrClk</text>
</a>
</g>
</g>
<!-- Node1&#45;&gt;Node54 -->
<g id="edge24_Node000001_Node000054" class="edge">
<title>Node1&#45;&gt;Node54</title>
<g id="a_edge24_Node000001_Node000054"><a xlink:title=" ">
<path fill="none" stroke="#63b8ff" d="M344.58,-581.8C340.93,-546.61 328.03,-473.13 283,-435.5 272.22,-426.49 258.54,-421.21 244.73,-418.22"/>
<polygon fill="#63b8ff" stroke="#63b8ff" points="341.1,-582.13 345.47,-591.78 348.07,-581.51 341.1,-582.13"/>
</a>
</g>
</g>
<!-- Node56 -->
<g id="Node000056" class="node">
<title>Node56</title>
<g id="a_Node000056"><a xlink:href="structRtcmTrace.html#abcf156ad1b35a69c33db080f609b6f16" target="_top" xlink:title=" ">
<path fill="#fff0f0" stroke="red" d="M253.17,-389C253.17,-389 106.83,-389 106.83,-389 103.67,-389 100.5,-385.83 100.5,-382.67 100.5,-382.67 100.5,-376.33 100.5,-376.33 100.5,-373.17 103.67,-370 106.83,-370 106.83,-370 253.17,-370 253.17,-370 256.33,-370 259.5,-373.17 259.5,-376.33 259.5,-376.33 259.5,-382.67 259.5,-382.67 259.5,-385.83 256.33,-389 253.17,-389"/>
<text text-anchor="middle" x="180" y="-377" font-family="Helvetica,sans-Serif" font-size="10.00">RtcmTrace::traceSsrCodeBias</text>
</a>
</g>
</g>
<!-- Node1&#45;&gt;Node56 -->
<g id="edge25_Node000001_Node000056" class="edge">
<title>Node1&#45;&gt;Node56</title>
<g id="a_edge25_Node000001_Node000056"><a xlink:title=" ">
<path fill="none" stroke="#63b8ff" d="M346.15,-581.52C345.3,-540.53 337.18,-446.7 283,-398.5 276.2,-392.45 268.12,-388.05 259.52,-384.89"/>
<polygon fill="#63b8ff" stroke="#63b8ff" points="342.65,-581.63 346.23,-591.6 349.65,-581.58 342.65,-581.63"/>
</a>
</g>
</g>
<!-- Node58 -->
<g id="Node000058" class="node">
<title>Node58</title>
<g id="a_Node000058"><a xlink:href="structRtcmTrace.html#ab77b0368e1844bb77eb8a91845c35673" target="_top" xlink:title=" ">
<path fill="#fff0f0" stroke="red" d="M239.17,-352C239.17,-352 120.83,-352 120.83,-352 117.67,-352 114.5,-348.83 114.5,-345.67 114.5,-345.67 114.5,-339.33 114.5,-339.33 114.5,-336.17 117.67,-333 120.83,-333 120.83,-333 239.17,-333 239.17,-333 242.33,-333 245.5,-336.17 245.5,-339.33 245.5,-339.33 245.5,-345.67 245.5,-345.67 245.5,-348.83 242.33,-352 239.17,-352"/>
<text text-anchor="middle" x="180" y="-340" font-family="Helvetica,sans-Serif" font-size="10.00">RtcmTrace::traceSsrEph</text>
</a>
</g>
</g>
<!-- Node1&#45;&gt;Node58 -->
<g id="edge26_Node000001_Node000058" class="edge">
<title>Node1&#45;&gt;Node58</title>
<g id="a_edge26_Node000001_Node000058"><a xlink:title=" ">
<path fill="none" stroke="#63b8ff" d="M343.53,-581.72C336.66,-529.85 315.63,-391.84 283,-361.5 272.78,-351.99 259.4,-346.5 245.71,-343.46"/>
<polygon fill="#63b8ff" stroke="#63b8ff" points="340.1,-582.45 344.85,-591.92 347.04,-581.56 340.1,-582.45"/>
</a>
</g>
</g>
<!-- Node59 -->
<g id="Node000059" class="node">
<title>Node59</title>
<g id="a_Node000059"><a xlink:href="structRtcmTrace.html#a72cc456a169363422bbdb71c4f12ab4f" target="_top" xlink:title=" ">
<path fill="#fff0f0" stroke="red" d="M245.17,-315C245.17,-315 114.83,-315 114.83,-315 111.67,-315 108.5,-311.83 108.5,-308.67 108.5,-308.67 108.5,-302.33 108.5,-302.33 108.5,-299.17 111.67,-296 114.83,-296 114.83,-296 245.17,-296 245.17,-296 248.33,-296 251.5,-299.17 251.5,-302.33 251.5,-302.33 251.5,-308.67 251.5,-308.67 251.5,-311.83 248.33,-315 245.17,-315"/>
<text text-anchor="middle" x="180" y="-303" font-family="Helvetica,sans-Serif" font-size="10.00">RtcmTrace::traceSsrHRClk</text>
</a>
</g>
</g>
<!-- Node1&#45;&gt;Node59 -->
<g id="edge27_Node000001_Node000059" class="edge">
<title>Node1&#45;&gt;Node59</title>
<g id="a_edge27_Node000001_Node000059"><a xlink:title=" ">
<path fill="none" stroke="#63b8ff" d="M344.28,-581.77C338.9,-524.57 320.42,-360.47 283,-324.5 274.36,-316.2 263.33,-310.93 251.73,-307.67"/>
<polygon fill="#63b8ff" stroke="#63b8ff" points="340.82,-582.35 345.21,-591.99 347.79,-581.71 340.82,-582.35"/>
</a>
</g>
</g>
<!-- Node60 -->
<g id="Node000060" class="node">
<title>Node60</title>
<g id="a_Node000060"><a xlink:href="structRtcmTrace.html#ab176960d2a094f050f187909b777d677" target="_top" xlink:title=" ">
<path fill="#fff0f0" stroke="red" d="M252.67,-278C252.67,-278 107.33,-278 107.33,-278 104.17,-278 101,-274.83 101,-271.67 101,-271.67 101,-265.33 101,-265.33 101,-262.17 104.17,-259 107.33,-259 107.33,-259 252.67,-259 252.67,-259 255.83,-259 259,-262.17 259,-265.33 259,-265.33 259,-271.67 259,-271.67 259,-274.83 255.83,-278 252.67,-278"/>
<text text-anchor="middle" x="180" y="-266" font-family="Helvetica,sans-Serif" font-size="10.00">RtcmTrace::traceSsrPhasBias</text>
</a>
</g>
</g>
<!-- Node1&#45;&gt;Node60 -->
<g id="edge28_Node000001_Node000060" class="edge">
<title>Node1&#45;&gt;Node60</title>
<g id="a_edge28_Node000001_Node000060"><a xlink:title=" ">
<path fill="none" stroke="#63b8ff" d="M344.85,-581.62C340.81,-519.25 325.2,-329.12 283,-287.5 276.27,-280.86 268.01,-276.14 259.13,-272.84"/>
<polygon fill="#63b8ff" stroke="#63b8ff" points="341.36,-581.95 345.47,-591.71 348.35,-581.52 341.36,-581.95"/>
</a>
</g>
</g>
<!-- Node62 -->
<g id="Node000062" class="node">
<title>Node62</title>
<g id="a_Node000062"><a xlink:href="structRtcmTrace.html#aa9417bd4a22314d42e8064f78f12d26d" target="_top" xlink:title=" ">
<path fill="#fff0f0" stroke="red" d="M239.17,-241C239.17,-241 120.83,-241 120.83,-241 117.67,-241 114.5,-237.83 114.5,-234.67 114.5,-234.67 114.5,-228.33 114.5,-228.33 114.5,-225.17 117.67,-222 120.83,-222 120.83,-222 239.17,-222 239.17,-222 242.33,-222 245.5,-225.17 245.5,-228.33 245.5,-228.33 245.5,-234.67 245.5,-234.67 245.5,-237.83 242.33,-241 239.17,-241"/>
<text text-anchor="middle" x="180" y="-229" font-family="Helvetica,sans-Serif" font-size="10.00">RtcmTrace::traceSsrUra</text>
</a>
</g>
</g>
<!-- Node1&#45;&gt;Node62 -->
<g id="edge29_Node000001_Node000062" class="edge">
<title>Node1&#45;&gt;Node62</title>
<g id="a_edge29_Node000001_Node000062"><a xlink:title=" ">
<path fill="none" stroke="#63b8ff" d="M345.32,-581.95C342.58,-515.21 330.13,-297.94 283,-250.5 273.03,-240.47 259.59,-234.8 245.74,-231.77"/>
<polygon fill="#63b8ff" stroke="#63b8ff" points="341.82,-582.1 345.7,-591.96 348.82,-581.83 341.82,-582.1"/>
</a>
</g>
</g>
<!-- Node64 -->
<g id="Node000064" class="node">
<title>Node64</title>
<g id="a_Node000064"><a xlink:href="biasSINEXwrite_8cpp.html#a986e047c2dd383adf5526d99e5c418c4" target="_top" xlink:title="Update bias SINEX first line.">
<path fill="#fff0f0" stroke="red" d="M219.67,-204C219.67,-204 140.33,-204 140.33,-204 137.17,-204 134,-200.83 134,-197.67 134,-197.67 134,-191.33 134,-191.33 134,-188.17 137.17,-185 140.33,-185 140.33,-185 219.67,-185 219.67,-185 222.83,-185 226,-188.17 226,-191.33 226,-191.33 226,-197.67 226,-197.67 226,-200.83 222.83,-204 219.67,-204"/>
<text text-anchor="middle" x="180" y="-192" font-family="Helvetica,sans-Serif" font-size="10.00">updateFirstLine</text>
</a>
</g>
</g>
<!-- Node1&#45;&gt;Node64 -->
<g id="edge30_Node000001_Node000064" class="edge">
<title>Node1&#45;&gt;Node64</title>
<g id="a_edge30_Node000001_Node000064"><a xlink:title=" ">
<path fill="none" stroke="#63b8ff" d="M345.67,-581.31C344.07,-509.31 334.84,-266.56 283,-213.5 268.4,-198.55 246.09,-193.25 226.05,-191.92"/>
<polygon fill="#63b8ff" stroke="#63b8ff" points="342.18,-581.76 345.87,-591.69 349.18,-581.62 342.18,-581.76"/>
</a>
</g>
</g>
<!-- Node67 -->
<g id="Node000067" class="node">
<title>Node67</title>
<g id="a_Node000067"><a xlink:href="sinex_8cpp.html#a9bfed2d672ee9bb9add94ca832d4cfba" target="_top" xlink:title=" ">
<path fill="#fff0f0" stroke="red" d="M230.17,-167C230.17,-167 129.83,-167 129.83,-167 126.67,-167 123.5,-163.83 123.5,-160.67 123.5,-160.67 123.5,-154.33 123.5,-154.33 123.5,-151.17 126.67,-148 129.83,-148 129.83,-148 230.17,-148 230.17,-148 233.33,-148 236.5,-151.17 236.5,-154.33 236.5,-154.33 236.5,-160.67 236.5,-160.67 236.5,-163.83 233.33,-167 230.17,-167"/>
<text text-anchor="middle" x="180" y="-155" font-family="Helvetica,sans-Serif" font-size="10.00">updateSinexHeader</text>
</a>
</g>
</g>
<!-- Node1&#45;&gt;Node67 -->
<g id="edge31_Node000001_Node000067" class="edge">
<title>Node1&#45;&gt;Node67</title>
<g id="a_edge31_Node000001_Node000067"><a xlink:title=" ">
<path fill="none" stroke="#63b8ff" d="M345.99,-581.87C345.53,-506.3 339.86,-235.51 283,-176.5 271,-164.05 253.66,-158.26 236.66,-155.9"/>
<polygon fill="#63b8ff" stroke="#63b8ff" points="342.49,-581.92 346.03,-591.91 349.49,-581.89 342.49,-581.92"/>
</a>
</g>
</g>
<!-- Node71 -->
<g id="Node000071" class="node">
<title>Node71</title>
<g id="a_Node000071"><a xlink:href="ionexWrite_8cpp.html#a210edc109068291059974a8a9622aa1a" target="_top" xlink:title=" ">
<path fill="#fff0f0" stroke="red" d="M220.67,-130C220.67,-130 139.33,-130 139.33,-130 136.17,-130 133,-126.83 133,-123.67 133,-123.67 133,-117.33 133,-117.33 133,-114.17 136.17,-111 139.33,-111 139.33,-111 220.67,-111 220.67,-111 223.83,-111 227,-114.17 227,-117.33 227,-117.33 227,-123.67 227,-123.67 227,-126.83 223.83,-130 220.67,-130"/>
<text text-anchor="middle" x="180" y="-118" font-family="Helvetica,sans-Serif" font-size="10.00">writeIonexHead</text>
</a>
</g>
</g>
<!-- Node1&#45;&gt;Node71 -->
<g id="edge32_Node000001_Node000071" class="edge">
<title>Node1&#45;&gt;Node71</title>
<g id="a_edge32_Node000001_Node000071"><a xlink:title=" ">
<path fill="none" stroke="#63b8ff" d="M346.25,-581.72C346.82,-501.85 344.73,-204.31 283,-139.5 268.77,-124.57 246.87,-119.19 227,-117.81"/>
<polygon fill="#63b8ff" stroke="#63b8ff" points="342.75,-581.84 346.15,-591.87 349.75,-581.91 342.75,-581.84"/>
</a>
</g>
</g>
<!-- Node73 -->
<g id="Node000073" class="node">
<title>Node73</title>
<g id="a_Node000073"><a xlink:href="orbexWrite_8cpp.html#a68acb232854e3173995f4c0441d7de70" target="_top" xlink:title="Write ORBEX header lines and header blocks including FILE/DESCRIPTION and SATELLITE/ID_AND_DESCRIPTIO...">
<path fill="#fff0f0" stroke="red" d="M226.67,-93C226.67,-93 133.33,-93 133.33,-93 130.17,-93 127,-89.83 127,-86.67 127,-86.67 127,-80.33 127,-80.33 127,-77.17 130.17,-74 133.33,-74 133.33,-74 226.67,-74 226.67,-74 229.83,-74 233,-77.17 233,-80.33 233,-80.33 233,-86.67 233,-86.67 233,-89.83 229.83,-93 226.67,-93"/>
<text text-anchor="middle" x="180" y="-81" font-family="Helvetica,sans-Serif" font-size="10.00">writeOrbexHeader</text>
</a>
</g>
</g>
<!-- Node1&#45;&gt;Node73 -->
<g id="edge33_Node000001_Node000073" class="edge">
<title>Node1&#45;&gt;Node73</title>
<g id="a_edge33_Node000001_Node000073"><a xlink:title=" ">
<path fill="none" stroke="#63b8ff" d="M346.47,-581.77C348.03,-498.04 349.66,-173.18 283,-102.5 270.27,-89 251.27,-83.29 233.11,-81.28"/>
<polygon fill="#63b8ff" stroke="#63b8ff" points="342.97,-581.86 346.26,-591.93 349.97,-582.01 342.97,-581.86"/>
</a>
</g>
</g>
<!-- Node77 -->
<g id="Node000077" class="node">
<title>Node77</title>
<g id="a_Node000077"><a xlink:href="rinexObsWrite_8cpp.html#a17ede47eaf17a5f797910579288b6904" target="_top" xlink:title=" ">
<path fill="#fff0f0" stroke="red" d="M235.17,-56C235.17,-56 124.83,-56 124.83,-56 121.67,-56 118.5,-52.83 118.5,-49.67 118.5,-49.67 118.5,-43.33 118.5,-43.33 118.5,-40.17 121.67,-37 124.83,-37 124.83,-37 235.17,-37 235.17,-37 238.33,-37 241.5,-40.17 241.5,-43.33 241.5,-43.33 241.5,-49.67 241.5,-49.67 241.5,-52.83 238.33,-56 235.17,-56"/>
<text text-anchor="middle" x="180" y="-44" font-family="Helvetica,sans-Serif" font-size="10.00">writeRinexObsHeader</text>
</a>
</g>
</g>
<!-- Node1&#45;&gt;Node77 -->
<g id="edge34_Node000001_Node000077" class="edge">
<title>Node1&#45;&gt;Node77</title>
<g id="a_edge34_Node000001_Node000077"><a xlink:title=" ">
<path fill="none" stroke="#63b8ff" d="M345.03,-581.37C340.36,-488.47 318.98,-103.98 283,-65.5 272.3,-54.05 257.09,-48.19 241.67,-45.44"/>
<polygon fill="#63b8ff" stroke="#63b8ff" points="341.55,-581.83 345.54,-591.64 348.54,-581.48 341.55,-581.83"/>
</a>
</g>
</g>
<!-- Node80 -->
<g id="Node000080" class="node">
<title>Node80</title>
<g id="a_Node000080"><a xlink:href="sp3Write_8cpp.html#ab4606ad3c7415880b4adc10c1bfeab0e" target="_top" xlink:title=" ">
<path fill="#fff0f0" stroke="red" d="M221.17,-19C221.17,-19 138.83,-19 138.83,-19 135.67,-19 132.5,-15.83 132.5,-12.67 132.5,-12.67 132.5,-6.33 132.5,-6.33 132.5,-3.17 135.67,0 138.83,0 138.83,0 221.17,0 221.17,0 224.33,0 227.5,-3.17 227.5,-6.33 227.5,-6.33 227.5,-12.67 227.5,-12.67 227.5,-15.83 224.33,-19 221.17,-19"/>
<text text-anchor="middle" x="180" y="-7" font-family="Helvetica,sans-Serif" font-size="10.00">writeSp3Header</text>
</a>
</g>
</g>
<!-- Node1&#45;&gt;Node80 -->
<g id="edge35_Node000001_Node000080" class="edge">
<title>Node1&#45;&gt;Node80</title>
<g id="a_edge35_Node000001_Node000080"><a xlink:title=" ">
<path fill="none" stroke="#63b8ff" d="M345.21,-581.83C341.17,-485.89 321.51,-70 283,-28.5 269.09,-13.51 247.47,-8.08 227.7,-6.68"/>
<polygon fill="#63b8ff" stroke="#63b8ff" points="341.71,-582.05 345.62,-591.9 348.71,-581.76 341.71,-582.05"/>
</a>
</g>
</g>
<!-- Node20&#45;&gt;Node20 -->
<g id="edge11_Node000020_Node000020" class="edge">
<title>Node20&#45;&gt;Node20</title>
<g id="a_edge11_Node000020_Node000020"><a xlink:title=" ">
<path fill="none" stroke="#63b8ff" d="M207.66,-904.1C203.88,-908.47 194.66,-911.5 180,-911.5 155.31,-911.5 146.05,-902.91 152.23,-893.78"/>
<polygon fill="#63b8ff" stroke="#63b8ff" points="211.16,-903.81 207.77,-893.78 204.16,-903.73 211.16,-903.81"/>
</a>
</g>
</g>
<!-- Node39&#45;&gt;Node18 -->
<g id="edge18_Node000039_Node000018" class="edge">
<title>Node39&#45;&gt;Node18</title>
<g id="a_edge18_Node000039_Node000018"><a xlink:title=" ">
<path fill="none" stroke="#63b8ff" d="M114.56,-650.55C100.96,-654.34 87.55,-660.28 77,-669.5 35.99,-705.33 25.01,-775.4 22.31,-800.92"/>
<polygon fill="#63b8ff" stroke="#63b8ff" points="115.56,-653.91 124.46,-648.15 113.91,-647.11 115.56,-653.91"/>
</a>
</g>
</g>
</g>
</svg>
