<?xml version="1.0" encoding="UTF-8" standalone="no"?>
<!DOCTYPE svg PUBLIC "-//W3C//DTD SVG 1.1//EN"
 "http://www.w3.org/Graphics/SVG/1.1/DTD/svg11.dtd">
<!-- Generated by graphviz version 2.43.0 (0)
 -->
<!-- Title: Graphical Class Hierarchy Pages: 1 -->
<svg width="201pt" height="27pt"
 viewBox="0.00 0.00 201.00 27.00" xmlns="http://www.w3.org/2000/svg" xmlns:xlink="http://www.w3.org/1999/xlink">
<g id="graph0" class="graph" transform="scale(1 1) rotate(0) translate(4 23)">
<title>Graphical Class Hierarchy</title>
<!-- Node0 -->
<g id="Node000000" class="node">
<title>Node0</title>
<g id="a_Node000000"><a xlink:title=" ">
<path fill="#e0e0e0" stroke="#999999" d="M48.67,-19C48.67,-19 6.33,-19 6.33,-19 3.17,-19 0,-15.83 0,-12.67 0,-12.67 0,-6.33 0,-6.33 0,-3.17 3.17,0 6.33,0 6.33,0 48.67,0 48.67,0 51.83,0 55,-3.17 55,-6.33 55,-6.33 55,-12.67 55,-12.67 55,-15.83 51.83,-19 48.67,-19"/>
<text text-anchor="middle" x="27.5" y="-7" font-family="Helvetica,sans-Serif" font-size="10.00">Array6d</text>
</a>
</g>
</g>
<!-- Node1 -->
<g id="Node000001" class="node">
<title>Node1</title>
<g id="a_Node000001"><a xlink:href="structFundamentalArgs.html" target="_top" xlink:title=" ">
<path fill="#fff0f0" stroke="red" d="M186.67,-19C186.67,-19 97.33,-19 97.33,-19 94.17,-19 91,-15.83 91,-12.67 91,-12.67 91,-6.33 91,-6.33 91,-3.17 94.17,0 97.33,0 97.33,0 186.67,0 186.67,0 189.83,0 193,-3.17 193,-6.33 193,-6.33 193,-12.67 193,-12.67 193,-15.83 189.83,-19 186.67,-19"/>
<text text-anchor="middle" x="142" y="-7" font-family="Helvetica,sans-Serif" font-size="10.00">FundamentalArgs</text>
</a>
</g>
</g>
<!-- Node0&#45;&gt;Node1 -->
<g id="edge5_Node000000_Node000001" class="edge">
<title>Node0&#45;&gt;Node1</title>
<g id="a_edge5_Node000000_Node000001"><a xlink:title=" ">
<path fill="none" stroke="#63b8ff" d="M65.39,-9.5C73.48,-9.5 82.19,-9.5 90.71,-9.5"/>
<polygon fill="#63b8ff" stroke="#63b8ff" points="65.16,-6 55.16,-9.5 65.16,-13 65.16,-6"/>
</a>
</g>
</g>
</g>
</svg>
