<?xml version="1.0" encoding="UTF-8" standalone="no"?>
<!DOCTYPE svg PUBLIC "-//W3C//DTD SVG 1.1//EN"
 "http://www.w3.org/Graphics/SVG/1.1/DTD/svg11.dtd">
<!-- Generated by graphviz version 2.43.0 (0)
 -->
<!-- Title: Graphical Class Hierarchy Pages: 1 -->
<svg width="208pt" height="27pt"
 viewBox="0.00 0.00 208.00 27.00" xmlns="http://www.w3.org/2000/svg" xmlns:xlink="http://www.w3.org/1999/xlink">
<g id="graph0" class="graph" transform="scale(1 1) rotate(0) translate(4 23)">
<title>Graphical Class Hierarchy</title>
<!-- Node0 -->
<g id="Node000000" class="node">
<title>Node0</title>
<g id="a_Node000000"><a xlink:href="structSlipOptions.html" target="_top" xlink:title=" ">
<path fill="#fff0f0" stroke="red" d="M65.67,-19C65.67,-19 6.33,-19 6.33,-19 3.17,-19 0,-15.83 0,-12.67 0,-12.67 0,-6.33 0,-6.33 0,-3.17 3.17,0 6.33,0 6.33,0 65.67,0 65.67,0 68.83,0 72,-3.17 72,-6.33 72,-6.33 72,-12.67 72,-12.67 72,-15.83 68.83,-19 65.67,-19"/>
<text text-anchor="middle" x="36" y="-7" font-family="Helvetica,sans-Serif" font-size="10.00">SlipOptions</text>
</a>
</g>
</g>
<!-- Node1 -->
<g id="Node000001" class="node">
<title>Node1</title>
<g id="a_Node000001"><a xlink:href="structExcludeOptions.html" target="_top" xlink:title=" ">
<path fill="#fff0f0" stroke="red" d="M193.67,-19C193.67,-19 114.33,-19 114.33,-19 111.17,-19 108,-15.83 108,-12.67 108,-12.67 108,-6.33 108,-6.33 108,-3.17 111.17,0 114.33,0 114.33,0 193.67,0 193.67,0 196.83,0 200,-3.17 200,-6.33 200,-6.33 200,-12.67 200,-12.67 200,-15.83 196.83,-19 193.67,-19"/>
<text text-anchor="middle" x="154" y="-7" font-family="Helvetica,sans-Serif" font-size="10.00">ExcludeOptions</text>
</a>
</g>
</g>
<!-- Node0&#45;&gt;Node1 -->
<g id="edge101_Node000000_Node000001" class="edge">
<title>Node0&#45;&gt;Node1</title>
<g id="a_edge101_Node000000_Node000001"><a xlink:title=" ">
<path fill="none" stroke="#63b8ff" d="M82.12,-9.5C90.52,-9.5 99.3,-9.5 107.7,-9.5"/>
<polygon fill="#63b8ff" stroke="#63b8ff" points="82.12,-6 72.12,-9.5 82.12,-13 82.12,-6"/>
</a>
</g>
</g>
</g>
</svg>
