<?xml version="1.0" encoding="UTF-8" standalone="no"?>
<!DOCTYPE svg PUBLIC "-//W3C//DTD SVG 1.1//EN"
 "http://www.w3.org/Graphics/SVG/1.1/DTD/svg11.dtd">
<!-- Generated by graphviz version 2.43.0 (0)
 -->
<!-- Title: Graphical Class Hierarchy Pages: 1 -->
<svg width="295pt" height="138pt"
 viewBox="0.00 0.00 295.00 138.00" xmlns="http://www.w3.org/2000/svg" xmlns:xlink="http://www.w3.org/1999/xlink">
<g id="graph0" class="graph" transform="scale(1 1) rotate(0) translate(4 134)">
<title>Graphical Class Hierarchy</title>
<!-- Node0 -->
<g id="Node000000" class="node">
<title>Node0</title>
<g id="a_Node000000"><a xlink:title=" ">
<path fill="#e0e0e0" stroke="#999999" d="M110,-85C110,-85 12,-85 12,-85 6,-85 0,-79 0,-73 0,-73 0,-56 0,-56 0,-50 6,-44 12,-44 12,-44 110,-44 110,-44 116,-44 122,-50 122,-56 122,-56 122,-73 122,-73 122,-79 116,-85 110,-85"/>
<text text-anchor="start" x="8" y="-73" font-family="Helvetica,sans-Serif" font-size="10.00">boost::log::sinks::</text>
<text text-anchor="start" x="8" y="-62" font-family="Helvetica,sans-Serif" font-size="10.00">basic_formatted_sink</text>
<text text-anchor="middle" x="61" y="-51" font-family="Helvetica,sans-Serif" font-size="10.00">_backend</text>
</a>
</g>
</g>
<!-- Node1 -->
<g id="Node000001" class="node">
<title>Node1</title>
<g id="a_Node000001"><a xlink:href="structConsoleLog.html" target="_top" xlink:title=" ">
<path fill="#fff0f0" stroke="red" d="M252.67,-130C252.67,-130 192.33,-130 192.33,-130 189.17,-130 186,-126.83 186,-123.67 186,-123.67 186,-117.33 186,-117.33 186,-114.17 189.17,-111 192.33,-111 192.33,-111 252.67,-111 252.67,-111 255.83,-111 259,-114.17 259,-117.33 259,-117.33 259,-123.67 259,-123.67 259,-126.83 255.83,-130 252.67,-130"/>
<text text-anchor="middle" x="222.5" y="-118" font-family="Helvetica,sans-Serif" font-size="10.00">ConsoleLog</text>
</a>
</g>
</g>
<!-- Node0&#45;&gt;Node1 -->
<g id="edge10_Node000000_Node000001" class="edge">
<title>Node0&#45;&gt;Node1</title>
<g id="a_edge10_Node000000_Node000001"><a xlink:title=" ">
<path fill="none" stroke="#63b8ff" d="M121.05,-88.95C133.19,-93.67 145.94,-98.42 158,-102.5 166.9,-105.51 176.61,-108.44 185.71,-111.03"/>
<polygon fill="#63b8ff" stroke="#63b8ff" points="122.06,-85.59 111.47,-85.18 119.5,-92.1 122.06,-85.59"/>
</a>
</g>
</g>
<!-- Node2 -->
<g id="Node000002" class="node">
<title>Node2</title>
<g id="a_Node000002"><a xlink:href="structErrorExit.html" target="_top" xlink:title=" ">
<path fill="#fff0f0" stroke="red" d="M245.67,-93C245.67,-93 199.33,-93 199.33,-93 196.17,-93 193,-89.83 193,-86.67 193,-86.67 193,-80.33 193,-80.33 193,-77.17 196.17,-74 199.33,-74 199.33,-74 245.67,-74 245.67,-74 248.83,-74 252,-77.17 252,-80.33 252,-80.33 252,-86.67 252,-86.67 252,-89.83 248.83,-93 245.67,-93"/>
<text text-anchor="middle" x="222.5" y="-81" font-family="Helvetica,sans-Serif" font-size="10.00">ErrorExit</text>
</a>
</g>
</g>
<!-- Node0&#45;&gt;Node2 -->
<g id="edge11_Node000000_Node000002" class="edge">
<title>Node0&#45;&gt;Node2</title>
<g id="a_edge11_Node000000_Node000002"><a xlink:title=" ">
<path fill="none" stroke="#63b8ff" d="M132.33,-72.88C153.64,-75.42 175.86,-78.06 192.79,-80.08"/>
<polygon fill="#63b8ff" stroke="#63b8ff" points="132.64,-69.39 122.3,-71.68 131.82,-76.34 132.64,-69.39"/>
</a>
</g>
</g>
<!-- Node3 -->
<g id="Node000003" class="node">
<title>Node3</title>
<g id="a_Node000003"><a xlink:href="structFileLog.html" target="_top" xlink:title=" ">
<path fill="#fff0f0" stroke="red" d="M241.67,-56C241.67,-56 203.33,-56 203.33,-56 200.17,-56 197,-52.83 197,-49.67 197,-49.67 197,-43.33 197,-43.33 197,-40.17 200.17,-37 203.33,-37 203.33,-37 241.67,-37 241.67,-37 244.83,-37 248,-40.17 248,-43.33 248,-43.33 248,-49.67 248,-49.67 248,-52.83 244.83,-56 241.67,-56"/>
<text text-anchor="middle" x="222.5" y="-44" font-family="Helvetica,sans-Serif" font-size="10.00">FileLog</text>
</a>
</g>
</g>
<!-- Node0&#45;&gt;Node3 -->
<g id="edge12_Node000000_Node000003" class="edge">
<title>Node0&#45;&gt;Node3</title>
<g id="a_edge12_Node000000_Node000003"><a xlink:title=" ">
<path fill="none" stroke="#63b8ff" d="M132.45,-56.55C155.53,-53.95 179.66,-51.22 196.97,-49.27"/>
<polygon fill="#63b8ff" stroke="#63b8ff" points="131.84,-53.1 122.3,-57.69 132.63,-60.05 131.84,-53.1"/>
</a>
</g>
</g>
<!-- Node4 -->
<g id="Node000004" class="node">
<title>Node4</title>
<g id="a_Node000004"><a xlink:href="structMongoLogSinkBackend.html" target="_top" xlink:title=" ">
<path fill="#fff0f0" stroke="red" d="M280.67,-19C280.67,-19 164.33,-19 164.33,-19 161.17,-19 158,-15.83 158,-12.67 158,-12.67 158,-6.33 158,-6.33 158,-3.17 161.17,0 164.33,0 164.33,0 280.67,0 280.67,0 283.83,0 287,-3.17 287,-6.33 287,-6.33 287,-12.67 287,-12.67 287,-15.83 283.83,-19 280.67,-19"/>
<text text-anchor="middle" x="222.5" y="-7" font-family="Helvetica,sans-Serif" font-size="10.00">MongoLogSinkBackend</text>
</a>
</g>
</g>
<!-- Node0&#45;&gt;Node4 -->
<g id="edge13_Node000000_Node000004" class="edge">
<title>Node0&#45;&gt;Node4</title>
<g id="a_edge13_Node000000_Node000004"><a xlink:title=" ">
<path fill="none" stroke="#63b8ff" d="M124.48,-40.37C135.6,-36.28 147.11,-32.17 158,-28.5 167.71,-25.23 178.34,-21.94 188.08,-19.04"/>
<polygon fill="#63b8ff" stroke="#63b8ff" points="122.99,-37.19 114.84,-43.95 125.43,-43.75 122.99,-37.19"/>
</a>
</g>
</g>
</g>
</svg>
