<?xml version="1.0" encoding="UTF-8" standalone="no"?>
<!DOCTYPE svg PUBLIC "-//W3C//DTD SVG 1.1//EN"
 "http://www.w3.org/Graphics/SVG/1.1/DTD/svg11.dtd">
<!-- Generated by graphviz version 2.43.0 (0)
 -->
<!-- Title: Graphical Class Hierarchy Pages: 1 -->
<svg width="173pt" height="138pt"
 viewBox="0.00 0.00 173.00 138.00" xmlns="http://www.w3.org/2000/svg" xmlns:xlink="http://www.w3.org/1999/xlink">
<g id="graph0" class="graph" transform="scale(1 1) rotate(0) translate(4 134)">
<title>Graphical Class Hierarchy</title>
<!-- Node0 -->
<g id="Node000000" class="node">
<title>Node0</title>
<g id="a_Node000000"><a xlink:title=" ">
<path fill="#e0e0e0" stroke="#999999" d="M35.67,-74C35.67,-74 6.33,-74 6.33,-74 3.17,-74 0,-70.83 0,-67.67 0,-67.67 0,-61.33 0,-61.33 0,-58.17 3.17,-55 6.33,-55 6.33,-55 35.67,-55 35.67,-55 38.83,-55 42,-58.17 42,-61.33 42,-61.33 42,-67.67 42,-67.67 42,-70.83 38.83,-74 35.67,-74"/>
<text text-anchor="middle" x="21" y="-62" font-family="Helvetica,sans-Serif" font-size="10.00">array</text>
</a>
</g>
</g>
<!-- Node1 -->
<g id="Node000001" class="node">
<title>Node1</title>
<g id="a_Node000001"><a xlink:href="structBiasMap.html" target="_top" xlink:title=" ">
<path fill="#fff0f0" stroke="red" d="M144.67,-130C144.67,-130 98.33,-130 98.33,-130 95.17,-130 92,-126.83 92,-123.67 92,-123.67 92,-117.33 92,-117.33 92,-114.17 95.17,-111 98.33,-111 98.33,-111 144.67,-111 144.67,-111 147.83,-111 151,-114.17 151,-117.33 151,-117.33 151,-123.67 151,-123.67 151,-126.83 147.83,-130 144.67,-130"/>
<text text-anchor="middle" x="121.5" y="-118" font-family="Helvetica,sans-Serif" font-size="10.00">BiasMap</text>
</a>
</g>
</g>
<!-- Node0&#45;&gt;Node1 -->
<g id="edge1_Node000000_Node000001" class="edge">
<title>Node0&#45;&gt;Node1</title>
<g id="a_edge1_Node000000_Node000001"><a xlink:title=" ">
<path fill="none" stroke="#63b8ff" d="M43.18,-80.32C53.41,-87.57 66.03,-95.98 78,-102.5 83.49,-105.49 89.58,-108.33 95.39,-110.83"/>
<polygon fill="#63b8ff" stroke="#63b8ff" points="45.04,-77.34 34.89,-74.32 40.94,-83.01 45.04,-77.34"/>
</a>
</g>
</g>
<!-- Node2 -->
<g id="Node000002" class="node">
<title>Node2</title>
<g id="a_Node000002"><a xlink:href="structGEpoch.html" target="_top" xlink:title=" ">
<path fill="#fff0f0" stroke="red" d="M141.67,-93C141.67,-93 101.33,-93 101.33,-93 98.17,-93 95,-89.83 95,-86.67 95,-86.67 95,-80.33 95,-80.33 95,-77.17 98.17,-74 101.33,-74 101.33,-74 141.67,-74 141.67,-74 144.83,-74 148,-77.17 148,-80.33 148,-80.33 148,-86.67 148,-86.67 148,-89.83 144.83,-93 141.67,-93"/>
<text text-anchor="middle" x="121.5" y="-81" font-family="Helvetica,sans-Serif" font-size="10.00">GEpoch</text>
</a>
</g>
</g>
<!-- Node0&#45;&gt;Node2 -->
<g id="edge2_Node000000_Node000002" class="edge">
<title>Node0&#45;&gt;Node2</title>
<g id="a_edge2_Node000000_Node000002"><a xlink:title=" ">
<path fill="none" stroke="#63b8ff" d="M52.3,-70.34C65.92,-72.97 81.83,-76.04 94.85,-78.55"/>
<polygon fill="#63b8ff" stroke="#63b8ff" points="52.89,-66.89 42.41,-68.44 51.57,-73.77 52.89,-66.89"/>
</a>
</g>
</g>
<!-- Node3 -->
<g id="Node000003" class="node">
<title>Node3</title>
<g id="a_Node000003"><a xlink:href="structMongoOptions.html" target="_top" xlink:title=" ">
<path fill="#fff0f0" stroke="red" d="M158.67,-56C158.67,-56 84.33,-56 84.33,-56 81.17,-56 78,-52.83 78,-49.67 78,-49.67 78,-43.33 78,-43.33 78,-40.17 81.17,-37 84.33,-37 84.33,-37 158.67,-37 158.67,-37 161.83,-37 165,-40.17 165,-43.33 165,-43.33 165,-49.67 165,-49.67 165,-52.83 161.83,-56 158.67,-56"/>
<text text-anchor="middle" x="121.5" y="-44" font-family="Helvetica,sans-Serif" font-size="10.00">MongoOptions</text>
</a>
</g>
</g>
<!-- Node0&#45;&gt;Node3 -->
<g id="edge3_Node000000_Node000003" class="edge">
<title>Node0&#45;&gt;Node3</title>
<g id="a_edge3_Node000000_Node000003"><a xlink:title=" ">
<path fill="none" stroke="#63b8ff" d="M52.41,-58.94C60.43,-57.48 69.24,-55.87 77.78,-54.31"/>
<polygon fill="#63b8ff" stroke="#63b8ff" points="51.62,-55.53 42.41,-60.77 52.88,-62.42 51.62,-55.53"/>
</a>
</g>
</g>
<!-- Node4 -->
<g id="Node000004" class="node">
<title>Node4</title>
<g id="a_Node000004"><a xlink:href="structUYds.html" target="_top" xlink:title=" ">
<path fill="#fff0f0" stroke="red" d="M135.67,-19C135.67,-19 107.33,-19 107.33,-19 104.17,-19 101,-15.83 101,-12.67 101,-12.67 101,-6.33 101,-6.33 101,-3.17 104.17,0 107.33,0 107.33,0 135.67,0 135.67,0 138.83,0 142,-3.17 142,-6.33 142,-6.33 142,-12.67 142,-12.67 142,-15.83 138.83,-19 135.67,-19"/>
<text text-anchor="middle" x="121.5" y="-7" font-family="Helvetica,sans-Serif" font-size="10.00">UYds</text>
</a>
</g>
</g>
<!-- Node0&#45;&gt;Node4 -->
<g id="edge4_Node000000_Node000004" class="edge">
<title>Node0&#45;&gt;Node4</title>
<g id="a_edge4_Node000000_Node000004"><a xlink:title=" ">
<path fill="none" stroke="#63b8ff" d="M44.47,-48.95C54.52,-42.29 66.64,-34.65 78,-28.5 85.25,-24.58 93.47,-20.76 100.74,-17.6"/>
<polygon fill="#63b8ff" stroke="#63b8ff" points="42.25,-46.23 35.91,-54.72 46.16,-52.03 42.25,-46.23"/>
</a>
</g>
</g>
</g>
</svg>
