<?xml version="1.0" encoding="UTF-8" standalone="no"?>
<!DOCTYPE svg PUBLIC "-//W3C//DTD SVG 1.1//EN"
 "http://www.w3.org/Graphics/SVG/1.1/DTD/svg11.dtd">
<!-- Generated by graphviz version 2.43.0 (0)
 -->
<!-- Title: Graphical Class Hierarchy Pages: 1 -->
<svg width="286pt" height="27pt"
 viewBox="0.00 0.00 286.00 27.00" xmlns="http://www.w3.org/2000/svg" xmlns:xlink="http://www.w3.org/1999/xlink">
<g id="graph0" class="graph" transform="scale(1 1) rotate(0) translate(4 23)">
<title>Graphical Class Hierarchy</title>
<!-- Node0 -->
<g id="Node000000" class="node">
<title>Node0</title>
<g id="a_Node000000"><a xlink:href="structGeomagMainField.html" target="_top" xlink:title="Structure for variables related to the International Geomagnetic Reference Field 13th Generation Inte...">
<path fill="#fff0f0" stroke="red" d="M98.67,-19C98.67,-19 6.33,-19 6.33,-19 3.17,-19 0,-15.83 0,-12.67 0,-12.67 0,-6.33 0,-6.33 0,-3.17 3.17,0 6.33,0 6.33,0 98.67,0 98.67,0 101.83,0 105,-3.17 105,-6.33 105,-6.33 105,-12.67 105,-12.67 105,-15.83 101.83,-19 98.67,-19"/>
<text text-anchor="middle" x="52.5" y="-7" font-family="Helvetica,sans-Serif" font-size="10.00">GeomagMainField</text>
</a>
</g>
</g>
<!-- Node1 -->
<g id="Node000001" class="node">
<title>Node1</title>
<g id="a_Node000001"><a xlink:href="structGeomagSecularVariation.html" target="_top" xlink:title="Structure for secular variation (SV) inherited from GeomagMainField.">
<path fill="#fff0f0" stroke="red" d="M271.67,-19C271.67,-19 147.33,-19 147.33,-19 144.17,-19 141,-15.83 141,-12.67 141,-12.67 141,-6.33 141,-6.33 141,-3.17 144.17,0 147.33,0 147.33,0 271.67,0 271.67,0 274.83,0 278,-3.17 278,-6.33 278,-6.33 278,-12.67 278,-12.67 278,-15.83 274.83,-19 271.67,-19"/>
<text text-anchor="middle" x="209.5" y="-7" font-family="Helvetica,sans-Serif" font-size="10.00">GeomagSecularVariation</text>
</a>
</g>
</g>
<!-- Node0&#45;&gt;Node1 -->
<g id="edge37_Node000000_Node000001" class="edge">
<title>Node0&#45;&gt;Node1</title>
<g id="a_edge37_Node000000_Node000001"><a xlink:title=" ">
<path fill="none" stroke="#63b8ff" d="M115.23,-9.5C123.65,-9.5 132.32,-9.5 140.84,-9.5"/>
<polygon fill="#63b8ff" stroke="#63b8ff" points="115.11,-6 105.11,-9.5 115.11,-13 115.11,-6"/>
</a>
</g>
</g>
</g>
</svg>
