<?xml version="1.0" encoding="UTF-8" standalone="no"?>
<!DOCTYPE svg PUBLIC "-//W3C//DTD SVG 1.1//EN"
 "http://www.w3.org/Graphics/SVG/1.1/DTD/svg11.dtd">
<!-- Generated by graphviz version 2.43.0 (0)
 -->
<!-- Title: fileChanged Pages: 1 -->
<svg width="204pt" height="27pt"
 viewBox="0.00 0.00 204.00 27.00" xmlns="http://www.w3.org/2000/svg" xmlns:xlink="http://www.w3.org/1999/xlink">
<g id="graph0" class="graph" transform="scale(1 1) rotate(0) translate(4 23)">
<title>fileChanged</title>
<!-- Node1 -->
<g id="Node000001" class="node">
<title>Node1</title>
<g id="a_Node000001"><a xlink:href="inputs_8cpp.html#a044cd088d8a6d17451b655ea49b820f7" target="_top" xlink:title=" ">
<path fill="#fff0f0" stroke="red" stroke-width="2" d="M67.67,-19C67.67,-19 6.33,-19 6.33,-19 3.17,-19 0,-15.83 0,-12.67 0,-12.67 0,-6.33 0,-6.33 0,-3.17 3.17,0 6.33,0 6.33,0 67.67,0 67.67,0 70.83,0 74,-3.17 74,-6.33 74,-6.33 74,-12.67 74,-12.67 74,-15.83 70.83,-19 67.67,-19"/>
<text text-anchor="middle" x="37" y="-7" font-family="Helvetica,sans-Serif" font-size="10.00">fileChanged</text>
</a>
</g>
</g>
<!-- Node2 -->
<g id="Node000002" class="node">
<title>Node2</title>
<g id="a_Node000002"><a xlink:href="inputs_8cpp.html#ad1ec272d0843fc173337df99f76618bc" target="_top" xlink:title="Check that filename is valid and the file exists.">
<path fill="#fff0f0" stroke="red" d="M189.67,-19C189.67,-19 116.33,-19 116.33,-19 113.17,-19 110,-15.83 110,-12.67 110,-12.67 110,-6.33 110,-6.33 110,-3.17 113.17,0 116.33,0 116.33,0 189.67,0 189.67,0 192.83,0 196,-3.17 196,-6.33 196,-6.33 196,-12.67 196,-12.67 196,-15.83 192.83,-19 189.67,-19"/>
<text text-anchor="middle" x="153" y="-7" font-family="Helvetica,sans-Serif" font-size="10.00">checkValidFile</text>
</a>
</g>
</g>
<!-- Node1&#45;&gt;Node2 -->
<g id="edge1_Node000001_Node000002" class="edge">
<title>Node1&#45;&gt;Node2</title>
<g id="a_edge1_Node000001_Node000002"><a xlink:title=" ">
<path fill="none" stroke="#63b8ff" d="M74.07,-9.5C82.23,-9.5 91.05,-9.5 99.73,-9.5"/>
<polygon fill="#63b8ff" stroke="#63b8ff" points="99.79,-13 109.79,-9.5 99.79,-6 99.79,-13"/>
</a>
</g>
</g>
</g>
</svg>
