<?xml version="1.0" encoding="UTF-8" standalone="no"?>
<!DOCTYPE svg PUBLIC "-//W3C//DTD SVG 1.1//EN"
 "http://www.w3.org/Graphics/SVG/1.1/DTD/svg11.dtd">
<!-- Generated by graphviz version 2.43.0 (0)
 -->
<!-- Title: createDirectories Pages: 1 -->
<svg width="315pt" height="83pt"
 viewBox="0.00 0.00 315.00 83.00" xmlns="http://www.w3.org/2000/svg" xmlns:xlink="http://www.w3.org/1999/xlink">
<g id="graph0" class="graph" transform="scale(1 1) rotate(0) translate(4 79)">
<title>createDirectories</title>
<!-- Node1 -->
<g id="Node000001" class="node">
<title>Node1</title>
<g id="a_Node000001"><a xlink:href="outputs_8cpp.html#a2206cd179576b10f99dbe50e8e7ddc5a" target="_top" xlink:title="Create directories if required.">
<path fill="#fff0f0" stroke="red" stroke-width="2" d="M300.67,-38C300.67,-38 212.33,-38 212.33,-38 209.17,-38 206,-34.83 206,-31.67 206,-31.67 206,-25.33 206,-25.33 206,-22.17 209.17,-19 212.33,-19 212.33,-19 300.67,-19 300.67,-19 303.83,-19 307,-22.17 307,-25.33 307,-25.33 307,-31.67 307,-31.67 307,-34.83 303.83,-38 300.67,-38"/>
<text text-anchor="middle" x="256.5" y="-26" font-family="Helvetica,sans-Serif" font-size="10.00">createDirectories</text>
</a>
</g>
</g>
<!-- Node2 -->
<g id="Node000002" class="node">
<title>Node2</title>
<g id="a_Node000002"><a xlink:href="compare_8cpp.html#aa8c289d9d4e60f862fb0a60566b76bd0" target="_top" xlink:title=" ">
<path fill="#fff0f0" stroke="red" d="M161.67,-75C161.67,-75 85.33,-75 85.33,-75 82.17,-75 79,-71.83 79,-68.67 79,-68.67 79,-62.33 79,-62.33 79,-59.17 82.17,-56 85.33,-56 85.33,-56 161.67,-56 161.67,-56 164.83,-56 168,-59.17 168,-62.33 168,-62.33 168,-68.67 168,-68.67 168,-71.83 164.83,-75 161.67,-75"/>
<text text-anchor="middle" x="123.5" y="-63" font-family="Helvetica,sans-Serif" font-size="10.00">compareOrbits</text>
</a>
</g>
</g>
<!-- Node1&#45;&gt;Node2 -->
<g id="edge1_Node000001_Node000002" class="edge">
<title>Node1&#45;&gt;Node2</title>
<g id="a_edge1_Node000001_Node000002"><a xlink:title=" ">
<path fill="none" stroke="#63b8ff" d="M211.86,-40.83C194.51,-45.73 174.85,-51.28 158.58,-55.88"/>
<polygon fill="#63b8ff" stroke="#63b8ff" points="213.09,-44.11 221.76,-38.03 211.19,-37.38 213.09,-44.11"/>
</a>
</g>
</g>
<!-- Node5 -->
<g id="Node000005" class="node">
<title>Node5</title>
<g id="a_Node000005"><a xlink:href="outputs_8cpp.html#a116830f5a44aad1710dc47ecfa670cab" target="_top" xlink:title="Create new empty trace files only when required when the filename is changed.">
<path fill="#fff0f0" stroke="red" d="M163.67,-38C163.67,-38 83.33,-38 83.33,-38 80.17,-38 77,-34.83 77,-31.67 77,-31.67 77,-25.33 77,-25.33 77,-22.17 80.17,-19 83.33,-19 83.33,-19 163.67,-19 163.67,-19 166.83,-19 170,-22.17 170,-25.33 170,-25.33 170,-31.67 170,-31.67 170,-34.83 166.83,-38 163.67,-38"/>
<text text-anchor="middle" x="123.5" y="-26" font-family="Helvetica,sans-Serif" font-size="10.00">createTracefiles</text>
</a>
</g>
</g>
<!-- Node1&#45;&gt;Node5 -->
<g id="edge2_Node000001_Node000005" class="edge">
<title>Node1&#45;&gt;Node5</title>
<g id="a_edge2_Node000001_Node000005"><a xlink:title=" ">
<path fill="none" stroke="#63b8ff" d="M195.93,-28.5C187.3,-28.5 178.52,-28.5 170.21,-28.5"/>
<polygon fill="#63b8ff" stroke="#63b8ff" points="195.97,-32 205.97,-28.5 195.97,-25 195.97,-32"/>
</a>
</g>
</g>
<!-- Node4 -->
<g id="Node000004" class="node">
<title>Node4</title>
<g id="a_Node000004"><a xlink:href="main_8cpp.html#a3c04138a5bfe5d72780bb7e82a18e627" target="_top" xlink:title=" ">
<path fill="#fff0f0" stroke="red" d="M34.67,-19C34.67,-19 6.33,-19 6.33,-19 3.17,-19 0,-15.83 0,-12.67 0,-12.67 0,-6.33 0,-6.33 0,-3.17 3.17,0 6.33,0 6.33,0 34.67,0 34.67,0 37.83,0 41,-3.17 41,-6.33 41,-6.33 41,-12.67 41,-12.67 41,-15.83 37.83,-19 34.67,-19"/>
<text text-anchor="middle" x="20.5" y="-7" font-family="Helvetica,sans-Serif" font-size="10.00">main</text>
</a>
</g>
</g>
<!-- Node1&#45;&gt;Node4 -->
<g id="edge4_Node000001_Node000004" class="edge">
<title>Node1&#45;&gt;Node4</title>
<g id="a_edge4_Node000001_Node000004"><a xlink:title=" ">
<path fill="none" stroke="#63b8ff" d="M208.2,-16.78C195.85,-14.2 182.49,-11.84 170,-10.5 124.12,-5.57 69.79,-7.04 41.27,-8.38"/>
<polygon fill="#63b8ff" stroke="#63b8ff" points="207.79,-20.27 218.3,-18.97 209.28,-13.43 207.79,-20.27"/>
</a>
</g>
</g>
<!-- Node5&#45;&gt;Node4 -->
<g id="edge3_Node000005_Node000004" class="edge">
<title>Node5&#45;&gt;Node4</title>
<g id="a_edge3_Node000005_Node000004"><a xlink:title=" ">
<path fill="none" stroke="#63b8ff" d="M66.72,-18.01C57.53,-16.28 48.58,-14.59 41.09,-13.19"/>
<polygon fill="#63b8ff" stroke="#63b8ff" points="66.25,-21.48 76.73,-19.89 67.55,-14.6 66.25,-21.48"/>
</a>
</g>
</g>
</g>
</svg>
