<?xml version="1.0" encoding="UTF-8" standalone="no"?>
<!DOCTYPE svg PUBLIC "-//W3C//DTD SVG 1.1//EN"
 "http://www.w3.org/Graphics/SVG/1.1/DTD/svg11.dtd">
<!-- Generated by graphviz version 2.43.0 (0)
 -->
<!-- Title: checkValidFile Pages: 1 -->
<svg width="240pt" height="138pt"
 viewBox="0.00 0.00 240.00 138.00" xmlns="http://www.w3.org/2000/svg" xmlns:xlink="http://www.w3.org/1999/xlink">
<g id="graph0" class="graph" transform="scale(1 1) rotate(0) translate(4 134)">
<title>checkValidFile</title>
<!-- Node1 -->
<g id="Node000001" class="node">
<title>Node1</title>
<g id="a_Node000001"><a xlink:href="inputs_8cpp.html#ad1ec272d0843fc173337df99f76618bc" target="_top" xlink:title="Check that filename is valid and the file exists.">
<path fill="#fff0f0" stroke="red" stroke-width="2" d="M225.67,-74C225.67,-74 152.33,-74 152.33,-74 149.17,-74 146,-70.83 146,-67.67 146,-67.67 146,-61.33 146,-61.33 146,-58.17 149.17,-55 152.33,-55 152.33,-55 225.67,-55 225.67,-55 228.83,-55 232,-58.17 232,-61.33 232,-61.33 232,-67.67 232,-67.67 232,-70.83 228.83,-74 225.67,-74"/>
<text text-anchor="middle" x="189" y="-62" font-family="Helvetica,sans-Serif" font-size="10.00">checkValidFile</text>
</a>
</g>
</g>
<!-- Node2 -->
<g id="Node000002" class="node">
<title>Node2</title>
<g id="a_Node000002"><a xlink:href="inputs_8cpp.html#a69d21c6d14168a8a526a87a509002d41" target="_top" xlink:title="Create a station object from an input.">
<path fill="#fff0f0" stroke="red" d="M94.67,-130C94.67,-130 15.33,-130 15.33,-130 12.17,-130 9,-126.83 9,-123.67 9,-123.67 9,-117.33 9,-117.33 9,-114.17 12.17,-111 15.33,-111 15.33,-111 94.67,-111 94.67,-111 97.83,-111 101,-114.17 101,-117.33 101,-117.33 101,-123.67 101,-123.67 101,-126.83 97.83,-130 94.67,-130"/>
<text text-anchor="middle" x="55" y="-118" font-family="Helvetica,sans-Serif" font-size="10.00">addStationData</text>
</a>
</g>
</g>
<!-- Node1&#45;&gt;Node2 -->
<g id="edge1_Node000001_Node000002" class="edge">
<title>Node1&#45;&gt;Node2</title>
<g id="a_edge1_Node000001_Node000002"><a xlink:title=" ">
<path fill="none" stroke="#63b8ff" d="M160.92,-78.78C146.09,-86.32 127.27,-95.45 110,-102.5 102.68,-105.49 94.66,-108.37 87.1,-110.91"/>
<polygon fill="#63b8ff" stroke="#63b8ff" points="162.74,-81.78 170.03,-74.1 159.53,-75.56 162.74,-81.78"/>
</a>
</g>
</g>
<!-- Node6 -->
<g id="Node000006" class="node">
<title>Node6</title>
<g id="a_Node000006"><a xlink:href="inputs_8cpp.html#a65cbb0c165d947cc517df255bcc40d25" target="_top" xlink:title=" ">
<path fill="#fff0f0" stroke="red" d="M94.67,-93C94.67,-93 15.33,-93 15.33,-93 12.17,-93 9,-89.83 9,-86.67 9,-86.67 9,-80.33 9,-80.33 9,-77.17 12.17,-74 15.33,-74 15.33,-74 94.67,-74 94.67,-74 97.83,-74 101,-77.17 101,-80.33 101,-80.33 101,-86.67 101,-86.67 101,-89.83 97.83,-93 94.67,-93"/>
<text text-anchor="middle" x="55" y="-81" font-family="Helvetica,sans-Serif" font-size="10.00">checkValidFiles</text>
</a>
</g>
</g>
<!-- Node1&#45;&gt;Node6 -->
<g id="edge2_Node000001_Node000006" class="edge">
<title>Node1&#45;&gt;Node6</title>
<g id="a_edge2_Node000001_Node000006"><a xlink:title=" ">
<path fill="none" stroke="#63b8ff" d="M135.66,-72.03C124.32,-73.67 112.42,-75.38 101.38,-76.97"/>
<polygon fill="#63b8ff" stroke="#63b8ff" points="136.47,-75.45 145.87,-70.56 135.47,-68.52 136.47,-75.45"/>
</a>
</g>
</g>
<!-- Node8 -->
<g id="Node000008" class="node">
<title>Node8</title>
<g id="a_Node000008"><a xlink:href="inputs_8cpp.html#a044cd088d8a6d17451b655ea49b820f7" target="_top" xlink:title=" ">
<path fill="#fff0f0" stroke="red" d="M85.67,-56C85.67,-56 24.33,-56 24.33,-56 21.17,-56 18,-52.83 18,-49.67 18,-49.67 18,-43.33 18,-43.33 18,-40.17 21.17,-37 24.33,-37 24.33,-37 85.67,-37 85.67,-37 88.83,-37 92,-40.17 92,-43.33 92,-43.33 92,-49.67 92,-49.67 92,-52.83 88.83,-56 85.67,-56"/>
<text text-anchor="middle" x="55" y="-44" font-family="Helvetica,sans-Serif" font-size="10.00">fileChanged</text>
</a>
</g>
</g>
<!-- Node1&#45;&gt;Node8 -->
<g id="edge3_Node000001_Node000008" class="edge">
<title>Node1&#45;&gt;Node8</title>
<g id="a_edge3_Node000001_Node000008"><a xlink:title=" ">
<path fill="none" stroke="#63b8ff" d="M135.55,-57.35C121.09,-55.38 105.73,-53.28 92.4,-51.46"/>
<polygon fill="#63b8ff" stroke="#63b8ff" points="135.49,-60.87 145.87,-58.76 136.44,-53.94 135.49,-60.87"/>
</a>
</g>
</g>
<!-- Node9 -->
<g id="Node000009" class="node">
<title>Node9</title>
<g id="a_Node000009"><a xlink:href="inputs_8cpp.html#a34804c3a0ffc29cad1548a9a3af91d45" target="_top" xlink:title=" ">
<path fill="#fff0f0" stroke="red" d="M103.67,-19C103.67,-19 6.33,-19 6.33,-19 3.17,-19 0,-15.83 0,-12.67 0,-12.67 0,-6.33 0,-6.33 0,-3.17 3.17,0 6.33,0 6.33,0 103.67,0 103.67,0 106.83,0 110,-3.17 110,-6.33 110,-6.33 110,-12.67 110,-12.67 110,-15.83 106.83,-19 103.67,-19"/>
<text text-anchor="middle" x="55" y="-7" font-family="Helvetica,sans-Serif" font-size="10.00">removeInvalidFiles</text>
</a>
</g>
</g>
<!-- Node1&#45;&gt;Node9 -->
<g id="edge4_Node000001_Node000009" class="edge">
<title>Node1&#45;&gt;Node9</title>
<g id="a_edge4_Node000001_Node000009"><a xlink:title=" ">
<path fill="none" stroke="#63b8ff" d="M159.6,-50.61C144.94,-43.64 126.67,-35.26 110,-28.5 101.9,-25.21 92.98,-21.94 84.77,-19.06"/>
<polygon fill="#63b8ff" stroke="#63b8ff" points="158.14,-53.79 168.67,-54.96 161.17,-47.48 158.14,-53.79"/>
</a>
</g>
</g>
</g>
</svg>
