<?xml version="1.0" encoding="UTF-8" standalone="no"?>
<!DOCTYPE svg PUBLIC "-//W3C//DTD SVG 1.1//EN"
 "http://www.w3.org/Graphics/SVG/1.1/DTD/svg11.dtd">
<!-- Generated by graphviz version 2.43.0 (0)
 -->
<!-- Title: nitem Pages: 1 -->
<svg width="160pt" height="27pt"
 viewBox="0.00 0.00 160.00 27.00" xmlns="http://www.w3.org/2000/svg" xmlns:xlink="http://www.w3.org/1999/xlink">
<g id="graph0" class="graph" transform="scale(1 1) rotate(0) translate(4 23)">
<title>nitem</title>
<!-- Node1 -->
<g id="Node000001" class="node">
<title>Node1</title>
<g id="a_Node000001"><a xlink:href="ionex_8cpp.html#a8287976c6b8f8b6c87f8d68d8f615305" target="_top" xlink:title=" ">
<path fill="#fff0f0" stroke="red" stroke-width="2" d="M145.67,-19C145.67,-19 113.33,-19 113.33,-19 110.17,-19 107,-15.83 107,-12.67 107,-12.67 107,-6.33 107,-6.33 107,-3.17 110.17,0 113.33,0 113.33,0 145.67,0 145.67,0 148.83,0 152,-3.17 152,-6.33 152,-6.33 152,-12.67 152,-12.67 152,-15.83 148.83,-19 145.67,-19"/>
<text text-anchor="middle" x="129.5" y="-7" font-family="Helvetica,sans-Serif" font-size="10.00">nitem</text>
</a>
</g>
</g>
<!-- Node2 -->
<g id="Node000002" class="node">
<title>Node2</title>
<g id="a_Node000002"><a xlink:href="ionex_8cpp.html#abf1aa645c47caa10ebb6f4447dc72cbc" target="_top" xlink:title=" ">
<path fill="#fff0f0" stroke="red" d="M64.67,-19C64.67,-19 6.33,-19 6.33,-19 3.17,-19 0,-15.83 0,-12.67 0,-12.67 0,-6.33 0,-6.33 0,-3.17 3.17,0 6.33,0 6.33,0 64.67,0 64.67,0 67.83,0 71,-3.17 71,-6.33 71,-6.33 71,-12.67 71,-12.67 71,-15.83 67.83,-19 64.67,-19"/>
<text text-anchor="middle" x="35.5" y="-7" font-family="Helvetica,sans-Serif" font-size="10.00">readionexb</text>
</a>
</g>
</g>
<!-- Node1&#45;&gt;Node2 -->
<g id="edge1_Node000001_Node000002" class="edge">
<title>Node1&#45;&gt;Node2</title>
<g id="a_edge1_Node000001_Node000002"><a xlink:title=" ">
<path fill="none" stroke="#63b8ff" d="M96.69,-9.5C88.43,-9.5 79.49,-9.5 71.09,-9.5"/>
<polygon fill="#63b8ff" stroke="#63b8ff" points="96.7,-13 106.7,-9.5 96.7,-6 96.7,-13"/>
</a>
</g>
</g>
</g>
</svg>
