<?xml version="1.0" encoding="UTF-8" standalone="no"?>
<!DOCTYPE svg PUBLIC "-//W3C//DTD SVG 1.1//EN"
 "http://www.w3.org/Graphics/SVG/1.1/DTD/svg11.dtd">
<!-- Generated by graphviz version 2.43.0 (0)
 -->
<!-- Title: iontec Pages: 1 -->
<svg width="177pt" height="64pt"
 viewBox="0.00 0.00 177.00 64.00" xmlns="http://www.w3.org/2000/svg" xmlns:xlink="http://www.w3.org/1999/xlink">
<g id="graph0" class="graph" transform="scale(1 1) rotate(0) translate(4 60)">
<title>iontec</title>
<!-- Node1 -->
<g id="Node000001" class="node">
<title>Node1</title>
<g id="a_Node000001"><a xlink:href="ionModels_8cpp.html#a888ec160331f90627c88439a333a879e" target="_top" xlink:title="ionosphere model by tec grid data Before calling the function, read tec grid data by calling readTec(...">
<path fill="#fff0f0" stroke="red" stroke-width="2" d="M40.67,-19C40.67,-19 6.33,-19 6.33,-19 3.17,-19 0,-15.83 0,-12.67 0,-12.67 0,-6.33 0,-6.33 0,-3.17 3.17,0 6.33,0 6.33,0 40.67,0 40.67,0 43.83,0 47,-3.17 47,-6.33 47,-6.33 47,-12.67 47,-12.67 47,-15.83 43.83,-19 40.67,-19"/>
<text text-anchor="middle" x="23.5" y="-7" font-family="Helvetica,sans-Serif" font-size="10.00">iontec</text>
</a>
</g>
</g>
<!-- Node2 -->
<g id="Node000002" class="node">
<title>Node2</title>
<g id="a_Node000002"><a xlink:href="structVectorPos.html#a9517f77c95322d34dc896a88db4a804f" target="_top" xlink:title=" ">
<path fill="#fff0f0" stroke="red" d="M162.67,-56C162.67,-56 89.33,-56 89.33,-56 86.17,-56 83,-52.83 83,-49.67 83,-49.67 83,-43.33 83,-43.33 83,-40.17 86.17,-37 89.33,-37 89.33,-37 162.67,-37 162.67,-37 165.83,-37 169,-40.17 169,-43.33 169,-43.33 169,-49.67 169,-49.67 169,-52.83 165.83,-56 162.67,-56"/>
<text text-anchor="middle" x="126" y="-44" font-family="Helvetica,sans-Serif" font-size="10.00">VectorPos::hgt</text>
</a>
</g>
</g>
<!-- Node1&#45;&gt;Node2 -->
<g id="edge1_Node000001_Node000002" class="edge">
<title>Node1&#45;&gt;Node2</title>
<g id="a_edge1_Node000001_Node000002"><a xlink:title=" ">
<path fill="none" stroke="#63b8ff" d="M47.05,-17.8C59.56,-22.41 75.4,-28.24 89.53,-33.44"/>
<polygon fill="#63b8ff" stroke="#63b8ff" points="88.38,-36.75 98.97,-36.92 90.8,-30.18 88.38,-36.75"/>
</a>
</g>
</g>
<!-- Node3 -->
<g id="Node000003" class="node">
<title>Node3</title>
<g id="a_Node000003"><a xlink:href="ionModels_8cpp.html#ac710c3403fa3ab56615703575b8c3810" target="_top" xlink:title="ionosphere delay by tec grid data">
<path fill="#fff0f0" stroke="red" d="M149.67,-19C149.67,-19 102.33,-19 102.33,-19 99.17,-19 96,-15.83 96,-12.67 96,-12.67 96,-6.33 96,-6.33 96,-3.17 99.17,0 102.33,0 102.33,0 149.67,0 149.67,0 152.83,0 156,-3.17 156,-6.33 156,-6.33 156,-12.67 156,-12.67 156,-15.83 152.83,-19 149.67,-19"/>
<text text-anchor="middle" x="126" y="-7" font-family="Helvetica,sans-Serif" font-size="10.00">ionDelay</text>
</a>
</g>
</g>
<!-- Node1&#45;&gt;Node3 -->
<g id="edge2_Node000001_Node000003" class="edge">
<title>Node1&#45;&gt;Node3</title>
<g id="a_edge2_Node000001_Node000003"><a xlink:title=" ">
<path fill="none" stroke="#63b8ff" d="M47.05,-3.76C58.38,-2.84 72.43,-2.55 85.48,-2.89"/>
<polygon fill="#63b8ff" stroke="#63b8ff" points="85.52,-6.39 95.65,-3.3 85.8,0.6 85.52,-6.39"/>
</a>
</g>
</g>
<!-- Node1&#45;&gt;Node3 -->
<g id="edge3_Node000001_Node000003" class="edge">
<title>Node1&#45;&gt;Node3</title>
<g id="a_edge3_Node000001_Node000003"><a xlink:title=" ">
<path fill="none" stroke="#63b8ff" d="M47.05,-15.24C58.38,-16.16 72.43,-16.45 85.48,-16.11"/>
<polygon fill="#63b8ff" stroke="#63b8ff" points="85.8,-19.6 95.65,-15.7 85.52,-12.61 85.8,-19.6"/>
</a>
</g>
</g>
</g>
</svg>
