<?xml version="1.0" encoding="UTF-8" standalone="no"?>
<!DOCTYPE svg PUBLIC "-//W3C//DTD SVG 1.1//EN"
 "http://www.w3.org/Graphics/SVG/1.1/DTD/svg11.dtd">
<!-- Generated by graphviz version 2.43.0 (0)
 -->
<!-- Title: ionmapf Pages: 1 -->
<svg width="178pt" height="64pt"
 viewBox="0.00 0.00 178.00 64.00" xmlns="http://www.w3.org/2000/svg" xmlns:xlink="http://www.w3.org/1999/xlink">
<g id="graph0" class="graph" transform="scale(1 1) rotate(0) translate(4 60)">
<title>ionmapf</title>
<!-- Node1 -->
<g id="Node000001" class="node">
<title>Node1</title>
<g id="a_Node000001"><a xlink:href="ionModels_8cpp.html#a1ce76f618297ca5c19ad83cef18d3b62" target="_top" xlink:title="ionosphere mapping function">
<path fill="#fff0f0" stroke="red" stroke-width="2" d="M163.67,-37C163.67,-37 119.33,-37 119.33,-37 116.17,-37 113,-33.83 113,-30.67 113,-30.67 113,-24.33 113,-24.33 113,-21.17 116.17,-18 119.33,-18 119.33,-18 163.67,-18 163.67,-18 166.83,-18 170,-21.17 170,-24.33 170,-24.33 170,-30.67 170,-30.67 170,-33.83 166.83,-37 163.67,-37"/>
<text text-anchor="middle" x="141.5" y="-25" font-family="Helvetica,sans-Serif" font-size="10.00">ionmapf</text>
</a>
</g>
</g>
<!-- Node2 -->
<g id="Node000002" class="node">
<title>Node2</title>
<g id="a_Node000002"><a xlink:href="ionModels_8cpp.html#ac710c3403fa3ab56615703575b8c3810" target="_top" xlink:title="ionosphere delay by tec grid data">
<path fill="#fff0f0" stroke="red" d="M62.17,-56C62.17,-56 14.83,-56 14.83,-56 11.67,-56 8.5,-52.83 8.5,-49.67 8.5,-49.67 8.5,-43.33 8.5,-43.33 8.5,-40.17 11.67,-37 14.83,-37 14.83,-37 62.17,-37 62.17,-37 65.33,-37 68.5,-40.17 68.5,-43.33 68.5,-43.33 68.5,-49.67 68.5,-49.67 68.5,-52.83 65.33,-56 62.17,-56"/>
<text text-anchor="middle" x="38.5" y="-44" font-family="Helvetica,sans-Serif" font-size="10.00">ionDelay</text>
</a>
</g>
</g>
<!-- Node1&#45;&gt;Node2 -->
<g id="edge1_Node000001_Node000002" class="edge">
<title>Node1&#45;&gt;Node2</title>
<g id="a_edge1_Node000001_Node000002"><a xlink:title=" ">
<path fill="none" stroke="#63b8ff" d="M102.89,-34.57C91.64,-36.69 79.47,-38.98 68.83,-40.98"/>
<polygon fill="#63b8ff" stroke="#63b8ff" points="103.72,-37.98 112.9,-32.69 102.43,-31.1 103.72,-37.98"/>
</a>
</g>
</g>
<!-- Node12 -->
<g id="Node000012" class="node">
<title>Node12</title>
<g id="a_Node000012"><a xlink:href="ppp__obs_8cpp.html#aa5decb7796b7a6c3b6edb2160eba9887" target="_top" xlink:title="3rd order ionospheric correction See ref [1]">
<path fill="#fff0f0" stroke="red" d="M70.67,-19C70.67,-19 6.33,-19 6.33,-19 3.17,-19 0,-15.83 0,-12.67 0,-12.67 0,-6.33 0,-6.33 0,-3.17 3.17,0 6.33,0 6.33,0 70.67,0 70.67,0 73.83,0 77,-3.17 77,-6.33 77,-6.33 77,-12.67 77,-12.67 77,-15.83 73.83,-19 70.67,-19"/>
<text text-anchor="middle" x="38.5" y="-7" font-family="Helvetica,sans-Serif" font-size="10.00">pppIonStec3</text>
</a>
</g>
</g>
<!-- Node1&#45;&gt;Node12 -->
<g id="edge2_Node000001_Node000012" class="edge">
<title>Node1&#45;&gt;Node12</title>
<g id="a_edge2_Node000001_Node000012"><a xlink:title=" ">
<path fill="none" stroke="#63b8ff" d="M102.99,-20.81C94.6,-19.32 85.69,-17.73 77.29,-16.23"/>
<polygon fill="#63b8ff" stroke="#63b8ff" points="102.44,-24.27 112.9,-22.58 103.67,-17.38 102.44,-24.27"/>
</a>
</g>
</g>
</g>
</svg>
