<?xml version="1.0" encoding="UTF-8" standalone="no"?>
<!DOCTYPE svg PUBLIC "-//W3C//DTD SVG 1.1//EN"
 "http://www.w3.org/Graphics/SVG/1.1/DTD/svg11.dtd">
<!-- Generated by graphviz version 2.43.0 (0)
 -->
<!-- Title: ionmodel Pages: 1 -->
<svg width="174pt" height="64pt"
 viewBox="0.00 0.00 174.00 64.00" xmlns="http://www.w3.org/2000/svg" xmlns:xlink="http://www.w3.org/1999/xlink">
<g id="graph0" class="graph" transform="scale(1 1) rotate(0) translate(4 60)">
<title>ionmodel</title>
<!-- Node1 -->
<g id="Node000001" class="node">
<title>Node1</title>
<g id="a_Node000001"><a xlink:href="ionModels_8cpp.html#a57191b4303a5b58e1a21fe08ab32538c" target="_top" xlink:title=" ">
<path fill="#fff0f0" stroke="red" stroke-width="2" d="M159.67,-37C159.67,-37 110.33,-37 110.33,-37 107.17,-37 104,-33.83 104,-30.67 104,-30.67 104,-24.33 104,-24.33 104,-21.17 107.17,-18 110.33,-18 110.33,-18 159.67,-18 159.67,-18 162.83,-18 166,-21.17 166,-24.33 166,-24.33 166,-30.67 166,-30.67 166,-33.83 162.83,-37 159.67,-37"/>
<text text-anchor="middle" x="135" y="-25" font-family="Helvetica,sans-Serif" font-size="10.00">ionmodel</text>
</a>
</g>
</g>
<!-- Node2 -->
<g id="Node000002" class="node">
<title>Node2</title>
<g id="a_Node000002"><a xlink:href="spp_8cpp.html#a46206d6393631e3df6644a21e78cea88" target="_top" xlink:title="Compute ionospheric corrections.">
<path fill="#fff0f0" stroke="red" d="M55.67,-56C55.67,-56 12.33,-56 12.33,-56 9.17,-56 6,-52.83 6,-49.67 6,-49.67 6,-43.33 6,-43.33 6,-40.17 9.17,-37 12.33,-37 12.33,-37 55.67,-37 55.67,-37 58.83,-37 62,-40.17 62,-43.33 62,-43.33 62,-49.67 62,-49.67 62,-52.83 58.83,-56 55.67,-56"/>
<text text-anchor="middle" x="34" y="-44" font-family="Helvetica,sans-Serif" font-size="10.00">ionocorr</text>
</a>
</g>
</g>
<!-- Node1&#45;&gt;Node2 -->
<g id="edge1_Node000001_Node000002" class="edge">
<title>Node1&#45;&gt;Node2</title>
<g id="a_edge1_Node000001_Node000002"><a xlink:title=" ">
<path fill="none" stroke="#63b8ff" d="M93.77,-35.22C83.09,-37.27 71.82,-39.43 62.03,-41.31"/>
<polygon fill="#63b8ff" stroke="#63b8ff" points="94.6,-38.63 103.76,-33.3 93.28,-31.75 94.6,-38.63"/>
</a>
</g>
</g>
<!-- Node11 -->
<g id="Node000011" class="node">
<title>Node11</title>
<g id="a_Node000011"><a xlink:href="ionModels_8cpp.html#a40543623e2cbff738c3ce74aeda214fd" target="_top" xlink:title="ionospheric model">
<path fill="#fff0f0" stroke="red" d="M61.67,-19C61.67,-19 6.33,-19 6.33,-19 3.17,-19 0,-15.83 0,-12.67 0,-12.67 0,-6.33 0,-6.33 0,-3.17 3.17,0 6.33,0 6.33,0 61.67,0 61.67,0 64.83,0 68,-3.17 68,-6.33 68,-6.33 68,-12.67 68,-12.67 68,-15.83 64.83,-19 61.67,-19"/>
<text text-anchor="middle" x="34" y="-7" font-family="Helvetica,sans-Serif" font-size="10.00">ionoModel</text>
</a>
</g>
</g>
<!-- Node1&#45;&gt;Node11 -->
<g id="edge2_Node000001_Node000011" class="edge">
<title>Node1&#45;&gt;Node11</title>
<g id="a_edge2_Node000001_Node000011"><a xlink:title=" ">
<path fill="none" stroke="#63b8ff" d="M93.67,-20.17C85.19,-18.63 76.34,-17.02 68.16,-15.53"/>
<polygon fill="#63b8ff" stroke="#63b8ff" points="93.29,-23.66 103.76,-22 94.55,-16.77 93.29,-23.66"/>
</a>
</g>
</g>
</g>
</svg>
