<?xml version="1.0" encoding="UTF-8" standalone="no"?>
<!DOCTYPE svg PUBLIC "-//W3C//DTD SVG 1.1//EN"
 "http://www.w3.org/Graphics/SVG/1.1/DTD/svg11.dtd">
<!-- Generated by graphviz version 2.43.0 (0)
 -->
<!-- Title: ionmodel Pages: 1 -->
<svg width="192pt" height="138pt"
 viewBox="0.00 0.00 192.00 138.00" xmlns="http://www.w3.org/2000/svg" xmlns:xlink="http://www.w3.org/1999/xlink">
<g id="graph0" class="graph" transform="scale(1 1) rotate(0) translate(4 134)">
<title>ionmodel</title>
<!-- Node1 -->
<g id="Node000001" class="node">
<title>Node1</title>
<g id="a_Node000001"><a xlink:href="ionModels_8cpp.html#a57191b4303a5b58e1a21fe08ab32538c" target="_top" xlink:title=" ">
<path fill="#fff0f0" stroke="red" stroke-width="2" d="M55.67,-74C55.67,-74 6.33,-74 6.33,-74 3.17,-74 0,-70.83 0,-67.67 0,-67.67 0,-61.33 0,-61.33 0,-58.17 3.17,-55 6.33,-55 6.33,-55 55.67,-55 55.67,-55 58.83,-55 62,-58.17 62,-61.33 62,-61.33 62,-67.67 62,-67.67 62,-70.83 58.83,-74 55.67,-74"/>
<text text-anchor="middle" x="31" y="-62" font-family="Helvetica,sans-Serif" font-size="10.00">ionmodel</text>
</a>
</g>
</g>
<!-- Node2 -->
<g id="Node000002" class="node">
<title>Node2</title>
<g id="a_Node000002"><a xlink:href="structVectorPos.html#a9517f77c95322d34dc896a88db4a804f" target="_top" xlink:title=" ">
<path fill="#fff0f0" stroke="red" d="M177.67,-130C177.67,-130 104.33,-130 104.33,-130 101.17,-130 98,-126.83 98,-123.67 98,-123.67 98,-117.33 98,-117.33 98,-114.17 101.17,-111 104.33,-111 104.33,-111 177.67,-111 177.67,-111 180.83,-111 184,-114.17 184,-117.33 184,-117.33 184,-123.67 184,-123.67 184,-126.83 180.83,-130 177.67,-130"/>
<text text-anchor="middle" x="141" y="-118" font-family="Helvetica,sans-Serif" font-size="10.00">VectorPos::hgt</text>
</a>
</g>
</g>
<!-- Node1&#45;&gt;Node2 -->
<g id="edge1_Node000001_Node000002" class="edge">
<title>Node1&#45;&gt;Node2</title>
<g id="a_edge1_Node000001_Node000002"><a xlink:title=" ">
<path fill="none" stroke="#63b8ff" d="M47.45,-74.09C60.65,-82.11 80.26,-93.63 98,-102.5 100.91,-103.95 103.96,-105.4 107.04,-106.82"/>
<polygon fill="#63b8ff" stroke="#63b8ff" points="105.67,-110.04 116.23,-110.89 108.51,-103.64 105.67,-110.04"/>
</a>
</g>
</g>
<!-- Node3 -->
<g id="Node000003" class="node">
<title>Node3</title>
<g id="a_Node000003"><a xlink:href="algebra__old_8cpp.html#abaa5d4a31df361116a9b2be552624cf9" target="_top" xlink:title=" ">
<path fill="#fff0f0" stroke="red" d="M155.67,-93C155.67,-93 126.33,-93 126.33,-93 123.17,-93 120,-89.83 120,-86.67 120,-86.67 120,-80.33 120,-80.33 120,-77.17 123.17,-74 126.33,-74 126.33,-74 155.67,-74 155.67,-74 158.83,-74 162,-77.17 162,-80.33 162,-80.33 162,-86.67 162,-86.67 162,-89.83 158.83,-93 155.67,-93"/>
<text text-anchor="middle" x="141" y="-81" font-family="Helvetica,sans-Serif" font-size="10.00">norm</text>
</a>
</g>
</g>
<!-- Node1&#45;&gt;Node3 -->
<g id="edge2_Node000001_Node000003" class="edge">
<title>Node1&#45;&gt;Node3</title>
<g id="a_edge2_Node000001_Node000003"><a xlink:title=" ">
<path fill="none" stroke="#63b8ff" d="M62.08,-69.79C76.95,-72.41 94.85,-75.56 109.74,-78.18"/>
<polygon fill="#63b8ff" stroke="#63b8ff" points="109.51,-81.69 119.96,-79.97 110.72,-74.8 109.51,-81.69"/>
</a>
</g>
</g>
<!-- Node5 -->
<g id="Node000005" class="node">
<title>Node5</title>
<g id="a_Node000005"><a xlink:href="structVectorPos.html#a63e862a389b3548bc5b4aedabd94540b" target="_top" xlink:title=" ">
<path fill="#fff0f0" stroke="red" d="M176.17,-56C176.17,-56 105.83,-56 105.83,-56 102.67,-56 99.5,-52.83 99.5,-49.67 99.5,-49.67 99.5,-43.33 99.5,-43.33 99.5,-40.17 102.67,-37 105.83,-37 105.83,-37 176.17,-37 176.17,-37 179.33,-37 182.5,-40.17 182.5,-43.33 182.5,-43.33 182.5,-49.67 182.5,-49.67 182.5,-52.83 179.33,-56 176.17,-56"/>
<text text-anchor="middle" x="141" y="-44" font-family="Helvetica,sans-Serif" font-size="10.00">VectorPos::lat</text>
</a>
</g>
</g>
<!-- Node1&#45;&gt;Node5 -->
<g id="edge3_Node000001_Node000005" class="edge">
<title>Node1&#45;&gt;Node5</title>
<g id="a_edge3_Node000001_Node000005"><a xlink:title=" ">
<path fill="none" stroke="#63b8ff" d="M62.08,-59.49C70.52,-58.08 79.93,-56.51 89.21,-54.97"/>
<polygon fill="#63b8ff" stroke="#63b8ff" points="89.89,-58.4 99.18,-53.3 88.74,-51.5 89.89,-58.4"/>
</a>
</g>
</g>
<!-- Node6 -->
<g id="Node000006" class="node">
<title>Node6</title>
<g id="a_Node000006"><a xlink:href="structVectorPos.html#ab7ade23bd200ec4145eb389b58737dee" target="_top" xlink:title=" ">
<path fill="#fff0f0" stroke="red" d="M177.67,-19C177.67,-19 104.33,-19 104.33,-19 101.17,-19 98,-15.83 98,-12.67 98,-12.67 98,-6.33 98,-6.33 98,-3.17 101.17,0 104.33,0 104.33,0 177.67,0 177.67,0 180.83,0 184,-3.17 184,-6.33 184,-6.33 184,-12.67 184,-12.67 184,-15.83 180.83,-19 177.67,-19"/>
<text text-anchor="middle" x="141" y="-7" font-family="Helvetica,sans-Serif" font-size="10.00">VectorPos::lon</text>
</a>
</g>
</g>
<!-- Node1&#45;&gt;Node6 -->
<g id="edge4_Node000001_Node000006" class="edge">
<title>Node1&#45;&gt;Node6</title>
<g id="a_edge4_Node000001_Node000006"><a xlink:title=" ">
<path fill="none" stroke="#63b8ff" d="M48.64,-54.98C61.87,-47.51 80.94,-37 98,-28.5 101.53,-26.74 105.25,-24.96 108.96,-23.23"/>
<polygon fill="#63b8ff" stroke="#63b8ff" points="110.43,-26.41 118.06,-19.06 107.51,-20.04 110.43,-26.41"/>
</a>
</g>
</g>
</g>
</svg>
