<?xml version="1.0" encoding="UTF-8" standalone="no"?>
<!DOCTYPE svg PUBLIC "-//W3C//DTD SVG 1.1//EN"
 "http://www.w3.org/Graphics/SVG/1.1/DTD/svg11.dtd">
<!-- Generated by graphviz version 2.43.0 (0)
 -->
<!-- Title: interpTec Pages: 1 -->
<svg width="210pt" height="101pt"
 viewBox="0.00 0.00 210.00 101.00" xmlns="http://www.w3.org/2000/svg" xmlns:xlink="http://www.w3.org/1999/xlink">
<g id="graph0" class="graph" transform="scale(1 1) rotate(0) translate(4 97)">
<title>interpTec</title>
<!-- Node1 -->
<g id="Node000001" class="node">
<title>Node1</title>
<g id="a_Node000001"><a xlink:href="ionModels_8cpp.html#a01fb4b3a1115f1db6ec700ecf9892e92" target="_top" xlink:title="interpolate tec grid data">
<path fill="#fff0f0" stroke="red" stroke-width="2" d="M54.67,-56C54.67,-56 6.33,-56 6.33,-56 3.17,-56 0,-52.83 0,-49.67 0,-49.67 0,-43.33 0,-43.33 0,-40.17 3.17,-37 6.33,-37 6.33,-37 54.67,-37 54.67,-37 57.83,-37 61,-40.17 61,-43.33 61,-43.33 61,-49.67 61,-49.67 61,-52.83 57.83,-56 54.67,-56"/>
<text text-anchor="middle" x="30.5" y="-44" font-family="Helvetica,sans-Serif" font-size="10.00">interpTec</text>
</a>
</g>
</g>
<!-- Node2 -->
<g id="Node000002" class="node">
<title>Node2</title>
<g id="a_Node000002"><a xlink:href="structVectorPos.html#ae607eb1f43de3cf1aaa024c2fdabc514" target="_top" xlink:title=" ">
<path fill="#fff0f0" stroke="red" d="M194.67,-93C194.67,-93 104.33,-93 104.33,-93 101.17,-93 98,-89.83 98,-86.67 98,-86.67 98,-80.33 98,-80.33 98,-77.17 101.17,-74 104.33,-74 104.33,-74 194.67,-74 194.67,-74 197.83,-74 201,-77.17 201,-80.33 201,-80.33 201,-86.67 201,-86.67 201,-89.83 197.83,-93 194.67,-93"/>
<text text-anchor="middle" x="149.5" y="-81" font-family="Helvetica,sans-Serif" font-size="10.00">VectorPos::latDeg</text>
</a>
</g>
</g>
<!-- Node1&#45;&gt;Node2 -->
<g id="edge1_Node000001_Node000002" class="edge">
<title>Node1&#45;&gt;Node2</title>
<g id="a_edge1_Node000001_Node000002"><a xlink:title=" ">
<path fill="none" stroke="#63b8ff" d="M61.02,-55.84C75.35,-60.37 92.78,-65.88 108.3,-70.79"/>
<polygon fill="#63b8ff" stroke="#63b8ff" points="107.58,-74.23 118.17,-73.91 109.69,-67.56 107.58,-74.23"/>
</a>
</g>
</g>
<!-- Node3 -->
<g id="Node000003" class="node">
<title>Node3</title>
<g id="a_Node000003"><a xlink:href="structVectorPos.html#aa693d5a52133cfb55040b768c6175bae" target="_top" xlink:title=" ">
<path fill="#fff0f0" stroke="red" d="M195.67,-56C195.67,-56 103.33,-56 103.33,-56 100.17,-56 97,-52.83 97,-49.67 97,-49.67 97,-43.33 97,-43.33 97,-40.17 100.17,-37 103.33,-37 103.33,-37 195.67,-37 195.67,-37 198.83,-37 202,-40.17 202,-43.33 202,-43.33 202,-49.67 202,-49.67 202,-52.83 198.83,-56 195.67,-56"/>
<text text-anchor="middle" x="149.5" y="-44" font-family="Helvetica,sans-Serif" font-size="10.00">VectorPos::lonDeg</text>
</a>
</g>
</g>
<!-- Node1&#45;&gt;Node3 -->
<g id="edge2_Node000001_Node000003" class="edge">
<title>Node1&#45;&gt;Node3</title>
<g id="a_edge2_Node000001_Node000003"><a xlink:title=" ">
<path fill="none" stroke="#63b8ff" d="M61.02,-46.5C68.89,-46.5 77.7,-46.5 86.61,-46.5"/>
<polygon fill="#63b8ff" stroke="#63b8ff" points="86.67,-50 96.67,-46.5 86.67,-43 86.67,-50"/>
</a>
</g>
</g>
<!-- Node4 -->
<g id="Node000004" class="node">
<title>Node4</title>
<g id="a_Node000004"><a xlink:href="ionex_8cpp.html#ad807b8edebc780f30d8c6ee46bb5640b" target="_top" xlink:title=" ">
<path fill="#fff0f0" stroke="red" d="M175.67,-19C175.67,-19 123.33,-19 123.33,-19 120.17,-19 117,-15.83 117,-12.67 117,-12.67 117,-6.33 117,-6.33 117,-3.17 120.17,0 123.33,0 123.33,0 175.67,0 175.67,0 178.83,0 182,-3.17 182,-6.33 182,-6.33 182,-12.67 182,-12.67 182,-15.83 178.83,-19 175.67,-19"/>
<text text-anchor="middle" x="149.5" y="-7" font-family="Helvetica,sans-Serif" font-size="10.00">dataindex</text>
</a>
</g>
</g>
<!-- Node1&#45;&gt;Node4 -->
<g id="edge3_Node000001_Node000004" class="edge">
<title>Node1&#45;&gt;Node4</title>
<g id="a_edge3_Node000001_Node000004"><a xlink:title=" ">
<path fill="none" stroke="#63b8ff" d="M61.02,-37.16C75.35,-32.63 92.78,-27.12 108.3,-22.21"/>
<polygon fill="#63b8ff" stroke="#63b8ff" points="109.69,-25.44 118.17,-19.09 107.58,-18.77 109.69,-25.44"/>
</a>
</g>
</g>
</g>
</svg>
