<?xml version="1.0" encoding="UTF-8" standalone="no"?>
<!DOCTYPE svg PUBLIC "-//W3C//DTD SVG 1.1//EN"
 "http://www.w3.org/Graphics/SVG/1.1/DTD/svg11.dtd">
<!-- Generated by graphviz version 2.43.0 (0)
 -->
<!-- Title: ionppp Pages: 1 -->
<svg width="180pt" height="64pt"
 viewBox="0.00 0.00 180.00 64.00" xmlns="http://www.w3.org/2000/svg" xmlns:xlink="http://www.w3.org/1999/xlink">
<g id="graph0" class="graph" transform="scale(1 1) rotate(0) translate(4 60)">
<title>ionppp</title>
<!-- Node1 -->
<g id="Node000001" class="node">
<title>Node1</title>
<g id="a_Node000001"><a xlink:href="ionModels_8cpp.html#ad21f16251002ad73463ac689903d5c91" target="_top" xlink:title=" ">
<path fill="#fff0f0" stroke="red" stroke-width="2" d="M43.67,-37C43.67,-37 6.33,-37 6.33,-37 3.17,-37 0,-33.83 0,-30.67 0,-30.67 0,-24.33 0,-24.33 0,-21.17 3.17,-18 6.33,-18 6.33,-18 43.67,-18 43.67,-18 46.83,-18 50,-21.17 50,-24.33 50,-24.33 50,-30.67 50,-30.67 50,-33.83 46.83,-37 43.67,-37"/>
<text text-anchor="middle" x="25" y="-25" font-family="Helvetica,sans-Serif" font-size="10.00">ionppp</text>
</a>
</g>
</g>
<!-- Node2 -->
<g id="Node000002" class="node">
<title>Node2</title>
<g id="a_Node000002"><a xlink:href="structVectorPos.html#a63e862a389b3548bc5b4aedabd94540b" target="_top" xlink:title=" ">
<path fill="#fff0f0" stroke="red" d="M164.17,-56C164.17,-56 93.83,-56 93.83,-56 90.67,-56 87.5,-52.83 87.5,-49.67 87.5,-49.67 87.5,-43.33 87.5,-43.33 87.5,-40.17 90.67,-37 93.83,-37 93.83,-37 164.17,-37 164.17,-37 167.33,-37 170.5,-40.17 170.5,-43.33 170.5,-43.33 170.5,-49.67 170.5,-49.67 170.5,-52.83 167.33,-56 164.17,-56"/>
<text text-anchor="middle" x="129" y="-44" font-family="Helvetica,sans-Serif" font-size="10.00">VectorPos::lat</text>
</a>
</g>
</g>
<!-- Node1&#45;&gt;Node2 -->
<g id="edge1_Node000001_Node000002" class="edge">
<title>Node1&#45;&gt;Node2</title>
<g id="a_edge1_Node000001_Node000002"><a xlink:title=" ">
<path fill="none" stroke="#63b8ff" d="M50.17,-26.16C64.15,-27.72 81.88,-30.88 96.89,-34.43"/>
<polygon fill="#63b8ff" stroke="#63b8ff" points="96.21,-37.87 106.77,-36.94 97.94,-31.09 96.21,-37.87"/>
</a>
</g>
</g>
<!-- Node1&#45;&gt;Node2 -->
<g id="edge2_Node000001_Node000002" class="edge">
<title>Node1&#45;&gt;Node2</title>
<g id="a_edge2_Node000001_Node000002"><a xlink:title=" ">
<path fill="none" stroke="#63b8ff" d="M47.13,-37.03C55.89,-39.43 66.46,-41.79 77.03,-43.75"/>
<polygon fill="#63b8ff" stroke="#63b8ff" points="76.65,-47.24 87.1,-45.51 77.85,-40.35 76.65,-47.24"/>
</a>
</g>
</g>
<!-- Node3 -->
<g id="Node000003" class="node">
<title>Node3</title>
<g id="a_Node000003"><a xlink:href="structVectorPos.html#ab7ade23bd200ec4145eb389b58737dee" target="_top" xlink:title=" ">
<path fill="#fff0f0" stroke="red" d="M165.67,-19C165.67,-19 92.33,-19 92.33,-19 89.17,-19 86,-15.83 86,-12.67 86,-12.67 86,-6.33 86,-6.33 86,-3.17 89.17,0 92.33,0 92.33,0 165.67,0 165.67,0 168.83,0 172,-3.17 172,-6.33 172,-6.33 172,-12.67 172,-12.67 172,-15.83 168.83,-19 165.67,-19"/>
<text text-anchor="middle" x="129" y="-7" font-family="Helvetica,sans-Serif" font-size="10.00">VectorPos::lon</text>
</a>
</g>
</g>
<!-- Node1&#45;&gt;Node3 -->
<g id="edge3_Node000001_Node000003" class="edge">
<title>Node1&#45;&gt;Node3</title>
<g id="a_edge3_Node000001_Node000003"><a xlink:title=" ">
<path fill="none" stroke="#63b8ff" d="M47.88,-17.98C56.22,-15.8 66.13,-13.69 76.08,-11.91"/>
<polygon fill="#63b8ff" stroke="#63b8ff" points="76.7,-15.36 85.99,-10.26 75.55,-8.45 76.7,-15.36"/>
</a>
</g>
</g>
<!-- Node1&#45;&gt;Node3 -->
<g id="edge4_Node000001_Node000003" class="edge">
<title>Node1&#45;&gt;Node3</title>
<g id="a_edge4_Node000001_Node000003"><a xlink:title=" ">
<path fill="none" stroke="#63b8ff" d="M50.17,-29.07C63.96,-27.67 81.4,-24.75 96.27,-21.4"/>
<polygon fill="#63b8ff" stroke="#63b8ff" points="97.19,-24.78 106.09,-19.03 95.54,-17.98 97.19,-24.78"/>
</a>
</g>
</g>
</g>
</svg>
