<?xml version="1.0" encoding="UTF-8" standalone="no"?>
<!DOCTYPE svg PUBLIC "-//W3C//DTD SVG 1.1//EN"
 "http://www.w3.org/Graphics/SVG/1.1/DTD/svg11.dtd">
<!-- Generated by graphviz version 2.43.0 (0)
 -->
<!-- Title: interpTec Pages: 1 -->
<svg width="165pt" height="27pt"
 viewBox="0.00 0.00 165.00 27.00" xmlns="http://www.w3.org/2000/svg" xmlns:xlink="http://www.w3.org/1999/xlink">
<g id="graph0" class="graph" transform="scale(1 1) rotate(0) translate(4 23)">
<title>interpTec</title>
<!-- Node1 -->
<g id="Node000001" class="node">
<title>Node1</title>
<g id="a_Node000001"><a xlink:href="ionModels_8cpp.html#a01fb4b3a1115f1db6ec700ecf9892e92" target="_top" xlink:title="interpolate tec grid data">
<path fill="#fff0f0" stroke="red" stroke-width="2" d="M150.67,-19C150.67,-19 102.33,-19 102.33,-19 99.17,-19 96,-15.83 96,-12.67 96,-12.67 96,-6.33 96,-6.33 96,-3.17 99.17,0 102.33,0 102.33,0 150.67,0 150.67,0 153.83,0 157,-3.17 157,-6.33 157,-6.33 157,-12.67 157,-12.67 157,-15.83 153.83,-19 150.67,-19"/>
<text text-anchor="middle" x="126.5" y="-7" font-family="Helvetica,sans-Serif" font-size="10.00">interpTec</text>
</a>
</g>
</g>
<!-- Node2 -->
<g id="Node000002" class="node">
<title>Node2</title>
<g id="a_Node000002"><a xlink:href="ionModels_8cpp.html#ac710c3403fa3ab56615703575b8c3810" target="_top" xlink:title="ionosphere delay by tec grid data">
<path fill="#fff0f0" stroke="red" d="M53.67,-19C53.67,-19 6.33,-19 6.33,-19 3.17,-19 0,-15.83 0,-12.67 0,-12.67 0,-6.33 0,-6.33 0,-3.17 3.17,0 6.33,0 6.33,0 53.67,0 53.67,0 56.83,0 60,-3.17 60,-6.33 60,-6.33 60,-12.67 60,-12.67 60,-15.83 56.83,-19 53.67,-19"/>
<text text-anchor="middle" x="30" y="-7" font-family="Helvetica,sans-Serif" font-size="10.00">ionDelay</text>
</a>
</g>
</g>
<!-- Node1&#45;&gt;Node2 -->
<g id="edge1_Node000001_Node000002" class="edge">
<title>Node1&#45;&gt;Node2</title>
<g id="a_edge1_Node000001_Node000002"><a xlink:title=" ">
<path fill="none" stroke="#63b8ff" d="M85.68,-9.5C77.14,-9.5 68.26,-9.5 60.21,-9.5"/>
<polygon fill="#63b8ff" stroke="#63b8ff" points="85.86,-13 95.86,-9.5 85.86,-6 85.86,-13"/>
</a>
</g>
</g>
</g>
</svg>
