<?xml version="1.0" encoding="UTF-8" standalone="no"?>
<!DOCTYPE svg PUBLIC "-//W3C//DTD SVG 1.1//EN"
 "http://www.w3.org/Graphics/SVG/1.1/DTD/svg11.dtd">
<!-- Generated by graphviz version 2.43.0 (0)
 -->
<!-- Title: bisection Pages: 1 -->
<svg width="210pt" height="64pt"
 viewBox="0.00 0.00 210.00 64.00" xmlns="http://www.w3.org/2000/svg" xmlns:xlink="http://www.w3.org/1999/xlink">
<g id="graph0" class="graph" transform="scale(1 1) rotate(0) translate(4 60)">
<title>bisection</title>
<!-- Node1 -->
<g id="Node000001" class="node">
<title>Node1</title>
<g id="a_Node000001"><a xlink:href="ionoSphericalCaps_8cpp.html#aeae450fade955270a49bb037102ae974" target="_top" xlink:title=" ">
<path fill="#fff0f0" stroke="red" stroke-width="2" d="M54.67,-37C54.67,-37 6.33,-37 6.33,-37 3.17,-37 0,-33.83 0,-30.67 0,-30.67 0,-24.33 0,-24.33 0,-21.17 3.17,-18 6.33,-18 6.33,-18 54.67,-18 54.67,-18 57.83,-18 61,-21.17 61,-24.33 61,-24.33 61,-30.67 61,-30.67 61,-33.83 57.83,-37 54.67,-37"/>
<text text-anchor="middle" x="30.5" y="-25" font-family="Helvetica,sans-Serif" font-size="10.00">bisection</text>
</a>
</g>
</g>
<!-- Node2 -->
<g id="Node000002" class="node">
<title>Node2</title>
<g id="a_Node000002"><a xlink:href="ionoSphericalCaps_8cpp.html#a704ddd2715658506643c09ff2ec2918a" target="_top" xlink:title=" ">
<path fill="#fff0f0" stroke="red" d="M195.67,-56C195.67,-56 103.33,-56 103.33,-56 100.17,-56 97,-52.83 97,-49.67 97,-49.67 97,-43.33 97,-43.33 97,-40.17 100.17,-37 103.33,-37 103.33,-37 195.67,-37 195.67,-37 198.83,-37 202,-40.17 202,-43.33 202,-43.33 202,-49.67 202,-49.67 202,-52.83 198.83,-56 195.67,-56"/>
<text text-anchor="middle" x="149.5" y="-44" font-family="Helvetica,sans-Serif" font-size="10.00">legendre_derivatv</text>
</a>
</g>
</g>
<!-- Node1&#45;&gt;Node2 -->
<g id="edge1_Node000001_Node000002" class="edge">
<title>Node1&#45;&gt;Node2</title>
<g id="a_edge1_Node000001_Node000002"><a xlink:title=" ">
<path fill="none" stroke="#63b8ff" d="M61.02,-26.34C77.17,-28 97.25,-31.17 114.11,-34.7"/>
<polygon fill="#63b8ff" stroke="#63b8ff" points="113.59,-38.17 124.12,-36.94 115.12,-31.34 113.59,-38.17"/>
</a>
</g>
</g>
<!-- Node1&#45;&gt;Node2 -->
<g id="edge2_Node000001_Node000002" class="edge">
<title>Node1&#45;&gt;Node2</title>
<g id="a_edge2_Node000001_Node000002"><a xlink:title=" ">
<path fill="none" stroke="#63b8ff" d="M55.74,-37.03C64.86,-39.21 75.7,-41.35 86.7,-43.2"/>
<polygon fill="#63b8ff" stroke="#63b8ff" points="86.36,-46.7 96.79,-44.81 87.47,-39.78 86.36,-46.7"/>
</a>
</g>
</g>
<!-- Node3 -->
<g id="Node000003" class="node">
<title>Node3</title>
<g id="a_Node000003"><a xlink:href="ionoSphericalCaps_8cpp.html#af477ddd9f2fb1146ce390c17b7f60ed8" target="_top" xlink:title=" ">
<path fill="#fff0f0" stroke="red" d="M195.17,-19C195.17,-19 103.83,-19 103.83,-19 100.67,-19 97.5,-15.83 97.5,-12.67 97.5,-12.67 97.5,-6.33 97.5,-6.33 97.5,-3.17 100.67,0 103.83,0 103.83,0 195.17,0 195.17,0 198.33,0 201.5,-3.17 201.5,-6.33 201.5,-6.33 201.5,-12.67 201.5,-12.67 201.5,-15.83 198.33,-19 195.17,-19"/>
<text text-anchor="middle" x="149.5" y="-7" font-family="Helvetica,sans-Serif" font-size="10.00">legendre_function</text>
</a>
</g>
</g>
<!-- Node1&#45;&gt;Node3 -->
<g id="edge3_Node000001_Node000003" class="edge">
<title>Node1&#45;&gt;Node3</title>
<g id="a_edge3_Node000001_Node000003"><a xlink:title=" ">
<path fill="none" stroke="#63b8ff" d="M56.6,-17.98C65.75,-15.9 76.54,-13.88 87.45,-12.15"/>
<polygon fill="#63b8ff" stroke="#63b8ff" points="88.08,-15.59 97.46,-10.65 87.05,-8.67 88.08,-15.59"/>
</a>
</g>
</g>
<!-- Node1&#45;&gt;Node3 -->
<g id="edge4_Node000001_Node000003" class="edge">
<title>Node1&#45;&gt;Node3</title>
<g id="a_edge4_Node000001_Node000003"><a xlink:title=" ">
<path fill="none" stroke="#63b8ff" d="M61.02,-28.91C76.95,-27.42 96.7,-24.47 113.4,-21.14"/>
<polygon fill="#63b8ff" stroke="#63b8ff" points="114.29,-24.53 123.35,-19.03 112.84,-17.69 114.29,-24.53"/>
</a>
</g>
</g>
</g>
</svg>
