<?xml version="1.0" encoding="UTF-8" standalone="no"?>
<!DOCTYPE svg PUBLIC "-//W3C//DTD SVG 1.1//EN"
 "http://www.w3.org/Graphics/SVG/1.1/DTD/svg11.dtd">
<!-- Generated by graphviz version 2.43.0 (0)
 -->
<!-- Title: legendre_derivatv Pages: 1 -->
<svg width="372pt" height="46pt"
 viewBox="0.00 0.00 372.00 46.00" xmlns="http://www.w3.org/2000/svg" xmlns:xlink="http://www.w3.org/1999/xlink">
<g id="graph0" class="graph" transform="scale(1 1) rotate(0) translate(4 42)">
<title>legendre_derivatv</title>
<!-- Node1 -->
<g id="Node000001" class="node">
<title>Node1</title>
<g id="a_Node000001"><a xlink:href="ionoSphericalCaps_8cpp.html#a704ddd2715658506643c09ff2ec2918a" target="_top" xlink:title=" ">
<path fill="#fff0f0" stroke="red" stroke-width="2" d="M357.67,-19C357.67,-19 265.33,-19 265.33,-19 262.17,-19 259,-15.83 259,-12.67 259,-12.67 259,-6.33 259,-6.33 259,-3.17 262.17,0 265.33,0 265.33,0 357.67,0 357.67,0 360.83,0 364,-3.17 364,-6.33 364,-6.33 364,-12.67 364,-12.67 364,-15.83 360.83,-19 357.67,-19"/>
<text text-anchor="middle" x="311.5" y="-7" font-family="Helvetica,sans-Serif" font-size="10.00">legendre_derivatv</text>
</a>
</g>
</g>
<!-- Node2 -->
<g id="Node000002" class="node">
<title>Node2</title>
<g id="a_Node000002"><a xlink:href="ionoSphericalCaps_8cpp.html#aeae450fade955270a49bb037102ae974" target="_top" xlink:title=" ">
<path fill="#fff0f0" stroke="red" d="M216.67,-38C216.67,-38 168.33,-38 168.33,-38 165.17,-38 162,-34.83 162,-31.67 162,-31.67 162,-25.33 162,-25.33 162,-22.17 165.17,-19 168.33,-19 168.33,-19 216.67,-19 216.67,-19 219.83,-19 223,-22.17 223,-25.33 223,-25.33 223,-31.67 223,-31.67 223,-34.83 219.83,-38 216.67,-38"/>
<text text-anchor="middle" x="192.5" y="-26" font-family="Helvetica,sans-Serif" font-size="10.00">bisection</text>
</a>
</g>
</g>
<!-- Node1&#45;&gt;Node2 -->
<g id="edge1_Node000001_Node000002" class="edge">
<title>Node1&#45;&gt;Node2</title>
<g id="a_edge1_Node000001_Node000002"><a xlink:title=" ">
<path fill="none" stroke="#63b8ff" d="M248.75,-19.53C239.81,-20.98 230.98,-22.41 223.08,-23.7"/>
<polygon fill="#63b8ff" stroke="#63b8ff" points="249.53,-22.95 258.84,-17.89 248.41,-16.04 249.53,-22.95"/>
</a>
</g>
</g>
<!-- Node3 -->
<g id="Node000003" class="node">
<title>Node3</title>
<g id="a_Node000003"><a xlink:href="ionoSphericalCaps_8cpp.html#afee256473acb6fee42628c1622dca224" target="_top" xlink:title="Initializes Spherical caps Ionosphere model The following configursation parameters are used.">
<path fill="#fff0f0" stroke="red" d="M119.67,-19C119.67,-19 6.33,-19 6.33,-19 3.17,-19 0,-15.83 0,-12.67 0,-12.67 0,-6.33 0,-6.33 0,-3.17 3.17,0 6.33,0 6.33,0 119.67,0 119.67,0 122.83,0 126,-3.17 126,-6.33 126,-6.33 126,-12.67 126,-12.67 126,-15.83 122.83,-19 119.67,-19"/>
<text text-anchor="middle" x="63" y="-7" font-family="Helvetica,sans-Serif" font-size="10.00">configIonModelSphcap</text>
</a>
</g>
</g>
<!-- Node1&#45;&gt;Node3 -->
<g id="edge3_Node000001_Node000003" class="edge">
<title>Node1&#45;&gt;Node3</title>
<g id="a_edge3_Node000001_Node000003"><a xlink:title=" ">
<path fill="none" stroke="#63b8ff" d="M248.55,-9.5C211.11,-9.5 163.54,-9.5 126.08,-9.5"/>
<polygon fill="#63b8ff" stroke="#63b8ff" points="248.83,-13 258.83,-9.5 248.83,-6 248.83,-13"/>
</a>
</g>
</g>
<!-- Node2&#45;&gt;Node3 -->
<g id="edge2_Node000002_Node000003" class="edge">
<title>Node2&#45;&gt;Node3</title>
<g id="a_edge2_Node000002_Node000003"><a xlink:title=" ">
<path fill="none" stroke="#63b8ff" d="M151.93,-22.6C143.73,-21.38 134.9,-20.07 126.12,-18.76"/>
<polygon fill="#63b8ff" stroke="#63b8ff" points="151.52,-26.08 161.93,-24.09 152.55,-19.16 151.52,-26.08"/>
</a>
</g>
</g>
</g>
</svg>
