<?xml version="1.0" encoding="UTF-8" standalone="no"?>
<!DOCTYPE svg PUBLIC "-//W3C//DTD SVG 1.1//EN"
 "http://www.w3.org/Graphics/SVG/1.1/DTD/svg11.dtd">
<!-- Generated by graphviz version 2.43.0 (0)
 -->
<!-- Title: ionCoefSphcap Pages: 1 -->
<svg width="237pt" height="27pt"
 viewBox="0.00 0.00 237.00 27.00" xmlns="http://www.w3.org/2000/svg" xmlns:xlink="http://www.w3.org/1999/xlink">
<g id="graph0" class="graph" transform="scale(1 1) rotate(0) translate(4 23)">
<title>ionCoefSphcap</title>
<!-- Node1 -->
<g id="Node000001" class="node">
<title>Node1</title>
<g id="a_Node000001"><a xlink:href="ionoSphericalCaps_8cpp.html#ad60c18efacdc8835040dc2758dd0f7e1" target="_top" xlink:title="Evaluates spherical cap harmonics basis functions int ind I Basis function number obs I Ionosphere me...">
<path fill="#fff0f0" stroke="red" stroke-width="2" d="M82.67,-19C82.67,-19 6.33,-19 6.33,-19 3.17,-19 0,-15.83 0,-12.67 0,-12.67 0,-6.33 0,-6.33 0,-3.17 3.17,0 6.33,0 6.33,0 82.67,0 82.67,0 85.83,0 89,-3.17 89,-6.33 89,-6.33 89,-12.67 89,-12.67 89,-15.83 85.83,-19 82.67,-19"/>
<text text-anchor="middle" x="44.5" y="-7" font-family="Helvetica,sans-Serif" font-size="10.00">ionCoefSphcap</text>
</a>
</g>
</g>
<!-- Node2 -->
<g id="Node000002" class="node">
<title>Node2</title>
<g id="a_Node000002"><a xlink:href="ionoSphericalCaps_8cpp.html#af477ddd9f2fb1146ce390c17b7f60ed8" target="_top" xlink:title=" ">
<path fill="#fff0f0" stroke="red" d="M222.67,-19C222.67,-19 131.33,-19 131.33,-19 128.17,-19 125,-15.83 125,-12.67 125,-12.67 125,-6.33 125,-6.33 125,-3.17 128.17,0 131.33,0 131.33,0 222.67,0 222.67,0 225.83,0 229,-3.17 229,-6.33 229,-6.33 229,-12.67 229,-12.67 229,-15.83 225.83,-19 222.67,-19"/>
<text text-anchor="middle" x="177" y="-7" font-family="Helvetica,sans-Serif" font-size="10.00">legendre_function</text>
</a>
</g>
</g>
<!-- Node1&#45;&gt;Node2 -->
<g id="edge1_Node000001_Node000002" class="edge">
<title>Node1&#45;&gt;Node2</title>
<g id="a_edge1_Node000001_Node000002"><a xlink:title=" ">
<path fill="none" stroke="#63b8ff" d="M89.32,-9.5C97.51,-9.5 106.22,-9.5 114.83,-9.5"/>
<polygon fill="#63b8ff" stroke="#63b8ff" points="114.85,-13 124.85,-9.5 114.85,-6 114.85,-13"/>
</a>
</g>
</g>
</g>
</svg>
