<?xml version="1.0" encoding="UTF-8" standalone="no"?>
<!DOCTYPE svg PUBLIC "-//W3C//DTD SVG 1.1//EN"
 "http://www.w3.org/Graphics/SVG/1.1/DTD/svg11.dtd">
<!-- Generated by graphviz version 2.43.0 (0)
 -->
<!-- Title: writeIonStec Pages: 1 -->
<svg width="275pt" height="76pt"
 viewBox="0.00 0.00 275.00 75.50" xmlns="http://www.w3.org/2000/svg" xmlns:xlink="http://www.w3.org/1999/xlink">
<g id="graph0" class="graph" transform="scale(1 1) rotate(0) translate(4 71.5)">
<title>writeIonStec</title>
<!-- Node1 -->
<g id="Node000001" class="node">
<title>Node1</title>
<g id="a_Node000001"><a xlink:href="ionoMeas_8cpp.html#ae9c0cc10cf38de05ca01a55f8c8efd06" target="_top" xlink:title=" ">
<path fill="#fff0f0" stroke="red" stroke-width="2" d="M260.67,-40C260.67,-40 196.33,-40 196.33,-40 193.17,-40 190,-36.83 190,-33.67 190,-33.67 190,-27.33 190,-27.33 190,-24.17 193.17,-21 196.33,-21 196.33,-21 260.67,-21 260.67,-21 263.83,-21 267,-24.17 267,-27.33 267,-27.33 267,-33.67 267,-33.67 267,-36.83 263.83,-40 260.67,-40"/>
<text text-anchor="middle" x="228.5" y="-28" font-family="Helvetica,sans-Serif" font-size="10.00">writeIonStec</text>
</a>
</g>
</g>
<!-- Node2 -->
<g id="Node000002" class="node">
<title>Node2</title>
<g id="a_Node000002"><a xlink:href="outputs_8cpp.html#ab72aaa4a378c8714b6de17cc45e9314c" target="_top" xlink:title=" ">
<path fill="#fff0f0" stroke="red" d="M144,-67.5C144,-67.5 10,-67.5 10,-67.5 5,-67.5 0,-62.5 0,-57.5 0,-57.5 0,-47.5 0,-47.5 0,-42.5 5,-37.5 10,-37.5 10,-37.5 144,-37.5 144,-37.5 149,-37.5 154,-42.5 154,-47.5 154,-47.5 154,-57.5 154,-57.5 154,-62.5 149,-67.5 144,-67.5"/>
<text text-anchor="start" x="8" y="-55.5" font-family="Helvetica,sans-Serif" font-size="10.00">perEpochPostProcessingAnd</text>
<text text-anchor="middle" x="77" y="-44.5" font-family="Helvetica,sans-Serif" font-size="10.00">Outputs</text>
</a>
</g>
</g>
<!-- Node1&#45;&gt;Node2 -->
<g id="edge1_Node000001_Node000002" class="edge">
<title>Node1&#45;&gt;Node2</title>
<g id="a_edge1_Node000001_Node000002"><a xlink:title=" ">
<path fill="none" stroke="#63b8ff" d="M179.73,-37.53C171.57,-38.73 162.9,-40.01 154.21,-41.28"/>
<polygon fill="#63b8ff" stroke="#63b8ff" points="180.39,-40.97 189.77,-36.05 179.37,-34.04 180.39,-40.97"/>
</a>
</g>
</g>
<!-- Node5 -->
<g id="Node000005" class="node">
<title>Node5</title>
<g id="a_Node000005"><a xlink:href="rtsSmoothing_8cpp.html#a65cd5f94ab58227ab032b1e894ca3987" target="_top" xlink:title=" ">
<path fill="#fff0f0" stroke="red" d="M116.67,-19C116.67,-19 37.33,-19 37.33,-19 34.17,-19 31,-15.83 31,-12.67 31,-12.67 31,-6.33 31,-6.33 31,-3.17 34.17,0 37.33,0 37.33,0 116.67,0 116.67,0 119.83,0 123,-3.17 123,-6.33 123,-6.33 123,-12.67 123,-12.67 123,-15.83 119.83,-19 116.67,-19"/>
<text text-anchor="middle" x="77" y="-7" font-family="Helvetica,sans-Serif" font-size="10.00">postRTSActions</text>
</a>
</g>
</g>
<!-- Node1&#45;&gt;Node5 -->
<g id="edge2_Node000001_Node000005" class="edge">
<title>Node1&#45;&gt;Node5</title>
<g id="a_edge2_Node000001_Node000005"><a xlink:title=" ">
<path fill="none" stroke="#63b8ff" d="M179.71,-23.79C161.6,-21.24 141.04,-18.36 123.17,-15.85"/>
<polygon fill="#63b8ff" stroke="#63b8ff" points="179.39,-27.28 189.77,-25.2 180.36,-20.34 179.39,-27.28"/>
</a>
</g>
</g>
</g>
</svg>
