<?xml version="1.0" encoding="UTF-8" standalone="no"?>
<!DOCTYPE svg PUBLIC "-//W3C//DTD SVG 1.1//EN"
 "http://www.w3.org/Graphics/SVG/1.1/DTD/svg11.dtd">
<!-- Generated by graphviz version 2.43.0 (0)
 -->
<!-- Title: ionOutputLocal Pages: 1 -->
<svg width="250pt" height="45pt"
 viewBox="0.00 0.00 250.00 45.00" xmlns="http://www.w3.org/2000/svg" xmlns:xlink="http://www.w3.org/1999/xlink">
<g id="graph0" class="graph" transform="scale(1 1) rotate(0) translate(4 41)">
<title>ionOutputLocal</title>
<!-- Node1 -->
<g id="Node000001" class="node">
<title>Node1</title>
<g id="a_Node000001"><a xlink:href="ionoLocalSTEC_8cpp.html#a3cbf18fb13afe8f7b3787785d9a13f64" target="_top" xlink:title=" ">
<path fill="#fff0f0" stroke="red" stroke-width="2" d="M83.67,-19C83.67,-19 6.33,-19 6.33,-19 3.17,-19 0,-15.83 0,-12.67 0,-12.67 0,-6.33 0,-6.33 0,-3.17 3.17,0 6.33,0 6.33,0 83.67,0 83.67,0 86.83,0 90,-3.17 90,-6.33 90,-6.33 90,-12.67 90,-12.67 90,-15.83 86.83,-19 83.67,-19"/>
<text text-anchor="middle" x="45" y="-7" font-family="Helvetica,sans-Serif" font-size="10.00">ionOutputLocal</text>
</a>
</g>
</g>
<!-- Node2 -->
<g id="Node000002" class="node">
<title>Node2</title>
<g id="a_Node000002"><a xlink:href="structKFState.html#aeca6e3874ad0c94607152d244016582f" target="_top" xlink:title="Returns the value and variance of a state within the kalman filter object.">
<path fill="#fff0f0" stroke="red" d="M235.67,-19C235.67,-19 132.33,-19 132.33,-19 129.17,-19 126,-15.83 126,-12.67 126,-12.67 126,-6.33 126,-6.33 126,-3.17 129.17,0 132.33,0 132.33,0 235.67,0 235.67,0 238.83,0 242,-3.17 242,-6.33 242,-6.33 242,-12.67 242,-12.67 242,-15.83 238.83,-19 235.67,-19"/>
<text text-anchor="middle" x="184" y="-7" font-family="Helvetica,sans-Serif" font-size="10.00">KFState::getKFValue</text>
</a>
</g>
</g>
<!-- Node1&#45;&gt;Node2 -->
<g id="edge1_Node000001_Node000002" class="edge">
<title>Node1&#45;&gt;Node2</title>
<g id="a_edge1_Node000001_Node000002"><a xlink:title=" ">
<path fill="none" stroke="#63b8ff" d="M90.1,-3.15C98.31,-2.87 107.06,-2.74 115.77,-2.75"/>
<polygon fill="#63b8ff" stroke="#63b8ff" points="115.93,-6.25 125.96,-2.83 115.99,0.75 115.93,-6.25"/>
</a>
</g>
</g>
<!-- Node1&#45;&gt;Node2 -->
<g id="edge3_Node000001_Node000002" class="edge">
<title>Node1&#45;&gt;Node2</title>
<g id="a_edge3_Node000001_Node000002"><a xlink:title=" ">
<path fill="none" stroke="#63b8ff" d="M90.1,-15.85C98.31,-16.13 107.06,-16.26 115.77,-16.25"/>
<polygon fill="#63b8ff" stroke="#63b8ff" points="115.99,-19.75 125.96,-16.17 115.93,-12.75 115.99,-19.75"/>
</a>
</g>
</g>
<!-- Node2&#45;&gt;Node2 -->
<g id="edge2_Node000002_Node000002" class="edge">
<title>Node2&#45;&gt;Node2</title>
<g id="a_edge2_Node000002_Node000002"><a xlink:title=" ">
<path fill="none" stroke="#63b8ff" d="M162.73,-19.08C152.38,-27.73 159.47,-37 184,-37 199.71,-37 208.27,-33.2 209.67,-28.19"/>
<polygon fill="#63b8ff" stroke="#63b8ff" points="212.77,-26.56 205.27,-19.08 206.47,-29.61 212.77,-26.56"/>
</a>
</g>
</g>
</g>
</svg>
