<?xml version="1.0" encoding="UTF-8" standalone="no"?>
<!DOCTYPE svg PUBLIC "-//W3C//DTD SVG 1.1//EN"
 "http://www.w3.org/Graphics/SVG/1.1/DTD/svg11.dtd">
<!-- Generated by graphviz version 2.43.0 (0)
 -->
<!-- Title: ippInRange Pages: 1 -->
<svg width="193pt" height="27pt"
 viewBox="0.00 0.00 193.00 27.00" xmlns="http://www.w3.org/2000/svg" xmlns:xlink="http://www.w3.org/1999/xlink">
<g id="graph0" class="graph" transform="scale(1 1) rotate(0) translate(4 23)">
<title>ippInRange</title>
<!-- Node1 -->
<g id="Node000001" class="node">
<title>Node1</title>
<g id="a_Node000001"><a xlink:href="ionoMeas_8cpp.html#aaa78d117a09d3be383cccb2ba2a56df5" target="_top" xlink:title=" ">
<path fill="#fff0f0" stroke="red" stroke-width="2" d="M178.67,-19C178.67,-19 120.33,-19 120.33,-19 117.17,-19 114,-15.83 114,-12.67 114,-12.67 114,-6.33 114,-6.33 114,-3.17 117.17,0 120.33,0 120.33,0 178.67,0 178.67,0 181.83,0 185,-3.17 185,-6.33 185,-6.33 185,-12.67 185,-12.67 185,-15.83 181.83,-19 178.67,-19"/>
<text text-anchor="middle" x="149.5" y="-7" font-family="Helvetica,sans-Serif" font-size="10.00">ippInRange</text>
</a>
</g>
</g>
<!-- Node2 -->
<g id="Node000002" class="node">
<title>Node2</title>
<g id="a_Node000002"><a xlink:href="ionoMeas_8cpp.html#ab3f111d5e6d66de4751fbce467a29372" target="_top" xlink:title=" ">
<path fill="#fff0f0" stroke="red" d="M71.67,-19C71.67,-19 6.33,-19 6.33,-19 3.17,-19 0,-15.83 0,-12.67 0,-12.67 0,-6.33 0,-6.33 0,-3.17 3.17,0 6.33,0 6.33,0 71.67,0 71.67,0 74.83,0 78,-3.17 78,-6.33 78,-6.33 78,-12.67 78,-12.67 78,-15.83 74.83,-19 71.67,-19"/>
<text text-anchor="middle" x="39" y="-7" font-family="Helvetica,sans-Serif" font-size="10.00">obsIonoData</text>
</a>
</g>
</g>
<!-- Node1&#45;&gt;Node2 -->
<g id="edge1_Node000001_Node000002" class="edge">
<title>Node1&#45;&gt;Node2</title>
<g id="a_edge1_Node000001_Node000002"><a xlink:title=" ">
<path fill="none" stroke="#63b8ff" d="M103.7,-9.5C95.18,-9.5 86.34,-9.5 78.06,-9.5"/>
<polygon fill="#63b8ff" stroke="#63b8ff" points="103.87,-13 113.87,-9.5 103.87,-6 103.87,-13"/>
</a>
</g>
</g>
</g>
</svg>
