<?xml version="1.0" encoding="UTF-8" standalone="no"?>
<!DOCTYPE svg PUBLIC "-//W3C//DTD SVG 1.1//EN"
 "http://www.w3.org/Graphics/SVG/1.1/DTD/svg11.dtd">
<!-- Generated by graphviz version 2.43.0 (0)
 -->
<!-- Title: ionVtecSphhar Pages: 1 -->
<svg width="184pt" height="27pt"
 viewBox="0.00 0.00 184.00 27.00" xmlns="http://www.w3.org/2000/svg" xmlns:xlink="http://www.w3.org/1999/xlink">
<g id="graph0" class="graph" transform="scale(1 1) rotate(0) translate(4 23)">
<title>ionVtecSphhar</title>
<!-- Node1 -->
<g id="Node000001" class="node">
<title>Node1</title>
<g id="a_Node000001"><a xlink:href="ionoSpherical_8cpp.html#a1b1dbb6c22bf410390abb588c45f310f" target="_top" xlink:title="Estimate Ionosphere VTEC using Spherical Cap Harmonic models gtime_t time I time of solutions (not us...">
<path fill="#fff0f0" stroke="red" stroke-width="2" d="M169.67,-19C169.67,-19 95.33,-19 95.33,-19 92.17,-19 89,-15.83 89,-12.67 89,-12.67 89,-6.33 89,-6.33 89,-3.17 92.17,0 95.33,0 95.33,0 169.67,0 169.67,0 172.83,0 176,-3.17 176,-6.33 176,-6.33 176,-12.67 176,-12.67 176,-15.83 172.83,-19 169.67,-19"/>
<text text-anchor="middle" x="132.5" y="-7" font-family="Helvetica,sans-Serif" font-size="10.00">ionVtecSphhar</text>
</a>
</g>
</g>
<!-- Node2 -->
<g id="Node000002" class="node">
<title>Node2</title>
<g id="a_Node000002"><a xlink:href="ionexWrite_8cpp.html#ac3c97fb931e1156280bb1e6b22b34174" target="_top" xlink:title=" ">
<path fill="#fff0f0" stroke="red" d="M46.67,-19C46.67,-19 6.33,-19 6.33,-19 3.17,-19 0,-15.83 0,-12.67 0,-12.67 0,-6.33 0,-6.33 0,-3.17 3.17,0 6.33,0 6.33,0 46.67,0 46.67,0 49.83,0 53,-3.17 53,-6.33 53,-6.33 53,-12.67 53,-12.67 53,-15.83 49.83,-19 46.67,-19"/>
<text text-anchor="middle" x="26.5" y="-7" font-family="Helvetica,sans-Serif" font-size="10.00">ionVtec</text>
</a>
</g>
</g>
<!-- Node1&#45;&gt;Node2 -->
<g id="edge1_Node000001_Node000002" class="edge">
<title>Node1&#45;&gt;Node2</title>
<g id="a_edge1_Node000001_Node000002"><a xlink:title=" ">
<path fill="none" stroke="#63b8ff" d="M78.86,-9.5C69.92,-9.5 61.02,-9.5 53.19,-9.5"/>
<polygon fill="#63b8ff" stroke="#63b8ff" points="78.9,-13 88.9,-9.5 78.9,-6 78.9,-13"/>
</a>
</g>
</g>
</g>
</svg>
