<?xml version="1.0" encoding="UTF-8" standalone="no"?>
<!DOCTYPE svg PUBLIC "-//W3C//DTD SVG 1.1//EN"
 "http://www.w3.org/Graphics/SVG/1.1/DTD/svg11.dtd">
<!-- Generated by graphviz version 2.43.0 (0)
 -->
<!-- Title: configIonModelSphhar Pages: 1 -->
<svg width="260pt" height="64pt"
 viewBox="0.00 0.00 260.00 64.00" xmlns="http://www.w3.org/2000/svg" xmlns:xlink="http://www.w3.org/1999/xlink">
<g id="graph0" class="graph" transform="scale(1 1) rotate(0) translate(4 60)">
<title>configIonModelSphhar</title>
<!-- Node1 -->
<g id="Node000001" class="node">
<title>Node1</title>
<g id="a_Node000001"><a xlink:href="ionoSpherical_8cpp.html#a4a53e2c2efbd68f38326d2203c00cb72" target="_top" xlink:title="configures the spherical harmonics model.">
<path fill="#fff0f0" stroke="red" stroke-width="2" d="M245.67,-37C245.67,-37 133.33,-37 133.33,-37 130.17,-37 127,-33.83 127,-30.67 127,-30.67 127,-24.33 127,-24.33 127,-21.17 130.17,-18 133.33,-18 133.33,-18 245.67,-18 245.67,-18 248.83,-18 252,-21.17 252,-24.33 252,-24.33 252,-30.67 252,-30.67 252,-33.83 248.83,-37 245.67,-37"/>
<text text-anchor="middle" x="189.5" y="-25" font-family="Helvetica,sans-Serif" font-size="10.00">configIonModelSphhar</text>
</a>
</g>
</g>
<!-- Node2 -->
<g id="Node000002" class="node">
<title>Node2</title>
<g id="a_Node000002"><a xlink:href="ionoModel_8cpp.html#ad4f7bf2fa0a4a8e87b6f7edf86fc119b" target="_top" xlink:title=" ">
<path fill="#fff0f0" stroke="red" d="M84.67,-56C84.67,-56 6.33,-56 6.33,-56 3.17,-56 0,-52.83 0,-49.67 0,-49.67 0,-43.33 0,-43.33 0,-40.17 3.17,-37 6.33,-37 6.33,-37 84.67,-37 84.67,-37 87.83,-37 91,-40.17 91,-43.33 91,-43.33 91,-49.67 91,-49.67 91,-52.83 87.83,-56 84.67,-56"/>
<text text-anchor="middle" x="45.5" y="-44" font-family="Helvetica,sans-Serif" font-size="10.00">configIonModel</text>
</a>
</g>
</g>
<!-- Node1&#45;&gt;Node2 -->
<g id="edge1_Node000001_Node000002" class="edge">
<title>Node1&#45;&gt;Node2</title>
<g id="a_edge1_Node000001_Node000002"><a xlink:title=" ">
<path fill="none" stroke="#63b8ff" d="M116.49,-37.14C107.83,-38.29 99.19,-39.45 91.09,-40.53"/>
<polygon fill="#63b8ff" stroke="#63b8ff" points="117.18,-40.57 126.63,-35.78 116.25,-33.64 117.18,-40.57"/>
</a>
</g>
</g>
<!-- Node9 -->
<g id="Node000009" class="node">
<title>Node9</title>
<g id="a_Node000009"><a xlink:href="ionoSpherical_8cpp.html#ad01dd353d17b69b39684a5bb3169fea5" target="_top" xlink:title=" ">
<path fill="#fff0f0" stroke="red" d="M82.17,-19C82.17,-19 8.83,-19 8.83,-19 5.67,-19 2.5,-15.83 2.5,-12.67 2.5,-12.67 2.5,-6.33 2.5,-6.33 2.5,-3.17 5.67,0 8.83,0 8.83,0 82.17,0 82.17,0 85.33,0 88.5,-3.17 88.5,-6.33 88.5,-6.33 88.5,-12.67 88.5,-12.67 88.5,-15.83 85.33,-19 82.17,-19"/>
<text text-anchor="middle" x="45.5" y="-7" font-family="Helvetica,sans-Serif" font-size="10.00">getEpcSsrIono</text>
</a>
</g>
</g>
<!-- Node1&#45;&gt;Node9 -->
<g id="edge2_Node000001_Node000009" class="edge">
<title>Node1&#45;&gt;Node9</title>
<g id="a_edge2_Node000001_Node000009"><a xlink:title=" ">
<path fill="none" stroke="#63b8ff" d="M116.64,-18.39C107.02,-17.17 97.43,-15.96 88.57,-14.83"/>
<polygon fill="#63b8ff" stroke="#63b8ff" points="116.27,-21.87 126.63,-19.66 117.15,-14.93 116.27,-21.87"/>
</a>
</g>
</g>
</g>
</svg>
