<?xml version="1.0" encoding="UTF-8" standalone="no"?>
<!DOCTYPE svg PUBLIC "-//W3C//DTD SVG 1.1//EN"
 "http://www.w3.org/Graphics/SVG/1.1/DTD/svg11.dtd">
<!-- Generated by graphviz version 2.43.0 (0)
 -->
<!-- Title: ionCoefLocal Pages: 1 -->
<svg width="233pt" height="64pt"
 viewBox="0.00 0.00 233.00 64.00" xmlns="http://www.w3.org/2000/svg" xmlns:xlink="http://www.w3.org/1999/xlink">
<g id="graph0" class="graph" transform="scale(1 1) rotate(0) translate(4 60)">
<title>ionCoefLocal</title>
<!-- Node1 -->
<g id="Node000001" class="node">
<title>Node1</title>
<g id="a_Node000001"><a xlink:href="ionoLocalSTEC_8cpp.html#ad63cf6910bd223eb6900bfa300c53233" target="_top" xlink:title="calcuates the partials of observations with respect to basis functions">
<path fill="#fff0f0" stroke="red" stroke-width="2" d="M73.67,-37C73.67,-37 6.33,-37 6.33,-37 3.17,-37 0,-33.83 0,-30.67 0,-30.67 0,-24.33 0,-24.33 0,-21.17 3.17,-18 6.33,-18 6.33,-18 73.67,-18 73.67,-18 76.83,-18 80,-21.17 80,-24.33 80,-24.33 80,-30.67 80,-30.67 80,-33.83 76.83,-37 73.67,-37"/>
<text text-anchor="middle" x="40" y="-25" font-family="Helvetica,sans-Serif" font-size="10.00">ionCoefLocal</text>
</a>
</g>
</g>
<!-- Node2 -->
<g id="Node000002" class="node">
<title>Node2</title>
<g id="a_Node000002"><a xlink:href="ionoLocalSTEC_8cpp.html#aa2f5c1791aaf5fe105b3a611026a3da0" target="_top" xlink:title=" ">
<path fill="#fff0f0" stroke="red" d="M218.67,-56C218.67,-56 122.33,-56 122.33,-56 119.17,-56 116,-52.83 116,-49.67 116,-49.67 116,-43.33 116,-43.33 116,-40.17 119.17,-37 122.33,-37 122.33,-37 218.67,-37 218.67,-37 221.83,-37 225,-40.17 225,-43.33 225,-43.33 225,-49.67 225,-49.67 225,-52.83 221.83,-56 218.67,-56"/>
<text text-anchor="middle" x="170.5" y="-44" font-family="Helvetica,sans-Serif" font-size="10.00">ionCoefPolynomial</text>
</a>
</g>
</g>
<!-- Node1&#45;&gt;Node2 -->
<g id="edge1_Node000001_Node000002" class="edge">
<title>Node1&#45;&gt;Node2</title>
<g id="a_edge1_Node000001_Node000002"><a xlink:title=" ">
<path fill="none" stroke="#63b8ff" d="M80.25,-33.3C88.32,-34.5 97,-35.78 105.68,-37.06"/>
<polygon fill="#63b8ff" stroke="#63b8ff" points="105.41,-40.56 115.82,-38.56 106.44,-33.64 105.41,-40.56"/>
</a>
</g>
</g>
<!-- Node3 -->
<g id="Node000003" class="node">
<title>Node3</title>
<g id="a_Node000003"><a xlink:href="ionoLocalSTEC_8cpp.html#a0fc11c5af2593ba1d061c51abf507a98" target="_top" xlink:title=" ">
<path fill="#fff0f0" stroke="red" d="M205.17,-19C205.17,-19 135.83,-19 135.83,-19 132.67,-19 129.5,-15.83 129.5,-12.67 129.5,-12.67 129.5,-6.33 129.5,-6.33 129.5,-3.17 132.67,0 135.83,0 135.83,0 205.17,0 205.17,0 208.33,0 211.5,-3.17 211.5,-6.33 211.5,-6.33 211.5,-12.67 211.5,-12.67 211.5,-15.83 208.33,-19 205.17,-19"/>
<text text-anchor="middle" x="170.5" y="-7" font-family="Helvetica,sans-Serif" font-size="10.00">IrregGridCoef</text>
</a>
</g>
</g>
<!-- Node1&#45;&gt;Node3 -->
<g id="edge2_Node000001_Node000003" class="edge">
<title>Node1&#45;&gt;Node3</title>
<g id="a_edge2_Node000001_Node000003"><a xlink:title=" ">
<path fill="none" stroke="#63b8ff" d="M80.25,-22C92.48,-20.29 106.14,-18.37 119.03,-16.57"/>
<polygon fill="#63b8ff" stroke="#63b8ff" points="119.74,-20 129.16,-15.15 118.77,-13.07 119.74,-20"/>
</a>
</g>
</g>
</g>
</svg>
