<?xml version="1.0" encoding="UTF-8" standalone="no"?>
<!DOCTYPE svg PUBLIC "-//W3C//DTD SVG 1.1//EN"
 "http://www.w3.org/Graphics/SVG/1.1/DTD/svg11.dtd">
<!-- Generated by graphviz version 2.43.0 (0)
 -->
<!-- Title: Code_Implementation__ Pages: 1 -->
<svg width="241pt" height="27pt"
 viewBox="0.00 0.00 241.00 27.00" xmlns="http://www.w3.org/2000/svg" xmlns:xlink="http://www.w3.org/1999/xlink">
<g id="graph0" class="graph" transform="scale(1 1) rotate(0) translate(4 23)">
<title>Code_Implementation__</title>
<!-- Node1 -->
<g id="Node000001" class="node">
<title>Node1</title>
<g id="a_Node000001"><a xlink:href="Legend_8cpp.html#a7ea68ba279ded9c99ca35b5b9ca65beb" target="_top" xlink:title="Actual functions in code.">
<path fill="#fff0f0" stroke="red" stroke-width="2" d="M226.67,-19C226.67,-19 104.33,-19 104.33,-19 101.17,-19 98,-15.83 98,-12.67 98,-12.67 98,-6.33 98,-6.33 98,-3.17 101.17,0 104.33,0 104.33,0 226.67,0 226.67,0 229.83,0 233,-3.17 233,-6.33 233,-6.33 233,-12.67 233,-12.67 233,-15.83 229.83,-19 226.67,-19"/>
<text text-anchor="middle" x="165.5" y="-7" font-family="Helvetica,sans-Serif" font-size="10.00">Code_Implementation__</text>
</a>
</g>
</g>
<!-- Node2 -->
<g id="Node000002" class="node">
<title>Node2</title>
<g id="a_Node000002"><a xlink:href="Legend_8cpp.html#a8d103380ced63b169597af295c8548cb" target="_top" xlink:title=" ">
<polygon fill="#88ff88" stroke="#00aa00" points="62,-19 0,-19 0,0 62,0 62,-19"/>
<text text-anchor="middle" x="31" y="-7" font-family="Helvetica,sans-Serif" font-size="10.00">Legend__</text>
</a>
</g>
</g>
<!-- Node1&#45;&gt;Node2 -->
<g id="edge1_Node000001_Node000002" class="edge">
<title>Node1&#45;&gt;Node2</title>
<g id="a_edge1_Node000001_Node000002"><a xlink:title=" ">
<path fill="none" stroke="#63b8ff" d="M87.65,-9.5C78.67,-9.5 69.95,-9.5 62.19,-9.5"/>
<polygon fill="#63b8ff" stroke="#63b8ff" points="87.86,-13 97.86,-9.5 87.86,-6 87.86,-13"/>
</a>
</g>
</g>
</g>
</svg>
