<?xml version="1.0" encoding="UTF-8" standalone="no"?>
<!DOCTYPE svg PUBLIC "-//W3C//DTD SVG 1.1//EN"
 "http://www.w3.org/Graphics/SVG/1.1/DTD/svg11.dtd">
<!-- Generated by graphviz version 2.43.0 (0)
 -->
<!-- Title: obs2lc Pages: 1 -->
<svg width="190pt" height="175pt"
 viewBox="0.00 0.00 190.00 175.00" xmlns="http://www.w3.org/2000/svg" xmlns:xlink="http://www.w3.org/1999/xlink">
<g id="graph0" class="graph" transform="scale(1 1) rotate(0) translate(4 171)">
<title>obs2lc</title>
<!-- Node1 -->
<g id="Node000001" class="node">
<title>Node1</title>
<g id="a_Node000001"><a xlink:href="linearCombo_8cpp.html#a0c10f0392343a1e3d46c30eea8db481f" target="_top" xlink:title="Function to prepare some predefined linear combinations from an observation.">
<path fill="#fff0f0" stroke="red" stroke-width="2" d="M41.67,-74C41.67,-74 6.33,-74 6.33,-74 3.17,-74 0,-70.83 0,-67.67 0,-67.67 0,-61.33 0,-61.33 0,-58.17 3.17,-55 6.33,-55 6.33,-55 41.67,-55 41.67,-55 44.83,-55 48,-58.17 48,-61.33 48,-61.33 48,-67.67 48,-67.67 48,-70.83 44.83,-74 41.67,-74"/>
<text text-anchor="middle" x="24" y="-62" font-family="Helvetica,sans-Serif" font-size="10.00">obs2lc</text>
</a>
</g>
</g>
<!-- Node2 -->
<g id="Node000002" class="node">
<title>Node2</title>
<g id="a_Node000002"><a xlink:href="acsQC_8cpp.html#abd57aff1d197b2747eab5e751cbb0b57" target="_top" xlink:title=" ">
<path fill="#fff0f0" stroke="red" d="M155.67,-167C155.67,-167 110.33,-167 110.33,-167 107.17,-167 104,-163.83 104,-160.67 104,-160.67 104,-154.33 104,-154.33 104,-151.17 107.17,-148 110.33,-148 110.33,-148 155.67,-148 155.67,-148 158.83,-148 162,-151.17 162,-154.33 162,-154.33 162,-160.67 162,-160.67 162,-163.83 158.83,-167 155.67,-167"/>
<text text-anchor="middle" x="133" y="-155" font-family="Helvetica,sans-Serif" font-size="10.00">satFreqs</text>
</a>
</g>
</g>
<!-- Node1&#45;&gt;Node2 -->
<g id="edge1_Node000001_Node000002" class="edge">
<title>Node1&#45;&gt;Node2</title>
<g id="a_edge1_Node000001_Node000002"><a xlink:title=" ">
<path fill="none" stroke="#63b8ff" d="M30.24,-74.18C39.25,-89.96 59.13,-121.31 84,-139.5 87.22,-141.86 90.79,-143.94 94.48,-145.77"/>
<polygon fill="#63b8ff" stroke="#63b8ff" points="93.22,-149.04 103.78,-149.83 96.01,-142.62 93.22,-149.04"/>
</a>
</g>
</g>
<!-- Node3 -->
<g id="Node000003" class="node">
<title>Node3</title>
<g id="a_Node000003"><a xlink:href="structGTime.html#a98fdbaaec5a132a7e694f28b4f1907cb" target="_top" xlink:title=" ">
<path fill="#fff0f0" stroke="red" d="M175.67,-130C175.67,-130 90.33,-130 90.33,-130 87.17,-130 84,-126.83 84,-123.67 84,-123.67 84,-117.33 84,-117.33 84,-114.17 87.17,-111 90.33,-111 90.33,-111 175.67,-111 175.67,-111 178.83,-111 182,-114.17 182,-117.33 182,-117.33 182,-123.67 182,-123.67 182,-126.83 178.83,-130 175.67,-130"/>
<text text-anchor="middle" x="133" y="-118" font-family="Helvetica,sans-Serif" font-size="10.00">GTime::to_string</text>
</a>
</g>
</g>
<!-- Node1&#45;&gt;Node3 -->
<g id="edge2_Node000001_Node000003" class="edge">
<title>Node1&#45;&gt;Node3</title>
<g id="a_edge2_Node000001_Node000003"><a xlink:title=" ">
<path fill="none" stroke="#63b8ff" d="M38.11,-74.1C49.75,-82.35 67.45,-94.19 84,-102.5 87.16,-104.09 90.49,-105.61 93.87,-107.06"/>
<polygon fill="#63b8ff" stroke="#63b8ff" points="92.81,-110.41 103.4,-110.92 95.44,-103.92 92.81,-110.41"/>
</a>
</g>
</g>
<!-- Node4 -->
<g id="Node000004" class="node">
<title>Node4</title>
<g id="a_Node000004"><a xlink:href="structSatSys.html#aec6d07b90d1e8172b8b6a6966abef4fd" target="_top" xlink:title="Returns a std::string of this satellite&#39;s id.">
<path fill="#fff0f0" stroke="red" d="M159.17,-93C159.17,-93 106.83,-93 106.83,-93 103.67,-93 100.5,-89.83 100.5,-86.67 100.5,-86.67 100.5,-80.33 100.5,-80.33 100.5,-77.17 103.67,-74 106.83,-74 106.83,-74 159.17,-74 159.17,-74 162.33,-74 165.5,-77.17 165.5,-80.33 165.5,-80.33 165.5,-86.67 165.5,-86.67 165.5,-89.83 162.33,-93 159.17,-93"/>
<text text-anchor="middle" x="133" y="-81" font-family="Helvetica,sans-Serif" font-size="10.00">SatSys::id</text>
</a>
</g>
</g>
<!-- Node1&#45;&gt;Node4 -->
<g id="edge3_Node000001_Node000004" class="edge">
<title>Node1&#45;&gt;Node4</title>
<g id="a_edge3_Node000001_Node000004"><a xlink:title=" ">
<path fill="none" stroke="#63b8ff" d="M48.22,-68.62C60.48,-70.8 75.92,-73.54 90.18,-76.07"/>
<polygon fill="#63b8ff" stroke="#63b8ff" points="89.85,-79.57 100.3,-77.87 91.07,-72.68 89.85,-79.57"/>
</a>
</g>
</g>
<!-- Node7 -->
<g id="Node000007" class="node">
<title>Node7</title>
<g id="a_Node000007"><a xlink:href="linearCombo_8cpp.html#ac2afb733034176947b7338b7d3cba6fb" target="_top" xlink:title="Prepare a base object for linear combinations using observation data.">
<path fill="#fff0f0" stroke="red" d="M169.67,-56C169.67,-56 96.33,-56 96.33,-56 93.17,-56 90,-52.83 90,-49.67 90,-49.67 90,-43.33 90,-43.33 90,-40.17 93.17,-37 96.33,-37 96.33,-37 169.67,-37 169.67,-37 172.83,-37 176,-40.17 176,-43.33 176,-43.33 176,-49.67 176,-49.67 176,-52.83 172.83,-56 169.67,-56"/>
<text text-anchor="middle" x="133" y="-44" font-family="Helvetica,sans-Serif" font-size="10.00">lcPrepareBase</text>
</a>
</g>
</g>
<!-- Node1&#45;&gt;Node7 -->
<g id="edge4_Node000001_Node000007" class="edge">
<title>Node1&#45;&gt;Node7</title>
<g id="a_edge4_Node000001_Node000007"><a xlink:title=" ">
<path fill="none" stroke="#63b8ff" d="M48.22,-60.59C57.53,-59.03 68.68,-57.15 79.75,-55.29"/>
<polygon fill="#63b8ff" stroke="#63b8ff" points="80.57,-58.7 89.85,-53.59 79.41,-51.8 80.57,-58.7"/>
</a>
</g>
</g>
<!-- Node8 -->
<g id="Node000008" class="node">
<title>Node8</title>
<g id="a_Node000008"><a xlink:href="linearCombo_8cpp.html#afdd3451cef793c3574f718f2f79d9278" target="_top" xlink:title="Create combinations between specific observation values.">
<path fill="#fff0f0" stroke="red" d="M148.67,-19C148.67,-19 117.33,-19 117.33,-19 114.17,-19 111,-15.83 111,-12.67 111,-12.67 111,-6.33 111,-6.33 111,-3.17 114.17,0 117.33,0 117.33,0 148.67,0 148.67,0 151.83,0 155,-3.17 155,-6.33 155,-6.33 155,-12.67 155,-12.67 155,-15.83 151.83,-19 148.67,-19"/>
<text text-anchor="middle" x="133" y="-7" font-family="Helvetica,sans-Serif" font-size="10.00">getLC</text>
</a>
</g>
</g>
<!-- Node1&#45;&gt;Node8 -->
<g id="edge5_Node000001_Node000008" class="edge">
<title>Node1&#45;&gt;Node8</title>
<g id="a_edge5_Node000001_Node000008"><a xlink:title=" ">
<path fill="none" stroke="#63b8ff" d="M31,-54.92C41.46,-44.26 63.81,-29.56 84,-19.5 89.45,-16.79 95.38,-14.17 101.16,-11.97"/>
<polygon fill="#63b8ff" stroke="#63b8ff" points="102.32,-15.27 110.63,-8.7 100.04,-8.66 102.32,-15.27"/>
</a>
</g>
</g>
<!-- Node1&#45;&gt;Node8 -->
<g id="edge6_Node000001_Node000008" class="edge">
<title>Node1&#45;&gt;Node8</title>
<g id="a_edge6_Node000001_Node000008"><a xlink:title=" ">
<path fill="none" stroke="#63b8ff" d="M48.02,-57.4C58.72,-51.41 71.76,-43.6 84,-37.5 93.66,-32.68 104.86,-28.2 114,-23.85"/>
<polygon fill="#63b8ff" stroke="#63b8ff" points="115.7,-26.91 122.95,-19.19 112.47,-20.71 115.7,-26.91"/>
</a>
</g>
</g>
</g>
</svg>
