<?xml version="1.0" encoding="UTF-8" standalone="no"?>
<!DOCTYPE svg PUBLIC "-//W3C//DTD SVG 1.1//EN"
 "http://www.w3.org/Graphics/SVG/1.1/DTD/svg11.dtd">
<!-- Generated by graphviz version 2.43.0 (0)
 -->
<!-- Title: obs2lcs Pages: 1 -->
<svg width="145pt" height="27pt"
 viewBox="0.00 0.00 145.00 27.00" xmlns="http://www.w3.org/2000/svg" xmlns:xlink="http://www.w3.org/1999/xlink">
<g id="graph0" class="graph" transform="scale(1 1) rotate(0) translate(4 23)">
<title>obs2lcs</title>
<!-- Node1 -->
<g id="Node000001" class="node">
<title>Node1</title>
<g id="a_Node000001"><a xlink:href="linearCombo_8cpp.html#a600e3c4eaf808e42c88785d56dc70350" target="_top" xlink:title="Function to prepare some predefined linear combinations from a list of observations.">
<path fill="#fff0f0" stroke="red" stroke-width="2" d="M46.67,-19C46.67,-19 6.33,-19 6.33,-19 3.17,-19 0,-15.83 0,-12.67 0,-12.67 0,-6.33 0,-6.33 0,-3.17 3.17,0 6.33,0 6.33,0 46.67,0 46.67,0 49.83,0 53,-3.17 53,-6.33 53,-6.33 53,-12.67 53,-12.67 53,-15.83 49.83,-19 46.67,-19"/>
<text text-anchor="middle" x="26.5" y="-7" font-family="Helvetica,sans-Serif" font-size="10.00">obs2lcs</text>
</a>
</g>
</g>
<!-- Node2 -->
<g id="Node000002" class="node">
<title>Node2</title>
<g id="a_Node000002"><a xlink:href="linearCombo_8cpp.html#a0c10f0392343a1e3d46c30eea8db481f" target="_top" xlink:title="Function to prepare some predefined linear combinations from an observation.">
<path fill="#fff0f0" stroke="red" d="M130.67,-19C130.67,-19 95.33,-19 95.33,-19 92.17,-19 89,-15.83 89,-12.67 89,-12.67 89,-6.33 89,-6.33 89,-3.17 92.17,0 95.33,0 95.33,0 130.67,0 130.67,0 133.83,0 137,-3.17 137,-6.33 137,-6.33 137,-12.67 137,-12.67 137,-15.83 133.83,-19 130.67,-19"/>
<text text-anchor="middle" x="113" y="-7" font-family="Helvetica,sans-Serif" font-size="10.00">obs2lc</text>
</a>
</g>
</g>
<!-- Node1&#45;&gt;Node2 -->
<g id="edge1_Node000001_Node000002" class="edge">
<title>Node1&#45;&gt;Node2</title>
<g id="a_edge1_Node000001_Node000002"><a xlink:title=" ">
<path fill="none" stroke="#63b8ff" d="M53.31,-9.5C61.39,-9.5 70.41,-9.5 78.91,-9.5"/>
<polygon fill="#63b8ff" stroke="#63b8ff" points="78.93,-13 88.93,-9.5 78.93,-6 78.93,-13"/>
</a>
</g>
</g>
</g>
</svg>
