<?xml version="1.0" encoding="UTF-8" standalone="no"?>
<!DOCTYPE svg PUBLIC "-//W3C//DTD SVG 1.1//EN"
 "http://www.w3.org/Graphics/SVG/1.1/DTD/svg11.dtd">
<!-- Generated by graphviz version 2.43.0 (0)
 -->
<!-- Title: mainPostProcessing Pages: 1 -->
<svg width="203pt" height="27pt"
 viewBox="0.00 0.00 203.00 27.00" xmlns="http://www.w3.org/2000/svg" xmlns:xlink="http://www.w3.org/1999/xlink">
<g id="graph0" class="graph" transform="scale(1 1) rotate(0) translate(4 23)">
<title>mainPostProcessing</title>
<!-- Node1 -->
<g id="Node000001" class="node">
<title>Node1</title>
<g id="a_Node000001"><a xlink:href="main_8cpp.html#a2b0d1066eac1a878cf982adcdd550ce1" target="_top" xlink:title="Perform any post&#45;final epoch calculations and outputs, then begin reverse smoothing and tidy up.">
<path fill="#fff0f0" stroke="red" stroke-width="2" d="M188.67,-19C188.67,-19 86.33,-19 86.33,-19 83.17,-19 80,-15.83 80,-12.67 80,-12.67 80,-6.33 80,-6.33 80,-3.17 83.17,0 86.33,0 86.33,0 188.67,0 188.67,0 191.83,0 195,-3.17 195,-6.33 195,-6.33 195,-12.67 195,-12.67 195,-15.83 191.83,-19 188.67,-19"/>
<text text-anchor="middle" x="137.5" y="-7" font-family="Helvetica,sans-Serif" font-size="10.00">mainPostProcessing</text>
</a>
</g>
</g>
<!-- Node2 -->
<g id="Node000002" class="node">
<title>Node2</title>
<g id="a_Node000002"><a xlink:href="main_8cpp.html#a2c1eabb2ea9b242d8d9fd2c1795849e9" target="_top" xlink:title=" ">
<path fill="#fff0f0" stroke="red" d="M37.67,-19C37.67,-19 6.33,-19 6.33,-19 3.17,-19 0,-15.83 0,-12.67 0,-12.67 0,-6.33 0,-6.33 0,-3.17 3.17,0 6.33,0 6.33,0 37.67,0 37.67,0 40.83,0 44,-3.17 44,-6.33 44,-6.33 44,-12.67 44,-12.67 44,-15.83 40.83,-19 37.67,-19"/>
<text text-anchor="middle" x="22" y="-7" font-family="Helvetica,sans-Serif" font-size="10.00">ginan</text>
</a>
</g>
</g>
<!-- Node1&#45;&gt;Node2 -->
<g id="edge1_Node000001_Node000002" class="edge">
<title>Node1&#45;&gt;Node2</title>
<g id="a_edge1_Node000001_Node000002"><a xlink:title=" ">
<path fill="none" stroke="#63b8ff" d="M69.64,-9.5C60.41,-9.5 51.55,-9.5 44.08,-9.5"/>
<polygon fill="#63b8ff" stroke="#63b8ff" points="69.75,-13 79.75,-9.5 69.75,-6 69.75,-13"/>
</a>
</g>
</g>
</g>
</svg>
