<?xml version="1.0" encoding="UTF-8" standalone="no"?>
<!DOCTYPE svg PUBLIC "-//W3C//DTD SVG 1.1//EN"
 "http://www.w3.org/Graphics/SVG/1.1/DTD/svg11.dtd">
<!-- Generated by graphviz version 2.43.0 (0)
 -->
<!-- Title: createTracefiles Pages: 1 -->
<svg width="328pt" height="46pt"
 viewBox="0.00 0.00 328.00 46.00" xmlns="http://www.w3.org/2000/svg" xmlns:xlink="http://www.w3.org/1999/xlink">
<g id="graph0" class="graph" transform="scale(1 1) rotate(0) translate(4 42)">
<title>createTracefiles</title>
<!-- Node1 -->
<g id="Node000001" class="node">
<title>Node1</title>
<g id="a_Node000001"><a xlink:href="main_8cpp.html#afc11530de7eb5cfd21c9b3185337af96" target="_top" xlink:title="Create new empty trace files only when required when the filename is changed.">
<path fill="#fff0f0" stroke="red" stroke-width="2" d="M313.67,-38C313.67,-38 233.33,-38 233.33,-38 230.17,-38 227,-34.83 227,-31.67 227,-31.67 227,-25.33 227,-25.33 227,-22.17 230.17,-19 233.33,-19 233.33,-19 313.67,-19 313.67,-19 316.83,-19 320,-22.17 320,-25.33 320,-25.33 320,-31.67 320,-31.67 320,-34.83 316.83,-38 313.67,-38"/>
<text text-anchor="middle" x="273.5" y="-26" font-family="Helvetica,sans-Serif" font-size="10.00">createTracefiles</text>
</a>
</g>
</g>
<!-- Node2 -->
<g id="Node000002" class="node">
<title>Node2</title>
<g id="a_Node000002"><a xlink:href="main_8cpp.html#a2c1eabb2ea9b242d8d9fd2c1795849e9" target="_top" xlink:title=" ">
<path fill="#fff0f0" stroke="red" d="M37.67,-38C37.67,-38 6.33,-38 6.33,-38 3.17,-38 0,-34.83 0,-31.67 0,-31.67 0,-25.33 0,-25.33 0,-22.17 3.17,-19 6.33,-19 6.33,-19 37.67,-19 37.67,-19 40.83,-19 44,-22.17 44,-25.33 44,-25.33 44,-31.67 44,-31.67 44,-34.83 40.83,-38 37.67,-38"/>
<text text-anchor="middle" x="22" y="-26" font-family="Helvetica,sans-Serif" font-size="10.00">ginan</text>
</a>
</g>
</g>
<!-- Node1&#45;&gt;Node2 -->
<g id="edge1_Node000001_Node000002" class="edge">
<title>Node1&#45;&gt;Node2</title>
<g id="a_edge1_Node000001_Node000002"><a xlink:title=" ">
<path fill="none" stroke="#63b8ff" d="M216.52,-28.5C161.93,-28.5 81.78,-28.5 44.08,-28.5"/>
<polygon fill="#63b8ff" stroke="#63b8ff" points="216.74,-32 226.74,-28.5 216.74,-25 216.74,-32"/>
</a>
</g>
</g>
<!-- Node4 -->
<g id="Node000004" class="node">
<title>Node4</title>
<g id="a_Node000004"><a xlink:href="main_8cpp.html#a479f892b35943104163405de9a93be14" target="_top" xlink:title=" ">
<path fill="#fff0f0" stroke="red" d="M184.67,-19C184.67,-19 86.33,-19 86.33,-19 83.17,-19 80,-15.83 80,-12.67 80,-12.67 80,-6.33 80,-6.33 80,-3.17 83.17,0 86.33,0 86.33,0 184.67,0 184.67,0 187.83,0 191,-3.17 191,-6.33 191,-6.33 191,-12.67 191,-12.67 191,-15.83 187.83,-19 184.67,-19"/>
<text text-anchor="middle" x="135.5" y="-7" font-family="Helvetica,sans-Serif" font-size="10.00">mainOncePerEpoch</text>
</a>
</g>
</g>
<!-- Node1&#45;&gt;Node4 -->
<g id="edge2_Node000001_Node000004" class="edge">
<title>Node1&#45;&gt;Node4</title>
<g id="a_edge2_Node000001_Node000004"><a xlink:title=" ">
<path fill="none" stroke="#63b8ff" d="M216.73,-20.71C208.31,-19.53 199.63,-18.32 191.24,-17.15"/>
<polygon fill="#63b8ff" stroke="#63b8ff" points="216.45,-24.2 226.84,-22.12 217.42,-17.27 216.45,-24.2"/>
</a>
</g>
</g>
<!-- Node4&#45;&gt;Node2 -->
<g id="edge3_Node000004_Node000002" class="edge">
<title>Node4&#45;&gt;Node2</title>
<g id="a_edge3_Node000004_Node000002"><a xlink:title=" ">
<path fill="none" stroke="#63b8ff" d="M69.67,-20.55C60.48,-22.11 51.62,-23.62 44.14,-24.9"/>
<polygon fill="#63b8ff" stroke="#63b8ff" points="70.46,-23.96 79.73,-18.83 69.28,-17.06 70.46,-23.96"/>
</a>
</g>
</g>
</g>
</svg>
