<?xml version="1.0" encoding="UTF-8" standalone="no"?>
<!DOCTYPE svg PUBLIC "-//W3C//DTD SVG 1.1//EN"
 "http://www.w3.org/Graphics/SVG/1.1/DTD/svg11.dtd">
<!-- Generated by graphviz version 2.43.0 (0)
 -->
<!-- Title: mainPerEpochPostProcessingAndOutputs Pages: 1 -->
<svg width="490pt" height="1160pt"
 viewBox="0.00 0.00 490.00 1160.15" xmlns="http://www.w3.org/2000/svg" xmlns:xlink="http://www.w3.org/1999/xlink">
<g id="graph0" class="graph" transform="scale(1 1) rotate(0) translate(4 1156.15)">
<title>mainPerEpochPostProcessingAndOutputs</title>
<!-- Node1 -->
<g id="Node000001" class="node">
<title>Node1</title>
<g id="a_Node000001"><a xlink:href="main_8cpp.html#a712043e1e94db2f9f7c1022f2bc006e2" target="_top" xlink:title=" ">
<path fill="#fff0f0" stroke="red" stroke-width="2" d="M150,-616.5C150,-616.5 10,-616.5 10,-616.5 5,-616.5 0,-611.5 0,-606.5 0,-606.5 0,-596.5 0,-596.5 0,-591.5 5,-586.5 10,-586.5 10,-586.5 150,-586.5 150,-586.5 155,-586.5 160,-591.5 160,-596.5 160,-596.5 160,-606.5 160,-606.5 160,-611.5 155,-616.5 150,-616.5"/>
<text text-anchor="start" x="8" y="-604.5" font-family="Helvetica,sans-Serif" font-size="10.00">mainPerEpochPostProcessing</text>
<text text-anchor="middle" x="80" y="-593.5" font-family="Helvetica,sans-Serif" font-size="10.00">AndOutputs</text>
</a>
</g>
</g>
<!-- Node2 -->
<g id="Node000002" class="node">
<title>Node2</title>
<g id="a_Node000002"><a xlink:href="structInteractiveTerminal.html#a1673a1bc7c18472e291aa3b1ed1bb1b7" target="_top" xlink:title=" ">
<path fill="#fff0f0" stroke="red" d="M466.5,-784.5C466.5,-784.5 375.5,-784.5 375.5,-784.5 370.5,-784.5 365.5,-779.5 365.5,-774.5 365.5,-774.5 365.5,-764.5 365.5,-764.5 365.5,-759.5 370.5,-754.5 375.5,-754.5 375.5,-754.5 466.5,-754.5 466.5,-754.5 471.5,-754.5 476.5,-759.5 476.5,-764.5 476.5,-764.5 476.5,-774.5 476.5,-774.5 476.5,-779.5 471.5,-784.5 466.5,-784.5"/>
<text text-anchor="start" x="373.5" y="-772.5" font-family="Helvetica,sans-Serif" font-size="10.00">InteractiveTerminal</text>
<text text-anchor="middle" x="421" y="-761.5" font-family="Helvetica,sans-Serif" font-size="10.00">::setMode</text>
</a>
</g>
</g>
<!-- Node1&#45;&gt;Node2 -->
<g id="edge1_Node000001_Node000002" class="edge">
<title>Node1&#45;&gt;Node2</title>
<g id="a_edge1_Node000001_Node000002"><a xlink:title=" ">
<path fill="none" stroke="#63b8ff" d="M81.86,-616.52C86.71,-695.12 113.4,-1058.09 196,-1124.5 240.34,-1160.15 281.56,-1162.39 324,-1124.5 376.88,-1077.28 322.36,-867.58 360,-807.5 364.19,-800.81 370.03,-795.1 376.44,-790.28"/>
<polygon fill="#63b8ff" stroke="#63b8ff" points="378.44,-793.15 384.78,-784.66 374.53,-787.35 378.44,-793.15"/>
</a>
</g>
</g>
<!-- Node6 -->
<g id="Node000006" class="node">
<title>Node6</title>
<g id="a_Node000006"><a xlink:href="trace_8hpp.html#af5320371d0f15d74154b2b32d315684d" target="_top" xlink:title=" ">
<path fill="#fff0f0" stroke="red" d="M291.17,-1115C291.17,-1115 228.83,-1115 228.83,-1115 225.67,-1115 222.5,-1111.83 222.5,-1108.67 222.5,-1108.67 222.5,-1102.33 222.5,-1102.33 222.5,-1099.17 225.67,-1096 228.83,-1096 228.83,-1096 291.17,-1096 291.17,-1096 294.33,-1096 297.5,-1099.17 297.5,-1102.33 297.5,-1102.33 297.5,-1108.67 297.5,-1108.67 297.5,-1111.83 294.33,-1115 291.17,-1115"/>
<text text-anchor="middle" x="260" y="-1103" font-family="Helvetica,sans-Serif" font-size="10.00">getTraceFile</text>
</a>
</g>
</g>
<!-- Node1&#45;&gt;Node6 -->
<g id="edge2_Node000001_Node000006" class="edge">
<title>Node1&#45;&gt;Node6</title>
<g id="a_edge2_Node000001_Node000006"><a xlink:title=" ">
<path fill="none" stroke="#63b8ff" d="M83.1,-616.74C92.48,-689.77 132.93,-1000.73 196,-1072.5 205.02,-1082.77 218.92,-1088.66 231.37,-1092.89"/>
<polygon fill="#63b8ff" stroke="#63b8ff" points="230.34,-1096.23 240.93,-1095.98 232.49,-1089.57 230.34,-1096.23"/>
</a>
</g>
</g>
<!-- Node1&#45;&gt;Node6 -->
<g id="edge23_Node000001_Node000006" class="edge">
<title>Node1&#45;&gt;Node6</title>
<g id="a_edge23_Node000001_Node000006"><a xlink:title=" ">
<path fill="none" stroke="#63b8ff" d="M82.46,-616.98C90.5,-692.29 131.37,-1016.96 196,-1090.5 200.62,-1095.76 206.52,-1099.87 212.85,-1102.97"/>
<polygon fill="#63b8ff" stroke="#63b8ff" points="211.74,-1106.3 222.33,-1106.8 214.37,-1099.81 211.74,-1106.3"/>
</a>
</g>
</g>
<!-- Node7 -->
<g id="Node000007" class="node">
<title>Node7</title>
<g id="a_Node000007"><a xlink:href="mongoWrite_8cpp.html#a7b0669675f4db278af7db5cb0b0dee6a" target="_top" xlink:title=" ">
<path fill="#fff0f0" stroke="red" d="M455.17,-93C455.17,-93 386.83,-93 386.83,-93 383.67,-93 380.5,-89.83 380.5,-86.67 380.5,-86.67 380.5,-80.33 380.5,-80.33 380.5,-77.17 383.67,-74 386.83,-74 386.83,-74 455.17,-74 455.17,-74 458.33,-74 461.5,-77.17 461.5,-80.33 461.5,-80.33 461.5,-86.67 461.5,-86.67 461.5,-89.83 458.33,-93 455.17,-93"/>
<text text-anchor="middle" x="421" y="-81" font-family="Helvetica,sans-Serif" font-size="10.00">mongoStates</text>
</a>
</g>
</g>
<!-- Node1&#45;&gt;Node7 -->
<g id="edge3_Node000001_Node000007" class="edge">
<title>Node1&#45;&gt;Node7</title>
<g id="a_edge3_Node000001_Node000007"><a xlink:title=" ">
<path fill="none" stroke="#63b8ff" d="M83.55,-616.91C93.72,-682.78 133.82,-936.98 196,-983.5 241.55,-1017.58 281.71,-1021.56 324,-983.5 332.55,-975.8 404.45,-235.52 417.85,-103.47"/>
<polygon fill="#63b8ff" stroke="#63b8ff" points="421.37,-103.52 418.9,-93.21 414.4,-102.8 421.37,-103.52"/>
</a>
</g>
</g>
<!-- Node1&#45;&gt;Node7 -->
<g id="edge6_Node000001_Node000007" class="edge">
<title>Node1&#45;&gt;Node7</title>
<g id="a_edge6_Node000001_Node000007"><a xlink:title=" ">
<path fill="none" stroke="#63b8ff" d="M82.67,-616.73C91.19,-684.36 131.84,-953.49 196,-1001.5 241.55,-1035.58 281.71,-1039.56 324,-1001.5 332.65,-993.72 406.1,-236.43 418.29,-103.3"/>
<polygon fill="#63b8ff" stroke="#63b8ff" points="421.78,-103.56 419.2,-93.29 414.81,-102.93 421.78,-103.56"/>
</a>
</g>
</g>
<!-- Node20 -->
<g id="Node000020" class="node">
<title>Node20</title>
<g id="a_Node000020"><a xlink:href="erp_8cpp.html#aa281b734dbbef403ca921fc9d09e9961" target="_top" xlink:title="Get earth rotation parameter values.">
<path fill="#fff0f0" stroke="red" d="M463.67,-729C463.67,-729 378.33,-729 378.33,-729 375.17,-729 372,-725.83 372,-722.67 372,-722.67 372,-716.33 372,-716.33 372,-713.17 375.17,-710 378.33,-710 378.33,-710 463.67,-710 463.67,-710 466.83,-710 470,-713.17 470,-716.33 470,-716.33 470,-722.67 470,-722.67 470,-725.83 466.83,-729 463.67,-729"/>
<text text-anchor="middle" x="421" y="-717" font-family="Helvetica,sans-Serif" font-size="10.00">getErpFromFilter</text>
</a>
</g>
</g>
<!-- Node1&#45;&gt;Node20 -->
<g id="edge4_Node000001_Node000020" class="edge">
<title>Node1&#45;&gt;Node20</title>
<g id="a_edge4_Node000001_Node000020"><a xlink:title=" ">
<path fill="none" stroke="#63b8ff" d="M83.03,-616.51C92.27,-682.45 132.69,-945.13 196,-992.5 241.55,-1026.58 280.97,-1029.71 324,-992.5 407.91,-919.93 292.57,-833.59 360,-745.5 363.58,-740.82 368.17,-736.97 373.22,-733.81"/>
<polygon fill="#63b8ff" stroke="#63b8ff" points="374.88,-736.89 382.05,-729.1 371.58,-730.72 374.88,-736.89"/>
</a>
</g>
</g>
<!-- Node22 -->
<g id="Node000022" class="node">
<title>Node22</title>
<g id="a_Node000022"><a xlink:href="ppp__ambres_8cpp.html#ac60a10fa51dfc292692db9b9e6f7af30" target="_top" xlink:title=" ">
<path fill="#fff0f0" stroke="red" d="M317.67,-983C317.67,-983 202.33,-983 202.33,-983 199.17,-983 196,-979.83 196,-976.67 196,-976.67 196,-970.33 196,-970.33 196,-967.17 199.17,-964 202.33,-964 202.33,-964 317.67,-964 317.67,-964 320.83,-964 324,-967.17 324,-970.33 324,-970.33 324,-976.67 324,-976.67 324,-979.83 320.83,-983 317.67,-983"/>
<text text-anchor="middle" x="260" y="-971" font-family="Helvetica,sans-Serif" font-size="10.00">fixAndHoldAmbiguities</text>
</a>
</g>
</g>
<!-- Node1&#45;&gt;Node22 -->
<g id="edge5_Node000001_Node000022" class="edge">
<title>Node1&#45;&gt;Node22</title>
<g id="a_edge5_Node000001_Node000022"><a xlink:title=" ">
<path fill="none" stroke="#63b8ff" d="M81.17,-616.87C82.62,-671.48 95.09,-858.14 196,-955.5 197.1,-956.56 198.26,-957.56 199.47,-958.5"/>
<polygon fill="#63b8ff" stroke="#63b8ff" points="197.72,-961.54 208.05,-963.91 201.45,-955.62 197.72,-961.54"/>
</a>
</g>
</g>
<!-- Node61 -->
<g id="Node000061" class="node">
<title>Node61</title>
<g id="a_Node000061"><a xlink:href="ionoModel_8cpp.html#a5f0f6db30db859a82f3e12712e1233da" target="_top" xlink:title=" ">
<path fill="#fff0f0" stroke="red" d="M314.17,-946C314.17,-946 205.83,-946 205.83,-946 202.67,-946 199.5,-942.83 199.5,-939.67 199.5,-939.67 199.5,-933.33 199.5,-933.33 199.5,-930.17 202.67,-927 205.83,-927 205.83,-927 314.17,-927 314.17,-927 317.33,-927 320.5,-930.17 320.5,-933.33 320.5,-933.33 320.5,-939.67 320.5,-939.67 320.5,-942.83 317.33,-946 314.17,-946"/>
<text text-anchor="middle" x="260" y="-934" font-family="Helvetica,sans-Serif" font-size="10.00">ionosphereSsrUpdate</text>
</a>
</g>
</g>
<!-- Node1&#45;&gt;Node61 -->
<g id="edge7_Node000001_Node000061" class="edge">
<title>Node1&#45;&gt;Node61</title>
<g id="a_edge7_Node000001_Node000061"><a xlink:title=" ">
<path fill="none" stroke="#63b8ff" d="M82.13,-616.73C86.4,-666.81 106.3,-825.85 196,-909.5 204.01,-916.97 214.9,-921.36 225.37,-924.42"/>
<polygon fill="#63b8ff" stroke="#63b8ff" points="224.62,-927.84 235.18,-927 226.4,-921.07 224.62,-927.84"/>
</a>
</g>
</g>
<!-- Node1&#45;&gt;Node61 -->
<g id="edge11_Node000001_Node000061" class="edge">
<title>Node1&#45;&gt;Node61</title>
<g id="a_edge11_Node000001_Node000061"><a xlink:title=" ">
<path fill="none" stroke="#63b8ff" d="M81.59,-616.62C84.5,-667.36 100.94,-831.05 192.12,-923.3"/>
<polygon fill="#63b8ff" stroke="#63b8ff" points="189.78,-925.91 199.39,-930.36 194.65,-920.88 189.78,-925.91"/>
</a>
</g>
</g>
<!-- Node64 -->
<g id="Node000064" class="node">
<title>Node64</title>
<g id="a_Node000064"><a xlink:href="ionoMeas_8cpp.html#a63c952812e5a8af831965fca844a038f" target="_top" xlink:title=" ">
<path fill="#fff0f0" stroke="red" d="M317.67,-909C317.67,-909 202.33,-909 202.33,-909 199.17,-909 196,-905.83 196,-902.67 196,-902.67 196,-896.33 196,-896.33 196,-893.17 199.17,-890 202.33,-890 202.33,-890 317.67,-890 317.67,-890 320.83,-890 324,-893.17 324,-896.33 324,-896.33 324,-902.67 324,-902.67 324,-905.83 320.83,-909 317.67,-909"/>
<text text-anchor="middle" x="260" y="-897" font-family="Helvetica,sans-Serif" font-size="10.00">obsIonoDataFromFilter</text>
</a>
</g>
</g>
<!-- Node1&#45;&gt;Node64 -->
<g id="edge8_Node000001_Node000064" class="edge">
<title>Node1&#45;&gt;Node64</title>
<g id="a_edge8_Node000001_Node000064"><a xlink:title=" ">
<path fill="none" stroke="#63b8ff" d="M82.62,-616.56C88.47,-663.27 112.76,-807.05 196,-881.5 197.31,-882.67 198.69,-883.77 200.14,-884.8"/>
<polygon fill="#63b8ff" stroke="#63b8ff" points="198.53,-887.91 208.93,-889.93 202.06,-881.87 198.53,-887.91"/>
</a>
</g>
</g>
<!-- Node65 -->
<g id="Node000065" class="node">
<title>Node65</title>
<g id="a_Node000065"><a xlink:href="ionoModel_8cpp.html#ae7821a74f98f349d4508712aeced88e1" target="_top" xlink:title="Updating the ionosphere model parameters The ionosphere model should be initialized by calling &#39;confi...">
<path fill="#fff0f0" stroke="red" d="M300.17,-872C300.17,-872 219.83,-872 219.83,-872 216.67,-872 213.5,-868.83 213.5,-865.67 213.5,-865.67 213.5,-859.33 213.5,-859.33 213.5,-856.17 216.67,-853 219.83,-853 219.83,-853 300.17,-853 300.17,-853 303.33,-853 306.5,-856.17 306.5,-859.33 306.5,-859.33 306.5,-865.67 306.5,-865.67 306.5,-868.83 303.33,-872 300.17,-872"/>
<text text-anchor="middle" x="260" y="-860" font-family="Helvetica,sans-Serif" font-size="10.00">filterIonosphere</text>
</a>
</g>
</g>
<!-- Node1&#45;&gt;Node65 -->
<g id="edge9_Node000001_Node000065" class="edge">
<title>Node1&#45;&gt;Node65</title>
<g id="a_edge9_Node000001_Node000065"><a xlink:title=" ">
<path fill="none" stroke="#63b8ff" d="M83.68,-616.68C92.04,-659.36 121.61,-781.39 196,-844.5 198.52,-846.63 201.27,-848.52 204.18,-850.17"/>
<polygon fill="#63b8ff" stroke="#63b8ff" points="202.73,-853.36 213.26,-854.51 205.75,-847.05 202.73,-853.36"/>
</a>
</g>
</g>
<!-- Node56 -->
<g id="Node000056" class="node">
<title>Node56</title>
<g id="a_Node000056"><a xlink:href="structKFState.html#a0c84e911a5ea760fe728baec661e33f0" target="_top" xlink:title="Output keys and states in human readable format.">
<path fill="#fff0f0" stroke="red" d="M475.67,-835C475.67,-835 366.33,-835 366.33,-835 363.17,-835 360,-831.83 360,-828.67 360,-828.67 360,-822.33 360,-822.33 360,-819.17 363.17,-816 366.33,-816 366.33,-816 475.67,-816 475.67,-816 478.83,-816 482,-819.17 482,-822.33 482,-822.33 482,-828.67 482,-828.67 482,-831.83 478.83,-835 475.67,-835"/>
<text text-anchor="middle" x="421" y="-823" font-family="Helvetica,sans-Serif" font-size="10.00">KFState::outputStates</text>
</a>
</g>
</g>
<!-- Node1&#45;&gt;Node56 -->
<g id="edge16_Node000001_Node000056" class="edge">
<title>Node1&#45;&gt;Node56</title>
<g id="a_edge16_Node000001_Node000056"><a xlink:title=" ">
<path fill="none" stroke="#63b8ff" d="M87.02,-616.7C100.91,-649.76 138.52,-728.46 196,-768.5 209.98,-778.24 303.96,-800.13 365.66,-813.78"/>
<polygon fill="#63b8ff" stroke="#63b8ff" points="365.13,-817.24 375.65,-815.97 366.64,-810.41 365.13,-817.24"/>
</a>
</g>
</g>
<!-- Node111 -->
<g id="Node000111" class="node">
<title>Node111</title>
<g id="a_Node000111"><a xlink:href="minimumConstraints_8cpp.html#aa40934b017f373d875c3470591eff52e" target="_top" xlink:title=" ">
<path fill="#fff0f0" stroke="red" d="M280.17,-835C280.17,-835 239.83,-835 239.83,-835 236.67,-835 233.5,-831.83 233.5,-828.67 233.5,-828.67 233.5,-822.33 233.5,-822.33 233.5,-819.17 236.67,-816 239.83,-816 239.83,-816 280.17,-816 280.17,-816 283.33,-816 286.5,-819.17 286.5,-822.33 286.5,-822.33 286.5,-828.67 286.5,-828.67 286.5,-831.83 283.33,-835 280.17,-835"/>
<text text-anchor="middle" x="260" y="-823" font-family="Helvetica,sans-Serif" font-size="10.00">mincon</text>
</a>
</g>
</g>
<!-- Node1&#45;&gt;Node111 -->
<g id="edge12_Node000001_Node000111" class="edge">
<title>Node1&#45;&gt;Node111</title>
<g id="a_edge12_Node000001_Node000111"><a xlink:title=" ">
<path fill="none" stroke="#63b8ff" d="M85.7,-616.61C97.9,-653.42 134,-748.59 196,-801.5 203.95,-808.28 214.01,-813.25 223.75,-816.85"/>
<polygon fill="#63b8ff" stroke="#63b8ff" points="222.69,-820.19 233.29,-820 224.89,-813.54 222.69,-820.19"/>
</a>
</g>
</g>
<!-- Node130 -->
<g id="Node000130" class="node">
<title>Node130</title>
<g id="a_Node000130"><a xlink:href="minimumConstraints_8cpp.html#ab6be6b79385844aff6e5935fe285c44a" target="_top" xlink:title=" ">
<path fill="#fff0f0" stroke="red" d="M317.67,-759C317.67,-759 202.33,-759 202.33,-759 199.17,-759 196,-755.83 196,-752.67 196,-752.67 196,-746.33 196,-746.33 196,-743.17 199.17,-740 202.33,-740 202.33,-740 317.67,-740 317.67,-740 320.83,-740 324,-743.17 324,-746.33 324,-746.33 324,-752.67 324,-752.67 324,-755.83 320.83,-759 317.67,-759"/>
<text text-anchor="middle" x="260" y="-747" font-family="Helvetica,sans-Serif" font-size="10.00">outputMinconStatistics</text>
</a>
</g>
</g>
<!-- Node1&#45;&gt;Node130 -->
<g id="edge17_Node000001_Node000130" class="edge">
<title>Node1&#45;&gt;Node130</title>
<g id="a_edge17_Node000001_Node000130"><a xlink:title=" ">
<path fill="none" stroke="#63b8ff" d="M90.33,-616.88C107.68,-644.15 147.57,-700.97 196,-731.5 198.61,-733.15 201.37,-734.64 204.23,-736.01"/>
<polygon fill="#63b8ff" stroke="#63b8ff" points="203.02,-739.29 213.59,-739.93 205.72,-732.84 203.02,-739.29"/>
</a>
</g>
</g>
<!-- Node131 -->
<g id="Node000131" class="node">
<title>Node131</title>
<g id="a_Node000131"><a xlink:href="erp_8cpp.html#ab3d1603dc3b9792fd8a9116558ba1d49" target="_top" xlink:title=" ">
<path fill="#fff0f0" stroke="red" d="M315.17,-722C315.17,-722 204.83,-722 204.83,-722 201.67,-722 198.5,-718.83 198.5,-715.67 198.5,-715.67 198.5,-709.33 198.5,-709.33 198.5,-706.17 201.67,-703 204.83,-703 204.83,-703 315.17,-703 315.17,-703 318.33,-703 321.5,-706.17 321.5,-709.33 321.5,-709.33 321.5,-715.67 321.5,-715.67 321.5,-718.83 318.33,-722 315.17,-722"/>
<text text-anchor="middle" x="260" y="-710" font-family="Helvetica,sans-Serif" font-size="10.00">writeErpFromNetwork</text>
</a>
</g>
</g>
<!-- Node1&#45;&gt;Node131 -->
<g id="edge18_Node000001_Node000131" class="edge">
<title>Node1&#45;&gt;Node131</title>
<g id="a_edge18_Node000001_Node000131"><a xlink:title=" ">
<path fill="none" stroke="#63b8ff" d="M96,-616.71C116.75,-636.93 156.17,-672.57 196,-693.5 200.26,-695.74 204.83,-697.76 209.49,-699.57"/>
<polygon fill="#63b8ff" stroke="#63b8ff" points="208.5,-702.93 219.1,-702.98 210.85,-696.34 208.5,-702.93"/>
</a>
</g>
</g>
<!-- Node136 -->
<g id="Node000136" class="node">
<title>Node136</title>
<g id="a_Node000136"><a xlink:href="rinexClkWrite_8cpp.html#a6899905797825f1814f596eb94ea6aaf" target="_top" xlink:title=" ">
<path fill="#fff0f0" stroke="red" d="M293.67,-685C293.67,-685 226.33,-685 226.33,-685 223.17,-685 220,-681.83 220,-678.67 220,-678.67 220,-672.33 220,-672.33 220,-669.17 223.17,-666 226.33,-666 226.33,-666 293.67,-666 293.67,-666 296.83,-666 300,-669.17 300,-672.33 300,-672.33 300,-678.67 300,-678.67 300,-681.83 296.83,-685 293.67,-685"/>
<text text-anchor="middle" x="260" y="-673" font-family="Helvetica,sans-Serif" font-size="10.00">outputClocks</text>
</a>
</g>
</g>
<!-- Node1&#45;&gt;Node136 -->
<g id="edge20_Node000001_Node000136" class="edge">
<title>Node1&#45;&gt;Node136</title>
<g id="a_edge20_Node000001_Node000136"><a xlink:title=" ">
<path fill="none" stroke="#63b8ff" d="M109.29,-616.53C132.25,-628.36 165.66,-644.75 196,-656.5 201.87,-658.77 208.14,-660.95 214.35,-662.96"/>
<polygon fill="#63b8ff" stroke="#63b8ff" points="213.43,-666.34 224.02,-665.99 215.52,-659.66 213.43,-666.34"/>
</a>
</g>
</g>
<!-- Node188 -->
<g id="Node000188" class="node">
<title>Node188</title>
<g id="a_Node000188"><a xlink:href="tropSinex_8cpp.html#a7d4d797b1dca3898283e8b3d00b0e60f" target="_top" xlink:title="Output troposphere SINEX data.">
<path fill="#fff0f0" stroke="red" d="M301.17,-648C301.17,-648 218.83,-648 218.83,-648 215.67,-648 212.5,-644.83 212.5,-641.67 212.5,-641.67 212.5,-635.33 212.5,-635.33 212.5,-632.17 215.67,-629 218.83,-629 218.83,-629 301.17,-629 301.17,-629 304.33,-629 307.5,-632.17 307.5,-635.33 307.5,-635.33 307.5,-641.67 307.5,-641.67 307.5,-644.83 304.33,-648 301.17,-648"/>
<text text-anchor="middle" x="260" y="-636" font-family="Helvetica,sans-Serif" font-size="10.00">outputTropSinex</text>
</a>
</g>
</g>
<!-- Node1&#45;&gt;Node188 -->
<g id="edge21_Node000001_Node000188" class="edge">
<title>Node1&#45;&gt;Node188</title>
<g id="a_edge21_Node000001_Node000188"><a xlink:title=" ">
<path fill="none" stroke="#63b8ff" d="M153.4,-616.55C169.98,-620 187.36,-623.61 203.12,-626.88"/>
<polygon fill="#63b8ff" stroke="#63b8ff" points="202.72,-630.38 213.22,-628.98 204.14,-623.52 202.72,-630.38"/>
</a>
</g>
</g>
<!-- Node229 -->
<g id="Node000229" class="node">
<title>Node229</title>
<g id="a_Node000229"><a xlink:href="rtsSmoothing_8cpp.html#afe61b630478279fa8f090204938fede8" target="_top" xlink:title=" ">
<path fill="#fff0f0" stroke="red" d="M294.67,-611C294.67,-611 225.33,-611 225.33,-611 222.17,-611 219,-607.83 219,-604.67 219,-604.67 219,-598.33 219,-598.33 219,-595.17 222.17,-592 225.33,-592 225.33,-592 294.67,-592 294.67,-592 297.83,-592 301,-595.17 301,-598.33 301,-598.33 301,-604.67 301,-604.67 301,-607.83 297.83,-611 294.67,-611"/>
<text text-anchor="middle" x="260" y="-599" font-family="Helvetica,sans-Serif" font-size="10.00">rtsSmoothing</text>
</a>
</g>
</g>
<!-- Node1&#45;&gt;Node229 -->
<g id="edge22_Node000001_Node000229" class="edge">
<title>Node1&#45;&gt;Node229</title>
<g id="a_edge22_Node000001_Node000229"><a xlink:title=" ">
<path fill="none" stroke="#63b8ff" d="M160.11,-601.5C176.56,-601.5 193.46,-601.5 208.53,-601.5"/>
<polygon fill="#63b8ff" stroke="#63b8ff" points="208.65,-605 218.65,-601.5 208.65,-598 208.65,-605"/>
</a>
</g>
</g>
<!-- Node231 -->
<g id="Node000231" class="node">
<title>Node231</title>
<g id="a_Node000231"><a xlink:href="ppp_8cpp.html#a7dfa3201f248f86e7eac9d9db1f3661b" target="_top" xlink:title=" ">
<path fill="#fff0f0" stroke="red" d="M301.17,-574C301.17,-574 218.83,-574 218.83,-574 215.67,-574 212.5,-570.83 212.5,-567.67 212.5,-567.67 212.5,-561.33 212.5,-561.33 212.5,-558.17 215.67,-555 218.83,-555 218.83,-555 301.17,-555 301.17,-555 304.33,-555 307.5,-558.17 307.5,-561.33 307.5,-561.33 307.5,-567.67 307.5,-567.67 307.5,-570.83 304.33,-574 301.17,-574"/>
<text text-anchor="middle" x="260" y="-562" font-family="Helvetica,sans-Serif" font-size="10.00">outputPppNmea</text>
</a>
</g>
</g>
<!-- Node1&#45;&gt;Node231 -->
<g id="edge24_Node000001_Node000231" class="edge">
<title>Node1&#45;&gt;Node231</title>
<g id="a_edge24_Node000001_Node000231"><a xlink:title=" ">
<path fill="none" stroke="#63b8ff" d="M153.4,-586.45C169.98,-583 187.36,-579.39 203.12,-576.12"/>
<polygon fill="#63b8ff" stroke="#63b8ff" points="204.14,-579.48 213.22,-574.02 202.72,-572.62 204.14,-579.48"/>
</a>
</g>
</g>
<!-- Node232 -->
<g id="Node000232" class="node">
<title>Node232</title>
<g id="a_Node000232"><a xlink:href="cost_8cpp.html#abc021ac32635abe4cf6daef44cabb888" target="_top" xlink:title="Outputs troposphere COST file.">
<path fill="#fff0f0" stroke="red" d="M288.67,-537C288.67,-537 231.33,-537 231.33,-537 228.17,-537 225,-533.83 225,-530.67 225,-530.67 225,-524.33 225,-524.33 225,-521.17 228.17,-518 231.33,-518 231.33,-518 288.67,-518 288.67,-518 291.83,-518 295,-521.17 295,-524.33 295,-524.33 295,-530.67 295,-530.67 295,-533.83 291.83,-537 288.67,-537"/>
<text text-anchor="middle" x="260" y="-525" font-family="Helvetica,sans-Serif" font-size="10.00">outputCost</text>
</a>
</g>
</g>
<!-- Node1&#45;&gt;Node232 -->
<g id="edge25_Node000001_Node000232" class="edge">
<title>Node1&#45;&gt;Node232</title>
<g id="a_edge25_Node000001_Node000232"><a xlink:title=" ">
<path fill="none" stroke="#63b8ff" d="M108.75,-586.28C131.67,-574.13 165.31,-557.25 196,-545.5 202.06,-543.18 208.56,-541 214.99,-539.01"/>
<polygon fill="#63b8ff" stroke="#63b8ff" points="216.37,-542.25 224.97,-536.05 214.38,-535.54 216.37,-542.25"/>
</a>
</g>
</g>
<!-- Node236 -->
<g id="Node000236" class="node">
<title>Node236</title>
<g id="a_Node000236"><a xlink:href="gpx_8cpp.html#a6a003c9cf2dd5732000ebbaf4dd8a6b7" target="_top" xlink:title=" ">
<path fill="#fff0f0" stroke="red" d="M284.67,-500C284.67,-500 235.33,-500 235.33,-500 232.17,-500 229,-496.83 229,-493.67 229,-493.67 229,-487.33 229,-487.33 229,-484.17 232.17,-481 235.33,-481 235.33,-481 284.67,-481 284.67,-481 287.83,-481 291,-484.17 291,-487.33 291,-487.33 291,-493.67 291,-493.67 291,-496.83 287.83,-500 284.67,-500"/>
<text text-anchor="middle" x="260" y="-488" font-family="Helvetica,sans-Serif" font-size="10.00">writeGPX</text>
</a>
</g>
</g>
<!-- Node1&#45;&gt;Node236 -->
<g id="edge26_Node000001_Node000236" class="edge">
<title>Node1&#45;&gt;Node236</title>
<g id="a_edge26_Node000001_Node000236"><a xlink:title=" ">
<path fill="none" stroke="#63b8ff" d="M95.57,-586.38C116.13,-565.89 155.67,-529.45 196,-508.5 203.17,-504.78 211.21,-501.73 219.08,-499.28"/>
<polygon fill="#63b8ff" stroke="#63b8ff" points="220.24,-502.59 228.89,-496.48 218.32,-495.86 220.24,-502.59"/>
</a>
</g>
</g>
<!-- Node240 -->
<g id="Node000240" class="node">
<title>Node240</title>
<g id="a_Node000240"><a xlink:href="summary_8cpp.html#a12c28641db36becdeac64e075107d855" target="_top" xlink:title=" ">
<path fill="#fff0f0" stroke="red" d="M300.17,-463C300.17,-463 219.83,-463 219.83,-463 216.67,-463 213.5,-459.83 213.5,-456.67 213.5,-456.67 213.5,-450.33 213.5,-450.33 213.5,-447.17 216.67,-444 219.83,-444 219.83,-444 300.17,-444 300.17,-444 303.33,-444 306.5,-447.17 306.5,-450.33 306.5,-450.33 306.5,-456.67 306.5,-456.67 306.5,-459.83 303.33,-463 300.17,-463"/>
<text text-anchor="middle" x="260" y="-451" font-family="Helvetica,sans-Serif" font-size="10.00">outputStatistics</text>
</a>
</g>
</g>
<!-- Node1&#45;&gt;Node240 -->
<g id="edge27_Node000001_Node000240" class="edge">
<title>Node1&#45;&gt;Node240</title>
<g id="a_edge27_Node000001_Node000240"><a xlink:title=" ">
<path fill="none" stroke="#63b8ff" d="M90.33,-586.12C107.68,-558.85 147.57,-502.03 196,-471.5 198.61,-469.85 201.37,-468.36 204.23,-466.99"/>
<polygon fill="#63b8ff" stroke="#63b8ff" points="205.72,-470.16 213.59,-463.07 203.02,-463.71 205.72,-470.16"/>
</a>
</g>
</g>
<!-- Node241 -->
<g id="Node000241" class="node">
<title>Node241</title>
<g id="a_Node000241"><a xlink:href="rinexNavWrite_8cpp.html#afee81a93c5a36815f71f855f32c34608" target="_top" xlink:title=" ">
<path fill="#fff0f0" stroke="red" d="M298.17,-426C298.17,-426 221.83,-426 221.83,-426 218.67,-426 215.5,-422.83 215.5,-419.67 215.5,-419.67 215.5,-413.33 215.5,-413.33 215.5,-410.17 218.67,-407 221.83,-407 221.83,-407 298.17,-407 298.17,-407 301.33,-407 304.5,-410.17 304.5,-413.33 304.5,-413.33 304.5,-419.67 304.5,-419.67 304.5,-422.83 301.33,-426 298.17,-426"/>
<text text-anchor="middle" x="260" y="-414" font-family="Helvetica,sans-Serif" font-size="10.00">writeRinexNav</text>
</a>
</g>
</g>
<!-- Node1&#45;&gt;Node241 -->
<g id="edge28_Node000001_Node000241" class="edge">
<title>Node1&#45;&gt;Node241</title>
<g id="a_edge28_Node000001_Node000241"><a xlink:title=" ">
<path fill="none" stroke="#63b8ff" d="M87.1,-586.43C101.18,-553.61 139.11,-475.38 196,-434.5 199.09,-432.28 202.45,-430.33 205.96,-428.62"/>
<polygon fill="#63b8ff" stroke="#63b8ff" points="207.62,-431.72 215.49,-424.64 204.92,-425.26 207.62,-431.72"/>
</a>
</g>
</g>
<!-- Node257 -->
<g id="Node000257" class="node">
<title>Node257</title>
<g id="a_Node000257"><a xlink:href="sp3Write_8cpp.html#aa684817008c29bcd43c77bdda90b8a31" target="_top" xlink:title=" ">
<path fill="#fff0f0" stroke="red" d="M286.67,-389C286.67,-389 233.33,-389 233.33,-389 230.17,-389 227,-385.83 227,-382.67 227,-382.67 227,-376.33 227,-376.33 227,-373.17 230.17,-370 233.33,-370 233.33,-370 286.67,-370 286.67,-370 289.83,-370 293,-373.17 293,-376.33 293,-376.33 293,-382.67 293,-382.67 293,-385.83 289.83,-389 286.67,-389"/>
<text text-anchor="middle" x="260" y="-377" font-family="Helvetica,sans-Serif" font-size="10.00">outputSp3</text>
</a>
</g>
</g>
<!-- Node1&#45;&gt;Node257 -->
<g id="edge29_Node000001_Node000257" class="edge">
<title>Node1&#45;&gt;Node257</title>
<g id="a_edge29_Node000001_Node000257"><a xlink:title=" ">
<path fill="none" stroke="#63b8ff" d="M85.16,-586.31C96.35,-548.4 130.72,-448.99 196,-397.5 202.22,-392.6 209.71,-389.03 217.33,-386.43"/>
<polygon fill="#63b8ff" stroke="#63b8ff" points="218.33,-389.79 226.95,-383.64 216.38,-383.06 218.33,-389.79"/>
</a>
</g>
</g>
<!-- Node262 -->
<g id="Node000262" class="node">
<title>Node262</title>
<g id="a_Node000262"><a xlink:href="orbexWrite_8cpp.html#aa8eb53893e56ecf819a9b98f86c354e6" target="_top" xlink:title="Output ORBEX files.">
<path fill="#fff0f0" stroke="red" d="M292.17,-352C292.17,-352 227.83,-352 227.83,-352 224.67,-352 221.5,-348.83 221.5,-345.67 221.5,-345.67 221.5,-339.33 221.5,-339.33 221.5,-336.17 224.67,-333 227.83,-333 227.83,-333 292.17,-333 292.17,-333 295.33,-333 298.5,-336.17 298.5,-339.33 298.5,-339.33 298.5,-345.67 298.5,-345.67 298.5,-348.83 295.33,-352 292.17,-352"/>
<text text-anchor="middle" x="260" y="-340" font-family="Helvetica,sans-Serif" font-size="10.00">outputOrbex</text>
</a>
</g>
</g>
<!-- Node1&#45;&gt;Node262 -->
<g id="edge30_Node000001_Node000262" class="edge">
<title>Node1&#45;&gt;Node262</title>
<g id="a_edge30_Node000001_Node000262"><a xlink:title=" ">
<path fill="none" stroke="#63b8ff" d="M83.72,-586.44C92.18,-544.1 122.01,-423.06 196,-360.5 200.62,-356.59 206.04,-353.53 211.72,-351.14"/>
<polygon fill="#63b8ff" stroke="#63b8ff" points="213.19,-354.33 221.45,-347.7 210.86,-347.73 213.19,-354.33"/>
</a>
</g>
</g>
<!-- Node318 -->
<g id="Node000318" class="node">
<title>Node318</title>
<g id="a_Node000318"><a xlink:href="ionexWrite_8cpp.html#a346321c012d870acaf17c9fae401e7b2" target="_top" xlink:title=" ">
<path fill="#fff0f0" stroke="red" d="M297.17,-315C297.17,-315 222.83,-315 222.83,-315 219.67,-315 216.5,-311.83 216.5,-308.67 216.5,-308.67 216.5,-302.33 216.5,-302.33 216.5,-299.17 219.67,-296 222.83,-296 222.83,-296 297.17,-296 297.17,-296 300.33,-296 303.5,-299.17 303.5,-302.33 303.5,-302.33 303.5,-308.67 303.5,-308.67 303.5,-311.83 300.33,-315 297.17,-315"/>
<text text-anchor="middle" x="260" y="-303" font-family="Helvetica,sans-Serif" font-size="10.00">ionexFileWrite</text>
</a>
</g>
</g>
<!-- Node1&#45;&gt;Node318 -->
<g id="edge31_Node000001_Node000318" class="edge">
<title>Node1&#45;&gt;Node318</title>
<g id="a_edge31_Node000001_Node000318"><a xlink:title=" ">
<path fill="none" stroke="#63b8ff" d="M82.27,-586.18C87.49,-537.92 111.23,-390.12 196,-314.5 199.25,-311.6 202.93,-309.17 206.85,-307.16"/>
<polygon fill="#63b8ff" stroke="#63b8ff" points="208.44,-310.29 216.31,-303.2 205.74,-303.83 208.44,-310.29"/>
</a>
</g>
</g>
<!-- Node1&#45;&gt;Node318 -->
<g id="edge32_Node000001_Node000318" class="edge">
<title>Node1&#45;&gt;Node318</title>
<g id="a_edge32_Node000001_Node000318"><a xlink:title=" ">
<path fill="none" stroke="#63b8ff" d="M83.26,-586.34C90.17,-540.49 115.71,-404.13 196,-332.5 204.3,-325.1 215.45,-320.72 226.06,-317.64"/>
<polygon fill="#63b8ff" stroke="#63b8ff" points="227.18,-320.97 235.95,-315.03 225.39,-314.2 227.18,-320.97"/>
</a>
</g>
</g>
<!-- Node330 -->
<g id="Node000330" class="node">
<title>Node330</title>
<g id="a_Node000330"><a xlink:href="ionoMeas_8cpp.html#ae9c0cc10cf38de05ca01a55f8c8efd06" target="_top" xlink:title=" ">
<path fill="#fff0f0" stroke="red" d="M292.17,-278C292.17,-278 227.83,-278 227.83,-278 224.67,-278 221.5,-274.83 221.5,-271.67 221.5,-271.67 221.5,-265.33 221.5,-265.33 221.5,-262.17 224.67,-259 227.83,-259 227.83,-259 292.17,-259 292.17,-259 295.33,-259 298.5,-262.17 298.5,-265.33 298.5,-265.33 298.5,-271.67 298.5,-271.67 298.5,-274.83 295.33,-278 292.17,-278"/>
<text text-anchor="middle" x="260" y="-266" font-family="Helvetica,sans-Serif" font-size="10.00">writeIonStec</text>
</a>
</g>
</g>
<!-- Node1&#45;&gt;Node330 -->
<g id="edge33_Node000001_Node000330" class="edge">
<title>Node1&#45;&gt;Node330</title>
<g id="a_edge33_Node000001_Node000330"><a xlink:title=" ">
<path fill="none" stroke="#63b8ff" d="M81.85,-586.41C85.54,-536 104.37,-371.78 196,-286.5 200.48,-282.33 205.86,-279.12 211.57,-276.64"/>
<polygon fill="#63b8ff" stroke="#63b8ff" points="213.13,-279.8 221.37,-273.14 210.78,-273.21 213.13,-279.8"/>
</a>
</g>
</g>
<!-- Node331 -->
<g id="Node000331" class="node">
<title>Node331</title>
<g id="a_Node000331"><a xlink:href="biasSINEXwrite_8cpp.html#a6c7446a6a1e0b4bd45275115a06b5c46" target="_top" xlink:title="Write stored bias output to SINEX file Return number of written biases (&#45;1 if file not found)">
<path fill="#fff0f0" stroke="red" d="M298.17,-241C298.17,-241 221.83,-241 221.83,-241 218.67,-241 215.5,-237.83 215.5,-234.67 215.5,-234.67 215.5,-228.33 215.5,-228.33 215.5,-225.17 218.67,-222 221.83,-222 221.83,-222 298.17,-222 298.17,-222 301.33,-222 304.5,-225.17 304.5,-228.33 304.5,-228.33 304.5,-234.67 304.5,-234.67 304.5,-237.83 301.33,-241 298.17,-241"/>
<text text-anchor="middle" x="260" y="-229" font-family="Helvetica,sans-Serif" font-size="10.00">writeBiasSinex</text>
</a>
</g>
</g>
<!-- Node1&#45;&gt;Node331 -->
<g id="edge34_Node000001_Node000331" class="edge">
<title>Node1&#45;&gt;Node331</title>
<g id="a_edge34_Node000001_Node000331"><a xlink:title=" ">
<path fill="none" stroke="#63b8ff" d="M81.2,-586.22C82.76,-531.91 95.52,-346.28 196,-249.5 198.96,-246.65 202.33,-244.25 205.95,-242.22"/>
<polygon fill="#63b8ff" stroke="#63b8ff" points="207.71,-245.27 215.34,-237.92 204.79,-238.9 207.71,-245.27"/>
</a>
</g>
</g>
<!-- Node359 -->
<g id="Node000359" class="node">
<title>Node359</title>
<g id="a_Node000359"><a xlink:href="orbitProp_8cpp.html#a03c4ef0fbfbbf301403de6a3a8e27cc3" target="_top" xlink:title=" ">
<path fill="#fff0f0" stroke="red" d="M305.17,-204C305.17,-204 214.83,-204 214.83,-204 211.67,-204 208.5,-200.83 208.5,-197.67 208.5,-197.67 208.5,-191.33 208.5,-191.33 208.5,-188.17 211.67,-185 214.83,-185 214.83,-185 305.17,-185 305.17,-185 308.33,-185 311.5,-188.17 311.5,-191.33 311.5,-191.33 311.5,-197.67 311.5,-197.67 311.5,-200.83 308.33,-204 305.17,-204"/>
<text text-anchor="middle" x="260" y="-192" font-family="Helvetica,sans-Serif" font-size="10.00">outputOrbitConfig</text>
</a>
</g>
</g>
<!-- Node1&#45;&gt;Node359 -->
<g id="edge35_Node000001_Node000359" class="edge">
<title>Node1&#45;&gt;Node359</title>
<g id="a_edge35_Node000001_Node000359"><a xlink:title=" ">
<path fill="none" stroke="#63b8ff" d="M80.65,-586.27C80.17,-528.56 86.45,-321.06 196,-212.5 197.11,-211.4 198.28,-210.36 199.51,-209.39"/>
<polygon fill="#63b8ff" stroke="#63b8ff" points="201.69,-212.15 208.26,-203.84 197.94,-206.24 201.69,-212.15"/>
</a>
</g>
</g>
<!-- Node360 -->
<g id="Node000360" class="node">
<title>Node360</title>
<g id="a_Node000360"><a xlink:href="sbas_8cpp.html#a6f4229224f8d8f8b8cf050533b992fcc" target="_top" xlink:title="Write received SBAS messages into EMS files.">
<path fill="#fff0f0" stroke="red" d="M295.67,-167C295.67,-167 224.33,-167 224.33,-167 221.17,-167 218,-163.83 218,-160.67 218,-160.67 218,-154.33 218,-154.33 218,-151.17 221.17,-148 224.33,-148 224.33,-148 295.67,-148 295.67,-148 298.83,-148 302,-151.17 302,-154.33 302,-154.33 302,-160.67 302,-160.67 302,-163.83 298.83,-167 295.67,-167"/>
<text text-anchor="middle" x="260" y="-155" font-family="Helvetica,sans-Serif" font-size="10.00">writeEMSdata</text>
</a>
</g>
</g>
<!-- Node1&#45;&gt;Node360 -->
<g id="edge36_Node000001_Node000360" class="edge">
<title>Node1&#45;&gt;Node360</title>
<g id="a_edge36_Node000001_Node000360"><a xlink:title=" ">
<path fill="none" stroke="#63b8ff" d="M83.12,-586.06C92.9,-516.93 135.78,-236.61 196,-175.5 199.51,-171.94 203.67,-169.07 208.15,-166.76"/>
<polygon fill="#63b8ff" stroke="#63b8ff" points="209.83,-169.85 217.71,-162.77 207.13,-163.4 209.83,-169.85"/>
</a>
</g>
</g>
<!-- Node362 -->
<g id="Node000362" class="node">
<title>Node362</title>
<g id="a_Node000362"><a xlink:href="mongoWrite_8cpp.html#a5cadd0b1a16ece0f12724f6f750b19ce" target="_top" xlink:title=" ">
<path fill="#fff0f0" stroke="red" d="M309.67,-130C309.67,-130 210.33,-130 210.33,-130 207.17,-130 204,-126.83 204,-123.67 204,-123.67 204,-117.33 204,-117.33 204,-114.17 207.17,-111 210.33,-111 210.33,-111 309.67,-111 309.67,-111 312.83,-111 316,-114.17 316,-117.33 316,-117.33 316,-123.67 316,-123.67 316,-126.83 312.83,-130 309.67,-130"/>
<text text-anchor="middle" x="260" y="-118" font-family="Helvetica,sans-Serif" font-size="10.00">mongoMeasSatStat</text>
</a>
</g>
</g>
<!-- Node1&#45;&gt;Node362 -->
<g id="edge37_Node000001_Node000362" class="edge">
<title>Node1&#45;&gt;Node362</title>
<g id="a_edge37_Node000001_Node000362"><a xlink:title=" ">
<path fill="none" stroke="#63b8ff" d="M82.75,-586.21C91.31,-513.75 131.13,-205.67 196,-138.5 196.93,-137.53 197.91,-136.62 198.94,-135.75"/>
<polygon fill="#63b8ff" stroke="#63b8ff" points="201.14,-138.49 207.49,-130 197.24,-132.68 201.14,-138.49"/>
</a>
</g>
</g>
<!-- Node363 -->
<g id="Node000363" class="node">
<title>Node363</title>
<g id="a_Node000363"><a xlink:href="ppp_8cpp.html#a1a529bfb379c76f71546a80022b8f123" target="_top" xlink:title=" ">
<path fill="#fff0f0" stroke="red" d="M293.67,-93C293.67,-93 226.33,-93 226.33,-93 223.17,-93 220,-89.83 220,-86.67 220,-86.67 220,-80.33 220,-80.33 220,-77.17 223.17,-74 226.33,-74 226.33,-74 293.67,-74 293.67,-74 296.83,-74 300,-77.17 300,-80.33 300,-80.33 300,-86.67 300,-86.67 300,-89.83 296.83,-93 293.67,-93"/>
<text text-anchor="middle" x="260" y="-81" font-family="Helvetica,sans-Serif" font-size="10.00">outputApriori</text>
</a>
</g>
</g>
<!-- Node1&#45;&gt;Node363 -->
<g id="edge38_Node000001_Node000363" class="edge">
<title>Node1&#45;&gt;Node363</title>
<g id="a_edge38_Node000001_Node000363"><a xlink:title=" ">
<path fill="none" stroke="#63b8ff" d="M82.44,-586.28C89.89,-510.51 126.48,-174.75 196,-101.5 200.06,-97.22 205.07,-93.93 210.47,-91.42"/>
<polygon fill="#63b8ff" stroke="#63b8ff" points="211.71,-94.69 219.82,-87.87 209.23,-88.14 211.71,-94.69"/>
</a>
</g>
</g>
<!-- Node365 -->
<g id="Node000365" class="node">
<title>Node365</title>
<g id="a_Node000365"><a xlink:href="main_8cpp.html#a47923d108129a8e2dc5d741ac5202f3a" target="_top" xlink:title=" ">
<path fill="#fff0f0" stroke="red" d="M316.17,-56C316.17,-56 203.83,-56 203.83,-56 200.67,-56 197.5,-52.83 197.5,-49.67 197.5,-49.67 197.5,-43.33 197.5,-43.33 197.5,-40.17 200.67,-37 203.83,-37 203.83,-37 316.17,-37 316.17,-37 319.33,-37 322.5,-40.17 322.5,-43.33 322.5,-43.33 322.5,-49.67 322.5,-49.67 322.5,-52.83 319.33,-56 316.17,-56"/>
<text text-anchor="middle" x="260" y="-44" font-family="Helvetica,sans-Serif" font-size="10.00">outputPredictedStates</text>
</a>
</g>
</g>
<!-- Node1&#45;&gt;Node365 -->
<g id="edge41_Node000001_Node000365" class="edge">
<title>Node1&#45;&gt;Node365</title>
<g id="a_edge41_Node000001_Node000365"><a xlink:title=" ">
<path fill="none" stroke="#63b8ff" d="M82.16,-586.48C88.54,-507.82 121.77,-143.9 196,-64.5 196.9,-63.54 197.84,-62.63 198.82,-61.77"/>
<polygon fill="#63b8ff" stroke="#63b8ff" points="200.85,-64.63 207.07,-56.05 196.86,-58.88 200.85,-64.63"/>
</a>
</g>
</g>
<!-- Node369 -->
<g id="Node000369" class="node">
<title>Node369</title>
<g id="a_Node000369"><a xlink:href="mongoWrite_8cpp.html#a0936cc081f59031ee1253c909285838c" target="_top" xlink:title="Write states generating SSR corrections to Mongo DB.">
<path fill="#fff0f0" stroke="red" d="M303.67,-19C303.67,-19 216.33,-19 216.33,-19 213.17,-19 210,-15.83 210,-12.67 210,-12.67 210,-6.33 210,-6.33 210,-3.17 213.17,0 216.33,0 216.33,0 303.67,0 303.67,0 306.83,0 310,-3.17 310,-6.33 310,-6.33 310,-12.67 310,-12.67 310,-15.83 306.83,-19 303.67,-19"/>
<text text-anchor="middle" x="260" y="-7" font-family="Helvetica,sans-Serif" font-size="10.00">prepareSsrStates</text>
</a>
</g>
</g>
<!-- Node1&#45;&gt;Node369 -->
<g id="edge45_Node000001_Node000369" class="edge">
<title>Node1&#45;&gt;Node369</title>
<g id="a_edge45_Node000001_Node000369"><a xlink:title=" ">
<path fill="none" stroke="#63b8ff" d="M81.95,-586.28C87.4,-503.99 117.18,-112.94 196,-27.5 197.57,-25.8 199.28,-24.26 201.11,-22.86"/>
<polygon fill="#63b8ff" stroke="#63b8ff" points="203.04,-25.78 209.76,-17.59 199.4,-19.8 203.04,-25.78"/>
</a>
</g>
</g>
<!-- Node65&#45;&gt;Node56 -->
<g id="edge10_Node000065_Node000056" class="edge">
<title>Node65&#45;&gt;Node56</title>
<g id="a_edge10_Node000065_Node000056"><a xlink:title=" ">
<path fill="none" stroke="#63b8ff" d="M301.95,-852.97C322.36,-848.22 347.25,-842.43 368.9,-837.39"/>
<polygon fill="#63b8ff" stroke="#63b8ff" points="369.97,-840.74 378.92,-835.06 368.38,-833.92 369.97,-840.74"/>
</a>
</g>
</g>
<!-- Node111&#45;&gt;Node7 -->
<g id="edge15_Node000111_Node000007" class="edge">
<title>Node111&#45;&gt;Node7</title>
<g id="a_edge15_Node000111_Node000007"><a xlink:title=" ">
<path fill="none" stroke="#63b8ff" d="M276.83,-815.89C291.65,-805.98 313.09,-789.09 324,-768.5 387.82,-648.06 413.94,-202.57 419.04,-103.23"/>
<polygon fill="#63b8ff" stroke="#63b8ff" points="422.54,-103.26 419.55,-93.1 415.55,-102.91 422.54,-103.26"/>
</a>
</g>
</g>
<!-- Node111&#45;&gt;Node56 -->
<g id="edge13_Node000111_Node000056" class="edge">
<title>Node111&#45;&gt;Node56</title>
<g id="a_edge13_Node000111_Node000056"><a xlink:title=" ">
<path fill="none" stroke="#63b8ff" d="M286.55,-820.39C303.67,-819.13 327.13,-818.59 349.6,-818.79"/>
<polygon fill="#63b8ff" stroke="#63b8ff" points="349.78,-822.29 359.83,-818.93 349.88,-815.29 349.78,-822.29"/>
</a>
</g>
</g>
<!-- Node111&#45;&gt;Node56 -->
<g id="edge14_Node000111_Node000056" class="edge">
<title>Node111&#45;&gt;Node56</title>
<g id="a_edge14_Node000111_Node000056"><a xlink:title=" ">
<path fill="none" stroke="#63b8ff" d="M286.55,-830.61C303.67,-831.87 327.13,-832.41 349.6,-832.21"/>
<polygon fill="#63b8ff" stroke="#63b8ff" points="349.88,-835.71 359.83,-832.07 349.78,-828.71 349.88,-835.71"/>
</a>
</g>
</g>
<!-- Node131&#45;&gt;Node20 -->
<g id="edge19_Node000131_Node000020" class="edge">
<title>Node131&#45;&gt;Node20</title>
<g id="a_edge19_Node000131_Node000020"><a xlink:title=" ">
<path fill="none" stroke="#63b8ff" d="M321.56,-715.17C334.72,-715.75 348.61,-716.36 361.68,-716.93"/>
<polygon fill="#63b8ff" stroke="#63b8ff" points="361.81,-720.44 371.96,-717.38 362.12,-713.45 361.81,-720.44"/>
</a>
</g>
</g>
<!-- Node363&#45;&gt;Node7 -->
<g id="edge39_Node000363_Node000007" class="edge">
<title>Node363&#45;&gt;Node7</title>
<g id="a_edge39_Node000363_Node000007"><a xlink:title=" ">
<path fill="none" stroke="#63b8ff" d="M300.3,-77.58C321.44,-76.62 347.71,-76.49 370.26,-77.19"/>
<polygon fill="#63b8ff" stroke="#63b8ff" points="370.2,-80.69 380.32,-77.57 370.46,-73.69 370.2,-80.69"/>
</a>
</g>
</g>
<!-- Node363&#45;&gt;Node7 -->
<g id="edge40_Node000363_Node000007" class="edge">
<title>Node363&#45;&gt;Node7</title>
<g id="a_edge40_Node000363_Node000007"><a xlink:title=" ">
<path fill="none" stroke="#63b8ff" d="M300.3,-89.42C321.44,-90.38 347.71,-90.51 370.26,-89.81"/>
<polygon fill="#63b8ff" stroke="#63b8ff" points="370.46,-93.31 380.32,-89.43 370.2,-86.31 370.46,-93.31"/>
</a>
</g>
</g>
<!-- Node365&#45;&gt;Node2 -->
<g id="edge42_Node000365_Node000002" class="edge">
<title>Node365&#45;&gt;Node2</title>
<g id="a_edge42_Node000365_Node000002"><a xlink:title=" ">
<path fill="none" stroke="#63b8ff" d="M314.39,-56.07C318.02,-58.35 321.31,-61.12 324,-64.5 417.49,-181.79 278.6,-612.52 360,-738.5 362.36,-742.16 365.3,-745.4 368.6,-748.28"/>
<polygon fill="#63b8ff" stroke="#63b8ff" points="366.72,-751.25 376.85,-754.36 370.87,-745.61 366.72,-751.25"/>
</a>
</g>
</g>
<!-- Node365&#45;&gt;Node7 -->
<g id="edge43_Node000365_Node000007" class="edge">
<title>Node365&#45;&gt;Node7</title>
<g id="a_edge43_Node000365_Node000007"><a xlink:title=" ">
<path fill="none" stroke="#63b8ff" d="M322.93,-54.31C345.74,-59.23 370.57,-65.39 389.42,-70.93"/>
<polygon fill="#63b8ff" stroke="#63b8ff" points="388.63,-74.35 399.22,-73.93 390.68,-67.66 388.63,-74.35"/>
</a>
</g>
</g>
<!-- Node365&#45;&gt;Node7 -->
<g id="edge44_Node000365_Node000007" class="edge">
<title>Node365&#45;&gt;Node7</title>
<g id="a_edge44_Node000365_Node000007"><a xlink:title=" ">
<path fill="none" stroke="#63b8ff" d="M281.79,-56.07C304.17,-63.25 340.59,-72.25 370.43,-78.27"/>
<polygon fill="#63b8ff" stroke="#63b8ff" points="369.78,-81.71 380.26,-80.19 371.12,-74.84 369.78,-81.71"/>
</a>
</g>
</g>
</g>
</svg>
