<?xml version="1.0" encoding="UTF-8" standalone="no"?>
<!DOCTYPE svg PUBLIC "-//W3C//DTD SVG 1.1//EN"
 "http://www.w3.org/Graphics/SVG/1.1/DTD/svg11.dtd">
<!-- Generated by graphviz version 2.43.0 (0)
 -->
<!-- Title: initialiseStation Pages: 1 -->
<svg width="191pt" height="27pt"
 viewBox="0.00 0.00 191.00 27.00" xmlns="http://www.w3.org/2000/svg" xmlns:xlink="http://www.w3.org/1999/xlink">
<g id="graph0" class="graph" transform="scale(1 1) rotate(0) translate(4 23)">
<title>initialiseStation</title>
<!-- Node1 -->
<g id="Node000001" class="node">
<title>Node1</title>
<g id="a_Node000001"><a xlink:href="main_8cpp.html#ac4b2a10a4ae64fe3fe7ffc2db2c15f51" target="_top" xlink:title=" ">
<path fill="#fff0f0" stroke="red" stroke-width="2" d="M86.67,-19C86.67,-19 6.33,-19 6.33,-19 3.17,-19 0,-15.83 0,-12.67 0,-12.67 0,-6.33 0,-6.33 0,-3.17 3.17,0 6.33,0 6.33,0 86.67,0 86.67,0 89.83,0 93,-3.17 93,-6.33 93,-6.33 93,-12.67 93,-12.67 93,-15.83 89.83,-19 86.67,-19"/>
<text text-anchor="middle" x="46.5" y="-7" font-family="Helvetica,sans-Serif" font-size="10.00">initialiseStation</text>
</a>
</g>
</g>
<!-- Node2 -->
<g id="Node000002" class="node">
<title>Node2</title>
<g id="a_Node000002"><a xlink:href="tides_8cpp.html#aeb36d9680b44b6ea52bc6f261fe64130" target="_top" xlink:title="Read BLQ ocean/atmospheric tide loading parameters.">
<path fill="#fff0f0" stroke="red" d="M176.67,-19C176.67,-19 135.33,-19 135.33,-19 132.17,-19 129,-15.83 129,-12.67 129,-12.67 129,-6.33 129,-6.33 129,-3.17 132.17,0 135.33,0 135.33,0 176.67,0 176.67,0 179.83,0 183,-3.17 183,-6.33 183,-6.33 183,-12.67 183,-12.67 183,-15.83 179.83,-19 176.67,-19"/>
<text text-anchor="middle" x="156" y="-7" font-family="Helvetica,sans-Serif" font-size="10.00">readBlq</text>
</a>
</g>
</g>
<!-- Node1&#45;&gt;Node2 -->
<g id="edge1_Node000001_Node000002" class="edge">
<title>Node1&#45;&gt;Node2</title>
<g id="a_edge1_Node000001_Node000002"><a xlink:title=" ">
<path fill="none" stroke="#63b8ff" d="M93.09,-2.82C101.7,-2.67 110.6,-2.76 118.87,-3.08"/>
<polygon fill="#63b8ff" stroke="#63b8ff" points="118.77,-6.58 128.94,-3.62 119.14,0.41 118.77,-6.58"/>
</a>
</g>
</g>
<!-- Node1&#45;&gt;Node2 -->
<g id="edge2_Node000001_Node000002" class="edge">
<title>Node1&#45;&gt;Node2</title>
<g id="a_edge2_Node000001_Node000002"><a xlink:title=" ">
<path fill="none" stroke="#63b8ff" d="M93.09,-16.18C101.7,-16.33 110.6,-16.24 118.87,-15.92"/>
<polygon fill="#63b8ff" stroke="#63b8ff" points="119.14,-19.41 128.94,-15.38 118.77,-12.42 119.14,-19.41"/>
</a>
</g>
</g>
</g>
</svg>
