<?xml version="1.0" encoding="UTF-8" standalone="no"?>
<!DOCTYPE svg PUBLIC "-//W3C//DTD SVG 1.1//EN"
 "http://www.w3.org/Graphics/SVG/1.1/DTD/svg11.dtd">
<!-- Generated by graphviz version 2.43.0 (0)
 -->
<!-- Title: cullData Pages: 1 -->
<svg width="212pt" height="27pt"
 viewBox="0.00 0.00 212.00 27.00" xmlns="http://www.w3.org/2000/svg" xmlns:xlink="http://www.w3.org/1999/xlink">
<g id="graph0" class="graph" transform="scale(1 1) rotate(0) translate(4 23)">
<title>cullData</title>
<!-- Node1 -->
<g id="Node000001" class="node">
<title>Node1</title>
<g id="a_Node000001"><a xlink:href="main_8cpp.html#aa230ac4b3260c48e1aa026f983f67984" target="_top" xlink:title=" ">
<path fill="#fff0f0" stroke="red" stroke-width="2" d="M197.67,-19C197.67,-19 153.33,-19 153.33,-19 150.17,-19 147,-15.83 147,-12.67 147,-12.67 147,-6.33 147,-6.33 147,-3.17 150.17,0 153.33,0 153.33,0 197.67,0 197.67,0 200.83,0 204,-3.17 204,-6.33 204,-6.33 204,-12.67 204,-12.67 204,-15.83 200.83,-19 197.67,-19"/>
<text text-anchor="middle" x="175.5" y="-7" font-family="Helvetica,sans-Serif" font-size="10.00">cullData</text>
</a>
</g>
</g>
<!-- Node2 -->
<g id="Node000002" class="node">
<title>Node2</title>
<g id="a_Node000002"><a xlink:href="main_8cpp.html#a479f892b35943104163405de9a93be14" target="_top" xlink:title=" ">
<path fill="#fff0f0" stroke="red" d="M104.67,-19C104.67,-19 6.33,-19 6.33,-19 3.17,-19 0,-15.83 0,-12.67 0,-12.67 0,-6.33 0,-6.33 0,-3.17 3.17,0 6.33,0 6.33,0 104.67,0 104.67,0 107.83,0 111,-3.17 111,-6.33 111,-6.33 111,-12.67 111,-12.67 111,-15.83 107.83,-19 104.67,-19"/>
<text text-anchor="middle" x="55.5" y="-7" font-family="Helvetica,sans-Serif" font-size="10.00">mainOncePerEpoch</text>
</a>
</g>
</g>
<!-- Node1&#45;&gt;Node2 -->
<g id="edge1_Node000001_Node000002" class="edge">
<title>Node1&#45;&gt;Node2</title>
<g id="a_edge1_Node000001_Node000002"><a xlink:title=" ">
<path fill="none" stroke="#63b8ff" d="M136.65,-9.5C128.59,-9.5 119.92,-9.5 111.37,-9.5"/>
<polygon fill="#63b8ff" stroke="#63b8ff" points="136.83,-13 146.83,-9.5 136.83,-6 136.83,-13"/>
</a>
</g>
</g>
</g>
</svg>
