<?xml version="1.0" encoding="UTF-8" standalone="no"?>
<!DOCTYPE svg PUBLIC "-//W3C//DTD SVG 1.1//EN"
 "http://www.w3.org/Graphics/SVG/1.1/DTD/svg11.dtd">
<!-- Generated by graphviz version 2.43.0 (0)
 -->
<!-- Title: mainOncePerEpochPerSatellite Pages: 1 -->
<svg width="634pt" height="322pt"
 viewBox="0.00 0.00 634.00 321.85" xmlns="http://www.w3.org/2000/svg" xmlns:xlink="http://www.w3.org/1999/xlink">
<g id="graph0" class="graph" transform="scale(1 1) rotate(0) translate(4 317.85)">
<title>mainOncePerEpochPerSatellite</title>
<!-- Node1 -->
<g id="Node000001" class="node">
<title>Node1</title>
<g id="a_Node000001"><a xlink:href="main_8cpp.html#a79eb17a8eaafbf1dde7569cb7eae3b7e" target="_top" xlink:title=" ">
<path fill="#fff0f0" stroke="red" stroke-width="2" d="M160.67,-171C160.67,-171 6.33,-171 6.33,-171 3.17,-171 0,-167.83 0,-164.67 0,-164.67 0,-158.33 0,-158.33 0,-155.17 3.17,-152 6.33,-152 6.33,-152 160.67,-152 160.67,-152 163.83,-152 167,-155.17 167,-158.33 167,-158.33 167,-164.67 167,-164.67 167,-167.83 163.83,-171 160.67,-171"/>
<text text-anchor="middle" x="83.5" y="-159" font-family="Helvetica,sans-Serif" font-size="10.00">mainOncePerEpochPerSatellite</text>
</a>
</g>
</g>
<!-- Node2 -->
<g id="Node000002" class="node">
<title>Node2</title>
<g id="a_Node000002"><a xlink:href="structACSConfig.html#a20ca3689eafecfa2b7e656c28e340256" target="_top" xlink:title="Set satellite options for a specific satellite using a hierarchy of sources.">
<path fill="#fff0f0" stroke="red" d="M479.67,-227C479.67,-227 365.33,-227 365.33,-227 362.17,-227 359,-223.83 359,-220.67 359,-220.67 359,-214.33 359,-214.33 359,-211.17 362.17,-208 365.33,-208 365.33,-208 479.67,-208 479.67,-208 482.83,-208 486,-211.17 486,-214.33 486,-214.33 486,-220.67 486,-220.67 486,-223.83 482.83,-227 479.67,-227"/>
<text text-anchor="middle" x="422.5" y="-215" font-family="Helvetica,sans-Serif" font-size="10.00">ACSConfig::getSatOpts</text>
</a>
</g>
</g>
<!-- Node1&#45;&gt;Node2 -->
<g id="edge1_Node000001_Node000002" class="edge">
<title>Node1&#45;&gt;Node2</title>
<g id="a_edge1_Node000001_Node000002"><a xlink:title=" ">
<path fill="none" stroke="#63b8ff" d="M92.83,-171.31C109.46,-195.57 149.8,-255.5 203,-278.5 251.95,-299.66 275.65,-303.04 323,-278.5 344.36,-267.43 338.83,-249.43 352.02,-233.98"/>
<polygon fill="#63b8ff" stroke="#63b8ff" points="354.53,-236.43 359.55,-227.1 349.81,-231.26 354.53,-236.43"/>
</a>
</g>
</g>
<!-- Node1&#45;&gt;Node2 -->
<g id="edge19_Node000001_Node000002" class="edge">
<title>Node1&#45;&gt;Node2</title>
<g id="a_edge19_Node000001_Node000002"><a xlink:title=" ">
<path fill="none" stroke="#63b8ff" d="M87.75,-171.1C99.63,-198.09 143.19,-270.64 203,-296.5 251.95,-317.66 275.65,-321.04 323,-296.5 347.63,-283.74 336.51,-261.75 359,-245.5 369.31,-238.05 382.58,-233.48 394.24,-229.94"/>
<polygon fill="#63b8ff" stroke="#63b8ff" points="395.37,-233.26 403.96,-227.05 393.37,-226.55 395.37,-233.26"/>
</a>
</g>
</g>
<!-- Node3 -->
<g id="Node000003" class="node">
<title>Node3</title>
<g id="a_Node000003"><a xlink:href="structSatSys.html#aec6d07b90d1e8172b8b6a6966abef4fd" target="_top" xlink:title="Returns a std::string of this satellite&#39;s id.">
<path fill="#fff0f0" stroke="red" d="M600.17,-264C600.17,-264 547.83,-264 547.83,-264 544.67,-264 541.5,-260.83 541.5,-257.67 541.5,-257.67 541.5,-251.33 541.5,-251.33 541.5,-248.17 544.67,-245 547.83,-245 547.83,-245 600.17,-245 600.17,-245 603.33,-245 606.5,-248.17 606.5,-251.33 606.5,-251.33 606.5,-257.67 606.5,-257.67 606.5,-260.83 603.33,-264 600.17,-264"/>
<text text-anchor="middle" x="574" y="-252" font-family="Helvetica,sans-Serif" font-size="10.00">SatSys::id</text>
</a>
</g>
</g>
<!-- Node1&#45;&gt;Node3 -->
<g id="edge9_Node000001_Node000003" class="edge">
<title>Node1&#45;&gt;Node3</title>
<g id="a_edge9_Node000001_Node000003"><a xlink:title=" ">
<path fill="none" stroke="#63b8ff" d="M111.07,-171.1C158.86,-193.38 263.29,-245.73 359,-264.5 414.39,-275.36 429.88,-270.56 486,-264.5 500.97,-262.88 517.13,-259.75 531.42,-256.98"/>
<polygon fill="#63b8ff" stroke="#63b8ff" points="532.29,-260.38 541.45,-255.05 530.97,-253.5 532.29,-260.38"/>
</a>
</g>
</g>
<!-- Node1&#45;&gt;Node3 -->
<g id="edge15_Node000001_Node000003" class="edge">
<title>Node1&#45;&gt;Node3</title>
<g id="a_edge15_Node000001_Node000003"><a xlink:title=" ">
<path fill="none" stroke="#63b8ff" d="M94.76,-171.05C130.04,-196.38 250.16,-261.15 359,-282.5 414.39,-293.36 429.88,-288.56 486,-282.5 508.61,-280.06 533.97,-274.15 551.45,-267.85"/>
<polygon fill="#63b8ff" stroke="#63b8ff" points="552.77,-271.1 560.75,-264.13 550.16,-264.6 552.77,-271.1"/>
</a>
</g>
</g>
<!-- Node12 -->
<g id="Node000012" class="node">
<title>Node12</title>
<g id="a_Node000012"><a xlink:href="structSatSys.html#a01de9e9cee76346f43550516bba9558e" target="_top" xlink:title=" ">
<path fill="#fff0f0" stroke="red" d="M619.67,-222C619.67,-222 528.33,-222 528.33,-222 525.17,-222 522,-218.83 522,-215.67 522,-215.67 522,-209.33 522,-209.33 522,-206.17 525.17,-203 528.33,-203 528.33,-203 619.67,-203 619.67,-203 622.83,-203 626,-206.17 626,-209.33 626,-209.33 626,-215.67 626,-215.67 626,-218.83 622.83,-222 619.67,-222"/>
<text text-anchor="middle" x="574" y="-210" font-family="Helvetica,sans-Serif" font-size="10.00">SatSys::blockType</text>
</a>
</g>
</g>
<!-- Node1&#45;&gt;Node12 -->
<g id="edge13_Node000001_Node000012" class="edge">
<title>Node1&#45;&gt;Node12</title>
<g id="a_edge13_Node000001_Node000012"><a xlink:title=" ">
<path fill="none" stroke="#63b8ff" d="M135.93,-151.96C156.68,-148.56 180.9,-145.17 203,-143.5 256.18,-139.48 270.15,-136.34 323,-143.5 401.31,-154.11 489.76,-182.6 537.63,-199.47"/>
<polygon fill="#63b8ff" stroke="#63b8ff" points="536.61,-202.83 547.21,-202.89 538.96,-196.23 536.61,-202.83"/>
</a>
</g>
</g>
<!-- Node13 -->
<g id="Node000013" class="node">
<title>Node13</title>
<g id="a_Node000013"><a xlink:href="structSatSys.html#a1da3994cf03ff0ec115928954c9307bb" target="_top" xlink:title=" ">
<path fill="#fff0f0" stroke="red" d="M604.17,-180C604.17,-180 543.83,-180 543.83,-180 540.67,-180 537.5,-176.83 537.5,-173.67 537.5,-173.67 537.5,-167.33 537.5,-167.33 537.5,-164.17 540.67,-161 543.83,-161 543.83,-161 604.17,-161 604.17,-161 607.33,-161 610.5,-164.17 610.5,-167.33 610.5,-167.33 610.5,-173.67 610.5,-173.67 610.5,-176.83 607.33,-180 604.17,-180"/>
<text text-anchor="middle" x="574" y="-168" font-family="Helvetica,sans-Serif" font-size="10.00">SatSys::svn</text>
</a>
</g>
</g>
<!-- Node1&#45;&gt;Node13 -->
<g id="edge8_Node000001_Node000013" class="edge">
<title>Node1&#45;&gt;Node13</title>
<g id="a_edge8_Node000001_Node000013"><a xlink:title=" ">
<path fill="none" stroke="#63b8ff" d="M167.17,-167.57C179.16,-169.14 191.37,-170.57 203,-171.5 319.53,-180.78 457.28,-171.82 527.25,-169.09"/>
<polygon fill="#63b8ff" stroke="#63b8ff" points="527.61,-172.58 537.48,-168.72 527.36,-165.58 527.61,-172.58"/>
</a>
</g>
</g>
<!-- Node1&#45;&gt;Node13 -->
<g id="edge14_Node000001_Node000013" class="edge">
<title>Node1&#45;&gt;Node13</title>
<g id="a_edge14_Node000001_Node000013"><a xlink:title=" ">
<path fill="none" stroke="#63b8ff" d="M100.89,-171C123.66,-178.61 166.24,-186.57 203,-189.5 319.53,-198.78 457.28,-189.82 527.25,-180.63"/>
<polygon fill="#63b8ff" stroke="#63b8ff" points="528.05,-184.05 537.48,-179.22 527.09,-177.12 528.05,-184.05"/>
</a>
</g>
</g>
<!-- Node24 -->
<g id="Node000024" class="node">
<title>Node24</title>
<g id="a_Node000024"><a xlink:href="structSatSys.html#a2ddfec2df97dea21d4c8b04502d75c3a" target="_top" xlink:title=" ">
<path fill="#fff0f0" stroke="red" d="M301.17,-171C301.17,-171 224.83,-171 224.83,-171 221.67,-171 218.5,-167.83 218.5,-164.67 218.5,-164.67 218.5,-158.33 218.5,-158.33 218.5,-155.17 221.67,-152 224.83,-152 224.83,-152 301.17,-152 301.17,-152 304.33,-152 307.5,-155.17 307.5,-158.33 307.5,-158.33 307.5,-164.67 307.5,-164.67 307.5,-167.83 304.33,-171 301.17,-171"/>
<text text-anchor="middle" x="263" y="-159" font-family="Helvetica,sans-Serif" font-size="10.00">SatSys::setSvn</text>
</a>
</g>
</g>
<!-- Node1&#45;&gt;Node24 -->
<g id="edge10_Node000001_Node000024" class="edge">
<title>Node1&#45;&gt;Node24</title>
<g id="a_edge10_Node000001_Node000024"><a xlink:title=" ">
<path fill="none" stroke="#63b8ff" d="M167.01,-154.76C181.02,-154.7 195.23,-154.86 208.24,-155.24"/>
<polygon fill="#63b8ff" stroke="#63b8ff" points="208.28,-158.74 218.39,-155.6 208.52,-151.75 208.28,-158.74"/>
</a>
</g>
</g>
<!-- Node1&#45;&gt;Node24 -->
<g id="edge12_Node000001_Node000024" class="edge">
<title>Node1&#45;&gt;Node24</title>
<g id="a_edge12_Node000001_Node000024"><a xlink:title=" ">
<path fill="none" stroke="#63b8ff" d="M167.01,-168.24C181.02,-168.3 195.23,-168.14 208.24,-167.76"/>
<polygon fill="#63b8ff" stroke="#63b8ff" points="208.52,-171.25 218.39,-167.4 208.28,-164.26 208.52,-171.25"/>
</a>
</g>
</g>
<!-- Node25 -->
<g id="Node000025" class="node">
<title>Node25</title>
<g id="a_Node000025"><a xlink:href="structSatSys.html#aa2f7732319c19c6aa872606483a9c471" target="_top" xlink:title=" ">
<path fill="#fff0f0" stroke="red" d="M316.67,-95C316.67,-95 209.33,-95 209.33,-95 206.17,-95 203,-91.83 203,-88.67 203,-88.67 203,-82.33 203,-82.33 203,-79.17 206.17,-76 209.33,-76 209.33,-76 316.67,-76 316.67,-76 319.83,-76 323,-79.17 323,-82.33 323,-82.33 323,-88.67 323,-88.67 323,-91.83 319.83,-95 316.67,-95"/>
<text text-anchor="middle" x="263" y="-83" font-family="Helvetica,sans-Serif" font-size="10.00">SatSys::setBlockType</text>
</a>
</g>
</g>
<!-- Node1&#45;&gt;Node25 -->
<g id="edge16_Node000001_Node000025" class="edge">
<title>Node1&#45;&gt;Node25</title>
<g id="a_edge16_Node000001_Node000025"><a xlink:title=" ">
<path fill="none" stroke="#63b8ff" d="M94.6,-151.93C115.01,-138.8 162.65,-117.56 203,-100.5 204.2,-99.99 205.42,-99.48 206.65,-98.96"/>
<polygon fill="#63b8ff" stroke="#63b8ff" points="208.3,-102.07 216.21,-95.02 205.63,-95.6 208.3,-102.07"/>
</a>
</g>
</g>
<!-- Node1&#45;&gt;Node25 -->
<g id="edge18_Node000001_Node000025" class="edge">
<title>Node1&#45;&gt;Node25</title>
<g id="a_edge18_Node000001_Node000025"><a xlink:title=" ">
<path fill="none" stroke="#63b8ff" d="M123.35,-151.98C146.42,-142.9 176.31,-129.78 203,-118.5 216.85,-112.65 232.62,-106.24 244.38,-100.18"/>
<polygon fill="#63b8ff" stroke="#63b8ff" points="246.21,-103.16 253.17,-95.18 242.75,-97.08 246.21,-103.16"/>
</a>
</g>
</g>
<!-- Node26 -->
<g id="Node000026" class="node">
<title>Node26</title>
<g id="a_Node000026"><a xlink:href="ephemeris_8cpp.html#a346b6446fcd54ef489b40cf028168b5c" target="_top" xlink:title="compute satellite position and clock satellite clock does not include code bias correction (tgd or bg...">
<path fill="#fff0f0" stroke="red" d="M440.67,-264C440.67,-264 404.33,-264 404.33,-264 401.17,-264 398,-260.83 398,-257.67 398,-257.67 398,-251.33 398,-251.33 398,-248.17 401.17,-245 404.33,-245 404.33,-245 440.67,-245 440.67,-245 443.83,-245 447,-248.17 447,-251.33 447,-251.33 447,-257.67 447,-257.67 447,-260.83 443.83,-264 440.67,-264"/>
<text text-anchor="middle" x="422.5" y="-252" font-family="Helvetica,sans-Serif" font-size="10.00">satpos</text>
</a>
</g>
</g>
<!-- Node1&#45;&gt;Node26 -->
<g id="edge20_Node000001_Node000026" class="edge">
<title>Node1&#45;&gt;Node26</title>
<g id="a_edge20_Node000001_Node000026"><a xlink:title=" ">
<path fill="none" stroke="#63b8ff" d="M92.43,-151.85C109.86,-131.48 153.9,-84.61 203,-67.5 253.36,-49.95 281.54,-33.95 323,-67.5 382.69,-115.82 306.65,-180.32 359,-236.5 366.53,-244.58 377.42,-249.11 388.01,-251.63"/>
<polygon fill="#63b8ff" stroke="#63b8ff" points="387.48,-255.09 397.95,-253.47 388.76,-248.21 387.48,-255.09"/>
</a>
</g>
</g>
<!-- Node66 -->
<g id="Node000066" class="node">
<title>Node66</title>
<g id="a_Node000066"><a xlink:href="attitude_8cpp.html#a0584e56d2ad0d93d89079e841a6dba28" target="_top" xlink:title="Update sat nominal/model yaws.">
<path fill="#fff0f0" stroke="red" d="M299.67,-19C299.67,-19 226.33,-19 226.33,-19 223.17,-19 220,-15.83 220,-12.67 220,-12.67 220,-6.33 220,-6.33 220,-3.17 223.17,0 226.33,0 226.33,0 299.67,0 299.67,0 302.83,0 306,-3.17 306,-6.33 306,-6.33 306,-12.67 306,-12.67 306,-15.83 302.83,-19 299.67,-19"/>
<text text-anchor="middle" x="263" y="-7" font-family="Helvetica,sans-Serif" font-size="10.00">updateSatAtts</text>
</a>
</g>
</g>
<!-- Node1&#45;&gt;Node66 -->
<g id="edge23_Node000001_Node000066" class="edge">
<title>Node1&#45;&gt;Node66</title>
<g id="a_edge23_Node000001_Node000066"><a xlink:title=" ">
<path fill="none" stroke="#63b8ff" d="M91.13,-151.81C107.55,-128.47 152.44,-68.47 203,-33.5 208.74,-29.53 215.24,-26.05 221.78,-23.08"/>
<polygon fill="#63b8ff" stroke="#63b8ff" points="223.44,-26.17 231.29,-19.07 220.72,-19.72 223.44,-26.17"/>
</a>
</g>
</g>
<!-- Node2&#45;&gt;Node3 -->
<g id="edge2_Node000002_Node000003" class="edge">
<title>Node2&#45;&gt;Node3</title>
<g id="a_edge2_Node000002_Node000003"><a xlink:title=" ">
<path fill="none" stroke="#63b8ff" d="M486.04,-226.31C506.18,-231.02 527.54,-236.71 544.05,-241.87"/>
<polygon fill="#63b8ff" stroke="#63b8ff" points="543.05,-245.23 553.65,-245 545.22,-238.57 543.05,-245.23"/>
</a>
</g>
</g>
<!-- Node2&#45;&gt;Node3 -->
<g id="edge3_Node000002_Node000003" class="edge">
<title>Node2&#45;&gt;Node3</title>
<g id="a_edge3_Node000002_Node000003"><a xlink:title=" ">
<path fill="none" stroke="#63b8ff" d="M443.04,-227.07C465.42,-234.71 502.7,-244.39 531.61,-250.37"/>
<polygon fill="#63b8ff" stroke="#63b8ff" points="530.95,-253.81 541.44,-252.32 532.31,-246.94 530.95,-253.81"/>
</a>
</g>
</g>
<!-- Node2&#45;&gt;Node12 -->
<g id="edge4_Node000002_Node000012" class="edge">
<title>Node2&#45;&gt;Node12</title>
<g id="a_edge4_Node000002_Node000012"><a xlink:title=" ">
<path fill="none" stroke="#63b8ff" d="M486.04,-208.74C494.45,-208.35 503.09,-208.06 511.49,-207.9"/>
<polygon fill="#63b8ff" stroke="#63b8ff" points="511.64,-211.4 521.59,-207.77 511.55,-204.4 511.64,-211.4"/>
</a>
</g>
</g>
<!-- Node2&#45;&gt;Node12 -->
<g id="edge5_Node000002_Node000012" class="edge">
<title>Node2&#45;&gt;Node12</title>
<g id="a_edge5_Node000002_Node000012"><a xlink:title=" ">
<path fill="none" stroke="#63b8ff" d="M486.04,-222.08C494.45,-221.91 503.09,-221.62 511.49,-221.21"/>
<polygon fill="#63b8ff" stroke="#63b8ff" points="511.79,-224.7 521.59,-220.67 511.42,-217.71 511.79,-224.7"/>
</a>
</g>
</g>
<!-- Node2&#45;&gt;Node13 -->
<g id="edge6_Node000002_Node000013" class="edge">
<title>Node2&#45;&gt;Node13</title>
<g id="a_edge6_Node000002_Node000013"><a xlink:title=" ">
<path fill="none" stroke="#63b8ff" d="M439.78,-207.98C460.66,-199.14 497.7,-186.87 527.44,-178.55"/>
<polygon fill="#63b8ff" stroke="#63b8ff" points="528.48,-181.9 537.21,-175.89 526.64,-175.14 528.48,-181.9"/>
</a>
</g>
</g>
<!-- Node2&#45;&gt;Node13 -->
<g id="edge7_Node000002_Node000013" class="edge">
<title>Node2&#45;&gt;Node13</title>
<g id="a_edge7_Node000002_Node000013"><a xlink:title=" ">
<path fill="none" stroke="#63b8ff" d="M474.53,-207.9C498.99,-200.87 527.23,-191.6 547.18,-183.87"/>
<polygon fill="#63b8ff" stroke="#63b8ff" points="548.55,-187.09 556.52,-180.1 545.93,-180.6 548.55,-187.09"/>
</a>
</g>
</g>
<!-- Node24&#45;&gt;Node13 -->
<g id="edge11_Node000024_Node000013" class="edge">
<title>Node24&#45;&gt;Node13</title>
<g id="a_edge11_Node000024_Node000013"><a xlink:title=" ">
<path fill="none" stroke="#63b8ff" d="M307.84,-153.67C323.88,-151.17 342.21,-148.73 359,-147.5 415.29,-143.37 430.03,-140.23 486,-147.5 502.11,-149.59 519.49,-153.78 534.45,-158.02"/>
<polygon fill="#63b8ff" stroke="#63b8ff" points="533.79,-161.47 544.37,-160.93 535.76,-154.76 533.79,-161.47"/>
</a>
</g>
</g>
<!-- Node25&#45;&gt;Node12 -->
<g id="edge17_Node000025_Node000012" class="edge">
<title>Node25&#45;&gt;Node12</title>
<g id="a_edge17_Node000025_Node000012"><a xlink:title=" ">
<path fill="none" stroke="#63b8ff" d="M323.43,-76.79C371.72,-73.01 439.25,-75.57 486,-109.5 517.55,-132.4 494.44,-161.92 522,-189.5 525.29,-192.8 529.15,-195.67 533.23,-198.15"/>
<polygon fill="#63b8ff" stroke="#63b8ff" points="531.94,-201.43 542.41,-203 535.2,-195.24 531.94,-201.43"/>
</a>
</g>
</g>
<!-- Node26&#45;&gt;Node3 -->
<g id="edge21_Node000026_Node000003" class="edge">
<title>Node26&#45;&gt;Node3</title>
<g id="a_edge21_Node000026_Node000003"><a xlink:title=" ">
<path fill="none" stroke="#63b8ff" d="M447.19,-249.41C469.75,-247.62 504.19,-247.28 531.34,-248.38"/>
<polygon fill="#63b8ff" stroke="#63b8ff" points="531.19,-251.87 541.35,-248.87 531.53,-244.88 531.19,-251.87"/>
</a>
</g>
</g>
<!-- Node26&#45;&gt;Node3 -->
<g id="edge22_Node000026_Node000003" class="edge">
<title>Node26&#45;&gt;Node3</title>
<g id="a_edge22_Node000026_Node000003"><a xlink:title=" ">
<path fill="none" stroke="#63b8ff" d="M447.19,-259.59C469.75,-261.38 504.19,-261.72 531.34,-260.62"/>
<polygon fill="#63b8ff" stroke="#63b8ff" points="531.53,-264.12 541.35,-260.13 531.19,-257.13 531.53,-264.12"/>
</a>
</g>
</g>
<!-- Node66&#45;&gt;Node2 -->
<g id="edge24_Node000066_Node000002" class="edge">
<title>Node66&#45;&gt;Node2</title>
<g id="a_edge24_Node000066_Node000002"><a xlink:title=" ">
<path fill="none" stroke="#63b8ff" d="M298.76,-19.03C307.37,-22.57 316.1,-27.29 323,-33.5 374.97,-80.27 404.55,-161.07 415.98,-198.03"/>
<polygon fill="#63b8ff" stroke="#63b8ff" points="412.62,-199.03 418.83,-207.62 419.33,-197.03 412.62,-199.03"/>
</a>
</g>
</g>
</g>
</svg>
