<?xml version="1.0" encoding="UTF-8" standalone="no"?>
<!DOCTYPE svg PUBLIC "-//W3C//DTD SVG 1.1//EN"
 "http://www.w3.org/Graphics/SVG/1.1/DTD/svg11.dtd">
<!-- Generated by graphviz version 2.43.0 (0)
 -->
<!-- Title: main Pages: 1 -->
<svg width="192pt" height="286pt"
 viewBox="0.00 0.00 192.00 286.00" xmlns="http://www.w3.org/2000/svg" xmlns:xlink="http://www.w3.org/1999/xlink">
<g id="graph0" class="graph" transform="scale(1 1) rotate(0) translate(4 282)">
<title>main</title>
<!-- Node1 -->
<g id="Node000001" class="node">
<title>Node1</title>
<g id="a_Node000001"><a xlink:href="make__otl__blq_8cpp.html#a0ddf1224851353fc92bfbff6f499fa97" target="_top" xlink:title=" ">
<path fill="#fff0f0" stroke="red" stroke-width="2" d="M34.67,-148C34.67,-148 6.33,-148 6.33,-148 3.17,-148 0,-144.83 0,-141.67 0,-141.67 0,-135.33 0,-135.33 0,-132.17 3.17,-129 6.33,-129 6.33,-129 34.67,-129 34.67,-129 37.83,-129 41,-132.17 41,-135.33 41,-135.33 41,-141.67 41,-141.67 41,-144.83 37.83,-148 34.67,-148"/>
<text text-anchor="middle" x="20.5" y="-136" font-family="Helvetica,sans-Serif" font-size="10.00">main</text>
</a>
</g>
</g>
<!-- Node2 -->
<g id="Node000002" class="node">
<title>Node2</title>
<g id="a_Node000002"><a xlink:href="make__otl__blq_8cpp.html#a98f7bd618e2c0a14e80b1b1f026aff06" target="_top" xlink:title=" ">
<path fill="#fff0f0" stroke="red" d="M173.67,-278C173.67,-278 87.33,-278 87.33,-278 84.17,-278 81,-274.83 81,-271.67 81,-271.67 81,-265.33 81,-265.33 81,-262.17 84.17,-259 87.33,-259 87.33,-259 173.67,-259 173.67,-259 176.83,-259 180,-262.17 180,-265.33 180,-265.33 180,-271.67 180,-271.67 180,-274.83 176.83,-278 173.67,-278"/>
<text text-anchor="middle" x="130.5" y="-266" font-family="Helvetica,sans-Serif" font-size="10.00">program_options</text>
</a>
</g>
</g>
<!-- Node1&#45;&gt;Node2 -->
<g id="edge1_Node000001_Node000002" class="edge">
<title>Node1&#45;&gt;Node2</title>
<g id="a_edge1_Node000001_Node000002"><a xlink:title=" ">
<path fill="none" stroke="#63b8ff" d="M23.62,-148.12C28.86,-169.61 44.38,-221.86 77,-250.5 78.34,-251.68 79.77,-252.78 81.26,-253.82"/>
<polygon fill="#63b8ff" stroke="#63b8ff" points="79.9,-257.07 90.33,-258.98 83.37,-250.99 79.9,-257.07"/>
</a>
</g>
</g>
<!-- Node5 -->
<g id="Node000005" class="node">
<title>Node5</title>
<g id="a_Node000005"><a xlink:href="classtide.html#ac0cd838ae31fff573544acfe27ccd055" target="_top" xlink:title=" ">
<path fill="#fff0f0" stroke="red" d="M168.67,-241C168.67,-241 92.33,-241 92.33,-241 89.17,-241 86,-237.83 86,-234.67 86,-234.67 86,-228.33 86,-228.33 86,-225.17 89.17,-222 92.33,-222 92.33,-222 168.67,-222 168.67,-222 171.83,-222 175,-225.17 175,-228.33 175,-228.33 175,-234.67 175,-234.67 175,-237.83 171.83,-241 168.67,-241"/>
<text text-anchor="middle" x="130.5" y="-229" font-family="Helvetica,sans-Serif" font-size="10.00">tide::set_name</text>
</a>
</g>
</g>
<!-- Node1&#45;&gt;Node5 -->
<g id="edge2_Node000001_Node000005" class="edge">
<title>Node1&#45;&gt;Node5</title>
<g id="a_edge2_Node000001_Node000005"><a xlink:title=" ">
<path fill="none" stroke="#63b8ff" d="M26.1,-148.01C34.21,-163.83 52.56,-195.61 77,-213.5 78.86,-214.86 80.84,-216.13 82.89,-217.31"/>
<polygon fill="#63b8ff" stroke="#63b8ff" points="81.71,-220.63 92.23,-221.89 84.8,-214.34 81.71,-220.63"/>
</a>
</g>
</g>
<!-- Node6 -->
<g id="Node000006" class="node">
<title>Node6</title>
<g id="a_Node000006"><a xlink:href="classtide.html#a8730e505a0f6525c4351c3452f78d408" target="_top" xlink:title=" ">
<path fill="#fff0f0" stroke="red" d="M155.67,-204C155.67,-204 105.33,-204 105.33,-204 102.17,-204 99,-200.83 99,-197.67 99,-197.67 99,-191.33 99,-191.33 99,-188.17 102.17,-185 105.33,-185 105.33,-185 155.67,-185 155.67,-185 158.83,-185 162,-188.17 162,-191.33 162,-191.33 162,-197.67 162,-197.67 162,-200.83 158.83,-204 155.67,-204"/>
<text text-anchor="middle" x="130.5" y="-192" font-family="Helvetica,sans-Serif" font-size="10.00">tide::read</text>
</a>
</g>
</g>
<!-- Node1&#45;&gt;Node6 -->
<g id="edge3_Node000001_Node000006" class="edge">
<title>Node1&#45;&gt;Node6</title>
<g id="a_edge3_Node000001_Node000006"><a xlink:title=" ">
<path fill="none" stroke="#63b8ff" d="M33.68,-148.28C44.55,-156.63 61.14,-168.54 77,-176.5 80.98,-178.5 85.24,-180.36 89.54,-182.08"/>
<polygon fill="#63b8ff" stroke="#63b8ff" points="88.35,-185.37 98.94,-185.58 90.8,-178.81 88.35,-185.37"/>
</a>
</g>
</g>
<!-- Node7 -->
<g id="Node000007" class="node">
<title>Node7</title>
<g id="a_Node000007"><a xlink:href="classloading.html#a3a7d2b23507489ed7b16b6ae63c7fbb7" target="_top" xlink:title=" ">
<path fill="#fff0f0" stroke="red" d="M177.67,-167C177.67,-167 83.33,-167 83.33,-167 80.17,-167 77,-163.83 77,-160.67 77,-160.67 77,-154.33 77,-154.33 77,-151.17 80.17,-148 83.33,-148 83.33,-148 177.67,-148 177.67,-148 180.83,-148 184,-151.17 184,-154.33 184,-154.33 184,-160.67 184,-160.67 184,-163.83 180.83,-167 177.67,-167"/>
<text text-anchor="middle" x="130.5" y="-155" font-family="Helvetica,sans-Serif" font-size="10.00">loading::set_name</text>
</a>
</g>
</g>
<!-- Node1&#45;&gt;Node7 -->
<g id="edge4_Node000001_Node000007" class="edge">
<title>Node1&#45;&gt;Node7</title>
<g id="a_edge4_Node000001_Node000007"><a xlink:title=" ">
<path fill="none" stroke="#63b8ff" d="M41.06,-141.94C48.47,-143.24 57.36,-144.81 66.62,-146.44"/>
<polygon fill="#63b8ff" stroke="#63b8ff" points="66.29,-149.93 76.74,-148.22 67.5,-143.04 66.29,-149.93"/>
</a>
</g>
</g>
<!-- Node8 -->
<g id="Node000008" class="node">
<title>Node8</title>
<g id="a_Node000008"><a xlink:href="classloading.html#a62a0ab00d136c28d0563a931be829b79" target="_top" xlink:title=" ">
<path fill="#fff0f0" stroke="red" d="M164.17,-130C164.17,-130 96.83,-130 96.83,-130 93.67,-130 90.5,-126.83 90.5,-123.67 90.5,-123.67 90.5,-117.33 90.5,-117.33 90.5,-114.17 93.67,-111 96.83,-111 96.83,-111 164.17,-111 164.17,-111 167.33,-111 170.5,-114.17 170.5,-117.33 170.5,-117.33 170.5,-123.67 170.5,-123.67 170.5,-126.83 167.33,-130 164.17,-130"/>
<text text-anchor="middle" x="130.5" y="-118" font-family="Helvetica,sans-Serif" font-size="10.00">loading::read</text>
</a>
</g>
</g>
<!-- Node1&#45;&gt;Node8 -->
<g id="edge5_Node000001_Node000008" class="edge">
<title>Node1&#45;&gt;Node8</title>
<g id="a_edge5_Node000001_Node000008"><a xlink:title=" ">
<path fill="none" stroke="#63b8ff" d="M41.06,-135.24C52.11,-133.4 66.47,-131 80.39,-128.68"/>
<polygon fill="#63b8ff" stroke="#63b8ff" points="81.11,-132.11 90.4,-127.02 79.96,-125.21 81.11,-132.11"/>
</a>
</g>
</g>
<!-- Node9 -->
<g id="Node000009" class="node">
<title>Node9</title>
<g id="a_Node000009"><a xlink:href="classtide.html#a80d443b2573cef30a854a842d28fc2b6" target="_top" xlink:title=" ">
<path fill="#fff0f0" stroke="red" d="M166.17,-93C166.17,-93 94.83,-93 94.83,-93 91.67,-93 88.5,-89.83 88.5,-86.67 88.5,-86.67 88.5,-80.33 88.5,-80.33 88.5,-77.17 91.67,-74 94.83,-74 94.83,-74 166.17,-74 166.17,-74 169.33,-74 172.5,-77.17 172.5,-80.33 172.5,-80.33 172.5,-86.67 172.5,-86.67 172.5,-89.83 169.33,-93 166.17,-93"/>
<text text-anchor="middle" x="130.5" y="-81" font-family="Helvetica,sans-Serif" font-size="10.00">tide::fill_ReIm</text>
</a>
</g>
</g>
<!-- Node1&#45;&gt;Node9 -->
<g id="edge6_Node000001_Node000009" class="edge">
<title>Node1&#45;&gt;Node9</title>
<g id="a_edge6_Node000001_Node000009"><a xlink:title=" ">
<path fill="none" stroke="#63b8ff" d="M34.67,-128.72C45.61,-120.92 61.78,-110.07 77,-102.5 81.06,-100.48 85.4,-98.56 89.77,-96.78"/>
<polygon fill="#63b8ff" stroke="#63b8ff" points="91.23,-99.97 99.3,-93.1 88.71,-93.44 91.23,-99.97"/>
</a>
</g>
</g>
<!-- Node10 -->
<g id="Node000010" class="node">
<title>Node10</title>
<g id="a_Node000010"><a xlink:href="load__functions_8cpp.html#a2f235102e0fcc11e04c7cbca6b7ef6cb" target="_top" xlink:title="Compute the loading of a single point.">
<path fill="#fff0f0" stroke="red" d="M163.67,-56C163.67,-56 97.33,-56 97.33,-56 94.17,-56 91,-52.83 91,-49.67 91,-49.67 91,-43.33 91,-43.33 91,-40.17 94.17,-37 97.33,-37 97.33,-37 163.67,-37 163.67,-37 166.83,-37 170,-40.17 170,-43.33 170,-43.33 170,-49.67 170,-49.67 170,-52.83 166.83,-56 163.67,-56"/>
<text text-anchor="middle" x="130.5" y="-44" font-family="Helvetica,sans-Serif" font-size="10.00">load_1_point</text>
</a>
</g>
</g>
<!-- Node1&#45;&gt;Node10 -->
<g id="edge7_Node000001_Node000010" class="edge">
<title>Node1&#45;&gt;Node10</title>
<g id="a_edge7_Node000001_Node000010"><a xlink:title=" ">
<path fill="none" stroke="#63b8ff" d="M26.6,-128.54C35.05,-112.97 53.4,-82.85 77,-65.5 79.5,-63.66 82.19,-61.99 84.99,-60.47"/>
<polygon fill="#63b8ff" stroke="#63b8ff" points="86.65,-63.55 94.19,-56.1 83.65,-57.23 86.65,-63.55"/>
</a>
</g>
</g>
<!-- Node19 -->
<g id="Node000019" class="node">
<title>Node19</title>
<g id="a_Node000019"><a xlink:href="load__functions_8cpp.html#ad27960f488f2fa447a5f0526b1bddf08" target="_top" xlink:title=" ">
<path fill="#fff0f0" stroke="red" d="M157.17,-19C157.17,-19 103.83,-19 103.83,-19 100.67,-19 97.5,-15.83 97.5,-12.67 97.5,-12.67 97.5,-6.33 97.5,-6.33 97.5,-3.17 100.67,0 103.83,0 103.83,0 157.17,0 157.17,0 160.33,0 163.5,-3.17 163.5,-6.33 163.5,-6.33 163.5,-12.67 163.5,-12.67 163.5,-15.83 160.33,-19 157.17,-19"/>
<text text-anchor="middle" x="130.5" y="-7" font-family="Helvetica,sans-Serif" font-size="10.00">write_BLQ</text>
</a>
</g>
</g>
<!-- Node1&#45;&gt;Node19 -->
<g id="edge8_Node000001_Node000019" class="edge">
<title>Node1&#45;&gt;Node19</title>
<g id="a_edge8_Node000001_Node000019"><a xlink:title=" ">
<path fill="none" stroke="#63b8ff" d="M23.79,-128.77C29.28,-107.54 45.15,-56.74 77,-28.5 80.26,-25.61 84,-23.14 87.95,-21.05"/>
<polygon fill="#63b8ff" stroke="#63b8ff" points="89.72,-24.09 97.4,-16.8 86.85,-17.7 89.72,-24.09"/>
</a>
</g>
</g>
</g>
</svg>
