<?xml version="1.0" encoding="UTF-8" standalone="no"?>
<!DOCTYPE svg PUBLIC "-//W3C//DTD SVG 1.1//EN"
 "http://www.w3.org/Graphics/SVG/1.1/DTD/svg11.dtd">
<!-- Generated by graphviz version 2.43.0 (0)
 -->
<!-- Title: minconOnly Pages: 1 -->
<svg width="415pt" height="421pt"
 viewBox="0.00 0.00 415.00 420.87" xmlns="http://www.w3.org/2000/svg" xmlns:xlink="http://www.w3.org/1999/xlink">
<g id="graph0" class="graph" transform="scale(1 1) rotate(0) translate(4 416.87)">
<title>minconOnly</title>
<!-- Node1 -->
<g id="Node000001" class="node">
<title>Node1</title>
<g id="a_Node000001"><a xlink:href="minimumConstraints_8cpp.html#aeb8c374e79e38289a66b8b65d6574141" target="_top" xlink:title=" ">
<path fill="#fff0f0" stroke="red" stroke-width="2" d="M68.67,-206C68.67,-206 6.33,-206 6.33,-206 3.17,-206 0,-202.83 0,-199.67 0,-199.67 0,-193.33 0,-193.33 0,-190.17 3.17,-187 6.33,-187 6.33,-187 68.67,-187 68.67,-187 71.83,-187 75,-190.17 75,-193.33 75,-193.33 75,-199.67 75,-199.67 75,-202.83 71.83,-206 68.67,-206"/>
<text text-anchor="middle" x="37.5" y="-194" font-family="Helvetica,sans-Serif" font-size="10.00">minconOnly</text>
</a>
</g>
</g>
<!-- Node2 -->
<g id="Node000002" class="node">
<title>Node2</title>
<g id="a_Node000002"><a xlink:href="algebraTrace_8cpp.html#aa526df463f08398d3cb422d191c56cfb" target="_top" xlink:title="Returns the type of object that is located at the specified position in a file.">
<path fill="#fff0f0" stroke="red" d="M400.67,-208C400.67,-208 291.33,-208 291.33,-208 288.17,-208 285,-204.83 285,-201.67 285,-201.67 285,-195.33 285,-195.33 285,-192.17 288.17,-189 291.33,-189 291.33,-189 400.67,-189 400.67,-189 403.83,-189 407,-192.17 407,-195.33 407,-195.33 407,-201.67 407,-201.67 407,-204.83 403.83,-208 400.67,-208"/>
<text text-anchor="middle" x="346" y="-196" font-family="Helvetica,sans-Serif" font-size="10.00">getFilterTypeFromFile</text>
</a>
</g>
</g>
<!-- Node1&#45;&gt;Node2 -->
<g id="edge1_Node000001_Node000002" class="edge">
<title>Node1&#45;&gt;Node2</title>
<g id="a_edge1_Node000001_Node000002"><a xlink:title=" ">
<path fill="none" stroke="#63b8ff" d="M38.69,-206.2C39.92,-238.48 48.73,-342.7 111,-385.5 161.54,-420.25 200.84,-423.47 249,-385.5 302.84,-343.05 244.78,-291.02 285,-235.5 291.82,-226.09 301.83,-218.57 311.73,-212.83"/>
<polygon fill="#63b8ff" stroke="#63b8ff" points="313.51,-215.85 320.69,-208.06 310.22,-209.67 313.51,-215.85"/>
</a>
</g>
</g>
<!-- Node3 -->
<g id="Node000003" class="node">
<title>Node3</title>
<g id="a_Node000003"><a xlink:href="algebraTrace_8hpp.html#a11e5c6e06d30600e55dc2c71f015d0f3" target="_top" xlink:title=" ">
<path fill="#fff0f0" stroke="red" d="M239.17,-376C239.17,-376 120.83,-376 120.83,-376 117.67,-376 114.5,-372.83 114.5,-369.67 114.5,-369.67 114.5,-363.33 114.5,-363.33 114.5,-360.17 117.67,-357 120.83,-357 120.83,-357 239.17,-357 239.17,-357 242.33,-357 245.5,-360.17 245.5,-363.33 245.5,-363.33 245.5,-369.67 245.5,-369.67 245.5,-372.83 242.33,-376 239.17,-376"/>
<text text-anchor="middle" x="180" y="-364" font-family="Helvetica,sans-Serif" font-size="10.00">getFilterObjectFromFile</text>
</a>
</g>
</g>
<!-- Node1&#45;&gt;Node3 -->
<g id="edge2_Node000001_Node000003" class="edge">
<title>Node1&#45;&gt;Node3</title>
<g id="a_edge2_Node000001_Node000003"><a xlink:title=" ">
<path fill="none" stroke="#63b8ff" d="M40.63,-206.23C46.81,-232.18 67.14,-303.67 111,-342.5 115.56,-346.54 120.85,-349.91 126.42,-352.72"/>
<polygon fill="#63b8ff" stroke="#63b8ff" points="125.43,-356.11 135.99,-356.94 128.25,-349.7 125.43,-356.11"/>
</a>
</g>
</g>
<!-- Node4 -->
<g id="Node000004" class="node">
<title>Node4</title>
<g id="a_Node000004"><a xlink:href="erp_8cpp.html#afe3874cc58d609f4ccc2b03a5ef632b8" target="_top" xlink:title="Get earth rotation parameter values.">
<path fill="#fff0f0" stroke="red" d="M363.67,-135C363.67,-135 328.33,-135 328.33,-135 325.17,-135 322,-131.83 322,-128.67 322,-128.67 322,-122.33 322,-122.33 322,-119.17 325.17,-116 328.33,-116 328.33,-116 363.67,-116 363.67,-116 366.83,-116 370,-119.17 370,-122.33 370,-122.33 370,-128.67 370,-128.67 370,-131.83 366.83,-135 363.67,-135"/>
<text text-anchor="middle" x="346" y="-123" font-family="Helvetica,sans-Serif" font-size="10.00">getErp</text>
</a>
</g>
</g>
<!-- Node1&#45;&gt;Node4 -->
<g id="edge3_Node000001_Node000004" class="edge">
<title>Node1&#45;&gt;Node4</title>
<g id="a_edge3_Node000001_Node000004"><a xlink:title=" ">
<path fill="none" stroke="#63b8ff" d="M41.2,-206.11C48.22,-229.05 69.48,-286.81 111,-309.5 164.82,-338.91 200.19,-346.63 249,-309.5 296.72,-273.2 253.46,-230.48 285,-179.5 294.41,-164.3 309.34,-150.84 321.95,-141.16"/>
<polygon fill="#63b8ff" stroke="#63b8ff" points="324.23,-143.83 330.21,-135.09 320.08,-138.19 324.23,-143.83"/>
</a>
</g>
</g>
<!-- Node24 -->
<g id="Node000024" class="node">
<title>Node24</title>
<g id="a_Node000024"><a xlink:href="algebraTrace_8cpp.html#abda0fa310f025963b9aa17a48ee8a643" target="_top" xlink:title=" ">
<path fill="#fff0f0" stroke="red" d="M239.67,-300C239.67,-300 120.33,-300 120.33,-300 117.17,-300 114,-296.83 114,-293.67 114,-293.67 114,-287.33 114,-287.33 114,-284.17 117.17,-281 120.33,-281 120.33,-281 239.67,-281 239.67,-281 242.83,-281 246,-284.17 246,-287.33 246,-287.33 246,-293.67 246,-293.67 246,-296.83 242.83,-300 239.67,-300"/>
<text text-anchor="middle" x="180" y="-288" font-family="Helvetica,sans-Serif" font-size="10.00">tryPrepareFilterPointers</text>
</a>
</g>
</g>
<!-- Node1&#45;&gt;Node24 -->
<g id="edge4_Node000001_Node000024" class="edge">
<title>Node1&#45;&gt;Node24</title>
<g id="a_edge4_Node000001_Node000024"><a xlink:title=" ">
<path fill="none" stroke="#63b8ff" d="M44.88,-206.05C56.22,-222.25 81.49,-255.06 111,-272.5 113.98,-274.26 117.14,-275.86 120.39,-277.29"/>
<polygon fill="#63b8ff" stroke="#63b8ff" points="119.17,-280.58 129.76,-280.96 121.72,-274.06 119.17,-280.58"/>
</a>
</g>
</g>
<!-- Node25 -->
<g id="Node000025" class="node">
<title>Node25</title>
<g id="a_Node000025"><a xlink:href="ephemeris_8cpp.html#a346b6446fcd54ef489b40cf028168b5c" target="_top" xlink:title="compute satellite position and clock satellite clock does not include code bias correction (tgd or bg...">
<path fill="#fff0f0" stroke="red" d="M198.17,-263C198.17,-263 161.83,-263 161.83,-263 158.67,-263 155.5,-259.83 155.5,-256.67 155.5,-256.67 155.5,-250.33 155.5,-250.33 155.5,-247.17 158.67,-244 161.83,-244 161.83,-244 198.17,-244 198.17,-244 201.33,-244 204.5,-247.17 204.5,-250.33 204.5,-250.33 204.5,-256.67 204.5,-256.67 204.5,-259.83 201.33,-263 198.17,-263"/>
<text text-anchor="middle" x="180" y="-251" font-family="Helvetica,sans-Serif" font-size="10.00">satpos</text>
</a>
</g>
</g>
<!-- Node1&#45;&gt;Node25 -->
<g id="edge5_Node000001_Node000025" class="edge">
<title>Node1&#45;&gt;Node25</title>
<g id="a_edge5_Node000001_Node000025"><a xlink:title=" ">
<path fill="none" stroke="#63b8ff" d="M58.3,-206.08C72.76,-212.94 92.91,-222.21 111,-229.5 122.11,-233.98 134.42,-238.46 145.48,-242.32"/>
<polygon fill="#63b8ff" stroke="#63b8ff" points="144.61,-245.73 155.21,-245.67 146.89,-239.11 144.61,-245.73"/>
</a>
</g>
</g>
<!-- Node26 -->
<g id="Node000026" class="node">
<title>Node26</title>
<g id="a_Node000026"><a xlink:href="structSatSys.html#aec6d07b90d1e8172b8b6a6966abef4fd" target="_top" xlink:title="Returns a std::string of this satellite&#39;s id.">
<path fill="#fff0f0" stroke="red" d="M372.17,-263C372.17,-263 319.83,-263 319.83,-263 316.67,-263 313.5,-259.83 313.5,-256.67 313.5,-256.67 313.5,-250.33 313.5,-250.33 313.5,-247.17 316.67,-244 319.83,-244 319.83,-244 372.17,-244 372.17,-244 375.33,-244 378.5,-247.17 378.5,-250.33 378.5,-250.33 378.5,-256.67 378.5,-256.67 378.5,-259.83 375.33,-263 372.17,-263"/>
<text text-anchor="middle" x="346" y="-251" font-family="Helvetica,sans-Serif" font-size="10.00">SatSys::id</text>
</a>
</g>
</g>
<!-- Node1&#45;&gt;Node26 -->
<g id="edge8_Node000001_Node000026" class="edge">
<title>Node1&#45;&gt;Node26</title>
<g id="a_edge8_Node000001_Node000026"><a xlink:title=" ">
<path fill="none" stroke="#63b8ff" d="M75.01,-203.24C116.99,-211 187.98,-224.13 249,-235.5 266.81,-238.82 286.47,-242.5 303.34,-245.67"/>
<polygon fill="#63b8ff" stroke="#63b8ff" points="302.97,-249.16 313.44,-247.56 304.26,-242.28 302.97,-249.16"/>
</a>
</g>
</g>
<!-- Node67 -->
<g id="Node000067" class="node">
<title>Node67</title>
<g id="a_Node000067"><a xlink:href="pea__snx_8cpp.html#a998d8ea068788de9c3ca4f572a114e44" target="_top" xlink:title=" ">
<path fill="#fff0f0" stroke="red" d="M242.67,-187C242.67,-187 117.33,-187 117.33,-187 114.17,-187 111,-183.83 111,-180.67 111,-180.67 111,-174.33 111,-174.33 111,-171.17 114.17,-168 117.33,-168 117.33,-168 242.67,-168 242.67,-168 245.83,-168 249,-171.17 249,-174.33 249,-174.33 249,-180.67 249,-180.67 249,-183.83 245.83,-187 242.67,-187"/>
<text text-anchor="middle" x="180" y="-175" font-family="Helvetica,sans-Serif" font-size="10.00">sinexPerEpochPerStation</text>
</a>
</g>
</g>
<!-- Node1&#45;&gt;Node67 -->
<g id="edge9_Node000001_Node000067" class="edge">
<title>Node1&#45;&gt;Node67</title>
<g id="a_edge9_Node000001_Node000067"><a xlink:title=" ">
<path fill="none" stroke="#63b8ff" d="M75.05,-191.56C83.02,-190.48 91.76,-189.3 100.67,-188.09"/>
<polygon fill="#63b8ff" stroke="#63b8ff" points="101.33,-191.54 110.77,-186.73 100.39,-184.6 101.33,-191.54"/>
</a>
</g>
</g>
<!-- Node73 -->
<g id="Node000073" class="node">
<title>Node73</title>
<g id="a_Node000073"><a xlink:href="ppp_8cpp.html#ac02b107ae8826ef55bf8e6e156ef8b63" target="_top" xlink:title="Compare estimated station position with benchmark in SINEX file.">
<path fill="#fff0f0" stroke="red" d="M229.17,-150C229.17,-150 130.83,-150 130.83,-150 127.67,-150 124.5,-146.83 124.5,-143.67 124.5,-143.67 124.5,-137.33 124.5,-137.33 124.5,-134.17 127.67,-131 130.83,-131 130.83,-131 229.17,-131 229.17,-131 232.33,-131 235.5,-134.17 235.5,-137.33 235.5,-137.33 235.5,-143.67 235.5,-143.67 235.5,-146.83 232.33,-150 229.17,-150"/>
<text text-anchor="middle" x="180" y="-138" font-family="Helvetica,sans-Serif" font-size="10.00">selectAprioriSource</text>
</a>
</g>
</g>
<!-- Node1&#45;&gt;Node73 -->
<g id="edge10_Node000001_Node000073" class="edge">
<title>Node1&#45;&gt;Node73</title>
<g id="a_edge10_Node000001_Node000073"><a xlink:title=" ">
<path fill="none" stroke="#63b8ff" d="M54.14,-186.99C68.51,-178.57 90.6,-166.43 111,-158.5 116.12,-156.51 121.54,-154.66 127,-152.97"/>
<polygon fill="#63b8ff" stroke="#63b8ff" points="128.2,-156.27 136.81,-150.09 126.23,-149.55 128.2,-156.27"/>
</a>
</g>
</g>
<!-- Node81 -->
<g id="Node000081" class="node">
<title>Node81</title>
<g id="a_Node000081"><a xlink:href="structKFState.html#a0c84e911a5ea760fe728baec661e33f0" target="_top" xlink:title="Output keys and states in human readable format.">
<path fill="#fff0f0" stroke="red" d="M400.67,-80C400.67,-80 291.33,-80 291.33,-80 288.17,-80 285,-76.83 285,-73.67 285,-73.67 285,-67.33 285,-67.33 285,-64.17 288.17,-61 291.33,-61 291.33,-61 400.67,-61 400.67,-61 403.83,-61 407,-64.17 407,-67.33 407,-67.33 407,-73.67 407,-73.67 407,-76.83 403.83,-80 400.67,-80"/>
<text text-anchor="middle" x="346" y="-68" font-family="Helvetica,sans-Serif" font-size="10.00">KFState::outputStates</text>
</a>
</g>
</g>
<!-- Node1&#45;&gt;Node81 -->
<g id="edge11_Node000001_Node000081" class="edge">
<title>Node1&#45;&gt;Node81</title>
<g id="a_edge11_Node000001_Node000081"><a xlink:title=" ">
<path fill="none" stroke="#63b8ff" d="M41.99,-186.8C51.33,-168.16 78.41,-130.66 111,-112.5 161.52,-84.34 226.23,-71.73 274.79,-67.52"/>
<polygon fill="#63b8ff" stroke="#63b8ff" points="275.19,-71 284.9,-66.75 274.66,-64.02 275.19,-71"/>
</a>
</g>
</g>
<!-- Node1&#45;&gt;Node81 -->
<g id="edge18_Node000001_Node000081" class="edge">
<title>Node1&#45;&gt;Node81</title>
<g id="a_edge18_Node000001_Node000081"><a xlink:title=" ">
<path fill="none" stroke="#63b8ff" d="M49.58,-186.91C62.33,-172 84.9,-145.05 111,-130.5 164.57,-100.64 234.1,-88.26 283.41,-81.41"/>
<polygon fill="#63b8ff" stroke="#63b8ff" points="284.17,-84.83 293.61,-80.02 283.23,-77.9 284.17,-84.83"/>
</a>
</g>
</g>
<!-- Node82 -->
<g id="Node000082" class="node">
<title>Node82</title>
<g id="a_Node000082"><a xlink:href="minimumConstraints_8cpp.html#aa40934b017f373d875c3470591eff52e" target="_top" xlink:title=" ">
<path fill="#fff0f0" stroke="red" d="M200.17,-56C200.17,-56 159.83,-56 159.83,-56 156.67,-56 153.5,-52.83 153.5,-49.67 153.5,-49.67 153.5,-43.33 153.5,-43.33 153.5,-40.17 156.67,-37 159.83,-37 159.83,-37 200.17,-37 200.17,-37 203.33,-37 206.5,-40.17 206.5,-43.33 206.5,-43.33 206.5,-49.67 206.5,-49.67 206.5,-52.83 203.33,-56 200.17,-56"/>
<text text-anchor="middle" x="180" y="-44" font-family="Helvetica,sans-Serif" font-size="10.00">mincon</text>
</a>
</g>
</g>
<!-- Node1&#45;&gt;Node82 -->
<g id="edge12_Node000001_Node000082" class="edge">
<title>Node1&#45;&gt;Node82</title>
<g id="a_edge12_Node000001_Node000082"><a xlink:title=" ">
<path fill="none" stroke="#63b8ff" d="M41.47,-186.75C49.11,-163.3 71.62,-103.27 111,-70.5 120.3,-62.76 132.28,-57.44 143.58,-53.82"/>
<polygon fill="#63b8ff" stroke="#63b8ff" points="144.6,-57.17 153.25,-51.06 142.68,-50.44 144.6,-57.17"/>
</a>
</g>
</g>
<!-- Node128 -->
<g id="Node000128" class="node">
<title>Node128</title>
<g id="a_Node000128"><a xlink:href="minimumConstraints_8cpp.html#ab6be6b79385844aff6e5935fe285c44a" target="_top" xlink:title=" ">
<path fill="#fff0f0" stroke="red" d="M237.67,-19C237.67,-19 122.33,-19 122.33,-19 119.17,-19 116,-15.83 116,-12.67 116,-12.67 116,-6.33 116,-6.33 116,-3.17 119.17,0 122.33,0 122.33,0 237.67,0 237.67,0 240.83,0 244,-3.17 244,-6.33 244,-6.33 244,-12.67 244,-12.67 244,-15.83 240.83,-19 237.67,-19"/>
<text text-anchor="middle" x="180" y="-7" font-family="Helvetica,sans-Serif" font-size="10.00">outputMinconStatistics</text>
</a>
</g>
</g>
<!-- Node1&#45;&gt;Node128 -->
<g id="edge17_Node000001_Node000128" class="edge">
<title>Node1&#45;&gt;Node128</title>
<g id="a_edge17_Node000001_Node000128"><a xlink:title=" ">
<path fill="none" stroke="#63b8ff" d="M39.71,-186.75C43.82,-157.78 60.01,-71.52 111,-27.5 112.37,-26.32 113.8,-25.22 115.29,-24.19"/>
<polygon fill="#63b8ff" stroke="#63b8ff" points="117.41,-27.01 124.37,-19.02 113.94,-20.93 117.41,-27.01"/>
</a>
</g>
</g>
<!-- Node25&#45;&gt;Node26 -->
<g id="edge6_Node000025_Node000026" class="edge">
<title>Node25&#45;&gt;Node26</title>
<g id="a_edge6_Node000025_Node000026"><a xlink:title=" ">
<path fill="none" stroke="#63b8ff" d="M204.85,-248.57C230.55,-246.56 271.95,-246.22 303.11,-247.53"/>
<polygon fill="#63b8ff" stroke="#63b8ff" points="303.08,-251.03 313.24,-248.03 303.43,-244.04 303.08,-251.03"/>
</a>
</g>
</g>
<!-- Node25&#45;&gt;Node26 -->
<g id="edge7_Node000025_Node000026" class="edge">
<title>Node25&#45;&gt;Node26</title>
<g id="a_edge7_Node000025_Node000026"><a xlink:title=" ">
<path fill="none" stroke="#63b8ff" d="M204.85,-258.43C230.55,-260.44 271.95,-260.78 303.11,-259.47"/>
<polygon fill="#63b8ff" stroke="#63b8ff" points="303.43,-262.96 313.24,-258.97 303.08,-255.97 303.43,-262.96"/>
</a>
</g>
</g>
<!-- Node82&#45;&gt;Node2 -->
<g id="edge13_Node000082_Node000002" class="edge">
<title>Node82&#45;&gt;Node2</title>
<g id="a_edge13_Node000082_Node000002"><a xlink:title=" ">
<path fill="none" stroke="#63b8ff" d="M191.31,-56.17C209.95,-73.65 250.56,-111.65 285,-143.5 298.99,-156.44 314.9,-171.01 326.81,-181.9"/>
<polygon fill="#63b8ff" stroke="#63b8ff" points="324.61,-184.63 334.35,-188.79 329.33,-179.46 324.61,-184.63"/>
</a>
</g>
</g>
<!-- Node82&#45;&gt;Node4 -->
<g id="edge14_Node000082_Node000004" class="edge">
<title>Node82&#45;&gt;Node4</title>
<g id="a_edge14_Node000082_Node000004"><a xlink:title=" ">
<path fill="none" stroke="#63b8ff" d="M200.78,-56.03C229.47,-69.85 282.81,-95.54 315.96,-111.51"/>
<polygon fill="#63b8ff" stroke="#63b8ff" points="314.62,-114.75 325.15,-115.94 317.66,-108.44 314.62,-114.75"/>
</a>
</g>
</g>
<!-- Node82&#45;&gt;Node81 -->
<g id="edge15_Node000082_Node000081" class="edge">
<title>Node82&#45;&gt;Node81</title>
<g id="a_edge15_Node000082_Node000081"><a xlink:title=" ">
<path fill="none" stroke="#63b8ff" d="M206.62,-45.19C233.25,-47.14 275.26,-53.02 306.01,-58.95"/>
<polygon fill="#63b8ff" stroke="#63b8ff" points="305.47,-62.41 315.96,-60.95 306.85,-55.55 305.47,-62.41"/>
</a>
</g>
</g>
<!-- Node82&#45;&gt;Node81 -->
<g id="edge16_Node000082_Node000081" class="edge">
<title>Node82&#45;&gt;Node81</title>
<g id="a_edge16_Node000082_Node000081"><a xlink:title=" ">
<path fill="none" stroke="#63b8ff" d="M206.62,-55.31C224.99,-59.34 250.68,-63.64 274.94,-66.93"/>
<polygon fill="#63b8ff" stroke="#63b8ff" points="274.49,-70.4 284.86,-68.23 275.4,-63.46 274.49,-70.4"/>
</a>
</g>
</g>
</g>
</svg>
