<?xml version="1.0" encoding="UTF-8" standalone="no"?>
<!DOCTYPE svg PUBLIC "-//W3C//DTD SVG 1.1//EN"
 "http://www.w3.org/Graphics/SVG/1.1/DTD/svg11.dtd">
<!-- Generated by graphviz version 2.43.0 (0)
 -->
<!-- Title: mincon Pages: 1 -->
<svg width="251pt" height="261pt"
 viewBox="0.00 0.00 251.00 261.00" xmlns="http://www.w3.org/2000/svg" xmlns:xlink="http://www.w3.org/1999/xlink">
<g id="graph0" class="graph" transform="scale(1 1) rotate(0) translate(4 257)">
<title>mincon</title>
<!-- Node1 -->
<g id="Node000001" class="node">
<title>Node1</title>
<g id="a_Node000001"><a xlink:href="minimumConstraints_8cpp.html#aa40934b017f373d875c3470591eff52e" target="_top" xlink:title=" ">
<path fill="#fff0f0" stroke="red" stroke-width="2" d="M236.67,-142C236.67,-142 196.33,-142 196.33,-142 193.17,-142 190,-138.83 190,-135.67 190,-135.67 190,-129.33 190,-129.33 190,-126.17 193.17,-123 196.33,-123 196.33,-123 236.67,-123 236.67,-123 239.83,-123 243,-126.17 243,-129.33 243,-129.33 243,-135.67 243,-135.67 243,-138.83 239.83,-142 236.67,-142"/>
<text text-anchor="middle" x="216.5" y="-130" font-family="Helvetica,sans-Serif" font-size="10.00">mincon</text>
</a>
</g>
</g>
<!-- Node2 -->
<g id="Node000002" class="node">
<title>Node2</title>
<g id="a_Node000002"><a xlink:href="compare_8cpp.html#aa8c289d9d4e60f862fb0a60566b76bd0" target="_top" xlink:title=" ">
<path fill="#fff0f0" stroke="red" d="M115.17,-253C115.17,-253 38.83,-253 38.83,-253 35.67,-253 32.5,-249.83 32.5,-246.67 32.5,-246.67 32.5,-240.33 32.5,-240.33 32.5,-237.17 35.67,-234 38.83,-234 38.83,-234 115.17,-234 115.17,-234 118.33,-234 121.5,-237.17 121.5,-240.33 121.5,-240.33 121.5,-246.67 121.5,-246.67 121.5,-249.83 118.33,-253 115.17,-253"/>
<text text-anchor="middle" x="77" y="-241" font-family="Helvetica,sans-Serif" font-size="10.00">compareOrbits</text>
</a>
</g>
</g>
<!-- Node1&#45;&gt;Node2 -->
<g id="edge1_Node000001_Node000002" class="edge">
<title>Node1&#45;&gt;Node2</title>
<g id="a_edge1_Node000001_Node000002"><a xlink:title=" ">
<path fill="none" stroke="#63b8ff" d="M208.08,-151.47C198.73,-172.82 180.6,-206.93 154,-225.5 144.55,-232.1 133,-236.3 121.78,-238.97"/>
<polygon fill="#63b8ff" stroke="#63b8ff" points="211.35,-152.72 211.96,-142.14 204.89,-150.03 211.35,-152.72"/>
</a>
</g>
</g>
<!-- Node5 -->
<g id="Node000005" class="node">
<title>Node5</title>
<g id="a_Node000005"><a xlink:href="main_8cpp.html#a2b0d1066eac1a878cf982adcdd550ce1" target="_top" xlink:title="Perform any post&#45;final epoch calculations and outputs, then begin reverse smoothing and tidy up.">
<path fill="#fff0f0" stroke="red" d="M128.17,-216C128.17,-216 25.83,-216 25.83,-216 22.67,-216 19.5,-212.83 19.5,-209.67 19.5,-209.67 19.5,-203.33 19.5,-203.33 19.5,-200.17 22.67,-197 25.83,-197 25.83,-197 128.17,-197 128.17,-197 131.33,-197 134.5,-200.17 134.5,-203.33 134.5,-203.33 134.5,-209.67 134.5,-209.67 134.5,-212.83 131.33,-216 128.17,-216"/>
<text text-anchor="middle" x="77" y="-204" font-family="Helvetica,sans-Serif" font-size="10.00">mainPostProcessing</text>
</a>
</g>
</g>
<!-- Node1&#45;&gt;Node5 -->
<g id="edge2_Node000001_Node000005" class="edge">
<title>Node1&#45;&gt;Node5</title>
<g id="a_edge2_Node000001_Node000005"><a xlink:title=" ">
<path fill="none" stroke="#63b8ff" d="M201.14,-149.61C189.64,-162.2 172.44,-178.77 154,-188.5 147.52,-191.92 140.4,-194.69 133.19,-196.95"/>
<polygon fill="#63b8ff" stroke="#63b8ff" points="203.84,-151.83 207.82,-142.01 198.59,-147.21 203.84,-151.83"/>
</a>
</g>
</g>
<!-- Node6 -->
<g id="Node000006" class="node">
<title>Node6</title>
<g id="a_Node000006"><a xlink:href="minimumConstraints_8cpp.html#aeb8c374e79e38289a66b8b65d6574141" target="_top" xlink:title=" ">
<path fill="#fff0f0" stroke="red" d="M108.17,-179C108.17,-179 45.83,-179 45.83,-179 42.67,-179 39.5,-175.83 39.5,-172.67 39.5,-172.67 39.5,-166.33 39.5,-166.33 39.5,-163.17 42.67,-160 45.83,-160 45.83,-160 108.17,-160 108.17,-160 111.33,-160 114.5,-163.17 114.5,-166.33 114.5,-166.33 114.5,-172.67 114.5,-172.67 114.5,-175.83 111.33,-179 108.17,-179"/>
<text text-anchor="middle" x="77" y="-167" font-family="Helvetica,sans-Serif" font-size="10.00">minconOnly</text>
</a>
</g>
</g>
<!-- Node1&#45;&gt;Node6 -->
<g id="edge3_Node000001_Node000006" class="edge">
<title>Node1&#45;&gt;Node6</title>
<g id="a_edge3_Node000001_Node000006"><a xlink:title=" ">
<path fill="none" stroke="#63b8ff" d="M180.19,-143.85C171.65,-146.48 162.52,-149.18 154,-151.5 141.31,-154.96 127.33,-158.38 114.85,-161.3"/>
<polygon fill="#63b8ff" stroke="#63b8ff" points="181.37,-147.15 189.88,-140.84 179.29,-140.47 181.37,-147.15"/>
</a>
</g>
</g>
<!-- Node7 -->
<g id="Node000007" class="node">
<title>Node7</title>
<g id="a_Node000007"><a xlink:href="debug_8cpp.html#a80d24c0bf09dad23394c5fcac25aa80b" target="_top" xlink:title=" ">
<path fill="#fff0f0" stroke="red" d="M112.17,-142C112.17,-142 41.83,-142 41.83,-142 38.67,-142 35.5,-138.83 35.5,-135.67 35.5,-135.67 35.5,-129.33 35.5,-129.33 35.5,-126.17 38.67,-123 41.83,-123 41.83,-123 112.17,-123 112.17,-123 115.33,-123 118.5,-126.17 118.5,-129.33 118.5,-129.33 118.5,-135.67 118.5,-135.67 118.5,-138.83 115.33,-142 112.17,-142"/>
<text text-anchor="middle" x="77" y="-130" font-family="Helvetica,sans-Serif" font-size="10.00">minimumTest</text>
</a>
</g>
</g>
<!-- Node1&#45;&gt;Node7 -->
<g id="edge4_Node000001_Node000007" class="edge">
<title>Node1&#45;&gt;Node7</title>
<g id="a_edge4_Node000001_Node000007"><a xlink:title=" ">
<path fill="none" stroke="#63b8ff" d="M179.75,-132.5C161,-132.5 137.95,-132.5 118.53,-132.5"/>
<polygon fill="#63b8ff" stroke="#63b8ff" points="179.96,-136 189.96,-132.5 179.96,-129 179.96,-136"/>
</a>
</g>
</g>
<!-- Node8 -->
<g id="Node000008" class="node">
<title>Node8</title>
<g id="a_Node000008"><a xlink:href="outputs_8cpp.html#ab72aaa4a378c8714b6de17cc45e9314c" target="_top" xlink:title=" ">
<path fill="#fff0f0" stroke="red" d="M144,-104.5C144,-104.5 10,-104.5 10,-104.5 5,-104.5 0,-99.5 0,-94.5 0,-94.5 0,-84.5 0,-84.5 0,-79.5 5,-74.5 10,-74.5 10,-74.5 144,-74.5 144,-74.5 149,-74.5 154,-79.5 154,-84.5 154,-84.5 154,-94.5 154,-94.5 154,-99.5 149,-104.5 144,-104.5"/>
<text text-anchor="start" x="8" y="-92.5" font-family="Helvetica,sans-Serif" font-size="10.00">perEpochPostProcessingAnd</text>
<text text-anchor="middle" x="77" y="-81.5" font-family="Helvetica,sans-Serif" font-size="10.00">Outputs</text>
</a>
</g>
</g>
<!-- Node1&#45;&gt;Node8 -->
<g id="edge5_Node000001_Node000008" class="edge">
<title>Node1&#45;&gt;Node8</title>
<g id="a_edge5_Node000001_Node000008"><a xlink:title=" ">
<path fill="none" stroke="#63b8ff" d="M180.22,-121.47C163.79,-116.33 144,-110.14 126.22,-104.58"/>
<polygon fill="#63b8ff" stroke="#63b8ff" points="179.37,-124.87 189.96,-124.51 181.46,-118.19 179.37,-124.87"/>
</a>
</g>
</g>
<!-- Node10 -->
<g id="Node000010" class="node">
<title>Node10</title>
<g id="a_Node000010"><a xlink:href="rtsSmoothing_8cpp.html#a65cd5f94ab58227ab032b1e894ca3987" target="_top" xlink:title=" ">
<path fill="#fff0f0" stroke="red" d="M116.67,-56C116.67,-56 37.33,-56 37.33,-56 34.17,-56 31,-52.83 31,-49.67 31,-49.67 31,-43.33 31,-43.33 31,-40.17 34.17,-37 37.33,-37 37.33,-37 116.67,-37 116.67,-37 119.83,-37 123,-40.17 123,-43.33 123,-43.33 123,-49.67 123,-49.67 123,-52.83 119.83,-56 116.67,-56"/>
<text text-anchor="middle" x="77" y="-44" font-family="Helvetica,sans-Serif" font-size="10.00">postRTSActions</text>
</a>
</g>
</g>
<!-- Node1&#45;&gt;Node10 -->
<g id="edge6_Node000001_Node000010" class="edge">
<title>Node1&#45;&gt;Node10</title>
<g id="a_edge6_Node000001_Node000010"><a xlink:title=" ">
<path fill="none" stroke="#63b8ff" d="M203.23,-114C192.14,-98.73 174.45,-77.67 154,-65.5 144.65,-59.94 133.72,-56 123.11,-53.21"/>
<polygon fill="#63b8ff" stroke="#63b8ff" points="200.65,-116.42 209.25,-122.62 206.4,-112.42 200.65,-116.42"/>
</a>
</g>
</g>
<!-- Node12 -->
<g id="Node000012" class="node">
<title>Node12</title>
<g id="a_Node000012"><a xlink:href="ppp__pseudoobs_8cpp.html#ac2b5126ef33590aefb40b9f839bc4ba6" target="_top" xlink:title=" ">
<path fill="#fff0f0" stroke="red" d="M125.67,-19C125.67,-19 28.33,-19 28.33,-19 25.17,-19 22,-15.83 22,-12.67 22,-12.67 22,-6.33 22,-6.33 22,-3.17 25.17,0 28.33,0 28.33,0 125.67,0 125.67,0 128.83,0 132,-3.17 132,-6.33 132,-6.33 132,-12.67 132,-12.67 132,-15.83 128.83,-19 125.67,-19"/>
<text text-anchor="middle" x="77" y="-7" font-family="Helvetica,sans-Serif" font-size="10.00">receiverPseudoObs</text>
</a>
</g>
</g>
<!-- Node1&#45;&gt;Node12 -->
<g id="edge7_Node000001_Node000012" class="edge">
<title>Node1&#45;&gt;Node12</title>
<g id="a_edge7_Node000001_Node000012"><a xlink:title=" ">
<path fill="none" stroke="#63b8ff" d="M209.28,-113.1C200.68,-89.47 182.87,-50.03 154,-28.5 147.57,-23.7 140.06,-20.11 132.32,-17.41"/>
<polygon fill="#63b8ff" stroke="#63b8ff" points="206.03,-114.41 212.59,-122.73 212.65,-112.13 206.03,-114.41"/>
</a>
</g>
</g>
</g>
</svg>
