<?xml version="1.0" encoding="UTF-8" standalone="no"?>
<!DOCTYPE svg PUBLIC "-//W3C//DTD SVG 1.1//EN"
 "http://www.w3.org/Graphics/SVG/1.1/DTD/svg11.dtd">
<!-- Generated by graphviz version 2.43.0 (0)
 -->
<!-- Title: outputMinconStatistics Pages: 1 -->
<svg width="326pt" height="187pt"
 viewBox="0.00 0.00 326.00 187.00" xmlns="http://www.w3.org/2000/svg" xmlns:xlink="http://www.w3.org/1999/xlink">
<g id="graph0" class="graph" transform="scale(1 1) rotate(0) translate(4 183)">
<title>outputMinconStatistics</title>
<!-- Node1 -->
<g id="Node000001" class="node">
<title>Node1</title>
<g id="a_Node000001"><a xlink:href="minimumConstraints_8cpp.html#ab6be6b79385844aff6e5935fe285c44a" target="_top" xlink:title=" ">
<path fill="#fff0f0" stroke="red" stroke-width="2" d="M311.67,-105C311.67,-105 196.33,-105 196.33,-105 193.17,-105 190,-101.83 190,-98.67 190,-98.67 190,-92.33 190,-92.33 190,-89.17 193.17,-86 196.33,-86 196.33,-86 311.67,-86 311.67,-86 314.83,-86 318,-89.17 318,-92.33 318,-92.33 318,-98.67 318,-98.67 318,-101.83 314.83,-105 311.67,-105"/>
<text text-anchor="middle" x="254" y="-93" font-family="Helvetica,sans-Serif" font-size="10.00">outputMinconStatistics</text>
</a>
</g>
</g>
<!-- Node2 -->
<g id="Node000002" class="node">
<title>Node2</title>
<g id="a_Node000002"><a xlink:href="compare_8cpp.html#aa8c289d9d4e60f862fb0a60566b76bd0" target="_top" xlink:title=" ">
<path fill="#fff0f0" stroke="red" d="M115.17,-179C115.17,-179 38.83,-179 38.83,-179 35.67,-179 32.5,-175.83 32.5,-172.67 32.5,-172.67 32.5,-166.33 32.5,-166.33 32.5,-163.17 35.67,-160 38.83,-160 38.83,-160 115.17,-160 115.17,-160 118.33,-160 121.5,-163.17 121.5,-166.33 121.5,-166.33 121.5,-172.67 121.5,-172.67 121.5,-175.83 118.33,-179 115.17,-179"/>
<text text-anchor="middle" x="77" y="-167" font-family="Helvetica,sans-Serif" font-size="10.00">compareOrbits</text>
</a>
</g>
</g>
<!-- Node1&#45;&gt;Node2 -->
<g id="edge1_Node000001_Node000002" class="edge">
<title>Node1&#45;&gt;Node2</title>
<g id="a_edge1_Node000001_Node000002"><a xlink:title=" ">
<path fill="none" stroke="#63b8ff" d="M230.4,-110.74C210.91,-123.27 181.61,-140.67 154,-151.5 143.77,-155.51 132.41,-158.78 121.65,-161.39"/>
<polygon fill="#63b8ff" stroke="#63b8ff" points="232.43,-113.6 238.88,-105.2 228.6,-107.74 232.43,-113.6"/>
</a>
</g>
</g>
<!-- Node5 -->
<g id="Node000005" class="node">
<title>Node5</title>
<g id="a_Node000005"><a xlink:href="main_8cpp.html#a2b0d1066eac1a878cf982adcdd550ce1" target="_top" xlink:title="Perform any post&#45;final epoch calculations and outputs, then begin reverse smoothing and tidy up.">
<path fill="#fff0f0" stroke="red" d="M128.17,-142C128.17,-142 25.83,-142 25.83,-142 22.67,-142 19.5,-138.83 19.5,-135.67 19.5,-135.67 19.5,-129.33 19.5,-129.33 19.5,-126.17 22.67,-123 25.83,-123 25.83,-123 128.17,-123 128.17,-123 131.33,-123 134.5,-126.17 134.5,-129.33 134.5,-129.33 134.5,-135.67 134.5,-135.67 134.5,-138.83 131.33,-142 128.17,-142"/>
<text text-anchor="middle" x="77" y="-130" font-family="Helvetica,sans-Serif" font-size="10.00">mainPostProcessing</text>
</a>
</g>
</g>
<!-- Node1&#45;&gt;Node5 -->
<g id="edge2_Node000001_Node000005" class="edge">
<title>Node1&#45;&gt;Node5</title>
<g id="a_edge2_Node000001_Node000005"><a xlink:title=" ">
<path fill="none" stroke="#63b8ff" d="M197.89,-107.15C173.85,-112.23 146.01,-118.12 123.22,-122.94"/>
<polygon fill="#63b8ff" stroke="#63b8ff" points="198.87,-110.52 207.93,-105.03 197.43,-103.67 198.87,-110.52"/>
</a>
</g>
</g>
<!-- Node6 -->
<g id="Node000006" class="node">
<title>Node6</title>
<g id="a_Node000006"><a xlink:href="minimumConstraints_8cpp.html#aeb8c374e79e38289a66b8b65d6574141" target="_top" xlink:title=" ">
<path fill="#fff0f0" stroke="red" d="M108.17,-105C108.17,-105 45.83,-105 45.83,-105 42.67,-105 39.5,-101.83 39.5,-98.67 39.5,-98.67 39.5,-92.33 39.5,-92.33 39.5,-89.17 42.67,-86 45.83,-86 45.83,-86 108.17,-86 108.17,-86 111.33,-86 114.5,-89.17 114.5,-92.33 114.5,-92.33 114.5,-98.67 114.5,-98.67 114.5,-101.83 111.33,-105 108.17,-105"/>
<text text-anchor="middle" x="77" y="-93" font-family="Helvetica,sans-Serif" font-size="10.00">minconOnly</text>
</a>
</g>
</g>
<!-- Node1&#45;&gt;Node6 -->
<g id="edge3_Node000001_Node000006" class="edge">
<title>Node1&#45;&gt;Node6</title>
<g id="a_edge3_Node000001_Node000006"><a xlink:title=" ">
<path fill="none" stroke="#63b8ff" d="M179.62,-95.5C157.19,-95.5 133.48,-95.5 114.61,-95.5"/>
<polygon fill="#63b8ff" stroke="#63b8ff" points="179.82,-99 189.82,-95.5 179.82,-92 179.82,-99"/>
</a>
</g>
</g>
<!-- Node7 -->
<g id="Node000007" class="node">
<title>Node7</title>
<g id="a_Node000007"><a xlink:href="outputs_8cpp.html#ab72aaa4a378c8714b6de17cc45e9314c" target="_top" xlink:title=" ">
<path fill="#fff0f0" stroke="red" d="M144,-67.5C144,-67.5 10,-67.5 10,-67.5 5,-67.5 0,-62.5 0,-57.5 0,-57.5 0,-47.5 0,-47.5 0,-42.5 5,-37.5 10,-37.5 10,-37.5 144,-37.5 144,-37.5 149,-37.5 154,-42.5 154,-47.5 154,-47.5 154,-57.5 154,-57.5 154,-62.5 149,-67.5 144,-67.5"/>
<text text-anchor="start" x="8" y="-55.5" font-family="Helvetica,sans-Serif" font-size="10.00">perEpochPostProcessingAnd</text>
<text text-anchor="middle" x="77" y="-44.5" font-family="Helvetica,sans-Serif" font-size="10.00">Outputs</text>
</a>
</g>
</g>
<!-- Node1&#45;&gt;Node7 -->
<g id="edge4_Node000001_Node000007" class="edge">
<title>Node1&#45;&gt;Node7</title>
<g id="a_edge4_Node000001_Node000007"><a xlink:title=" ">
<path fill="none" stroke="#63b8ff" d="M204.25,-83.52C184.05,-78.56 160.41,-72.75 139.07,-67.51"/>
<polygon fill="#63b8ff" stroke="#63b8ff" points="203.62,-86.97 214.16,-85.96 205.29,-80.17 203.62,-86.97"/>
</a>
</g>
</g>
<!-- Node9 -->
<g id="Node000009" class="node">
<title>Node9</title>
<g id="a_Node000009"><a xlink:href="rtsSmoothing_8cpp.html#a65cd5f94ab58227ab032b1e894ca3987" target="_top" xlink:title=" ">
<path fill="#fff0f0" stroke="red" d="M116.67,-19C116.67,-19 37.33,-19 37.33,-19 34.17,-19 31,-15.83 31,-12.67 31,-12.67 31,-6.33 31,-6.33 31,-3.17 34.17,0 37.33,0 37.33,0 116.67,0 116.67,0 119.83,0 123,-3.17 123,-6.33 123,-6.33 123,-12.67 123,-12.67 123,-15.83 119.83,-19 116.67,-19"/>
<text text-anchor="middle" x="77" y="-7" font-family="Helvetica,sans-Serif" font-size="10.00">postRTSActions</text>
</a>
</g>
</g>
<!-- Node1&#45;&gt;Node9 -->
<g id="edge5_Node000001_Node000009" class="edge">
<title>Node1&#45;&gt;Node9</title>
<g id="a_edge5_Node000001_Node000009"><a xlink:title=" ">
<path fill="none" stroke="#63b8ff" d="M233.68,-79.39C214.57,-64.21 183.91,-41.86 154,-28.5 144.31,-24.17 133.47,-20.72 123.08,-18.01"/>
<polygon fill="#63b8ff" stroke="#63b8ff" points="231.64,-82.23 241.61,-85.8 236.04,-76.79 231.64,-82.23"/>
</a>
</g>
</g>
</g>
</svg>
