<?xml version="1.0" encoding="UTF-8" standalone="no"?>
<!DOCTYPE svg PUBLIC "-//W3C//DTD SVG 1.1//EN"
 "http://www.w3.org/Graphics/SVG/1.1/DTD/svg11.dtd">
<!-- Generated by graphviz version 2.43.0 (0)
 -->
<!-- Title: mongoMeasSatStat Pages: 1 -->
<svg width="316pt" height="38pt"
 viewBox="0.00 0.00 316.00 38.00" xmlns="http://www.w3.org/2000/svg" xmlns:xlink="http://www.w3.org/1999/xlink">
<g id="graph0" class="graph" transform="scale(1 1) rotate(0) translate(4 34)">
<title>mongoMeasSatStat</title>
<!-- Node1 -->
<g id="Node000001" class="node">
<title>Node1</title>
<g id="a_Node000001"><a xlink:href="mongoWrite_8cpp.html#a5cadd0b1a16ece0f12724f6f750b19ce" target="_top" xlink:title=" ">
<path fill="#fff0f0" stroke="red" stroke-width="2" d="M301.67,-24.5C301.67,-24.5 202.33,-24.5 202.33,-24.5 199.17,-24.5 196,-21.33 196,-18.17 196,-18.17 196,-11.83 196,-11.83 196,-8.67 199.17,-5.5 202.33,-5.5 202.33,-5.5 301.67,-5.5 301.67,-5.5 304.83,-5.5 308,-8.67 308,-11.83 308,-11.83 308,-18.17 308,-18.17 308,-21.33 304.83,-24.5 301.67,-24.5"/>
<text text-anchor="middle" x="252" y="-12.5" font-family="Helvetica,sans-Serif" font-size="10.00">mongoMeasSatStat</text>
</a>
</g>
</g>
<!-- Node2 -->
<g id="Node000002" class="node">
<title>Node2</title>
<g id="a_Node000002"><a xlink:href="main_8cpp.html#a712043e1e94db2f9f7c1022f2bc006e2" target="_top" xlink:title=" ">
<path fill="#fff0f0" stroke="red" d="M150,-30C150,-30 10,-30 10,-30 5,-30 0,-25 0,-20 0,-20 0,-10 0,-10 0,-5 5,0 10,0 10,0 150,0 150,0 155,0 160,-5 160,-10 160,-10 160,-20 160,-20 160,-25 155,-30 150,-30"/>
<text text-anchor="start" x="8" y="-18" font-family="Helvetica,sans-Serif" font-size="10.00">mainPerEpochPostProcessing</text>
<text text-anchor="middle" x="80" y="-7" font-family="Helvetica,sans-Serif" font-size="10.00">AndOutputs</text>
</a>
</g>
</g>
<!-- Node1&#45;&gt;Node2 -->
<g id="edge1_Node000001_Node000002" class="edge">
<title>Node1&#45;&gt;Node2</title>
<g id="a_edge1_Node000001_Node000002"><a xlink:title=" ">
<path fill="none" stroke="#63b8ff" d="M185.79,-15C177.45,-15 168.84,-15 160.31,-15"/>
<polygon fill="#63b8ff" stroke="#63b8ff" points="185.81,-18.5 195.81,-15 185.81,-11.5 185.81,-18.5"/>
</a>
</g>
</g>
</g>
</svg>
