<?xml version="1.0" encoding="UTF-8" standalone="no"?>
<!DOCTYPE svg PUBLIC "-//W3C//DTD SVG 1.1//EN"
 "http://www.w3.org/Graphics/SVG/1.1/DTD/svg11.dtd">
<!-- Generated by graphviz version 2.43.0 (0)
 -->
<!-- Title: mongoReadFilter Pages: 1 -->
<svg width="236pt" height="64pt"
 viewBox="0.00 0.00 236.00 64.00" xmlns="http://www.w3.org/2000/svg" xmlns:xlink="http://www.w3.org/1999/xlink">
<g id="graph0" class="graph" transform="scale(1 1) rotate(0) translate(4 60)">
<title>mongoReadFilter</title>
<!-- Node1 -->
<g id="Node000001" class="node">
<title>Node1</title>
<g id="a_Node000001"><a xlink:href="mongoRead_8cpp.html#afb0cf2e28aad7d5f276d9735f941195d" target="_top" xlink:title=" ">
<path fill="#fff0f0" stroke="red" stroke-width="2" d="M93.67,-37C93.67,-37 6.33,-37 6.33,-37 3.17,-37 0,-33.83 0,-30.67 0,-30.67 0,-24.33 0,-24.33 0,-21.17 3.17,-18 6.33,-18 6.33,-18 93.67,-18 93.67,-18 96.83,-18 100,-21.17 100,-24.33 100,-24.33 100,-30.67 100,-30.67 100,-33.83 96.83,-37 93.67,-37"/>
<text text-anchor="middle" x="50" y="-25" font-family="Helvetica,sans-Serif" font-size="10.00">mongoReadFilter</text>
</a>
</g>
</g>
<!-- Node2 -->
<g id="Node000002" class="node">
<title>Node2</title>
<g id="a_Node000002"><a xlink:href="mongoWrite_8cpp.html#aebb57cb730f719eefb3bb81610f2a3e3" target="_top" xlink:title=" ">
<path fill="#fff0f0" stroke="red" d="M198.67,-56C198.67,-56 165.33,-56 165.33,-56 162.17,-56 159,-52.83 159,-49.67 159,-49.67 159,-43.33 159,-43.33 159,-40.17 162.17,-37 165.33,-37 165.33,-37 198.67,-37 198.67,-37 201.83,-37 205,-40.17 205,-43.33 205,-43.33 205,-49.67 205,-49.67 205,-52.83 201.83,-56 198.67,-56"/>
<text text-anchor="middle" x="182" y="-44" font-family="Helvetica,sans-Serif" font-size="10.00">bDate</text>
</a>
</g>
</g>
<!-- Node1&#45;&gt;Node2 -->
<g id="edge1_Node000001_Node000002" class="edge">
<title>Node1&#45;&gt;Node2</title>
<g id="a_edge1_Node000001_Node000002"><a xlink:title=" ">
<path fill="none" stroke="#63b8ff" d="M100.15,-34.68C116.46,-37.07 134.2,-39.66 148.89,-41.81"/>
<polygon fill="#63b8ff" stroke="#63b8ff" points="148.59,-45.3 158.99,-43.28 149.6,-38.37 148.59,-45.3"/>
</a>
</g>
</g>
<!-- Node3 -->
<g id="Node000003" class="node">
<title>Node3</title>
<g id="a_Node000003"><a xlink:href="structGTime.html#aaa8a379d11cd6c040a6bbe680c0e913e" target="_top" xlink:title="Uninitialised time for comparisons.">
<path fill="#fff0f0" stroke="red" d="M221.67,-19C221.67,-19 142.33,-19 142.33,-19 139.17,-19 136,-15.83 136,-12.67 136,-12.67 136,-6.33 136,-6.33 136,-3.17 139.17,0 142.33,0 142.33,0 221.67,0 221.67,0 224.83,0 228,-3.17 228,-6.33 228,-6.33 228,-12.67 228,-12.67 228,-15.83 224.83,-19 221.67,-19"/>
<text text-anchor="middle" x="182" y="-7" font-family="Helvetica,sans-Serif" font-size="10.00">GTime::noTime</text>
</a>
</g>
</g>
<!-- Node1&#45;&gt;Node3 -->
<g id="edge2_Node000001_Node000003" class="edge">
<title>Node1&#45;&gt;Node3</title>
<g id="a_edge2_Node000001_Node000003"><a xlink:title=" ">
<path fill="none" stroke="#63b8ff" d="M100.15,-20.69C108.43,-19.55 117.08,-18.35 125.5,-17.18"/>
<polygon fill="#63b8ff" stroke="#63b8ff" points="126.21,-20.62 135.64,-15.78 125.25,-13.69 126.21,-20.62"/>
</a>
</g>
</g>
</g>
</svg>
