<?xml version="1.0" encoding="UTF-8" standalone="no"?>
<!DOCTYPE svg PUBLIC "-//W3C//DTD SVG 1.1//EN"
 "http://www.w3.org/Graphics/SVG/1.1/DTD/svg11.dtd">
<!-- Generated by graphviz version 2.43.0 (0)
 -->
<!-- Title: startNewMongoDb Pages: 1 -->
<svg width="384pt" height="78pt"
 viewBox="0.00 0.00 384.00 78.03" xmlns="http://www.w3.org/2000/svg" xmlns:xlink="http://www.w3.org/1999/xlink">
<g id="graph0" class="graph" transform="scale(1 1) rotate(0) translate(4 74.03)">
<title>startNewMongoDb</title>
<!-- Node1 -->
<g id="Node000001" class="node">
<title>Node1</title>
<g id="a_Node000001"><a xlink:href="mongo_8cpp.html#a52ea466b77ea949c69649373cb073616" target="_top" xlink:title=" ">
<path fill="#fff0f0" stroke="red" stroke-width="2" d="M100.67,-56C100.67,-56 6.33,-56 6.33,-56 3.17,-56 0,-52.83 0,-49.67 0,-49.67 0,-43.33 0,-43.33 0,-40.17 3.17,-37 6.33,-37 6.33,-37 100.67,-37 100.67,-37 103.83,-37 107,-40.17 107,-43.33 107,-43.33 107,-49.67 107,-49.67 107,-52.83 103.83,-56 100.67,-56"/>
<text text-anchor="middle" x="53.5" y="-44" font-family="Helvetica,sans-Serif" font-size="10.00">startNewMongoDb</text>
</a>
</g>
</g>
<!-- Node2 -->
<g id="Node000002" class="node">
<title>Node2</title>
<g id="a_Node000002"><a xlink:href="acsConfig_8cpp.html#a611c3086ccdeb877c19a6b1d603227a4" target="_top" xlink:title="search for and replace section of string">
<path fill="#fff0f0" stroke="red" d="M369.67,-56C369.67,-56 301.33,-56 301.33,-56 298.17,-56 295,-52.83 295,-49.67 295,-49.67 295,-43.33 295,-43.33 295,-40.17 298.17,-37 301.33,-37 301.33,-37 369.67,-37 369.67,-37 372.83,-37 376,-40.17 376,-43.33 376,-43.33 376,-49.67 376,-49.67 376,-52.83 372.83,-56 369.67,-56"/>
<text text-anchor="middle" x="335.5" y="-44" font-family="Helvetica,sans-Serif" font-size="10.00">replaceString</text>
</a>
</g>
</g>
<!-- Node1&#45;&gt;Node2 -->
<g id="edge1_Node000001_Node000002" class="edge">
<title>Node1&#45;&gt;Node2</title>
<g id="a_edge1_Node000001_Node000002"><a xlink:title=" ">
<path fill="none" stroke="#63b8ff" d="M90.39,-56.01C106.37,-59.77 125.5,-63.64 143,-65.5 194.27,-70.94 207.84,-71.84 259,-65.5 270.5,-64.07 282.77,-61.47 294,-58.64"/>
<polygon fill="#63b8ff" stroke="#63b8ff" points="295.2,-61.95 303.97,-56.01 293.41,-55.18 295.2,-61.95"/>
</a>
</g>
</g>
<!-- Node3 -->
<g id="Node000003" class="node">
<title>Node3</title>
<g id="a_Node000003"><a xlink:href="acsConfig_8cpp.html#a75a34dc41e76a8680e3aa6d62ff4c800" target="_top" xlink:title="Replace macros for times with numeric values.">
<path fill="#fff0f0" stroke="red" d="M236.17,-56C236.17,-56 165.83,-56 165.83,-56 162.67,-56 159.5,-52.83 159.5,-49.67 159.5,-49.67 159.5,-43.33 159.5,-43.33 159.5,-40.17 162.67,-37 165.83,-37 165.83,-37 236.17,-37 236.17,-37 239.33,-37 242.5,-40.17 242.5,-43.33 242.5,-43.33 242.5,-49.67 242.5,-49.67 242.5,-52.83 239.33,-56 236.17,-56"/>
<text text-anchor="middle" x="201" y="-44" font-family="Helvetica,sans-Serif" font-size="10.00">replaceTimes</text>
</a>
</g>
</g>
<!-- Node1&#45;&gt;Node3 -->
<g id="edge2_Node000001_Node000003" class="edge">
<title>Node1&#45;&gt;Node3</title>
<g id="a_edge2_Node000001_Node000003"><a xlink:title=" ">
<path fill="none" stroke="#63b8ff" d="M107.03,-46.5C120.78,-46.5 135.58,-46.5 149.24,-46.5"/>
<polygon fill="#63b8ff" stroke="#63b8ff" points="149.42,-50 159.42,-46.5 149.42,-43 149.42,-50"/>
</a>
</g>
</g>
<!-- Node4 -->
<g id="Node000004" class="node">
<title>Node4</title>
<g id="a_Node000004"><a xlink:href="mongo_8cpp.html#ac3b59ff42913bb6ab58608b562a82b76" target="_top" xlink:title=" ">
<path fill="#fff0f0" stroke="red" d="M252.67,-19C252.67,-19 149.33,-19 149.33,-19 146.17,-19 143,-15.83 143,-12.67 143,-12.67 143,-6.33 143,-6.33 143,-3.17 146.17,0 149.33,0 149.33,0 252.67,0 252.67,0 255.83,0 259,-3.17 259,-6.33 259,-6.33 259,-12.67 259,-12.67 259,-15.83 255.83,-19 252.67,-19"/>
<text text-anchor="middle" x="201" y="-7" font-family="Helvetica,sans-Serif" font-size="10.00">newMongoDatabase</text>
</a>
</g>
</g>
<!-- Node1&#45;&gt;Node4 -->
<g id="edge5_Node000001_Node000004" class="edge">
<title>Node1&#45;&gt;Node4</title>
<g id="a_edge5_Node000001_Node000004"><a xlink:title=" ">
<path fill="none" stroke="#63b8ff" d="M91.97,-36.97C110.48,-32.26 133.02,-26.53 152.7,-21.53"/>
<polygon fill="#63b8ff" stroke="#63b8ff" points="153.58,-24.92 162.4,-19.06 151.85,-18.13 153.58,-24.92"/>
</a>
</g>
</g>
<!-- Node3&#45;&gt;Node2 -->
<g id="edge3_Node000003_Node000002" class="edge">
<title>Node3&#45;&gt;Node2</title>
<g id="a_edge3_Node000003_Node000002"><a xlink:title=" ">
<path fill="none" stroke="#63b8ff" d="M242.84,-40.21C256.04,-39.71 270.84,-39.62 284.63,-39.94"/>
<polygon fill="#63b8ff" stroke="#63b8ff" points="284.83,-43.44 294.93,-40.26 285.05,-36.45 284.83,-43.44"/>
</a>
</g>
</g>
<!-- Node3&#45;&gt;Node2 -->
<g id="edge4_Node000003_Node000002" class="edge">
<title>Node3&#45;&gt;Node2</title>
<g id="a_edge4_Node000003_Node000002"><a xlink:title=" ">
<path fill="none" stroke="#63b8ff" d="M242.84,-52.79C256.04,-53.29 270.84,-53.38 284.63,-53.06"/>
<polygon fill="#63b8ff" stroke="#63b8ff" points="285.05,-56.55 294.93,-52.74 284.83,-49.56 285.05,-56.55"/>
</a>
</g>
</g>
</g>
</svg>
