<?xml version="1.0" encoding="UTF-8" standalone="no"?>
<!DOCTYPE svg PUBLIC "-//W3C//DTD SVG 1.1//EN"
 "http://www.w3.org/Graphics/SVG/1.1/DTD/svg11.dtd">
<!-- Generated by graphviz version 2.43.0 (0)
 -->
<!-- Title: mongoReadPhaseBias Pages: 1 -->
<svg width="289pt" height="64pt"
 viewBox="0.00 0.00 289.00 64.00" xmlns="http://www.w3.org/2000/svg" xmlns:xlink="http://www.w3.org/1999/xlink">
<g id="graph0" class="graph" transform="scale(1 1) rotate(0) translate(4 60)">
<title>mongoReadPhaseBias</title>
<!-- Node1 -->
<g id="Node000001" class="node">
<title>Node1</title>
<g id="a_Node000001"><a xlink:href="mongoRead_8cpp.html#a1d89a7a6cae3e135ebc59b318cff9736" target="_top" xlink:title="Read phase biases from Mongo DB.">
<path fill="#fff0f0" stroke="red" stroke-width="2" d="M118.67,-37C118.67,-37 6.33,-37 6.33,-37 3.17,-37 0,-33.83 0,-30.67 0,-30.67 0,-24.33 0,-24.33 0,-21.17 3.17,-18 6.33,-18 6.33,-18 118.67,-18 118.67,-18 121.83,-18 125,-21.17 125,-24.33 125,-24.33 125,-30.67 125,-30.67 125,-33.83 121.83,-37 118.67,-37"/>
<text text-anchor="middle" x="62.5" y="-25" font-family="Helvetica,sans-Serif" font-size="10.00">mongoReadPhaseBias</text>
</a>
</g>
</g>
<!-- Node2 -->
<g id="Node000002" class="node">
<title>Node2</title>
<g id="a_Node000002"><a xlink:href="satSys_8cpp.html#aae80f3401dd26548c7b0b83c1e25e499" target="_top" xlink:title="Get all satellites of target system.">
<path fill="#fff0f0" stroke="red" d="M250.17,-56C250.17,-56 191.83,-56 191.83,-56 188.67,-56 185.5,-52.83 185.5,-49.67 185.5,-49.67 185.5,-43.33 185.5,-43.33 185.5,-40.17 188.67,-37 191.83,-37 191.83,-37 250.17,-37 250.17,-37 253.33,-37 256.5,-40.17 256.5,-43.33 256.5,-43.33 256.5,-49.67 256.5,-49.67 256.5,-52.83 253.33,-56 250.17,-56"/>
<text text-anchor="middle" x="221" y="-44" font-family="Helvetica,sans-Serif" font-size="10.00">getSysSats</text>
</a>
</g>
</g>
<!-- Node1&#45;&gt;Node2 -->
<g id="edge1_Node000001_Node000002" class="edge">
<title>Node1&#45;&gt;Node2</title>
<g id="a_edge1_Node000001_Node000002"><a xlink:title=" ">
<path fill="none" stroke="#63b8ff" d="M125.35,-35.01C141.87,-37.02 159.42,-39.14 174.85,-41.02"/>
<polygon fill="#63b8ff" stroke="#63b8ff" points="174.82,-44.54 185.16,-42.27 175.66,-37.59 174.82,-44.54"/>
</a>
</g>
</g>
<!-- Node3 -->
<g id="Node000003" class="node">
<title>Node3</title>
<g id="a_Node000003"><a xlink:href="mongoRead_8cpp.html#a5101d87f3967908ded4dbd7040662937" target="_top" xlink:title="Group and sort biases in Mongo DB to avoid unnecessary requests.">
<path fill="#fff0f0" stroke="red" d="M274.67,-19C274.67,-19 167.33,-19 167.33,-19 164.17,-19 161,-15.83 161,-12.67 161,-12.67 161,-6.33 161,-6.33 161,-3.17 164.17,0 167.33,0 167.33,0 274.67,0 274.67,0 277.83,0 281,-3.17 281,-6.33 281,-6.33 281,-12.67 281,-12.67 281,-15.83 277.83,-19 274.67,-19"/>
<text text-anchor="middle" x="221" y="-7" font-family="Helvetica,sans-Serif" font-size="10.00">mongoGroupSortBias</text>
</a>
</g>
</g>
<!-- Node1&#45;&gt;Node3 -->
<g id="edge2_Node000001_Node000003" class="edge">
<title>Node1&#45;&gt;Node3</title>
<g id="a_edge2_Node000001_Node000003"><a xlink:title=" ">
<path fill="none" stroke="#63b8ff" d="M125.35,-20.39C133.67,-19.43 142.26,-18.44 150.7,-17.47"/>
<polygon fill="#63b8ff" stroke="#63b8ff" points="151.36,-20.92 160.89,-16.3 150.56,-13.96 151.36,-20.92"/>
</a>
</g>
</g>
</g>
</svg>
