<?xml version="1.0" encoding="UTF-8" standalone="no"?>
<!DOCTYPE svg PUBLIC "-//W3C//DTD SVG 1.1//EN"
 "http://www.w3.org/Graphics/SVG/1.1/DTD/svg11.dtd">
<!-- Generated by graphviz version 2.43.0 (0)
 -->
<!-- Title: mongoMeasSatStat Pages: 1 -->
<svg width="253pt" height="101pt"
 viewBox="0.00 0.00 253.00 101.00" xmlns="http://www.w3.org/2000/svg" xmlns:xlink="http://www.w3.org/1999/xlink">
<g id="graph0" class="graph" transform="scale(1 1) rotate(0) translate(4 97)">
<title>mongoMeasSatStat</title>
<!-- Node1 -->
<g id="Node000001" class="node">
<title>Node1</title>
<g id="a_Node000001"><a xlink:href="mongoWrite_8cpp.html#a5cadd0b1a16ece0f12724f6f750b19ce" target="_top" xlink:title=" ">
<path fill="#fff0f0" stroke="red" stroke-width="2" d="M105.67,-56C105.67,-56 6.33,-56 6.33,-56 3.17,-56 0,-52.83 0,-49.67 0,-49.67 0,-43.33 0,-43.33 0,-40.17 3.17,-37 6.33,-37 6.33,-37 105.67,-37 105.67,-37 108.83,-37 112,-40.17 112,-43.33 112,-43.33 112,-49.67 112,-49.67 112,-52.83 108.83,-56 105.67,-56"/>
<text text-anchor="middle" x="56" y="-44" font-family="Helvetica,sans-Serif" font-size="10.00">mongoMeasSatStat</text>
</a>
</g>
</g>
<!-- Node2 -->
<g id="Node000002" class="node">
<title>Node2</title>
<g id="a_Node000002"><a xlink:href="mongo_8cpp.html#a4deef04a2c03d1d1b7cc4bd72be73ed5" target="_top" xlink:title=" ">
<path fill="#fff0f0" stroke="red" d="M238.67,-93C238.67,-93 154.33,-93 154.33,-93 151.17,-93 148,-89.83 148,-86.67 148,-86.67 148,-80.33 148,-80.33 148,-77.17 151.17,-74 154.33,-74 154.33,-74 238.67,-74 238.67,-74 241.83,-74 245,-77.17 245,-80.33 245,-80.33 245,-86.67 245,-86.67 245,-89.83 241.83,-93 238.67,-93"/>
<text text-anchor="middle" x="196.5" y="-81" font-family="Helvetica,sans-Serif" font-size="10.00">mongoInstances</text>
</a>
</g>
</g>
<!-- Node1&#45;&gt;Node2 -->
<g id="edge1_Node000001_Node000002" class="edge">
<title>Node1&#45;&gt;Node2</title>
<g id="a_edge1_Node000001_Node000002"><a xlink:title=" ">
<path fill="none" stroke="#63b8ff" d="M92.67,-56.03C110.06,-60.67 131.18,-66.32 149.75,-71.28"/>
<polygon fill="#63b8ff" stroke="#63b8ff" points="148.91,-74.68 159.47,-73.88 150.71,-67.91 148.91,-74.68"/>
</a>
</g>
</g>
<!-- Node3 -->
<g id="Node000003" class="node">
<title>Node3</title>
<g id="a_Node000003"><a xlink:href="mongoWrite_8cpp.html#aebb57cb730f719eefb3bb81610f2a3e3" target="_top" xlink:title=" ">
<path fill="#fff0f0" stroke="red" d="M213.17,-56C213.17,-56 179.83,-56 179.83,-56 176.67,-56 173.5,-52.83 173.5,-49.67 173.5,-49.67 173.5,-43.33 173.5,-43.33 173.5,-40.17 176.67,-37 179.83,-37 179.83,-37 213.17,-37 213.17,-37 216.33,-37 219.5,-40.17 219.5,-43.33 219.5,-43.33 219.5,-49.67 219.5,-49.67 219.5,-52.83 216.33,-56 213.17,-56"/>
<text text-anchor="middle" x="196.5" y="-44" font-family="Helvetica,sans-Serif" font-size="10.00">bDate</text>
</a>
</g>
</g>
<!-- Node1&#45;&gt;Node3 -->
<g id="edge2_Node000001_Node000003" class="edge">
<title>Node1&#45;&gt;Node3</title>
<g id="a_edge2_Node000001_Node000003"><a xlink:title=" ">
<path fill="none" stroke="#63b8ff" d="M112.14,-46.5C129.38,-46.5 147.83,-46.5 162.99,-46.5"/>
<polygon fill="#63b8ff" stroke="#63b8ff" points="163.37,-50 173.37,-46.5 163.37,-43 163.37,-50"/>
</a>
</g>
</g>
<!-- Node4 -->
<g id="Node000004" class="node">
<title>Node4</title>
<g id="a_Node000004"><a xlink:href="mongo_8cpp.html#a21229e129bf799d4fdd7093b954e9381" target="_top" xlink:title=" ">
<path fill="#fff0f0" stroke="red" d="M230.17,-19C230.17,-19 162.83,-19 162.83,-19 159.67,-19 156.5,-15.83 156.5,-12.67 156.5,-12.67 156.5,-6.33 156.5,-6.33 156.5,-3.17 159.67,0 162.83,0 162.83,0 230.17,0 230.17,0 233.33,0 236.5,-3.17 236.5,-6.33 236.5,-6.33 236.5,-12.67 236.5,-12.67 236.5,-15.83 233.33,-19 230.17,-19"/>
<text text-anchor="middle" x="196.5" y="-7" font-family="Helvetica,sans-Serif" font-size="10.00">formatSeries</text>
</a>
</g>
</g>
<!-- Node1&#45;&gt;Node4 -->
<g id="edge3_Node000001_Node000004" class="edge">
<title>Node1&#45;&gt;Node4</title>
<g id="a_edge3_Node000001_Node000004"><a xlink:title=" ">
<path fill="none" stroke="#63b8ff" d="M92.67,-36.97C110.06,-32.33 131.18,-26.68 149.75,-21.72"/>
<polygon fill="#63b8ff" stroke="#63b8ff" points="150.71,-25.09 159.47,-19.12 148.91,-18.32 150.71,-25.09"/>
</a>
</g>
</g>
</g>
</svg>
