<?xml version="1.0" encoding="UTF-8" standalone="no"?>
<!DOCTYPE svg PUBLIC "-//W3C//DTD SVG 1.1//EN"
 "http://www.w3.org/Graphics/SVG/1.1/DTD/svg11.dtd">
<!-- Generated by graphviz version 2.43.0 (0)
 -->
<!-- Title: mongoStates Pages: 1 -->
<svg width="222pt" height="175pt"
 viewBox="0.00 0.00 222.00 175.00" xmlns="http://www.w3.org/2000/svg" xmlns:xlink="http://www.w3.org/1999/xlink">
<g id="graph0" class="graph" transform="scale(1 1) rotate(0) translate(4 171)">
<title>mongoStates</title>
<!-- Node1 -->
<g id="Node000001" class="node">
<title>Node1</title>
<g id="a_Node000001"><a xlink:href="mongoWrite_8cpp.html#a7b0669675f4db278af7db5cb0b0dee6a" target="_top" xlink:title=" ">
<path fill="#fff0f0" stroke="red" stroke-width="2" d="M74.67,-93C74.67,-93 6.33,-93 6.33,-93 3.17,-93 0,-89.83 0,-86.67 0,-86.67 0,-80.33 0,-80.33 0,-77.17 3.17,-74 6.33,-74 6.33,-74 74.67,-74 74.67,-74 77.83,-74 81,-77.17 81,-80.33 81,-80.33 81,-86.67 81,-86.67 81,-89.83 77.83,-93 74.67,-93"/>
<text text-anchor="middle" x="40.5" y="-81" font-family="Helvetica,sans-Serif" font-size="10.00">mongoStates</text>
</a>
</g>
</g>
<!-- Node2 -->
<g id="Node000002" class="node">
<title>Node2</title>
<g id="a_Node000002"><a xlink:href="mongo_8cpp.html#a4deef04a2c03d1d1b7cc4bd72be73ed5" target="_top" xlink:title=" ">
<path fill="#fff0f0" stroke="red" d="M207.67,-167C207.67,-167 123.33,-167 123.33,-167 120.17,-167 117,-163.83 117,-160.67 117,-160.67 117,-154.33 117,-154.33 117,-151.17 120.17,-148 123.33,-148 123.33,-148 207.67,-148 207.67,-148 210.83,-148 214,-151.17 214,-154.33 214,-154.33 214,-160.67 214,-160.67 214,-163.83 210.83,-167 207.67,-167"/>
<text text-anchor="middle" x="165.5" y="-155" font-family="Helvetica,sans-Serif" font-size="10.00">mongoInstances</text>
</a>
</g>
</g>
<!-- Node1&#45;&gt;Node2 -->
<g id="edge1_Node000001_Node000002" class="edge">
<title>Node1&#45;&gt;Node2</title>
<g id="a_edge1_Node000001_Node000002"><a xlink:title=" ">
<path fill="none" stroke="#63b8ff" d="M52.6,-93.28C66.75,-105.39 92.37,-126.04 117,-139.5 119.9,-141.09 122.97,-142.59 126.1,-144.01"/>
<polygon fill="#63b8ff" stroke="#63b8ff" points="124.97,-147.33 135.55,-147.99 127.69,-140.88 124.97,-147.33"/>
</a>
</g>
</g>
<!-- Node3 -->
<g id="Node000003" class="node">
<title>Node3</title>
<g id="a_Node000003"><a xlink:href="mongoWrite_8cpp.html#a1e2ca94057cbcec690256e3e811ca525" target="_top" xlink:title=" ">
<path fill="#fff0f0" stroke="red" d="M199.17,-130C199.17,-130 131.83,-130 131.83,-130 128.67,-130 125.5,-126.83 125.5,-123.67 125.5,-123.67 125.5,-117.33 125.5,-117.33 125.5,-114.17 128.67,-111 131.83,-111 131.83,-111 199.17,-111 199.17,-111 202.33,-111 205.5,-114.17 205.5,-117.33 205.5,-117.33 205.5,-123.67 205.5,-123.67 205.5,-126.83 202.33,-130 199.17,-130"/>
<text text-anchor="middle" x="165.5" y="-118" font-family="Helvetica,sans-Serif" font-size="10.00">queueMongo</text>
</a>
</g>
</g>
<!-- Node1&#45;&gt;Node3 -->
<g id="edge2_Node000001_Node000003" class="edge">
<title>Node1&#45;&gt;Node3</title>
<g id="a_edge2_Node000001_Node000003"><a xlink:title=" ">
<path fill="none" stroke="#63b8ff" d="M73.18,-93.03C88.27,-97.57 106.52,-103.06 122.72,-107.93"/>
<polygon fill="#63b8ff" stroke="#63b8ff" points="121.92,-111.35 132.5,-110.88 123.94,-104.64 121.92,-111.35"/>
</a>
</g>
</g>
<!-- Node11 -->
<g id="Node000011" class="node">
<title>Node11</title>
<g id="a_Node000011"><a xlink:href="mongo_8cpp.html#a21229e129bf799d4fdd7093b954e9381" target="_top" xlink:title=" ">
<path fill="#fff0f0" stroke="red" d="M199.17,-93C199.17,-93 131.83,-93 131.83,-93 128.67,-93 125.5,-89.83 125.5,-86.67 125.5,-86.67 125.5,-80.33 125.5,-80.33 125.5,-77.17 128.67,-74 131.83,-74 131.83,-74 199.17,-74 199.17,-74 202.33,-74 205.5,-77.17 205.5,-80.33 205.5,-80.33 205.5,-86.67 205.5,-86.67 205.5,-89.83 202.33,-93 199.17,-93"/>
<text text-anchor="middle" x="165.5" y="-81" font-family="Helvetica,sans-Serif" font-size="10.00">formatSeries</text>
</a>
</g>
</g>
<!-- Node1&#45;&gt;Node11 -->
<g id="edge3_Node000001_Node000011" class="edge">
<title>Node1&#45;&gt;Node11</title>
<g id="a_edge3_Node000001_Node000011"><a xlink:title=" ">
<path fill="none" stroke="#63b8ff" d="M81.1,-83.5C91.96,-83.5 103.87,-83.5 115.2,-83.5"/>
<polygon fill="#63b8ff" stroke="#63b8ff" points="115.4,-87 125.4,-83.5 115.4,-80 115.4,-87"/>
</a>
</g>
</g>
<!-- Node6 -->
<g id="Node000006" class="node">
<title>Node6</title>
<g id="a_Node000006"><a xlink:href="mongoWrite_8cpp.html#aebb57cb730f719eefb3bb81610f2a3e3" target="_top" xlink:title=" ">
<path fill="#fff0f0" stroke="red" d="M182.17,-56C182.17,-56 148.83,-56 148.83,-56 145.67,-56 142.5,-52.83 142.5,-49.67 142.5,-49.67 142.5,-43.33 142.5,-43.33 142.5,-40.17 145.67,-37 148.83,-37 148.83,-37 182.17,-37 182.17,-37 185.33,-37 188.5,-40.17 188.5,-43.33 188.5,-43.33 188.5,-49.67 188.5,-49.67 188.5,-52.83 185.33,-56 182.17,-56"/>
<text text-anchor="middle" x="165.5" y="-44" font-family="Helvetica,sans-Serif" font-size="10.00">bDate</text>
</a>
</g>
</g>
<!-- Node1&#45;&gt;Node6 -->
<g id="edge4_Node000001_Node000006" class="edge">
<title>Node1&#45;&gt;Node6</title>
<g id="a_edge4_Node000001_Node000006"><a xlink:title=" ">
<path fill="none" stroke="#63b8ff" d="M73.18,-73.97C91.43,-68.48 114.32,-61.6 132.61,-56.09"/>
<polygon fill="#63b8ff" stroke="#63b8ff" points="133.68,-59.43 142.24,-53.2 131.66,-52.72 133.68,-59.43"/>
</a>
</g>
</g>
<!-- Node15 -->
<g id="Node000015" class="node">
<title>Node15</title>
<g id="a_Node000015"><a xlink:href="structGTime.html#aaa8a379d11cd6c040a6bbe680c0e913e" target="_top" xlink:title="Uninitialised time for comparisons.">
<path fill="#fff0f0" stroke="red" d="M205.17,-19C205.17,-19 125.83,-19 125.83,-19 122.67,-19 119.5,-15.83 119.5,-12.67 119.5,-12.67 119.5,-6.33 119.5,-6.33 119.5,-3.17 122.67,0 125.83,0 125.83,0 205.17,0 205.17,0 208.33,0 211.5,-3.17 211.5,-6.33 211.5,-6.33 211.5,-12.67 211.5,-12.67 211.5,-15.83 208.33,-19 205.17,-19"/>
<text text-anchor="middle" x="165.5" y="-7" font-family="Helvetica,sans-Serif" font-size="10.00">GTime::noTime</text>
</a>
</g>
</g>
<!-- Node1&#45;&gt;Node15 -->
<g id="edge5_Node000001_Node000015" class="edge">
<title>Node1&#45;&gt;Node15</title>
<g id="a_edge5_Node000001_Node000015"><a xlink:title=" ">
<path fill="none" stroke="#63b8ff" d="M52.67,-73.98C66.9,-62.18 92.59,-42 117,-28.5 120.49,-26.57 124.21,-24.74 127.98,-23.02"/>
<polygon fill="#63b8ff" stroke="#63b8ff" points="129.52,-26.17 137.33,-19.02 126.76,-19.73 129.52,-26.17"/>
</a>
</g>
</g>
</g>
</svg>
