<?xml version="1.0" encoding="UTF-8" standalone="no"?>
<!DOCTYPE svg PUBLIC "-//W3C//DTD SVG 1.1//EN"
 "http://www.w3.org/Graphics/SVG/1.1/DTD/svg11.dtd">
<!-- Generated by graphviz version 2.43.0 (0)
 -->
<!-- Title: mongoReadEphemeris Pages: 1 -->
<svg width="236pt" height="27pt"
 viewBox="0.00 0.00 236.00 27.00" xmlns="http://www.w3.org/2000/svg" xmlns:xlink="http://www.w3.org/1999/xlink">
<g id="graph0" class="graph" transform="scale(1 1) rotate(0) translate(4 23)">
<title>mongoReadEphemeris</title>
<!-- Node1 -->
<g id="Node000001" class="node">
<title>Node1</title>
<g id="a_Node000001"><a xlink:href="mongoRead_8cpp.html#a47bc6c2f524e5fe00e785ba8736f23c2" target="_top" xlink:title="Read GPS/GAL/BDS/QZS ephemeris from Mongo DB.">
<path fill="#fff0f0" stroke="red" stroke-width="2" d="M120.67,-19C120.67,-19 6.33,-19 6.33,-19 3.17,-19 0,-15.83 0,-12.67 0,-12.67 0,-6.33 0,-6.33 0,-3.17 3.17,0 6.33,0 6.33,0 120.67,0 120.67,0 123.83,0 127,-3.17 127,-6.33 127,-6.33 127,-12.67 127,-12.67 127,-15.83 123.83,-19 120.67,-19"/>
<text text-anchor="middle" x="63.5" y="-7" font-family="Helvetica,sans-Serif" font-size="10.00">mongoReadEphemeris</text>
</a>
</g>
</g>
<!-- Node2 -->
<g id="Node000002" class="node">
<title>Node2</title>
<g id="a_Node000002"><a xlink:href="structSatSys.html#aec6d07b90d1e8172b8b6a6966abef4fd" target="_top" xlink:title="Returns a std::string of this satellite&#39;s id.">
<path fill="#fff0f0" stroke="red" d="M221.67,-19C221.67,-19 169.33,-19 169.33,-19 166.17,-19 163,-15.83 163,-12.67 163,-12.67 163,-6.33 163,-6.33 163,-3.17 166.17,0 169.33,0 169.33,0 221.67,0 221.67,0 224.83,0 228,-3.17 228,-6.33 228,-6.33 228,-12.67 228,-12.67 228,-15.83 224.83,-19 221.67,-19"/>
<text text-anchor="middle" x="195.5" y="-7" font-family="Helvetica,sans-Serif" font-size="10.00">SatSys::id</text>
</a>
</g>
</g>
<!-- Node1&#45;&gt;Node2 -->
<g id="edge1_Node000001_Node000002" class="edge">
<title>Node1&#45;&gt;Node2</title>
<g id="a_edge1_Node000001_Node000002"><a xlink:title=" ">
<path fill="none" stroke="#63b8ff" d="M127.22,-9.5C135.79,-9.5 144.42,-9.5 152.51,-9.5"/>
<polygon fill="#63b8ff" stroke="#63b8ff" points="152.77,-13 162.77,-9.5 152.77,-6 152.77,-13"/>
</a>
</g>
</g>
</g>
</svg>
