<?xml version="1.0" encoding="UTF-8" standalone="no"?>
<!DOCTYPE svg PUBLIC "-//W3C//DTD SVG 1.1//EN"
 "http://www.w3.org/Graphics/SVG/1.1/DTD/svg11.dtd">
<!-- Generated by graphviz version 2.43.0 (0)
 -->
<!-- Title: mongoReadGloEphemeris Pages: 1 -->
<svg width="252pt" height="27pt"
 viewBox="0.00 0.00 252.00 27.00" xmlns="http://www.w3.org/2000/svg" xmlns:xlink="http://www.w3.org/1999/xlink">
<g id="graph0" class="graph" transform="scale(1 1) rotate(0) translate(4 23)">
<title>mongoReadGloEphemeris</title>
<!-- Node1 -->
<g id="Node000001" class="node">
<title>Node1</title>
<g id="a_Node000001"><a xlink:href="mongoRead_8cpp.html#a4bcf3e799f3f61cb7ca9cbc1994557a8" target="_top" xlink:title="Read GLO ephemeris from Mongo DB.">
<path fill="#fff0f0" stroke="red" stroke-width="2" d="M136.67,-19C136.67,-19 6.33,-19 6.33,-19 3.17,-19 0,-15.83 0,-12.67 0,-12.67 0,-6.33 0,-6.33 0,-3.17 3.17,0 6.33,0 6.33,0 136.67,0 136.67,0 139.83,0 143,-3.17 143,-6.33 143,-6.33 143,-12.67 143,-12.67 143,-15.83 139.83,-19 136.67,-19"/>
<text text-anchor="middle" x="71.5" y="-7" font-family="Helvetica,sans-Serif" font-size="10.00">mongoReadGloEphemeris</text>
</a>
</g>
</g>
<!-- Node2 -->
<g id="Node000002" class="node">
<title>Node2</title>
<g id="a_Node000002"><a xlink:href="structSatSys.html#aec6d07b90d1e8172b8b6a6966abef4fd" target="_top" xlink:title="Returns a std::string of this satellite&#39;s id.">
<path fill="#fff0f0" stroke="red" d="M237.67,-19C237.67,-19 185.33,-19 185.33,-19 182.17,-19 179,-15.83 179,-12.67 179,-12.67 179,-6.33 179,-6.33 179,-3.17 182.17,0 185.33,0 185.33,0 237.67,0 237.67,0 240.83,0 244,-3.17 244,-6.33 244,-6.33 244,-12.67 244,-12.67 244,-15.83 240.83,-19 237.67,-19"/>
<text text-anchor="middle" x="211.5" y="-7" font-family="Helvetica,sans-Serif" font-size="10.00">SatSys::id</text>
</a>
</g>
</g>
<!-- Node1&#45;&gt;Node2 -->
<g id="edge1_Node000001_Node000002" class="edge">
<title>Node1&#45;&gt;Node2</title>
<g id="a_edge1_Node000001_Node000002"><a xlink:title=" ">
<path fill="none" stroke="#63b8ff" d="M143.12,-9.5C151.79,-9.5 160.42,-9.5 168.47,-9.5"/>
<polygon fill="#63b8ff" stroke="#63b8ff" points="168.68,-13 178.68,-9.5 168.68,-6 168.68,-13"/>
</a>
</g>
</g>
</g>
</svg>
