<?xml version="1.0" encoding="UTF-8" standalone="no"?>
<!DOCTYPE svg PUBLIC "-//W3C//DTD SVG 1.1//EN"
 "http://www.w3.org/Graphics/SVG/1.1/DTD/svg11.dtd">
<!-- Generated by graphviz version 2.43.0 (0)
 -->
<!-- Title: mongoStatesAvailable Pages: 1 -->
<svg width="267pt" height="101pt"
 viewBox="0.00 0.00 267.00 101.00" xmlns="http://www.w3.org/2000/svg" xmlns:xlink="http://www.w3.org/1999/xlink">
<g id="graph0" class="graph" transform="scale(1 1) rotate(0) translate(4 97)">
<title>mongoStatesAvailable</title>
<!-- Node1 -->
<g id="Node000001" class="node">
<title>Node1</title>
<g id="a_Node000001"><a xlink:href="mongoWrite_8cpp.html#a5e568a5056356e5d762b71dd8d5666bd" target="_top" xlink:title=" ">
<path fill="#fff0f0" stroke="red" stroke-width="2" d="M119.67,-37C119.67,-37 6.33,-37 6.33,-37 3.17,-37 0,-33.83 0,-30.67 0,-30.67 0,-24.33 0,-24.33 0,-21.17 3.17,-18 6.33,-18 6.33,-18 119.67,-18 119.67,-18 122.83,-18 126,-21.17 126,-24.33 126,-24.33 126,-30.67 126,-30.67 126,-33.83 122.83,-37 119.67,-37"/>
<text text-anchor="middle" x="63" y="-25" font-family="Helvetica,sans-Serif" font-size="10.00">mongoStatesAvailable</text>
</a>
</g>
</g>
<!-- Node2 -->
<g id="Node000002" class="node">
<title>Node2</title>
<g id="a_Node000002"><a xlink:href="mongo_8cpp.html#a4deef04a2c03d1d1b7cc4bd72be73ed5" target="_top" xlink:title=" ">
<path fill="#fff0f0" stroke="red" d="M252.67,-93C252.67,-93 168.33,-93 168.33,-93 165.17,-93 162,-89.83 162,-86.67 162,-86.67 162,-80.33 162,-80.33 162,-77.17 165.17,-74 168.33,-74 168.33,-74 252.67,-74 252.67,-74 255.83,-74 259,-77.17 259,-80.33 259,-80.33 259,-86.67 259,-86.67 259,-89.83 255.83,-93 252.67,-93"/>
<text text-anchor="middle" x="210.5" y="-81" font-family="Helvetica,sans-Serif" font-size="10.00">mongoInstances</text>
</a>
</g>
</g>
<!-- Node1&#45;&gt;Node2 -->
<g id="edge1_Node000001_Node000002" class="edge">
<title>Node1&#45;&gt;Node2</title>
<g id="a_edge1_Node000001_Node000002"><a xlink:title=" ">
<path fill="none" stroke="#63b8ff" d="M88.55,-37.08C108.36,-44.79 136.95,-55.9 162,-65.5 165.98,-67.03 170.16,-68.62 174.31,-70.2"/>
<polygon fill="#63b8ff" stroke="#63b8ff" points="173.26,-73.54 183.85,-73.82 175.74,-67 173.26,-73.54"/>
</a>
</g>
</g>
<!-- Node3 -->
<g id="Node000003" class="node">
<title>Node3</title>
<g id="a_Node000003"><a xlink:href="mongoWrite_8cpp.html#a1e2ca94057cbcec690256e3e811ca525" target="_top" xlink:title=" ">
<path fill="#fff0f0" stroke="red" d="M244.17,-56C244.17,-56 176.83,-56 176.83,-56 173.67,-56 170.5,-52.83 170.5,-49.67 170.5,-49.67 170.5,-43.33 170.5,-43.33 170.5,-40.17 173.67,-37 176.83,-37 176.83,-37 244.17,-37 244.17,-37 247.33,-37 250.5,-40.17 250.5,-43.33 250.5,-43.33 250.5,-49.67 250.5,-49.67 250.5,-52.83 247.33,-56 244.17,-56"/>
<text text-anchor="middle" x="210.5" y="-44" font-family="Helvetica,sans-Serif" font-size="10.00">queueMongo</text>
</a>
</g>
</g>
<!-- Node1&#45;&gt;Node3 -->
<g id="edge2_Node000001_Node000003" class="edge">
<title>Node1&#45;&gt;Node3</title>
<g id="a_edge2_Node000001_Node000003"><a xlink:title=" ">
<path fill="none" stroke="#63b8ff" d="M126.13,-35.61C137.48,-37.1 149.19,-38.62 160.11,-40.05"/>
<polygon fill="#63b8ff" stroke="#63b8ff" points="159.94,-43.56 170.31,-41.38 160.84,-36.62 159.94,-43.56"/>
</a>
</g>
</g>
<!-- Node6 -->
<g id="Node000006" class="node">
<title>Node6</title>
<g id="a_Node000006"><a xlink:href="mongoWrite_8cpp.html#aebb57cb730f719eefb3bb81610f2a3e3" target="_top" xlink:title=" ">
<path fill="#fff0f0" stroke="red" d="M227.17,-19C227.17,-19 193.83,-19 193.83,-19 190.67,-19 187.5,-15.83 187.5,-12.67 187.5,-12.67 187.5,-6.33 187.5,-6.33 187.5,-3.17 190.67,0 193.83,0 193.83,0 227.17,0 227.17,0 230.33,0 233.5,-3.17 233.5,-6.33 233.5,-6.33 233.5,-12.67 233.5,-12.67 233.5,-15.83 230.33,-19 227.17,-19"/>
<text text-anchor="middle" x="210.5" y="-7" font-family="Helvetica,sans-Serif" font-size="10.00">bDate</text>
</a>
</g>
</g>
<!-- Node1&#45;&gt;Node6 -->
<g id="edge3_Node000001_Node000006" class="edge">
<title>Node1&#45;&gt;Node6</title>
<g id="a_edge3_Node000001_Node000006"><a xlink:title=" ">
<path fill="none" stroke="#63b8ff" d="M95.21,-17.98C119.36,-13.56 152.69,-9.41 177.13,-7.78"/>
<polygon fill="#63b8ff" stroke="#63b8ff" points="177.54,-11.26 187.33,-7.23 177.16,-4.27 177.54,-11.26"/>
</a>
</g>
</g>
<!-- Node1&#45;&gt;Node6 -->
<g id="edge4_Node000001_Node000006" class="edge">
<title>Node1&#45;&gt;Node6</title>
<g id="a_edge4_Node000001_Node000006"><a xlink:title=" ">
<path fill="none" stroke="#63b8ff" d="M126.13,-26.5C143.82,-24.53 162.38,-21.9 177.48,-19.17"/>
<polygon fill="#63b8ff" stroke="#63b8ff" points="178.18,-22.6 187.33,-17.26 176.85,-15.72 178.18,-22.6"/>
</a>
</g>
</g>
</g>
</svg>
