<?xml version="1.0" encoding="UTF-8" standalone="no"?>
<!DOCTYPE svg PUBLIC "-//W3C//DTD SVG 1.1//EN"
 "http://www.w3.org/Graphics/SVG/1.1/DTD/svg11.dtd">
<!-- Generated by graphviz version 2.43.0 (0)
 -->
<!-- Title: mongoReadGloEphemeris Pages: 1 -->
<svg width="363pt" height="56pt"
 viewBox="0.00 0.00 363.00 56.00" xmlns="http://www.w3.org/2000/svg" xmlns:xlink="http://www.w3.org/1999/xlink">
<g id="graph0" class="graph" transform="scale(1 1) rotate(0) translate(4 52)">
<title>mongoReadGloEphemeris</title>
<!-- Node1 -->
<g id="Node000001" class="node">
<title>Node1</title>
<g id="a_Node000001"><a xlink:href="mongoRead_8cpp.html#a4bcf3e799f3f61cb7ca9cbc1994557a8" target="_top" xlink:title="Read GLO ephemeris from Mongo DB.">
<path fill="#fff0f0" stroke="red" stroke-width="2" d="M348.67,-24.5C348.67,-24.5 218.33,-24.5 218.33,-24.5 215.17,-24.5 212,-21.33 212,-18.17 212,-18.17 212,-11.83 212,-11.83 212,-8.67 215.17,-5.5 218.33,-5.5 218.33,-5.5 348.67,-5.5 348.67,-5.5 351.83,-5.5 355,-8.67 355,-11.83 355,-11.83 355,-18.17 355,-18.17 355,-21.33 351.83,-24.5 348.67,-24.5"/>
<text text-anchor="middle" x="283.5" y="-12.5" font-family="Helvetica,sans-Serif" font-size="10.00">mongoReadGloEphemeris</text>
</a>
</g>
</g>
<!-- Node2 -->
<g id="Node000002" class="node">
<title>Node2</title>
<g id="a_Node000002"><a xlink:href="structNtripUploader.html#aed62670c2d0d02f1bb0d930f42e68609" target="_top" xlink:title=" ">
<path fill="#fff0f0" stroke="red" d="M166,-30C166,-30 10,-30 10,-30 5,-30 0,-25 0,-20 0,-20 0,-10 0,-10 0,-5 5,0 10,0 10,0 166,0 166,0 171,0 176,-5 176,-10 176,-10 176,-20 176,-20 176,-25 171,-30 166,-30"/>
<text text-anchor="start" x="8" y="-18" font-family="Helvetica,sans-Serif" font-size="10.00">NtripUploader::messageTimeout</text>
<text text-anchor="middle" x="88" y="-7" font-family="Helvetica,sans-Serif" font-size="10.00">Handler</text>
</a>
</g>
</g>
<!-- Node1&#45;&gt;Node2 -->
<g id="edge1_Node000001_Node000002" class="edge">
<title>Node1&#45;&gt;Node2</title>
<g id="a_edge1_Node000001_Node000002"><a xlink:title=" ">
<path fill="none" stroke="#63b8ff" d="M201.69,-15C193.3,-15 184.74,-15 176.29,-15"/>
<polygon fill="#63b8ff" stroke="#63b8ff" points="201.82,-18.5 211.82,-15 201.82,-11.5 201.82,-18.5"/>
</a>
</g>
</g>
<!-- Node2&#45;&gt;Node2 -->
<g id="edge2_Node000002_Node000002" class="edge">
<title>Node2&#45;&gt;Node2</title>
<g id="a_edge2_Node000002_Node000002"><a xlink:title=" ">
<path fill="none" stroke="#63b8ff" d="M121.96,-40.6C117.32,-44.97 106,-48 88,-48 57.69,-48 46.32,-39.41 53.9,-30.28"/>
<polygon fill="#63b8ff" stroke="#63b8ff" points="125.46,-40.32 122.1,-30.28 118.46,-40.23 125.46,-40.32"/>
</a>
</g>
</g>
</g>
</svg>
