<?xml version="1.0" encoding="UTF-8" standalone="no"?>
<!DOCTYPE svg PUBLIC "-//W3C//DTD SVG 1.1//EN"
 "http://www.w3.org/Graphics/SVG/1.1/DTD/svg11.dtd">
<!-- Generated by graphviz version 2.43.0 (0)
 -->
<!-- Title: mongoReadOrbClk Pages: 1 -->
<svg width="225pt" height="101pt"
 viewBox="0.00 0.00 225.00 101.00" xmlns="http://www.w3.org/2000/svg" xmlns:xlink="http://www.w3.org/1999/xlink">
<g id="graph0" class="graph" transform="scale(1 1) rotate(0) translate(4 97)">
<title>mongoReadOrbClk</title>
<!-- Node1 -->
<g id="Node000001" class="node">
<title>Node1</title>
<g id="a_Node000001"><a xlink:href="mongoRead_8cpp.html#a25a89dedbcc39aa56dfb1eff65744154" target="_top" xlink:title="Read orbits and clocks from Mongo DB.">
<path fill="#fff0f0" stroke="red" stroke-width="2" d="M101.67,-37C101.67,-37 6.33,-37 6.33,-37 3.17,-37 0,-33.83 0,-30.67 0,-30.67 0,-24.33 0,-24.33 0,-21.17 3.17,-18 6.33,-18 6.33,-18 101.67,-18 101.67,-18 104.83,-18 108,-21.17 108,-24.33 108,-24.33 108,-30.67 108,-30.67 108,-33.83 104.83,-37 101.67,-37"/>
<text text-anchor="middle" x="54" y="-25" font-family="Helvetica,sans-Serif" font-size="10.00">mongoReadOrbClk</text>
</a>
</g>
</g>
<!-- Node2 -->
<g id="Node000002" class="node">
<title>Node2</title>
<g id="a_Node000002"><a xlink:href="mongoWrite_8cpp.html#aebb57cb730f719eefb3bb81610f2a3e3" target="_top" xlink:title=" ">
<path fill="#fff0f0" stroke="red" d="M197.17,-93C197.17,-93 163.83,-93 163.83,-93 160.67,-93 157.5,-89.83 157.5,-86.67 157.5,-86.67 157.5,-80.33 157.5,-80.33 157.5,-77.17 160.67,-74 163.83,-74 163.83,-74 197.17,-74 197.17,-74 200.33,-74 203.5,-77.17 203.5,-80.33 203.5,-80.33 203.5,-86.67 203.5,-86.67 203.5,-89.83 200.33,-93 197.17,-93"/>
<text text-anchor="middle" x="180.5" y="-81" font-family="Helvetica,sans-Serif" font-size="10.00">bDate</text>
</a>
</g>
</g>
<!-- Node1&#45;&gt;Node2 -->
<g id="edge1_Node000001_Node000002" class="edge">
<title>Node1&#45;&gt;Node2</title>
<g id="a_edge1_Node000001_Node000002"><a xlink:title=" ">
<path fill="none" stroke="#63b8ff" d="M76.4,-37.13C96.48,-46.16 126.7,-59.75 149.24,-69.89"/>
<polygon fill="#63b8ff" stroke="#63b8ff" points="147.82,-73.09 158.38,-74 150.69,-66.7 147.82,-73.09"/>
</a>
</g>
</g>
<!-- Node3 -->
<g id="Node000003" class="node">
<title>Node3</title>
<g id="a_Node000003"><a xlink:href="satSys_8cpp.html#aae80f3401dd26548c7b0b83c1e25e499" target="_top" xlink:title="Get all satellites of target system.">
<path fill="#fff0f0" stroke="red" d="M209.67,-56C209.67,-56 151.33,-56 151.33,-56 148.17,-56 145,-52.83 145,-49.67 145,-49.67 145,-43.33 145,-43.33 145,-40.17 148.17,-37 151.33,-37 151.33,-37 209.67,-37 209.67,-37 212.83,-37 216,-40.17 216,-43.33 216,-43.33 216,-49.67 216,-49.67 216,-52.83 212.83,-56 209.67,-56"/>
<text text-anchor="middle" x="180.5" y="-44" font-family="Helvetica,sans-Serif" font-size="10.00">getSysSats</text>
</a>
</g>
</g>
<!-- Node1&#45;&gt;Node3 -->
<g id="edge2_Node000001_Node000003" class="edge">
<title>Node1&#45;&gt;Node3</title>
<g id="a_edge2_Node000001_Node000003"><a xlink:title=" ">
<path fill="none" stroke="#63b8ff" d="M108.16,-35.61C117.09,-36.98 126.28,-38.38 134.96,-39.7"/>
<polygon fill="#63b8ff" stroke="#63b8ff" points="134.47,-43.17 144.88,-41.22 135.52,-36.25 134.47,-43.17"/>
</a>
</g>
</g>
<!-- Node4 -->
<g id="Node000004" class="node">
<title>Node4</title>
<g id="a_Node000004"><a xlink:href="mongoRead_8cpp.html#a37aadab1fa7529e2344bce109ea42439" target="_top" xlink:title=" ">
<path fill="#fff0f0" stroke="red" d="M210.67,-19C210.67,-19 150.33,-19 150.33,-19 147.17,-19 144,-15.83 144,-12.67 144,-12.67 144,-6.33 144,-6.33 144,-3.17 147.17,0 150.33,0 150.33,0 210.67,0 210.67,0 213.83,0 217,-3.17 217,-6.33 217,-6.33 217,-12.67 217,-12.67 217,-15.83 213.83,-19 210.67,-19"/>
<text text-anchor="middle" x="180.5" y="-7" font-family="Helvetica,sans-Serif" font-size="10.00">getStraddle</text>
</a>
</g>
</g>
<!-- Node1&#45;&gt;Node4 -->
<g id="edge3_Node000001_Node000004" class="edge">
<title>Node1&#45;&gt;Node4</title>
<g id="a_edge3_Node000001_Node000004"><a xlink:title=" ">
<path fill="none" stroke="#63b8ff" d="M81.71,-17.98C96.88,-14.73 116.29,-11.64 133.8,-9.57"/>
<polygon fill="#63b8ff" stroke="#63b8ff" points="134.29,-13.04 143.86,-8.48 133.54,-6.08 134.29,-13.04"/>
</a>
</g>
</g>
<!-- Node1&#45;&gt;Node4 -->
<g id="edge4_Node000001_Node000004" class="edge">
<title>Node1&#45;&gt;Node4</title>
<g id="a_edge4_Node000001_Node000004"><a xlink:title=" ">
<path fill="none" stroke="#63b8ff" d="M108.16,-26.5C119.78,-24.99 131.83,-23.09 142.65,-21.05"/>
<polygon fill="#63b8ff" stroke="#63b8ff" points="143.47,-24.46 152.59,-19.06 142.09,-17.59 143.47,-24.46"/>
</a>
</g>
</g>
</g>
</svg>
