<?xml version="1.0" encoding="UTF-8" standalone="no"?>
<!DOCTYPE svg PUBLIC "-//W3C//DTD SVG 1.1//EN"
 "http://www.w3.org/Graphics/SVG/1.1/DTD/svg11.dtd">
<!-- Generated by graphviz version 2.43.0 (0)
 -->
<!-- Title: mongoReadPhaseBias Pages: 1 -->
<svg width="345pt" height="56pt"
 viewBox="0.00 0.00 345.00 56.00" xmlns="http://www.w3.org/2000/svg" xmlns:xlink="http://www.w3.org/1999/xlink">
<g id="graph0" class="graph" transform="scale(1 1) rotate(0) translate(4 52)">
<title>mongoReadPhaseBias</title>
<!-- Node1 -->
<g id="Node000001" class="node">
<title>Node1</title>
<g id="a_Node000001"><a xlink:href="mongoRead_8cpp.html#a1d89a7a6cae3e135ebc59b318cff9736" target="_top" xlink:title="Read phase biases from Mongo DB.">
<path fill="#fff0f0" stroke="red" stroke-width="2" d="M330.67,-24.5C330.67,-24.5 218.33,-24.5 218.33,-24.5 215.17,-24.5 212,-21.33 212,-18.17 212,-18.17 212,-11.83 212,-11.83 212,-8.67 215.17,-5.5 218.33,-5.5 218.33,-5.5 330.67,-5.5 330.67,-5.5 333.83,-5.5 337,-8.67 337,-11.83 337,-11.83 337,-18.17 337,-18.17 337,-21.33 333.83,-24.5 330.67,-24.5"/>
<text text-anchor="middle" x="274.5" y="-12.5" font-family="Helvetica,sans-Serif" font-size="10.00">mongoReadPhaseBias</text>
</a>
</g>
</g>
<!-- Node2 -->
<g id="Node000002" class="node">
<title>Node2</title>
<g id="a_Node000002"><a xlink:href="structNtripUploader.html#aed62670c2d0d02f1bb0d930f42e68609" target="_top" xlink:title=" ">
<path fill="#fff0f0" stroke="red" d="M166,-30C166,-30 10,-30 10,-30 5,-30 0,-25 0,-20 0,-20 0,-10 0,-10 0,-5 5,0 10,0 10,0 166,0 166,0 171,0 176,-5 176,-10 176,-10 176,-20 176,-20 176,-25 171,-30 166,-30"/>
<text text-anchor="start" x="8" y="-18" font-family="Helvetica,sans-Serif" font-size="10.00">NtripUploader::messageTimeout</text>
<text text-anchor="middle" x="88" y="-7" font-family="Helvetica,sans-Serif" font-size="10.00">Handler</text>
</a>
</g>
</g>
<!-- Node1&#45;&gt;Node2 -->
<g id="edge1_Node000001_Node000002" class="edge">
<title>Node1&#45;&gt;Node2</title>
<g id="a_edge1_Node000001_Node000002"><a xlink:title=" ">
<path fill="none" stroke="#63b8ff" d="M201.75,-15C193.39,-15 184.8,-15 176.26,-15"/>
<polygon fill="#63b8ff" stroke="#63b8ff" points="201.81,-18.5 211.81,-15 201.81,-11.5 201.81,-18.5"/>
</a>
</g>
</g>
<!-- Node2&#45;&gt;Node2 -->
<g id="edge2_Node000002_Node000002" class="edge">
<title>Node2&#45;&gt;Node2</title>
<g id="a_edge2_Node000002_Node000002"><a xlink:title=" ">
<path fill="none" stroke="#63b8ff" d="M120.56,-40.6C116.11,-44.97 105.26,-48 88,-48 58.94,-48 48.04,-39.41 55.3,-30.28"/>
<polygon fill="#63b8ff" stroke="#63b8ff" points="124.06,-40.32 120.7,-30.28 117.06,-40.23 124.06,-40.32"/>
</a>
</g>
</g>
</g>
</svg>
