<?xml version="1.0" encoding="UTF-8" standalone="no"?>
<!DOCTYPE svg PUBLIC "-//W3C//DTD SVG 1.1//EN"
 "http://www.w3.org/Graphics/SVG/1.1/DTD/svg11.dtd">
<!-- Generated by graphviz version 2.43.0 (0)
 -->
<!-- Title: bDate Pages: 1 -->
<svg width="247pt" height="323pt"
 viewBox="0.00 0.00 247.00 323.00" xmlns="http://www.w3.org/2000/svg" xmlns:xlink="http://www.w3.org/1999/xlink">
<g id="graph0" class="graph" transform="scale(1 1) rotate(0) translate(4 319)">
<title>bDate</title>
<!-- Node1 -->
<g id="Node000001" class="node">
<title>Node1</title>
<g id="a_Node000001"><a xlink:href="mongoWrite_8cpp.html#aebb57cb730f719eefb3bb81610f2a3e3" target="_top" xlink:title=" ">
<path fill="#fff0f0" stroke="red" stroke-width="2" d="M232.67,-167C232.67,-167 199.33,-167 199.33,-167 196.17,-167 193,-163.83 193,-160.67 193,-160.67 193,-154.33 193,-154.33 193,-151.17 196.17,-148 199.33,-148 199.33,-148 232.67,-148 232.67,-148 235.83,-148 239,-151.17 239,-154.33 239,-154.33 239,-160.67 239,-160.67 239,-163.83 235.83,-167 232.67,-167"/>
<text text-anchor="middle" x="216" y="-155" font-family="Helvetica,sans-Serif" font-size="10.00">bDate</text>
</a>
</g>
</g>
<!-- Node2 -->
<g id="Node000002" class="node">
<title>Node2</title>
<g id="a_Node000002"><a xlink:href="mongoWrite_8cpp.html#a80b870679e2666999af874ba9580269a" target="_top" xlink:title=" ">
<path fill="#fff0f0" stroke="red" d="M134.17,-315C134.17,-315 22.83,-315 22.83,-315 19.67,-315 16.5,-311.83 16.5,-308.67 16.5,-308.67 16.5,-302.33 16.5,-302.33 16.5,-299.17 19.67,-296 22.83,-296 22.83,-296 134.17,-296 134.17,-296 137.33,-296 140.5,-299.17 140.5,-302.33 140.5,-302.33 140.5,-308.67 140.5,-308.67 140.5,-311.83 137.33,-315 134.17,-315"/>
<text text-anchor="middle" x="78.5" y="-303" font-family="Helvetica,sans-Serif" font-size="10.00">mongoMeasResiduals</text>
</a>
</g>
</g>
<!-- Node1&#45;&gt;Node2 -->
<g id="edge1_Node000001_Node000002" class="edge">
<title>Node1&#45;&gt;Node2</title>
<g id="a_edge1_Node000001_Node000002"><a xlink:title=" ">
<path fill="none" stroke="#63b8ff" d="M211.87,-177.12C206.21,-205.85 191.5,-259.04 157,-287.5 152.2,-291.46 146.7,-294.58 140.89,-297.03"/>
<polygon fill="#63b8ff" stroke="#63b8ff" points="215.35,-177.55 213.66,-167.08 208.45,-176.31 215.35,-177.55"/>
</a>
</g>
</g>
<!-- Node37 -->
<g id="Node000037" class="node">
<title>Node37</title>
<g id="a_Node000037"><a xlink:href="mongoWrite_8cpp.html#a5cadd0b1a16ece0f12724f6f750b19ce" target="_top" xlink:title=" ">
<path fill="#fff0f0" stroke="red" d="M128.17,-278C128.17,-278 28.83,-278 28.83,-278 25.67,-278 22.5,-274.83 22.5,-271.67 22.5,-271.67 22.5,-265.33 22.5,-265.33 22.5,-262.17 25.67,-259 28.83,-259 28.83,-259 128.17,-259 128.17,-259 131.33,-259 134.5,-262.17 134.5,-265.33 134.5,-265.33 134.5,-271.67 134.5,-271.67 134.5,-274.83 131.33,-278 128.17,-278"/>
<text text-anchor="middle" x="78.5" y="-266" font-family="Helvetica,sans-Serif" font-size="10.00">mongoMeasSatStat</text>
</a>
</g>
</g>
<!-- Node1&#45;&gt;Node37 -->
<g id="edge2_Node000001_Node000037" class="edge">
<title>Node1&#45;&gt;Node37</title>
<g id="a_edge2_Node000001_Node000037"><a xlink:title=" ">
<path fill="none" stroke="#63b8ff" d="M208.19,-176.77C199.62,-198.15 182.82,-232.04 157,-250.5 150.37,-255.24 142.68,-258.75 134.77,-261.35"/>
<polygon fill="#63b8ff" stroke="#63b8ff" points="211.57,-177.74 211.83,-167.15 205.02,-175.26 211.57,-177.74"/>
</a>
</g>
</g>
<!-- Node38 -->
<g id="Node000038" class="node">
<title>Node38</title>
<g id="a_Node000038"><a xlink:href="mongoRead_8cpp.html#afb5b00d2940faf413c2501f90ff6f9f4" target="_top" xlink:title=" ">
<path fill="#fff0f0" stroke="red" d="M150.67,-241C150.67,-241 6.33,-241 6.33,-241 3.17,-241 0,-237.83 0,-234.67 0,-234.67 0,-228.33 0,-228.33 0,-225.17 3.17,-222 6.33,-222 6.33,-222 150.67,-222 150.67,-222 153.83,-222 157,-225.17 157,-228.33 157,-228.33 157,-234.67 157,-234.67 157,-237.83 153.83,-241 150.67,-241"/>
<text text-anchor="middle" x="78.5" y="-229" font-family="Helvetica,sans-Serif" font-size="10.00">mongoReadCmpAtmosphere</text>
</a>
</g>
</g>
<!-- Node1&#45;&gt;Node38 -->
<g id="edge3_Node000001_Node000038" class="edge">
<title>Node1&#45;&gt;Node38</title>
<g id="a_edge3_Node000001_Node000038"><a xlink:title=" ">
<path fill="none" stroke="#63b8ff" d="M201.35,-175.01C190.62,-187.59 174.58,-203.94 157,-213.5 150.69,-216.93 143.75,-219.71 136.68,-221.96"/>
<polygon fill="#63b8ff" stroke="#63b8ff" points="204.25,-176.99 207.89,-167.04 198.84,-172.55 204.25,-176.99"/>
</a>
</g>
</g>
<!-- Node42 -->
<g id="Node000042" class="node">
<title>Node42</title>
<g id="a_Node000042"><a xlink:href="mongoRead_8cpp.html#afb0cf2e28aad7d5f276d9735f941195d" target="_top" xlink:title=" ">
<path fill="#fff0f0" stroke="red" d="M122.17,-204C122.17,-204 34.83,-204 34.83,-204 31.67,-204 28.5,-200.83 28.5,-197.67 28.5,-197.67 28.5,-191.33 28.5,-191.33 28.5,-188.17 31.67,-185 34.83,-185 34.83,-185 122.17,-185 122.17,-185 125.33,-185 128.5,-188.17 128.5,-191.33 128.5,-191.33 128.5,-197.67 128.5,-197.67 128.5,-200.83 125.33,-204 122.17,-204"/>
<text text-anchor="middle" x="78.5" y="-192" font-family="Helvetica,sans-Serif" font-size="10.00">mongoReadFilter</text>
</a>
</g>
</g>
<!-- Node1&#45;&gt;Node42 -->
<g id="edge4_Node000001_Node000042" class="edge">
<title>Node1&#45;&gt;Node42</title>
<g id="a_edge4_Node000001_Node000042"><a xlink:title=" ">
<path fill="none" stroke="#63b8ff" d="M183.27,-168.45C174.78,-171.23 165.58,-174.1 157,-176.5 146.22,-179.51 134.51,-182.42 123.53,-184.99"/>
<polygon fill="#63b8ff" stroke="#63b8ff" points="184.45,-171.75 192.83,-165.27 182.24,-165.11 184.45,-171.75"/>
</a>
</g>
</g>
<!-- Node43 -->
<g id="Node000043" class="node">
<title>Node43</title>
<g id="a_Node000043"><a xlink:href="mongoRead_8cpp.html#aea3f99d0d7de4d2cdd4700fb5685b185" target="_top" xlink:title=" ">
<path fill="#fff0f0" stroke="red" d="M145.17,-167C145.17,-167 11.83,-167 11.83,-167 8.67,-167 5.5,-163.83 5.5,-160.67 5.5,-160.67 5.5,-154.33 5.5,-154.33 5.5,-151.17 8.67,-148 11.83,-148 11.83,-148 145.17,-148 145.17,-148 148.33,-148 151.5,-151.17 151.5,-154.33 151.5,-154.33 151.5,-160.67 151.5,-160.67 151.5,-163.83 148.33,-167 145.17,-167"/>
<text text-anchor="middle" x="78.5" y="-155" font-family="Helvetica,sans-Serif" font-size="10.00">mongoReadIGSIonosphere</text>
</a>
</g>
</g>
<!-- Node1&#45;&gt;Node43 -->
<g id="edge5_Node000001_Node000043" class="edge">
<title>Node1&#45;&gt;Node43</title>
<g id="a_edge5_Node000001_Node000043"><a xlink:title=" ">
<path fill="none" stroke="#63b8ff" d="M182.84,-157.5C173.37,-157.5 162.6,-157.5 151.67,-157.5"/>
<polygon fill="#63b8ff" stroke="#63b8ff" points="182.93,-161 192.93,-157.5 182.93,-154 182.93,-161"/>
</a>
</g>
</g>
<!-- Node44 -->
<g id="Node000044" class="node">
<title>Node44</title>
<g id="a_Node000044"><a xlink:href="mongoRead_8cpp.html#a25a89dedbcc39aa56dfb1eff65744154" target="_top" xlink:title="Read orbits and clocks from Mongo DB.">
<path fill="#fff0f0" stroke="red" d="M126.17,-130C126.17,-130 30.83,-130 30.83,-130 27.67,-130 24.5,-126.83 24.5,-123.67 24.5,-123.67 24.5,-117.33 24.5,-117.33 24.5,-114.17 27.67,-111 30.83,-111 30.83,-111 126.17,-111 126.17,-111 129.33,-111 132.5,-114.17 132.5,-117.33 132.5,-117.33 132.5,-123.67 132.5,-123.67 132.5,-126.83 129.33,-130 126.17,-130"/>
<text text-anchor="middle" x="78.5" y="-118" font-family="Helvetica,sans-Serif" font-size="10.00">mongoReadOrbClk</text>
</a>
</g>
</g>
<!-- Node1&#45;&gt;Node44 -->
<g id="edge6_Node000001_Node000044" class="edge">
<title>Node1&#45;&gt;Node44</title>
<g id="a_edge6_Node000001_Node000044"><a xlink:title=" ">
<path fill="none" stroke="#63b8ff" d="M183.22,-147.26C174.73,-144.63 165.54,-141.87 157,-139.5 145.25,-136.24 132.42,-132.98 120.65,-130.1"/>
<polygon fill="#63b8ff" stroke="#63b8ff" points="182.19,-150.6 192.78,-150.26 184.29,-143.93 182.19,-150.6"/>
</a>
</g>
</g>
<!-- Node31 -->
<g id="Node000031" class="node">
<title>Node31</title>
<g id="a_Node000031"><a xlink:href="mongoWrite_8cpp.html#a7b0669675f4db278af7db5cb0b0dee6a" target="_top" xlink:title=" ">
<path fill="#fff0f0" stroke="red" d="M112.67,-93C112.67,-93 44.33,-93 44.33,-93 41.17,-93 38,-89.83 38,-86.67 38,-86.67 38,-80.33 38,-80.33 38,-77.17 41.17,-74 44.33,-74 44.33,-74 112.67,-74 112.67,-74 115.83,-74 119,-77.17 119,-80.33 119,-80.33 119,-86.67 119,-86.67 119,-89.83 115.83,-93 112.67,-93"/>
<text text-anchor="middle" x="78.5" y="-81" font-family="Helvetica,sans-Serif" font-size="10.00">mongoStates</text>
</a>
</g>
</g>
<!-- Node1&#45;&gt;Node31 -->
<g id="edge7_Node000001_Node000031" class="edge">
<title>Node1&#45;&gt;Node31</title>
<g id="a_edge7_Node000001_Node000031"><a xlink:title=" ">
<path fill="none" stroke="#63b8ff" d="M200.89,-139.95C190.11,-127.69 174.22,-111.9 157,-102.5 145.45,-96.19 131.8,-91.95 119.2,-89.11"/>
<polygon fill="#63b8ff" stroke="#63b8ff" points="198.35,-142.37 207.48,-147.75 203.7,-137.85 198.35,-142.37"/>
</a>
</g>
</g>
<!-- Node34 -->
<g id="Node000034" class="node">
<title>Node34</title>
<g id="a_Node000034"><a xlink:href="mongoWrite_8cpp.html#a5e568a5056356e5d762b71dd8d5666bd" target="_top" xlink:title=" ">
<path fill="#fff0f0" stroke="red" d="M135.17,-56C135.17,-56 21.83,-56 21.83,-56 18.67,-56 15.5,-52.83 15.5,-49.67 15.5,-49.67 15.5,-43.33 15.5,-43.33 15.5,-40.17 18.67,-37 21.83,-37 21.83,-37 135.17,-37 135.17,-37 138.33,-37 141.5,-40.17 141.5,-43.33 141.5,-43.33 141.5,-49.67 141.5,-49.67 141.5,-52.83 138.33,-56 135.17,-56"/>
<text text-anchor="middle" x="78.5" y="-44" font-family="Helvetica,sans-Serif" font-size="10.00">mongoStatesAvailable</text>
</a>
</g>
</g>
<!-- Node1&#45;&gt;Node34 -->
<g id="edge8_Node000001_Node000034" class="edge">
<title>Node1&#45;&gt;Node34</title>
<g id="a_edge8_Node000001_Node000034"><a xlink:title=" ">
<path fill="none" stroke="#63b8ff" d="M208.09,-138.49C199.43,-117.39 182.55,-83.91 157,-65.5 151.6,-61.61 145.51,-58.52 139.16,-56.05"/>
<polygon fill="#63b8ff" stroke="#63b8ff" points="204.9,-139.93 211.78,-147.98 211.42,-137.4 204.9,-139.93"/>
</a>
</g>
</g>
<!-- Node45 -->
<g id="Node000045" class="node">
<title>Node45</title>
<g id="a_Node000045"><a xlink:href="mongoWrite_8cpp.html#a2b60515d35b3ad7ac783de1d8539495f" target="_top" xlink:title=" ">
<path fill="#fff0f0" stroke="red" d="M116.67,-19C116.67,-19 40.33,-19 40.33,-19 37.17,-19 34,-15.83 34,-12.67 34,-12.67 34,-6.33 34,-6.33 34,-3.17 37.17,0 40.33,0 40.33,0 116.67,0 116.67,0 119.83,0 123,-3.17 123,-6.33 123,-6.33 123,-12.67 123,-12.67 123,-15.83 119.83,-19 116.67,-19"/>
<text text-anchor="middle" x="78.5" y="-7" font-family="Helvetica,sans-Serif" font-size="10.00">mongoTestStat</text>
</a>
</g>
</g>
<!-- Node1&#45;&gt;Node45 -->
<g id="edge9_Node000001_Node000045" class="edge">
<title>Node1&#45;&gt;Node45</title>
<g id="a_edge9_Node000001_Node000045"><a xlink:title=" ">
<path fill="none" stroke="#63b8ff" d="M211.69,-137.67C205.86,-109.12 190.98,-56.8 157,-28.5 147.53,-20.61 135.27,-15.91 123.32,-13.14"/>
<polygon fill="#63b8ff" stroke="#63b8ff" points="208.28,-138.48 213.56,-147.66 215.16,-137.19 208.28,-138.48"/>
</a>
</g>
</g>
</g>
</svg>
