<?xml version="1.0" encoding="UTF-8" standalone="no"?>
<!DOCTYPE svg PUBLIC "-//W3C//DTD SVG 1.1//EN"
 "http://www.w3.org/Graphics/SVG/1.1/DTD/svg11.dtd">
<!-- Generated by graphviz version 2.43.0 (0)
 -->
<!-- Title: mongoooo Pages: 1 -->
<svg width="224pt" height="72pt"
 viewBox="0.00 0.00 224.00 71.56" xmlns="http://www.w3.org/2000/svg" xmlns:xlink="http://www.w3.org/1999/xlink">
<g id="graph0" class="graph" transform="scale(1 1) rotate(0) translate(4 67.56)">
<title>mongoooo</title>
<!-- Node1 -->
<g id="Node000001" class="node">
<title>Node1</title>
<g id="a_Node000001"><a xlink:href="mongo_8cpp.html#ae5331ad152c6df38001c3b955c533f8d" target="_top" xlink:title=" ">
<path fill="#fff0f0" stroke="red" stroke-width="2" d="M61.67,-39C61.67,-39 6.33,-39 6.33,-39 3.17,-39 0,-35.83 0,-32.67 0,-32.67 0,-26.33 0,-26.33 0,-23.17 3.17,-20 6.33,-20 6.33,-20 61.67,-20 61.67,-20 64.83,-20 68,-23.17 68,-26.33 68,-26.33 68,-32.67 68,-32.67 68,-35.83 64.83,-39 61.67,-39"/>
<text text-anchor="middle" x="34" y="-27" font-family="Helvetica,sans-Serif" font-size="10.00">mongoooo</text>
</a>
</g>
</g>
<!-- Node2 -->
<g id="Node000002" class="node">
<title>Node2</title>
<g id="a_Node000002"><a xlink:href="mongo_8cpp.html#ac25d7a53dfa925957f12845afd38f5b0" target="_top" xlink:title="Persistant formatted storage and inter&#45;process communication.">
<path fill="#ffc770" stroke="#ff8f00" d="M216,-61.24C216,-62.56 190.9,-63.63 160,-63.63 129.1,-63.63 104,-62.56 104,-61.24 104,-61.24 104,-39.76 104,-39.76 104,-38.44 129.1,-37.37 160,-37.37 190.9,-37.37 216,-38.44 216,-39.76 216,-39.76 216,-61.24 216,-61.24"/>
<path fill="none" stroke="#ff8f00" d="M216,-61.24C216,-59.92 190.9,-58.85 160,-58.85 129.1,-58.85 104,-59.92 104,-61.24"/>
<text text-anchor="middle" x="160" y="-48" font-family="Helvetica,sans-Serif" font-size="10.00">Mongo_Database__</text>
</a>
</g>
</g>
<!-- Node1&#45;&gt;Node2 -->
<g id="edge1_Node000001_Node000002" class="edge">
<title>Node1&#45;&gt;Node2</title>
<g id="a_edge1_Node000001_Node000002"><a xlink:title=" ">
<path fill="none" stroke="#63b8ff" d="M68.23,-35.13C76.15,-36.47 84.88,-37.95 93.7,-39.44"/>
<polygon fill="#63b8ff" stroke="#63b8ff" points="93.21,-42.91 103.65,-41.13 94.38,-36.01 93.21,-42.91"/>
</a>
</g>
</g>
<!-- Node3 -->
<g id="Node000003" class="node">
<title>Node3</title>
<g id="a_Node000003"><a xlink:href="mongo_8cpp.html#a4deef04a2c03d1d1b7cc4bd72be73ed5" target="_top" xlink:title=" ">
<path fill="#fff0f0" stroke="red" d="M202.17,-19C202.17,-19 117.83,-19 117.83,-19 114.67,-19 111.5,-15.83 111.5,-12.67 111.5,-12.67 111.5,-6.33 111.5,-6.33 111.5,-3.17 114.67,0 117.83,0 117.83,0 202.17,0 202.17,0 205.33,0 208.5,-3.17 208.5,-6.33 208.5,-6.33 208.5,-12.67 208.5,-12.67 208.5,-15.83 205.33,-19 202.17,-19"/>
<text text-anchor="middle" x="160" y="-7" font-family="Helvetica,sans-Serif" font-size="10.00">mongoInstances</text>
</a>
</g>
</g>
<!-- Node1&#45;&gt;Node3 -->
<g id="edge2_Node000001_Node000003" class="edge">
<title>Node1&#45;&gt;Node3</title>
<g id="a_edge2_Node000001_Node000003"><a xlink:title=" ">
<path fill="none" stroke="#63b8ff" d="M68.23,-24.14C78.44,-22.49 89.99,-20.63 101.34,-18.8"/>
<polygon fill="#63b8ff" stroke="#63b8ff" points="101.91,-22.25 111.22,-17.21 100.79,-15.34 101.91,-22.25"/>
</a>
</g>
</g>
</g>
</svg>
