<?xml version="1.0" encoding="UTF-8" standalone="no"?>
<!DOCTYPE svg PUBLIC "-//W3C//DTD SVG 1.1//EN"
 "http://www.w3.org/Graphics/SVG/1.1/DTD/svg11.dtd">
<!-- Generated by graphviz version 2.43.0 (0)
 -->
<!-- Title: checkValidDbname Pages: 1 -->
<svg width="235pt" height="27pt"
 viewBox="0.00 0.00 235.00 27.00" xmlns="http://www.w3.org/2000/svg" xmlns:xlink="http://www.w3.org/1999/xlink">
<g id="graph0" class="graph" transform="scale(1 1) rotate(0) translate(4 23)">
<title>checkValidDbname</title>
<!-- Node1 -->
<g id="Node000001" class="node">
<title>Node1</title>
<g id="a_Node000001"><a xlink:href="mongo_8cpp.html#a6ae1d4d5325500d82e381190dcafe405" target="_top" xlink:title=" ">
<path fill="#fff0f0" stroke="red" stroke-width="2" d="M103.67,-19C103.67,-19 6.33,-19 6.33,-19 3.17,-19 0,-15.83 0,-12.67 0,-12.67 0,-6.33 0,-6.33 0,-3.17 3.17,0 6.33,0 6.33,0 103.67,0 103.67,0 106.83,0 110,-3.17 110,-6.33 110,-6.33 110,-12.67 110,-12.67 110,-15.83 106.83,-19 103.67,-19"/>
<text text-anchor="middle" x="55" y="-7" font-family="Helvetica,sans-Serif" font-size="10.00">checkValidDbname</text>
</a>
</g>
</g>
<!-- Node2 -->
<g id="Node000002" class="node">
<title>Node2</title>
<g id="a_Node000002"><a xlink:href="acsConfig_8cpp.html#a611c3086ccdeb877c19a6b1d603227a4" target="_top" xlink:title="search for and replace section of string">
<path fill="#fff0f0" stroke="red" d="M220.67,-19C220.67,-19 152.33,-19 152.33,-19 149.17,-19 146,-15.83 146,-12.67 146,-12.67 146,-6.33 146,-6.33 146,-3.17 149.17,0 152.33,0 152.33,0 220.67,0 220.67,0 223.83,0 227,-3.17 227,-6.33 227,-6.33 227,-12.67 227,-12.67 227,-15.83 223.83,-19 220.67,-19"/>
<text text-anchor="middle" x="186.5" y="-7" font-family="Helvetica,sans-Serif" font-size="10.00">replaceString</text>
</a>
</g>
</g>
<!-- Node1&#45;&gt;Node2 -->
<g id="edge1_Node000001_Node000002" class="edge">
<title>Node1&#45;&gt;Node2</title>
<g id="a_edge1_Node000001_Node000002"><a xlink:title=" ">
<path fill="none" stroke="#63b8ff" d="M110.17,-9.5C118.55,-9.5 127.18,-9.5 135.46,-9.5"/>
<polygon fill="#63b8ff" stroke="#63b8ff" points="135.73,-13 145.73,-9.5 135.73,-6 135.73,-13"/>
</a>
</g>
</g>
</g>
</svg>
