<?xml version="1.0" encoding="UTF-8" standalone="no"?>
<!DOCTYPE svg PUBLIC "-//W3C//DTD SVG 1.1//EN"
 "http://www.w3.org/Graphics/SVG/1.1/DTD/svg11.dtd">
<!-- Generated by graphviz version 2.43.0 (0)
 -->
<!-- Title: writeOrbexHeader Pages: 1 -->
<svg width="254pt" height="27pt"
 viewBox="0.00 0.00 254.00 27.00" xmlns="http://www.w3.org/2000/svg" xmlns:xlink="http://www.w3.org/1999/xlink">
<g id="graph0" class="graph" transform="scale(1 1) rotate(0) translate(4 23)">
<title>writeOrbexHeader</title>
<!-- Node1 -->
<g id="Node000001" class="node">
<title>Node1</title>
<g id="a_Node000001"><a xlink:href="orbexWrite_8cpp.html#a68acb232854e3173995f4c0441d7de70" target="_top" xlink:title="Write ORBEX header lines and header blocks including FILE/DESCRIPTION and SATELLITE/ID_AND_DESCRIPTIO...">
<path fill="#fff0f0" stroke="red" stroke-width="2" d="M239.67,-19C239.67,-19 146.33,-19 146.33,-19 143.17,-19 140,-15.83 140,-12.67 140,-12.67 140,-6.33 140,-6.33 140,-3.17 143.17,0 146.33,0 146.33,0 239.67,0 239.67,0 242.83,0 246,-3.17 246,-6.33 246,-6.33 246,-12.67 246,-12.67 246,-15.83 242.83,-19 239.67,-19"/>
<text text-anchor="middle" x="193" y="-7" font-family="Helvetica,sans-Serif" font-size="10.00">writeOrbexHeader</text>
</a>
</g>
</g>
<!-- Node2 -->
<g id="Node000002" class="node">
<title>Node2</title>
<g id="a_Node000002"><a xlink:href="orbexWrite_8cpp.html#ace464608ffc3c7d40431a978297d3892" target="_top" xlink:title="Write EPHEMERIS/DATA block and update END_TIME line.">
<path fill="#fff0f0" stroke="red" d="M97.67,-19C97.67,-19 6.33,-19 6.33,-19 3.17,-19 0,-15.83 0,-12.67 0,-12.67 0,-6.33 0,-6.33 0,-3.17 3.17,0 6.33,0 6.33,0 97.67,0 97.67,0 100.83,0 104,-3.17 104,-6.33 104,-6.33 104,-12.67 104,-12.67 104,-15.83 100.83,-19 97.67,-19"/>
<text text-anchor="middle" x="52" y="-7" font-family="Helvetica,sans-Serif" font-size="10.00">updateOrbexBody</text>
</a>
</g>
</g>
<!-- Node1&#45;&gt;Node2 -->
<g id="edge1_Node000001_Node000002" class="edge">
<title>Node1&#45;&gt;Node2</title>
<g id="a_edge1_Node000001_Node000002"><a xlink:title=" ">
<path fill="none" stroke="#63b8ff" d="M129.83,-9.5C121.21,-9.5 112.45,-9.5 104.06,-9.5"/>
<polygon fill="#63b8ff" stroke="#63b8ff" points="129.85,-13 139.85,-9.5 129.85,-6 129.85,-13"/>
</a>
</g>
</g>
</g>
</svg>
