<?xml version="1.0" encoding="UTF-8" standalone="no"?>
<!DOCTYPE svg PUBLIC "-//W3C//DTD SVG 1.1//EN"
 "http://www.w3.org/Graphics/SVG/1.1/DTD/svg11.dtd">
<!-- Generated by graphviz version 2.43.0 (0)
 -->
<!-- Title: writeAtt Pages: 1 -->
<svg width="204pt" height="27pt"
 viewBox="0.00 0.00 204.00 27.00" xmlns="http://www.w3.org/2000/svg" xmlns:xlink="http://www.w3.org/1999/xlink">
<g id="graph0" class="graph" transform="scale(1 1) rotate(0) translate(4 23)">
<title>writeAtt</title>
<!-- Node1 -->
<g id="Node000001" class="node">
<title>Node1</title>
<g id="a_Node000001"><a xlink:href="orbexWrite_8cpp.html#aacc1c61d2e5ca75ed10d4c48e31481f2" target="_top" xlink:title="Write ATT records.">
<path fill="#fff0f0" stroke="red" stroke-width="2" d="M189.67,-19C189.67,-19 146.33,-19 146.33,-19 143.17,-19 140,-15.83 140,-12.67 140,-12.67 140,-6.33 140,-6.33 140,-3.17 143.17,0 146.33,0 146.33,0 189.67,0 189.67,0 192.83,0 196,-3.17 196,-6.33 196,-6.33 196,-12.67 196,-12.67 196,-15.83 192.83,-19 189.67,-19"/>
<text text-anchor="middle" x="168" y="-7" font-family="Helvetica,sans-Serif" font-size="10.00">writeAtt</text>
</a>
</g>
</g>
<!-- Node2 -->
<g id="Node000002" class="node">
<title>Node2</title>
<g id="a_Node000002"><a xlink:href="orbexWrite_8cpp.html#ace464608ffc3c7d40431a978297d3892" target="_top" xlink:title="Write EPHEMERIS/DATA block and update END_TIME line.">
<path fill="#fff0f0" stroke="red" d="M97.67,-19C97.67,-19 6.33,-19 6.33,-19 3.17,-19 0,-15.83 0,-12.67 0,-12.67 0,-6.33 0,-6.33 0,-3.17 3.17,0 6.33,0 6.33,0 97.67,0 97.67,0 100.83,0 104,-3.17 104,-6.33 104,-6.33 104,-12.67 104,-12.67 104,-15.83 100.83,-19 97.67,-19"/>
<text text-anchor="middle" x="52" y="-7" font-family="Helvetica,sans-Serif" font-size="10.00">updateOrbexBody</text>
</a>
</g>
</g>
<!-- Node1&#45;&gt;Node2 -->
<g id="edge1_Node000001_Node000002" class="edge">
<title>Node1&#45;&gt;Node2</title>
<g id="a_edge1_Node000001_Node000002"><a xlink:title=" ">
<path fill="none" stroke="#63b8ff" d="M129.75,-9.5C121.66,-9.5 112.95,-9.5 104.42,-9.5"/>
<polygon fill="#63b8ff" stroke="#63b8ff" points="129.98,-13 139.98,-9.5 129.98,-6 129.98,-13"/>
</a>
</g>
</g>
</g>
</svg>
