<?xml version="1.0" encoding="UTF-8" standalone="no"?>
<!DOCTYPE svg PUBLIC "-//W3C//DTD SVG 1.1//EN"
 "http://www.w3.org/Graphics/SVG/1.1/DTD/svg11.dtd">
<!-- Generated by graphviz version 2.43.0 (0)
 -->
<!-- Title: writeOrbexHeader Pages: 1 -->
<svg width="221pt" height="64pt"
 viewBox="0.00 0.00 221.00 64.00" xmlns="http://www.w3.org/2000/svg" xmlns:xlink="http://www.w3.org/1999/xlink">
<g id="graph0" class="graph" transform="scale(1 1) rotate(0) translate(4 60)">
<title>writeOrbexHeader</title>
<!-- Node1 -->
<g id="Node000001" class="node">
<title>Node1</title>
<g id="a_Node000001"><a xlink:href="orbexWrite_8cpp.html#a68acb232854e3173995f4c0441d7de70" target="_top" xlink:title="Write ORBEX header lines and header blocks including FILE/DESCRIPTION and SATELLITE/ID_AND_DESCRIPTIO...">
<path fill="#fff0f0" stroke="red" stroke-width="2" d="M99.67,-37C99.67,-37 6.33,-37 6.33,-37 3.17,-37 0,-33.83 0,-30.67 0,-30.67 0,-24.33 0,-24.33 0,-21.17 3.17,-18 6.33,-18 6.33,-18 99.67,-18 99.67,-18 102.83,-18 106,-21.17 106,-24.33 106,-24.33 106,-30.67 106,-30.67 106,-33.83 102.83,-37 99.67,-37"/>
<text text-anchor="middle" x="53" y="-25" font-family="Helvetica,sans-Serif" font-size="10.00">writeOrbexHeader</text>
</a>
</g>
</g>
<!-- Node2 -->
<g id="Node000002" class="node">
<title>Node2</title>
<g id="a_Node000002"><a xlink:href="gTime_8cpp.html#abc73cf336f9fa1b3622c933d5925e073" target="_top" xlink:title=" ">
<path fill="#fff0f0" stroke="red" d="M199.17,-56C199.17,-56 155.83,-56 155.83,-56 152.67,-56 149.5,-52.83 149.5,-49.67 149.5,-49.67 149.5,-43.33 149.5,-43.33 149.5,-40.17 152.67,-37 155.83,-37 155.83,-37 199.17,-37 199.17,-37 202.33,-37 205.5,-40.17 205.5,-43.33 205.5,-43.33 205.5,-49.67 205.5,-49.67 205.5,-52.83 202.33,-56 199.17,-56"/>
<text text-anchor="middle" x="177.5" y="-44" font-family="Helvetica,sans-Serif" font-size="10.00">timeGet</text>
</a>
</g>
</g>
<!-- Node1&#45;&gt;Node2 -->
<g id="edge1_Node000001_Node000002" class="edge">
<title>Node1&#45;&gt;Node2</title>
<g id="a_edge1_Node000001_Node000002"><a xlink:title=" ">
<path fill="none" stroke="#63b8ff" d="M106.31,-35.61C117.43,-37.34 128.95,-39.12 139.36,-40.74"/>
<polygon fill="#63b8ff" stroke="#63b8ff" points="138.94,-44.22 149.35,-42.29 140.01,-37.3 138.94,-44.22"/>
</a>
</g>
</g>
<!-- Node3 -->
<g id="Node000003" class="node">
<title>Node3</title>
<g id="a_Node000003"><a xlink:href="satSys_8cpp.html#aae80f3401dd26548c7b0b83c1e25e499" target="_top" xlink:title="Get all satellites of target system.">
<path fill="#fff0f0" stroke="red" d="M206.67,-19C206.67,-19 148.33,-19 148.33,-19 145.17,-19 142,-15.83 142,-12.67 142,-12.67 142,-6.33 142,-6.33 142,-3.17 145.17,0 148.33,0 148.33,0 206.67,0 206.67,0 209.83,0 213,-3.17 213,-6.33 213,-6.33 213,-12.67 213,-12.67 213,-15.83 209.83,-19 206.67,-19"/>
<text text-anchor="middle" x="177.5" y="-7" font-family="Helvetica,sans-Serif" font-size="10.00">getSysSats</text>
</a>
</g>
</g>
<!-- Node1&#45;&gt;Node3 -->
<g id="edge2_Node000001_Node000003" class="edge">
<title>Node1&#45;&gt;Node3</title>
<g id="a_edge2_Node000001_Node000003"><a xlink:title=" ">
<path fill="none" stroke="#63b8ff" d="M106.31,-19.81C114.72,-18.58 123.36,-17.31 131.58,-16.1"/>
<polygon fill="#63b8ff" stroke="#63b8ff" points="132.33,-19.53 141.72,-14.61 131.32,-12.6 132.33,-19.53"/>
</a>
</g>
</g>
</g>
</svg>
