<?xml version="1.0" encoding="UTF-8" standalone="no"?>
<!DOCTYPE svg PUBLIC "-//W3C//DTD SVG 1.1//EN"
 "http://www.w3.org/Graphics/SVG/1.1/DTD/svg11.dtd">
<!-- Generated by graphviz version 2.43.0 (0)
 -->
<!-- Title: getKeplerInversePartials Pages: 1 -->
<svg width="272pt" height="27pt"
 viewBox="0.00 0.00 272.00 27.00" xmlns="http://www.w3.org/2000/svg" xmlns:xlink="http://www.w3.org/1999/xlink">
<g id="graph0" class="graph" transform="scale(1 1) rotate(0) translate(4 23)">
<title>getKeplerInversePartials</title>
<!-- Node1 -->
<g id="Node000001" class="node">
<title>Node1</title>
<g id="a_Node000001"><a xlink:href="orbits_8cpp.html#a7a3ca768ea5de31474b3d716742706d7" target="_top" xlink:title=" ">
<path fill="#fff0f0" stroke="red" stroke-width="2" d="M128.67,-19C128.67,-19 6.33,-19 6.33,-19 3.17,-19 0,-15.83 0,-12.67 0,-12.67 0,-6.33 0,-6.33 0,-3.17 3.17,0 6.33,0 6.33,0 128.67,0 128.67,0 131.83,0 135,-3.17 135,-6.33 135,-6.33 135,-12.67 135,-12.67 135,-15.83 131.83,-19 128.67,-19"/>
<text text-anchor="middle" x="67.5" y="-7" font-family="Helvetica,sans-Serif" font-size="10.00">getKeplerInversePartials</text>
</a>
</g>
</g>
<!-- Node2 -->
<g id="Node000002" class="node">
<title>Node2</title>
<g id="a_Node000002"><a xlink:href="orbits_8cpp.html#ad07ed5d84b008135e7eb3f4b7a7755ca" target="_top" xlink:title=" ">
<path fill="#fff0f0" stroke="red" d="M257.67,-19C257.67,-19 177.33,-19 177.33,-19 174.17,-19 171,-15.83 171,-12.67 171,-12.67 171,-6.33 171,-6.33 171,-3.17 174.17,0 177.33,0 177.33,0 257.67,0 257.67,0 260.83,0 264,-3.17 264,-6.33 264,-6.33 264,-12.67 264,-12.67 264,-15.83 260.83,-19 257.67,-19"/>
<text text-anchor="middle" x="217.5" y="-7" font-family="Helvetica,sans-Serif" font-size="10.00">inertial2Keplers</text>
</a>
</g>
</g>
<!-- Node1&#45;&gt;Node2 -->
<g id="edge1_Node000001_Node000002" class="edge">
<title>Node1&#45;&gt;Node2</title>
<g id="a_edge1_Node000001_Node000002"><a xlink:title=" ">
<path fill="none" stroke="#63b8ff" d="M135.14,-2.78C143.76,-2.71 152.51,-2.76 160.92,-2.94"/>
<polygon fill="#63b8ff" stroke="#63b8ff" points="160.89,-6.44 170.99,-3.22 161.09,0.56 160.89,-6.44"/>
</a>
</g>
</g>
<!-- Node1&#45;&gt;Node2 -->
<g id="edge2_Node000001_Node000002" class="edge">
<title>Node1&#45;&gt;Node2</title>
<g id="a_edge2_Node000001_Node000002"><a xlink:title=" ">
<path fill="none" stroke="#63b8ff" d="M135.14,-16.22C143.76,-16.29 152.51,-16.24 160.92,-16.06"/>
<polygon fill="#63b8ff" stroke="#63b8ff" points="161.09,-19.56 170.99,-15.78 160.89,-12.56 161.09,-19.56"/>
</a>
</g>
</g>
</g>
</svg>
