<?xml version="1.0" encoding="UTF-8" standalone="no"?>
<!DOCTYPE svg PUBLIC "-//W3C//DTD SVG 1.1//EN"
 "http://www.w3.org/Graphics/SVG/1.1/DTD/svg11.dtd">
<!-- Generated by graphviz version 2.43.0 (0)
 -->
<!-- Title: outputOrbitConfig Pages: 1 -->
<svg width="307pt" height="76pt"
 viewBox="0.00 0.00 307.00 75.50" xmlns="http://www.w3.org/2000/svg" xmlns:xlink="http://www.w3.org/1999/xlink">
<g id="graph0" class="graph" transform="scale(1 1) rotate(0) translate(4 71.5)">
<title>outputOrbitConfig</title>
<!-- Node1 -->
<g id="Node000001" class="node">
<title>Node1</title>
<g id="a_Node000001"><a xlink:href="orbitProp_8cpp.html#a03c4ef0fbfbbf301403de6a3a8e27cc3" target="_top" xlink:title=" ">
<path fill="#fff0f0" stroke="red" stroke-width="2" d="M292.67,-40C292.67,-40 202.33,-40 202.33,-40 199.17,-40 196,-36.83 196,-33.67 196,-33.67 196,-27.33 196,-27.33 196,-24.17 199.17,-21 202.33,-21 202.33,-21 292.67,-21 292.67,-21 295.83,-21 299,-24.17 299,-27.33 299,-27.33 299,-33.67 299,-33.67 299,-36.83 295.83,-40 292.67,-40"/>
<text text-anchor="middle" x="247.5" y="-28" font-family="Helvetica,sans-Serif" font-size="10.00">outputOrbitConfig</text>
</a>
</g>
</g>
<!-- Node2 -->
<g id="Node000002" class="node">
<title>Node2</title>
<g id="a_Node000002"><a xlink:href="main_8cpp.html#a712043e1e94db2f9f7c1022f2bc006e2" target="_top" xlink:title=" ">
<path fill="#fff0f0" stroke="red" d="M150,-67.5C150,-67.5 10,-67.5 10,-67.5 5,-67.5 0,-62.5 0,-57.5 0,-57.5 0,-47.5 0,-47.5 0,-42.5 5,-37.5 10,-37.5 10,-37.5 150,-37.5 150,-37.5 155,-37.5 160,-42.5 160,-47.5 160,-47.5 160,-57.5 160,-57.5 160,-62.5 155,-67.5 150,-67.5"/>
<text text-anchor="start" x="8" y="-55.5" font-family="Helvetica,sans-Serif" font-size="10.00">mainPerEpochPostProcessing</text>
<text text-anchor="middle" x="80" y="-44.5" font-family="Helvetica,sans-Serif" font-size="10.00">AndOutputs</text>
</a>
</g>
</g>
<!-- Node1&#45;&gt;Node2 -->
<g id="edge1_Node000001_Node000002" class="edge">
<title>Node1&#45;&gt;Node2</title>
<g id="a_edge1_Node000001_Node000002"><a xlink:title=" ">
<path fill="none" stroke="#63b8ff" d="M185.92,-38.55C177.55,-39.67 168.85,-40.82 160.21,-41.97"/>
<polygon fill="#63b8ff" stroke="#63b8ff" points="186.49,-42.01 195.95,-37.22 185.57,-35.07 186.49,-42.01"/>
</a>
</g>
</g>
<!-- Node6 -->
<g id="Node000006" class="node">
<title>Node6</title>
<g id="a_Node000006"><a xlink:href="rtsSmoothing_8cpp.html#a65cd5f94ab58227ab032b1e894ca3987" target="_top" xlink:title=" ">
<path fill="#fff0f0" stroke="red" d="M119.67,-19C119.67,-19 40.33,-19 40.33,-19 37.17,-19 34,-15.83 34,-12.67 34,-12.67 34,-6.33 34,-6.33 34,-3.17 37.17,0 40.33,0 40.33,0 119.67,0 119.67,0 122.83,0 126,-3.17 126,-6.33 126,-6.33 126,-12.67 126,-12.67 126,-15.83 122.83,-19 119.67,-19"/>
<text text-anchor="middle" x="80" y="-7" font-family="Helvetica,sans-Serif" font-size="10.00">postRTSActions</text>
</a>
</g>
</g>
<!-- Node1&#45;&gt;Node6 -->
<g id="edge2_Node000001_Node000006" class="edge">
<title>Node1&#45;&gt;Node6</title>
<g id="a_edge2_Node000001_Node000006"><a xlink:title=" ">
<path fill="none" stroke="#63b8ff" d="M185.82,-22.8C166.1,-20.3 144.58,-17.57 126.19,-15.23"/>
<polygon fill="#63b8ff" stroke="#63b8ff" points="185.58,-26.3 195.95,-24.09 186.47,-19.35 185.58,-26.3"/>
</a>
</g>
</g>
</g>
</svg>
