<?xml version="1.0" encoding="UTF-8" standalone="no"?>
<!DOCTYPE svg PUBLIC "-//W3C//DTD SVG 1.1//EN"
 "http://www.w3.org/Graphics/SVG/1.1/DTD/svg11.dtd">
<!-- Generated by graphviz version 2.43.0 (0)
 -->
<!-- Title: addNilDesignStates Pages: 1 -->
<svg width="354pt" height="46pt"
 viewBox="0.00 0.00 354.00 46.00" xmlns="http://www.w3.org/2000/svg" xmlns:xlink="http://www.w3.org/1999/xlink">
<g id="graph0" class="graph" transform="scale(1 1) rotate(0) translate(4 42)">
<title>addNilDesignStates</title>
<!-- Node1 -->
<g id="Node000001" class="node">
<title>Node1</title>
<g id="a_Node000001"><a xlink:href="orbitProp_8cpp.html#ab1d6b55d3cf455b7a29afed4f432fbcb" target="_top" xlink:title=" ">
<path fill="#fff0f0" stroke="red" stroke-width="2" d="M339.67,-19C339.67,-19 239.33,-19 239.33,-19 236.17,-19 233,-15.83 233,-12.67 233,-12.67 233,-6.33 233,-6.33 233,-3.17 236.17,0 239.33,0 239.33,0 339.67,0 339.67,0 342.83,0 346,-3.17 346,-6.33 346,-6.33 346,-12.67 346,-12.67 346,-15.83 342.83,-19 339.67,-19"/>
<text text-anchor="middle" x="289.5" y="-7" font-family="Helvetica,sans-Serif" font-size="10.00">addNilDesignStates</text>
</a>
</g>
</g>
<!-- Node2 -->
<g id="Node000002" class="node">
<title>Node2</title>
<g id="a_Node000002"><a xlink:href="orbitProp_8cpp.html#af767655776834883fe2de1b5a692456c" target="_top" xlink:title=" ">
<path fill="#fff0f0" stroke="red" d="M190.67,-38C190.67,-38 116.33,-38 116.33,-38 113.17,-38 110,-34.83 110,-31.67 110,-31.67 110,-25.33 110,-25.33 110,-22.17 113.17,-19 116.33,-19 116.33,-19 190.67,-19 190.67,-19 193.83,-19 197,-22.17 197,-25.33 197,-25.33 197,-31.67 197,-31.67 197,-34.83 193.83,-38 190.67,-38"/>
<text text-anchor="middle" x="153.5" y="-26" font-family="Helvetica,sans-Serif" font-size="10.00">addEmpStates</text>
</a>
</g>
</g>
<!-- Node1&#45;&gt;Node2 -->
<g id="edge1_Node000001_Node000002" class="edge">
<title>Node1&#45;&gt;Node2</title>
<g id="a_edge1_Node000001_Node000002"><a xlink:title=" ">
<path fill="none" stroke="#63b8ff" d="M222.68,-18.83C213.99,-20.06 205.28,-21.3 197.12,-22.46"/>
<polygon fill="#63b8ff" stroke="#63b8ff" points="223.43,-22.26 232.84,-17.39 222.44,-15.33 223.43,-22.26"/>
</a>
</g>
</g>
<!-- Node9 -->
<g id="Node000009" class="node">
<title>Node9</title>
<g id="a_Node000009"><a xlink:href="ppp__obs_8cpp.html#aa9dc8925a7e4b904e12660d44616f1fc" target="_top" xlink:title=" ">
<path fill="#fff0f0" stroke="red" d="M67.67,-19C67.67,-19 6.33,-19 6.33,-19 3.17,-19 0,-15.83 0,-12.67 0,-12.67 0,-6.33 0,-6.33 0,-3.17 3.17,0 6.33,0 6.33,0 67.67,0 67.67,0 70.83,0 74,-3.17 74,-6.33 74,-6.33 74,-12.67 74,-12.67 74,-15.83 70.83,-19 67.67,-19"/>
<text text-anchor="middle" x="37" y="-7" font-family="Helvetica,sans-Serif" font-size="10.00">receiverPPP</text>
</a>
</g>
</g>
<!-- Node1&#45;&gt;Node9 -->
<g id="edge3_Node000001_Node000009" class="edge">
<title>Node1&#45;&gt;Node9</title>
<g id="a_edge3_Node000001_Node000009"><a xlink:title=" ">
<path fill="none" stroke="#63b8ff" d="M222.7,-9.5C175.2,-9.5 112.83,-9.5 74.09,-9.5"/>
<polygon fill="#63b8ff" stroke="#63b8ff" points="222.91,-13 232.91,-9.5 222.91,-6 222.91,-13"/>
</a>
</g>
</g>
<!-- Node2&#45;&gt;Node9 -->
<g id="edge2_Node000002_Node000009" class="edge">
<title>Node2&#45;&gt;Node9</title>
<g id="a_edge2_Node000002_Node000009"><a xlink:title=" ">
<path fill="none" stroke="#63b8ff" d="M99.83,-19.76C91.19,-18.33 82.41,-16.87 74.29,-15.52"/>
<polygon fill="#63b8ff" stroke="#63b8ff" points="99.43,-23.24 109.86,-21.43 100.57,-16.34 99.43,-23.24"/>
</a>
</g>
</g>
</g>
</svg>
