<?xml version="1.0" encoding="UTF-8" standalone="no"?>
<!DOCTYPE svg PUBLIC "-//W3C//DTD SVG 1.1//EN"
 "http://www.w3.org/Graphics/SVG/1.1/DTD/svg11.dtd">
<!-- Generated by graphviz version 2.43.0 (0)
 -->
<!-- Title: IGS_SSR_subtype Pages: 1 -->
<svg width="241pt" height="249pt"
 viewBox="0.00 0.00 241.00 249.00" xmlns="http://www.w3.org/2000/svg" xmlns:xlink="http://www.w3.org/1999/xlink">
<g id="graph0" class="graph" transform="scale(1 1) rotate(0) translate(4 245)">
<title>IGS_SSR_subtype</title>
<!-- Node1 -->
<g id="Node000001" class="node">
<title>Node1</title>
<g id="a_Node000001"><a xlink:href="prototypeIgsSSREncode_8cpp.html#ade48f828147c8c828b36ef24b68bd9dc" target="_top" xlink:title=" ">
<path fill="#fff0f0" stroke="red" stroke-width="2" d="M226.67,-130C226.67,-130 138.33,-130 138.33,-130 135.17,-130 132,-126.83 132,-123.67 132,-123.67 132,-117.33 132,-117.33 132,-114.17 135.17,-111 138.33,-111 138.33,-111 226.67,-111 226.67,-111 229.83,-111 233,-114.17 233,-117.33 233,-117.33 233,-123.67 233,-123.67 233,-126.83 229.83,-130 226.67,-130"/>
<text text-anchor="middle" x="182.5" y="-118" font-family="Helvetica,sans-Serif" font-size="10.00">IGS_SSR_subtype</text>
</a>
</g>
</g>
<!-- Node2 -->
<g id="Node000002" class="node">
<title>Node2</title>
<g id="a_Node000002"><a xlink:href="prototypeIgsSSREncode_8cpp.html#aed2001951dab0df50a3e8890f6303240" target="_top" xlink:title=" ">
<path fill="#fff0f0" stroke="red" d="M87.67,-241C87.67,-241 8.33,-241 8.33,-241 5.17,-241 2,-237.83 2,-234.67 2,-234.67 2,-228.33 2,-228.33 2,-225.17 5.17,-222 8.33,-222 8.33,-222 87.67,-222 87.67,-222 90.83,-222 94,-225.17 94,-228.33 94,-228.33 94,-234.67 94,-234.67 94,-237.83 90.83,-241 87.67,-241"/>
<text text-anchor="middle" x="48" y="-229" font-family="Helvetica,sans-Serif" font-size="10.00">encodeIGS_CLK</text>
</a>
</g>
</g>
<!-- Node1&#45;&gt;Node2 -->
<g id="edge1_Node000001_Node000002" class="edge">
<title>Node1&#45;&gt;Node2</title>
<g id="a_edge1_Node000001_Node000002"><a xlink:title=" ">
<path fill="none" stroke="#63b8ff" d="M169.21,-138.21C154.1,-158.82 126.66,-192.68 96,-213.5 91.23,-216.74 85.79,-219.51 80.36,-221.83"/>
<polygon fill="#63b8ff" stroke="#63b8ff" points="172.1,-140.18 175.08,-130.02 166.41,-136.11 172.1,-140.18"/>
</a>
</g>
</g>
<!-- Node6 -->
<g id="Node000006" class="node">
<title>Node6</title>
<g id="a_Node000006"><a xlink:href="prototypeIgsSSREncode_8cpp.html#a0b52ed993dfc6fdce07c1047d9f7d228" target="_top" xlink:title=" ">
<path fill="#fff0f0" stroke="red" d="M89.67,-204C89.67,-204 6.33,-204 6.33,-204 3.17,-204 0,-200.83 0,-197.67 0,-197.67 0,-191.33 0,-191.33 0,-188.17 3.17,-185 6.33,-185 6.33,-185 89.67,-185 89.67,-185 92.83,-185 96,-188.17 96,-191.33 96,-191.33 96,-197.67 96,-197.67 96,-200.83 92.83,-204 89.67,-204"/>
<text text-anchor="middle" x="48" y="-192" font-family="Helvetica,sans-Serif" font-size="10.00">encodeIGS_CMB</text>
</a>
</g>
</g>
<!-- Node1&#45;&gt;Node6 -->
<g id="edge2_Node000001_Node000006" class="edge">
<title>Node1&#45;&gt;Node6</title>
<g id="a_edge2_Node000001_Node000006"><a xlink:title=" ">
<path fill="none" stroke="#63b8ff" d="M160.18,-136.32C143.34,-148.35 118.93,-164.77 96,-176.5 89.93,-179.6 83.2,-182.49 76.77,-185"/>
<polygon fill="#63b8ff" stroke="#63b8ff" points="162.66,-138.84 168.7,-130.14 158.55,-133.17 162.66,-138.84"/>
</a>
</g>
</g>
<!-- Node7 -->
<g id="Node000007" class="node">
<title>Node7</title>
<g id="a_Node000007"><a xlink:href="prototypeIgsSSREncode_8cpp.html#af3fc3638b16db1676d10fa1a4179860a" target="_top" xlink:title=" ">
<path fill="#fff0f0" stroke="red" d="M89.17,-167C89.17,-167 6.83,-167 6.83,-167 3.67,-167 0.5,-163.83 0.5,-160.67 0.5,-160.67 0.5,-154.33 0.5,-154.33 0.5,-151.17 3.67,-148 6.83,-148 6.83,-148 89.17,-148 89.17,-148 92.33,-148 95.5,-151.17 95.5,-154.33 95.5,-154.33 95.5,-160.67 95.5,-160.67 95.5,-163.83 92.33,-167 89.17,-167"/>
<text text-anchor="middle" x="48" y="-155" font-family="Helvetica,sans-Serif" font-size="10.00">encodeIGS_COD</text>
</a>
</g>
</g>
<!-- Node1&#45;&gt;Node7 -->
<g id="edge3_Node000001_Node000007" class="edge">
<title>Node1&#45;&gt;Node7</title>
<g id="a_edge3_Node000001_Node000007"><a xlink:title=" ">
<path fill="none" stroke="#63b8ff" d="M137.36,-132.83C119.81,-137.73 99.92,-143.28 83.47,-147.88"/>
<polygon fill="#63b8ff" stroke="#63b8ff" points="138.69,-136.09 147.38,-130.03 136.81,-129.35 138.69,-136.09"/>
</a>
</g>
</g>
<!-- Node8 -->
<g id="Node000008" class="node">
<title>Node8</title>
<g id="a_Node000008"><a xlink:href="prototypeIgsSSREncode_8cpp.html#a72d4233d3708a4ab1551b1139e6afb27" target="_top" xlink:title=" ">
<path fill="#fff0f0" stroke="red" d="M89.17,-130C89.17,-130 6.83,-130 6.83,-130 3.67,-130 0.5,-126.83 0.5,-123.67 0.5,-123.67 0.5,-117.33 0.5,-117.33 0.5,-114.17 3.67,-111 6.83,-111 6.83,-111 89.17,-111 89.17,-111 92.33,-111 95.5,-114.17 95.5,-117.33 95.5,-117.33 95.5,-123.67 95.5,-123.67 95.5,-126.83 92.33,-130 89.17,-130"/>
<text text-anchor="middle" x="48" y="-118" font-family="Helvetica,sans-Serif" font-size="10.00">encodeIGS_HRC</text>
</a>
</g>
</g>
<!-- Node1&#45;&gt;Node8 -->
<g id="edge4_Node000001_Node000008" class="edge">
<title>Node1&#45;&gt;Node8</title>
<g id="a_edge4_Node000001_Node000008"><a xlink:title=" ">
<path fill="none" stroke="#63b8ff" d="M121.73,-120.5C113.08,-120.5 104.28,-120.5 95.92,-120.5"/>
<polygon fill="#63b8ff" stroke="#63b8ff" points="121.78,-124 131.78,-120.5 121.78,-117 121.78,-124"/>
</a>
</g>
</g>
<!-- Node9 -->
<g id="Node000009" class="node">
<title>Node9</title>
<g id="a_Node000009"><a xlink:href="prototypeIgsSSREncode_8cpp.html#a5860e21c82b09ac4b4f9051c19ad626d" target="_top" xlink:title=" ">
<path fill="#fff0f0" stroke="red" d="M89.17,-93C89.17,-93 6.83,-93 6.83,-93 3.67,-93 0.5,-89.83 0.5,-86.67 0.5,-86.67 0.5,-80.33 0.5,-80.33 0.5,-77.17 3.67,-74 6.83,-74 6.83,-74 89.17,-74 89.17,-74 92.33,-74 95.5,-77.17 95.5,-80.33 95.5,-80.33 95.5,-86.67 95.5,-86.67 95.5,-89.83 92.33,-93 89.17,-93"/>
<text text-anchor="middle" x="48" y="-81" font-family="Helvetica,sans-Serif" font-size="10.00">encodeIGS_ORB</text>
</a>
</g>
</g>
<!-- Node1&#45;&gt;Node9 -->
<g id="edge5_Node000001_Node000009" class="edge">
<title>Node1&#45;&gt;Node9</title>
<g id="a_edge5_Node000001_Node000009"><a xlink:title=" ">
<path fill="none" stroke="#63b8ff" d="M137.36,-108.17C119.81,-103.27 99.92,-97.72 83.47,-93.12"/>
<polygon fill="#63b8ff" stroke="#63b8ff" points="136.81,-111.65 147.38,-110.97 138.69,-104.91 136.81,-111.65"/>
</a>
</g>
</g>
<!-- Node10 -->
<g id="Node000010" class="node">
<title>Node10</title>
<g id="a_Node000010"><a xlink:href="prototypeIgsSSREncode_8cpp.html#a41fe2e1f1e8daaa5fb8158f1b7196681" target="_top" xlink:title=" ">
<path fill="#fff0f0" stroke="red" d="M88.17,-56C88.17,-56 7.83,-56 7.83,-56 4.67,-56 1.5,-52.83 1.5,-49.67 1.5,-49.67 1.5,-43.33 1.5,-43.33 1.5,-40.17 4.67,-37 7.83,-37 7.83,-37 88.17,-37 88.17,-37 91.33,-37 94.5,-40.17 94.5,-43.33 94.5,-43.33 94.5,-49.67 94.5,-49.67 94.5,-52.83 91.33,-56 88.17,-56"/>
<text text-anchor="middle" x="48" y="-44" font-family="Helvetica,sans-Serif" font-size="10.00">encodeIGS_PHS</text>
</a>
</g>
</g>
<!-- Node1&#45;&gt;Node10 -->
<g id="edge6_Node000001_Node000010" class="edge">
<title>Node1&#45;&gt;Node10</title>
<g id="a_edge6_Node000001_Node000010"><a xlink:title=" ">
<path fill="none" stroke="#63b8ff" d="M159.78,-104.91C142.89,-93.19 118.61,-77.21 96,-65.5 89.44,-62.1 82.12,-58.89 75.25,-56.1"/>
<polygon fill="#63b8ff" stroke="#63b8ff" points="158.15,-108.04 168.35,-110.93 162.18,-102.31 158.15,-108.04"/>
</a>
</g>
</g>
<!-- Node11 -->
<g id="Node000011" class="node">
<title>Node11</title>
<g id="a_Node000011"><a xlink:href="prototypeIgsSSREncode_8cpp.html#abe906d6281cf96f532c4c915582eed18" target="_top" xlink:title=" ">
<path fill="#fff0f0" stroke="red" d="M89.17,-19C89.17,-19 6.83,-19 6.83,-19 3.67,-19 0.5,-15.83 0.5,-12.67 0.5,-12.67 0.5,-6.33 0.5,-6.33 0.5,-3.17 3.67,0 6.83,0 6.83,0 89.17,0 89.17,0 92.33,0 95.5,-3.17 95.5,-6.33 95.5,-6.33 95.5,-12.67 95.5,-12.67 95.5,-15.83 92.33,-19 89.17,-19"/>
<text text-anchor="middle" x="48" y="-7" font-family="Helvetica,sans-Serif" font-size="10.00">encodeIGS_URA</text>
</a>
</g>
</g>
<!-- Node1&#45;&gt;Node11 -->
<g id="edge7_Node000001_Node000011" class="edge">
<title>Node1&#45;&gt;Node11</title>
<g id="a_edge7_Node000001_Node000011"><a xlink:title=" ">
<path fill="none" stroke="#63b8ff" d="M168.86,-102.77C153.6,-82.45 126.19,-49.29 96,-28.5 90.64,-24.81 84.45,-21.66 78.36,-19.05"/>
<polygon fill="#63b8ff" stroke="#63b8ff" points="166.07,-104.88 174.81,-110.86 171.71,-100.73 166.07,-104.88"/>
</a>
</g>
</g>
</g>
</svg>
