<?xml version="1.0" encoding="UTF-8" standalone="no"?>
<!DOCTYPE svg PUBLIC "-//W3C//DTD SVG 1.1//EN"
 "http://www.w3.org/Graphics/SVG/1.1/DTD/svg11.dtd">
<!-- Generated by graphviz version 2.43.0 (0)
 -->
<!-- Title: decodecompactSSR Pages: 1 -->
<svg width="422pt" height="46pt"
 viewBox="0.00 0.00 422.00 46.00" xmlns="http://www.w3.org/2000/svg" xmlns:xlink="http://www.w3.org/1999/xlink">
<g id="graph0" class="graph" transform="scale(1 1) rotate(0) translate(4 42)">
<title>decodecompactSSR</title>
<!-- Node1 -->
<g id="Node000001" class="node">
<title>Node1</title>
<g id="a_Node000001"><a xlink:href="prototypeCmpSSRDecode_8cpp.html#a64568502e5d54f952257863f6a753f7d" target="_top" xlink:title=" ">
<path fill="#fff0f0" stroke="red" stroke-width="2" d="M407.67,-19C407.67,-19 307.33,-19 307.33,-19 304.17,-19 301,-15.83 301,-12.67 301,-12.67 301,-6.33 301,-6.33 301,-3.17 304.17,0 307.33,0 307.33,0 407.67,0 407.67,0 410.83,0 414,-3.17 414,-6.33 414,-6.33 414,-12.67 414,-12.67 414,-15.83 410.83,-19 407.67,-19"/>
<text text-anchor="middle" x="357.5" y="-7" font-family="Helvetica,sans-Serif" font-size="10.00">decodecompactSSR</text>
</a>
</g>
</g>
<!-- Node2 -->
<g id="Node000002" class="node">
<title>Node2</title>
<g id="a_Node000002"><a xlink:href="structRtcmDecoder.html#a34dfe8bbed06d1cabb0fed2899584dfd" target="_top" xlink:title=" ">
<path fill="#fff0f0" stroke="red" d="M258.67,-38C258.67,-38 147.33,-38 147.33,-38 144.17,-38 141,-34.83 141,-31.67 141,-31.67 141,-25.33 141,-25.33 141,-22.17 144.17,-19 147.33,-19 147.33,-19 258.67,-19 258.67,-19 261.83,-19 265,-22.17 265,-25.33 265,-25.33 265,-31.67 265,-31.67 265,-34.83 261.83,-38 258.67,-38"/>
<text text-anchor="middle" x="203" y="-26" font-family="Helvetica,sans-Serif" font-size="10.00">RtcmDecoder::decode</text>
</a>
</g>
</g>
<!-- Node1&#45;&gt;Node2 -->
<g id="edge1_Node000001_Node000002" class="edge">
<title>Node1&#45;&gt;Node2</title>
<g id="a_edge1_Node000001_Node000002"><a xlink:title=" ">
<path fill="none" stroke="#63b8ff" d="M290.41,-17.73C281.99,-18.78 273.39,-19.85 265.05,-20.89"/>
<polygon fill="#63b8ff" stroke="#63b8ff" points="291.09,-21.18 300.58,-16.47 290.22,-14.23 291.09,-21.18"/>
</a>
</g>
</g>
<!-- Node3 -->
<g id="Node000003" class="node">
<title>Node3</title>
<g id="a_Node000003"><a xlink:href="structRtcmParser.html#a6138840942a03f0a06ecb288ab412716" target="_top" xlink:title=" ">
<path fill="#fff0f0" stroke="red" d="M98.67,-19C98.67,-19 6.33,-19 6.33,-19 3.17,-19 0,-15.83 0,-12.67 0,-12.67 0,-6.33 0,-6.33 0,-3.17 3.17,0 6.33,0 6.33,0 98.67,0 98.67,0 101.83,0 105,-3.17 105,-6.33 105,-6.33 105,-12.67 105,-12.67 105,-15.83 101.83,-19 98.67,-19"/>
<text text-anchor="middle" x="52.5" y="-7" font-family="Helvetica,sans-Serif" font-size="10.00">RtcmParser::parse</text>
</a>
</g>
</g>
<!-- Node1&#45;&gt;Node3 -->
<g id="edge3_Node000001_Node000003" class="edge">
<title>Node1&#45;&gt;Node3</title>
<g id="a_edge3_Node000001_Node000003"><a xlink:title=" ">
<path fill="none" stroke="#63b8ff" d="M290.81,-9.5C235.15,-9.5 156.44,-9.5 105.18,-9.5"/>
<polygon fill="#63b8ff" stroke="#63b8ff" points="290.93,-13 300.93,-9.5 290.93,-6 290.93,-13"/>
</a>
</g>
</g>
<!-- Node2&#45;&gt;Node3 -->
<g id="edge2_Node000002_Node000003" class="edge">
<title>Node2&#45;&gt;Node3</title>
<g id="a_edge2_Node000002_Node000003"><a xlink:title=" ">
<path fill="none" stroke="#63b8ff" d="M130.69,-19.38C122.07,-18.27 113.41,-17.17 105.16,-16.11"/>
<polygon fill="#63b8ff" stroke="#63b8ff" points="130.38,-22.86 140.74,-20.66 131.27,-15.92 130.38,-22.86"/>
</a>
</g>
</g>
</g>
</svg>
