<?xml version="1.0" encoding="UTF-8" standalone="no"?>
<!DOCTYPE svg PUBLIC "-//W3C//DTD SVG 1.1//EN"
 "http://www.w3.org/Graphics/SVG/1.1/DTD/svg11.dtd">
<!-- Generated by graphviz version 2.43.0 (0)
 -->
<!-- Title: encodeIGS_ATM Pages: 1 -->
<svg width="204pt" height="64pt"
 viewBox="0.00 0.00 204.00 64.00" xmlns="http://www.w3.org/2000/svg" xmlns:xlink="http://www.w3.org/1999/xlink">
<g id="graph0" class="graph" transform="scale(1 1) rotate(0) translate(4 60)">
<title>encodeIGS_ATM</title>
<!-- Node1 -->
<g id="Node000001" class="node">
<title>Node1</title>
<g id="a_Node000001"><a xlink:href="prototypeIgsSSREncode_8cpp.html#aa4596898d24872dd68632fa953d5108c" target="_top" xlink:title=" ">
<path fill="#fff0f0" stroke="red" stroke-width="2" d="M88.67,-37C88.67,-37 6.33,-37 6.33,-37 3.17,-37 0,-33.83 0,-30.67 0,-30.67 0,-24.33 0,-24.33 0,-21.17 3.17,-18 6.33,-18 6.33,-18 88.67,-18 88.67,-18 91.83,-18 95,-21.17 95,-24.33 95,-24.33 95,-30.67 95,-30.67 95,-33.83 91.83,-37 88.67,-37"/>
<text text-anchor="middle" x="47.5" y="-25" font-family="Helvetica,sans-Serif" font-size="10.00">encodeIGS_ATM</text>
</a>
</g>
</g>
<!-- Node2 -->
<g id="Node000002" class="node">
<title>Node2</title>
<g id="a_Node000002"><a xlink:href="rtcmEncoder_8cpp.html#af0d5eab5e18729b5d6b67194e94979a0" target="_top" xlink:title="increasingly set unsigned bits to byte data">
<path fill="#fff0f0" stroke="red" d="M189.67,-56C189.67,-56 137.33,-56 137.33,-56 134.17,-56 131,-52.83 131,-49.67 131,-49.67 131,-43.33 131,-43.33 131,-40.17 134.17,-37 137.33,-37 137.33,-37 189.67,-37 189.67,-37 192.83,-37 196,-40.17 196,-43.33 196,-43.33 196,-49.67 196,-49.67 196,-52.83 192.83,-56 189.67,-56"/>
<text text-anchor="middle" x="163.5" y="-44" font-family="Helvetica,sans-Serif" font-size="10.00">setbituInc</text>
</a>
</g>
</g>
<!-- Node1&#45;&gt;Node2 -->
<g id="edge1_Node000001_Node000002" class="edge">
<title>Node1&#45;&gt;Node2</title>
<g id="a_edge1_Node000001_Node000002"><a xlink:title=" ">
<path fill="none" stroke="#63b8ff" d="M95.2,-28.63C106.45,-30.29 118.26,-32.4 128.78,-34.66"/>
<polygon fill="#63b8ff" stroke="#63b8ff" points="128.29,-38.14 138.82,-36.96 129.85,-31.31 128.29,-38.14"/>
</a>
</g>
</g>
<!-- Node1&#45;&gt;Node2 -->
<g id="edge2_Node000001_Node000002" class="edge">
<title>Node1&#45;&gt;Node2</title>
<g id="a_edge2_Node000001_Node000002"><a xlink:title=" ">
<path fill="none" stroke="#63b8ff" d="M72.12,-37.03C86.03,-40.45 104.03,-43.76 120.31,-46.01"/>
<polygon fill="#63b8ff" stroke="#63b8ff" points="120.33,-49.54 130.69,-47.32 121.21,-42.6 120.33,-49.54"/>
</a>
</g>
</g>
<!-- Node4 -->
<g id="Node000004" class="node">
<title>Node4</title>
<g id="a_Node000004"><a xlink:href="rtcmEncoder_8cpp.html#a831abe42902c0ceadba66974c93a637b" target="_top" xlink:title="increasingly set signed bits to byte data">
<path fill="#fff0f0" stroke="red" d="M189.17,-19C189.17,-19 137.83,-19 137.83,-19 134.67,-19 131.5,-15.83 131.5,-12.67 131.5,-12.67 131.5,-6.33 131.5,-6.33 131.5,-3.17 134.67,0 137.83,0 137.83,0 189.17,0 189.17,0 192.33,0 195.5,-3.17 195.5,-6.33 195.5,-6.33 195.5,-12.67 195.5,-12.67 195.5,-15.83 192.33,-19 189.17,-19"/>
<text text-anchor="middle" x="163.5" y="-7" font-family="Helvetica,sans-Serif" font-size="10.00">setbitsInc</text>
</a>
</g>
</g>
<!-- Node1&#45;&gt;Node4 -->
<g id="edge3_Node000001_Node000004" class="edge">
<title>Node1&#45;&gt;Node4</title>
<g id="a_edge3_Node000001_Node000004"><a xlink:title=" ">
<path fill="none" stroke="#63b8ff" d="M72.96,-17.98C86.91,-14.72 104.78,-11.61 120.87,-9.55"/>
<polygon fill="#63b8ff" stroke="#63b8ff" points="121.61,-12.98 131.14,-8.35 120.8,-6.03 121.61,-12.98"/>
</a>
</g>
</g>
<!-- Node1&#45;&gt;Node4 -->
<g id="edge4_Node000001_Node000004" class="edge">
<title>Node1&#45;&gt;Node4</title>
<g id="a_edge4_Node000001_Node000004"><a xlink:title=" ">
<path fill="none" stroke="#63b8ff" d="M95.2,-26.78C106.17,-25.26 117.68,-23.31 128,-21.21"/>
<polygon fill="#63b8ff" stroke="#63b8ff" points="128.85,-24.6 137.88,-19.06 127.36,-17.76 128.85,-24.6"/>
</a>
</g>
</g>
</g>
</svg>
