<?xml version="1.0" encoding="UTF-8" standalone="no"?>
<!DOCTYPE svg PUBLIC "-//W3C//DTD SVG 1.1//EN"
 "http://www.w3.org/Graphics/SVG/1.1/DTD/svg11.dtd">
<!-- Generated by graphviz version 2.43.0 (0)
 -->
<!-- Title: encodecompactCLK Pages: 1 -->
<svg width="222pt" height="64pt"
 viewBox="0.00 0.00 222.00 64.00" xmlns="http://www.w3.org/2000/svg" xmlns:xlink="http://www.w3.org/1999/xlink">
<g id="graph0" class="graph" transform="scale(1 1) rotate(0) translate(4 60)">
<title>encodecompactCLK</title>
<!-- Node1 -->
<g id="Node000001" class="node">
<title>Node1</title>
<g id="a_Node000001"><a xlink:href="prototypeCmpSSREncode_8cpp.html#acff15c3e501f1e5003eb79f7b6747629" target="_top" xlink:title=" ">
<path fill="#fff0f0" stroke="red" stroke-width="2" d="M106.67,-56C106.67,-56 6.33,-56 6.33,-56 3.17,-56 0,-52.83 0,-49.67 0,-49.67 0,-43.33 0,-43.33 0,-40.17 3.17,-37 6.33,-37 6.33,-37 106.67,-37 106.67,-37 109.83,-37 113,-40.17 113,-43.33 113,-43.33 113,-49.67 113,-49.67 113,-52.83 109.83,-56 106.67,-56"/>
<text text-anchor="middle" x="56.5" y="-44" font-family="Helvetica,sans-Serif" font-size="10.00">encodecompactCLK</text>
</a>
</g>
</g>
<!-- Node2 -->
<g id="Node000002" class="node">
<title>Node2</title>
<g id="a_Node000002"><a xlink:href="rtcmEncoder_8cpp.html#af0d5eab5e18729b5d6b67194e94979a0" target="_top" xlink:title="increasingly set unsigned bits to byte data">
<path fill="#fff0f0" stroke="red" d="M207.67,-56C207.67,-56 155.33,-56 155.33,-56 152.17,-56 149,-52.83 149,-49.67 149,-49.67 149,-43.33 149,-43.33 149,-40.17 152.17,-37 155.33,-37 155.33,-37 207.67,-37 207.67,-37 210.83,-37 214,-40.17 214,-43.33 214,-43.33 214,-49.67 214,-49.67 214,-52.83 210.83,-56 207.67,-56"/>
<text text-anchor="middle" x="181.5" y="-44" font-family="Helvetica,sans-Serif" font-size="10.00">setbituInc</text>
</a>
</g>
</g>
<!-- Node1&#45;&gt;Node2 -->
<g id="edge1_Node000001_Node000002" class="edge">
<title>Node1&#45;&gt;Node2</title>
<g id="a_edge1_Node000001_Node000002"><a xlink:title=" ">
<path fill="none" stroke="#63b8ff" d="M113.24,-39.78C121.82,-39.7 130.55,-39.8 138.76,-40.07"/>
<polygon fill="#63b8ff" stroke="#63b8ff" points="138.68,-43.57 148.82,-40.51 138.99,-36.58 138.68,-43.57"/>
</a>
</g>
</g>
<!-- Node1&#45;&gt;Node2 -->
<g id="edge2_Node000001_Node000002" class="edge">
<title>Node1&#45;&gt;Node2</title>
<g id="a_edge2_Node000001_Node000002"><a xlink:title=" ">
<path fill="none" stroke="#63b8ff" d="M113.24,-53.22C121.82,-53.3 130.55,-53.2 138.76,-52.93"/>
<polygon fill="#63b8ff" stroke="#63b8ff" points="138.99,-56.42 148.82,-52.49 138.68,-49.43 138.99,-56.42"/>
</a>
</g>
</g>
<!-- Node4 -->
<g id="Node000004" class="node">
<title>Node4</title>
<g id="a_Node000004"><a xlink:href="rtcmEncoder_8cpp.html#a831abe42902c0ceadba66974c93a637b" target="_top" xlink:title="increasingly set signed bits to byte data">
<path fill="#fff0f0" stroke="red" d="M207.17,-19C207.17,-19 155.83,-19 155.83,-19 152.67,-19 149.5,-15.83 149.5,-12.67 149.5,-12.67 149.5,-6.33 149.5,-6.33 149.5,-3.17 152.67,0 155.83,0 155.83,0 207.17,0 207.17,0 210.33,0 213.5,-3.17 213.5,-6.33 213.5,-6.33 213.5,-12.67 213.5,-12.67 213.5,-15.83 210.33,-19 207.17,-19"/>
<text text-anchor="middle" x="181.5" y="-7" font-family="Helvetica,sans-Serif" font-size="10.00">setbitsInc</text>
</a>
</g>
</g>
<!-- Node1&#45;&gt;Node4 -->
<g id="edge3_Node000001_Node000004" class="edge">
<title>Node1&#45;&gt;Node4</title>
<g id="a_edge3_Node000001_Node000004"><a xlink:title=" ">
<path fill="none" stroke="#63b8ff" d="M89.18,-36.97C104.5,-32.36 123.09,-26.77 139.48,-21.84"/>
<polygon fill="#63b8ff" stroke="#63b8ff" points="140.79,-25.1 149.36,-18.87 138.77,-18.4 140.79,-25.1"/>
</a>
</g>
</g>
</g>
</svg>
