<?xml version="1.0" encoding="UTF-8" standalone="no"?>
<!DOCTYPE svg PUBLIC "-//W3C//DTD SVG 1.1//EN"
 "http://www.w3.org/Graphics/SVG/1.1/DTD/svg11.dtd">
<!-- Generated by graphviz version 2.43.0 (0)
 -->
<!-- Title: createDirectories Pages: 1 -->
<svg width="228pt" height="27pt"
 viewBox="0.00 0.00 228.00 27.00" xmlns="http://www.w3.org/2000/svg" xmlns:xlink="http://www.w3.org/1999/xlink">
<g id="graph0" class="graph" transform="scale(1 1) rotate(0) translate(4 23)">
<title>createDirectories</title>
<!-- Node1 -->
<g id="Node000001" class="node">
<title>Node1</title>
<g id="a_Node000001"><a xlink:href="outputs_8cpp.html#a2206cd179576b10f99dbe50e8e7ddc5a" target="_top" xlink:title="Create directories if required.">
<path fill="#fff0f0" stroke="red" stroke-width="2" d="M94.67,-19C94.67,-19 6.33,-19 6.33,-19 3.17,-19 0,-15.83 0,-12.67 0,-12.67 0,-6.33 0,-6.33 0,-3.17 3.17,0 6.33,0 6.33,0 94.67,0 94.67,0 97.83,0 101,-3.17 101,-6.33 101,-6.33 101,-12.67 101,-12.67 101,-15.83 97.83,-19 94.67,-19"/>
<text text-anchor="middle" x="50.5" y="-7" font-family="Helvetica,sans-Serif" font-size="10.00">createDirectories</text>
</a>
</g>
</g>
<!-- Node2 -->
<g id="Node000002" class="node">
<title>Node2</title>
<g id="a_Node000002"><a xlink:href="outputs_8cpp.html#a1cf8846f3d7514f4c5d086213aad7949" target="_top" xlink:title="Replace macros for times with numeric values.">
<path fill="#fff0f0" stroke="red" d="M213.67,-19C213.67,-19 143.33,-19 143.33,-19 140.17,-19 137,-15.83 137,-12.67 137,-12.67 137,-6.33 137,-6.33 137,-3.17 140.17,0 143.33,0 143.33,0 213.67,0 213.67,0 216.83,0 220,-3.17 220,-6.33 220,-6.33 220,-12.67 220,-12.67 220,-15.83 216.83,-19 213.67,-19"/>
<text text-anchor="middle" x="178.5" y="-7" font-family="Helvetica,sans-Serif" font-size="10.00">replaceTimes</text>
</a>
</g>
</g>
<!-- Node1&#45;&gt;Node2 -->
<g id="edge1_Node000001_Node000002" class="edge">
<title>Node1&#45;&gt;Node2</title>
<g id="a_edge1_Node000001_Node000002"><a xlink:title=" ">
<path fill="none" stroke="#63b8ff" d="M101.3,-9.5C109.71,-9.5 118.45,-9.5 126.88,-9.5"/>
<polygon fill="#63b8ff" stroke="#63b8ff" points="126.97,-13 136.97,-9.5 126.97,-6 126.97,-13"/>
</a>
</g>
</g>
</g>
</svg>
