<?xml version="1.0" encoding="UTF-8" standalone="no"?>
<!DOCTYPE svg PUBLIC "-//W3C//DTD SVG 1.1//EN"
 "http://www.w3.org/Graphics/SVG/1.1/DTD/svg11.dtd">
<!-- Generated by graphviz version 2.43.0 (0)
 -->
<!-- Title: createTracefiles Pages: 1 -->
<svg width="387pt" height="247pt"
 viewBox="0.00 0.00 387.00 246.97" xmlns="http://www.w3.org/2000/svg" xmlns:xlink="http://www.w3.org/1999/xlink">
<g id="graph0" class="graph" transform="scale(1 1) rotate(0) translate(4 242.97)">
<title>createTracefiles</title>
<!-- Node1 -->
<g id="Node000001" class="node">
<title>Node1</title>
<g id="a_Node000001"><a xlink:href="outputs_8cpp.html#a116830f5a44aad1710dc47ecfa670cab" target="_top" xlink:title="Create new empty trace files only when required when the filename is changed.">
<path fill="#fff0f0" stroke="red" stroke-width="2" d="M86.67,-127.97C86.67,-127.97 6.33,-127.97 6.33,-127.97 3.17,-127.97 0,-124.81 0,-121.64 0,-121.64 0,-115.31 0,-115.31 0,-112.14 3.17,-108.97 6.33,-108.97 6.33,-108.97 86.67,-108.97 86.67,-108.97 89.83,-108.97 93,-112.14 93,-115.31 93,-115.31 93,-121.64 93,-121.64 93,-124.81 89.83,-127.97 86.67,-127.97"/>
<text text-anchor="middle" x="46.5" y="-115.97" font-family="Helvetica,sans-Serif" font-size="10.00">createTracefiles</text>
</a>
</g>
</g>
<!-- Node2 -->
<g id="Node000002" class="node">
<title>Node2</title>
<g id="a_Node000002"><a xlink:href="gTime_8cpp.html#abd3e80e328e3d4afed1001aa34ca9d16" target="_top" xlink:title="Returns (posix) for current epoch.">
<path fill="#fff0f0" stroke="red" d="M237.67,-238.97C237.67,-238.97 153.33,-238.97 153.33,-238.97 150.17,-238.97 147,-235.81 147,-232.64 147,-232.64 147,-226.31 147,-226.31 147,-223.14 150.17,-219.97 153.33,-219.97 153.33,-219.97 237.67,-219.97 237.67,-219.97 240.83,-219.97 244,-223.14 244,-226.31 244,-226.31 244,-232.64 244,-232.64 244,-235.81 240.83,-238.97 237.67,-238.97"/>
<text text-anchor="middle" x="195.5" y="-226.97" font-family="Helvetica,sans-Serif" font-size="10.00">currentLogptime</text>
</a>
</g>
</g>
<!-- Node1&#45;&gt;Node2 -->
<g id="edge1_Node000001_Node000002" class="edge">
<title>Node1&#45;&gt;Node2</title>
<g id="a_edge1_Node000001_Node000002"><a xlink:title=" ">
<path fill="none" stroke="#63b8ff" d="M53.13,-128.01C64.81,-146.92 93.52,-189.25 129,-211.47 131.75,-213.19 134.66,-214.75 137.67,-216.17"/>
<polygon fill="#63b8ff" stroke="#63b8ff" points="136.36,-219.41 146.94,-219.98 139.02,-212.94 136.36,-219.41"/>
</a>
</g>
</g>
<!-- Node5 -->
<g id="Node000005" class="node">
<title>Node5</title>
<g id="a_Node000005"><a xlink:href="outputs_8cpp.html#a2206cd179576b10f99dbe50e8e7ddc5a" target="_top" xlink:title="Create directories if required.">
<path fill="#fff0f0" stroke="red" d="M239.67,-201.97C239.67,-201.97 151.33,-201.97 151.33,-201.97 148.17,-201.97 145,-198.81 145,-195.64 145,-195.64 145,-189.31 145,-189.31 145,-186.14 148.17,-182.97 151.33,-182.97 151.33,-182.97 239.67,-182.97 239.67,-182.97 242.83,-182.97 246,-186.14 246,-189.31 246,-189.31 246,-195.64 246,-195.64 246,-198.81 242.83,-201.97 239.67,-201.97"/>
<text text-anchor="middle" x="195.5" y="-189.97" font-family="Helvetica,sans-Serif" font-size="10.00">createDirectories</text>
</a>
</g>
</g>
<!-- Node1&#45;&gt;Node5 -->
<g id="edge2_Node000001_Node000005" class="edge">
<title>Node1&#45;&gt;Node5</title>
<g id="a_edge2_Node000001_Node000005"><a xlink:title=" ">
<path fill="none" stroke="#63b8ff" d="M58.89,-128.15C74,-140.54 101.91,-161.88 129,-174.47 133.14,-176.4 137.53,-178.15 142,-179.74"/>
<polygon fill="#63b8ff" stroke="#63b8ff" points="141.23,-183.18 151.83,-182.97 143.42,-176.53 141.23,-183.18"/>
</a>
</g>
</g>
<!-- Node8 -->
<g id="Node000008" class="node">
<title>Node8</title>
<g id="a_Node000008"><a xlink:href="mongo_8cpp.html#a52ea466b77ea949c69649373cb073616" target="_top" xlink:title=" ">
<path fill="#fff0f0" stroke="red" d="M242.67,-164.97C242.67,-164.97 148.33,-164.97 148.33,-164.97 145.17,-164.97 142,-161.81 142,-158.64 142,-158.64 142,-152.31 142,-152.31 142,-149.14 145.17,-145.97 148.33,-145.97 148.33,-145.97 242.67,-145.97 242.67,-145.97 245.83,-145.97 249,-149.14 249,-152.31 249,-152.31 249,-158.64 249,-158.64 249,-161.81 245.83,-164.97 242.67,-164.97"/>
<text text-anchor="middle" x="195.5" y="-152.97" font-family="Helvetica,sans-Serif" font-size="10.00">startNewMongoDb</text>
</a>
</g>
</g>
<!-- Node1&#45;&gt;Node8 -->
<g id="edge3_Node000001_Node000008" class="edge">
<title>Node1&#45;&gt;Node8</title>
<g id="a_edge3_Node000001_Node000008"><a xlink:title=" ">
<path fill="none" stroke="#63b8ff" d="M93.21,-123.67C116.85,-128.83 145.01,-136.18 165.62,-142.71"/>
<polygon fill="#63b8ff" stroke="#63b8ff" points="164.77,-146.12 175.37,-145.93 166.97,-139.47 164.77,-146.12"/>
</a>
</g>
</g>
<!-- Node1&#45;&gt;Node8 -->
<g id="edge5_Node000001_Node000008" class="edge">
<title>Node1&#45;&gt;Node8</title>
<g id="a_edge5_Node000001_Node000008"><a xlink:title=" ">
<path fill="none" stroke="#63b8ff" d="M66.72,-128.04C83.33,-133.81 108.31,-140.75 131.79,-146.37"/>
<polygon fill="#63b8ff" stroke="#63b8ff" points="131.19,-149.83 141.73,-148.69 132.79,-143.01 131.19,-149.83"/>
</a>
</g>
</g>
<!-- Node7 -->
<g id="Node000007" class="node">
<title>Node7</title>
<g id="a_Node000007"><a xlink:href="acsConfig_8cpp.html#a611c3086ccdeb877c19a6b1d603227a4" target="_top" xlink:title="search for and replace section of string">
<path fill="#fff0f0" stroke="red" d="M372.67,-90.97C372.67,-90.97 304.33,-90.97 304.33,-90.97 301.17,-90.97 298,-87.81 298,-84.64 298,-84.64 298,-78.31 298,-78.31 298,-75.14 301.17,-71.97 304.33,-71.97 304.33,-71.97 372.67,-71.97 372.67,-71.97 375.83,-71.97 379,-75.14 379,-78.31 379,-78.31 379,-84.64 379,-84.64 379,-87.81 375.83,-90.97 372.67,-90.97"/>
<text text-anchor="middle" x="338.5" y="-78.97" font-family="Helvetica,sans-Serif" font-size="10.00">replaceString</text>
</a>
</g>
</g>
<!-- Node1&#45;&gt;Node7 -->
<g id="edge14_Node000001_Node000007" class="edge">
<title>Node1&#45;&gt;Node7</title>
<g id="a_edge14_Node000001_Node000007"><a xlink:title=" ">
<path fill="none" stroke="#63b8ff" d="M50.22,-108.95C58.86,-86.71 87.55,-35.26 129,-16.47 182.84,7.93 205.87,2.07 262,-16.47 288.41,-25.2 313.12,-47.13 326.69,-63.47"/>
<polygon fill="#63b8ff" stroke="#63b8ff" points="324.2,-65.98 333.02,-71.85 329.78,-61.76 324.2,-65.98"/>
</a>
</g>
</g>
<!-- Node1&#45;&gt;Node7 -->
<g id="edge15_Node000001_Node000007" class="edge">
<title>Node1&#45;&gt;Node7</title>
<g id="a_edge15_Node000001_Node000007"><a xlink:title=" ">
<path fill="none" stroke="#63b8ff" d="M55.48,-108.84C67.81,-89.92 93.8,-50.43 129,-34.47 182.84,-10.07 205.87,-15.93 262,-34.47 281.25,-40.83 299.59,-54.2 313.38,-65.26"/>
<polygon fill="#63b8ff" stroke="#63b8ff" points="311.38,-68.15 321.34,-71.76 315.81,-62.72 311.38,-68.15"/>
</a>
</g>
</g>
<!-- Node12 -->
<g id="Node000012" class="node">
<title>Node12</title>
<g id="a_Node000012"><a xlink:href="trace_8cpp.html#a7eec1631c0092ac9e6c3222345cd3601" target="_top" xlink:title=" ">
<path fill="#fff0f0" stroke="red" d="M245.17,-127.97C245.17,-127.97 145.83,-127.97 145.83,-127.97 142.67,-127.97 139.5,-124.81 139.5,-121.64 139.5,-121.64 139.5,-115.31 139.5,-115.31 139.5,-112.14 142.67,-108.97 145.83,-108.97 145.83,-108.97 245.17,-108.97 245.17,-108.97 248.33,-108.97 251.5,-112.14 251.5,-115.31 251.5,-115.31 251.5,-121.64 251.5,-121.64 251.5,-124.81 248.33,-127.97 245.17,-127.97"/>
<text text-anchor="middle" x="195.5" y="-115.97" font-family="Helvetica,sans-Serif" font-size="10.00">createNewTraceFile</text>
</a>
</g>
</g>
<!-- Node1&#45;&gt;Node12 -->
<g id="edge6_Node000001_Node000012" class="edge">
<title>Node1&#45;&gt;Node12</title>
<g id="a_edge6_Node000001_Node000012"><a xlink:title=" ">
<path fill="none" stroke="#63b8ff" d="M93.21,-112.17C104.6,-111.79 117.03,-111.65 129.17,-111.76"/>
<polygon fill="#63b8ff" stroke="#63b8ff" points="129.21,-115.26 139.26,-111.91 129.31,-108.26 129.21,-115.26"/>
</a>
</g>
</g>
<!-- Node1&#45;&gt;Node12 -->
<g id="edge8_Node000001_Node000012" class="edge">
<title>Node1&#45;&gt;Node12</title>
<g id="a_edge8_Node000001_Node000012"><a xlink:title=" ">
<path fill="none" stroke="#63b8ff" d="M93.21,-124.77C104.6,-125.16 117.03,-125.3 129.17,-125.18"/>
<polygon fill="#63b8ff" stroke="#63b8ff" points="129.31,-128.68 139.26,-125.03 129.21,-121.68 129.31,-128.68"/>
</a>
</g>
</g>
<!-- Node15 -->
<g id="Node000015" class="node">
<title>Node15</title>
<g id="a_Node000015"><a xlink:href="rinexClkWrite_8cpp.html#a87a652e05ec91c35c1e56c0650176dfa" target="_top" xlink:title=" ">
<path fill="#fff0f0" stroke="red" d="M255.67,-90.97C255.67,-90.97 135.33,-90.97 135.33,-90.97 132.17,-90.97 129,-87.81 129,-84.64 129,-84.64 129,-78.31 129,-78.31 129,-75.14 132.17,-71.97 135.33,-71.97 135.33,-71.97 255.67,-71.97 255.67,-71.97 258.83,-71.97 262,-75.14 262,-78.31 262,-78.31 262,-84.64 262,-84.64 262,-87.81 258.83,-90.97 255.67,-90.97"/>
<text text-anchor="middle" x="195.5" y="-78.97" font-family="Helvetica,sans-Serif" font-size="10.00">getSysOutputFilenames</text>
</a>
</g>
</g>
<!-- Node1&#45;&gt;Node15 -->
<g id="edge9_Node000001_Node000015" class="edge">
<title>Node1&#45;&gt;Node15</title>
<g id="a_edge9_Node000001_Node000015"><a xlink:title=" ">
<path fill="none" stroke="#63b8ff" d="M66.72,-108.9C80.63,-104.07 100.4,-98.42 120.25,-93.41"/>
<polygon fill="#63b8ff" stroke="#63b8ff" points="121.1,-96.81 129.97,-91.01 119.42,-90.01 121.1,-96.81"/>
</a>
</g>
</g>
<!-- Node1&#45;&gt;Node15 -->
<g id="edge12_Node000001_Node000015" class="edge">
<title>Node1&#45;&gt;Node15</title>
<g id="a_edge12_Node000001_Node000015"><a xlink:title=" ">
<path fill="none" stroke="#63b8ff" d="M93.21,-113.27C116.85,-108.12 145.01,-100.76 165.62,-94.23"/>
<polygon fill="#63b8ff" stroke="#63b8ff" points="166.97,-97.47 175.37,-91.01 164.77,-90.83 166.97,-97.47"/>
</a>
</g>
</g>
<!-- Node17 -->
<g id="Node000017" class="node">
<title>Node17</title>
<g id="a_Node000017"><a xlink:href="algebraTrace_8hpp.html#a763d8db4343fa73fa264de91d8cda786" target="_top" xlink:title="Output filter state to a file for later reading.">
<path fill="#fff0f0" stroke="red" d="M232.67,-53.97C232.67,-53.97 158.33,-53.97 158.33,-53.97 155.17,-53.97 152,-50.81 152,-47.64 152,-47.64 152,-41.31 152,-41.31 152,-38.14 155.17,-34.97 158.33,-34.97 158.33,-34.97 232.67,-34.97 232.67,-34.97 235.83,-34.97 239,-38.14 239,-41.31 239,-41.31 239,-47.64 239,-47.64 239,-50.81 235.83,-53.97 232.67,-53.97"/>
<text text-anchor="middle" x="195.5" y="-41.97" font-family="Helvetica,sans-Serif" font-size="10.00">spitFilterToFile</text>
</a>
</g>
</g>
<!-- Node1&#45;&gt;Node17 -->
<g id="edge13_Node000001_Node000017" class="edge">
<title>Node1&#45;&gt;Node17</title>
<g id="a_edge13_Node000001_Node000017"><a xlink:title=" ">
<path fill="none" stroke="#63b8ff" d="M58.89,-108.79C74,-96.41 101.91,-75.06 129,-62.47 133.14,-60.55 137.53,-58.79 142,-57.2"/>
<polygon fill="#63b8ff" stroke="#63b8ff" points="143.42,-60.42 151.83,-53.97 141.23,-53.77 143.42,-60.42"/>
</a>
</g>
</g>
<!-- Node8&#45;&gt;Node7 -->
<g id="edge4_Node000008_Node000007" class="edge">
<title>Node8&#45;&gt;Node7</title>
<g id="a_edge4_Node000008_Node000007"><a xlink:title=" ">
<path fill="none" stroke="#63b8ff" d="M239.97,-145.97C247.49,-143.64 255.11,-140.83 262,-137.47 283.34,-127.08 304.8,-110.42 319.36,-97.97"/>
<polygon fill="#63b8ff" stroke="#63b8ff" points="321.87,-100.42 327.08,-91.2 317.25,-95.16 321.87,-100.42"/>
</a>
</g>
</g>
<!-- Node12&#45;&gt;Node7 -->
<g id="edge7_Node000012_Node000007" class="edge">
<title>Node12&#45;&gt;Node7</title>
<g id="a_edge7_Node000012_Node000007"><a xlink:title=" ">
<path fill="none" stroke="#63b8ff" d="M232.81,-108.94C250.52,-104.3 272.02,-98.65 290.92,-93.7"/>
<polygon fill="#63b8ff" stroke="#63b8ff" points="292.04,-97.02 300.82,-91.1 290.26,-90.25 292.04,-97.02"/>
</a>
</g>
</g>
<!-- Node15&#45;&gt;Node7 -->
<g id="edge10_Node000015_Node000007" class="edge">
<title>Node15&#45;&gt;Node7</title>
<g id="a_edge10_Node000015_Node000007"><a xlink:title=" ">
<path fill="none" stroke="#63b8ff" d="M262.05,-74.74C270.64,-74.69 279.34,-74.77 287.62,-74.99"/>
<polygon fill="#63b8ff" stroke="#63b8ff" points="287.73,-78.49 297.84,-75.33 287.97,-71.5 287.73,-78.49"/>
</a>
</g>
</g>
<!-- Node15&#45;&gt;Node7 -->
<g id="edge11_Node000015_Node000007" class="edge">
<title>Node15&#45;&gt;Node7</title>
<g id="a_edge11_Node000015_Node000007"><a xlink:title=" ">
<path fill="none" stroke="#63b8ff" d="M262.05,-88.21C270.64,-88.26 279.34,-88.18 287.62,-87.96"/>
<polygon fill="#63b8ff" stroke="#63b8ff" points="287.97,-91.45 297.84,-87.61 287.73,-84.45 287.97,-91.45"/>
</a>
</g>
</g>
</g>
</svg>
