<?xml version="1.0" encoding="UTF-8" standalone="no"?>
<!DOCTYPE svg PUBLIC "-//W3C//DTD SVG 1.1//EN"
 "http://www.w3.org/Graphics/SVG/1.1/DTD/svg11.dtd">
<!-- Generated by graphviz version 2.43.0 (0)
 -->
<!-- Title: createTracefiles Pages: 1 -->
<svg width="325pt" height="46pt"
 viewBox="0.00 0.00 325.00 46.00" xmlns="http://www.w3.org/2000/svg" xmlns:xlink="http://www.w3.org/1999/xlink">
<g id="graph0" class="graph" transform="scale(1 1) rotate(0) translate(4 42)">
<title>createTracefiles</title>
<!-- Node1 -->
<g id="Node000001" class="node">
<title>Node1</title>
<g id="a_Node000001"><a xlink:href="outputs_8cpp.html#a116830f5a44aad1710dc47ecfa670cab" target="_top" xlink:title="Create new empty trace files only when required when the filename is changed.">
<path fill="#fff0f0" stroke="red" stroke-width="2" d="M310.67,-38C310.67,-38 230.33,-38 230.33,-38 227.17,-38 224,-34.83 224,-31.67 224,-31.67 224,-25.33 224,-25.33 224,-22.17 227.17,-19 230.33,-19 230.33,-19 310.67,-19 310.67,-19 313.83,-19 317,-22.17 317,-25.33 317,-25.33 317,-31.67 317,-31.67 317,-34.83 313.83,-38 310.67,-38"/>
<text text-anchor="middle" x="270.5" y="-26" font-family="Helvetica,sans-Serif" font-size="10.00">createTracefiles</text>
</a>
</g>
</g>
<!-- Node2 -->
<g id="Node000002" class="node">
<title>Node2</title>
<g id="a_Node000002"><a xlink:href="main_8cpp.html#a3c04138a5bfe5d72780bb7e82a18e627" target="_top" xlink:title=" ">
<path fill="#fff0f0" stroke="red" d="M34.67,-38C34.67,-38 6.33,-38 6.33,-38 3.17,-38 0,-34.83 0,-31.67 0,-31.67 0,-25.33 0,-25.33 0,-22.17 3.17,-19 6.33,-19 6.33,-19 34.67,-19 34.67,-19 37.83,-19 41,-22.17 41,-25.33 41,-25.33 41,-31.67 41,-31.67 41,-34.83 37.83,-38 34.67,-38"/>
<text text-anchor="middle" x="20.5" y="-26" font-family="Helvetica,sans-Serif" font-size="10.00">main</text>
</a>
</g>
</g>
<!-- Node1&#45;&gt;Node2 -->
<g id="edge1_Node000001_Node000002" class="edge">
<title>Node1&#45;&gt;Node2</title>
<g id="a_edge1_Node000001_Node000002"><a xlink:title=" ">
<path fill="none" stroke="#63b8ff" d="M213.45,-28.5C158.57,-28.5 78,-28.5 41.18,-28.5"/>
<polygon fill="#63b8ff" stroke="#63b8ff" points="213.72,-32 223.72,-28.5 213.72,-25 213.72,-32"/>
</a>
</g>
</g>
<!-- Node3 -->
<g id="Node000003" class="node">
<title>Node3</title>
<g id="a_Node000003"><a xlink:href="main_8cpp.html#a479f892b35943104163405de9a93be14" target="_top" xlink:title=" ">
<path fill="#fff0f0" stroke="red" d="M181.67,-19C181.67,-19 83.33,-19 83.33,-19 80.17,-19 77,-15.83 77,-12.67 77,-12.67 77,-6.33 77,-6.33 77,-3.17 80.17,0 83.33,0 83.33,0 181.67,0 181.67,0 184.83,0 188,-3.17 188,-6.33 188,-6.33 188,-12.67 188,-12.67 188,-15.83 184.83,-19 181.67,-19"/>
<text text-anchor="middle" x="132.5" y="-7" font-family="Helvetica,sans-Serif" font-size="10.00">mainOncePerEpoch</text>
</a>
</g>
</g>
<!-- Node1&#45;&gt;Node3 -->
<g id="edge2_Node000001_Node000003" class="edge">
<title>Node1&#45;&gt;Node3</title>
<g id="a_edge2_Node000001_Node000003"><a xlink:title=" ">
<path fill="none" stroke="#63b8ff" d="M213.73,-20.71C205.31,-19.53 196.63,-18.32 188.24,-17.15"/>
<polygon fill="#63b8ff" stroke="#63b8ff" points="213.45,-24.2 223.84,-22.12 214.42,-17.27 213.45,-24.2"/>
</a>
</g>
</g>
<!-- Node3&#45;&gt;Node2 -->
<g id="edge3_Node000003_Node000002" class="edge">
<title>Node3&#45;&gt;Node2</title>
<g id="a_edge3_Node000003_Node000002"><a xlink:title=" ">
<path fill="none" stroke="#63b8ff" d="M66.94,-20.65C57.54,-22.27 48.53,-23.83 41.05,-25.12"/>
<polygon fill="#63b8ff" stroke="#63b8ff" points="67.56,-24.1 76.82,-18.94 66.37,-17.2 67.56,-24.1"/>
</a>
</g>
</g>
</g>
</svg>
