<?xml version="1.0" encoding="UTF-8" standalone="no"?>
<!DOCTYPE svg PUBLIC "-//W3C//DTD SVG 1.1//EN"
 "http://www.w3.org/Graphics/SVG/1.1/DTD/svg11.dtd">
<!-- Generated by graphviz version 2.43.0 (0)
 -->
<!-- Title: jplEphPos Pages: 1 -->
<svg width="245pt" height="76pt"
 viewBox="0.00 0.00 245.00 75.50" xmlns="http://www.w3.org/2000/svg" xmlns:xlink="http://www.w3.org/1999/xlink">
<g id="graph0" class="graph" transform="scale(1 1) rotate(0) translate(4 71.5)">
<title>jplEphPos</title>
<!-- Node1 -->
<g id="Node000001" class="node">
<title>Node1</title>
<g id="a_Node000001"><a xlink:href="planets_8cpp.html#afbf4e9cc2d2186afa47982484f72b357" target="_top" xlink:title=" ">
<path fill="#fff0f0" stroke="red" stroke-width="2" d="M230.67,-40C230.67,-40 179.33,-40 179.33,-40 176.17,-40 173,-36.83 173,-33.67 173,-33.67 173,-27.33 173,-27.33 173,-24.17 176.17,-21 179.33,-21 179.33,-21 230.67,-21 230.67,-21 233.83,-21 237,-24.17 237,-27.33 237,-27.33 237,-33.67 237,-33.67 237,-36.83 233.83,-40 230.67,-40"/>
<text text-anchor="middle" x="205" y="-28" font-family="Helvetica,sans-Serif" font-size="10.00">jplEphPos</text>
</a>
</g>
</g>
<!-- Node2 -->
<g id="Node000002" class="node">
<title>Node2</title>
<g id="a_Node000002"><a xlink:href="structOrbitIntegrator.html#a58c972cf5ddac52358ccbd8f7c34b9cc" target="_top" xlink:title=" ">
<path fill="#fff0f0" stroke="red" d="M127,-67.5C127,-67.5 10,-67.5 10,-67.5 5,-67.5 0,-62.5 0,-57.5 0,-57.5 0,-47.5 0,-47.5 0,-42.5 5,-37.5 10,-37.5 10,-37.5 127,-37.5 127,-37.5 132,-37.5 137,-42.5 137,-47.5 137,-47.5 137,-57.5 137,-57.5 137,-62.5 132,-67.5 127,-67.5"/>
<text text-anchor="start" x="8" y="-55.5" font-family="Helvetica,sans-Serif" font-size="10.00">OrbitIntegrator::compute</text>
<text text-anchor="middle" x="68.5" y="-44.5" font-family="Helvetica,sans-Serif" font-size="10.00">Common</text>
</a>
</g>
</g>
<!-- Node1&#45;&gt;Node2 -->
<g id="edge1_Node000001_Node000002" class="edge">
<title>Node1&#45;&gt;Node2</title>
<g id="a_edge1_Node000001_Node000002"><a xlink:title=" ">
<path fill="none" stroke="#63b8ff" d="M162.85,-37.23C154.71,-38.56 145.96,-39.99 137.19,-41.43"/>
<polygon fill="#63b8ff" stroke="#63b8ff" points="163.5,-40.67 172.8,-35.6 162.37,-33.76 163.5,-40.67"/>
</a>
</g>
</g>
<!-- Node4 -->
<g id="Node000004" class="node">
<title>Node4</title>
<g id="a_Node000004"><a xlink:href="planets_8cpp.html#afa5d7098a27c088c2dae5e00aced234b" target="_top" xlink:title=" ">
<path fill="#fff0f0" stroke="red" d="M105.17,-19C105.17,-19 31.83,-19 31.83,-19 28.67,-19 25.5,-15.83 25.5,-12.67 25.5,-12.67 25.5,-6.33 25.5,-6.33 25.5,-3.17 28.67,0 31.83,0 31.83,0 105.17,0 105.17,0 108.33,0 111.5,-3.17 111.5,-6.33 111.5,-6.33 111.5,-12.67 111.5,-12.67 111.5,-15.83 108.33,-19 105.17,-19"/>
<text text-anchor="middle" x="68.5" y="-7" font-family="Helvetica,sans-Serif" font-size="10.00">planetPosEcef</text>
</a>
</g>
</g>
<!-- Node1&#45;&gt;Node4 -->
<g id="edge2_Node000001_Node000004" class="edge">
<title>Node1&#45;&gt;Node4</title>
<g id="a_edge2_Node000001_Node000004"><a xlink:title=" ">
<path fill="none" stroke="#63b8ff" d="M162.58,-24.03C146.44,-21.51 127.95,-18.63 111.73,-16.09"/>
<polygon fill="#63b8ff" stroke="#63b8ff" points="162.38,-27.54 172.8,-25.63 163.46,-20.63 162.38,-27.54"/>
</a>
</g>
</g>
</g>
</svg>
