<?xml version="1.0" encoding="UTF-8" standalone="no"?>
<!DOCTYPE svg PUBLIC "-//W3C//DTD SVG 1.1//EN"
 "http://www.w3.org/Graphics/SVG/1.1/DTD/svg11.dtd">
<!-- Generated by graphviz version 2.43.0 (0)
 -->
<!-- Title: writePOS Pages: 1 -->
<svg width="201pt" height="64pt"
 viewBox="0.00 0.00 201.00 64.00" xmlns="http://www.w3.org/2000/svg" xmlns:xlink="http://www.w3.org/1999/xlink">
<g id="graph0" class="graph" transform="scale(1 1) rotate(0) translate(4 60)">
<title>writePOS</title>
<!-- Node1 -->
<g id="Node000001" class="node">
<title>Node1</title>
<g id="a_Node000001"><a xlink:href="pos_8cpp.html#a7c2b65a289b358b09d3efa7d44b5be2d" target="_top" xlink:title=" ">
<path fill="#fff0f0" stroke="red" stroke-width="2" d="M54.67,-37C54.67,-37 6.33,-37 6.33,-37 3.17,-37 0,-33.83 0,-30.67 0,-30.67 0,-24.33 0,-24.33 0,-21.17 3.17,-18 6.33,-18 6.33,-18 54.67,-18 54.67,-18 57.83,-18 61,-21.17 61,-24.33 61,-24.33 61,-30.67 61,-30.67 61,-33.83 57.83,-37 54.67,-37"/>
<text text-anchor="middle" x="30.5" y="-25" font-family="Helvetica,sans-Serif" font-size="10.00">writePOS</text>
</a>
</g>
</g>
<!-- Node2 -->
<g id="Node000002" class="node">
<title>Node2</title>
<g id="a_Node000002"><a xlink:href="pos_8cpp.html#a4b91c67a13824995cf263e892c6e1ab3" target="_top" xlink:title=" ">
<path fill="#fff0f0" stroke="red" d="M186.67,-56C186.67,-56 103.33,-56 103.33,-56 100.17,-56 97,-52.83 97,-49.67 97,-49.67 97,-43.33 97,-43.33 97,-40.17 100.17,-37 103.33,-37 103.33,-37 186.67,-37 186.67,-37 189.83,-37 193,-40.17 193,-43.33 193,-43.33 193,-49.67 193,-49.67 193,-52.83 189.83,-56 186.67,-56"/>
<text text-anchor="middle" x="145" y="-44" font-family="Helvetica,sans-Serif" font-size="10.00">writePOSHeader</text>
</a>
</g>
</g>
<!-- Node1&#45;&gt;Node2 -->
<g id="edge1_Node000001_Node000002" class="edge">
<title>Node1&#45;&gt;Node2</title>
<g id="a_edge1_Node000001_Node000002"><a xlink:title=" ">
<path fill="none" stroke="#63b8ff" d="M61.06,-32.49C69,-33.83 77.88,-35.33 86.78,-36.84"/>
<polygon fill="#63b8ff" stroke="#63b8ff" points="86.36,-40.31 96.8,-38.53 87.52,-33.41 86.36,-40.31"/>
</a>
</g>
</g>
<!-- Node11 -->
<g id="Node000011" class="node">
<title>Node11</title>
<g id="a_Node000011"><a xlink:href="pos_8cpp.html#afbd1387aa03f2c5caca0ef70fda36795" target="_top" xlink:title=" ">
<path fill="#fff0f0" stroke="red" d="M181.67,-19C181.67,-19 108.33,-19 108.33,-19 105.17,-19 102,-15.83 102,-12.67 102,-12.67 102,-6.33 102,-6.33 102,-3.17 105.17,0 108.33,0 108.33,0 181.67,0 181.67,0 184.83,0 188,-3.17 188,-6.33 188,-6.33 188,-12.67 188,-12.67 188,-15.83 184.83,-19 181.67,-19"/>
<text text-anchor="middle" x="145" y="-7" font-family="Helvetica,sans-Serif" font-size="10.00">writePOSEntry</text>
</a>
</g>
</g>
<!-- Node1&#45;&gt;Node11 -->
<g id="edge2_Node000001_Node000011" class="edge">
<title>Node1&#45;&gt;Node11</title>
<g id="a_edge2_Node000001_Node000011"><a xlink:title=" ">
<path fill="none" stroke="#63b8ff" d="M61.06,-22.77C70.53,-21.26 81.32,-19.53 91.91,-17.83"/>
<polygon fill="#63b8ff" stroke="#63b8ff" points="92.63,-21.26 101.95,-16.23 91.52,-14.35 92.63,-21.26"/>
</a>
</g>
</g>
</g>
</svg>
