<?xml version="1.0" encoding="UTF-8" standalone="no"?>
<!DOCTYPE svg PUBLIC "-//W3C//DTD SVG 1.1//EN"
 "http://www.w3.org/Graphics/SVG/1.1/DTD/svg11.dtd">
<!-- Generated by graphviz version 2.43.0 (0)
 -->
<!-- Title: selectAprioriSource Pages: 1 -->
<svg width="322pt" height="101pt"
 viewBox="0.00 0.00 322.00 101.00" xmlns="http://www.w3.org/2000/svg" xmlns:xlink="http://www.w3.org/1999/xlink">
<g id="graph0" class="graph" transform="scale(1 1) rotate(0) translate(4 97)">
<title>selectAprioriSource</title>
<!-- Node1 -->
<g id="Node000001" class="node">
<title>Node1</title>
<g id="a_Node000001"><a xlink:href="ppp_8cpp.html#addf444b8f568363246958de68c55772d" target="_top" xlink:title="Compare estimated station position with benchmark in SINEX file.">
<path fill="#fff0f0" stroke="red" stroke-width="2" d="M307.67,-56C307.67,-56 209.33,-56 209.33,-56 206.17,-56 203,-52.83 203,-49.67 203,-49.67 203,-43.33 203,-43.33 203,-40.17 206.17,-37 209.33,-37 209.33,-37 307.67,-37 307.67,-37 310.83,-37 314,-40.17 314,-43.33 314,-43.33 314,-49.67 314,-49.67 314,-52.83 310.83,-56 307.67,-56"/>
<text text-anchor="middle" x="258.5" y="-44" font-family="Helvetica,sans-Serif" font-size="10.00">selectAprioriSource</text>
</a>
</g>
</g>
<!-- Node2 -->
<g id="Node000002" class="node">
<title>Node2</title>
<g id="a_Node000002"><a xlink:href="main_8cpp.html#a79eb17a8eaafbf1dde7569cb7eae3b7e" target="_top" xlink:title=" ">
<path fill="#fff0f0" stroke="red" d="M160.67,-93C160.67,-93 6.33,-93 6.33,-93 3.17,-93 0,-89.83 0,-86.67 0,-86.67 0,-80.33 0,-80.33 0,-77.17 3.17,-74 6.33,-74 6.33,-74 160.67,-74 160.67,-74 163.83,-74 167,-77.17 167,-80.33 167,-80.33 167,-86.67 167,-86.67 167,-89.83 163.83,-93 160.67,-93"/>
<text text-anchor="middle" x="83.5" y="-81" font-family="Helvetica,sans-Serif" font-size="10.00">mainOncePerEpochPerSatellite</text>
</a>
</g>
</g>
<!-- Node1&#45;&gt;Node2 -->
<g id="edge1_Node000001_Node000002" class="edge">
<title>Node1&#45;&gt;Node2</title>
<g id="a_edge1_Node000001_Node000002"><a xlink:title=" ">
<path fill="none" stroke="#63b8ff" d="M203.02,-58.15C179.25,-63.23 151.74,-69.12 129.2,-73.94"/>
<polygon fill="#63b8ff" stroke="#63b8ff" points="203.9,-61.54 212.95,-56.03 202.44,-54.7 203.9,-61.54"/>
</a>
</g>
</g>
<!-- Node5 -->
<g id="Node000005" class="node">
<title>Node5</title>
<g id="a_Node000005"><a xlink:href="main_8cpp.html#ae9a767ba206649ca2e395dd210c2218b" target="_top" xlink:title="Perform operations for each station This function occurs in parallel with other stations &#45; ensure tha...">
<path fill="#fff0f0" stroke="red" d="M157.67,-56C157.67,-56 9.33,-56 9.33,-56 6.17,-56 3,-52.83 3,-49.67 3,-49.67 3,-43.33 3,-43.33 3,-40.17 6.17,-37 9.33,-37 9.33,-37 157.67,-37 157.67,-37 160.83,-37 164,-40.17 164,-43.33 164,-43.33 164,-49.67 164,-49.67 164,-52.83 160.83,-56 157.67,-56"/>
<text text-anchor="middle" x="83.5" y="-44" font-family="Helvetica,sans-Serif" font-size="10.00">mainOncePerEpochPerStation</text>
</a>
</g>
</g>
<!-- Node1&#45;&gt;Node5 -->
<g id="edge2_Node000001_Node000005" class="edge">
<title>Node1&#45;&gt;Node5</title>
<g id="a_edge2_Node000001_Node000005"><a xlink:title=" ">
<path fill="none" stroke="#63b8ff" d="M192.49,-46.5C183.25,-46.5 173.65,-46.5 164.16,-46.5"/>
<polygon fill="#63b8ff" stroke="#63b8ff" points="192.76,-50 202.76,-46.5 192.76,-43 192.76,-50"/>
</a>
</g>
</g>
<!-- Node6 -->
<g id="Node000006" class="node">
<title>Node6</title>
<g id="a_Node000006"><a xlink:href="minimumConstraints_8cpp.html#aeb8c374e79e38289a66b8b65d6574141" target="_top" xlink:title=" ">
<path fill="#fff0f0" stroke="red" d="M114.67,-19C114.67,-19 52.33,-19 52.33,-19 49.17,-19 46,-15.83 46,-12.67 46,-12.67 46,-6.33 46,-6.33 46,-3.17 49.17,0 52.33,0 52.33,0 114.67,0 114.67,0 117.83,0 121,-3.17 121,-6.33 121,-6.33 121,-12.67 121,-12.67 121,-15.83 117.83,-19 114.67,-19"/>
<text text-anchor="middle" x="83.5" y="-7" font-family="Helvetica,sans-Serif" font-size="10.00">minconOnly</text>
</a>
</g>
</g>
<!-- Node1&#45;&gt;Node6 -->
<g id="edge3_Node000001_Node000006" class="edge">
<title>Node1&#45;&gt;Node6</title>
<g id="a_edge3_Node000001_Node000006"><a xlink:title=" ">
<path fill="none" stroke="#63b8ff" d="M202.97,-34.84C176.26,-29.12 144.81,-22.4 121.03,-17.31"/>
<polygon fill="#63b8ff" stroke="#63b8ff" points="202.44,-38.3 212.95,-36.97 203.9,-31.46 202.44,-38.3"/>
</a>
</g>
</g>
</g>
</svg>
