<?xml version="1.0" encoding="UTF-8" standalone="no"?>
<!DOCTYPE svg PUBLIC "-//W3C//DTD SVG 1.1//EN"
 "http://www.w3.org/Graphics/SVG/1.1/DTD/svg11.dtd">
<!-- Generated by graphviz version 2.43.0 (0)
 -->
<!-- Title: rejectByState Pages: 1 -->
<svg width="168pt" height="27pt"
 viewBox="0.00 0.00 168.00 27.00" xmlns="http://www.w3.org/2000/svg" xmlns:xlink="http://www.w3.org/1999/xlink">
<g id="graph0" class="graph" transform="scale(1 1) rotate(0) translate(4 23)">
<title>rejectByState</title>
<!-- Node1 -->
<g id="Node000001" class="node">
<title>Node1</title>
<g id="a_Node000001"><a xlink:href="ppp__callbacks_8cpp.html#aa658529bdaa43724f9b3b1d2cea78149" target="_top" xlink:title="Reject measurements attached to worst state using measurement reject callback list.">
<path fill="#fff0f0" stroke="red" stroke-width="2" d="M153.67,-19C153.67,-19 83.33,-19 83.33,-19 80.17,-19 77,-15.83 77,-12.67 77,-12.67 77,-6.33 77,-6.33 77,-3.17 80.17,0 83.33,0 83.33,0 153.67,0 153.67,0 156.83,0 160,-3.17 160,-6.33 160,-6.33 160,-12.67 160,-12.67 160,-15.83 156.83,-19 153.67,-19"/>
<text text-anchor="middle" x="118.5" y="-7" font-family="Helvetica,sans-Serif" font-size="10.00">rejectByState</text>
</a>
</g>
</g>
<!-- Node2 -->
<g id="Node000002" class="node">
<title>Node2</title>
<g id="a_Node000002"><a xlink:href="main_8cpp.html#a3c04138a5bfe5d72780bb7e82a18e627" target="_top" xlink:title=" ">
<path fill="#fff0f0" stroke="red" d="M34.67,-19C34.67,-19 6.33,-19 6.33,-19 3.17,-19 0,-15.83 0,-12.67 0,-12.67 0,-6.33 0,-6.33 0,-3.17 3.17,0 6.33,0 6.33,0 34.67,0 34.67,0 37.83,0 41,-3.17 41,-6.33 41,-6.33 41,-12.67 41,-12.67 41,-15.83 37.83,-19 34.67,-19"/>
<text text-anchor="middle" x="20.5" y="-7" font-family="Helvetica,sans-Serif" font-size="10.00">main</text>
</a>
</g>
</g>
<!-- Node1&#45;&gt;Node2 -->
<g id="edge1_Node000001_Node000002" class="edge">
<title>Node1&#45;&gt;Node2</title>
<g id="a_edge1_Node000001_Node000002"><a xlink:title=" ">
<path fill="none" stroke="#63b8ff" d="M66.56,-9.5C57.5,-9.5 48.58,-9.5 41.09,-9.5"/>
<polygon fill="#63b8ff" stroke="#63b8ff" points="66.79,-13 76.79,-9.5 66.79,-6 66.79,-13"/>
</a>
</g>
</g>
</g>
</svg>
