<?xml version="1.0" encoding="UTF-8" standalone="no"?>
<!DOCTYPE svg PUBLIC "-//W3C//DTD SVG 1.1//EN"
 "http://www.w3.org/Graphics/SVG/1.1/DTD/svg11.dtd">
<!-- Generated by graphviz version 2.43.0 (0)
 -->
<!-- Title: postFilterChecks Pages: 1 -->
<svg width="278pt" height="101pt"
 viewBox="0.00 0.00 278.00 101.00" xmlns="http://www.w3.org/2000/svg" xmlns:xlink="http://www.w3.org/1999/xlink">
<g id="graph0" class="graph" transform="scale(1 1) rotate(0) translate(4 97)">
<title>postFilterChecks</title>
<!-- Node1 -->
<g id="Node000001" class="node">
<title>Node1</title>
<g id="a_Node000001"><a xlink:href="ppp_8cpp.html#a014adee2aadcb5dab410a23c4a9d5aa4" target="_top" xlink:title=" ">
<path fill="#fff0f0" stroke="red" stroke-width="2" d="M91.67,-56C91.67,-56 6.33,-56 6.33,-56 3.17,-56 0,-52.83 0,-49.67 0,-49.67 0,-43.33 0,-43.33 0,-40.17 3.17,-37 6.33,-37 6.33,-37 91.67,-37 91.67,-37 94.83,-37 98,-40.17 98,-43.33 98,-43.33 98,-49.67 98,-49.67 98,-52.83 94.83,-56 91.67,-56"/>
<text text-anchor="middle" x="49" y="-44" font-family="Helvetica,sans-Serif" font-size="10.00">postFilterChecks</text>
</a>
</g>
</g>
<!-- Node2 -->
<g id="Node000002" class="node">
<title>Node2</title>
<g id="a_Node000002"><a xlink:href="ppp__callbacks_8cpp.html#a5d5d32dcf70420760fe15d9ef290636f" target="_top" xlink:title=" ">
<path fill="#fff0f0" stroke="red" d="M257.67,-93C257.67,-93 146.33,-93 146.33,-93 143.17,-93 140,-89.83 140,-86.67 140,-86.67 140,-80.33 140,-80.33 140,-77.17 143.17,-74 146.33,-74 146.33,-74 257.67,-74 257.67,-74 260.83,-74 264,-77.17 264,-80.33 264,-80.33 264,-86.67 264,-86.67 264,-89.83 260.83,-93 257.67,-93"/>
<text text-anchor="middle" x="202" y="-81" font-family="Helvetica,sans-Serif" font-size="10.00">resetPhaseSignalError</text>
</a>
</g>
</g>
<!-- Node1&#45;&gt;Node2 -->
<g id="edge1_Node000001_Node000002" class="edge">
<title>Node1&#45;&gt;Node2</title>
<g id="a_edge1_Node000001_Node000002"><a xlink:title=" ">
<path fill="none" stroke="#63b8ff" d="M88.89,-56.03C108.19,-60.76 131.7,-66.52 152.19,-71.54"/>
<polygon fill="#63b8ff" stroke="#63b8ff" points="151.44,-74.96 161.98,-73.94 153.1,-68.16 151.44,-74.96"/>
</a>
</g>
</g>
<!-- Node3 -->
<g id="Node000003" class="node">
<title>Node3</title>
<g id="a_Node000003"><a xlink:href="ppp__callbacks_8cpp.html#aa2c4d7177a6c2bf92e6e445237d26645" target="_top" xlink:title=" ">
<path fill="#fff0f0" stroke="red" d="M263.67,-56C263.67,-56 140.33,-56 140.33,-56 137.17,-56 134,-52.83 134,-49.67 134,-49.67 134,-43.33 134,-43.33 134,-40.17 137.17,-37 140.33,-37 140.33,-37 263.67,-37 263.67,-37 266.83,-37 270,-40.17 270,-43.33 270,-43.33 270,-49.67 270,-49.67 270,-52.83 266.83,-56 263.67,-56"/>
<text text-anchor="middle" x="202" y="-44" font-family="Helvetica,sans-Serif" font-size="10.00">resetPhaseSignalOutage</text>
</a>
</g>
</g>
<!-- Node1&#45;&gt;Node3 -->
<g id="edge2_Node000001_Node000003" class="edge">
<title>Node1&#45;&gt;Node3</title>
<g id="a_edge2_Node000001_Node000003"><a xlink:title=" ">
<path fill="none" stroke="#63b8ff" d="M98.19,-46.5C106.38,-46.5 115.07,-46.5 123.78,-46.5"/>
<polygon fill="#63b8ff" stroke="#63b8ff" points="124,-50 134,-46.5 124,-43 124,-50"/>
</a>
</g>
</g>
<!-- Node4 -->
<g id="Node000004" class="node">
<title>Node4</title>
<g id="a_Node000004"><a xlink:href="ppp__callbacks_8cpp.html#aead76144e3da6ea3bb0d77d1b1bf0d69" target="_top" xlink:title=" ">
<path fill="#fff0f0" stroke="red" d="M259.67,-19C259.67,-19 144.33,-19 144.33,-19 141.17,-19 138,-15.83 138,-12.67 138,-12.67 138,-6.33 138,-6.33 138,-3.17 141.17,0 144.33,0 144.33,0 259.67,0 259.67,0 262.83,0 266,-3.17 266,-6.33 266,-6.33 266,-12.67 266,-12.67 266,-15.83 262.83,-19 259.67,-19"/>
<text text-anchor="middle" x="202" y="-7" font-family="Helvetica,sans-Serif" font-size="10.00">resetIonoSignalOutage</text>
</a>
</g>
</g>
<!-- Node1&#45;&gt;Node4 -->
<g id="edge3_Node000001_Node000004" class="edge">
<title>Node1&#45;&gt;Node4</title>
<g id="a_edge3_Node000001_Node000004"><a xlink:title=" ">
<path fill="none" stroke="#63b8ff" d="M88.89,-36.97C108.19,-32.24 131.7,-26.48 152.19,-21.46"/>
<polygon fill="#63b8ff" stroke="#63b8ff" points="153.1,-24.84 161.98,-19.06 151.44,-18.04 153.1,-24.84"/>
</a>
</g>
</g>
</g>
</svg>
