<?xml version="1.0" encoding="UTF-8" standalone="no"?>
<!DOCTYPE svg PUBLIC "-//W3C//DTD SVG 1.1//EN"
 "http://www.w3.org/Graphics/SVG/1.1/DTD/svg11.dtd">
<!-- Generated by graphviz version 2.43.0 (0)
 -->
<!-- Title: ionoPseudoObs Pages: 1 -->
<svg width="225pt" height="27pt"
 viewBox="0.00 0.00 225.00 27.00" xmlns="http://www.w3.org/2000/svg" xmlns:xlink="http://www.w3.org/1999/xlink">
<g id="graph0" class="graph" transform="scale(1 1) rotate(0) translate(4 23)">
<title>ionoPseudoObs</title>
<!-- Node1 -->
<g id="Node000001" class="node">
<title>Node1</title>
<g id="a_Node000001"><a xlink:href="ppp__pseudoobs_8cpp.html#ae73c509527efa6401eb80a02825fb7fd" target="_top" xlink:title=" ">
<path fill="#fff0f0" stroke="red" stroke-width="2" d="M210.67,-19C210.67,-19 131.33,-19 131.33,-19 128.17,-19 125,-15.83 125,-12.67 125,-12.67 125,-6.33 125,-6.33 125,-3.17 128.17,0 131.33,0 131.33,0 210.67,0 210.67,0 213.83,0 217,-3.17 217,-6.33 217,-6.33 217,-12.67 217,-12.67 217,-15.83 213.83,-19 210.67,-19"/>
<text text-anchor="middle" x="171" y="-7" font-family="Helvetica,sans-Serif" font-size="10.00">ionoPseudoObs</text>
</a>
</g>
</g>
<!-- Node2 -->
<g id="Node000002" class="node">
<title>Node2</title>
<g id="a_Node000002"><a xlink:href="ppppp_8cpp.html#adee5cf8c5398c5f37f21bc6856e32f6e" target="_top" xlink:title=" ">
<path fill="#fff0f0" stroke="red" d="M82.67,-19C82.67,-19 6.33,-19 6.33,-19 3.17,-19 0,-15.83 0,-12.67 0,-12.67 0,-6.33 0,-6.33 0,-3.17 3.17,0 6.33,0 6.33,0 82.67,0 82.67,0 85.83,0 89,-3.17 89,-6.33 89,-6.33 89,-12.67 89,-12.67 89,-15.83 85.83,-19 82.67,-19"/>
<text text-anchor="middle" x="44.5" y="-7" font-family="Helvetica,sans-Serif" font-size="10.00">pppPseudoObs</text>
</a>
</g>
</g>
<!-- Node1&#45;&gt;Node2 -->
<g id="edge1_Node000001_Node000002" class="edge">
<title>Node1&#45;&gt;Node2</title>
<g id="a_edge1_Node000001_Node000002"><a xlink:title=" ">
<path fill="none" stroke="#63b8ff" d="M114.52,-9.5C106.08,-9.5 97.46,-9.5 89.31,-9.5"/>
<polygon fill="#63b8ff" stroke="#63b8ff" points="114.7,-13 124.7,-9.5 114.7,-6 114.7,-13"/>
</a>
</g>
</g>
</g>
</svg>
