<?xml version="1.0" encoding="UTF-8" standalone="no"?>
<!DOCTYPE svg PUBLIC "-//W3C//DTD SVG 1.1//EN"
 "http://www.w3.org/Graphics/SVG/1.1/DTD/svg11.dtd">
<!-- Generated by graphviz version 2.43.0 (0)
 -->
<!-- Title: deweightMeas Pages: 1 -->
<svg width="215pt" height="64pt"
 viewBox="0.00 0.00 215.00 64.00" xmlns="http://www.w3.org/2000/svg" xmlns:xlink="http://www.w3.org/1999/xlink">
<g id="graph0" class="graph" transform="scale(1 1) rotate(0) translate(4 60)">
<title>deweightMeas</title>
<!-- Node1 -->
<g id="Node000001" class="node">
<title>Node1</title>
<g id="a_Node000001"><a xlink:href="ppp__callbacks_8cpp.html#a1a21d50c6c64aeb61f0ca15fe687c2f6" target="_top" xlink:title="Deweight worst measurement.">
<path fill="#fff0f0" stroke="red" stroke-width="2" d="M200.67,-37C200.67,-37 125.33,-37 125.33,-37 122.17,-37 119,-33.83 119,-30.67 119,-30.67 119,-24.33 119,-24.33 119,-21.17 122.17,-18 125.33,-18 125.33,-18 200.67,-18 200.67,-18 203.83,-18 207,-21.17 207,-24.33 207,-24.33 207,-30.67 207,-30.67 207,-33.83 203.83,-37 200.67,-37"/>
<text text-anchor="middle" x="163" y="-25" font-family="Helvetica,sans-Serif" font-size="10.00">deweightMeas</text>
</a>
</g>
</g>
<!-- Node2 -->
<g id="Node000002" class="node">
<title>Node2</title>
<g id="a_Node000002"><a xlink:href="main_8cpp.html#a3c04138a5bfe5d72780bb7e82a18e627" target="_top" xlink:title=" ">
<path fill="#fff0f0" stroke="red" d="M55.67,-56C55.67,-56 27.33,-56 27.33,-56 24.17,-56 21,-52.83 21,-49.67 21,-49.67 21,-43.33 21,-43.33 21,-40.17 24.17,-37 27.33,-37 27.33,-37 55.67,-37 55.67,-37 58.83,-37 62,-40.17 62,-43.33 62,-43.33 62,-49.67 62,-49.67 62,-52.83 58.83,-56 55.67,-56"/>
<text text-anchor="middle" x="41.5" y="-44" font-family="Helvetica,sans-Serif" font-size="10.00">main</text>
</a>
</g>
</g>
<!-- Node1&#45;&gt;Node2 -->
<g id="edge1_Node000001_Node000002" class="edge">
<title>Node1&#45;&gt;Node2</title>
<g id="a_edge1_Node000001_Node000002"><a xlink:title=" ">
<path fill="none" stroke="#63b8ff" d="M108.68,-35.98C92.13,-38.61 74.91,-41.35 62.18,-43.37"/>
<polygon fill="#63b8ff" stroke="#63b8ff" points="109.53,-39.39 118.86,-34.36 108.43,-32.47 109.53,-39.39"/>
</a>
</g>
</g>
<!-- Node3 -->
<g id="Node000003" class="node">
<title>Node3</title>
<g id="a_Node000003"><a xlink:href="walkthrough_8cpp.html#af3e41749378ce9de79e7bdb41df88419" target="_top" xlink:title="Ginan kalman filter basics The basic structure for kalman filtering in ginan is the KFState struct,...">
<path fill="#fff0f0" stroke="red" d="M76.67,-19C76.67,-19 6.33,-19 6.33,-19 3.17,-19 0,-15.83 0,-12.67 0,-12.67 0,-6.33 0,-6.33 0,-3.17 3.17,0 6.33,0 6.33,0 76.67,0 76.67,0 79.83,0 83,-3.17 83,-6.33 83,-6.33 83,-12.67 83,-12.67 83,-15.83 79.83,-19 76.67,-19"/>
<text text-anchor="middle" x="41.5" y="-7" font-family="Helvetica,sans-Serif" font-size="10.00">walkthrough1</text>
</a>
</g>
</g>
<!-- Node1&#45;&gt;Node3 -->
<g id="edge2_Node000001_Node000003" class="edge">
<title>Node1&#45;&gt;Node3</title>
<g id="a_edge2_Node000001_Node000003"><a xlink:title=" ">
<path fill="none" stroke="#63b8ff" d="M108.87,-19.5C100.25,-18.2 91.45,-16.87 83.19,-15.63"/>
<polygon fill="#63b8ff" stroke="#63b8ff" points="108.45,-22.97 118.86,-21 109.49,-16.05 108.45,-22.97"/>
</a>
</g>
</g>
</g>
</svg>
