<?xml version="1.0" encoding="UTF-8" standalone="no"?>
<!DOCTYPE svg PUBLIC "-//W3C//DTD SVG 1.1//EN"
 "http://www.w3.org/Graphics/SVG/1.1/DTD/svg11.dtd">
<!-- Generated by graphviz version 2.43.0 (0)
 -->
<!-- Title: ppp Pages: 1 -->
<svg width="213pt" height="569pt"
 viewBox="0.00 0.00 213.00 569.00" xmlns="http://www.w3.org/2000/svg" xmlns:xlink="http://www.w3.org/1999/xlink">
<g id="graph0" class="graph" transform="scale(1 1) rotate(0) translate(4 565)">
<title>ppp</title>
<!-- Node1 -->
<g id="Node000001" class="node">
<title>Node1</title>
<g id="a_Node000001"><a xlink:href="ppppp_8cpp.html#a9997f03cab80cd8db895650860eb025e" target="_top" xlink:title=" ">
<path fill="#fff0f0" stroke="red" stroke-width="2" d="M28.67,-364C28.67,-364 6.33,-364 6.33,-364 3.17,-364 0,-360.83 0,-357.67 0,-357.67 0,-351.33 0,-351.33 0,-348.17 3.17,-345 6.33,-345 6.33,-345 28.67,-345 28.67,-345 31.83,-345 35,-348.17 35,-351.33 35,-351.33 35,-357.67 35,-357.67 35,-360.83 31.83,-364 28.67,-364"/>
<text text-anchor="middle" x="17.5" y="-352" font-family="Helvetica,sans-Serif" font-size="10.00">ppp</text>
</a>
</g>
</g>
<!-- Node2 -->
<g id="Node000002" class="node">
<title>Node2</title>
<g id="a_Node000002"><a xlink:href="ppppp_8cpp.html#a806c4571abfde8d490598ec186768d7f" target="_top" xlink:title="Primary estimation and filtering.">
<polygon fill="#88ff88" stroke="#00aa00" points="178.5,-561 97.5,-561 97.5,-542 178.5,-542 178.5,-561"/>
<text text-anchor="middle" x="138" y="-549" font-family="Helvetica,sans-Serif" font-size="10.00">Main_Filter__</text>
</a>
</g>
</g>
<!-- Node1&#45;&gt;Node2 -->
<g id="edge1_Node000001_Node000002" class="edge">
<title>Node1&#45;&gt;Node2</title>
<g id="a_edge1_Node000001_Node000002"><a xlink:title=" ">
<path fill="none" stroke="#63b8ff" d="M18.28,-364.28C18.15,-394.21 21.99,-485.42 71,-533.5 75.67,-538.09 81.39,-541.53 87.5,-544.11"/>
<polygon fill="#63b8ff" stroke="#63b8ff" points="86.7,-547.54 97.3,-547.5 88.99,-540.93 86.7,-547.54"/>
</a>
</g>
</g>
<!-- Node10 -->
<g id="Node000010" class="node">
<title>Node10</title>
<g id="a_Node000010"><a xlink:href="ppppp_8cpp.html#a84e7c899beed740758bb8da190184e65" target="_top" xlink:title=" ">
<path fill="#fff0f0" stroke="red" d="M169.17,-524C169.17,-524 106.83,-524 106.83,-524 103.67,-524 100.5,-520.83 100.5,-517.67 100.5,-517.67 100.5,-511.33 100.5,-511.33 100.5,-508.17 103.67,-505 106.83,-505 106.83,-505 169.17,-505 169.17,-505 172.33,-505 175.5,-508.17 175.5,-511.33 175.5,-511.33 175.5,-517.67 175.5,-517.67 175.5,-520.83 172.33,-524 169.17,-524"/>
<text text-anchor="middle" x="138" y="-512" font-family="Helvetica,sans-Serif" font-size="10.00">updateFilter</text>
</a>
</g>
</g>
<!-- Node1&#45;&gt;Node10 -->
<g id="edge2_Node000001_Node000010" class="edge">
<title>Node1&#45;&gt;Node10</title>
<g id="a_edge2_Node000001_Node000010"><a xlink:title=" ">
<path fill="none" stroke="#63b8ff" d="M19.21,-364.35C21.59,-389.91 31.53,-458.93 71,-495.5 76.53,-500.63 83.36,-504.38 90.5,-507.12"/>
<polygon fill="#63b8ff" stroke="#63b8ff" points="89.76,-510.56 100.35,-510.28 91.9,-503.89 89.76,-510.56"/>
</a>
</g>
</g>
<!-- Node79 -->
<g id="Node000079" class="node">
<title>Node79</title>
<g id="a_Node000079"><a xlink:href="structInteractiveTerminal.html#a1673a1bc7c18472e291aa3b1ed1bb1b7" target="_top" xlink:title=" ">
<path fill="#fff0f0" stroke="red" d="M183.5,-486.5C183.5,-486.5 92.5,-486.5 92.5,-486.5 87.5,-486.5 82.5,-481.5 82.5,-476.5 82.5,-476.5 82.5,-466.5 82.5,-466.5 82.5,-461.5 87.5,-456.5 92.5,-456.5 92.5,-456.5 183.5,-456.5 183.5,-456.5 188.5,-456.5 193.5,-461.5 193.5,-466.5 193.5,-466.5 193.5,-476.5 193.5,-476.5 193.5,-481.5 188.5,-486.5 183.5,-486.5"/>
<text text-anchor="start" x="90.5" y="-474.5" font-family="Helvetica,sans-Serif" font-size="10.00">InteractiveTerminal</text>
<text text-anchor="middle" x="138" y="-463.5" font-family="Helvetica,sans-Serif" font-size="10.00">::setMode</text>
</a>
</g>
</g>
<!-- Node1&#45;&gt;Node79 -->
<g id="edge3_Node000001_Node000079" class="edge">
<title>Node1&#45;&gt;Node79</title>
<g id="a_edge3_Node000001_Node000079"><a xlink:title=" ">
<path fill="none" stroke="#63b8ff" d="M23.51,-364.12C30.8,-381.77 46.24,-417.53 71,-438.5 78.11,-444.52 86.85,-449.08 95.61,-452.76"/>
<polygon fill="#63b8ff" stroke="#63b8ff" points="94.47,-456.07 105.06,-456.44 97.01,-449.55 94.47,-456.07"/>
</a>
</g>
</g>
<!-- Node1&#45;&gt;Node79 -->
<g id="edge7_Node000001_Node000079" class="edge">
<title>Node1&#45;&gt;Node79</title>
<g id="a_edge7_Node000001_Node000079"><a xlink:title=" ">
<path fill="none" stroke="#63b8ff" d="M20.1,-364.02C25,-384.87 41.29,-431.33 71,-456.5 71.86,-457.23 72.75,-457.94 73.65,-458.62"/>
<polygon fill="#63b8ff" stroke="#63b8ff" points="72,-461.73 82.29,-464.23 75.81,-455.85 72,-461.73"/>
</a>
</g>
</g>
<!-- Node82 -->
<g id="Node000082" class="node">
<title>Node82</title>
<g id="a_Node000082"><a xlink:href="structKFState.html#a7f8e4b9291361c063cef8d9178f07707" target="_top" xlink:title="Add process noise and dynamics to filter object according to time gap.">
<path fill="#fff0f0" stroke="red" d="M197.67,-438C197.67,-438 78.33,-438 78.33,-438 75.17,-438 72,-434.83 72,-431.67 72,-431.67 72,-425.33 72,-425.33 72,-422.17 75.17,-419 78.33,-419 78.33,-419 197.67,-419 197.67,-419 200.83,-419 204,-422.17 204,-425.33 204,-425.33 204,-431.67 204,-431.67 204,-434.83 200.83,-438 197.67,-438"/>
<text text-anchor="middle" x="138" y="-426" font-family="Helvetica,sans-Serif" font-size="10.00">KFState::stateTransition</text>
</a>
</g>
</g>
<!-- Node1&#45;&gt;Node82 -->
<g id="edge4_Node000001_Node000082" class="edge">
<title>Node1&#45;&gt;Node82</title>
<g id="a_edge4_Node000001_Node000082"><a xlink:title=" ">
<path fill="none" stroke="#63b8ff" d="M30.41,-364.2C40,-375.12 54.56,-391.6 71,-401.5 82.53,-408.44 96.78,-412.76 109.08,-416.2"/>
<polygon fill="#63b8ff" stroke="#63b8ff" points="108.28,-419.62 118.86,-418.93 110.16,-412.87 108.28,-419.62"/>
</a>
</g>
</g>
<!-- Node1&#45;&gt;Node82 -->
<g id="edge10_Node000001_Node000082" class="edge">
<title>Node1&#45;&gt;Node82</title>
<g id="a_edge10_Node000001_Node000082"><a xlink:title=" ">
<path fill="none" stroke="#63b8ff" d="M21.66,-364.1C28.08,-377.46 43.69,-399.51 63.5,-414.36"/>
<polygon fill="#63b8ff" stroke="#63b8ff" points="61.68,-417.35 71.92,-420.05 65.59,-411.55 61.68,-417.35"/>
</a>
</g>
</g>
<!-- Node89 -->
<g id="Node000089" class="node">
<title>Node89</title>
<g id="a_Node000089"><a xlink:href="structKFState.html#a0c84e911a5ea760fe728baec661e33f0" target="_top" xlink:title="Output keys and states in human readable format.">
<path fill="#fff0f0" stroke="red" d="M192.67,-401C192.67,-401 83.33,-401 83.33,-401 80.17,-401 77,-397.83 77,-394.67 77,-394.67 77,-388.33 77,-388.33 77,-385.17 80.17,-382 83.33,-382 83.33,-382 192.67,-382 192.67,-382 195.83,-382 199,-385.17 199,-388.33 199,-388.33 199,-394.67 199,-394.67 199,-397.83 195.83,-401 192.67,-401"/>
<text text-anchor="middle" x="138" y="-389" font-family="Helvetica,sans-Serif" font-size="10.00">KFState::outputStates</text>
</a>
</g>
</g>
<!-- Node1&#45;&gt;Node89 -->
<g id="edge5_Node000001_Node000089" class="edge">
<title>Node1&#45;&gt;Node89</title>
<g id="a_edge5_Node000001_Node000089"><a xlink:title=" ">
<path fill="none" stroke="#63b8ff" d="M35.4,-353.19C45.64,-355.85 58.99,-360.7 71,-364.5 85.65,-369.14 102.36,-373.69 115.29,-378.22"/>
<polygon fill="#63b8ff" stroke="#63b8ff" points="114.16,-381.53 124.75,-381.84 116.67,-374.99 114.16,-381.53"/>
</a>
</g>
</g>
<!-- Node1&#45;&gt;Node89 -->
<g id="edge11_Node000001_Node000089" class="edge">
<title>Node1&#45;&gt;Node89</title>
<g id="a_edge11_Node000001_Node000089"><a xlink:title=" ">
<path fill="none" stroke="#63b8ff" d="M26.98,-364.17C35.68,-369.75 49.85,-375.42 67.03,-381.14"/>
<polygon fill="#63b8ff" stroke="#63b8ff" points="66.28,-384.57 76.87,-384.32 68.43,-377.91 66.28,-384.57"/>
</a>
</g>
</g>
<!-- Node90 -->
<g id="Node000090" class="node">
<title>Node90</title>
<g id="a_Node000090"><a xlink:href="mongoWrite_8cpp.html#a7b0669675f4db278af7db5cb0b0dee6a" target="_top" xlink:title=" ">
<path fill="#fff0f0" stroke="red" d="M172.17,-364C172.17,-364 103.83,-364 103.83,-364 100.67,-364 97.5,-360.83 97.5,-357.67 97.5,-357.67 97.5,-351.33 97.5,-351.33 97.5,-348.17 100.67,-345 103.83,-345 103.83,-345 172.17,-345 172.17,-345 175.33,-345 178.5,-348.17 178.5,-351.33 178.5,-351.33 178.5,-357.67 178.5,-357.67 178.5,-360.83 175.33,-364 172.17,-364"/>
<text text-anchor="middle" x="138" y="-352" font-family="Helvetica,sans-Serif" font-size="10.00">mongoStates</text>
</a>
</g>
</g>
<!-- Node1&#45;&gt;Node90 -->
<g id="edge6_Node000001_Node000090" class="edge">
<title>Node1&#45;&gt;Node90</title>
<g id="a_edge6_Node000001_Node000090"><a xlink:title=" ">
<path fill="none" stroke="#63b8ff" d="M35.23,-349.63C48.79,-348.12 68.64,-347.52 87.22,-347.83"/>
<polygon fill="#63b8ff" stroke="#63b8ff" points="87.27,-351.33 97.36,-348.09 87.45,-344.33 87.27,-351.33"/>
</a>
</g>
</g>
<!-- Node1&#45;&gt;Node90 -->
<g id="edge12_Node000001_Node000090" class="edge">
<title>Node1&#45;&gt;Node90</title>
<g id="a_edge12_Node000001_Node000090"><a xlink:title=" ">
<path fill="none" stroke="#63b8ff" d="M35.23,-359.37C48.79,-360.88 68.64,-361.48 87.22,-361.17"/>
<polygon fill="#63b8ff" stroke="#63b8ff" points="87.45,-364.67 97.36,-360.91 87.27,-357.67 87.45,-364.67"/>
</a>
</g>
</g>
<!-- Node101 -->
<g id="Node000101" class="node">
<title>Node101</title>
<g id="a_Node000101"><a xlink:href="ppppp_8cpp.html#a3b665caab3cc9fd693c4f5f1bab170fc" target="_top" xlink:title=" ">
<path fill="#fff0f0" stroke="red" d="M193.17,-327C193.17,-327 82.83,-327 82.83,-327 79.67,-327 76.5,-323.83 76.5,-320.67 76.5,-320.67 76.5,-314.33 76.5,-314.33 76.5,-311.17 79.67,-308 82.83,-308 82.83,-308 193.17,-308 193.17,-308 196.33,-308 199.5,-311.17 199.5,-314.33 199.5,-314.33 199.5,-320.67 199.5,-320.67 199.5,-323.83 196.33,-327 193.17,-327"/>
<text text-anchor="middle" x="138" y="-315" font-family="Helvetica,sans-Serif" font-size="10.00">perRecMeasurements</text>
</a>
</g>
</g>
<!-- Node1&#45;&gt;Node101 -->
<g id="edge8_Node000001_Node000101" class="edge">
<title>Node1&#45;&gt;Node101</title>
<g id="a_edge8_Node000001_Node000101"><a xlink:title=" ">
<path fill="none" stroke="#63b8ff" d="M35.45,-348.45C45.7,-344.85 59.05,-340.27 71,-336.5 78.04,-334.28 85.53,-332.03 92.84,-329.88"/>
<polygon fill="#63b8ff" stroke="#63b8ff" points="94.02,-333.18 102.65,-327.04 92.07,-326.46 94.02,-333.18"/>
</a>
</g>
</g>
<!-- Node318 -->
<g id="Node000318" class="node">
<title>Node318</title>
<g id="a_Node000318"><a xlink:href="ppppp_8cpp.html#adee5cf8c5398c5f37f21bc6856e32f6e" target="_top" xlink:title=" ">
<path fill="#fff0f0" stroke="red" d="M176.17,-290C176.17,-290 99.83,-290 99.83,-290 96.67,-290 93.5,-286.83 93.5,-283.67 93.5,-283.67 93.5,-277.33 93.5,-277.33 93.5,-274.17 96.67,-271 99.83,-271 99.83,-271 176.17,-271 176.17,-271 179.33,-271 182.5,-274.17 182.5,-277.33 182.5,-277.33 182.5,-283.67 182.5,-283.67 182.5,-286.83 179.33,-290 176.17,-290"/>
<text text-anchor="middle" x="138" y="-278" font-family="Helvetica,sans-Serif" font-size="10.00">pppPseudoObs</text>
</a>
</g>
</g>
<!-- Node1&#45;&gt;Node318 -->
<g id="edge9_Node000001_Node000318" class="edge">
<title>Node1&#45;&gt;Node318</title>
<g id="a_edge9_Node000001_Node000318"><a xlink:title=" ">
<path fill="none" stroke="#63b8ff" d="M25.16,-344.85C34.16,-332.53 51.35,-311.4 71,-299.5 75.06,-297.04 79.45,-294.89 83.97,-293.01"/>
<polygon fill="#63b8ff" stroke="#63b8ff" points="85.22,-296.28 93.37,-289.51 82.78,-289.72 85.22,-296.28"/>
</a>
</g>
</g>
<!-- Node335 -->
<g id="Node000335" class="node">
<title>Node335</title>
<g id="a_Node000335"><a xlink:href="ppppp_8cpp.html#a472ab40be352ddb8dc211e3eda9795e5" target="_top" xlink:title=" ">
<path fill="#fff0f0" stroke="red" d="M197.67,-253C197.67,-253 78.33,-253 78.33,-253 75.17,-253 72,-249.83 72,-246.67 72,-246.67 72,-240.33 72,-240.33 72,-237.17 75.17,-234 78.33,-234 78.33,-234 197.67,-234 197.67,-234 200.83,-234 204,-237.17 204,-240.33 204,-240.33 204,-246.67 204,-246.67 204,-249.83 200.83,-253 197.67,-253"/>
<text text-anchor="middle" x="138" y="-241" font-family="Helvetica,sans-Serif" font-size="10.00">pppLinearCombinations</text>
</a>
</g>
</g>
<!-- Node1&#45;&gt;Node335 -->
<g id="edge13_Node000001_Node000335" class="edge">
<title>Node1&#45;&gt;Node335</title>
<g id="a_edge13_Node000001_Node000335"><a xlink:title=" ">
<path fill="none" stroke="#63b8ff" d="M21.31,-344.81C27.27,-326.01 42.95,-284.55 71,-262.5 73.33,-260.67 75.83,-259.01 78.44,-257.52"/>
<polygon fill="#63b8ff" stroke="#63b8ff" points="80.22,-260.54 87.69,-253.03 77.16,-254.25 80.22,-260.54"/>
</a>
</g>
</g>
<!-- Node339 -->
<g id="Node000339" class="node">
<title>Node339</title>
<g id="a_Node000339"><a xlink:href="ppppp_8cpp.html#a4b5d474b51c1ecdced800480c9eff4c8" target="_top" xlink:title=" ">
<path fill="#fff0f0" stroke="red" d="M194.17,-216C194.17,-216 81.83,-216 81.83,-216 78.67,-216 75.5,-212.83 75.5,-209.67 75.5,-209.67 75.5,-203.33 75.5,-203.33 75.5,-200.17 78.67,-197 81.83,-197 81.83,-197 194.17,-197 194.17,-197 197.33,-197 200.5,-200.17 200.5,-203.33 200.5,-203.33 200.5,-209.67 200.5,-209.67 200.5,-212.83 197.33,-216 194.17,-216"/>
<text text-anchor="middle" x="138" y="-204" font-family="Helvetica,sans-Serif" font-size="10.00">explainMeasurements</text>
</a>
</g>
</g>
<!-- Node1&#45;&gt;Node339 -->
<g id="edge14_Node000001_Node000339" class="edge">
<title>Node1&#45;&gt;Node339</title>
<g id="a_edge14_Node000001_Node000339"><a xlink:title=" ">
<path fill="none" stroke="#63b8ff" d="M19.58,-344.78C22.76,-320.81 34.32,-258.48 71,-225.5 72.77,-223.91 74.65,-222.46 76.64,-221.12"/>
<polygon fill="#63b8ff" stroke="#63b8ff" points="78.8,-223.93 85.85,-216.02 75.41,-217.8 78.8,-223.93"/>
</a>
</g>
</g>
<!-- Node340 -->
<g id="Node000340" class="node">
<title>Node340</title>
<g id="a_Node000340"><a xlink:href="ppppp_8cpp.html#ae4469a04171cca583bbf37c4443b3dd3" target="_top" xlink:title=" ">
<path fill="#fff0f0" stroke="red" d="M180.17,-179C180.17,-179 95.83,-179 95.83,-179 92.67,-179 89.5,-175.83 89.5,-172.67 89.5,-172.67 89.5,-166.33 89.5,-166.33 89.5,-163.17 92.67,-160 95.83,-160 95.83,-160 180.17,-160 180.17,-160 183.33,-160 186.5,-163.17 186.5,-166.33 186.5,-166.33 186.5,-172.67 186.5,-172.67 186.5,-175.83 183.33,-179 180.17,-179"/>
<text text-anchor="middle" x="138" y="-167" font-family="Helvetica,sans-Serif" font-size="10.00">alternatePostfits</text>
</a>
</g>
</g>
<!-- Node1&#45;&gt;Node340 -->
<g id="edge15_Node000001_Node000340" class="edge">
<title>Node1&#45;&gt;Node340</title>
<g id="a_edge15_Node000001_Node000340"><a xlink:title=" ">
<path fill="none" stroke="#63b8ff" d="M18.57,-344.64C19.33,-316.12 25.54,-232.8 71,-188.5 73.72,-185.85 76.79,-183.56 80.07,-181.59"/>
<polygon fill="#63b8ff" stroke="#63b8ff" points="81.78,-184.65 89.19,-177.08 78.67,-178.38 81.78,-184.65"/>
</a>
</g>
</g>
<!-- Node298 -->
<g id="Node000298" class="node">
<title>Node298</title>
<g id="a_Node000298"><a xlink:href="structKFState.html#ae1fc274c403b77dc814ed90763b4dea1" target="_top" xlink:title="Least squares estimator for new kalman filter states.">
<path fill="#fff0f0" stroke="red" d="M195,-141.5C195,-141.5 81,-141.5 81,-141.5 76,-141.5 71,-136.5 71,-131.5 71,-131.5 71,-121.5 71,-121.5 71,-116.5 76,-111.5 81,-111.5 81,-111.5 195,-111.5 195,-111.5 200,-111.5 205,-116.5 205,-121.5 205,-121.5 205,-131.5 205,-131.5 205,-136.5 200,-141.5 195,-141.5"/>
<text text-anchor="start" x="79" y="-129.5" font-family="Helvetica,sans-Serif" font-size="10.00">KFState::leastSquareInit</text>
<text text-anchor="middle" x="138" y="-118.5" font-family="Helvetica,sans-Serif" font-size="10.00">States</text>
</a>
</g>
</g>
<!-- Node1&#45;&gt;Node298 -->
<g id="edge16_Node000001_Node000298" class="edge">
<title>Node1&#45;&gt;Node298</title>
<g id="a_edge16_Node000001_Node000298"><a xlink:title=" ">
<path fill="none" stroke="#63b8ff" d="M18.08,-344.58C17.25,-312.39 19,-209.5 71,-151.5 72.18,-150.18 73.44,-148.93 74.76,-147.75"/>
<polygon fill="#63b8ff" stroke="#63b8ff" points="77.01,-150.44 82.95,-141.67 72.83,-144.82 77.01,-150.44"/>
</a>
</g>
</g>
<!-- Node341 -->
<g id="Node000341" class="node">
<title>Node341</title>
<g id="a_Node000341"><a xlink:href="ppppp_8cpp.html#a4bd02d0de545b2ca7460a6644b6d5ba8" target="_top" xlink:title=" ">
<path fill="#fff0f0" stroke="red" d="M167.17,-93C167.17,-93 108.83,-93 108.83,-93 105.67,-93 102.5,-89.83 102.5,-86.67 102.5,-86.67 102.5,-80.33 102.5,-80.33 102.5,-77.17 105.67,-74 108.83,-74 108.83,-74 167.17,-74 167.17,-74 170.33,-74 173.5,-77.17 173.5,-80.33 173.5,-80.33 173.5,-86.67 173.5,-86.67 173.5,-89.83 170.33,-93 167.17,-93"/>
<text text-anchor="middle" x="138" y="-81" font-family="Helvetica,sans-Serif" font-size="10.00">chunkFilter</text>
</a>
</g>
</g>
<!-- Node1&#45;&gt;Node341 -->
<g id="edge17_Node000001_Node000341" class="edge">
<title>Node1&#45;&gt;Node341</title>
<g id="a_edge17_Node000001_Node000341"><a xlink:title=" ">
<path fill="none" stroke="#63b8ff" d="M19.2,-344.84C22.43,-303.14 37.11,-139.03 71,-102.5 76.83,-96.22 84.59,-91.96 92.73,-89.1"/>
<polygon fill="#63b8ff" stroke="#63b8ff" points="93.73,-92.45 102.38,-86.33 91.8,-85.72 93.73,-92.45"/>
</a>
</g>
</g>
<!-- Node300 -->
<g id="Node000300" class="node">
<title>Node300</title>
<g id="a_Node000300"><a xlink:href="structKFState.html#a0d12c57e70876543084c182a660bbbd3" target="_top" xlink:title="Kalman filter operation.">
<path fill="#fff0f0" stroke="red" d="M191.67,-56C191.67,-56 84.33,-56 84.33,-56 81.17,-56 78,-52.83 78,-49.67 78,-49.67 78,-43.33 78,-43.33 78,-40.17 81.17,-37 84.33,-37 84.33,-37 191.67,-37 191.67,-37 194.83,-37 198,-40.17 198,-43.33 198,-43.33 198,-49.67 198,-49.67 198,-52.83 194.83,-56 191.67,-56"/>
<text text-anchor="middle" x="138" y="-44" font-family="Helvetica,sans-Serif" font-size="10.00">KFState::filterKalman</text>
</a>
</g>
</g>
<!-- Node1&#45;&gt;Node300 -->
<g id="edge18_Node000001_Node000300" class="edge">
<title>Node1&#45;&gt;Node300</title>
<g id="a_edge18_Node000001_Node000300"><a xlink:title=" ">
<path fill="none" stroke="#63b8ff" d="M18.92,-344.99C21.08,-299.9 32.44,-108.15 71,-65.5 72.21,-64.16 73.51,-62.92 74.88,-61.76"/>
<polygon fill="#63b8ff" stroke="#63b8ff" points="77.08,-64.49 83.42,-56 73.17,-58.69 77.08,-64.49"/>
</a>
</g>
</g>
<!-- Node342 -->
<g id="Node000342" class="node">
<title>Node342</title>
<g id="a_Node000342"><a xlink:href="ppp_8cpp.html#a014adee2aadcb5dab410a23c4a9d5aa4" target="_top" xlink:title=" ">
<path fill="#fff0f0" stroke="red" d="M180.67,-19C180.67,-19 95.33,-19 95.33,-19 92.17,-19 89,-15.83 89,-12.67 89,-12.67 89,-6.33 89,-6.33 89,-3.17 92.17,0 95.33,0 95.33,0 180.67,0 180.67,0 183.83,0 187,-3.17 187,-6.33 187,-6.33 187,-12.67 187,-12.67 187,-15.83 183.83,-19 180.67,-19"/>
<text text-anchor="middle" x="138" y="-7" font-family="Helvetica,sans-Serif" font-size="10.00">postFilterChecks</text>
</a>
</g>
</g>
<!-- Node1&#45;&gt;Node342 -->
<g id="edge19_Node000001_Node000342" class="edge">
<title>Node1&#45;&gt;Node342</title>
<g id="a_edge19_Node000001_Node000342"><a xlink:title=" ">
<path fill="none" stroke="#63b8ff" d="M18.71,-344.77C19.94,-295.86 27.85,-77.2 71,-28.5 73.56,-25.61 76.53,-23.14 79.77,-21.05"/>
<polygon fill="#63b8ff" stroke="#63b8ff" points="81.61,-24.03 88.85,-16.3 78.37,-17.83 81.61,-24.03"/>
</a>
</g>
</g>
</g>
</svg>
