<?xml version="1.0" encoding="UTF-8" standalone="no"?>
<!DOCTYPE svg PUBLIC "-//W3C//DTD SVG 1.1//EN"
 "http://www.w3.org/Graphics/SVG/1.1/DTD/svg11.dtd">
<!-- Generated by graphviz version 2.43.0 (0)
 -->
<!-- Title: pppRecCodeBias Pages: 1 -->
<svg width="271pt" height="101pt"
 viewBox="0.00 0.00 271.00 101.00" xmlns="http://www.w3.org/2000/svg" xmlns:xlink="http://www.w3.org/1999/xlink">
<g id="graph0" class="graph" transform="scale(1 1) rotate(0) translate(4 97)">
<title>pppRecCodeBias</title>
<!-- Node1 -->
<g id="Node000001" class="node">
<title>Node1</title>
<g id="a_Node000001"><a xlink:href="ppp__obs_8cpp.html#a9b2ff8aad927c7fc5fd2303a9d473f3e" target="_top" xlink:title=" ">
<path fill="#fff0f0" stroke="red" stroke-width="2" d="M91.67,-56C91.67,-56 6.33,-56 6.33,-56 3.17,-56 0,-52.83 0,-49.67 0,-49.67 0,-43.33 0,-43.33 0,-40.17 3.17,-37 6.33,-37 6.33,-37 91.67,-37 91.67,-37 94.83,-37 98,-40.17 98,-43.33 98,-43.33 98,-49.67 98,-49.67 98,-52.83 94.83,-56 91.67,-56"/>
<text text-anchor="middle" x="49" y="-44" font-family="Helvetica,sans-Serif" font-size="10.00">pppRecCodeBias</text>
</a>
</g>
</g>
<!-- Node2 -->
<g id="Node000002" class="node">
<title>Node2</title>
<g id="a_Node000002"><a xlink:href="biases_8cpp.html#a6f49cb0a55e482e3d3defdb6ab521563" target="_top" xlink:title="Search for hardware biases in phase and code.">
<path fill="#fff0f0" stroke="red" d="M218.67,-93C218.67,-93 178.33,-93 178.33,-93 175.17,-93 172,-89.83 172,-86.67 172,-86.67 172,-80.33 172,-80.33 172,-77.17 175.17,-74 178.33,-74 178.33,-74 218.67,-74 218.67,-74 221.83,-74 225,-77.17 225,-80.33 225,-80.33 225,-86.67 225,-86.67 225,-89.83 221.83,-93 218.67,-93"/>
<text text-anchor="middle" x="198.5" y="-81" font-family="Helvetica,sans-Serif" font-size="10.00">getBias</text>
</a>
</g>
</g>
<!-- Node1&#45;&gt;Node2 -->
<g id="edge1_Node000001_Node000002" class="edge">
<title>Node1&#45;&gt;Node2</title>
<g id="a_edge1_Node000001_Node000002"><a xlink:title=" ">
<path fill="none" stroke="#63b8ff" d="M87.98,-56.03C110.78,-61.75 139.6,-68.98 161.95,-74.58"/>
<polygon fill="#63b8ff" stroke="#63b8ff" points="161.17,-77.99 171.72,-77.03 162.87,-71.2 161.17,-77.99"/>
</a>
</g>
</g>
<!-- Node14 -->
<g id="Node000014" class="node">
<title>Node14</title>
<g id="a_Node000014"><a xlink:href="algebra_8cpp.html#a4a6a1ebf759ddc5d9d6d1de14269c5af" target="_top" xlink:title=" ">
<path fill="#fff0f0" stroke="red" d="M254.67,-56C254.67,-56 142.33,-56 142.33,-56 139.17,-56 136,-52.83 136,-49.67 136,-49.67 136,-43.33 136,-43.33 136,-40.17 139.17,-37 142.33,-37 142.33,-37 254.67,-37 254.67,-37 257.83,-37 261,-40.17 261,-43.33 261,-43.33 261,-49.67 261,-49.67 261,-52.83 257.83,-56 254.67,-56"/>
<text text-anchor="middle" x="198.5" y="-44" font-family="Helvetica,sans-Serif" font-size="10.00">initialStateFromConfig</text>
</a>
</g>
</g>
<!-- Node1&#45;&gt;Node14 -->
<g id="edge2_Node000001_Node000014" class="edge">
<title>Node1&#45;&gt;Node14</title>
<g id="a_edge2_Node000001_Node000014"><a xlink:title=" ">
<path fill="none" stroke="#63b8ff" d="M98.3,-46.5C107.12,-46.5 116.5,-46.5 125.83,-46.5"/>
<polygon fill="#63b8ff" stroke="#63b8ff" points="125.91,-50 135.91,-46.5 125.91,-43 125.91,-50"/>
</a>
</g>
</g>
<!-- Node15 -->
<g id="Node000015" class="node">
<title>Node15</title>
<g id="a_Node000015"><a xlink:href="structACSConfig.html#acbb130e061ba4b7bf620e4fb68e1b794" target="_top" xlink:title="Set receiver options for a specific receiver using a hierarchy of sources.">
<path fill="#fff0f0" stroke="red" d="M256.67,-19C256.67,-19 140.33,-19 140.33,-19 137.17,-19 134,-15.83 134,-12.67 134,-12.67 134,-6.33 134,-6.33 134,-3.17 137.17,0 140.33,0 140.33,0 256.67,0 256.67,0 259.83,0 263,-3.17 263,-6.33 263,-6.33 263,-12.67 263,-12.67 263,-15.83 259.83,-19 256.67,-19"/>
<text text-anchor="middle" x="198.5" y="-7" font-family="Helvetica,sans-Serif" font-size="10.00">ACSConfig::getRecOpts</text>
</a>
</g>
</g>
<!-- Node1&#45;&gt;Node15 -->
<g id="edge3_Node000001_Node000015" class="edge">
<title>Node1&#45;&gt;Node15</title>
<g id="a_edge3_Node000001_Node000015"><a xlink:title=" ">
<path fill="none" stroke="#63b8ff" d="M87.98,-36.97C106.75,-32.26 129.59,-26.53 149.55,-21.53"/>
<polygon fill="#63b8ff" stroke="#63b8ff" points="150.54,-24.89 159.39,-19.06 148.84,-18.1 150.54,-24.89"/>
</a>
</g>
</g>
</g>
</svg>
