<?xml version="1.0" encoding="UTF-8" standalone="no"?>
<!DOCTYPE svg PUBLIC "-//W3C//DTD SVG 1.1//EN"
 "http://www.w3.org/Graphics/SVG/1.1/DTD/svg11.dtd">
<!-- Generated by graphviz version 2.43.0 (0)
 -->
<!-- Title: pppSatCodeBias Pages: 1 -->
<svg width="267pt" height="101pt"
 viewBox="0.00 0.00 267.00 101.00" xmlns="http://www.w3.org/2000/svg" xmlns:xlink="http://www.w3.org/1999/xlink">
<g id="graph0" class="graph" transform="scale(1 1) rotate(0) translate(4 97)">
<title>pppSatCodeBias</title>
<!-- Node1 -->
<g id="Node000001" class="node">
<title>Node1</title>
<g id="a_Node000001"><a xlink:href="ppp__obs_8cpp.html#a91bd33e0d6bda8bb828c87ac17f2f507" target="_top" xlink:title=" ">
<path fill="#fff0f0" stroke="red" stroke-width="2" d="M89.67,-56C89.67,-56 6.33,-56 6.33,-56 3.17,-56 0,-52.83 0,-49.67 0,-49.67 0,-43.33 0,-43.33 0,-40.17 3.17,-37 6.33,-37 6.33,-37 89.67,-37 89.67,-37 92.83,-37 96,-40.17 96,-43.33 96,-43.33 96,-49.67 96,-49.67 96,-52.83 92.83,-56 89.67,-56"/>
<text text-anchor="middle" x="48" y="-44" font-family="Helvetica,sans-Serif" font-size="10.00">pppSatCodeBias</text>
</a>
</g>
</g>
<!-- Node2 -->
<g id="Node000002" class="node">
<title>Node2</title>
<g id="a_Node000002"><a xlink:href="biases_8cpp.html#a6f49cb0a55e482e3d3defdb6ab521563" target="_top" xlink:title="Search for hardware biases in phase and code.">
<path fill="#fff0f0" stroke="red" d="M215.67,-93C215.67,-93 175.33,-93 175.33,-93 172.17,-93 169,-89.83 169,-86.67 169,-86.67 169,-80.33 169,-80.33 169,-77.17 172.17,-74 175.33,-74 175.33,-74 215.67,-74 215.67,-74 218.83,-74 222,-77.17 222,-80.33 222,-80.33 222,-86.67 222,-86.67 222,-89.83 218.83,-93 215.67,-93"/>
<text text-anchor="middle" x="195.5" y="-81" font-family="Helvetica,sans-Serif" font-size="10.00">getBias</text>
</a>
</g>
</g>
<!-- Node1&#45;&gt;Node2 -->
<g id="edge1_Node000001_Node000002" class="edge">
<title>Node1&#45;&gt;Node2</title>
<g id="a_edge1_Node000001_Node000002"><a xlink:title=" ">
<path fill="none" stroke="#63b8ff" d="M86.47,-56.03C108.71,-61.68 136.76,-68.82 158.7,-74.4"/>
<polygon fill="#63b8ff" stroke="#63b8ff" points="158.07,-77.85 168.62,-76.92 159.79,-71.06 158.07,-77.85"/>
</a>
</g>
</g>
<!-- Node14 -->
<g id="Node000014" class="node">
<title>Node14</title>
<g id="a_Node000014"><a xlink:href="algebra_8cpp.html#a4a6a1ebf759ddc5d9d6d1de14269c5af" target="_top" xlink:title=" ">
<path fill="#fff0f0" stroke="red" d="M251.67,-56C251.67,-56 139.33,-56 139.33,-56 136.17,-56 133,-52.83 133,-49.67 133,-49.67 133,-43.33 133,-43.33 133,-40.17 136.17,-37 139.33,-37 139.33,-37 251.67,-37 251.67,-37 254.83,-37 258,-40.17 258,-43.33 258,-43.33 258,-49.67 258,-49.67 258,-52.83 254.83,-56 251.67,-56"/>
<text text-anchor="middle" x="195.5" y="-44" font-family="Helvetica,sans-Serif" font-size="10.00">initialStateFromConfig</text>
</a>
</g>
</g>
<!-- Node1&#45;&gt;Node14 -->
<g id="edge2_Node000001_Node000014" class="edge">
<title>Node1&#45;&gt;Node14</title>
<g id="a_edge2_Node000001_Node000014"><a xlink:title=" ">
<path fill="none" stroke="#63b8ff" d="M96.24,-46.5C104.74,-46.5 113.77,-46.5 122.78,-46.5"/>
<polygon fill="#63b8ff" stroke="#63b8ff" points="122.92,-50 132.92,-46.5 122.92,-43 122.92,-50"/>
</a>
</g>
</g>
<!-- Node15 -->
<g id="Node000015" class="node">
<title>Node15</title>
<g id="a_Node000015"><a xlink:href="structACSConfig.html#a20ca3689eafecfa2b7e656c28e340256" target="_top" xlink:title="Set satellite options for a specific satellite using a hierarchy of sources.">
<path fill="#fff0f0" stroke="red" d="M252.67,-19C252.67,-19 138.33,-19 138.33,-19 135.17,-19 132,-15.83 132,-12.67 132,-12.67 132,-6.33 132,-6.33 132,-3.17 135.17,0 138.33,0 138.33,0 252.67,0 252.67,0 255.83,0 259,-3.17 259,-6.33 259,-6.33 259,-12.67 259,-12.67 259,-15.83 255.83,-19 252.67,-19"/>
<text text-anchor="middle" x="195.5" y="-7" font-family="Helvetica,sans-Serif" font-size="10.00">ACSConfig::getSatOpts</text>
</a>
</g>
</g>
<!-- Node1&#45;&gt;Node15 -->
<g id="edge3_Node000001_Node000015" class="edge">
<title>Node1&#45;&gt;Node15</title>
<g id="a_edge3_Node000001_Node000015"><a xlink:title=" ">
<path fill="none" stroke="#63b8ff" d="M86.47,-36.97C104.98,-32.26 127.52,-26.53 147.2,-21.53"/>
<polygon fill="#63b8ff" stroke="#63b8ff" points="148.08,-24.92 156.9,-19.06 146.35,-18.13 148.08,-24.92"/>
</a>
</g>
</g>
</g>
</svg>
