<?xml version="1.0" encoding="UTF-8" standalone="no"?>
<!DOCTYPE svg PUBLIC "-//W3C//DTD SVG 1.1//EN"
 "http://www.w3.org/Graphics/SVG/1.1/DTD/svg11.dtd">
<!-- Generated by graphviz version 2.43.0 (0)
 -->
<!-- Title: slrTrop Pages: 1 -->
<svg width="218pt" height="64pt"
 viewBox="0.00 0.00 218.00 64.00" xmlns="http://www.w3.org/2000/svg" xmlns:xlink="http://www.w3.org/1999/xlink">
<g id="graph0" class="graph" transform="scale(1 1) rotate(0) translate(4 60)">
<title>slrTrop</title>
<!-- Node1 -->
<g id="Node000001" class="node">
<title>Node1</title>
<g id="a_Node000001"><a xlink:href="ppp__slr_8cpp.html#a3067c36195f20aef3454e65bed7859cc" target="_top" xlink:title="Tropospheric delay.">
<path fill="#fff0f0" stroke="red" stroke-width="2" d="M42.67,-37C42.67,-37 6.33,-37 6.33,-37 3.17,-37 0,-33.83 0,-30.67 0,-30.67 0,-24.33 0,-24.33 0,-21.17 3.17,-18 6.33,-18 6.33,-18 42.67,-18 42.67,-18 45.83,-18 49,-21.17 49,-24.33 49,-24.33 49,-30.67 49,-30.67 49,-33.83 45.83,-37 42.67,-37"/>
<text text-anchor="middle" x="24.5" y="-25" font-family="Helvetica,sans-Serif" font-size="10.00">slrTrop</text>
</a>
</g>
</g>
<!-- Node2 -->
<g id="Node000002" class="node">
<title>Node2</title>
<g id="a_Node000002"><a xlink:href="slrRec_8cpp.html#a5c3e74e626f1e4d9791cb3a6bcbf4888" target="_top" xlink:title="Calculate trop delay on SLR observation.">
<path fill="#fff0f0" stroke="red" d="M185.67,-56C185.67,-56 109.33,-56 109.33,-56 106.17,-56 103,-52.83 103,-49.67 103,-49.67 103,-43.33 103,-43.33 103,-40.17 106.17,-37 109.33,-37 109.33,-37 185.67,-37 185.67,-37 188.83,-37 192,-40.17 192,-43.33 192,-43.33 192,-49.67 192,-49.67 192,-52.83 188.83,-56 185.67,-56"/>
<text text-anchor="middle" x="147.5" y="-44" font-family="Helvetica,sans-Serif" font-size="10.00">laserTropDelay</text>
</a>
</g>
</g>
<!-- Node1&#45;&gt;Node2 -->
<g id="edge1_Node000001_Node000002" class="edge">
<title>Node1&#45;&gt;Node2</title>
<g id="a_edge1_Node000001_Node000002"><a xlink:title=" ">
<path fill="none" stroke="#63b8ff" d="M49.12,-31.21C61.64,-33.18 77.58,-35.68 92.91,-38.09"/>
<polygon fill="#63b8ff" stroke="#63b8ff" points="92.44,-41.55 102.86,-39.65 93.52,-34.64 92.44,-41.55"/>
</a>
</g>
</g>
<!-- Node6 -->
<g id="Node000006" class="node">
<title>Node6</title>
<g id="a_Node000006"><a xlink:href="algebra_8cpp.html#a4a6a1ebf759ddc5d9d6d1de14269c5af" target="_top" xlink:title=" ">
<path fill="#fff0f0" stroke="red" d="M203.67,-19C203.67,-19 91.33,-19 91.33,-19 88.17,-19 85,-15.83 85,-12.67 85,-12.67 85,-6.33 85,-6.33 85,-3.17 88.17,0 91.33,0 91.33,0 203.67,0 203.67,0 206.83,0 210,-3.17 210,-6.33 210,-6.33 210,-12.67 210,-12.67 210,-15.83 206.83,-19 203.67,-19"/>
<text text-anchor="middle" x="147.5" y="-7" font-family="Helvetica,sans-Serif" font-size="10.00">initialStateFromConfig</text>
</a>
</g>
</g>
<!-- Node1&#45;&gt;Node6 -->
<g id="edge2_Node000001_Node000006" class="edge">
<title>Node1&#45;&gt;Node6</title>
<g id="a_edge2_Node000001_Node000006"><a xlink:title=" ">
<path fill="none" stroke="#63b8ff" d="M49.12,-23.99C56.69,-22.86 65.52,-21.55 74.7,-20.18"/>
<polygon fill="#63b8ff" stroke="#63b8ff" points="75.39,-23.62 84.77,-18.68 74.36,-16.69 75.39,-23.62"/>
</a>
</g>
</g>
</g>
</svg>
