<?xml version="1.0" encoding="UTF-8" standalone="no"?>
<!DOCTYPE svg PUBLIC "-//W3C//DTD SVG 1.1//EN"
 "http://www.w3.org/Graphics/SVG/1.1/DTD/svg11.dtd">
<!-- Generated by graphviz version 2.43.0 (0)
 -->
<!-- Title: filterPseudoObs Pages: 1 -->
<svg width="226pt" height="27pt"
 viewBox="0.00 0.00 226.00 27.00" xmlns="http://www.w3.org/2000/svg" xmlns:xlink="http://www.w3.org/1999/xlink">
<g id="graph0" class="graph" transform="scale(1 1) rotate(0) translate(4 23)">
<title>filterPseudoObs</title>
<!-- Node1 -->
<g id="Node000001" class="node">
<title>Node1</title>
<g id="a_Node000001"><a xlink:href="ppp__pseudoobs_8cpp.html#a2851c6a4dfd04eb338a17257bfc2b865" target="_top" xlink:title=" ">
<path fill="#fff0f0" stroke="red" stroke-width="2" d="M211.67,-19C211.67,-19 131.33,-19 131.33,-19 128.17,-19 125,-15.83 125,-12.67 125,-12.67 125,-6.33 125,-6.33 125,-3.17 128.17,0 131.33,0 131.33,0 211.67,0 211.67,0 214.83,0 218,-3.17 218,-6.33 218,-6.33 218,-12.67 218,-12.67 218,-15.83 214.83,-19 211.67,-19"/>
<text text-anchor="middle" x="171.5" y="-7" font-family="Helvetica,sans-Serif" font-size="10.00">filterPseudoObs</text>
</a>
</g>
</g>
<!-- Node2 -->
<g id="Node000002" class="node">
<title>Node2</title>
<g id="a_Node000002"><a xlink:href="ppppp_8cpp.html#adee5cf8c5398c5f37f21bc6856e32f6e" target="_top" xlink:title=" ">
<path fill="#fff0f0" stroke="red" d="M82.67,-19C82.67,-19 6.33,-19 6.33,-19 3.17,-19 0,-15.83 0,-12.67 0,-12.67 0,-6.33 0,-6.33 0,-3.17 3.17,0 6.33,0 6.33,0 82.67,0 82.67,0 85.83,0 89,-3.17 89,-6.33 89,-6.33 89,-12.67 89,-12.67 89,-15.83 85.83,-19 82.67,-19"/>
<text text-anchor="middle" x="44.5" y="-7" font-family="Helvetica,sans-Serif" font-size="10.00">pppPseudoObs</text>
</a>
</g>
</g>
<!-- Node1&#45;&gt;Node2 -->
<g id="edge1_Node000001_Node000002" class="edge">
<title>Node1&#45;&gt;Node2</title>
<g id="a_edge1_Node000001_Node000002"><a xlink:title=" ">
<path fill="none" stroke="#63b8ff" d="M114.47,-9.5C106.01,-9.5 97.4,-9.5 89.25,-9.5"/>
<polygon fill="#63b8ff" stroke="#63b8ff" points="114.66,-13 124.66,-9.5 114.66,-6 114.66,-13"/>
</a>
</g>
</g>
</g>
</svg>
