<?xml version="1.0" encoding="UTF-8" standalone="no"?>
<!DOCTYPE svg PUBLIC "-//W3C//DTD SVG 1.1//EN"
 "http://www.w3.org/Graphics/SVG/1.1/DTD/svg11.dtd">
<!-- Generated by graphviz version 2.43.0 (0)
 -->
<!-- Title: fixAndHoldAmbiguities Pages: 1 -->
<svg width="326pt" height="113pt"
 viewBox="0.00 0.00 326.00 113.00" xmlns="http://www.w3.org/2000/svg" xmlns:xlink="http://www.w3.org/1999/xlink">
<g id="graph0" class="graph" transform="scale(1 1) rotate(0) translate(4 109)">
<title>fixAndHoldAmbiguities</title>
<!-- Node1 -->
<g id="Node000001" class="node">
<title>Node1</title>
<g id="a_Node000001"><a xlink:href="ppp__ambres_8cpp.html#ac60a10fa51dfc292692db9b9e6f7af30" target="_top" xlink:title=" ">
<path fill="#fff0f0" stroke="red" stroke-width="2" d="M311.67,-62C311.67,-62 196.33,-62 196.33,-62 193.17,-62 190,-58.83 190,-55.67 190,-55.67 190,-49.33 190,-49.33 190,-46.17 193.17,-43 196.33,-43 196.33,-43 311.67,-43 311.67,-43 314.83,-43 318,-46.17 318,-49.33 318,-49.33 318,-55.67 318,-55.67 318,-58.83 314.83,-62 311.67,-62"/>
<text text-anchor="middle" x="254" y="-50" font-family="Helvetica,sans-Serif" font-size="10.00">fixAndHoldAmbiguities</text>
</a>
</g>
</g>
<!-- Node2 -->
<g id="Node000002" class="node">
<title>Node2</title>
<g id="a_Node000002"><a xlink:href="main_8cpp.html#a2b0d1066eac1a878cf982adcdd550ce1" target="_top" xlink:title="Perform any post&#45;final epoch calculations and outputs, then begin reverse smoothing and tidy up.">
<path fill="#fff0f0" stroke="red" d="M128.17,-105C128.17,-105 25.83,-105 25.83,-105 22.67,-105 19.5,-101.83 19.5,-98.67 19.5,-98.67 19.5,-92.33 19.5,-92.33 19.5,-89.17 22.67,-86 25.83,-86 25.83,-86 128.17,-86 128.17,-86 131.33,-86 134.5,-89.17 134.5,-92.33 134.5,-92.33 134.5,-98.67 134.5,-98.67 134.5,-101.83 131.33,-105 128.17,-105"/>
<text text-anchor="middle" x="77" y="-93" font-family="Helvetica,sans-Serif" font-size="10.00">mainPostProcessing</text>
</a>
</g>
</g>
<!-- Node1&#45;&gt;Node2 -->
<g id="edge1_Node000001_Node000002" class="edge">
<title>Node1&#45;&gt;Node2</title>
<g id="a_edge1_Node000001_Node000002"><a xlink:title=" ">
<path fill="none" stroke="#63b8ff" d="M204.3,-64.47C176.66,-71.26 142.53,-79.64 116.73,-85.98"/>
<polygon fill="#63b8ff" stroke="#63b8ff" points="205.29,-67.83 214.16,-62.04 203.62,-61.03 205.29,-67.83"/>
</a>
</g>
</g>
<!-- Node4 -->
<g id="Node000004" class="node">
<title>Node4</title>
<g id="a_Node000004"><a xlink:href="outputs_8cpp.html#ab72aaa4a378c8714b6de17cc45e9314c" target="_top" xlink:title=" ">
<path fill="#fff0f0" stroke="red" d="M144,-67.5C144,-67.5 10,-67.5 10,-67.5 5,-67.5 0,-62.5 0,-57.5 0,-57.5 0,-47.5 0,-47.5 0,-42.5 5,-37.5 10,-37.5 10,-37.5 144,-37.5 144,-37.5 149,-37.5 154,-42.5 154,-47.5 154,-47.5 154,-57.5 154,-57.5 154,-62.5 149,-67.5 144,-67.5"/>
<text text-anchor="start" x="8" y="-55.5" font-family="Helvetica,sans-Serif" font-size="10.00">perEpochPostProcessingAnd</text>
<text text-anchor="middle" x="77" y="-44.5" font-family="Helvetica,sans-Serif" font-size="10.00">Outputs</text>
</a>
</g>
</g>
<!-- Node1&#45;&gt;Node4 -->
<g id="edge2_Node000001_Node000004" class="edge">
<title>Node1&#45;&gt;Node4</title>
<g id="a_edge2_Node000001_Node000004"><a xlink:title=" ">
<path fill="none" stroke="#63b8ff" d="M179.67,-52.5C171.26,-52.5 162.67,-52.5 154.22,-52.5"/>
<polygon fill="#63b8ff" stroke="#63b8ff" points="179.82,-56 189.82,-52.5 179.82,-49 179.82,-56"/>
</a>
</g>
</g>
<!-- Node6 -->
<g id="Node000006" class="node">
<title>Node6</title>
<g id="a_Node000006"><a xlink:href="rtsSmoothing_8cpp.html#a65cd5f94ab58227ab032b1e894ca3987" target="_top" xlink:title=" ">
<path fill="#fff0f0" stroke="red" d="M116.67,-19C116.67,-19 37.33,-19 37.33,-19 34.17,-19 31,-15.83 31,-12.67 31,-12.67 31,-6.33 31,-6.33 31,-3.17 34.17,0 37.33,0 37.33,0 116.67,0 116.67,0 119.83,0 123,-3.17 123,-6.33 123,-6.33 123,-12.67 123,-12.67 123,-15.83 119.83,-19 116.67,-19"/>
<text text-anchor="middle" x="77" y="-7" font-family="Helvetica,sans-Serif" font-size="10.00">postRTSActions</text>
</a>
</g>
</g>
<!-- Node1&#45;&gt;Node6 -->
<g id="edge3_Node000001_Node000006" class="edge">
<title>Node1&#45;&gt;Node6</title>
<g id="a_edge3_Node000001_Node000006"><a xlink:title=" ">
<path fill="none" stroke="#63b8ff" d="M204.3,-40.53C176.66,-33.74 142.53,-25.36 116.73,-19.02"/>
<polygon fill="#63b8ff" stroke="#63b8ff" points="203.62,-43.97 214.16,-42.96 205.29,-37.17 203.62,-43.97"/>
</a>
</g>
</g>
</g>
</svg>
