<?xml version="1.0" encoding="UTF-8" standalone="no"?>
<!DOCTYPE svg PUBLIC "-//W3C//DTD SVG 1.1//EN"
 "http://www.w3.org/Graphics/SVG/1.1/DTD/svg11.dtd">
<!-- Generated by graphviz version 2.43.0 (0)
 -->
<!-- Title: slrRecAntDelta Pages: 1 -->
<svg width="207pt" height="64pt"
 viewBox="0.00 0.00 207.00 64.00" xmlns="http://www.w3.org/2000/svg" xmlns:xlink="http://www.w3.org/1999/xlink">
<g id="graph0" class="graph" transform="scale(1 1) rotate(0) translate(4 60)">
<title>slrRecAntDelta</title>
<!-- Node1 -->
<g id="Node000001" class="node">
<title>Node1</title>
<g id="a_Node000001"><a xlink:href="ppp__slr_8cpp.html#aad49640c070b3e068079c5c64d09ae62" target="_top" xlink:title=" ">
<path fill="#fff0f0" stroke="red" stroke-width="2" d="M82.67,-19C82.67,-19 6.33,-19 6.33,-19 3.17,-19 0,-15.83 0,-12.67 0,-12.67 0,-6.33 0,-6.33 0,-3.17 3.17,0 6.33,0 6.33,0 82.67,0 82.67,0 85.83,0 89,-3.17 89,-6.33 89,-6.33 89,-12.67 89,-12.67 89,-15.83 85.83,-19 82.67,-19"/>
<text text-anchor="middle" x="44.5" y="-7" font-family="Helvetica,sans-Serif" font-size="10.00">slrRecAntDelta</text>
</a>
</g>
</g>
<!-- Node2 -->
<g id="Node000002" class="node">
<title>Node2</title>
<g id="a_Node000002"><a xlink:href="coordinates_8cpp.html#a9860e0cea74eb4ca1383342104693565" target="_top" xlink:title="transform vector in body frame to ecef">
<path fill="#fff0f0" stroke="red" d="M189.67,-56C189.67,-56 134.33,-56 134.33,-56 131.17,-56 128,-52.83 128,-49.67 128,-49.67 128,-43.33 128,-43.33 128,-40.17 131.17,-37 134.33,-37 134.33,-37 189.67,-37 189.67,-37 192.83,-37 196,-40.17 196,-43.33 196,-43.33 196,-49.67 196,-49.67 196,-52.83 192.83,-56 189.67,-56"/>
<text text-anchor="middle" x="162" y="-44" font-family="Helvetica,sans-Serif" font-size="10.00">body2ecef</text>
</a>
</g>
</g>
<!-- Node1&#45;&gt;Node2 -->
<g id="edge1_Node000001_Node000002" class="edge">
<title>Node1&#45;&gt;Node2</title>
<g id="a_edge1_Node000001_Node000002"><a xlink:title=" ">
<path fill="none" stroke="#63b8ff" d="M75.24,-19.03C89.28,-23.52 106.23,-28.95 121.34,-33.8"/>
<polygon fill="#63b8ff" stroke="#63b8ff" points="120.36,-37.16 130.96,-36.88 122.5,-30.49 120.36,-37.16"/>
</a>
</g>
</g>
<!-- Node3 -->
<g id="Node000003" class="node">
<title>Node3</title>
<g id="a_Node000003"><a xlink:href="ppp_8hpp.html#a2377a787263a24e12ceaf1be96f177b5" target="_top" xlink:title=" ">
<path fill="#fff0f0" stroke="red" d="M192.67,-19C192.67,-19 131.33,-19 131.33,-19 128.17,-19 125,-15.83 125,-12.67 125,-12.67 125,-6.33 125,-6.33 125,-3.17 128.17,0 131.33,0 131.33,0 192.67,0 192.67,0 195.83,0 199,-3.17 199,-6.33 199,-6.33 199,-12.67 199,-12.67 199,-15.83 195.83,-19 192.67,-19"/>
<text text-anchor="middle" x="162" y="-7" font-family="Helvetica,sans-Serif" font-size="10.00">recAntDelta</text>
</a>
</g>
</g>
<!-- Node1&#45;&gt;Node3 -->
<g id="edge2_Node000001_Node000003" class="edge">
<title>Node1&#45;&gt;Node3</title>
<g id="a_edge2_Node000001_Node000003"><a xlink:title=" ">
<path fill="none" stroke="#63b8ff" d="M89.17,-2.93C97.52,-2.71 106.3,-2.69 114.73,-2.87"/>
<polygon fill="#63b8ff" stroke="#63b8ff" points="114.7,-6.37 124.8,-3.19 114.92,0.63 114.7,-6.37"/>
</a>
</g>
</g>
<!-- Node1&#45;&gt;Node3 -->
<g id="edge3_Node000001_Node000003" class="edge">
<title>Node1&#45;&gt;Node3</title>
<g id="a_edge3_Node000001_Node000003"><a xlink:title=" ">
<path fill="none" stroke="#63b8ff" d="M89.17,-16.07C97.52,-16.29 106.3,-16.31 114.73,-16.13"/>
<polygon fill="#63b8ff" stroke="#63b8ff" points="114.92,-19.63 124.8,-15.81 114.7,-12.63 114.92,-19.63"/>
</a>
</g>
</g>
</g>
</svg>
