<?xml version="1.0" encoding="UTF-8" standalone="no"?>
<!DOCTYPE svg PUBLIC "-//W3C//DTD SVG 1.1//EN"
 "http://www.w3.org/Graphics/SVG/1.1/DTD/svg11.dtd">
<!-- Generated by graphviz version 2.43.0 (0)
 -->
<!-- Title: selectAprioriSource Pages: 1 -->
<svg width="284pt" height="230pt"
 viewBox="0.00 0.00 284.00 230.00" xmlns="http://www.w3.org/2000/svg" xmlns:xlink="http://www.w3.org/1999/xlink">
<g id="graph0" class="graph" transform="scale(1 1) rotate(0) translate(4 226)">
<title>selectAprioriSource</title>
<!-- Node1 -->
<g id="Node000001" class="node">
<title>Node1</title>
<g id="a_Node000001"><a xlink:href="ppp_8cpp.html#ac02b107ae8826ef55bf8e6e156ef8b63" target="_top" xlink:title="Compare estimated station position with benchmark in SINEX file.">
<path fill="#fff0f0" stroke="red" stroke-width="2" d="M104.67,-130C104.67,-130 6.33,-130 6.33,-130 3.17,-130 0,-126.83 0,-123.67 0,-123.67 0,-117.33 0,-117.33 0,-114.17 3.17,-111 6.33,-111 6.33,-111 104.67,-111 104.67,-111 107.83,-111 111,-114.17 111,-117.33 111,-117.33 111,-123.67 111,-123.67 111,-126.83 107.83,-130 104.67,-130"/>
<text text-anchor="middle" x="55.5" y="-118" font-family="Helvetica,sans-Serif" font-size="10.00">selectAprioriSource</text>
</a>
</g>
</g>
<!-- Node2 -->
<g id="Node000002" class="node">
<title>Node2</title>
<g id="a_Node000002"><a xlink:href="structACSConfig.html#acbb130e061ba4b7bf620e4fb68e1b794" target="_top" xlink:title="Set receiver options for a specific receiver using a hierarchy of sources.">
<path fill="#fff0f0" stroke="red" d="M269.67,-222C269.67,-222 153.33,-222 153.33,-222 150.17,-222 147,-218.83 147,-215.67 147,-215.67 147,-209.33 147,-209.33 147,-206.17 150.17,-203 153.33,-203 153.33,-203 269.67,-203 269.67,-203 272.83,-203 276,-206.17 276,-209.33 276,-209.33 276,-215.67 276,-215.67 276,-218.83 272.83,-222 269.67,-222"/>
<text text-anchor="middle" x="211.5" y="-210" font-family="Helvetica,sans-Serif" font-size="10.00">ACSConfig::getRecOpts</text>
</a>
</g>
</g>
<!-- Node1&#45;&gt;Node2 -->
<g id="edge1_Node000001_Node000002" class="edge">
<title>Node1&#45;&gt;Node2</title>
<g id="a_edge1_Node000001_Node000002"><a xlink:title=" ">
<path fill="none" stroke="#63b8ff" d="M65.59,-130.16C80.92,-145.89 113.53,-177.04 147,-194.5 150.5,-196.33 154.21,-197.99 158.01,-199.49"/>
<polygon fill="#63b8ff" stroke="#63b8ff" points="156.96,-202.84 167.56,-202.93 159.33,-196.25 156.96,-202.84"/>
</a>
</g>
</g>
<!-- Node18 -->
<g id="Node000018" class="node">
<title>Node18</title>
<g id="a_Node000018"><a xlink:href="structKFState.html#aeca6e3874ad0c94607152d244016582f" target="_top" xlink:title="Returns the value and variance of a state within the kalman filter object.">
<path fill="#fff0f0" stroke="red" d="M263.17,-167C263.17,-167 159.83,-167 159.83,-167 156.67,-167 153.5,-163.83 153.5,-160.67 153.5,-160.67 153.5,-154.33 153.5,-154.33 153.5,-151.17 156.67,-148 159.83,-148 159.83,-148 263.17,-148 263.17,-148 266.33,-148 269.5,-151.17 269.5,-154.33 269.5,-154.33 269.5,-160.67 269.5,-160.67 269.5,-163.83 266.33,-167 263.17,-167"/>
<text text-anchor="middle" x="211.5" y="-155" font-family="Helvetica,sans-Serif" font-size="10.00">KFState::getKFValue</text>
</a>
</g>
</g>
<!-- Node1&#45;&gt;Node18 -->
<g id="edge2_Node000001_Node000018" class="edge">
<title>Node1&#45;&gt;Node18</title>
<g id="a_edge2_Node000001_Node000018"><a xlink:title=" ">
<path fill="none" stroke="#63b8ff" d="M111.23,-127.16C134.64,-132.23 161.06,-138.92 180.75,-144.89"/>
<polygon fill="#63b8ff" stroke="#63b8ff" points="179.79,-148.26 190.38,-147.94 181.91,-141.59 179.79,-148.26"/>
</a>
</g>
</g>
<!-- Node1&#45;&gt;Node18 -->
<g id="edge6_Node000001_Node000018" class="edge">
<title>Node1&#45;&gt;Node18</title>
<g id="a_edge6_Node000001_Node000018"><a xlink:title=" ">
<path fill="none" stroke="#63b8ff" d="M76.63,-130.07C93.69,-135.72 119.15,-142.5 143.31,-148.06"/>
<polygon fill="#63b8ff" stroke="#63b8ff" points="142.67,-151.5 153.19,-150.28 144.2,-144.67 142.67,-151.5"/>
</a>
</g>
</g>
<!-- Node19 -->
<g id="Node000019" class="node">
<title>Node19</title>
<g id="a_Node000019"><a xlink:href="trace_8hpp.html#af5320371d0f15d74154b2b32d315684d" target="_top" xlink:title=" ">
<path fill="#fff0f0" stroke="red" d="M242.67,-130C242.67,-130 180.33,-130 180.33,-130 177.17,-130 174,-126.83 174,-123.67 174,-123.67 174,-117.33 174,-117.33 174,-114.17 177.17,-111 180.33,-111 180.33,-111 242.67,-111 242.67,-111 245.83,-111 249,-114.17 249,-117.33 249,-117.33 249,-123.67 249,-123.67 249,-126.83 245.83,-130 242.67,-130"/>
<text text-anchor="middle" x="211.5" y="-118" font-family="Helvetica,sans-Serif" font-size="10.00">getTraceFile</text>
</a>
</g>
</g>
<!-- Node1&#45;&gt;Node19 -->
<g id="edge4_Node000001_Node000019" class="edge">
<title>Node1&#45;&gt;Node19</title>
<g id="a_edge4_Node000001_Node000019"><a xlink:title=" ">
<path fill="none" stroke="#63b8ff" d="M111.23,-120.5C128.25,-120.5 146.86,-120.5 163.32,-120.5"/>
<polygon fill="#63b8ff" stroke="#63b8ff" points="163.78,-124 173.78,-120.5 163.78,-117 163.78,-124"/>
</a>
</g>
</g>
<!-- Node20 -->
<g id="Node000020" class="node">
<title>Node20</title>
<g id="a_Node000020"><a xlink:href="ephPrecise_8cpp.html#a7152f02ef77017fa75612ac13eeda408" target="_top" xlink:title="clock by precise clock">
<path fill="#fff0f0" stroke="red" d="M232.67,-93C232.67,-93 190.33,-93 190.33,-93 187.17,-93 184,-89.83 184,-86.67 184,-86.67 184,-80.33 184,-80.33 184,-77.17 187.17,-74 190.33,-74 190.33,-74 232.67,-74 232.67,-74 235.83,-74 239,-77.17 239,-80.33 239,-80.33 239,-86.67 239,-86.67 239,-89.83 235.83,-93 232.67,-93"/>
<text text-anchor="middle" x="211.5" y="-81" font-family="Helvetica,sans-Serif" font-size="10.00">pephclk</text>
</a>
</g>
</g>
<!-- Node1&#45;&gt;Node20 -->
<g id="edge5_Node000001_Node000020" class="edge">
<title>Node1&#45;&gt;Node20</title>
<g id="a_edge5_Node000001_Node000020"><a xlink:title=" ">
<path fill="none" stroke="#63b8ff" d="M96.16,-110.97C120.07,-105.23 150.32,-97.96 173.7,-92.34"/>
<polygon fill="#63b8ff" stroke="#63b8ff" points="174.68,-95.71 183.58,-89.97 173.04,-88.9 174.68,-95.71"/>
</a>
</g>
</g>
<!-- Node23 -->
<g id="Node000023" class="node">
<title>Node23</title>
<g id="a_Node000023"><a xlink:href="utils_8cpp.html#ae91d83cf693cdc7e1efacbe4d8d9656e" target="_top" xlink:title=" ">
<path fill="#fff0f0" stroke="red" d="M235.67,-56C235.67,-56 187.33,-56 187.33,-56 184.17,-56 181,-52.83 181,-49.67 181,-49.67 181,-43.33 181,-43.33 181,-40.17 184.17,-37 187.33,-37 187.33,-37 235.67,-37 235.67,-37 238.83,-37 242,-40.17 242,-43.33 242,-43.33 242,-49.67 242,-49.67 242,-52.83 238.83,-56 235.67,-56"/>
<text text-anchor="middle" x="211.5" y="-44" font-family="Helvetica,sans-Serif" font-size="10.00">ecef2pos</text>
</a>
</g>
</g>
<!-- Node1&#45;&gt;Node23 -->
<g id="edge7_Node000001_Node000023" class="edge">
<title>Node1&#45;&gt;Node23</title>
<g id="a_edge7_Node000001_Node000023"><a xlink:title=" ">
<path fill="none" stroke="#63b8ff" d="M69.71,-110.98C86.82,-99 117.94,-78.42 147,-65.5 154.62,-62.11 163.02,-59.12 171.15,-56.56"/>
<polygon fill="#63b8ff" stroke="#63b8ff" points="172.27,-59.88 180.85,-53.68 170.27,-53.18 172.27,-59.88"/>
</a>
</g>
</g>
<!-- Node24 -->
<g id="Node000024" class="node">
<title>Node24</title>
<g id="a_Node000024"><a xlink:href="coordinates_8cpp.html#a8473fa1efe21e24084f708ed9e9df38e" target="_top" xlink:title=" ">
<path fill="#fff0f0" stroke="red" d="M234.17,-19C234.17,-19 188.83,-19 188.83,-19 185.67,-19 182.5,-15.83 182.5,-12.67 182.5,-12.67 182.5,-6.33 182.5,-6.33 182.5,-3.17 185.67,0 188.83,0 188.83,0 234.17,0 234.17,0 237.33,0 240.5,-3.17 240.5,-6.33 240.5,-6.33 240.5,-12.67 240.5,-12.67 240.5,-15.83 237.33,-19 234.17,-19"/>
<text text-anchor="middle" x="211.5" y="-7" font-family="Helvetica,sans-Serif" font-size="10.00">pos2enu</text>
</a>
</g>
</g>
<!-- Node1&#45;&gt;Node24 -->
<g id="edge8_Node000001_Node000024" class="edge">
<title>Node1&#45;&gt;Node24</title>
<g id="a_edge8_Node000001_Node000024"><a xlink:title=" ">
<path fill="none" stroke="#63b8ff" d="M63.3,-110.87C76.99,-92.2 109.77,-50.93 147,-28.5 154.81,-23.8 163.86,-20.19 172.64,-17.44"/>
<polygon fill="#63b8ff" stroke="#63b8ff" points="173.69,-20.78 182.36,-14.7 171.79,-14.05 173.69,-20.78"/>
</a>
</g>
</g>
<!-- Node18&#45;&gt;Node18 -->
<g id="edge3_Node000018_Node000018" class="edge">
<title>Node18&#45;&gt;Node18</title>
<g id="a_edge3_Node000018_Node000018"><a xlink:title=" ">
<path fill="none" stroke="#63b8ff" d="M187.46,-167.08C175.76,-175.73 183.77,-185 211.5,-185 229.7,-185 239.4,-181.01 240.62,-175.82"/>
<polygon fill="#63b8ff" stroke="#63b8ff" points="243.59,-173.97 235.54,-167.08 237.54,-177.49 243.59,-173.97"/>
</a>
</g>
</g>
</g>
</svg>
