<?xml version="1.0" encoding="UTF-8" standalone="no"?>
<!DOCTYPE svg PUBLIC "-//W3C//DTD SVG 1.1//EN"
 "http://www.w3.org/Graphics/SVG/1.1/DTD/svg11.dtd">
<!-- Generated by graphviz version 2.43.0 (0)
 -->
<!-- Title: pppTides Pages: 1 -->
<svg width="167pt" height="27pt"
 viewBox="0.00 0.00 167.00 27.00" xmlns="http://www.w3.org/2000/svg" xmlns:xlink="http://www.w3.org/1999/xlink">
<g id="graph0" class="graph" transform="scale(1 1) rotate(0) translate(4 23)">
<title>pppTides</title>
<!-- Node1 -->
<g id="Node000001" class="node">
<title>Node1</title>
<g id="a_Node000001"><a xlink:href="ppp__obs_8cpp.html#a904c3280fbec9e675a71c8086ea929ec" target="_top" xlink:title=" ">
<path fill="#fff0f0" stroke="red" stroke-width="2" d="M54.67,-19C54.67,-19 6.33,-19 6.33,-19 3.17,-19 0,-15.83 0,-12.67 0,-12.67 0,-6.33 0,-6.33 0,-3.17 3.17,0 6.33,0 6.33,0 54.67,0 54.67,0 57.83,0 61,-3.17 61,-6.33 61,-6.33 61,-12.67 61,-12.67 61,-15.83 57.83,-19 54.67,-19"/>
<text text-anchor="middle" x="30.5" y="-7" font-family="Helvetica,sans-Serif" font-size="10.00">pppTides</text>
</a>
</g>
</g>
<!-- Node2 -->
<g id="Node000002" class="node">
<title>Node2</title>
<g id="a_Node000002"><a xlink:href="ppp__obs_8cpp.html#a24d2485a6cbf3385c321d3ed4b8fb38e" target="_top" xlink:title=" ">
<path fill="#fff0f0" stroke="red" d="M152.67,-19C152.67,-19 103.33,-19 103.33,-19 100.17,-19 97,-15.83 97,-12.67 97,-12.67 97,-6.33 97,-6.33 97,-3.17 100.17,0 103.33,0 103.33,0 152.67,0 152.67,0 155.83,0 159,-3.17 159,-6.33 159,-6.33 159,-12.67 159,-12.67 159,-15.83 155.83,-19 152.67,-19"/>
<text text-anchor="middle" x="128" y="-7" font-family="Helvetica,sans-Serif" font-size="10.00">tideDelta</text>
</a>
</g>
</g>
<!-- Node1&#45;&gt;Node2 -->
<g id="edge1_Node000001_Node000002" class="edge">
<title>Node1&#45;&gt;Node2</title>
<g id="a_edge1_Node000001_Node000002"><a xlink:title=" ">
<path fill="none" stroke="#63b8ff" d="M61.19,-9.5C69.29,-9.5 78.2,-9.5 86.78,-9.5"/>
<polygon fill="#63b8ff" stroke="#63b8ff" points="87,-13 97,-9.5 87,-6 87,-13"/>
</a>
</g>
</g>
</g>
</svg>
