<?xml version="1.0" encoding="UTF-8" standalone="no"?>
<!DOCTYPE svg PUBLIC "-//W3C//DTD SVG 1.1//EN"
 "http://www.w3.org/Graphics/SVG/1.1/DTD/svg11.dtd">
<!-- Generated by graphviz version 2.43.0 (0)
 -->
<!-- Title: queryBiasUC Pages: 1 -->
<svg width="222pt" height="27pt"
 viewBox="0.00 0.00 222.00 27.00" xmlns="http://www.w3.org/2000/svg" xmlns:xlink="http://www.w3.org/1999/xlink">
<g id="graph0" class="graph" transform="scale(1 1) rotate(0) translate(4 23)">
<title>queryBiasUC</title>
<!-- Node1 -->
<g id="Node000001" class="node">
<title>Node1</title>
<g id="a_Node000001"><a xlink:href="ppp__ambres_8cpp.html#a020b06329797411a2dc7746aadd19361" target="_top" xlink:title=" ">
<path fill="#fff0f0" stroke="red" stroke-width="2" d="M207.67,-19C207.67,-19 140.33,-19 140.33,-19 137.17,-19 134,-15.83 134,-12.67 134,-12.67 134,-6.33 134,-6.33 134,-3.17 137.17,0 140.33,0 140.33,0 207.67,0 207.67,0 210.83,0 214,-3.17 214,-6.33 214,-6.33 214,-12.67 214,-12.67 214,-15.83 210.83,-19 207.67,-19"/>
<text text-anchor="middle" x="174" y="-7" font-family="Helvetica,sans-Serif" font-size="10.00">queryBiasUC</text>
</a>
</g>
</g>
<!-- Node2 -->
<g id="Node000002" class="node">
<title>Node2</title>
<g id="a_Node000002"><a xlink:href="biasSINEXwrite_8cpp.html#abc90614c242788a9f2d72edf553191da" target="_top" xlink:title="Find and combine biases from multiple sources: bias inputs, UC biases and DCB from ionosphere modules...">
<path fill="#fff0f0" stroke="red" d="M91.67,-19C91.67,-19 6.33,-19 6.33,-19 3.17,-19 0,-15.83 0,-12.67 0,-12.67 0,-6.33 0,-6.33 0,-3.17 3.17,0 6.33,0 6.33,0 91.67,0 91.67,0 94.83,0 98,-3.17 98,-6.33 98,-6.33 98,-12.67 98,-12.67 98,-15.83 94.83,-19 91.67,-19"/>
<text text-anchor="middle" x="49" y="-7" font-family="Helvetica,sans-Serif" font-size="10.00">queryBiasOutput</text>
</a>
</g>
</g>
<!-- Node1&#45;&gt;Node2 -->
<g id="edge1_Node000001_Node000002" class="edge">
<title>Node1&#45;&gt;Node2</title>
<g id="a_edge1_Node000001_Node000002"><a xlink:title=" ">
<path fill="none" stroke="#63b8ff" d="M123.47,-9.5C115.19,-9.5 106.62,-9.5 98.37,-9.5"/>
<polygon fill="#63b8ff" stroke="#63b8ff" points="123.74,-13 133.74,-9.5 123.74,-6 123.74,-13"/>
</a>
</g>
</g>
</g>
</svg>
