<?xml version="1.0" encoding="UTF-8" standalone="no"?>
<!DOCTYPE svg PUBLIC "-//W3C//DTD SVG 1.1//EN"
 "http://www.w3.org/Graphics/SVG/1.1/DTD/svg11.dtd">
<!-- Generated by graphviz version 2.43.0 (0)
 -->
<!-- Title: removeBadIonospheres Pages: 1 -->
<svg width="305pt" height="156pt"
 viewBox="0.00 0.00 305.00 156.00" xmlns="http://www.w3.org/2000/svg" xmlns:xlink="http://www.w3.org/1999/xlink">
<g id="graph0" class="graph" transform="scale(1 1) rotate(0) translate(4 152)">
<title>removeBadIonospheres</title>
<!-- Node1 -->
<g id="Node000001" class="node">
<title>Node1</title>
<g id="a_Node000001"><a xlink:href="ppp_8cpp.html#a3d11452be1ce2ea58117c7fd3ac9f981" target="_top" xlink:title="Remove ambiguity states from filter when they deemed old or bad This effectively reinitialises them o...">
<path fill="#fff0f0" stroke="red" stroke-width="2" d="M125.67,-74C125.67,-74 6.33,-74 6.33,-74 3.17,-74 0,-70.83 0,-67.67 0,-67.67 0,-61.33 0,-61.33 0,-58.17 3.17,-55 6.33,-55 6.33,-55 125.67,-55 125.67,-55 128.83,-55 132,-58.17 132,-61.33 132,-61.33 132,-67.67 132,-67.67 132,-70.83 128.83,-74 125.67,-74"/>
<text text-anchor="middle" x="66" y="-62" font-family="Helvetica,sans-Serif" font-size="10.00">removeBadIonospheres</text>
</a>
</g>
</g>
<!-- Node2 -->
<g id="Node000002" class="node">
<title>Node2</title>
<g id="a_Node000002"><a xlink:href="structKFState.html#aeca6e3874ad0c94607152d244016582f" target="_top" xlink:title="Returns the value and variance of a state within the kalman filter object.">
<path fill="#fff0f0" stroke="red" d="M284.17,-130C284.17,-130 180.83,-130 180.83,-130 177.67,-130 174.5,-126.83 174.5,-123.67 174.5,-123.67 174.5,-117.33 174.5,-117.33 174.5,-114.17 177.67,-111 180.83,-111 180.83,-111 284.17,-111 284.17,-111 287.33,-111 290.5,-114.17 290.5,-117.33 290.5,-117.33 290.5,-123.67 290.5,-123.67 290.5,-126.83 287.33,-130 284.17,-130"/>
<text text-anchor="middle" x="232.5" y="-118" font-family="Helvetica,sans-Serif" font-size="10.00">KFState::getKFValue</text>
</a>
</g>
</g>
<!-- Node1&#45;&gt;Node2 -->
<g id="edge1_Node000001_Node000002" class="edge">
<title>Node1&#45;&gt;Node2</title>
<g id="a_edge1_Node000001_Node000002"><a xlink:title=" ">
<path fill="none" stroke="#63b8ff" d="M112.21,-74.03C129.55,-80.06 149.58,-87.44 168,-93.5 181.95,-98.09 197.84,-102.6 210.23,-107.08"/>
<polygon fill="#63b8ff" stroke="#63b8ff" points="209.12,-110.4 219.71,-110.84 211.71,-103.9 209.12,-110.4"/>
</a>
</g>
</g>
<!-- Node1&#45;&gt;Node2 -->
<g id="edge9_Node000001_Node000002" class="edge">
<title>Node1&#45;&gt;Node2</title>
<g id="a_edge9_Node000001_Node000002"><a xlink:title=" ">
<path fill="none" stroke="#63b8ff" d="M77.22,-74.05C93.86,-84.09 128.11,-97.93 164.51,-110.26"/>
<polygon fill="#63b8ff" stroke="#63b8ff" points="163.72,-113.69 174.31,-113.53 165.93,-107.05 163.72,-113.69"/>
</a>
</g>
</g>
<!-- Node3 -->
<g id="Node000003" class="node">
<title>Node3</title>
<g id="a_Node000003"><a xlink:href="structACSConfig.html#acbb130e061ba4b7bf620e4fb68e1b794" target="_top" xlink:title="Set receiver options for a specific receiver using a hierarchy of sources.">
<path fill="#fff0f0" stroke="red" d="M290.67,-93C290.67,-93 174.33,-93 174.33,-93 171.17,-93 168,-89.83 168,-86.67 168,-86.67 168,-80.33 168,-80.33 168,-77.17 171.17,-74 174.33,-74 174.33,-74 290.67,-74 290.67,-74 293.83,-74 297,-77.17 297,-80.33 297,-80.33 297,-86.67 297,-86.67 297,-89.83 293.83,-93 290.67,-93"/>
<text text-anchor="middle" x="232.5" y="-81" font-family="Helvetica,sans-Serif" font-size="10.00">ACSConfig::getRecOpts</text>
</a>
</g>
</g>
<!-- Node1&#45;&gt;Node3 -->
<g id="edge3_Node000001_Node000003" class="edge">
<title>Node1&#45;&gt;Node3</title>
<g id="a_edge3_Node000001_Node000003"><a xlink:title=" ">
<path fill="none" stroke="#63b8ff" d="M132.01,-65.39C150.46,-67.23 170.11,-69.69 187.04,-72.29"/>
<polygon fill="#63b8ff" stroke="#63b8ff" points="186.76,-75.79 197.19,-73.93 187.88,-68.88 186.76,-75.79"/>
</a>
</g>
</g>
<!-- Node1&#45;&gt;Node3 -->
<g id="edge7_Node000001_Node000003" class="edge">
<title>Node1&#45;&gt;Node3</title>
<g id="a_edge7_Node000001_Node000003"><a xlink:title=" ">
<path fill="none" stroke="#63b8ff" d="M101.08,-74.03C117.59,-76.84 138.09,-79.58 157.91,-81.72"/>
<polygon fill="#63b8ff" stroke="#63b8ff" points="157.57,-85.2 167.87,-82.74 158.28,-78.24 157.57,-85.2"/>
</a>
</g>
</g>
<!-- Node19 -->
<g id="Node000019" class="node">
<title>Node19</title>
<g id="a_Node000019"><a xlink:href="structKFState.html#ad64649e053946581c4ef20dc70b5fa16" target="_top" xlink:title="Remove a state from a kalman filter object.">
<path fill="#fff0f0" stroke="red" d="M287.67,-56C287.67,-56 177.33,-56 177.33,-56 174.17,-56 171,-52.83 171,-49.67 171,-49.67 171,-43.33 171,-43.33 171,-40.17 174.17,-37 177.33,-37 177.33,-37 287.67,-37 287.67,-37 290.83,-37 294,-40.17 294,-43.33 294,-43.33 294,-49.67 294,-49.67 294,-52.83 290.83,-56 287.67,-56"/>
<text text-anchor="middle" x="232.5" y="-44" font-family="Helvetica,sans-Serif" font-size="10.00">KFState::removeState</text>
</a>
</g>
</g>
<!-- Node1&#45;&gt;Node19 -->
<g id="edge4_Node000001_Node000019" class="edge">
<title>Node1&#45;&gt;Node19</title>
<g id="a_edge4_Node000001_Node000019"><a xlink:title=" ">
<path fill="none" stroke="#63b8ff" d="M102.29,-54.98C119.33,-52.22 140.41,-49.57 160.57,-47.57"/>
<polygon fill="#63b8ff" stroke="#63b8ff" points="161.06,-51.04 170.69,-46.61 160.4,-44.07 161.06,-51.04"/>
</a>
</g>
</g>
<!-- Node1&#45;&gt;Node19 -->
<g id="edge6_Node000001_Node000019" class="edge">
<title>Node1&#45;&gt;Node19</title>
<g id="a_edge6_Node000001_Node000019"><a xlink:title=" ">
<path fill="none" stroke="#63b8ff" d="M132.01,-64C150.16,-62.3 169.48,-60.02 186.22,-57.56"/>
<polygon fill="#63b8ff" stroke="#63b8ff" points="186.92,-60.99 196.27,-56.01 185.86,-54.07 186.92,-60.99"/>
</a>
</g>
</g>
<!-- Node20 -->
<g id="Node000020" class="node">
<title>Node20</title>
<g id="a_Node000020"><a xlink:href="structGTime.html#aaa8a379d11cd6c040a6bbe680c0e913e" target="_top" xlink:title="Uninitialised time for comparisons.">
<path fill="#fff0f0" stroke="red" d="M272.17,-19C272.17,-19 192.83,-19 192.83,-19 189.67,-19 186.5,-15.83 186.5,-12.67 186.5,-12.67 186.5,-6.33 186.5,-6.33 186.5,-3.17 189.67,0 192.83,0 192.83,0 272.17,0 272.17,0 275.33,0 278.5,-3.17 278.5,-6.33 278.5,-6.33 278.5,-12.67 278.5,-12.67 278.5,-15.83 275.33,-19 272.17,-19"/>
<text text-anchor="middle" x="232.5" y="-7" font-family="Helvetica,sans-Serif" font-size="10.00">GTime::noTime</text>
</a>
</g>
</g>
<!-- Node1&#45;&gt;Node20 -->
<g id="edge5_Node000001_Node000020" class="edge">
<title>Node1&#45;&gt;Node20</title>
<g id="a_edge5_Node000001_Node000020"><a xlink:title=" ">
<path fill="none" stroke="#63b8ff" d="M77.85,-54.93C96.28,-44.55 134.92,-30.34 168,-19.5 170.77,-18.59 173.61,-17.68 176.48,-16.78"/>
<polygon fill="#63b8ff" stroke="#63b8ff" points="177.76,-20.05 186.31,-13.79 175.73,-13.35 177.76,-20.05"/>
</a>
</g>
</g>
<!-- Node1&#45;&gt;Node20 -->
<g id="edge8_Node000001_Node000020" class="edge">
<title>Node1&#45;&gt;Node20</title>
<g id="a_edge8_Node000001_Node000020"><a xlink:title=" ">
<path fill="none" stroke="#63b8ff" d="M116.14,-54.94C132.57,-49.52 151.02,-43.06 168,-37.5 182.35,-32.8 198.68,-27.92 211.18,-23.08"/>
<polygon fill="#63b8ff" stroke="#63b8ff" points="212.85,-26.17 220.66,-19.01 210.09,-19.74 212.85,-26.17"/>
</a>
</g>
</g>
<!-- Node2&#45;&gt;Node2 -->
<g id="edge2_Node000002_Node000002" class="edge">
<title>Node2&#45;&gt;Node2</title>
<g id="a_edge2_Node000002_Node000002"><a xlink:title=" ">
<path fill="none" stroke="#63b8ff" d="M206.91,-130.08C194.47,-138.73 203,-148 232.5,-148 251.86,-148 262.19,-144.01 263.49,-138.82"/>
<polygon fill="#63b8ff" stroke="#63b8ff" points="266.32,-136.75 258.09,-130.08 260.37,-140.43 266.32,-136.75"/>
</a>
</g>
</g>
</g>
</svg>
