<?xml version="1.0" encoding="UTF-8" standalone="no"?>
<!DOCTYPE svg PUBLIC "-//W3C//DTD SVG 1.1//EN"
 "http://www.w3.org/Graphics/SVG/1.1/DTD/svg11.dtd">
<!-- Generated by graphviz version 2.43.0 (0)
 -->
<!-- Title: orbitGlitchReaction Pages: 1 -->
<svg width="324pt" height="64pt"
 viewBox="0.00 0.00 324.00 64.00" xmlns="http://www.w3.org/2000/svg" xmlns:xlink="http://www.w3.org/1999/xlink">
<g id="graph0" class="graph" transform="scale(1 1) rotate(0) translate(4 60)">
<title>orbitGlitchReaction</title>
<!-- Node1 -->
<g id="Node000001" class="node">
<title>Node1</title>
<g id="a_Node000001"><a xlink:href="ppp__callbacks_8cpp.html#a7cfa90aea5f0628c57a71537e9e365c8" target="_top" xlink:title="Remove any states connected to a bad clock if it glitches.">
<path fill="#fff0f0" stroke="red" stroke-width="2" d="M103.67,-37C103.67,-37 6.33,-37 6.33,-37 3.17,-37 0,-33.83 0,-30.67 0,-30.67 0,-24.33 0,-24.33 0,-21.17 3.17,-18 6.33,-18 6.33,-18 103.67,-18 103.67,-18 106.83,-18 110,-21.17 110,-24.33 110,-24.33 110,-30.67 110,-30.67 110,-33.83 106.83,-37 103.67,-37"/>
<text text-anchor="middle" x="55" y="-25" font-family="Helvetica,sans-Serif" font-size="10.00">orbitGlitchReaction</text>
</a>
</g>
</g>
<!-- Node2 -->
<g id="Node000002" class="node">
<title>Node2</title>
<g id="a_Node000002"><a xlink:href="structKFState.html#aece25f1cafe5d3b85dc07f6ec1f57196" target="_top" xlink:title=" ">
<path fill="#fff0f0" stroke="red" d="M305.17,-56C305.17,-56 156.83,-56 156.83,-56 153.67,-56 150.5,-52.83 150.5,-49.67 150.5,-49.67 150.5,-43.33 150.5,-43.33 150.5,-40.17 153.67,-37 156.83,-37 156.83,-37 305.17,-37 305.17,-37 308.33,-37 311.5,-40.17 311.5,-43.33 311.5,-43.33 311.5,-49.67 311.5,-49.67 311.5,-52.83 308.33,-56 305.17,-56"/>
<text text-anchor="middle" x="231" y="-44" font-family="Helvetica,sans-Serif" font-size="10.00">KFState::setExponentialNoise</text>
</a>
</g>
</g>
<!-- Node1&#45;&gt;Node2 -->
<g id="edge1_Node000001_Node000002" class="edge">
<title>Node1&#45;&gt;Node2</title>
<g id="a_edge1_Node000001_Node000002"><a xlink:title=" ">
<path fill="none" stroke="#63b8ff" d="M110.1,-33.41C119.68,-34.45 129.88,-35.57 140.13,-36.69"/>
<polygon fill="#63b8ff" stroke="#63b8ff" points="140.06,-40.2 150.38,-37.81 140.82,-33.24 140.06,-40.2"/>
</a>
</g>
</g>
<!-- Node3 -->
<g id="Node000003" class="node">
<title>Node3</title>
<g id="a_Node000003"><a xlink:href="structKFState.html#a35b82ca74c6a6795abf1b6e919a4fec1" target="_top" xlink:title="Add process noise and dynamics to filter object manually.">
<path fill="#fff0f0" stroke="red" d="M309.67,-19C309.67,-19 152.33,-19 152.33,-19 149.17,-19 146,-15.83 146,-12.67 146,-12.67 146,-6.33 146,-6.33 146,-3.17 149.17,0 152.33,0 152.33,0 309.67,0 309.67,0 312.83,0 316,-3.17 316,-6.33 316,-6.33 316,-12.67 316,-12.67 316,-15.83 312.83,-19 309.67,-19"/>
<text text-anchor="middle" x="231" y="-7" font-family="Helvetica,sans-Serif" font-size="10.00">KFState::manualStateTransition</text>
</a>
</g>
</g>
<!-- Node1&#45;&gt;Node3 -->
<g id="edge2_Node000001_Node000003" class="edge">
<title>Node1&#45;&gt;Node3</title>
<g id="a_edge2_Node000001_Node000003"><a xlink:title=" ">
<path fill="none" stroke="#63b8ff" d="M110.1,-21.9C118.36,-21.05 127.09,-20.15 135.92,-19.23"/>
<polygon fill="#63b8ff" stroke="#63b8ff" points="136.32,-22.71 145.9,-18.2 135.6,-15.75 136.32,-22.71"/>
</a>
</g>
</g>
</g>
</svg>
