<?xml version="1.0" encoding="UTF-8" standalone="no"?>
<!DOCTYPE svg PUBLIC "-//W3C//DTD SVG 1.1//EN"
 "http://www.w3.org/Graphics/SVG/1.1/DTD/svg11.dtd">
<!-- Generated by graphviz version 2.43.0 (0)
 -->
<!-- Title: slrReflectorPCO Pages: 1 -->
<svg width="238pt" height="101pt"
 viewBox="0.00 0.00 238.00 101.00" xmlns="http://www.w3.org/2000/svg" xmlns:xlink="http://www.w3.org/1999/xlink">
<g id="graph0" class="graph" transform="scale(1 1) rotate(0) translate(4 97)">
<title>slrReflectorPCO</title>
<!-- Node1 -->
<g id="Node000001" class="node">
<title>Node1</title>
<g id="a_Node000001"><a xlink:href="ppp__slr_8cpp.html#a1fdffb9e4c2fa18a330834a9c55116ad" target="_top" xlink:title="Satellite retroreflector delta from CoM.">
<path fill="#fff0f0" stroke="red" stroke-width="2" d="M85.67,-56C85.67,-56 6.33,-56 6.33,-56 3.17,-56 0,-52.83 0,-49.67 0,-49.67 0,-43.33 0,-43.33 0,-40.17 3.17,-37 6.33,-37 6.33,-37 85.67,-37 85.67,-37 88.83,-37 92,-40.17 92,-43.33 92,-43.33 92,-49.67 92,-49.67 92,-52.83 88.83,-56 85.67,-56"/>
<text text-anchor="middle" x="46" y="-44" font-family="Helvetica,sans-Serif" font-size="10.00">slrReflectorPCO</text>
</a>
</g>
</g>
<!-- Node2 -->
<g id="Node000002" class="node">
<title>Node2</title>
<g id="a_Node000002"><a xlink:href="slrCom_8cpp.html#a5a02d80161a35a795bf71d867dc34158" target="_top" xlink:title="Check if sat is spherical (i.e.">
<path fill="#fff0f0" stroke="red" d="M207.67,-93C207.67,-93 150.33,-93 150.33,-93 147.17,-93 144,-89.83 144,-86.67 144,-86.67 144,-80.33 144,-80.33 144,-77.17 147.17,-74 150.33,-74 150.33,-74 207.67,-74 207.67,-74 210.83,-74 214,-77.17 214,-80.33 214,-80.33 214,-86.67 214,-86.67 214,-89.83 210.83,-93 207.67,-93"/>
<text text-anchor="middle" x="179" y="-81" font-family="Helvetica,sans-Serif" font-size="10.00">isSpherical</text>
</a>
</g>
</g>
<!-- Node1&#45;&gt;Node2 -->
<g id="edge1_Node000001_Node000002" class="edge">
<title>Node1&#45;&gt;Node2</title>
<g id="a_edge1_Node000001_Node000002"><a xlink:title=" ">
<path fill="none" stroke="#63b8ff" d="M80.74,-56.03C96.96,-60.61 116.61,-66.16 133.99,-71.07"/>
<polygon fill="#63b8ff" stroke="#63b8ff" points="133.35,-74.53 143.92,-73.88 135.25,-67.79 133.35,-74.53"/>
</a>
</g>
</g>
<!-- Node4 -->
<g id="Node000004" class="node">
<title>Node4</title>
<g id="a_Node000004"><a xlink:href="slrCom_8cpp.html#abf53241592f284ba21a5a81847d734d6" target="_top" xlink:title="Center of mass to laser retroreflector array offset for spherical satellites.">
<path fill="#fff0f0" stroke="red" d="M223.67,-56C223.67,-56 134.33,-56 134.33,-56 131.17,-56 128,-52.83 128,-49.67 128,-49.67 128,-43.33 128,-43.33 128,-40.17 131.17,-37 134.33,-37 134.33,-37 223.67,-37 223.67,-37 226.83,-37 230,-40.17 230,-43.33 230,-43.33 230,-49.67 230,-49.67 230,-52.83 226.83,-56 223.67,-56"/>
<text text-anchor="middle" x="179" y="-44" font-family="Helvetica,sans-Serif" font-size="10.00">satComOffSphere</text>
</a>
</g>
</g>
<!-- Node1&#45;&gt;Node4 -->
<g id="edge2_Node000001_Node000004" class="edge">
<title>Node1&#45;&gt;Node4</title>
<g id="a_edge2_Node000001_Node000004"><a xlink:title=" ">
<path fill="none" stroke="#63b8ff" d="M92.08,-46.5C100.38,-46.5 109.17,-46.5 117.82,-46.5"/>
<polygon fill="#63b8ff" stroke="#63b8ff" points="117.9,-50 127.9,-46.5 117.9,-43 117.9,-50"/>
</a>
</g>
</g>
<!-- Node5 -->
<g id="Node000005" class="node">
<title>Node5</title>
<g id="a_Node000005"><a xlink:href="slrCom_8cpp.html#ae1e900be3fbab7e36528208cfd3d451e" target="_top" xlink:title="Center of mass to laser retroreflector array offset for GNSS satellites.">
<path fill="#fff0f0" stroke="red" d="M218.67,-19C218.67,-19 139.33,-19 139.33,-19 136.17,-19 133,-15.83 133,-12.67 133,-12.67 133,-6.33 133,-6.33 133,-3.17 136.17,0 139.33,0 139.33,0 218.67,0 218.67,0 221.83,0 225,-3.17 225,-6.33 225,-6.33 225,-12.67 225,-12.67 225,-15.83 221.83,-19 218.67,-19"/>
<text text-anchor="middle" x="179" y="-7" font-family="Helvetica,sans-Serif" font-size="10.00">satComOffGnss</text>
</a>
</g>
</g>
<!-- Node1&#45;&gt;Node5 -->
<g id="edge3_Node000001_Node000005" class="edge">
<title>Node1&#45;&gt;Node5</title>
<g id="a_edge3_Node000001_Node000005"><a xlink:title=" ">
<path fill="none" stroke="#63b8ff" d="M80.74,-36.97C96.96,-32.39 116.61,-26.84 133.99,-21.93"/>
<polygon fill="#63b8ff" stroke="#63b8ff" points="135.25,-25.21 143.92,-19.12 133.35,-18.47 135.25,-25.21"/>
</a>
</g>
</g>
</g>
</svg>
