<?xml version="1.0" encoding="UTF-8" standalone="no"?>
<!DOCTYPE svg PUBLIC "-//W3C//DTD SVG 1.1//EN"
 "http://www.w3.org/Graphics/SVG/1.1/DTD/svg11.dtd">
<!-- Generated by graphviz version 2.43.0 (0)
 -->
<!-- Title: ionoModel Pages: 1 -->
<svg width="234pt" height="138pt"
 viewBox="0.00 0.00 234.00 138.00" xmlns="http://www.w3.org/2000/svg" xmlns:xlink="http://www.w3.org/1999/xlink">
<g id="graph0" class="graph" transform="scale(1 1) rotate(0) translate(4 134)">
<title>ionoModel</title>
<!-- Node1 -->
<g id="Node000001" class="node">
<title>Node1</title>
<g id="a_Node000001"><a xlink:href="ionModels_8cpp.html#a40543623e2cbff738c3ce74aeda214fd" target="_top" xlink:title="ionospheric model">
<path fill="#fff0f0" stroke="red" stroke-width="2" d="M219.67,-74C219.67,-74 164.33,-74 164.33,-74 161.17,-74 158,-70.83 158,-67.67 158,-67.67 158,-61.33 158,-61.33 158,-58.17 161.17,-55 164.33,-55 164.33,-55 219.67,-55 219.67,-55 222.83,-55 226,-58.17 226,-61.33 226,-61.33 226,-67.67 226,-67.67 226,-70.83 222.83,-74 219.67,-74"/>
<text text-anchor="middle" x="192" y="-62" font-family="Helvetica,sans-Serif" font-size="10.00">ionoModel</text>
</a>
</g>
</g>
<!-- Node2 -->
<g id="Node000002" class="node">
<title>Node2</title>
<g id="a_Node000002"><a xlink:href="ppp__obs_8cpp.html#ab66e7f23685cc880df231fefd1262ecf" target="_top" xlink:title=" ">
<path fill="#fff0f0" stroke="red" d="M90.17,-130C90.17,-130 31.83,-130 31.83,-130 28.67,-130 25.5,-126.83 25.5,-123.67 25.5,-123.67 25.5,-117.33 25.5,-117.33 25.5,-114.17 28.67,-111 31.83,-111 31.83,-111 90.17,-111 90.17,-111 93.33,-111 96.5,-114.17 96.5,-117.33 96.5,-117.33 96.5,-123.67 96.5,-123.67 96.5,-126.83 93.33,-130 90.17,-130"/>
<text text-anchor="middle" x="61" y="-118" font-family="Helvetica,sans-Serif" font-size="10.00">pppIonStec</text>
</a>
</g>
</g>
<!-- Node1&#45;&gt;Node2 -->
<g id="edge1_Node000001_Node000002" class="edge">
<title>Node1&#45;&gt;Node2</title>
<g id="a_edge1_Node000001_Node000002"><a xlink:title=" ">
<path fill="none" stroke="#63b8ff" d="M167.08,-79.32C154.08,-86.95 137.52,-95.98 122,-102.5 113.98,-105.87 105.11,-108.89 96.71,-111.45"/>
<polygon fill="#63b8ff" stroke="#63b8ff" points="169.06,-82.21 175.85,-74.07 165.47,-76.2 169.06,-82.21"/>
</a>
</g>
</g>
<!-- Node8 -->
<g id="Node000008" class="node">
<title>Node8</title>
<g id="a_Node000008"><a xlink:href="ppp__obs_8cpp.html#a3bc4dbb68206e34e80cd87d918ddc883" target="_top" xlink:title="2nd order ionospheric correction See ref [1]">
<path fill="#fff0f0" stroke="red" d="M93.17,-93C93.17,-93 28.83,-93 28.83,-93 25.67,-93 22.5,-89.83 22.5,-86.67 22.5,-86.67 22.5,-80.33 22.5,-80.33 22.5,-77.17 25.67,-74 28.83,-74 28.83,-74 93.17,-74 93.17,-74 96.33,-74 99.5,-77.17 99.5,-80.33 99.5,-80.33 99.5,-86.67 99.5,-86.67 99.5,-89.83 96.33,-93 93.17,-93"/>
<text text-anchor="middle" x="61" y="-81" font-family="Helvetica,sans-Serif" font-size="10.00">pppIonStec2</text>
</a>
</g>
</g>
<!-- Node1&#45;&gt;Node8 -->
<g id="edge2_Node000001_Node000008" class="edge">
<title>Node1&#45;&gt;Node8</title>
<g id="a_edge2_Node000001_Node000008"><a xlink:title=" ">
<path fill="none" stroke="#63b8ff" d="M147.84,-70.86C132.24,-73.15 114.76,-75.73 99.67,-77.95"/>
<polygon fill="#63b8ff" stroke="#63b8ff" points="148.4,-74.31 157.78,-69.39 147.38,-67.39 148.4,-74.31"/>
</a>
</g>
</g>
<!-- Node9 -->
<g id="Node000009" class="node">
<title>Node9</title>
<g id="a_Node000009"><a xlink:href="ppp__obs_8cpp.html#aa5decb7796b7a6c3b6edb2160eba9887" target="_top" xlink:title="3rd order ionospheric correction See ref [1]">
<path fill="#fff0f0" stroke="red" d="M93.17,-56C93.17,-56 28.83,-56 28.83,-56 25.67,-56 22.5,-52.83 22.5,-49.67 22.5,-49.67 22.5,-43.33 22.5,-43.33 22.5,-40.17 25.67,-37 28.83,-37 28.83,-37 93.17,-37 93.17,-37 96.33,-37 99.5,-40.17 99.5,-43.33 99.5,-43.33 99.5,-49.67 99.5,-49.67 99.5,-52.83 96.33,-56 93.17,-56"/>
<text text-anchor="middle" x="61" y="-44" font-family="Helvetica,sans-Serif" font-size="10.00">pppIonStec3</text>
</a>
</g>
</g>
<!-- Node1&#45;&gt;Node9 -->
<g id="edge3_Node000001_Node000009" class="edge">
<title>Node1&#45;&gt;Node9</title>
<g id="a_edge3_Node000001_Node000009"><a xlink:title=" ">
<path fill="none" stroke="#63b8ff" d="M147.84,-58.48C132.24,-56.3 114.76,-53.86 99.67,-51.76"/>
<polygon fill="#63b8ff" stroke="#63b8ff" points="147.39,-61.95 157.78,-59.86 148.36,-55.02 147.39,-61.95"/>
</a>
</g>
</g>
<!-- Node10 -->
<g id="Node000010" class="node">
<title>Node10</title>
<g id="a_Node000010"><a xlink:href="ppppp_8cpp.html#a45f0cda97e5e3cff2eeb13b2cea9562f" target="_top" xlink:title="Prepare stec values clocks to minimise residuals to klobuchar model.">
<path fill="#fff0f0" stroke="red" d="M115.67,-19C115.67,-19 6.33,-19 6.33,-19 3.17,-19 0,-15.83 0,-12.67 0,-12.67 0,-6.33 0,-6.33 0,-3.17 3.17,0 6.33,0 6.33,0 115.67,0 115.67,0 118.83,0 122,-3.17 122,-6.33 122,-6.33 122,-12.67 122,-12.67 122,-15.83 118.83,-19 115.67,-19"/>
<text text-anchor="middle" x="61" y="-7" font-family="Helvetica,sans-Serif" font-size="10.00">updateAvgIonosphere</text>
</a>
</g>
</g>
<!-- Node1&#45;&gt;Node10 -->
<g id="edge4_Node000001_Node000010" class="edge">
<title>Node1&#45;&gt;Node10</title>
<g id="a_edge4_Node000001_Node000010"><a xlink:title=" ">
<path fill="none" stroke="#63b8ff" d="M165.91,-50.06C153.04,-43.01 136.96,-34.72 122,-28.5 113.63,-25.02 104.37,-21.8 95.69,-19.04"/>
<polygon fill="#63b8ff" stroke="#63b8ff" points="164.22,-53.13 174.66,-54.94 167.63,-47.01 164.22,-53.13"/>
</a>
</g>
</g>
</g>
</svg>
