<?xml version="1.0" encoding="UTF-8" standalone="no"?>
<!DOCTYPE svg PUBLIC "-//W3C//DTD SVG 1.1//EN"
 "http://www.w3.org/Graphics/SVG/1.1/DTD/svg11.dtd">
<!-- Generated by graphviz version 2.43.0 (0)
 -->
<!-- Title: selectAprioriSource Pages: 1 -->
<svg width="284pt" height="193pt"
 viewBox="0.00 0.00 284.00 193.00" xmlns="http://www.w3.org/2000/svg" xmlns:xlink="http://www.w3.org/1999/xlink">
<g id="graph0" class="graph" transform="scale(1 1) rotate(0) translate(4 189)">
<title>selectAprioriSource</title>
<!-- Node1 -->
<g id="Node000001" class="node">
<title>Node1</title>
<g id="a_Node000001"><a xlink:href="ppp_8cpp.html#a147ea2bf0bd356bafdb785a868364b5f" target="_top" xlink:title=" ">
<path fill="#fff0f0" stroke="red" stroke-width="2" d="M104.67,-111C104.67,-111 6.33,-111 6.33,-111 3.17,-111 0,-107.83 0,-104.67 0,-104.67 0,-98.33 0,-98.33 0,-95.17 3.17,-92 6.33,-92 6.33,-92 104.67,-92 104.67,-92 107.83,-92 111,-95.17 111,-98.33 111,-98.33 111,-104.67 111,-104.67 111,-107.83 107.83,-111 104.67,-111"/>
<text text-anchor="middle" x="55.5" y="-99" font-family="Helvetica,sans-Serif" font-size="10.00">selectAprioriSource</text>
</a>
</g>
</g>
<!-- Node2 -->
<g id="Node000002" class="node">
<title>Node2</title>
<g id="a_Node000002"><a xlink:href="structACSConfig.html#acbb130e061ba4b7bf620e4fb68e1b794" target="_top" xlink:title="Set receiver options for a specific receiver using a hierarchy of sources.">
<path fill="#fff0f0" stroke="red" d="M269.67,-185C269.67,-185 153.33,-185 153.33,-185 150.17,-185 147,-181.83 147,-178.67 147,-178.67 147,-172.33 147,-172.33 147,-169.17 150.17,-166 153.33,-166 153.33,-166 269.67,-166 269.67,-166 272.83,-166 276,-169.17 276,-172.33 276,-172.33 276,-178.67 276,-178.67 276,-181.83 272.83,-185 269.67,-185"/>
<text text-anchor="middle" x="211.5" y="-173" font-family="Helvetica,sans-Serif" font-size="10.00">ACSConfig::getRecOpts</text>
</a>
</g>
</g>
<!-- Node1&#45;&gt;Node2 -->
<g id="edge1_Node000001_Node000002" class="edge">
<title>Node1&#45;&gt;Node2</title>
<g id="a_edge1_Node000001_Node000002"><a xlink:title=" ">
<path fill="none" stroke="#63b8ff" d="M69.35,-111.06C86.35,-123.32 117.58,-144.53 147,-157.5 151.36,-159.42 155.97,-161.19 160.65,-162.81"/>
<polygon fill="#63b8ff" stroke="#63b8ff" points="159.68,-166.18 170.27,-165.93 161.83,-159.52 159.68,-166.18"/>
</a>
</g>
</g>
<!-- Node19 -->
<g id="Node000019" class="node">
<title>Node19</title>
<g id="a_Node000019"><a xlink:href="structKFState.html#aeca6e3874ad0c94607152d244016582f" target="_top" xlink:title="Returns the value and variance of a state within the kalman filter object.">
<path fill="#fff0f0" stroke="red" d="M263.17,-130C263.17,-130 159.83,-130 159.83,-130 156.67,-130 153.5,-126.83 153.5,-123.67 153.5,-123.67 153.5,-117.33 153.5,-117.33 153.5,-114.17 156.67,-111 159.83,-111 159.83,-111 263.17,-111 263.17,-111 266.33,-111 269.5,-114.17 269.5,-117.33 269.5,-117.33 269.5,-123.67 269.5,-123.67 269.5,-126.83 266.33,-130 263.17,-130"/>
<text text-anchor="middle" x="211.5" y="-118" font-family="Helvetica,sans-Serif" font-size="10.00">KFState::getKFValue</text>
</a>
</g>
</g>
<!-- Node1&#45;&gt;Node19 -->
<g id="edge2_Node000001_Node000019" class="edge">
<title>Node1&#45;&gt;Node19</title>
<g id="a_edge2_Node000001_Node000019"><a xlink:title=" ">
<path fill="none" stroke="#63b8ff" d="M111.23,-101.76C130.02,-103.63 150.74,-106.32 168.38,-109.21"/>
<polygon fill="#63b8ff" stroke="#63b8ff" points="167.91,-112.68 178.36,-110.93 169.1,-105.78 167.91,-112.68"/>
</a>
</g>
</g>
<!-- Node1&#45;&gt;Node19 -->
<g id="edge5_Node000001_Node000019" class="edge">
<title>Node1&#45;&gt;Node19</title>
<g id="a_edge5_Node000001_Node000019"><a xlink:title=" ">
<path fill="none" stroke="#63b8ff" d="M88.41,-111.03C104.32,-113.92 124.19,-116.74 143.25,-118.9"/>
<polygon fill="#63b8ff" stroke="#63b8ff" points="143.1,-122.41 153.42,-120 143.85,-115.45 143.1,-122.41"/>
</a>
</g>
</g>
<!-- Node20 -->
<g id="Node000020" class="node">
<title>Node20</title>
<g id="a_Node000020"><a xlink:href="ephPrecise_8cpp.html#a7152f02ef77017fa75612ac13eeda408" target="_top" xlink:title="clock by precise clock">
<path fill="#fff0f0" stroke="red" d="M232.67,-93C232.67,-93 190.33,-93 190.33,-93 187.17,-93 184,-89.83 184,-86.67 184,-86.67 184,-80.33 184,-80.33 184,-77.17 187.17,-74 190.33,-74 190.33,-74 232.67,-74 232.67,-74 235.83,-74 239,-77.17 239,-80.33 239,-80.33 239,-86.67 239,-86.67 239,-89.83 235.83,-93 232.67,-93"/>
<text text-anchor="middle" x="211.5" y="-81" font-family="Helvetica,sans-Serif" font-size="10.00">pephclk</text>
</a>
</g>
</g>
<!-- Node1&#45;&gt;Node20 -->
<g id="edge4_Node000001_Node000020" class="edge">
<title>Node1&#45;&gt;Node20</title>
<g id="a_edge4_Node000001_Node000020"><a xlink:title=" ">
<path fill="none" stroke="#63b8ff" d="M111.23,-95.1C131.85,-92.69 154.8,-90.01 173.44,-87.83"/>
<polygon fill="#63b8ff" stroke="#63b8ff" points="174.06,-91.28 183.58,-86.65 173.24,-84.33 174.06,-91.28"/>
</a>
</g>
</g>
<!-- Node23 -->
<g id="Node000023" class="node">
<title>Node23</title>
<g id="a_Node000023"><a xlink:href="utils_8cpp.html#ae91d83cf693cdc7e1efacbe4d8d9656e" target="_top" xlink:title=" ">
<path fill="#fff0f0" stroke="red" d="M235.67,-56C235.67,-56 187.33,-56 187.33,-56 184.17,-56 181,-52.83 181,-49.67 181,-49.67 181,-43.33 181,-43.33 181,-40.17 184.17,-37 187.33,-37 187.33,-37 235.67,-37 235.67,-37 238.83,-37 242,-40.17 242,-43.33 242,-43.33 242,-49.67 242,-49.67 242,-52.83 238.83,-56 235.67,-56"/>
<text text-anchor="middle" x="211.5" y="-44" font-family="Helvetica,sans-Serif" font-size="10.00">ecef2pos</text>
</a>
</g>
</g>
<!-- Node1&#45;&gt;Node23 -->
<g id="edge6_Node000001_Node000023" class="edge">
<title>Node1&#45;&gt;Node23</title>
<g id="a_edge6_Node000001_Node000023"><a xlink:title=" ">
<path fill="none" stroke="#63b8ff" d="M78.98,-91.92C97.17,-84.32 123.52,-73.66 147,-65.5 154.8,-62.79 163.23,-60.1 171.31,-57.64"/>
<polygon fill="#63b8ff" stroke="#63b8ff" points="172.35,-60.98 180.93,-54.76 170.34,-54.27 172.35,-60.98"/>
</a>
</g>
</g>
<!-- Node24 -->
<g id="Node000024" class="node">
<title>Node24</title>
<g id="a_Node000024"><a xlink:href="coordinates_8cpp.html#a8473fa1efe21e24084f708ed9e9df38e" target="_top" xlink:title=" ">
<path fill="#fff0f0" stroke="red" d="M234.17,-19C234.17,-19 188.83,-19 188.83,-19 185.67,-19 182.5,-15.83 182.5,-12.67 182.5,-12.67 182.5,-6.33 182.5,-6.33 182.5,-3.17 185.67,0 188.83,0 188.83,0 234.17,0 234.17,0 237.33,0 240.5,-3.17 240.5,-6.33 240.5,-6.33 240.5,-12.67 240.5,-12.67 240.5,-15.83 237.33,-19 234.17,-19"/>
<text text-anchor="middle" x="211.5" y="-7" font-family="Helvetica,sans-Serif" font-size="10.00">pos2enu</text>
</a>
</g>
</g>
<!-- Node1&#45;&gt;Node24 -->
<g id="edge7_Node000001_Node000024" class="edge">
<title>Node1&#45;&gt;Node24</title>
<g id="a_edge7_Node000001_Node000024"><a xlink:title=" ">
<path fill="none" stroke="#63b8ff" d="M66.15,-91.53C81.76,-75.95 114.14,-45.81 147,-28.5 154.99,-24.29 164.05,-20.88 172.77,-18.17"/>
<polygon fill="#63b8ff" stroke="#63b8ff" points="173.75,-21.53 182.39,-15.4 171.82,-14.8 173.75,-21.53"/>
</a>
</g>
</g>
<!-- Node19&#45;&gt;Node19 -->
<g id="edge3_Node000019_Node000019" class="edge">
<title>Node19&#45;&gt;Node19</title>
<g id="a_edge3_Node000019_Node000019"><a xlink:title=" ">
<path fill="none" stroke="#63b8ff" d="M187.46,-130.08C175.76,-138.73 183.77,-148 211.5,-148 229.7,-148 239.4,-144.01 240.62,-138.82"/>
<polygon fill="#63b8ff" stroke="#63b8ff" points="243.59,-136.97 235.54,-130.08 237.54,-140.49 243.59,-136.97"/>
</a>
</g>
</g>
</g>
</svg>
