<?xml version="1.0" encoding="UTF-8" standalone="no"?>
<!DOCTYPE svg PUBLIC "-//W3C//DTD SVG 1.1//EN"
 "http://www.w3.org/Graphics/SVG/1.1/DTD/svg11.dtd">
<!-- Generated by graphviz version 2.43.0 (0)
 -->
<!-- Title: pppPseudoObs Pages: 1 -->
<svg width="270pt" height="286pt"
 viewBox="0.00 0.00 270.00 286.00" xmlns="http://www.w3.org/2000/svg" xmlns:xlink="http://www.w3.org/1999/xlink">
<g id="graph0" class="graph" transform="scale(1 1) rotate(0) translate(4 282)">
<title>pppPseudoObs</title>
<!-- Node1 -->
<g id="Node000001" class="node">
<title>Node1</title>
<g id="a_Node000001"><a xlink:href="ppppp_8cpp.html#adee5cf8c5398c5f37f21bc6856e32f6e" target="_top" xlink:title=" ">
<path fill="#fff0f0" stroke="red" stroke-width="2" d="M82.67,-148C82.67,-148 6.33,-148 6.33,-148 3.17,-148 0,-144.83 0,-141.67 0,-141.67 0,-135.33 0,-135.33 0,-132.17 3.17,-129 6.33,-129 6.33,-129 82.67,-129 82.67,-129 85.83,-129 89,-132.17 89,-135.33 89,-135.33 89,-141.67 89,-141.67 89,-144.83 85.83,-148 82.67,-148"/>
<text text-anchor="middle" x="44.5" y="-136" font-family="Helvetica,sans-Serif" font-size="10.00">pppPseudoObs</text>
</a>
</g>
</g>
<!-- Node2 -->
<g id="Node000002" class="node">
<title>Node2</title>
<g id="a_Node000002"><a xlink:href="ppp__pseudoobs_8cpp.html#a89c2ced133f3d935edea1e0601d74876" target="_top" xlink:title=" ">
<polygon fill="#88ff88" stroke="#00aa00" points="259.5,-278 127.5,-278 127.5,-259 259.5,-259 259.5,-278"/>
<text text-anchor="middle" x="193.5" y="-266" font-family="Helvetica,sans-Serif" font-size="10.00">Pseudo_Observations__</text>
</a>
</g>
</g>
<!-- Node1&#45;&gt;Node2 -->
<g id="edge1_Node000001_Node000002" class="edge">
<title>Node1&#45;&gt;Node2</title>
<g id="a_edge1_Node000001_Node000002"><a xlink:title=" ">
<path fill="none" stroke="#63b8ff" d="M49.48,-148C59.08,-169.71 85.63,-223.16 125,-250.5 127.14,-251.98 129.39,-253.34 131.72,-254.59"/>
<polygon fill="#63b8ff" stroke="#63b8ff" points="130.5,-257.88 141.05,-258.88 133.42,-251.52 130.5,-257.88"/>
</a>
</g>
</g>
<!-- Node3 -->
<g id="Node000003" class="node">
<title>Node3</title>
<g id="a_Node000003"><a xlink:href="ppp__pseudoobs_8cpp.html#ae73c509527efa6401eb80a02825fb7fd" target="_top" xlink:title=" ">
<path fill="#fff0f0" stroke="red" d="M233.17,-241C233.17,-241 153.83,-241 153.83,-241 150.67,-241 147.5,-237.83 147.5,-234.67 147.5,-234.67 147.5,-228.33 147.5,-228.33 147.5,-225.17 150.67,-222 153.83,-222 153.83,-222 233.17,-222 233.17,-222 236.33,-222 239.5,-225.17 239.5,-228.33 239.5,-228.33 239.5,-234.67 239.5,-234.67 239.5,-237.83 236.33,-241 233.17,-241"/>
<text text-anchor="middle" x="193.5" y="-229" font-family="Helvetica,sans-Serif" font-size="10.00">ionoPseudoObs</text>
</a>
</g>
</g>
<!-- Node1&#45;&gt;Node3 -->
<g id="edge2_Node000001_Node000003" class="edge">
<title>Node1&#45;&gt;Node3</title>
<g id="a_edge2_Node000001_Node000003"><a xlink:title=" ">
<path fill="none" stroke="#63b8ff" d="M52.96,-148.14C65.87,-164.17 94.01,-196.23 125,-213.5 128.98,-215.72 133.25,-217.67 137.63,-219.4"/>
<polygon fill="#63b8ff" stroke="#63b8ff" points="136.75,-222.8 147.34,-222.8 139.07,-216.19 136.75,-222.8"/>
</a>
</g>
</g>
<!-- Node51 -->
<g id="Node000051" class="node">
<title>Node51</title>
<g id="a_Node000051"><a xlink:href="ppp__pseudoobs_8cpp.html#a0df461e27bceaa75ec50285c2abf8f27" target="_top" xlink:title=" ">
<path fill="#fff0f0" stroke="red" d="M232.17,-204C232.17,-204 154.83,-204 154.83,-204 151.67,-204 148.5,-200.83 148.5,-197.67 148.5,-197.67 148.5,-191.33 148.5,-191.33 148.5,-188.17 151.67,-185 154.83,-185 154.83,-185 232.17,-185 232.17,-185 235.33,-185 238.5,-188.17 238.5,-191.33 238.5,-191.33 238.5,-197.67 238.5,-197.67 238.5,-200.83 235.33,-204 232.17,-204"/>
<text text-anchor="middle" x="193.5" y="-192" font-family="Helvetica,sans-Serif" font-size="10.00">tropPseudoObs</text>
</a>
</g>
</g>
<!-- Node1&#45;&gt;Node51 -->
<g id="edge3_Node000001_Node000051" class="edge">
<title>Node1&#45;&gt;Node51</title>
<g id="a_edge3_Node000001_Node000051"><a xlink:title=" ">
<path fill="none" stroke="#63b8ff" d="M63.09,-148.07C78.93,-156.41 103.04,-168.4 125,-176.5 130.47,-178.52 136.26,-180.41 142.06,-182.15"/>
<polygon fill="#63b8ff" stroke="#63b8ff" points="141.21,-185.55 151.79,-184.95 143.14,-178.82 141.21,-185.55"/>
</a>
</g>
</g>
<!-- Node57 -->
<g id="Node000057" class="node">
<title>Node57</title>
<g id="a_Node000057"><a xlink:href="ppp__pseudoobs_8cpp.html#accfefc993178e71db6783bbe525342a7" target="_top" xlink:title=" ">
<path fill="#fff0f0" stroke="red" d="M231.67,-167C231.67,-167 155.33,-167 155.33,-167 152.17,-167 149,-163.83 149,-160.67 149,-160.67 149,-154.33 149,-154.33 149,-151.17 152.17,-148 155.33,-148 155.33,-148 231.67,-148 231.67,-148 234.83,-148 238,-151.17 238,-154.33 238,-154.33 238,-160.67 238,-160.67 238,-163.83 234.83,-167 231.67,-167"/>
<text text-anchor="middle" x="193.5" y="-155" font-family="Helvetica,sans-Serif" font-size="10.00">pseudoRecDcb</text>
</a>
</g>
</g>
<!-- Node1&#45;&gt;Node57 -->
<g id="edge4_Node000001_Node000057" class="edge">
<title>Node1&#45;&gt;Node57</title>
<g id="a_edge4_Node000001_Node000057"><a xlink:title=" ">
<path fill="none" stroke="#63b8ff" d="M89.21,-144.15C104.84,-146.17 122.63,-148.47 138.99,-150.58"/>
<polygon fill="#63b8ff" stroke="#63b8ff" points="138.6,-154.06 148.96,-151.87 139.49,-147.12 138.6,-154.06"/>
</a>
</g>
</g>
<!-- Node58 -->
<g id="Node000058" class="node">
<title>Node58</title>
<g id="a_Node000058"><a xlink:href="ppp__pseudoobs_8cpp.html#a02995a7f24f39419730eea3b664553cf" target="_top" xlink:title=" ">
<path fill="#fff0f0" stroke="red" d="M236.17,-130C236.17,-130 150.83,-130 150.83,-130 147.67,-130 144.5,-126.83 144.5,-123.67 144.5,-123.67 144.5,-117.33 144.5,-117.33 144.5,-114.17 147.67,-111 150.83,-111 150.83,-111 236.17,-111 236.17,-111 239.33,-111 242.5,-114.17 242.5,-117.33 242.5,-117.33 242.5,-123.67 242.5,-123.67 242.5,-126.83 239.33,-130 236.17,-130"/>
<text text-anchor="middle" x="193.5" y="-118" font-family="Helvetica,sans-Serif" font-size="10.00">ambgPseudoObs</text>
</a>
</g>
</g>
<!-- Node1&#45;&gt;Node58 -->
<g id="edge5_Node000001_Node000058" class="edge">
<title>Node1&#45;&gt;Node58</title>
<g id="a_edge5_Node000001_Node000058"><a xlink:title=" ">
<path fill="none" stroke="#63b8ff" d="M89.21,-133.15C103.3,-131.42 119.16,-129.48 134.14,-127.65"/>
<polygon fill="#63b8ff" stroke="#63b8ff" points="134.84,-131.09 144.34,-126.4 133.99,-124.14 134.84,-131.09"/>
</a>
</g>
</g>
<!-- Node59 -->
<g id="Node000059" class="node">
<title>Node59</title>
<g id="a_Node000059"><a xlink:href="ppp__pseudoobs_8cpp.html#a7d44bfc5636f42952bed064438699ba7" target="_top" xlink:title=" ">
<path fill="#fff0f0" stroke="red" d="M230.17,-93C230.17,-93 156.83,-93 156.83,-93 153.67,-93 150.5,-89.83 150.5,-86.67 150.5,-86.67 150.5,-80.33 150.5,-80.33 150.5,-77.17 153.67,-74 156.83,-74 156.83,-74 230.17,-74 230.17,-74 233.33,-74 236.5,-77.17 236.5,-80.33 236.5,-80.33 236.5,-86.67 236.5,-86.67 236.5,-89.83 233.33,-93 230.17,-93"/>
<text text-anchor="middle" x="193.5" y="-81" font-family="Helvetica,sans-Serif" font-size="10.00">initPseudoObs</text>
</a>
</g>
</g>
<!-- Node1&#45;&gt;Node59 -->
<g id="edge6_Node000001_Node000059" class="edge">
<title>Node1&#45;&gt;Node59</title>
<g id="a_edge6_Node000001_Node000059"><a xlink:title=" ">
<path fill="none" stroke="#63b8ff" d="M64.44,-128.94C80.34,-121.16 103.79,-110.24 125,-102.5 131.38,-100.17 138.18,-97.96 144.92,-95.92"/>
<polygon fill="#63b8ff" stroke="#63b8ff" points="146.08,-99.23 154.69,-93.06 144.11,-92.51 146.08,-99.23"/>
</a>
</g>
</g>
<!-- Node70 -->
<g id="Node000070" class="node">
<title>Node70</title>
<g id="a_Node000070"><a xlink:href="ppp__pseudoobs_8cpp.html#a52383a80aee53c1d20ad7952dc63ce17" target="_top" xlink:title=" ">
<path fill="#fff0f0" stroke="red" d="M255.67,-56C255.67,-56 131.33,-56 131.33,-56 128.17,-56 125,-52.83 125,-49.67 125,-49.67 125,-43.33 125,-43.33 125,-40.17 128.17,-37 131.33,-37 131.33,-37 255.67,-37 255.67,-37 258.83,-37 262,-40.17 262,-43.33 262,-43.33 262,-49.67 262,-49.67 262,-52.83 258.83,-56 255.67,-56"/>
<text text-anchor="middle" x="193.5" y="-44" font-family="Helvetica,sans-Serif" font-size="10.00">satClockPivotPseudoObs</text>
</a>
</g>
</g>
<!-- Node1&#45;&gt;Node70 -->
<g id="edge7_Node000001_Node000070" class="edge">
<title>Node1&#45;&gt;Node70</title>
<g id="a_edge7_Node000001_Node000070"><a xlink:title=" ">
<path fill="none" stroke="#63b8ff" d="M53.25,-128.92C66.38,-113.32 94.56,-82.47 125,-65.5 129,-63.27 133.27,-61.29 137.66,-59.53"/>
<polygon fill="#63b8ff" stroke="#63b8ff" points="139.17,-62.7 147.39,-56.01 136.79,-56.12 139.17,-62.7"/>
</a>
</g>
</g>
<!-- Node71 -->
<g id="Node000071" class="node">
<title>Node71</title>
<g id="a_Node000071"><a xlink:href="ppp__pseudoobs_8cpp.html#a2851c6a4dfd04eb338a17257bfc2b865" target="_top" xlink:title=" ">
<path fill="#fff0f0" stroke="red" d="M233.67,-19C233.67,-19 153.33,-19 153.33,-19 150.17,-19 147,-15.83 147,-12.67 147,-12.67 147,-6.33 147,-6.33 147,-3.17 150.17,0 153.33,0 153.33,0 233.67,0 233.67,0 236.83,0 240,-3.17 240,-6.33 240,-6.33 240,-12.67 240,-12.67 240,-15.83 236.83,-19 233.67,-19"/>
<text text-anchor="middle" x="193.5" y="-7" font-family="Helvetica,sans-Serif" font-size="10.00">filterPseudoObs</text>
</a>
</g>
</g>
<!-- Node1&#45;&gt;Node71 -->
<g id="edge8_Node000001_Node000071" class="edge">
<title>Node1&#45;&gt;Node71</title>
<g id="a_edge8_Node000001_Node000071"><a xlink:title=" ">
<path fill="none" stroke="#63b8ff" d="M49.7,-128.89C59.57,-107.44 86.37,-55.48 125,-28.5 128.75,-25.88 132.85,-23.62 137.13,-21.67"/>
<polygon fill="#63b8ff" stroke="#63b8ff" points="138.68,-24.82 146.68,-17.88 136.09,-18.32 138.68,-24.82"/>
</a>
</g>
</g>
</g>
</svg>
