<?xml version="1.0" encoding="UTF-8" standalone="no"?>
<!DOCTYPE svg PUBLIC "-//W3C//DTD SVG 1.1//EN"
 "http://www.w3.org/Graphics/SVG/1.1/DTD/svg11.dtd">
<!-- Generated by graphviz version 2.43.0 (0)
 -->
<!-- Title: makeGFLCs Pages: 1 -->
<svg width="250pt" height="27pt"
 viewBox="0.00 0.00 250.00 27.00" xmlns="http://www.w3.org/2000/svg" xmlns:xlink="http://www.w3.org/1999/xlink">
<g id="graph0" class="graph" transform="scale(1 1) rotate(0) translate(4 23)">
<title>makeGFLCs</title>
<!-- Node1 -->
<g id="Node000001" class="node">
<title>Node1</title>
<g id="a_Node000001"><a xlink:href="ppppp_8cpp.html#a3f8b5e30b3c1bc3e22271d826c8f2a7d" target="_top" xlink:title="Replace individual measurements with linear combinations.">
<path fill="#fff0f0" stroke="red" stroke-width="2" d="M235.67,-19C235.67,-19 174.33,-19 174.33,-19 171.17,-19 168,-15.83 168,-12.67 168,-12.67 168,-6.33 168,-6.33 168,-3.17 171.17,0 174.33,0 174.33,0 235.67,0 235.67,0 238.83,0 242,-3.17 242,-6.33 242,-6.33 242,-12.67 242,-12.67 242,-15.83 238.83,-19 235.67,-19"/>
<text text-anchor="middle" x="205" y="-7" font-family="Helvetica,sans-Serif" font-size="10.00">makeGFLCs</text>
</a>
</g>
</g>
<!-- Node2 -->
<g id="Node000002" class="node">
<title>Node2</title>
<g id="a_Node000002"><a xlink:href="ppppp_8cpp.html#a472ab40be352ddb8dc211e3eda9795e5" target="_top" xlink:title=" ">
<path fill="#fff0f0" stroke="red" d="M125.67,-19C125.67,-19 6.33,-19 6.33,-19 3.17,-19 0,-15.83 0,-12.67 0,-12.67 0,-6.33 0,-6.33 0,-3.17 3.17,0 6.33,0 6.33,0 125.67,0 125.67,0 128.83,0 132,-3.17 132,-6.33 132,-6.33 132,-12.67 132,-12.67 132,-15.83 128.83,-19 125.67,-19"/>
<text text-anchor="middle" x="66" y="-7" font-family="Helvetica,sans-Serif" font-size="10.00">pppLinearCombinations</text>
</a>
</g>
</g>
<!-- Node1&#45;&gt;Node2 -->
<g id="edge1_Node000001_Node000002" class="edge">
<title>Node1&#45;&gt;Node2</title>
<g id="a_edge1_Node000001_Node000002"><a xlink:title=" ">
<path fill="none" stroke="#63b8ff" d="M157.57,-9.5C149.38,-9.5 140.73,-9.5 132.14,-9.5"/>
<polygon fill="#63b8ff" stroke="#63b8ff" points="157.65,-13 167.65,-9.5 157.65,-6 157.65,-13"/>
</a>
</g>
</g>
</g>
</svg>
