<?xml version="1.0" encoding="UTF-8" standalone="no"?>
<!DOCTYPE svg PUBLIC "-//W3C//DTD SVG 1.1//EN"
 "http://www.w3.org/Graphics/SVG/1.1/DTD/svg11.dtd">
<!-- Generated by graphviz version 2.43.0 (0)
 -->
<!-- Title: updatePseudoPulses Pages: 1 -->
<svg width="236pt" height="27pt"
 viewBox="0.00 0.00 236.00 27.00" xmlns="http://www.w3.org/2000/svg" xmlns:xlink="http://www.w3.org/1999/xlink">
<g id="graph0" class="graph" transform="scale(1 1) rotate(0) translate(4 23)">
<title>updatePseudoPulses</title>
<!-- Node1 -->
<g id="Node000001" class="node">
<title>Node1</title>
<g id="a_Node000001"><a xlink:href="ppppp_8cpp.html#a0c7e9127b8ac6b4b5f865d1220efe547" target="_top" xlink:title=" ">
<path fill="#fff0f0" stroke="red" stroke-width="2" d="M221.67,-19C221.67,-19 117.33,-19 117.33,-19 114.17,-19 111,-15.83 111,-12.67 111,-12.67 111,-6.33 111,-6.33 111,-3.17 114.17,0 117.33,0 117.33,0 221.67,0 221.67,0 224.83,0 228,-3.17 228,-6.33 228,-6.33 228,-12.67 228,-12.67 228,-15.83 224.83,-19 221.67,-19"/>
<text text-anchor="middle" x="169.5" y="-7" font-family="Helvetica,sans-Serif" font-size="10.00">updatePseudoPulses</text>
</a>
</g>
</g>
<!-- Node2 -->
<g id="Node000002" class="node">
<title>Node2</title>
<g id="a_Node000002"><a xlink:href="ppppp_8cpp.html#a84e7c899beed740758bb8da190184e65" target="_top" xlink:title=" ">
<path fill="#fff0f0" stroke="red" d="M68.67,-19C68.67,-19 6.33,-19 6.33,-19 3.17,-19 0,-15.83 0,-12.67 0,-12.67 0,-6.33 0,-6.33 0,-3.17 3.17,0 6.33,0 6.33,0 68.67,0 68.67,0 71.83,0 75,-3.17 75,-6.33 75,-6.33 75,-12.67 75,-12.67 75,-15.83 71.83,-19 68.67,-19"/>
<text text-anchor="middle" x="37.5" y="-7" font-family="Helvetica,sans-Serif" font-size="10.00">updateFilter</text>
</a>
</g>
</g>
<!-- Node1&#45;&gt;Node2 -->
<g id="edge1_Node000001_Node000002" class="edge">
<title>Node1&#45;&gt;Node2</title>
<g id="a_edge1_Node000001_Node000002"><a xlink:title=" ">
<path fill="none" stroke="#63b8ff" d="M100.5,-9.5C91.78,-9.5 83.14,-9.5 75.19,-9.5"/>
<polygon fill="#63b8ff" stroke="#63b8ff" points="100.72,-13 110.72,-9.5 100.72,-6 100.72,-13"/>
</a>
</g>
</g>
</g>
</svg>
