<?xml version="1.0" encoding="UTF-8" standalone="no"?>
<!DOCTYPE svg PUBLIC "-//W3C//DTD SVG 1.1//EN"
 "http://www.w3.org/Graphics/SVG/1.1/DTD/svg11.dtd">
<!-- Generated by graphviz version 2.43.0 (0)
 -->
<!-- Title: Main_Filter__ Pages: 1 -->
<svg width="396pt" height="175pt"
 viewBox="0.00 0.00 396.00 175.00" xmlns="http://www.w3.org/2000/svg" xmlns:xlink="http://www.w3.org/1999/xlink">
<g id="graph0" class="graph" transform="scale(1 1) rotate(0) translate(4 171)">
<title>Main_Filter__</title>
<!-- Node1 -->
<g id="Node000001" class="node">
<title>Node1</title>
<g id="a_Node000001"><a xlink:href="ppppp_8cpp.html#a806c4571abfde8d490598ec186768d7f" target="_top" xlink:title="Primary estimation and filtering.">
<polygon fill="#88ff88" stroke="#00aa00" stroke-width="2" points="81,-93 0,-93 0,-74 81,-74 81,-93"/>
<text text-anchor="middle" x="40.5" y="-81" font-family="Helvetica,sans-Serif" font-size="10.00">Main_Filter__</text>
</a>
</g>
</g>
<!-- Node2 -->
<g id="Node000002" class="node">
<title>Node2</title>
<g id="a_Node000002"><a xlink:href="Ginan_8cpp.html#aceb2fa1cc303170d995bfaa028dbb43b" target="_top" xlink:title=" ">
<polygon fill="#88ff88" stroke="#00aa00" points="251,-167 119.11,-167 117,-164.89 117,-148 248.89,-148 251,-150.11 251,-167"/>
<polyline fill="none" stroke="#00aa00" points="248.89,-164.89 117,-164.89 "/>
<polyline fill="none" stroke="#00aa00" points="248.89,-164.89 248.89,-148 "/>
<polyline fill="none" stroke="#00aa00" points="248.89,-164.89 251,-167 "/>
<text text-anchor="middle" x="184" y="-155" font-family="Helvetica,sans-Serif" font-size="10.00">UDUC_Measurements__</text>
</a>
</g>
</g>
<!-- Node1&#45;&gt;Node2 -->
<g id="edge1_Node000001_Node000002" class="edge">
<title>Node1&#45;&gt;Node2</title>
<g id="a_edge1_Node000001_Node000002"><a xlink:title=" ">
<path fill="none" stroke="#63b8ff" d="M51.91,-93.24C65.76,-105.68 91.46,-127.09 117,-139.5 120.85,-141.37 124.92,-143.07 129.07,-144.61"/>
<polygon fill="#63b8ff" stroke="#63b8ff" points="128.26,-148.03 138.85,-147.92 130.5,-141.4 128.26,-148.03"/>
</a>
</g>
</g>
<!-- Node3 -->
<g id="Node000003" class="node">
<title>Node3</title>
<g id="a_Node000003"><a xlink:href="Ginan_8cpp.html#ad03fbb733b994516cac4c58913ab3c76" target="_top" xlink:title=" ">
<polygon fill="#88ff88" stroke="#00aa00" points="228.5,-130 139.5,-130 139.5,-111 228.5,-111 228.5,-130"/>
<text text-anchor="middle" x="184" y="-118" font-family="Helvetica,sans-Serif" font-size="10.00">Combinators__</text>
</a>
</g>
</g>
<!-- Node1&#45;&gt;Node3 -->
<g id="edge2_Node000001_Node000003" class="edge">
<title>Node1&#45;&gt;Node3</title>
<g id="a_edge2_Node000001_Node000003"><a xlink:title=" ">
<path fill="none" stroke="#63b8ff" d="M77.94,-93.03C95.71,-97.67 117.29,-103.32 136.26,-108.28"/>
<polygon fill="#63b8ff" stroke="#63b8ff" points="135.63,-111.73 146.19,-110.88 137.4,-104.96 135.63,-111.73"/>
</a>
</g>
</g>
<!-- Node4 -->
<g id="Node000004" class="node">
<title>Node4</title>
<g id="a_Node000004"><a xlink:href="ppp__pseudoobs_8cpp.html#a89c2ced133f3d935edea1e0601d74876" target="_top" xlink:title=" ">
<polygon fill="#88ff88" stroke="#00aa00" points="250,-93 118,-93 118,-74 250,-74 250,-93"/>
<text text-anchor="middle" x="184" y="-81" font-family="Helvetica,sans-Serif" font-size="10.00">Pseudo_Observations__</text>
</a>
</g>
</g>
<!-- Node1&#45;&gt;Node4 -->
<g id="edge3_Node000001_Node000004" class="edge">
<title>Node1&#45;&gt;Node4</title>
<g id="a_edge3_Node000001_Node000004"><a xlink:title=" ">
<path fill="none" stroke="#63b8ff" d="M81.29,-83.5C89.55,-83.5 98.5,-83.5 107.56,-83.5"/>
<polygon fill="#63b8ff" stroke="#63b8ff" points="107.8,-87 117.8,-83.5 107.8,-80 107.8,-87"/>
</a>
</g>
</g>
<!-- Node5 -->
<g id="Node000005" class="node">
<title>Node5</title>
<g id="a_Node000005"><a xlink:href="Ginan_8cpp.html#a4f61fee46942aeff4254e6e547ddf18c" target="_top" xlink:title="Kalman Filter.">
<polygon fill="#88ff88" stroke="#00aa00" points="231.5,-56 138.61,-56 136.5,-53.89 136.5,-37 229.39,-37 231.5,-39.11 231.5,-56"/>
<polyline fill="none" stroke="#00aa00" points="229.39,-53.89 136.5,-53.89 "/>
<polyline fill="none" stroke="#00aa00" points="229.39,-53.89 229.39,-37 "/>
<polyline fill="none" stroke="#00aa00" points="229.39,-53.89 231.5,-56 "/>
<text text-anchor="middle" x="184" y="-44" font-family="Helvetica,sans-Serif" font-size="10.00">Kalman_Filter__</text>
</a>
</g>
</g>
<!-- Node1&#45;&gt;Node5 -->
<g id="edge4_Node000001_Node000005" class="edge">
<title>Node1&#45;&gt;Node5</title>
<g id="a_edge4_Node000001_Node000005"><a xlink:title=" ">
<path fill="none" stroke="#63b8ff" d="M77.94,-73.97C95.71,-69.33 117.29,-63.68 136.26,-58.72"/>
<polygon fill="#63b8ff" stroke="#63b8ff" points="137.4,-62.04 146.19,-56.12 135.63,-55.27 137.4,-62.04"/>
</a>
</g>
</g>
<!-- Node7 -->
<g id="Node000007" class="node">
<title>Node7</title>
<g id="a_Node000007"><a xlink:href="Ginan_8cpp.html#aebeda650bc9e3e6d087a3fc6590641f0" target="_top" xlink:title=" ">
<polygon fill="#88ff88" stroke="#00aa00" points="233.5,-19 134.5,-19 134.5,0 233.5,0 233.5,-19"/>
<text text-anchor="middle" x="184" y="-7" font-family="Helvetica,sans-Serif" font-size="10.00">Error_Handling__</text>
</a>
</g>
</g>
<!-- Node1&#45;&gt;Node7 -->
<g id="edge6_Node000001_Node000007" class="edge">
<title>Node1&#45;&gt;Node7</title>
<g id="a_edge6_Node000001_Node000007"><a xlink:title=" ">
<path fill="none" stroke="#63b8ff" d="M52.46,-73.58C66.48,-61.37 91.94,-40.76 117,-28.5 121.63,-26.23 126.59,-24.19 131.62,-22.36"/>
<polygon fill="#63b8ff" stroke="#63b8ff" points="132.96,-25.6 141.33,-19.1 130.73,-18.96 132.96,-25.6"/>
</a>
</g>
</g>
<!-- Node6 -->
<g id="Node000006" class="node">
<title>Node6</title>
<g id="a_Node000006"><a xlink:href="algebraTrace_8cpp.html#a26cbe32ecdc0d1af8afc182528de5f31" target="_top" xlink:title="Save complex variables to files.">
<polygon fill="#88ff88" stroke="#00aa00" points="388,-56 287,-56 287,-37 388,-37 388,-56"/>
<text text-anchor="middle" x="337.5" y="-44" font-family="Helvetica,sans-Serif" font-size="10.00">Binary_Archive__</text>
</a>
</g>
</g>
<!-- Node5&#45;&gt;Node6 -->
<g id="edge5_Node000005_Node000006" class="edge">
<title>Node5&#45;&gt;Node6</title>
<g id="a_edge5_Node000005_Node000006"><a xlink:title=" ">
<path fill="none" stroke="#63b8ff" d="M231.69,-46.5C245.89,-46.5 261.69,-46.5 276.64,-46.5"/>
<polygon fill="#63b8ff" stroke="#63b8ff" points="276.81,-50 286.81,-46.5 276.81,-43 276.81,-50"/>
</a>
</g>
</g>
</g>
</svg>
