<?xml version="1.0" encoding="UTF-8" standalone="no"?>
<!DOCTYPE svg PUBLIC "-//W3C//DTD SVG 1.1//EN"
 "http://www.w3.org/Graphics/SVG/1.1/DTD/svg11.dtd">
<!-- Generated by graphviz version 2.43.0 (0)
 -->
<!-- Title: pppLinearCombinations Pages: 1 -->
<svg width="211pt" height="27pt"
 viewBox="0.00 0.00 211.00 27.00" xmlns="http://www.w3.org/2000/svg" xmlns:xlink="http://www.w3.org/1999/xlink">
<g id="graph0" class="graph" transform="scale(1 1) rotate(0) translate(4 23)">
<title>pppLinearCombinations</title>
<!-- Node1 -->
<g id="Node000001" class="node">
<title>Node1</title>
<g id="a_Node000001"><a xlink:href="ppppp_8cpp.html#a472ab40be352ddb8dc211e3eda9795e5" target="_top" xlink:title=" ">
<path fill="#fff0f0" stroke="red" stroke-width="2" d="M196.67,-19C196.67,-19 77.33,-19 77.33,-19 74.17,-19 71,-15.83 71,-12.67 71,-12.67 71,-6.33 71,-6.33 71,-3.17 74.17,0 77.33,0 77.33,0 196.67,0 196.67,0 199.83,0 203,-3.17 203,-6.33 203,-6.33 203,-12.67 203,-12.67 203,-15.83 199.83,-19 196.67,-19"/>
<text text-anchor="middle" x="137" y="-7" font-family="Helvetica,sans-Serif" font-size="10.00">pppLinearCombinations</text>
</a>
</g>
</g>
<!-- Node2 -->
<g id="Node000002" class="node">
<title>Node2</title>
<g id="a_Node000002"><a xlink:href="ppppp_8cpp.html#a9997f03cab80cd8db895650860eb025e" target="_top" xlink:title=" ">
<path fill="#fff0f0" stroke="red" d="M28.67,-19C28.67,-19 6.33,-19 6.33,-19 3.17,-19 0,-15.83 0,-12.67 0,-12.67 0,-6.33 0,-6.33 0,-3.17 3.17,0 6.33,0 6.33,0 28.67,0 28.67,0 31.83,0 35,-3.17 35,-6.33 35,-6.33 35,-12.67 35,-12.67 35,-15.83 31.83,-19 28.67,-19"/>
<text text-anchor="middle" x="17.5" y="-7" font-family="Helvetica,sans-Serif" font-size="10.00">ppp</text>
</a>
</g>
</g>
<!-- Node1&#45;&gt;Node2 -->
<g id="edge1_Node000001_Node000002" class="edge">
<title>Node1&#45;&gt;Node2</title>
<g id="a_edge1_Node000001_Node000002"><a xlink:title=" ">
<path fill="none" stroke="#63b8ff" d="M60.42,-9.5C51.11,-9.5 42.42,-9.5 35.39,-9.5"/>
<polygon fill="#63b8ff" stroke="#63b8ff" points="60.72,-13 70.72,-9.5 60.72,-6 60.72,-13"/>
</a>
</g>
</g>
</g>
</svg>
