<?xml version="1.0" encoding="UTF-8" standalone="no"?>
<!DOCTYPE svg PUBLIC "-//W3C//DTD SVG 1.1//EN"
 "http://www.w3.org/Graphics/SVG/1.1/DTD/svg11.dtd">
<!-- Generated by graphviz version 2.43.0 (0)
 -->
<!-- Title: updateAvgIonosphere Pages: 1 -->
<svg width="201pt" height="27pt"
 viewBox="0.00 0.00 201.00 27.00" xmlns="http://www.w3.org/2000/svg" xmlns:xlink="http://www.w3.org/1999/xlink">
<g id="graph0" class="graph" transform="scale(1 1) rotate(0) translate(4 23)">
<title>updateAvgIonosphere</title>
<!-- Node1 -->
<g id="Node000001" class="node">
<title>Node1</title>
<g id="a_Node000001"><a xlink:href="ppppp_8cpp.html#a45f0cda97e5e3cff2eeb13b2cea9562f" target="_top" xlink:title="Prepare stec values clocks to minimise residuals to klobuchar model.">
<path fill="#fff0f0" stroke="red" stroke-width="2" d="M186.67,-19C186.67,-19 77.33,-19 77.33,-19 74.17,-19 71,-15.83 71,-12.67 71,-12.67 71,-6.33 71,-6.33 71,-3.17 74.17,0 77.33,0 77.33,0 186.67,0 186.67,0 189.83,0 193,-3.17 193,-6.33 193,-6.33 193,-12.67 193,-12.67 193,-15.83 189.83,-19 186.67,-19"/>
<text text-anchor="middle" x="132" y="-7" font-family="Helvetica,sans-Serif" font-size="10.00">updateAvgIonosphere</text>
</a>
</g>
</g>
<!-- Node2 -->
<g id="Node000002" class="node">
<title>Node2</title>
<g id="a_Node000002"><a xlink:href="ppppp_8cpp.html#a9997f03cab80cd8db895650860eb025e" target="_top" xlink:title=" ">
<path fill="#fff0f0" stroke="red" d="M28.67,-19C28.67,-19 6.33,-19 6.33,-19 3.17,-19 0,-15.83 0,-12.67 0,-12.67 0,-6.33 0,-6.33 0,-3.17 3.17,0 6.33,0 6.33,0 28.67,0 28.67,0 31.83,0 35,-3.17 35,-6.33 35,-6.33 35,-12.67 35,-12.67 35,-15.83 31.83,-19 28.67,-19"/>
<text text-anchor="middle" x="17.5" y="-7" font-family="Helvetica,sans-Serif" font-size="10.00">ppp</text>
</a>
</g>
</g>
<!-- Node1&#45;&gt;Node2 -->
<g id="edge1_Node000001_Node000002" class="edge">
<title>Node1&#45;&gt;Node2</title>
<g id="a_edge1_Node000001_Node000002"><a xlink:title=" ">
<path fill="none" stroke="#63b8ff" d="M60.72,-9.5C51.21,-9.5 42.26,-9.5 35.08,-9.5"/>
<polygon fill="#63b8ff" stroke="#63b8ff" points="60.8,-13 70.8,-9.5 60.8,-6 60.8,-13"/>
</a>
</g>
</g>
</g>
</svg>
