<?xml version="1.0" encoding="UTF-8" standalone="no"?>
<!DOCTYPE svg PUBLIC "-//W3C//DTD SVG 1.1//EN"
 "http://www.w3.org/Graphics/SVG/1.1/DTD/svg11.dtd">
<!-- Generated by graphviz version 2.43.0 (0)
 -->
<!-- Title: preprocessor Pages: 1 -->
<svg width="365pt" height="81pt"
 viewBox="0.00 0.00 365.00 81.28" xmlns="http://www.w3.org/2000/svg" xmlns:xlink="http://www.w3.org/1999/xlink">
<g id="graph0" class="graph" transform="scale(1 1) rotate(0) translate(4 77.28)">
<title>preprocessor</title>
<!-- Node1 -->
<g id="Node000001" class="node">
<title>Node1</title>
<g id="a_Node000001"><a xlink:href="preprocessor_8cpp.html#a66089b6d3c4e1fd48ff14fd9d0a1f933" target="_top" xlink:title=" ">
<path fill="#fff0f0" stroke="red" stroke-width="2" d="M350.67,-56C350.67,-56 283.33,-56 283.33,-56 280.17,-56 277,-52.83 277,-49.67 277,-49.67 277,-43.33 277,-43.33 277,-40.17 280.17,-37 283.33,-37 283.33,-37 350.67,-37 350.67,-37 353.83,-37 357,-40.17 357,-43.33 357,-43.33 357,-49.67 357,-49.67 357,-52.83 353.83,-56 350.67,-56"/>
<text text-anchor="middle" x="317" y="-44" font-family="Helvetica,sans-Serif" font-size="10.00">preprocessor</text>
</a>
</g>
</g>
<!-- Node2 -->
<g id="Node000002" class="node">
<title>Node2</title>
<g id="a_Node000002"><a xlink:href="main_8cpp.html#a2c1eabb2ea9b242d8d9fd2c1795849e9" target="_top" xlink:title=" ">
<path fill="#fff0f0" stroke="red" d="M37.67,-56C37.67,-56 6.33,-56 6.33,-56 3.17,-56 0,-52.83 0,-49.67 0,-49.67 0,-43.33 0,-43.33 0,-40.17 3.17,-37 6.33,-37 6.33,-37 37.67,-37 37.67,-37 40.83,-37 44,-40.17 44,-43.33 44,-43.33 44,-49.67 44,-49.67 44,-52.83 40.83,-56 37.67,-56"/>
<text text-anchor="middle" x="22" y="-44" font-family="Helvetica,sans-Serif" font-size="10.00">ginan</text>
</a>
</g>
</g>
<!-- Node1&#45;&gt;Node2 -->
<g id="edge1_Node000001_Node000002" class="edge">
<title>Node1&#45;&gt;Node2</title>
<g id="a_edge1_Node000001_Node000002"><a xlink:title=" ">
<path fill="none" stroke="#63b8ff" d="M275.77,-58.64C264.62,-61.47 252.43,-64.07 241,-65.5 169.99,-74.35 150.63,-76.96 80,-65.5 67.85,-63.53 54.79,-59.34 44.24,-55.39"/>
<polygon fill="#63b8ff" stroke="#63b8ff" points="276.91,-61.96 285.68,-56 275.11,-55.2 276.91,-61.96"/>
</a>
</g>
</g>
<!-- Node4 -->
<g id="Node000004" class="node">
<title>Node4</title>
<g id="a_Node000004"><a xlink:href="main_8cpp.html#ae9a767ba206649ca2e395dd210c2218b" target="_top" xlink:title="Perform operations for each station This function occurs in parallel with other stations &#45; ensure tha...">
<path fill="#fff0f0" stroke="red" d="M234.67,-56C234.67,-56 86.33,-56 86.33,-56 83.17,-56 80,-52.83 80,-49.67 80,-49.67 80,-43.33 80,-43.33 80,-40.17 83.17,-37 86.33,-37 86.33,-37 234.67,-37 234.67,-37 237.83,-37 241,-40.17 241,-43.33 241,-43.33 241,-49.67 241,-49.67 241,-52.83 237.83,-56 234.67,-56"/>
<text text-anchor="middle" x="160.5" y="-44" font-family="Helvetica,sans-Serif" font-size="10.00">mainOncePerEpochPerStation</text>
</a>
</g>
</g>
<!-- Node1&#45;&gt;Node4 -->
<g id="edge2_Node000001_Node000004" class="edge">
<title>Node1&#45;&gt;Node4</title>
<g id="a_edge2_Node000001_Node000004"><a xlink:title=" ">
<path fill="none" stroke="#63b8ff" d="M266.58,-46.5C258.43,-46.5 249.8,-46.5 241.13,-46.5"/>
<polygon fill="#63b8ff" stroke="#63b8ff" points="266.61,-50 276.61,-46.5 266.61,-43 266.61,-50"/>
</a>
</g>
</g>
<!-- Node6 -->
<g id="Node000006" class="node">
<title>Node6</title>
<g id="a_Node000006"><a xlink:href="structACSConfig.html#acbe400e2cc2760cbebd28dda6413c4ad" target="_top" xlink:title="Parse options to set acsConfig values.">
<path fill="#fff0f0" stroke="red" d="M204.17,-19C204.17,-19 116.83,-19 116.83,-19 113.67,-19 110.5,-15.83 110.5,-12.67 110.5,-12.67 110.5,-6.33 110.5,-6.33 110.5,-3.17 113.67,0 116.83,0 116.83,0 204.17,0 204.17,0 207.33,0 210.5,-3.17 210.5,-6.33 210.5,-6.33 210.5,-12.67 210.5,-12.67 210.5,-15.83 207.33,-19 204.17,-19"/>
<text text-anchor="middle" x="160.5" y="-7" font-family="Helvetica,sans-Serif" font-size="10.00">ACSConfig::parse</text>
</a>
</g>
</g>
<!-- Node1&#45;&gt;Node6 -->
<g id="edge3_Node000001_Node000006" class="edge">
<title>Node1&#45;&gt;Node6</title>
<g id="a_edge3_Node000001_Node000006"><a xlink:title=" ">
<path fill="none" stroke="#63b8ff" d="M266.77,-34.68C258.18,-32.62 249.33,-30.5 241,-28.5 228.17,-25.43 214.16,-22.08 201.54,-19.06"/>
<polygon fill="#63b8ff" stroke="#63b8ff" points="266.15,-38.13 276.69,-37.06 267.78,-31.32 266.15,-38.13"/>
</a>
</g>
</g>
<!-- Node6&#45;&gt;Node2 -->
<g id="edge4_Node000006_Node000002" class="edge">
<title>Node6&#45;&gt;Node2</title>
<g id="a_edge4_Node000006_Node000002"><a xlink:title=" ">
<path fill="none" stroke="#63b8ff" d="M107.46,-21.37C98.28,-23.63 88.84,-26.05 80,-28.5 68,-31.82 54.72,-35.99 44.01,-39.47"/>
<polygon fill="#63b8ff" stroke="#63b8ff" points="108.38,-24.75 117.27,-19 106.73,-17.95 108.38,-24.75"/>
</a>
</g>
</g>
</g>
</svg>
