<?xml version="1.0" encoding="UTF-8" standalone="no"?>
<!DOCTYPE svg PUBLIC "-//W3C//DTD SVG 1.1//EN"
 "http://www.w3.org/Graphics/SVG/1.1/DTD/svg11.dtd">
<!-- Generated by graphviz version 2.43.0 (0)
 -->
<!-- Title: preprocessor Pages: 1 -->
<svg width="416pt" height="393pt"
 viewBox="0.00 0.00 416.00 392.61" xmlns="http://www.w3.org/2000/svg" xmlns:xlink="http://www.w3.org/1999/xlink">
<g id="graph0" class="graph" transform="scale(1 1) rotate(0) translate(4 388.61)">
<title>preprocessor</title>
<!-- Node1 -->
<g id="Node000001" class="node">
<title>Node1</title>
<g id="a_Node000001"><a xlink:href="preprocessor_8cpp.html#a66089b6d3c4e1fd48ff14fd9d0a1f933" target="_top" xlink:title=" ">
<path fill="#fff0f0" stroke="red" stroke-width="2" d="M73.67,-215.61C73.67,-215.61 6.33,-215.61 6.33,-215.61 3.17,-215.61 0,-212.44 0,-209.28 0,-209.28 0,-202.94 0,-202.94 0,-199.78 3.17,-196.61 6.33,-196.61 6.33,-196.61 73.67,-196.61 73.67,-196.61 76.83,-196.61 80,-199.78 80,-202.94 80,-202.94 80,-209.28 80,-209.28 80,-212.44 76.83,-215.61 73.67,-215.61"/>
<text text-anchor="middle" x="40" y="-203.61" font-family="Helvetica,sans-Serif" font-size="10.00">preprocessor</text>
</a>
</g>
</g>
<!-- Node2 -->
<g id="Node000002" class="node">
<title>Node2</title>
<g id="a_Node000002"><a xlink:href="trace_8hpp.html#af5320371d0f15d74154b2b32d315684d" target="_top" xlink:title=" ">
<path fill="#fff0f0" stroke="red" d="M211.67,-384.61C211.67,-384.61 149.33,-384.61 149.33,-384.61 146.17,-384.61 143,-381.44 143,-378.28 143,-378.28 143,-371.94 143,-371.94 143,-368.78 146.17,-365.61 149.33,-365.61 149.33,-365.61 211.67,-365.61 211.67,-365.61 214.83,-365.61 218,-368.78 218,-371.94 218,-371.94 218,-378.28 218,-378.28 218,-381.44 214.83,-384.61 211.67,-384.61"/>
<text text-anchor="middle" x="180.5" y="-372.61" font-family="Helvetica,sans-Serif" font-size="10.00">getTraceFile</text>
</a>
</g>
</g>
<!-- Node1&#45;&gt;Node2 -->
<g id="edge1_Node000001_Node000002" class="edge">
<title>Node1&#45;&gt;Node2</title>
<g id="a_edge1_Node000001_Node000002"><a xlink:title=" ">
<path fill="none" stroke="#63b8ff" d="M44.05,-215.71C51.14,-241.71 71.64,-311.27 116,-348.11 124.91,-355.51 136.68,-359.87 147.67,-362.99"/>
<polygon fill="#63b8ff" stroke="#63b8ff" points="146.87,-366.4 157.43,-365.57 148.65,-359.63 146.87,-366.4"/>
</a>
</g>
</g>
<!-- Node1&#45;&gt;Node2 -->
<g id="edge2_Node000001_Node000002" class="edge">
<title>Node1&#45;&gt;Node2</title>
<g id="a_edge2_Node000001_Node000002"><a xlink:title=" ">
<path fill="none" stroke="#63b8ff" d="M42.22,-215.85C47.04,-244.51 66.91,-325.34 116,-366.11 120.98,-370.24 126.84,-373.43 132.97,-375.78"/>
<polygon fill="#63b8ff" stroke="#63b8ff" points="132.12,-379.19 142.71,-378.83 134.21,-372.5 132.12,-379.19"/>
</a>
</g>
</g>
<!-- Node3 -->
<g id="Node000003" class="node">
<title>Node3</title>
<g id="a_Node000003"><a xlink:href="structACSConfig.html#acbb130e061ba4b7bf620e4fb68e1b794" target="_top" xlink:title="Set receiver options for a specific receiver using a hierarchy of sources.">
<path fill="#fff0f0" stroke="red" d="M238.67,-347.61C238.67,-347.61 122.33,-347.61 122.33,-347.61 119.17,-347.61 116,-344.44 116,-341.28 116,-341.28 116,-334.94 116,-334.94 116,-331.78 119.17,-328.61 122.33,-328.61 122.33,-328.61 238.67,-328.61 238.67,-328.61 241.83,-328.61 245,-331.78 245,-334.94 245,-334.94 245,-341.28 245,-341.28 245,-344.44 241.83,-347.61 238.67,-347.61"/>
<text text-anchor="middle" x="180.5" y="-335.61" font-family="Helvetica,sans-Serif" font-size="10.00">ACSConfig::getRecOpts</text>
</a>
</g>
</g>
<!-- Node1&#45;&gt;Node3 -->
<g id="edge3_Node000001_Node000003" class="edge">
<title>Node1&#45;&gt;Node3</title>
<g id="a_edge3_Node000001_Node000003"><a xlink:title=" ">
<path fill="none" stroke="#63b8ff" d="M45.17,-215.63C54.73,-236.4 80.18,-286.16 116,-314.11 121.31,-318.25 127.41,-321.74 133.68,-324.66"/>
<polygon fill="#63b8ff" stroke="#63b8ff" points="132.35,-327.89 142.92,-328.54 135.06,-321.44 132.35,-327.89"/>
</a>
</g>
</g>
<!-- Node19 -->
<g id="Node000019" class="node">
<title>Node19</title>
<g id="a_Node000019"><a xlink:href="structACSConfig.html#a20ca3689eafecfa2b7e656c28e340256" target="_top" xlink:title="Set satellite options for a specific satellite using a hierarchy of sources.">
<path fill="#fff0f0" stroke="red" d="M401.67,-271.61C401.67,-271.61 287.33,-271.61 287.33,-271.61 284.17,-271.61 281,-268.44 281,-265.28 281,-265.28 281,-258.94 281,-258.94 281,-255.78 284.17,-252.61 287.33,-252.61 287.33,-252.61 401.67,-252.61 401.67,-252.61 404.83,-252.61 408,-255.78 408,-258.94 408,-258.94 408,-265.28 408,-265.28 408,-268.44 404.83,-271.61 401.67,-271.61"/>
<text text-anchor="middle" x="344.5" y="-259.61" font-family="Helvetica,sans-Serif" font-size="10.00">ACSConfig::getSatOpts</text>
</a>
</g>
</g>
<!-- Node1&#45;&gt;Node19 -->
<g id="edge4_Node000001_Node000019" class="edge">
<title>Node1&#45;&gt;Node19</title>
<g id="a_edge4_Node000001_Node000019"><a xlink:title=" ">
<path fill="none" stroke="#63b8ff" d="M46.94,-215.82C58.02,-232.89 83.68,-267.72 116,-281.11 179.79,-307.53 262.12,-289.19 308.21,-274.78"/>
<polygon fill="#63b8ff" stroke="#63b8ff" points="309.32,-278.1 317.75,-271.69 307.16,-271.44 309.32,-278.1"/>
</a>
</g>
</g>
<!-- Node26 -->
<g id="Node000026" class="node">
<title>Node26</title>
<g id="a_Node000026"><a xlink:href="rtkcmn_8cpp.html#a2be3690ff8daf8b99ce3ed3a60450a2a" target="_top" xlink:title=" ">
<path fill="#fff0f0" stroke="red" d="M220.17,-271.61C220.17,-271.61 140.83,-271.61 140.83,-271.61 137.67,-271.61 134.5,-268.44 134.5,-265.28 134.5,-265.28 134.5,-258.94 134.5,-258.94 134.5,-255.78 137.67,-252.61 140.83,-252.61 140.83,-252.61 220.17,-252.61 220.17,-252.61 223.33,-252.61 226.5,-255.78 226.5,-258.94 226.5,-258.94 226.5,-265.28 226.5,-265.28 226.5,-268.44 223.33,-271.61 220.17,-271.61"/>
<text text-anchor="middle" x="180.5" y="-259.61" font-family="Helvetica,sans-Serif" font-size="10.00">updateLamMap</text>
</a>
</g>
</g>
<!-- Node1&#45;&gt;Node26 -->
<g id="edge5_Node000001_Node000026" class="edge">
<title>Node1&#45;&gt;Node26</title>
<g id="a_edge5_Node000001_Node000026"><a xlink:title=" ">
<path fill="none" stroke="#63b8ff" d="M57.55,-215.67C72.47,-223.99 95.2,-235.98 116,-244.11 120.88,-246.02 126.04,-247.82 131.22,-249.49"/>
<polygon fill="#63b8ff" stroke="#63b8ff" points="130.57,-252.95 141.16,-252.53 132.63,-246.25 130.57,-252.95"/>
</a>
</g>
</g>
<!-- Node30 -->
<g id="Node000030" class="node">
<title>Node30</title>
<g id="a_Node000030"><a xlink:href="acsQC_8cpp.html#a87aa50724c534eed1c0d4b99329a6d97" target="_top" xlink:title=" ">
<path fill="#fff0f0" stroke="red" d="M206.17,-234.61C206.17,-234.61 154.83,-234.61 154.83,-234.61 151.67,-234.61 148.5,-231.44 148.5,-228.28 148.5,-228.28 148.5,-221.94 148.5,-221.94 148.5,-218.78 151.67,-215.61 154.83,-215.61 154.83,-215.61 206.17,-215.61 206.17,-215.61 209.33,-215.61 212.5,-218.78 212.5,-221.94 212.5,-221.94 212.5,-228.28 212.5,-228.28 212.5,-231.44 209.33,-234.61 206.17,-234.61"/>
<text text-anchor="middle" x="180.5" y="-222.61" font-family="Helvetica,sans-Serif" font-size="10.00">clearSlips</text>
</a>
</g>
</g>
<!-- Node1&#45;&gt;Node30 -->
<g id="edge6_Node000001_Node000030" class="edge">
<title>Node1&#45;&gt;Node30</title>
<g id="a_edge6_Node000001_Node000030"><a xlink:title=" ">
<path fill="none" stroke="#63b8ff" d="M80.32,-211.5C98.45,-213.99 119.98,-216.94 138.33,-219.46"/>
<polygon fill="#63b8ff" stroke="#63b8ff" points="138.06,-222.96 148.44,-220.85 139.01,-216.02 138.06,-222.96"/>
</a>
</g>
</g>
<!-- Node31 -->
<g id="Node000031" class="node">
<title>Node31</title>
<g id="a_Node000031"><a xlink:href="preprocessor_8cpp.html#acd01feb8c83f749ae1e1498358c51728" target="_top" xlink:title=" ">
<path fill="#fff0f0" stroke="red" d="M233.17,-197.61C233.17,-197.61 127.83,-197.61 127.83,-197.61 124.67,-197.61 121.5,-194.44 121.5,-191.28 121.5,-191.28 121.5,-184.94 121.5,-184.94 121.5,-181.78 124.67,-178.61 127.83,-178.61 127.83,-178.61 233.17,-178.61 233.17,-178.61 236.33,-178.61 239.5,-181.78 239.5,-184.94 239.5,-184.94 239.5,-191.28 239.5,-191.28 239.5,-194.44 236.33,-197.61 233.17,-197.61"/>
<text text-anchor="middle" x="180.5" y="-185.61" font-family="Helvetica,sans-Serif" font-size="10.00">excludeUnprocessed</text>
</a>
</g>
</g>
<!-- Node1&#45;&gt;Node31 -->
<g id="edge8_Node000001_Node000031" class="edge">
<title>Node1&#45;&gt;Node31</title>
<g id="a_edge8_Node000001_Node000031"><a xlink:title=" ">
<path fill="none" stroke="#63b8ff" d="M80.32,-201C90.01,-199.74 100.68,-198.35 111.31,-196.97"/>
<polygon fill="#63b8ff" stroke="#63b8ff" points="112,-200.41 121.47,-195.65 111.1,-193.47 112,-200.41"/>
</a>
</g>
</g>
<!-- Node32 -->
<g id="Node000032" class="node">
<title>Node32</title>
<g id="a_Node000032"><a xlink:href="preprocessor_8cpp.html#a4bfb118e96037a2bffd6bdf869f6b2b4" target="_top" xlink:title=" ">
<path fill="#fff0f0" stroke="red" d="M230.67,-160.61C230.67,-160.61 130.33,-160.61 130.33,-160.61 127.17,-160.61 124,-157.44 124,-154.28 124,-154.28 124,-147.94 124,-147.94 124,-144.78 127.17,-141.61 130.33,-141.61 130.33,-141.61 230.67,-141.61 230.67,-141.61 233.83,-141.61 237,-144.78 237,-147.94 237,-147.94 237,-154.28 237,-154.28 237,-157.44 233.83,-160.61 230.67,-160.61"/>
<text text-anchor="middle" x="180.5" y="-148.61" font-family="Helvetica,sans-Serif" font-size="10.00">outputObservations</text>
</a>
</g>
</g>
<!-- Node1&#45;&gt;Node32 -->
<g id="edge9_Node000001_Node000032" class="edge">
<title>Node1&#45;&gt;Node32</title>
<g id="a_edge9_Node000001_Node000032"><a xlink:title=" ">
<path fill="none" stroke="#63b8ff" d="M58.84,-196.57C73.82,-188.8 95.93,-177.87 116,-170.11 121.85,-167.85 128.08,-165.69 134.27,-163.69"/>
<polygon fill="#63b8ff" stroke="#63b8ff" points="135.39,-167.01 143.9,-160.69 133.31,-160.32 135.39,-167.01"/>
</a>
</g>
</g>
<!-- Node33 -->
<g id="Node000033" class="node">
<title>Node33</title>
<g id="a_Node000033"><a xlink:href="linearCombo_8cpp.html#a600e3c4eaf808e42c88785d56dc70350" target="_top" xlink:title="Function to prepare some predefined linear combinations from a list of observations.">
<path fill="#fff0f0" stroke="red" d="M200.67,-123.61C200.67,-123.61 160.33,-123.61 160.33,-123.61 157.17,-123.61 154,-120.44 154,-117.28 154,-117.28 154,-110.94 154,-110.94 154,-107.78 157.17,-104.61 160.33,-104.61 160.33,-104.61 200.67,-104.61 200.67,-104.61 203.83,-104.61 207,-107.78 207,-110.94 207,-110.94 207,-117.28 207,-117.28 207,-120.44 203.83,-123.61 200.67,-123.61"/>
<text text-anchor="middle" x="180.5" y="-111.61" font-family="Helvetica,sans-Serif" font-size="10.00">obs2lcs</text>
</a>
</g>
</g>
<!-- Node1&#45;&gt;Node33 -->
<g id="edge10_Node000001_Node000033" class="edge">
<title>Node1&#45;&gt;Node33</title>
<g id="a_edge10_Node000001_Node000033"><a xlink:title=" ">
<path fill="none" stroke="#63b8ff" d="M48.22,-196.56C60.47,-181.01 86.86,-150.23 116,-133.11 124.61,-128.05 134.69,-124.23 144.25,-121.4"/>
<polygon fill="#63b8ff" stroke="#63b8ff" points="145.19,-124.77 153.93,-118.8 143.37,-118.01 145.19,-124.77"/>
</a>
</g>
</g>
<!-- Node38 -->
<g id="Node000038" class="node">
<title>Node38</title>
<g id="a_Node000038"><a xlink:href="acsQC_8cpp.html#ae13db6fb21721c9fcb1eb93ea40ba2ff" target="_top" xlink:title="Detect slips for multiple observations.">
<path fill="#fff0f0" stroke="red" d="M209.17,-86.61C209.17,-86.61 151.83,-86.61 151.83,-86.61 148.67,-86.61 145.5,-83.44 145.5,-80.28 145.5,-80.28 145.5,-73.94 145.5,-73.94 145.5,-70.78 148.67,-67.61 151.83,-67.61 151.83,-67.61 209.17,-67.61 209.17,-67.61 212.33,-67.61 215.5,-70.78 215.5,-73.94 215.5,-73.94 215.5,-80.28 215.5,-80.28 215.5,-83.44 212.33,-86.61 209.17,-86.61"/>
<text text-anchor="middle" x="180.5" y="-74.61" font-family="Helvetica,sans-Serif" font-size="10.00">detectslips</text>
</a>
</g>
</g>
<!-- Node1&#45;&gt;Node38 -->
<g id="edge11_Node000001_Node000038" class="edge">
<title>Node1&#45;&gt;Node38</title>
<g id="a_edge11_Node000001_Node000038"><a xlink:title=" ">
<path fill="none" stroke="#63b8ff" d="M44.84,-196.54C53.9,-175.19 78.69,-123.4 116,-96.11 121.87,-91.81 128.72,-88.48 135.7,-85.89"/>
<polygon fill="#63b8ff" stroke="#63b8ff" points="136.79,-89.22 145.23,-82.82 134.64,-82.56 136.79,-89.22"/>
</a>
</g>
</g>
<!-- Node40 -->
<g id="Node000040" class="node">
<title>Node40</title>
<g id="a_Node000040"><a xlink:href="ppp_8cpp.html#add1aa65516313588ef8e125a7d748f51" target="_top" xlink:title=" ">
<path fill="#fff0f0" stroke="red" d="M366.67,-49.61C366.67,-49.61 322.33,-49.61 322.33,-49.61 319.17,-49.61 316,-46.44 316,-43.28 316,-43.28 316,-36.94 316,-36.94 316,-33.78 319.17,-30.61 322.33,-30.61 322.33,-30.61 366.67,-30.61 366.67,-30.61 369.83,-30.61 373,-33.78 373,-36.94 373,-36.94 373,-43.28 373,-43.28 373,-46.44 369.83,-49.61 366.67,-49.61"/>
<text text-anchor="middle" x="344.5" y="-37.61" font-family="Helvetica,sans-Serif" font-size="10.00">ft2string</text>
</a>
</g>
</g>
<!-- Node1&#45;&gt;Node40 -->
<g id="edge15_Node000001_Node000040" class="edge">
<title>Node1&#45;&gt;Node40</title>
<g id="a_edge15_Node000001_Node000040"><a xlink:title=" ">
<path fill="none" stroke="#63b8ff" d="M41.4,-196.6C43.3,-164.93 54.2,-62.74 116,-21.11 176.33,19.53 267.09,-7.87 313.63,-26.63"/>
<polygon fill="#63b8ff" stroke="#63b8ff" points="312.56,-29.98 323.14,-30.6 315.25,-23.52 312.56,-29.98"/>
</a>
</g>
</g>
<!-- Node74 -->
<g id="Node000074" class="node">
<title>Node74</title>
<g id="a_Node000074"><a xlink:href="preprocessor_8cpp.html#a4981d60cb877610f6103cb0d095eeb62" target="_top" xlink:title=" ">
<path fill="#fff0f0" stroke="red" d="M209.67,-49.61C209.67,-49.61 151.33,-49.61 151.33,-49.61 148.17,-49.61 145,-46.44 145,-43.28 145,-43.28 145,-36.94 145,-36.94 145,-33.78 148.17,-30.61 151.33,-30.61 151.33,-30.61 209.67,-30.61 209.67,-30.61 212.83,-30.61 216,-33.78 216,-36.94 216,-36.94 216,-43.28 216,-43.28 216,-46.44 212.83,-49.61 209.67,-49.61"/>
<text text-anchor="middle" x="180.5" y="-37.61" font-family="Helvetica,sans-Serif" font-size="10.00">recordSlips</text>
</a>
</g>
</g>
<!-- Node1&#45;&gt;Node74 -->
<g id="edge13_Node000001_Node000074" class="edge">
<title>Node1&#45;&gt;Node74</title>
<g id="a_edge13_Node000001_Node000074"><a xlink:title=" ">
<path fill="none" stroke="#63b8ff" d="M43.04,-196.47C49.15,-170.1 69.75,-96.2 116,-58.11 121.47,-53.61 128,-50.23 134.76,-47.69"/>
<polygon fill="#63b8ff" stroke="#63b8ff" points="136.24,-50.9 144.73,-44.55 134.14,-44.22 136.24,-50.9"/>
</a>
</g>
</g>
<!-- Node30&#45;&gt;Node19 -->
<g id="edge7_Node000030_Node000019" class="edge">
<title>Node30&#45;&gt;Node19</title>
<g id="a_edge7_Node000030_Node000019"><a xlink:title=" ">
<path fill="none" stroke="#63b8ff" d="M212.74,-232.24C235.06,-237.34 265.61,-244.32 291.57,-250.25"/>
<polygon fill="#63b8ff" stroke="#63b8ff" points="291.11,-253.73 301.64,-252.55 292.67,-246.91 291.11,-253.73"/>
</a>
</g>
</g>
<!-- Node38&#45;&gt;Node40 -->
<g id="edge12_Node000038_Node000040" class="edge">
<title>Node38&#45;&gt;Node40</title>
<g id="a_edge12_Node000038_Node000040"><a xlink:title=" ">
<path fill="none" stroke="#63b8ff" d="M215.86,-69.26C242.29,-63.22 278.78,-54.89 305.98,-48.68"/>
<polygon fill="#63b8ff" stroke="#63b8ff" points="306.94,-52.05 315.91,-46.41 305.38,-45.23 306.94,-52.05"/>
</a>
</g>
</g>
<!-- Node74&#45;&gt;Node40 -->
<g id="edge14_Node000074_Node000040" class="edge">
<title>Node74&#45;&gt;Node40</title>
<g id="a_edge14_Node000074_Node000040"><a xlink:title=" ">
<path fill="none" stroke="#63b8ff" d="M216.25,-40.11C242.52,-40.11 278.54,-40.11 305.55,-40.11"/>
<polygon fill="#63b8ff" stroke="#63b8ff" points="305.79,-43.61 315.79,-40.11 305.79,-36.61 305.79,-43.61"/>
</a>
</g>
</g>
</g>
</svg>
