<?xml version="1.0" encoding="UTF-8" standalone="no"?>
<!DOCTYPE svg PUBLIC "-//W3C//DTD SVG 1.1//EN"
 "http://www.w3.org/Graphics/SVG/1.1/DTD/svg11.dtd">
<!-- Generated by graphviz version 2.43.0 (0)
 -->
<!-- Title: encodecompactBIA Pages: 1 -->
<svg width="261pt" height="101pt"
 viewBox="0.00 0.00 261.00 101.00" xmlns="http://www.w3.org/2000/svg" xmlns:xlink="http://www.w3.org/1999/xlink">
<g id="graph0" class="graph" transform="scale(1 1) rotate(0) translate(4 97)">
<title>encodecompactBIA</title>
<!-- Node1 -->
<g id="Node000001" class="node">
<title>Node1</title>
<g id="a_Node000001"><a xlink:href="prototypeCmpSSREncode_8cpp.html#a46c49d828f858552d52241146c8376d0" target="_top" xlink:title="Encode hybrid code and phase bias message warning 1: Currently only global mode supported.">
<path fill="#fff0f0" stroke="red" stroke-width="2" d="M103.67,-56C103.67,-56 6.33,-56 6.33,-56 3.17,-56 0,-52.83 0,-49.67 0,-49.67 0,-43.33 0,-43.33 0,-40.17 3.17,-37 6.33,-37 6.33,-37 103.67,-37 103.67,-37 106.83,-37 110,-40.17 110,-43.33 110,-43.33 110,-49.67 110,-49.67 110,-52.83 106.83,-56 103.67,-56"/>
<text text-anchor="middle" x="55" y="-44" font-family="Helvetica,sans-Serif" font-size="10.00">encodecompactBIA</text>
</a>
</g>
</g>
<!-- Node2 -->
<g id="Node000002" class="node">
<title>Node2</title>
<g id="a_Node000002"><a xlink:href="rtcmEncoder_8cpp.html#af0d5eab5e18729b5d6b67194e94979a0" target="_top" xlink:title="increasingly set unsigned bits to byte data">
<path fill="#fff0f0" stroke="red" d="M225.67,-93C225.67,-93 173.33,-93 173.33,-93 170.17,-93 167,-89.83 167,-86.67 167,-86.67 167,-80.33 167,-80.33 167,-77.17 170.17,-74 173.33,-74 173.33,-74 225.67,-74 225.67,-74 228.83,-74 232,-77.17 232,-80.33 232,-80.33 232,-86.67 232,-86.67 232,-89.83 228.83,-93 225.67,-93"/>
<text text-anchor="middle" x="199.5" y="-81" font-family="Helvetica,sans-Serif" font-size="10.00">setbituInc</text>
</a>
</g>
</g>
<!-- Node1&#45;&gt;Node2 -->
<g id="edge1_Node000001_Node000002" class="edge">
<title>Node1&#45;&gt;Node2</title>
<g id="a_edge1_Node000001_Node000002"><a xlink:title=" ">
<path fill="none" stroke="#63b8ff" d="M110.28,-54.02C130.6,-58.87 152.88,-65.01 169.96,-70.56"/>
<polygon fill="#63b8ff" stroke="#63b8ff" points="169.27,-74.02 179.87,-73.93 171.53,-67.4 169.27,-74.02"/>
</a>
</g>
</g>
<!-- Node1&#45;&gt;Node2 -->
<g id="edge2_Node000001_Node000002" class="edge">
<title>Node1&#45;&gt;Node2</title>
<g id="a_edge2_Node000001_Node000002"><a xlink:title=" ">
<path fill="none" stroke="#63b8ff" d="M74.63,-56.07C95.37,-63.5 129.54,-72.86 156.75,-78.87"/>
<polygon fill="#63b8ff" stroke="#63b8ff" points="156.28,-82.35 166.79,-80.99 157.73,-75.5 156.28,-82.35"/>
</a>
</g>
</g>
<!-- Node4 -->
<g id="Node000004" class="node">
<title>Node4</title>
<g id="a_Node000004"><a xlink:href="rtcmEncoder_8cpp.html#a831abe42902c0ceadba66974c93a637b" target="_top" xlink:title="increasingly set signed bits to byte data">
<path fill="#fff0f0" stroke="red" d="M225.17,-56C225.17,-56 173.83,-56 173.83,-56 170.67,-56 167.5,-52.83 167.5,-49.67 167.5,-49.67 167.5,-43.33 167.5,-43.33 167.5,-40.17 170.67,-37 173.83,-37 173.83,-37 225.17,-37 225.17,-37 228.33,-37 231.5,-40.17 231.5,-43.33 231.5,-43.33 231.5,-49.67 231.5,-49.67 231.5,-52.83 228.33,-56 225.17,-56"/>
<text text-anchor="middle" x="199.5" y="-44" font-family="Helvetica,sans-Serif" font-size="10.00">setbitsInc</text>
</a>
</g>
</g>
<!-- Node1&#45;&gt;Node4 -->
<g id="edge3_Node000001_Node000004" class="edge">
<title>Node1&#45;&gt;Node4</title>
<g id="a_edge3_Node000001_Node000004"><a xlink:title=" ">
<path fill="none" stroke="#63b8ff" d="M110.28,-39.92C125.85,-39.6 142.57,-39.73 157.22,-40.31"/>
<polygon fill="#63b8ff" stroke="#63b8ff" points="157.31,-43.82 167.47,-40.82 157.66,-36.83 157.31,-43.82"/>
</a>
</g>
</g>
<!-- Node1&#45;&gt;Node4 -->
<g id="edge5_Node000001_Node000004" class="edge">
<title>Node1&#45;&gt;Node4</title>
<g id="a_edge5_Node000001_Node000004"><a xlink:title=" ">
<path fill="none" stroke="#63b8ff" d="M110.28,-53.08C125.85,-53.4 142.57,-53.27 157.22,-52.69"/>
<polygon fill="#63b8ff" stroke="#63b8ff" points="157.66,-56.17 167.47,-52.18 157.31,-49.18 157.66,-56.17"/>
</a>
</g>
</g>
<!-- Node6 -->
<g id="Node000006" class="node">
<title>Node6</title>
<g id="a_Node000006"><a xlink:href="prototypeCmpSSREncode_8cpp.html#a2f7cefae27bafd9b9afc72ae950d2d92" target="_top" xlink:title=" ">
<path fill="#fff0f0" stroke="red" d="M246.67,-19C246.67,-19 152.33,-19 152.33,-19 149.17,-19 146,-15.83 146,-12.67 146,-12.67 146,-6.33 146,-6.33 146,-3.17 149.17,0 152.33,0 152.33,0 246.67,0 246.67,0 249.83,0 253,-3.17 253,-6.33 253,-6.33 253,-12.67 253,-12.67 253,-15.83 249.83,-19 246.67,-19"/>
<text text-anchor="middle" x="199.5" y="-7" font-family="Helvetica,sans-Serif" font-size="10.00">phaseBiasDiscChk</text>
</a>
</g>
</g>
<!-- Node1&#45;&gt;Node6 -->
<g id="edge4_Node000001_Node000006" class="edge">
<title>Node1&#45;&gt;Node6</title>
<g id="a_edge4_Node000001_Node000006"><a xlink:title=" ">
<path fill="none" stroke="#63b8ff" d="M74.63,-36.93C90.34,-31.31 113.75,-24.57 136.01,-19.02"/>
<polygon fill="#63b8ff" stroke="#63b8ff" points="136.89,-22.41 145.78,-16.65 135.24,-15.61 136.89,-22.41"/>
</a>
</g>
</g>
<!-- Node1&#45;&gt;Node6 -->
<g id="edge6_Node000001_Node000006" class="edge">
<title>Node1&#45;&gt;Node6</title>
<g id="a_edge6_Node000001_Node000006"><a xlink:title=" ">
<path fill="none" stroke="#63b8ff" d="M110.28,-38.98C130.6,-34.13 152.88,-27.99 169.96,-22.44"/>
<polygon fill="#63b8ff" stroke="#63b8ff" points="171.53,-25.6 179.87,-19.07 169.27,-18.98 171.53,-25.6"/>
</a>
</g>
</g>
</g>
</svg>
