<?xml version="1.0" encoding="UTF-8" standalone="no"?>
<!DOCTYPE svg PUBLIC "-//W3C//DTD SVG 1.1//EN"
 "http://www.w3.org/Graphics/SVG/1.1/DTD/svg11.dtd">
<!-- Generated by graphviz version 2.43.0 (0)
 -->
<!-- Title: checkDisc Pages: 1 -->
<svg width="238pt" height="64pt"
 viewBox="0.00 0.00 238.00 64.00" xmlns="http://www.w3.org/2000/svg" xmlns:xlink="http://www.w3.org/1999/xlink">
<g id="graph0" class="graph" transform="scale(1 1) rotate(0) translate(4 60)">
<title>checkDisc</title>
<!-- Node1 -->
<g id="Node000001" class="node">
<title>Node1</title>
<g id="a_Node000001"><a xlink:href="prototypeCmpSSRDecode_8cpp.html#a592266c46f2e898f258c2c05e9e00dd7" target="_top" xlink:title=" ">
<path fill="#fff0f0" stroke="red" stroke-width="2" d="M223.67,-37C223.67,-37 170.33,-37 170.33,-37 167.17,-37 164,-33.83 164,-30.67 164,-30.67 164,-24.33 164,-24.33 164,-21.17 167.17,-18 170.33,-18 170.33,-18 223.67,-18 223.67,-18 226.83,-18 230,-21.17 230,-24.33 230,-24.33 230,-30.67 230,-30.67 230,-33.83 226.83,-37 223.67,-37"/>
<text text-anchor="middle" x="197" y="-25" font-family="Helvetica,sans-Serif" font-size="10.00">checkDisc</text>
</a>
</g>
</g>
<!-- Node2 -->
<g id="Node000002" class="node">
<title>Node2</title>
<g id="a_Node000002"><a xlink:href="prototypeCmpSSRDecode_8cpp.html#a3faf903027244bcfe5b7368a2fba6eb6" target="_top" xlink:title="Combined code and phase bias (with potential regional biases)">
<path fill="#fff0f0" stroke="red" d="M121.67,-56C121.67,-56 6.33,-56 6.33,-56 3.17,-56 0,-52.83 0,-49.67 0,-49.67 0,-43.33 0,-43.33 0,-40.17 3.17,-37 6.33,-37 6.33,-37 121.67,-37 121.67,-37 124.83,-37 128,-40.17 128,-43.33 128,-43.33 128,-49.67 128,-49.67 128,-52.83 124.83,-56 121.67,-56"/>
<text text-anchor="middle" x="64" y="-44" font-family="Helvetica,sans-Serif" font-size="10.00">decodeSSR_comb_bias</text>
</a>
</g>
</g>
<!-- Node1&#45;&gt;Node2 -->
<g id="edge1_Node000001_Node000002" class="edge">
<title>Node1&#45;&gt;Node2</title>
<g id="a_edge1_Node000001_Node000002"><a xlink:title=" ">
<path fill="none" stroke="#63b8ff" d="M153.91,-33.6C145.71,-34.79 136.94,-36.07 128.23,-37.33"/>
<polygon fill="#63b8ff" stroke="#63b8ff" points="154.56,-37.05 163.95,-32.15 153.55,-30.12 154.56,-37.05"/>
</a>
</g>
</g>
<!-- Node6 -->
<g id="Node000006" class="node">
<title>Node6</title>
<g id="a_Node000006"><a xlink:href="prototypeCmpSSRDecode_8cpp.html#a80ff502a5d165aeb14577439f8ec63fe" target="_top" xlink:title="Compact SSR message type 5: global satellite phase biases.">
<path fill="#fff0f0" stroke="red" d="M120.17,-19C120.17,-19 7.83,-19 7.83,-19 4.67,-19 1.5,-15.83 1.5,-12.67 1.5,-12.67 1.5,-6.33 1.5,-6.33 1.5,-3.17 4.67,0 7.83,0 7.83,0 120.17,0 120.17,0 123.33,0 126.5,-3.17 126.5,-6.33 126.5,-6.33 126.5,-12.67 126.5,-12.67 126.5,-15.83 123.33,-19 120.17,-19"/>
<text text-anchor="middle" x="64" y="-7" font-family="Helvetica,sans-Serif" font-size="10.00">decodeSSR_phas_bias</text>
</a>
</g>
</g>
<!-- Node1&#45;&gt;Node6 -->
<g id="edge2_Node000001_Node000006" class="edge">
<title>Node1&#45;&gt;Node6</title>
<g id="a_edge2_Node000001_Node000006"><a xlink:title=" ">
<path fill="none" stroke="#63b8ff" d="M154.05,-21.74C145.32,-20.54 135.94,-19.25 126.67,-17.97"/>
<polygon fill="#63b8ff" stroke="#63b8ff" points="153.57,-25.2 163.95,-23.1 154.52,-18.27 153.57,-25.2"/>
</a>
</g>
</g>
</g>
</svg>
