<?xml version="1.0" encoding="UTF-8" standalone="no"?>
<!DOCTYPE svg PUBLIC "-//W3C//DTD SVG 1.1//EN"
 "http://www.w3.org/Graphics/SVG/1.1/DTD/svg11.dtd">
<!-- Generated by graphviz version 2.43.0 (0)
 -->
<!-- Title: processServiceData Pages: 1 -->
<svg width="268pt" height="27pt"
 viewBox="0.00 0.00 268.00 27.00" xmlns="http://www.w3.org/2000/svg" xmlns:xlink="http://www.w3.org/1999/xlink">
<g id="graph0" class="graph" transform="scale(1 1) rotate(0) translate(4 23)">
<title>processServiceData</title>
<!-- Node1 -->
<g id="Node000001" class="node">
<title>Node1</title>
<g id="a_Node000001"><a xlink:href="prototypeCmpSSRDecode_8cpp.html#a8167de7b2614ee14859e06539ffa465c" target="_top" xlink:title=" ">
<path fill="#fff0f0" stroke="red" stroke-width="2" d="M253.67,-19C253.67,-19 153.33,-19 153.33,-19 150.17,-19 147,-15.83 147,-12.67 147,-12.67 147,-6.33 147,-6.33 147,-3.17 150.17,0 153.33,0 153.33,0 253.67,0 253.67,0 256.83,0 260,-3.17 260,-6.33 260,-6.33 260,-12.67 260,-12.67 260,-15.83 256.83,-19 253.67,-19"/>
<text text-anchor="middle" x="203.5" y="-7" font-family="Helvetica,sans-Serif" font-size="10.00">processServiceData</text>
</a>
</g>
</g>
<!-- Node2 -->
<g id="Node000002" class="node">
<title>Node2</title>
<g id="a_Node000002"><a xlink:href="prototypeCmpSSRDecode_8cpp.html#a90131daaca413aebd7169b0de323081a" target="_top" xlink:title=" ">
<path fill="#fff0f0" stroke="red" d="M104.67,-19C104.67,-19 6.33,-19 6.33,-19 3.17,-19 0,-15.83 0,-12.67 0,-12.67 0,-6.33 0,-6.33 0,-3.17 3.17,0 6.33,0 6.33,0 104.67,0 104.67,0 107.83,0 111,-3.17 111,-6.33 111,-6.33 111,-12.67 111,-12.67 111,-15.83 107.83,-19 104.67,-19"/>
<text text-anchor="middle" x="55.5" y="-7" font-family="Helvetica,sans-Serif" font-size="10.00">decodeSSR_service</text>
</a>
</g>
</g>
<!-- Node1&#45;&gt;Node2 -->
<g id="edge1_Node000001_Node000002" class="edge">
<title>Node1&#45;&gt;Node2</title>
<g id="a_edge1_Node000001_Node000002"><a xlink:title=" ">
<path fill="none" stroke="#63b8ff" d="M136.7,-9.5C128.27,-9.5 119.71,-9.5 111.48,-9.5"/>
<polygon fill="#63b8ff" stroke="#63b8ff" points="136.89,-13 146.89,-9.5 136.89,-6 136.89,-13"/>
</a>
</g>
</g>
</g>
</svg>
