<?xml version="1.0" encoding="UTF-8" standalone="no"?>
<!DOCTYPE svg PUBLIC "-//W3C//DTD SVG 1.1//EN"
 "http://www.w3.org/Graphics/SVG/1.1/DTD/svg11.dtd">
<!-- Generated by graphviz version 2.43.0 (0)
 -->
<!-- Title: updateNavSSR Pages: 1 -->
<svg width="219pt" height="27pt"
 viewBox="0.00 0.00 219.00 27.00" xmlns="http://www.w3.org/2000/svg" xmlns:xlink="http://www.w3.org/1999/xlink">
<g id="graph0" class="graph" transform="scale(1 1) rotate(0) translate(4 23)">
<title>updateNavSSR</title>
<!-- Node1 -->
<g id="Node000001" class="node">
<title>Node1</title>
<g id="a_Node000001"><a xlink:href="prototypeIgsSSRDecode_8cpp.html#aafb6093d4bf346be57774dbb26ea949d" target="_top" xlink:title=" ">
<path fill="#fff0f0" stroke="red" stroke-width="2" d="M82.67,-19C82.67,-19 6.33,-19 6.33,-19 3.17,-19 0,-15.83 0,-12.67 0,-12.67 0,-6.33 0,-6.33 0,-3.17 3.17,0 6.33,0 6.33,0 82.67,0 82.67,0 85.83,0 89,-3.17 89,-6.33 89,-6.33 89,-12.67 89,-12.67 89,-15.83 85.83,-19 82.67,-19"/>
<text text-anchor="middle" x="44.5" y="-7" font-family="Helvetica,sans-Serif" font-size="10.00">updateNavSSR</text>
</a>
</g>
</g>
<!-- Node2 -->
<g id="Node000002" class="node">
<title>Node2</title>
<g id="a_Node000002"><a xlink:href="biases_8cpp.html#ad7402956db3836fc8dbe7b8b51d04c69" target="_top" xlink:title="Push forward and reverse bias entry into biasMaps.">
<path fill="#fff0f0" stroke="red" d="M204.67,-19C204.67,-19 131.33,-19 131.33,-19 128.17,-19 125,-15.83 125,-12.67 125,-12.67 125,-6.33 125,-6.33 125,-3.17 128.17,0 131.33,0 131.33,0 204.67,0 204.67,0 207.83,0 211,-3.17 211,-6.33 211,-6.33 211,-12.67 211,-12.67 211,-15.83 207.83,-19 204.67,-19"/>
<text text-anchor="middle" x="168" y="-7" font-family="Helvetica,sans-Serif" font-size="10.00">pushBiasEntry</text>
</a>
</g>
</g>
<!-- Node1&#45;&gt;Node2 -->
<g id="edge1_Node000001_Node000002" class="edge">
<title>Node1&#45;&gt;Node2</title>
<g id="a_edge1_Node000001_Node000002"><a xlink:title=" ">
<path fill="none" stroke="#63b8ff" d="M89.02,-3C97.25,-2.76 105.94,-2.69 114.41,-2.8"/>
<polygon fill="#63b8ff" stroke="#63b8ff" points="114.52,-6.31 124.6,-3.03 114.68,0.69 114.52,-6.31"/>
</a>
</g>
</g>
<!-- Node1&#45;&gt;Node2 -->
<g id="edge2_Node000001_Node000002" class="edge">
<title>Node1&#45;&gt;Node2</title>
<g id="a_edge2_Node000001_Node000002"><a xlink:title=" ">
<path fill="none" stroke="#63b8ff" d="M89.02,-16C97.25,-16.24 105.94,-16.31 114.41,-16.2"/>
<polygon fill="#63b8ff" stroke="#63b8ff" points="114.68,-19.69 124.6,-15.97 114.52,-12.69 114.68,-19.69"/>
</a>
</g>
</g>
</g>
</svg>
