<?xml version="1.0" encoding="UTF-8" standalone="no"?>
<!DOCTYPE svg PUBLIC "-//W3C//DTD SVG 1.1//EN"
 "http://www.w3.org/Graphics/SVG/1.1/DTD/svg11.dtd">
<!-- Generated by graphviz version 2.43.0 (0)
 -->
<!-- Title: encodeGridInfo Pages: 1 -->
<svg width="200pt" height="64pt"
 viewBox="0.00 0.00 200.00 64.00" xmlns="http://www.w3.org/2000/svg" xmlns:xlink="http://www.w3.org/1999/xlink">
<g id="graph0" class="graph" transform="scale(1 1) rotate(0) translate(4 60)">
<title>encodeGridInfo</title>
<!-- Node1 -->
<g id="Node000001" class="node">
<title>Node1</title>
<g id="a_Node000001"><a xlink:href="prototypeCmpSSREncode_8cpp.html#a3db0d1bf31ba7b7b0ba6727ef58ca482" target="_top" xlink:title=" ">
<path fill="#fff0f0" stroke="red" stroke-width="2" d="M84.67,-37C84.67,-37 6.33,-37 6.33,-37 3.17,-37 0,-33.83 0,-30.67 0,-30.67 0,-24.33 0,-24.33 0,-21.17 3.17,-18 6.33,-18 6.33,-18 84.67,-18 84.67,-18 87.83,-18 91,-21.17 91,-24.33 91,-24.33 91,-30.67 91,-30.67 91,-33.83 87.83,-37 84.67,-37"/>
<text text-anchor="middle" x="45.5" y="-25" font-family="Helvetica,sans-Serif" font-size="10.00">encodeGridInfo</text>
</a>
</g>
</g>
<!-- Node2 -->
<g id="Node000002" class="node">
<title>Node2</title>
<g id="a_Node000002"><a xlink:href="rtcmEncoder_8cpp.html#af0d5eab5e18729b5d6b67194e94979a0" target="_top" xlink:title="increasingly set unsigned bits to byte data">
<path fill="#fff0f0" stroke="red" d="M185.67,-56C185.67,-56 133.33,-56 133.33,-56 130.17,-56 127,-52.83 127,-49.67 127,-49.67 127,-43.33 127,-43.33 127,-40.17 130.17,-37 133.33,-37 133.33,-37 185.67,-37 185.67,-37 188.83,-37 192,-40.17 192,-43.33 192,-43.33 192,-49.67 192,-49.67 192,-52.83 188.83,-56 185.67,-56"/>
<text text-anchor="middle" x="159.5" y="-44" font-family="Helvetica,sans-Serif" font-size="10.00">setbituInc</text>
</a>
</g>
</g>
<!-- Node1&#45;&gt;Node2 -->
<g id="edge1_Node000001_Node000002" class="edge">
<title>Node1&#45;&gt;Node2</title>
<g id="a_edge1_Node000001_Node000002"><a xlink:title=" ">
<path fill="none" stroke="#63b8ff" d="M91.09,-28.44C102.55,-30.13 114.68,-32.32 125.45,-34.67"/>
<polygon fill="#63b8ff" stroke="#63b8ff" points="124.75,-38.1 135.28,-36.97 126.34,-31.29 124.75,-38.1"/>
</a>
</g>
</g>
<!-- Node1&#45;&gt;Node2 -->
<g id="edge2_Node000001_Node000002" class="edge">
<title>Node1&#45;&gt;Node2</title>
<g id="a_edge2_Node000001_Node000002"><a xlink:title=" ">
<path fill="none" stroke="#63b8ff" d="M69.71,-37.03C83.27,-40.42 100.79,-43.71 116.68,-45.96"/>
<polygon fill="#63b8ff" stroke="#63b8ff" points="116.46,-49.46 126.83,-47.28 117.36,-42.52 116.46,-49.46"/>
</a>
</g>
</g>
<!-- Node4 -->
<g id="Node000004" class="node">
<title>Node4</title>
<g id="a_Node000004"><a xlink:href="rtcmEncoder_8cpp.html#a831abe42902c0ceadba66974c93a637b" target="_top" xlink:title="increasingly set signed bits to byte data">
<path fill="#fff0f0" stroke="red" d="M185.17,-19C185.17,-19 133.83,-19 133.83,-19 130.67,-19 127.5,-15.83 127.5,-12.67 127.5,-12.67 127.5,-6.33 127.5,-6.33 127.5,-3.17 130.67,0 133.83,0 133.83,0 185.17,0 185.17,0 188.33,0 191.5,-3.17 191.5,-6.33 191.5,-6.33 191.5,-12.67 191.5,-12.67 191.5,-15.83 188.33,-19 185.17,-19"/>
<text text-anchor="middle" x="159.5" y="-7" font-family="Helvetica,sans-Serif" font-size="10.00">setbitsInc</text>
</a>
</g>
</g>
<!-- Node1&#45;&gt;Node4 -->
<g id="edge3_Node000001_Node000004" class="edge">
<title>Node1&#45;&gt;Node4</title>
<g id="a_edge3_Node000001_Node000004"><a xlink:title=" ">
<path fill="none" stroke="#63b8ff" d="M70.53,-17.98C84.13,-14.75 101.52,-11.66 117.24,-9.59"/>
<polygon fill="#63b8ff" stroke="#63b8ff" points="117.76,-13.06 127.27,-8.39 116.93,-6.11 117.76,-13.06"/>
</a>
</g>
</g>
<!-- Node1&#45;&gt;Node4 -->
<g id="edge4_Node000001_Node000004" class="edge">
<title>Node1&#45;&gt;Node4</title>
<g id="a_edge4_Node000001_Node000004"><a xlink:title=" ">
<path fill="none" stroke="#63b8ff" d="M91.09,-26.96C102.16,-25.43 113.85,-23.43 124.34,-21.26"/>
<polygon fill="#63b8ff" stroke="#63b8ff" points="125.34,-24.63 134.35,-19.05 123.83,-17.79 125.34,-24.63"/>
</a>
</g>
</g>
</g>
</svg>
