<?xml version="1.0" encoding="UTF-8" standalone="no"?>
<!DOCTYPE svg PUBLIC "-//W3C//DTD SVG 1.1//EN"
 "http://www.w3.org/Graphics/SVG/1.1/DTD/svg11.dtd">
<!-- Generated by graphviz version 2.43.0 (0)
 -->
<!-- Title: decodeSSR_header Pages: 1 -->
<svg width="283pt" height="397pt"
 viewBox="0.00 0.00 283.00 397.00" xmlns="http://www.w3.org/2000/svg" xmlns:xlink="http://www.w3.org/1999/xlink">
<g id="graph0" class="graph" transform="scale(1 1) rotate(0) translate(4 393)">
<title>decodeSSR_header</title>
<!-- Node1 -->
<g id="Node000001" class="node">
<title>Node1</title>
<g id="a_Node000001"><a xlink:href="prototypeCmpSSRDecode_8cpp.html#a282774baece273841d915eca27bcc898" target="_top" xlink:title=" ">
<path fill="#fff0f0" stroke="red" stroke-width="2" d="M268.67,-204C268.67,-204 171.33,-204 171.33,-204 168.17,-204 165,-200.83 165,-197.67 165,-197.67 165,-191.33 165,-191.33 165,-188.17 168.17,-185 171.33,-185 171.33,-185 268.67,-185 268.67,-185 271.83,-185 275,-188.17 275,-191.33 275,-191.33 275,-197.67 275,-197.67 275,-200.83 271.83,-204 268.67,-204"/>
<text text-anchor="middle" x="220" y="-192" font-family="Helvetica,sans-Serif" font-size="10.00">decodeSSR_header</text>
</a>
</g>
</g>
<!-- Node2 -->
<g id="Node000002" class="node">
<title>Node2</title>
<g id="a_Node000002"><a xlink:href="prototypeCmpSSRDecode_8cpp.html#addf598cda6ebf1b393189148608056e1" target="_top" xlink:title="Compact SSR message type 3: global satellite clock offsets.">
<path fill="#fff0f0" stroke="red" d="M108.67,-389C108.67,-389 20.33,-389 20.33,-389 17.17,-389 14,-385.83 14,-382.67 14,-382.67 14,-376.33 14,-376.33 14,-373.17 17.17,-370 20.33,-370 20.33,-370 108.67,-370 108.67,-370 111.83,-370 115,-373.17 115,-376.33 115,-376.33 115,-382.67 115,-382.67 115,-385.83 111.83,-389 108.67,-389"/>
<text text-anchor="middle" x="64.5" y="-377" font-family="Helvetica,sans-Serif" font-size="10.00">decodeSSR_clock</text>
</a>
</g>
</g>
<!-- Node1&#45;&gt;Node2 -->
<g id="edge1_Node000001_Node000002" class="edge">
<title>Node1&#45;&gt;Node2</title>
<g id="a_edge1_Node000001_Node000002"><a xlink:title=" ">
<path fill="none" stroke="#63b8ff" d="M213.93,-214.05C203.85,-249.01 177.9,-322.25 129,-361.5 124.71,-364.94 119.8,-367.73 114.64,-369.98"/>
<polygon fill="#63b8ff" stroke="#63b8ff" points="217.38,-214.7 216.66,-204.13 210.63,-212.85 217.38,-214.7"/>
</a>
</g>
</g>
<!-- Node6 -->
<g id="Node000006" class="node">
<title>Node6</title>
<g id="a_Node000006"><a xlink:href="prototypeCmpSSRDecode_8cpp.html#a3b63ded7b1ecb5ff60f33321c24ea824" target="_top" xlink:title="Compact SSR message type 4: global satellite code biases.">
<path fill="#fff0f0" stroke="red" d="M120.67,-352C120.67,-352 8.33,-352 8.33,-352 5.17,-352 2,-348.83 2,-345.67 2,-345.67 2,-339.33 2,-339.33 2,-336.17 5.17,-333 8.33,-333 8.33,-333 120.67,-333 120.67,-333 123.83,-333 127,-336.17 127,-339.33 127,-339.33 127,-345.67 127,-345.67 127,-348.83 123.83,-352 120.67,-352"/>
<text text-anchor="middle" x="64.5" y="-340" font-family="Helvetica,sans-Serif" font-size="10.00">decodeSSR_code_bias</text>
</a>
</g>
</g>
<!-- Node1&#45;&gt;Node6 -->
<g id="edge2_Node000001_Node000006" class="edge">
<title>Node1&#45;&gt;Node6</title>
<g id="a_edge2_Node000001_Node000006"><a xlink:title=" ">
<path fill="none" stroke="#63b8ff" d="M211.1,-213.25C198.16,-241.65 169.77,-295.35 129,-324.5 124.25,-327.9 118.87,-330.66 113.3,-332.9"/>
<polygon fill="#63b8ff" stroke="#63b8ff" points="214.33,-214.59 215.16,-204.03 207.93,-211.77 214.33,-214.59"/>
</a>
</g>
</g>
<!-- Node7 -->
<g id="Node000007" class="node">
<title>Node7</title>
<g id="a_Node000007"><a xlink:href="prototypeCmpSSRDecode_8cpp.html#a3faf903027244bcfe5b7368a2fba6eb6" target="_top" xlink:title="Combined code and phase bias (with potential regional biases)">
<path fill="#fff0f0" stroke="red" d="M122.17,-315C122.17,-315 6.83,-315 6.83,-315 3.67,-315 0.5,-311.83 0.5,-308.67 0.5,-308.67 0.5,-302.33 0.5,-302.33 0.5,-299.17 3.67,-296 6.83,-296 6.83,-296 122.17,-296 122.17,-296 125.33,-296 128.5,-299.17 128.5,-302.33 128.5,-302.33 128.5,-308.67 128.5,-308.67 128.5,-311.83 125.33,-315 122.17,-315"/>
<text text-anchor="middle" x="64.5" y="-303" font-family="Helvetica,sans-Serif" font-size="10.00">decodeSSR_comb_bias</text>
</a>
</g>
</g>
<!-- Node1&#45;&gt;Node7 -->
<g id="edge3_Node000001_Node000007" class="edge">
<title>Node1&#45;&gt;Node7</title>
<g id="a_edge3_Node000001_Node000007"><a xlink:title=" ">
<path fill="none" stroke="#63b8ff" d="M206.38,-212.39C190.63,-233.42 161.73,-267.92 129,-287.5 123.3,-290.91 116.92,-293.7 110.46,-295.98"/>
<polygon fill="#63b8ff" stroke="#63b8ff" points="209.23,-214.43 212.3,-204.29 203.58,-210.3 209.23,-214.43"/>
</a>
</g>
</g>
<!-- Node8 -->
<g id="Node000008" class="node">
<title>Node8</title>
<g id="a_Node000008"><a xlink:href="prototypeCmpSSRDecode_8cpp.html#aece4231cd6215933cb67f695d1ef9e48" target="_top" xlink:title="Compact SSR message type 11: regional satellite orbits and clock offsets.">
<path fill="#fff0f0" stroke="red" d="M120.17,-278C120.17,-278 8.83,-278 8.83,-278 5.67,-278 2.5,-274.83 2.5,-271.67 2.5,-271.67 2.5,-265.33 2.5,-265.33 2.5,-262.17 5.67,-259 8.83,-259 8.83,-259 120.17,-259 120.17,-259 123.33,-259 126.5,-262.17 126.5,-265.33 126.5,-265.33 126.5,-271.67 126.5,-271.67 126.5,-274.83 123.33,-278 120.17,-278"/>
<text text-anchor="middle" x="64.5" y="-266" font-family="Helvetica,sans-Serif" font-size="10.00">decodeSSR_combined</text>
</a>
</g>
</g>
<!-- Node1&#45;&gt;Node8 -->
<g id="edge4_Node000001_Node000008" class="edge">
<title>Node1&#45;&gt;Node8</title>
<g id="a_edge4_Node000001_Node000008"><a xlink:title=" ">
<path fill="none" stroke="#63b8ff" d="M197.82,-210.07C180.16,-222.45 153.94,-239.47 129,-250.5 121.66,-253.74 113.59,-256.56 105.74,-258.94"/>
<polygon fill="#63b8ff" stroke="#63b8ff" points="200.12,-212.73 206.23,-204.07 196.05,-207.03 200.12,-212.73"/>
</a>
</g>
</g>
<!-- Node9 -->
<g id="Node000009" class="node">
<title>Node9</title>
<g id="a_Node000009"><a xlink:href="prototypeCmpSSRDecode_8cpp.html#abf7b71d9ca319924c1f90e0c9041eab2" target="_top" xlink:title="Compact (polynomial based) atmospheric corrections.">
<path fill="#fff0f0" stroke="red" d="M122.67,-241C122.67,-241 6.33,-241 6.33,-241 3.17,-241 0,-237.83 0,-234.67 0,-234.67 0,-228.33 0,-228.33 0,-225.17 3.17,-222 6.33,-222 6.33,-222 122.67,-222 122.67,-222 125.83,-222 129,-225.17 129,-228.33 129,-228.33 129,-234.67 129,-234.67 129,-237.83 125.83,-241 122.67,-241"/>
<text text-anchor="middle" x="64.5" y="-229" font-family="Helvetica,sans-Serif" font-size="10.00">decodeSSR_comp_ATM</text>
</a>
</g>
</g>
<!-- Node1&#45;&gt;Node9 -->
<g id="edge5_Node000001_Node000009" class="edge">
<title>Node1&#45;&gt;Node9</title>
<g id="a_edge5_Node000001_Node000009"><a xlink:title=" ">
<path fill="none" stroke="#63b8ff" d="M169.53,-206.43C148.7,-211.44 124.8,-217.21 105.16,-221.94"/>
<polygon fill="#63b8ff" stroke="#63b8ff" points="170.57,-209.77 179.47,-204.03 168.93,-202.97 170.57,-209.77"/>
</a>
</g>
</g>
<!-- Node10 -->
<g id="Node000010" class="node">
<title>Node10</title>
<g id="a_Node000010"><a xlink:href="prototypeCmpSSRDecode_8cpp.html#a50839e45f19f77e5908bfd1c9e038846" target="_top" xlink:title="Grid based Ionosphere and troposphere corrections.">
<path fill="#fff0f0" stroke="red" d="M118.67,-204C118.67,-204 10.33,-204 10.33,-204 7.17,-204 4,-200.83 4,-197.67 4,-197.67 4,-191.33 4,-191.33 4,-188.17 7.17,-185 10.33,-185 10.33,-185 118.67,-185 118.67,-185 121.83,-185 125,-188.17 125,-191.33 125,-191.33 125,-197.67 125,-197.67 125,-200.83 121.83,-204 118.67,-204"/>
<text text-anchor="middle" x="64.5" y="-192" font-family="Helvetica,sans-Serif" font-size="10.00">decodeSSR_grid_ATM</text>
</a>
</g>
</g>
<!-- Node1&#45;&gt;Node10 -->
<g id="edge6_Node000001_Node000010" class="edge">
<title>Node1&#45;&gt;Node10</title>
<g id="a_edge6_Node000001_Node000010"><a xlink:title=" ">
<path fill="none" stroke="#63b8ff" d="M154.78,-194.5C144.96,-194.5 134.85,-194.5 125.14,-194.5"/>
<polygon fill="#63b8ff" stroke="#63b8ff" points="154.88,-198 164.88,-194.5 154.88,-191 154.88,-198"/>
</a>
</g>
</g>
<!-- Node11 -->
<g id="Node000011" class="node">
<title>Node11</title>
<g id="a_Node000011"><a xlink:href="prototypeCmpSSRDecode_8cpp.html#ad787861f672809e001877660a38f95c1" target="_top" xlink:title="Compact SSR message type 1: satellite/code mask.">
<path fill="#fff0f0" stroke="red" d="M109.67,-167C109.67,-167 19.33,-167 19.33,-167 16.17,-167 13,-163.83 13,-160.67 13,-160.67 13,-154.33 13,-154.33 13,-151.17 16.17,-148 19.33,-148 19.33,-148 109.67,-148 109.67,-148 112.83,-148 116,-151.17 116,-154.33 116,-154.33 116,-160.67 116,-160.67 116,-163.83 112.83,-167 109.67,-167"/>
<text text-anchor="middle" x="64.5" y="-155" font-family="Helvetica,sans-Serif" font-size="10.00">decodeSSR_mask</text>
</a>
</g>
</g>
<!-- Node1&#45;&gt;Node11 -->
<g id="edge7_Node000001_Node000011" class="edge">
<title>Node1&#45;&gt;Node11</title>
<g id="a_edge7_Node000001_Node000011"><a xlink:title=" ">
<path fill="none" stroke="#63b8ff" d="M169.53,-182.57C148.7,-177.56 124.8,-171.79 105.16,-167.06"/>
<polygon fill="#63b8ff" stroke="#63b8ff" points="168.93,-186.03 179.47,-184.97 170.57,-179.23 168.93,-186.03"/>
</a>
</g>
</g>
<!-- Node12 -->
<g id="Node000012" class="node">
<title>Node12</title>
<g id="a_Node000012"><a xlink:href="prototypeCmpSSRDecode_8cpp.html#ae27b0fff5c7ec85e5baf50ffa6c174dc" target="_top" xlink:title="Compact SSR message type 2: global satellite orbits.">
<path fill="#fff0f0" stroke="red" d="M107.17,-130C107.17,-130 21.83,-130 21.83,-130 18.67,-130 15.5,-126.83 15.5,-123.67 15.5,-123.67 15.5,-117.33 15.5,-117.33 15.5,-114.17 18.67,-111 21.83,-111 21.83,-111 107.17,-111 107.17,-111 110.33,-111 113.5,-114.17 113.5,-117.33 113.5,-117.33 113.5,-123.67 113.5,-123.67 113.5,-126.83 110.33,-130 107.17,-130"/>
<text text-anchor="middle" x="64.5" y="-118" font-family="Helvetica,sans-Serif" font-size="10.00">decodeSSR_orbit</text>
</a>
</g>
</g>
<!-- Node1&#45;&gt;Node12 -->
<g id="edge8_Node000001_Node000012" class="edge">
<title>Node1&#45;&gt;Node12</title>
<g id="a_edge8_Node000001_Node000012"><a xlink:title=" ">
<path fill="none" stroke="#63b8ff" d="M197.43,-179.12C179.72,-167.05 153.64,-150.49 129,-139.5 120.91,-135.89 111.94,-132.73 103.35,-130.08"/>
<polygon fill="#63b8ff" stroke="#63b8ff" points="195.66,-182.15 205.88,-184.97 199.65,-176.4 195.66,-182.15"/>
</a>
</g>
</g>
<!-- Node13 -->
<g id="Node000013" class="node">
<title>Node13</title>
<g id="a_Node000013"><a xlink:href="prototypeCmpSSRDecode_8cpp.html#a80ff502a5d165aeb14577439f8ec63fe" target="_top" xlink:title="Compact SSR message type 5: global satellite phase biases.">
<path fill="#fff0f0" stroke="red" d="M120.67,-93C120.67,-93 8.33,-93 8.33,-93 5.17,-93 2,-89.83 2,-86.67 2,-86.67 2,-80.33 2,-80.33 2,-77.17 5.17,-74 8.33,-74 8.33,-74 120.67,-74 120.67,-74 123.83,-74 127,-77.17 127,-80.33 127,-80.33 127,-86.67 127,-86.67 127,-89.83 123.83,-93 120.67,-93"/>
<text text-anchor="middle" x="64.5" y="-81" font-family="Helvetica,sans-Serif" font-size="10.00">decodeSSR_phas_bias</text>
</a>
</g>
</g>
<!-- Node1&#45;&gt;Node13 -->
<g id="edge9_Node000001_Node000013" class="edge">
<title>Node1&#45;&gt;Node13</title>
<g id="a_edge9_Node000001_Node000013"><a xlink:title=" ">
<path fill="none" stroke="#63b8ff" d="M206.08,-176.61C190.19,-155.87 161.32,-122.03 129,-102.5 122.7,-98.69 115.58,-95.6 108.44,-93.1"/>
<polygon fill="#63b8ff" stroke="#63b8ff" points="203.46,-178.95 212.25,-184.87 209.07,-174.76 203.46,-178.95"/>
</a>
</g>
</g>
<!-- Node14 -->
<g id="Node000014" class="node">
<title>Node14</title>
<g id="a_Node000014"><a xlink:href="prototypeCmpSSRDecode_8cpp.html#a8c718e8df7b25a5dfa2497870e53afd2" target="_top" xlink:title="Compact (polynomial based) salnt TEC maps.">
<path fill="#fff0f0" stroke="red" d="M120.17,-56C120.17,-56 8.83,-56 8.83,-56 5.67,-56 2.5,-52.83 2.5,-49.67 2.5,-49.67 2.5,-43.33 2.5,-43.33 2.5,-40.17 5.67,-37 8.83,-37 8.83,-37 120.17,-37 120.17,-37 123.33,-37 126.5,-40.17 126.5,-43.33 126.5,-43.33 126.5,-49.67 126.5,-49.67 126.5,-52.83 123.33,-56 120.17,-56"/>
<text text-anchor="middle" x="64.5" y="-44" font-family="Helvetica,sans-Serif" font-size="10.00">decodeSSR_slant_TEC</text>
</a>
</g>
</g>
<!-- Node1&#45;&gt;Node14 -->
<g id="edge10_Node000001_Node000014" class="edge">
<title>Node1&#45;&gt;Node14</title>
<g id="a_edge10_Node000001_Node000014"><a xlink:title=" ">
<path fill="none" stroke="#63b8ff" d="M210.81,-175.55C197.67,-147.36 169.2,-94.58 129,-65.5 123.69,-61.66 117.59,-58.58 111.32,-56.13"/>
<polygon fill="#63b8ff" stroke="#63b8ff" points="207.65,-177.06 214.96,-184.74 214.04,-174.18 207.65,-177.06"/>
</a>
</g>
</g>
<!-- Node15 -->
<g id="Node000015" class="node">
<title>Node15</title>
<g id="a_Node000015"><a xlink:href="prototypeCmpSSRDecode_8cpp.html#a3aa3657a509836d3dcba87d23bf860f5" target="_top" xlink:title="User Range Accuracy.">
<path fill="#fff0f0" stroke="red" d="M106.67,-19C106.67,-19 22.33,-19 22.33,-19 19.17,-19 16,-15.83 16,-12.67 16,-12.67 16,-6.33 16,-6.33 16,-3.17 19.17,0 22.33,0 22.33,0 106.67,0 106.67,0 109.83,0 113,-3.17 113,-6.33 113,-6.33 113,-12.67 113,-12.67 113,-15.83 109.83,-19 106.67,-19"/>
<text text-anchor="middle" x="64.5" y="-7" font-family="Helvetica,sans-Serif" font-size="10.00">decodeSSR_URA</text>
</a>
</g>
</g>
<!-- Node1&#45;&gt;Node15 -->
<g id="edge11_Node000001_Node000015" class="edge">
<title>Node1&#45;&gt;Node15</title>
<g id="a_edge11_Node000001_Node000015"><a xlink:title=" ">
<path fill="none" stroke="#63b8ff" d="M213.84,-175.14C203.61,-140.49 177.44,-67.86 129,-28.5 124.18,-24.58 118.56,-21.47 112.71,-19"/>
<polygon fill="#63b8ff" stroke="#63b8ff" points="210.53,-176.28 216.61,-184.96 217.27,-174.38 210.53,-176.28"/>
</a>
</g>
</g>
</g>
</svg>
