<?xml version="1.0" encoding="UTF-8" standalone="no"?>
<!DOCTYPE svg PUBLIC "-//W3C//DTD SVG 1.1//EN"
 "http://www.w3.org/Graphics/SVG/1.1/DTD/svg11.dtd">
<!-- Generated by graphviz version 2.43.0 (0)
 -->
<!-- Title: phaseBiasDiscChk Pages: 1 -->
<svg width="264pt" height="64pt"
 viewBox="0.00 0.00 264.00 64.00" xmlns="http://www.w3.org/2000/svg" xmlns:xlink="http://www.w3.org/1999/xlink">
<g id="graph0" class="graph" transform="scale(1 1) rotate(0) translate(4 60)">
<title>phaseBiasDiscChk</title>
<!-- Node1 -->
<g id="Node000001" class="node">
<title>Node1</title>
<g id="a_Node000001"><a xlink:href="prototypeCmpSSREncode_8cpp.html#a2f7cefae27bafd9b9afc72ae950d2d92" target="_top" xlink:title=" ">
<path fill="#fff0f0" stroke="red" stroke-width="2" d="M249.67,-37C249.67,-37 155.33,-37 155.33,-37 152.17,-37 149,-33.83 149,-30.67 149,-30.67 149,-24.33 149,-24.33 149,-21.17 152.17,-18 155.33,-18 155.33,-18 249.67,-18 249.67,-18 252.83,-18 256,-21.17 256,-24.33 256,-24.33 256,-30.67 256,-30.67 256,-33.83 252.83,-37 249.67,-37"/>
<text text-anchor="middle" x="202.5" y="-25" font-family="Helvetica,sans-Serif" font-size="10.00">phaseBiasDiscChk</text>
</a>
</g>
</g>
<!-- Node2 -->
<g id="Node000002" class="node">
<title>Node2</title>
<g id="a_Node000002"><a xlink:href="prototypeCmpSSREncode_8cpp.html#a46c49d828f858552d52241146c8376d0" target="_top" xlink:title="Encode hybrid code and phase bias message warning 1: Currently only global mode supported.">
<path fill="#fff0f0" stroke="red" d="M105.17,-56C105.17,-56 7.83,-56 7.83,-56 4.67,-56 1.5,-52.83 1.5,-49.67 1.5,-49.67 1.5,-43.33 1.5,-43.33 1.5,-40.17 4.67,-37 7.83,-37 7.83,-37 105.17,-37 105.17,-37 108.33,-37 111.5,-40.17 111.5,-43.33 111.5,-43.33 111.5,-49.67 111.5,-49.67 111.5,-52.83 108.33,-56 105.17,-56"/>
<text text-anchor="middle" x="56.5" y="-44" font-family="Helvetica,sans-Serif" font-size="10.00">encodecompactBIA</text>
</a>
</g>
</g>
<!-- Node1&#45;&gt;Node2 -->
<g id="edge1_Node000001_Node000002" class="edge">
<title>Node1&#45;&gt;Node2</title>
<g id="a_edge1_Node000001_Node000002"><a xlink:title=" ">
<path fill="none" stroke="#63b8ff" d="M138.68,-35.79C129.7,-36.97 120.54,-38.18 111.74,-39.34"/>
<polygon fill="#63b8ff" stroke="#63b8ff" points="139.24,-39.25 148.7,-34.47 138.33,-32.31 139.24,-39.25"/>
</a>
</g>
</g>
<!-- Node6 -->
<g id="Node000006" class="node">
<title>Node6</title>
<g id="a_Node000006"><a xlink:href="prototypeCmpSSREncode_8cpp.html#a1468d4d2dbe32d84739b075117e28a08" target="_top" xlink:title=" ">
<path fill="#fff0f0" stroke="red" d="M106.67,-19C106.67,-19 6.33,-19 6.33,-19 3.17,-19 0,-15.83 0,-12.67 0,-12.67 0,-6.33 0,-6.33 0,-3.17 3.17,0 6.33,0 6.33,0 106.67,0 106.67,0 109.83,0 113,-3.17 113,-6.33 113,-6.33 113,-12.67 113,-12.67 113,-15.83 109.83,-19 106.67,-19"/>
<text text-anchor="middle" x="56.5" y="-7" font-family="Helvetica,sans-Serif" font-size="10.00">encodecompactPHS</text>
</a>
</g>
</g>
<!-- Node1&#45;&gt;Node6 -->
<g id="edge2_Node000001_Node000006" class="edge">
<title>Node1&#45;&gt;Node6</title>
<g id="a_edge2_Node000001_Node000006"><a xlink:title=" ">
<path fill="none" stroke="#63b8ff" d="M138.53,-19.63C130.1,-18.57 121.5,-17.5 113.2,-16.46"/>
<polygon fill="#63b8ff" stroke="#63b8ff" points="138.34,-23.13 148.7,-20.9 139.21,-16.19 138.34,-23.13"/>
</a>
</g>
</g>
</g>
</svg>
