<?xml version="1.0" encoding="UTF-8" standalone="no"?>
<!DOCTYPE svg PUBLIC "-//W3C//DTD SVG 1.1//EN"
 "http://www.w3.org/Graphics/SVG/1.1/DTD/svg11.dtd">
<!-- Generated by graphviz version 2.43.0 (0)
 -->
<!-- Title: readRnxObsB Pages: 1 -->
<svg width="227pt" height="64pt"
 viewBox="0.00 0.00 227.00 64.00" xmlns="http://www.w3.org/2000/svg" xmlns:xlink="http://www.w3.org/1999/xlink">
<g id="graph0" class="graph" transform="scale(1 1) rotate(0) translate(4 60)">
<title>readRnxObsB</title>
<!-- Node1 -->
<g id="Node000001" class="node">
<title>Node1</title>
<g id="a_Node000001"><a xlink:href="rinex_8cpp.html#a7d866c72fe703ad325f166a0126e1791" target="_top" xlink:title="Read rinex obs data body.">
<path fill="#fff0f0" stroke="red" stroke-width="2" d="M76.67,-37C76.67,-37 6.33,-37 6.33,-37 3.17,-37 0,-33.83 0,-30.67 0,-30.67 0,-24.33 0,-24.33 0,-21.17 3.17,-18 6.33,-18 6.33,-18 76.67,-18 76.67,-18 79.83,-18 83,-21.17 83,-24.33 83,-24.33 83,-30.67 83,-30.67 83,-33.83 79.83,-37 76.67,-37"/>
<text text-anchor="middle" x="41.5" y="-25" font-family="Helvetica,sans-Serif" font-size="10.00">readRnxObsB</text>
</a>
</g>
</g>
<!-- Node2 -->
<g id="Node000002" class="node">
<title>Node2</title>
<g id="a_Node000002"><a xlink:href="rinex_8cpp.html#a88f2d75f4dbbc4569d0fc07e474d63cc" target="_top" xlink:title="Decode obs epoch.">
<path fill="#fff0f0" stroke="red" d="M212.67,-56C212.67,-56 125.33,-56 125.33,-56 122.17,-56 119,-52.83 119,-49.67 119,-49.67 119,-43.33 119,-43.33 119,-40.17 122.17,-37 125.33,-37 125.33,-37 212.67,-37 212.67,-37 215.83,-37 219,-40.17 219,-43.33 219,-43.33 219,-49.67 219,-49.67 219,-52.83 215.83,-56 212.67,-56"/>
<text text-anchor="middle" x="169" y="-44" font-family="Helvetica,sans-Serif" font-size="10.00">decodeObsEpoch</text>
</a>
</g>
</g>
<!-- Node1&#45;&gt;Node2 -->
<g id="edge1_Node000001_Node000002" class="edge">
<title>Node1&#45;&gt;Node2</title>
<g id="a_edge1_Node000001_Node000002"><a xlink:title=" ">
<path fill="none" stroke="#63b8ff" d="M83.25,-33.67C91.37,-34.9 100.07,-36.22 108.67,-37.52"/>
<polygon fill="#63b8ff" stroke="#63b8ff" points="108.28,-41 118.7,-39.04 109.33,-34.08 108.28,-41"/>
</a>
</g>
</g>
<!-- Node8 -->
<g id="Node000008" class="node">
<title>Node8</title>
<g id="a_Node000008"><a xlink:href="rinex_8cpp.html#a435e959376f897a6b62de80b86e0d451" target="_top" xlink:title="Decode obs data.">
<path fill="#fff0f0" stroke="red" d="M209.67,-19C209.67,-19 128.33,-19 128.33,-19 125.17,-19 122,-15.83 122,-12.67 122,-12.67 122,-6.33 122,-6.33 122,-3.17 125.17,0 128.33,0 128.33,0 209.67,0 209.67,0 212.83,0 216,-3.17 216,-6.33 216,-6.33 216,-12.67 216,-12.67 216,-15.83 212.83,-19 209.67,-19"/>
<text text-anchor="middle" x="169" y="-7" font-family="Helvetica,sans-Serif" font-size="10.00">decodeObsData</text>
</a>
</g>
</g>
<!-- Node1&#45;&gt;Node8 -->
<g id="edge2_Node000001_Node000008" class="edge">
<title>Node1&#45;&gt;Node8</title>
<g id="a_edge2_Node000001_Node000008"><a xlink:title=" ">
<path fill="none" stroke="#63b8ff" d="M83.25,-21.66C92.38,-20.35 102.23,-18.93 111.87,-17.55"/>
<polygon fill="#63b8ff" stroke="#63b8ff" points="112.4,-21.01 121.8,-16.13 111.4,-14.08 112.4,-21.01"/>
</a>
</g>
</g>
</g>
</svg>
