<?xml version="1.0" encoding="UTF-8" standalone="no"?>
<!DOCTYPE svg PUBLIC "-//W3C//DTD SVG 1.1//EN"
 "http://www.w3.org/Graphics/SVG/1.1/DTD/svg11.dtd">
<!-- Generated by graphviz version 2.43.0 (0)
 -->
<!-- Title: readRnxClk Pages: 1 -->
<svg width="175pt" height="64pt"
 viewBox="0.00 0.00 175.00 64.00" xmlns="http://www.w3.org/2000/svg" xmlns:xlink="http://www.w3.org/1999/xlink">
<g id="graph0" class="graph" transform="scale(1 1) rotate(0) translate(4 60)">
<title>readRnxClk</title>
<!-- Node1 -->
<g id="Node000001" class="node">
<title>Node1</title>
<g id="a_Node000001"><a xlink:href="rinex_8cpp.html#a31dd08ba5cac291e98978728ec29f60c" target="_top" xlink:title="Read rinex clock.">
<path fill="#fff0f0" stroke="red" stroke-width="2" d="M66.67,-19C66.67,-19 6.33,-19 6.33,-19 3.17,-19 0,-15.83 0,-12.67 0,-12.67 0,-6.33 0,-6.33 0,-3.17 3.17,0 6.33,0 6.33,0 66.67,0 66.67,0 69.83,0 73,-3.17 73,-6.33 73,-6.33 73,-12.67 73,-12.67 73,-15.83 69.83,-19 66.67,-19"/>
<text text-anchor="middle" x="36.5" y="-7" font-family="Helvetica,sans-Serif" font-size="10.00">readRnxClk</text>
</a>
</g>
</g>
<!-- Node2 -->
<g id="Node000002" class="node">
<title>Node2</title>
<g id="a_Node000002"><a xlink:href="gTime_8cpp.html#a0080e8d8e9f572cc3a823740536abce4" target="_top" xlink:title=" ">
<path fill="#fff0f0" stroke="red" d="M160.67,-56C160.67,-56 115.33,-56 115.33,-56 112.17,-56 109,-52.83 109,-49.67 109,-49.67 109,-43.33 109,-43.33 109,-40.17 112.17,-37 115.33,-37 115.33,-37 160.67,-37 160.67,-37 163.83,-37 167,-40.17 167,-43.33 167,-43.33 167,-49.67 167,-49.67 167,-52.83 163.83,-56 160.67,-56"/>
<text text-anchor="middle" x="138" y="-44" font-family="Helvetica,sans-Serif" font-size="10.00">str2time</text>
</a>
</g>
</g>
<!-- Node1&#45;&gt;Node2 -->
<g id="edge1_Node000001_Node000002" class="edge">
<title>Node1&#45;&gt;Node2</title>
<g id="a_edge1_Node000001_Node000002"><a xlink:title=" ">
<path fill="none" stroke="#63b8ff" d="M63.12,-19.03C74.87,-23.4 88.98,-28.64 101.71,-33.38"/>
<polygon fill="#63b8ff" stroke="#63b8ff" points="100.52,-36.67 111.12,-36.88 102.96,-30.11 100.52,-36.67"/>
</a>
</g>
</g>
<!-- Node6 -->
<g id="Node000006" class="node">
<title>Node6</title>
<g id="a_Node000006"><a xlink:href="gTime_8cpp.html#aca21817ee2127e89013ae4252c5f9abe" target="_top" xlink:title=" ">
<path fill="#fff0f0" stroke="red" d="M160.17,-19C160.17,-19 115.83,-19 115.83,-19 112.67,-19 109.5,-15.83 109.5,-12.67 109.5,-12.67 109.5,-6.33 109.5,-6.33 109.5,-3.17 112.67,0 115.83,0 115.83,0 160.17,0 160.17,0 163.33,0 166.5,-3.17 166.5,-6.33 166.5,-6.33 166.5,-12.67 166.5,-12.67 166.5,-15.83 163.33,-19 160.17,-19"/>
<text text-anchor="middle" x="138" y="-7" font-family="Helvetica,sans-Serif" font-size="10.00">str2num</text>
</a>
</g>
</g>
<!-- Node1&#45;&gt;Node6 -->
<g id="edge2_Node000001_Node000006" class="edge">
<title>Node1&#45;&gt;Node6</title>
<g id="a_edge2_Node000001_Node000006"><a xlink:title=" ">
<path fill="none" stroke="#63b8ff" d="M73.14,-3C81.62,-2.69 90.71,-2.67 99.28,-2.93"/>
<polygon fill="#63b8ff" stroke="#63b8ff" points="99.26,-6.43 109.41,-3.38 99.58,0.56 99.26,-6.43"/>
</a>
</g>
</g>
<!-- Node1&#45;&gt;Node6 -->
<g id="edge3_Node000001_Node000006" class="edge">
<title>Node1&#45;&gt;Node6</title>
<g id="a_edge3_Node000001_Node000006"><a xlink:title=" ">
<path fill="none" stroke="#63b8ff" d="M73.14,-16C81.62,-16.31 90.71,-16.33 99.28,-16.07"/>
<polygon fill="#63b8ff" stroke="#63b8ff" points="99.58,-19.56 109.41,-15.62 99.26,-12.57 99.58,-19.56"/>
</a>
</g>
</g>
</g>
</svg>
