<?xml version="1.0" encoding="UTF-8" standalone="no"?>
<!DOCTYPE svg PUBLIC "-//W3C//DTD SVG 1.1//EN"
 "http://www.w3.org/Graphics/SVG/1.1/DTD/svg11.dtd">
<!-- Generated by graphviz version 2.43.0 (0)
 -->
<!-- Title: rinexNavHeader Pages: 1 -->
<svg width="247pt" height="101pt"
 viewBox="0.00 0.00 247.00 101.00" xmlns="http://www.w3.org/2000/svg" xmlns:xlink="http://www.w3.org/1999/xlink">
<g id="graph0" class="graph" transform="scale(1 1) rotate(0) translate(4 97)">
<title>rinexNavHeader</title>
<!-- Node1 -->
<g id="Node000001" class="node">
<title>Node1</title>
<g id="a_Node000001"><a xlink:href="rinexNavWrite_8cpp.html#aaab5fb708037f164d86cfa62039eb845" target="_top" xlink:title=" ">
<path fill="#fff0f0" stroke="red" stroke-width="2" d="M89.67,-37C89.67,-37 6.33,-37 6.33,-37 3.17,-37 0,-33.83 0,-30.67 0,-30.67 0,-24.33 0,-24.33 0,-21.17 3.17,-18 6.33,-18 6.33,-18 89.67,-18 89.67,-18 92.83,-18 96,-21.17 96,-24.33 96,-24.33 96,-30.67 96,-30.67 96,-33.83 92.83,-37 89.67,-37"/>
<text text-anchor="middle" x="48" y="-25" font-family="Helvetica,sans-Serif" font-size="10.00">rinexNavHeader</text>
</a>
</g>
</g>
<!-- Node2 -->
<g id="Node000002" class="node">
<title>Node2</title>
<g id="a_Node000002"><a xlink:href="gTime_8cpp.html#abc73cf336f9fa1b3622c933d5925e073" target="_top" xlink:title=" ">
<path fill="#fff0f0" stroke="red" d="M207.17,-93C207.17,-93 163.83,-93 163.83,-93 160.67,-93 157.5,-89.83 157.5,-86.67 157.5,-86.67 157.5,-80.33 157.5,-80.33 157.5,-77.17 160.67,-74 163.83,-74 163.83,-74 207.17,-74 207.17,-74 210.33,-74 213.5,-77.17 213.5,-80.33 213.5,-80.33 213.5,-86.67 213.5,-86.67 213.5,-89.83 210.33,-93 207.17,-93"/>
<text text-anchor="middle" x="185.5" y="-81" font-family="Helvetica,sans-Serif" font-size="10.00">timeGet</text>
</a>
</g>
</g>
<!-- Node1&#45;&gt;Node2 -->
<g id="edge1_Node000001_Node000002" class="edge">
<title>Node1&#45;&gt;Node2</title>
<g id="a_edge1_Node000001_Node000002"><a xlink:title=" ">
<path fill="none" stroke="#63b8ff" d="M68.55,-37.12C85.22,-45.15 109.92,-56.69 132,-65.5 137.09,-67.53 142.51,-69.55 147.86,-71.46"/>
<polygon fill="#63b8ff" stroke="#63b8ff" points="146.74,-74.77 157.33,-74.76 149.04,-68.16 146.74,-74.77"/>
</a>
</g>
</g>
<!-- Node3 -->
<g id="Node000003" class="node">
<title>Node3</title>
<g id="a_Node000003"><a xlink:href="structUtcTime.html#a9ffa79c5435ab388a72e9b10fe433a0e" target="_top" xlink:title=" ">
<path fill="#fff0f0" stroke="red" d="M232.67,-56C232.67,-56 138.33,-56 138.33,-56 135.17,-56 132,-52.83 132,-49.67 132,-49.67 132,-43.33 132,-43.33 132,-40.17 135.17,-37 138.33,-37 138.33,-37 232.67,-37 232.67,-37 235.83,-37 239,-40.17 239,-43.33 239,-43.33 239,-49.67 239,-49.67 239,-52.83 235.83,-56 232.67,-56"/>
<text text-anchor="middle" x="185.5" y="-44" font-family="Helvetica,sans-Serif" font-size="10.00">UtcTime::to_string</text>
</a>
</g>
</g>
<!-- Node1&#45;&gt;Node3 -->
<g id="edge2_Node000001_Node000003" class="edge">
<title>Node1&#45;&gt;Node3</title>
<g id="a_edge2_Node000001_Node000003"><a xlink:title=" ">
<path fill="none" stroke="#63b8ff" d="M96.01,-34.09C104.25,-35.25 112.95,-36.47 121.54,-37.67"/>
<polygon fill="#63b8ff" stroke="#63b8ff" points="121.15,-41.15 131.54,-39.07 122.12,-34.22 121.15,-41.15"/>
</a>
</g>
</g>
<!-- Node5 -->
<g id="Node000005" class="node">
<title>Node5</title>
<g id="a_Node000005"><a xlink:href="rinexObsWrite_8cpp.html#a7392cc91a14f17ab70dd83c89365d9b2" target="_top" xlink:title=" ">
<path fill="#fff0f0" stroke="red" d="M220.67,-19C220.67,-19 150.33,-19 150.33,-19 147.17,-19 144,-15.83 144,-12.67 144,-12.67 144,-6.33 144,-6.33 144,-3.17 147.17,0 150.33,0 150.33,0 220.67,0 220.67,0 223.83,0 227,-3.17 227,-6.33 227,-6.33 227,-12.67 227,-12.67 227,-15.83 223.83,-19 220.67,-19"/>
<text text-anchor="middle" x="185.5" y="-7" font-family="Helvetica,sans-Serif" font-size="10.00">rinexSysDesc</text>
</a>
</g>
</g>
<!-- Node1&#45;&gt;Node5 -->
<g id="edge3_Node000001_Node000005" class="edge">
<title>Node1&#45;&gt;Node5</title>
<g id="a_edge3_Node000001_Node000005"><a xlink:title=" ">
<path fill="none" stroke="#63b8ff" d="M78.07,-17.98C94.27,-14.79 114.92,-11.75 133.71,-9.69"/>
<polygon fill="#63b8ff" stroke="#63b8ff" points="134.32,-13.14 143.92,-8.65 133.61,-6.18 134.32,-13.14"/>
</a>
</g>
</g>
<!-- Node1&#45;&gt;Node5 -->
<g id="edge4_Node000001_Node000005" class="edge">
<title>Node1&#45;&gt;Node5</title>
<g id="a_edge4_Node000001_Node000005"><a xlink:title=" ">
<path fill="none" stroke="#63b8ff" d="M96.01,-27.72C112.03,-26.05 129.77,-23.6 145.13,-20.92"/>
<polygon fill="#63b8ff" stroke="#63b8ff" points="146.14,-24.3 155.33,-19.04 144.86,-17.41 146.14,-24.3"/>
</a>
</g>
</g>
</g>
</svg>
