<?xml version="1.0" encoding="UTF-8" standalone="no"?>
<!DOCTYPE svg PUBLIC "-//W3C//DTD SVG 1.1//EN"
 "http://www.w3.org/Graphics/SVG/1.1/DTD/svg11.dtd">
<!-- Generated by graphviz version 2.43.0 (0)
 -->
<!-- Title: decodeObsData Pages: 1 -->
<svg width="195pt" height="27pt"
 viewBox="0.00 0.00 195.00 27.00" xmlns="http://www.w3.org/2000/svg" xmlns:xlink="http://www.w3.org/1999/xlink">
<g id="graph0" class="graph" transform="scale(1 1) rotate(0) translate(4 23)">
<title>decodeObsData</title>
<!-- Node1 -->
<g id="Node000001" class="node">
<title>Node1</title>
<g id="a_Node000001"><a xlink:href="rinex_8cpp.html#a435e959376f897a6b62de80b86e0d451" target="_top" xlink:title="Decode obs data.">
<path fill="#fff0f0" stroke="red" stroke-width="2" d="M87.67,-19C87.67,-19 6.33,-19 6.33,-19 3.17,-19 0,-15.83 0,-12.67 0,-12.67 0,-6.33 0,-6.33 0,-3.17 3.17,0 6.33,0 6.33,0 87.67,0 87.67,0 90.83,0 94,-3.17 94,-6.33 94,-6.33 94,-12.67 94,-12.67 94,-15.83 90.83,-19 87.67,-19"/>
<text text-anchor="middle" x="47" y="-7" font-family="Helvetica,sans-Serif" font-size="10.00">decodeObsData</text>
</a>
</g>
</g>
<!-- Node2 -->
<g id="Node000002" class="node">
<title>Node2</title>
<g id="a_Node000002"><a xlink:href="gTime_8cpp.html#aca21817ee2127e89013ae4252c5f9abe" target="_top" xlink:title=" ">
<path fill="#fff0f0" stroke="red" d="M180.67,-19C180.67,-19 136.33,-19 136.33,-19 133.17,-19 130,-15.83 130,-12.67 130,-12.67 130,-6.33 130,-6.33 130,-3.17 133.17,0 136.33,0 136.33,0 180.67,0 180.67,0 183.83,0 187,-3.17 187,-6.33 187,-6.33 187,-12.67 187,-12.67 187,-15.83 183.83,-19 180.67,-19"/>
<text text-anchor="middle" x="158.5" y="-7" font-family="Helvetica,sans-Serif" font-size="10.00">str2num</text>
</a>
</g>
</g>
<!-- Node1&#45;&gt;Node2 -->
<g id="edge1_Node000001_Node000002" class="edge">
<title>Node1&#45;&gt;Node2</title>
<g id="a_edge1_Node000001_Node000002"><a xlink:title=" ">
<path fill="none" stroke="#63b8ff" d="M94.12,-2.83C102.67,-2.68 111.5,-2.75 119.77,-3.05"/>
<polygon fill="#63b8ff" stroke="#63b8ff" points="119.7,-6.55 129.86,-3.55 120.04,0.44 119.7,-6.55"/>
</a>
</g>
</g>
<!-- Node1&#45;&gt;Node2 -->
<g id="edge2_Node000001_Node000002" class="edge">
<title>Node1&#45;&gt;Node2</title>
<g id="a_edge2_Node000001_Node000002"><a xlink:title=" ">
<path fill="none" stroke="#63b8ff" d="M94.12,-16.17C102.67,-16.32 111.5,-16.25 119.77,-15.95"/>
<polygon fill="#63b8ff" stroke="#63b8ff" points="120.04,-19.44 129.86,-15.45 119.7,-12.45 120.04,-19.44"/>
</a>
</g>
</g>
</g>
</svg>
