<?xml version="1.0" encoding="UTF-8" standalone="no"?>
<!DOCTYPE svg PUBLIC "-//W3C//DTD SVG 1.1//EN"
 "http://www.w3.org/Graphics/SVG/1.1/DTD/svg11.dtd">
<!-- Generated by graphviz version 2.43.0 (0)
 -->
<!-- Title: decodeObsEpoch Pages: 1 -->
<svg width="202pt" height="64pt"
 viewBox="0.00 0.00 202.00 64.00" xmlns="http://www.w3.org/2000/svg" xmlns:xlink="http://www.w3.org/1999/xlink">
<g id="graph0" class="graph" transform="scale(1 1) rotate(0) translate(4 60)">
<title>decodeObsEpoch</title>
<!-- Node1 -->
<g id="Node000001" class="node">
<title>Node1</title>
<g id="a_Node000001"><a xlink:href="rinex_8cpp.html#a88f2d75f4dbbc4569d0fc07e474d63cc" target="_top" xlink:title="Decode obs epoch.">
<path fill="#fff0f0" stroke="red" stroke-width="2" d="M93.67,-37C93.67,-37 6.33,-37 6.33,-37 3.17,-37 0,-33.83 0,-30.67 0,-30.67 0,-24.33 0,-24.33 0,-21.17 3.17,-18 6.33,-18 6.33,-18 93.67,-18 93.67,-18 96.83,-18 100,-21.17 100,-24.33 100,-24.33 100,-30.67 100,-30.67 100,-33.83 96.83,-37 93.67,-37"/>
<text text-anchor="middle" x="50" y="-25" font-family="Helvetica,sans-Serif" font-size="10.00">decodeObsEpoch</text>
</a>
</g>
</g>
<!-- Node2 -->
<g id="Node000002" class="node">
<title>Node2</title>
<g id="a_Node000002"><a xlink:href="gTime_8cpp.html#aca21817ee2127e89013ae4252c5f9abe" target="_top" xlink:title=" ">
<path fill="#fff0f0" stroke="red" d="M187.17,-56C187.17,-56 142.83,-56 142.83,-56 139.67,-56 136.5,-52.83 136.5,-49.67 136.5,-49.67 136.5,-43.33 136.5,-43.33 136.5,-40.17 139.67,-37 142.83,-37 142.83,-37 187.17,-37 187.17,-37 190.33,-37 193.5,-40.17 193.5,-43.33 193.5,-43.33 193.5,-49.67 193.5,-49.67 193.5,-52.83 190.33,-56 187.17,-56"/>
<text text-anchor="middle" x="165" y="-44" font-family="Helvetica,sans-Serif" font-size="10.00">str2num</text>
</a>
</g>
</g>
<!-- Node1&#45;&gt;Node2 -->
<g id="edge1_Node000001_Node000002" class="edge">
<title>Node1&#45;&gt;Node2</title>
<g id="a_edge1_Node000001_Node000002"><a xlink:title=" ">
<path fill="none" stroke="#63b8ff" d="M100.23,-29.08C110.54,-30.67 121.18,-32.62 130.74,-34.69"/>
<polygon fill="#63b8ff" stroke="#63b8ff" points="130.09,-38.14 140.62,-36.98 131.67,-31.32 130.09,-38.14"/>
</a>
</g>
</g>
<!-- Node1&#45;&gt;Node2 -->
<g id="edge2_Node000001_Node000002" class="edge">
<title>Node1&#45;&gt;Node2</title>
<g id="a_edge2_Node000001_Node000002"><a xlink:title=" ">
<path fill="none" stroke="#63b8ff" d="M74.41,-37.03C89.3,-40.72 108.91,-44.29 125.99,-46.53"/>
<polygon fill="#63b8ff" stroke="#63b8ff" points="125.89,-50.04 136.23,-47.74 126.71,-43.09 125.89,-50.04"/>
</a>
</g>
</g>
<!-- Node3 -->
<g id="Node000003" class="node">
<title>Node3</title>
<g id="a_Node000003"><a xlink:href="gTime_8cpp.html#a0080e8d8e9f572cc3a823740536abce4" target="_top" xlink:title=" ">
<path fill="#fff0f0" stroke="red" d="M187.67,-19C187.67,-19 142.33,-19 142.33,-19 139.17,-19 136,-15.83 136,-12.67 136,-12.67 136,-6.33 136,-6.33 136,-3.17 139.17,0 142.33,0 142.33,0 187.67,0 187.67,0 190.83,0 194,-3.17 194,-6.33 194,-6.33 194,-12.67 194,-12.67 194,-15.83 190.83,-19 187.67,-19"/>
<text text-anchor="middle" x="165" y="-7" font-family="Helvetica,sans-Serif" font-size="10.00">str2time</text>
</a>
</g>
</g>
<!-- Node1&#45;&gt;Node3 -->
<g id="edge3_Node000001_Node000003" class="edge">
<title>Node1&#45;&gt;Node3</title>
<g id="a_edge3_Node000001_Node000003"><a xlink:title=" ">
<path fill="none" stroke="#63b8ff" d="M75.24,-17.98C89.96,-14.51 109.06,-11.21 125.77,-9.16"/>
<polygon fill="#63b8ff" stroke="#63b8ff" points="126.26,-12.63 135.81,-8.06 125.49,-5.67 126.26,-12.63"/>
</a>
</g>
</g>
<!-- Node1&#45;&gt;Node3 -->
<g id="edge4_Node000001_Node000003" class="edge">
<title>Node1&#45;&gt;Node3</title>
<g id="a_edge4_Node000001_Node000003"><a xlink:title=" ">
<path fill="none" stroke="#63b8ff" d="M100.23,-26.36C110.17,-24.91 120.42,-23.13 129.71,-21.23"/>
<polygon fill="#63b8ff" stroke="#63b8ff" points="130.71,-24.59 139.73,-19.03 129.21,-17.75 130.71,-24.59"/>
</a>
</g>
</g>
</g>
</svg>
