<?xml version="1.0" encoding="UTF-8" standalone="no"?>
<!DOCTYPE svg PUBLIC "-//W3C//DTD SVG 1.1//EN"
 "http://www.w3.org/Graphics/SVG/1.1/DTD/svg11.dtd">
<!-- Generated by graphviz version 2.43.0 (0)
 -->
<!-- Title: getKalmanSatClks Pages: 1 -->
<svg width="267pt" height="45pt"
 viewBox="0.00 0.00 267.00 45.00" xmlns="http://www.w3.org/2000/svg" xmlns:xlink="http://www.w3.org/1999/xlink">
<g id="graph0" class="graph" transform="scale(1 1) rotate(0) translate(4 41)">
<title>getKalmanSatClks</title>
<!-- Node1 -->
<g id="Node000001" class="node">
<title>Node1</title>
<g id="a_Node000001"><a xlink:href="rinexClkWrite_8cpp.html#a3e08383c02671eb318fd0b7f768b60c9" target="_top" xlink:title=" ">
<path fill="#fff0f0" stroke="red" stroke-width="2" d="M100.67,-19C100.67,-19 6.33,-19 6.33,-19 3.17,-19 0,-15.83 0,-12.67 0,-12.67 0,-6.33 0,-6.33 0,-3.17 3.17,0 6.33,0 6.33,0 100.67,0 100.67,0 103.83,0 107,-3.17 107,-6.33 107,-6.33 107,-12.67 107,-12.67 107,-15.83 103.83,-19 100.67,-19"/>
<text text-anchor="middle" x="53.5" y="-7" font-family="Helvetica,sans-Serif" font-size="10.00">getKalmanSatClks</text>
</a>
</g>
</g>
<!-- Node2 -->
<g id="Node000002" class="node">
<title>Node2</title>
<g id="a_Node000002"><a xlink:href="structKFState.html#aeca6e3874ad0c94607152d244016582f" target="_top" xlink:title="Returns the value and variance of a state within the kalman filter object.">
<path fill="#fff0f0" stroke="red" d="M252.67,-19C252.67,-19 149.33,-19 149.33,-19 146.17,-19 143,-15.83 143,-12.67 143,-12.67 143,-6.33 143,-6.33 143,-3.17 146.17,0 149.33,0 149.33,0 252.67,0 252.67,0 255.83,0 259,-3.17 259,-6.33 259,-6.33 259,-12.67 259,-12.67 259,-15.83 255.83,-19 252.67,-19"/>
<text text-anchor="middle" x="201" y="-7" font-family="Helvetica,sans-Serif" font-size="10.00">KFState::getKFValue</text>
</a>
</g>
</g>
<!-- Node1&#45;&gt;Node2 -->
<g id="edge1_Node000001_Node000002" class="edge">
<title>Node1&#45;&gt;Node2</title>
<g id="a_edge1_Node000001_Node000002"><a xlink:title=" ">
<path fill="none" stroke="#63b8ff" d="M107.03,-9.5C115.34,-9.5 124.03,-9.5 132.62,-9.5"/>
<polygon fill="#63b8ff" stroke="#63b8ff" points="132.63,-13 142.63,-9.5 132.63,-6 132.63,-13"/>
</a>
</g>
</g>
<!-- Node2&#45;&gt;Node2 -->
<g id="edge2_Node000002_Node000002" class="edge">
<title>Node2&#45;&gt;Node2</title>
<g id="a_edge2_Node000002_Node000002"><a xlink:title=" ">
<path fill="none" stroke="#63b8ff" d="M178.5,-19.08C167.55,-27.73 175.05,-37 201,-37 217.62,-37 226.68,-33.2 228.16,-28.19"/>
<polygon fill="#63b8ff" stroke="#63b8ff" points="231.17,-26.39 223.5,-19.08 224.94,-29.58 231.17,-26.39"/>
</a>
</g>
</g>
</g>
</svg>
