<?xml version="1.0" encoding="UTF-8" standalone="no"?>
<!DOCTYPE svg PUBLIC "-//W3C//DTD SVG 1.1//EN"
 "http://www.w3.org/Graphics/SVG/1.1/DTD/svg11.dtd">
<!-- Generated by graphviz version 2.43.0 (0)
 -->
<!-- Title: decodeNavH Pages: 1 -->
<svg width="180pt" height="27pt"
 viewBox="0.00 0.00 180.00 27.00" xmlns="http://www.w3.org/2000/svg" xmlns:xlink="http://www.w3.org/1999/xlink">
<g id="graph0" class="graph" transform="scale(1 1) rotate(0) translate(4 23)">
<title>decodeNavH</title>
<!-- Node1 -->
<g id="Node000001" class="node">
<title>Node1</title>
<g id="a_Node000001"><a xlink:href="rinex_8cpp.html#a7a60f187ca9defbaa801f242efb7f18b" target="_top" xlink:title="Decode nav header.">
<path fill="#fff0f0" stroke="red" stroke-width="2" d="M72.67,-19C72.67,-19 6.33,-19 6.33,-19 3.17,-19 0,-15.83 0,-12.67 0,-12.67 0,-6.33 0,-6.33 0,-3.17 3.17,0 6.33,0 6.33,0 72.67,0 72.67,0 75.83,0 79,-3.17 79,-6.33 79,-6.33 79,-12.67 79,-12.67 79,-15.83 75.83,-19 72.67,-19"/>
<text text-anchor="middle" x="39.5" y="-7" font-family="Helvetica,sans-Serif" font-size="10.00">decodeNavH</text>
</a>
</g>
</g>
<!-- Node2 -->
<g id="Node000002" class="node">
<title>Node2</title>
<g id="a_Node000002"><a xlink:href="gTime_8cpp.html#aca21817ee2127e89013ae4252c5f9abe" target="_top" xlink:title=" ">
<path fill="#fff0f0" stroke="red" d="M165.67,-19C165.67,-19 121.33,-19 121.33,-19 118.17,-19 115,-15.83 115,-12.67 115,-12.67 115,-6.33 115,-6.33 115,-3.17 118.17,0 121.33,0 121.33,0 165.67,0 165.67,0 168.83,0 172,-3.17 172,-6.33 172,-6.33 172,-12.67 172,-12.67 172,-15.83 168.83,-19 165.67,-19"/>
<text text-anchor="middle" x="143.5" y="-7" font-family="Helvetica,sans-Serif" font-size="10.00">str2num</text>
</a>
</g>
</g>
<!-- Node1&#45;&gt;Node2 -->
<g id="edge1_Node000001_Node000002" class="edge">
<title>Node1&#45;&gt;Node2</title>
<g id="a_edge1_Node000001_Node000002"><a xlink:title=" ">
<path fill="none" stroke="#63b8ff" d="M79.06,-2.93C87.39,-2.68 96.19,-2.69 104.5,-2.95"/>
<polygon fill="#63b8ff" stroke="#63b8ff" points="104.54,-6.45 114.69,-3.41 104.86,0.54 104.54,-6.45"/>
</a>
</g>
</g>
<!-- Node1&#45;&gt;Node2 -->
<g id="edge2_Node000001_Node000002" class="edge">
<title>Node1&#45;&gt;Node2</title>
<g id="a_edge2_Node000001_Node000002"><a xlink:title=" ">
<path fill="none" stroke="#63b8ff" d="M79.06,-16.07C87.39,-16.32 96.19,-16.31 104.5,-16.05"/>
<polygon fill="#63b8ff" stroke="#63b8ff" points="104.86,-19.54 114.69,-15.59 104.54,-12.55 104.86,-19.54"/>
</a>
</g>
</g>
</g>
</svg>
