<?xml version="1.0" encoding="UTF-8" standalone="no"?>
<!DOCTYPE svg PUBLIC "-//W3C//DTD SVG 1.1//EN"
 "http://www.w3.org/Graphics/SVG/1.1/DTD/svg11.dtd">
<!-- Generated by graphviz version 2.43.0 (0)
 -->
<!-- Title: setbitg Pages: 1 -->
<svg width="144pt" height="27pt"
 viewBox="0.00 0.00 144.00 27.00" xmlns="http://www.w3.org/2000/svg" xmlns:xlink="http://www.w3.org/1999/xlink">
<g id="graph0" class="graph" transform="scale(1 1) rotate(0) translate(4 23)">
<title>setbitg</title>
<!-- Node1 -->
<g id="Node000001" class="node">
<title>Node1</title>
<g id="a_Node000001"><a xlink:href="rtcmEncoder_8cpp.html#a8696c8b751f53a8d0ce8f4db8a0d8a51" target="_top" xlink:title="set sign&#45;magnitude bits applied in GLO nav messages">
<path fill="#fff0f0" stroke="red" stroke-width="2" d="M43.67,-19C43.67,-19 6.33,-19 6.33,-19 3.17,-19 0,-15.83 0,-12.67 0,-12.67 0,-6.33 0,-6.33 0,-3.17 3.17,0 6.33,0 6.33,0 43.67,0 43.67,0 46.83,0 50,-3.17 50,-6.33 50,-6.33 50,-12.67 50,-12.67 50,-15.83 46.83,-19 43.67,-19"/>
<text text-anchor="middle" x="25" y="-7" font-family="Helvetica,sans-Serif" font-size="10.00">setbitg</text>
</a>
</g>
</g>
<!-- Node2 -->
<g id="Node000002" class="node">
<title>Node2</title>
<g id="a_Node000002"><a xlink:href="rtcmEncoder_8cpp.html#a393df7297160de63c768839369b3f534" target="_top" xlink:title="set unsigned bits to byte data">
<path fill="#fff0f0" stroke="red" d="M129.67,-19C129.67,-19 92.33,-19 92.33,-19 89.17,-19 86,-15.83 86,-12.67 86,-12.67 86,-6.33 86,-6.33 86,-3.17 89.17,0 92.33,0 92.33,0 129.67,0 129.67,0 132.83,0 136,-3.17 136,-6.33 136,-6.33 136,-12.67 136,-12.67 136,-15.83 132.83,-19 129.67,-19"/>
<text text-anchor="middle" x="111" y="-7" font-family="Helvetica,sans-Serif" font-size="10.00">setbitu</text>
</a>
</g>
</g>
<!-- Node1&#45;&gt;Node2 -->
<g id="edge1_Node000001_Node000002" class="edge">
<title>Node1&#45;&gt;Node2</title>
<g id="a_edge1_Node000001_Node000002"><a xlink:title=" ">
<path fill="none" stroke="#63b8ff" d="M50.3,-3.31C58.22,-2.78 67.17,-2.62 75.69,-2.85"/>
<polygon fill="#63b8ff" stroke="#63b8ff" points="75.61,-6.35 85.76,-3.32 75.93,0.64 75.61,-6.35"/>
</a>
</g>
</g>
<!-- Node1&#45;&gt;Node2 -->
<g id="edge2_Node000001_Node000002" class="edge">
<title>Node1&#45;&gt;Node2</title>
<g id="a_edge2_Node000001_Node000002"><a xlink:title=" ">
<path fill="none" stroke="#63b8ff" d="M50.3,-15.69C58.22,-16.22 67.17,-16.38 75.69,-16.15"/>
<polygon fill="#63b8ff" stroke="#63b8ff" points="75.93,-19.64 85.76,-15.68 75.61,-12.65 75.93,-19.64"/>
</a>
</g>
</g>
</g>
</svg>
