<?xml version="1.0" encoding="UTF-8" standalone="no"?>
<!DOCTYPE svg PUBLIC "-//W3C//DTD SVG 1.1//EN"
 "http://www.w3.org/Graphics/SVG/1.1/DTD/svg11.dtd">
<!-- Generated by graphviz version 2.43.0 (0)
 -->
<!-- Title: uraToClassValue Pages: 1 -->
<svg width="295pt" height="175pt"
 viewBox="0.00 0.00 295.00 175.00" xmlns="http://www.w3.org/2000/svg" xmlns:xlink="http://www.w3.org/1999/xlink">
<g id="graph0" class="graph" transform="scale(1 1) rotate(0) translate(4 171)">
<title>uraToClassValue</title>
<!-- Node1 -->
<g id="Node000001" class="node">
<title>Node1</title>
<g id="a_Node000001"><a xlink:href="rtcmEncoder_8cpp.html#a8f864026b0c62e3310631919384eab44" target="_top" xlink:title="Convert SSR URA to URA_CLASS and URA_VALUE combination, with 3 Msb URA_CLASS and 3Lsb URA_VALUE.">
<path fill="#fff0f0" stroke="red" stroke-width="2" d="M280.67,-93C280.67,-93 197.33,-93 197.33,-93 194.17,-93 191,-89.83 191,-86.67 191,-86.67 191,-80.33 191,-80.33 191,-77.17 194.17,-74 197.33,-74 197.33,-74 280.67,-74 280.67,-74 283.83,-74 287,-77.17 287,-80.33 287,-80.33 287,-86.67 287,-86.67 287,-89.83 283.83,-93 280.67,-93"/>
<text text-anchor="middle" x="239" y="-81" font-family="Helvetica,sans-Serif" font-size="10.00">uraToClassValue</text>
</a>
</g>
</g>
<!-- Node2 -->
<g id="Node000002" class="node">
<title>Node2</title>
<g id="a_Node000002"><a xlink:href="prototypeCmpSSREncode_8cpp.html#a47bc43c7fe02f1df2f66198afbbf509c" target="_top" xlink:title=" ">
<path fill="#fff0f0" stroke="red" d="M128.67,-167C128.67,-167 26.33,-167 26.33,-167 23.17,-167 20,-163.83 20,-160.67 20,-160.67 20,-154.33 20,-154.33 20,-151.17 23.17,-148 26.33,-148 26.33,-148 128.67,-148 128.67,-148 131.83,-148 135,-151.17 135,-154.33 135,-154.33 135,-160.67 135,-160.67 135,-163.83 131.83,-167 128.67,-167"/>
<text text-anchor="middle" x="77.5" y="-155" font-family="Helvetica,sans-Serif" font-size="10.00">encodecompactATM</text>
</a>
</g>
</g>
<!-- Node1&#45;&gt;Node2 -->
<g id="edge1_Node000001_Node000002" class="edge">
<title>Node1&#45;&gt;Node2</title>
<g id="a_edge1_Node000001_Node000002"><a xlink:title=" ">
<path fill="none" stroke="#63b8ff" d="M218.62,-99.57C202.52,-112.16 178.52,-129.21 155,-139.5 147.25,-142.89 138.77,-145.69 130.36,-148"/>
<polygon fill="#63b8ff" stroke="#63b8ff" points="221.08,-102.09 226.7,-93.11 216.71,-96.62 221.08,-102.09"/>
</a>
</g>
</g>
<!-- Node6 -->
<g id="Node000006" class="node">
<title>Node6</title>
<g id="a_Node000006"><a xlink:href="prototypeCmpSSREncode_8cpp.html#a6e9d01bf6b6264bf86f3a1f0e9ca47d5" target="_top" xlink:title=" ">
<path fill="#fff0f0" stroke="red" d="M129.17,-130C129.17,-130 25.83,-130 25.83,-130 22.67,-130 19.5,-126.83 19.5,-123.67 19.5,-123.67 19.5,-117.33 19.5,-117.33 19.5,-114.17 22.67,-111 25.83,-111 25.83,-111 129.17,-111 129.17,-111 132.33,-111 135.5,-114.17 135.5,-117.33 135.5,-117.33 135.5,-123.67 135.5,-123.67 135.5,-126.83 132.33,-130 129.17,-130"/>
<text text-anchor="middle" x="77.5" y="-118" font-family="Helvetica,sans-Serif" font-size="10.00">encodecompactGRD</text>
</a>
</g>
</g>
<!-- Node1&#45;&gt;Node6 -->
<g id="edge2_Node000001_Node000006" class="edge">
<title>Node1&#45;&gt;Node6</title>
<g id="a_edge2_Node000001_Node000006"><a xlink:title=" ">
<path fill="none" stroke="#63b8ff" d="M187.18,-95.29C165.41,-100.34 140.3,-106.16 119.71,-110.94"/>
<polygon fill="#63b8ff" stroke="#63b8ff" points="187.97,-98.7 196.92,-93.03 186.39,-91.88 187.97,-98.7"/>
</a>
</g>
</g>
<!-- Node7 -->
<g id="Node000007" class="node">
<title>Node7</title>
<g id="a_Node000007"><a xlink:href="prototypeCmpSSREncode_8cpp.html#a9cf0998d7d65a64e05e6f918213f78fa" target="_top" xlink:title=" ">
<path fill="#fff0f0" stroke="red" d="M127.67,-93C127.67,-93 27.33,-93 27.33,-93 24.17,-93 21,-89.83 21,-86.67 21,-86.67 21,-80.33 21,-80.33 21,-77.17 24.17,-74 27.33,-74 27.33,-74 127.67,-74 127.67,-74 130.83,-74 134,-77.17 134,-80.33 134,-80.33 134,-86.67 134,-86.67 134,-89.83 130.83,-93 127.67,-93"/>
<text text-anchor="middle" x="77.5" y="-81" font-family="Helvetica,sans-Serif" font-size="10.00">encodecompactTEC</text>
</a>
</g>
</g>
<!-- Node1&#45;&gt;Node7 -->
<g id="edge3_Node000001_Node000007" class="edge">
<title>Node1&#45;&gt;Node7</title>
<g id="a_edge3_Node000001_Node000007"><a xlink:title=" ">
<path fill="none" stroke="#63b8ff" d="M180.37,-83.5C165.31,-83.5 149.12,-83.5 134.17,-83.5"/>
<polygon fill="#63b8ff" stroke="#63b8ff" points="180.58,-87 190.58,-83.5 180.58,-80 180.58,-87"/>
</a>
</g>
</g>
<!-- Node8 -->
<g id="Node000008" class="node">
<title>Node8</title>
<g id="a_Node000008"><a xlink:href="prototypeIgsSSREncode_8cpp.html#abe906d6281cf96f532c4c915582eed18" target="_top" xlink:title=" ">
<path fill="#fff0f0" stroke="red" d="M118.67,-56C118.67,-56 36.33,-56 36.33,-56 33.17,-56 30,-52.83 30,-49.67 30,-49.67 30,-43.33 30,-43.33 30,-40.17 33.17,-37 36.33,-37 36.33,-37 118.67,-37 118.67,-37 121.83,-37 125,-40.17 125,-43.33 125,-43.33 125,-49.67 125,-49.67 125,-52.83 121.83,-56 118.67,-56"/>
<text text-anchor="middle" x="77.5" y="-44" font-family="Helvetica,sans-Serif" font-size="10.00">encodeIGS_URA</text>
</a>
</g>
</g>
<!-- Node1&#45;&gt;Node8 -->
<g id="edge4_Node000001_Node000008" class="edge">
<title>Node1&#45;&gt;Node8</title>
<g id="a_edge4_Node000001_Node000008"><a xlink:title=" ">
<path fill="none" stroke="#63b8ff" d="M187.18,-71.71C165.41,-66.66 140.3,-60.84 119.71,-56.06"/>
<polygon fill="#63b8ff" stroke="#63b8ff" points="186.39,-75.12 196.92,-73.97 187.97,-68.3 186.39,-75.12"/>
</a>
</g>
</g>
<!-- Node9 -->
<g id="Node000009" class="node">
<title>Node9</title>
<g id="a_Node000009"><a xlink:href="structRtcmEncoder.html#a4fe1b66c1ca3051c79202253abf15099" target="_top" xlink:title="encode URA messages">
<path fill="#fff0f0" stroke="red" d="M148.67,-19C148.67,-19 6.33,-19 6.33,-19 3.17,-19 0,-15.83 0,-12.67 0,-12.67 0,-6.33 0,-6.33 0,-3.17 3.17,0 6.33,0 6.33,0 148.67,0 148.67,0 151.83,0 155,-3.17 155,-6.33 155,-6.33 155,-12.67 155,-12.67 155,-15.83 151.83,-19 148.67,-19"/>
<text text-anchor="middle" x="77.5" y="-7" font-family="Helvetica,sans-Serif" font-size="10.00">RtcmEncoder::encodeSsrUra</text>
</a>
</g>
</g>
<!-- Node1&#45;&gt;Node9 -->
<g id="edge5_Node000001_Node000009" class="edge">
<title>Node1&#45;&gt;Node9</title>
<g id="a_edge5_Node000001_Node000009"><a xlink:title=" ">
<path fill="none" stroke="#63b8ff" d="M218.26,-67.59C202.11,-55.3 178.23,-38.72 155,-28.5 146.36,-24.7 136.81,-21.57 127.49,-19.02"/>
<polygon fill="#63b8ff" stroke="#63b8ff" points="216.34,-70.54 226.38,-73.91 220.64,-65.01 216.34,-70.54"/>
</a>
</g>
</g>
</g>
</svg>
