<?xml version="1.0" encoding="UTF-8" standalone="no"?>
<!DOCTYPE svg PUBLIC "-//W3C//DTD SVG 1.1//EN"
 "http://www.w3.org/Graphics/SVG/1.1/DTD/svg11.dtd">
<!-- Generated by graphviz version 2.43.0 (0)
 -->
<!-- Title: getbitu Pages: 1 -->
<svg width="509pt" height="312pt"
 viewBox="0.00 0.00 509.00 311.80" xmlns="http://www.w3.org/2000/svg" xmlns:xlink="http://www.w3.org/1999/xlink">
<g id="graph0" class="graph" transform="scale(1 1) rotate(0) translate(4 307.8)">
<title>getbitu</title>
<!-- Node1 -->
<g id="Node000001" class="node">
<title>Node1</title>
<g id="a_Node000001"><a xlink:href="rtcmDecoder_8cpp.html#a85a03123ae20efc3b06434f616140943" target="_top" xlink:title="extract unsigned bits from byte data">
<path fill="#fff0f0" stroke="red" stroke-width="2" d="M494.67,-169C494.67,-169 456.33,-169 456.33,-169 453.17,-169 450,-165.83 450,-162.67 450,-162.67 450,-156.33 450,-156.33 450,-153.17 453.17,-150 456.33,-150 456.33,-150 494.67,-150 494.67,-150 497.83,-150 501,-153.17 501,-156.33 501,-156.33 501,-162.67 501,-162.67 501,-165.83 497.83,-169 494.67,-169"/>
<text text-anchor="middle" x="475.5" y="-157" font-family="Helvetica,sans-Serif" font-size="10.00">getbitu</text>
</a>
</g>
</g>
<!-- Node2 -->
<g id="Node000002" class="node">
<title>Node2</title>
<g id="a_Node000002"><a xlink:href="structRtcmDecoder.html#a34dfe8bbed06d1cabb0fed2899584dfd" target="_top" xlink:title=" ">
<path fill="#fff0f0" stroke="red" d="M258.67,-243C258.67,-243 147.33,-243 147.33,-243 144.17,-243 141,-239.83 141,-236.67 141,-236.67 141,-230.33 141,-230.33 141,-227.17 144.17,-224 147.33,-224 147.33,-224 258.67,-224 258.67,-224 261.83,-224 265,-227.17 265,-230.33 265,-230.33 265,-236.67 265,-236.67 265,-239.83 261.83,-243 258.67,-243"/>
<text text-anchor="middle" x="203" y="-231" font-family="Helvetica,sans-Serif" font-size="10.00">RtcmDecoder::decode</text>
</a>
</g>
</g>
<!-- Node1&#45;&gt;Node2 -->
<g id="edge1_Node000001_Node000002" class="edge">
<title>Node1&#45;&gt;Node2</title>
<g id="a_edge1_Node000001_Node000002"><a xlink:title=" ">
<path fill="none" stroke="#63b8ff" d="M471.89,-179.37C466.77,-209.31 452.34,-265.05 414,-289.5 347.82,-331.69 250.55,-268.35 216.4,-243.12"/>
<polygon fill="#63b8ff" stroke="#63b8ff" points="475.38,-179.7 473.43,-169.29 468.46,-178.64 475.38,-179.7"/>
</a>
</g>
</g>
<!-- Node3 -->
<g id="Node000003" class="node">
<title>Node3</title>
<g id="a_Node000003"><a xlink:href="structRtcmParser.html#a6138840942a03f0a06ecb288ab412716" target="_top" xlink:title=" ">
<path fill="#fff0f0" stroke="red" d="M98.67,-164C98.67,-164 6.33,-164 6.33,-164 3.17,-164 0,-160.83 0,-157.67 0,-157.67 0,-151.33 0,-151.33 0,-148.17 3.17,-145 6.33,-145 6.33,-145 98.67,-145 98.67,-145 101.83,-145 105,-148.17 105,-151.33 105,-151.33 105,-157.67 105,-157.67 105,-160.83 101.83,-164 98.67,-164"/>
<text text-anchor="middle" x="52.5" y="-152" font-family="Helvetica,sans-Serif" font-size="10.00">RtcmParser::parse</text>
</a>
</g>
</g>
<!-- Node1&#45;&gt;Node3 -->
<g id="edge14_Node000001_Node000003" class="edge">
<title>Node1&#45;&gt;Node3</title>
<g id="a_edge14_Node000001_Node000003"><a xlink:title=" ">
<path fill="none" stroke="#63b8ff" d="M468.36,-140.38C460.03,-118.03 442.79,-82.12 414,-66.5 290.55,0.47 115.93,-110.43 66.81,-144.83"/>
<polygon fill="#63b8ff" stroke="#63b8ff" points="465.06,-141.55 471.66,-149.84 471.67,-139.25 465.06,-141.55"/>
</a>
</g>
</g>
<!-- Node4 -->
<g id="Node000004" class="node">
<title>Node4</title>
<g id="a_Node000004"><a xlink:href="prototypeCmpSSRDecode_8cpp.html#a64568502e5d54f952257863f6a753f7d" target="_top" xlink:title=" ">
<path fill="#fff0f0" stroke="red" d="M407.67,-280C407.67,-280 307.33,-280 307.33,-280 304.17,-280 301,-276.83 301,-273.67 301,-273.67 301,-267.33 301,-267.33 301,-264.17 304.17,-261 307.33,-261 307.33,-261 407.67,-261 407.67,-261 410.83,-261 414,-264.17 414,-267.33 414,-267.33 414,-273.67 414,-273.67 414,-276.83 410.83,-280 407.67,-280"/>
<text text-anchor="middle" x="357.5" y="-268" font-family="Helvetica,sans-Serif" font-size="10.00">decodecompactSSR</text>
</a>
</g>
</g>
<!-- Node1&#45;&gt;Node4 -->
<g id="edge3_Node000001_Node000004" class="edge">
<title>Node1&#45;&gt;Node4</title>
<g id="a_edge3_Node000001_Node000004"><a xlink:title=" ">
<path fill="none" stroke="#63b8ff" d="M466.86,-178.42C457.44,-199.43 439.49,-232.97 414,-252.5 409.58,-255.89 404.49,-258.65 399.24,-260.9"/>
<polygon fill="#63b8ff" stroke="#63b8ff" points="470.08,-179.79 470.79,-169.22 463.64,-177.04 470.08,-179.79"/>
</a>
</g>
</g>
<!-- Node5 -->
<g id="Node000005" class="node">
<title>Node5</title>
<g id="a_Node000005"><a xlink:href="prototypeIgsSSRDecode_8cpp.html#a877c5fcee94f02d79c72ae82b423a701" target="_top" xlink:title=" ">
<path fill="#fff0f0" stroke="red" d="M393.67,-243C393.67,-243 321.33,-243 321.33,-243 318.17,-243 315,-239.83 315,-236.67 315,-236.67 315,-230.33 315,-230.33 315,-227.17 318.17,-224 321.33,-224 321.33,-224 393.67,-224 393.67,-224 396.83,-224 400,-227.17 400,-230.33 400,-230.33 400,-236.67 400,-236.67 400,-239.83 396.83,-243 393.67,-243"/>
<text text-anchor="middle" x="357.5" y="-231" font-family="Helvetica,sans-Serif" font-size="10.00">decodeigsSSR</text>
</a>
</g>
</g>
<!-- Node1&#45;&gt;Node5 -->
<g id="edge6_Node000001_Node000005" class="edge">
<title>Node1&#45;&gt;Node5</title>
<g id="a_edge6_Node000001_Node000005"><a xlink:title=" ">
<path fill="none" stroke="#63b8ff" d="M459.47,-176.97C448.08,-189.26 431.46,-205.27 414,-215.5 408.32,-218.83 401.95,-221.63 395.6,-223.95"/>
<polygon fill="#63b8ff" stroke="#63b8ff" points="462.39,-178.96 466.47,-169.18 457.18,-174.28 462.39,-178.96"/>
</a>
</g>
</g>
<!-- Node6 -->
<g id="Node000006" class="node">
<title>Node6</title>
<g id="a_Node000006"><a xlink:href="rtcmDecoder_8cpp.html#a48a309e0f4832dd7f5025c0717c5c645" target="_top" xlink:title="extract sign&#45;magnitude bits applied in GLO nav messages from byte data">
<path fill="#fff0f0" stroke="red" d="M376.67,-206C376.67,-206 338.33,-206 338.33,-206 335.17,-206 332,-202.83 332,-199.67 332,-199.67 332,-193.33 332,-193.33 332,-190.17 335.17,-187 338.33,-187 338.33,-187 376.67,-187 376.67,-187 379.83,-187 383,-190.17 383,-193.33 383,-193.33 383,-199.67 383,-199.67 383,-202.83 379.83,-206 376.67,-206"/>
<text text-anchor="middle" x="357.5" y="-194" font-family="Helvetica,sans-Serif" font-size="10.00">getbitg</text>
</a>
</g>
</g>
<!-- Node1&#45;&gt;Node6 -->
<g id="edge8_Node000001_Node000006" class="edge">
<title>Node1&#45;&gt;Node6</title>
<g id="a_edge8_Node000001_Node000006"><a xlink:title=" ">
<path fill="none" stroke="#63b8ff" d="M440.16,-170.45C421.82,-176.3 399.67,-183.37 383.07,-188.66"/>
<polygon fill="#63b8ff" stroke="#63b8ff" points="441.44,-173.72 449.9,-167.35 439.31,-167.05 441.44,-173.72"/>
</a>
</g>
</g>
<!-- Node10 -->
<g id="Node000010" class="node">
<title>Node10</title>
<g id="a_Node000010"><a xlink:href="rtcmDecoder_8cpp.html#a2b4fecad74db6a33e3e755d5c55245ad" target="_top" xlink:title="extract signed bits from byte data">
<path fill="#fff0f0" stroke="red" d="M376.17,-169C376.17,-169 338.83,-169 338.83,-169 335.67,-169 332.5,-165.83 332.5,-162.67 332.5,-162.67 332.5,-156.33 332.5,-156.33 332.5,-153.17 335.67,-150 338.83,-150 338.83,-150 376.17,-150 376.17,-150 379.33,-150 382.5,-153.17 382.5,-156.33 382.5,-156.33 382.5,-162.67 382.5,-162.67 382.5,-165.83 379.33,-169 376.17,-169"/>
<text text-anchor="middle" x="357.5" y="-157" font-family="Helvetica,sans-Serif" font-size="10.00">getbits</text>
</a>
</g>
</g>
<!-- Node1&#45;&gt;Node10 -->
<g id="edge9_Node000001_Node000010" class="edge">
<title>Node1&#45;&gt;Node10</title>
<g id="a_edge9_Node000001_Node000010"><a xlink:title=" ">
<path fill="none" stroke="#63b8ff" d="M439.84,-159.5C421.41,-159.5 399.21,-159.5 382.67,-159.5"/>
<polygon fill="#63b8ff" stroke="#63b8ff" points="439.9,-163 449.9,-159.5 439.9,-156 439.9,-163"/>
</a>
</g>
</g>
<!-- Node37 -->
<g id="Node000037" class="node">
<title>Node37</title>
<g id="a_Node000037"><a xlink:href="rtcmDecoder_8cpp.html#ad48f005e9a609843e1616f9267a27d29" target="_top" xlink:title="extract unsigned bits from RTCM messages">
<path fill="#fff0f0" stroke="red" d="M376.67,-132C376.67,-132 338.33,-132 338.33,-132 335.17,-132 332,-128.83 332,-125.67 332,-125.67 332,-119.33 332,-119.33 332,-116.17 335.17,-113 338.33,-113 338.33,-113 376.67,-113 376.67,-113 379.83,-113 383,-116.17 383,-119.33 383,-119.33 383,-125.67 383,-125.67 383,-128.83 379.83,-132 376.67,-132"/>
<text text-anchor="middle" x="357.5" y="-120" font-family="Helvetica,sans-Serif" font-size="10.00">getbitu</text>
</a>
</g>
</g>
<!-- Node1&#45;&gt;Node37 -->
<g id="edge10_Node000001_Node000037" class="edge">
<title>Node1&#45;&gt;Node37</title>
<g id="a_edge10_Node000001_Node000037"><a xlink:title=" ">
<path fill="none" stroke="#63b8ff" d="M440.16,-148.55C421.82,-142.7 399.67,-135.63 383.07,-130.34"/>
<polygon fill="#63b8ff" stroke="#63b8ff" points="439.31,-151.95 449.9,-151.65 441.44,-145.28 439.31,-151.95"/>
</a>
</g>
</g>
<!-- Node38 -->
<g id="Node000038" class="node">
<title>Node38</title>
<g id="a_Node000038"><a xlink:href="rtcmDecoder_8cpp.html#aaa6463f592ed6478626814466d3d02a5" target="_top" xlink:title="increasingly extract unsigned bits from byte data">
<path fill="#fff0f0" stroke="red" d="M383.67,-95C383.67,-95 331.33,-95 331.33,-95 328.17,-95 325,-91.83 325,-88.67 325,-88.67 325,-82.33 325,-82.33 325,-79.17 328.17,-76 331.33,-76 331.33,-76 383.67,-76 383.67,-76 386.83,-76 390,-79.17 390,-82.33 390,-82.33 390,-88.67 390,-88.67 390,-91.83 386.83,-95 383.67,-95"/>
<text text-anchor="middle" x="357.5" y="-83" font-family="Helvetica,sans-Serif" font-size="10.00">getbituInc</text>
</a>
</g>
</g>
<!-- Node1&#45;&gt;Node38 -->
<g id="edge11_Node000001_Node000038" class="edge">
<title>Node1&#45;&gt;Node38</title>
<g id="a_edge11_Node000001_Node000038"><a xlink:title=" ">
<path fill="none" stroke="#63b8ff" d="M459.47,-142.03C448.08,-129.74 431.46,-113.73 414,-103.5 406.66,-99.2 398.16,-95.78 390.05,-93.13"/>
<polygon fill="#63b8ff" stroke="#63b8ff" points="457.18,-144.72 466.47,-149.82 462.39,-140.04 457.18,-144.72"/>
</a>
</g>
</g>
<!-- Node23 -->
<g id="Node000023" class="node">
<title>Node23</title>
<g id="a_Node000023"><a xlink:href="prototypeCmpSSRDecode_8cpp.html#a8167de7b2614ee14859e06539ffa465c" target="_top" xlink:title=" ">
<path fill="#fff0f0" stroke="red" d="M407.67,-19C407.67,-19 307.33,-19 307.33,-19 304.17,-19 301,-15.83 301,-12.67 301,-12.67 301,-6.33 301,-6.33 301,-3.17 304.17,0 307.33,0 307.33,0 407.67,0 407.67,0 410.83,0 414,-3.17 414,-6.33 414,-6.33 414,-12.67 414,-12.67 414,-15.83 410.83,-19 407.67,-19"/>
<text text-anchor="middle" x="357.5" y="-7" font-family="Helvetica,sans-Serif" font-size="10.00">processServiceData</text>
</a>
</g>
</g>
<!-- Node1&#45;&gt;Node23 -->
<g id="edge15_Node000001_Node000023" class="edge">
<title>Node1&#45;&gt;Node23</title>
<g id="a_edge15_Node000001_Node000023"><a xlink:title=" ">
<path fill="none" stroke="#63b8ff" d="M469.8,-140.06C462.31,-112.89 445.21,-63.5 414,-33.5 407.57,-27.32 399.29,-22.59 391.1,-19.04"/>
<polygon fill="#63b8ff" stroke="#63b8ff" points="466.46,-141.13 472.36,-149.92 473.23,-139.37 466.46,-141.13"/>
</a>
</g>
</g>
<!-- Node2&#45;&gt;Node3 -->
<g id="edge2_Node000002_Node000003" class="edge">
<title>Node2&#45;&gt;Node3</title>
<g id="a_edge2_Node000002_Node000003"><a xlink:title=" ">
<path fill="none" stroke="#63b8ff" d="M175,-219.14C144.96,-203.16 97.27,-177.78 71.48,-164.06"/>
<polygon fill="#63b8ff" stroke="#63b8ff" points="173.62,-222.36 184.09,-223.97 176.9,-216.18 173.62,-222.36"/>
</a>
</g>
</g>
<!-- Node4&#45;&gt;Node2 -->
<g id="edge4_Node000004_Node000002" class="edge">
<title>Node4&#45;&gt;Node2</title>
<g id="a_edge4_Node000004_Node000002"><a xlink:title=" ">
<path fill="none" stroke="#63b8ff" d="M307.35,-258.57C286.66,-253.56 262.91,-247.79 243.4,-243.06"/>
<polygon fill="#63b8ff" stroke="#63b8ff" points="306.68,-262.02 317.23,-260.97 308.33,-255.21 306.68,-262.02"/>
</a>
</g>
</g>
<!-- Node4&#45;&gt;Node3 -->
<g id="edge5_Node000004_Node000003" class="edge">
<title>Node4&#45;&gt;Node3</title>
<g id="a_edge5_Node000004_Node000003"><a xlink:title=" ">
<path fill="none" stroke="#63b8ff" d="M309.29,-257.01C306.41,-255.63 303.62,-254.13 301,-252.5 281.52,-240.38 284.68,-227.3 265,-215.5 215.18,-185.64 149.96,-169.73 105.19,-161.74"/>
<polygon fill="#63b8ff" stroke="#63b8ff" points="308.1,-260.3 318.67,-260.98 310.83,-253.86 308.1,-260.3"/>
</a>
</g>
</g>
<!-- Node5&#45;&gt;Node2 -->
<g id="edge7_Node000005_Node000002" class="edge">
<title>Node5&#45;&gt;Node2</title>
<g id="a_edge7_Node000005_Node000002"><a xlink:title=" ">
<path fill="none" stroke="#63b8ff" d="M304.45,-233.5C291.78,-233.5 278.12,-233.5 265.07,-233.5"/>
<polygon fill="#63b8ff" stroke="#63b8ff" points="304.83,-237 314.83,-233.5 304.83,-230 304.83,-237"/>
</a>
</g>
</g>
<!-- Node38&#45;&gt;Node2 -->
<g id="edge12_Node000038_Node000002" class="edge">
<title>Node38&#45;&gt;Node2</title>
<g id="a_edge12_Node000038_Node000002"><a xlink:title=" ">
<path fill="none" stroke="#63b8ff" d="M315.21,-95.68C310.19,-97.83 305.32,-100.41 301,-103.5 254.3,-136.96 220.43,-199.64 208.6,-223.73"/>
<polygon fill="#63b8ff" stroke="#63b8ff" points="316.8,-98.82 324.95,-92.06 314.36,-92.26 316.8,-98.82"/>
</a>
</g>
</g>
<!-- Node38&#45;&gt;Node3 -->
<g id="edge13_Node000038_Node000003" class="edge">
<title>Node38&#45;&gt;Node3</title>
<g id="a_edge13_Node000038_Node000003"><a xlink:title=" ">
<path fill="none" stroke="#63b8ff" d="M315.05,-94.94C257.33,-108.08 153.3,-131.77 95.36,-144.97"/>
<polygon fill="#63b8ff" stroke="#63b8ff" points="315.96,-98.32 324.93,-92.69 314.4,-91.5 315.96,-98.32"/>
</a>
</g>
</g>
</g>
</svg>
