<?xml version="1.0" encoding="UTF-8" standalone="no"?>
<!DOCTYPE svg PUBLIC "-//W3C//DTD SVG 1.1//EN"
 "http://www.w3.org/Graphics/SVG/1.1/DTD/svg11.dtd">
<!-- Generated by graphviz version 2.43.0 (0)
 -->
<!-- Title: setbitu Pages: 1 -->
<svg width="159pt" height="64pt"
 viewBox="0.00 0.00 159.00 64.00" xmlns="http://www.w3.org/2000/svg" xmlns:xlink="http://www.w3.org/1999/xlink">
<g id="graph0" class="graph" transform="scale(1 1) rotate(0) translate(4 60)">
<title>setbitu</title>
<!-- Node1 -->
<g id="Node000001" class="node">
<title>Node1</title>
<g id="a_Node000001"><a xlink:href="rtcmEncoder_8cpp.html#a393df7297160de63c768839369b3f534" target="_top" xlink:title="set unsigned bits to byte data">
<path fill="#fff0f0" stroke="red" stroke-width="2" d="M144.67,-37C144.67,-37 107.33,-37 107.33,-37 104.17,-37 101,-33.83 101,-30.67 101,-30.67 101,-24.33 101,-24.33 101,-21.17 104.17,-18 107.33,-18 107.33,-18 144.67,-18 144.67,-18 147.83,-18 151,-21.17 151,-24.33 151,-24.33 151,-30.67 151,-30.67 151,-33.83 147.83,-37 144.67,-37"/>
<text text-anchor="middle" x="126" y="-25" font-family="Helvetica,sans-Serif" font-size="10.00">setbitu</text>
</a>
</g>
</g>
<!-- Node2 -->
<g id="Node000002" class="node">
<title>Node2</title>
<g id="a_Node000002"><a xlink:href="rtcmEncoder_8cpp.html#a8696c8b751f53a8d0ce8f4db8a0d8a51" target="_top" xlink:title="set sign&#45;magnitude bits applied in GLO nav messages">
<path fill="#fff0f0" stroke="red" d="M51.17,-56C51.17,-56 13.83,-56 13.83,-56 10.67,-56 7.5,-52.83 7.5,-49.67 7.5,-49.67 7.5,-43.33 7.5,-43.33 7.5,-40.17 10.67,-37 13.83,-37 13.83,-37 51.17,-37 51.17,-37 54.33,-37 57.5,-40.17 57.5,-43.33 57.5,-43.33 57.5,-49.67 57.5,-49.67 57.5,-52.83 54.33,-56 51.17,-56"/>
<text text-anchor="middle" x="32.5" y="-44" font-family="Helvetica,sans-Serif" font-size="10.00">setbitg</text>
</a>
</g>
</g>
<!-- Node1&#45;&gt;Node2 -->
<g id="edge1_Node000001_Node000002" class="edge">
<title>Node1&#45;&gt;Node2</title>
<g id="a_edge1_Node000001_Node000002"><a xlink:title=" ">
<path fill="none" stroke="#63b8ff" d="M91.13,-34.53C80.03,-36.84 67.93,-39.35 57.7,-41.48"/>
<polygon fill="#63b8ff" stroke="#63b8ff" points="91.88,-37.95 100.96,-32.49 90.46,-31.1 91.88,-37.95"/>
</a>
</g>
</g>
<!-- Node5 -->
<g id="Node000005" class="node">
<title>Node5</title>
<g id="a_Node000005"><a xlink:href="rtcmEncoder_8cpp.html#af0d5eab5e18729b5d6b67194e94979a0" target="_top" xlink:title="increasingly set unsigned bits to byte data">
<path fill="#fff0f0" stroke="red" d="M58.67,-19C58.67,-19 6.33,-19 6.33,-19 3.17,-19 0,-15.83 0,-12.67 0,-12.67 0,-6.33 0,-6.33 0,-3.17 3.17,0 6.33,0 6.33,0 58.67,0 58.67,0 61.83,0 65,-3.17 65,-6.33 65,-6.33 65,-12.67 65,-12.67 65,-15.83 61.83,-19 58.67,-19"/>
<text text-anchor="middle" x="32.5" y="-7" font-family="Helvetica,sans-Serif" font-size="10.00">setbituInc</text>
</a>
</g>
</g>
<!-- Node1&#45;&gt;Node5 -->
<g id="edge2_Node000001_Node000005" class="edge">
<title>Node1&#45;&gt;Node5</title>
<g id="a_edge2_Node000001_Node000005"><a xlink:title=" ">
<path fill="none" stroke="#63b8ff" d="M91.05,-20.82C82.62,-19.16 73.62,-17.39 65.3,-15.76"/>
<polygon fill="#63b8ff" stroke="#63b8ff" points="90.47,-24.27 100.96,-22.77 91.82,-17.41 90.47,-24.27"/>
</a>
</g>
</g>
</g>
</svg>
