<?xml version="1.0" encoding="UTF-8" standalone="no"?>
<!DOCTYPE svg PUBLIC "-//W3C//DTD SVG 1.1//EN"
 "http://www.w3.org/Graphics/SVG/1.1/DTD/svg11.dtd">
<!-- Generated by graphviz version 2.43.0 (0)
 -->
<!-- Title: RTCM__ Pages: 1 -->
<svg width="244pt" height="27pt"
 viewBox="0.00 0.00 244.00 27.00" xmlns="http://www.w3.org/2000/svg" xmlns:xlink="http://www.w3.org/1999/xlink">
<g id="graph0" class="graph" transform="scale(1 1) rotate(0) translate(4 23)">
<title>RTCM__</title>
<!-- Node1 -->
<g id="Node000001" class="node">
<title>Node1</title>
<g id="a_Node000001"><a xlink:href="rtcmDecoder_8cpp.html#a86269987a67664557b35764919fd334b" target="_top" xlink:title=" ">
<polygon fill="#ffc770" stroke="#ff8f00" stroke-width="2" points="232.83,-19 182,-19 182,0 236,0 236,-15.83 232.83,-19"/>
<polyline fill="none" stroke="#ff8f00" stroke-width="2" points="232.83,-19 232.83,-15.83 "/>
<polyline fill="none" stroke="#ff8f00" stroke-width="2" points="236,-15.83 232.83,-15.83 "/>
<text text-anchor="middle" x="209" y="-7" font-family="Helvetica,sans-Serif" font-size="10.00">RTCM__</text>
</a>
</g>
</g>
<!-- Node2 -->
<g id="Node000002" class="node">
<title>Node2</title>
<g id="a_Node000002"><a xlink:href="outputs_8cpp.html#a6cd5e5db4d14fd454e8a75fea48e0a84" target="_top" xlink:title=" ">
<polygon fill="#ffc770" stroke="#ff8f00" points="146,-19 87.33,-19 87.33,-21.11 81,-21.11 81,0 146,0 146,-19"/>
<polyline fill="none" stroke="#ff8f00" points="81,-19 87.33,-19 "/>
<text text-anchor="middle" x="113.5" y="-7" font-family="Helvetica,sans-Serif" font-size="10.00">Outputs__</text>
</a>
</g>
</g>
<!-- Node1&#45;&gt;Node2 -->
<g id="edge1_Node000001_Node000002" class="edge">
<title>Node1&#45;&gt;Node2</title>
<g id="a_edge1_Node000001_Node000002"><a xlink:title=" ">
<path fill="none" stroke="#63b8ff" d="M171.89,-9.5C163.37,-9.5 154.36,-9.5 146.06,-9.5"/>
<polygon fill="#63b8ff" stroke="#63b8ff" points="171.96,-13 181.96,-9.5 171.96,-6 171.96,-13"/>
</a>
</g>
</g>
<!-- Node3 -->
<g id="Node000003" class="node">
<title>Node3</title>
<g id="a_Node000003"><a xlink:href="Ginan_8cpp.html#a59a8bad8519426f9742fa63079e4a5e9" target="_top" xlink:title="Ginan&#39;s main processing executable.">
<polygon fill="#88ff88" stroke="#00aa00" points="45,-19 0,-19 0,0 45,0 45,-19"/>
<text text-anchor="middle" x="22.5" y="-7" font-family="Helvetica,sans-Serif" font-size="10.00">Pea__</text>
</a>
</g>
</g>
<!-- Node2&#45;&gt;Node3 -->
<g id="edge2_Node000002_Node000003" class="edge">
<title>Node2&#45;&gt;Node3</title>
<g id="a_edge2_Node000002_Node000003"><a xlink:title=" ">
<path fill="none" stroke="#63b8ff" d="M70.69,-9.5C61.9,-9.5 52.96,-9.5 45.26,-9.5"/>
<polygon fill="#63b8ff" stroke="#63b8ff" points="70.87,-13 80.87,-9.5 70.87,-6 70.87,-13"/>
</a>
</g>
</g>
</g>
</svg>
