<?xml version="1.0" encoding="UTF-8" standalone="no"?>
<!DOCTYPE svg PUBLIC "-//W3C//DTD SVG 1.1//EN"
 "http://www.w3.org/Graphics/SVG/1.1/DTD/svg11.dtd">
<!-- Generated by graphviz version 2.43.0 (0)
 -->
<!-- Title: lowPassFilter Pages: 1 -->
<svg width="189pt" height="27pt"
 viewBox="0.00 0.00 189.00 27.00" xmlns="http://www.w3.org/2000/svg" xmlns:xlink="http://www.w3.org/1999/xlink">
<g id="graph0" class="graph" transform="scale(1 1) rotate(0) translate(4 23)">
<title>lowPassFilter</title>
<!-- Node1 -->
<g id="Node000001" class="node">
<title>Node1</title>
<g id="a_Node000001"><a xlink:href="rtkcmn_8cpp.html#a340ba63f81ed21d7574d279d6da9ca0c" target="_top" xlink:title="Low pass filter values.">
<path fill="#fff0f0" stroke="red" stroke-width="2" d="M174.67,-19C174.67,-19 107.33,-19 107.33,-19 104.17,-19 101,-15.83 101,-12.67 101,-12.67 101,-6.33 101,-6.33 101,-3.17 104.17,0 107.33,0 107.33,0 174.67,0 174.67,0 177.83,0 181,-3.17 181,-6.33 181,-6.33 181,-12.67 181,-12.67 181,-15.83 177.83,-19 174.67,-19"/>
<text text-anchor="middle" x="141" y="-7" font-family="Helvetica,sans-Serif" font-size="10.00">lowPassFilter</text>
</a>
</g>
</g>
<!-- Node2 -->
<g id="Node000002" class="node">
<title>Node2</title>
<g id="a_Node000002"><a xlink:href="acsQC_8cpp.html#a7b37fc255c80330a5497de5bee8f2dbb" target="_top" xlink:title="Cycle slip detection and repair.">
<path fill="#fff0f0" stroke="red" d="M58.67,-19C58.67,-19 6.33,-19 6.33,-19 3.17,-19 0,-15.83 0,-12.67 0,-12.67 0,-6.33 0,-6.33 0,-3.17 3.17,0 6.33,0 6.33,0 58.67,0 58.67,0 61.83,0 65,-3.17 65,-6.33 65,-6.33 65,-12.67 65,-12.67 65,-15.83 61.83,-19 58.67,-19"/>
<text text-anchor="middle" x="32.5" y="-7" font-family="Helvetica,sans-Serif" font-size="10.00">detectslip</text>
</a>
</g>
</g>
<!-- Node1&#45;&gt;Node2 -->
<g id="edge1_Node000001_Node000002" class="edge">
<title>Node1&#45;&gt;Node2</title>
<g id="a_edge1_Node000001_Node000002"><a xlink:title=" ">
<path fill="none" stroke="#63b8ff" d="M90.85,-9.5C82.14,-9.5 73.29,-9.5 65.23,-9.5"/>
<polygon fill="#63b8ff" stroke="#63b8ff" points="90.95,-13 100.95,-9.5 90.95,-6 90.95,-13"/>
</a>
</g>
</g>
</g>
</svg>
