<?xml version="1.0" encoding="UTF-8" standalone="no"?>
<!DOCTYPE svg PUBLIC "-//W3C//DTD SVG 1.1//EN"
 "http://www.w3.org/Graphics/SVG/1.1/DTD/svg11.dtd">
<!-- Generated by graphviz version 2.43.0 (0)
 -->
<!-- Title: writeEMSline Pages: 1 -->
<svg width="208pt" height="27pt"
 viewBox="0.00 0.00 208.00 27.00" xmlns="http://www.w3.org/2000/svg" xmlns:xlink="http://www.w3.org/1999/xlink">
<g id="graph0" class="graph" transform="scale(1 1) rotate(0) translate(4 23)">
<title>writeEMSline</title>
<!-- Node1 -->
<g id="Node000001" class="node">
<title>Node1</title>
<g id="a_Node000001"><a xlink:href="sbas_8cpp.html#af517d13a75d67e12beb9e4a5a5646ff8" target="_top" xlink:title=" ">
<path fill="#fff0f0" stroke="red" stroke-width="2" d="M193.67,-19C193.67,-19 126.33,-19 126.33,-19 123.17,-19 120,-15.83 120,-12.67 120,-12.67 120,-6.33 120,-6.33 120,-3.17 123.17,0 126.33,0 126.33,0 193.67,0 193.67,0 196.83,0 200,-3.17 200,-6.33 200,-6.33 200,-12.67 200,-12.67 200,-15.83 196.83,-19 193.67,-19"/>
<text text-anchor="middle" x="160" y="-7" font-family="Helvetica,sans-Serif" font-size="10.00">writeEMSline</text>
</a>
</g>
</g>
<!-- Node2 -->
<g id="Node000002" class="node">
<title>Node2</title>
<g id="a_Node000002"><a xlink:href="sbas_8cpp.html#a6f4229224f8d8f8b8cf050533b992fcc" target="_top" xlink:title="Write received SBAS messages into EMS files.">
<path fill="#fff0f0" stroke="red" d="M77.67,-19C77.67,-19 6.33,-19 6.33,-19 3.17,-19 0,-15.83 0,-12.67 0,-12.67 0,-6.33 0,-6.33 0,-3.17 3.17,0 6.33,0 6.33,0 77.67,0 77.67,0 80.83,0 84,-3.17 84,-6.33 84,-6.33 84,-12.67 84,-12.67 84,-15.83 80.83,-19 77.67,-19"/>
<text text-anchor="middle" x="42" y="-7" font-family="Helvetica,sans-Serif" font-size="10.00">writeEMSdata</text>
</a>
</g>
</g>
<!-- Node1&#45;&gt;Node2 -->
<g id="edge1_Node000001_Node000002" class="edge">
<title>Node1&#45;&gt;Node2</title>
<g id="a_edge1_Node000001_Node000002"><a xlink:title=" ">
<path fill="none" stroke="#63b8ff" d="M109.59,-9.5C101.13,-9.5 92.43,-9.5 84.21,-9.5"/>
<polygon fill="#63b8ff" stroke="#63b8ff" points="109.73,-13 119.73,-9.5 109.73,-6 109.73,-13"/>
</a>
</g>
</g>
</g>
</svg>
