<?xml version="1.0" encoding="UTF-8" standalone="no"?>
<!DOCTYPE svg PUBLIC "-//W3C//DTD SVG 1.1//EN"
 "http://www.w3.org/Graphics/SVG/1.1/DTD/svg11.dtd">
<!-- Generated by graphviz version 2.43.0 (0)
 -->
<!-- Title: writeSnxSourceIds Pages: 1 -->
<svg width="258pt" height="27pt"
 viewBox="0.00 0.00 258.00 27.00" xmlns="http://www.w3.org/2000/svg" xmlns:xlink="http://www.w3.org/1999/xlink">
<g id="graph0" class="graph" transform="scale(1 1) rotate(0) translate(4 23)">
<title>writeSnxSourceIds</title>
<!-- Node1 -->
<g id="Node000001" class="node">
<title>Node1</title>
<g id="a_Node000001"><a xlink:href="sinex_8cpp.html#a1495ff6e93d705a21b2216ddfd1f3d96" target="_top" xlink:title=" ">
<path fill="#fff0f0" stroke="red" stroke-width="2" d="M100.67,-19C100.67,-19 6.33,-19 6.33,-19 3.17,-19 0,-15.83 0,-12.67 0,-12.67 0,-6.33 0,-6.33 0,-3.17 3.17,0 6.33,0 6.33,0 100.67,0 100.67,0 103.83,0 107,-3.17 107,-6.33 107,-6.33 107,-12.67 107,-12.67 107,-15.83 103.83,-19 100.67,-19"/>
<text text-anchor="middle" x="53.5" y="-7" font-family="Helvetica,sans-Serif" font-size="10.00">writeSnxSourceIds</text>
</a>
</g>
</g>
<!-- Node2 -->
<g id="Node000002" class="node">
<title>Node2</title>
<g id="a_Node000002"><a xlink:href="sinex_8cpp.html#ade0ffbf6a284b0467d88c28563df76ab" target="_top" xlink:title=" ">
<path fill="#fff0f0" stroke="red" d="M243.67,-19C243.67,-19 149.33,-19 149.33,-19 146.17,-19 143,-15.83 143,-12.67 143,-12.67 143,-6.33 143,-6.33 143,-3.17 146.17,0 149.33,0 149.33,0 243.67,0 243.67,0 246.83,0 250,-3.17 250,-6.33 250,-6.33 250,-12.67 250,-12.67 250,-15.83 246.83,-19 243.67,-19"/>
<text text-anchor="middle" x="196.5" y="-7" font-family="Helvetica,sans-Serif" font-size="10.00">writeAsComments</text>
</a>
</g>
</g>
<!-- Node1&#45;&gt;Node2 -->
<g id="edge1_Node000001_Node000002" class="edge">
<title>Node1&#45;&gt;Node2</title>
<g id="a_edge1_Node000001_Node000002"><a xlink:title=" ">
<path fill="none" stroke="#63b8ff" d="M107,-9.5C115.44,-9.5 124.26,-9.5 132.9,-9.5"/>
<polygon fill="#63b8ff" stroke="#63b8ff" points="132.95,-13 142.95,-9.5 132.95,-6 132.95,-13"/>
</a>
</g>
</g>
</g>
</svg>
