<?xml version="1.0" encoding="UTF-8" standalone="no"?>
<!DOCTYPE svg PUBLIC "-//W3C//DTD SVG 1.1//EN"
 "http://www.w3.org/Graphics/SVG/1.1/DTD/svg11.dtd">
<!-- Generated by graphviz version 2.43.0 (0)
 -->
<!-- Title: getSatSnx Pages: 1 -->
<svg width="202pt" height="27pt"
 viewBox="0.00 0.00 202.00 27.00" xmlns="http://www.w3.org/2000/svg" xmlns:xlink="http://www.w3.org/1999/xlink">
<g id="graph0" class="graph" transform="scale(1 1) rotate(0) translate(4 23)">
<title>getSatSnx</title>
<!-- Node1 -->
<g id="Node000001" class="node">
<title>Node1</title>
<g id="a_Node000001"><a xlink:href="sinex_8cpp.html#a04a0376bd5cd6d04b58ad677105bed47" target="_top" xlink:title=" ">
<path fill="#fff0f0" stroke="red" stroke-width="2" d="M187.67,-19C187.67,-19 134.33,-19 134.33,-19 131.17,-19 128,-15.83 128,-12.67 128,-12.67 128,-6.33 128,-6.33 128,-3.17 131.17,0 134.33,0 134.33,0 187.67,0 187.67,0 190.83,0 194,-3.17 194,-6.33 194,-6.33 194,-12.67 194,-12.67 194,-15.83 190.83,-19 187.67,-19"/>
<text text-anchor="middle" x="161" y="-7" font-family="Helvetica,sans-Serif" font-size="10.00">getSatSnx</text>
</a>
</g>
</g>
<!-- Node2 -->
<g id="Node000002" class="node">
<title>Node2</title>
<g id="a_Node000002"><a xlink:href="slrCom_8cpp.html#ae1e900be3fbab7e36528208cfd3d451e" target="_top" xlink:title="Center of mass to laser retroreflector array offset for GNSS satellites.">
<path fill="#fff0f0" stroke="red" d="M85.67,-19C85.67,-19 6.33,-19 6.33,-19 3.17,-19 0,-15.83 0,-12.67 0,-12.67 0,-6.33 0,-6.33 0,-3.17 3.17,0 6.33,0 6.33,0 85.67,0 85.67,0 88.83,0 92,-3.17 92,-6.33 92,-6.33 92,-12.67 92,-12.67 92,-15.83 88.83,-19 85.67,-19"/>
<text text-anchor="middle" x="46" y="-7" font-family="Helvetica,sans-Serif" font-size="10.00">satComOffGnss</text>
</a>
</g>
</g>
<!-- Node1&#45;&gt;Node2 -->
<g id="edge1_Node000001_Node000002" class="edge">
<title>Node1&#45;&gt;Node2</title>
<g id="a_edge1_Node000001_Node000002"><a xlink:title=" ">
<path fill="none" stroke="#63b8ff" d="M117.69,-9.5C109.38,-9.5 100.63,-9.5 92.23,-9.5"/>
<polygon fill="#63b8ff" stroke="#63b8ff" points="117.92,-13 127.92,-9.5 117.92,-6 117.92,-13"/>
</a>
</g>
</g>
</g>
</svg>
