<?xml version="1.0" encoding="UTF-8" standalone="no"?>
<!DOCTYPE svg PUBLIC "-//W3C//DTD SVG 1.1//EN"
 "http://www.w3.org/Graphics/SVG/1.1/DTD/svg11.dtd">
<!-- Generated by graphviz version 2.43.0 (0)
 -->
<!-- Title: writeAsComments Pages: 1 -->
<svg width="315pt" height="1322pt"
 viewBox="0.00 0.00 315.00 1322.00" xmlns="http://www.w3.org/2000/svg" xmlns:xlink="http://www.w3.org/1999/xlink">
<g id="graph0" class="graph" transform="scale(1 1) rotate(0) translate(4 1318)">
<title>writeAsComments</title>
<!-- Node1 -->
<g id="Node000001" class="node">
<title>Node1</title>
<g id="a_Node000001"><a xlink:href="sinex_8cpp.html#ade0ffbf6a284b0467d88c28563df76ab" target="_top" xlink:title=" ">
<path fill="#fff0f0" stroke="red" stroke-width="2" d="M300.67,-666C300.67,-666 206.33,-666 206.33,-666 203.17,-666 200,-662.83 200,-659.67 200,-659.67 200,-653.33 200,-653.33 200,-650.17 203.17,-647 206.33,-647 206.33,-647 300.67,-647 300.67,-647 303.83,-647 307,-650.17 307,-653.33 307,-653.33 307,-659.67 307,-659.67 307,-662.83 303.83,-666 300.67,-666"/>
<text text-anchor="middle" x="253.5" y="-654" font-family="Helvetica,sans-Serif" font-size="10.00">writeAsComments</text>
</a>
</g>
</g>
<!-- Node2 -->
<g id="Node000002" class="node">
<title>Node2</title>
<g id="a_Node000002"><a xlink:href="sinex_8cpp.html#ac5bfae7acd242175c2db1510f2e4da30" target="_top" xlink:title=" ">
<path fill="#fff0f0" stroke="red" d="M153.17,-1314C153.17,-1314 10.83,-1314 10.83,-1314 7.67,-1314 4.5,-1310.83 4.5,-1307.67 4.5,-1307.67 4.5,-1301.33 4.5,-1301.33 4.5,-1298.17 7.67,-1295 10.83,-1295 10.83,-1295 153.17,-1295 153.17,-1295 156.33,-1295 159.5,-1298.17 159.5,-1301.33 159.5,-1301.33 159.5,-1307.67 159.5,-1307.67 159.5,-1310.83 156.33,-1314 153.17,-1314"/>
<text text-anchor="middle" x="82" y="-1302" font-family="Helvetica,sans-Serif" font-size="10.00">writeSnxAcknowledgements</text>
</a>
</g>
</g>
<!-- Node1&#45;&gt;Node2 -->
<g id="edge1_Node000001_Node000002" class="edge">
<title>Node1&#45;&gt;Node2</title>
<g id="a_edge1_Node000001_Node000002"><a xlink:title=" ">
<path fill="none" stroke="#63b8ff" d="M252.63,-676.26C252.83,-772.9 248.81,-1194.71 164,-1286.5 160.97,-1289.78 157.49,-1292.53 153.7,-1294.83"/>
<polygon fill="#63b8ff" stroke="#63b8ff" points="256.13,-676.12 252.59,-666.13 249.13,-676.15 256.13,-676.12"/>
</a>
</g>
</g>
<!-- Node7 -->
<g id="Node000007" class="node">
<title>Node7</title>
<g id="a_Node000007"><a xlink:href="sinex_8cpp.html#a8bc6daaadb1c5330785a944be1f8d33d" target="_top" xlink:title=" ">
<path fill="#fff0f0" stroke="red" d="M128.17,-1277C128.17,-1277 35.83,-1277 35.83,-1277 32.67,-1277 29.5,-1273.83 29.5,-1270.67 29.5,-1270.67 29.5,-1264.33 29.5,-1264.33 29.5,-1261.17 32.67,-1258 35.83,-1258 35.83,-1258 128.17,-1258 128.17,-1258 131.33,-1258 134.5,-1261.17 134.5,-1264.33 134.5,-1264.33 134.5,-1270.67 134.5,-1270.67 134.5,-1273.83 131.33,-1277 128.17,-1277"/>
<text text-anchor="middle" x="82" y="-1265" font-family="Helvetica,sans-Serif" font-size="10.00">writeSnxAntennas</text>
</a>
</g>
</g>
<!-- Node1&#45;&gt;Node7 -->
<g id="edge2_Node000001_Node000007" class="edge">
<title>Node1&#45;&gt;Node7</title>
<g id="a_edge2_Node000001_Node000007"><a xlink:title=" ">
<path fill="none" stroke="#63b8ff" d="M252.44,-676.26C251.72,-769.41 243.96,-1163.69 164,-1249.5 156.34,-1257.72 145.83,-1262.6 134.91,-1265.42"/>
<polygon fill="#63b8ff" stroke="#63b8ff" points="255.94,-676.03 252.49,-666.01 248.94,-675.99 255.94,-676.03"/>
</a>
</g>
</g>
<!-- Node8 -->
<g id="Node000008" class="node">
<title>Node8</title>
<g id="a_Node000008"><a xlink:href="sinex_8cpp.html#ab31d2978691c68b867acfbc3e4930d95" target="_top" xlink:title=" ">
<path fill="#fff0f0" stroke="red" d="M121.67,-1240C121.67,-1240 42.33,-1240 42.33,-1240 39.17,-1240 36,-1236.83 36,-1233.67 36,-1233.67 36,-1227.33 36,-1227.33 36,-1224.17 39.17,-1221 42.33,-1221 42.33,-1221 121.67,-1221 121.67,-1221 124.83,-1221 128,-1224.17 128,-1227.33 128,-1227.33 128,-1233.67 128,-1233.67 128,-1236.83 124.83,-1240 121.67,-1240"/>
<text text-anchor="middle" x="82" y="-1228" font-family="Helvetica,sans-Serif" font-size="10.00">writeSnxApriori</text>
</a>
</g>
</g>
<!-- Node1&#45;&gt;Node8 -->
<g id="edge3_Node000001_Node000008" class="edge">
<title>Node1&#45;&gt;Node8</title>
<g id="a_edge3_Node000001_Node000008"><a xlink:title=" ">
<path fill="none" stroke="#63b8ff" d="M252.22,-676.44C250.53,-766.31 239.08,-1132.71 164,-1212.5 154.72,-1222.36 141.33,-1227.41 128.11,-1229.85"/>
<polygon fill="#63b8ff" stroke="#63b8ff" points="255.72,-676.32 252.39,-666.27 248.72,-676.21 255.72,-676.32"/>
</a>
</g>
</g>
<!-- Node9 -->
<g id="Node000009" class="node">
<title>Node9</title>
<g id="a_Node000009"><a xlink:href="sinex_8cpp.html#a2c8a83df2faa6eba7024b5d03e6b4549" target="_top" xlink:title=" ">
<path fill="#fff0f0" stroke="red" d="M157.67,-1203C157.67,-1203 6.33,-1203 6.33,-1203 3.17,-1203 0,-1199.83 0,-1196.67 0,-1196.67 0,-1190.33 0,-1190.33 0,-1187.17 3.17,-1184 6.33,-1184 6.33,-1184 157.67,-1184 157.67,-1184 160.83,-1184 164,-1187.17 164,-1190.33 164,-1190.33 164,-1196.67 164,-1196.67 164,-1199.83 160.83,-1203 157.67,-1203"/>
<text text-anchor="middle" x="82" y="-1191" font-family="Helvetica,sans-Serif" font-size="10.00">writeSnxAprioriFromReceivers</text>
</a>
</g>
</g>
<!-- Node1&#45;&gt;Node9 -->
<g id="edge4_Node000001_Node000009" class="edge">
<title>Node1&#45;&gt;Node9</title>
<g id="a_edge4_Node000001_Node000009"><a xlink:title=" ">
<path fill="none" stroke="#63b8ff" d="M251.98,-676.19C249.3,-761.92 234.33,-1101.58 164,-1175.5 160.82,-1178.84 157.17,-1181.63 153.22,-1183.94"/>
<polygon fill="#63b8ff" stroke="#63b8ff" points="255.48,-676.13 252.27,-666.03 248.48,-675.92 255.48,-676.13"/>
</a>
</g>
</g>
<!-- Node10 -->
<g id="Node000010" class="node">
<title>Node10</title>
<g id="a_Node000010"><a xlink:href="sinex_8cpp.html#ad14286e6ef3c24c30207a882672a883d" target="_top" xlink:title=" ">
<path fill="#fff0f0" stroke="red" d="M122.67,-1166C122.67,-1166 41.33,-1166 41.33,-1166 38.17,-1166 35,-1162.83 35,-1159.67 35,-1159.67 35,-1153.33 35,-1153.33 35,-1150.17 38.17,-1147 41.33,-1147 41.33,-1147 122.67,-1147 122.67,-1147 125.83,-1147 129,-1150.17 129,-1153.33 129,-1153.33 129,-1159.67 129,-1159.67 129,-1162.83 125.83,-1166 122.67,-1166"/>
<text text-anchor="middle" x="82" y="-1154" font-family="Helvetica,sans-Serif" font-size="10.00">writeSnxEpochs</text>
</a>
</g>
</g>
<!-- Node1&#45;&gt;Node10 -->
<g id="edge5_Node000001_Node000010" class="edge">
<title>Node1&#45;&gt;Node10</title>
<g id="a_edge5_Node000001_Node000010"><a xlink:title=" ">
<path fill="none" stroke="#63b8ff" d="M251.68,-676.59C247.89,-759.09 229.41,-1070.62 164,-1138.5 154.9,-1147.94 142.04,-1152.94 129.24,-1155.47"/>
<polygon fill="#63b8ff" stroke="#63b8ff" points="255.2,-676.28 252.13,-666.14 248.2,-675.98 255.2,-676.28"/>
</a>
</g>
</g>
<!-- Node11 -->
<g id="Node000011" class="node">
<title>Node11</title>
<g id="a_Node000011"><a xlink:href="sinex_8cpp.html#af6a1c808417ca42260736968139c64a6" target="_top" xlink:title=" ">
<path fill="#fff0f0" stroke="red" d="M154.67,-1129C154.67,-1129 9.33,-1129 9.33,-1129 6.17,-1129 3,-1125.83 3,-1122.67 3,-1122.67 3,-1116.33 3,-1116.33 3,-1113.17 6.17,-1110 9.33,-1110 9.33,-1110 154.67,-1110 154.67,-1110 157.83,-1110 161,-1113.17 161,-1116.33 161,-1116.33 161,-1122.67 161,-1122.67 161,-1125.83 157.83,-1129 154.67,-1129"/>
<text text-anchor="middle" x="82" y="-1117" font-family="Helvetica,sans-Serif" font-size="10.00">writeSnxEstimatesFromFilter</text>
</a>
</g>
</g>
<!-- Node1&#45;&gt;Node11 -->
<g id="edge6_Node000001_Node000011" class="edge">
<title>Node1&#45;&gt;Node11</title>
<g id="a_edge6_Node000001_Node000011"><a xlink:title=" ">
<path fill="none" stroke="#63b8ff" d="M251.35,-676.54C246.44,-754.93 224.63,-1039.5 164,-1101.5 160.78,-1104.8 157.09,-1107.55 153.12,-1109.84"/>
<polygon fill="#63b8ff" stroke="#63b8ff" points="254.87,-676.35 251.97,-666.16 247.88,-675.93 254.87,-676.35"/>
</a>
</g>
</g>
<!-- Node12 -->
<g id="Node000012" class="node">
<title>Node12</title>
<g id="a_Node000012"><a xlink:href="sinex_8cpp.html#abac7cf5e6eee48d7fafd1ade8dc735e0" target="_top" xlink:title=" ">
<path fill="#fff0f0" stroke="red" d="M121.67,-1092C121.67,-1092 42.33,-1092 42.33,-1092 39.17,-1092 36,-1088.83 36,-1085.67 36,-1085.67 36,-1079.33 36,-1079.33 36,-1076.17 39.17,-1073 42.33,-1073 42.33,-1073 121.67,-1073 121.67,-1073 124.83,-1073 128,-1076.17 128,-1079.33 128,-1079.33 128,-1085.67 128,-1085.67 128,-1088.83 124.83,-1092 121.67,-1092"/>
<text text-anchor="middle" x="82" y="-1080" font-family="Helvetica,sans-Serif" font-size="10.00">writeSnxGalPcs</text>
</a>
</g>
</g>
<!-- Node1&#45;&gt;Node12 -->
<g id="edge7_Node000001_Node000012" class="edge">
<title>Node1&#45;&gt;Node12</title>
<g id="a_edge7_Node000001_Node000012"><a xlink:title=" ">
<path fill="none" stroke="#63b8ff" d="M250.98,-676.29C244.9,-750.14 219.93,-1008.29 164,-1064.5 154.55,-1074 141.28,-1078.97 128.2,-1081.45"/>
<polygon fill="#63b8ff" stroke="#63b8ff" points="254.49,-676.32 251.79,-666.08 247.51,-675.77 254.49,-676.32"/>
</a>
</g>
</g>
<!-- Node13 -->
<g id="Node000013" class="node">
<title>Node13</title>
<g id="a_Node000013"><a xlink:href="sinex_8cpp.html#a56c06f185406694238125822193a1b41" target="_top" xlink:title=" ">
<path fill="#fff0f0" stroke="red" d="M123.17,-1055C123.17,-1055 40.83,-1055 40.83,-1055 37.67,-1055 34.5,-1051.83 34.5,-1048.67 34.5,-1048.67 34.5,-1042.33 34.5,-1042.33 34.5,-1039.17 37.67,-1036 40.83,-1036 40.83,-1036 123.17,-1036 123.17,-1036 126.33,-1036 129.5,-1039.17 129.5,-1042.33 129.5,-1042.33 129.5,-1048.67 129.5,-1048.67 129.5,-1051.83 126.33,-1055 123.17,-1055"/>
<text text-anchor="middle" x="82" y="-1043" font-family="Helvetica,sans-Serif" font-size="10.00">writeSnxGpsPcs</text>
</a>
</g>
</g>
<!-- Node1&#45;&gt;Node13 -->
<g id="edge8_Node000001_Node000013" class="edge">
<title>Node1&#45;&gt;Node13</title>
<g id="a_edge8_Node000001_Node000013"><a xlink:title=" ">
<path fill="none" stroke="#63b8ff" d="M250.52,-676.27C243.17,-745.73 215.18,-977.11 164,-1027.5 154.86,-1036.5 142.29,-1041.41 129.77,-1044"/>
<polygon fill="#63b8ff" stroke="#63b8ff" points="254.01,-676.54 251.56,-666.23 247.05,-675.82 254.01,-676.54"/>
</a>
</g>
</g>
<!-- Node14 -->
<g id="Node000014" class="node">
<title>Node14</title>
<g id="a_Node000014"><a xlink:href="sinex_8cpp.html#a12845a3b007cc0b6f432d7adee2082ce" target="_top" xlink:title=" ">
<path fill="#fff0f0" stroke="red" d="M129.17,-1018C129.17,-1018 34.83,-1018 34.83,-1018 31.67,-1018 28.5,-1014.83 28.5,-1011.67 28.5,-1011.67 28.5,-1005.33 28.5,-1005.33 28.5,-1002.17 31.67,-999 34.83,-999 34.83,-999 129.17,-999 129.17,-999 132.33,-999 135.5,-1002.17 135.5,-1005.33 135.5,-1005.33 135.5,-1011.67 135.5,-1011.67 135.5,-1014.83 132.33,-1018 129.17,-1018"/>
<text text-anchor="middle" x="82" y="-1006" font-family="Helvetica,sans-Serif" font-size="10.00">writeSnxInputFiles</text>
</a>
</g>
</g>
<!-- Node1&#45;&gt;Node14 -->
<g id="edge9_Node000001_Node000014" class="edge">
<title>Node1&#45;&gt;Node14</title>
<g id="a_edge9_Node000001_Node000014"><a xlink:title=" ">
<path fill="none" stroke="#63b8ff" d="M249.95,-676.37C241.21,-741.34 210.43,-945.91 164,-990.5 156.21,-997.98 146.03,-1002.63 135.53,-1005.45"/>
<polygon fill="#63b8ff" stroke="#63b8ff" points="253.45,-676.61 251.28,-666.24 246.51,-675.7 253.45,-676.61"/>
</a>
</g>
</g>
<!-- Node15 -->
<g id="Node000015" class="node">
<title>Node15</title>
<g id="a_Node000015"><a xlink:href="sinex_8cpp.html#aac56590ac81ab8a481236bca8e39ada9" target="_top" xlink:title=" ">
<path fill="#fff0f0" stroke="red" d="M135.17,-981C135.17,-981 28.83,-981 28.83,-981 25.67,-981 22.5,-977.83 22.5,-974.67 22.5,-974.67 22.5,-968.33 22.5,-968.33 22.5,-965.17 25.67,-962 28.83,-962 28.83,-962 135.17,-962 135.17,-962 138.33,-962 141.5,-965.17 141.5,-968.33 141.5,-968.33 141.5,-974.67 141.5,-974.67 141.5,-977.83 138.33,-981 135.17,-981"/>
<text text-anchor="middle" x="82" y="-969" font-family="Helvetica,sans-Serif" font-size="10.00">writeSnxInputHistory</text>
</a>
</g>
</g>
<!-- Node1&#45;&gt;Node15 -->
<g id="edge10_Node000001_Node000015" class="edge">
<title>Node1&#45;&gt;Node15</title>
<g id="a_edge10_Node000001_Node000015"><a xlink:title=" ">
<path fill="none" stroke="#63b8ff" d="M252.97,-676.41C253.08,-729.84 245.61,-877.48 164,-953.5 157.68,-959.39 149.87,-963.51 141.62,-966.36"/>
<polygon fill="#63b8ff" stroke="#63b8ff" points="256.47,-676.19 252.85,-666.23 249.47,-676.28 256.47,-676.19"/>
</a>
</g>
</g>
<!-- Node16 -->
<g id="Node000016" class="node">
<title>Node16</title>
<g id="a_Node000016"><a xlink:href="sinex_8cpp.html#ab02384d668b26fa644c579f43835c128" target="_top" xlink:title=" ">
<path fill="#fff0f0" stroke="red" d="M151.17,-944C151.17,-944 12.83,-944 12.83,-944 9.67,-944 6.5,-940.83 6.5,-937.67 6.5,-937.67 6.5,-931.33 6.5,-931.33 6.5,-928.17 9.67,-925 12.83,-925 12.83,-925 151.17,-925 151.17,-925 154.33,-925 157.5,-928.17 157.5,-931.33 157.5,-931.33 157.5,-937.67 157.5,-937.67 157.5,-940.83 154.33,-944 151.17,-944"/>
<text text-anchor="middle" x="82" y="-932" font-family="Helvetica,sans-Serif" font-size="10.00">writeSnxMatricesFromFilter</text>
</a>
</g>
</g>
<!-- Node1&#45;&gt;Node16 -->
<g id="edge11_Node000001_Node000016" class="edge">
<title>Node1&#45;&gt;Node16</title>
<g id="a_edge11_Node000001_Node000016"><a xlink:title=" ">
<path fill="none" stroke="#63b8ff" d="M252,-676.19C249.64,-724.86 236.49,-851.54 164,-916.5 160.25,-919.86 156,-922.65 151.48,-924.94"/>
<polygon fill="#63b8ff" stroke="#63b8ff" points="255.5,-676.19 252.38,-666.06 248.51,-675.93 255.5,-676.19"/>
</a>
</g>
</g>
<!-- Node17 -->
<g id="Node000017" class="node">
<title>Node17</title>
<g id="a_Node000017"><a xlink:href="sinex_8cpp.html#ab315771c5a71b4550fb432e306a56905" target="_top" xlink:title=" ">
<path fill="#fff0f0" stroke="red" d="M123.17,-907C123.17,-907 40.83,-907 40.83,-907 37.67,-907 34.5,-903.83 34.5,-900.67 34.5,-900.67 34.5,-894.33 34.5,-894.33 34.5,-891.17 37.67,-888 40.83,-888 40.83,-888 123.17,-888 123.17,-888 126.33,-888 129.5,-891.17 129.5,-894.33 129.5,-894.33 129.5,-900.67 129.5,-900.67 129.5,-903.83 126.33,-907 123.17,-907"/>
<text text-anchor="middle" x="82" y="-895" font-family="Helvetica,sans-Serif" font-size="10.00">writeSnxNormal</text>
</a>
</g>
</g>
<!-- Node1&#45;&gt;Node17 -->
<g id="edge12_Node000001_Node000017" class="edge">
<title>Node1&#45;&gt;Node17</title>
<g id="a_edge12_Node000001_Node000017"><a xlink:title=" ">
<path fill="none" stroke="#63b8ff" d="M250.72,-676.33C245.68,-720.15 227.28,-825.56 164,-879.5 154.46,-887.63 142.05,-892.31 129.82,-894.95"/>
<polygon fill="#63b8ff" stroke="#63b8ff" points="254.2,-676.67 251.75,-666.37 247.24,-675.95 254.2,-676.67"/>
</a>
</g>
</g>
<!-- Node18 -->
<g id="Node000018" class="node">
<title>Node18</title>
<g id="a_Node000018"><a xlink:href="sinex_8cpp.html#a3110efb1a07ba4b9a0a3d91be1ef3a9c" target="_top" xlink:title=" ">
<path fill="#fff0f0" stroke="red" d="M129.17,-870C129.17,-870 34.83,-870 34.83,-870 31.67,-870 28.5,-866.83 28.5,-863.67 28.5,-863.67 28.5,-857.33 28.5,-857.33 28.5,-854.17 31.67,-851 34.83,-851 34.83,-851 129.17,-851 129.17,-851 132.33,-851 135.5,-854.17 135.5,-857.33 135.5,-857.33 135.5,-863.67 135.5,-863.67 135.5,-866.83 132.33,-870 129.17,-870"/>
<text text-anchor="middle" x="82" y="-858" font-family="Helvetica,sans-Serif" font-size="10.00">writeSnxNutCodes</text>
</a>
</g>
</g>
<!-- Node1&#45;&gt;Node18 -->
<g id="edge13_Node000001_Node000018" class="edge">
<title>Node1&#45;&gt;Node18</title>
<g id="a_edge13_Node000001_Node000018"><a xlink:title=" ">
<path fill="none" stroke="#63b8ff" d="M249.08,-675.88C241.29,-714.07 218.48,-799.1 164,-842.5 155.89,-848.96 145.93,-853.21 135.81,-855.99"/>
<polygon fill="#63b8ff" stroke="#63b8ff" points="252.53,-676.51 250.97,-666.03 245.65,-675.19 252.53,-676.51"/>
</a>
</g>
</g>
<!-- Node19 -->
<g id="Node000019" class="node">
<title>Node19</title>
<g id="a_Node000019"><a xlink:href="sinex_8cpp.html#afecfbebcbb92d2f96f509672fa67c772" target="_top" xlink:title=" ">
<path fill="#fff0f0" stroke="red" d="M128.17,-833C128.17,-833 35.83,-833 35.83,-833 32.67,-833 29.5,-829.83 29.5,-826.67 29.5,-826.67 29.5,-820.33 29.5,-820.33 29.5,-817.17 32.67,-814 35.83,-814 35.83,-814 128.17,-814 128.17,-814 131.33,-814 134.5,-817.17 134.5,-820.33 134.5,-820.33 134.5,-826.67 134.5,-826.67 134.5,-829.83 131.33,-833 128.17,-833"/>
<text text-anchor="middle" x="82" y="-821" font-family="Helvetica,sans-Serif" font-size="10.00">writeSnxPreCodes</text>
</a>
</g>
</g>
<!-- Node1&#45;&gt;Node19 -->
<g id="edge14_Node000001_Node000019" class="edge">
<title>Node1&#45;&gt;Node19</title>
<g id="a_edge14_Node000001_Node000019"><a xlink:title=" ">
<path fill="none" stroke="#63b8ff" d="M246.59,-676.01C235.75,-708.29 209.54,-772.52 164,-805.5 155.37,-811.75 144.96,-815.89 134.52,-818.62"/>
<polygon fill="#63b8ff" stroke="#63b8ff" points="249.96,-676.97 249.68,-666.38 243.29,-674.83 249.96,-676.97"/>
</a>
</g>
</g>
<!-- Node20 -->
<g id="Node000020" class="node">
<title>Node20</title>
<g id="a_Node000020"><a xlink:href="sinex_8cpp.html#a7aa82b83df853ad69f59402478585b67" target="_top" xlink:title=" ">
<path fill="#fff0f0" stroke="red" d="M129.17,-796C129.17,-796 34.83,-796 34.83,-796 31.67,-796 28.5,-792.83 28.5,-789.67 28.5,-789.67 28.5,-783.33 28.5,-783.33 28.5,-780.17 31.67,-777 34.83,-777 34.83,-777 129.17,-777 129.17,-777 132.33,-777 135.5,-780.17 135.5,-783.33 135.5,-783.33 135.5,-789.67 135.5,-789.67 135.5,-792.83 132.33,-796 129.17,-796"/>
<text text-anchor="middle" x="82" y="-784" font-family="Helvetica,sans-Serif" font-size="10.00">writeSnxReceivers</text>
</a>
</g>
</g>
<!-- Node1&#45;&gt;Node20 -->
<g id="edge15_Node000001_Node000020" class="edge">
<title>Node1&#45;&gt;Node20</title>
<g id="a_edge15_Node000001_Node000020"><a xlink:title=" ">
<path fill="none" stroke="#63b8ff" d="M243.14,-675.06C229.38,-700.35 201.25,-745.13 164,-768.5 155.46,-773.86 145.53,-777.63 135.62,-780.29"/>
<polygon fill="#63b8ff" stroke="#63b8ff" points="246.28,-676.6 247.84,-666.12 240.09,-673.34 246.28,-676.6"/>
</a>
</g>
</g>
<!-- Node21 -->
<g id="Node000021" class="node">
<title>Node21</title>
<g id="a_Node000021"><a xlink:href="sinex_8cpp.html#a5f54b31f78d08fd27b04910f448baa80" target="_top" xlink:title=" ">
<path fill="#fff0f0" stroke="red" d="M124.67,-759C124.67,-759 39.33,-759 39.33,-759 36.17,-759 33,-755.83 33,-752.67 33,-752.67 33,-746.33 33,-746.33 33,-743.17 36.17,-740 39.33,-740 39.33,-740 124.67,-740 124.67,-740 127.83,-740 131,-743.17 131,-746.33 131,-746.33 131,-752.67 131,-752.67 131,-755.83 127.83,-759 124.67,-759"/>
<text text-anchor="middle" x="82" y="-747" font-family="Helvetica,sans-Serif" font-size="10.00">writeSnxSatCom</text>
</a>
</g>
</g>
<!-- Node1&#45;&gt;Node21 -->
<g id="edge16_Node000001_Node000021" class="edge">
<title>Node1&#45;&gt;Node21</title>
<g id="a_edge16_Node000001_Node000021"><a xlink:title=" ">
<path fill="none" stroke="#63b8ff" d="M236.89,-673.96C220.46,-691.23 192.99,-717.11 164,-731.5 153.81,-736.56 142.19,-740.21 131,-742.84"/>
<polygon fill="#63b8ff" stroke="#63b8ff" points="239.8,-675.97 244.03,-666.26 234.66,-671.21 239.8,-675.97"/>
</a>
</g>
</g>
<!-- Node22 -->
<g id="Node000022" class="node">
<title>Node22</title>
<g id="a_Node000022"><a xlink:href="sinex_8cpp.html#a5f7b58dac69e68c592859cf180438586" target="_top" xlink:title=" ">
<path fill="#fff0f0" stroke="red" d="M121.67,-722C121.67,-722 42.33,-722 42.33,-722 39.17,-722 36,-718.83 36,-715.67 36,-715.67 36,-709.33 36,-709.33 36,-706.17 39.17,-703 42.33,-703 42.33,-703 121.67,-703 121.67,-703 124.83,-703 128,-706.17 128,-709.33 128,-709.33 128,-715.67 128,-715.67 128,-718.83 124.83,-722 121.67,-722"/>
<text text-anchor="middle" x="82" y="-710" font-family="Helvetica,sans-Serif" font-size="10.00">writeSnxSatEcc</text>
</a>
</g>
</g>
<!-- Node1&#45;&gt;Node22 -->
<g id="edge17_Node000001_Node000022" class="edge">
<title>Node1&#45;&gt;Node22</title>
<g id="a_edge17_Node000001_Node000022"><a xlink:title=" ">
<path fill="none" stroke="#63b8ff" d="M223.82,-670.44C206.75,-678.32 184.49,-687.89 164,-694.5 152.62,-698.17 140.11,-701.35 128.39,-703.98"/>
<polygon fill="#63b8ff" stroke="#63b8ff" points="225.65,-673.44 233.22,-666.02 222.68,-667.1 225.65,-673.44"/>
</a>
</g>
</g>
<!-- Node23 -->
<g id="Node000023" class="node">
<title>Node23</title>
<g id="a_Node000023"><a xlink:href="sinex_8cpp.html#af7e697b26a13fecfbab7bdddf17600ee" target="_top" xlink:title=" ">
<path fill="#fff0f0" stroke="red" d="M133.17,-685C133.17,-685 30.83,-685 30.83,-685 27.67,-685 24.5,-681.83 24.5,-678.67 24.5,-678.67 24.5,-672.33 24.5,-672.33 24.5,-669.17 27.67,-666 30.83,-666 30.83,-666 133.17,-666 133.17,-666 136.33,-666 139.5,-669.17 139.5,-672.33 139.5,-672.33 139.5,-678.67 139.5,-678.67 139.5,-681.83 136.33,-685 133.17,-685"/>
<text text-anchor="middle" x="82" y="-673" font-family="Helvetica,sans-Serif" font-size="10.00">writeSnxSatFreqChn</text>
</a>
</g>
</g>
<!-- Node1&#45;&gt;Node23 -->
<g id="edge18_Node000001_Node000023" class="edge">
<title>Node1&#45;&gt;Node23</title>
<g id="a_edge18_Node000001_Node000023"><a xlink:title=" ">
<path fill="none" stroke="#63b8ff" d="M189.78,-663.53C173.4,-665.37 155.84,-667.34 139.79,-669.13"/>
<polygon fill="#63b8ff" stroke="#63b8ff" points="190.25,-667 199.8,-662.41 189.47,-660.04 190.25,-667"/>
</a>
</g>
</g>
<!-- Node24 -->
<g id="Node000024" class="node">
<title>Node24</title>
<g id="a_Node000024"><a xlink:href="sinex_8cpp.html#a0bf06a4b45e95d03e4d7a9276cd71ed9" target="_top" xlink:title=" ">
<path fill="#fff0f0" stroke="red" d="M128.17,-648C128.17,-648 35.83,-648 35.83,-648 32.67,-648 29.5,-644.83 29.5,-641.67 29.5,-641.67 29.5,-635.33 29.5,-635.33 29.5,-632.17 32.67,-629 35.83,-629 35.83,-629 128.17,-629 128.17,-629 131.33,-629 134.5,-632.17 134.5,-635.33 134.5,-635.33 134.5,-641.67 134.5,-641.67 134.5,-644.83 131.33,-648 128.17,-648"/>
<text text-anchor="middle" x="82" y="-636" font-family="Helvetica,sans-Serif" font-size="10.00">writeSnxSatIdents</text>
</a>
</g>
</g>
<!-- Node1&#45;&gt;Node24 -->
<g id="edge19_Node000001_Node000024" class="edge">
<title>Node1&#45;&gt;Node24</title>
<g id="a_edge19_Node000001_Node000024"><a xlink:title=" ">
<path fill="none" stroke="#63b8ff" d="M189.85,-649.85C171.64,-647.91 151.95,-645.82 134.51,-643.97"/>
<polygon fill="#63b8ff" stroke="#63b8ff" points="189.48,-653.33 199.8,-650.9 190.22,-646.37 189.48,-653.33"/>
</a>
</g>
</g>
<!-- Node25 -->
<g id="Node000025" class="node">
<title>Node25</title>
<g id="a_Node000025"><a xlink:href="sinex_8cpp.html#a93c1ab143efc018f8923c782b9568cc0" target="_top" xlink:title=" ">
<path fill="#fff0f0" stroke="red" d="M120.17,-611C120.17,-611 43.83,-611 43.83,-611 40.67,-611 37.5,-607.83 37.5,-604.67 37.5,-604.67 37.5,-598.33 37.5,-598.33 37.5,-595.17 40.67,-592 43.83,-592 43.83,-592 120.17,-592 120.17,-592 123.33,-592 126.5,-595.17 126.5,-598.33 126.5,-598.33 126.5,-604.67 126.5,-604.67 126.5,-607.83 123.33,-611 120.17,-611"/>
<text text-anchor="middle" x="82" y="-599" font-family="Helvetica,sans-Serif" font-size="10.00">writeSnxSatIds</text>
</a>
</g>
</g>
<!-- Node1&#45;&gt;Node25 -->
<g id="edge20_Node000001_Node000025" class="edge">
<title>Node1&#45;&gt;Node25</title>
<g id="a_edge20_Node000001_Node000025"><a xlink:title=" ">
<path fill="none" stroke="#63b8ff" d="M222.37,-642.88C205.45,-635.58 183.82,-626.81 164,-620.5 152.03,-616.69 138.84,-613.27 126.64,-610.42"/>
<polygon fill="#63b8ff" stroke="#63b8ff" points="221.18,-646.18 231.74,-646.98 223.98,-639.76 221.18,-646.18"/>
</a>
</g>
</g>
<!-- Node26 -->
<g id="Node000026" class="node">
<title>Node26</title>
<g id="a_Node000026"><a xlink:href="sinex_8cpp.html#ab3f674371c7e39f698149afd20d16e7e" target="_top" xlink:title=" ">
<path fill="#fff0f0" stroke="red" d="M126.17,-574C126.17,-574 37.83,-574 37.83,-574 34.67,-574 31.5,-570.83 31.5,-567.67 31.5,-567.67 31.5,-561.33 31.5,-561.33 31.5,-558.17 34.67,-555 37.83,-555 37.83,-555 126.17,-555 126.17,-555 129.33,-555 132.5,-558.17 132.5,-561.33 132.5,-561.33 132.5,-567.67 132.5,-567.67 132.5,-570.83 129.33,-574 126.17,-574"/>
<text text-anchor="middle" x="82" y="-562" font-family="Helvetica,sans-Serif" font-size="10.00">writESnxSatMass</text>
</a>
</g>
</g>
<!-- Node1&#45;&gt;Node26 -->
<g id="edge21_Node000001_Node000026" class="edge">
<title>Node1&#45;&gt;Node26</title>
<g id="a_edge21_Node000001_Node000026"><a xlink:title=" ">
<path fill="none" stroke="#63b8ff" d="M236.5,-639.32C219.93,-622.58 192.53,-597.64 164,-583.5 154.29,-578.69 143.32,-575.07 132.66,-572.35"/>
<polygon fill="#63b8ff" stroke="#63b8ff" points="234.25,-642.04 243.71,-646.8 239.29,-637.17 234.25,-642.04"/>
</a>
</g>
</g>
<!-- Node27 -->
<g id="Node000027" class="node">
<title>Node27</title>
<g id="a_Node000027"><a xlink:href="sinex_8cpp.html#a74bc1a84ae35a98845b04a25c4a87238" target="_top" xlink:title=" ">
<path fill="#fff0f0" stroke="red" d="M118.67,-537C118.67,-537 45.33,-537 45.33,-537 42.17,-537 39,-533.83 39,-530.67 39,-530.67 39,-524.33 39,-524.33 39,-521.17 42.17,-518 45.33,-518 45.33,-518 118.67,-518 118.67,-518 121.83,-518 125,-521.17 125,-524.33 125,-524.33 125,-530.67 125,-530.67 125,-533.83 121.83,-537 118.67,-537"/>
<text text-anchor="middle" x="82" y="-525" font-family="Helvetica,sans-Serif" font-size="10.00">writeSnxSatPc</text>
</a>
</g>
</g>
<!-- Node1&#45;&gt;Node27 -->
<g id="edge22_Node000001_Node000027" class="edge">
<title>Node1&#45;&gt;Node27</title>
<g id="a_edge22_Node000001_Node000027"><a xlink:title=" ">
<path fill="none" stroke="#63b8ff" d="M242.8,-637.96C228.83,-613.13 200.62,-569.56 164,-546.5 152.39,-539.19 138.24,-534.69 125.04,-531.92"/>
<polygon fill="#63b8ff" stroke="#63b8ff" points="239.74,-639.66 247.6,-646.76 245.89,-636.31 239.74,-639.66"/>
</a>
</g>
</g>
<!-- Node28 -->
<g id="Node000028" class="node">
<title>Node28</title>
<g id="a_Node000028"><a xlink:href="sinex_8cpp.html#a7f681fedec5b5cad9ce1e34d52911691" target="_top" xlink:title=" ">
<path fill="#fff0f0" stroke="red" d="M128.17,-500C128.17,-500 35.83,-500 35.83,-500 32.67,-500 29.5,-496.83 29.5,-493.67 29.5,-493.67 29.5,-487.33 29.5,-487.33 29.5,-484.17 32.67,-481 35.83,-481 35.83,-481 128.17,-481 128.17,-481 131.33,-481 134.5,-484.17 134.5,-487.33 134.5,-487.33 134.5,-493.67 134.5,-493.67 134.5,-496.83 131.33,-500 128.17,-500"/>
<text text-anchor="middle" x="82" y="-488" font-family="Helvetica,sans-Serif" font-size="10.00">writeSnxSatPower</text>
</a>
</g>
</g>
<!-- Node1&#45;&gt;Node28 -->
<g id="edge23_Node000001_Node000028" class="edge">
<title>Node1&#45;&gt;Node28</title>
<g id="a_edge23_Node000001_Node000028"><a xlink:title=" ">
<path fill="none" stroke="#63b8ff" d="M246.32,-636.89C235.23,-604.99 208.8,-542.14 164,-509.5 155.36,-503.21 144.95,-498.96 134.51,-496.11"/>
<polygon fill="#63b8ff" stroke="#63b8ff" points="243.14,-638.4 249.61,-646.78 249.78,-636.19 243.14,-638.4"/>
</a>
</g>
</g>
<!-- Node29 -->
<g id="Node000029" class="node">
<title>Node29</title>
<g id="a_Node000029"><a xlink:href="sinex_8cpp.html#aa0db659fc42a1505fb3842bf4bd4cb45" target="_top" xlink:title=" ">
<path fill="#fff0f0" stroke="red" d="M123.67,-463C123.67,-463 40.33,-463 40.33,-463 37.17,-463 34,-459.83 34,-456.67 34,-456.67 34,-450.33 34,-450.33 34,-447.17 37.17,-444 40.33,-444 40.33,-444 123.67,-444 123.67,-444 126.83,-444 130,-447.17 130,-450.33 130,-450.33 130,-456.67 130,-456.67 130,-459.83 126.83,-463 123.67,-463"/>
<text text-anchor="middle" x="82" y="-451" font-family="Helvetica,sans-Serif" font-size="10.00">writeSnxSatPrns</text>
</a>
</g>
</g>
<!-- Node1&#45;&gt;Node29 -->
<g id="edge24_Node000001_Node000029" class="edge">
<title>Node1&#45;&gt;Node29</title>
<g id="a_edge24_Node000001_Node000029"><a xlink:title=" ">
<path fill="none" stroke="#63b8ff" d="M248.86,-636.85C240.77,-598.9 217.59,-515.52 164,-472.5 154.43,-464.81 142.28,-460.14 130.33,-457.32"/>
<polygon fill="#63b8ff" stroke="#63b8ff" points="245.43,-637.55 250.83,-646.67 252.3,-636.18 245.43,-637.55"/>
</a>
</g>
</g>
<!-- Node30 -->
<g id="Node000030" class="node">
<title>Node30</title>
<g id="a_Node000030"><a xlink:href="sinex_8cpp.html#a6cd63108dee4e202429fce15a79c0c7b" target="_top" xlink:title=" ">
<path fill="#fff0f0" stroke="red" d="M125.67,-426C125.67,-426 38.33,-426 38.33,-426 35.17,-426 32,-422.83 32,-419.67 32,-419.67 32,-413.33 32,-413.33 32,-410.17 35.17,-407 38.33,-407 38.33,-407 125.67,-407 125.67,-407 128.83,-407 132,-410.17 132,-413.33 132,-413.33 132,-419.67 132,-419.67 132,-422.83 128.83,-426 125.67,-426"/>
<text text-anchor="middle" x="82" y="-414" font-family="Helvetica,sans-Serif" font-size="10.00">writeSnxSitedata</text>
</a>
</g>
</g>
<!-- Node1&#45;&gt;Node30 -->
<g id="edge25_Node000001_Node000030" class="edge">
<title>Node1&#45;&gt;Node30</title>
<g id="a_edge25_Node000001_Node000030"><a xlink:title=" ">
<path fill="none" stroke="#63b8ff" d="M250.58,-636.62C245.29,-593.13 226.43,-489.17 164,-435.5 155.13,-427.87 143.76,-423.17 132.37,-420.3"/>
<polygon fill="#63b8ff" stroke="#63b8ff" points="247.12,-637.19 251.7,-646.75 254.08,-636.42 247.12,-637.19"/>
</a>
</g>
</g>
<!-- Node31 -->
<g id="Node000031" class="node">
<title>Node31</title>
<g id="a_Node000031"><a xlink:href="sinex_8cpp.html#a6a6c700cb6c50b037c27c0b591a300a5" target="_top" xlink:title=" ">
<path fill="#fff0f0" stroke="red" d="M125.67,-389C125.67,-389 38.33,-389 38.33,-389 35.17,-389 32,-385.83 32,-382.67 32,-382.67 32,-376.33 32,-376.33 32,-373.17 35.17,-370 38.33,-370 38.33,-370 125.67,-370 125.67,-370 128.83,-370 132,-373.17 132,-376.33 132,-376.33 132,-382.67 132,-382.67 132,-385.83 128.83,-389 125.67,-389"/>
<text text-anchor="middle" x="82" y="-377" font-family="Helvetica,sans-Serif" font-size="10.00">writeSnxSiteEccs</text>
</a>
</g>
</g>
<!-- Node1&#45;&gt;Node31 -->
<g id="edge26_Node000001_Node000031" class="edge">
<title>Node1&#45;&gt;Node31</title>
<g id="a_edge26_Node000001_Node000031"><a xlink:title=" ">
<path fill="none" stroke="#63b8ff" d="M251.88,-636.68C249.26,-588.26 235.52,-463.2 164,-398.5 155.22,-390.55 143.75,-385.75 132.22,-382.89"/>
<polygon fill="#63b8ff" stroke="#63b8ff" points="248.39,-636.94 252.33,-646.78 255.38,-636.63 248.39,-636.94"/>
</a>
</g>
</g>
<!-- Node32 -->
<g id="Node000032" class="node">
<title>Node32</title>
<g id="a_Node000032"><a xlink:href="sinex_8cpp.html#ae61112174da4208b38b61d145cab0de7" target="_top" xlink:title=" ">
<path fill="#fff0f0" stroke="red" d="M121.67,-352C121.67,-352 42.33,-352 42.33,-352 39.17,-352 36,-348.83 36,-345.67 36,-345.67 36,-339.33 36,-339.33 36,-336.17 39.17,-333 42.33,-333 42.33,-333 121.67,-333 121.67,-333 124.83,-333 128,-336.17 128,-339.33 128,-339.33 128,-345.67 128,-345.67 128,-348.83 124.83,-352 121.67,-352"/>
<text text-anchor="middle" x="82" y="-340" font-family="Helvetica,sans-Serif" font-size="10.00">writeSnxSiteids</text>
</a>
</g>
</g>
<!-- Node1&#45;&gt;Node32 -->
<g id="edge27_Node000001_Node000032" class="edge">
<title>Node1&#45;&gt;Node32</title>
<g id="a_edge27_Node000001_Node000032"><a xlink:title=" ">
<path fill="none" stroke="#63b8ff" d="M252.88,-636.77C252.75,-583.82 244.73,-437.45 164,-361.5 154.32,-352.39 141.14,-347.38 128.22,-344.69"/>
<polygon fill="#63b8ff" stroke="#63b8ff" points="249.38,-636.83 252.8,-646.86 256.37,-636.88 249.38,-636.83"/>
</a>
</g>
</g>
<!-- Node33 -->
<g id="Node000033" class="node">
<title>Node33</title>
<g id="a_Node000033"><a xlink:href="sinex_8cpp.html#a1495ff6e93d705a21b2216ddfd1f3d96" target="_top" xlink:title=" ">
<path fill="#fff0f0" stroke="red" d="M129.17,-315C129.17,-315 34.83,-315 34.83,-315 31.67,-315 28.5,-311.83 28.5,-308.67 28.5,-308.67 28.5,-302.33 28.5,-302.33 28.5,-299.17 31.67,-296 34.83,-296 34.83,-296 129.17,-296 129.17,-296 132.33,-296 135.5,-299.17 135.5,-302.33 135.5,-302.33 135.5,-308.67 135.5,-308.67 135.5,-311.83 132.33,-315 129.17,-315"/>
<text text-anchor="middle" x="82" y="-303" font-family="Helvetica,sans-Serif" font-size="10.00">writeSnxSourceIds</text>
</a>
</g>
</g>
<!-- Node1&#45;&gt;Node33 -->
<g id="edge28_Node000001_Node000033" class="edge">
<title>Node1&#45;&gt;Node33</title>
<g id="a_edge28_Node000001_Node000033"><a xlink:title=" ">
<path fill="none" stroke="#63b8ff" d="M249.91,-636.77C241.05,-572.25 209.94,-369.08 164,-324.5 156.23,-316.96 146.05,-312.2 135.56,-309.25"/>
<polygon fill="#63b8ff" stroke="#63b8ff" points="246.46,-637.38 251.26,-646.83 253.4,-636.45 246.46,-637.38"/>
</a>
</g>
</g>
<!-- Node34 -->
<g id="Node000034" class="node">
<title>Node34</title>
<g id="a_Node000034"><a xlink:href="sinex_8cpp.html#a49a88eb37870d9269252d9e604284b99" target="_top" xlink:title=" ">
<path fill="#fff0f0" stroke="red" d="M127.67,-278C127.67,-278 36.33,-278 36.33,-278 33.17,-278 30,-274.83 30,-271.67 30,-271.67 30,-265.33 30,-265.33 30,-262.17 33.17,-259 36.33,-259 36.33,-259 127.67,-259 127.67,-259 130.83,-259 134,-262.17 134,-265.33 134,-265.33 134,-271.67 134,-271.67 134,-274.83 130.83,-278 127.67,-278"/>
<text text-anchor="middle" x="82" y="-266" font-family="Helvetica,sans-Serif" font-size="10.00">writeSnxStatistics</text>
</a>
</g>
</g>
<!-- Node1&#45;&gt;Node34 -->
<g id="edge29_Node000001_Node000034" class="edge">
<title>Node1&#45;&gt;Node34</title>
<g id="a_edge29_Node000001_Node000034"><a xlink:title=" ">
<path fill="none" stroke="#63b8ff" d="M250.48,-636.86C243.01,-567.83 214.65,-337.9 164,-287.5 155.91,-279.45 145.1,-274.56 134.02,-271.65"/>
<polygon fill="#63b8ff" stroke="#63b8ff" points="247.01,-637.25 251.54,-646.83 253.97,-636.51 247.01,-637.25"/>
</a>
</g>
</g>
<!-- Node35 -->
<g id="Node000035" class="node">
<title>Node35</title>
<g id="a_Node000035"><a xlink:href="tropSinex_8cpp.html#a219d3c5e4d7d71f3f485ff07b156347a" target="_top" xlink:title="Write TROP/DESCRIPTION block.">
<path fill="#fff0f0" stroke="red" d="M118.67,-241C118.67,-241 45.33,-241 45.33,-241 42.17,-241 39,-237.83 39,-234.67 39,-234.67 39,-228.33 39,-228.33 39,-225.17 42.17,-222 45.33,-222 45.33,-222 118.67,-222 118.67,-222 121.83,-222 125,-225.17 125,-228.33 125,-228.33 125,-234.67 125,-234.67 125,-237.83 121.83,-241 118.67,-241"/>
<text text-anchor="middle" x="82" y="-229" font-family="Helvetica,sans-Serif" font-size="10.00">writeTropDesc</text>
</a>
</g>
</g>
<!-- Node1&#45;&gt;Node35 -->
<g id="edge30_Node000001_Node000035" class="edge">
<title>Node1&#45;&gt;Node35</title>
<g id="a_edge30_Node000001_Node000035"><a xlink:title=" ">
<path fill="none" stroke="#63b8ff" d="M250.94,-636.83C244.74,-563.41 219.36,-306.74 164,-250.5 153.87,-240.21 139.29,-235.06 125.29,-232.6"/>
<polygon fill="#63b8ff" stroke="#63b8ff" points="247.47,-637.3 251.78,-646.98 254.45,-636.73 247.47,-637.3"/>
</a>
</g>
</g>
<!-- Node42 -->
<g id="Node000042" class="node">
<title>Node42</title>
<g id="a_Node000042"><a xlink:href="tropSinex_8cpp.html#ab96eace990c2340bc8e70036b29120c5" target="_top" xlink:title="Write SITE/ANTENNA block.">
<path fill="#fff0f0" stroke="red" d="M124.17,-204C124.17,-204 39.83,-204 39.83,-204 36.67,-204 33.5,-200.83 33.5,-197.67 33.5,-197.67 33.5,-191.33 33.5,-191.33 33.5,-188.17 36.67,-185 39.83,-185 39.83,-185 124.17,-185 124.17,-185 127.33,-185 130.5,-188.17 130.5,-191.33 130.5,-191.33 130.5,-197.67 130.5,-197.67 130.5,-200.83 127.33,-204 124.17,-204"/>
<text text-anchor="middle" x="82" y="-192" font-family="Helvetica,sans-Serif" font-size="10.00">writeTropSiteAnt</text>
</a>
</g>
</g>
<!-- Node1&#45;&gt;Node42 -->
<g id="edge31_Node000001_Node000042" class="edge">
<title>Node1&#45;&gt;Node42</title>
<g id="a_edge31_Node000001_Node000042"><a xlink:title=" ">
<path fill="none" stroke="#63b8ff" d="M251.31,-636.57C246.27,-558.61 224.04,-275.56 164,-213.5 155.26,-204.47 143.11,-199.38 130.87,-196.6"/>
<polygon fill="#63b8ff" stroke="#63b8ff" points="247.84,-637.13 251.96,-646.9 254.83,-636.7 247.84,-637.13"/>
</a>
</g>
</g>
<!-- Node43 -->
<g id="Node000043" class="node">
<title>Node43</title>
<g id="a_Node000043"><a xlink:href="tropSinex_8cpp.html#ac59c53ad4e1e989f56bb76e256e6d500" target="_top" xlink:title="Write SITE/COORDINATES block.">
<path fill="#fff0f0" stroke="red" d="M130.17,-167C130.17,-167 33.83,-167 33.83,-167 30.67,-167 27.5,-163.83 27.5,-160.67 27.5,-160.67 27.5,-154.33 27.5,-154.33 27.5,-151.17 30.67,-148 33.83,-148 33.83,-148 130.17,-148 130.17,-148 133.33,-148 136.5,-151.17 136.5,-154.33 136.5,-154.33 136.5,-160.67 136.5,-160.67 136.5,-163.83 133.33,-167 130.17,-167"/>
<text text-anchor="middle" x="82" y="-155" font-family="Helvetica,sans-Serif" font-size="10.00">writeTropSiteCoord</text>
</a>
</g>
</g>
<!-- Node1&#45;&gt;Node43 -->
<g id="edge32_Node000001_Node000043" class="edge">
<title>Node1&#45;&gt;Node43</title>
<g id="a_edge32_Node000001_Node000043"><a xlink:title=" ">
<path fill="none" stroke="#63b8ff" d="M251.64,-636.51C247.72,-554.44 228.78,-244.47 164,-176.5 156.73,-168.87 147.01,-164.04 136.85,-161.04"/>
<polygon fill="#63b8ff" stroke="#63b8ff" points="248.17,-637.08 252.12,-646.91 255.16,-636.76 248.17,-637.08"/>
</a>
</g>
</g>
<!-- Node44 -->
<g id="Node000044" class="node">
<title>Node44</title>
<g id="a_Node000044"><a xlink:href="tropSinex_8cpp.html#a6562277d9838a377bf4f369b133b50d2" target="_top" xlink:title="Write SITE/ECCENTRICITY block.">
<path fill="#fff0f0" stroke="red" d="M124.17,-130C124.17,-130 39.83,-130 39.83,-130 36.67,-130 33.5,-126.83 33.5,-123.67 33.5,-123.67 33.5,-117.33 33.5,-117.33 33.5,-114.17 36.67,-111 39.83,-111 39.83,-111 124.17,-111 124.17,-111 127.33,-111 130.5,-114.17 130.5,-117.33 130.5,-117.33 130.5,-123.67 130.5,-123.67 130.5,-126.83 127.33,-130 124.17,-130"/>
<text text-anchor="middle" x="82" y="-118" font-family="Helvetica,sans-Serif" font-size="10.00">writeTropSiteEcc</text>
</a>
</g>
</g>
<!-- Node1&#45;&gt;Node44 -->
<g id="edge33_Node000001_Node000044" class="edge">
<title>Node1&#45;&gt;Node44</title>
<g id="a_edge33_Node000001_Node000044"><a xlink:title=" ">
<path fill="none" stroke="#63b8ff" d="M251.93,-636.35C249.06,-550.14 233.5,-213.37 164,-139.5 155.29,-130.24 143,-125.1 130.61,-122.35"/>
<polygon fill="#63b8ff" stroke="#63b8ff" points="248.44,-636.72 252.25,-646.6 255.43,-636.5 248.44,-636.72"/>
</a>
</g>
</g>
<!-- Node45 -->
<g id="Node000045" class="node">
<title>Node45</title>
<g id="a_Node000045"><a xlink:href="tropSinex_8cpp.html#a1faee2ac53f3a75f110a3d3fadd79354" target="_top" xlink:title="Write SITE/ID block.">
<path fill="#fff0f0" stroke="red" d="M120.17,-93C120.17,-93 43.83,-93 43.83,-93 40.67,-93 37.5,-89.83 37.5,-86.67 37.5,-86.67 37.5,-80.33 37.5,-80.33 37.5,-77.17 40.67,-74 43.83,-74 43.83,-74 120.17,-74 120.17,-74 123.33,-74 126.5,-77.17 126.5,-80.33 126.5,-80.33 126.5,-86.67 126.5,-86.67 126.5,-89.83 123.33,-93 120.17,-93"/>
<text text-anchor="middle" x="82" y="-81" font-family="Helvetica,sans-Serif" font-size="10.00">writeTropSiteId</text>
</a>
</g>
</g>
<!-- Node1&#45;&gt;Node45 -->
<g id="edge34_Node000001_Node000045" class="edge">
<title>Node1&#45;&gt;Node45</title>
<g id="a_edge34_Node000001_Node000045"><a xlink:title=" ">
<path fill="none" stroke="#63b8ff" d="M252.18,-636.65C250.35,-547.19 238.37,-182.42 164,-102.5 154.46,-92.24 140.52,-87.03 126.88,-84.51"/>
<polygon fill="#63b8ff" stroke="#63b8ff" points="248.69,-636.84 252.37,-646.78 255.69,-636.71 248.69,-636.84"/>
</a>
</g>
</g>
<!-- Node46 -->
<g id="Node000046" class="node">
<title>Node46</title>
<g id="a_Node000046"><a xlink:href="tropSinex_8cpp.html#a96c1bb288a96f33068140504f3cffba8" target="_top" xlink:title="Write SITE/RECEIVER block.">
<path fill="#fff0f0" stroke="red" d="M124.67,-56C124.67,-56 39.33,-56 39.33,-56 36.17,-56 33,-52.83 33,-49.67 33,-49.67 33,-43.33 33,-43.33 33,-40.17 36.17,-37 39.33,-37 39.33,-37 124.67,-37 124.67,-37 127.83,-37 131,-40.17 131,-43.33 131,-43.33 131,-49.67 131,-49.67 131,-52.83 127.83,-56 124.67,-56"/>
<text text-anchor="middle" x="82" y="-44" font-family="Helvetica,sans-Serif" font-size="10.00">writeTropSiteRec</text>
</a>
</g>
</g>
<!-- Node1&#45;&gt;Node46 -->
<g id="edge35_Node000001_Node000046" class="edge">
<title>Node1&#45;&gt;Node46</title>
<g id="a_edge35_Node000001_Node000046"><a xlink:title=" ">
<path fill="none" stroke="#63b8ff" d="M252.4,-636.51C251.53,-543.21 243.13,-151.38 164,-65.5 155.48,-56.26 143.4,-51.1 131.16,-48.33"/>
<polygon fill="#63b8ff" stroke="#63b8ff" points="248.9,-636.61 252.48,-646.59 255.9,-636.56 248.9,-636.61"/>
</a>
</g>
</g>
<!-- Node47 -->
<g id="Node000047" class="node">
<title>Node47</title>
<g id="a_Node000047"><a xlink:href="tropSinex_8cpp.html#ae2adfa651c283b816f840a0727bd2340" target="_top" xlink:title="Write TROP/SOLUTION block.">
<path fill="#fff0f0" stroke="red" d="M114.17,-19C114.17,-19 49.83,-19 49.83,-19 46.67,-19 43.5,-15.83 43.5,-12.67 43.5,-12.67 43.5,-6.33 43.5,-6.33 43.5,-3.17 46.67,0 49.83,0 49.83,0 114.17,0 114.17,0 117.33,0 120.5,-3.17 120.5,-6.33 120.5,-6.33 120.5,-12.67 120.5,-12.67 120.5,-15.83 117.33,-19 114.17,-19"/>
<text text-anchor="middle" x="82" y="-7" font-family="Helvetica,sans-Serif" font-size="10.00">writeTropSol</text>
</a>
</g>
</g>
<!-- Node1&#45;&gt;Node47 -->
<g id="edge36_Node000001_Node000047" class="edge">
<title>Node1&#45;&gt;Node47</title>
<g id="a_edge36_Node000001_Node000047"><a xlink:title=" ">
<path fill="none" stroke="#63b8ff" d="M252.6,-636.82C252.65,-540.58 248.02,-120.48 164,-28.5 153.09,-16.56 136.22,-11.43 120.7,-9.43"/>
<polygon fill="#63b8ff" stroke="#63b8ff" points="249.1,-636.9 252.57,-646.91 256.1,-636.91 249.1,-636.9"/>
</a>
</g>
</g>
</g>
</svg>
