<?xml version="1.0" encoding="UTF-8" standalone="no"?>
<!DOCTYPE svg PUBLIC "-//W3C//DTD SVG 1.1//EN"
 "http://www.w3.org/Graphics/SVG/1.1/DTD/svg11.dtd">
<!-- Generated by graphviz version 2.43.0 (0)
 -->
<!-- Title: write_snx_epochs Pages: 1 -->
<svg width="263pt" height="27pt"
 viewBox="0.00 0.00 263.00 27.00" xmlns="http://www.w3.org/2000/svg" xmlns:xlink="http://www.w3.org/1999/xlink">
<g id="graph0" class="graph" transform="scale(1 1) rotate(0) translate(4 23)">
<title>write_snx_epochs</title>
<!-- Node1 -->
<g id="Node000001" class="node">
<title>Node1</title>
<g id="a_Node000001"><a xlink:href="sinex_8cpp.html#add14f0cac292f692fa4f87918df5a3be" target="_top" xlink:title=" ">
<path fill="#fff0f0" stroke="red" stroke-width="2" d="M97.67,-19C97.67,-19 6.33,-19 6.33,-19 3.17,-19 0,-15.83 0,-12.67 0,-12.67 0,-6.33 0,-6.33 0,-3.17 3.17,0 6.33,0 6.33,0 97.67,0 97.67,0 100.83,0 104,-3.17 104,-6.33 104,-6.33 104,-12.67 104,-12.67 104,-15.83 100.83,-19 97.67,-19"/>
<text text-anchor="middle" x="52" y="-7" font-family="Helvetica,sans-Serif" font-size="10.00">write_snx_epochs</text>
</a>
</g>
</g>
<!-- Node2 -->
<g id="Node000002" class="node">
<title>Node2</title>
<g id="a_Node000002"><a xlink:href="sinex_8cpp.html#a3864b30901f7e47c62b577f17fae0d3b" target="_top" xlink:title=" ">
<path fill="#fff0f0" stroke="red" d="M248.67,-19C248.67,-19 146.33,-19 146.33,-19 143.17,-19 140,-15.83 140,-12.67 140,-12.67 140,-6.33 140,-6.33 140,-3.17 143.17,0 146.33,0 146.33,0 248.67,0 248.67,0 251.83,0 255,-3.17 255,-6.33 255,-6.33 255,-12.67 255,-12.67 255,-15.83 251.83,-19 248.67,-19"/>
<text text-anchor="middle" x="197.5" y="-7" font-family="Helvetica,sans-Serif" font-size="10.00">write_as_comments</text>
</a>
</g>
</g>
<!-- Node1&#45;&gt;Node2 -->
<g id="edge1_Node000001_Node000002" class="edge">
<title>Node1&#45;&gt;Node2</title>
<g id="a_edge1_Node000001_Node000002"><a xlink:title=" ">
<path fill="none" stroke="#63b8ff" d="M104.4,-9.5C112.52,-9.5 121.02,-9.5 129.43,-9.5"/>
<polygon fill="#63b8ff" stroke="#63b8ff" points="129.62,-13 139.62,-9.5 129.62,-6 129.62,-13"/>
</a>
</g>
</g>
</g>
</svg>
