<?xml version="1.0" encoding="UTF-8" standalone="no"?>
<!DOCTYPE svg PUBLIC "-//W3C//DTD SVG 1.1//EN"
 "http://www.w3.org/Graphics/SVG/1.1/DTD/svg11.dtd">
<!-- Generated by graphviz version 2.43.0 (0)
 -->
<!-- Title: getRecSnx Pages: 1 -->
<svg width="239pt" height="27pt"
 viewBox="0.00 0.00 239.00 27.00" xmlns="http://www.w3.org/2000/svg" xmlns:xlink="http://www.w3.org/1999/xlink">
<g id="graph0" class="graph" transform="scale(1 1) rotate(0) translate(4 23)">
<title>getRecSnx</title>
<!-- Node1 -->
<g id="Node000001" class="node">
<title>Node1</title>
<g id="a_Node000001"><a xlink:href="sinex_8cpp.html#ab4839f5d809abfd7161c3bb29b968421" target="_top" xlink:title=" ">
<path fill="#fff0f0" stroke="red" stroke-width="2" d="M61.67,-19C61.67,-19 6.33,-19 6.33,-19 3.17,-19 0,-15.83 0,-12.67 0,-12.67 0,-6.33 0,-6.33 0,-3.17 3.17,0 6.33,0 6.33,0 61.67,0 61.67,0 64.83,0 68,-3.17 68,-6.33 68,-6.33 68,-12.67 68,-12.67 68,-15.83 64.83,-19 61.67,-19"/>
<text text-anchor="middle" x="34" y="-7" font-family="Helvetica,sans-Serif" font-size="10.00">getRecSnx</text>
</a>
</g>
</g>
<!-- Node2 -->
<g id="Node000002" class="node">
<title>Node2</title>
<g id="a_Node000002"><a xlink:href="sinex_8cpp.html#a553045670036d34d3260a2009ab19a8f" target="_top" xlink:title=" ">
<path fill="#fff0f0" stroke="red" d="M224.67,-19C224.67,-19 110.33,-19 110.33,-19 107.17,-19 104,-15.83 104,-12.67 104,-12.67 104,-6.33 104,-6.33 104,-3.17 107.17,0 110.33,0 110.33,0 224.67,0 224.67,0 227.83,0 231,-3.17 231,-6.33 231,-6.33 231,-12.67 231,-12.67 231,-15.83 227.83,-19 224.67,-19"/>
<text text-anchor="middle" x="167.5" y="-7" font-family="Helvetica,sans-Serif" font-size="10.00">setRestrictiveEndTime</text>
</a>
</g>
</g>
<!-- Node1&#45;&gt;Node2 -->
<g id="edge1_Node000001_Node000002" class="edge">
<title>Node1&#45;&gt;Node2</title>
<g id="a_edge1_Node000001_Node000002"><a xlink:title=" ">
<path fill="none" stroke="#63b8ff" d="M68.18,-3.55C76.09,-3.13 84.83,-2.87 93.75,-2.78"/>
<polygon fill="#63b8ff" stroke="#63b8ff" points="93.87,-6.28 103.86,-2.76 93.85,0.72 93.87,-6.28"/>
</a>
</g>
</g>
<!-- Node1&#45;&gt;Node2 -->
<g id="edge2_Node000001_Node000002" class="edge">
<title>Node1&#45;&gt;Node2</title>
<g id="a_edge2_Node000001_Node000002"><a xlink:title=" ">
<path fill="none" stroke="#63b8ff" d="M68.18,-15.45C76.09,-15.87 84.83,-16.13 93.75,-16.22"/>
<polygon fill="#63b8ff" stroke="#63b8ff" points="93.85,-19.72 103.86,-16.24 93.87,-12.72 93.85,-19.72"/>
</a>
</g>
</g>
</g>
</svg>
