<?xml version="1.0" encoding="UTF-8" standalone="no"?>
<!DOCTYPE svg PUBLIC "-//W3C//DTD SVG 1.1//EN"
 "http://www.w3.org/Graphics/SVG/1.1/DTD/svg11.dtd">
<!-- Generated by graphviz version 2.43.0 (0)
 -->
<!-- Title: write_snx_apriori_from_stations Pages: 1 -->
<svg width="288pt" height="38pt"
 viewBox="0.00 0.00 288.00 38.00" xmlns="http://www.w3.org/2000/svg" xmlns:xlink="http://www.w3.org/1999/xlink">
<g id="graph0" class="graph" transform="scale(1 1) rotate(0) translate(4 34)">
<title>write_snx_apriori_from_stations</title>
<!-- Node1 -->
<g id="Node000001" class="node">
<title>Node1</title>
<g id="a_Node000001"><a xlink:href="sinex_8cpp.html#ad1f04c8ad86df292ccd205e1f41e369d" target="_top" xlink:title=" ">
<path fill="#fff0f0" stroke="red" stroke-width="2" d="M119,-30C119,-30 10,-30 10,-30 5,-30 0,-25 0,-20 0,-20 0,-10 0,-10 0,-5 5,0 10,0 10,0 119,0 119,0 124,0 129,-5 129,-10 129,-10 129,-20 129,-20 129,-25 124,-30 119,-30"/>
<text text-anchor="start" x="8" y="-18" font-family="Helvetica,sans-Serif" font-size="10.00">write_snx_apriori_from</text>
<text text-anchor="middle" x="64.5" y="-7" font-family="Helvetica,sans-Serif" font-size="10.00">_stations</text>
</a>
</g>
</g>
<!-- Node2 -->
<g id="Node000002" class="node">
<title>Node2</title>
<g id="a_Node000002"><a xlink:href="sinex_8cpp.html#a3864b30901f7e47c62b577f17fae0d3b" target="_top" xlink:title=" ">
<path fill="#fff0f0" stroke="red" d="M273.67,-24.5C273.67,-24.5 171.33,-24.5 171.33,-24.5 168.17,-24.5 165,-21.33 165,-18.17 165,-18.17 165,-11.83 165,-11.83 165,-8.67 168.17,-5.5 171.33,-5.5 171.33,-5.5 273.67,-5.5 273.67,-5.5 276.83,-5.5 280,-8.67 280,-11.83 280,-11.83 280,-18.17 280,-18.17 280,-21.33 276.83,-24.5 273.67,-24.5"/>
<text text-anchor="middle" x="222.5" y="-12.5" font-family="Helvetica,sans-Serif" font-size="10.00">write_as_comments</text>
</a>
</g>
</g>
<!-- Node1&#45;&gt;Node2 -->
<g id="edge1_Node000001_Node000002" class="edge">
<title>Node1&#45;&gt;Node2</title>
<g id="a_edge1_Node000001_Node000002"><a xlink:title=" ">
<path fill="none" stroke="#63b8ff" d="M129.4,-15C137.78,-15 146.38,-15 154.8,-15"/>
<polygon fill="#63b8ff" stroke="#63b8ff" points="154.95,-18.5 164.95,-15 154.95,-11.5 154.95,-18.5"/>
</a>
</g>
</g>
</g>
</svg>
