<?xml version="1.0" encoding="UTF-8" standalone="no"?>
<!DOCTYPE svg PUBLIC "-//W3C//DTD SVG 1.1//EN"
 "http://www.w3.org/Graphics/SVG/1.1/DTD/svg11.dtd">
<!-- Generated by graphviz version 2.43.0 (0)
 -->
<!-- Title: writeSnxSatFreqChn Pages: 1 -->
<svg width="266pt" height="27pt"
 viewBox="0.00 0.00 266.00 27.00" xmlns="http://www.w3.org/2000/svg" xmlns:xlink="http://www.w3.org/1999/xlink">
<g id="graph0" class="graph" transform="scale(1 1) rotate(0) translate(4 23)">
<title>writeSnxSatFreqChn</title>
<!-- Node1 -->
<g id="Node000001" class="node">
<title>Node1</title>
<g id="a_Node000001"><a xlink:href="sinex_8cpp.html#af7e697b26a13fecfbab7bdddf17600ee" target="_top" xlink:title=" ">
<path fill="#fff0f0" stroke="red" stroke-width="2" d="M108.67,-19C108.67,-19 6.33,-19 6.33,-19 3.17,-19 0,-15.83 0,-12.67 0,-12.67 0,-6.33 0,-6.33 0,-3.17 3.17,0 6.33,0 6.33,0 108.67,0 108.67,0 111.83,0 115,-3.17 115,-6.33 115,-6.33 115,-12.67 115,-12.67 115,-15.83 111.83,-19 108.67,-19"/>
<text text-anchor="middle" x="57.5" y="-7" font-family="Helvetica,sans-Serif" font-size="10.00">writeSnxSatFreqChn</text>
</a>
</g>
</g>
<!-- Node2 -->
<g id="Node000002" class="node">
<title>Node2</title>
<g id="a_Node000002"><a xlink:href="sinex_8cpp.html#ade0ffbf6a284b0467d88c28563df76ab" target="_top" xlink:title=" ">
<path fill="#fff0f0" stroke="red" d="M251.67,-19C251.67,-19 157.33,-19 157.33,-19 154.17,-19 151,-15.83 151,-12.67 151,-12.67 151,-6.33 151,-6.33 151,-3.17 154.17,0 157.33,0 157.33,0 251.67,0 251.67,0 254.83,0 258,-3.17 258,-6.33 258,-6.33 258,-12.67 258,-12.67 258,-15.83 254.83,-19 251.67,-19"/>
<text text-anchor="middle" x="204.5" y="-7" font-family="Helvetica,sans-Serif" font-size="10.00">writeAsComments</text>
</a>
</g>
</g>
<!-- Node1&#45;&gt;Node2 -->
<g id="edge1_Node000001_Node000002" class="edge">
<title>Node1&#45;&gt;Node2</title>
<g id="a_edge1_Node000001_Node000002"><a xlink:title=" ">
<path fill="none" stroke="#63b8ff" d="M115.39,-9.5C123.63,-9.5 132.14,-9.5 140.49,-9.5"/>
<polygon fill="#63b8ff" stroke="#63b8ff" points="140.56,-13 150.56,-9.5 140.56,-6 140.56,-13"/>
</a>
</g>
</g>
</g>
</svg>
