<?xml version="1.0" encoding="UTF-8" standalone="no"?>
<!DOCTYPE svg PUBLIC "-//W3C//DTD SVG 1.1//EN"
 "http://www.w3.org/Graphics/SVG/1.1/DTD/svg11.dtd">
<!-- Generated by graphviz version 2.43.0 (0)
 -->
<!-- Title: writeSinex Pages: 1 -->
<svg width="276pt" height="545pt"
 viewBox="0.00 0.00 276.00 545.00" xmlns="http://www.w3.org/2000/svg" xmlns:xlink="http://www.w3.org/1999/xlink">
<g id="graph0" class="graph" transform="scale(1 1) rotate(0) translate(4 541)">
<title>writeSinex</title>
<!-- Node1 -->
<g id="Node000001" class="node">
<title>Node1</title>
<g id="a_Node000001"><a xlink:href="sinex_8cpp.html#a2aa2acd23a5ce0582ec7485b241730d2" target="_top" xlink:title=" ">
<path fill="#fff0f0" stroke="red" stroke-width="2" d="M61.67,-278C61.67,-278 6.33,-278 6.33,-278 3.17,-278 0,-274.83 0,-271.67 0,-271.67 0,-265.33 0,-265.33 0,-262.17 3.17,-259 6.33,-259 6.33,-259 61.67,-259 61.67,-259 64.83,-259 68,-262.17 68,-265.33 68,-265.33 68,-271.67 68,-271.67 68,-274.83 64.83,-278 61.67,-278"/>
<text text-anchor="middle" x="34" y="-266" font-family="Helvetica,sans-Serif" font-size="10.00">writeSinex</text>
</a>
</g>
</g>
<!-- Node2 -->
<g id="Node000002" class="node">
<title>Node2</title>
<g id="a_Node000002"><a xlink:href="sinex_8cpp.html#a2bd583429217b4f9f158524eb6212a70" target="_top" xlink:title=" ">
<path fill="#fff0f0" stroke="red" d="M234.67,-537C234.67,-537 137.33,-537 137.33,-537 134.17,-537 131,-533.83 131,-530.67 131,-530.67 131,-524.33 131,-524.33 131,-521.17 134.17,-518 137.33,-518 137.33,-518 234.67,-518 234.67,-518 237.83,-518 241,-521.17 241,-524.33 241,-524.33 241,-530.67 241,-530.67 241,-533.83 237.83,-537 234.67,-537"/>
<text text-anchor="middle" x="186" y="-525" font-family="Helvetica,sans-Serif" font-size="10.00">commentsOverride</text>
</a>
</g>
</g>
<!-- Node1&#45;&gt;Node2 -->
<g id="edge1_Node000001_Node000002" class="edge">
<title>Node1&#45;&gt;Node2</title>
<g id="a_edge1_Node000001_Node000002"><a xlink:title=" ">
<path fill="none" stroke="#63b8ff" d="M34.56,-278.05C33.45,-314.24 34.61,-444.16 104,-509.5 109,-514.21 114.95,-517.79 121.33,-520.5"/>
<polygon fill="#63b8ff" stroke="#63b8ff" points="120.31,-523.85 130.9,-523.87 122.63,-517.25 120.31,-523.85"/>
</a>
</g>
</g>
<!-- Node3 -->
<g id="Node000003" class="node">
<title>Node3</title>
<g id="a_Node000003"><a xlink:href="sinex_8cpp.html#aa81bc426fe4ffe41ec79348ee26722af" target="_top" xlink:title=" ">
<path fill="#fff0f0" stroke="red" d="M227.17,-500C227.17,-500 144.83,-500 144.83,-500 141.67,-500 138.5,-496.83 138.5,-493.67 138.5,-493.67 138.5,-487.33 138.5,-487.33 138.5,-484.17 141.67,-481 144.83,-481 144.83,-481 227.17,-481 227.17,-481 230.33,-481 233.5,-484.17 233.5,-487.33 233.5,-487.33 233.5,-493.67 233.5,-493.67 233.5,-496.83 230.33,-500 227.17,-500"/>
<text text-anchor="middle" x="186" y="-488" font-family="Helvetica,sans-Serif" font-size="10.00">writeSnxHeader</text>
</a>
</g>
</g>
<!-- Node1&#45;&gt;Node3 -->
<g id="edge2_Node000001_Node000003" class="edge">
<title>Node1&#45;&gt;Node3</title>
<g id="a_edge2_Node000001_Node000003"><a xlink:title=" ">
<path fill="none" stroke="#63b8ff" d="M35.14,-278.39C36.17,-311.41 44.19,-418.8 104,-472.5 110.93,-478.72 119.52,-482.95 128.49,-485.79"/>
<polygon fill="#63b8ff" stroke="#63b8ff" points="127.76,-489.22 138.32,-488.36 129.53,-482.44 127.76,-489.22"/>
</a>
</g>
</g>
<!-- Node4 -->
<g id="Node000004" class="node">
<title>Node4</title>
<g id="a_Node000004"><a xlink:href="sinex_8cpp.html#accc79b93eef953394a2b97c795031b81" target="_top" xlink:title=" ">
<path fill="#fff0f0" stroke="red" d="M234.17,-463C234.17,-463 137.83,-463 137.83,-463 134.67,-463 131.5,-459.83 131.5,-456.67 131.5,-456.67 131.5,-450.33 131.5,-450.33 131.5,-447.17 134.67,-444 137.83,-444 137.83,-444 234.17,-444 234.17,-444 237.33,-444 240.5,-447.17 240.5,-450.33 240.5,-450.33 240.5,-456.67 240.5,-456.67 240.5,-459.83 237.33,-463 234.17,-463"/>
<text text-anchor="middle" x="186" y="-451" font-family="Helvetica,sans-Serif" font-size="10.00">writeSnxReference</text>
</a>
</g>
</g>
<!-- Node1&#45;&gt;Node4 -->
<g id="edge3_Node000001_Node000004" class="edge">
<title>Node1&#45;&gt;Node4</title>
<g id="a_edge3_Node000001_Node000004"><a xlink:title=" ">
<path fill="none" stroke="#63b8ff" d="M35.95,-278.22C39.31,-307.08 53.32,-392.92 104,-435.5 109.19,-439.86 115.2,-443.22 121.57,-445.81"/>
<polygon fill="#63b8ff" stroke="#63b8ff" points="120.49,-449.14 131.08,-449.08 122.76,-442.52 120.49,-449.14"/>
</a>
</g>
</g>
<!-- Node5 -->
<g id="Node000005" class="node">
<title>Node5</title>
<g id="a_Node000005"><a xlink:href="sinex_8cpp.html#a34380e73eb681b695516caabdd924888" target="_top" xlink:title=" ">
<path fill="#fff0f0" stroke="red" d="M236.17,-426C236.17,-426 135.83,-426 135.83,-426 132.67,-426 129.5,-422.83 129.5,-419.67 129.5,-419.67 129.5,-413.33 129.5,-413.33 129.5,-410.17 132.67,-407 135.83,-407 135.83,-407 236.17,-407 236.17,-407 239.33,-407 242.5,-410.17 242.5,-413.33 242.5,-413.33 242.5,-419.67 242.5,-419.67 242.5,-422.83 239.33,-426 236.17,-426"/>
<text text-anchor="middle" x="186" y="-414" font-family="Helvetica,sans-Serif" font-size="10.00">writeSnxComments</text>
</a>
</g>
</g>
<!-- Node1&#45;&gt;Node5 -->
<g id="edge4_Node000001_Node000005" class="edge">
<title>Node1&#45;&gt;Node5</title>
<g id="a_edge4_Node000001_Node000005"><a xlink:title=" ">
<path fill="none" stroke="#63b8ff" d="M37.16,-278.14C43.15,-302.49 62.32,-366.77 104,-398.5 108.77,-402.13 114.14,-405.06 119.77,-407.42"/>
<polygon fill="#63b8ff" stroke="#63b8ff" points="118.86,-410.81 129.46,-410.86 121.21,-404.21 118.86,-410.81"/>
</a>
</g>
</g>
<!-- Node6 -->
<g id="Node000006" class="node">
<title>Node6</title>
<g id="a_Node000006"><a xlink:href="sinex_8cpp.html#aac56590ac81ab8a481236bca8e39ada9" target="_top" xlink:title=" ">
<path fill="#fff0f0" stroke="red" d="M239.17,-389C239.17,-389 132.83,-389 132.83,-389 129.67,-389 126.5,-385.83 126.5,-382.67 126.5,-382.67 126.5,-376.33 126.5,-376.33 126.5,-373.17 129.67,-370 132.83,-370 132.83,-370 239.17,-370 239.17,-370 242.33,-370 245.5,-373.17 245.5,-376.33 245.5,-376.33 245.5,-382.67 245.5,-382.67 245.5,-385.83 242.33,-389 239.17,-389"/>
<text text-anchor="middle" x="186" y="-377" font-family="Helvetica,sans-Serif" font-size="10.00">writeSnxInputHistory</text>
</a>
</g>
</g>
<!-- Node1&#45;&gt;Node6 -->
<g id="edge5_Node000001_Node000006" class="edge">
<title>Node1&#45;&gt;Node6</title>
<g id="a_edge5_Node000001_Node000006"><a xlink:title=" ">
<path fill="none" stroke="#63b8ff" d="M39.28,-278.19C48.29,-297.37 71.11,-340.16 104,-361.5 108.02,-364.11 112.36,-366.34 116.87,-368.25"/>
<polygon fill="#63b8ff" stroke="#63b8ff" points="115.73,-371.56 126.32,-371.75 118.16,-365 115.73,-371.56"/>
</a>
</g>
</g>
<!-- Node8 -->
<g id="Node000008" class="node">
<title>Node8</title>
<g id="a_Node000008"><a xlink:href="sinex_8cpp.html#a12845a3b007cc0b6f432d7adee2082ce" target="_top" xlink:title=" ">
<path fill="#fff0f0" stroke="red" d="M233.17,-352C233.17,-352 138.83,-352 138.83,-352 135.67,-352 132.5,-348.83 132.5,-345.67 132.5,-345.67 132.5,-339.33 132.5,-339.33 132.5,-336.17 135.67,-333 138.83,-333 138.83,-333 233.17,-333 233.17,-333 236.33,-333 239.5,-336.17 239.5,-339.33 239.5,-339.33 239.5,-345.67 239.5,-345.67 239.5,-348.83 236.33,-352 233.17,-352"/>
<text text-anchor="middle" x="186" y="-340" font-family="Helvetica,sans-Serif" font-size="10.00">writeSnxInputFiles</text>
</a>
</g>
</g>
<!-- Node1&#45;&gt;Node8 -->
<g id="edge6_Node000001_Node000008" class="edge">
<title>Node1&#45;&gt;Node8</title>
<g id="a_edge6_Node000001_Node000008"><a xlink:title=" ">
<path fill="none" stroke="#63b8ff" d="M43.84,-278.03C56.11,-290.65 79.55,-312.68 104,-324.5 109.79,-327.3 116.02,-329.67 122.36,-331.67"/>
<polygon fill="#63b8ff" stroke="#63b8ff" points="121.8,-335.15 132.38,-334.53 123.72,-328.42 121.8,-335.15"/>
</a>
</g>
</g>
<!-- Node9 -->
<g id="Node000009" class="node">
<title>Node9</title>
<g id="a_Node000009"><a xlink:href="sinex_8cpp.html#ac5bfae7acd242175c2db1510f2e4da30" target="_top" xlink:title=" ">
<path fill="#fff0f0" stroke="red" d="M257.17,-315C257.17,-315 114.83,-315 114.83,-315 111.67,-315 108.5,-311.83 108.5,-308.67 108.5,-308.67 108.5,-302.33 108.5,-302.33 108.5,-299.17 111.67,-296 114.83,-296 114.83,-296 257.17,-296 257.17,-296 260.33,-296 263.5,-299.17 263.5,-302.33 263.5,-302.33 263.5,-308.67 263.5,-308.67 263.5,-311.83 260.33,-315 257.17,-315"/>
<text text-anchor="middle" x="186" y="-303" font-family="Helvetica,sans-Serif" font-size="10.00">writeSnxAcknowledgements</text>
</a>
</g>
</g>
<!-- Node1&#45;&gt;Node9 -->
<g id="edge7_Node000001_Node000009" class="edge">
<title>Node1&#45;&gt;Node9</title>
<g id="a_edge7_Node000001_Node000009"><a xlink:title=" ">
<path fill="none" stroke="#63b8ff" d="M68.25,-278.02C79.56,-281.16 92.3,-284.59 104,-287.5 112.53,-289.62 121.6,-291.75 130.46,-293.77"/>
<polygon fill="#63b8ff" stroke="#63b8ff" points="129.82,-297.22 140.34,-296 131.36,-290.39 129.82,-297.22"/>
</a>
</g>
</g>
<!-- Node10 -->
<g id="Node000010" class="node">
<title>Node10</title>
<g id="a_Node000010"><a xlink:href="sinex_8cpp.html#ae61112174da4208b38b61d145cab0de7" target="_top" xlink:title=" ">
<path fill="#fff0f0" stroke="red" d="M225.67,-278C225.67,-278 146.33,-278 146.33,-278 143.17,-278 140,-274.83 140,-271.67 140,-271.67 140,-265.33 140,-265.33 140,-262.17 143.17,-259 146.33,-259 146.33,-259 225.67,-259 225.67,-259 228.83,-259 232,-262.17 232,-265.33 232,-265.33 232,-271.67 232,-271.67 232,-274.83 228.83,-278 225.67,-278"/>
<text text-anchor="middle" x="186" y="-266" font-family="Helvetica,sans-Serif" font-size="10.00">writeSnxSiteids</text>
</a>
</g>
</g>
<!-- Node1&#45;&gt;Node10 -->
<g id="edge8_Node000001_Node000010" class="edge">
<title>Node1&#45;&gt;Node10</title>
<g id="a_edge8_Node000001_Node000010"><a xlink:title=" ">
<path fill="none" stroke="#63b8ff" d="M68.29,-268.5C86.31,-268.5 109.03,-268.5 129.63,-268.5"/>
<polygon fill="#63b8ff" stroke="#63b8ff" points="129.86,-272 139.86,-268.5 129.86,-265 129.86,-272"/>
</a>
</g>
</g>
<!-- Node11 -->
<g id="Node000011" class="node">
<title>Node11</title>
<g id="a_Node000011"><a xlink:href="sinex_8cpp.html#a7aa82b83df853ad69f59402478585b67" target="_top" xlink:title=" ">
<path fill="#fff0f0" stroke="red" d="M233.17,-241C233.17,-241 138.83,-241 138.83,-241 135.67,-241 132.5,-237.83 132.5,-234.67 132.5,-234.67 132.5,-228.33 132.5,-228.33 132.5,-225.17 135.67,-222 138.83,-222 138.83,-222 233.17,-222 233.17,-222 236.33,-222 239.5,-225.17 239.5,-228.33 239.5,-228.33 239.5,-234.67 239.5,-234.67 239.5,-237.83 236.33,-241 233.17,-241"/>
<text text-anchor="middle" x="186" y="-229" font-family="Helvetica,sans-Serif" font-size="10.00">writeSnxReceivers</text>
</a>
</g>
</g>
<!-- Node1&#45;&gt;Node11 -->
<g id="edge9_Node000001_Node000011" class="edge">
<title>Node1&#45;&gt;Node11</title>
<g id="a_edge9_Node000001_Node000011"><a xlink:title=" ">
<path fill="none" stroke="#63b8ff" d="M68.3,-259.64C79.61,-256.67 92.34,-253.39 104,-250.5 113.47,-248.15 123.58,-245.72 133.33,-243.42"/>
<polygon fill="#63b8ff" stroke="#63b8ff" points="134.4,-246.76 143.33,-241.07 132.79,-239.95 134.4,-246.76"/>
</a>
</g>
</g>
<!-- Node12 -->
<g id="Node000012" class="node">
<title>Node12</title>
<g id="a_Node000012"><a xlink:href="sinex_8cpp.html#a8bc6daaadb1c5330785a944be1f8d33d" target="_top" xlink:title=" ">
<path fill="#fff0f0" stroke="red" d="M232.17,-204C232.17,-204 139.83,-204 139.83,-204 136.67,-204 133.5,-200.83 133.5,-197.67 133.5,-197.67 133.5,-191.33 133.5,-191.33 133.5,-188.17 136.67,-185 139.83,-185 139.83,-185 232.17,-185 232.17,-185 235.33,-185 238.5,-188.17 238.5,-191.33 238.5,-191.33 238.5,-197.67 238.5,-197.67 238.5,-200.83 235.33,-204 232.17,-204"/>
<text text-anchor="middle" x="186" y="-192" font-family="Helvetica,sans-Serif" font-size="10.00">writeSnxAntennas</text>
</a>
</g>
</g>
<!-- Node1&#45;&gt;Node12 -->
<g id="edge10_Node000001_Node000012" class="edge">
<title>Node1&#45;&gt;Node12</title>
<g id="a_edge10_Node000001_Node000012"><a xlink:title=" ">
<path fill="none" stroke="#63b8ff" d="M44.32,-258.77C56.76,-246.36 80.02,-225.13 104,-213.5 110.11,-210.53 116.71,-208.02 123.41,-205.88"/>
<polygon fill="#63b8ff" stroke="#63b8ff" points="124.64,-209.17 133.26,-203.03 122.68,-202.45 124.64,-209.17"/>
</a>
</g>
</g>
<!-- Node13 -->
<g id="Node000013" class="node">
<title>Node13</title>
<g id="a_Node000013"><a xlink:href="sinex_8cpp.html#a6a6c700cb6c50b037c27c0b591a300a5" target="_top" xlink:title=" ">
<path fill="#fff0f0" stroke="red" d="M229.67,-167C229.67,-167 142.33,-167 142.33,-167 139.17,-167 136,-163.83 136,-160.67 136,-160.67 136,-154.33 136,-154.33 136,-151.17 139.17,-148 142.33,-148 142.33,-148 229.67,-148 229.67,-148 232.83,-148 236,-151.17 236,-154.33 236,-154.33 236,-160.67 236,-160.67 236,-163.83 232.83,-167 229.67,-167"/>
<text text-anchor="middle" x="186" y="-155" font-family="Helvetica,sans-Serif" font-size="10.00">writeSnxSiteEccs</text>
</a>
</g>
</g>
<!-- Node1&#45;&gt;Node13 -->
<g id="edge11_Node000001_Node000013" class="edge">
<title>Node1&#45;&gt;Node13</title>
<g id="a_edge11_Node000001_Node000013"><a xlink:title=" ">
<path fill="none" stroke="#63b8ff" d="M39.33,-258.95C48.43,-240.03 71.41,-197.8 104,-176.5 110.63,-172.17 118.14,-168.82 125.84,-166.23"/>
<polygon fill="#63b8ff" stroke="#63b8ff" points="127.05,-169.52 135.66,-163.34 125.07,-162.81 127.05,-169.52"/>
</a>
</g>
</g>
<!-- Node14 -->
<g id="Node000014" class="node">
<title>Node14</title>
<g id="a_Node000014"><a xlink:href="sinex_8cpp.html#ad14286e6ef3c24c30207a882672a883d" target="_top" xlink:title=" ">
<path fill="#fff0f0" stroke="red" d="M226.67,-130C226.67,-130 145.33,-130 145.33,-130 142.17,-130 139,-126.83 139,-123.67 139,-123.67 139,-117.33 139,-117.33 139,-114.17 142.17,-111 145.33,-111 145.33,-111 226.67,-111 226.67,-111 229.83,-111 233,-114.17 233,-117.33 233,-117.33 233,-123.67 233,-123.67 233,-126.83 229.83,-130 226.67,-130"/>
<text text-anchor="middle" x="186" y="-118" font-family="Helvetica,sans-Serif" font-size="10.00">writeSnxEpochs</text>
</a>
</g>
</g>
<!-- Node1&#45;&gt;Node14 -->
<g id="edge12_Node000001_Node000014" class="edge">
<title>Node1&#45;&gt;Node14</title>
<g id="a_edge12_Node000001_Node000014"><a xlink:title=" ">
<path fill="none" stroke="#63b8ff" d="M37.21,-258.96C43.3,-234.86 62.71,-171.22 104,-139.5 111.32,-133.88 120.03,-129.88 128.98,-127.04"/>
<polygon fill="#63b8ff" stroke="#63b8ff" points="130,-130.39 138.74,-124.4 128.17,-123.64 130,-130.39"/>
</a>
</g>
</g>
<!-- Node15 -->
<g id="Node000015" class="node">
<title>Node15</title>
<g id="a_Node000015"><a xlink:href="sinex_8cpp.html#af6a1c808417ca42260736968139c64a6" target="_top" xlink:title=" ">
<path fill="#fff0f0" stroke="red" d="M258.67,-93C258.67,-93 113.33,-93 113.33,-93 110.17,-93 107,-89.83 107,-86.67 107,-86.67 107,-80.33 107,-80.33 107,-77.17 110.17,-74 113.33,-74 113.33,-74 258.67,-74 258.67,-74 261.83,-74 265,-77.17 265,-80.33 265,-80.33 265,-86.67 265,-86.67 265,-89.83 261.83,-93 258.67,-93"/>
<text text-anchor="middle" x="186" y="-81" font-family="Helvetica,sans-Serif" font-size="10.00">writeSnxEstimatesFromFilter</text>
</a>
</g>
</g>
<!-- Node1&#45;&gt;Node15 -->
<g id="edge13_Node000001_Node000015" class="edge">
<title>Node1&#45;&gt;Node15</title>
<g id="a_edge13_Node000001_Node000015"><a xlink:title=" ">
<path fill="none" stroke="#63b8ff" d="M35.99,-258.87C39.47,-230.25 53.79,-145.11 104,-102.5 105.98,-100.82 108.07,-99.29 110.26,-97.88"/>
<polygon fill="#63b8ff" stroke="#63b8ff" points="112,-100.93 119.12,-93.09 108.66,-94.77 112,-100.93"/>
</a>
</g>
</g>
<!-- Node16 -->
<g id="Node000016" class="node">
<title>Node16</title>
<g id="a_Node000016"><a xlink:href="sinex_8cpp.html#a2c8a83df2faa6eba7024b5d03e6b4549" target="_top" xlink:title=" ">
<path fill="#fff0f0" stroke="red" d="M261.67,-56C261.67,-56 110.33,-56 110.33,-56 107.17,-56 104,-52.83 104,-49.67 104,-49.67 104,-43.33 104,-43.33 104,-40.17 107.17,-37 110.33,-37 110.33,-37 261.67,-37 261.67,-37 264.83,-37 268,-40.17 268,-43.33 268,-43.33 268,-49.67 268,-49.67 268,-52.83 264.83,-56 261.67,-56"/>
<text text-anchor="middle" x="186" y="-44" font-family="Helvetica,sans-Serif" font-size="10.00">writeSnxAprioriFromReceivers</text>
</a>
</g>
</g>
<!-- Node1&#45;&gt;Node16 -->
<g id="edge14_Node000001_Node000016" class="edge">
<title>Node1&#45;&gt;Node16</title>
<g id="a_edge14_Node000001_Node000016"><a xlink:title=" ">
<path fill="none" stroke="#63b8ff" d="M35.18,-258.68C36.35,-225.91 44.73,-119.27 104,-65.5 105.69,-63.96 107.49,-62.54 109.37,-61.23"/>
<polygon fill="#63b8ff" stroke="#63b8ff" points="111.19,-64.22 118.06,-56.15 107.66,-58.17 111.19,-64.22"/>
</a>
</g>
</g>
<!-- Node17 -->
<g id="Node000017" class="node">
<title>Node17</title>
<g id="a_Node000017"><a xlink:href="sinex_8cpp.html#ab02384d668b26fa644c579f43835c128" target="_top" xlink:title=" ">
<path fill="#fff0f0" stroke="red" d="M255.17,-19C255.17,-19 116.83,-19 116.83,-19 113.67,-19 110.5,-15.83 110.5,-12.67 110.5,-12.67 110.5,-6.33 110.5,-6.33 110.5,-3.17 113.67,0 116.83,0 116.83,0 255.17,0 255.17,0 258.33,0 261.5,-3.17 261.5,-6.33 261.5,-6.33 261.5,-12.67 261.5,-12.67 261.5,-15.83 258.33,-19 255.17,-19"/>
<text text-anchor="middle" x="186" y="-7" font-family="Helvetica,sans-Serif" font-size="10.00">writeSnxMatricesFromFilter</text>
</a>
</g>
</g>
<!-- Node1&#45;&gt;Node17 -->
<g id="edge15_Node000001_Node000017" class="edge">
<title>Node1&#45;&gt;Node17</title>
<g id="a_edge15_Node000001_Node000017"><a xlink:title=" ">
<path fill="none" stroke="#63b8ff" d="M34.58,-258.51C33.64,-221.88 35.53,-93.65 104,-28.5 105.49,-27.08 107.07,-25.76 108.71,-24.53"/>
<polygon fill="#63b8ff" stroke="#63b8ff" points="110.8,-27.36 117.47,-19.14 107.12,-21.4 110.8,-27.36"/>
</a>
</g>
</g>
</g>
</svg>
