<?xml version="1.0" encoding="UTF-8" standalone="no"?>
<!DOCTYPE svg PUBLIC "-//W3C//DTD SVG 1.1//EN"
 "http://www.w3.org/Graphics/SVG/1.1/DTD/svg11.dtd">
<!-- Generated by graphviz version 2.43.0 (0)
 -->
<!-- Title: parseSatelliteIdentifiers Pages: 1 -->
<svg width="234pt" height="64pt"
 viewBox="0.00 0.00 234.00 64.00" xmlns="http://www.w3.org/2000/svg" xmlns:xlink="http://www.w3.org/1999/xlink">
<g id="graph0" class="graph" transform="scale(1 1) rotate(0) translate(4 60)">
<title>parseSatelliteIdentifiers</title>
<!-- Node1 -->
<g id="Node000001" class="node">
<title>Node1</title>
<g id="a_Node000001"><a xlink:href="sinex_8cpp.html#aeeafb3496cb618d93d588c6fae3aecf9" target="_top" xlink:title=" ">
<path fill="#fff0f0" stroke="red" stroke-width="2" d="M126.67,-37C126.67,-37 6.33,-37 6.33,-37 3.17,-37 0,-33.83 0,-30.67 0,-30.67 0,-24.33 0,-24.33 0,-21.17 3.17,-18 6.33,-18 6.33,-18 126.67,-18 126.67,-18 129.83,-18 133,-21.17 133,-24.33 133,-24.33 133,-30.67 133,-30.67 133,-33.83 129.83,-37 126.67,-37"/>
<text text-anchor="middle" x="66.5" y="-25" font-family="Helvetica,sans-Serif" font-size="10.00">parseSatelliteIdentifiers</text>
</a>
</g>
</g>
<!-- Node2 -->
<g id="Node000002" class="node">
<title>Node2</title>
<g id="a_Node000002"><a xlink:href="gTime_8cpp.html#aca21817ee2127e89013ae4252c5f9abe" target="_top" xlink:title=" ">
<path fill="#fff0f0" stroke="red" d="M219.67,-56C219.67,-56 175.33,-56 175.33,-56 172.17,-56 169,-52.83 169,-49.67 169,-49.67 169,-43.33 169,-43.33 169,-40.17 172.17,-37 175.33,-37 175.33,-37 219.67,-37 219.67,-37 222.83,-37 226,-40.17 226,-43.33 226,-43.33 226,-49.67 226,-49.67 226,-52.83 222.83,-56 219.67,-56"/>
<text text-anchor="middle" x="197.5" y="-44" font-family="Helvetica,sans-Serif" font-size="10.00">str2num</text>
</a>
</g>
</g>
<!-- Node1&#45;&gt;Node2 -->
<g id="edge1_Node000001_Node000002" class="edge">
<title>Node1&#45;&gt;Node2</title>
<g id="a_edge1_Node000001_Node000002"><a xlink:title=" ">
<path fill="none" stroke="#63b8ff" d="M132.38,-37.06C141.38,-38.38 150.37,-39.71 158.65,-40.92"/>
<polygon fill="#63b8ff" stroke="#63b8ff" points="158.3,-44.41 168.7,-42.41 159.32,-37.49 158.3,-44.41"/>
</a>
</g>
</g>
<!-- Node3 -->
<g id="Node000003" class="node">
<title>Node3</title>
<g id="a_Node000003"><a xlink:href="sinex_8cpp.html#a06fabc81a2cc41dfee260450a527ad2d" target="_top" xlink:title="Trims leading &amp; trailing whitespace.">
<path fill="#fff0f0" stroke="red" d="M209.67,-19C209.67,-19 185.33,-19 185.33,-19 182.17,-19 179,-15.83 179,-12.67 179,-12.67 179,-6.33 179,-6.33 179,-3.17 182.17,0 185.33,0 185.33,0 209.67,0 209.67,0 212.83,0 216,-3.17 216,-6.33 216,-6.33 216,-12.67 216,-12.67 216,-15.83 212.83,-19 209.67,-19"/>
<text text-anchor="middle" x="197.5" y="-7" font-family="Helvetica,sans-Serif" font-size="10.00">trim</text>
</a>
</g>
</g>
<!-- Node1&#45;&gt;Node3 -->
<g id="edge2_Node000001_Node000003" class="edge">
<title>Node1&#45;&gt;Node3</title>
<g id="a_edge2_Node000001_Node000003"><a xlink:title=" ">
<path fill="none" stroke="#63b8ff" d="M133.13,-18.34C145.7,-16.59 158.21,-14.84 168.75,-13.37"/>
<polygon fill="#63b8ff" stroke="#63b8ff" points="169.52,-16.8 178.94,-11.95 168.56,-9.87 169.52,-16.8"/>
</a>
</g>
</g>
</g>
</svg>
