<?xml version="1.0" encoding="UTF-8" standalone="no"?>
<!DOCTYPE svg PUBLIC "-//W3C//DTD SVG 1.1//EN"
 "http://www.w3.org/Graphics/SVG/1.1/DTD/svg11.dtd">
<!-- Generated by graphviz version 2.43.0 (0)
 -->
<!-- Title: write_snx_reference Pages: 1 -->
<svg width="276pt" height="64pt"
 viewBox="0.00 0.00 276.00 64.00" xmlns="http://www.w3.org/2000/svg" xmlns:xlink="http://www.w3.org/1999/xlink">
<g id="graph0" class="graph" transform="scale(1 1) rotate(0) translate(4 60)">
<title>write_snx_reference</title>
<!-- Node1 -->
<g id="Node000001" class="node">
<title>Node1</title>
<g id="a_Node000001"><a xlink:href="sinex_8cpp.html#a7801af81f70fa664ea5f0e671aef84e4" target="_top" xlink:title=" ">
<path fill="#fff0f0" stroke="red" stroke-width="2" d="M261.67,-37C261.67,-37 158.33,-37 158.33,-37 155.17,-37 152,-33.83 152,-30.67 152,-30.67 152,-24.33 152,-24.33 152,-21.17 155.17,-18 158.33,-18 158.33,-18 261.67,-18 261.67,-18 264.83,-18 268,-21.17 268,-24.33 268,-24.33 268,-30.67 268,-30.67 268,-33.83 264.83,-37 261.67,-37"/>
<text text-anchor="middle" x="210" y="-25" font-family="Helvetica,sans-Serif" font-size="10.00">write_snx_reference</text>
</a>
</g>
</g>
<!-- Node2 -->
<g id="Node000002" class="node">
<title>Node2</title>
<g id="a_Node000002"><a xlink:href="sinex_8cpp.html#a2aa2acd23a5ce0582ec7485b241730d2" target="_top" xlink:title=" ">
<path fill="#fff0f0" stroke="red" d="M85.67,-56C85.67,-56 30.33,-56 30.33,-56 27.17,-56 24,-52.83 24,-49.67 24,-49.67 24,-43.33 24,-43.33 24,-40.17 27.17,-37 30.33,-37 30.33,-37 85.67,-37 85.67,-37 88.83,-37 92,-40.17 92,-43.33 92,-43.33 92,-49.67 92,-49.67 92,-52.83 88.83,-56 85.67,-56"/>
<text text-anchor="middle" x="58" y="-44" font-family="Helvetica,sans-Serif" font-size="10.00">writeSinex</text>
</a>
</g>
</g>
<!-- Node1&#45;&gt;Node2 -->
<g id="edge1_Node000001_Node000002" class="edge">
<title>Node1&#45;&gt;Node2</title>
<g id="a_edge1_Node000001_Node000002"><a xlink:title=" ">
<path fill="none" stroke="#63b8ff" d="M141.8,-36.01C124.55,-38.2 106.75,-40.45 92.09,-42.31"/>
<polygon fill="#63b8ff" stroke="#63b8ff" points="142.38,-39.47 151.86,-34.74 141.5,-32.52 142.38,-39.47"/>
</a>
</g>
</g>
<!-- Node7 -->
<g id="Node000007" class="node">
<title>Node7</title>
<g id="a_Node000007"><a xlink:href="tropSinex_8cpp.html#af9d3901b3a9964efc0c953a396f9e145" target="_top" xlink:title="Write troposphere Sinex data to file.">
<path fill="#fff0f0" stroke="red" d="M109.67,-19C109.67,-19 6.33,-19 6.33,-19 3.17,-19 0,-15.83 0,-12.67 0,-12.67 0,-6.33 0,-6.33 0,-3.17 3.17,0 6.33,0 6.33,0 109.67,0 109.67,0 112.83,0 116,-3.17 116,-6.33 116,-6.33 116,-12.67 116,-12.67 116,-15.83 112.83,-19 109.67,-19"/>
<text text-anchor="middle" x="58" y="-7" font-family="Helvetica,sans-Serif" font-size="10.00">writeTropSinexToFile</text>
</a>
</g>
</g>
<!-- Node1&#45;&gt;Node7 -->
<g id="edge2_Node000001_Node000007" class="edge">
<title>Node1&#45;&gt;Node7</title>
<g id="a_edge2_Node000001_Node000007"><a xlink:title=" ">
<path fill="none" stroke="#63b8ff" d="M141.69,-19.42C133.27,-18.41 124.72,-17.39 116.47,-16.4"/>
<polygon fill="#63b8ff" stroke="#63b8ff" points="141.52,-22.93 151.86,-20.64 142.35,-15.98 141.52,-22.93"/>
</a>
</g>
</g>
</g>
</svg>
