<?xml version="1.0" encoding="UTF-8" standalone="no"?>
<!DOCTYPE svg PUBLIC "-//W3C//DTD SVG 1.1//EN"
 "http://www.w3.org/Graphics/SVG/1.1/DTD/svg11.dtd">
<!-- Generated by graphviz version 2.43.0 (0)
 -->
<!-- Title: parseSiteData Pages: 1 -->
<svg width="204pt" height="27pt"
 viewBox="0.00 0.00 204.00 27.00" xmlns="http://www.w3.org/2000/svg" xmlns:xlink="http://www.w3.org/1999/xlink">
<g id="graph0" class="graph" transform="scale(1 1) rotate(0) translate(4 23)">
<title>parseSiteData</title>
<!-- Node1 -->
<g id="Node000001" class="node">
<title>Node1</title>
<g id="a_Node000001"><a xlink:href="sinex_8cpp.html#ad9b9d2e12dff0f2a68594408e68dab47" target="_top" xlink:title=" ">
<path fill="#fff0f0" stroke="red" stroke-width="2" d="M79.67,-19C79.67,-19 6.33,-19 6.33,-19 3.17,-19 0,-15.83 0,-12.67 0,-12.67 0,-6.33 0,-6.33 0,-3.17 3.17,0 6.33,0 6.33,0 79.67,0 79.67,0 82.83,0 86,-3.17 86,-6.33 86,-6.33 86,-12.67 86,-12.67 86,-15.83 82.83,-19 79.67,-19"/>
<text text-anchor="middle" x="43" y="-7" font-family="Helvetica,sans-Serif" font-size="10.00">parseSiteData</text>
</a>
</g>
</g>
<!-- Node2 -->
<g id="Node000002" class="node">
<title>Node2</title>
<g id="a_Node000002"><a xlink:href="sinex_8cpp.html#a5ed46782b3a26cc6d0a1a30e650be386" target="_top" xlink:title=" ">
<path fill="#fff0f0" stroke="red" d="M189.67,-19C189.67,-19 128.33,-19 128.33,-19 125.17,-19 122,-15.83 122,-12.67 122,-12.67 122,-6.33 122,-6.33 122,-3.17 125.17,0 128.33,0 128.33,0 189.67,0 189.67,0 192.83,0 196,-3.17 196,-6.33 196,-6.33 196,-12.67 196,-12.67 196,-15.83 192.83,-19 189.67,-19"/>
<text text-anchor="middle" x="159" y="-7" font-family="Helvetica,sans-Serif" font-size="10.00">nearestYear</text>
</a>
</g>
</g>
<!-- Node1&#45;&gt;Node2 -->
<g id="edge1_Node000001_Node000002" class="edge">
<title>Node1&#45;&gt;Node2</title>
<g id="a_edge1_Node000001_Node000002"><a xlink:title=" ">
<path fill="none" stroke="#63b8ff" d="M86.13,-2.96C94.42,-2.72 103.17,-2.69 111.6,-2.85"/>
<polygon fill="#63b8ff" stroke="#63b8ff" points="111.57,-6.36 121.67,-3.16 111.78,0.64 111.57,-6.36"/>
</a>
</g>
</g>
<!-- Node1&#45;&gt;Node2 -->
<g id="edge2_Node000001_Node000002" class="edge">
<title>Node1&#45;&gt;Node2</title>
<g id="a_edge2_Node000001_Node000002"><a xlink:title=" ">
<path fill="none" stroke="#63b8ff" d="M86.13,-16.04C94.42,-16.28 103.17,-16.31 111.6,-16.15"/>
<polygon fill="#63b8ff" stroke="#63b8ff" points="111.78,-19.64 121.67,-15.84 111.57,-12.64 111.78,-19.64"/>
</a>
</g>
</g>
</g>
</svg>
