<?xml version="1.0" encoding="UTF-8" standalone="no"?>
<!DOCTYPE svg PUBLIC "-//W3C//DTD SVG 1.1//EN"
 "http://www.w3.org/Graphics/SVG/1.1/DTD/svg11.dtd">
<!-- Generated by graphviz version 2.43.0 (0)
 -->
<!-- Title: writeSnxInputHistory Pages: 1 -->
<svg width="270pt" height="27pt"
 viewBox="0.00 0.00 270.00 27.00" xmlns="http://www.w3.org/2000/svg" xmlns:xlink="http://www.w3.org/1999/xlink">
<g id="graph0" class="graph" transform="scale(1 1) rotate(0) translate(4 23)">
<title>writeSnxInputHistory</title>
<!-- Node1 -->
<g id="Node000001" class="node">
<title>Node1</title>
<g id="a_Node000001"><a xlink:href="sinex_8cpp.html#aac56590ac81ab8a481236bca8e39ada9" target="_top" xlink:title=" ">
<path fill="#fff0f0" stroke="red" stroke-width="2" d="M112.67,-19C112.67,-19 6.33,-19 6.33,-19 3.17,-19 0,-15.83 0,-12.67 0,-12.67 0,-6.33 0,-6.33 0,-3.17 3.17,0 6.33,0 6.33,0 112.67,0 112.67,0 115.83,0 119,-3.17 119,-6.33 119,-6.33 119,-12.67 119,-12.67 119,-15.83 115.83,-19 112.67,-19"/>
<text text-anchor="middle" x="59.5" y="-7" font-family="Helvetica,sans-Serif" font-size="10.00">writeSnxInputHistory</text>
</a>
</g>
</g>
<!-- Node2 -->
<g id="Node000002" class="node">
<title>Node2</title>
<g id="a_Node000002"><a xlink:href="sinex_8cpp.html#ade0ffbf6a284b0467d88c28563df76ab" target="_top" xlink:title=" ">
<path fill="#fff0f0" stroke="red" d="M255.67,-19C255.67,-19 161.33,-19 161.33,-19 158.17,-19 155,-15.83 155,-12.67 155,-12.67 155,-6.33 155,-6.33 155,-3.17 158.17,0 161.33,0 161.33,0 255.67,0 255.67,0 258.83,0 262,-3.17 262,-6.33 262,-6.33 262,-12.67 262,-12.67 262,-15.83 258.83,-19 255.67,-19"/>
<text text-anchor="middle" x="208.5" y="-7" font-family="Helvetica,sans-Serif" font-size="10.00">writeAsComments</text>
</a>
</g>
</g>
<!-- Node1&#45;&gt;Node2 -->
<g id="edge1_Node000001_Node000002" class="edge">
<title>Node1&#45;&gt;Node2</title>
<g id="a_edge1_Node000001_Node000002"><a xlink:title=" ">
<path fill="none" stroke="#63b8ff" d="M119.02,-9.5C127.45,-9.5 136.14,-9.5 144.65,-9.5"/>
<polygon fill="#63b8ff" stroke="#63b8ff" points="144.89,-13 154.89,-9.5 144.89,-6 144.89,-13"/>
</a>
</g>
</g>
</g>
</svg>
