<?xml version="1.0" encoding="UTF-8" standalone="no"?>
<!DOCTYPE svg PUBLIC "-//W3C//DTD SVG 1.1//EN"
 "http://www.w3.org/Graphics/SVG/1.1/DTD/svg11.dtd">
<!-- Generated by graphviz version 2.43.0 (0)
 -->
<!-- Title: write_snx_gps_pcs Pages: 1 -->
<svg width="267pt" height="64pt"
 viewBox="0.00 0.00 267.00 64.00" xmlns="http://www.w3.org/2000/svg" xmlns:xlink="http://www.w3.org/1999/xlink">
<g id="graph0" class="graph" transform="scale(1 1) rotate(0) translate(4 60)">
<title>write_snx_gps_pcs</title>
<!-- Node1 -->
<g id="Node000001" class="node">
<title>Node1</title>
<g id="a_Node000001"><a xlink:href="sinex_8cpp.html#adc8d4d94602b805806a06ac5abecb2b0" target="_top" xlink:title=" ">
<path fill="#fff0f0" stroke="red" stroke-width="2" d="M101.67,-19C101.67,-19 6.33,-19 6.33,-19 3.17,-19 0,-15.83 0,-12.67 0,-12.67 0,-6.33 0,-6.33 0,-3.17 3.17,0 6.33,0 6.33,0 101.67,0 101.67,0 104.83,0 108,-3.17 108,-6.33 108,-6.33 108,-12.67 108,-12.67 108,-15.83 104.83,-19 101.67,-19"/>
<text text-anchor="middle" x="54" y="-7" font-family="Helvetica,sans-Serif" font-size="10.00">write_snx_gps_pcs</text>
</a>
</g>
</g>
<!-- Node2 -->
<g id="Node000002" class="node">
<title>Node2</title>
<g id="a_Node000002"><a xlink:href="sinex_8cpp.html#a3864b30901f7e47c62b577f17fae0d3b" target="_top" xlink:title=" ">
<path fill="#fff0f0" stroke="red" d="M252.67,-56C252.67,-56 150.33,-56 150.33,-56 147.17,-56 144,-52.83 144,-49.67 144,-49.67 144,-43.33 144,-43.33 144,-40.17 147.17,-37 150.33,-37 150.33,-37 252.67,-37 252.67,-37 255.83,-37 259,-40.17 259,-43.33 259,-43.33 259,-49.67 259,-49.67 259,-52.83 255.83,-56 252.67,-56"/>
<text text-anchor="middle" x="201.5" y="-44" font-family="Helvetica,sans-Serif" font-size="10.00">write_as_comments</text>
</a>
</g>
</g>
<!-- Node1&#45;&gt;Node2 -->
<g id="edge1_Node000001_Node000002" class="edge">
<title>Node1&#45;&gt;Node2</title>
<g id="a_edge1_Node000001_Node000002"><a xlink:title=" ">
<path fill="none" stroke="#63b8ff" d="M92.47,-19.03C110.98,-23.74 133.52,-29.47 153.2,-34.47"/>
<polygon fill="#63b8ff" stroke="#63b8ff" points="152.35,-37.87 162.9,-36.94 154.08,-31.08 152.35,-37.87"/>
</a>
</g>
</g>
<!-- Node3 -->
<g id="Node000003" class="node">
<title>Node3</title>
<g id="a_Node000003"><a xlink:href="sinex_8cpp.html#a6000bebeaeddbaffb66f03279f776fbb" target="_top" xlink:title=" ">
<path fill="#fff0f0" stroke="red" d="M250.17,-19C250.17,-19 152.83,-19 152.83,-19 149.67,-19 146.5,-15.83 146.5,-12.67 146.5,-12.67 146.5,-6.33 146.5,-6.33 146.5,-3.17 149.67,0 152.83,0 152.83,0 250.17,0 250.17,0 253.33,0 256.5,-3.17 256.5,-6.33 256.5,-6.33 256.5,-12.67 256.5,-12.67 256.5,-15.83 253.33,-19 250.17,-19"/>
<text text-anchor="middle" x="201.5" y="-7" font-family="Helvetica,sans-Serif" font-size="10.00">truncateSomething</text>
</a>
</g>
</g>
<!-- Node1&#45;&gt;Node3 -->
<g id="edge2_Node000001_Node000003" class="edge">
<title>Node1&#45;&gt;Node3</title>
<g id="a_edge2_Node000001_Node000003"><a xlink:title=" ">
<path fill="none" stroke="#63b8ff" d="M108.35,-2.97C117.31,-2.76 126.69,-2.7 135.89,-2.79"/>
<polygon fill="#63b8ff" stroke="#63b8ff" points="136.13,-6.29 146.18,-2.95 136.23,0.71 136.13,-6.29"/>
</a>
</g>
</g>
<!-- Node1&#45;&gt;Node3 -->
<g id="edge3_Node000001_Node000003" class="edge">
<title>Node1&#45;&gt;Node3</title>
<g id="a_edge3_Node000001_Node000003"><a xlink:title=" ">
<path fill="none" stroke="#63b8ff" d="M108.35,-16.03C117.31,-16.24 126.69,-16.3 135.89,-16.21"/>
<polygon fill="#63b8ff" stroke="#63b8ff" points="136.23,-19.71 146.18,-16.05 136.13,-12.71 136.23,-19.71"/>
</a>
</g>
</g>
</g>
</svg>
