<?xml version="1.0" encoding="UTF-8" standalone="no"?>
<!DOCTYPE svg PUBLIC "-//W3C//DTD SVG 1.1//EN"
 "http://www.w3.org/Graphics/SVG/1.1/DTD/svg11.dtd">
<!-- Generated by graphviz version 2.43.0 (0)
 -->
<!-- Title: writeSnxApriori Pages: 1 -->
<svg width="243pt" height="27pt"
 viewBox="0.00 0.00 243.00 27.00" xmlns="http://www.w3.org/2000/svg" xmlns:xlink="http://www.w3.org/1999/xlink">
<g id="graph0" class="graph" transform="scale(1 1) rotate(0) translate(4 23)">
<title>writeSnxApriori</title>
<!-- Node1 -->
<g id="Node000001" class="node">
<title>Node1</title>
<g id="a_Node000001"><a xlink:href="sinex_8cpp.html#ab31d2978691c68b867acfbc3e4930d95" target="_top" xlink:title=" ">
<path fill="#fff0f0" stroke="red" stroke-width="2" d="M85.67,-19C85.67,-19 6.33,-19 6.33,-19 3.17,-19 0,-15.83 0,-12.67 0,-12.67 0,-6.33 0,-6.33 0,-3.17 3.17,0 6.33,0 6.33,0 85.67,0 85.67,0 88.83,0 92,-3.17 92,-6.33 92,-6.33 92,-12.67 92,-12.67 92,-15.83 88.83,-19 85.67,-19"/>
<text text-anchor="middle" x="46" y="-7" font-family="Helvetica,sans-Serif" font-size="10.00">writeSnxApriori</text>
</a>
</g>
</g>
<!-- Node2 -->
<g id="Node000002" class="node">
<title>Node2</title>
<g id="a_Node000002"><a xlink:href="sinex_8cpp.html#ade0ffbf6a284b0467d88c28563df76ab" target="_top" xlink:title=" ">
<path fill="#fff0f0" stroke="red" d="M228.67,-19C228.67,-19 134.33,-19 134.33,-19 131.17,-19 128,-15.83 128,-12.67 128,-12.67 128,-6.33 128,-6.33 128,-3.17 131.17,0 134.33,0 134.33,0 228.67,0 228.67,0 231.83,0 235,-3.17 235,-6.33 235,-6.33 235,-12.67 235,-12.67 235,-15.83 231.83,-19 228.67,-19"/>
<text text-anchor="middle" x="181.5" y="-7" font-family="Helvetica,sans-Serif" font-size="10.00">writeAsComments</text>
</a>
</g>
</g>
<!-- Node1&#45;&gt;Node2 -->
<g id="edge1_Node000001_Node000002" class="edge">
<title>Node1&#45;&gt;Node2</title>
<g id="a_edge1_Node000001_Node000002"><a xlink:title=" ">
<path fill="none" stroke="#63b8ff" d="M92.2,-9.5C100.46,-9.5 109.22,-9.5 117.88,-9.5"/>
<polygon fill="#63b8ff" stroke="#63b8ff" points="117.98,-13 127.98,-9.5 117.98,-6 117.98,-13"/>
</a>
</g>
</g>
</g>
</svg>
