<?xml version="1.0" encoding="UTF-8" standalone="no"?>
<!DOCTYPE svg PUBLIC "-//W3C//DTD SVG 1.1//EN"
 "http://www.w3.org/Graphics/SVG/1.1/DTD/svg11.dtd">
<!-- Generated by graphviz version 2.43.0 (0)
 -->
<!-- Title: sinexPerEpochPerStation Pages: 1 -->
<svg width="311pt" height="212pt"
 viewBox="0.00 0.00 311.00 212.00" xmlns="http://www.w3.org/2000/svg" xmlns:xlink="http://www.w3.org/1999/xlink">
<g id="graph0" class="graph" transform="scale(1 1) rotate(0) translate(4 208)">
<title>sinexPerEpochPerStation</title>
<!-- Node1 -->
<g id="Node000001" class="node">
<title>Node1</title>
<g id="a_Node000001"><a xlink:href="pea__snx_8cpp.html#a998d8ea068788de9c3ca4f572a114e44" target="_top" xlink:title=" ">
<path fill="#fff0f0" stroke="red" stroke-width="2" d="M131.67,-111C131.67,-111 6.33,-111 6.33,-111 3.17,-111 0,-107.83 0,-104.67 0,-104.67 0,-98.33 0,-98.33 0,-95.17 3.17,-92 6.33,-92 6.33,-92 131.67,-92 131.67,-92 134.83,-92 138,-95.17 138,-98.33 138,-98.33 138,-104.67 138,-104.67 138,-107.83 134.83,-111 131.67,-111"/>
<text text-anchor="middle" x="69" y="-99" font-family="Helvetica,sans-Serif" font-size="10.00">sinexPerEpochPerStation</text>
</a>
</g>
</g>
<!-- Node2 -->
<g id="Node000002" class="node">
<title>Node2</title>
<g id="a_Node000002"><a xlink:href="structGTime.html#aaa8a379d11cd6c040a6bbe680c0e913e" target="_top" xlink:title="Uninitialised time for comparisons.">
<path fill="#fff0f0" stroke="red" d="M278.17,-204C278.17,-204 198.83,-204 198.83,-204 195.67,-204 192.5,-200.83 192.5,-197.67 192.5,-197.67 192.5,-191.33 192.5,-191.33 192.5,-188.17 195.67,-185 198.83,-185 198.83,-185 278.17,-185 278.17,-185 281.33,-185 284.5,-188.17 284.5,-191.33 284.5,-191.33 284.5,-197.67 284.5,-197.67 284.5,-200.83 281.33,-204 278.17,-204"/>
<text text-anchor="middle" x="238.5" y="-192" font-family="Helvetica,sans-Serif" font-size="10.00">GTime::noTime</text>
</a>
</g>
</g>
<!-- Node1&#45;&gt;Node2 -->
<g id="edge1_Node000001_Node000002" class="edge">
<title>Node1&#45;&gt;Node2</title>
<g id="a_edge1_Node000001_Node000002"><a xlink:title=" ">
<path fill="none" stroke="#63b8ff" d="M80.71,-111.21C98.71,-127.05 136.73,-158.47 174,-176.5 177.83,-178.35 181.88,-180.05 186.02,-181.59"/>
<polygon fill="#63b8ff" stroke="#63b8ff" points="185.14,-184.99 195.74,-184.91 187.41,-178.36 185.14,-184.99"/>
</a>
</g>
</g>
<!-- Node3 -->
<g id="Node000003" class="node">
<title>Node3</title>
<g id="a_Node000003"><a xlink:href="structACSConfig.html#acbb130e061ba4b7bf620e4fb68e1b794" target="_top" xlink:title="Set receiver options for a specific receiver using a hierarchy of sources.">
<path fill="#fff0f0" stroke="red" d="M296.67,-167C296.67,-167 180.33,-167 180.33,-167 177.17,-167 174,-163.83 174,-160.67 174,-160.67 174,-154.33 174,-154.33 174,-151.17 177.17,-148 180.33,-148 180.33,-148 296.67,-148 296.67,-148 299.83,-148 303,-151.17 303,-154.33 303,-154.33 303,-160.67 303,-160.67 303,-163.83 299.83,-167 296.67,-167"/>
<text text-anchor="middle" x="238.5" y="-155" font-family="Helvetica,sans-Serif" font-size="10.00">ACSConfig::getRecOpts</text>
</a>
</g>
</g>
<!-- Node1&#45;&gt;Node3 -->
<g id="edge2_Node000001_Node000003" class="edge">
<title>Node1&#45;&gt;Node3</title>
<g id="a_edge2_Node000001_Node000003"><a xlink:title=" ">
<path fill="none" stroke="#63b8ff" d="M116.86,-111.04C134.65,-117.06 155.16,-124.4 174,-130.5 187.97,-135.02 203.86,-139.53 216.25,-144.03"/>
<polygon fill="#63b8ff" stroke="#63b8ff" points="215.13,-147.35 225.72,-147.81 217.73,-140.85 215.13,-147.35"/>
</a>
</g>
</g>
<!-- Node1&#45;&gt;Node3 -->
<g id="edge4_Node000001_Node000003" class="edge">
<title>Node1&#45;&gt;Node3</title>
<g id="a_edge4_Node000001_Node000003"><a xlink:title=" ">
<path fill="none" stroke="#63b8ff" d="M80.54,-111.02C97.4,-120.87 131.82,-134.35 163.78,-145.12"/>
<polygon fill="#63b8ff" stroke="#63b8ff" points="163,-148.55 173.59,-148.37 165.2,-141.91 163,-148.55"/>
</a>
</g>
</g>
<!-- Node19 -->
<g id="Node000019" class="node">
<title>Node19</title>
<g id="a_Node000019"><a xlink:href="sinex_8cpp.html#ab4839f5d809abfd7161c3bb29b968421" target="_top" xlink:title=" ">
<path fill="#fff0f0" stroke="red" d="M266.17,-130C266.17,-130 210.83,-130 210.83,-130 207.67,-130 204.5,-126.83 204.5,-123.67 204.5,-123.67 204.5,-117.33 204.5,-117.33 204.5,-114.17 207.67,-111 210.83,-111 210.83,-111 266.17,-111 266.17,-111 269.33,-111 272.5,-114.17 272.5,-117.33 272.5,-117.33 272.5,-123.67 272.5,-123.67 272.5,-126.83 269.33,-130 266.17,-130"/>
<text text-anchor="middle" x="238.5" y="-118" font-family="Helvetica,sans-Serif" font-size="10.00">getRecSnx</text>
</a>
</g>
</g>
<!-- Node1&#45;&gt;Node19 -->
<g id="edge3_Node000001_Node000019" class="edge">
<title>Node1&#45;&gt;Node19</title>
<g id="a_edge3_Node000001_Node000019"><a xlink:title=" ">
<path fill="none" stroke="#63b8ff" d="M138.13,-109.23C157.03,-111.37 177.03,-113.64 194.1,-115.58"/>
<polygon fill="#63b8ff" stroke="#63b8ff" points="193.98,-119.09 204.31,-116.73 194.77,-112.13 193.98,-119.09"/>
</a>
</g>
</g>
<!-- Node22 -->
<g id="Node000022" class="node">
<title>Node22</title>
<g id="a_Node000022"><a xlink:href="trace_8hpp.html#af5320371d0f15d74154b2b32d315684d" target="_top" xlink:title=" ">
<path fill="#fff0f0" stroke="red" d="M269.67,-93C269.67,-93 207.33,-93 207.33,-93 204.17,-93 201,-89.83 201,-86.67 201,-86.67 201,-80.33 201,-80.33 201,-77.17 204.17,-74 207.33,-74 207.33,-74 269.67,-74 269.67,-74 272.83,-74 276,-77.17 276,-80.33 276,-80.33 276,-86.67 276,-86.67 276,-89.83 272.83,-93 269.67,-93"/>
<text text-anchor="middle" x="238.5" y="-81" font-family="Helvetica,sans-Serif" font-size="10.00">getTraceFile</text>
</a>
</g>
</g>
<!-- Node1&#45;&gt;Node22 -->
<g id="edge5_Node000001_Node000022" class="edge">
<title>Node1&#45;&gt;Node22</title>
<g id="a_edge5_Node000001_Node000022"><a xlink:title=" ">
<path fill="none" stroke="#63b8ff" d="M138.13,-94.18C155.66,-92.29 174.14,-90.31 190.35,-88.57"/>
<polygon fill="#63b8ff" stroke="#63b8ff" points="191.07,-92.01 200.64,-87.46 190.32,-85.05 191.07,-92.01"/>
</a>
</g>
</g>
<!-- Node23 -->
<g id="Node000023" class="node">
<title>Node23</title>
<g id="a_Node000023"><a xlink:href="antenna_8cpp.html#a204d102006d5bff3d311de7f6f189e44" target="_top" xlink:title=" ">
<path fill="#fff0f0" stroke="red" d="M269.67,-56C269.67,-56 207.33,-56 207.33,-56 204.17,-56 201,-52.83 201,-49.67 201,-49.67 201,-43.33 201,-43.33 201,-40.17 204.17,-37 207.33,-37 207.33,-37 269.67,-37 269.67,-37 272.83,-37 276,-40.17 276,-43.33 276,-43.33 276,-49.67 276,-49.67 276,-52.83 272.83,-56 269.67,-56"/>
<text text-anchor="middle" x="238.5" y="-44" font-family="Helvetica,sans-Serif" font-size="10.00">findAntenna</text>
</a>
</g>
</g>
<!-- Node1&#45;&gt;Node23 -->
<g id="edge6_Node000001_Node000023" class="edge">
<title>Node1&#45;&gt;Node23</title>
<g id="a_edge6_Node000001_Node000023"><a xlink:title=" ">
<path fill="none" stroke="#63b8ff" d="M81.18,-91.96C100.18,-81.62 140,-67.47 174,-56.5 179.54,-54.71 185.38,-52.89 191.17,-51.18"/>
<polygon fill="#63b8ff" stroke="#63b8ff" points="192.15,-54.54 200.82,-48.45 190.24,-47.81 192.15,-54.54"/>
</a>
</g>
</g>
<!-- Node1&#45;&gt;Node23 -->
<g id="edge8_Node000001_Node000023" class="edge">
<title>Node1&#45;&gt;Node23</title>
<g id="a_edge8_Node000001_Node000023"><a xlink:title=" ">
<path fill="none" stroke="#63b8ff" d="M120.9,-91.93C137.75,-86.53 156.63,-80.1 174,-74.5 188.37,-69.86 204.7,-64.99 217.2,-60.12"/>
<polygon fill="#63b8ff" stroke="#63b8ff" points="218.87,-63.21 226.67,-56.04 216.1,-56.78 218.87,-63.21"/>
</a>
</g>
</g>
<!-- Node24 -->
<g id="Node000024" class="node">
<title>Node24</title>
<g id="a_Node000024"><a xlink:href="antenna_8cpp.html#a3beefedc70e84beab788d3d0dd2e9138" target="_top" xlink:title="Change the last four characters of antenna type to NONE e,g, &quot;AOAD/M_T &#160;&#160;&#160;&#160;&#160;&#160;&#160;JPLA&quot; =&gt; &quot;AOAD/M_T &#160;&#160;&#160;&#160;...">
<path fill="#fff0f0" stroke="red" d="M274.17,-19C274.17,-19 202.83,-19 202.83,-19 199.67,-19 196.5,-15.83 196.5,-12.67 196.5,-12.67 196.5,-6.33 196.5,-6.33 196.5,-3.17 199.67,0 202.83,0 202.83,0 274.17,0 274.17,0 277.33,0 280.5,-3.17 280.5,-6.33 280.5,-6.33 280.5,-12.67 280.5,-12.67 280.5,-15.83 277.33,-19 274.17,-19"/>
<text text-anchor="middle" x="238.5" y="-7" font-family="Helvetica,sans-Serif" font-size="10.00">radome2none</text>
</a>
</g>
</g>
<!-- Node1&#45;&gt;Node24 -->
<g id="edge7_Node000001_Node000024" class="edge">
<title>Node1&#45;&gt;Node24</title>
<g id="a_edge7_Node000001_Node000024"><a xlink:title=" ">
<path fill="none" stroke="#63b8ff" d="M81.09,-91.88C99.32,-76.5 137.28,-46.3 174,-28.5 178.67,-26.24 183.66,-24.18 188.72,-22.33"/>
<polygon fill="#63b8ff" stroke="#63b8ff" points="190.12,-25.55 198.47,-19.02 187.87,-18.92 190.12,-25.55"/>
</a>
</g>
</g>
</g>
</svg>
