<?xml version="1.0" encoding="UTF-8" standalone="no"?>
<!DOCTYPE svg PUBLIC "-//W3C//DTD SVG 1.1//EN"
 "http://www.w3.org/Graphics/SVG/1.1/DTD/svg11.dtd">
<!-- Generated by graphviz version 2.43.0 (0)
 -->
<!-- Title: parseSatelliteIdentifiers Pages: 1 -->
<svg width="242pt" height="27pt"
 viewBox="0.00 0.00 242.00 27.00" xmlns="http://www.w3.org/2000/svg" xmlns:xlink="http://www.w3.org/1999/xlink">
<g id="graph0" class="graph" transform="scale(1 1) rotate(0) translate(4 23)">
<title>parseSatelliteIdentifiers</title>
<!-- Node1 -->
<g id="Node000001" class="node">
<title>Node1</title>
<g id="a_Node000001"><a xlink:href="sinex_8cpp.html#aeeafb3496cb618d93d588c6fae3aecf9" target="_top" xlink:title=" ">
<path fill="#fff0f0" stroke="red" stroke-width="2" d="M227.67,-19C227.67,-19 107.33,-19 107.33,-19 104.17,-19 101,-15.83 101,-12.67 101,-12.67 101,-6.33 101,-6.33 101,-3.17 104.17,0 107.33,0 107.33,0 227.67,0 227.67,0 230.83,0 234,-3.17 234,-6.33 234,-6.33 234,-12.67 234,-12.67 234,-15.83 230.83,-19 227.67,-19"/>
<text text-anchor="middle" x="167.5" y="-7" font-family="Helvetica,sans-Serif" font-size="10.00">parseSatelliteIdentifiers</text>
</a>
</g>
</g>
<!-- Node2 -->
<g id="Node000002" class="node">
<title>Node2</title>
<g id="a_Node000002"><a xlink:href="sinex_8cpp.html#a8158a26dff2992abae0d3ede1bc0cefb" target="_top" xlink:title=" ">
<path fill="#fff0f0" stroke="red" d="M58.67,-19C58.67,-19 6.33,-19 6.33,-19 3.17,-19 0,-15.83 0,-12.67 0,-12.67 0,-6.33 0,-6.33 0,-3.17 3.17,0 6.33,0 6.33,0 58.67,0 58.67,0 61.83,0 65,-3.17 65,-6.33 65,-6.33 65,-12.67 65,-12.67 65,-15.83 61.83,-19 58.67,-19"/>
<text text-anchor="middle" x="32.5" y="-7" font-family="Helvetica,sans-Serif" font-size="10.00">readSinex</text>
</a>
</g>
</g>
<!-- Node1&#45;&gt;Node2 -->
<g id="edge1_Node000001_Node000002" class="edge">
<title>Node1&#45;&gt;Node2</title>
<g id="a_edge1_Node000001_Node000002"><a xlink:title=" ">
<path fill="none" stroke="#63b8ff" d="M90.61,-9.5C81.65,-9.5 72.93,-9.5 65.11,-9.5"/>
<polygon fill="#63b8ff" stroke="#63b8ff" points="90.78,-13 100.78,-9.5 90.78,-6 90.78,-13"/>
</a>
</g>
</g>
</g>
</svg>
