<?xml version="1.0" encoding="UTF-8" standalone="no"?>
<!DOCTYPE svg PUBLIC "-//W3C//DTD SVG 1.1//EN"
 "http://www.w3.org/Graphics/SVG/1.1/DTD/svg11.dtd">
<!-- Generated by graphviz version 2.43.0 (0)
 -->
<!-- Title: satComOffSphere Pages: 1 -->
<svg width="238pt" height="27pt"
 viewBox="0.00 0.00 238.00 27.00" xmlns="http://www.w3.org/2000/svg" xmlns:xlink="http://www.w3.org/1999/xlink">
<g id="graph0" class="graph" transform="scale(1 1) rotate(0) translate(4 23)">
<title>satComOffSphere</title>
<!-- Node1 -->
<g id="Node000001" class="node">
<title>Node1</title>
<g id="a_Node000001"><a xlink:href="slrCom_8cpp.html#abf53241592f284ba21a5a81847d734d6" target="_top" xlink:title="Center of mass to laser retroreflector array offset for spherical satellites.">
<path fill="#fff0f0" stroke="red" stroke-width="2" d="M223.67,-19C223.67,-19 134.33,-19 134.33,-19 131.17,-19 128,-15.83 128,-12.67 128,-12.67 128,-6.33 128,-6.33 128,-3.17 131.17,0 134.33,0 134.33,0 223.67,0 223.67,0 226.83,0 230,-3.17 230,-6.33 230,-6.33 230,-12.67 230,-12.67 230,-15.83 226.83,-19 223.67,-19"/>
<text text-anchor="middle" x="179" y="-7" font-family="Helvetica,sans-Serif" font-size="10.00">satComOffSphere</text>
</a>
</g>
</g>
<!-- Node2 -->
<g id="Node000002" class="node">
<title>Node2</title>
<g id="a_Node000002"><a xlink:href="ppp__slr_8cpp.html#a1fdffb9e4c2fa18a330834a9c55116ad" target="_top" xlink:title="Satellite retroreflector delta from CoM.">
<path fill="#fff0f0" stroke="red" d="M85.67,-19C85.67,-19 6.33,-19 6.33,-19 3.17,-19 0,-15.83 0,-12.67 0,-12.67 0,-6.33 0,-6.33 0,-3.17 3.17,0 6.33,0 6.33,0 85.67,0 85.67,0 88.83,0 92,-3.17 92,-6.33 92,-6.33 92,-12.67 92,-12.67 92,-15.83 88.83,-19 85.67,-19"/>
<text text-anchor="middle" x="46" y="-7" font-family="Helvetica,sans-Serif" font-size="10.00">slrReflectorPCO</text>
</a>
</g>
</g>
<!-- Node1&#45;&gt;Node2 -->
<g id="edge1_Node000001_Node000002" class="edge">
<title>Node1&#45;&gt;Node2</title>
<g id="a_edge1_Node000001_Node000002"><a xlink:title=" ">
<path fill="none" stroke="#63b8ff" d="M117.46,-9.5C108.96,-9.5 100.35,-9.5 92.21,-9.5"/>
<polygon fill="#63b8ff" stroke="#63b8ff" points="117.73,-13 127.73,-9.5 117.73,-6 117.73,-13"/>
</a>
</g>
</g>
</g>
</svg>
