<?xml version="1.0" encoding="UTF-8" standalone="no"?>
<!DOCTYPE svg PUBLIC "-//W3C//DTD SVG 1.1//EN"
 "http://www.w3.org/Graphics/SVG/1.1/DTD/svg11.dtd">
<!-- Generated by graphviz version 2.43.0 (0)
 -->
<!-- Title: ilrsIdToCosparId Pages: 1 -->
<svg width="208pt" height="64pt"
 viewBox="0.00 0.00 208.00 64.00" xmlns="http://www.w3.org/2000/svg" xmlns:xlink="http://www.w3.org/1999/xlink">
<g id="graph0" class="graph" transform="scale(1 1) rotate(0) translate(4 60)">
<title>ilrsIdToCosparId</title>
<!-- Node1 -->
<g id="Node000001" class="node">
<title>Node1</title>
<g id="a_Node000001"><a xlink:href="slrObs_8cpp.html#a4c3ed56472d893fdf8be7e463eaa3758" target="_top" xlink:title="Converts from ILRS ID (condensed version of COSPAR ID) to COSPAR ID COSPAR ID to ILRS Satellite Ident...">
<path fill="#fff0f0" stroke="red" stroke-width="2" d="M193.67,-37C193.67,-37 112.33,-37 112.33,-37 109.17,-37 106,-33.83 106,-30.67 106,-30.67 106,-24.33 106,-24.33 106,-21.17 109.17,-18 112.33,-18 112.33,-18 193.67,-18 193.67,-18 196.83,-18 200,-21.17 200,-24.33 200,-24.33 200,-30.67 200,-30.67 200,-33.83 196.83,-37 193.67,-37"/>
<text text-anchor="middle" x="153" y="-25" font-family="Helvetica,sans-Serif" font-size="10.00">ilrsIdToCosparId</text>
</a>
</g>
</g>
<!-- Node2 -->
<g id="Node000002" class="node">
<title>Node2</title>
<g id="a_Node000002"><a xlink:href="slrObs_8cpp.html#a38ee0a5d01fed7dee3c29841ca02b54a" target="_top" xlink:title="Extracts observations from a given CRD (.npt) file.">
<path fill="#fff0f0" stroke="red" d="M56.17,-56C56.17,-56 13.83,-56 13.83,-56 10.67,-56 7.5,-52.83 7.5,-49.67 7.5,-49.67 7.5,-43.33 7.5,-43.33 7.5,-40.17 10.67,-37 13.83,-37 13.83,-37 56.17,-37 56.17,-37 59.33,-37 62.5,-40.17 62.5,-43.33 62.5,-43.33 62.5,-49.67 62.5,-49.67 62.5,-52.83 59.33,-56 56.17,-56"/>
<text text-anchor="middle" x="35" y="-44" font-family="Helvetica,sans-Serif" font-size="10.00">readCrd</text>
</a>
</g>
</g>
<!-- Node1&#45;&gt;Node2 -->
<g id="edge1_Node000001_Node000002" class="edge">
<title>Node1&#45;&gt;Node2</title>
<g id="a_edge1_Node000001_Node000002"><a xlink:title=" ">
<path fill="none" stroke="#63b8ff" d="M95.74,-36.71C84.19,-38.61 72.55,-40.51 62.65,-42.13"/>
<polygon fill="#63b8ff" stroke="#63b8ff" points="96.52,-40.13 105.82,-35.06 95.39,-33.23 96.52,-40.13"/>
</a>
</g>
</g>
<!-- Node6 -->
<g id="Node000006" class="node">
<title>Node6</title>
<g id="a_Node000006"><a xlink:href="slrObs_8cpp.html#ace930bf70906d9d523b50c373ef1115a" target="_top" xlink:title="Read one obs record from tabular slr obs file.">
<path fill="#fff0f0" stroke="red" d="M63.67,-19C63.67,-19 6.33,-19 6.33,-19 3.17,-19 0,-15.83 0,-12.67 0,-12.67 0,-6.33 0,-6.33 0,-3.17 3.17,0 6.33,0 6.33,0 63.67,0 63.67,0 66.83,0 70,-3.17 70,-6.33 70,-6.33 70,-12.67 70,-12.67 70,-15.83 66.83,-19 63.67,-19"/>
<text text-anchor="middle" x="35" y="-7" font-family="Helvetica,sans-Serif" font-size="10.00">readSlrObs</text>
</a>
</g>
</g>
<!-- Node1&#45;&gt;Node6 -->
<g id="edge2_Node000001_Node000006" class="edge">
<title>Node1&#45;&gt;Node6</title>
<g id="a_edge2_Node000001_Node000006"><a xlink:title=" ">
<path fill="none" stroke="#63b8ff" d="M95.68,-18.76C86.98,-17.41 78.24,-16.05 70.22,-14.81"/>
<polygon fill="#63b8ff" stroke="#63b8ff" points="95.4,-22.26 105.82,-20.33 96.48,-15.34 95.4,-22.26"/>
</a>
</g>
</g>
</g>
</svg>
