<?xml version="1.0" encoding="UTF-8" standalone="no"?>
<!DOCTYPE svg PUBLIC "-//W3C//DTD SVG 1.1//EN"
 "http://www.w3.org/Graphics/SVG/1.1/DTD/svg11.dtd">
<!-- Generated by graphviz version 2.43.0 (0)
 -->
<!-- Title: readSlrObs Pages: 1 -->
<svg width="208pt" height="64pt"
 viewBox="0.00 0.00 208.00 64.00" xmlns="http://www.w3.org/2000/svg" xmlns:xlink="http://www.w3.org/1999/xlink">
<g id="graph0" class="graph" transform="scale(1 1) rotate(0) translate(4 60)">
<title>readSlrObs</title>
<!-- Node1 -->
<g id="Node000001" class="node">
<title>Node1</title>
<g id="a_Node000001"><a xlink:href="slrObs_8cpp.html#ace930bf70906d9d523b50c373ef1115a" target="_top" xlink:title="Read one obs record from tabular slr obs file.">
<path fill="#fff0f0" stroke="red" stroke-width="2" d="M63.67,-37C63.67,-37 6.33,-37 6.33,-37 3.17,-37 0,-33.83 0,-30.67 0,-30.67 0,-24.33 0,-24.33 0,-21.17 3.17,-18 6.33,-18 6.33,-18 63.67,-18 63.67,-18 66.83,-18 70,-21.17 70,-24.33 70,-24.33 70,-30.67 70,-30.67 70,-33.83 66.83,-37 63.67,-37"/>
<text text-anchor="middle" x="35" y="-25" font-family="Helvetica,sans-Serif" font-size="10.00">readSlrObs</text>
</a>
</g>
</g>
<!-- Node2 -->
<g id="Node000002" class="node">
<title>Node2</title>
<g id="a_Node000002"><a xlink:href="slrObs_8cpp.html#a4c3ed56472d893fdf8be7e463eaa3758" target="_top" xlink:title="Converts from ILRS ID (condensed version of COSPAR ID) to COSPAR ID COSPAR ID to ILRS Satellite Ident...">
<path fill="#fff0f0" stroke="red" d="M193.67,-56C193.67,-56 112.33,-56 112.33,-56 109.17,-56 106,-52.83 106,-49.67 106,-49.67 106,-43.33 106,-43.33 106,-40.17 109.17,-37 112.33,-37 112.33,-37 193.67,-37 193.67,-37 196.83,-37 200,-40.17 200,-43.33 200,-43.33 200,-49.67 200,-49.67 200,-52.83 196.83,-56 193.67,-56"/>
<text text-anchor="middle" x="153" y="-44" font-family="Helvetica,sans-Serif" font-size="10.00">ilrsIdToCosparId</text>
</a>
</g>
</g>
<!-- Node1&#45;&gt;Node2 -->
<g id="edge1_Node000001_Node000002" class="edge">
<title>Node1&#45;&gt;Node2</title>
<g id="a_edge1_Node000001_Node000002"><a xlink:title=" ">
<path fill="none" stroke="#63b8ff" d="M70.18,-33.1C78.15,-34.4 86.85,-35.83 95.51,-37.25"/>
<polygon fill="#63b8ff" stroke="#63b8ff" points="95.17,-40.74 105.6,-38.9 96.3,-33.83 95.17,-40.74"/>
</a>
</g>
</g>
<!-- Node4 -->
<g id="Node000004" class="node">
<title>Node4</title>
<g id="a_Node000004"><a xlink:href="slrObs_8cpp.html#ad77fb0acc7b2f1cc833f9a9856d9f0d3" target="_top" xlink:title="Converts from ILRS ID to SatSys object.">
<path fill="#fff0f0" stroke="red" d="M188.67,-19C188.67,-19 117.33,-19 117.33,-19 114.17,-19 111,-15.83 111,-12.67 111,-12.67 111,-6.33 111,-6.33 111,-3.17 114.17,0 117.33,0 117.33,0 188.67,0 188.67,0 191.83,0 195,-3.17 195,-6.33 195,-6.33 195,-12.67 195,-12.67 195,-15.83 191.83,-19 188.67,-19"/>
<text text-anchor="middle" x="153" y="-7" font-family="Helvetica,sans-Serif" font-size="10.00">ilrsIdToSatSys</text>
</a>
</g>
</g>
<!-- Node1&#45;&gt;Node4 -->
<g id="edge2_Node000001_Node000004" class="edge">
<title>Node1&#45;&gt;Node4</title>
<g id="a_edge2_Node000001_Node000004"><a xlink:title=" ">
<path fill="none" stroke="#63b8ff" d="M70.18,-22.2C79.7,-20.72 90.26,-19.08 100.54,-17.48"/>
<polygon fill="#63b8ff" stroke="#63b8ff" points="101.34,-20.9 110.68,-15.91 100.27,-13.99 101.34,-20.9"/>
</a>
</g>
</g>
</g>
</svg>
