<?xml version="1.0" encoding="UTF-8" standalone="no"?>
<!DOCTYPE svg PUBLIC "-//W3C//DTD SVG 1.1//EN"
 "http://www.w3.org/Graphics/SVG/1.1/DTD/svg11.dtd">
<!-- Generated by graphviz version 2.43.0 (0)
 -->
<!-- Title: outputSortedSlrObsPerRec Pages: 1 -->
<svg width="300pt" height="27pt"
 viewBox="0.00 0.00 300.00 27.00" xmlns="http://www.w3.org/2000/svg" xmlns:xlink="http://www.w3.org/1999/xlink">
<g id="graph0" class="graph" transform="scale(1 1) rotate(0) translate(4 23)">
<title>outputSortedSlrObsPerRec</title>
<!-- Node1 -->
<g id="Node000001" class="node">
<title>Node1</title>
<g id="a_Node000001"><a xlink:href="slrObs_8cpp.html#ac6bcf1e6b6e4ad66bb235bec5e30f6e6" target="_top" xlink:title="Outputs a tabular file with SLR observations in time&#45;order, for 1 receiver.">
<path fill="#fff0f0" stroke="red" stroke-width="2" d="M285.67,-19C285.67,-19 153.33,-19 153.33,-19 150.17,-19 147,-15.83 147,-12.67 147,-12.67 147,-6.33 147,-6.33 147,-3.17 150.17,0 153.33,0 153.33,0 285.67,0 285.67,0 288.83,0 292,-3.17 292,-6.33 292,-6.33 292,-12.67 292,-12.67 292,-15.83 288.83,-19 285.67,-19"/>
<text text-anchor="middle" x="219.5" y="-7" font-family="Helvetica,sans-Serif" font-size="10.00">outputSortedSlrObsPerRec</text>
</a>
</g>
</g>
<!-- Node2 -->
<g id="Node000002" class="node">
<title>Node2</title>
<g id="a_Node000002"><a xlink:href="slrObs_8cpp.html#a8f4c7f3ebd17e93d03acee01f5e9862e" target="_top" xlink:title="Outputs a tabular file with SLR observations in time&#45;order.">
<path fill="#fff0f0" stroke="red" d="M104.67,-19C104.67,-19 6.33,-19 6.33,-19 3.17,-19 0,-15.83 0,-12.67 0,-12.67 0,-6.33 0,-6.33 0,-3.17 3.17,0 6.33,0 6.33,0 104.67,0 104.67,0 107.83,0 111,-3.17 111,-6.33 111,-6.33 111,-12.67 111,-12.67 111,-15.83 107.83,-19 104.67,-19"/>
<text text-anchor="middle" x="55.5" y="-7" font-family="Helvetica,sans-Serif" font-size="10.00">outputSortedSlrObs</text>
</a>
</g>
</g>
<!-- Node1&#45;&gt;Node2 -->
<g id="edge1_Node000001_Node000002" class="edge">
<title>Node1&#45;&gt;Node2</title>
<g id="a_edge1_Node000001_Node000002"><a xlink:title=" ">
<path fill="none" stroke="#63b8ff" d="M136.77,-9.5C128.07,-9.5 119.38,-9.5 111.1,-9.5"/>
<polygon fill="#63b8ff" stroke="#63b8ff" points="136.97,-13 146.97,-9.5 136.97,-6 136.97,-13"/>
</a>
</g>
</g>
</g>
</svg>
