<?xml version="1.0" encoding="UTF-8" standalone="no"?>
<!DOCTYPE svg PUBLIC "-//W3C//DTD SVG 1.1//EN"
 "http://www.w3.org/Graphics/SVG/1.1/DTD/svg11.dtd">
<!-- Generated by graphviz version 2.43.0 (0)
 -->
<!-- Title: SP3__ Pages: 1 -->
<svg width="276pt" height="64pt"
 viewBox="0.00 0.00 276.00 64.00" xmlns="http://www.w3.org/2000/svg" xmlns:xlink="http://www.w3.org/1999/xlink">
<g id="graph0" class="graph" transform="scale(1 1) rotate(0) translate(4 60)">
<title>SP3__</title>
<!-- Node1 -->
<g id="Node000001" class="node">
<title>Node1</title>
<g id="a_Node000001"><a xlink:href="sp3_8cpp.html#adc9d8495aa5c958843f2eb3c4315292a" target="_top" xlink:title=" ">
<polygon fill="#ffc770" stroke="#ff8f00" stroke-width="2" points="264.83,-37 223,-37 223,-18 268,-18 268,-33.83 264.83,-37"/>
<polyline fill="none" stroke="#ff8f00" stroke-width="2" points="264.83,-37 264.83,-33.83 "/>
<polyline fill="none" stroke="#ff8f00" stroke-width="2" points="268,-33.83 264.83,-33.83 "/>
<text text-anchor="middle" x="245.5" y="-25" font-family="Helvetica,sans-Serif" font-size="10.00">SP3__</text>
</a>
</g>
</g>
<!-- Node2 -->
<g id="Node000002" class="node">
<title>Node2</title>
<g id="a_Node000002"><a xlink:href="Ginan_8cpp.html#a637a31e8501122706a266ba2e89f2684" target="_top" xlink:title=" ">
<polygon fill="#ffc770" stroke="#ff8f00" points="183.83,-37 116,-37 116,-18 187,-18 187,-33.83 183.83,-37"/>
<polyline fill="none" stroke="#ff8f00" points="183.83,-37 183.83,-33.83 "/>
<polyline fill="none" stroke="#ff8f00" points="187,-33.83 183.83,-33.83 "/>
<text text-anchor="middle" x="151.5" y="-25" font-family="Helvetica,sans-Serif" font-size="10.00">IGS_Files__</text>
</a>
</g>
</g>
<!-- Node1&#45;&gt;Node2 -->
<g id="edge1_Node000001_Node000002" class="edge">
<title>Node1&#45;&gt;Node2</title>
<g id="a_edge1_Node000001_Node000002"><a xlink:title=" ">
<path fill="none" stroke="#63b8ff" d="M212.69,-27.5C204.43,-27.5 195.49,-27.5 187.09,-27.5"/>
<polygon fill="#63b8ff" stroke="#63b8ff" points="212.7,-31 222.7,-27.5 212.7,-24 212.7,-31"/>
</a>
</g>
</g>
<!-- Node3 -->
<g id="Node000003" class="node">
<title>Node3</title>
<g id="a_Node000003"><a xlink:href="inputs_8cpp.html#a3f8b2c6b14e9c0440a9f26006979eb42" target="_top" xlink:title=" ">
<polygon fill="#ffc770" stroke="#ff8f00" points="80,-56 6.33,-56 6.33,-58.11 0,-58.11 0,-37 80,-37 80,-56"/>
<polyline fill="none" stroke="#ff8f00" points="0,-56 6.33,-56 "/>
<text text-anchor="middle" x="40" y="-44" font-family="Helvetica,sans-Serif" font-size="10.00">Input_Files__</text>
</a>
</g>
</g>
<!-- Node2&#45;&gt;Node3 -->
<g id="edge2_Node000002_Node000003" class="edge">
<title>Node2&#45;&gt;Node3</title>
<g id="a_edge2_Node000002_Node000003"><a xlink:title=" ">
<path fill="none" stroke="#63b8ff" d="M105.8,-35.26C97.37,-36.72 88.62,-38.24 80.38,-39.67"/>
<polygon fill="#63b8ff" stroke="#63b8ff" points="106.6,-38.67 115.85,-33.51 105.4,-31.77 106.6,-38.67"/>
</a>
</g>
</g>
<!-- Node9 -->
<g id="Node000009" class="node">
<title>Node9</title>
<g id="a_Node000009"><a xlink:href="outputs_8cpp.html#a6cd5e5db4d14fd454e8a75fea48e0a84" target="_top" xlink:title=" ">
<polygon fill="#ffc770" stroke="#ff8f00" points="72.5,-19 13.83,-19 13.83,-21.11 7.5,-21.11 7.5,0 72.5,0 72.5,-19"/>
<polyline fill="none" stroke="#ff8f00" points="7.5,-19 13.83,-19 "/>
<text text-anchor="middle" x="40" y="-7" font-family="Helvetica,sans-Serif" font-size="10.00">Outputs__</text>
</a>
</g>
</g>
<!-- Node2&#45;&gt;Node9 -->
<g id="edge3_Node000002_Node000009" class="edge">
<title>Node2&#45;&gt;Node9</title>
<g id="a_edge3_Node000002_Node000009"><a xlink:title=" ">
<path fill="none" stroke="#63b8ff" d="M105.89,-20.17C94.81,-18.34 83.15,-16.43 72.82,-14.73"/>
<polygon fill="#63b8ff" stroke="#63b8ff" points="105.42,-23.64 115.85,-21.8 106.55,-16.73 105.42,-23.64"/>
</a>
</g>
</g>
</g>
</svg>
