<?xml version="1.0" encoding="UTF-8" standalone="no"?>
<!DOCTYPE svg PUBLIC "-//W3C//DTD SVG 1.1//EN"
 "http://www.w3.org/Graphics/SVG/1.1/DTD/svg11.dtd">
<!-- Generated by graphviz version 2.43.0 (0)
 -->
<!-- Title: writeSp3Header Pages: 1 -->
<svg width="232pt" height="27pt"
 viewBox="0.00 0.00 232.00 27.00" xmlns="http://www.w3.org/2000/svg" xmlns:xlink="http://www.w3.org/1999/xlink">
<g id="graph0" class="graph" transform="scale(1 1) rotate(0) translate(4 23)">
<title>writeSp3Header</title>
<!-- Node1 -->
<g id="Node000001" class="node">
<title>Node1</title>
<g id="a_Node000001"><a xlink:href="sp3Write_8cpp.html#ab4606ad3c7415880b4adc10c1bfeab0e" target="_top" xlink:title=" ">
<path fill="#fff0f0" stroke="red" stroke-width="2" d="M217.67,-19C217.67,-19 135.33,-19 135.33,-19 132.17,-19 129,-15.83 129,-12.67 129,-12.67 129,-6.33 129,-6.33 129,-3.17 132.17,0 135.33,0 135.33,0 217.67,0 217.67,0 220.83,0 224,-3.17 224,-6.33 224,-6.33 224,-12.67 224,-12.67 224,-15.83 220.83,-19 217.67,-19"/>
<text text-anchor="middle" x="176.5" y="-7" font-family="Helvetica,sans-Serif" font-size="10.00">writeSp3Header</text>
</a>
</g>
</g>
<!-- Node2 -->
<g id="Node000002" class="node">
<title>Node2</title>
<g id="a_Node000002"><a xlink:href="sp3Write_8cpp.html#a8d1cb9bcd5108e738006c608421f1a98" target="_top" xlink:title=" ">
<path fill="#fff0f0" stroke="red" d="M86.67,-19C86.67,-19 6.33,-19 6.33,-19 3.17,-19 0,-15.83 0,-12.67 0,-12.67 0,-6.33 0,-6.33 0,-3.17 3.17,0 6.33,0 6.33,0 86.67,0 86.67,0 89.83,0 93,-3.17 93,-6.33 93,-6.33 93,-12.67 93,-12.67 93,-15.83 89.83,-19 86.67,-19"/>
<text text-anchor="middle" x="46.5" y="-7" font-family="Helvetica,sans-Serif" font-size="10.00">updateSp3Body</text>
</a>
</g>
</g>
<!-- Node1&#45;&gt;Node2 -->
<g id="edge1_Node000001_Node000002" class="edge">
<title>Node1&#45;&gt;Node2</title>
<g id="a_edge1_Node000001_Node000002"><a xlink:title=" ">
<path fill="none" stroke="#63b8ff" d="M118.72,-9.5C110.25,-9.5 101.61,-9.5 93.4,-9.5"/>
<polygon fill="#63b8ff" stroke="#63b8ff" points="118.93,-13 128.93,-9.5 118.93,-6 118.93,-13"/>
</a>
</g>
</g>
</g>
</svg>
