<?xml version="1.0" encoding="UTF-8" standalone="no"?>
<!DOCTYPE svg PUBLIC "-//W3C//DTD SVG 1.1//EN"
 "http://www.w3.org/Graphics/SVG/1.1/DTD/svg11.dtd">
<!-- Generated by graphviz version 2.43.0 (0)
 -->
<!-- Title: outputSp3 Pages: 1 -->
<svg width="380pt" height="83pt"
 viewBox="0.00 0.00 380.00 83.00" xmlns="http://www.w3.org/2000/svg" xmlns:xlink="http://www.w3.org/1999/xlink">
<g id="graph0" class="graph" transform="scale(1 1) rotate(0) translate(4 79)">
<title>outputSp3</title>
<!-- Node1 -->
<g id="Node000001" class="node">
<title>Node1</title>
<g id="a_Node000001"><a xlink:href="sp3Write_8cpp.html#aa684817008c29bcd43c77bdda90b8a31" target="_top" xlink:title=" ">
<path fill="#fff0f0" stroke="red" stroke-width="2" d="M59.67,-56C59.67,-56 6.33,-56 6.33,-56 3.17,-56 0,-52.83 0,-49.67 0,-49.67 0,-43.33 0,-43.33 0,-40.17 3.17,-37 6.33,-37 6.33,-37 59.67,-37 59.67,-37 62.83,-37 66,-40.17 66,-43.33 66,-43.33 66,-49.67 66,-49.67 66,-52.83 62.83,-56 59.67,-56"/>
<text text-anchor="middle" x="33" y="-44" font-family="Helvetica,sans-Serif" font-size="10.00">outputSp3</text>
</a>
</g>
</g>
<!-- Node2 -->
<g id="Node000002" class="node">
<title>Node2</title>
<g id="a_Node000002"><a xlink:href="structGTime.html#a72505f23b2252f690f124c2eaf026f91" target="_top" xlink:title=" ">
<path fill="#fff0f0" stroke="red" d="M365.67,-75C365.67,-75 277.33,-75 277.33,-75 274.17,-75 271,-71.83 271,-68.67 271,-68.67 271,-62.33 271,-62.33 271,-59.17 274.17,-56 277.33,-56 277.33,-56 365.67,-56 365.67,-56 368.83,-56 372,-59.17 372,-62.33 372,-62.33 372,-68.67 372,-68.67 372,-71.83 368.83,-75 365.67,-75"/>
<text text-anchor="middle" x="321.5" y="-63" font-family="Helvetica,sans-Serif" font-size="10.00">GTime::floorTime</text>
</a>
</g>
</g>
<!-- Node1&#45;&gt;Node2 -->
<g id="edge1_Node000001_Node000002" class="edge">
<title>Node1&#45;&gt;Node2</title>
<g id="a_edge1_Node000001_Node000002"><a xlink:title=" ">
<path fill="none" stroke="#63b8ff" d="M61.43,-56C73.68,-59.77 88.4,-63.64 102,-65.5 155.23,-72.8 216.45,-72.02 260.52,-69.87"/>
<polygon fill="#63b8ff" stroke="#63b8ff" points="260.97,-73.35 270.77,-69.33 260.6,-66.36 260.97,-73.35"/>
</a>
</g>
</g>
<!-- Node3 -->
<g id="Node000003" class="node">
<title>Node3</title>
<g id="a_Node000003"><a xlink:href="rinexClkWrite_8cpp.html#a87a652e05ec91c35c1e56c0650176dfa" target="_top" xlink:title=" ">
<path fill="#fff0f0" stroke="red" d="M228.67,-56C228.67,-56 108.33,-56 108.33,-56 105.17,-56 102,-52.83 102,-49.67 102,-49.67 102,-43.33 102,-43.33 102,-40.17 105.17,-37 108.33,-37 108.33,-37 228.67,-37 228.67,-37 231.83,-37 235,-40.17 235,-43.33 235,-43.33 235,-49.67 235,-49.67 235,-52.83 231.83,-56 228.67,-56"/>
<text text-anchor="middle" x="168.5" y="-44" font-family="Helvetica,sans-Serif" font-size="10.00">getSysOutputFilenames</text>
</a>
</g>
</g>
<!-- Node1&#45;&gt;Node3 -->
<g id="edge2_Node000001_Node000003" class="edge">
<title>Node1&#45;&gt;Node3</title>
<g id="a_edge2_Node000001_Node000003"><a xlink:title=" ">
<path fill="none" stroke="#63b8ff" d="M66.32,-46.5C74.17,-46.5 82.89,-46.5 91.83,-46.5"/>
<polygon fill="#63b8ff" stroke="#63b8ff" points="91.98,-50 101.98,-46.5 91.98,-43 91.98,-50"/>
</a>
</g>
</g>
<!-- Node8 -->
<g id="Node000008" class="node">
<title>Node8</title>
<g id="a_Node000008"><a xlink:href="sp3Write_8cpp.html#a63449e78bf1e8eb81fdd0486adf37cb2" target="_top" xlink:title=" ">
<path fill="#fff0f0" stroke="red" d="M208.17,-19C208.17,-19 128.83,-19 128.83,-19 125.67,-19 122.5,-15.83 122.5,-12.67 122.5,-12.67 122.5,-6.33 122.5,-6.33 122.5,-3.17 125.67,0 128.83,0 128.83,0 208.17,0 208.17,0 211.33,0 214.5,-3.17 214.5,-6.33 214.5,-6.33 214.5,-12.67 214.5,-12.67 214.5,-15.83 211.33,-19 208.17,-19"/>
<text text-anchor="middle" x="168.5" y="-7" font-family="Helvetica,sans-Serif" font-size="10.00">writeSysSetSp3</text>
</a>
</g>
</g>
<!-- Node1&#45;&gt;Node8 -->
<g id="edge4_Node000001_Node000008" class="edge">
<title>Node1&#45;&gt;Node8</title>
<g id="a_edge4_Node000001_Node000008"><a xlink:title=" ">
<path fill="none" stroke="#63b8ff" d="M66.32,-37.54C83.45,-32.79 104.76,-26.89 123.4,-21.72"/>
<polygon fill="#63b8ff" stroke="#63b8ff" points="124.45,-25.06 133.15,-19.02 122.58,-18.32 124.45,-25.06"/>
</a>
</g>
</g>
<!-- Node3&#45;&gt;Node2 -->
<g id="edge3_Node000003_Node000002" class="edge">
<title>Node3&#45;&gt;Node2</title>
<g id="a_edge3_Node000003_Node000002"><a xlink:title=" ">
<path fill="none" stroke="#63b8ff" d="M235.29,-54.78C243.77,-55.84 252.41,-56.93 260.78,-57.99"/>
<polygon fill="#63b8ff" stroke="#63b8ff" points="260.47,-61.47 270.82,-59.25 261.34,-54.53 260.47,-61.47"/>
</a>
</g>
</g>
</g>
</svg>
