<?xml version="1.0" encoding="UTF-8" standalone="no"?>
<!DOCTYPE svg PUBLIC "-//W3C//DTD SVG 1.1//EN"
 "http://www.w3.org/Graphics/SVG/1.1/DTD/svg11.dtd">
<!-- Generated by graphviz version 2.43.0 (0)
 -->
<!-- Title: writeSp3Header Pages: 1 -->
<svg width="266pt" height="101pt"
 viewBox="0.00 0.00 266.00 101.00" xmlns="http://www.w3.org/2000/svg" xmlns:xlink="http://www.w3.org/1999/xlink">
<g id="graph0" class="graph" transform="scale(1 1) rotate(0) translate(4 97)">
<title>writeSp3Header</title>
<!-- Node1 -->
<g id="Node000001" class="node">
<title>Node1</title>
<g id="a_Node000001"><a xlink:href="sp3Write_8cpp.html#ab4606ad3c7415880b4adc10c1bfeab0e" target="_top" xlink:title=" ">
<path fill="#fff0f0" stroke="red" stroke-width="2" d="M88.67,-56C88.67,-56 6.33,-56 6.33,-56 3.17,-56 0,-52.83 0,-49.67 0,-49.67 0,-43.33 0,-43.33 0,-40.17 3.17,-37 6.33,-37 6.33,-37 88.67,-37 88.67,-37 91.83,-37 95,-40.17 95,-43.33 95,-43.33 95,-49.67 95,-49.67 95,-52.83 91.83,-56 88.67,-56"/>
<text text-anchor="middle" x="47.5" y="-44" font-family="Helvetica,sans-Serif" font-size="10.00">writeSp3Header</text>
</a>
</g>
</g>
<!-- Node2 -->
<g id="Node000002" class="node">
<title>Node2</title>
<g id="a_Node000002"><a xlink:href="satSys_8cpp.html#aae80f3401dd26548c7b0b83c1e25e499" target="_top" xlink:title="Get all satellites of target system.">
<path fill="#fff0f0" stroke="red" d="M223.67,-93C223.67,-93 165.33,-93 165.33,-93 162.17,-93 159,-89.83 159,-86.67 159,-86.67 159,-80.33 159,-80.33 159,-77.17 162.17,-74 165.33,-74 165.33,-74 223.67,-74 223.67,-74 226.83,-74 230,-77.17 230,-80.33 230,-80.33 230,-86.67 230,-86.67 230,-89.83 226.83,-93 223.67,-93"/>
<text text-anchor="middle" x="194.5" y="-81" font-family="Helvetica,sans-Serif" font-size="10.00">getSysSats</text>
</a>
</g>
</g>
<!-- Node1&#45;&gt;Node2 -->
<g id="edge1_Node000001_Node000002" class="edge">
<title>Node1&#45;&gt;Node2</title>
<g id="a_edge1_Node000001_Node000002"><a xlink:title=" ">
<path fill="none" stroke="#63b8ff" d="M85.84,-56.03C105.08,-60.94 128.67,-66.96 148.87,-72.11"/>
<polygon fill="#63b8ff" stroke="#63b8ff" points="148.22,-75.56 158.77,-74.64 149.95,-68.78 148.22,-75.56"/>
</a>
</g>
</g>
<!-- Node3 -->
<g id="Node000003" class="node">
<title>Node3</title>
<g id="a_Node000003"><a xlink:href="structACSConfig.html#a20ca3689eafecfa2b7e656c28e340256" target="_top" xlink:title="Set satellite options for a specific satellite using a hierarchy of sources.">
<path fill="#fff0f0" stroke="red" d="M251.67,-56C251.67,-56 137.33,-56 137.33,-56 134.17,-56 131,-52.83 131,-49.67 131,-49.67 131,-43.33 131,-43.33 131,-40.17 134.17,-37 137.33,-37 137.33,-37 251.67,-37 251.67,-37 254.83,-37 258,-40.17 258,-43.33 258,-43.33 258,-49.67 258,-49.67 258,-52.83 254.83,-56 251.67,-56"/>
<text text-anchor="middle" x="194.5" y="-44" font-family="Helvetica,sans-Serif" font-size="10.00">ACSConfig::getSatOpts</text>
</a>
</g>
</g>
<!-- Node1&#45;&gt;Node3 -->
<g id="edge2_Node000001_Node000003" class="edge">
<title>Node1&#45;&gt;Node3</title>
<g id="a_edge2_Node000001_Node000003"><a xlink:title=" ">
<path fill="none" stroke="#63b8ff" d="M95.18,-46.5C103.33,-46.5 111.98,-46.5 120.64,-46.5"/>
<polygon fill="#63b8ff" stroke="#63b8ff" points="120.78,-50 130.78,-46.5 120.78,-43 120.78,-50"/>
</a>
</g>
</g>
<!-- Node25 -->
<g id="Node000025" class="node">
<title>Node25</title>
<g id="a_Node000025"><a xlink:href="gTime_8cpp.html#abc73cf336f9fa1b3622c933d5925e073" target="_top" xlink:title=" ">
<path fill="#fff0f0" stroke="red" d="M216.17,-19C216.17,-19 172.83,-19 172.83,-19 169.67,-19 166.5,-15.83 166.5,-12.67 166.5,-12.67 166.5,-6.33 166.5,-6.33 166.5,-3.17 169.67,0 172.83,0 172.83,0 216.17,0 216.17,0 219.33,0 222.5,-3.17 222.5,-6.33 222.5,-6.33 222.5,-12.67 222.5,-12.67 222.5,-15.83 219.33,-19 216.17,-19"/>
<text text-anchor="middle" x="194.5" y="-7" font-family="Helvetica,sans-Serif" font-size="10.00">timeGet</text>
</a>
</g>
</g>
<!-- Node1&#45;&gt;Node25 -->
<g id="edge3_Node000001_Node000025" class="edge">
<title>Node1&#45;&gt;Node25</title>
<g id="a_edge3_Node000001_Node000025"><a xlink:title=" ">
<path fill="none" stroke="#63b8ff" d="M85.84,-36.97C107.57,-31.43 134.87,-24.46 156.53,-18.93"/>
<polygon fill="#63b8ff" stroke="#63b8ff" points="157.54,-22.29 166.36,-16.43 155.8,-15.51 157.54,-22.29"/>
</a>
</g>
</g>
</g>
</svg>
