<?xml version="1.0" encoding="UTF-8" standalone="no"?>
<!DOCTYPE svg PUBLIC "-//W3C//DTD SVG 1.1//EN"
 "http://www.w3.org/Graphics/SVG/1.1/DTD/svg11.dtd">
<!-- Generated by graphviz version 2.43.0 (0)
 -->
<!-- Title: estpos Pages: 1 -->
<svg width="370pt" height="565pt"
 viewBox="0.00 0.00 370.00 565.00" xmlns="http://www.w3.org/2000/svg" xmlns:xlink="http://www.w3.org/1999/xlink">
<g id="graph0" class="graph" transform="scale(1 1) rotate(0) translate(4 561)">
<title>estpos</title>
<!-- Node1 -->
<g id="Node000001" class="node">
<title>Node1</title>
<g id="a_Node000001"><a xlink:href="spp_8cpp.html#ad923112e4e6dfdfc8b050b68851fe1d0" target="_top" xlink:title="Estimate receiver position and biases using code measurements.">
<path fill="#fff0f0" stroke="red" stroke-width="2" d="M42.67,-278C42.67,-278 6.33,-278 6.33,-278 3.17,-278 0,-274.83 0,-271.67 0,-271.67 0,-265.33 0,-265.33 0,-262.17 3.17,-259 6.33,-259 6.33,-259 42.67,-259 42.67,-259 45.83,-259 49,-262.17 49,-265.33 49,-265.33 49,-271.67 49,-271.67 49,-274.83 45.83,-278 42.67,-278"/>
<text text-anchor="middle" x="24.5" y="-266" font-family="Helvetica,sans-Serif" font-size="10.00">estpos</text>
</a>
</g>
</g>
<!-- Node2 -->
<g id="Node000002" class="node">
<title>Node2</title>
<g id="a_Node000002"><a xlink:href="structACSConfig.html#acbb130e061ba4b7bf620e4fb68e1b794" target="_top" xlink:title="Set receiver options for a specific receiver using a hierarchy of sources.">
<path fill="#fff0f0" stroke="red" d="M220.67,-557C220.67,-557 104.33,-557 104.33,-557 101.17,-557 98,-553.83 98,-550.67 98,-550.67 98,-544.33 98,-544.33 98,-541.17 101.17,-538 104.33,-538 104.33,-538 220.67,-538 220.67,-538 223.83,-538 227,-541.17 227,-544.33 227,-544.33 227,-550.67 227,-550.67 227,-553.83 223.83,-557 220.67,-557"/>
<text text-anchor="middle" x="162.5" y="-545" font-family="Helvetica,sans-Serif" font-size="10.00">ACSConfig::getRecOpts</text>
</a>
</g>
</g>
<!-- Node1&#45;&gt;Node2 -->
<g id="edge1_Node000001_Node000002" class="edge">
<title>Node1&#45;&gt;Node2</title>
<g id="a_edge1_Node000001_Node000002"><a xlink:title=" ">
<path fill="none" stroke="#63b8ff" d="M26.36,-278.27C30.36,-321.21 48.4,-492.65 85,-529.5 86.29,-530.8 87.65,-532.01 89.08,-533.14"/>
<polygon fill="#63b8ff" stroke="#63b8ff" points="87.56,-536.32 97.87,-538.76 91.33,-530.43 87.56,-536.32"/>
</a>
</g>
</g>
<!-- Node19 -->
<g id="Node000019" class="node">
<title>Node19</title>
<g id="a_Node000019"><a xlink:href="utils_8cpp.html#ae91d83cf693cdc7e1efacbe4d8d9656e" target="_top" xlink:title=" ">
<path fill="#fff0f0" stroke="red" d="M186.67,-520C186.67,-520 138.33,-520 138.33,-520 135.17,-520 132,-516.83 132,-513.67 132,-513.67 132,-507.33 132,-507.33 132,-504.17 135.17,-501 138.33,-501 138.33,-501 186.67,-501 186.67,-501 189.83,-501 193,-504.17 193,-507.33 193,-507.33 193,-513.67 193,-513.67 193,-516.83 189.83,-520 186.67,-520"/>
<text text-anchor="middle" x="162.5" y="-508" font-family="Helvetica,sans-Serif" font-size="10.00">ecef2pos</text>
</a>
</g>
</g>
<!-- Node1&#45;&gt;Node19 -->
<g id="edge2_Node000001_Node000019" class="edge">
<title>Node1&#45;&gt;Node19</title>
<g id="a_edge2_Node000001_Node000019"><a xlink:title=" ">
<path fill="none" stroke="#63b8ff" d="M25.1,-278.33C24.27,-312.23 26.22,-425.47 85,-486.5 94.7,-496.57 108.55,-502.43 121.82,-505.84"/>
<polygon fill="#63b8ff" stroke="#63b8ff" points="121.25,-509.29 131.77,-507.99 122.73,-502.45 121.25,-509.29"/>
</a>
</g>
</g>
<!-- Node20 -->
<g id="Node000020" class="node">
<title>Node20</title>
<g id="a_Node000020"><a xlink:href="structVectorPos.html#a9517f77c95322d34dc896a88db4a804f" target="_top" xlink:title=" ">
<path fill="#fff0f0" stroke="red" d="M355.67,-412C355.67,-412 282.33,-412 282.33,-412 279.17,-412 276,-408.83 276,-405.67 276,-405.67 276,-399.33 276,-399.33 276,-396.17 279.17,-393 282.33,-393 282.33,-393 355.67,-393 355.67,-393 358.83,-393 362,-396.17 362,-399.33 362,-399.33 362,-405.67 362,-405.67 362,-408.83 358.83,-412 355.67,-412"/>
<text text-anchor="middle" x="319" y="-400" font-family="Helvetica,sans-Serif" font-size="10.00">VectorPos::hgt</text>
</a>
</g>
</g>
<!-- Node1&#45;&gt;Node20 -->
<g id="edge3_Node000001_Node000020" class="edge">
<title>Node1&#45;&gt;Node20</title>
<g id="a_edge3_Node000001_Node000020"><a xlink:title=" ">
<path fill="none" stroke="#63b8ff" d="M25.54,-278.3C26.52,-307.41 34.19,-390.67 85,-426.5 144,-468.11 232.57,-436.55 281.78,-415.97"/>
<polygon fill="#63b8ff" stroke="#63b8ff" points="283.23,-419.15 291.07,-412.02 280.5,-412.71 283.23,-419.15"/>
</a>
</g>
</g>
<!-- Node1&#45;&gt;Node20 -->
<g id="edge4_Node000001_Node000020" class="edge">
<title>Node1&#45;&gt;Node20</title>
<g id="a_edge4_Node000001_Node000020"><a xlink:title=" ">
<path fill="none" stroke="#63b8ff" d="M25.42,-278.02C25.46,-309.32 29.41,-405.3 85,-444.5 151.73,-491.57 256.3,-445.02 298.94,-418.06"/>
<polygon fill="#63b8ff" stroke="#63b8ff" points="301.14,-420.8 307.51,-412.33 297.25,-414.98 301.14,-420.8"/>
</a>
</g>
</g>
<!-- Node21 -->
<g id="Node000021" class="node">
<title>Node21</title>
<g id="a_Node000021"><a xlink:href="rtkcmn_8cpp.html#a52a667466317784c7a286f77b2ee9c3f" target="_top" xlink:title="geometric distance compute geometric distance and receiver&#45;to&#45;satellite unit vector notes : distance ...">
<path fill="#fff0f0" stroke="red" d="M182.67,-426C182.67,-426 142.33,-426 142.33,-426 139.17,-426 136,-422.83 136,-419.67 136,-419.67 136,-413.33 136,-413.33 136,-410.17 139.17,-407 142.33,-407 142.33,-407 182.67,-407 182.67,-407 185.83,-407 189,-410.17 189,-413.33 189,-413.33 189,-419.67 189,-419.67 189,-422.83 185.83,-426 182.67,-426"/>
<text text-anchor="middle" x="162.5" y="-414" font-family="Helvetica,sans-Serif" font-size="10.00">geodist</text>
</a>
</g>
</g>
<!-- Node1&#45;&gt;Node21 -->
<g id="edge5_Node000001_Node000021" class="edge">
<title>Node1&#45;&gt;Node21</title>
<g id="a_edge5_Node000001_Node000021"><a xlink:title=" ">
<path fill="none" stroke="#63b8ff" d="M26.96,-278.08C31.16,-302.29 45.64,-366.26 85,-398.5 96.35,-407.8 111.68,-412.46 125.62,-414.74"/>
<polygon fill="#63b8ff" stroke="#63b8ff" points="125.57,-418.27 135.93,-416.06 126.46,-411.32 125.57,-418.27"/>
</a>
</g>
</g>
<!-- Node23 -->
<g id="Node000023" class="node">
<title>Node23</title>
<g id="a_Node000023"><a xlink:href="spp_8cpp.html#a6cad7816e79572f2df36565492643a21" target="_top" xlink:title="Calculate pseudorange with code bias correction.">
<path fill="#fff0f0" stroke="red" d="M181.17,-389C181.17,-389 143.83,-389 143.83,-389 140.67,-389 137.5,-385.83 137.5,-382.67 137.5,-382.67 137.5,-376.33 137.5,-376.33 137.5,-373.17 140.67,-370 143.83,-370 143.83,-370 181.17,-370 181.17,-370 184.33,-370 187.5,-373.17 187.5,-376.33 187.5,-376.33 187.5,-382.67 187.5,-382.67 187.5,-385.83 184.33,-389 181.17,-389"/>
<text text-anchor="middle" x="162.5" y="-377" font-family="Helvetica,sans-Serif" font-size="10.00">prange</text>
</a>
</g>
</g>
<!-- Node1&#45;&gt;Node23 -->
<g id="edge6_Node000001_Node000023" class="edge">
<title>Node1&#45;&gt;Node23</title>
<g id="a_edge6_Node000001_Node000023"><a xlink:title=" ">
<path fill="none" stroke="#63b8ff" d="M28.83,-278.14C35.94,-297.24 54.5,-339.89 85,-361.5 97.15,-370.11 112.85,-374.65 126.87,-377.03"/>
<polygon fill="#63b8ff" stroke="#63b8ff" points="126.78,-380.55 137.16,-378.45 127.74,-373.61 126.78,-380.55"/>
</a>
</g>
</g>
<!-- Node37 -->
<g id="Node000037" class="node">
<title>Node37</title>
<g id="a_Node000037"><a xlink:href="rtkcmn_8cpp.html#a043d5d9da866bca2f19bf4a74ad8b2f5" target="_top" xlink:title="satellite azimuth/elevation angle">
<path fill="#fff0f0" stroke="red" d="M182.17,-352C182.17,-352 142.83,-352 142.83,-352 139.67,-352 136.5,-348.83 136.5,-345.67 136.5,-345.67 136.5,-339.33 136.5,-339.33 136.5,-336.17 139.67,-333 142.83,-333 142.83,-333 182.17,-333 182.17,-333 185.33,-333 188.5,-336.17 188.5,-339.33 188.5,-339.33 188.5,-345.67 188.5,-345.67 188.5,-348.83 185.33,-352 182.17,-352"/>
<text text-anchor="middle" x="162.5" y="-340" font-family="Helvetica,sans-Serif" font-size="10.00">satazel</text>
</a>
</g>
</g>
<!-- Node1&#45;&gt;Node37 -->
<g id="edge7_Node000001_Node000037" class="edge">
<title>Node1&#45;&gt;Node37</title>
<g id="a_edge7_Node000001_Node000037"><a xlink:title=" ">
<path fill="none" stroke="#63b8ff" d="M32.86,-278.03C43.13,-290.64 63.01,-312.68 85,-324.5 97.64,-331.29 112.81,-335.54 126.3,-338.19"/>
<polygon fill="#63b8ff" stroke="#63b8ff" points="125.76,-341.65 136.21,-339.92 126.96,-334.76 125.76,-341.65"/>
</a>
</g>
</g>
<!-- Node46 -->
<g id="Node000046" class="node">
<title>Node46</title>
<g id="a_Node000046"><a xlink:href="spp_8cpp.html#a46206d6393631e3df6644a21e78cea88" target="_top" xlink:title="Compute ionospheric corrections.">
<path fill="#fff0f0" stroke="red" d="M184.17,-315C184.17,-315 140.83,-315 140.83,-315 137.67,-315 134.5,-311.83 134.5,-308.67 134.5,-308.67 134.5,-302.33 134.5,-302.33 134.5,-299.17 137.67,-296 140.83,-296 140.83,-296 184.17,-296 184.17,-296 187.33,-296 190.5,-299.17 190.5,-302.33 190.5,-302.33 190.5,-308.67 190.5,-308.67 190.5,-311.83 187.33,-315 184.17,-315"/>
<text text-anchor="middle" x="162.5" y="-303" font-family="Helvetica,sans-Serif" font-size="10.00">ionocorr</text>
</a>
</g>
</g>
<!-- Node1&#45;&gt;Node46 -->
<g id="edge9_Node000001_Node000046" class="edge">
<title>Node1&#45;&gt;Node46</title>
<g id="a_edge9_Node000001_Node000046"><a xlink:title=" ">
<path fill="none" stroke="#63b8ff" d="M49.11,-276.51C59.98,-280.07 73.09,-284.2 85,-287.5 97.74,-291.03 111.79,-294.46 124.34,-297.37"/>
<polygon fill="#63b8ff" stroke="#63b8ff" points="123.93,-300.87 134.46,-299.68 125.49,-294.04 123.93,-300.87"/>
</a>
</g>
</g>
<!-- Node52 -->
<g id="Node000052" class="node">
<title>Node52</title>
<g id="a_Node000052"><a xlink:href="tropSAAS_8cpp.html#a1d3b00af7bf0b5ded35bb5efd1602f38" target="_top" xlink:title=" ">
<path fill="#fff0f0" stroke="red" d="M187.17,-278C187.17,-278 137.83,-278 137.83,-278 134.67,-278 131.5,-274.83 131.5,-271.67 131.5,-271.67 131.5,-265.33 131.5,-265.33 131.5,-262.17 134.67,-259 137.83,-259 137.83,-259 187.17,-259 187.17,-259 190.33,-259 193.5,-262.17 193.5,-265.33 193.5,-265.33 193.5,-271.67 193.5,-271.67 193.5,-274.83 190.33,-278 187.17,-278"/>
<text text-anchor="middle" x="162.5" y="-266" font-family="Helvetica,sans-Serif" font-size="10.00">tropSAAS</text>
</a>
</g>
</g>
<!-- Node1&#45;&gt;Node52 -->
<g id="edge10_Node000001_Node000052" class="edge">
<title>Node1&#45;&gt;Node52</title>
<g id="a_edge10_Node000001_Node000052"><a xlink:title=" ">
<path fill="none" stroke="#63b8ff" d="M49.19,-268.5C69.08,-268.5 97.92,-268.5 121.4,-268.5"/>
<polygon fill="#63b8ff" stroke="#63b8ff" points="121.42,-272 131.42,-268.5 121.42,-265 121.42,-272"/>
</a>
</g>
</g>
<!-- Node57 -->
<g id="Node000057" class="node">
<title>Node57</title>
<g id="a_Node000057"><a xlink:href="structKFMeasEntry.html#a358f854f4544c59fd129e46a1baf0e34" target="_top" xlink:title="Adds a design matrix entry for this measurement.">
<path fill="#fff0f0" stroke="red" d="M233.67,-241C233.67,-241 91.33,-241 91.33,-241 88.17,-241 85,-237.83 85,-234.67 85,-234.67 85,-228.33 85,-228.33 85,-225.17 88.17,-222 91.33,-222 91.33,-222 233.67,-222 233.67,-222 236.83,-222 240,-225.17 240,-228.33 240,-228.33 240,-234.67 240,-234.67 240,-237.83 236.83,-241 233.67,-241"/>
<text text-anchor="middle" x="162.5" y="-229" font-family="Helvetica,sans-Serif" font-size="10.00">KFMeasEntry::addDsgnEntry</text>
</a>
</g>
</g>
<!-- Node1&#45;&gt;Node57 -->
<g id="edge12_Node000001_Node000057" class="edge">
<title>Node1&#45;&gt;Node57</title>
<g id="a_edge12_Node000001_Node000057"><a xlink:title=" ">
<path fill="none" stroke="#63b8ff" d="M35.56,-258.83C45.33,-253.64 60.84,-248.46 76.71,-243.85"/>
<polygon fill="#63b8ff" stroke="#63b8ff" points="77.92,-247.15 86.59,-241.06 76.01,-240.41 77.92,-247.15"/>
</a>
</g>
</g>
<!-- Node1&#45;&gt;Node57 -->
<g id="edge13_Node000001_Node000057" class="edge">
<title>Node1&#45;&gt;Node57</title>
<g id="a_edge13_Node000001_Node000057"><a xlink:title=" ">
<path fill="none" stroke="#63b8ff" d="M49.16,-269.25C60.04,-266.69 73.14,-262.77 85,-259.5 102.9,-254.57 123.32,-249.53 138.55,-244.54"/>
<polygon fill="#63b8ff" stroke="#63b8ff" points="139.94,-247.76 148.18,-241.09 137.59,-241.17 139.94,-247.76"/>
</a>
</g>
</g>
<!-- Node58 -->
<g id="Node000058" class="node">
<title>Node58</title>
<g id="a_Node000058"><a xlink:href="structKFMeasEntry.html#a7d612c21a6d8f4367e273baf672e6cbd" target="_top" xlink:title="Adds the actual measurement value for this measurement.">
<path fill="#fff0f0" stroke="red" d="M220.17,-204C220.17,-204 104.83,-204 104.83,-204 101.67,-204 98.5,-200.83 98.5,-197.67 98.5,-197.67 98.5,-191.33 98.5,-191.33 98.5,-188.17 101.67,-185 104.83,-185 104.83,-185 220.17,-185 220.17,-185 223.33,-185 226.5,-188.17 226.5,-191.33 226.5,-191.33 226.5,-197.67 226.5,-197.67 226.5,-200.83 223.33,-204 220.17,-204"/>
<text text-anchor="middle" x="162.5" y="-192" font-family="Helvetica,sans-Serif" font-size="10.00">KFMeasEntry::setValue</text>
</a>
</g>
</g>
<!-- Node1&#45;&gt;Node58 -->
<g id="edge14_Node000001_Node000058" class="edge">
<title>Node1&#45;&gt;Node58</title>
<g id="a_edge14_Node000001_Node000058"><a xlink:title=" ">
<path fill="none" stroke="#63b8ff" d="M33.27,-258.76C43.71,-246.35 63.46,-225.12 85,-213.5 89.29,-211.19 93.87,-209.15 98.57,-207.35"/>
<polygon fill="#63b8ff" stroke="#63b8ff" points="100.02,-210.56 108.34,-204 97.75,-203.93 100.02,-210.56"/>
</a>
</g>
</g>
<!-- Node59 -->
<g id="Node000059" class="node">
<title>Node59</title>
<g id="a_Node000059"><a xlink:href="structKFMeasEntry.html#a58172784aeb65ed62d2b21ee570f4980" target="_top" xlink:title="Adds the measurement noise entry for this measurement.">
<path fill="#fff0f0" stroke="red" d="M220.67,-167C220.67,-167 104.33,-167 104.33,-167 101.17,-167 98,-163.83 98,-160.67 98,-160.67 98,-154.33 98,-154.33 98,-151.17 101.17,-148 104.33,-148 104.33,-148 220.67,-148 220.67,-148 223.83,-148 227,-151.17 227,-154.33 227,-154.33 227,-160.67 227,-160.67 227,-163.83 223.83,-167 220.67,-167"/>
<text text-anchor="middle" x="162.5" y="-155" font-family="Helvetica,sans-Serif" font-size="10.00">KFMeasEntry::setNoise</text>
</a>
</g>
</g>
<!-- Node1&#45;&gt;Node59 -->
<g id="edge15_Node000001_Node000059" class="edge">
<title>Node1&#45;&gt;Node59</title>
<g id="a_edge15_Node000001_Node000059"><a xlink:title=" ">
<path fill="none" stroke="#63b8ff" d="M28.88,-258.99C36.09,-240.15 54.81,-198.05 85,-176.5 87.73,-174.55 90.64,-172.8 93.66,-171.23"/>
<polygon fill="#63b8ff" stroke="#63b8ff" points="95.34,-174.31 103.04,-167.04 92.48,-167.93 95.34,-174.31"/>
</a>
</g>
</g>
<!-- Node60 -->
<g id="Node000060" class="node">
<title>Node60</title>
<g id="a_Node000060"><a xlink:href="spp_8cpp.html#a11e0f5d1100b933e76538398082c31d8" target="_top" xlink:title=" ">
<path fill="#fff0f0" stroke="red" d="M229.67,-130C229.67,-130 95.33,-130 95.33,-130 92.17,-130 89,-126.83 89,-123.67 89,-123.67 89,-117.33 89,-117.33 89,-114.17 92.17,-111 95.33,-111 95.33,-111 229.67,-111 229.67,-111 232.83,-111 236,-114.17 236,-117.33 236,-117.33 236,-123.67 236,-123.67 236,-126.83 232.83,-130 229.67,-130"/>
<text text-anchor="middle" x="162.5" y="-118" font-family="Helvetica,sans-Serif" font-size="10.00">removeUnmeasuredStates</text>
</a>
</g>
</g>
<!-- Node1&#45;&gt;Node60 -->
<g id="edge16_Node000001_Node000060" class="edge">
<title>Node1&#45;&gt;Node60</title>
<g id="a_edge16_Node000001_Node000060"><a xlink:title=" ">
<path fill="none" stroke="#63b8ff" d="M27.07,-258.66C31.47,-234.44 46.23,-171.57 85,-139.5 87.03,-137.82 89.19,-136.29 91.44,-134.89"/>
<polygon fill="#63b8ff" stroke="#63b8ff" points="93.32,-137.86 100.55,-130.11 90.07,-131.65 93.32,-137.86"/>
</a>
</g>
</g>
<!-- Node62 -->
<g id="Node000062" class="node">
<title>Node62</title>
<g id="a_Node000062"><a xlink:href="spp_8cpp.html#a3399696caadde07f39ed695e8f44458d" target="_top" xlink:title=" ">
<path fill="#fff0f0" stroke="red" d="M194.67,-93C194.67,-93 130.33,-93 130.33,-93 127.17,-93 124,-89.83 124,-86.67 124,-86.67 124,-80.33 124,-80.33 124,-77.17 127.17,-74 130.33,-74 130.33,-74 194.67,-74 194.67,-74 197.83,-74 201,-77.17 201,-80.33 201,-80.33 201,-86.67 201,-86.67 201,-89.83 197.83,-93 194.67,-93"/>
<text text-anchor="middle" x="162.5" y="-81" font-family="Helvetica,sans-Serif" font-size="10.00">printFailures</text>
</a>
</g>
</g>
<!-- Node1&#45;&gt;Node62 -->
<g id="edge17_Node000001_Node000062" class="edge">
<title>Node1&#45;&gt;Node62</title>
<g id="a_edge17_Node000001_Node000062"><a xlink:title=" ">
<path fill="none" stroke="#63b8ff" d="M25.93,-258.93C27.73,-230.5 37.08,-145.82 85,-102.5 93,-95.27 103.33,-90.69 113.79,-87.81"/>
<polygon fill="#63b8ff" stroke="#63b8ff" points="114.8,-91.17 123.78,-85.55 113.26,-84.34 114.8,-91.17"/>
</a>
</g>
</g>
<!-- Node63 -->
<g id="Node000063" class="node">
<title>Node63</title>
<g id="a_Node000063"><a xlink:href="algebra_8cpp.html#aeb9b81b7f95c771aa529d3fddde7d466" target="_top" xlink:title=" ">
<path fill="#fff0f0" stroke="red" d="M203.67,-56C203.67,-56 121.33,-56 121.33,-56 118.17,-56 115,-52.83 115,-49.67 115,-49.67 115,-43.33 115,-43.33 115,-40.17 118.17,-37 121.33,-37 121.33,-37 203.67,-37 203.67,-37 206.83,-37 210,-40.17 210,-43.33 210,-43.33 210,-49.67 210,-49.67 210,-52.83 206.83,-56 203.67,-56"/>
<text text-anchor="middle" x="162.5" y="-44" font-family="Helvetica,sans-Serif" font-size="10.00">outputResiduals</text>
</a>
</g>
</g>
<!-- Node1&#45;&gt;Node63 -->
<g id="edge18_Node000001_Node000063" class="edge">
<title>Node1&#45;&gt;Node63</title>
<g id="a_edge18_Node000001_Node000063"><a xlink:title=" ">
<path fill="none" stroke="#63b8ff" d="M25.2,-258.75C24.78,-226.19 28.02,-120.16 85,-65.5 90.69,-60.04 97.7,-56.07 105.15,-53.21"/>
<polygon fill="#63b8ff" stroke="#63b8ff" points="106.29,-56.52 114.74,-50.14 104.15,-49.85 106.29,-56.52"/>
</a>
</g>
</g>
<!-- Node64 -->
<g id="Node000064" class="node">
<title>Node64</title>
<g id="a_Node000064"><a xlink:href="spp_8cpp.html#ab5150568ca2563e9ba5c3a4407a2ce18" target="_top" xlink:title="Validate Dilution of Precision of solution.">
<path fill="#fff0f0" stroke="red" d="M194.67,-19C194.67,-19 130.33,-19 130.33,-19 127.17,-19 124,-15.83 124,-12.67 124,-12.67 124,-6.33 124,-6.33 124,-3.17 127.17,0 130.33,0 130.33,0 194.67,0 194.67,0 197.83,0 201,-3.17 201,-6.33 201,-6.33 201,-12.67 201,-12.67 201,-15.83 197.83,-19 194.67,-19"/>
<text text-anchor="middle" x="162.5" y="-7" font-family="Helvetica,sans-Serif" font-size="10.00">validateDOP</text>
</a>
</g>
</g>
<!-- Node1&#45;&gt;Node64 -->
<g id="edge19_Node000001_Node000064" class="edge">
<title>Node1&#45;&gt;Node64</title>
<g id="a_edge19_Node000001_Node000064"><a xlink:title=" ">
<path fill="none" stroke="#63b8ff" d="M26.56,-258.98C31.22,-218.64 51.24,-62.28 85,-28.5 92.78,-20.72 103.21,-15.95 113.87,-13.07"/>
<polygon fill="#63b8ff" stroke="#63b8ff" points="114.64,-16.49 123.65,-10.93 113.14,-9.65 114.64,-16.49"/>
</a>
</g>
</g>
<!-- Node37&#45;&gt;Node20 -->
<g id="edge8_Node000037_Node000020" class="edge">
<title>Node37&#45;&gt;Node20</title>
<g id="a_edge8_Node000037_Node000020"><a xlink:title=" ">
<path fill="none" stroke="#63b8ff" d="M188.77,-347.18C203.91,-350.37 223.37,-355.17 240,-361.5 258.71,-368.62 278.67,-379.17 293.71,-387.79"/>
<polygon fill="#63b8ff" stroke="#63b8ff" points="291.99,-390.84 302.39,-392.86 295.52,-384.79 291.99,-390.84"/>
</a>
</g>
</g>
<!-- Node52&#45;&gt;Node20 -->
<g id="edge11_Node000052_Node000020" class="edge">
<title>Node52&#45;&gt;Node20</title>
<g id="a_edge11_Node000052_Node000020"><a xlink:title=" ">
<path fill="none" stroke="#63b8ff" d="M193.55,-270.87C208.59,-273.26 226.42,-278.03 240,-287.5 274.95,-311.88 298.81,-357.38 310.24,-383.24"/>
<polygon fill="#63b8ff" stroke="#63b8ff" points="307.13,-384.86 314.25,-392.7 313.57,-382.13 307.13,-384.86"/>
</a>
</g>
</g>
</g>
</svg>
