<?xml version="1.0" encoding="UTF-8" standalone="no"?>
<!DOCTYPE svg PUBLIC "-//W3C//DTD SVG 1.1//EN"
 "http://www.w3.org/Graphics/SVG/1.1/DTD/svg11.dtd">
<!-- Generated by graphviz version 2.43.0 (0)
 -->
<!-- Title: ionocorr Pages: 1 -->
<svg width="189pt" height="64pt"
 viewBox="0.00 0.00 189.00 64.00" xmlns="http://www.w3.org/2000/svg" xmlns:xlink="http://www.w3.org/1999/xlink">
<g id="graph0" class="graph" transform="scale(1 1) rotate(0) translate(4 60)">
<title>ionocorr</title>
<!-- Node1 -->
<g id="Node000001" class="node">
<title>Node1</title>
<g id="a_Node000001"><a xlink:href="spp_8cpp.html#a46206d6393631e3df6644a21e78cea88" target="_top" xlink:title="Compute ionospheric corrections.">
<path fill="#fff0f0" stroke="red" stroke-width="2" d="M49.67,-37C49.67,-37 6.33,-37 6.33,-37 3.17,-37 0,-33.83 0,-30.67 0,-30.67 0,-24.33 0,-24.33 0,-21.17 3.17,-18 6.33,-18 6.33,-18 49.67,-18 49.67,-18 52.83,-18 56,-21.17 56,-24.33 56,-24.33 56,-30.67 56,-30.67 56,-33.83 52.83,-37 49.67,-37"/>
<text text-anchor="middle" x="28" y="-25" font-family="Helvetica,sans-Serif" font-size="10.00">ionocorr</text>
</a>
</g>
</g>
<!-- Node2 -->
<g id="Node000002" class="node">
<title>Node2</title>
<g id="a_Node000002"><a xlink:href="ephBroadcast_8cpp.html#ad506cac35e66f4336a1e14217d7c60e5" target="_top" xlink:title=" ">
<path fill="#fff0f0" stroke="red" d="M174.67,-56C174.67,-56 98.33,-56 98.33,-56 95.17,-56 92,-52.83 92,-49.67 92,-49.67 92,-43.33 92,-43.33 92,-40.17 95.17,-37 98.33,-37 98.33,-37 174.67,-37 174.67,-37 177.83,-37 181,-40.17 181,-43.33 181,-43.33 181,-49.67 181,-49.67 181,-52.83 177.83,-56 174.67,-56"/>
<text text-anchor="middle" x="136.5" y="-44" font-family="Helvetica,sans-Serif" font-size="10.00">seleph&lt; ION &gt;</text>
</a>
</g>
</g>
<!-- Node1&#45;&gt;Node2 -->
<g id="edge1_Node000001_Node000002" class="edge">
<title>Node1&#45;&gt;Node2</title>
<g id="a_edge1_Node000001_Node000002"><a xlink:title=" ">
<path fill="none" stroke="#63b8ff" d="M56.15,-32.34C64.03,-33.75 72.92,-35.34 81.83,-36.93"/>
<polygon fill="#63b8ff" stroke="#63b8ff" points="81.39,-40.4 91.85,-38.71 82.62,-33.51 81.39,-40.4"/>
</a>
</g>
</g>
<!-- Node5 -->
<g id="Node000005" class="node">
<title>Node5</title>
<g id="a_Node000005"><a xlink:href="ionModels_8cpp.html#a57191b4303a5b58e1a21fe08ab32538c" target="_top" xlink:title=" ">
<path fill="#fff0f0" stroke="red" d="M161.17,-19C161.17,-19 111.83,-19 111.83,-19 108.67,-19 105.5,-15.83 105.5,-12.67 105.5,-12.67 105.5,-6.33 105.5,-6.33 105.5,-3.17 108.67,0 111.83,0 111.83,0 161.17,0 161.17,0 164.33,0 167.5,-3.17 167.5,-6.33 167.5,-6.33 167.5,-12.67 167.5,-12.67 167.5,-15.83 164.33,-19 161.17,-19"/>
<text text-anchor="middle" x="136.5" y="-7" font-family="Helvetica,sans-Serif" font-size="10.00">ionmodel</text>
</a>
</g>
</g>
<!-- Node1&#45;&gt;Node5 -->
<g id="edge2_Node000001_Node000005" class="edge">
<title>Node1&#45;&gt;Node5</title>
<g id="a_edge2_Node000001_Node000005"><a xlink:title=" ">
<path fill="none" stroke="#63b8ff" d="M56.15,-22.91C68.02,-20.91 82.18,-18.51 95.23,-16.31"/>
<polygon fill="#63b8ff" stroke="#63b8ff" points="96.12,-19.71 105.4,-14.59 94.95,-12.8 96.12,-19.71"/>
</a>
</g>
</g>
</g>
</svg>
