<?xml version="1.0" encoding="UTF-8" standalone="no"?>
<!DOCTYPE svg PUBLIC "-//W3C//DTD SVG 1.1//EN"
 "http://www.w3.org/Graphics/SVG/1.1/DTD/svg11.dtd">
<!-- Generated by graphviz version 2.43.0 (0)
 -->
<!-- Title: raim Pages: 1 -->
<svg width="148pt" height="64pt"
 viewBox="0.00 0.00 148.00 64.00" xmlns="http://www.w3.org/2000/svg" xmlns:xlink="http://www.w3.org/1999/xlink">
<g id="graph0" class="graph" transform="scale(1 1) rotate(0) translate(4 60)">
<title>raim</title>
<!-- Node1 -->
<g id="Node000001" class="node">
<title>Node1</title>
<g id="a_Node000001"><a xlink:href="spp_8cpp.html#a87085475333bfd2adac21e4d53e07d4d" target="_top" xlink:title="Receiver autonomous integrity monitoring (RAIM) failure detection and exclution.">
<path fill="#fff0f0" stroke="red" stroke-width="2" d="M32.67,-19C32.67,-19 6.33,-19 6.33,-19 3.17,-19 0,-15.83 0,-12.67 0,-12.67 0,-6.33 0,-6.33 0,-3.17 3.17,0 6.33,0 6.33,0 32.67,0 32.67,0 35.83,0 39,-3.17 39,-6.33 39,-6.33 39,-12.67 39,-12.67 39,-15.83 35.83,-19 32.67,-19"/>
<text text-anchor="middle" x="19.5" y="-7" font-family="Helvetica,sans-Serif" font-size="10.00">raim</text>
</a>
</g>
</g>
<!-- Node2 -->
<g id="Node000002" class="node">
<title>Node2</title>
<g id="a_Node000002"><a xlink:href="spp_8cpp.html#ad923112e4e6dfdfc8b050b68851fe1d0" target="_top" xlink:title="Estimate receiver position and biases using code measurements.">
<path fill="#fff0f0" stroke="red" d="M125.67,-56C125.67,-56 89.33,-56 89.33,-56 86.17,-56 83,-52.83 83,-49.67 83,-49.67 83,-43.33 83,-43.33 83,-40.17 86.17,-37 89.33,-37 89.33,-37 125.67,-37 125.67,-37 128.83,-37 132,-40.17 132,-43.33 132,-43.33 132,-49.67 132,-49.67 132,-52.83 128.83,-56 125.67,-56"/>
<text text-anchor="middle" x="107.5" y="-44" font-family="Helvetica,sans-Serif" font-size="10.00">estpos</text>
</a>
</g>
</g>
<!-- Node1&#45;&gt;Node2 -->
<g id="edge1_Node000001_Node000002" class="edge">
<title>Node1&#45;&gt;Node2</title>
<g id="a_edge1_Node000001_Node000002"><a xlink:title=" ">
<path fill="none" stroke="#63b8ff" d="M39.16,-17.53C49.61,-22.02 62.91,-27.75 74.93,-32.92"/>
<polygon fill="#63b8ff" stroke="#63b8ff" points="73.65,-36.18 84.22,-36.91 76.41,-29.75 73.65,-36.18"/>
</a>
</g>
</g>
<!-- Node28 -->
<g id="Node000028" class="node">
<title>Node28</title>
<g id="a_Node000028"><a xlink:href="structSatSys.html#aec6d07b90d1e8172b8b6a6966abef4fd" target="_top" xlink:title="Returns a std::string of this satellite&#39;s id.">
<path fill="#fff0f0" stroke="red" d="M133.67,-19C133.67,-19 81.33,-19 81.33,-19 78.17,-19 75,-15.83 75,-12.67 75,-12.67 75,-6.33 75,-6.33 75,-3.17 78.17,0 81.33,0 81.33,0 133.67,0 133.67,0 136.83,0 140,-3.17 140,-6.33 140,-6.33 140,-12.67 140,-12.67 140,-15.83 136.83,-19 133.67,-19"/>
<text text-anchor="middle" x="107.5" y="-7" font-family="Helvetica,sans-Serif" font-size="10.00">SatSys::id</text>
</a>
</g>
</g>
<!-- Node1&#45;&gt;Node28 -->
<g id="edge2_Node000001_Node000028" class="edge">
<title>Node1&#45;&gt;Node28</title>
<g id="a_edge2_Node000001_Node000028"><a xlink:title=" ">
<path fill="none" stroke="#63b8ff" d="M39.16,-3.82C46.7,-3.07 55.72,-2.72 64.68,-2.75"/>
<polygon fill="#63b8ff" stroke="#63b8ff" points="64.61,-6.25 74.68,-2.96 64.75,0.75 64.61,-6.25"/>
</a>
</g>
</g>
<!-- Node1&#45;&gt;Node28 -->
<g id="edge3_Node000001_Node000028" class="edge">
<title>Node1&#45;&gt;Node28</title>
<g id="a_edge3_Node000001_Node000028"><a xlink:title=" ">
<path fill="none" stroke="#63b8ff" d="M39.16,-15.18C46.7,-15.93 55.72,-16.28 64.68,-16.25"/>
<polygon fill="#63b8ff" stroke="#63b8ff" points="64.75,-19.75 74.68,-16.04 64.61,-12.75 64.75,-19.75"/>
</a>
</g>
</g>
</g>
</svg>
