<?xml version="1.0" encoding="UTF-8" standalone="no"?>
<!DOCTYPE svg PUBLIC "-//W3C//DTD SVG 1.1//EN"
 "http://www.w3.org/Graphics/SVG/1.1/DTD/svg11.dtd">
<!-- Generated by graphviz version 2.43.0 (0)
 -->
<!-- Title: RtcmTrace::traceSsrHRClk Pages: 1 -->
<svg width="285pt" height="101pt"
 viewBox="0.00 0.00 285.00 101.00" xmlns="http://www.w3.org/2000/svg" xmlns:xlink="http://www.w3.org/1999/xlink">
<g id="graph0" class="graph" transform="scale(1 1) rotate(0) translate(4 97)">
<title>RtcmTrace::traceSsrHRClk</title>
<!-- Node1 -->
<g id="Node000001" class="node">
<title>Node1</title>
<g id="a_Node000001"><a xlink:href="structRtcmTrace.html#a72cc456a169363422bbdb71c4f12ab4f" target="_top" xlink:title=" ">
<path fill="#fff0f0" stroke="red" stroke-width="2" d="M136.67,-56C136.67,-56 6.33,-56 6.33,-56 3.17,-56 0,-52.83 0,-49.67 0,-49.67 0,-43.33 0,-43.33 0,-40.17 3.17,-37 6.33,-37 6.33,-37 136.67,-37 136.67,-37 139.83,-37 143,-40.17 143,-43.33 143,-43.33 143,-49.67 143,-49.67 143,-52.83 139.83,-56 136.67,-56"/>
<text text-anchor="middle" x="71.5" y="-44" font-family="Helvetica,sans-Serif" font-size="10.00">RtcmTrace::traceSsrHRClk</text>
</a>
</g>
</g>
<!-- Node2 -->
<g id="Node000002" class="node">
<title>Node2</title>
<g id="a_Node000002"><a xlink:href="gTime_8cpp.html#abc73cf336f9fa1b3622c933d5925e073" target="_top" xlink:title=" ">
<path fill="#fff0f0" stroke="red" d="M249.67,-93C249.67,-93 206.33,-93 206.33,-93 203.17,-93 200,-89.83 200,-86.67 200,-86.67 200,-80.33 200,-80.33 200,-77.17 203.17,-74 206.33,-74 206.33,-74 249.67,-74 249.67,-74 252.83,-74 256,-77.17 256,-80.33 256,-80.33 256,-86.67 256,-86.67 256,-89.83 252.83,-93 249.67,-93"/>
<text text-anchor="middle" x="228" y="-81" font-family="Helvetica,sans-Serif" font-size="10.00">timeGet</text>
</a>
</g>
</g>
<!-- Node1&#45;&gt;Node2 -->
<g id="edge1_Node000001_Node000002" class="edge">
<title>Node1&#45;&gt;Node2</title>
<g id="a_edge1_Node000001_Node000002"><a xlink:title=" ">
<path fill="none" stroke="#63b8ff" d="M112.29,-56.03C136.28,-61.77 166.62,-69.04 190.08,-74.66"/>
<polygon fill="#63b8ff" stroke="#63b8ff" points="189.45,-78.11 199.99,-77.03 191.08,-71.3 189.45,-78.11"/>
</a>
</g>
</g>
<!-- Node3 -->
<g id="Node000003" class="node">
<title>Node3</title>
<g id="a_Node000003"><a xlink:href="structGTime.html#a98fdbaaec5a132a7e694f28b4f1907cb" target="_top" xlink:title=" ">
<path fill="#fff0f0" stroke="red" d="M270.67,-56C270.67,-56 185.33,-56 185.33,-56 182.17,-56 179,-52.83 179,-49.67 179,-49.67 179,-43.33 179,-43.33 179,-40.17 182.17,-37 185.33,-37 185.33,-37 270.67,-37 270.67,-37 273.83,-37 277,-40.17 277,-43.33 277,-43.33 277,-49.67 277,-49.67 277,-52.83 273.83,-56 270.67,-56"/>
<text text-anchor="middle" x="228" y="-44" font-family="Helvetica,sans-Serif" font-size="10.00">GTime::to_string</text>
</a>
</g>
</g>
<!-- Node1&#45;&gt;Node3 -->
<g id="edge2_Node000001_Node000003" class="edge">
<title>Node1&#45;&gt;Node3</title>
<g id="a_edge2_Node000001_Node000003"><a xlink:title=" ">
<path fill="none" stroke="#63b8ff" d="M143.42,-39.77C151.79,-39.72 160.25,-39.77 168.42,-39.93"/>
<polygon fill="#63b8ff" stroke="#63b8ff" points="168.5,-43.43 178.58,-40.19 168.67,-36.43 168.5,-43.43"/>
</a>
</g>
</g>
<!-- Node1&#45;&gt;Node3 -->
<g id="edge3_Node000001_Node000003" class="edge">
<title>Node1&#45;&gt;Node3</title>
<g id="a_edge3_Node000001_Node000003"><a xlink:title=" ">
<path fill="none" stroke="#63b8ff" d="M143.42,-53.23C151.79,-53.28 160.25,-53.23 168.42,-53.07"/>
<polygon fill="#63b8ff" stroke="#63b8ff" points="168.67,-56.57 178.58,-52.81 168.5,-49.57 168.67,-56.57"/>
</a>
</g>
</g>
<!-- Node4 -->
<g id="Node000004" class="node">
<title>Node4</title>
<g id="a_Node000004"><a xlink:href="structSatSys.html#aec6d07b90d1e8172b8b6a6966abef4fd" target="_top" xlink:title="Returns a std::string of this satellite&#39;s id.">
<path fill="#fff0f0" stroke="red" d="M254.17,-19C254.17,-19 201.83,-19 201.83,-19 198.67,-19 195.5,-15.83 195.5,-12.67 195.5,-12.67 195.5,-6.33 195.5,-6.33 195.5,-3.17 198.67,0 201.83,0 201.83,0 254.17,0 254.17,0 257.33,0 260.5,-3.17 260.5,-6.33 260.5,-6.33 260.5,-12.67 260.5,-12.67 260.5,-15.83 257.33,-19 254.17,-19"/>
<text text-anchor="middle" x="228" y="-7" font-family="Helvetica,sans-Serif" font-size="10.00">SatSys::id</text>
</a>
</g>
</g>
<!-- Node1&#45;&gt;Node4 -->
<g id="edge4_Node000001_Node000004" class="edge">
<title>Node1&#45;&gt;Node4</title>
<g id="a_edge4_Node000001_Node000004"><a xlink:title=" ">
<path fill="none" stroke="#63b8ff" d="M112.29,-36.97C134.62,-31.62 162.46,-24.96 185.12,-19.53"/>
<polygon fill="#63b8ff" stroke="#63b8ff" points="186.22,-22.87 195.13,-17.13 184.59,-16.06 186.22,-22.87"/>
</a>
</g>
</g>
</g>
</svg>
