<?xml version="1.0" encoding="UTF-8" standalone="no"?>
<!DOCTYPE svg PUBLIC "-//W3C//DTD SVG 1.1//EN"
 "http://www.w3.org/Graphics/SVG/1.1/DTD/svg11.dtd">
<!-- Generated by graphviz version 2.43.0 (0)
 -->
<!-- Title: InteractiveTerminal::drawMenus Pages: 1 -->
<svg width="413pt" height="107pt"
 viewBox="0.00 0.00 413.00 107.00" xmlns="http://www.w3.org/2000/svg" xmlns:xlink="http://www.w3.org/1999/xlink">
<g id="graph0" class="graph" transform="scale(1 1) rotate(0) translate(4 103)">
<title>InteractiveTerminal::drawMenus</title>
<!-- Node1 -->
<g id="Node000001" class="node">
<title>Node1</title>
<g id="a_Node000001"><a xlink:href="structInteractiveTerminal.html#a378d8feb06a2859e0379e31ad64b8d00" target="_top" xlink:title=" ">
<path fill="#fff0f0" stroke="red" stroke-width="2" d="M395,-78C395,-78 304,-78 304,-78 299,-78 294,-73 294,-68 294,-68 294,-58 294,-58 294,-53 299,-48 304,-48 304,-48 395,-48 395,-48 400,-48 405,-53 405,-58 405,-58 405,-68 405,-68 405,-73 400,-78 395,-78"/>
<text text-anchor="start" x="302" y="-66" font-family="Helvetica,sans-Serif" font-size="10.00">InteractiveTerminal</text>
<text text-anchor="middle" x="349.5" y="-55" font-family="Helvetica,sans-Serif" font-size="10.00">::drawMenus</text>
</a>
</g>
</g>
<!-- Node2 -->
<g id="Node000002" class="node">
<title>Node2</title>
<g id="a_Node000002"><a xlink:href="structInteractiveTerminal.html#aa4d56fa8b2ff55eed67139e196fe0a62" target="_top" xlink:title=" ">
<path fill="#fff0f0" stroke="red" d="M101,-99C101,-99 10,-99 10,-99 5,-99 0,-94 0,-89 0,-89 0,-79 0,-79 0,-74 5,-69 10,-69 10,-69 101,-69 101,-69 106,-69 111,-74 111,-79 111,-79 111,-89 111,-89 111,-94 106,-99 101,-99"/>
<text text-anchor="start" x="8" y="-87" font-family="Helvetica,sans-Serif" font-size="10.00">InteractiveTerminal</text>
<text text-anchor="middle" x="55.5" y="-76" font-family="Helvetica,sans-Serif" font-size="10.00">::enable</text>
</a>
</g>
</g>
<!-- Node1&#45;&gt;Node2 -->
<g id="edge1_Node000001_Node000002" class="edge">
<title>Node1&#45;&gt;Node2</title>
<g id="a_edge1_Node000001_Node000002"><a xlink:title=" ">
<path fill="none" stroke="#63b8ff" d="M291.19,-80.58C280.27,-83.25 268.86,-85.58 258,-87 208.56,-93.44 151.73,-91.78 111.05,-89.05"/>
<polygon fill="#63b8ff" stroke="#63b8ff" points="292.24,-83.93 301.06,-78.05 290.5,-77.15 292.24,-83.93"/>
</a>
</g>
</g>
<!-- Node6 -->
<g id="Node000006" class="node">
<title>Node6</title>
<g id="a_Node000006"><a xlink:href="structInteractiveTerminal.html#a5e1d392a4ef1e649558cf0b9d9978a40" target="_top" xlink:title=" ">
<path fill="#fff0f0" stroke="red" d="M248,-78C248,-78 157,-78 157,-78 152,-78 147,-73 147,-68 147,-68 147,-58 147,-58 147,-53 152,-48 157,-48 157,-48 248,-48 248,-48 253,-48 258,-53 258,-58 258,-58 258,-68 258,-68 258,-73 253,-78 248,-78"/>
<text text-anchor="start" x="155" y="-66" font-family="Helvetica,sans-Serif" font-size="10.00">InteractiveTerminal</text>
<text text-anchor="middle" x="202.5" y="-55" font-family="Helvetica,sans-Serif" font-size="10.00">::keyboardHandler</text>
</a>
</g>
</g>
<!-- Node1&#45;&gt;Node6 -->
<g id="edge2_Node000001_Node000006" class="edge">
<title>Node1&#45;&gt;Node6</title>
<g id="a_edge2_Node000001_Node000006"><a xlink:title=" ">
<path fill="none" stroke="#63b8ff" d="M283.54,-63C275.14,-63 266.61,-63 258.4,-63"/>
<polygon fill="#63b8ff" stroke="#63b8ff" points="283.68,-66.5 293.68,-63 283.68,-59.5 283.68,-66.5"/>
</a>
</g>
</g>
<!-- Node7 -->
<g id="Node000007" class="node">
<title>Node7</title>
<g id="a_Node000007"><a xlink:href="structInteractiveTerminal.html#a1673a1bc7c18472e291aa3b1ed1bb1b7" target="_top" xlink:title=" ">
<path fill="#fff0f0" stroke="red" d="M248,-30C248,-30 157,-30 157,-30 152,-30 147,-25 147,-20 147,-20 147,-10 147,-10 147,-5 152,0 157,0 157,0 248,0 248,0 253,0 258,-5 258,-10 258,-10 258,-20 258,-20 258,-25 253,-30 248,-30"/>
<text text-anchor="start" x="155" y="-18" font-family="Helvetica,sans-Serif" font-size="10.00">InteractiveTerminal</text>
<text text-anchor="middle" x="202.5" y="-7" font-family="Helvetica,sans-Serif" font-size="10.00">::setMode</text>
</a>
</g>
</g>
<!-- Node1&#45;&gt;Node7 -->
<g id="edge4_Node000001_Node000007" class="edge">
<title>Node1&#45;&gt;Node7</title>
<g id="a_edge4_Node000001_Node000007"><a xlink:title=" ">
<path fill="none" stroke="#63b8ff" d="M293.5,-44.79C278.75,-39.91 262.98,-34.69 248.82,-30"/>
<polygon fill="#63b8ff" stroke="#63b8ff" points="292.43,-48.12 303.02,-47.94 294.63,-41.48 292.43,-48.12"/>
</a>
</g>
</g>
<!-- Node6&#45;&gt;Node2 -->
<g id="edge3_Node000006_Node000002" class="edge">
<title>Node6&#45;&gt;Node2</title>
<g id="a_edge3_Node000006_Node000002"><a xlink:title=" ">
<path fill="none" stroke="#63b8ff" d="M136.54,-72.41C128.14,-73.62 119.61,-74.86 111.4,-76.05"/>
<polygon fill="#63b8ff" stroke="#63b8ff" points="137.29,-75.84 146.68,-70.94 136.28,-68.91 137.29,-75.84"/>
</a>
</g>
</g>
</g>
</svg>
