<?xml version="1.0" encoding="UTF-8" standalone="no"?>
<!DOCTYPE svg PUBLIC "-//W3C//DTD SVG 1.1//EN"
 "http://www.w3.org/Graphics/SVG/1.1/DTD/svg11.dtd">
<!-- Generated by graphviz version 2.43.0 (0)
 -->
<!-- Title: SinexSolApriori Pages: 1 -->
<svg width="202pt" height="472pt"
 viewBox="0.00 0.00 202.00 472.00" xmlns="http://www.w3.org/2000/svg" xmlns:xlink="http://www.w3.org/1999/xlink">
<g id="graph0" class="graph" transform="scale(1 1) rotate(0) translate(4 468)">
<title>SinexSolApriori</title>
<!-- Node1 -->
<g id="Node000001" class="node">
<title>Node1</title>
<g id="a_Node000001"><a xlink:href="structSinexSolApriori.html" target="_top" xlink:title=" ">
<path fill="white" stroke="#666666" stroke-width="2" d="M114.5,-102C114.5,-102 37.5,-102 37.5,-102 31.5,-102 25.5,-96 25.5,-90 25.5,-90 25.5,-12 25.5,-12 25.5,-6 31.5,0 37.5,0 37.5,0 114.5,0 114.5,0 120.5,0 126.5,-6 126.5,-12 126.5,-12 126.5,-90 126.5,-90 126.5,-96 120.5,-102 114.5,-102"/>
<text text-anchor="start" x="39" y="-86" font-family="Helvetica,sans-Serif" font-size="10.00">SinexSolApriori</text>
<text text-anchor="start" x="41.5" y="-71" font-family="Helvetica,sans-Serif" font-size="10.00">+</text>
<text text-anchor="start" x="58" y="-71" font-family="Helvetica,sans-Serif" font-size="10.00">idx</text>
<text text-anchor="start" x="41.5" y="-56" font-family="Helvetica,sans-Serif" font-size="10.00">+</text>
<text text-anchor="start" x="58" y="-56" font-family="Helvetica,sans-Serif" font-size="10.00">constraint</text>
<text text-anchor="start" x="41.5" y="-41" font-family="Helvetica,sans-Serif" font-size="10.00">+</text>
<text text-anchor="start" x="58" y="-41" font-family="Helvetica,sans-Serif" font-size="10.00">param</text>
<text text-anchor="start" x="41.5" y="-26" font-family="Helvetica,sans-Serif" font-size="10.00">+</text>
<text text-anchor="start" x="58" y="-26" font-family="Helvetica,sans-Serif" font-size="10.00">stddev</text>
<text text-anchor="start" x="74.5" y="-11" font-family="Helvetica,sans-Serif" font-size="10.00"> </text>
<polygon fill="#666666" stroke="#666666" points="34,-81 34,-81 119,-81 119,-81 34,-81"/>
<polygon fill="#666666" stroke="#666666" points="34,-21 34,-21 56,-21 56,-21 34,-21"/>
<polygon fill="#666666" stroke="#666666" points="56,-21 56,-21 119,-21 119,-21 56,-21"/>
<polygon fill="none" stroke="#666666" points="33.5,-4 33.5,-98 118.5,-98 118.5,-4 33.5,-4"/>
</a>
</g>
</g>
<!-- Node2 -->
<g id="Node000002" class="node">
<title>Node2</title>
<g id="a_Node000002"><a xlink:title=" ">
<path fill="white" stroke="#666666" d="M42,-310C42,-310 12,-310 12,-310 6,-310 0,-304 0,-298 0,-298 0,-265 0,-265 0,-259 6,-253 12,-253 12,-253 42,-253 42,-253 48,-253 54,-259 54,-265 54,-265 54,-298 54,-298 54,-304 48,-310 42,-310"/>
<text text-anchor="start" x="13" y="-293.5" font-family="Helvetica,sans-Serif" font-size="10.00">string</text>
<text text-anchor="start" x="25" y="-278.5" font-family="Helvetica,sans-Serif" font-size="10.00"> </text>
<text text-anchor="start" x="25" y="-263.5" font-family="Helvetica,sans-Serif" font-size="10.00"> </text>
<polygon fill="#666666" stroke="#666666" points="8,-288.5 8,-288.5 46,-288.5 46,-288.5 8,-288.5"/>
<polygon fill="#666666" stroke="#666666" points="8,-273.5 8,-273.5 46,-273.5 46,-273.5 8,-273.5"/>
<polygon fill="none" stroke="#666666" points="8,-257 8,-306 46,-306 46,-257 8,-257"/>
</a>
</g>
</g>
<!-- Node2&#45;&gt;Node1 -->
<g id="edge1_Node000001_Node000002" class="edge">
<title>Node2&#45;&gt;Node1</title>
<g id="a_edge1_Node000001_Node000002"><a xlink:title=" ">
<path fill="none" stroke="#63b8ff" d="M24.05,-252.81C21.52,-220.24 20.18,-164.92 34,-120 34.69,-117.76 35.47,-115.52 36.33,-113.29"/>
<polygon fill="none" stroke="#63b8ff" points="36.34,-113.25 35.1,-106.15 41.18,-102.27 42.42,-109.38 36.34,-113.25"/>
</a>
</g>
<text text-anchor="middle" x="69" y="-167" font-family="Helvetica,sans-Serif" font-size="10.00" fill="grey"> +param_type</text>
<text text-anchor="middle" x="69" y="-156" font-family="Helvetica,sans-Serif" font-size="10.00" fill="grey">+ptcode</text>
<text text-anchor="middle" x="69" y="-145" font-family="Helvetica,sans-Serif" font-size="10.00" fill="grey">+sitecode</text>
<text text-anchor="middle" x="69" y="-134" font-family="Helvetica,sans-Serif" font-size="10.00" fill="grey">+solnnum</text>
<text text-anchor="middle" x="69" y="-123" font-family="Helvetica,sans-Serif" font-size="10.00" fill="grey">+unit</text>
</g>
<!-- Node3 -->
<g id="Node000003" class="node">
<title>Node3</title>
<g id="a_Node000003"><a xlink:href="structUYds.html" target="_top" xlink:title=" ">
<path fill="white" stroke="#666666" d="M182,-370C182,-370 84,-370 84,-370 78,-370 72,-364 72,-358 72,-358 72,-205 72,-205 72,-199 78,-193 84,-193 84,-193 182,-193 182,-193 188,-193 194,-199 194,-205 194,-205 194,-358 194,-358 194,-364 188,-370 182,-370"/>
<text text-anchor="start" x="120.5" y="-353.5" font-family="Helvetica,sans-Serif" font-size="10.00">UYds</text>
<text text-anchor="start" x="84" y="-338.5" font-family="Helvetica,sans-Serif" font-size="10.00">+</text>
<text text-anchor="start" x="97" y="-338.5" font-family="Helvetica,sans-Serif" font-size="10.00">year</text>
<text text-anchor="start" x="84" y="-323.5" font-family="Helvetica,sans-Serif" font-size="10.00">+</text>
<text text-anchor="start" x="97" y="-323.5" font-family="Helvetica,sans-Serif" font-size="10.00">doy</text>
<text text-anchor="start" x="84" y="-308.5" font-family="Helvetica,sans-Serif" font-size="10.00">+</text>
<text text-anchor="start" x="97" y="-308.5" font-family="Helvetica,sans-Serif" font-size="10.00">sod</text>
<text text-anchor="start" x="84" y="-293.5" font-family="Helvetica,sans-Serif" font-size="10.00">+</text>
<text text-anchor="start" x="97" y="-293.5" font-family="Helvetica,sans-Serif" font-size="10.00">UYds()</text>
<text text-anchor="start" x="84" y="-278.5" font-family="Helvetica,sans-Serif" font-size="10.00">+</text>
<text text-anchor="start" x="97" y="-278.5" font-family="Helvetica,sans-Serif" font-size="10.00">UYds()</text>
<text text-anchor="start" x="84" y="-263.5" font-family="Helvetica,sans-Serif" font-size="10.00">+</text>
<text text-anchor="start" x="97" y="-263.5" font-family="Helvetica,sans-Serif" font-size="10.00">operator=()</text>
<text text-anchor="start" x="84" y="-248.5" font-family="Helvetica,sans-Serif" font-size="10.00">+</text>
<text text-anchor="start" x="97" y="-248.5" font-family="Helvetica,sans-Serif" font-size="10.00">UYds()</text>
<text text-anchor="start" x="84" y="-233.5" font-family="Helvetica,sans-Serif" font-size="10.00">+</text>
<text text-anchor="start" x="97" y="-233.5" font-family="Helvetica,sans-Serif" font-size="10.00">operator+=()</text>
<text text-anchor="start" x="84" y="-218.5" font-family="Helvetica,sans-Serif" font-size="10.00">+</text>
<text text-anchor="start" x="97" y="-218.5" font-family="Helvetica,sans-Serif" font-size="10.00">operator=()</text>
<text text-anchor="start" x="84" y="-203.5" font-family="Helvetica,sans-Serif" font-size="10.00">+</text>
<text text-anchor="start" x="97" y="-203.5" font-family="Helvetica,sans-Serif" font-size="10.00">operator GTime()</text>
<polygon fill="#666666" stroke="#666666" points="80,-348.5 80,-348.5 186,-348.5 186,-348.5 80,-348.5"/>
<polygon fill="#666666" stroke="#666666" points="80,-303.5 80,-303.5 95,-303.5 95,-303.5 80,-303.5"/>
<polygon fill="#666666" stroke="#666666" points="95,-303.5 95,-303.5 186,-303.5 186,-303.5 95,-303.5"/>
<polygon fill="none" stroke="#666666" points="80,-197 80,-366 186,-366 186,-197 80,-197"/>
</a>
</g>
</g>
<!-- Node3&#45;&gt;Node1 -->
<g id="edge2_Node000001_Node000003" class="edge">
<title>Node3&#45;&gt;Node1</title>
<g id="a_edge2_Node000001_Node000003"><a xlink:title=" ">
<path fill="none" stroke="#63b8ff" d="M120.59,-192.67C116.29,-168.85 110.8,-143.24 104,-120 103.38,-117.89 102.72,-115.75 102.02,-113.6"/>
<polygon fill="none" stroke="#63b8ff" points="101.96,-113.41 96.2,-109.06 98.01,-102.08 103.76,-106.43 101.96,-113.41"/>
</a>
</g>
<text text-anchor="middle" x="136.5" y="-145" font-family="Helvetica,sans-Serif" font-size="10.00" fill="grey"> +epoch</text>
</g>
<!-- Node4 -->
<g id="Node000004" class="node">
<title>Node4</title>
<g id="a_Node000004"><a xlink:title=" ">
<path fill="white" stroke="#666666" d="M181,-464C181,-464 85,-464 85,-464 79,-464 73,-458 73,-452 73,-452 73,-419 73,-419 73,-413 79,-407 85,-407 85,-407 181,-407 181,-407 187,-407 193,-413 193,-419 193,-419 193,-452 193,-452 193,-458 187,-464 181,-464"/>
<text text-anchor="start" x="86" y="-447.5" font-family="Helvetica,sans-Serif" font-size="10.00">array&lt; double, 3 &gt;</text>
<text text-anchor="start" x="131" y="-432.5" font-family="Helvetica,sans-Serif" font-size="10.00"> </text>
<text text-anchor="start" x="131" y="-417.5" font-family="Helvetica,sans-Serif" font-size="10.00"> </text>
<polygon fill="#666666" stroke="#666666" points="81,-442.5 81,-442.5 185,-442.5 185,-442.5 81,-442.5"/>
<polygon fill="#666666" stroke="#666666" points="81,-427.5 81,-427.5 185,-427.5 185,-427.5 81,-427.5"/>
<polygon fill="none" stroke="#666666" points="81,-411 81,-460 185,-460 185,-411 81,-411"/>
</a>
</g>
</g>
<!-- Node4&#45;&gt;Node3 -->
<g id="edge3_Node000003_Node000004" class="edge">
<title>Node4&#45;&gt;Node3</title>
<g id="a_edge3_Node000003_Node000004"><a xlink:title=" ">
<path fill="none" stroke="#63b8ff" d="M133,-396.91C133,-388.58 133,-379.42 133,-370.01"/>
<polygon fill="none" stroke="#63b8ff" points="129.5,-396.97 133,-406.97 136.5,-396.97 129.5,-396.97"/>
</a>
</g>
</g>
</g>
</svg>
