<?xml version="1.0" encoding="UTF-8" standalone="no"?>
<!DOCTYPE svg PUBLIC "-//W3C//DTD SVG 1.1//EN"
 "http://www.w3.org/Graphics/SVG/1.1/DTD/svg11.dtd">
<!-- Generated by graphviz version 2.43.0 (0)
 -->
<!-- Title: Base64::encode Pages: 1 -->
<svg width="102pt" height="45pt"
 viewBox="0.00 0.00 102.00 45.00" xmlns="http://www.w3.org/2000/svg" xmlns:xlink="http://www.w3.org/1999/xlink">
<g id="graph0" class="graph" transform="scale(1 1) rotate(0) translate(4 41)">
<title>Base64::encode</title>
<!-- Node1 -->
<g id="Node000001" class="node">
<title>Node1</title>
<g id="a_Node000001"><a xlink:href="structBase64.html#a3e8d4028aff313b0a28f4c65a808f43e" target="_top" xlink:title=" ">
<path fill="#fff0f0" stroke="red" stroke-width="2" d="M87.67,-19C87.67,-19 6.33,-19 6.33,-19 3.17,-19 0,-15.83 0,-12.67 0,-12.67 0,-6.33 0,-6.33 0,-3.17 3.17,0 6.33,0 6.33,0 87.67,0 87.67,0 90.83,0 94,-3.17 94,-6.33 94,-6.33 94,-12.67 94,-12.67 94,-15.83 90.83,-19 87.67,-19"/>
<text text-anchor="middle" x="47" y="-7" font-family="Helvetica,sans-Serif" font-size="10.00">Base64::encode</text>
</a>
</g>
</g>
<!-- Node1&#45;&gt;Node1 -->
<g id="edge1_Node000001_Node000001" class="edge">
<title>Node1&#45;&gt;Node1</title>
<g id="a_edge1_Node000001_Node000001"><a xlink:title=" ">
<path fill="none" stroke="#63b8ff" d="M32.51,-19.08C25.46,-27.73 30.29,-37 47,-37 57.18,-37 62.95,-33.56 64.31,-28.91"/>
<polygon fill="#63b8ff" stroke="#63b8ff" points="67.61,-27.73 61.49,-19.08 60.88,-29.66 67.61,-27.73"/>
</a>
</g>
</g>
</g>
</svg>
