<?xml version="1.0" encoding="UTF-8" standalone="no"?>
<!DOCTYPE svg PUBLIC "-//W3C//DTD SVG 1.1//EN"
 "http://www.w3.org/Graphics/SVG/1.1/DTD/svg11.dtd">
<!-- Generated by graphviz version 2.43.0 (0)
 -->
<!-- Title: GTime::GTime Pages: 1 -->
<svg width="209pt" height="27pt"
 viewBox="0.00 0.00 209.00 27.00" xmlns="http://www.w3.org/2000/svg" xmlns:xlink="http://www.w3.org/1999/xlink">
<g id="graph0" class="graph" transform="scale(1 1) rotate(0) translate(4 23)">
<title>GTime::GTime</title>
<!-- Node1 -->
<g id="Node000001" class="node">
<title>Node1</title>
<g id="a_Node000001"><a xlink:href="structGTime.html#a9c3afec890ece4e0c1e56a8f66091736" target="_top" xlink:title=" ">
<path fill="#fff0f0" stroke="red" stroke-width="2" d="M80.67,-19C80.67,-19 6.33,-19 6.33,-19 3.17,-19 0,-15.83 0,-12.67 0,-12.67 0,-6.33 0,-6.33 0,-3.17 3.17,0 6.33,0 6.33,0 80.67,0 80.67,0 83.83,0 87,-3.17 87,-6.33 87,-6.33 87,-12.67 87,-12.67 87,-15.83 83.83,-19 80.67,-19"/>
<text text-anchor="middle" x="43.5" y="-7" font-family="Helvetica,sans-Serif" font-size="10.00">GTime::GTime</text>
</a>
</g>
</g>
<!-- Node2 -->
<g id="Node000002" class="node">
<title>Node2</title>
<g id="a_Node000002"><a xlink:href="gTime_8cpp.html#a001b94b278b88e03ac91aa9736c31f65" target="_top" xlink:title="Use a time of modulus and recent time to calculate the new time.">
<path fill="#fff0f0" stroke="red" d="M194.67,-19C194.67,-19 129.33,-19 129.33,-19 126.17,-19 123,-15.83 123,-12.67 123,-12.67 123,-6.33 123,-6.33 123,-3.17 126.17,0 129.33,0 129.33,0 194.67,0 194.67,0 197.83,0 201,-3.17 201,-6.33 201,-6.33 201,-12.67 201,-12.67 201,-15.83 197.83,-19 194.67,-19"/>
<text text-anchor="middle" x="162" y="-7" font-family="Helvetica,sans-Serif" font-size="10.00">nearestTime</text>
</a>
</g>
</g>
<!-- Node1&#45;&gt;Node2 -->
<g id="edge1_Node000001_Node000002" class="edge">
<title>Node1&#45;&gt;Node2</title>
<g id="a_edge1_Node000001_Node000002"><a xlink:title=" ">
<path fill="none" stroke="#63b8ff" d="M87.22,-9.5C95.53,-9.5 104.29,-9.5 112.77,-9.5"/>
<polygon fill="#63b8ff" stroke="#63b8ff" points="112.91,-13 122.91,-9.5 112.91,-6 112.91,-13"/>
</a>
</g>
</g>
</g>
</svg>
