<?xml version="1.0" encoding="UTF-8" standalone="no"?>
<!DOCTYPE svg PUBLIC "-//W3C//DTD SVG 1.1//EN"
 "http://www.w3.org/Graphics/SVG/1.1/DTD/svg11.dtd">
<!-- Generated by graphviz version 2.43.0 (0)
 -->
<!-- Title: RtcmEncoder::encodeWriteMessageToBuffer Pages: 1 -->
<svg width="369pt" height="94pt"
 viewBox="0.00 0.00 369.00 93.50" xmlns="http://www.w3.org/2000/svg" xmlns:xlink="http://www.w3.org/1999/xlink">
<g id="graph0" class="graph" transform="scale(1 1) rotate(0) translate(4 89.5)">
<title>RtcmEncoder::encodeWriteMessageToBuffer</title>
<!-- Node1 -->
<g id="Node000001" class="node">
<title>Node1</title>
<g id="a_Node000001"><a xlink:href="structRtcmEncoder.html#a714186471ab96d85b1fac9d1a18789a0" target="_top" xlink:title=" ">
<path fill="#fff0f0" stroke="red" stroke-width="2" d="M351,-45.5C351,-45.5 222,-45.5 222,-45.5 217,-45.5 212,-40.5 212,-35.5 212,-35.5 212,-25.5 212,-25.5 212,-20.5 217,-15.5 222,-15.5 222,-15.5 351,-15.5 351,-15.5 356,-15.5 361,-20.5 361,-25.5 361,-25.5 361,-35.5 361,-35.5 361,-40.5 356,-45.5 351,-45.5"/>
<text text-anchor="start" x="220" y="-33.5" font-family="Helvetica,sans-Serif" font-size="10.00">RtcmEncoder::encodeWrite</text>
<text text-anchor="middle" x="286.5" y="-22.5" font-family="Helvetica,sans-Serif" font-size="10.00">MessageToBuffer</text>
</a>
</g>
</g>
<!-- Node2 -->
<g id="Node000002" class="node">
<title>Node2</title>
<g id="a_Node000002"><a xlink:href="structNtripUploader.html#aed62670c2d0d02f1bb0d930f42e68609" target="_top" xlink:title=" ">
<path fill="#fff0f0" stroke="red" d="M166,-67.5C166,-67.5 10,-67.5 10,-67.5 5,-67.5 0,-62.5 0,-57.5 0,-57.5 0,-47.5 0,-47.5 0,-42.5 5,-37.5 10,-37.5 10,-37.5 166,-37.5 166,-37.5 171,-37.5 176,-42.5 176,-47.5 176,-47.5 176,-57.5 176,-57.5 176,-62.5 171,-67.5 166,-67.5"/>
<text text-anchor="start" x="8" y="-55.5" font-family="Helvetica,sans-Serif" font-size="10.00">NtripUploader::messageTimeout</text>
<text text-anchor="middle" x="88" y="-44.5" font-family="Helvetica,sans-Serif" font-size="10.00">Handler</text>
</a>
</g>
</g>
<!-- Node1&#45;&gt;Node2 -->
<g id="edge1_Node000001_Node000002" class="edge">
<title>Node1&#45;&gt;Node2</title>
<g id="a_edge1_Node000001_Node000002"><a xlink:title=" ">
<path fill="none" stroke="#63b8ff" d="M201.56,-39.9C193.12,-40.84 184.53,-41.8 176.05,-42.75"/>
<polygon fill="#63b8ff" stroke="#63b8ff" points="202.22,-43.35 211.77,-38.75 201.44,-36.39 202.22,-43.35"/>
</a>
</g>
</g>
<!-- Node5 -->
<g id="Node000005" class="node">
<title>Node5</title>
<g id="a_Node000005"><a xlink:href="structRtcmDecoder.html#a9dcc38e7fa87e8aef6ec17cc3626146a" target="_top" xlink:title=" ">
<path fill="#fff0f0" stroke="red" d="M156.67,-19C156.67,-19 19.33,-19 19.33,-19 16.17,-19 13,-15.83 13,-12.67 13,-12.67 13,-6.33 13,-6.33 13,-3.17 16.17,0 19.33,0 19.33,0 156.67,0 156.67,0 159.83,0 163,-3.17 163,-6.33 163,-6.33 163,-12.67 163,-12.67 163,-15.83 159.83,-19 156.67,-19"/>
<text text-anchor="middle" x="88" y="-7" font-family="Helvetica,sans-Serif" font-size="10.00">RtcmDecoder::recordFrame</text>
</a>
</g>
</g>
<!-- Node1&#45;&gt;Node5 -->
<g id="edge3_Node000001_Node000005" class="edge">
<title>Node1&#45;&gt;Node5</title>
<g id="a_edge3_Node000001_Node000005"><a xlink:title=" ">
<path fill="none" stroke="#63b8ff" d="M201.6,-21.53C188.82,-20.17 175.7,-18.77 163.14,-17.42"/>
<polygon fill="#63b8ff" stroke="#63b8ff" points="201.46,-25.04 211.77,-22.62 202.2,-18.08 201.46,-25.04"/>
</a>
</g>
</g>
<!-- Node2&#45;&gt;Node2 -->
<g id="edge2_Node000002_Node000002" class="edge">
<title>Node2&#45;&gt;Node2</title>
<g id="a_edge2_Node000002_Node000002"><a xlink:title=" ">
<path fill="none" stroke="#63b8ff" d="M122.66,-78.1C117.92,-82.47 106.37,-85.5 88,-85.5 57.06,-85.5 45.46,-76.91 53.2,-67.78"/>
<polygon fill="#63b8ff" stroke="#63b8ff" points="126.16,-77.82 122.8,-67.78 119.16,-77.72 126.16,-77.82"/>
</a>
</g>
</g>
</g>
</svg>
