<?xml version="1.0" encoding="UTF-8" standalone="no"?>
<!DOCTYPE svg PUBLIC "-//W3C//DTD SVG 1.1//EN"
 "http://www.w3.org/Graphics/SVG/1.1/DTD/svg11.dtd">
<!-- Generated by graphviz version 2.43.0 (0)
 -->
<!-- Title: Base64::encode Pages: 1 -->
<svg width="297pt" height="64pt"
 viewBox="0.00 0.00 297.00 64.00" xmlns="http://www.w3.org/2000/svg" xmlns:xlink="http://www.w3.org/1999/xlink">
<g id="graph0" class="graph" transform="scale(1 1) rotate(0) translate(4 60)">
<title>Base64::encode</title>
<!-- Node1 -->
<g id="Node000001" class="node">
<title>Node1</title>
<g id="a_Node000001"><a xlink:href="structBase64.html#a3e8d4028aff313b0a28f4c65a808f43e" target="_top" xlink:title=" ">
<path fill="#fff0f0" stroke="red" stroke-width="2" d="M282.67,-37C282.67,-37 201.33,-37 201.33,-37 198.17,-37 195,-33.83 195,-30.67 195,-30.67 195,-24.33 195,-24.33 195,-21.17 198.17,-18 201.33,-18 201.33,-18 282.67,-18 282.67,-18 285.83,-18 289,-21.17 289,-24.33 289,-24.33 289,-30.67 289,-30.67 289,-33.83 285.83,-37 282.67,-37"/>
<text text-anchor="middle" x="242" y="-25" font-family="Helvetica,sans-Serif" font-size="10.00">Base64::encode</text>
</a>
</g>
</g>
<!-- Node1&#45;&gt;Node1 -->
<g id="edge1_Node000001_Node000001" class="edge">
<title>Node1&#45;&gt;Node1</title>
<g id="a_edge1_Node000001_Node000001"><a xlink:title=" ">
<path fill="none" stroke="#63b8ff" d="M272.24,-45.82C270.98,-51.01 260.9,-55 242,-55 213.21,-55 204.88,-45.73 217.03,-37.08"/>
<polygon fill="#63b8ff" stroke="#63b8ff" points="275.13,-43.84 266.97,-37.08 269.14,-47.45 275.13,-43.84"/>
</a>
</g>
</g>
<!-- Node2 -->
<g id="Node000002" class="node">
<title>Node2</title>
<g id="a_Node000002"><a xlink:href="structNtripStream.html#aeb821b2c4050cc16c7ece01651d51724" target="_top" xlink:title=" ">
<path fill="#fff0f0" stroke="red" d="M143.67,-56C143.67,-56 15.33,-56 15.33,-56 12.17,-56 9,-52.83 9,-49.67 9,-49.67 9,-43.33 9,-43.33 9,-40.17 12.17,-37 15.33,-37 15.33,-37 143.67,-37 143.67,-37 146.83,-37 150,-40.17 150,-43.33 150,-43.33 150,-49.67 150,-49.67 150,-52.83 146.83,-56 143.67,-56"/>
<text text-anchor="middle" x="79.5" y="-44" font-family="Helvetica,sans-Serif" font-size="10.00">NtripStream::NtripStream</text>
</a>
</g>
</g>
<!-- Node1&#45;&gt;Node2 -->
<g id="edge2_Node000001_Node000002" class="edge">
<title>Node1&#45;&gt;Node2</title>
<g id="a_edge2_Node000001_Node000002"><a xlink:title=" ">
<path fill="none" stroke="#63b8ff" d="M184.57,-34.18C173.43,-35.5 161.62,-36.9 150.11,-38.26"/>
<polygon fill="#63b8ff" stroke="#63b8ff" points="185.06,-37.65 194.58,-33 184.23,-30.7 185.06,-37.65"/>
</a>
</g>
</g>
<!-- Node3 -->
<g id="Node000003" class="node">
<title>Node3</title>
<g id="a_Node000003"><a xlink:href="structNtripUploader.html#a7053ed49ff175076bf8db14933fc3f12" target="_top" xlink:title=" ">
<path fill="#fff0f0" stroke="red" d="M152.67,-19C152.67,-19 6.33,-19 6.33,-19 3.17,-19 0,-15.83 0,-12.67 0,-12.67 0,-6.33 0,-6.33 0,-3.17 3.17,0 6.33,0 6.33,0 152.67,0 152.67,0 155.83,0 159,-3.17 159,-6.33 159,-6.33 159,-12.67 159,-12.67 159,-15.83 155.83,-19 152.67,-19"/>
<text text-anchor="middle" x="79.5" y="-7" font-family="Helvetica,sans-Serif" font-size="10.00">NtripUploader::NtripUploader</text>
</a>
</g>
</g>
<!-- Node1&#45;&gt;Node3 -->
<g id="edge3_Node000001_Node000003" class="edge">
<title>Node1&#45;&gt;Node3</title>
<g id="a_edge3_Node000001_Node000003"><a xlink:title=" ">
<path fill="none" stroke="#63b8ff" d="M184.43,-21.16C176.25,-20.24 167.7,-19.28 159.18,-18.32"/>
<polygon fill="#63b8ff" stroke="#63b8ff" points="184.25,-24.66 194.58,-22.29 185.03,-17.7 184.25,-24.66"/>
</a>
</g>
</g>
</g>
</svg>
