<?xml version="1.0" encoding="UTF-8" standalone="no"?>
<!DOCTYPE svg PUBLIC "-//W3C//DTD SVG 1.1//EN"
 "http://www.w3.org/Graphics/SVG/1.1/DTD/svg11.dtd">
<!-- Generated by graphviz version 2.43.0 (0)
 -->
<!-- Title: CustomDecoder::decodeRAWX Pages: 1 -->
<svg width="275pt" height="27pt"
 viewBox="0.00 0.00 275.00 27.00" xmlns="http://www.w3.org/2000/svg" xmlns:xlink="http://www.w3.org/1999/xlink">
<g id="graph0" class="graph" transform="scale(1 1) rotate(0) translate(4 23)">
<title>CustomDecoder::decodeRAWX</title>
<!-- Node1 -->
<g id="Node000001" class="node">
<title>Node1</title>
<g id="a_Node000001"><a xlink:href="structCustomDecoder.html#af16f5c6fc4982458d28bcadce8132f71" target="_top" xlink:title=" ">
<path fill="#fff0f0" stroke="red" stroke-width="2" d="M158.67,-19C158.67,-19 6.33,-19 6.33,-19 3.17,-19 0,-15.83 0,-12.67 0,-12.67 0,-6.33 0,-6.33 0,-3.17 3.17,0 6.33,0 6.33,0 158.67,0 158.67,0 161.83,0 165,-3.17 165,-6.33 165,-6.33 165,-12.67 165,-12.67 165,-15.83 161.83,-19 158.67,-19"/>
<text text-anchor="middle" x="82.5" y="-7" font-family="Helvetica,sans-Serif" font-size="10.00">CustomDecoder::decodeRAWX</text>
</a>
</g>
</g>
<!-- Node2 -->
<g id="Node000002" class="node">
<title>Node2</title>
<g id="a_Node000002"><a xlink:href="gTime_8cpp.html#a6ab7d9a372acf84508cf00f0befd6095" target="_top" xlink:title=" ">
<path fill="#fff0f0" stroke="red" d="M260.67,-19C260.67,-19 207.33,-19 207.33,-19 204.17,-19 201,-15.83 201,-12.67 201,-12.67 201,-6.33 201,-6.33 201,-3.17 204.17,0 207.33,0 207.33,0 260.67,0 260.67,0 263.83,0 267,-3.17 267,-6.33 267,-6.33 267,-12.67 267,-12.67 267,-15.83 263.83,-19 260.67,-19"/>
<text text-anchor="middle" x="234" y="-7" font-family="Helvetica,sans-Serif" font-size="10.00">gpst2time</text>
</a>
</g>
</g>
<!-- Node1&#45;&gt;Node2 -->
<g id="edge1_Node000001_Node000002" class="edge">
<title>Node1&#45;&gt;Node2</title>
<g id="a_edge1_Node000001_Node000002"><a xlink:title=" ">
<path fill="none" stroke="#63b8ff" d="M165.25,-9.5C174.06,-9.5 182.75,-9.5 190.81,-9.5"/>
<polygon fill="#63b8ff" stroke="#63b8ff" points="191,-13 201,-9.5 191,-6 191,-13"/>
</a>
</g>
</g>
</g>
</svg>
