<?xml version="1.0" encoding="UTF-8" standalone="no"?>
<!DOCTYPE svg PUBLIC "-//W3C//DTD SVG 1.1//EN"
 "http://www.w3.org/Graphics/SVG/1.1/DTD/svg11.dtd">
<!-- Generated by graphviz version 2.43.0 (0)
 -->
<!-- Title: TcpSocket Pages: 1 -->
<svg width="995pt" height="1700pt"
 viewBox="0.00 0.00 995.00 1700.00" xmlns="http://www.w3.org/2000/svg" xmlns:xlink="http://www.w3.org/1999/xlink">
<g id="graph0" class="graph" transform="scale(1 1) rotate(0) translate(4 1696)">
<title>TcpSocket</title>
<!-- Node1 -->
<g id="Node000001" class="node">
<title>Node1</title>
<g id="a_Node000001"><a xlink:href="structTcpSocket.html" target="_top" xlink:title=" ">
<path fill="white" stroke="#666666" stroke-width="2" d="M766.5,-552C766.5,-552 623.5,-552 623.5,-552 617.5,-552 611.5,-546 611.5,-540 611.5,-540 611.5,-12 611.5,-12 611.5,-6 617.5,0 623.5,0 623.5,0 766.5,0 766.5,0 772.5,0 778.5,-6 778.5,-12 778.5,-12 778.5,-540 778.5,-540 778.5,-546 772.5,-552 766.5,-552"/>
<text text-anchor="start" x="671" y="-536" font-family="Helvetica,sans-Serif" font-size="10.00">TcpSocket</text>
<text text-anchor="start" x="624" y="-521" font-family="Helvetica,sans-Serif" font-size="10.00">+</text>
<text text-anchor="start" x="637" y="-521" font-family="Helvetica,sans-Serif" font-size="10.00">reconnectDelay</text>
<text text-anchor="start" x="624" y="-506" font-family="Helvetica,sans-Serif" font-size="10.00">+</text>
<text text-anchor="start" x="637" y="-506" font-family="Helvetica,sans-Serif" font-size="10.00">disconnectionCount</text>
<text text-anchor="start" x="624" y="-491" font-family="Helvetica,sans-Serif" font-size="10.00">+</text>
<text text-anchor="start" x="637" y="-491" font-family="Helvetica,sans-Serif" font-size="10.00">isConnected</text>
<text text-anchor="start" x="624" y="-476" font-family="Helvetica,sans-Serif" font-size="10.00">+</text>
<text text-anchor="start" x="637" y="-476" font-family="Helvetica,sans-Serif" font-size="10.00">numberErroredChunks</text>
<text text-anchor="start" x="624" y="-461" font-family="Helvetica,sans-Serif" font-size="10.00">+</text>
<text text-anchor="start" x="637" y="-461" font-family="Helvetica,sans-Serif" font-size="10.00">logHttpSentReceived</text>
<text text-anchor="start" x="624" y="-446" font-family="Helvetica,sans-Serif" font-size="10.00">+</text>
<text text-anchor="start" x="637" y="-446" font-family="Helvetica,sans-Serif" font-size="10.00">content_length</text>
<text text-anchor="start" x="624" y="-431" font-family="Helvetica,sans-Serif" font-size="10.00">+</text>
<text text-anchor="start" x="637" y="-431" font-family="Helvetica,sans-Serif" font-size="10.00">sslContext</text>
<text text-anchor="start" x="624" y="-416" font-family="Helvetica,sans-Serif" font-size="10.00">+</text>
<text text-anchor="start" x="637" y="-416" font-family="Helvetica,sans-Serif" font-size="10.00">ioService</text>
<text text-anchor="start" x="624" y="-401" font-family="Helvetica,sans-Serif" font-size="10.00">#</text>
<text text-anchor="start" x="637" y="-401" font-family="Helvetica,sans-Serif" font-size="10.00">_socket</text>
<text text-anchor="start" x="624" y="-386" font-family="Helvetica,sans-Serif" font-size="10.00">#</text>
<text text-anchor="start" x="637" y="-386" font-family="Helvetica,sans-Serif" font-size="10.00">socket_ptr</text>
<text text-anchor="start" x="624" y="-371" font-family="Helvetica,sans-Serif" font-size="10.00">#</text>
<text text-anchor="start" x="637" y="-371" font-family="Helvetica,sans-Serif" font-size="10.00">_sslsocket</text>
<text text-anchor="start" x="624" y="-356" font-family="Helvetica,sans-Serif" font-size="10.00">#</text>
<text text-anchor="start" x="637" y="-356" font-family="Helvetica,sans-Serif" font-size="10.00">_resolver</text>
<text text-anchor="start" x="624" y="-341" font-family="Helvetica,sans-Serif" font-size="10.00">#</text>
<text text-anchor="start" x="637" y="-341" font-family="Helvetica,sans-Serif" font-size="10.00">timer</text>
<text text-anchor="start" x="624" y="-326" font-family="Helvetica,sans-Serif" font-size="10.00">#</text>
<text text-anchor="start" x="637" y="-326" font-family="Helvetica,sans-Serif" font-size="10.00">request</text>
<text text-anchor="start" x="624" y="-311" font-family="Helvetica,sans-Serif" font-size="10.00">#</text>
<text text-anchor="start" x="637" y="-311" font-family="Helvetica,sans-Serif" font-size="10.00">downloadBuf</text>
<text text-anchor="start" x="624" y="-296" font-family="Helvetica,sans-Serif" font-size="10.00">+</text>
<text text-anchor="start" x="637" y="-296" font-family="Helvetica,sans-Serif" font-size="10.00">TcpSocket()</text>
<text text-anchor="start" x="624" y="-281" font-family="Helvetica,sans-Serif" font-size="10.00">+</text>
<text text-anchor="start" x="637" y="-281" font-family="Helvetica,sans-Serif" font-size="10.00">setUrl()</text>
<text text-anchor="start" x="624" y="-266" font-family="Helvetica,sans-Serif" font-size="10.00">+</text>
<text text-anchor="start" x="637" y="-266" font-family="Helvetica,sans-Serif" font-size="10.00">connect()</text>
<text text-anchor="start" x="624" y="-251" font-family="Helvetica,sans-Serif" font-size="10.00">+</text>
<text text-anchor="start" x="637" y="-251" font-family="Helvetica,sans-Serif" font-size="10.00">disconnect()</text>
<text text-anchor="start" x="624" y="-236" font-family="Helvetica,sans-Serif" font-size="10.00">+</text>
<text text-anchor="start" x="637" y="-236" font-family="Helvetica,sans-Serif" font-size="10.00">startRead()</text>
<text text-anchor="start" x="624" y="-221" font-family="Helvetica,sans-Serif" font-size="10.00">+</text>
<text text-anchor="start" x="637" y="-221" font-family="Helvetica,sans-Serif" font-size="10.00">timeoutHandler()</text>
<text text-anchor="start" x="624" y="-206" font-family="Helvetica,sans-Serif" font-size="10.00">+</text>
<text text-anchor="start" x="637" y="-206" font-family="Helvetica,sans-Serif" font-size="10.00">delayedReconnect()</text>
<text text-anchor="start" x="624" y="-191" font-family="Helvetica,sans-Serif" font-size="10.00">+</text>
<text text-anchor="start" x="637" y="-191" font-family="Helvetica,sans-Serif" font-size="10.00">connectHandler()</text>
<text text-anchor="start" x="624" y="-176" font-family="Helvetica,sans-Serif" font-size="10.00">+</text>
<text text-anchor="start" x="637" y="-176" font-family="Helvetica,sans-Serif" font-size="10.00">requestResponseHandler()</text>
<text text-anchor="start" x="624" y="-161" font-family="Helvetica,sans-Serif" font-size="10.00">+</text>
<text text-anchor="start" x="637" y="-161" font-family="Helvetica,sans-Serif" font-size="10.00">logChunkError()</text>
<text text-anchor="start" x="624" y="-146" font-family="Helvetica,sans-Serif" font-size="10.00">+</text>
<text text-anchor="start" x="637" y="-146" font-family="Helvetica,sans-Serif" font-size="10.00">dataChunkDownloaded()</text>
<text text-anchor="start" x="624" y="-131" font-family="Helvetica,sans-Serif" font-size="10.00">+</text>
<text text-anchor="start" x="637" y="-131" font-family="Helvetica,sans-Serif" font-size="10.00">readContentDownloaded()</text>
<text text-anchor="start" x="624" y="-116" font-family="Helvetica,sans-Serif" font-size="10.00">+</text>
<text text-anchor="start" x="637" y="-116" font-family="Helvetica,sans-Serif" font-size="10.00">connected()</text>
<text text-anchor="start" x="624" y="-101" font-family="Helvetica,sans-Serif" font-size="10.00">+</text>
<text text-anchor="start" x="637" y="-101" font-family="Helvetica,sans-Serif" font-size="10.00">messageChunkLog()</text>
<text text-anchor="start" x="624" y="-86" font-family="Helvetica,sans-Serif" font-size="10.00">+</text>
<text text-anchor="start" x="637" y="-86" font-family="Helvetica,sans-Serif" font-size="10.00">networkLog()</text>
<text text-anchor="start" x="624" y="-71" font-family="Helvetica,sans-Serif" font-size="10.00">+</text>
<text text-anchor="start" x="637" y="-71" font-family="Helvetica,sans-Serif" font-size="10.00">getData()</text>
<text text-anchor="start" x="624" y="-56" font-family="Helvetica,sans-Serif" font-size="10.00">+</text>
<text text-anchor="start" x="637" y="-56" font-family="Helvetica,sans-Serif" font-size="10.00">connectionError()</text>
<text text-anchor="start" x="624" y="-41" font-family="Helvetica,sans-Serif" font-size="10.00">+</text>
<text text-anchor="start" x="637" y="-41" font-family="Helvetica,sans-Serif" font-size="10.00">~TcpSocket()</text>
<text text-anchor="start" x="624" y="-26" font-family="Helvetica,sans-Serif" font-size="10.00">+</text>
<text text-anchor="start" x="637" y="-26" font-family="Helvetica,sans-Serif" font-size="10.00">runService()</text>
<text text-anchor="start" x="624" y="-11" font-family="Helvetica,sans-Serif" font-size="10.00">+</text>
<text text-anchor="start" x="637" y="-11" font-family="Helvetica,sans-Serif" font-size="10.00">startClients()</text>
<polygon fill="#666666" stroke="#666666" points="620,-531 620,-531 771,-531 771,-531 620,-531"/>
<polygon fill="#666666" stroke="#666666" points="620,-306 620,-306 635,-306 635,-306 620,-306"/>
<polygon fill="#666666" stroke="#666666" points="635,-306 635,-306 771,-306 771,-306 635,-306"/>
<polygon fill="none" stroke="#666666" points="619.5,-4 619.5,-548 770.5,-548 770.5,-4 619.5,-4"/>
</a>
</g>
</g>
<!-- Node2 -->
<g id="Node000002" class="node">
<title>Node2</title>
<g id="a_Node000002"><a xlink:href="structNetworkStatistics.html" target="_top" xlink:title=" ">
<path fill="white" stroke="#666666" d="M344,-967C344,-967 190,-967 190,-967 184,-967 178,-961 178,-955 178,-955 178,-802 178,-802 178,-796 184,-790 190,-790 190,-790 344,-790 344,-790 350,-790 356,-796 356,-802 356,-802 356,-955 356,-955 356,-961 350,-967 344,-967"/>
<text text-anchor="start" x="223.5" y="-950.5" font-family="Helvetica,sans-Serif" font-size="10.00">NetworkStatistics</text>
<text text-anchor="start" x="190" y="-935.5" font-family="Helvetica,sans-Serif" font-size="10.00">+</text>
<text text-anchor="start" x="203" y="-935.5" font-family="Helvetica,sans-Serif" font-size="10.00">connectCount</text>
<text text-anchor="start" x="190" y="-920.5" font-family="Helvetica,sans-Serif" font-size="10.00">+</text>
<text text-anchor="start" x="203" y="-920.5" font-family="Helvetica,sans-Serif" font-size="10.00">disconnectCount</text>
<text text-anchor="start" x="190" y="-905.5" font-family="Helvetica,sans-Serif" font-size="10.00">+</text>
<text text-anchor="start" x="203" y="-905.5" font-family="Helvetica,sans-Serif" font-size="10.00">chunksSent</text>
<text text-anchor="start" x="190" y="-890.5" font-family="Helvetica,sans-Serif" font-size="10.00">+</text>
<text text-anchor="start" x="203" y="-890.5" font-family="Helvetica,sans-Serif" font-size="10.00">chunksReceived</text>
<text text-anchor="start" x="190" y="-875.5" font-family="Helvetica,sans-Serif" font-size="10.00">+</text>
<text text-anchor="start" x="203" y="-875.5" font-family="Helvetica,sans-Serif" font-size="10.00">getNetworkStatistics()</text>
<text text-anchor="start" x="190" y="-860.5" font-family="Helvetica,sans-Serif" font-size="10.00">+</text>
<text text-anchor="start" x="203" y="-860.5" font-family="Helvetica,sans-Serif" font-size="10.00">onConnectedStatistics()</text>
<text text-anchor="start" x="190" y="-845.5" font-family="Helvetica,sans-Serif" font-size="10.00">+</text>
<text text-anchor="start" x="203" y="-845.5" font-family="Helvetica,sans-Serif" font-size="10.00">onDisconnectedStatistics()</text>
<text text-anchor="start" x="190" y="-830.5" font-family="Helvetica,sans-Serif" font-size="10.00">+</text>
<text text-anchor="start" x="203" y="-830.5" font-family="Helvetica,sans-Serif" font-size="10.00">onChunkSentStatistics()</text>
<text text-anchor="start" x="190" y="-815.5" font-family="Helvetica,sans-Serif" font-size="10.00">+</text>
<text text-anchor="start" x="203" y="-815.5" font-family="Helvetica,sans-Serif" font-size="10.00">onChunkReceivedStatistics()</text>
<text text-anchor="start" x="190" y="-800.5" font-family="Helvetica,sans-Serif" font-size="10.00">+</text>
<text text-anchor="start" x="203" y="-800.5" font-family="Helvetica,sans-Serif" font-size="10.00">onErrorStatistics()</text>
<polygon fill="#666666" stroke="#666666" points="186,-945.5 186,-945.5 348,-945.5 348,-945.5 186,-945.5"/>
<polygon fill="#666666" stroke="#666666" points="186,-885.5 186,-885.5 201,-885.5 201,-885.5 186,-885.5"/>
<polygon fill="#666666" stroke="#666666" points="201,-885.5 201,-885.5 348,-885.5 348,-885.5 201,-885.5"/>
<polygon fill="none" stroke="#666666" points="186,-794 186,-963 348,-963 348,-794 186,-794"/>
</a>
</g>
</g>
<!-- Node2&#45;&gt;Node1 -->
<g id="edge1_Node000001_Node000002" class="edge">
<title>Node2&#45;&gt;Node1</title>
<g id="a_edge1_Node000001_Node000002"><a xlink:title=" ">
<path fill="none" stroke="#63b8ff" d="M335.46,-781.45C410.49,-676.18 530.89,-507.25 611.44,-394.24"/>
<polygon fill="none" stroke="#63b8ff" points="332.42,-779.69 329.46,-789.86 338.12,-783.75 332.42,-779.69"/>
</a>
</g>
</g>
<!-- Node3 -->
<g id="Node000003" class="node">
<title>Node3</title>
<g id="a_Node000003"><a xlink:title=" ">
<path fill="white" stroke="#666666" d="M598,-1414.5C598,-1414.5 568,-1414.5 568,-1414.5 562,-1414.5 556,-1408.5 556,-1402.5 556,-1402.5 556,-1369.5 556,-1369.5 556,-1363.5 562,-1357.5 568,-1357.5 568,-1357.5 598,-1357.5 598,-1357.5 604,-1357.5 610,-1363.5 610,-1369.5 610,-1369.5 610,-1402.5 610,-1402.5 610,-1408.5 604,-1414.5 598,-1414.5"/>
<text text-anchor="start" x="569" y="-1398" font-family="Helvetica,sans-Serif" font-size="10.00">string</text>
<text text-anchor="start" x="581" y="-1383" font-family="Helvetica,sans-Serif" font-size="10.00"> </text>
<text text-anchor="start" x="581" y="-1368" font-family="Helvetica,sans-Serif" font-size="10.00"> </text>
<polygon fill="#666666" stroke="#666666" points="564,-1393 564,-1393 602,-1393 602,-1393 564,-1393"/>
<polygon fill="#666666" stroke="#666666" points="564,-1378 564,-1378 602,-1378 602,-1378 564,-1378"/>
<polygon fill="none" stroke="#666666" points="564,-1361.5 564,-1410.5 602,-1410.5 602,-1361.5 564,-1361.5"/>
</a>
</g>
</g>
<!-- Node3&#45;&gt;Node1 -->
<g id="edge10_Node000001_Node000003" class="edge">
<title>Node3&#45;&gt;Node1</title>
<g id="a_edge10_Node000001_Node000003"><a xlink:title=" ">
<path fill="none" stroke="#63b8ff" d="M598.74,-1357.25C654.33,-1255.98 835.73,-896.18 790,-589 787.64,-573.11 784.63,-556.92 781.15,-540.68"/>
<polygon fill="none" stroke="#63b8ff" points="781.12,-540.56 775.92,-535.57 778.54,-528.84 783.74,-533.84 781.12,-540.56"/>
</a>
</g>
<text text-anchor="middle" x="837.5" y="-764" font-family="Helvetica,sans-Serif" font-size="10.00" fill="grey"> #readUntilString</text>
<text text-anchor="middle" x="837.5" y="-753" font-family="Helvetica,sans-Serif" font-size="10.00" fill="grey">#requestString</text>
<text text-anchor="middle" x="837.5" y="-742" font-family="Helvetica,sans-Serif" font-size="10.00" fill="grey">#responseString</text>
</g>
<!-- Node3&#45;&gt;Node2 -->
<g id="edge2_Node000002_Node000003" class="edge">
<title>Node3&#45;&gt;Node2</title>
<g id="a_edge2_Node000002_Node000003"><a xlink:title=" ">
<path fill="none" stroke="#63b8ff" d="M561.35,-1357.19C519.49,-1302.63 425.95,-1176.88 362,-1062 343.8,-1029.31 344.94,-1018.35 328,-985 326.79,-982.62 325.56,-980.23 324.3,-977.82"/>
<polygon fill="none" stroke="#63b8ff" points="324.28,-977.78 317.93,-974.36 318.65,-967.18 325,-970.6 324.28,-977.78"/>
</a>
</g>
<text text-anchor="middle" x="423" y="-1026.5" font-family="Helvetica,sans-Serif" font-size="10.00" fill="grey"> +networkTraceFilename</text>
<text text-anchor="middle" x="423" y="-1015.5" font-family="Helvetica,sans-Serif" font-size="10.00" fill="grey">+streamName</text>
</g>
<!-- Node6 -->
<g id="Node000006" class="node">
<title>Node6</title>
<g id="a_Node000006"><a xlink:href="structSerialStream.html" target="_top" xlink:title=" ">
<path fill="white" stroke="#666666" d="M632,-721C632,-721 538,-721 538,-721 532,-721 526,-715 526,-709 526,-709 526,-601 526,-601 526,-595 532,-589 538,-589 538,-589 632,-589 632,-589 638,-589 644,-595 644,-601 644,-601 644,-709 644,-709 644,-715 638,-721 632,-721"/>
<text text-anchor="start" x="553" y="-705" font-family="Helvetica,sans-Serif" font-size="10.00">SerialStream</text>
<text text-anchor="start" x="538" y="-690" font-family="Helvetica,sans-Serif" font-size="10.00">+</text>
<text text-anchor="start" x="551" y="-690" font-family="Helvetica,sans-Serif" font-size="10.00">fileDescriptor</text>
<text text-anchor="start" x="538" y="-675" font-family="Helvetica,sans-Serif" font-size="10.00">+</text>
<text text-anchor="start" x="551" y="-675" font-family="Helvetica,sans-Serif" font-size="10.00">SerialStream()</text>
<text text-anchor="start" x="538" y="-660" font-family="Helvetica,sans-Serif" font-size="10.00">+</text>
<text text-anchor="start" x="551" y="-660" font-family="Helvetica,sans-Serif" font-size="10.00">SerialStream()</text>
<text text-anchor="start" x="538" y="-645" font-family="Helvetica,sans-Serif" font-size="10.00">+</text>
<text text-anchor="start" x="551" y="-645" font-family="Helvetica,sans-Serif" font-size="10.00">openStream()</text>
<text text-anchor="start" x="538" y="-630" font-family="Helvetica,sans-Serif" font-size="10.00">+</text>
<text text-anchor="start" x="551" y="-630" font-family="Helvetica,sans-Serif" font-size="10.00">getData()</text>
<text text-anchor="start" x="538" y="-615" font-family="Helvetica,sans-Serif" font-size="10.00">+</text>
<text text-anchor="start" x="551" y="-615" font-family="Helvetica,sans-Serif" font-size="10.00">getIStream_ptr()</text>
<text text-anchor="start" x="538" y="-600" font-family="Helvetica,sans-Serif" font-size="10.00">+</text>
<text text-anchor="start" x="551" y="-600" font-family="Helvetica,sans-Serif" font-size="10.00">~SerialStream()</text>
<polygon fill="#666666" stroke="#666666" points="534,-700 534,-700 636,-700 636,-700 534,-700"/>
<polygon fill="#666666" stroke="#666666" points="534,-685 534,-685 549,-685 549,-685 534,-685"/>
<polygon fill="#666666" stroke="#666666" points="549,-685 549,-685 636,-685 636,-685 549,-685"/>
<polygon fill="none" stroke="#666666" points="534,-593 534,-717 636,-717 636,-593 534,-593"/>
</a>
</g>
</g>
<!-- Node3&#45;&gt;Node6 -->
<g id="edge8_Node000006_Node000003" class="edge">
<title>Node3&#45;&gt;Node6</title>
<g id="a_edge8_Node000006_Node000003"><a xlink:title=" ">
<path fill="none" stroke="#63b8ff" d="M583.08,-1357.31C583.36,-1254.59 584.35,-893.02 584.79,-733.08"/>
<polygon fill="none" stroke="#63b8ff" points="584.79,-733 580.81,-726.99 584.82,-721 588.81,-727.01 584.79,-733"/>
</a>
</g>
<text text-anchor="middle" x="601" y="-876" font-family="Helvetica,sans-Serif" font-size="10.00" fill="grey"> +path</text>
</g>
<!-- Node7 -->
<g id="Node000007" class="node">
<title>Node7</title>
<g id="a_Node000007"><a xlink:href="structStream.html" target="_top" xlink:title=" ">
<path fill="white" stroke="#666666" d="M535,-922C535,-922 441,-922 441,-922 435,-922 429,-916 429,-910 429,-910 429,-847 429,-847 429,-841 435,-835 441,-835 441,-835 535,-835 535,-835 541,-835 547,-841 547,-847 547,-847 547,-910 547,-910 547,-916 541,-922 535,-922"/>
<text text-anchor="start" x="470" y="-905.5" font-family="Helvetica,sans-Serif" font-size="10.00">Stream</text>
<text text-anchor="start" x="486" y="-890.5" font-family="Helvetica,sans-Serif" font-size="10.00"> </text>
<text text-anchor="start" x="441" y="-875.5" font-family="Helvetica,sans-Serif" font-size="10.00">+</text>
<text text-anchor="start" x="454" y="-875.5" font-family="Helvetica,sans-Serif" font-size="10.00">getIStream_ptr()</text>
<text text-anchor="start" x="441" y="-860.5" font-family="Helvetica,sans-Serif" font-size="10.00">+</text>
<text text-anchor="start" x="454" y="-860.5" font-family="Helvetica,sans-Serif" font-size="10.00">isDead()</text>
<text text-anchor="start" x="441" y="-845.5" font-family="Helvetica,sans-Serif" font-size="10.00">+</text>
<text text-anchor="start" x="454" y="-845.5" font-family="Helvetica,sans-Serif" font-size="10.00">~Stream()</text>
<polygon fill="#666666" stroke="#666666" points="437,-900.5 437,-900.5 539,-900.5 539,-900.5 437,-900.5"/>
<polygon fill="#666666" stroke="#666666" points="437,-885.5 437,-885.5 539,-885.5 539,-885.5 437,-885.5"/>
<polygon fill="none" stroke="#666666" points="437,-839 437,-918 539,-918 539,-839 437,-839"/>
</a>
</g>
</g>
<!-- Node3&#45;&gt;Node7 -->
<g id="edge7_Node000007_Node000003" class="edge">
<title>Node3&#45;&gt;Node7</title>
<g id="a_edge7_Node000007_Node000003"><a xlink:title=" ">
<path fill="none" stroke="#63b8ff" d="M573.34,-1357.36C554.52,-1302.08 513.27,-1173.63 496,-1062 489.43,-1019.53 487.57,-970.88 487.28,-934.49"/>
<polygon fill="none" stroke="#63b8ff" points="487.28,-934.17 483.26,-928.18 487.24,-922.17 491.26,-928.15 487.28,-934.17"/>
</a>
</g>
<text text-anchor="middle" x="532.5" y="-1021" font-family="Helvetica,sans-Serif" font-size="10.00" fill="grey"> +sourceString</text>
</g>
<!-- Node10 -->
<g id="Node000010" class="node">
<title>Node10</title>
<g id="a_Node000010"><a xlink:href="structURL.html" target="_top" xlink:title=" ">
<path fill="white" stroke="#666666" d="M948.5,-922C948.5,-922 883.5,-922 883.5,-922 877.5,-922 871.5,-916 871.5,-910 871.5,-910 871.5,-847 871.5,-847 871.5,-841 877.5,-835 883.5,-835 883.5,-835 948.5,-835 948.5,-835 954.5,-835 960.5,-841 960.5,-847 960.5,-847 960.5,-910 960.5,-910 960.5,-916 954.5,-922 948.5,-922"/>
<text text-anchor="start" x="906.5" y="-905.5" font-family="Helvetica,sans-Serif" font-size="10.00">URL</text>
<text text-anchor="start" x="884" y="-890.5" font-family="Helvetica,sans-Serif" font-size="10.00">+</text>
<text text-anchor="start" x="897" y="-890.5" font-family="Helvetica,sans-Serif" font-size="10.00">port</text>
<text text-anchor="start" x="884" y="-875.5" font-family="Helvetica,sans-Serif" font-size="10.00">+</text>
<text text-anchor="start" x="897" y="-875.5" font-family="Helvetica,sans-Serif" font-size="10.00">URL()</text>
<text text-anchor="start" x="884" y="-860.5" font-family="Helvetica,sans-Serif" font-size="10.00">+</text>
<text text-anchor="start" x="897" y="-860.5" font-family="Helvetica,sans-Serif" font-size="10.00">URL()</text>
<text text-anchor="start" x="884" y="-845.5" font-family="Helvetica,sans-Serif" font-size="10.00">+</text>
<text text-anchor="start" x="897" y="-845.5" font-family="Helvetica,sans-Serif" font-size="10.00">sanitised()</text>
<polygon fill="#666666" stroke="#666666" points="880,-900.5 880,-900.5 953,-900.5 953,-900.5 880,-900.5"/>
<polygon fill="#666666" stroke="#666666" points="880,-885.5 880,-885.5 895,-885.5 895,-885.5 880,-885.5"/>
<polygon fill="#666666" stroke="#666666" points="895,-885.5 895,-885.5 953,-885.5 953,-885.5 895,-885.5"/>
<polygon fill="none" stroke="#666666" points="879.5,-839 879.5,-918 952.5,-918 952.5,-839 879.5,-839"/>
</a>
</g>
</g>
<!-- Node3&#45;&gt;Node10 -->
<g id="edge13_Node000010_Node000003" class="edge">
<title>Node3&#45;&gt;Node10</title>
<g id="a_edge13_Node000010_Node000003"><a xlink:title=" ">
<path fill="none" stroke="#63b8ff" d="M606.87,-1357.41C653.03,-1303.23 756.22,-1178.11 827,-1062 846.76,-1029.58 847.38,-1019.14 864,-985 872.2,-968.14 881.21,-949.81 889.39,-933.22"/>
<polygon fill="none" stroke="#63b8ff" points="889.59,-932.82 888.66,-925.67 894.9,-922.06 895.83,-929.21 889.59,-932.82"/>
</a>
</g>
<text text-anchor="middle" x="888.5" y="-1054" font-family="Helvetica,sans-Serif" font-size="10.00" fill="grey"> +host</text>
<text text-anchor="middle" x="888.5" y="-1043" font-family="Helvetica,sans-Serif" font-size="10.00" fill="grey">+pass</text>
<text text-anchor="middle" x="888.5" y="-1032" font-family="Helvetica,sans-Serif" font-size="10.00" fill="grey">+path</text>
<text text-anchor="middle" x="888.5" y="-1021" font-family="Helvetica,sans-Serif" font-size="10.00" fill="grey">+portStr</text>
<text text-anchor="middle" x="888.5" y="-1010" font-family="Helvetica,sans-Serif" font-size="10.00" fill="grey">+protocol</text>
<text text-anchor="middle" x="888.5" y="-999" font-family="Helvetica,sans-Serif" font-size="10.00" fill="grey">+url</text>
<text text-anchor="middle" x="888.5" y="-988" font-family="Helvetica,sans-Serif" font-size="10.00" fill="grey">+user</text>
</g>
<!-- Node4 -->
<g id="Node000004" class="node">
<title>Node4</title>
<g id="a_Node000004"><a xlink:href="structGTime.html" target="_top" xlink:title="Time structure used throughout this software.">
<path fill="white" stroke="#666666" d="M134,-1692C134,-1692 12,-1692 12,-1692 6,-1692 0,-1686 0,-1680 0,-1680 0,-1092 0,-1092 0,-1086 6,-1080 12,-1080 12,-1080 134,-1080 134,-1080 140,-1080 146,-1086 146,-1092 146,-1092 146,-1680 146,-1680 146,-1686 140,-1692 134,-1692"/>
<text text-anchor="start" x="56.5" y="-1676" font-family="Helvetica,sans-Serif" font-size="10.00">GTime</text>
<text text-anchor="start" x="12" y="-1661" font-family="Helvetica,sans-Serif" font-size="10.00">+</text>
<text text-anchor="start" x="25" y="-1661" font-family="Helvetica,sans-Serif" font-size="10.00">bigTime</text>
<text text-anchor="start" x="12" y="-1646" font-family="Helvetica,sans-Serif" font-size="10.00">+</text>
<text text-anchor="start" x="25" y="-1646" font-family="Helvetica,sans-Serif" font-size="10.00">GTime()</text>
<text text-anchor="start" x="12" y="-1631" font-family="Helvetica,sans-Serif" font-size="10.00">+</text>
<text text-anchor="start" x="25" y="-1631" font-family="Helvetica,sans-Serif" font-size="10.00">GTime()</text>
<text text-anchor="start" x="12" y="-1616" font-family="Helvetica,sans-Serif" font-size="10.00">+</text>
<text text-anchor="start" x="25" y="-1616" font-family="Helvetica,sans-Serif" font-size="10.00">GTime()</text>
<text text-anchor="start" x="12" y="-1601" font-family="Helvetica,sans-Serif" font-size="10.00">+</text>
<text text-anchor="start" x="25" y="-1601" font-family="Helvetica,sans-Serif" font-size="10.00">to_string()</text>
<text text-anchor="start" x="12" y="-1586" font-family="Helvetica,sans-Serif" font-size="10.00">+</text>
<text text-anchor="start" x="25" y="-1586" font-family="Helvetica,sans-Serif" font-size="10.00">operator==()</text>
<text text-anchor="start" x="12" y="-1571" font-family="Helvetica,sans-Serif" font-size="10.00">+</text>
<text text-anchor="start" x="25" y="-1571" font-family="Helvetica,sans-Serif" font-size="10.00">operator!=()</text>
<text text-anchor="start" x="12" y="-1556" font-family="Helvetica,sans-Serif" font-size="10.00">+</text>
<text text-anchor="start" x="25" y="-1556" font-family="Helvetica,sans-Serif" font-size="10.00">operator&lt;()</text>
<text text-anchor="start" x="12" y="-1541" font-family="Helvetica,sans-Serif" font-size="10.00">+</text>
<text text-anchor="start" x="25" y="-1541" font-family="Helvetica,sans-Serif" font-size="10.00">operator&gt;()</text>
<text text-anchor="start" x="12" y="-1526" font-family="Helvetica,sans-Serif" font-size="10.00">+</text>
<text text-anchor="start" x="25" y="-1526" font-family="Helvetica,sans-Serif" font-size="10.00">operator&gt;=()</text>
<text text-anchor="start" x="12" y="-1511" font-family="Helvetica,sans-Serif" font-size="10.00">+</text>
<text text-anchor="start" x="25" y="-1511" font-family="Helvetica,sans-Serif" font-size="10.00">operator+()</text>
<text text-anchor="start" x="12" y="-1496" font-family="Helvetica,sans-Serif" font-size="10.00">+</text>
<text text-anchor="start" x="25" y="-1496" font-family="Helvetica,sans-Serif" font-size="10.00">operator+()</text>
<text text-anchor="start" x="12" y="-1481" font-family="Helvetica,sans-Serif" font-size="10.00">+</text>
<text text-anchor="start" x="25" y="-1481" font-family="Helvetica,sans-Serif" font-size="10.00">operator+()</text>
<text text-anchor="start" x="12" y="-1466" font-family="Helvetica,sans-Serif" font-size="10.00">+</text>
<text text-anchor="start" x="25" y="-1466" font-family="Helvetica,sans-Serif" font-size="10.00">operator+=()</text>
<text text-anchor="start" x="12" y="-1451" font-family="Helvetica,sans-Serif" font-size="10.00">+</text>
<text text-anchor="start" x="25" y="-1451" font-family="Helvetica,sans-Serif" font-size="10.00">operator&#45;=()</text>
<text text-anchor="start" x="12" y="-1436" font-family="Helvetica,sans-Serif" font-size="10.00">+</text>
<text text-anchor="start" x="25" y="-1436" font-family="Helvetica,sans-Serif" font-size="10.00">operator&#45;()</text>
<text text-anchor="start" x="12" y="-1421" font-family="Helvetica,sans-Serif" font-size="10.00">+</text>
<text text-anchor="start" x="25" y="-1421" font-family="Helvetica,sans-Serif" font-size="10.00">operator&#45;()</text>
<text text-anchor="start" x="12" y="-1406" font-family="Helvetica,sans-Serif" font-size="10.00">+</text>
<text text-anchor="start" x="25" y="-1406" font-family="Helvetica,sans-Serif" font-size="10.00">operator&#45;()</text>
<text text-anchor="start" x="12" y="-1391" font-family="Helvetica,sans-Serif" font-size="10.00">+</text>
<text text-anchor="start" x="25" y="-1391" font-family="Helvetica,sans-Serif" font-size="10.00">operator++()</text>
<text text-anchor="start" x="12" y="-1376" font-family="Helvetica,sans-Serif" font-size="10.00">+</text>
<text text-anchor="start" x="25" y="-1376" font-family="Helvetica,sans-Serif" font-size="10.00">GTime()</text>
<text text-anchor="start" x="12" y="-1361" font-family="Helvetica,sans-Serif" font-size="10.00">+</text>
<text text-anchor="start" x="25" y="-1361" font-family="Helvetica,sans-Serif" font-size="10.00">GTime()</text>
<text text-anchor="start" x="12" y="-1346" font-family="Helvetica,sans-Serif" font-size="10.00">+</text>
<text text-anchor="start" x="25" y="-1346" font-family="Helvetica,sans-Serif" font-size="10.00">GTime()</text>
<text text-anchor="start" x="12" y="-1331" font-family="Helvetica,sans-Serif" font-size="10.00">+</text>
<text text-anchor="start" x="25" y="-1331" font-family="Helvetica,sans-Serif" font-size="10.00">GTime()</text>
<text text-anchor="start" x="12" y="-1316" font-family="Helvetica,sans-Serif" font-size="10.00">+</text>
<text text-anchor="start" x="25" y="-1316" font-family="Helvetica,sans-Serif" font-size="10.00">GTime()</text>
<text text-anchor="start" x="12" y="-1301" font-family="Helvetica,sans-Serif" font-size="10.00">+</text>
<text text-anchor="start" x="25" y="-1301" font-family="Helvetica,sans-Serif" font-size="10.00">serialize()</text>
<text text-anchor="start" x="12" y="-1286" font-family="Helvetica,sans-Serif" font-size="10.00">+</text>
<text text-anchor="start" x="25" y="-1286" font-family="Helvetica,sans-Serif" font-size="10.00">floorTime()</text>
<text text-anchor="start" x="12" y="-1271" font-family="Helvetica,sans-Serif" font-size="10.00">+</text>
<text text-anchor="start" x="25" y="-1271" font-family="Helvetica,sans-Serif" font-size="10.00">gregString()</text>
<text text-anchor="start" x="12" y="-1256" font-family="Helvetica,sans-Serif" font-size="10.00">+</text>
<text text-anchor="start" x="25" y="-1256" font-family="Helvetica,sans-Serif" font-size="10.00">operator long double()</text>
<text text-anchor="start" x="12" y="-1241" font-family="Helvetica,sans-Serif" font-size="10.00">+</text>
<text text-anchor="start" x="25" y="-1241" font-family="Helvetica,sans-Serif" font-size="10.00">operator MjDateTT()</text>
<text text-anchor="start" x="12" y="-1226" font-family="Helvetica,sans-Serif" font-size="10.00">+</text>
<text text-anchor="start" x="25" y="-1226" font-family="Helvetica,sans-Serif" font-size="10.00">operator GEpoch()</text>
<text text-anchor="start" x="12" y="-1211" font-family="Helvetica,sans-Serif" font-size="10.00">+</text>
<text text-anchor="start" x="25" y="-1211" font-family="Helvetica,sans-Serif" font-size="10.00">operator UtcTime()</text>
<text text-anchor="start" x="12" y="-1196" font-family="Helvetica,sans-Serif" font-size="10.00">+</text>
<text text-anchor="start" x="25" y="-1196" font-family="Helvetica,sans-Serif" font-size="10.00">operator GWeek()</text>
<text text-anchor="start" x="12" y="-1181" font-family="Helvetica,sans-Serif" font-size="10.00">+</text>
<text text-anchor="start" x="25" y="-1181" font-family="Helvetica,sans-Serif" font-size="10.00">operator BWeek()</text>
<text text-anchor="start" x="12" y="-1166" font-family="Helvetica,sans-Serif" font-size="10.00">+</text>
<text text-anchor="start" x="25" y="-1166" font-family="Helvetica,sans-Serif" font-size="10.00">operator GTow()</text>
<text text-anchor="start" x="12" y="-1151" font-family="Helvetica,sans-Serif" font-size="10.00">+</text>
<text text-anchor="start" x="25" y="-1151" font-family="Helvetica,sans-Serif" font-size="10.00">operator BTow()</text>
<text text-anchor="start" x="12" y="-1136" font-family="Helvetica,sans-Serif" font-size="10.00">+</text>
<text text-anchor="start" x="25" y="-1136" font-family="Helvetica,sans-Serif" font-size="10.00">operator PTime()</text>
<text text-anchor="start" x="12" y="-1121" font-family="Helvetica,sans-Serif" font-size="10.00">+</text>
<text text-anchor="start" x="25" y="-1121" font-family="Helvetica,sans-Serif" font-size="10.00">operator string()</text>
<text text-anchor="start" x="12" y="-1106" font-family="Helvetica,sans-Serif" font-size="10.00">+</text>
<text text-anchor="start" x="25" y="-1106" font-family="Helvetica,sans-Serif" font-size="10.00">operator RTod()</text>
<text text-anchor="start" x="12" y="-1091" font-family="Helvetica,sans-Serif" font-size="10.00">+</text>
<text text-anchor="start" x="25" y="-1091" font-family="Helvetica,sans-Serif" font-size="10.00">noTime()</text>
<polygon fill="#666666" stroke="#666666" points="8,-1671 8,-1671 138,-1671 138,-1671 8,-1671"/>
<polygon fill="#666666" stroke="#666666" points="8,-1656 8,-1656 23,-1656 23,-1656 8,-1656"/>
<polygon fill="#666666" stroke="#666666" points="23,-1656 23,-1656 138,-1656 138,-1656 23,-1656"/>
<polygon fill="none" stroke="#666666" points="8,-1084 8,-1688 138,-1688 138,-1084 8,-1084"/>
</a>
</g>
</g>
<!-- Node4&#45;&gt;Node2 -->
<g id="edge3_Node000002_Node000004" class="edge">
<title>Node4&#45;&gt;Node2</title>
<g id="a_edge3_Node000002_Node000004"><a xlink:title=" ">
<path fill="none" stroke="#63b8ff" d="M99.52,-1079.9C109.28,-1046.64 122.14,-1014.28 139,-985 146.9,-971.28 157.31,-958.58 168.79,-947.11"/>
<polygon fill="none" stroke="#63b8ff" points="169.07,-946.85 170.65,-939.82 177.76,-938.58 176.17,-945.61 169.07,-946.85"/>
</a>
</g>
<text text-anchor="middle" x="167" y="-1026.5" font-family="Helvetica,sans-Serif" font-size="10.00" fill="grey"> +endTime</text>
<text text-anchor="middle" x="167" y="-1015.5" font-family="Helvetica,sans-Serif" font-size="10.00" fill="grey">+startTime</text>
</g>
<!-- Node5 -->
<g id="Node000005" class="node">
<title>Node5</title>
<g id="a_Node000005"><a xlink:title=" ">
<path fill="white" stroke="#666666" d="M247.5,-1414.5C247.5,-1414.5 176.5,-1414.5 176.5,-1414.5 170.5,-1414.5 164.5,-1408.5 164.5,-1402.5 164.5,-1402.5 164.5,-1369.5 164.5,-1369.5 164.5,-1363.5 170.5,-1357.5 176.5,-1357.5 176.5,-1357.5 247.5,-1357.5 247.5,-1357.5 253.5,-1357.5 259.5,-1363.5 259.5,-1369.5 259.5,-1369.5 259.5,-1402.5 259.5,-1402.5 259.5,-1408.5 253.5,-1414.5 247.5,-1414.5"/>
<text text-anchor="start" x="178" y="-1398" font-family="Helvetica,sans-Serif" font-size="10.00">time_duration</text>
<text text-anchor="start" x="210.5" y="-1383" font-family="Helvetica,sans-Serif" font-size="10.00"> </text>
<text text-anchor="start" x="210.5" y="-1368" font-family="Helvetica,sans-Serif" font-size="10.00"> </text>
<polygon fill="#666666" stroke="#666666" points="173,-1393 173,-1393 252,-1393 252,-1393 173,-1393"/>
<polygon fill="#666666" stroke="#666666" points="173,-1378 173,-1378 252,-1378 252,-1378 173,-1378"/>
<polygon fill="none" stroke="#666666" points="172.5,-1361.5 172.5,-1410.5 251.5,-1410.5 251.5,-1361.5 172.5,-1361.5"/>
</a>
</g>
</g>
<!-- Node5&#45;&gt;Node2 -->
<g id="edge4_Node000002_Node000005" class="edge">
<title>Node5&#45;&gt;Node2</title>
<g id="a_edge4_Node000002_Node000005"><a xlink:title=" ">
<path fill="none" stroke="#63b8ff" d="M207.7,-1357.31C198.44,-1291.56 179.96,-1121.33 213,-985 213.49,-982.97 214.03,-980.94 214.61,-978.91"/>
<polygon fill="none" stroke="#63b8ff" points="214.68,-978.69 212.7,-971.76 218.34,-967.27 220.32,-974.2 214.68,-978.69"/>
</a>
</g>
<text text-anchor="middle" x="270.5" y="-1026.5" font-family="Helvetica,sans-Serif" font-size="10.00" fill="grey"> +connectedDuration</text>
<text text-anchor="middle" x="270.5" y="-1015.5" font-family="Helvetica,sans-Serif" font-size="10.00" fill="grey">+disconnectedDuration</text>
</g>
<!-- Node6&#45;&gt;Node1 -->
<g id="edge5_Node000001_Node000006" class="edge">
<title>Node6&#45;&gt;Node1</title>
<g id="a_edge5_Node000001_Node000006"><a xlink:title=" ">
<path fill="none" stroke="#63b8ff" d="M606.88,-579.01C609.36,-570.5 611.99,-561.5 614.72,-552.14"/>
<polygon fill="none" stroke="#63b8ff" points="603.48,-578.18 604.03,-588.76 610.2,-580.14 603.48,-578.18"/>
</a>
</g>
</g>
<!-- Node7&#45;&gt;Node6 -->
<g id="edge6_Node000006_Node000007" class="edge">
<title>Node7&#45;&gt;Node6</title>
<g id="a_edge6_Node000006_Node000007"><a xlink:title=" ">
<path fill="none" stroke="#63b8ff" d="M510.8,-825.43C524.44,-794.3 541.88,-754.48 556.42,-721.26"/>
<polygon fill="none" stroke="#63b8ff" points="507.51,-824.23 506.7,-834.79 513.92,-827.04 507.51,-824.23"/>
</a>
</g>
</g>
<!-- Node8 -->
<g id="Node000008" class="node">
<title>Node8</title>
<g id="a_Node000008"><a xlink:title=" ">
<path fill="#fff0f0" stroke="red" d="M730.5,-907C730.5,-907 653.5,-907 653.5,-907 647.5,-907 641.5,-901 641.5,-895 641.5,-895 641.5,-862 641.5,-862 641.5,-856 647.5,-850 653.5,-850 653.5,-850 730.5,-850 730.5,-850 736.5,-850 742.5,-856 742.5,-862 742.5,-862 742.5,-895 742.5,-895 742.5,-901 736.5,-907 730.5,-907"/>
<text text-anchor="start" x="655" y="-890.5" font-family="Helvetica,sans-Serif" font-size="10.00">vector&lt; char &gt;</text>
<text text-anchor="start" x="690.5" y="-875.5" font-family="Helvetica,sans-Serif" font-size="10.00"> </text>
<text text-anchor="start" x="690.5" y="-860.5" font-family="Helvetica,sans-Serif" font-size="10.00"> </text>
<polygon fill="red" stroke="red" points="650,-885.5 650,-885.5 735,-885.5 735,-885.5 650,-885.5"/>
<polygon fill="red" stroke="red" points="650,-870.5 650,-870.5 735,-870.5 735,-870.5 650,-870.5"/>
<polygon fill="none" stroke="red" points="649.5,-854 649.5,-903 734.5,-903 734.5,-854 649.5,-854"/>
</a>
</g>
</g>
<!-- Node8&#45;&gt;Node1 -->
<g id="edge11_Node000001_Node000008" class="edge">
<title>Node8&#45;&gt;Node1</title>
<g id="a_edge11_Node000001_Node000008"><a xlink:title=" ">
<path fill="none" stroke="#63b8ff" d="M692.14,-849.74C692.4,-797.55 692.99,-679.66 693.56,-564.31"/>
<polygon fill="none" stroke="#63b8ff" points="693.57,-564.07 689.6,-558.05 693.63,-552.07 697.6,-558.09 693.57,-564.07"/>
</a>
</g>
<text text-anchor="middle" x="739.5" y="-652.5" font-family="Helvetica,sans-Serif" font-size="10.00" fill="grey"> #receivedTcpData</text>
</g>
<!-- Node8&#45;&gt;Node6 -->
<g id="edge9_Node000006_Node000008" class="edge">
<title>Node8&#45;&gt;Node6</title>
<g id="a_edge9_Node000006_Node000008"><a xlink:title=" ">
<path fill="none" stroke="#63b8ff" d="M665.65,-849.66C647.99,-829.54 625.57,-800.93 612,-772 606.26,-759.77 601.69,-746.22 598.07,-732.83"/>
<polygon fill="none" stroke="#63b8ff" points="598.05,-732.77 592.71,-727.93 595.12,-721.13 600.47,-725.97 598.05,-732.77"/>
</a>
</g>
<text text-anchor="middle" x="650.5" y="-753" font-family="Helvetica,sans-Serif" font-size="10.00" fill="grey"> +receivedData</text>
</g>
<!-- Node10&#45;&gt;Node1 -->
<g id="edge12_Node000001_Node000010" class="edge">
<title>Node10&#45;&gt;Node1</title>
<g id="a_edge12_Node000001_Node000010"><a xlink:title=" ">
<path fill="none" stroke="#63b8ff" d="M915,-834.79C913.55,-807.11 910.1,-770.48 902,-739 875.34,-635.33 827.19,-525.74 784.04,-439.32"/>
<polygon fill="none" stroke="#63b8ff" points="783.92,-439.08 777.65,-435.51 778.53,-428.36 784.8,-431.92 783.92,-439.08"/>
</a>
</g>
<text text-anchor="middle" x="909.5" y="-652.5" font-family="Helvetica,sans-Serif" font-size="10.00" fill="grey"> +url</text>
</g>
<!-- Node11 -->
<g id="Node000011" class="node">
<title>Node11</title>
<g id="a_Node000011"><a xlink:title=" ">
<path fill="#fff0f0" stroke="red" d="M975,-1414.5C975,-1414.5 867,-1414.5 867,-1414.5 861,-1414.5 855,-1408.5 855,-1402.5 855,-1402.5 855,-1369.5 855,-1369.5 855,-1363.5 861,-1357.5 867,-1357.5 867,-1357.5 975,-1357.5 975,-1357.5 981,-1357.5 987,-1363.5 987,-1369.5 987,-1369.5 987,-1402.5 987,-1402.5 987,-1408.5 981,-1414.5 975,-1414.5"/>
<text text-anchor="start" x="868" y="-1398" font-family="Helvetica,sans-Serif" font-size="10.00">map&lt; string, string &gt;</text>
<text text-anchor="start" x="919" y="-1383" font-family="Helvetica,sans-Serif" font-size="10.00"> </text>
<text text-anchor="start" x="919" y="-1368" font-family="Helvetica,sans-Serif" font-size="10.00"> </text>
<polygon fill="red" stroke="red" points="863,-1393 863,-1393 979,-1393 979,-1393 863,-1393"/>
<polygon fill="red" stroke="red" points="863,-1378 863,-1378 979,-1378 979,-1378 863,-1378"/>
<polygon fill="none" stroke="red" points="863,-1361.5 863,-1410.5 979,-1410.5 979,-1361.5 863,-1361.5"/>
</a>
</g>
</g>
<!-- Node11&#45;&gt;Node10 -->
<g id="edge14_Node000010_Node000011" class="edge">
<title>Node11&#45;&gt;Node10</title>
<g id="a_edge14_Node000010_Node000011"><a xlink:title=" ">
<path fill="none" stroke="#63b8ff" d="M920.73,-1357.46C919.93,-1277.1 917.61,-1041.78 916.54,-934.25"/>
<polygon fill="none" stroke="#63b8ff" points="916.54,-934.09 912.48,-928.13 916.42,-922.09 920.48,-928.05 916.54,-934.09"/>
</a>
</g>
<text text-anchor="middle" x="941.5" y="-1021" font-family="Helvetica,sans-Serif" font-size="10.00" fill="grey"> +params</text>
</g>
</g>
</svg>
