<?xml version="1.0" encoding="UTF-8" standalone="no"?>
<!DOCTYPE svg PUBLIC "-//W3C//DTD SVG 1.1//EN"
 "http://www.w3.org/Graphics/SVG/1.1/DTD/svg11.dtd">
<!-- Generated by graphviz version 2.43.0 (0)
 -->
<!-- Title: InteractiveTerminal::clearPage Pages: 1 -->
<svg width="280pt" height="38pt"
 viewBox="0.00 0.00 280.00 38.00" xmlns="http://www.w3.org/2000/svg" xmlns:xlink="http://www.w3.org/1999/xlink">
<g id="graph0" class="graph" transform="scale(1 1) rotate(0) translate(4 34)">
<title>InteractiveTerminal::clearPage</title>
<!-- Node1 -->
<g id="Node000001" class="node">
<title>Node1</title>
<g id="a_Node000001"><a xlink:href="structInteractiveTerminal.html#a18ff6a2c6e3b8a5a0a546c494c9cfcff" target="_top" xlink:title=" ">
<path fill="#fff0f0" stroke="red" stroke-width="2" d="M262,-30C262,-30 171,-30 171,-30 166,-30 161,-25 161,-20 161,-20 161,-10 161,-10 161,-5 166,0 171,0 171,0 262,0 262,0 267,0 272,-5 272,-10 272,-10 272,-20 272,-20 272,-25 267,-30 262,-30"/>
<text text-anchor="start" x="169" y="-18" font-family="Helvetica,sans-Serif" font-size="10.00">InteractiveTerminal</text>
<text text-anchor="middle" x="216.5" y="-7" font-family="Helvetica,sans-Serif" font-size="10.00">::clearPage</text>
</a>
</g>
</g>
<!-- Node2 -->
<g id="Node000002" class="node">
<title>Node2</title>
<g id="a_Node000002"><a xlink:href="structInteractiveTerminal.html#ac29858ae43d8bc371a1eae77c5997b8f" target="_top" xlink:title=" ">
<path fill="#fff0f0" stroke="red" d="M115,-30C115,-30 10,-30 10,-30 5,-30 0,-25 0,-20 0,-20 0,-10 0,-10 0,-5 5,0 10,0 10,0 115,0 115,0 120,0 125,-5 125,-10 125,-10 125,-20 125,-20 125,-25 120,-30 115,-30"/>
<text text-anchor="start" x="8" y="-18" font-family="Helvetica,sans-Serif" font-size="10.00">InteractiveTerminal</text>
<text text-anchor="middle" x="62.5" y="-7" font-family="Helvetica,sans-Serif" font-size="10.00">::~InteractiveTerminal</text>
</a>
</g>
</g>
<!-- Node1&#45;&gt;Node2 -->
<g id="edge1_Node000001_Node000002" class="edge">
<title>Node1&#45;&gt;Node2</title>
<g id="a_edge1_Node000001_Node000002"><a xlink:title=" ">
<path fill="none" stroke="#63b8ff" d="M150.52,-15C142.14,-15 133.58,-15 125.26,-15"/>
<polygon fill="#63b8ff" stroke="#63b8ff" points="150.62,-18.5 160.62,-15 150.62,-11.5 150.62,-18.5"/>
</a>
</g>
</g>
</g>
</svg>
