<?xml version="1.0" encoding="UTF-8" standalone="no"?>
<!DOCTYPE svg PUBLIC "-//W3C//DTD SVG 1.1//EN"
 "http://www.w3.org/Graphics/SVG/1.1/DTD/svg11.dtd">
<!-- Generated by graphviz version 2.43.0 (0)
 -->
<!-- Title: XmlCloser Pages: 1 -->
<svg width="112pt" height="199pt"
 viewBox="0.00 0.00 112.00 199.00" xmlns="http://www.w3.org/2000/svg" xmlns:xlink="http://www.w3.org/1999/xlink">
<g id="graph0" class="graph" transform="scale(1 1) rotate(0) translate(4 195)">
<title>XmlCloser</title>
<!-- Node1 -->
<g id="Node000001" class="node">
<title>Node1</title>
<g id="a_Node000001"><a xlink:href="structXmlCloser.html" target="_top" xlink:title=" ">
<path fill="white" stroke="#666666" stroke-width="2" d="M92,-87C92,-87 12,-87 12,-87 6,-87 0,-81 0,-75 0,-75 0,-12 0,-12 0,-6 6,0 12,0 12,0 92,0 92,0 98,0 104,-6 104,-12 104,-12 104,-75 104,-75 104,-81 98,-87 92,-87"/>
<text text-anchor="start" x="26.5" y="-70.5" font-family="Helvetica,sans-Serif" font-size="10.00">XmlCloser</text>
<text text-anchor="start" x="12" y="-55.5" font-family="Helvetica,sans-Serif" font-size="10.00">+</text>
<text text-anchor="start" x="25" y="-55.5" font-family="Helvetica,sans-Serif" font-size="10.00">trace</text>
<text text-anchor="start" x="12" y="-40.5" font-family="Helvetica,sans-Serif" font-size="10.00">+</text>
<text text-anchor="start" x="25" y="-40.5" font-family="Helvetica,sans-Serif" font-size="10.00">XmlCloser()</text>
<text text-anchor="start" x="12" y="-25.5" font-family="Helvetica,sans-Serif" font-size="10.00">+</text>
<text text-anchor="start" x="25" y="-25.5" font-family="Helvetica,sans-Serif" font-size="10.00">~XmlCloser()</text>
<text text-anchor="start" x="12" y="-10.5" font-family="Helvetica,sans-Serif" font-size="10.00">+</text>
<text text-anchor="start" x="25" y="-10.5" font-family="Helvetica,sans-Serif" font-size="10.00">operator&lt;&lt;()</text>
<polygon fill="#666666" stroke="#666666" points="8,-65.5 8,-65.5 96,-65.5 96,-65.5 8,-65.5"/>
<polygon fill="#666666" stroke="#666666" points="8,-50.5 8,-50.5 23,-50.5 23,-50.5 8,-50.5"/>
<polygon fill="#666666" stroke="#666666" points="23,-50.5 23,-50.5 96,-50.5 96,-50.5 23,-50.5"/>
<polygon fill="none" stroke="#666666" points="8,-4 8,-83 96,-83 96,-4 8,-4"/>
</a>
</g>
</g>
<!-- Node2 -->
<g id="Node000002" class="node">
<title>Node2</title>
<g id="a_Node000002"><a xlink:title=" ">
<path fill="white" stroke="#666666" d="M67,-191C67,-191 37,-191 37,-191 31,-191 25,-185 25,-179 25,-179 25,-146 25,-146 25,-140 31,-134 37,-134 37,-134 67,-134 67,-134 73,-134 79,-140 79,-146 79,-146 79,-179 79,-179 79,-185 73,-191 67,-191"/>
<text text-anchor="start" x="38" y="-174.5" font-family="Helvetica,sans-Serif" font-size="10.00">string</text>
<text text-anchor="start" x="50" y="-159.5" font-family="Helvetica,sans-Serif" font-size="10.00"> </text>
<text text-anchor="start" x="50" y="-144.5" font-family="Helvetica,sans-Serif" font-size="10.00"> </text>
<polygon fill="#666666" stroke="#666666" points="33,-169.5 33,-169.5 71,-169.5 71,-169.5 33,-169.5"/>
<polygon fill="#666666" stroke="#666666" points="33,-154.5 33,-154.5 71,-154.5 71,-154.5 33,-154.5"/>
<polygon fill="none" stroke="#666666" points="33,-138 33,-187 71,-187 71,-138 33,-138"/>
</a>
</g>
</g>
<!-- Node2&#45;&gt;Node1 -->
<g id="edge1_Node000001_Node000002" class="edge">
<title>Node2&#45;&gt;Node1</title>
<g id="a_edge1_Node000001_Node000002"><a xlink:title=" ">
<path fill="none" stroke="#63b8ff" d="M52,-133.77C52,-123.44 52,-111.32 52,-99.4"/>
<polygon fill="none" stroke="#63b8ff" points="52,-99.13 48,-93.13 52,-87.13 56,-93.13 52,-99.13"/>
</a>
</g>
<text text-anchor="middle" x="62.5" y="-108" font-family="Helvetica,sans-Serif" font-size="10.00" fill="grey"> +id</text>
</g>
</g>
</svg>
