<?xml version="1.0" encoding="UTF-8" standalone="no"?>
<!DOCTYPE svg PUBLIC "-//W3C//DTD SVG 1.1//EN"
 "http://www.w3.org/Graphics/SVG/1.1/DTD/svg11.dtd">
<!-- Generated by graphviz version 2.43.0 (0)
 -->
<!-- Title: TcpSocket::timeoutHandler Pages: 1 -->
<svg width="331pt" height="38pt"
 viewBox="0.00 0.00 331.00 38.00" xmlns="http://www.w3.org/2000/svg" xmlns:xlink="http://www.w3.org/1999/xlink">
<g id="graph0" class="graph" transform="scale(1 1) rotate(0) translate(4 34)">
<title>TcpSocket::timeoutHandler</title>
<!-- Node1 -->
<g id="Node000001" class="node">
<title>Node1</title>
<g id="a_Node000001"><a xlink:href="structTcpSocket.html#af0d4224df8c4ae9c3ca8227bfd10a701" target="_top" xlink:title=" ">
<path fill="#fff0f0" stroke="red" stroke-width="2" d="M316.67,-24.5C316.67,-24.5 182.33,-24.5 182.33,-24.5 179.17,-24.5 176,-21.33 176,-18.17 176,-18.17 176,-11.83 176,-11.83 176,-8.67 179.17,-5.5 182.33,-5.5 182.33,-5.5 316.67,-5.5 316.67,-5.5 319.83,-5.5 323,-8.67 323,-11.83 323,-11.83 323,-18.17 323,-18.17 323,-21.33 319.83,-24.5 316.67,-24.5"/>
<text text-anchor="middle" x="249.5" y="-12.5" font-family="Helvetica,sans-Serif" font-size="10.00">TcpSocket::timeoutHandler</text>
</a>
</g>
</g>
<!-- Node2 -->
<g id="Node000002" class="node">
<title>Node2</title>
<g id="a_Node000002"><a xlink:href="structSisnetStream.html#a5dc8b2ed787356a865782bdce91bb37a" target="_top" xlink:title=" ">
<path fill="#fff0f0" stroke="red" d="M130,-30C130,-30 10,-30 10,-30 5,-30 0,-25 0,-20 0,-20 0,-10 0,-10 0,-5 5,0 10,0 10,0 130,0 130,0 135,0 140,-5 140,-10 140,-10 140,-20 140,-20 140,-25 135,-30 130,-30"/>
<text text-anchor="start" x="8" y="-18" font-family="Helvetica,sans-Serif" font-size="10.00">SisnetStream::sisnetStart</text>
<text text-anchor="middle" x="70" y="-7" font-family="Helvetica,sans-Serif" font-size="10.00">Handler</text>
</a>
</g>
</g>
<!-- Node1&#45;&gt;Node2 -->
<g id="edge1_Node000001_Node000002" class="edge">
<title>Node1&#45;&gt;Node2</title>
<g id="a_edge1_Node000001_Node000002"><a xlink:title=" ">
<path fill="none" stroke="#63b8ff" d="M165.78,-15C157.21,-15 148.56,-15 140.16,-15"/>
<polygon fill="#63b8ff" stroke="#63b8ff" points="165.79,-18.5 175.79,-15 165.79,-11.5 165.79,-18.5"/>
</a>
</g>
</g>
</g>
</svg>
