<?xml version="1.0" encoding="UTF-8" standalone="no"?>
<!DOCTYPE svg PUBLIC "-//W3C//DTD SVG 1.1//EN"
 "http://www.w3.org/Graphics/SVG/1.1/DTD/svg11.dtd">
<!-- Generated by graphviz version 2.43.0 (0)
 -->
<!-- Title: VectorEcef Pages: 1 -->
<svg width="105pt" height="233pt"
 viewBox="0.00 0.00 105.00 233.00" xmlns="http://www.w3.org/2000/svg" xmlns:xlink="http://www.w3.org/1999/xlink">
<g id="graph0" class="graph" transform="scale(1 1) rotate(0) translate(4 229)">
<title>VectorEcef</title>
<!-- Node1 -->
<g id="Node000001" class="node">
<title>Node1</title>
<g id="a_Node000001"><a xlink:href="structVectorEcef.html" target="_top" xlink:title=" ">
<path fill="white" stroke="#666666" stroke-width="2" d="M85,-132C85,-132 12,-132 12,-132 6,-132 0,-126 0,-120 0,-120 0,-12 0,-12 0,-6 6,0 12,0 12,0 85,0 85,0 91,0 97,-6 97,-12 97,-12 97,-120 97,-120 97,-126 91,-132 85,-132"/>
<text text-anchor="start" x="23" y="-116" font-family="Helvetica,sans-Serif" font-size="10.00">VectorEcef</text>
<text text-anchor="start" x="47" y="-101" font-family="Helvetica,sans-Serif" font-size="10.00"> </text>
<text text-anchor="start" x="12.5" y="-86" font-family="Helvetica,sans-Serif" font-size="10.00">+</text>
<text text-anchor="start" x="25.5" y="-86" font-family="Helvetica,sans-Serif" font-size="10.00">VectorEcef()</text>
<text text-anchor="start" x="12.5" y="-71" font-family="Helvetica,sans-Serif" font-size="10.00">+</text>
<text text-anchor="start" x="25.5" y="-71" font-family="Helvetica,sans-Serif" font-size="10.00">VectorEcef()</text>
<text text-anchor="start" x="12.5" y="-56" font-family="Helvetica,sans-Serif" font-size="10.00">+</text>
<text text-anchor="start" x="25.5" y="-56" font-family="Helvetica,sans-Serif" font-size="10.00">operator=()</text>
<text text-anchor="start" x="12.5" y="-41" font-family="Helvetica,sans-Serif" font-size="10.00">+</text>
<text text-anchor="start" x="25.5" y="-41" font-family="Helvetica,sans-Serif" font-size="10.00">operator*()</text>
<text text-anchor="start" x="12.5" y="-26" font-family="Helvetica,sans-Serif" font-size="10.00">+</text>
<text text-anchor="start" x="25.5" y="-26" font-family="Helvetica,sans-Serif" font-size="10.00">operator&#45;()</text>
<text text-anchor="start" x="12.5" y="-11" font-family="Helvetica,sans-Serif" font-size="10.00">+</text>
<text text-anchor="start" x="25.5" y="-11" font-family="Helvetica,sans-Serif" font-size="10.00">operator+()</text>
<polygon fill="#666666" stroke="#666666" points="8.5,-111 8.5,-111 89.5,-111 89.5,-111 8.5,-111"/>
<polygon fill="#666666" stroke="#666666" points="8.5,-96 8.5,-96 89.5,-96 89.5,-96 8.5,-96"/>
<polygon fill="none" stroke="#666666" points="8,-4 8,-128 89,-128 89,-4 8,-4"/>
</a>
</g>
</g>
<!-- Node2 -->
<g id="Node000002" class="node">
<title>Node2</title>
<g id="a_Node000002"><a xlink:title=" ">
<path fill="white" stroke="#666666" d="M71,-225C71,-225 26,-225 26,-225 20,-225 14,-219 14,-213 14,-213 14,-180 14,-180 14,-174 20,-168 26,-168 26,-168 71,-168 71,-168 77,-168 83,-174 83,-180 83,-180 83,-213 83,-213 83,-219 77,-225 71,-225"/>
<text text-anchor="start" x="27.5" y="-208.5" font-family="Helvetica,sans-Serif" font-size="10.00">Vector3d</text>
<text text-anchor="start" x="47" y="-193.5" font-family="Helvetica,sans-Serif" font-size="10.00"> </text>
<text text-anchor="start" x="47" y="-178.5" font-family="Helvetica,sans-Serif" font-size="10.00"> </text>
<polygon fill="#666666" stroke="#666666" points="22.5,-203.5 22.5,-203.5 75.5,-203.5 75.5,-203.5 22.5,-203.5"/>
<polygon fill="#666666" stroke="#666666" points="22.5,-188.5 22.5,-188.5 75.5,-188.5 75.5,-188.5 22.5,-188.5"/>
<polygon fill="none" stroke="#666666" points="22,-172 22,-221 75,-221 75,-172 22,-172"/>
</a>
</g>
</g>
<!-- Node2&#45;&gt;Node1 -->
<g id="edge1_Node000001_Node000002" class="edge">
<title>Node2&#45;&gt;Node1</title>
<g id="a_edge1_Node000001_Node000002"><a xlink:title=" ">
<path fill="none" stroke="#63b8ff" d="M48.5,-157.72C48.5,-149.61 48.5,-140.82 48.5,-132.01"/>
<polygon fill="none" stroke="#63b8ff" points="45,-157.93 48.5,-167.93 52,-157.93 45,-157.93"/>
</a>
</g>
</g>
</g>
</svg>
