<?xml version="1.0" encoding="UTF-8" standalone="no"?>
<!DOCTYPE svg PUBLIC "-//W3C//DTD SVG 1.1//EN"
 "http://www.w3.org/Graphics/SVG/1.1/DTD/svg11.dtd">
<!-- Generated by graphviz version 2.43.0 (0)
 -->
<!-- Title: PppOptions Pages: 1 -->
<svg width="163pt" height="641pt"
 viewBox="0.00 0.00 163.00 641.00" xmlns="http://www.w3.org/2000/svg" xmlns:xlink="http://www.w3.org/1999/xlink">
<g id="graph0" class="graph" transform="scale(1 1) rotate(0) translate(4 637)">
<title>PppOptions</title>
<!-- Node1 -->
<g id="Node000001" class="node">
<title>Node1</title>
<g id="a_Node000001"><a xlink:href="structPppOptions.html" target="_top" xlink:title="Options associated with the ppp processing mode of operation.">
<path fill="white" stroke="#666666" stroke-width="2" d="M135.5,-237C135.5,-237 19.5,-237 19.5,-237 13.5,-237 7.5,-231 7.5,-225 7.5,-225 7.5,-12 7.5,-12 7.5,-6 13.5,0 19.5,0 19.5,0 135.5,0 135.5,0 141.5,0 147.5,-6 147.5,-12 147.5,-12 147.5,-225 147.5,-225 147.5,-231 141.5,-237 135.5,-237"/>
<text text-anchor="start" x="49.5" y="-220.5" font-family="Helvetica,sans-Serif" font-size="10.00">PppOptions</text>
<text text-anchor="start" x="19.5" y="-205.5" font-family="Helvetica,sans-Serif" font-size="10.00">+</text>
<text text-anchor="start" x="32.5" y="-205.5" font-family="Helvetica,sans-Serif" font-size="10.00">eop</text>
<text text-anchor="start" x="19.5" y="-190.5" font-family="Helvetica,sans-Serif" font-size="10.00">+</text>
<text text-anchor="start" x="32.5" y="-190.5" font-family="Helvetica,sans-Serif" font-size="10.00">eop_rates</text>
<text text-anchor="start" x="19.5" y="-175.5" font-family="Helvetica,sans-Serif" font-size="10.00">+</text>
<text text-anchor="start" x="32.5" y="-175.5" font-family="Helvetica,sans-Serif" font-size="10.00">ionoOpts</text>
<text text-anchor="start" x="19.5" y="-160.5" font-family="Helvetica,sans-Serif" font-size="10.00">+</text>
<text text-anchor="start" x="32.5" y="-160.5" font-family="Helvetica,sans-Serif" font-size="10.00">equate_ionospheres</text>
<text text-anchor="start" x="19.5" y="-145.5" font-family="Helvetica,sans-Serif" font-size="10.00">+</text>
<text text-anchor="start" x="32.5" y="-145.5" font-family="Helvetica,sans-Serif" font-size="10.00">equate_tropospheres</text>
<text text-anchor="start" x="19.5" y="-130.5" font-family="Helvetica,sans-Serif" font-size="10.00">+</text>
<text text-anchor="start" x="32.5" y="-130.5" font-family="Helvetica,sans-Serif" font-size="10.00">use_rtk_combo</text>
<text text-anchor="start" x="19.5" y="-115.5" font-family="Helvetica,sans-Serif" font-size="10.00">+</text>
<text text-anchor="start" x="32.5" y="-115.5" font-family="Helvetica,sans-Serif" font-size="10.00">add_eop_component</text>
<text text-anchor="start" x="19.5" y="-100.5" font-family="Helvetica,sans-Serif" font-size="10.00">+</text>
<text text-anchor="start" x="32.5" y="-100.5" font-family="Helvetica,sans-Serif" font-size="10.00">satellite_chunking</text>
<text text-anchor="start" x="19.5" y="-85.5" font-family="Helvetica,sans-Serif" font-size="10.00">+</text>
<text text-anchor="start" x="32.5" y="-85.5" font-family="Helvetica,sans-Serif" font-size="10.00">receiver_chunking</text>
<text text-anchor="start" x="19.5" y="-70.5" font-family="Helvetica,sans-Serif" font-size="10.00">+</text>
<text text-anchor="start" x="32.5" y="-70.5" font-family="Helvetica,sans-Serif" font-size="10.00">chunk_size</text>
<text text-anchor="start" x="19.5" y="-55.5" font-family="Helvetica,sans-Serif" font-size="10.00">+</text>
<text text-anchor="start" x="32.5" y="-55.5" font-family="Helvetica,sans-Serif" font-size="10.00">nuke_enable</text>
<text text-anchor="start" x="19.5" y="-40.5" font-family="Helvetica,sans-Serif" font-size="10.00">+</text>
<text text-anchor="start" x="32.5" y="-40.5" font-family="Helvetica,sans-Serif" font-size="10.00">nuke_interval</text>
<text text-anchor="start" x="19.5" y="-25.5" font-family="Helvetica,sans-Serif" font-size="10.00">+</text>
<text text-anchor="start" x="32.5" y="-25.5" font-family="Helvetica,sans-Serif" font-size="10.00">nuke_states</text>
<text text-anchor="start" x="75.5" y="-10.5" font-family="Helvetica,sans-Serif" font-size="10.00"> </text>
<polygon fill="#666666" stroke="#666666" points="15.5,-215.5 15.5,-215.5 139.5,-215.5 139.5,-215.5 15.5,-215.5"/>
<polygon fill="#666666" stroke="#666666" points="15.5,-20.5 15.5,-20.5 30.5,-20.5 30.5,-20.5 15.5,-20.5"/>
<polygon fill="#666666" stroke="#666666" points="30.5,-20.5 30.5,-20.5 139.5,-20.5 139.5,-20.5 30.5,-20.5"/>
<polygon fill="none" stroke="#666666" points="15.5,-4 15.5,-233 139.5,-233 139.5,-4 15.5,-4"/>
</a>
</g>
</g>
<!-- Node2 -->
<g id="Node000002" class="node">
<title>Node2</title>
<g id="a_Node000002"><a xlink:href="structFilterOptions.html" target="_top" xlink:title=" ">
<path fill="white" stroke="#666666" d="M133,-435C133,-435 22,-435 22,-435 16,-435 10,-429 10,-423 10,-423 10,-285 10,-285 10,-279 16,-273 22,-273 22,-273 133,-273 133,-273 139,-273 145,-279 145,-285 145,-285 145,-423 145,-423 145,-429 139,-435 133,-435"/>
<text text-anchor="start" x="46.5" y="-419" font-family="Helvetica,sans-Serif" font-size="10.00">FilterOptions</text>
<text text-anchor="start" x="22.5" y="-404" font-family="Helvetica,sans-Serif" font-size="10.00">+</text>
<text text-anchor="start" x="35.5" y="-404" font-family="Helvetica,sans-Serif" font-size="10.00">simulate_filter_only</text>
<text text-anchor="start" x="22.5" y="-389" font-family="Helvetica,sans-Serif" font-size="10.00">+</text>
<text text-anchor="start" x="35.5" y="-389" font-family="Helvetica,sans-Serif" font-size="10.00">assume_linearity</text>
<text text-anchor="start" x="22.5" y="-374" font-family="Helvetica,sans-Serif" font-size="10.00">+</text>
<text text-anchor="start" x="35.5" y="-374" font-family="Helvetica,sans-Serif" font-size="10.00">advanced_postfits</text>
<text text-anchor="start" x="22.5" y="-359" font-family="Helvetica,sans-Serif" font-size="10.00">+</text>
<text text-anchor="start" x="35.5" y="-359" font-family="Helvetica,sans-Serif" font-size="10.00">joseph_stabilisation</text>
<text text-anchor="start" x="22.5" y="-344" font-family="Helvetica,sans-Serif" font-size="10.00">+</text>
<text text-anchor="start" x="35.5" y="-344" font-family="Helvetica,sans-Serif" font-size="10.00">inverter</text>
<text text-anchor="start" x="22.5" y="-329" font-family="Helvetica,sans-Serif" font-size="10.00">+</text>
<text text-anchor="start" x="35.5" y="-329" font-family="Helvetica,sans-Serif" font-size="10.00">prefitOpts</text>
<text text-anchor="start" x="22.5" y="-314" font-family="Helvetica,sans-Serif" font-size="10.00">+</text>
<text text-anchor="start" x="35.5" y="-314" font-family="Helvetica,sans-Serif" font-size="10.00">postfitOpts</text>
<text text-anchor="start" x="22.5" y="-299" font-family="Helvetica,sans-Serif" font-size="10.00">+</text>
<text text-anchor="start" x="35.5" y="-299" font-family="Helvetica,sans-Serif" font-size="10.00">chiSquareTest</text>
<text text-anchor="start" x="76" y="-284" font-family="Helvetica,sans-Serif" font-size="10.00"> </text>
<polygon fill="#666666" stroke="#666666" points="18.5,-414 18.5,-414 137.5,-414 137.5,-414 18.5,-414"/>
<polygon fill="#666666" stroke="#666666" points="18.5,-294 18.5,-294 33.5,-294 33.5,-294 18.5,-294"/>
<polygon fill="#666666" stroke="#666666" points="33.5,-294 33.5,-294 137.5,-294 137.5,-294 33.5,-294"/>
<polygon fill="none" stroke="#666666" points="18,-277 18,-431 137,-431 137,-277 18,-277"/>
</a>
</g>
</g>
<!-- Node2&#45;&gt;Node1 -->
<g id="edge1_Node000001_Node000002" class="edge">
<title>Node2&#45;&gt;Node1</title>
<g id="a_edge1_Node000001_Node000002"><a xlink:title=" ">
<path fill="none" stroke="#63b8ff" d="M77.5,-262.77C77.5,-254.32 77.5,-245.68 77.5,-237.02"/>
<polygon fill="none" stroke="#63b8ff" points="74,-262.97 77.5,-272.97 81,-262.97 74,-262.97"/>
</a>
</g>
</g>
<!-- Node3 -->
<g id="Node000003" class="node">
<title>Node3</title>
<g id="a_Node000003"><a xlink:href="structRtsOptions.html" target="_top" xlink:title=" ">
<path fill="white" stroke="#666666" d="M143,-633C143,-633 12,-633 12,-633 6,-633 0,-627 0,-621 0,-621 0,-483 0,-483 0,-477 6,-471 12,-471 12,-471 143,-471 143,-471 149,-471 155,-477 155,-483 155,-483 155,-621 155,-621 155,-627 149,-633 143,-633"/>
<text text-anchor="start" x="51" y="-617" font-family="Helvetica,sans-Serif" font-size="10.00">RtsOptions</text>
<text text-anchor="start" x="12.5" y="-602" font-family="Helvetica,sans-Serif" font-size="10.00">+</text>
<text text-anchor="start" x="25.5" y="-602" font-family="Helvetica,sans-Serif" font-size="10.00">rts_filename</text>
<text text-anchor="start" x="12.5" y="-587" font-family="Helvetica,sans-Serif" font-size="10.00">+</text>
<text text-anchor="start" x="25.5" y="-587" font-family="Helvetica,sans-Serif" font-size="10.00">rts_directory</text>
<text text-anchor="start" x="12.5" y="-572" font-family="Helvetica,sans-Serif" font-size="10.00">+</text>
<text text-anchor="start" x="25.5" y="-572" font-family="Helvetica,sans-Serif" font-size="10.00">rts_lag</text>
<text text-anchor="start" x="12.5" y="-557" font-family="Helvetica,sans-Serif" font-size="10.00">+</text>
<text text-anchor="start" x="25.5" y="-557" font-family="Helvetica,sans-Serif" font-size="10.00">rts_interval</text>
<text text-anchor="start" x="12.5" y="-542" font-family="Helvetica,sans-Serif" font-size="10.00">+</text>
<text text-anchor="start" x="25.5" y="-542" font-family="Helvetica,sans-Serif" font-size="10.00">rts_smoothed_suffix</text>
<text text-anchor="start" x="12.5" y="-527" font-family="Helvetica,sans-Serif" font-size="10.00">+</text>
<text text-anchor="start" x="25.5" y="-527" font-family="Helvetica,sans-Serif" font-size="10.00">output_intermediate_rts</text>
<text text-anchor="start" x="12.5" y="-512" font-family="Helvetica,sans-Serif" font-size="10.00">+</text>
<text text-anchor="start" x="25.5" y="-512" font-family="Helvetica,sans-Serif" font-size="10.00">queue_rts_outputs</text>
<text text-anchor="start" x="12.5" y="-497" font-family="Helvetica,sans-Serif" font-size="10.00">+</text>
<text text-anchor="start" x="25.5" y="-497" font-family="Helvetica,sans-Serif" font-size="10.00">rts_inverter</text>
<text text-anchor="start" x="76" y="-482" font-family="Helvetica,sans-Serif" font-size="10.00"> </text>
<polygon fill="#666666" stroke="#666666" points="8.5,-612 8.5,-612 147.5,-612 147.5,-612 8.5,-612"/>
<polygon fill="#666666" stroke="#666666" points="8.5,-492 8.5,-492 23.5,-492 23.5,-492 8.5,-492"/>
<polygon fill="#666666" stroke="#666666" points="23.5,-492 23.5,-492 147.5,-492 147.5,-492 23.5,-492"/>
<polygon fill="none" stroke="#666666" points="8,-475 8,-629 147,-629 147,-475 8,-475"/>
</a>
</g>
</g>
<!-- Node3&#45;&gt;Node2 -->
<g id="edge2_Node000002_Node000003" class="edge">
<title>Node3&#45;&gt;Node2</title>
<g id="a_edge2_Node000002_Node000003"><a xlink:title=" ">
<path fill="none" stroke="#63b8ff" d="M77.5,-460.92C77.5,-452.3 77.5,-443.59 77.5,-435.07"/>
<polygon fill="none" stroke="#63b8ff" points="74,-461 77.5,-471 81,-461 74,-461"/>
</a>
</g>
</g>
</g>
</svg>
