<?xml version="1.0" encoding="UTF-8" standalone="no"?>
<!DOCTYPE svg PUBLIC "-//W3C//DTD SVG 1.1//EN"
 "http://www.w3.org/Graphics/SVG/1.1/DTD/svg11.dtd">
<!-- Generated by graphviz version 2.43.0 (0)
 -->
<!-- Title: TcpSocket::connected Pages: 1 -->
<svg width="283pt" height="27pt"
 viewBox="0.00 0.00 283.00 27.00" xmlns="http://www.w3.org/2000/svg" xmlns:xlink="http://www.w3.org/1999/xlink">
<g id="graph0" class="graph" transform="scale(1 1) rotate(0) translate(4 23)">
<title>TcpSocket::connected</title>
<!-- Node1 -->
<g id="Node000001" class="node">
<title>Node1</title>
<g id="a_Node000001"><a xlink:href="structTcpSocket.html#a2c944f0ce56e451a2b3830c6eae0a883" target="_top" xlink:title=" ">
<path fill="#fff0f0" stroke="red" stroke-width="2" d="M114.67,-19C114.67,-19 6.33,-19 6.33,-19 3.17,-19 0,-15.83 0,-12.67 0,-12.67 0,-6.33 0,-6.33 0,-3.17 3.17,0 6.33,0 6.33,0 114.67,0 114.67,0 117.83,0 121,-3.17 121,-6.33 121,-6.33 121,-12.67 121,-12.67 121,-15.83 117.83,-19 114.67,-19"/>
<text text-anchor="middle" x="60.5" y="-7" font-family="Helvetica,sans-Serif" font-size="10.00">TcpSocket::connected</text>
</a>
</g>
</g>
<!-- Node2 -->
<g id="Node000002" class="node">
<title>Node2</title>
<g id="a_Node000002"><a xlink:href="structTcpSocket.html#a03ed6daf30143b309d99966c9318b347" target="_top" xlink:title=" ">
<path fill="#fff0f0" stroke="red" d="M268.67,-19C268.67,-19 163.33,-19 163.33,-19 160.17,-19 157,-15.83 157,-12.67 157,-12.67 157,-6.33 157,-6.33 157,-3.17 160.17,0 163.33,0 163.33,0 268.67,0 268.67,0 271.83,0 275,-3.17 275,-6.33 275,-6.33 275,-12.67 275,-12.67 275,-15.83 271.83,-19 268.67,-19"/>
<text text-anchor="middle" x="216" y="-7" font-family="Helvetica,sans-Serif" font-size="10.00">TcpSocket::startRead</text>
</a>
</g>
</g>
<!-- Node1&#45;&gt;Node2 -->
<g id="edge1_Node000001_Node000002" class="edge">
<title>Node1&#45;&gt;Node2</title>
<g id="a_edge1_Node000001_Node000002"><a xlink:title=" ">
<path fill="none" stroke="#63b8ff" d="M121.29,-9.5C129.61,-9.5 138.2,-9.5 146.66,-9.5"/>
<polygon fill="#63b8ff" stroke="#63b8ff" points="146.89,-13 156.89,-9.5 146.89,-6 146.89,-13"/>
</a>
</g>
</g>
</g>
</svg>
