<?xml version="1.0" encoding="UTF-8" standalone="no"?>
<!DOCTYPE svg PUBLIC "-//W3C//DTD SVG 1.1//EN"
 "http://www.w3.org/Graphics/SVG/1.1/DTD/svg11.dtd">
<!-- Generated by graphviz version 2.43.0 (0)
 -->
<!-- Title: ExcludeOptions Pages: 1 -->
<svg width="110pt" height="293pt"
 viewBox="0.00 0.00 110.00 293.00" xmlns="http://www.w3.org/2000/svg" xmlns:xlink="http://www.w3.org/1999/xlink">
<g id="graph0" class="graph" transform="scale(1 1) rotate(0) translate(4 289)">
<title>ExcludeOptions</title>
<!-- Node1 -->
<g id="Node000001" class="node">
<title>Node1</title>
<g id="a_Node000001"><a xlink:href="structExcludeOptions.html" target="_top" xlink:title=" ">
<path fill="white" stroke="#666666" stroke-width="2" d="M90,-147C90,-147 12,-147 12,-147 6,-147 0,-141 0,-135 0,-135 0,-12 0,-12 0,-6 6,0 12,0 12,0 90,0 90,0 96,0 102,-6 102,-12 102,-12 102,-135 102,-135 102,-141 96,-147 90,-147"/>
<text text-anchor="start" x="13" y="-130.5" font-family="Helvetica,sans-Serif" font-size="10.00">ExcludeOptions</text>
<text text-anchor="start" x="16.5" y="-115.5" font-family="Helvetica,sans-Serif" font-size="10.00">+</text>
<text text-anchor="start" x="34" y="-115.5" font-family="Helvetica,sans-Serif" font-size="10.00">bad_spp</text>
<text text-anchor="start" x="16.5" y="-100.5" font-family="Helvetica,sans-Serif" font-size="10.00">+</text>
<text text-anchor="start" x="34" y="-100.5" font-family="Helvetica,sans-Serif" font-size="10.00">config</text>
<text text-anchor="start" x="16.5" y="-85.5" font-family="Helvetica,sans-Serif" font-size="10.00">+</text>
<text text-anchor="start" x="34" y="-85.5" font-family="Helvetica,sans-Serif" font-size="10.00">eclipse</text>
<text text-anchor="start" x="16.5" y="-70.5" font-family="Helvetica,sans-Serif" font-size="10.00">+</text>
<text text-anchor="start" x="34" y="-70.5" font-family="Helvetica,sans-Serif" font-size="10.00">elevation</text>
<text text-anchor="start" x="16.5" y="-55.5" font-family="Helvetica,sans-Serif" font-size="10.00">+</text>
<text text-anchor="start" x="34" y="-55.5" font-family="Helvetica,sans-Serif" font-size="10.00">outlier</text>
<text text-anchor="start" x="16.5" y="-40.5" font-family="Helvetica,sans-Serif" font-size="10.00">+</text>
<text text-anchor="start" x="34" y="-40.5" font-family="Helvetica,sans-Serif" font-size="10.00">system</text>
<text text-anchor="start" x="16.5" y="-25.5" font-family="Helvetica,sans-Serif" font-size="10.00">+</text>
<text text-anchor="start" x="34" y="-25.5" font-family="Helvetica,sans-Serif" font-size="10.00">svh</text>
<text text-anchor="start" x="49" y="-10.5" font-family="Helvetica,sans-Serif" font-size="10.00"> </text>
<polygon fill="#666666" stroke="#666666" points="8,-125.5 8,-125.5 94,-125.5 94,-125.5 8,-125.5"/>
<polygon fill="#666666" stroke="#666666" points="8,-20.5 8,-20.5 32,-20.5 32,-20.5 8,-20.5"/>
<polygon fill="#666666" stroke="#666666" points="32,-20.5 32,-20.5 94,-20.5 94,-20.5 32,-20.5"/>
<polygon fill="none" stroke="#666666" points="8,-4 8,-143 94,-143 94,-4 8,-4"/>
</a>
</g>
</g>
<!-- Node2 -->
<g id="Node000002" class="node">
<title>Node2</title>
<g id="a_Node000002"><a xlink:href="structSlipOptions.html" target="_top" xlink:title=" ">
<path fill="white" stroke="#666666" d="M80,-285C80,-285 22,-285 22,-285 16,-285 10,-279 10,-273 10,-273 10,-195 10,-195 10,-189 16,-183 22,-183 22,-183 80,-183 80,-183 86,-183 92,-189 92,-195 92,-195 92,-273 92,-273 92,-279 86,-285 80,-285"/>
<text text-anchor="start" x="23" y="-269" font-family="Helvetica,sans-Serif" font-size="10.00">SlipOptions</text>
<text text-anchor="start" x="25.5" y="-254" font-family="Helvetica,sans-Serif" font-size="10.00">+</text>
<text text-anchor="start" x="42" y="-254" font-family="Helvetica,sans-Serif" font-size="10.00">LLI</text>
<text text-anchor="start" x="25.5" y="-239" font-family="Helvetica,sans-Serif" font-size="10.00">+</text>
<text text-anchor="start" x="42" y="-239" font-family="Helvetica,sans-Serif" font-size="10.00">GF</text>
<text text-anchor="start" x="25.5" y="-224" font-family="Helvetica,sans-Serif" font-size="10.00">+</text>
<text text-anchor="start" x="42" y="-224" font-family="Helvetica,sans-Serif" font-size="10.00">MW</text>
<text text-anchor="start" x="25.5" y="-209" font-family="Helvetica,sans-Serif" font-size="10.00">+</text>
<text text-anchor="start" x="42" y="-209" font-family="Helvetica,sans-Serif" font-size="10.00">SCDIA</text>
<text text-anchor="start" x="49" y="-194" font-family="Helvetica,sans-Serif" font-size="10.00"> </text>
<polygon fill="#666666" stroke="#666666" points="18,-264 18,-264 84,-264 84,-264 18,-264"/>
<polygon fill="#666666" stroke="#666666" points="18,-204 18,-204 40,-204 40,-204 18,-204"/>
<polygon fill="#666666" stroke="#666666" points="40,-204 40,-204 84,-204 84,-204 40,-204"/>
<polygon fill="none" stroke="#666666" points="18,-187 18,-281 84,-281 84,-187 18,-187"/>
</a>
</g>
</g>
<!-- Node2&#45;&gt;Node1 -->
<g id="edge1_Node000001_Node000002" class="edge">
<title>Node2&#45;&gt;Node1</title>
<g id="a_edge1_Node000001_Node000002"><a xlink:title=" ">
<path fill="none" stroke="#63b8ff" d="M51,-172.81C51,-164.44 51,-155.77 51,-147.2"/>
<polygon fill="none" stroke="#63b8ff" points="47.5,-172.85 51,-182.85 54.5,-172.85 47.5,-172.85"/>
</a>
</g>
</g>
</g>
</svg>
