<?xml version="1.0" encoding="UTF-8" standalone="no"?>
<!DOCTYPE svg PUBLIC "-//W3C//DTD SVG 1.1//EN"
 "http://www.w3.org/Graphics/SVG/1.1/DTD/svg11.dtd">
<!-- Generated by graphviz version 2.43.0 (0)
 -->
<!-- Title: GinAR_mtx Pages: 1 -->
<svg width="306pt" height="317pt"
 viewBox="0.00 0.00 305.50 317.00" xmlns="http://www.w3.org/2000/svg" xmlns:xlink="http://www.w3.org/1999/xlink">
<g id="graph0" class="graph" transform="scale(1 1) rotate(0) translate(4 313)">
<title>GinAR_mtx</title>
<!-- Node1 -->
<g id="Node000001" class="node">
<title>Node1</title>
<g id="a_Node000001"><a xlink:href="structGinAR__mtx.html" target="_top" xlink:title=" ">
<path fill="white" stroke="#666666" stroke-width="2" d="M201.5,-57C201.5,-57 144.5,-57 144.5,-57 138.5,-57 132.5,-51 132.5,-45 132.5,-45 132.5,-12 132.5,-12 132.5,-6 138.5,0 144.5,0 144.5,0 201.5,0 201.5,0 207.5,0 213.5,-6 213.5,-12 213.5,-12 213.5,-45 213.5,-45 213.5,-51 207.5,-57 201.5,-57"/>
<text text-anchor="start" x="146" y="-40.5" font-family="Helvetica,sans-Serif" font-size="10.00">GinAR_mtx</text>
<text text-anchor="start" x="171.5" y="-25.5" font-family="Helvetica,sans-Serif" font-size="10.00"> </text>
<text text-anchor="start" x="171.5" y="-10.5" font-family="Helvetica,sans-Serif" font-size="10.00"> </text>
<polygon fill="#666666" stroke="#666666" points="141,-35.5 141,-35.5 206,-35.5 206,-35.5 141,-35.5"/>
<polygon fill="#666666" stroke="#666666" points="141,-20.5 141,-20.5 206,-20.5 206,-20.5 141,-20.5"/>
<polygon fill="none" stroke="#666666" points="140.5,-4 140.5,-53 205.5,-53 205.5,-4 140.5,-4"/>
</a>
</g>
</g>
<!-- Node2 -->
<g id="Node000002" class="node">
<title>Node2</title>
<g id="a_Node000002"><a xlink:title=" ">
<path fill="white" stroke="#666666" d="M108,-205C108,-205 12,-205 12,-205 6,-205 0,-199 0,-193 0,-193 0,-160 0,-160 0,-154 6,-148 12,-148 12,-148 108,-148 108,-148 114,-148 120,-154 120,-160 120,-160 120,-193 120,-193 120,-199 114,-205 108,-205"/>
<text text-anchor="start" x="13" y="-188.5" font-family="Helvetica,sans-Serif" font-size="10.00">map&lt; int, KFKey &gt;</text>
<text text-anchor="start" x="58" y="-173.5" font-family="Helvetica,sans-Serif" font-size="10.00"> </text>
<text text-anchor="start" x="58" y="-158.5" font-family="Helvetica,sans-Serif" font-size="10.00"> </text>
<polygon fill="#666666" stroke="#666666" points="8,-183.5 8,-183.5 112,-183.5 112,-183.5 8,-183.5"/>
<polygon fill="#666666" stroke="#666666" points="8,-168.5 8,-168.5 112,-168.5 112,-168.5 8,-168.5"/>
<polygon fill="none" stroke="#666666" points="8,-152 8,-201 112,-201 112,-152 8,-152"/>
</a>
</g>
</g>
<!-- Node2&#45;&gt;Node1 -->
<g id="edge1_Node000001_Node000002" class="edge">
<title>Node2&#45;&gt;Node1</title>
<g id="a_edge1_Node000001_Node000002"><a xlink:title=" ">
<path fill="none" stroke="#63b8ff" d="M70.98,-147.99C80.36,-126.64 95.29,-97.05 114,-75 116.84,-71.65 119.97,-68.38 123.26,-65.24"/>
<polygon fill="none" stroke="#63b8ff" points="123.29,-65.21 125.11,-58.24 132.26,-57.24 130.43,-64.21 123.29,-65.21"/>
</a>
</g>
<text text-anchor="middle" x="141.5" y="-100" font-family="Helvetica,sans-Serif" font-size="10.00" fill="grey"> +ambmap</text>
</g>
<!-- Node3 -->
<g id="Node000003" class="node">
<title>Node3</title>
<g id="a_Node000003"><a xlink:title=" ">
<path fill="white" stroke="#666666" d="M72,-309C72,-309 48,-309 48,-309 42,-309 36,-303 36,-297 36,-297 36,-264 36,-264 36,-258 42,-252 48,-252 48,-252 72,-252 72,-252 78,-252 84,-258 84,-264 84,-264 84,-297 84,-297 84,-303 78,-309 72,-309"/>
<text text-anchor="start" x="49" y="-292.5" font-family="Helvetica,sans-Serif" font-size="10.00">map</text>
<text text-anchor="start" x="58" y="-277.5" font-family="Helvetica,sans-Serif" font-size="10.00"> </text>
<text text-anchor="start" x="58" y="-262.5" font-family="Helvetica,sans-Serif" font-size="10.00"> </text>
<polygon fill="#666666" stroke="#666666" points="44,-287.5 44,-287.5 76,-287.5 76,-287.5 44,-287.5"/>
<polygon fill="#666666" stroke="#666666" points="44,-272.5 44,-272.5 76,-272.5 76,-272.5 44,-272.5"/>
<polygon fill="none" stroke="#666666" points="44,-256 44,-305 76,-305 76,-256 44,-256"/>
</a>
</g>
</g>
<!-- Node3&#45;&gt;Node2 -->
<g id="edge2_Node000002_Node000003" class="edge">
<title>Node3&#45;&gt;Node2</title>
<g id="a_edge2_Node000002_Node000003"><a xlink:title=" ">
<path fill="none" stroke="orange" d="M60,-241.61C60,-229.51 60,-216.35 60,-205.12"/>
<polygon fill="orange" stroke="orange" points="56.5,-241.9 60,-251.9 63.5,-241.9 56.5,-241.9"/>
</a>
</g>
<text text-anchor="middle" x="98" y="-226" font-family="Helvetica,sans-Serif" font-size="10.00" fill="grey"> &lt; int, KFKey &gt;</text>
</g>
<!-- Node4 -->
<g id="Node000004" class="node">
<title>Node4</title>
<g id="a_Node000004"><a xlink:title=" ">
<path fill="white" stroke="#666666" d="M196,-205C196,-205 150,-205 150,-205 144,-205 138,-199 138,-193 138,-193 138,-160 138,-160 138,-154 144,-148 150,-148 150,-148 196,-148 196,-148 202,-148 208,-154 208,-160 208,-160 208,-193 208,-193 208,-199 202,-205 196,-205"/>
<text text-anchor="start" x="151" y="-188.5" font-family="Helvetica,sans-Serif" font-size="10.00">VectorXd</text>
<text text-anchor="start" x="171" y="-173.5" font-family="Helvetica,sans-Serif" font-size="10.00"> </text>
<text text-anchor="start" x="171" y="-158.5" font-family="Helvetica,sans-Serif" font-size="10.00"> </text>
<polygon fill="#666666" stroke="#666666" points="146,-183.5 146,-183.5 200,-183.5 200,-183.5 146,-183.5"/>
<polygon fill="#666666" stroke="#666666" points="146,-168.5 146,-168.5 200,-168.5 200,-168.5 146,-168.5"/>
<polygon fill="none" stroke="#666666" points="146,-152 146,-201 200,-201 200,-152 146,-152"/>
</a>
</g>
</g>
<!-- Node4&#45;&gt;Node1 -->
<g id="edge3_Node000001_Node000004" class="edge">
<title>Node4&#45;&gt;Node1</title>
<g id="a_edge3_Node000001_Node000004"><a xlink:title=" ">
<path fill="none" stroke="#63b8ff" d="M173,-147.69C173,-125.57 173,-94.32 173,-69.51"/>
<polygon fill="none" stroke="#63b8ff" points="173,-69.2 169,-63.2 173,-57.2 177,-63.2 173,-69.2"/>
</a>
</g>
<text text-anchor="middle" x="189" y="-122" font-family="Helvetica,sans-Serif" font-size="10.00" fill="grey"> +Dtrs</text>
<text text-anchor="middle" x="189" y="-111" font-family="Helvetica,sans-Serif" font-size="10.00" fill="grey">+afix</text>
<text text-anchor="middle" x="189" y="-100" font-family="Helvetica,sans-Serif" font-size="10.00" fill="grey">+aflt</text>
<text text-anchor="middle" x="189" y="-89" font-family="Helvetica,sans-Serif" font-size="10.00" fill="grey">+zfix</text>
<text text-anchor="middle" x="189" y="-78" font-family="Helvetica,sans-Serif" font-size="10.00" fill="grey">+zflt</text>
</g>
<!-- Node5 -->
<g id="Node000005" class="node">
<title>Node5</title>
<g id="a_Node000005"><a xlink:title=" ">
<path fill="white" stroke="#666666" d="M285.5,-205C285.5,-205 238.5,-205 238.5,-205 232.5,-205 226.5,-199 226.5,-193 226.5,-193 226.5,-160 226.5,-160 226.5,-154 232.5,-148 238.5,-148 238.5,-148 285.5,-148 285.5,-148 291.5,-148 297.5,-154 297.5,-160 297.5,-160 297.5,-193 297.5,-193 297.5,-199 291.5,-205 285.5,-205"/>
<text text-anchor="start" x="240" y="-188.5" font-family="Helvetica,sans-Serif" font-size="10.00">MatrixXd</text>
<text text-anchor="start" x="260.5" y="-173.5" font-family="Helvetica,sans-Serif" font-size="10.00"> </text>
<text text-anchor="start" x="260.5" y="-158.5" font-family="Helvetica,sans-Serif" font-size="10.00"> </text>
<polygon fill="#666666" stroke="#666666" points="235,-183.5 235,-183.5 290,-183.5 290,-183.5 235,-183.5"/>
<polygon fill="#666666" stroke="#666666" points="235,-168.5 235,-168.5 290,-168.5 290,-168.5 235,-168.5"/>
<polygon fill="none" stroke="#666666" points="234.5,-152 234.5,-201 289.5,-201 289.5,-152 234.5,-152"/>
</a>
</g>
</g>
<!-- Node5&#45;&gt;Node1 -->
<g id="edge4_Node000001_Node000005" class="edge">
<title>Node5&#45;&gt;Node1</title>
<g id="a_edge4_Node000001_Node000005"><a xlink:title=" ">
<path fill="none" stroke="#63b8ff" d="M249.14,-147.86C239.13,-127.22 224.4,-98.64 209,-75 207.32,-72.42 205.52,-69.8 203.66,-67.19"/>
<polygon fill="none" stroke="#63b8ff" points="203.46,-66.93 196.67,-64.5 196.3,-57.3 203.09,-59.72 203.46,-66.93"/>
</a>
</g>
<text text-anchor="middle" x="255" y="-116.5" font-family="Helvetica,sans-Serif" font-size="10.00" fill="grey"> +Ltrs</text>
<text text-anchor="middle" x="255" y="-105.5" font-family="Helvetica,sans-Serif" font-size="10.00" fill="grey">+Pafix</text>
<text text-anchor="middle" x="255" y="-94.5" font-family="Helvetica,sans-Serif" font-size="10.00" fill="grey">+Paflt</text>
<text text-anchor="middle" x="255" y="-83.5" font-family="Helvetica,sans-Serif" font-size="10.00" fill="grey">+Ztrs</text>
</g>
</g>
</svg>
