<?xml version="1.0" encoding="UTF-8" standalone="no"?>
<!DOCTYPE svg PUBLIC "-//W3C//DTD SVG 1.1//EN"
 "http://www.w3.org/Graphics/SVG/1.1/DTD/svg11.dtd">
<!-- Generated by graphviz version 2.43.0 (0)
 -->
<!-- Title: KFKey Pages: 1 -->
<svg width="1884pt" height="995pt"
 viewBox="0.00 0.00 1883.50 995.00" xmlns="http://www.w3.org/2000/svg" xmlns:xlink="http://www.w3.org/1999/xlink">
<g id="graph0" class="graph" transform="scale(1 1) rotate(0) translate(4 991)">
<title>KFKey</title>
<!-- Node1 -->
<g id="Node000001" class="node">
<title>Node1</title>
<g id="a_Node000001"><a xlink:href="structKFKey.html" target="_top" xlink:title="Keys used to interface with Kalman filter objects.">
<path fill="white" stroke="#666666" stroke-width="2" d="M206.5,-147C206.5,-147 113.5,-147 113.5,-147 107.5,-147 101.5,-141 101.5,-135 101.5,-135 101.5,-12 101.5,-12 101.5,-6 107.5,0 113.5,0 113.5,0 206.5,0 206.5,0 212.5,0 218.5,-6 218.5,-12 218.5,-12 218.5,-135 218.5,-135 218.5,-141 212.5,-147 206.5,-147"/>
<text text-anchor="start" x="145" y="-130.5" font-family="Helvetica,sans-Serif" font-size="10.00">KFKey</text>
<text text-anchor="start" x="114" y="-115.5" font-family="Helvetica,sans-Serif" font-size="10.00">+</text>
<text text-anchor="start" x="127" y="-115.5" font-family="Helvetica,sans-Serif" font-size="10.00">type</text>
<text text-anchor="start" x="114" y="-100.5" font-family="Helvetica,sans-Serif" font-size="10.00">+</text>
<text text-anchor="start" x="127" y="-100.5" font-family="Helvetica,sans-Serif" font-size="10.00">num</text>
<text text-anchor="start" x="114" y="-85.5" font-family="Helvetica,sans-Serif" font-size="10.00">+</text>
<text text-anchor="start" x="127" y="-85.5" font-family="Helvetica,sans-Serif" font-size="10.00">operator==()</text>
<text text-anchor="start" x="114" y="-70.5" font-family="Helvetica,sans-Serif" font-size="10.00">+</text>
<text text-anchor="start" x="127" y="-70.5" font-family="Helvetica,sans-Serif" font-size="10.00">operator&lt;()</text>
<text text-anchor="start" x="114" y="-55.5" font-family="Helvetica,sans-Serif" font-size="10.00">+</text>
<text text-anchor="start" x="127" y="-55.5" font-family="Helvetica,sans-Serif" font-size="10.00">operator string()</text>
<text text-anchor="start" x="114" y="-40.5" font-family="Helvetica,sans-Serif" font-size="10.00">+</text>
<text text-anchor="start" x="127" y="-40.5" font-family="Helvetica,sans-Serif" font-size="10.00">commaString()</text>
<text text-anchor="start" x="114" y="-25.5" font-family="Helvetica,sans-Serif" font-size="10.00">+</text>
<text text-anchor="start" x="127" y="-25.5" font-family="Helvetica,sans-Serif" font-size="10.00">serialize()</text>
<text text-anchor="start" x="114" y="-10.5" font-family="Helvetica,sans-Serif" font-size="10.00">+</text>
<text text-anchor="start" x="127" y="-10.5" font-family="Helvetica,sans-Serif" font-size="10.00">emptyString()</text>
<polygon fill="#666666" stroke="#666666" points="110,-125.5 110,-125.5 211,-125.5 211,-125.5 110,-125.5"/>
<polygon fill="#666666" stroke="#666666" points="110,-95.5 110,-95.5 125,-95.5 125,-95.5 110,-95.5"/>
<polygon fill="#666666" stroke="#666666" points="125,-95.5 125,-95.5 211,-95.5 211,-95.5 125,-95.5"/>
<polygon fill="none" stroke="#666666" points="109.5,-4 109.5,-143 210.5,-143 210.5,-4 109.5,-4"/>
</a>
</g>
</g>
<!-- Node2 -->
<g id="Node000002" class="node">
<title>Node2</title>
<g id="a_Node000002"><a xlink:href="structSatSys.html" target="_top" xlink:title="Object holding satellite id, and providing related functions.">
<path fill="white" stroke="#666666" d="M116.5,-476C116.5,-476 23.5,-476 23.5,-476 17.5,-476 11.5,-470 11.5,-464 11.5,-464 11.5,-206 11.5,-206 11.5,-200 17.5,-194 23.5,-194 23.5,-194 116.5,-194 116.5,-194 122.5,-194 128.5,-200 128.5,-206 128.5,-206 128.5,-464 128.5,-464 128.5,-470 122.5,-476 116.5,-476"/>
<text text-anchor="start" x="53.5" y="-460" font-family="Helvetica,sans-Serif" font-size="10.00">SatSys</text>
<text text-anchor="start" x="24" y="-445" font-family="Helvetica,sans-Serif" font-size="10.00">+</text>
<text text-anchor="start" x="37" y="-445" font-family="Helvetica,sans-Serif" font-size="10.00">sys</text>
<text text-anchor="start" x="24" y="-430" font-family="Helvetica,sans-Serif" font-size="10.00">+</text>
<text text-anchor="start" x="37" y="-430" font-family="Helvetica,sans-Serif" font-size="10.00">prn</text>
<text text-anchor="start" x="24" y="-415" font-family="Helvetica,sans-Serif" font-size="10.00">+</text>
<text text-anchor="start" x="37" y="-415" font-family="Helvetica,sans-Serif" font-size="10.00">SatSys()</text>
<text text-anchor="start" x="24" y="-400" font-family="Helvetica,sans-Serif" font-size="10.00">+</text>
<text text-anchor="start" x="37" y="-400" font-family="Helvetica,sans-Serif" font-size="10.00">sysChar()</text>
<text text-anchor="start" x="24" y="-385" font-family="Helvetica,sans-Serif" font-size="10.00">+</text>
<text text-anchor="start" x="37" y="-385" font-family="Helvetica,sans-Serif" font-size="10.00">getId()</text>
<text text-anchor="start" x="24" y="-370" font-family="Helvetica,sans-Serif" font-size="10.00">+</text>
<text text-anchor="start" x="37" y="-370" font-family="Helvetica,sans-Serif" font-size="10.00">operator int()</text>
<text text-anchor="start" x="24" y="-355" font-family="Helvetica,sans-Serif" font-size="10.00">+</text>
<text text-anchor="start" x="37" y="-355" font-family="Helvetica,sans-Serif" font-size="10.00">setBlockType()</text>
<text text-anchor="start" x="24" y="-340" font-family="Helvetica,sans-Serif" font-size="10.00">+</text>
<text text-anchor="start" x="37" y="-340" font-family="Helvetica,sans-Serif" font-size="10.00">setSvn()</text>
<text text-anchor="start" x="24" y="-325" font-family="Helvetica,sans-Serif" font-size="10.00">+</text>
<text text-anchor="start" x="37" y="-325" font-family="Helvetica,sans-Serif" font-size="10.00">blockType()</text>
<text text-anchor="start" x="24" y="-310" font-family="Helvetica,sans-Serif" font-size="10.00">+</text>
<text text-anchor="start" x="37" y="-310" font-family="Helvetica,sans-Serif" font-size="10.00">svn()</text>
<text text-anchor="start" x="24" y="-295" font-family="Helvetica,sans-Serif" font-size="10.00">+</text>
<text text-anchor="start" x="37" y="-295" font-family="Helvetica,sans-Serif" font-size="10.00">fromHash()</text>
<text text-anchor="start" x="24" y="-280" font-family="Helvetica,sans-Serif" font-size="10.00">+</text>
<text text-anchor="start" x="37" y="-280" font-family="Helvetica,sans-Serif" font-size="10.00">id()</text>
<text text-anchor="start" x="24" y="-265" font-family="Helvetica,sans-Serif" font-size="10.00">+</text>
<text text-anchor="start" x="37" y="-265" font-family="Helvetica,sans-Serif" font-size="10.00">operator string()</text>
<text text-anchor="start" x="24" y="-250" font-family="Helvetica,sans-Serif" font-size="10.00">+</text>
<text text-anchor="start" x="37" y="-250" font-family="Helvetica,sans-Serif" font-size="10.00">SatSys()</text>
<text text-anchor="start" x="24" y="-235" font-family="Helvetica,sans-Serif" font-size="10.00">+</text>
<text text-anchor="start" x="37" y="-235" font-family="Helvetica,sans-Serif" font-size="10.00">sysName()</text>
<text text-anchor="start" x="24" y="-220" font-family="Helvetica,sans-Serif" font-size="10.00">+</text>
<text text-anchor="start" x="37" y="-220" font-family="Helvetica,sans-Serif" font-size="10.00">serialize()</text>
<text text-anchor="start" x="24" y="-205" font-family="Helvetica,sans-Serif" font-size="10.00">+</text>
<text text-anchor="start" x="37" y="-205" font-family="Helvetica,sans-Serif" font-size="10.00">sysFromChar()</text>
<polygon fill="#666666" stroke="#666666" points="20,-455 20,-455 121,-455 121,-455 20,-455"/>
<polygon fill="#666666" stroke="#666666" points="20,-425 20,-425 35,-425 35,-425 20,-425"/>
<polygon fill="#666666" stroke="#666666" points="35,-425 35,-425 121,-425 121,-425 35,-425"/>
<polygon fill="none" stroke="#666666" points="19.5,-198 19.5,-472 120.5,-472 120.5,-198 19.5,-198"/>
</a>
</g>
</g>
<!-- Node2&#45;&gt;Node1 -->
<g id="edge1_Node000001_Node000002" class="edge">
<title>Node2&#45;&gt;Node1</title>
<g id="a_edge1_Node000001_Node000002"><a xlink:title=" ">
<path fill="none" stroke="#63b8ff" d="M107.98,-193.73C111.2,-183.95 114.55,-174.29 118,-165 118.81,-162.81 119.66,-160.6 120.53,-158.37"/>
<polygon fill="none" stroke="#63b8ff" points="120.56,-158.3 119.11,-151.24 125.07,-147.18 126.52,-154.25 120.56,-158.3"/>
</a>
</g>
<text text-anchor="middle" x="132" y="-168" font-family="Helvetica,sans-Serif" font-size="10.00" fill="grey"> +Sat</text>
</g>
<!-- Node3 -->
<g id="Node000003" class="node">
<title>Node3</title>
<g id="a_Node000003"><a xlink:title=" ">
<path fill="#fff0f0" stroke="red" d="M120,-671.5C120,-671.5 12,-671.5 12,-671.5 6,-671.5 0,-665.5 0,-659.5 0,-659.5 0,-615.5 0,-615.5 0,-609.5 6,-603.5 12,-603.5 12,-603.5 120,-603.5 120,-603.5 126,-603.5 132,-609.5 132,-615.5 132,-615.5 132,-659.5 132,-659.5 132,-665.5 126,-671.5 120,-671.5"/>
<text text-anchor="start" x="13" y="-655.5" font-family="Helvetica,sans-Serif" font-size="10.00">map&lt; SatSys, SatSys</text>
<text text-anchor="start" x="37.5" y="-644.5" font-family="Helvetica,sans-Serif" font-size="10.00">::SatData &gt;</text>
<text text-anchor="start" x="64" y="-629.5" font-family="Helvetica,sans-Serif" font-size="10.00"> </text>
<text text-anchor="start" x="64" y="-614.5" font-family="Helvetica,sans-Serif" font-size="10.00"> </text>
<polygon fill="red" stroke="red" points="8,-639.5 8,-639.5 124,-639.5 124,-639.5 8,-639.5"/>
<polygon fill="red" stroke="red" points="8,-624.5 8,-624.5 124,-624.5 124,-624.5 8,-624.5"/>
<polygon fill="none" stroke="red" points="8,-607.5 8,-667.5 124,-667.5 124,-607.5 8,-607.5"/>
</a>
</g>
</g>
<!-- Node3&#45;&gt;Node2 -->
<g id="edge2_Node000002_Node000003" class="edge">
<title>Node3&#45;&gt;Node2</title>
<g id="a_edge2_Node000002_Node000003"><a xlink:title=" ">
<path fill="none" stroke="#63b8ff" d="M66.12,-603.39C66.25,-574.5 66.51,-531.48 67,-494 67.02,-492.2 67.05,-490.39 67.07,-488.57"/>
<polygon fill="none" stroke="#63b8ff" points="67.07,-488.42 63.16,-482.36 67.25,-476.42 71.16,-482.48 67.07,-488.42"/>
</a>
</g>
<text text-anchor="middle" x="102.5" y="-502.5" font-family="Helvetica,sans-Serif" font-size="10.00" fill="grey"> +satDataMap</text>
</g>
<!-- Node5 -->
<g id="Node000005" class="node">
<title>Node5</title>
<g id="a_Node000005"><a xlink:title=" ">
<path fill="white" stroke="#666666" d="M208,-927C208,-927 178,-927 178,-927 172,-927 166,-921 166,-915 166,-915 166,-882 166,-882 166,-876 172,-870 178,-870 178,-870 208,-870 208,-870 214,-870 220,-876 220,-882 220,-882 220,-915 220,-915 220,-921 214,-927 208,-927"/>
<text text-anchor="start" x="179" y="-910.5" font-family="Helvetica,sans-Serif" font-size="10.00">string</text>
<text text-anchor="start" x="191" y="-895.5" font-family="Helvetica,sans-Serif" font-size="10.00"> </text>
<text text-anchor="start" x="191" y="-880.5" font-family="Helvetica,sans-Serif" font-size="10.00"> </text>
<polygon fill="#666666" stroke="#666666" points="174,-905.5 174,-905.5 212,-905.5 212,-905.5 174,-905.5"/>
<polygon fill="#666666" stroke="#666666" points="174,-890.5 174,-890.5 212,-890.5 212,-890.5 174,-890.5"/>
<polygon fill="none" stroke="#666666" points="174,-874 174,-923 212,-923 212,-874 174,-874"/>
</a>
</g>
</g>
<!-- Node5&#45;&gt;Node1 -->
<g id="edge3_Node000001_Node000005" class="edge">
<title>Node5&#45;&gt;Node1</title>
<g id="a_edge3_Node000001_Node000005"><a xlink:title=" ">
<path fill="none" stroke="#63b8ff" d="M191.47,-869.8C189.77,-838.53 187,-786.12 185,-741 175.74,-531.93 167.09,-285.87 162.81,-159.25"/>
<polygon fill="none" stroke="#63b8ff" points="162.8,-159 158.6,-153.13 162.4,-147 166.6,-152.86 162.8,-159"/>
</a>
</g>
<text text-anchor="middle" x="205" y="-508" font-family="Helvetica,sans-Serif" font-size="10.00" fill="grey"> +comment</text>
<text text-anchor="middle" x="205" y="-497" font-family="Helvetica,sans-Serif" font-size="10.00" fill="grey">+str</text>
</g>
<!-- Node6 -->
<g id="Node000006" class="node">
<title>Node6</title>
<g id="a_Node000006"><a xlink:href="structReceiver.html" target="_top" xlink:title="Object to maintain receiver station data.">
<path fill="white" stroke="#666666" d="M953,-446C953,-446 851,-446 851,-446 845,-446 839,-440 839,-434 839,-434 839,-236 839,-236 839,-230 845,-224 851,-224 851,-224 953,-224 953,-224 959,-224 965,-230 965,-236 965,-236 965,-434 965,-434 965,-440 959,-446 953,-446"/>
<text text-anchor="start" x="880.5" y="-430" font-family="Helvetica,sans-Serif" font-size="10.00">Receiver</text>
<text text-anchor="start" x="851" y="-415" font-family="Helvetica,sans-Serif" font-size="10.00">+</text>
<text text-anchor="start" x="864" y="-415" font-family="Helvetica,sans-Serif" font-size="10.00">isPseudoRec</text>
<text text-anchor="start" x="851" y="-400" font-family="Helvetica,sans-Serif" font-size="10.00">+</text>
<text text-anchor="start" x="864" y="-400" font-family="Helvetica,sans-Serif" font-size="10.00">invalid</text>
<text text-anchor="start" x="851" y="-385" font-family="Helvetica,sans-Serif" font-size="10.00">+</text>
<text text-anchor="start" x="864" y="-385" font-family="Helvetica,sans-Serif" font-size="10.00">primaryApriori</text>
<text text-anchor="start" x="851" y="-370" font-family="Helvetica,sans-Serif" font-size="10.00">+</text>
<text text-anchor="start" x="864" y="-370" font-family="Helvetica,sans-Serif" font-size="10.00">aprioriClk</text>
<text text-anchor="start" x="851" y="-355" font-family="Helvetica,sans-Serif" font-size="10.00">+</text>
<text text-anchor="start" x="864" y="-355" font-family="Helvetica,sans-Serif" font-size="10.00">aprioriClkVar</text>
<text text-anchor="start" x="851" y="-340" font-family="Helvetica,sans-Serif" font-size="10.00">+</text>
<text text-anchor="start" x="864" y="-340" font-family="Helvetica,sans-Serif" font-size="10.00">ready</text>
<text text-anchor="start" x="851" y="-325" font-family="Helvetica,sans-Serif" font-size="10.00">+</text>
<text text-anchor="start" x="864" y="-325" font-family="Helvetica,sans-Serif" font-size="10.00">failure</text>
<text text-anchor="start" x="851" y="-310" font-family="Helvetica,sans-Serif" font-size="10.00">+</text>
<text text-anchor="start" x="864" y="-310" font-family="Helvetica,sans-Serif" font-size="10.00">failureSinex</text>
<text text-anchor="start" x="851" y="-295" font-family="Helvetica,sans-Serif" font-size="10.00">+</text>
<text text-anchor="start" x="864" y="-295" font-family="Helvetica,sans-Serif" font-size="10.00">failureAprioriPos</text>
<text text-anchor="start" x="851" y="-280" font-family="Helvetica,sans-Serif" font-size="10.00">+</text>
<text text-anchor="start" x="864" y="-280" font-family="Helvetica,sans-Serif" font-size="10.00">failureEccentricity</text>
<text text-anchor="start" x="851" y="-265" font-family="Helvetica,sans-Serif" font-size="10.00">+</text>
<text text-anchor="start" x="864" y="-265" font-family="Helvetica,sans-Serif" font-size="10.00">failureAntenna</text>
<text text-anchor="start" x="851" y="-250" font-family="Helvetica,sans-Serif" font-size="10.00">+</text>
<text text-anchor="start" x="864" y="-250" font-family="Helvetica,sans-Serif" font-size="10.00">@37</text>
<text text-anchor="start" x="900" y="-235" font-family="Helvetica,sans-Serif" font-size="10.00"> </text>
<polygon fill="#666666" stroke="#666666" points="847,-425 847,-425 957,-425 957,-425 847,-425"/>
<polygon fill="#666666" stroke="#666666" points="847,-245 847,-245 862,-245 862,-245 847,-245"/>
<polygon fill="#666666" stroke="#666666" points="862,-245 862,-245 957,-245 957,-245 862,-245"/>
<polygon fill="none" stroke="#666666" points="847,-228 847,-442 957,-442 957,-228 847,-228"/>
</a>
</g>
</g>
<!-- Node5&#45;&gt;Node6 -->
<g id="edge12_Node000006_Node000005" class="edge">
<title>Node5&#45;&gt;Node6</title>
<g id="a_edge12_Node000006_Node000005"><a xlink:title=" ">
<path fill="none" stroke="#63b8ff" d="M217.86,-869.72C234.27,-849.63 254.61,-821.02 265,-792 303.81,-683.62 216.16,-623.96 288,-534 420.54,-368.03 693.63,-339.3 826.32,-335.56"/>
<polygon fill="none" stroke="#63b8ff" points="826.72,-335.55 832.62,-331.41 838.71,-335.27 832.81,-339.41 826.72,-335.55"/>
</a>
</g>
<text text-anchor="middle" x="338" y="-646" font-family="Helvetica,sans-Serif" font-size="10.00" fill="grey"> +id</text>
<text text-anchor="middle" x="338" y="-635" font-family="Helvetica,sans-Serif" font-size="10.00" fill="grey">+jsonTraceFilename</text>
<text text-anchor="middle" x="338" y="-624" font-family="Helvetica,sans-Serif" font-size="10.00" fill="grey">+traceFilename</text>
</g>
<!-- Node11 -->
<g id="Node000011" class="node">
<title>Node11</title>
<g id="a_Node000011"><a xlink:href="structRtk.html" target="_top" xlink:title=" ">
<path fill="#fff0f0" stroke="red" d="M225.5,-666C225.5,-666 206.5,-666 206.5,-666 200.5,-666 194.5,-660 194.5,-654 194.5,-654 194.5,-621 194.5,-621 194.5,-615 200.5,-609 206.5,-609 206.5,-609 225.5,-609 225.5,-609 231.5,-609 237.5,-615 237.5,-621 237.5,-621 237.5,-654 237.5,-654 237.5,-660 231.5,-666 225.5,-666"/>
<text text-anchor="start" x="208" y="-649.5" font-family="Helvetica,sans-Serif" font-size="10.00">Rtk</text>
<text text-anchor="start" x="214.5" y="-634.5" font-family="Helvetica,sans-Serif" font-size="10.00"> </text>
<text text-anchor="start" x="214.5" y="-619.5" font-family="Helvetica,sans-Serif" font-size="10.00"> </text>
<polygon fill="red" stroke="red" points="203,-644.5 203,-644.5 230,-644.5 230,-644.5 203,-644.5"/>
<polygon fill="red" stroke="red" points="203,-629.5 203,-629.5 230,-629.5 230,-629.5 203,-629.5"/>
<polygon fill="none" stroke="red" points="202.5,-613 202.5,-662 229.5,-662 229.5,-613 202.5,-613"/>
</a>
</g>
</g>
<!-- Node5&#45;&gt;Node11 -->
<g id="edge7_Node000011_Node000005" class="edge">
<title>Node5&#45;&gt;Node11</title>
<g id="a_edge7_Node000011_Node000005"><a xlink:title=" ">
<path fill="none" stroke="#63b8ff" d="M191.79,-869.84C190.9,-841.83 190.39,-797.3 194,-759 196.57,-731.72 202.12,-701.38 207.01,-677.96"/>
<polygon fill="none" stroke="#63b8ff" points="207.04,-677.8 204.39,-671.1 209.56,-666.07 212.21,-672.77 207.04,-677.8"/>
</a>
</g>
<text text-anchor="middle" x="229.5" y="-784" font-family="Helvetica,sans-Serif" font-size="10.00" fill="grey"> +antennaId</text>
<text text-anchor="middle" x="229.5" y="-773" font-family="Helvetica,sans-Serif" font-size="10.00" fill="grey">+antennaType</text>
<text text-anchor="middle" x="229.5" y="-762" font-family="Helvetica,sans-Serif" font-size="10.00" fill="grey">+receiverType</text>
</g>
<!-- Node6&#45;&gt;Node1 -->
<g id="edge4_Node000001_Node000006" class="edge">
<title>Node6&#45;&gt;Node1</title>
<g id="a_edge4_Node000001_Node000006"><a xlink:title=" ">
<path fill="none" stroke="#63b8ff" d="M838.74,-311.88C700.94,-263.68 374.49,-149.51 230.42,-99.13"/>
<polygon fill="none" stroke="#63b8ff" points="230.03,-98.99 223.05,-100.79 218.71,-95.03 225.69,-93.24 230.03,-98.99"/>
</a>
</g>
<text text-anchor="middle" x="466" y="-168" font-family="Helvetica,sans-Serif" font-size="10.00" fill="grey"> +rec_ptr</text>
</g>
<!-- Node7 -->
<g id="Node000007" class="node">
<title>Node7</title>
<g id="a_Node000007"><a xlink:href="structReceiverLogs.html" target="_top" xlink:title=" ">
<path fill="#fff0f0" stroke="red" d="M520.5,-696C520.5,-696 409.5,-696 409.5,-696 403.5,-696 397.5,-690 397.5,-684 397.5,-684 397.5,-591 397.5,-591 397.5,-585 403.5,-579 409.5,-579 409.5,-579 520.5,-579 520.5,-579 526.5,-579 532.5,-585 532.5,-591 532.5,-591 532.5,-684 532.5,-684 532.5,-690 526.5,-696 520.5,-696"/>
<text text-anchor="start" x="432.5" y="-679.5" font-family="Helvetica,sans-Serif" font-size="10.00">ReceiverLogs</text>
<text text-anchor="start" x="410" y="-664.5" font-family="Helvetica,sans-Serif" font-size="10.00">+</text>
<text text-anchor="start" x="423" y="-664.5" font-family="Helvetica,sans-Serif" font-size="10.00">epochCount</text>
<text text-anchor="start" x="410" y="-649.5" font-family="Helvetica,sans-Serif" font-size="10.00">+</text>
<text text-anchor="start" x="423" y="-649.5" font-family="Helvetica,sans-Serif" font-size="10.00">obsCount</text>
<text text-anchor="start" x="410" y="-634.5" font-family="Helvetica,sans-Serif" font-size="10.00">+</text>
<text text-anchor="start" x="423" y="-634.5" font-family="Helvetica,sans-Serif" font-size="10.00">slipCount</text>
<text text-anchor="start" x="410" y="-619.5" font-family="Helvetica,sans-Serif" font-size="10.00">+</text>
<text text-anchor="start" x="423" y="-619.5" font-family="Helvetica,sans-Serif" font-size="10.00">receiverErrorEpochs</text>
<text text-anchor="start" x="410" y="-604.5" font-family="Helvetica,sans-Serif" font-size="10.00">+</text>
<text text-anchor="start" x="423" y="-604.5" font-family="Helvetica,sans-Serif" font-size="10.00">receiverErrorCount</text>
<text text-anchor="start" x="463.5" y="-589.5" font-family="Helvetica,sans-Serif" font-size="10.00"> </text>
<polygon fill="red" stroke="red" points="406,-674.5 406,-674.5 525,-674.5 525,-674.5 406,-674.5"/>
<polygon fill="red" stroke="red" points="406,-599.5 406,-599.5 421,-599.5 421,-599.5 406,-599.5"/>
<polygon fill="red" stroke="red" points="421,-599.5 421,-599.5 525,-599.5 525,-599.5 421,-599.5"/>
<polygon fill="none" stroke="red" points="405.5,-583 405.5,-692 524.5,-692 524.5,-583 405.5,-583"/>
</a>
</g>
</g>
<!-- Node7&#45;&gt;Node6 -->
<g id="edge5_Node000006_Node000007" class="edge">
<title>Node7&#45;&gt;Node6</title>
<g id="a_edge5_Node000006_Node000007"><a xlink:title=" ">
<path fill="none" stroke="#63b8ff" d="M507.18,-570.7C517.31,-557.63 528.76,-544.67 541,-534 632.85,-453.89 762.48,-392.66 838.83,-360.7"/>
<polygon fill="none" stroke="#63b8ff" points="504.28,-568.74 501.06,-578.83 509.87,-572.95 504.28,-568.74"/>
</a>
</g>
</g>
<!-- Node11&#45;&gt;Node6 -->
<g id="edge6_Node000006_Node000011" class="edge">
<title>Node11&#45;&gt;Node6</title>
<g id="a_edge6_Node000006_Node000011"><a xlink:title=" ">
<path fill="none" stroke="#63b8ff" d="M219.08,-598.95C223.75,-566.62 235.49,-521.02 265,-494 349.61,-416.53 695.27,-363.17 838.93,-343.93"/>
<polygon fill="none" stroke="#63b8ff" points="215.6,-598.58 217.8,-608.94 222.54,-599.47 215.6,-598.58"/>
</a>
</g>
</g>
<!-- Node41 -->
<g id="Node000041" class="node">
<title>Node41</title>
<g id="a_Node000041"><a xlink:href="structSinexRecData.html" target="_top" xlink:title=" ">
<path fill="#fff0f0" stroke="red" d="M633.5,-666C633.5,-666 562.5,-666 562.5,-666 556.5,-666 550.5,-660 550.5,-654 550.5,-654 550.5,-621 550.5,-621 550.5,-615 556.5,-609 562.5,-609 562.5,-609 633.5,-609 633.5,-609 639.5,-609 645.5,-615 645.5,-621 645.5,-621 645.5,-654 645.5,-654 645.5,-660 639.5,-666 633.5,-666"/>
<text text-anchor="start" x="564" y="-649.5" font-family="Helvetica,sans-Serif" font-size="10.00">SinexRecData</text>
<text text-anchor="start" x="567.5" y="-634.5" font-family="Helvetica,sans-Serif" font-size="10.00">+</text>
<text text-anchor="start" x="585" y="-634.5" font-family="Helvetica,sans-Serif" font-size="10.00">primary</text>
<text text-anchor="start" x="596.5" y="-619.5" font-family="Helvetica,sans-Serif" font-size="10.00"> </text>
<polygon fill="red" stroke="red" points="559,-644.5 559,-644.5 638,-644.5 638,-644.5 559,-644.5"/>
<polygon fill="red" stroke="red" points="559,-629.5 559,-629.5 583,-629.5 583,-629.5 559,-629.5"/>
<polygon fill="red" stroke="red" points="583,-629.5 583,-629.5 638,-629.5 638,-629.5 583,-629.5"/>
<polygon fill="none" stroke="red" points="558.5,-613 558.5,-662 637.5,-662 637.5,-613 558.5,-613"/>
</a>
</g>
</g>
<!-- Node41&#45;&gt;Node6 -->
<g id="edge8_Node000006_Node000041" class="edge">
<title>Node41&#45;&gt;Node6</title>
<g id="a_edge8_Node000006_Node000041"><a xlink:title=" ">
<path fill="none" stroke="#63b8ff" d="M599.96,-608.89C603.4,-578.05 612.89,-527.99 639,-494 687.31,-431.1 768.4,-387.92 827.79,-362.79"/>
<polygon fill="none" stroke="#63b8ff" points="827.9,-362.75 831.92,-356.76 838.99,-358.16 834.98,-364.15 827.9,-362.75"/>
</a>
</g>
<text text-anchor="middle" x="653.5" y="-502.5" font-family="Helvetica,sans-Serif" font-size="10.00" fill="grey"> +snx</text>
</g>
<!-- Node44 -->
<g id="Node000044" class="node">
<title>Node44</title>
<g id="a_Node000044"><a xlink:href="structUYds.html" target="_top" xlink:title=" ">
<path fill="#fff0f0" stroke="red" d="M697,-987C697,-987 599,-987 599,-987 593,-987 587,-981 587,-975 587,-975 587,-822 587,-822 587,-816 593,-810 599,-810 599,-810 697,-810 697,-810 703,-810 709,-816 709,-822 709,-822 709,-975 709,-975 709,-981 703,-987 697,-987"/>
<text text-anchor="start" x="635.5" y="-970.5" font-family="Helvetica,sans-Serif" font-size="10.00">UYds</text>
<text text-anchor="start" x="599" y="-955.5" font-family="Helvetica,sans-Serif" font-size="10.00">+</text>
<text text-anchor="start" x="612" y="-955.5" font-family="Helvetica,sans-Serif" font-size="10.00">year</text>
<text text-anchor="start" x="599" y="-940.5" font-family="Helvetica,sans-Serif" font-size="10.00">+</text>
<text text-anchor="start" x="612" y="-940.5" font-family="Helvetica,sans-Serif" font-size="10.00">doy</text>
<text text-anchor="start" x="599" y="-925.5" font-family="Helvetica,sans-Serif" font-size="10.00">+</text>
<text text-anchor="start" x="612" y="-925.5" font-family="Helvetica,sans-Serif" font-size="10.00">sod</text>
<text text-anchor="start" x="599" y="-910.5" font-family="Helvetica,sans-Serif" font-size="10.00">+</text>
<text text-anchor="start" x="612" y="-910.5" font-family="Helvetica,sans-Serif" font-size="10.00">UYds()</text>
<text text-anchor="start" x="599" y="-895.5" font-family="Helvetica,sans-Serif" font-size="10.00">+</text>
<text text-anchor="start" x="612" y="-895.5" font-family="Helvetica,sans-Serif" font-size="10.00">UYds()</text>
<text text-anchor="start" x="599" y="-880.5" font-family="Helvetica,sans-Serif" font-size="10.00">+</text>
<text text-anchor="start" x="612" y="-880.5" font-family="Helvetica,sans-Serif" font-size="10.00">operator=()</text>
<text text-anchor="start" x="599" y="-865.5" font-family="Helvetica,sans-Serif" font-size="10.00">+</text>
<text text-anchor="start" x="612" y="-865.5" font-family="Helvetica,sans-Serif" font-size="10.00">UYds()</text>
<text text-anchor="start" x="599" y="-850.5" font-family="Helvetica,sans-Serif" font-size="10.00">+</text>
<text text-anchor="start" x="612" y="-850.5" font-family="Helvetica,sans-Serif" font-size="10.00">operator+=()</text>
<text text-anchor="start" x="599" y="-835.5" font-family="Helvetica,sans-Serif" font-size="10.00">+</text>
<text text-anchor="start" x="612" y="-835.5" font-family="Helvetica,sans-Serif" font-size="10.00">operator=()</text>
<text text-anchor="start" x="599" y="-820.5" font-family="Helvetica,sans-Serif" font-size="10.00">+</text>
<text text-anchor="start" x="612" y="-820.5" font-family="Helvetica,sans-Serif" font-size="10.00">operator GTime()</text>
<polygon fill="red" stroke="red" points="595,-965.5 595,-965.5 701,-965.5 701,-965.5 595,-965.5"/>
<polygon fill="red" stroke="red" points="595,-920.5 595,-920.5 610,-920.5 610,-920.5 595,-920.5"/>
<polygon fill="red" stroke="red" points="610,-920.5 610,-920.5 701,-920.5 701,-920.5 610,-920.5"/>
<polygon fill="none" stroke="red" points="595,-814 595,-983 701,-983 701,-814 595,-814"/>
</a>
</g>
</g>
<!-- Node44&#45;&gt;Node6 -->
<g id="edge13_Node000006_Node000044" class="edge">
<title>Node44&#45;&gt;Node6</title>
<g id="a_edge13_Node000006_Node000044"><a xlink:title=" ">
<path fill="none" stroke="#63b8ff" d="M663.46,-809.78C664.37,-803.77 665.23,-797.8 666,-792 681.25,-677.81 640.18,-637.39 691,-534 721.68,-471.58 780.9,-418.76 828.81,-383.41"/>
<polygon fill="none" stroke="#63b8ff" points="828.82,-383.4 831.33,-376.64 838.54,-376.36 836.03,-383.12 828.82,-383.4"/>
</a>
</g>
<text text-anchor="middle" x="725" y="-635" font-family="Helvetica,sans-Serif" font-size="10.00" fill="grey"> +aprioriTime</text>
</g>
<!-- Node44&#45;&gt;Node41 -->
<g id="edge9_Node000041_Node000044" class="edge">
<title>Node44&#45;&gt;Node41</title>
<g id="a_edge9_Node000041_Node000044"><a xlink:title=" ">
<path fill="none" stroke="#63b8ff" d="M631.07,-809.81C622.44,-765.11 612.38,-712.97 605.64,-678.06"/>
<polygon fill="none" stroke="#63b8ff" points="605.59,-677.8 600.52,-672.67 603.31,-666.02 608.38,-671.15 605.59,-677.8"/>
</a>
</g>
<text text-anchor="middle" x="645" y="-778.5" font-family="Helvetica,sans-Serif" font-size="10.00" fill="grey"> +start</text>
<text text-anchor="middle" x="645" y="-767.5" font-family="Helvetica,sans-Serif" font-size="10.00" fill="grey">+stop</text>
</g>
<!-- Node31 -->
<g id="Node000031" class="node">
<title>Node31</title>
<g id="a_Node000031"><a xlink:title=" ">
<path fill="#fff0f0" stroke="red" d="M888,-666C888,-666 780,-666 780,-666 774,-666 768,-660 768,-654 768,-654 768,-621 768,-621 768,-615 774,-609 780,-609 780,-609 888,-609 888,-609 894,-609 900,-615 900,-621 900,-621 900,-654 900,-654 900,-660 894,-666 888,-666"/>
<text text-anchor="start" x="781" y="-649.5" font-family="Helvetica,sans-Serif" font-size="10.00">map&lt; string, string &gt;</text>
<text text-anchor="start" x="832" y="-634.5" font-family="Helvetica,sans-Serif" font-size="10.00"> </text>
<text text-anchor="start" x="832" y="-619.5" font-family="Helvetica,sans-Serif" font-size="10.00"> </text>
<polygon fill="red" stroke="red" points="776,-644.5 776,-644.5 892,-644.5 892,-644.5 776,-644.5"/>
<polygon fill="red" stroke="red" points="776,-629.5 776,-629.5 892,-629.5 892,-629.5 776,-629.5"/>
<polygon fill="none" stroke="red" points="776,-613 776,-662 892,-662 892,-613 776,-613"/>
</a>
</g>
</g>
<!-- Node31&#45;&gt;Node6 -->
<g id="edge10_Node000006_Node000031" class="edge">
<title>Node31&#45;&gt;Node6</title>
<g id="a_edge10_Node000006_Node000031"><a xlink:title=" ">
<path fill="none" stroke="#63b8ff" d="M840.17,-608.91C846.59,-580.2 856.97,-533.94 866,-494 868.66,-482.25 871.43,-470.01 874.21,-457.78"/>
<polygon fill="none" stroke="#63b8ff" points="874.22,-457.76 871.65,-451.03 876.88,-446.06 879.45,-452.8 874.22,-457.76"/>
</a>
</g>
<text text-anchor="middle" x="907" y="-502.5" font-family="Helvetica,sans-Serif" font-size="10.00" fill="grey"> +metaDataMap</text>
</g>
<!-- Node48 -->
<g id="Node000048" class="node">
<title>Node48</title>
<g id="a_Node000048"><a xlink:href="structObsList.html" target="_top" xlink:title="List of observations for an epoch.">
<path fill="#fff0f0" stroke="red" d="M1009.5,-666C1009.5,-666 930.5,-666 930.5,-666 924.5,-666 918.5,-660 918.5,-654 918.5,-654 918.5,-621 918.5,-621 918.5,-615 924.5,-609 930.5,-609 930.5,-609 1009.5,-609 1009.5,-609 1015.5,-609 1021.5,-615 1021.5,-621 1021.5,-621 1021.5,-654 1021.5,-654 1021.5,-660 1015.5,-666 1009.5,-666"/>
<text text-anchor="start" x="952" y="-649.5" font-family="Helvetica,sans-Serif" font-size="10.00">ObsList</text>
<text text-anchor="start" x="968.5" y="-634.5" font-family="Helvetica,sans-Serif" font-size="10.00"> </text>
<text text-anchor="start" x="931" y="-619.5" font-family="Helvetica,sans-Serif" font-size="10.00">+</text>
<text text-anchor="start" x="944" y="-619.5" font-family="Helvetica,sans-Serif" font-size="10.00">operator+=()</text>
<polygon fill="red" stroke="red" points="927,-644.5 927,-644.5 1014,-644.5 1014,-644.5 927,-644.5"/>
<polygon fill="red" stroke="red" points="927,-629.5 927,-629.5 1014,-629.5 1014,-629.5 927,-629.5"/>
<polygon fill="none" stroke="red" points="926.5,-613 926.5,-662 1013.5,-662 1013.5,-613 926.5,-613"/>
</a>
</g>
</g>
<!-- Node48&#45;&gt;Node6 -->
<g id="edge11_Node000006_Node000048" class="edge">
<title>Node48&#45;&gt;Node6</title>
<g id="a_edge11_Node000006_Node000048"><a xlink:title=" ">
<path fill="none" stroke="#63b8ff" d="M966.83,-608.98C963.26,-580.14 956.78,-533.59 948,-494 945.37,-482.16 942.36,-469.91 939.15,-457.7"/>
<polygon fill="none" stroke="#63b8ff" points="939.12,-457.62 933.71,-452.86 936.02,-446.03 941.43,-450.79 939.12,-457.62"/>
</a>
</g>
<text text-anchor="middle" x="975" y="-502.5" font-family="Helvetica,sans-Serif" font-size="10.00" fill="grey"> +obsList</text>
</g>
<!-- Node35 -->
<g id="Node000035" class="node">
<title>Node35</title>
<g id="a_Node000035"><a xlink:title=" ">
<path fill="white" stroke="#666666" d="M1122.5,-927C1122.5,-927 1077.5,-927 1077.5,-927 1071.5,-927 1065.5,-921 1065.5,-915 1065.5,-915 1065.5,-882 1065.5,-882 1065.5,-876 1071.5,-870 1077.5,-870 1077.5,-870 1122.5,-870 1122.5,-870 1128.5,-870 1134.5,-876 1134.5,-882 1134.5,-882 1134.5,-915 1134.5,-915 1134.5,-921 1128.5,-927 1122.5,-927"/>
<text text-anchor="start" x="1079" y="-910.5" font-family="Helvetica,sans-Serif" font-size="10.00">Vector3d</text>
<text text-anchor="start" x="1098.5" y="-895.5" font-family="Helvetica,sans-Serif" font-size="10.00"> </text>
<text text-anchor="start" x="1098.5" y="-880.5" font-family="Helvetica,sans-Serif" font-size="10.00"> </text>
<polygon fill="#666666" stroke="#666666" points="1074,-905.5 1074,-905.5 1127,-905.5 1127,-905.5 1074,-905.5"/>
<polygon fill="#666666" stroke="#666666" points="1074,-890.5 1074,-890.5 1127,-890.5 1127,-890.5 1074,-890.5"/>
<polygon fill="none" stroke="#666666" points="1073.5,-874 1073.5,-923 1126.5,-923 1126.5,-874 1073.5,-874"/>
</a>
</g>
</g>
<!-- Node35&#45;&gt;Node6 -->
<g id="edge14_Node000006_Node000035" class="edge">
<title>Node35&#45;&gt;Node6</title>
<g id="a_edge14_Node000006_Node000035"><a xlink:title=" ">
<path fill="none" stroke="#63b8ff" d="M1094.17,-869.83C1087.62,-838.58 1076.77,-786.19 1068,-741 1050.19,-649.17 1064.5,-620.94 1030,-534 1015.42,-497.27 993.64,-460.08 972.15,-428"/>
<polygon fill="none" stroke="#63b8ff" points="971.94,-427.69 965.26,-424.98 965.19,-417.77 971.87,-420.48 971.94,-427.69"/>
</a>
</g>
<text text-anchor="middle" x="1106.5" y="-651.5" font-family="Helvetica,sans-Serif" font-size="10.00" fill="grey"> +antAzimuth</text>
<text text-anchor="middle" x="1106.5" y="-640.5" font-family="Helvetica,sans-Serif" font-size="10.00" fill="grey">+antBoresight</text>
<text text-anchor="middle" x="1106.5" y="-629.5" font-family="Helvetica,sans-Serif" font-size="10.00" fill="grey">+aprioriPos</text>
<text text-anchor="middle" x="1106.5" y="-618.5" font-family="Helvetica,sans-Serif" font-size="10.00" fill="grey">+minconApriori</text>
</g>
<!-- Node51 -->
<g id="Node000051" class="node">
<title>Node51</title>
<g id="a_Node000051"><a xlink:href="structVectorPos.html" target="_top" xlink:title=" ">
<path fill="white" stroke="#666666" d="M1236.5,-741C1236.5,-741 1165.5,-741 1165.5,-741 1159.5,-741 1153.5,-735 1153.5,-729 1153.5,-729 1153.5,-546 1153.5,-546 1153.5,-540 1159.5,-534 1165.5,-534 1165.5,-534 1236.5,-534 1236.5,-534 1242.5,-534 1248.5,-540 1248.5,-546 1248.5,-546 1248.5,-729 1248.5,-729 1248.5,-735 1242.5,-741 1236.5,-741"/>
<text text-anchor="start" x="1177" y="-724.5" font-family="Helvetica,sans-Serif" font-size="10.00">VectorPos</text>
<text text-anchor="start" x="1199.5" y="-709.5" font-family="Helvetica,sans-Serif" font-size="10.00"> </text>
<text text-anchor="start" x="1166" y="-694.5" font-family="Helvetica,sans-Serif" font-size="10.00">+</text>
<text text-anchor="start" x="1179" y="-694.5" font-family="Helvetica,sans-Serif" font-size="10.00">VectorPos()</text>
<text text-anchor="start" x="1166" y="-679.5" font-family="Helvetica,sans-Serif" font-size="10.00">+</text>
<text text-anchor="start" x="1179" y="-679.5" font-family="Helvetica,sans-Serif" font-size="10.00">VectorPos()</text>
<text text-anchor="start" x="1166" y="-664.5" font-family="Helvetica,sans-Serif" font-size="10.00">+</text>
<text text-anchor="start" x="1179" y="-664.5" font-family="Helvetica,sans-Serif" font-size="10.00">operator=()</text>
<text text-anchor="start" x="1166" y="-649.5" font-family="Helvetica,sans-Serif" font-size="10.00">+</text>
<text text-anchor="start" x="1179" y="-649.5" font-family="Helvetica,sans-Serif" font-size="10.00">lat()</text>
<text text-anchor="start" x="1166" y="-634.5" font-family="Helvetica,sans-Serif" font-size="10.00">+</text>
<text text-anchor="start" x="1179" y="-634.5" font-family="Helvetica,sans-Serif" font-size="10.00">lon()</text>
<text text-anchor="start" x="1166" y="-619.5" font-family="Helvetica,sans-Serif" font-size="10.00">+</text>
<text text-anchor="start" x="1179" y="-619.5" font-family="Helvetica,sans-Serif" font-size="10.00">hgt()</text>
<text text-anchor="start" x="1166" y="-604.5" font-family="Helvetica,sans-Serif" font-size="10.00">+</text>
<text text-anchor="start" x="1179" y="-604.5" font-family="Helvetica,sans-Serif" font-size="10.00">lat()</text>
<text text-anchor="start" x="1166" y="-589.5" font-family="Helvetica,sans-Serif" font-size="10.00">+</text>
<text text-anchor="start" x="1179" y="-589.5" font-family="Helvetica,sans-Serif" font-size="10.00">lon()</text>
<text text-anchor="start" x="1166" y="-574.5" font-family="Helvetica,sans-Serif" font-size="10.00">+</text>
<text text-anchor="start" x="1179" y="-574.5" font-family="Helvetica,sans-Serif" font-size="10.00">hgt()</text>
<text text-anchor="start" x="1166" y="-559.5" font-family="Helvetica,sans-Serif" font-size="10.00">+</text>
<text text-anchor="start" x="1179" y="-559.5" font-family="Helvetica,sans-Serif" font-size="10.00">latDeg()</text>
<text text-anchor="start" x="1166" y="-544.5" font-family="Helvetica,sans-Serif" font-size="10.00">+</text>
<text text-anchor="start" x="1179" y="-544.5" font-family="Helvetica,sans-Serif" font-size="10.00">lonDeg()</text>
<polygon fill="#666666" stroke="#666666" points="1162,-719.5 1162,-719.5 1241,-719.5 1241,-719.5 1162,-719.5"/>
<polygon fill="#666666" stroke="#666666" points="1162,-704.5 1162,-704.5 1241,-704.5 1241,-704.5 1162,-704.5"/>
<polygon fill="none" stroke="#666666" points="1161.5,-538 1161.5,-737 1240.5,-737 1240.5,-538 1161.5,-538"/>
</a>
</g>
</g>
<!-- Node35&#45;&gt;Node51 -->
<g id="edge17_Node000051_Node000035" class="edge">
<title>Node35&#45;&gt;Node51</title>
<g id="a_edge17_Node000051_Node000035"><a xlink:title=" ">
<path fill="none" stroke="#63b8ff" d="M1114.54,-860.21C1126.69,-829.06 1144.61,-783.11 1160.98,-741.11"/>
<polygon fill="none" stroke="#63b8ff" points="1111.18,-859.19 1110.81,-869.78 1117.7,-861.74 1111.18,-859.19"/>
</a>
</g>
</g>
<!-- Node50 -->
<g id="Node000050" class="node">
<title>Node50</title>
<g id="a_Node000050"><a xlink:title=" ">
<path fill="white" stroke="#666666" d="M1325,-666C1325,-666 1279,-666 1279,-666 1273,-666 1267,-660 1267,-654 1267,-654 1267,-621 1267,-621 1267,-615 1273,-609 1279,-609 1279,-609 1325,-609 1325,-609 1331,-609 1337,-615 1337,-621 1337,-621 1337,-654 1337,-654 1337,-660 1331,-666 1325,-666"/>
<text text-anchor="start" x="1280" y="-649.5" font-family="Helvetica,sans-Serif" font-size="10.00">Matrix3d</text>
<text text-anchor="start" x="1300" y="-634.5" font-family="Helvetica,sans-Serif" font-size="10.00"> </text>
<text text-anchor="start" x="1300" y="-619.5" font-family="Helvetica,sans-Serif" font-size="10.00"> </text>
<polygon fill="#666666" stroke="#666666" points="1275,-644.5 1275,-644.5 1329,-644.5 1329,-644.5 1275,-644.5"/>
<polygon fill="#666666" stroke="#666666" points="1275,-629.5 1275,-629.5 1329,-629.5 1329,-629.5 1275,-629.5"/>
<polygon fill="none" stroke="#666666" points="1275,-613 1275,-662 1329,-662 1329,-613 1275,-613"/>
</a>
</g>
</g>
<!-- Node50&#45;&gt;Node6 -->
<g id="edge15_Node000006_Node000050" class="edge">
<title>Node50&#45;&gt;Node6</title>
<g id="a_edge15_Node000006_Node000050"><a xlink:title=" ">
<path fill="none" stroke="#63b8ff" d="M1295.5,-608.97C1289.07,-586.63 1277.34,-555.42 1258,-534 1180.2,-447.82 1055.77,-390.74 976.52,-360.88"/>
<polygon fill="none" stroke="#63b8ff" points="976.42,-360.85 969.4,-362.51 965.16,-356.68 972.18,-355.01 976.42,-360.85"/>
</a>
</g>
<text text-anchor="middle" x="1264.5" y="-502.5" font-family="Helvetica,sans-Serif" font-size="10.00" fill="grey"> +aprioriVar</text>
</g>
<!-- Node51&#45;&gt;Node6 -->
<g id="edge16_Node000006_Node000051" class="edge">
<title>Node51&#45;&gt;Node6</title>
<g id="a_edge16_Node000006_Node000051"><a xlink:title=" ">
<path fill="none" stroke="#63b8ff" d="M1153.33,-552.36C1148.74,-545.96 1143.94,-539.76 1139,-534 1090.46,-477.46 1024.77,-423.95 974.86,-386.85"/>
<polygon fill="none" stroke="#63b8ff" points="974.76,-386.77 967.55,-386.43 965.1,-379.65 972.3,-379.99 974.76,-386.77"/>
</a>
</g>
<text text-anchor="middle" x="1136.5" y="-502.5" font-family="Helvetica,sans-Serif" font-size="10.00" fill="grey"> +pos</text>
</g>
<!-- Node52 -->
<g id="Node000052" class="node">
<title>Node52</title>
<g id="a_Node000052"><a xlink:title=" ">
<path fill="#fff0f0" stroke="red" d="M1485,-666C1485,-666 1367,-666 1367,-666 1361,-666 1355,-660 1355,-654 1355,-654 1355,-621 1355,-621 1355,-615 1361,-609 1367,-609 1367,-609 1485,-609 1485,-609 1491,-609 1497,-615 1497,-621 1497,-621 1497,-654 1497,-654 1497,-660 1491,-666 1485,-666"/>
<text text-anchor="start" x="1368" y="-649.5" font-family="Helvetica,sans-Serif" font-size="10.00">map&lt; SatSys, GTime &gt;</text>
<text text-anchor="start" x="1424" y="-634.5" font-family="Helvetica,sans-Serif" font-size="10.00"> </text>
<text text-anchor="start" x="1424" y="-619.5" font-family="Helvetica,sans-Serif" font-size="10.00"> </text>
<polygon fill="red" stroke="red" points="1363,-644.5 1363,-644.5 1489,-644.5 1489,-644.5 1363,-644.5"/>
<polygon fill="red" stroke="red" points="1363,-629.5 1363,-629.5 1489,-629.5 1489,-629.5 1363,-629.5"/>
<polygon fill="none" stroke="red" points="1363,-613 1363,-662 1489,-662 1489,-613 1363,-613"/>
</a>
</g>
</g>
<!-- Node52&#45;&gt;Node6 -->
<g id="edge18_Node000006_Node000052" class="edge">
<title>Node52&#45;&gt;Node6</title>
<g id="a_edge18_Node000006_Node000052"><a xlink:title=" ">
<path fill="none" stroke="#63b8ff" d="M1408.81,-608.85C1387.08,-576.28 1346.57,-522.93 1298,-494 1193.03,-431.48 1058.8,-383.9 976.67,-357.98"/>
<polygon fill="none" stroke="#63b8ff" points="976.65,-357.97 969.73,-360 965.19,-354.39 972.11,-352.36 976.65,-357.97"/>
</a>
</g>
<text text-anchor="middle" x="1359" y="-502.5" font-family="Helvetica,sans-Serif" font-size="10.00" fill="grey"> +savedSlips</text>
</g>
<!-- Node53 -->
<g id="Node000053" class="node">
<title>Node53</title>
<g id="a_Node000053"><a xlink:href="structCache.html" target="_top" xlink:title=" ">
<path fill="#fff0f0" stroke="red" d="M1676.5,-699.5C1676.5,-699.5 1527.5,-699.5 1527.5,-699.5 1521.5,-699.5 1515.5,-693.5 1515.5,-687.5 1515.5,-687.5 1515.5,-587.5 1515.5,-587.5 1515.5,-581.5 1521.5,-575.5 1527.5,-575.5 1527.5,-575.5 1676.5,-575.5 1676.5,-575.5 1682.5,-575.5 1688.5,-581.5 1688.5,-587.5 1688.5,-587.5 1688.5,-687.5 1688.5,-687.5 1688.5,-693.5 1682.5,-699.5 1676.5,-699.5"/>
<text text-anchor="start" x="1529" y="-683.5" font-family="Helvetica,sans-Serif" font-size="10.00">Cache&lt; tuple&lt; Vector3d,</text>
<text text-anchor="start" x="1529" y="-672.5" font-family="Helvetica,sans-Serif" font-size="10.00"> Vector3d, Vector3d, Vector3d,</text>
<text text-anchor="start" x="1568" y="-661.5" font-family="Helvetica,sans-Serif" font-size="10.00"> Vector3d &gt; &gt;</text>
<text text-anchor="start" x="1548" y="-646.5" font-family="Helvetica,sans-Serif" font-size="10.00">+</text>
<text text-anchor="start" x="1581" y="-646.5" font-family="Helvetica,sans-Serif" font-size="10.00">lambda</text>
<text text-anchor="start" x="1548" y="-631.5" font-family="Helvetica,sans-Serif" font-size="10.00">+</text>
<text text-anchor="start" x="1581" y="-631.5" font-family="Helvetica,sans-Serif" font-size="10.00">initialised</text>
<text text-anchor="start" x="1548" y="-616.5" font-family="Helvetica,sans-Serif" font-size="10.00">+</text>
<text text-anchor="start" x="1581" y="-616.5" font-family="Helvetica,sans-Serif" font-size="10.00">Cache()</text>
<text text-anchor="start" x="1548" y="-601.5" font-family="Helvetica,sans-Serif" font-size="10.00">+</text>
<text text-anchor="start" x="1581" y="-601.5" font-family="Helvetica,sans-Serif" font-size="10.00">uninit()</text>
<text text-anchor="start" x="1548" y="-586.5" font-family="Helvetica,sans-Serif" font-size="10.00">+</text>
<text text-anchor="start" x="1581" y="-586.5" font-family="Helvetica,sans-Serif" font-size="10.00">useCache()</text>
<polygon fill="red" stroke="red" points="1524,-656.5 1524,-656.5 1681,-656.5 1681,-656.5 1524,-656.5"/>
<polygon fill="red" stroke="red" points="1524,-626.5 1524,-626.5 1579,-626.5 1579,-626.5 1524,-626.5"/>
<polygon fill="red" stroke="red" points="1579,-626.5 1579,-626.5 1681,-626.5 1681,-626.5 1579,-626.5"/>
<polygon fill="none" stroke="red" points="1523.5,-579.5 1523.5,-695.5 1680.5,-695.5 1680.5,-579.5 1523.5,-579.5"/>
</a>
</g>
</g>
<!-- Node53&#45;&gt;Node6 -->
<g id="edge19_Node000006_Node000053" class="edge">
<title>Node53&#45;&gt;Node6</title>
<g id="a_edge19_Node000006_Node000053"><a xlink:title=" ">
<path fill="none" stroke="#63b8ff" d="M1553.64,-575.38C1539.52,-560.34 1523.21,-545.32 1506,-534 1336,-422.13 1097.49,-368.69 977.39,-347.55"/>
<polygon fill="none" stroke="#63b8ff" points="977.27,-347.52 970.67,-350.44 965.44,-345.48 972.04,-342.56 977.27,-347.52"/>
</a>
</g>
<text text-anchor="middle" x="1517.5" y="-502.5" font-family="Helvetica,sans-Serif" font-size="10.00" fill="grey"> +pppTideCache</text>
</g>
<!-- Node57 -->
<g id="Node000057" class="node">
<title>Node57</title>
<g id="a_Node000057"><a xlink:href="structCache.html" target="_top" xlink:title=" ">
<path fill="#fff0f0" stroke="red" d="M1863.5,-688.5C1863.5,-688.5 1718.5,-688.5 1718.5,-688.5 1712.5,-688.5 1706.5,-682.5 1706.5,-676.5 1706.5,-676.5 1706.5,-598.5 1706.5,-598.5 1706.5,-592.5 1712.5,-586.5 1718.5,-586.5 1718.5,-586.5 1863.5,-586.5 1863.5,-586.5 1869.5,-586.5 1875.5,-592.5 1875.5,-598.5 1875.5,-598.5 1875.5,-676.5 1875.5,-676.5 1875.5,-682.5 1869.5,-688.5 1863.5,-688.5"/>
<text text-anchor="start" x="1720" y="-672.5" font-family="Helvetica,sans-Serif" font-size="10.00">Cache&lt; tuple&lt; Vector3d &gt; &gt;</text>
<text text-anchor="start" x="1738" y="-657.5" font-family="Helvetica,sans-Serif" font-size="10.00">+</text>
<text text-anchor="start" x="1770" y="-657.5" font-family="Helvetica,sans-Serif" font-size="10.00">lambda</text>
<text text-anchor="start" x="1738" y="-642.5" font-family="Helvetica,sans-Serif" font-size="10.00">+</text>
<text text-anchor="start" x="1770" y="-642.5" font-family="Helvetica,sans-Serif" font-size="10.00">initialised</text>
<text text-anchor="start" x="1738" y="-627.5" font-family="Helvetica,sans-Serif" font-size="10.00">+</text>
<text text-anchor="start" x="1770" y="-627.5" font-family="Helvetica,sans-Serif" font-size="10.00">Cache()</text>
<text text-anchor="start" x="1738" y="-612.5" font-family="Helvetica,sans-Serif" font-size="10.00">+</text>
<text text-anchor="start" x="1770" y="-612.5" font-family="Helvetica,sans-Serif" font-size="10.00">uninit()</text>
<text text-anchor="start" x="1738" y="-597.5" font-family="Helvetica,sans-Serif" font-size="10.00">+</text>
<text text-anchor="start" x="1770" y="-597.5" font-family="Helvetica,sans-Serif" font-size="10.00">useCache()</text>
<polygon fill="red" stroke="red" points="1715,-667.5 1715,-667.5 1868,-667.5 1868,-667.5 1715,-667.5"/>
<polygon fill="red" stroke="red" points="1715,-637.5 1715,-637.5 1768,-637.5 1768,-637.5 1715,-637.5"/>
<polygon fill="red" stroke="red" points="1768,-637.5 1768,-637.5 1868,-637.5 1868,-637.5 1768,-637.5"/>
<polygon fill="none" stroke="red" points="1714.5,-590.5 1714.5,-684.5 1867.5,-684.5 1867.5,-590.5 1714.5,-590.5"/>
</a>
</g>
</g>
<!-- Node57&#45;&gt;Node6 -->
<g id="edge20_Node000006_Node000057" class="edge">
<title>Node57&#45;&gt;Node6</title>
<g id="a_edge20_Node000006_Node000057"><a xlink:title=" ">
<path fill="none" stroke="#63b8ff" d="M1755.08,-586.37C1739.42,-567.62 1719.68,-547.59 1698,-534 1463.44,-386.94 1126.08,-349.05 977.32,-339.33"/>
<polygon fill="none" stroke="#63b8ff" points="977.21,-339.32 970.97,-342.94 965.23,-338.58 971.47,-334.96 977.21,-339.32"/>
</a>
</g>
<text text-anchor="middle" x="1699" y="-502.5" font-family="Helvetica,sans-Serif" font-size="10.00" fill="grey"> +pppEopCache</text>
</g>
</g>
</svg>
