<?xml version="1.0" encoding="UTF-8" standalone="no"?>
<!DOCTYPE svg PUBLIC "-//W3C//DTD SVG 1.1//EN"
 "http://www.w3.org/Graphics/SVG/1.1/DTD/svg11.dtd">
<!-- Generated by graphviz version 2.43.0 (0)
 -->
<!-- Title: LObsMeta Pages: 1 -->
<svg width="148pt" height="394pt"
 viewBox="0.00 0.00 148.00 394.00" xmlns="http://www.w3.org/2000/svg" xmlns:xlink="http://www.w3.org/1999/xlink">
<g id="graph0" class="graph" transform="scale(1 1) rotate(0) translate(4 390)">
<title>LObsMeta</title>
<!-- Node1 -->
<g id="Node000001" class="node">
<title>Node1</title>
<g id="a_Node000001"><a xlink:href="structLObsMeta.html" target="_top" xlink:title=" ">
<path fill="white" stroke="#666666" stroke-width="2" d="M99,-386C99,-386 41,-386 41,-386 35,-386 29,-380 29,-374 29,-374 29,-281 29,-281 29,-275 35,-269 41,-269 41,-269 99,-269 99,-269 105,-269 111,-275 111,-281 111,-281 111,-374 111,-374 111,-380 105,-386 99,-386"/>
<text text-anchor="start" x="45.5" y="-369.5" font-family="Helvetica,sans-Serif" font-size="10.00">LObsMeta</text>
<text text-anchor="start" x="41" y="-354.5" font-family="Helvetica,sans-Serif" font-size="10.00">+</text>
<text text-anchor="start" x="54" y="-354.5" font-family="Helvetica,sans-Serif" font-size="10.00">recName</text>
<text text-anchor="start" x="41" y="-339.5" font-family="Helvetica,sans-Serif" font-size="10.00">+</text>
<text text-anchor="start" x="54" y="-339.5" font-family="Helvetica,sans-Serif" font-size="10.00">recCdpId</text>
<text text-anchor="start" x="41" y="-324.5" font-family="Helvetica,sans-Serif" font-size="10.00">+</text>
<text text-anchor="start" x="54" y="-324.5" font-family="Helvetica,sans-Serif" font-size="10.00">satName</text>
<text text-anchor="start" x="41" y="-309.5" font-family="Helvetica,sans-Serif" font-size="10.00">+</text>
<text text-anchor="start" x="54" y="-309.5" font-family="Helvetica,sans-Serif" font-size="10.00">ilrsId</text>
<text text-anchor="start" x="41" y="-294.5" font-family="Helvetica,sans-Serif" font-size="10.00">+</text>
<text text-anchor="start" x="54" y="-294.5" font-family="Helvetica,sans-Serif" font-size="10.00">cosparId</text>
<text text-anchor="start" x="68" y="-279.5" font-family="Helvetica,sans-Serif" font-size="10.00"> </text>
<polygon fill="#666666" stroke="#666666" points="37,-364.5 37,-364.5 103,-364.5 103,-364.5 37,-364.5"/>
<polygon fill="#666666" stroke="#666666" points="37,-289.5 37,-289.5 52,-289.5 52,-289.5 37,-289.5"/>
<polygon fill="#666666" stroke="#666666" points="52,-289.5 52,-289.5 103,-289.5 103,-289.5 52,-289.5"/>
<polygon fill="none" stroke="#666666" points="37,-273 37,-382 103,-382 103,-273 37,-273"/>
</a>
</g>
</g>
<!-- Node2 -->
<g id="Node000002" class="node">
<title>Node2</title>
<g id="a_Node000002"><a xlink:href="structLObs.html" target="_top" xlink:title=" ">
<path fill="white" stroke="#666666" d="M128,-233C128,-233 12,-233 12,-233 6,-233 0,-227 0,-221 0,-221 0,-12 0,-12 0,-6 6,0 12,0 12,0 128,0 128,0 134,0 140,-6 140,-12 140,-12 140,-221 140,-221 140,-227 134,-233 128,-233"/>
<text text-anchor="start" x="57.5" y="-216.5" font-family="Helvetica,sans-Serif" font-size="10.00">LObs</text>
<text text-anchor="start" x="12" y="-201.5" font-family="Helvetica,sans-Serif" font-size="10.00">+</text>
<text text-anchor="start" x="25" y="-201.5" font-family="Helvetica,sans-Serif" font-size="10.00">epochEvent</text>
<text text-anchor="start" x="12" y="-186.5" font-family="Helvetica,sans-Serif" font-size="10.00">+</text>
<text text-anchor="start" x="25" y="-186.5" font-family="Helvetica,sans-Serif" font-size="10.00">timeTx</text>
<text text-anchor="start" x="12" y="-171.5" font-family="Helvetica,sans-Serif" font-size="10.00">+</text>
<text text-anchor="start" x="25" y="-171.5" font-family="Helvetica,sans-Serif" font-size="10.00">twoWayTimeOfFlight</text>
<text text-anchor="start" x="12" y="-156.5" font-family="Helvetica,sans-Serif" font-size="10.00">+</text>
<text text-anchor="start" x="25" y="-156.5" font-family="Helvetica,sans-Serif" font-size="10.00">pressure</text>
<text text-anchor="start" x="12" y="-141.5" font-family="Helvetica,sans-Serif" font-size="10.00">+</text>
<text text-anchor="start" x="25" y="-141.5" font-family="Helvetica,sans-Serif" font-size="10.00">temperature</text>
<text text-anchor="start" x="12" y="-126.5" font-family="Helvetica,sans-Serif" font-size="10.00">+</text>
<text text-anchor="start" x="25" y="-126.5" font-family="Helvetica,sans-Serif" font-size="10.00">humidity</text>
<text text-anchor="start" x="12" y="-111.5" font-family="Helvetica,sans-Serif" font-size="10.00">+</text>
<text text-anchor="start" x="25" y="-111.5" font-family="Helvetica,sans-Serif" font-size="10.00">wavelengthNm</text>
<text text-anchor="start" x="12" y="-96.5" font-family="Helvetica,sans-Serif" font-size="10.00">+</text>
<text text-anchor="start" x="25" y="-96.5" font-family="Helvetica,sans-Serif" font-size="10.00">rangeBias</text>
<text text-anchor="start" x="12" y="-81.5" font-family="Helvetica,sans-Serif" font-size="10.00">+</text>
<text text-anchor="start" x="25" y="-81.5" font-family="Helvetica,sans-Serif" font-size="10.00">timeBias</text>
<text text-anchor="start" x="12" y="-66.5" font-family="Helvetica,sans-Serif" font-size="10.00">+</text>
<text text-anchor="start" x="25" y="-66.5" font-family="Helvetica,sans-Serif" font-size="10.00">pressureBias</text>
<text text-anchor="start" x="12" y="-51.5" font-family="Helvetica,sans-Serif" font-size="10.00">+</text>
<text text-anchor="start" x="25" y="-51.5" font-family="Helvetica,sans-Serif" font-size="10.00">humidityBias</text>
<text text-anchor="start" x="12" y="-36.5" font-family="Helvetica,sans-Serif" font-size="10.00">+</text>
<text text-anchor="start" x="25" y="-36.5" font-family="Helvetica,sans-Serif" font-size="10.00">operator shared_ptr</text>
<text text-anchor="start" x="25" y="-25.5" font-family="Helvetica,sans-Serif" font-size="10.00">&lt; LObs &gt;()</text>
<text text-anchor="start" x="12" y="-10.5" font-family="Helvetica,sans-Serif" font-size="10.00">+</text>
<text text-anchor="start" x="25" y="-10.5" font-family="Helvetica,sans-Serif" font-size="10.00">~LObs()</text>
<polygon fill="#666666" stroke="#666666" points="8,-211.5 8,-211.5 132,-211.5 132,-211.5 8,-211.5"/>
<polygon fill="#666666" stroke="#666666" points="8,-46.5 8,-46.5 23,-46.5 23,-46.5 8,-46.5"/>
<polygon fill="#666666" stroke="#666666" points="23,-46.5 23,-46.5 132,-46.5 132,-46.5 23,-46.5"/>
<polygon fill="none" stroke="#666666" points="8,-4 8,-229 132,-229 132,-4 8,-4"/>
</a>
</g>
</g>
<!-- Node1&#45;&gt;Node2 -->
<g id="edge1_Node000001_Node000002" class="edge">
<title>Node1&#45;&gt;Node2</title>
<g id="a_edge1_Node000001_Node000002"><a xlink:title=" ">
<path fill="none" stroke="#63b8ff" d="M70,-258.61C70,-250.37 70,-241.78 70,-233.09"/>
<polygon fill="none" stroke="#63b8ff" points="66.5,-258.84 70,-268.84 73.5,-258.84 66.5,-258.84"/>
</a>
</g>
</g>
</g>
</svg>
