<?xml version="1.0" encoding="UTF-8" standalone="no"?>
<!DOCTYPE svg PUBLIC "-//W3C//DTD SVG 1.1//EN"
 "http://www.w3.org/Graphics/SVG/1.1/DTD/svg11.dtd">
<!-- Generated by graphviz version 2.43.0 (0)
 -->
<!-- Title: Sofa::iauFalp Pages: 1 -->
<svg width="234pt" height="27pt"
 viewBox="0.00 0.00 234.00 27.00" xmlns="http://www.w3.org/2000/svg" xmlns:xlink="http://www.w3.org/1999/xlink">
<g id="graph0" class="graph" transform="scale(1 1) rotate(0) translate(4 23)">
<title>Sofa::iauFalp</title>
<!-- Node1 -->
<g id="Node000001" class="node">
<title>Node1</title>
<g id="a_Node000001"><a xlink:href="structSofa.html#ac208bc0d9fc2536bbfb5e1d0768e203b" target="_top" xlink:title=" ">
<path fill="#fff0f0" stroke="red" stroke-width="2" d="M72.67,-19C72.67,-19 6.33,-19 6.33,-19 3.17,-19 0,-15.83 0,-12.67 0,-12.67 0,-6.33 0,-6.33 0,-3.17 3.17,0 6.33,0 6.33,0 72.67,0 72.67,0 75.83,0 79,-3.17 79,-6.33 79,-6.33 79,-12.67 79,-12.67 79,-15.83 75.83,-19 72.67,-19"/>
<text text-anchor="middle" x="39.5" y="-7" font-family="Helvetica,sans-Serif" font-size="10.00">Sofa::iauFalp</text>
</a>
</g>
</g>
<!-- Node2 -->
<g id="Node000002" class="node">
<title>Node2</title>
<g id="a_Node000002"><a xlink:href="structMjDateTT.html#a3dd023609ae8713593b45d4b6e7ab9d3" target="_top" xlink:title=" ">
<path fill="#fff0f0" stroke="red" d="M219.67,-19C219.67,-19 121.33,-19 121.33,-19 118.17,-19 115,-15.83 115,-12.67 115,-12.67 115,-6.33 115,-6.33 115,-3.17 118.17,0 121.33,0 121.33,0 219.67,0 219.67,0 222.83,0 226,-3.17 226,-6.33 226,-6.33 226,-12.67 226,-12.67 226,-15.83 222.83,-19 219.67,-19"/>
<text text-anchor="middle" x="170.5" y="-7" font-family="Helvetica,sans-Serif" font-size="10.00">MjDateTT::to_j2000</text>
</a>
</g>
</g>
<!-- Node1&#45;&gt;Node2 -->
<g id="edge1_Node000001_Node000002" class="edge">
<title>Node1&#45;&gt;Node2</title>
<g id="a_edge1_Node000001_Node000002"><a xlink:title=" ">
<path fill="none" stroke="#63b8ff" d="M79.2,-9.5C87.21,-9.5 95.84,-9.5 104.49,-9.5"/>
<polygon fill="#63b8ff" stroke="#63b8ff" points="104.61,-13 114.61,-9.5 104.61,-6 104.61,-13"/>
</a>
</g>
</g>
</g>
</svg>
