<?xml version="1.0" encoding="UTF-8" standalone="no"?>
<!DOCTYPE svg PUBLIC "-//W3C//DTD SVG 1.1//EN"
 "http://www.w3.org/Graphics/SVG/1.1/DTD/svg11.dtd">
<!-- Generated by graphviz version 2.43.0 (0)
 -->
<!-- Title: PhaseDiscControl Pages: 1 -->
<svg width="120pt" height="95pt"
 viewBox="0.00 0.00 120.00 95.00" xmlns="http://www.w3.org/2000/svg" xmlns:xlink="http://www.w3.org/1999/xlink">
<g id="graph0" class="graph" transform="scale(1 1) rotate(0) translate(4 91)">
<title>PhaseDiscControl</title>
<!-- Node1 -->
<g id="Node000001" class="node">
<title>Node1</title>
<g id="a_Node000001"><a xlink:href="structPhaseDiscControl.html" target="_top" xlink:title=" ">
<path fill="white" stroke="#666666" stroke-width="2" d="M100,-87C100,-87 12,-87 12,-87 6,-87 0,-81 0,-75 0,-75 0,-12 0,-12 0,-6 6,0 12,0 12,0 100,0 100,0 106,0 112,-6 112,-12 112,-12 112,-75 112,-75 112,-81 106,-87 100,-87"/>
<text text-anchor="start" x="13" y="-70.5" font-family="Helvetica,sans-Serif" font-size="10.00">PhaseDiscControl</text>
<text text-anchor="start" x="21.5" y="-55.5" font-family="Helvetica,sans-Serif" font-size="10.00">+</text>
<text text-anchor="start" x="44" y="-55.5" font-family="Helvetica,sans-Serif" font-size="10.00">bias</text>
<text text-anchor="start" x="21.5" y="-40.5" font-family="Helvetica,sans-Serif" font-size="10.00">+</text>
<text text-anchor="start" x="44" y="-40.5" font-family="Helvetica,sans-Serif" font-size="10.00">disc</text>
<text text-anchor="start" x="21.5" y="-25.5" font-family="Helvetica,sans-Serif" font-size="10.00">+</text>
<text text-anchor="start" x="44" y="-25.5" font-family="Helvetica,sans-Serif" font-size="10.00">intlevel</text>
<text text-anchor="start" x="54" y="-10.5" font-family="Helvetica,sans-Serif" font-size="10.00"> </text>
<polygon fill="#666666" stroke="#666666" points="8,-65.5 8,-65.5 104,-65.5 104,-65.5 8,-65.5"/>
<polygon fill="#666666" stroke="#666666" points="8,-20.5 8,-20.5 42,-20.5 42,-20.5 8,-20.5"/>
<polygon fill="#666666" stroke="#666666" points="42,-20.5 42,-20.5 104,-20.5 104,-20.5 42,-20.5"/>
<polygon fill="none" stroke="#666666" points="8,-4 8,-83 104,-83 104,-4 8,-4"/>
</a>
</g>
</g>
</g>
</svg>
