<?xml version="1.0" encoding="UTF-8" standalone="no"?>
<!DOCTYPE svg PUBLIC "-//W3C//DTD SVG 1.1//EN"
 "http://www.w3.org/Graphics/SVG/1.1/DTD/svg11.dtd">
<!-- Generated by graphviz version 2.43.0 (0)
 -->
<!-- Title: ComponentsDetails Pages: 1 -->
<svg width="131pt" height="199pt"
 viewBox="0.00 0.00 131.00 199.00" xmlns="http://www.w3.org/2000/svg" xmlns:xlink="http://www.w3.org/1999/xlink">
<g id="graph0" class="graph" transform="scale(1 1) rotate(0) translate(4 195)">
<title>ComponentsDetails</title>
<!-- Node1 -->
<g id="Node000001" class="node">
<title>Node1</title>
<g id="a_Node000001"><a xlink:href="structComponentsDetails.html" target="_top" xlink:title=" ">
<path fill="white" stroke="#666666" stroke-width="2" d="M111,-87C111,-87 12,-87 12,-87 6,-87 0,-81 0,-75 0,-75 0,-12 0,-12 0,-6 6,0 12,0 12,0 111,0 111,0 117,0 123,-6 123,-12 123,-12 123,-75 123,-75 123,-81 117,-87 111,-87"/>
<text text-anchor="start" x="13.5" y="-70.5" font-family="Helvetica,sans-Serif" font-size="10.00">ComponentsDetails</text>
<text text-anchor="start" x="17.5" y="-55.5" font-family="Helvetica,sans-Serif" font-size="10.00">+</text>
<text text-anchor="start" x="35.5" y="-55.5" font-family="Helvetica,sans-Serif" font-size="10.00">value</text>
<text text-anchor="start" x="17.5" y="-40.5" font-family="Helvetica,sans-Serif" font-size="10.00">+</text>
<text text-anchor="start" x="35.5" y="-40.5" font-family="Helvetica,sans-Serif" font-size="10.00">var</text>
<text text-anchor="start" x="17.5" y="-25.5" font-family="Helvetica,sans-Serif" font-size="10.00">+</text>
<text text-anchor="start" x="35.5" y="-25.5" font-family="Helvetica,sans-Serif" font-size="10.00">operator+=()</text>
<text text-anchor="start" x="17.5" y="-10.5" font-family="Helvetica,sans-Serif" font-size="10.00">+</text>
<text text-anchor="start" x="35.5" y="-10.5" font-family="Helvetica,sans-Serif" font-size="10.00">operator*()</text>
<polygon fill="#666666" stroke="#666666" points="8.5,-65.5 8.5,-65.5 115.5,-65.5 115.5,-65.5 8.5,-65.5"/>
<polygon fill="#666666" stroke="#666666" points="8.5,-35.5 8.5,-35.5 33.5,-35.5 33.5,-35.5 8.5,-35.5"/>
<polygon fill="#666666" stroke="#666666" points="33.5,-35.5 33.5,-35.5 115.5,-35.5 115.5,-35.5 33.5,-35.5"/>
<polygon fill="none" stroke="#666666" points="8,-4 8,-83 115,-83 115,-4 8,-4"/>
</a>
</g>
</g>
<!-- Node2 -->
<g id="Node000002" class="node">
<title>Node2</title>
<g id="a_Node000002"><a xlink:title=" ">
<path fill="white" stroke="#666666" d="M76.5,-191C76.5,-191 46.5,-191 46.5,-191 40.5,-191 34.5,-185 34.5,-179 34.5,-179 34.5,-146 34.5,-146 34.5,-140 40.5,-134 46.5,-134 46.5,-134 76.5,-134 76.5,-134 82.5,-134 88.5,-140 88.5,-146 88.5,-146 88.5,-179 88.5,-179 88.5,-185 82.5,-191 76.5,-191"/>
<text text-anchor="start" x="47.5" y="-174.5" font-family="Helvetica,sans-Serif" font-size="10.00">string</text>
<text text-anchor="start" x="59.5" y="-159.5" font-family="Helvetica,sans-Serif" font-size="10.00"> </text>
<text text-anchor="start" x="59.5" y="-144.5" font-family="Helvetica,sans-Serif" font-size="10.00"> </text>
<polygon fill="#666666" stroke="#666666" points="42.5,-169.5 42.5,-169.5 80.5,-169.5 80.5,-169.5 42.5,-169.5"/>
<polygon fill="#666666" stroke="#666666" points="42.5,-154.5 42.5,-154.5 80.5,-154.5 80.5,-154.5 42.5,-154.5"/>
<polygon fill="none" stroke="#666666" points="42.5,-138 42.5,-187 80.5,-187 80.5,-138 42.5,-138"/>
</a>
</g>
</g>
<!-- Node2&#45;&gt;Node1 -->
<g id="edge1_Node000001_Node000002" class="edge">
<title>Node2&#45;&gt;Node1</title>
<g id="a_edge1_Node000001_Node000002"><a xlink:title=" ">
<path fill="none" stroke="#63b8ff" d="M61.5,-133.77C61.5,-123.44 61.5,-111.32 61.5,-99.4"/>
<polygon fill="none" stroke="#63b8ff" points="61.5,-99.13 57.5,-93.13 61.5,-87.13 65.5,-93.13 61.5,-99.13"/>
</a>
</g>
<text text-anchor="middle" x="73.5" y="-108" font-family="Helvetica,sans-Serif" font-size="10.00" fill="grey"> +eq</text>
</g>
</g>
</svg>
