<?xml version="1.0" encoding="UTF-8" standalone="no"?>
<!DOCTYPE svg PUBLIC "-//W3C//DTD SVG 1.1//EN"
 "http://www.w3.org/Graphics/SVG/1.1/DTD/svg11.dtd">
<!-- Generated by graphviz version 2.43.0 (0)
 -->
<!-- Title: IonModelOptions Pages: 1 -->
<svg width="943pt" height="661pt"
 viewBox="0.00 0.00 943.00 661.00" xmlns="http://www.w3.org/2000/svg" xmlns:xlink="http://www.w3.org/1999/xlink">
<g id="graph0" class="graph" transform="scale(1 1) rotate(0) translate(4 657)">
<title>IonModelOptions</title>
<!-- Node1 -->
<g id="Node000001" class="node">
<title>Node1</title>
<g id="a_Node000001"><a xlink:href="structIonModelOptions.html" target="_top" xlink:title=" ">
<path fill="white" stroke="#666666" stroke-width="2" d="M533.5,-147C533.5,-147 431.5,-147 431.5,-147 425.5,-147 419.5,-141 419.5,-135 419.5,-135 419.5,-12 419.5,-12 419.5,-6 425.5,0 431.5,0 431.5,0 533.5,0 533.5,0 539.5,0 545.5,-6 545.5,-12 545.5,-12 545.5,-135 545.5,-135 545.5,-141 539.5,-147 533.5,-147"/>
<text text-anchor="start" x="441" y="-130.5" font-family="Helvetica,sans-Serif" font-size="10.00">IonModelOptions</text>
<text text-anchor="start" x="431.5" y="-115.5" font-family="Helvetica,sans-Serif" font-size="10.00">+</text>
<text text-anchor="start" x="444.5" y="-115.5" font-family="Helvetica,sans-Serif" font-size="10.00">model</text>
<text text-anchor="start" x="431.5" y="-100.5" font-family="Helvetica,sans-Serif" font-size="10.00">+</text>
<text text-anchor="start" x="444.5" y="-100.5" font-family="Helvetica,sans-Serif" font-size="10.00">numBasis</text>
<text text-anchor="start" x="431.5" y="-85.5" font-family="Helvetica,sans-Serif" font-size="10.00">+</text>
<text text-anchor="start" x="444.5" y="-85.5" font-family="Helvetica,sans-Serif" font-size="10.00">function_order</text>
<text text-anchor="start" x="431.5" y="-70.5" font-family="Helvetica,sans-Serif" font-size="10.00">+</text>
<text text-anchor="start" x="444.5" y="-70.5" font-family="Helvetica,sans-Serif" font-size="10.00">function_degree</text>
<text text-anchor="start" x="431.5" y="-55.5" font-family="Helvetica,sans-Serif" font-size="10.00">+</text>
<text text-anchor="start" x="444.5" y="-55.5" font-family="Helvetica,sans-Serif" font-size="10.00">estimate_sat_dcb</text>
<text text-anchor="start" x="431.5" y="-40.5" font-family="Helvetica,sans-Serif" font-size="10.00">+</text>
<text text-anchor="start" x="444.5" y="-40.5" font-family="Helvetica,sans-Serif" font-size="10.00">use_rotation_mtx</text>
<text text-anchor="start" x="431.5" y="-25.5" font-family="Helvetica,sans-Serif" font-size="10.00">+</text>
<text text-anchor="start" x="444.5" y="-25.5" font-family="Helvetica,sans-Serif" font-size="10.00">basis_sigma_limit</text>
<text text-anchor="start" x="480.5" y="-10.5" font-family="Helvetica,sans-Serif" font-size="10.00"> </text>
<polygon fill="#666666" stroke="#666666" points="427.5,-125.5 427.5,-125.5 537.5,-125.5 537.5,-125.5 427.5,-125.5"/>
<polygon fill="#666666" stroke="#666666" points="427.5,-20.5 427.5,-20.5 442.5,-20.5 442.5,-20.5 427.5,-20.5"/>
<polygon fill="#666666" stroke="#666666" points="442.5,-20.5 442.5,-20.5 537.5,-20.5 537.5,-20.5 442.5,-20.5"/>
<polygon fill="none" stroke="#666666" points="427.5,-4 427.5,-143 537.5,-143 537.5,-4 427.5,-4"/>
</a>
</g>
</g>
<!-- Node2 -->
<g id="Node000002" class="node">
<title>Node2</title>
<g id="a_Node000002"><a xlink:href="structFilterOptions.html" target="_top" xlink:title=" ">
<path fill="white" stroke="#666666" d="M357,-341C357,-341 246,-341 246,-341 240,-341 234,-335 234,-329 234,-329 234,-206 234,-206 234,-200 240,-194 246,-194 246,-194 357,-194 357,-194 363,-194 369,-200 369,-206 369,-206 369,-329 369,-329 369,-335 363,-341 357,-341"/>
<text text-anchor="start" x="270.5" y="-324.5" font-family="Helvetica,sans-Serif" font-size="10.00">FilterOptions</text>
<text text-anchor="start" x="246.5" y="-309.5" font-family="Helvetica,sans-Serif" font-size="10.00">+</text>
<text text-anchor="start" x="259.5" y="-309.5" font-family="Helvetica,sans-Serif" font-size="10.00">chi_square_test</text>
<text text-anchor="start" x="246.5" y="-294.5" font-family="Helvetica,sans-Serif" font-size="10.00">+</text>
<text text-anchor="start" x="259.5" y="-294.5" font-family="Helvetica,sans-Serif" font-size="10.00">chi_square_mode</text>
<text text-anchor="start" x="246.5" y="-279.5" font-family="Helvetica,sans-Serif" font-size="10.00">+</text>
<text text-anchor="start" x="259.5" y="-279.5" font-family="Helvetica,sans-Serif" font-size="10.00">simulate_filter_only</text>
<text text-anchor="start" x="246.5" y="-264.5" font-family="Helvetica,sans-Serif" font-size="10.00">+</text>
<text text-anchor="start" x="259.5" y="-264.5" font-family="Helvetica,sans-Serif" font-size="10.00">assume_linearity</text>
<text text-anchor="start" x="246.5" y="-249.5" font-family="Helvetica,sans-Serif" font-size="10.00">+</text>
<text text-anchor="start" x="259.5" y="-249.5" font-family="Helvetica,sans-Serif" font-size="10.00">advanced_postfits</text>
<text text-anchor="start" x="246.5" y="-234.5" font-family="Helvetica,sans-Serif" font-size="10.00">+</text>
<text text-anchor="start" x="259.5" y="-234.5" font-family="Helvetica,sans-Serif" font-size="10.00">joseph_stabilisation</text>
<text text-anchor="start" x="246.5" y="-219.5" font-family="Helvetica,sans-Serif" font-size="10.00">+</text>
<text text-anchor="start" x="259.5" y="-219.5" font-family="Helvetica,sans-Serif" font-size="10.00">inverter</text>
<text text-anchor="start" x="300" y="-204.5" font-family="Helvetica,sans-Serif" font-size="10.00"> </text>
<polygon fill="#666666" stroke="#666666" points="242.5,-319.5 242.5,-319.5 361.5,-319.5 361.5,-319.5 242.5,-319.5"/>
<polygon fill="#666666" stroke="#666666" points="242.5,-214.5 242.5,-214.5 257.5,-214.5 257.5,-214.5 242.5,-214.5"/>
<polygon fill="#666666" stroke="#666666" points="257.5,-214.5 257.5,-214.5 361.5,-214.5 361.5,-214.5 257.5,-214.5"/>
<polygon fill="none" stroke="#666666" points="242,-198 242,-337 361,-337 361,-198 242,-198"/>
</a>
</g>
</g>
<!-- Node2&#45;&gt;Node1 -->
<g id="edge1_Node000001_Node000002" class="edge">
<title>Node2&#45;&gt;Node1</title>
<g id="a_edge1_Node000001_Node000002"><a xlink:title=" ">
<path fill="none" stroke="#63b8ff" d="M376.16,-187.3C390.53,-172.06 405.45,-156.23 419.42,-141.42"/>
<polygon fill="none" stroke="#63b8ff" points="373.47,-185.06 369.16,-194.73 378.56,-189.86 373.47,-185.06"/>
</a>
</g>
</g>
<!-- Node3 -->
<g id="Node000003" class="node">
<title>Node3</title>
<g id="a_Node000003"><a xlink:href="structRtsOptions.html" target="_top" xlink:title=" ">
<path fill="#fff0f0" stroke="red" d="M143,-549C143,-549 12,-549 12,-549 6,-549 0,-543 0,-537 0,-537 0,-444 0,-444 0,-438 6,-432 12,-432 12,-432 143,-432 143,-432 149,-432 155,-438 155,-444 155,-444 155,-537 155,-537 155,-543 149,-549 143,-549"/>
<text text-anchor="start" x="51" y="-532.5" font-family="Helvetica,sans-Serif" font-size="10.00">RtsOptions</text>
<text text-anchor="start" x="12.5" y="-517.5" font-family="Helvetica,sans-Serif" font-size="10.00">+</text>
<text text-anchor="start" x="25.5" y="-517.5" font-family="Helvetica,sans-Serif" font-size="10.00">rts_lag</text>
<text text-anchor="start" x="12.5" y="-502.5" font-family="Helvetica,sans-Serif" font-size="10.00">+</text>
<text text-anchor="start" x="25.5" y="-502.5" font-family="Helvetica,sans-Serif" font-size="10.00">rts_interval</text>
<text text-anchor="start" x="12.5" y="-487.5" font-family="Helvetica,sans-Serif" font-size="10.00">+</text>
<text text-anchor="start" x="25.5" y="-487.5" font-family="Helvetica,sans-Serif" font-size="10.00">output_intermediate_rts</text>
<text text-anchor="start" x="12.5" y="-472.5" font-family="Helvetica,sans-Serif" font-size="10.00">+</text>
<text text-anchor="start" x="25.5" y="-472.5" font-family="Helvetica,sans-Serif" font-size="10.00">queue_rts_outputs</text>
<text text-anchor="start" x="12.5" y="-457.5" font-family="Helvetica,sans-Serif" font-size="10.00">+</text>
<text text-anchor="start" x="25.5" y="-457.5" font-family="Helvetica,sans-Serif" font-size="10.00">rts_inverter</text>
<text text-anchor="start" x="76" y="-442.5" font-family="Helvetica,sans-Serif" font-size="10.00"> </text>
<polygon fill="red" stroke="red" points="8.5,-527.5 8.5,-527.5 147.5,-527.5 147.5,-527.5 8.5,-527.5"/>
<polygon fill="red" stroke="red" points="8.5,-452.5 8.5,-452.5 23.5,-452.5 23.5,-452.5 8.5,-452.5"/>
<polygon fill="red" stroke="red" points="23.5,-452.5 23.5,-452.5 147.5,-452.5 147.5,-452.5 23.5,-452.5"/>
<polygon fill="none" stroke="red" points="8,-436 8,-545 147,-545 147,-436 8,-436"/>
</a>
</g>
</g>
<!-- Node3&#45;&gt;Node2 -->
<g id="edge2_Node000002_Node000003" class="edge">
<title>Node3&#45;&gt;Node2</title>
<g id="a_edge2_Node000002_Node000003"><a xlink:title=" ">
<path fill="none" stroke="#63b8ff" d="M143.19,-424.68C171.69,-396.57 205.04,-363.67 233.76,-335.33"/>
<polygon fill="none" stroke="#63b8ff" points="140.72,-422.21 136.06,-431.72 145.64,-427.19 140.72,-422.21"/>
</a>
</g>
</g>
<!-- Node5 -->
<g id="Node000005" class="node">
<title>Node5</title>
<g id="a_Node000005"><a xlink:href="structPrefitOptions.html" target="_top" xlink:title=" ">
<path fill="white" stroke="#666666" d="M280,-541.5C280,-541.5 185,-541.5 185,-541.5 179,-541.5 173,-535.5 173,-529.5 173,-529.5 173,-451.5 173,-451.5 173,-445.5 179,-439.5 185,-439.5 185,-439.5 280,-439.5 280,-439.5 286,-439.5 292,-445.5 292,-451.5 292,-451.5 292,-529.5 292,-529.5 292,-535.5 286,-541.5 280,-541.5"/>
<text text-anchor="start" x="201" y="-525.5" font-family="Helvetica,sans-Serif" font-size="10.00">PrefitOptions</text>
<text text-anchor="start" x="185.5" y="-510.5" font-family="Helvetica,sans-Serif" font-size="10.00">+</text>
<text text-anchor="start" x="198.5" y="-510.5" font-family="Helvetica,sans-Serif" font-size="10.00">max_iterations</text>
<text text-anchor="start" x="185.5" y="-495.5" font-family="Helvetica,sans-Serif" font-size="10.00">+</text>
<text text-anchor="start" x="198.5" y="-495.5" font-family="Helvetica,sans-Serif" font-size="10.00">sigma_check</text>
<text text-anchor="start" x="185.5" y="-480.5" font-family="Helvetica,sans-Serif" font-size="10.00">+</text>
<text text-anchor="start" x="198.5" y="-480.5" font-family="Helvetica,sans-Serif" font-size="10.00">sigma_threshold</text>
<text text-anchor="start" x="185.5" y="-465.5" font-family="Helvetica,sans-Serif" font-size="10.00">+</text>
<text text-anchor="start" x="198.5" y="-465.5" font-family="Helvetica,sans-Serif" font-size="10.00">omega_test</text>
<text text-anchor="start" x="231" y="-450.5" font-family="Helvetica,sans-Serif" font-size="10.00"> </text>
<polygon fill="#666666" stroke="#666666" points="181.5,-520.5 181.5,-520.5 284.5,-520.5 284.5,-520.5 181.5,-520.5"/>
<polygon fill="#666666" stroke="#666666" points="181.5,-460.5 181.5,-460.5 196.5,-460.5 196.5,-460.5 181.5,-460.5"/>
<polygon fill="#666666" stroke="#666666" points="196.5,-460.5 196.5,-460.5 284.5,-460.5 284.5,-460.5 196.5,-460.5"/>
<polygon fill="none" stroke="#666666" points="181,-443.5 181,-537.5 284,-537.5 284,-443.5 181,-443.5"/>
</a>
</g>
</g>
<!-- Node5&#45;&gt;Node2 -->
<g id="edge3_Node000002_Node000005" class="edge">
<title>Node5&#45;&gt;Node2</title>
<g id="a_edge3_Node000002_Node000005"><a xlink:title=" ">
<path fill="none" stroke="#63b8ff" d="M243.52,-439.49C249.33,-415.01 257.01,-385.23 265.5,-359 266.17,-356.92 266.87,-354.82 267.59,-352.7"/>
<polygon fill="none" stroke="#63b8ff" points="267.62,-352.63 265.83,-345.64 271.59,-341.3 273.38,-348.29 267.62,-352.63"/>
</a>
</g>
<text text-anchor="middle" x="295.5" y="-384" font-family="Helvetica,sans-Serif" font-size="10.00" fill="grey"> +prefitOpts</text>
</g>
<!-- Node6 -->
<g id="Node000006" class="node">
<title>Node6</title>
<g id="a_Node000006"><a xlink:href="structPostfitOptions.html" target="_top" xlink:title=" ">
<path fill="white" stroke="#666666" d="M417,-534C417,-534 322,-534 322,-534 316,-534 310,-528 310,-522 310,-522 310,-459 310,-459 310,-453 316,-447 322,-447 322,-447 417,-447 417,-447 423,-447 429,-453 429,-459 429,-459 429,-522 429,-522 429,-528 423,-534 417,-534"/>
<text text-anchor="start" x="335.5" y="-517.5" font-family="Helvetica,sans-Serif" font-size="10.00">PostfitOptions</text>
<text text-anchor="start" x="322.5" y="-502.5" font-family="Helvetica,sans-Serif" font-size="10.00">+</text>
<text text-anchor="start" x="335.5" y="-502.5" font-family="Helvetica,sans-Serif" font-size="10.00">max_iterations</text>
<text text-anchor="start" x="322.5" y="-487.5" font-family="Helvetica,sans-Serif" font-size="10.00">+</text>
<text text-anchor="start" x="335.5" y="-487.5" font-family="Helvetica,sans-Serif" font-size="10.00">sigma_check</text>
<text text-anchor="start" x="322.5" y="-472.5" font-family="Helvetica,sans-Serif" font-size="10.00">+</text>
<text text-anchor="start" x="335.5" y="-472.5" font-family="Helvetica,sans-Serif" font-size="10.00">sigma_threshold</text>
<text text-anchor="start" x="368" y="-457.5" font-family="Helvetica,sans-Serif" font-size="10.00"> </text>
<polygon fill="#666666" stroke="#666666" points="318.5,-512.5 318.5,-512.5 421.5,-512.5 421.5,-512.5 318.5,-512.5"/>
<polygon fill="#666666" stroke="#666666" points="318.5,-467.5 318.5,-467.5 333.5,-467.5 333.5,-467.5 318.5,-467.5"/>
<polygon fill="#666666" stroke="#666666" points="333.5,-467.5 333.5,-467.5 421.5,-467.5 421.5,-467.5 333.5,-467.5"/>
<polygon fill="none" stroke="#666666" points="318,-451 318,-530 421,-530 421,-451 318,-451"/>
</a>
</g>
</g>
<!-- Node6&#45;&gt;Node2 -->
<g id="edge4_Node000002_Node000006" class="edge">
<title>Node6&#45;&gt;Node2</title>
<g id="a_edge4_Node000002_Node000006"><a xlink:title=" ">
<path fill="none" stroke="#63b8ff" d="M356.39,-446.89C348.21,-420.3 337.39,-385.15 327.53,-353.09"/>
<polygon fill="none" stroke="#63b8ff" points="327.47,-352.91 321.88,-348.35 323.94,-341.44 329.53,-346 327.47,-352.91"/>
</a>
</g>
<text text-anchor="middle" x="379" y="-384" font-family="Helvetica,sans-Serif" font-size="10.00" fill="grey"> +postfitOpts</text>
</g>
<!-- Node7 -->
<g id="Node000007" class="node">
<title>Node7</title>
<g id="a_Node000007"><a xlink:title=" ">
<path fill="white" stroke="#666666" d="M548,-519C548,-519 459,-519 459,-519 453,-519 447,-513 447,-507 447,-507 447,-474 447,-474 447,-468 453,-462 459,-462 459,-462 548,-462 548,-462 554,-462 560,-468 560,-474 560,-474 560,-507 560,-507 560,-513 554,-519 548,-519"/>
<text text-anchor="start" x="460.5" y="-502.5" font-family="Helvetica,sans-Serif" font-size="10.00">vector&lt; double &gt;</text>
<text text-anchor="start" x="502" y="-487.5" font-family="Helvetica,sans-Serif" font-size="10.00"> </text>
<text text-anchor="start" x="502" y="-472.5" font-family="Helvetica,sans-Serif" font-size="10.00"> </text>
<polygon fill="#666666" stroke="#666666" points="455.5,-497.5 455.5,-497.5 552.5,-497.5 552.5,-497.5 455.5,-497.5"/>
<polygon fill="#666666" stroke="#666666" points="455.5,-482.5 455.5,-482.5 552.5,-482.5 552.5,-482.5 455.5,-482.5"/>
<polygon fill="none" stroke="#666666" points="455,-466 455,-515 552,-515 552,-466 455,-466"/>
</a>
</g>
</g>
<!-- Node7&#45;&gt;Node1 -->
<g id="edge5_Node000001_Node000007" class="edge">
<title>Node7&#45;&gt;Node1</title>
<g id="a_edge5_Node000001_Node000007"><a xlink:title=" ">
<path fill="none" stroke="#63b8ff" d="M500.88,-461.88C498.14,-432.08 493.92,-383.22 491.5,-341 488.03,-280.35 485.75,-211.85 484.35,-159.49"/>
<polygon fill="none" stroke="#63b8ff" points="484.35,-159.21 480.19,-153.32 484.04,-147.22 488.19,-153.11 484.35,-159.21"/>
</a>
</g>
<text text-anchor="middle" x="530.5" y="-265" font-family="Helvetica,sans-Serif" font-size="10.00" fill="grey"> +layer_heights</text>
</g>
<!-- Node9 -->
<g id="Node000009" class="node">
<title>Node9</title>
<g id="a_Node000009"><a xlink:href="structKalmanModel.html" target="_top" xlink:title="Options associated with kalman filter states.">
<path fill="white" stroke="#666666" d="M670,-296C670,-296 591,-296 591,-296 585,-296 579,-290 579,-284 579,-284 579,-251 579,-251 579,-245 585,-239 591,-239 591,-239 670,-239 670,-239 676,-239 682,-245 682,-251 682,-251 682,-284 682,-284 682,-290 676,-296 670,-296"/>
<text text-anchor="start" x="597" y="-279.5" font-family="Helvetica,sans-Serif" font-size="10.00">KalmanModel</text>
<text text-anchor="start" x="629" y="-264.5" font-family="Helvetica,sans-Serif" font-size="10.00"> </text>
<text text-anchor="start" x="591.5" y="-249.5" font-family="Helvetica,sans-Serif" font-size="10.00">+</text>
<text text-anchor="start" x="604.5" y="-249.5" font-family="Helvetica,sans-Serif" font-size="10.00">operator+=()</text>
<polygon fill="#666666" stroke="#666666" points="587.5,-274.5 587.5,-274.5 674.5,-274.5 674.5,-274.5 587.5,-274.5"/>
<polygon fill="#666666" stroke="#666666" points="587.5,-259.5 587.5,-259.5 674.5,-259.5 674.5,-259.5 587.5,-259.5"/>
<polygon fill="none" stroke="#666666" points="587,-243 587,-292 674,-292 674,-243 587,-243"/>
</a>
</g>
</g>
<!-- Node7&#45;&gt;Node9 -->
<g id="edge8_Node000009_Node000007" class="edge">
<title>Node7&#45;&gt;Node9</title>
<g id="a_edge8_Node000009_Node000007"><a xlink:title=" ">
<path fill="none" stroke="#63b8ff" d="M508.23,-461.8C513.88,-434.15 525.21,-391.23 545.5,-359 551.7,-349.16 556.36,-349.31 564.5,-341 575.69,-329.59 587.55,-316.79 598.08,-305.17"/>
<polygon fill="none" stroke="#63b8ff" points="598.18,-305.06 599.22,-297.92 606.21,-296.14 605.17,-303.28 598.18,-305.06"/>
</a>
</g>
<text text-anchor="middle" x="584.5" y="-406" font-family="Helvetica,sans-Serif" font-size="10.00" fill="grey"> +apriori_value</text>
<text text-anchor="middle" x="584.5" y="-395" font-family="Helvetica,sans-Serif" font-size="10.00" fill="grey">+mu</text>
<text text-anchor="middle" x="584.5" y="-384" font-family="Helvetica,sans-Serif" font-size="10.00" fill="grey">+process_noise</text>
<text text-anchor="middle" x="584.5" y="-373" font-family="Helvetica,sans-Serif" font-size="10.00" fill="grey">+sigma</text>
<text text-anchor="middle" x="584.5" y="-362" font-family="Helvetica,sans-Serif" font-size="10.00" fill="grey">+tau</text>
</g>
<!-- Node8 -->
<g id="Node000008" class="node">
<title>Node8</title>
<g id="a_Node000008"><a xlink:title=" ">
<path fill="white" stroke="#666666" d="M645,-653C645,-653 612,-653 612,-653 606,-653 600,-647 600,-641 600,-641 600,-608 600,-608 600,-602 606,-596 612,-596 612,-596 645,-596 645,-596 651,-596 657,-602 657,-608 657,-608 657,-641 657,-641 657,-647 651,-653 645,-653"/>
<text text-anchor="start" x="613.5" y="-636.5" font-family="Helvetica,sans-Serif" font-size="10.00">vector</text>
<text text-anchor="start" x="627" y="-621.5" font-family="Helvetica,sans-Serif" font-size="10.00"> </text>
<text text-anchor="start" x="627" y="-606.5" font-family="Helvetica,sans-Serif" font-size="10.00"> </text>
<polygon fill="#666666" stroke="#666666" points="608.5,-631.5 608.5,-631.5 649.5,-631.5 649.5,-631.5 608.5,-631.5"/>
<polygon fill="#666666" stroke="#666666" points="608.5,-616.5 608.5,-616.5 649.5,-616.5 649.5,-616.5 608.5,-616.5"/>
<polygon fill="none" stroke="#666666" points="608,-600 608,-649 649,-649 649,-600 608,-600"/>
</a>
</g>
</g>
<!-- Node8&#45;&gt;Node7 -->
<g id="edge6_Node000007_Node000008" class="edge">
<title>Node8&#45;&gt;Node7</title>
<g id="a_edge6_Node000007_Node000008"><a xlink:title=" ">
<path fill="none" stroke="orange" d="M591.8,-600.04C582.73,-593.45 573.37,-585.9 565.5,-578 547.89,-560.33 531.62,-537.24 520.16,-519.36"/>
<polygon fill="orange" stroke="orange" points="589.8,-602.91 599.99,-605.81 593.83,-597.19 589.8,-602.91"/>
</a>
</g>
<text text-anchor="middle" x="595" y="-570" font-family="Helvetica,sans-Serif" font-size="10.00" fill="grey"> &lt; double &gt;</text>
</g>
<!-- Node10 -->
<g id="Node000010" class="node">
<title>Node10</title>
<g id="a_Node000010"><a xlink:title=" ">
<path fill="white" stroke="#666666" d="M667,-519C667,-519 590,-519 590,-519 584,-519 578,-513 578,-507 578,-507 578,-474 578,-474 578,-468 584,-462 590,-462 590,-462 667,-462 667,-462 673,-462 679,-468 679,-474 679,-474 679,-507 679,-507 679,-513 673,-519 667,-519"/>
<text text-anchor="start" x="591.5" y="-502.5" font-family="Helvetica,sans-Serif" font-size="10.00">vector&lt; bool &gt;</text>
<text text-anchor="start" x="627" y="-487.5" font-family="Helvetica,sans-Serif" font-size="10.00"> </text>
<text text-anchor="start" x="627" y="-472.5" font-family="Helvetica,sans-Serif" font-size="10.00"> </text>
<polygon fill="#666666" stroke="#666666" points="586.5,-497.5 586.5,-497.5 671.5,-497.5 671.5,-497.5 586.5,-497.5"/>
<polygon fill="#666666" stroke="#666666" points="586.5,-482.5 586.5,-482.5 671.5,-482.5 671.5,-482.5 586.5,-482.5"/>
<polygon fill="none" stroke="#666666" points="586,-466 586,-515 671,-515 671,-466 586,-466"/>
</a>
</g>
</g>
<!-- Node8&#45;&gt;Node10 -->
<g id="edge10_Node000010_Node000008" class="edge">
<title>Node8&#45;&gt;Node10</title>
<g id="a_edge10_Node000010_Node000008"><a xlink:title=" ">
<path fill="none" stroke="orange" d="M628.5,-585.54C628.5,-564.34 628.5,-538.4 628.5,-519.14"/>
<polygon fill="orange" stroke="orange" points="625,-585.83 628.5,-595.83 632,-585.83 625,-585.83"/>
</a>
</g>
<text text-anchor="middle" x="652" y="-570" font-family="Helvetica,sans-Serif" font-size="10.00" fill="grey"> &lt; bool &gt;</text>
</g>
<!-- Node11 -->
<g id="Node000011" class="node">
<title>Node11</title>
<g id="a_Node000011"><a xlink:title=" ">
<path fill="white" stroke="#666666" d="M793.5,-519C793.5,-519 709.5,-519 709.5,-519 703.5,-519 697.5,-513 697.5,-507 697.5,-507 697.5,-474 697.5,-474 697.5,-468 703.5,-462 709.5,-462 709.5,-462 793.5,-462 793.5,-462 799.5,-462 805.5,-468 805.5,-474 805.5,-474 805.5,-507 805.5,-507 805.5,-513 799.5,-519 793.5,-519"/>
<text text-anchor="start" x="710.5" y="-502.5" font-family="Helvetica,sans-Serif" font-size="10.00">vector&lt; string &gt;</text>
<text text-anchor="start" x="749.5" y="-487.5" font-family="Helvetica,sans-Serif" font-size="10.00"> </text>
<text text-anchor="start" x="749.5" y="-472.5" font-family="Helvetica,sans-Serif" font-size="10.00"> </text>
<polygon fill="#666666" stroke="#666666" points="705.5,-497.5 705.5,-497.5 797.5,-497.5 797.5,-497.5 705.5,-497.5"/>
<polygon fill="#666666" stroke="#666666" points="705.5,-482.5 705.5,-482.5 797.5,-482.5 797.5,-482.5 705.5,-482.5"/>
<polygon fill="none" stroke="#666666" points="705.5,-466 705.5,-515 797.5,-515 797.5,-466 705.5,-466"/>
</a>
</g>
</g>
<!-- Node8&#45;&gt;Node11 -->
<g id="edge12_Node000011_Node000008" class="edge">
<title>Node8&#45;&gt;Node11</title>
<g id="a_edge12_Node000011_Node000008"><a xlink:title=" ">
<path fill="none" stroke="orange" d="M664.67,-592.44C669.77,-587.72 674.85,-582.82 679.5,-578 697.56,-559.31 716.29,-536.69 730.11,-519.27"/>
<polygon fill="orange" stroke="orange" points="662.29,-589.87 657.25,-599.19 667,-595.05 662.29,-589.87"/>
</a>
</g>
<text text-anchor="middle" x="714.5" y="-570" font-family="Helvetica,sans-Serif" font-size="10.00" fill="grey"> &lt; string &gt;</text>
</g>
<!-- Node9&#45;&gt;Node1 -->
<g id="edge7_Node000001_Node000009" class="edge">
<title>Node9&#45;&gt;Node1</title>
<g id="a_edge7_Node000001_Node000009"><a xlink:title=" ">
<path fill="none" stroke="#63b8ff" d="M609.3,-238.99C592.71,-217.47 568.73,-186.37 546.09,-156.99"/>
<polygon fill="none" stroke="#63b8ff" points="545.8,-156.61 538.97,-154.3 538.47,-147.11 545.3,-149.42 545.8,-156.61"/>
</a>
</g>
<text text-anchor="middle" x="570" y="-168" font-family="Helvetica,sans-Serif" font-size="10.00" fill="grey"> +ion</text>
</g>
<!-- Node10&#45;&gt;Node9 -->
<g id="edge9_Node000009_Node000010" class="edge">
<title>Node10&#45;&gt;Node9</title>
<g id="a_edge9_Node000009_Node000010"><a xlink:title=" ">
<path fill="none" stroke="#63b8ff" d="M628.32,-461.75C628.2,-435.33 628.11,-394.45 628.5,-359 628.68,-342.38 629.06,-324.06 629.43,-308.26"/>
<polygon fill="none" stroke="#63b8ff" points="629.43,-308.22 625.58,-302.12 629.73,-296.22 633.58,-302.32 629.43,-308.22"/>
</a>
</g>
<text text-anchor="middle" x="679.5" y="-389.5" font-family="Helvetica,sans-Serif" font-size="10.00" fill="grey"> +estimate</text>
<text text-anchor="middle" x="679.5" y="-378.5" font-family="Helvetica,sans-Serif" font-size="10.00" fill="grey">+use_remote_sigma</text>
</g>
<!-- Node11&#45;&gt;Node9 -->
<g id="edge11_Node000009_Node000011" class="edge">
<title>Node11&#45;&gt;Node9</title>
<g id="a_edge11_Node000009_Node000011"><a xlink:title=" ">
<path fill="none" stroke="#63b8ff" d="M752.25,-461.82C751.84,-434.18 748.02,-391.27 730.5,-359 718.95,-337.73 700.43,-318.88 682.44,-303.97"/>
<polygon fill="none" stroke="#63b8ff" points="681.94,-303.57 674.76,-302.97 672.56,-296.1 679.74,-296.71 681.94,-303.57"/>
</a>
</g>
<text text-anchor="middle" x="776.5" y="-384" font-family="Helvetica,sans-Serif" font-size="10.00" fill="grey"> +comment</text>
</g>
<!-- Node12 -->
<g id="Node000012" class="node">
<title>Node12</title>
<g id="a_Node000012"><a xlink:title=" ">
<path fill="#fff0f0" stroke="red" d="M923,-519C923,-519 836,-519 836,-519 830,-519 824,-513 824,-507 824,-507 824,-474 824,-474 824,-468 830,-462 836,-462 836,-462 923,-462 923,-462 929,-462 935,-468 935,-474 935,-474 935,-507 935,-507 935,-513 929,-519 923,-519"/>
<text text-anchor="start" x="837.5" y="-502.5" font-family="Helvetica,sans-Serif" font-size="10.00">map&lt; int, bool &gt;</text>
<text text-anchor="start" x="878" y="-487.5" font-family="Helvetica,sans-Serif" font-size="10.00"> </text>
<text text-anchor="start" x="878" y="-472.5" font-family="Helvetica,sans-Serif" font-size="10.00"> </text>
<polygon fill="red" stroke="red" points="832.5,-497.5 832.5,-497.5 927.5,-497.5 927.5,-497.5 832.5,-497.5"/>
<polygon fill="red" stroke="red" points="832.5,-482.5 832.5,-482.5 927.5,-482.5 927.5,-482.5 832.5,-482.5"/>
<polygon fill="none" stroke="red" points="832,-466 832,-515 927,-515 927,-466 832,-466"/>
</a>
</g>
</g>
<!-- Node12&#45;&gt;Node9 -->
<g id="edge13_Node000009_Node000012" class="edge">
<title>Node12&#45;&gt;Node9</title>
<g id="a_edge13_Node000009_Node000012"><a xlink:title=" ">
<path fill="none" stroke="#63b8ff" d="M870.37,-461.93C859.67,-433.17 839.49,-388.27 809.5,-359 776.87,-327.15 730.78,-304.2 693.54,-289.39"/>
<polygon fill="none" stroke="#63b8ff" points="693.49,-289.37 686.46,-290.94 682.3,-285.05 689.33,-283.47 693.49,-289.37"/>
</a>
</g>
<text text-anchor="middle" x="887" y="-384" font-family="Helvetica,sans-Serif" font-size="10.00" fill="grey"> +initialisedMap</text>
</g>
</g>
</svg>
