<?xml version="1.0" encoding="UTF-8" standalone="no"?>
<!DOCTYPE svg PUBLIC "-//W3C//DTD SVG 1.1//EN"
 "http://www.w3.org/Graphics/SVG/1.1/DTD/svg11.dtd">
<!-- Generated by graphviz version 2.43.0 (0)
 -->
<!-- Title: Destructor Pages: 1 -->
<svg width="112pt" height="65pt"
 viewBox="0.00 0.00 112.00 65.00" xmlns="http://www.w3.org/2000/svg" xmlns:xlink="http://www.w3.org/1999/xlink">
<g id="graph0" class="graph" transform="scale(1 1) rotate(0) translate(4 61)">
<title>Destructor</title>
<!-- Node1 -->
<g id="Node000001" class="node">
<title>Node1</title>
<g id="a_Node000001"><a xlink:href="structDestructor.html" target="_top" xlink:title=" ">
<path fill="white" stroke="#666666" stroke-width="2" d="M92,-57C92,-57 12,-57 12,-57 6,-57 0,-51 0,-45 0,-45 0,-12 0,-12 0,-6 6,0 12,0 12,0 92,0 92,0 98,0 104,-6 104,-12 104,-12 104,-45 104,-45 104,-51 98,-57 92,-57"/>
<text text-anchor="start" x="26" y="-40.5" font-family="Helvetica,sans-Serif" font-size="10.00">Destructor</text>
<text text-anchor="start" x="50" y="-25.5" font-family="Helvetica,sans-Serif" font-size="10.00"> </text>
<text text-anchor="start" x="12" y="-10.5" font-family="Helvetica,sans-Serif" font-size="10.00">+</text>
<text text-anchor="start" x="25" y="-10.5" font-family="Helvetica,sans-Serif" font-size="10.00">~Destructor()</text>
<polygon fill="#666666" stroke="#666666" points="8,-35.5 8,-35.5 96,-35.5 96,-35.5 8,-35.5"/>
<polygon fill="#666666" stroke="#666666" points="8,-20.5 8,-20.5 96,-20.5 96,-20.5 8,-20.5"/>
<polygon fill="none" stroke="#666666" points="8,-4 8,-53 96,-53 96,-4 8,-4"/>
</a>
</g>
</g>
</g>
</svg>
