<?xml version="1.0" encoding="UTF-8" standalone="no"?>
<!DOCTYPE svg PUBLIC "-//W3C//DTD SVG 1.1//EN"
 "http://www.w3.org/Graphics/SVG/1.1/DTD/svg11.dtd">
<!-- Generated by graphviz version 2.43.0 (0)
 -->
<!-- Title: NtripBroadcaster Pages: 1 -->
<svg width="203pt" height="310pt"
 viewBox="0.00 0.00 202.50 310.00" xmlns="http://www.w3.org/2000/svg" xmlns:xlink="http://www.w3.org/1999/xlink">
<g id="graph0" class="graph" transform="scale(1 1) rotate(0) translate(4 306)">
<title>NtripBroadcaster</title>
<!-- Node1 -->
<g id="Node000001" class="node">
<title>Node1</title>
<g id="a_Node000001"><a xlink:href="structNtripBroadcaster.html" target="_top" xlink:title=" ">
<path fill="white" stroke="#666666" stroke-width="2" d="M119.5,-72C119.5,-72 27.5,-72 27.5,-72 21.5,-72 15.5,-66 15.5,-60 15.5,-60 15.5,-12 15.5,-12 15.5,-6 21.5,0 27.5,0 27.5,0 119.5,0 119.5,0 125.5,0 131.5,-6 131.5,-12 131.5,-12 131.5,-60 131.5,-60 131.5,-66 125.5,-72 119.5,-72"/>
<text text-anchor="start" x="32" y="-56" font-family="Helvetica,sans-Serif" font-size="10.00">NtripBroadcaster</text>
<text text-anchor="start" x="71.5" y="-41" font-family="Helvetica,sans-Serif" font-size="10.00"> </text>
<text text-anchor="start" x="27.5" y="-26" font-family="Helvetica,sans-Serif" font-size="10.00">+</text>
<text text-anchor="start" x="40.5" y="-26" font-family="Helvetica,sans-Serif" font-size="10.00">startBroadcast()</text>
<text text-anchor="start" x="27.5" y="-11" font-family="Helvetica,sans-Serif" font-size="10.00">+</text>
<text text-anchor="start" x="40.5" y="-11" font-family="Helvetica,sans-Serif" font-size="10.00">stopBroadcast()</text>
<polygon fill="#666666" stroke="#666666" points="23.5,-51 23.5,-51 123.5,-51 123.5,-51 23.5,-51"/>
<polygon fill="#666666" stroke="#666666" points="23.5,-36 23.5,-36 123.5,-36 123.5,-36 23.5,-36"/>
<polygon fill="none" stroke="#666666" points="23.5,-4 23.5,-68 123.5,-68 123.5,-4 23.5,-4"/>
</a>
</g>
</g>
<!-- Node2 -->
<g id="Node000002" class="node">
<title>Node2</title>
<g id="a_Node000002"><a xlink:title=" ">
<path fill="white" stroke="#666666" d="M135,-187C135,-187 12,-187 12,-187 6,-187 0,-181 0,-175 0,-175 0,-131 0,-131 0,-125 6,-119 12,-119 12,-119 135,-119 135,-119 141,-119 147,-125 147,-131 147,-131 147,-175 147,-175 147,-181 141,-187 135,-187"/>
<text text-anchor="start" x="13.5" y="-171" font-family="Helvetica,sans-Serif" font-size="10.00">map&lt; string, std::shared</text>
<text text-anchor="start" x="13.5" y="-160" font-family="Helvetica,sans-Serif" font-size="10.00">_ptr&lt; NtripUploader &gt; &gt;</text>
<text text-anchor="start" x="72" y="-145" font-family="Helvetica,sans-Serif" font-size="10.00"> </text>
<text text-anchor="start" x="72" y="-130" font-family="Helvetica,sans-Serif" font-size="10.00"> </text>
<polygon fill="#666666" stroke="#666666" points="8.5,-155 8.5,-155 139.5,-155 139.5,-155 8.5,-155"/>
<polygon fill="#666666" stroke="#666666" points="8.5,-140 8.5,-140 139.5,-140 139.5,-140 8.5,-140"/>
<polygon fill="none" stroke="#666666" points="8,-123 8,-183 139,-183 139,-123 8,-123"/>
</a>
</g>
</g>
<!-- Node2&#45;&gt;Node1 -->
<g id="edge1_Node000001_Node000002" class="edge">
<title>Node2&#45;&gt;Node1</title>
<g id="a_edge1_Node000001_Node000002"><a xlink:title=" ">
<path fill="none" stroke="#63b8ff" d="M73.5,-118.74C73.5,-108.02 73.5,-95.93 73.5,-84.39"/>
<polygon fill="none" stroke="#63b8ff" points="73.5,-84.19 69.5,-78.19 73.5,-72.19 77.5,-78.19 73.5,-84.19"/>
</a>
</g>
<text text-anchor="middle" x="128" y="-93" font-family="Helvetica,sans-Serif" font-size="10.00" fill="grey"> +ntripUploadStreams</text>
</g>
<!-- Node3 -->
<g id="Node000003" class="node">
<title>Node3</title>
<g id="a_Node000003"><a xlink:title=" ">
<path fill="white" stroke="#666666" d="M85.5,-302C85.5,-302 61.5,-302 61.5,-302 55.5,-302 49.5,-296 49.5,-290 49.5,-290 49.5,-257 49.5,-257 49.5,-251 55.5,-245 61.5,-245 61.5,-245 85.5,-245 85.5,-245 91.5,-245 97.5,-251 97.5,-257 97.5,-257 97.5,-290 97.5,-290 97.5,-296 91.5,-302 85.5,-302"/>
<text text-anchor="start" x="62.5" y="-285.5" font-family="Helvetica,sans-Serif" font-size="10.00">map</text>
<text text-anchor="start" x="71.5" y="-270.5" font-family="Helvetica,sans-Serif" font-size="10.00"> </text>
<text text-anchor="start" x="71.5" y="-255.5" font-family="Helvetica,sans-Serif" font-size="10.00"> </text>
<polygon fill="#666666" stroke="#666666" points="57.5,-280.5 57.5,-280.5 89.5,-280.5 89.5,-280.5 57.5,-280.5"/>
<polygon fill="#666666" stroke="#666666" points="57.5,-265.5 57.5,-265.5 89.5,-265.5 89.5,-265.5 57.5,-265.5"/>
<polygon fill="none" stroke="#666666" points="57.5,-249 57.5,-298 89.5,-298 89.5,-249 57.5,-249"/>
</a>
</g>
</g>
<!-- Node3&#45;&gt;Node2 -->
<g id="edge2_Node000002_Node000003" class="edge">
<title>Node3&#45;&gt;Node2</title>
<g id="a_edge2_Node000002_Node000003"><a xlink:title=" ">
<path fill="none" stroke="orange" d="M73.5,-234.55C73.5,-219.28 73.5,-201.83 73.5,-187.09"/>
<polygon fill="orange" stroke="orange" points="70,-234.72 73.5,-244.72 77,-234.72 70,-234.72"/>
</a>
</g>
<text text-anchor="start" x="73.5" y="-219" font-family="Helvetica,sans-Serif" font-size="10.00" fill="grey"> &lt; string, std::shared</text>
<text text-anchor="middle" x="134" y="-208" font-family="Helvetica,sans-Serif" font-size="10.00" fill="grey">_ptr&lt; NtripUploader &gt; &gt;</text>
</g>
</g>
</svg>
