<?xml version="1.0" encoding="UTF-8" standalone="no"?>
<!DOCTYPE svg PUBLIC "-//W3C//DTD SVG 1.1//EN"
 "http://www.w3.org/Graphics/SVG/1.1/DTD/svg11.dtd">
<!-- Generated by graphviz version 2.43.0 (0)
 -->
<!-- Title: LObs Pages: 1 -->
<svg width="529pt" height="1774pt"
 viewBox="0.00 0.00 529.00 1774.00" xmlns="http://www.w3.org/2000/svg" xmlns:xlink="http://www.w3.org/1999/xlink">
<g id="graph0" class="graph" transform="scale(1 1) rotate(0) translate(4 1770)">
<title>LObs</title>
<!-- Node1 -->
<g id="Node000001" class="node">
<title>Node1</title>
<g id="a_Node000001"><a xlink:href="structLObs.html" target="_top" xlink:title=" ">
<path fill="white" stroke="#666666" stroke-width="2" d="M373,-469C373,-469 257,-469 257,-469 251,-469 245,-463 245,-457 245,-457 245,-263 245,-263 245,-257 251,-251 257,-251 257,-251 373,-251 373,-251 379,-251 385,-257 385,-263 385,-263 385,-457 385,-457 385,-463 379,-469 373,-469"/>
<text text-anchor="start" x="302.5" y="-453" font-family="Helvetica,sans-Serif" font-size="10.00">LObs</text>
<text text-anchor="start" x="257" y="-438" font-family="Helvetica,sans-Serif" font-size="10.00">+</text>
<text text-anchor="start" x="270" y="-438" font-family="Helvetica,sans-Serif" font-size="10.00">epochEvent</text>
<text text-anchor="start" x="257" y="-423" font-family="Helvetica,sans-Serif" font-size="10.00">+</text>
<text text-anchor="start" x="270" y="-423" font-family="Helvetica,sans-Serif" font-size="10.00">twoWayTimeOfFlight</text>
<text text-anchor="start" x="257" y="-408" font-family="Helvetica,sans-Serif" font-size="10.00">+</text>
<text text-anchor="start" x="270" y="-408" font-family="Helvetica,sans-Serif" font-size="10.00">pressure</text>
<text text-anchor="start" x="257" y="-393" font-family="Helvetica,sans-Serif" font-size="10.00">+</text>
<text text-anchor="start" x="270" y="-393" font-family="Helvetica,sans-Serif" font-size="10.00">temperature</text>
<text text-anchor="start" x="257" y="-378" font-family="Helvetica,sans-Serif" font-size="10.00">+</text>
<text text-anchor="start" x="270" y="-378" font-family="Helvetica,sans-Serif" font-size="10.00">humidity</text>
<text text-anchor="start" x="257" y="-363" font-family="Helvetica,sans-Serif" font-size="10.00">+</text>
<text text-anchor="start" x="270" y="-363" font-family="Helvetica,sans-Serif" font-size="10.00">wavelengthNm</text>
<text text-anchor="start" x="257" y="-348" font-family="Helvetica,sans-Serif" font-size="10.00">+</text>
<text text-anchor="start" x="270" y="-348" font-family="Helvetica,sans-Serif" font-size="10.00">rangeBias</text>
<text text-anchor="start" x="257" y="-333" font-family="Helvetica,sans-Serif" font-size="10.00">+</text>
<text text-anchor="start" x="270" y="-333" font-family="Helvetica,sans-Serif" font-size="10.00">timeBias</text>
<text text-anchor="start" x="257" y="-318" font-family="Helvetica,sans-Serif" font-size="10.00">+</text>
<text text-anchor="start" x="270" y="-318" font-family="Helvetica,sans-Serif" font-size="10.00">pressureBias</text>
<text text-anchor="start" x="257" y="-303" font-family="Helvetica,sans-Serif" font-size="10.00">+</text>
<text text-anchor="start" x="270" y="-303" font-family="Helvetica,sans-Serif" font-size="10.00">humidityBias</text>
<text text-anchor="start" x="257" y="-288" font-family="Helvetica,sans-Serif" font-size="10.00">+</text>
<text text-anchor="start" x="270" y="-288" font-family="Helvetica,sans-Serif" font-size="10.00">operator shared_ptr</text>
<text text-anchor="start" x="270" y="-277" font-family="Helvetica,sans-Serif" font-size="10.00">&lt; LObs &gt;()</text>
<text text-anchor="start" x="257" y="-262" font-family="Helvetica,sans-Serif" font-size="10.00">+</text>
<text text-anchor="start" x="270" y="-262" font-family="Helvetica,sans-Serif" font-size="10.00">~LObs()</text>
<polygon fill="#666666" stroke="#666666" points="253,-448 253,-448 377,-448 377,-448 253,-448"/>
<polygon fill="#666666" stroke="#666666" points="253,-298 253,-298 268,-298 268,-298 253,-298"/>
<polygon fill="#666666" stroke="#666666" points="268,-298 268,-298 377,-298 377,-298 268,-298"/>
<polygon fill="none" stroke="#666666" points="253,-255 253,-465 377,-465 377,-255 253,-255"/>
</a>
</g>
</g>
<!-- Node2 -->
<g id="Node000002" class="node">
<title>Node2</title>
<g id="a_Node000002"><a xlink:href="structObservation.html" target="_top" xlink:title=" ">
<path fill="white" stroke="#666666" d="M314.5,-187C314.5,-187 225.5,-187 225.5,-187 219.5,-187 213.5,-181 213.5,-175 213.5,-175 213.5,-142 213.5,-142 213.5,-136 219.5,-130 225.5,-130 225.5,-130 314.5,-130 314.5,-130 320.5,-130 326.5,-136 326.5,-142 326.5,-142 326.5,-175 326.5,-175 326.5,-181 320.5,-187 314.5,-187"/>
<text text-anchor="start" x="240.5" y="-170.5" font-family="Helvetica,sans-Serif" font-size="10.00">Observation</text>
<text text-anchor="start" x="226" y="-155.5" font-family="Helvetica,sans-Serif" font-size="10.00">+</text>
<text text-anchor="start" x="239" y="-155.5" font-family="Helvetica,sans-Serif" font-size="10.00">ephVar</text>
<text text-anchor="start" x="226" y="-140.5" font-family="Helvetica,sans-Serif" font-size="10.00">+</text>
<text text-anchor="start" x="239" y="-140.5" font-family="Helvetica,sans-Serif" font-size="10.00">~Observation()</text>
<polygon fill="#666666" stroke="#666666" points="222,-165.5 222,-165.5 319,-165.5 319,-165.5 222,-165.5"/>
<polygon fill="#666666" stroke="#666666" points="222,-150.5 222,-150.5 237,-150.5 237,-150.5 222,-150.5"/>
<polygon fill="#666666" stroke="#666666" points="237,-150.5 237,-150.5 319,-150.5 319,-150.5 237,-150.5"/>
<polygon fill="none" stroke="#666666" points="221.5,-134 221.5,-183 318.5,-183 318.5,-134 221.5,-134"/>
</a>
</g>
</g>
<!-- Node1&#45;&gt;Node2 -->
<g id="edge13_Node000002_Node000001" class="edge">
<title>Node1&#45;&gt;Node2</title>
<g id="a_edge13_Node000002_Node000001"><a xlink:title=" ">
<path fill="none" stroke="#63b8ff" d="M293.53,-250.66C290.18,-235.29 286.63,-219.72 283,-205 282.51,-203.03 282,-201.01 281.47,-198.97"/>
<polygon fill="none" stroke="#63b8ff" points="281.45,-198.91 276.02,-194.17 278.3,-187.33 283.73,-192.07 281.45,-198.91"/>
</a>
</g>
<text text-anchor="middle" x="311" y="-208" font-family="Helvetica,sans-Serif" font-size="10.00" fill="grey"> #lObs_ptr</text>
</g>
<!-- Node2&#45;&gt;Node1 -->
<g id="edge1_Node000001_Node000002" class="edge">
<title>Node2&#45;&gt;Node1</title>
<g id="a_edge1_Node000001_Node000002"><a xlink:title=" ">
<path fill="none" stroke="#63b8ff" d="M278.53,-197.32C282.02,-212.8 286.26,-231.58 290.59,-250.78"/>
<polygon fill="none" stroke="#63b8ff" points="281.85,-196.14 276.24,-187.16 275.02,-197.68 281.85,-196.14"/>
</a>
</g>
</g>
<!-- Node6 -->
<g id="Node000006" class="node">
<title>Node6</title>
<g id="a_Node000006"><a xlink:href="structGObs.html" target="_top" xlink:title="Raw observation data from a receiver.">
<path fill="#fff0f0" stroke="red" d="M122,-83C122,-83 12,-83 12,-83 6,-83 0,-77 0,-71 0,-71 0,-12 0,-12 0,-6 6,0 12,0 12,0 122,0 122,0 128,0 134,-6 134,-12 134,-12 134,-71 134,-71 134,-77 128,-83 122,-83"/>
<text text-anchor="start" x="53.5" y="-66.5" font-family="Helvetica,sans-Serif" font-size="10.00">GObs</text>
<text text-anchor="start" x="65" y="-51.5" font-family="Helvetica,sans-Serif" font-size="10.00"> </text>
<text text-anchor="start" x="12" y="-36.5" font-family="Helvetica,sans-Serif" font-size="10.00">+</text>
<text text-anchor="start" x="25" y="-36.5" font-family="Helvetica,sans-Serif" font-size="10.00">operator shared_ptr</text>
<text text-anchor="start" x="25" y="-25.5" font-family="Helvetica,sans-Serif" font-size="10.00">&lt; GObs &gt;()</text>
<text text-anchor="start" x="12" y="-10.5" font-family="Helvetica,sans-Serif" font-size="10.00">+</text>
<text text-anchor="start" x="25" y="-10.5" font-family="Helvetica,sans-Serif" font-size="10.00">~GObs()</text>
<polygon fill="red" stroke="red" points="8,-61.5 8,-61.5 126,-61.5 126,-61.5 8,-61.5"/>
<polygon fill="red" stroke="red" points="8,-46.5 8,-46.5 126,-46.5 126,-46.5 8,-46.5"/>
<polygon fill="none" stroke="red" points="8,-4 8,-79 126,-79 126,-4 8,-4"/>
</a>
</g>
</g>
<!-- Node2&#45;&gt;Node6 -->
<g id="edge6_Node000006_Node000002" class="edge">
<title>Node2&#45;&gt;Node6</title>
<g id="a_edge6_Node000006_Node000002"><a xlink:title=" ">
<path fill="none" stroke="#63b8ff" d="M212.57,-124.97C188.12,-111.12 159.44,-94.87 134.03,-80.47"/>
<polygon fill="none" stroke="#63b8ff" points="210.95,-128.07 221.38,-129.95 214.4,-121.98 210.95,-128.07"/>
</a>
</g>
</g>
<!-- Node89 -->
<g id="Node000089" class="node">
<title>Node89</title>
<g id="a_Node000089"><a xlink:href="structPObs.html" target="_top" xlink:title=" ">
<path fill="#fff0f0" stroke="red" d="M274,-83C274,-83 164,-83 164,-83 158,-83 152,-77 152,-71 152,-71 152,-12 152,-12 152,-6 158,0 164,0 164,0 274,0 274,0 280,0 286,-6 286,-12 286,-12 286,-71 286,-71 286,-77 280,-83 274,-83"/>
<text text-anchor="start" x="206.5" y="-66.5" font-family="Helvetica,sans-Serif" font-size="10.00">PObs</text>
<text text-anchor="start" x="217" y="-51.5" font-family="Helvetica,sans-Serif" font-size="10.00"> </text>
<text text-anchor="start" x="164" y="-36.5" font-family="Helvetica,sans-Serif" font-size="10.00">+</text>
<text text-anchor="start" x="177" y="-36.5" font-family="Helvetica,sans-Serif" font-size="10.00">operator shared_ptr</text>
<text text-anchor="start" x="177" y="-25.5" font-family="Helvetica,sans-Serif" font-size="10.00">&lt; PObs &gt;()</text>
<text text-anchor="start" x="164" y="-10.5" font-family="Helvetica,sans-Serif" font-size="10.00">+</text>
<text text-anchor="start" x="177" y="-10.5" font-family="Helvetica,sans-Serif" font-size="10.00">~PObs()</text>
<polygon fill="red" stroke="red" points="160,-61.5 160,-61.5 278,-61.5 278,-61.5 160,-61.5"/>
<polygon fill="red" stroke="red" points="160,-46.5 160,-46.5 278,-46.5 278,-46.5 160,-46.5"/>
<polygon fill="none" stroke="red" points="160,-4 160,-79 278,-79 278,-4 160,-4"/>
</a>
</g>
</g>
<!-- Node2&#45;&gt;Node89 -->
<g id="edge10_Node000089_Node000002" class="edge">
<title>Node2&#45;&gt;Node89</title>
<g id="a_edge10_Node000089_Node000002"><a xlink:title=" ">
<path fill="none" stroke="#63b8ff" d="M262.5,-119.96C260.7,-113.52 258.55,-106.98 256,-101 253.45,-95.03 250.33,-88.98 247,-83.14"/>
<polygon fill="none" stroke="#63b8ff" points="259.17,-121.08 265.03,-129.91 265.96,-119.36 259.17,-121.08"/>
</a>
</g>
</g>
<!-- Node90 -->
<g id="Node000090" class="node">
<title>Node90</title>
<g id="a_Node000090"><a xlink:href="structFObs.html" target="_top" xlink:title=" ">
<path fill="#fff0f0" stroke="red" d="M426,-83C426,-83 316,-83 316,-83 310,-83 304,-77 304,-71 304,-71 304,-12 304,-12 304,-6 310,0 316,0 316,0 426,0 426,0 432,0 438,-6 438,-12 438,-12 438,-71 438,-71 438,-77 432,-83 426,-83"/>
<text text-anchor="start" x="358.5" y="-66.5" font-family="Helvetica,sans-Serif" font-size="10.00">FObs</text>
<text text-anchor="start" x="369" y="-51.5" font-family="Helvetica,sans-Serif" font-size="10.00"> </text>
<text text-anchor="start" x="316" y="-36.5" font-family="Helvetica,sans-Serif" font-size="10.00">+</text>
<text text-anchor="start" x="329" y="-36.5" font-family="Helvetica,sans-Serif" font-size="10.00">operator shared_ptr</text>
<text text-anchor="start" x="329" y="-25.5" font-family="Helvetica,sans-Serif" font-size="10.00">&lt; FObs &gt;()</text>
<text text-anchor="start" x="316" y="-10.5" font-family="Helvetica,sans-Serif" font-size="10.00">+</text>
<text text-anchor="start" x="329" y="-10.5" font-family="Helvetica,sans-Serif" font-size="10.00">~FObs()</text>
<polygon fill="red" stroke="red" points="312,-61.5 312,-61.5 430,-61.5 430,-61.5 312,-61.5"/>
<polygon fill="red" stroke="red" points="312,-46.5 312,-46.5 430,-46.5 430,-46.5 312,-46.5"/>
<polygon fill="none" stroke="red" points="312,-4 312,-79 430,-79 430,-4 312,-4"/>
</a>
</g>
</g>
<!-- Node2&#45;&gt;Node90 -->
<g id="edge12_Node000090_Node000002" class="edge">
<title>Node2&#45;&gt;Node90</title>
<g id="a_edge12_Node000090_Node000002"><a xlink:title=" ">
<path fill="none" stroke="#63b8ff" d="M335.34,-131.89C343.58,-126.37 351.15,-119.79 357,-112 363.21,-103.73 366.85,-93.41 368.94,-83.26"/>
<polygon fill="none" stroke="#63b8ff" points="333.27,-129.06 326.57,-137.27 336.92,-135.03 333.27,-129.06"/>
</a>
</g>
</g>
<!-- Node3 -->
<g id="Node000003" class="node">
<title>Node3</title>
<g id="a_Node000003"><a xlink:href="structObsMeta.html" target="_top" xlink:title=" ">
<path fill="white" stroke="#666666" d="M214.5,-486C214.5,-486 95.5,-486 95.5,-486 89.5,-486 83.5,-480 83.5,-474 83.5,-474 83.5,-246 83.5,-246 83.5,-240 89.5,-234 95.5,-234 95.5,-234 214.5,-234 214.5,-234 220.5,-234 226.5,-240 226.5,-246 226.5,-246 226.5,-474 226.5,-474 226.5,-480 220.5,-486 214.5,-486"/>
<text text-anchor="start" x="133.5" y="-470" font-family="Helvetica,sans-Serif" font-size="10.00">ObsMeta</text>
<text text-anchor="start" x="96" y="-455" font-family="Helvetica,sans-Serif" font-size="10.00">+</text>
<text text-anchor="start" x="109" y="-455" font-family="Helvetica,sans-Serif" font-size="10.00">exclude</text>
<text text-anchor="start" x="96" y="-440" font-family="Helvetica,sans-Serif" font-size="10.00">+</text>
<text text-anchor="start" x="109" y="-440" font-family="Helvetica,sans-Serif" font-size="10.00">excludeElevation</text>
<text text-anchor="start" x="96" y="-425" font-family="Helvetica,sans-Serif" font-size="10.00">+</text>
<text text-anchor="start" x="109" y="-425" font-family="Helvetica,sans-Serif" font-size="10.00">excludeEclipse</text>
<text text-anchor="start" x="96" y="-410" font-family="Helvetica,sans-Serif" font-size="10.00">+</text>
<text text-anchor="start" x="109" y="-410" font-family="Helvetica,sans-Serif" font-size="10.00">excludeSystem</text>
<text text-anchor="start" x="96" y="-395" font-family="Helvetica,sans-Serif" font-size="10.00">+</text>
<text text-anchor="start" x="109" y="-395" font-family="Helvetica,sans-Serif" font-size="10.00">excludeOutlier</text>
<text text-anchor="start" x="96" y="-380" font-family="Helvetica,sans-Serif" font-size="10.00">+</text>
<text text-anchor="start" x="109" y="-380" font-family="Helvetica,sans-Serif" font-size="10.00">excludeBadSPP</text>
<text text-anchor="start" x="96" y="-365" font-family="Helvetica,sans-Serif" font-size="10.00">+</text>
<text text-anchor="start" x="109" y="-365" font-family="Helvetica,sans-Serif" font-size="10.00">excludeConfig</text>
<text text-anchor="start" x="96" y="-350" font-family="Helvetica,sans-Serif" font-size="10.00">+</text>
<text text-anchor="start" x="109" y="-350" font-family="Helvetica,sans-Serif" font-size="10.00">excludeSVH</text>
<text text-anchor="start" x="96" y="-335" font-family="Helvetica,sans-Serif" font-size="10.00">+</text>
<text text-anchor="start" x="109" y="-335" font-family="Helvetica,sans-Serif" font-size="10.00">excludeBadRange</text>
<text text-anchor="start" x="96" y="-320" font-family="Helvetica,sans-Serif" font-size="10.00">+</text>
<text text-anchor="start" x="109" y="-320" font-family="Helvetica,sans-Serif" font-size="10.00">excludeDataHandling</text>
<text text-anchor="start" x="96" y="-305" font-family="Helvetica,sans-Serif" font-size="10.00">+</text>
<text text-anchor="start" x="109" y="-305" font-family="Helvetica,sans-Serif" font-size="10.00">excludeCom</text>
<text text-anchor="start" x="96" y="-290" font-family="Helvetica,sans-Serif" font-size="10.00">+</text>
<text text-anchor="start" x="109" y="-290" font-family="Helvetica,sans-Serif" font-size="10.00">excludeBadFlags</text>
<text text-anchor="start" x="96" y="-275" font-family="Helvetica,sans-Serif" font-size="10.00">+</text>
<text text-anchor="start" x="109" y="-275" font-family="Helvetica,sans-Serif" font-size="10.00">excludeAlert</text>
<text text-anchor="start" x="96" y="-260" font-family="Helvetica,sans-Serif" font-size="10.00">+</text>
<text text-anchor="start" x="109" y="-260" font-family="Helvetica,sans-Serif" font-size="10.00">@21</text>
<text text-anchor="start" x="96" y="-245" font-family="Helvetica,sans-Serif" font-size="10.00">+</text>
<text text-anchor="start" x="109" y="-245" font-family="Helvetica,sans-Serif" font-size="10.00">ObsMeta()</text>
<polygon fill="#666666" stroke="#666666" points="92,-465 92,-465 219,-465 219,-465 92,-465"/>
<polygon fill="#666666" stroke="#666666" points="92,-255 92,-255 107,-255 107,-255 92,-255"/>
<polygon fill="#666666" stroke="#666666" points="107,-255 107,-255 219,-255 219,-255 107,-255"/>
<polygon fill="none" stroke="#666666" points="91.5,-238 91.5,-482 218.5,-482 218.5,-238 91.5,-238"/>
</a>
</g>
</g>
<!-- Node3&#45;&gt;Node2 -->
<g id="edge2_Node000002_Node000003" class="edge">
<title>Node3&#45;&gt;Node2</title>
<g id="a_edge2_Node000002_Node000003"><a xlink:title=" ">
<path fill="none" stroke="#63b8ff" d="M231.55,-226.21C239.97,-211.6 247.77,-198.06 254.12,-187.05"/>
<polygon fill="none" stroke="#63b8ff" points="228.49,-224.51 226.52,-234.92 234.55,-228.01 228.49,-224.51"/>
</a>
</g>
</g>
<!-- Node4 -->
<g id="Node000004" class="node">
<title>Node4</title>
<g id="a_Node000004"><a xlink:href="structGTime.html" target="_top" xlink:title="Time structure used throughout this software.">
<path fill="white" stroke="#666666" d="M194,-1766C194,-1766 72,-1766 72,-1766 66,-1766 60,-1760 60,-1754 60,-1754 60,-1166 60,-1166 60,-1160 66,-1154 72,-1154 72,-1154 194,-1154 194,-1154 200,-1154 206,-1160 206,-1166 206,-1166 206,-1754 206,-1754 206,-1760 200,-1766 194,-1766"/>
<text text-anchor="start" x="116.5" y="-1750" font-family="Helvetica,sans-Serif" font-size="10.00">GTime</text>
<text text-anchor="start" x="72" y="-1735" font-family="Helvetica,sans-Serif" font-size="10.00">+</text>
<text text-anchor="start" x="85" y="-1735" font-family="Helvetica,sans-Serif" font-size="10.00">bigTime</text>
<text text-anchor="start" x="72" y="-1720" font-family="Helvetica,sans-Serif" font-size="10.00">+</text>
<text text-anchor="start" x="85" y="-1720" font-family="Helvetica,sans-Serif" font-size="10.00">GTime()</text>
<text text-anchor="start" x="72" y="-1705" font-family="Helvetica,sans-Serif" font-size="10.00">+</text>
<text text-anchor="start" x="85" y="-1705" font-family="Helvetica,sans-Serif" font-size="10.00">GTime()</text>
<text text-anchor="start" x="72" y="-1690" font-family="Helvetica,sans-Serif" font-size="10.00">+</text>
<text text-anchor="start" x="85" y="-1690" font-family="Helvetica,sans-Serif" font-size="10.00">GTime()</text>
<text text-anchor="start" x="72" y="-1675" font-family="Helvetica,sans-Serif" font-size="10.00">+</text>
<text text-anchor="start" x="85" y="-1675" font-family="Helvetica,sans-Serif" font-size="10.00">to_string()</text>
<text text-anchor="start" x="72" y="-1660" font-family="Helvetica,sans-Serif" font-size="10.00">+</text>
<text text-anchor="start" x="85" y="-1660" font-family="Helvetica,sans-Serif" font-size="10.00">operator==()</text>
<text text-anchor="start" x="72" y="-1645" font-family="Helvetica,sans-Serif" font-size="10.00">+</text>
<text text-anchor="start" x="85" y="-1645" font-family="Helvetica,sans-Serif" font-size="10.00">operator!=()</text>
<text text-anchor="start" x="72" y="-1630" font-family="Helvetica,sans-Serif" font-size="10.00">+</text>
<text text-anchor="start" x="85" y="-1630" font-family="Helvetica,sans-Serif" font-size="10.00">operator&lt;()</text>
<text text-anchor="start" x="72" y="-1615" font-family="Helvetica,sans-Serif" font-size="10.00">+</text>
<text text-anchor="start" x="85" y="-1615" font-family="Helvetica,sans-Serif" font-size="10.00">operator&gt;()</text>
<text text-anchor="start" x="72" y="-1600" font-family="Helvetica,sans-Serif" font-size="10.00">+</text>
<text text-anchor="start" x="85" y="-1600" font-family="Helvetica,sans-Serif" font-size="10.00">operator&gt;=()</text>
<text text-anchor="start" x="72" y="-1585" font-family="Helvetica,sans-Serif" font-size="10.00">+</text>
<text text-anchor="start" x="85" y="-1585" font-family="Helvetica,sans-Serif" font-size="10.00">operator+()</text>
<text text-anchor="start" x="72" y="-1570" font-family="Helvetica,sans-Serif" font-size="10.00">+</text>
<text text-anchor="start" x="85" y="-1570" font-family="Helvetica,sans-Serif" font-size="10.00">operator+()</text>
<text text-anchor="start" x="72" y="-1555" font-family="Helvetica,sans-Serif" font-size="10.00">+</text>
<text text-anchor="start" x="85" y="-1555" font-family="Helvetica,sans-Serif" font-size="10.00">operator+()</text>
<text text-anchor="start" x="72" y="-1540" font-family="Helvetica,sans-Serif" font-size="10.00">+</text>
<text text-anchor="start" x="85" y="-1540" font-family="Helvetica,sans-Serif" font-size="10.00">operator+=()</text>
<text text-anchor="start" x="72" y="-1525" font-family="Helvetica,sans-Serif" font-size="10.00">+</text>
<text text-anchor="start" x="85" y="-1525" font-family="Helvetica,sans-Serif" font-size="10.00">operator&#45;=()</text>
<text text-anchor="start" x="72" y="-1510" font-family="Helvetica,sans-Serif" font-size="10.00">+</text>
<text text-anchor="start" x="85" y="-1510" font-family="Helvetica,sans-Serif" font-size="10.00">operator&#45;()</text>
<text text-anchor="start" x="72" y="-1495" font-family="Helvetica,sans-Serif" font-size="10.00">+</text>
<text text-anchor="start" x="85" y="-1495" font-family="Helvetica,sans-Serif" font-size="10.00">operator&#45;()</text>
<text text-anchor="start" x="72" y="-1480" font-family="Helvetica,sans-Serif" font-size="10.00">+</text>
<text text-anchor="start" x="85" y="-1480" font-family="Helvetica,sans-Serif" font-size="10.00">operator&#45;()</text>
<text text-anchor="start" x="72" y="-1465" font-family="Helvetica,sans-Serif" font-size="10.00">+</text>
<text text-anchor="start" x="85" y="-1465" font-family="Helvetica,sans-Serif" font-size="10.00">operator++()</text>
<text text-anchor="start" x="72" y="-1450" font-family="Helvetica,sans-Serif" font-size="10.00">+</text>
<text text-anchor="start" x="85" y="-1450" font-family="Helvetica,sans-Serif" font-size="10.00">GTime()</text>
<text text-anchor="start" x="72" y="-1435" font-family="Helvetica,sans-Serif" font-size="10.00">+</text>
<text text-anchor="start" x="85" y="-1435" font-family="Helvetica,sans-Serif" font-size="10.00">GTime()</text>
<text text-anchor="start" x="72" y="-1420" font-family="Helvetica,sans-Serif" font-size="10.00">+</text>
<text text-anchor="start" x="85" y="-1420" font-family="Helvetica,sans-Serif" font-size="10.00">GTime()</text>
<text text-anchor="start" x="72" y="-1405" font-family="Helvetica,sans-Serif" font-size="10.00">+</text>
<text text-anchor="start" x="85" y="-1405" font-family="Helvetica,sans-Serif" font-size="10.00">GTime()</text>
<text text-anchor="start" x="72" y="-1390" font-family="Helvetica,sans-Serif" font-size="10.00">+</text>
<text text-anchor="start" x="85" y="-1390" font-family="Helvetica,sans-Serif" font-size="10.00">GTime()</text>
<text text-anchor="start" x="72" y="-1375" font-family="Helvetica,sans-Serif" font-size="10.00">+</text>
<text text-anchor="start" x="85" y="-1375" font-family="Helvetica,sans-Serif" font-size="10.00">serialize()</text>
<text text-anchor="start" x="72" y="-1360" font-family="Helvetica,sans-Serif" font-size="10.00">+</text>
<text text-anchor="start" x="85" y="-1360" font-family="Helvetica,sans-Serif" font-size="10.00">floorTime()</text>
<text text-anchor="start" x="72" y="-1345" font-family="Helvetica,sans-Serif" font-size="10.00">+</text>
<text text-anchor="start" x="85" y="-1345" font-family="Helvetica,sans-Serif" font-size="10.00">gregString()</text>
<text text-anchor="start" x="72" y="-1330" font-family="Helvetica,sans-Serif" font-size="10.00">+</text>
<text text-anchor="start" x="85" y="-1330" font-family="Helvetica,sans-Serif" font-size="10.00">operator long double()</text>
<text text-anchor="start" x="72" y="-1315" font-family="Helvetica,sans-Serif" font-size="10.00">+</text>
<text text-anchor="start" x="85" y="-1315" font-family="Helvetica,sans-Serif" font-size="10.00">operator MjDateTT()</text>
<text text-anchor="start" x="72" y="-1300" font-family="Helvetica,sans-Serif" font-size="10.00">+</text>
<text text-anchor="start" x="85" y="-1300" font-family="Helvetica,sans-Serif" font-size="10.00">operator GEpoch()</text>
<text text-anchor="start" x="72" y="-1285" font-family="Helvetica,sans-Serif" font-size="10.00">+</text>
<text text-anchor="start" x="85" y="-1285" font-family="Helvetica,sans-Serif" font-size="10.00">operator UtcTime()</text>
<text text-anchor="start" x="72" y="-1270" font-family="Helvetica,sans-Serif" font-size="10.00">+</text>
<text text-anchor="start" x="85" y="-1270" font-family="Helvetica,sans-Serif" font-size="10.00">operator GWeek()</text>
<text text-anchor="start" x="72" y="-1255" font-family="Helvetica,sans-Serif" font-size="10.00">+</text>
<text text-anchor="start" x="85" y="-1255" font-family="Helvetica,sans-Serif" font-size="10.00">operator BWeek()</text>
<text text-anchor="start" x="72" y="-1240" font-family="Helvetica,sans-Serif" font-size="10.00">+</text>
<text text-anchor="start" x="85" y="-1240" font-family="Helvetica,sans-Serif" font-size="10.00">operator GTow()</text>
<text text-anchor="start" x="72" y="-1225" font-family="Helvetica,sans-Serif" font-size="10.00">+</text>
<text text-anchor="start" x="85" y="-1225" font-family="Helvetica,sans-Serif" font-size="10.00">operator BTow()</text>
<text text-anchor="start" x="72" y="-1210" font-family="Helvetica,sans-Serif" font-size="10.00">+</text>
<text text-anchor="start" x="85" y="-1210" font-family="Helvetica,sans-Serif" font-size="10.00">operator PTime()</text>
<text text-anchor="start" x="72" y="-1195" font-family="Helvetica,sans-Serif" font-size="10.00">+</text>
<text text-anchor="start" x="85" y="-1195" font-family="Helvetica,sans-Serif" font-size="10.00">operator string()</text>
<text text-anchor="start" x="72" y="-1180" font-family="Helvetica,sans-Serif" font-size="10.00">+</text>
<text text-anchor="start" x="85" y="-1180" font-family="Helvetica,sans-Serif" font-size="10.00">operator RTod()</text>
<text text-anchor="start" x="72" y="-1165" font-family="Helvetica,sans-Serif" font-size="10.00">+</text>
<text text-anchor="start" x="85" y="-1165" font-family="Helvetica,sans-Serif" font-size="10.00">noTime()</text>
<polygon fill="#666666" stroke="#666666" points="68,-1745 68,-1745 198,-1745 198,-1745 68,-1745"/>
<polygon fill="#666666" stroke="#666666" points="68,-1730 68,-1730 83,-1730 83,-1730 68,-1730"/>
<polygon fill="#666666" stroke="#666666" points="83,-1730 83,-1730 198,-1730 198,-1730 83,-1730"/>
<polygon fill="none" stroke="#666666" points="68,-1158 68,-1762 198,-1762 198,-1158 68,-1158"/>
</a>
</g>
</g>
<!-- Node4&#45;&gt;Node1 -->
<g id="edge17_Node000001_Node000004" class="edge">
<title>Node4&#45;&gt;Node1</title>
<g id="a_edge17_Node000001_Node000004"><a xlink:title=" ">
<path fill="none" stroke="#63b8ff" d="M202.9,-1153.77C207.56,-1130.54 211.99,-1107.42 216,-1085 253.82,-873.71 284.9,-625.46 301.62,-481.4"/>
<polygon fill="none" stroke="#63b8ff" points="301.66,-480.99 298.38,-474.57 303.04,-469.07 306.33,-475.49 301.66,-480.99"/>
</a>
</g>
<text text-anchor="middle" x="318" y="-806.5" font-family="Helvetica,sans-Serif" font-size="10.00" fill="grey"> +timeTx</text>
</g>
<!-- Node4&#45;&gt;Node2 -->
<g id="edge3_Node000002_Node000004" class="edge">
<title>Node4&#45;&gt;Node2</title>
<g id="a_edge3_Node000002_Node000004"><a xlink:title=" ">
<path fill="none" stroke="#63b8ff" d="M59.96,-1158.58C55.64,-1133.79 51.88,-1109.03 49,-1085 18.28,-828.57 22.37,-761.72 39,-504 46.79,-383.25 -0.97,-328.98 74,-234 104.62,-195.22 157.87,-176.61 201.15,-167.7"/>
<polygon fill="none" stroke="#63b8ff" points="201.27,-167.67 206.42,-162.62 213.06,-165.43 207.91,-170.48 201.27,-167.67"/>
</a>
</g>
<text text-anchor="middle" x="56" y="-507" font-family="Helvetica,sans-Serif" font-size="10.00" fill="grey"> +time</text>
</g>
<!-- Node66 -->
<g id="Node000066" class="node">
<title>Node66</title>
<g id="a_Node000066"><a xlink:href="structSatPos.html" target="_top" xlink:title="Satellite position data &#45; for determining and storing satellite positions/clocks.">
<path fill="#fff0f0" stroke="red" d="M195.5,-1085C195.5,-1085 70.5,-1085 70.5,-1085 64.5,-1085 58.5,-1079 58.5,-1073 58.5,-1073 58.5,-545 58.5,-545 58.5,-539 64.5,-533 70.5,-533 70.5,-533 195.5,-533 195.5,-533 201.5,-533 207.5,-539 207.5,-545 207.5,-545 207.5,-1073 207.5,-1073 207.5,-1079 201.5,-1085 195.5,-1085"/>
<text text-anchor="start" x="116.5" y="-1069" font-family="Helvetica,sans-Serif" font-size="10.00">SatPos</text>
<text text-anchor="start" x="71" y="-1054" font-family="Helvetica,sans-Serif" font-size="10.00">+</text>
<text text-anchor="start" x="84" y="-1054" font-family="Helvetica,sans-Serif" font-size="10.00">posSource</text>
<text text-anchor="start" x="71" y="-1039" font-family="Helvetica,sans-Serif" font-size="10.00">+</text>
<text text-anchor="start" x="84" y="-1039" font-family="Helvetica,sans-Serif" font-size="10.00">clkSource</text>
<text text-anchor="start" x="71" y="-1024" font-family="Helvetica,sans-Serif" font-size="10.00">+</text>
<text text-anchor="start" x="84" y="-1024" font-family="Helvetica,sans-Serif" font-size="10.00">posVar</text>
<text text-anchor="start" x="71" y="-1009" font-family="Helvetica,sans-Serif" font-size="10.00">+</text>
<text text-anchor="start" x="84" y="-1009" font-family="Helvetica,sans-Serif" font-size="10.00">satClk</text>
<text text-anchor="start" x="71" y="-994" font-family="Helvetica,sans-Serif" font-size="10.00">+</text>
<text text-anchor="start" x="84" y="-994" font-family="Helvetica,sans-Serif" font-size="10.00">satClkVel</text>
<text text-anchor="start" x="71" y="-979" font-family="Helvetica,sans-Serif" font-size="10.00">+</text>
<text text-anchor="start" x="84" y="-979" font-family="Helvetica,sans-Serif" font-size="10.00">satClkVar</text>
<text text-anchor="start" x="71" y="-964" font-family="Helvetica,sans-Serif" font-size="10.00">+</text>
<text text-anchor="start" x="84" y="-964" font-family="Helvetica,sans-Serif" font-size="10.00">sppValid</text>
<text text-anchor="start" x="71" y="-949" font-family="Helvetica,sans-Serif" font-size="10.00">+</text>
<text text-anchor="start" x="84" y="-949" font-family="Helvetica,sans-Serif" font-size="10.00">iodeClk</text>
<text text-anchor="start" x="71" y="-934" font-family="Helvetica,sans-Serif" font-size="10.00">+</text>
<text text-anchor="start" x="84" y="-934" font-family="Helvetica,sans-Serif" font-size="10.00">iodePos</text>
<text text-anchor="start" x="71" y="-919" font-family="Helvetica,sans-Serif" font-size="10.00">+</text>
<text text-anchor="start" x="84" y="-919" font-family="Helvetica,sans-Serif" font-size="10.00">ephPosValid</text>
<text text-anchor="start" x="71" y="-904" font-family="Helvetica,sans-Serif" font-size="10.00">+</text>
<text text-anchor="start" x="84" y="-904" font-family="Helvetica,sans-Serif" font-size="10.00">ephClkValid</text>
<text text-anchor="start" x="71" y="-889" font-family="Helvetica,sans-Serif" font-size="10.00">+</text>
<text text-anchor="start" x="84" y="-889" font-family="Helvetica,sans-Serif" font-size="10.00">tof</text>
<text text-anchor="start" x="71" y="-874" font-family="Helvetica,sans-Serif" font-size="10.00">+</text>
<text text-anchor="start" x="84" y="-874" font-family="Helvetica,sans-Serif" font-size="10.00">failure</text>
<text text-anchor="start" x="71" y="-859" font-family="Helvetica,sans-Serif" font-size="10.00">+</text>
<text text-anchor="start" x="84" y="-859" font-family="Helvetica,sans-Serif" font-size="10.00">failureExclude</text>
<text text-anchor="start" x="71" y="-844" font-family="Helvetica,sans-Serif" font-size="10.00">+</text>
<text text-anchor="start" x="84" y="-844" font-family="Helvetica,sans-Serif" font-size="10.00">failureNoSatPos</text>
<text text-anchor="start" x="71" y="-829" font-family="Helvetica,sans-Serif" font-size="10.00">+</text>
<text text-anchor="start" x="84" y="-829" font-family="Helvetica,sans-Serif" font-size="10.00">failureNoSatClock</text>
<text text-anchor="start" x="71" y="-814" font-family="Helvetica,sans-Serif" font-size="10.00">+</text>
<text text-anchor="start" x="84" y="-814" font-family="Helvetica,sans-Serif" font-size="10.00">failureNoPseudorange</text>
<text text-anchor="start" x="71" y="-799" font-family="Helvetica,sans-Serif" font-size="10.00">+</text>
<text text-anchor="start" x="84" y="-799" font-family="Helvetica,sans-Serif" font-size="10.00">failureIodeConsistency</text>
<text text-anchor="start" x="71" y="-784" font-family="Helvetica,sans-Serif" font-size="10.00">+</text>
<text text-anchor="start" x="84" y="-784" font-family="Helvetica,sans-Serif" font-size="10.00">failureBroadcastEph</text>
<text text-anchor="start" x="71" y="-769" font-family="Helvetica,sans-Serif" font-size="10.00">+</text>
<text text-anchor="start" x="84" y="-769" font-family="Helvetica,sans-Serif" font-size="10.00">failureSSRFail</text>
<text text-anchor="start" x="71" y="-754" font-family="Helvetica,sans-Serif" font-size="10.00">+</text>
<text text-anchor="start" x="84" y="-754" font-family="Helvetica,sans-Serif" font-size="10.00">failureSsrPosEmpty</text>
<text text-anchor="start" x="71" y="-739" font-family="Helvetica,sans-Serif" font-size="10.00">+</text>
<text text-anchor="start" x="84" y="-739" font-family="Helvetica,sans-Serif" font-size="10.00">failureSsrClkEmpty</text>
<text text-anchor="start" x="71" y="-724" font-family="Helvetica,sans-Serif" font-size="10.00">+</text>
<text text-anchor="start" x="84" y="-724" font-family="Helvetica,sans-Serif" font-size="10.00">failureSsrPosTime</text>
<text text-anchor="start" x="71" y="-709" font-family="Helvetica,sans-Serif" font-size="10.00">+</text>
<text text-anchor="start" x="84" y="-709" font-family="Helvetica,sans-Serif" font-size="10.00">failureSsrClkTime</text>
<text text-anchor="start" x="71" y="-694" font-family="Helvetica,sans-Serif" font-size="10.00">+</text>
<text text-anchor="start" x="84" y="-694" font-family="Helvetica,sans-Serif" font-size="10.00">failureSsrPosMag</text>
<text text-anchor="start" x="71" y="-679" font-family="Helvetica,sans-Serif" font-size="10.00">+</text>
<text text-anchor="start" x="84" y="-679" font-family="Helvetica,sans-Serif" font-size="10.00">failureSsrClkMag</text>
<text text-anchor="start" x="71" y="-664" font-family="Helvetica,sans-Serif" font-size="10.00">+</text>
<text text-anchor="start" x="84" y="-664" font-family="Helvetica,sans-Serif" font-size="10.00">failureSsrPosUdi</text>
<text text-anchor="start" x="71" y="-649" font-family="Helvetica,sans-Serif" font-size="10.00">+</text>
<text text-anchor="start" x="84" y="-649" font-family="Helvetica,sans-Serif" font-size="10.00">failureSsrClkUdi</text>
<text text-anchor="start" x="71" y="-634" font-family="Helvetica,sans-Serif" font-size="10.00">+</text>
<text text-anchor="start" x="84" y="-634" font-family="Helvetica,sans-Serif" font-size="10.00">failureGeodist</text>
<text text-anchor="start" x="71" y="-619" font-family="Helvetica,sans-Serif" font-size="10.00">+</text>
<text text-anchor="start" x="84" y="-619" font-family="Helvetica,sans-Serif" font-size="10.00">failureRSat</text>
<text text-anchor="start" x="71" y="-604" font-family="Helvetica,sans-Serif" font-size="10.00">+</text>
<text text-anchor="start" x="84" y="-604" font-family="Helvetica,sans-Serif" font-size="10.00">failureElevation</text>
<text text-anchor="start" x="71" y="-589" font-family="Helvetica,sans-Serif" font-size="10.00">+</text>
<text text-anchor="start" x="84" y="-589" font-family="Helvetica,sans-Serif" font-size="10.00">failurePrange</text>
<text text-anchor="start" x="71" y="-574" font-family="Helvetica,sans-Serif" font-size="10.00">+</text>
<text text-anchor="start" x="84" y="-574" font-family="Helvetica,sans-Serif" font-size="10.00">failureIonocorr</text>
<text text-anchor="start" x="71" y="-559" font-family="Helvetica,sans-Serif" font-size="10.00">+</text>
<text text-anchor="start" x="84" y="-559" font-family="Helvetica,sans-Serif" font-size="10.00">@29</text>
<text text-anchor="start" x="71" y="-544" font-family="Helvetica,sans-Serif" font-size="10.00">+</text>
<text text-anchor="start" x="84" y="-544" font-family="Helvetica,sans-Serif" font-size="10.00">SatPos()</text>
<polygon fill="red" stroke="red" points="67,-1064 67,-1064 200,-1064 200,-1064 67,-1064"/>
<polygon fill="red" stroke="red" points="67,-554 67,-554 82,-554 82,-554 67,-554"/>
<polygon fill="red" stroke="red" points="82,-554 82,-554 200,-554 200,-554 82,-554"/>
<polygon fill="none" stroke="red" points="66.5,-537 66.5,-1081 199.5,-1081 199.5,-537 66.5,-537"/>
</a>
</g>
</g>
<!-- Node4&#45;&gt;Node66 -->
<g id="edge8_Node000066_Node000004" class="edge">
<title>Node4&#45;&gt;Node66</title>
<g id="a_edge8_Node000066_Node000004"><a xlink:title=" ">
<path fill="none" stroke="#63b8ff" d="M133,-1153.98C133,-1135.22 133,-1116.37 133,-1097.69"/>
<polygon fill="none" stroke="#63b8ff" points="133,-1097.44 129,-1091.44 133,-1085.44 137,-1091.44 133,-1097.44"/>
</a>
</g>
<text text-anchor="middle" x="160" y="-1117" font-family="Helvetica,sans-Serif" font-size="10.00" fill="grey"> +posTime</text>
</g>
<!-- Node5 -->
<g id="Node000005" class="node">
<title>Node5</title>
<g id="a_Node000005"><a xlink:title=" ">
<path fill="white" stroke="#666666" d="M453,-1488.5C453,-1488.5 423,-1488.5 423,-1488.5 417,-1488.5 411,-1482.5 411,-1476.5 411,-1476.5 411,-1443.5 411,-1443.5 411,-1437.5 417,-1431.5 423,-1431.5 423,-1431.5 453,-1431.5 453,-1431.5 459,-1431.5 465,-1437.5 465,-1443.5 465,-1443.5 465,-1476.5 465,-1476.5 465,-1482.5 459,-1488.5 453,-1488.5"/>
<text text-anchor="start" x="424" y="-1472" font-family="Helvetica,sans-Serif" font-size="10.00">string</text>
<text text-anchor="start" x="436" y="-1457" font-family="Helvetica,sans-Serif" font-size="10.00"> </text>
<text text-anchor="start" x="436" y="-1442" font-family="Helvetica,sans-Serif" font-size="10.00"> </text>
<polygon fill="#666666" stroke="#666666" points="419,-1467 419,-1467 457,-1467 457,-1467 419,-1467"/>
<polygon fill="#666666" stroke="#666666" points="419,-1452 419,-1452 457,-1452 457,-1452 419,-1452"/>
<polygon fill="none" stroke="#666666" points="419,-1435.5 419,-1484.5 457,-1484.5 457,-1435.5 419,-1435.5"/>
</a>
</g>
</g>
<!-- Node5&#45;&gt;Node2 -->
<g id="edge4_Node000002_Node000005" class="edge">
<title>Node5&#45;&gt;Node2</title>
<g id="a_edge4_Node000002_Node000005"><a xlink:title=" ">
<path fill="none" stroke="#63b8ff" d="M437.37,-1431.47C433.25,-1252.5 409.73,-260.68 394,-234 381.23,-212.35 359.49,-196.24 337.75,-184.65"/>
<polygon fill="none" stroke="#63b8ff" points="337.5,-184.52 330.35,-185.42 326.77,-179.15 333.93,-178.26 337.5,-184.52"/>
</a>
</g>
<text text-anchor="middle" x="432.5" y="-507" font-family="Helvetica,sans-Serif" font-size="10.00" fill="grey"> +mount</text>
</g>
<!-- Node91 -->
<g id="Node000091" class="node">
<title>Node91</title>
<g id="a_Node000091"><a xlink:href="structLObsMeta.html" target="_top" xlink:title=" ">
<path fill="white" stroke="#666666" d="M509,-845C509,-845 453,-845 453,-845 447,-845 441,-839 441,-833 441,-833 441,-785 441,-785 441,-779 447,-773 453,-773 453,-773 509,-773 509,-773 515,-773 521,-779 521,-785 521,-785 521,-833 521,-833 521,-839 515,-845 509,-845"/>
<text text-anchor="start" x="456.5" y="-829" font-family="Helvetica,sans-Serif" font-size="10.00">LObsMeta</text>
<text text-anchor="start" x="453" y="-814" font-family="Helvetica,sans-Serif" font-size="10.00">+</text>
<text text-anchor="start" x="466" y="-814" font-family="Helvetica,sans-Serif" font-size="10.00">recCdpId</text>
<text text-anchor="start" x="453" y="-799" font-family="Helvetica,sans-Serif" font-size="10.00">+</text>
<text text-anchor="start" x="466" y="-799" font-family="Helvetica,sans-Serif" font-size="10.00">ilrsId</text>
<text text-anchor="start" x="479" y="-784" font-family="Helvetica,sans-Serif" font-size="10.00"> </text>
<polygon fill="#666666" stroke="#666666" points="449,-824 449,-824 513,-824 513,-824 449,-824"/>
<polygon fill="#666666" stroke="#666666" points="449,-794 449,-794 464,-794 464,-794 449,-794"/>
<polygon fill="#666666" stroke="#666666" points="464,-794 464,-794 513,-794 513,-794 464,-794"/>
<polygon fill="none" stroke="#666666" points="449,-777 449,-841 513,-841 513,-777 449,-777"/>
</a>
</g>
</g>
<!-- Node5&#45;&gt;Node91 -->
<g id="edge15_Node000091_Node000005" class="edge">
<title>Node5&#45;&gt;Node91</title>
<g id="a_edge15_Node000091_Node000005"><a xlink:title=" ">
<path fill="none" stroke="#63b8ff" d="M439.85,-1431.11C446.52,-1330.37 469.44,-984.5 477.86,-857.37"/>
<polygon fill="none" stroke="#63b8ff" points="477.88,-857.04 474.29,-850.79 478.68,-845.07 482.27,-851.32 477.88,-857.04"/>
</a>
</g>
<text text-anchor="middle" x="486.5" y="-1128" font-family="Helvetica,sans-Serif" font-size="10.00" fill="grey"> +cosparId</text>
<text text-anchor="middle" x="486.5" y="-1117" font-family="Helvetica,sans-Serif" font-size="10.00" fill="grey">+recName</text>
<text text-anchor="middle" x="486.5" y="-1106" font-family="Helvetica,sans-Serif" font-size="10.00" fill="grey">+satName</text>
</g>
<!-- Node6&#45;&gt;Node2 -->
<g id="edge5_Node000002_Node000006" class="edge">
<title>Node6&#45;&gt;Node2</title>
<g id="a_edge5_Node000002_Node000006"><a xlink:title=" ">
<path fill="none" stroke="#63b8ff" d="M77.47,-83.27C81.95,-93.89 88.23,-104.46 97,-112 125.75,-136.72 166.43,-148.22 201.12,-153.47"/>
<polygon fill="none" stroke="#63b8ff" points="201.22,-153.48 207.7,-150.32 213.11,-155.08 206.64,-158.25 201.22,-153.48"/>
</a>
</g>
<text text-anchor="middle" x="124.5" y="-104" font-family="Helvetica,sans-Serif" font-size="10.00" fill="grey"> #gObs_ptr</text>
</g>
<!-- Node66&#45;&gt;Node1 -->
<g id="edge16_Node000001_Node000066" class="edge">
<title>Node66&#45;&gt;Node1</title>
<g id="a_edge16_Node000001_Node000066"><a xlink:title=" ">
<path fill="none" stroke="#63b8ff" d="M211.41,-606.6C225.08,-572.29 239.31,-537.06 253,-504 257.66,-492.75 262.59,-481.04 267.57,-469.37"/>
<polygon fill="none" stroke="#63b8ff" points="208.02,-605.67 207.57,-616.25 214.52,-608.26 208.02,-605.67"/>
</a>
</g>
</g>
<!-- Node66&#45;&gt;Node6 -->
<g id="edge7_Node000006_Node000066" class="edge">
<title>Node66&#45;&gt;Node6</title>
<g id="a_edge7_Node000006_Node000066"><a xlink:title=" ">
<path fill="none" stroke="#63b8ff" d="M78.16,-522.7C76.59,-510.32 75.19,-498.05 74,-486 59.4,-338.29 62.82,-161.59 65.4,-83.29"/>
<polygon fill="none" stroke="#63b8ff" points="74.69,-523.18 79.45,-532.65 81.63,-522.28 74.69,-523.18"/>
</a>
</g>
</g>
<!-- Node89&#45;&gt;Node2 -->
<g id="edge9_Node000002_Node000089" class="edge">
<title>Node89&#45;&gt;Node2</title>
<g id="a_edge9_Node000002_Node000089"><a xlink:title=" ">
<path fill="none" stroke="#63b8ff" d="M198.56,-83.07C196.26,-92.89 196.21,-103.11 201,-112 202.78,-115.3 204.92,-118.41 207.32,-121.32"/>
<polygon fill="none" stroke="#63b8ff" points="207.38,-121.39 214.44,-122.88 215.78,-129.96 208.72,-128.47 207.38,-121.39"/>
</a>
</g>
<text text-anchor="middle" x="228.5" y="-104" font-family="Helvetica,sans-Serif" font-size="10.00" fill="grey"> #pObs_ptr</text>
</g>
<!-- Node90&#45;&gt;Node2 -->
<g id="edge11_Node000002_Node000090" class="edge">
<title>Node90&#45;&gt;Node2</title>
<g id="a_edge11_Node000002_Node000090"><a xlink:title=" ">
<path fill="none" stroke="#63b8ff" d="M320.99,-83.01C314.98,-88.78 309.16,-94.84 304,-101 299.29,-106.62 294.81,-112.97 290.74,-119.32"/>
<polygon fill="none" stroke="#63b8ff" points="290.54,-119.65 290.83,-126.86 284.3,-129.9 284,-122.7 290.54,-119.65"/>
</a>
</g>
<text text-anchor="middle" x="330.5" y="-104" font-family="Helvetica,sans-Serif" font-size="10.00" fill="grey"> #fObs_ptr</text>
</g>
<!-- Node91&#45;&gt;Node1 -->
<g id="edge14_Node000001_Node000091" class="edge">
<title>Node91&#45;&gt;Node1</title>
<g id="a_edge14_Node000001_Node000091"><a xlink:title=" ">
<path fill="none" stroke="#63b8ff" d="M487.48,-762.6C494.2,-700.95 498.94,-588.75 460,-504 443.47,-468.02 413.65,-436.15 385.33,-411.68"/>
<polygon fill="none" stroke="#63b8ff" points="483.98,-762.44 486.3,-772.77 490.93,-763.24 483.98,-762.44"/>
</a>
</g>
</g>
</g>
</svg>
