<?xml version="1.0" encoding="UTF-8" standalone="no"?>
<!DOCTYPE svg PUBLIC "-//W3C//DTD SVG 1.1//EN"
 "http://www.w3.org/Graphics/SVG/1.1/DTD/svg11.dtd">
<!-- Generated by graphviz version 2.43.0 (0)
 -->
<!-- Title: ACSConfig::getSatOpts Pages: 1 -->
<svg width="707pt" height="930pt"
 viewBox="0.00 0.00 707.00 930.00" xmlns="http://www.w3.org/2000/svg" xmlns:xlink="http://www.w3.org/1999/xlink">
<g id="graph0" class="graph" transform="scale(1 1) rotate(0) translate(4 926)">
<title>ACSConfig::getSatOpts</title>
<!-- Node1 -->
<g id="Node000001" class="node">
<title>Node1</title>
<g id="a_Node000001"><a xlink:href="structACSConfig.html#a20ca3689eafecfa2b7e656c28e340256" target="_top" xlink:title="Set satellite options for a specific satellite using a hierarchy of sources.">
<path fill="#fff0f0" stroke="red" stroke-width="2" d="M692.67,-469C692.67,-469 578.33,-469 578.33,-469 575.17,-469 572,-465.83 572,-462.67 572,-462.67 572,-456.33 572,-456.33 572,-453.17 575.17,-450 578.33,-450 578.33,-450 692.67,-450 692.67,-450 695.83,-450 699,-453.17 699,-456.33 699,-456.33 699,-462.67 699,-462.67 699,-465.83 695.83,-469 692.67,-469"/>
<text text-anchor="middle" x="635.5" y="-457" font-family="Helvetica,sans-Serif" font-size="10.00">ACSConfig::getSatOpts</text>
</a>
</g>
</g>
<!-- Node2 -->
<g id="Node000002" class="node">
<title>Node2</title>
<g id="a_Node000002"><a xlink:href="acsQC_8cpp.html#a87aa50724c534eed1c0d4b99329a6d97" target="_top" xlink:title=" ">
<path fill="#fff0f0" stroke="red" d="M503.17,-922C503.17,-922 451.83,-922 451.83,-922 448.67,-922 445.5,-918.83 445.5,-915.67 445.5,-915.67 445.5,-909.33 445.5,-909.33 445.5,-906.17 448.67,-903 451.83,-903 451.83,-903 503.17,-903 503.17,-903 506.33,-903 509.5,-906.17 509.5,-909.33 509.5,-909.33 509.5,-915.67 509.5,-915.67 509.5,-918.83 506.33,-922 503.17,-922"/>
<text text-anchor="middle" x="477.5" y="-910" font-family="Helvetica,sans-Serif" font-size="10.00">clearSlips</text>
</a>
</g>
</g>
<!-- Node1&#45;&gt;Node2 -->
<g id="edge1_Node000001_Node000002" class="edge">
<title>Node1&#45;&gt;Node2</title>
<g id="a_edge1_Node000001_Node000002"><a xlink:title=" ">
<path fill="none" stroke="#63b8ff" d="M632.39,-479.04C623.9,-554.29 590.12,-824.32 536,-888.5 529.24,-896.52 519.34,-901.91 509.66,-905.51"/>
<polygon fill="#63b8ff" stroke="#63b8ff" points="635.87,-479.37 633.49,-469.04 628.91,-478.6 635.87,-479.37"/>
</a>
</g>
</g>
<!-- Node3 -->
<g id="Node000003" class="node">
<title>Node3</title>
<g id="a_Node000003"><a xlink:href="preprocessor_8cpp.html#a66089b6d3c4e1fd48ff14fd9d0a1f933" target="_top" xlink:title=" ">
<path fill="#fff0f0" stroke="red" d="M333.17,-582C333.17,-582 265.83,-582 265.83,-582 262.67,-582 259.5,-578.83 259.5,-575.67 259.5,-575.67 259.5,-569.33 259.5,-569.33 259.5,-566.17 262.67,-563 265.83,-563 265.83,-563 333.17,-563 333.17,-563 336.33,-563 339.5,-566.17 339.5,-569.33 339.5,-569.33 339.5,-575.67 339.5,-575.67 339.5,-578.83 336.33,-582 333.17,-582"/>
<text text-anchor="middle" x="299.5" y="-570" font-family="Helvetica,sans-Serif" font-size="10.00">preprocessor</text>
</a>
</g>
</g>
<!-- Node1&#45;&gt;Node3 -->
<g id="edge21_Node000001_Node000003" class="edge">
<title>Node1&#45;&gt;Node3</title>
<g id="a_edge21_Node000001_Node000003"><a xlink:title=" ">
<path fill="none" stroke="#63b8ff" d="M614.11,-443.97C572.84,-414.57 478.32,-357.73 419,-404.5 365.16,-446.95 431.98,-506.53 383,-554.5 371.58,-565.68 354.93,-570.6 339.58,-572.57"/>
<polygon fill="#63b8ff" stroke="#63b8ff" points="612.15,-446.88 622.29,-449.95 616.28,-441.23 612.15,-446.88"/>
</a>
</g>
</g>
<!-- Node4 -->
<g id="Node000004" class="node">
<title>Node4</title>
<g id="a_Node000004"><a xlink:href="main_8cpp.html#a2c1eabb2ea9b242d8d9fd2c1795849e9" target="_top" xlink:title=" ">
<path fill="#fff0f0" stroke="red" d="M37.67,-582C37.67,-582 6.33,-582 6.33,-582 3.17,-582 0,-578.83 0,-575.67 0,-575.67 0,-569.33 0,-569.33 0,-566.17 3.17,-563 6.33,-563 6.33,-563 37.67,-563 37.67,-563 40.83,-563 44,-566.17 44,-569.33 44,-569.33 44,-575.67 44,-575.67 44,-578.83 40.83,-582 37.67,-582"/>
<text text-anchor="middle" x="22" y="-570" font-family="Helvetica,sans-Serif" font-size="10.00">ginan</text>
</a>
</g>
</g>
<!-- Node1&#45;&gt;Node4 -->
<g id="edge9_Node000001_Node000004" class="edge">
<title>Node1&#45;&gt;Node4</title>
<g id="a_edge9_Node000001_Node000004"><a xlink:title=" ">
<path fill="none" stroke="#63b8ff" d="M634.68,-479.13C633.98,-532.26 623.85,-679.13 536,-741.5 361.29,-865.54 89.76,-633.51 33.44,-582.23"/>
<polygon fill="#63b8ff" stroke="#63b8ff" points="638.18,-479.02 634.71,-469.01 631.18,-479 638.18,-479.02"/>
</a>
</g>
</g>
<!-- Node8 -->
<g id="Node000008" class="node">
<title>Node8</title>
<g id="a_Node000008"><a xlink:href="structACSConfig.html#acbe400e2cc2760cbebd28dda6413c4ad" target="_top" xlink:title="Parse options to set acsConfig values.">
<path fill="#fff0f0" stroke="red" d="M173.67,-526C173.67,-526 86.33,-526 86.33,-526 83.17,-526 80,-522.83 80,-519.67 80,-519.67 80,-513.33 80,-513.33 80,-510.17 83.17,-507 86.33,-507 86.33,-507 173.67,-507 173.67,-507 176.83,-507 180,-510.17 180,-513.33 180,-513.33 180,-519.67 180,-519.67 180,-522.83 176.83,-526 173.67,-526"/>
<text text-anchor="middle" x="130" y="-514" font-family="Helvetica,sans-Serif" font-size="10.00">ACSConfig::parse</text>
</a>
</g>
</g>
<!-- Node1&#45;&gt;Node8 -->
<g id="edge17_Node000001_Node000008" class="edge">
<title>Node1&#45;&gt;Node8</title>
<g id="a_edge17_Node000001_Node000008"><a xlink:title=" ">
<path fill="none" stroke="#63b8ff" d="M579.89,-471.01C565.65,-473.74 550.29,-476.46 536,-478.5 408.24,-496.77 256.5,-508.32 180.12,-513.43"/>
<polygon fill="#63b8ff" stroke="#63b8ff" points="580.89,-474.38 590.03,-469.03 579.55,-467.51 580.89,-474.38"/>
</a>
</g>
</g>
<!-- Node10 -->
<g id="Node000010" class="node">
<title>Node10</title>
<g id="a_Node000010"><a xlink:href="compare_8cpp.html#aa8c289d9d4e60f862fb0a60566b76bd0" target="_top" xlink:title=" ">
<path fill="#fff0f0" stroke="red" d="M337.67,-846C337.67,-846 261.33,-846 261.33,-846 258.17,-846 255,-842.83 255,-839.67 255,-839.67 255,-833.33 255,-833.33 255,-830.17 258.17,-827 261.33,-827 261.33,-827 337.67,-827 337.67,-827 340.83,-827 344,-830.17 344,-833.33 344,-833.33 344,-839.67 344,-839.67 344,-842.83 340.83,-846 337.67,-846"/>
<text text-anchor="middle" x="299.5" y="-834" font-family="Helvetica,sans-Serif" font-size="10.00">compareOrbits</text>
</a>
</g>
</g>
<!-- Node1&#45;&gt;Node10 -->
<g id="edge6_Node000001_Node000010" class="edge">
<title>Node1&#45;&gt;Node10</title>
<g id="a_edge6_Node000001_Node000010"><a xlink:title=" ">
<path fill="none" stroke="#63b8ff" d="M632.54,-479.46C624.99,-551.68 595.24,-797.54 536,-843.5 473.3,-892.14 370.39,-863.04 324.22,-846.09"/>
<polygon fill="#63b8ff" stroke="#63b8ff" points="636.06,-479.38 633.59,-469.08 629.1,-478.67 636.06,-479.38"/>
</a>
</g>
</g>
<!-- Node11 -->
<g id="Node000011" class="node">
<title>Node11</title>
<g id="a_Node000011"><a xlink:href="debug_8cpp.html#a9779f5f24c300e72581f3858ed638c9e" target="_top" xlink:title=" ">
<path fill="#fff0f0" stroke="red" d="M336.17,-545C336.17,-545 262.83,-545 262.83,-545 259.67,-545 256.5,-541.83 256.5,-538.67 256.5,-538.67 256.5,-532.33 256.5,-532.33 256.5,-529.17 259.67,-526 262.83,-526 262.83,-526 336.17,-526 336.17,-526 339.33,-526 342.5,-529.17 342.5,-532.33 342.5,-532.33 342.5,-538.67 342.5,-538.67 342.5,-541.83 339.33,-545 336.17,-545"/>
<text text-anchor="middle" x="299.5" y="-533" font-family="Helvetica,sans-Serif" font-size="10.00">debugAttitude</text>
</a>
</g>
</g>
<!-- Node1&#45;&gt;Node11 -->
<g id="edge7_Node000001_Node000011" class="edge">
<title>Node1&#45;&gt;Node11</title>
<g id="a_edge7_Node000001_Node000011"><a xlink:title=" ">
<path fill="none" stroke="#63b8ff" d="M632.15,-479.44C623.57,-548.45 591.5,-775.21 536,-817.5 494.64,-849.02 458.18,-851.69 419,-817.5 330.1,-739.94 462.57,-641.6 383,-554.5 372.79,-543.32 357.44,-538.06 342.74,-535.77"/>
<polygon fill="#63b8ff" stroke="#63b8ff" points="635.67,-479.46 633.4,-469.11 628.72,-478.62 635.67,-479.46"/>
</a>
</g>
</g>
<!-- Node12 -->
<g id="Node000012" class="node">
<title>Node12</title>
<g id="a_Node000012"><a xlink:href="ionoModel_8cpp.html#ae7821a74f98f349d4508712aeced88e1" target="_top" xlink:title="Updating the ionosphere model parameters The ionosphere model should be initialized by calling &#39;confi...">
<path fill="#fff0f0" stroke="red" d="M517.67,-808C517.67,-808 437.33,-808 437.33,-808 434.17,-808 431,-804.83 431,-801.67 431,-801.67 431,-795.33 431,-795.33 431,-792.17 434.17,-789 437.33,-789 437.33,-789 517.67,-789 517.67,-789 520.83,-789 524,-792.17 524,-795.33 524,-795.33 524,-801.67 524,-801.67 524,-804.83 520.83,-808 517.67,-808"/>
<text text-anchor="middle" x="477.5" y="-796" font-family="Helvetica,sans-Serif" font-size="10.00">filterIonosphere</text>
</a>
</g>
</g>
<!-- Node1&#45;&gt;Node12 -->
<g id="edge8_Node000001_Node000012" class="edge">
<title>Node1&#45;&gt;Node12</title>
<g id="a_edge8_Node000001_Node000012"><a xlink:title=" ">
<path fill="none" stroke="#63b8ff" d="M633.87,-479.47C631.1,-533.88 616.2,-686.53 536,-774.5 530.32,-780.74 522.76,-785.4 514.99,-788.87"/>
<polygon fill="#63b8ff" stroke="#63b8ff" points="637.38,-479.28 634.3,-469.15 630.39,-478.99 637.38,-479.28"/>
</a>
</g>
</g>
<!-- Node14 -->
<g id="Node000014" class="node">
<title>Node14</title>
<g id="a_Node000014"><a xlink:href="ppp__pseudoobs_8cpp.html#a7d44bfc5636f42952bed064438699ba7" target="_top" xlink:title=" ">
<path fill="#fff0f0" stroke="red" d="M514.17,-732C514.17,-732 440.83,-732 440.83,-732 437.67,-732 434.5,-728.83 434.5,-725.67 434.5,-725.67 434.5,-719.33 434.5,-719.33 434.5,-716.17 437.67,-713 440.83,-713 440.83,-713 514.17,-713 514.17,-713 517.33,-713 520.5,-716.17 520.5,-719.33 520.5,-719.33 520.5,-725.67 520.5,-725.67 520.5,-728.83 517.33,-732 514.17,-732"/>
<text text-anchor="middle" x="477.5" y="-720" font-family="Helvetica,sans-Serif" font-size="10.00">initPseudoObs</text>
</a>
</g>
</g>
<!-- Node1&#45;&gt;Node14 -->
<g id="edge10_Node000001_Node000014" class="edge">
<title>Node1&#45;&gt;Node14</title>
<g id="a_edge10_Node000001_Node000014"><a xlink:title=" ">
<path fill="none" stroke="#63b8ff" d="M631.57,-479.31C623.96,-524.2 599.5,-634.72 536,-698.5 529.82,-704.71 521.79,-709.39 513.71,-712.89"/>
<polygon fill="#63b8ff" stroke="#63b8ff" points="635.08,-479.58 633.2,-469.15 628.16,-478.48 635.08,-479.58"/>
</a>
</g>
</g>
<!-- Node16 -->
<g id="Node000016" class="node">
<title>Node16</title>
<g id="a_Node000016"><a xlink:href="main_8cpp.html#a79eb17a8eaafbf1dde7569cb7eae3b7e" target="_top" xlink:title=" ">
<path fill="#fff0f0" stroke="red" d="M376.67,-361C376.67,-361 222.33,-361 222.33,-361 219.17,-361 216,-357.83 216,-354.67 216,-354.67 216,-348.33 216,-348.33 216,-345.17 219.17,-342 222.33,-342 222.33,-342 376.67,-342 376.67,-342 379.83,-342 383,-345.17 383,-348.33 383,-348.33 383,-354.67 383,-354.67 383,-357.83 379.83,-361 376.67,-361"/>
<text text-anchor="middle" x="299.5" y="-349" font-family="Helvetica,sans-Serif" font-size="10.00">mainOncePerEpochPerSatellite</text>
</a>
</g>
</g>
<!-- Node1&#45;&gt;Node16 -->
<g id="edge11_Node000001_Node000016" class="edge">
<title>Node1&#45;&gt;Node16</title>
<g id="a_edge11_Node000001_Node000016"><a xlink:title=" ">
<path fill="none" stroke="#63b8ff" d="M631.97,-479.21C625.28,-522.09 602.8,-623.39 536,-665.5 492.01,-693.23 458.32,-699.53 419,-665.5 334.78,-592.62 438.35,-514.15 383,-417.5 368.14,-391.56 338.76,-371.89 319.37,-361.03"/>
<polygon fill="#63b8ff" stroke="#63b8ff" points="635.45,-479.59 633.41,-469.19 628.52,-478.6 635.45,-479.59"/>
</a>
</g>
</g>
<!-- Node17 -->
<g id="Node000017" class="node">
<title>Node17</title>
<g id="a_Node000017"><a xlink:href="minimumConstraints_8cpp.html#aa40934b017f373d875c3470591eff52e" target="_top" xlink:title=" ">
<path fill="#fff0f0" stroke="red" d="M497.67,-656C497.67,-656 457.33,-656 457.33,-656 454.17,-656 451,-652.83 451,-649.67 451,-649.67 451,-643.33 451,-643.33 451,-640.17 454.17,-637 457.33,-637 457.33,-637 497.67,-637 497.67,-637 500.83,-637 504,-640.17 504,-643.33 504,-643.33 504,-649.67 504,-649.67 504,-652.83 500.83,-656 497.67,-656"/>
<text text-anchor="middle" x="477.5" y="-644" font-family="Helvetica,sans-Serif" font-size="10.00">mincon</text>
</a>
</g>
</g>
<!-- Node1&#45;&gt;Node17 -->
<g id="edge12_Node000001_Node000017" class="edge">
<title>Node1&#45;&gt;Node17</title>
<g id="a_edge12_Node000001_Node000017"><a xlink:title=" ">
<path fill="none" stroke="#63b8ff" d="M628.52,-478.71C616.65,-513.72 586.77,-588.01 536,-628.5 526.92,-635.74 514.91,-640.09 504.21,-642.69"/>
<polygon fill="#63b8ff" stroke="#63b8ff" points="631.86,-479.78 631.63,-469.19 625.2,-477.61 631.86,-479.78"/>
</a>
</g>
</g>
<!-- Node24 -->
<g id="Node000024" class="node">
<title>Node24</title>
<g id="a_Node000024"><a xlink:href="preprocessor_8cpp.html#a5bf581abef6389557c3fdd95086a5c42" target="_top" xlink:title=" ">
<path fill="#fff0f0" stroke="red" d="M511.67,-619C511.67,-619 443.33,-619 443.33,-619 440.17,-619 437,-615.83 437,-612.67 437,-612.67 437,-606.33 437,-606.33 437,-603.17 440.17,-600 443.33,-600 443.33,-600 511.67,-600 511.67,-600 514.83,-600 518,-603.17 518,-606.33 518,-606.33 518,-612.67 518,-612.67 518,-615.83 514.83,-619 511.67,-619"/>
<text text-anchor="middle" x="477.5" y="-607" font-family="Helvetica,sans-Serif" font-size="10.00">obsVariances</text>
</a>
</g>
</g>
<!-- Node1&#45;&gt;Node24 -->
<g id="edge14_Node000001_Node000024" class="edge">
<title>Node1&#45;&gt;Node24</title>
<g id="a_edge14_Node000001_Node000024"><a xlink:title=" ">
<path fill="none" stroke="#63b8ff" d="M625.35,-478.4C610.53,-507.04 578.59,-561.31 536,-591.5 530.62,-595.31 524.41,-598.34 518.1,-600.73"/>
<polygon fill="#63b8ff" stroke="#63b8ff" points="628.66,-479.6 630.02,-469.09 622.41,-476.46 628.66,-479.6"/>
</a>
</g>
</g>
<!-- Node25 -->
<g id="Node000025" class="node">
<title>Node25</title>
<g id="a_Node000025"><a xlink:href="ppp__pseudoobs_8cpp.html#a49ce4050de278a66c933406b92bbbf39" target="_top" xlink:title=" ">
<path fill="#fff0f0" stroke="red" d="M517.67,-582C517.67,-582 437.33,-582 437.33,-582 434.17,-582 431,-578.83 431,-575.67 431,-575.67 431,-569.33 431,-569.33 431,-566.17 434.17,-563 437.33,-563 437.33,-563 517.67,-563 517.67,-563 520.83,-563 524,-566.17 524,-569.33 524,-569.33 524,-575.67 524,-575.67 524,-578.83 520.83,-582 517.67,-582"/>
<text text-anchor="middle" x="477.5" y="-570" font-family="Helvetica,sans-Serif" font-size="10.00">orbitPseudoObs</text>
</a>
</g>
</g>
<!-- Node1&#45;&gt;Node25 -->
<g id="edge15_Node000001_Node000025" class="edge">
<title>Node1&#45;&gt;Node25</title>
<g id="a_edge15_Node000001_Node000025"><a xlink:title=" ">
<path fill="none" stroke="#63b8ff" d="M620.81,-476.97C603.3,-498.19 571.02,-533.73 536,-554.5 530.33,-557.86 523.97,-560.66 517.6,-562.97"/>
<polygon fill="#63b8ff" stroke="#63b8ff" points="623.61,-479.06 627.17,-469.09 618.17,-474.67 623.61,-479.06"/>
</a>
</g>
</g>
<!-- Node26 -->
<g id="Node000026" class="node">
<title>Node26</title>
<g id="a_Node000026"><a xlink:href="ppp_8cpp.html#a1a529bfb379c76f71546a80022b8f123" target="_top" xlink:title=" ">
<path fill="#fff0f0" stroke="red" d="M511.17,-545C511.17,-545 443.83,-545 443.83,-545 440.67,-545 437.5,-541.83 437.5,-538.67 437.5,-538.67 437.5,-532.33 437.5,-532.33 437.5,-529.17 440.67,-526 443.83,-526 443.83,-526 511.17,-526 511.17,-526 514.33,-526 517.5,-529.17 517.5,-532.33 517.5,-532.33 517.5,-538.67 517.5,-538.67 517.5,-541.83 514.33,-545 511.17,-545"/>
<text text-anchor="middle" x="477.5" y="-533" font-family="Helvetica,sans-Serif" font-size="10.00">outputApriori</text>
</a>
</g>
</g>
<!-- Node1&#45;&gt;Node26 -->
<g id="edge16_Node000001_Node000026" class="edge">
<title>Node1&#45;&gt;Node26</title>
<g id="a_edge16_Node000001_Node000026"><a xlink:title=" ">
<path fill="none" stroke="#63b8ff" d="M608.35,-474.14C588.68,-484.94 560.95,-499.74 536,-511.5 525.24,-516.57 513.11,-521.72 502.77,-525.94"/>
<polygon fill="#63b8ff" stroke="#63b8ff" points="610.24,-477.09 617.3,-469.19 606.86,-470.96 610.24,-477.09"/>
</a>
</g>
</g>
<!-- Node27 -->
<g id="Node000027" class="node">
<title>Node27</title>
<g id="a_Node000027"><a xlink:href="ppp__obs_8cpp.html#a91bd33e0d6bda8bb828c87ac17f2f507" target="_top" xlink:title=" ">
<path fill="#fff0f0" stroke="red" d="M519.17,-469C519.17,-469 435.83,-469 435.83,-469 432.67,-469 429.5,-465.83 429.5,-462.67 429.5,-462.67 429.5,-456.33 429.5,-456.33 429.5,-453.17 432.67,-450 435.83,-450 435.83,-450 519.17,-450 519.17,-450 522.33,-450 525.5,-453.17 525.5,-456.33 525.5,-456.33 525.5,-462.67 525.5,-462.67 525.5,-465.83 522.33,-469 519.17,-469"/>
<text text-anchor="middle" x="477.5" y="-457" font-family="Helvetica,sans-Serif" font-size="10.00">pppSatCodeBias</text>
</a>
</g>
</g>
<!-- Node1&#45;&gt;Node27 -->
<g id="edge18_Node000001_Node000027" class="edge">
<title>Node1&#45;&gt;Node27</title>
<g id="a_edge18_Node000001_Node000027"><a xlink:title=" ">
<path fill="none" stroke="#63b8ff" d="M561.73,-459.5C549.48,-459.5 537.07,-459.5 525.69,-459.5"/>
<polygon fill="#63b8ff" stroke="#63b8ff" points="561.95,-463 571.95,-459.5 561.95,-456 561.95,-463"/>
</a>
</g>
</g>
<!-- Node28 -->
<g id="Node000028" class="node">
<title>Node28</title>
<g id="a_Node000028"><a xlink:href="ppp__obs_8cpp.html#aa9dc8925a7e4b904e12660d44616f1fc" target="_top" xlink:title=" ">
<path fill="#fff0f0" stroke="red" d="M330.17,-445C330.17,-445 268.83,-445 268.83,-445 265.67,-445 262.5,-441.83 262.5,-438.67 262.5,-438.67 262.5,-432.33 262.5,-432.33 262.5,-429.17 265.67,-426 268.83,-426 268.83,-426 330.17,-426 330.17,-426 333.33,-426 336.5,-429.17 336.5,-432.33 336.5,-432.33 336.5,-438.67 336.5,-438.67 336.5,-441.83 333.33,-445 330.17,-445"/>
<text text-anchor="middle" x="299.5" y="-433" font-family="Helvetica,sans-Serif" font-size="10.00">receiverPPP</text>
</a>
</g>
</g>
<!-- Node1&#45;&gt;Node28 -->
<g id="edge23_Node000001_Node000028" class="edge">
<title>Node1&#45;&gt;Node28</title>
<g id="a_edge23_Node000001_Node000028"><a xlink:title=" ">
<path fill="none" stroke="#63b8ff" d="M626.88,-440.37C613.62,-410.06 583.14,-352.03 536,-328.5 489.48,-305.27 466.24,-306.77 419,-328.5 396.66,-338.77 400.74,-353.48 383,-370.5 360.5,-392.09 331.25,-413.84 314.3,-425.9"/>
<polygon fill="#63b8ff" stroke="#63b8ff" points="623.75,-441.96 630.85,-449.83 630.21,-439.26 623.75,-441.96"/>
</a>
</g>
</g>
<!-- Node29 -->
<g id="Node000029" class="node">
<title>Node29</title>
<g id="a_Node000029"><a xlink:href="orbitProp_8cpp.html#a84ea4a595fee39a326c22ebfe3086dc5" target="_top" xlink:title=" ">
<path fill="#fff0f0" stroke="red" d="M512.67,-432C512.67,-432 442.33,-432 442.33,-432 439.17,-432 436,-428.83 436,-425.67 436,-425.67 436,-419.33 436,-419.33 436,-416.17 439.17,-413 442.33,-413 442.33,-413 512.67,-413 512.67,-413 515.83,-413 519,-416.17 519,-419.33 519,-419.33 519,-425.67 519,-425.67 519,-428.83 515.83,-432 512.67,-432"/>
<text text-anchor="middle" x="477.5" y="-420" font-family="Helvetica,sans-Serif" font-size="10.00">prepareOrbits</text>
</a>
</g>
</g>
<!-- Node1&#45;&gt;Node29 -->
<g id="edge20_Node000001_Node000029" class="edge">
<title>Node1&#45;&gt;Node29</title>
<g id="a_edge20_Node000001_Node000029"><a xlink:title=" ">
<path fill="none" stroke="#63b8ff" d="M584.51,-447.64C563.28,-442.61 538.86,-436.82 518.81,-432.06"/>
<polygon fill="#63b8ff" stroke="#63b8ff" points="583.79,-451.07 594.33,-449.97 585.4,-444.26 583.79,-451.07"/>
</a>
</g>
</g>
<!-- Node33 -->
<g id="Node000033" class="node">
<title>Node33</title>
<g id="a_Node000033"><a xlink:href="ppp__ambres_8cpp.html#a020b06329797411a2dc7746aadd19361" target="_top" xlink:title=" ">
<path fill="#fff0f0" stroke="red" d="M511.17,-356C511.17,-356 443.83,-356 443.83,-356 440.67,-356 437.5,-352.83 437.5,-349.67 437.5,-349.67 437.5,-343.33 437.5,-343.33 437.5,-340.17 440.67,-337 443.83,-337 443.83,-337 511.17,-337 511.17,-337 514.33,-337 517.5,-340.17 517.5,-343.33 517.5,-343.33 517.5,-349.67 517.5,-349.67 517.5,-352.83 514.33,-356 511.17,-356"/>
<text text-anchor="middle" x="477.5" y="-344" font-family="Helvetica,sans-Serif" font-size="10.00">queryBiasUC</text>
</a>
</g>
</g>
<!-- Node1&#45;&gt;Node33 -->
<g id="edge22_Node000001_Node000033" class="edge">
<title>Node1&#45;&gt;Node33</title>
<g id="a_edge22_Node000001_Node000033"><a xlink:title=" ">
<path fill="none" stroke="#63b8ff" d="M618.89,-442.23C600.57,-422.75 568.53,-391.13 536,-370.5 526.96,-364.77 516.31,-359.88 506.65,-356.04"/>
<polygon fill="#63b8ff" stroke="#63b8ff" points="616.5,-444.8 625.86,-449.76 621.64,-440.04 616.5,-444.8"/>
</a>
</g>
</g>
<!-- Node38 -->
<g id="Node000038" class="node">
<title>Node38</title>
<g id="a_Node000038"><a xlink:href="ppp__slr_8cpp.html#a0f53eb82b1b0572a1aabec8b6fe5a6ad" target="_top" xlink:title=" ">
<path fill="#fff0f0" stroke="red" d="M505.67,-280C505.67,-280 449.33,-280 449.33,-280 446.17,-280 443,-276.83 443,-273.67 443,-273.67 443,-267.33 443,-267.33 443,-264.17 446.17,-261 449.33,-261 449.33,-261 505.67,-261 505.67,-261 508.83,-261 512,-264.17 512,-267.33 512,-267.33 512,-273.67 512,-273.67 512,-276.83 508.83,-280 505.67,-280"/>
<text text-anchor="middle" x="477.5" y="-268" font-family="Helvetica,sans-Serif" font-size="10.00">receiverSlr</text>
</a>
</g>
</g>
<!-- Node1&#45;&gt;Node38 -->
<g id="edge24_Node000001_Node000038" class="edge">
<title>Node1&#45;&gt;Node38</title>
<g id="a_edge24_Node000001_Node000038"><a xlink:title=" ">
<path fill="none" stroke="#63b8ff" d="M627.68,-440.26C614.79,-406.41 583.78,-335.9 536,-294.5 528.89,-288.34 519.97,-283.59 511.29,-280.01"/>
<polygon fill="#63b8ff" stroke="#63b8ff" points="624.49,-441.71 631.23,-449.88 631.05,-439.28 624.49,-441.71"/>
</a>
</g>
</g>
<!-- Node39 -->
<g id="Node000039" class="node">
<title>Node39</title>
<g id="a_Node000039"><a xlink:href="ephKalman_8cpp.html#ae1697dd19411f771300532be63d186c2" target="_top" xlink:title=" ">
<path fill="#fff0f0" stroke="red" d="M514.17,-243C514.17,-243 440.83,-243 440.83,-243 437.67,-243 434.5,-239.83 434.5,-236.67 434.5,-236.67 434.5,-230.33 434.5,-230.33 434.5,-227.17 437.67,-224 440.83,-224 440.83,-224 514.17,-224 514.17,-224 517.33,-224 520.5,-227.17 520.5,-230.33 520.5,-230.33 520.5,-236.67 520.5,-236.67 520.5,-239.83 517.33,-243 514.17,-243"/>
<text text-anchor="middle" x="477.5" y="-231" font-family="Helvetica,sans-Serif" font-size="10.00">satPosKalman</text>
</a>
</g>
</g>
<!-- Node1&#45;&gt;Node39 -->
<g id="edge25_Node000001_Node000039" class="edge">
<title>Node1&#45;&gt;Node39</title>
<g id="a_edge25_Node000001_Node000039"><a xlink:title=" ">
<path fill="none" stroke="#63b8ff" d="M630.67,-439.64C621.69,-398.43 595.37,-303.15 536,-251.5 531.5,-247.59 526.16,-244.52 520.56,-242.13"/>
<polygon fill="#63b8ff" stroke="#63b8ff" points="627.27,-440.46 632.72,-449.54 634.12,-439.04 627.27,-440.46"/>
</a>
</g>
</g>
<!-- Node45 -->
<g id="Node000045" class="node">
<title>Node45</title>
<g id="a_Node000045"><a xlink:href="spp_8cpp.html#a2ec47af9ec762fa7586a8309d413cf84" target="_top" xlink:title="Compute receiver position, velocity, clock bias by single&#45;point positioning with pseudorange observab...">
<path fill="#fff0f0" stroke="red" d="M310.17,-229C310.17,-229 288.83,-229 288.83,-229 285.67,-229 282.5,-225.83 282.5,-222.67 282.5,-222.67 282.5,-216.33 282.5,-216.33 282.5,-213.17 285.67,-210 288.83,-210 288.83,-210 310.17,-210 310.17,-210 313.33,-210 316.5,-213.17 316.5,-216.33 316.5,-216.33 316.5,-222.67 316.5,-222.67 316.5,-225.83 313.33,-229 310.17,-229"/>
<text text-anchor="middle" x="299.5" y="-217" font-family="Helvetica,sans-Serif" font-size="10.00">spp</text>
</a>
</g>
</g>
<!-- Node1&#45;&gt;Node45 -->
<g id="edge26_Node000001_Node000045" class="edge">
<title>Node1&#45;&gt;Node45</title>
<g id="a_edge26_Node000001_Node000045"><a xlink:title=" ">
<path fill="none" stroke="#63b8ff" d="M633.56,-439.86C630.05,-391.51 613.54,-266.9 536,-214.5 466.54,-167.56 357.31,-199 316.55,-213.4"/>
<polygon fill="#63b8ff" stroke="#63b8ff" points="630.07,-440.17 634.17,-449.94 637.06,-439.74 630.07,-440.17"/>
</a>
</g>
</g>
<!-- Node50 -->
<g id="Node000050" class="node">
<title>Node50</title>
<g id="a_Node000050"><a xlink:href="ppppp_8cpp.html#a19dff1e0de1c08404f53580a96be1fb1" target="_top" xlink:title="Prepare Satellite clocks to minimise residuals to broadcast clocks.">
<path fill="#fff0f0" stroke="red" d="M521.67,-167C521.67,-167 433.33,-167 433.33,-167 430.17,-167 427,-163.83 427,-160.67 427,-160.67 427,-154.33 427,-154.33 427,-151.17 430.17,-148 433.33,-148 433.33,-148 521.67,-148 521.67,-148 524.83,-148 528,-151.17 528,-154.33 528,-154.33 528,-160.67 528,-160.67 528,-163.83 524.83,-167 521.67,-167"/>
<text text-anchor="middle" x="477.5" y="-155" font-family="Helvetica,sans-Serif" font-size="10.00">updateAvgClocks</text>
</a>
</g>
</g>
<!-- Node1&#45;&gt;Node50 -->
<g id="edge28_Node000001_Node000050" class="edge">
<title>Node1&#45;&gt;Node50</title>
<g id="a_edge28_Node000001_Node000050"><a xlink:title=" ">
<path fill="none" stroke="#63b8ff" d="M632.92,-439.89C627.92,-390.18 608.17,-257.74 536,-181.5 530.05,-175.22 522.2,-170.51 514.23,-167.02"/>
<polygon fill="#63b8ff" stroke="#63b8ff" points="629.45,-440.3 633.84,-449.94 636.42,-439.66 629.45,-440.3"/>
</a>
</g>
</g>
<!-- Node51 -->
<g id="Node000051" class="node">
<title>Node51</title>
<g id="a_Node000051"><a xlink:href="ppppp_8cpp.html#a6dcbf3bfe96a469cacb8a075506998ea" target="_top" xlink:title="Prepare Satellite clocks to minimise residuals to broadcast clocks.">
<path fill="#fff0f0" stroke="red" d="M520.17,-130C520.17,-130 434.83,-130 434.83,-130 431.67,-130 428.5,-126.83 428.5,-123.67 428.5,-123.67 428.5,-117.33 428.5,-117.33 428.5,-114.17 431.67,-111 434.83,-111 434.83,-111 520.17,-111 520.17,-111 523.33,-111 526.5,-114.17 526.5,-117.33 526.5,-117.33 526.5,-123.67 526.5,-123.67 526.5,-126.83 523.33,-130 520.17,-130"/>
<text text-anchor="middle" x="477.5" y="-118" font-family="Helvetica,sans-Serif" font-size="10.00">updateAvgOrbits</text>
</a>
</g>
</g>
<!-- Node1&#45;&gt;Node51 -->
<g id="edge29_Node000001_Node000051" class="edge">
<title>Node1&#45;&gt;Node51</title>
<g id="a_edge29_Node000001_Node000051"><a xlink:title=" ">
<path fill="none" stroke="#63b8ff" d="M634.44,-439.48C633.16,-383.65 621.77,-224.75 536,-138.5 532.61,-135.09 528.58,-132.32 524.25,-130.08"/>
<polygon fill="#63b8ff" stroke="#63b8ff" points="630.94,-439.81 634.58,-449.76 637.94,-439.71 630.94,-439.81"/>
</a>
</g>
</g>
<!-- Node52 -->
<g id="Node000052" class="node">
<title>Node52</title>
<g id="a_Node000052"><a xlink:href="ppppp_8cpp.html#a0c7e9127b8ac6b4b5f865d1220efe547" target="_top" xlink:title=" ">
<path fill="#fff0f0" stroke="red" d="M529.67,-93C529.67,-93 425.33,-93 425.33,-93 422.17,-93 419,-89.83 419,-86.67 419,-86.67 419,-80.33 419,-80.33 419,-77.17 422.17,-74 425.33,-74 425.33,-74 529.67,-74 529.67,-74 532.83,-74 536,-77.17 536,-80.33 536,-80.33 536,-86.67 536,-86.67 536,-89.83 532.83,-93 529.67,-93"/>
<text text-anchor="middle" x="477.5" y="-81" font-family="Helvetica,sans-Serif" font-size="10.00">updatePseudoPulses</text>
</a>
</g>
</g>
<!-- Node1&#45;&gt;Node52 -->
<g id="edge30_Node000001_Node000052" class="edge">
<title>Node1&#45;&gt;Node52</title>
<g id="a_edge30_Node000001_Node000052"><a xlink:title=" ">
<path fill="none" stroke="#63b8ff" d="M635.19,-439.62C636.15,-379.79 630.67,-199.53 536,-101.5 532.73,-98.11 528.83,-95.36 524.63,-93.13"/>
<polygon fill="#63b8ff" stroke="#63b8ff" points="631.69,-439.84 634.94,-449.92 638.68,-440.01 631.69,-439.84"/>
</a>
</g>
</g>
<!-- Node53 -->
<g id="Node000053" class="node">
<title>Node53</title>
<g id="a_Node000053"><a xlink:href="attitude_8cpp.html#a0584e56d2ad0d93d89079e841a6dba28" target="_top" xlink:title="Update sat nominal/model yaws.">
<path fill="#fff0f0" stroke="red" d="M514.17,-56C514.17,-56 440.83,-56 440.83,-56 437.67,-56 434.5,-52.83 434.5,-49.67 434.5,-49.67 434.5,-43.33 434.5,-43.33 434.5,-40.17 437.67,-37 440.83,-37 440.83,-37 514.17,-37 514.17,-37 517.33,-37 520.5,-40.17 520.5,-43.33 520.5,-43.33 520.5,-49.67 520.5,-49.67 520.5,-52.83 517.33,-56 514.17,-56"/>
<text text-anchor="middle" x="477.5" y="-44" font-family="Helvetica,sans-Serif" font-size="10.00">updateSatAtts</text>
</a>
</g>
</g>
<!-- Node1&#45;&gt;Node53 -->
<g id="edge31_Node000001_Node000053" class="edge">
<title>Node1&#45;&gt;Node53</title>
<g id="a_edge31_Node000001_Node000053"><a xlink:title=" ">
<path fill="none" stroke="#63b8ff" d="M632.17,-440C623.22,-368.31 588.92,-120.64 536,-64.5 531.77,-60.01 526.43,-56.63 520.72,-54.09"/>
<polygon fill="#63b8ff" stroke="#63b8ff" points="628.69,-440.43 633.38,-449.93 635.64,-439.58 628.69,-440.43"/>
</a>
</g>
</g>
<!-- Node56 -->
<g id="Node000056" class="node">
<title>Node56</title>
<g id="a_Node000056"><a xlink:href="sp3Write_8cpp.html#ab4606ad3c7415880b4adc10c1bfeab0e" target="_top" xlink:title=" ">
<path fill="#fff0f0" stroke="red" d="M518.67,-19C518.67,-19 436.33,-19 436.33,-19 433.17,-19 430,-15.83 430,-12.67 430,-12.67 430,-6.33 430,-6.33 430,-3.17 433.17,0 436.33,0 436.33,0 518.67,0 518.67,0 521.83,0 525,-3.17 525,-6.33 525,-6.33 525,-12.67 525,-12.67 525,-15.83 521.83,-19 518.67,-19"/>
<text text-anchor="middle" x="477.5" y="-7" font-family="Helvetica,sans-Serif" font-size="10.00">writeSp3Header</text>
</a>
</g>
</g>
<!-- Node1&#45;&gt;Node56 -->
<g id="edge34_Node000001_Node000056" class="edge">
<title>Node1&#45;&gt;Node56</title>
<g id="a_edge34_Node000001_Node000056"><a xlink:title=" ">
<path fill="none" stroke="#63b8ff" d="M632.58,-439.67C624.81,-363.33 593.34,-89.58 536,-27.5 532.88,-24.12 529.13,-21.37 525.06,-19.13"/>
<polygon fill="#63b8ff" stroke="#63b8ff" points="629.12,-440.21 633.59,-449.81 636.08,-439.51 629.12,-440.21"/>
</a>
</g>
</g>
<!-- Node2&#45;&gt;Node3 -->
<g id="edge2_Node000002_Node000003" class="edge">
<title>Node2&#45;&gt;Node3</title>
<g id="a_edge2_Node000002_Node000003"><a xlink:title=" ">
<path fill="none" stroke="#63b8ff" d="M458.09,-895.91C445.83,-884.14 430.01,-867.47 419,-850.5 356.48,-754.1 314.21,-619.19 303.29,-582.2"/>
<polygon fill="#63b8ff" stroke="#63b8ff" points="455.85,-898.61 465.55,-902.89 460.64,-893.5 455.85,-898.61"/>
</a>
</g>
</g>
<!-- Node3&#45;&gt;Node4 -->
<g id="edge3_Node000003_Node000004" class="edge">
<title>Node3&#45;&gt;Node4</title>
<g id="a_edge3_Node000003_Node000004"><a xlink:title=" ">
<path fill="none" stroke="#63b8ff" d="M249.18,-572.5C188.35,-572.5 87.67,-572.5 44.14,-572.5"/>
<polygon fill="#63b8ff" stroke="#63b8ff" points="249.32,-576 259.32,-572.5 249.32,-569 249.32,-576"/>
</a>
</g>
</g>
<!-- Node3&#45;&gt;Node8 -->
<g id="edge4_Node000003_Node000008" class="edge">
<title>Node3&#45;&gt;Node8</title>
<g id="a_edge4_Node000003_Node000008"><a xlink:title=" ">
<path fill="none" stroke="#63b8ff" d="M249.44,-563.53C238.33,-561.02 226.66,-558.01 216,-554.5 192.35,-546.73 166.4,-534.55 149.47,-526.09"/>
<polygon fill="#63b8ff" stroke="#63b8ff" points="248.93,-567 259.45,-565.69 250.41,-560.16 248.93,-567"/>
</a>
</g>
</g>
<!-- Node8&#45;&gt;Node4 -->
<g id="edge5_Node000008_Node000004" class="edge">
<title>Node8&#45;&gt;Node4</title>
<g id="a_edge5_Node000008_Node000004"><a xlink:title=" ">
<path fill="none" stroke="#63b8ff" d="M101.48,-531.04C82.51,-541.06 57.83,-554.1 41.25,-562.86"/>
<polygon fill="#63b8ff" stroke="#63b8ff" points="103.33,-534.02 110.54,-526.25 100.06,-527.83 103.33,-534.02"/>
</a>
</g>
</g>
<!-- Node17&#45;&gt;Node10 -->
<g id="edge13_Node000017_Node000010" class="edge">
<title>Node17&#45;&gt;Node10</title>
<g id="a_edge13_Node000017_Node000010"><a xlink:title=" ">
<path fill="none" stroke="#63b8ff" d="M459.29,-663.41C447.75,-674.87 432.28,-690.42 419,-704.5 376.73,-749.3 328.18,-804.67 308.96,-826.75"/>
<polygon fill="#63b8ff" stroke="#63b8ff" points="461.93,-665.73 466.58,-656.21 457.01,-660.75 461.93,-665.73"/>
</a>
</g>
</g>
<!-- Node27&#45;&gt;Node28 -->
<g id="edge19_Node000027_Node000028" class="edge">
<title>Node27&#45;&gt;Node28</title>
<g id="a_edge19_Node000027_Node000028"><a xlink:title=" ">
<path fill="none" stroke="#63b8ff" d="M419.17,-451.68C392.01,-447.98 360.39,-443.67 336.62,-440.43"/>
<polygon fill="#63b8ff" stroke="#63b8ff" points="418.95,-455.19 429.34,-453.07 419.9,-448.25 418.95,-455.19"/>
</a>
</g>
</g>
<!-- Node45&#45;&gt;Node8 -->
<g id="edge27_Node000045_Node000008" class="edge">
<title>Node45&#45;&gt;Node8</title>
<g id="a_edge27_Node000045_Node000008"><a xlink:title=" ">
<path fill="none" stroke="#63b8ff" d="M284.1,-237.13C266.68,-258.93 237.08,-297.57 216,-333.5 178.95,-396.65 145.74,-478.66 134.8,-506.65"/>
<polygon fill="#63b8ff" stroke="#63b8ff" points="287,-239.11 290.55,-229.13 281.55,-234.72 287,-239.11"/>
</a>
</g>
</g>
<!-- Node53&#45;&gt;Node11 -->
<g id="edge32_Node000053_Node000011" class="edge">
<title>Node53&#45;&gt;Node11</title>
<g id="a_edge32_Node000053_Node000011"><a xlink:title=" ">
<path fill="none" stroke="#63b8ff" d="M425.44,-58.37C423.06,-60.14 420.88,-62.17 419,-64.5 364.29,-132.19 420.33,-375.88 383,-454.5 367.93,-486.23 334.91,-512.43 315.53,-525.83"/>
<polygon fill="#63b8ff" stroke="#63b8ff" points="427.32,-61.33 434.22,-53.28 423.81,-55.27 427.32,-61.33"/>
</a>
</g>
</g>
<!-- Node53&#45;&gt;Node16 -->
<g id="edge33_Node000053_Node000016" class="edge">
<title>Node53&#45;&gt;Node16</title>
<g id="a_edge33_Node000053_Node000016"><a xlink:title=" ">
<path fill="none" stroke="#63b8ff" d="M425.63,-58.71C423.21,-60.4 420.98,-62.32 419,-64.5 366.26,-122.69 414.72,-165.66 383,-237.5 364.05,-280.41 327.12,-323.08 309.84,-341.73"/>
<polygon fill="#63b8ff" stroke="#63b8ff" points="427.38,-61.75 434.41,-53.82 423.97,-55.63 427.38,-61.75"/>
</a>
</g>
</g>
</g>
</svg>
