<?xml version="1.0" encoding="UTF-8" standalone="no"?>
<!DOCTYPE svg PUBLIC "-//W3C//DTD SVG 1.1//EN"
 "http://www.w3.org/Graphics/SVG/1.1/DTD/svg11.dtd">
<!-- Generated by graphviz version 2.43.0 (0)
 -->
<!-- Title: Sinex_stn_soln Pages: 1 -->
<svg width="202pt" height="409pt"
 viewBox="0.00 0.00 202.00 409.00" xmlns="http://www.w3.org/2000/svg" xmlns:xlink="http://www.w3.org/1999/xlink">
<g id="graph0" class="graph" transform="scale(1 1) rotate(0) translate(4 405)">
<title>Sinex_stn_soln</title>
<!-- Node1 -->
<g id="Node000001" class="node">
<title>Node1</title>
<g id="a_Node000001"><a xlink:href="structSinex__stn__soln.html" target="_top" xlink:title=" ">
<path fill="white" stroke="#666666" stroke-width="2" d="M104.5,-72C104.5,-72 29.5,-72 29.5,-72 23.5,-72 17.5,-66 17.5,-60 17.5,-60 17.5,-12 17.5,-12 17.5,-6 23.5,0 29.5,0 29.5,0 104.5,0 104.5,0 110.5,0 116.5,-6 116.5,-12 116.5,-12 116.5,-60 116.5,-60 116.5,-66 110.5,-72 104.5,-72"/>
<text text-anchor="start" x="31" y="-56" font-family="Helvetica,sans-Serif" font-size="10.00">Sinex_stn_soln</text>
<text text-anchor="start" x="40" y="-41" font-family="Helvetica,sans-Serif" font-size="10.00">+</text>
<text text-anchor="start" x="63" y="-41" font-family="Helvetica,sans-Serif" font-size="10.00">pos</text>
<text text-anchor="start" x="40" y="-26" font-family="Helvetica,sans-Serif" font-size="10.00">+</text>
<text text-anchor="start" x="63" y="-26" font-family="Helvetica,sans-Serif" font-size="10.00">pstd</text>
<text text-anchor="start" x="65.5" y="-11" font-family="Helvetica,sans-Serif" font-size="10.00"> </text>
<polygon fill="#666666" stroke="#666666" points="26,-51 26,-51 109,-51 109,-51 26,-51"/>
<polygon fill="#666666" stroke="#666666" points="26,-21 26,-21 61,-21 61,-21 26,-21"/>
<polygon fill="#666666" stroke="#666666" points="61,-21 61,-21 109,-21 109,-21 61,-21"/>
<polygon fill="none" stroke="#666666" points="25.5,-4 25.5,-68 108.5,-68 108.5,-4 25.5,-4"/>
</a>
</g>
</g>
<!-- Node2 -->
<g id="Node000002" class="node">
<title>Node2</title>
<g id="a_Node000002"><a xlink:title=" ">
<path fill="white" stroke="#666666" d="M42,-247C42,-247 12,-247 12,-247 6,-247 0,-241 0,-235 0,-235 0,-202 0,-202 0,-196 6,-190 12,-190 12,-190 42,-190 42,-190 48,-190 54,-196 54,-202 54,-202 54,-235 54,-235 54,-241 48,-247 42,-247"/>
<text text-anchor="start" x="13" y="-230.5" font-family="Helvetica,sans-Serif" font-size="10.00">string</text>
<text text-anchor="start" x="25" y="-215.5" font-family="Helvetica,sans-Serif" font-size="10.00"> </text>
<text text-anchor="start" x="25" y="-200.5" font-family="Helvetica,sans-Serif" font-size="10.00"> </text>
<polygon fill="#666666" stroke="#666666" points="8,-225.5 8,-225.5 46,-225.5 46,-225.5 8,-225.5"/>
<polygon fill="#666666" stroke="#666666" points="8,-210.5 8,-210.5 46,-210.5 46,-210.5 8,-210.5"/>
<polygon fill="none" stroke="#666666" points="8,-194 8,-243 46,-243 46,-194 8,-194"/>
</a>
</g>
</g>
<!-- Node2&#45;&gt;Node1 -->
<g id="edge1_Node000001_Node000002" class="edge">
<title>Node2&#45;&gt;Node1</title>
<g id="a_edge1_Node000001_Node000002"><a xlink:title=" ">
<path fill="none" stroke="#63b8ff" d="M31.76,-189.75C36.37,-163.83 43.84,-124.11 52,-90 52.47,-88.02 52.97,-86 53.49,-83.96"/>
<polygon fill="none" stroke="#63b8ff" points="53.52,-83.85 51.19,-77.02 56.59,-72.25 58.92,-79.07 53.52,-83.85"/>
</a>
</g>
<text text-anchor="middle" x="69" y="-104" font-family="Helvetica,sans-Serif" font-size="10.00" fill="grey"> +type</text>
<text text-anchor="middle" x="69" y="-93" font-family="Helvetica,sans-Serif" font-size="10.00" fill="grey">+unit</text>
</g>
<!-- Node3 -->
<g id="Node000003" class="node">
<title>Node3</title>
<g id="a_Node000003"><a xlink:href="structUYds.html" target="_top" xlink:title=" ">
<path fill="white" stroke="#666666" d="M182,-307C182,-307 84,-307 84,-307 78,-307 72,-301 72,-295 72,-295 72,-142 72,-142 72,-136 78,-130 84,-130 84,-130 182,-130 182,-130 188,-130 194,-136 194,-142 194,-142 194,-295 194,-295 194,-301 188,-307 182,-307"/>
<text text-anchor="start" x="120.5" y="-290.5" font-family="Helvetica,sans-Serif" font-size="10.00">UYds</text>
<text text-anchor="start" x="84" y="-275.5" font-family="Helvetica,sans-Serif" font-size="10.00">+</text>
<text text-anchor="start" x="97" y="-275.5" font-family="Helvetica,sans-Serif" font-size="10.00">year</text>
<text text-anchor="start" x="84" y="-260.5" font-family="Helvetica,sans-Serif" font-size="10.00">+</text>
<text text-anchor="start" x="97" y="-260.5" font-family="Helvetica,sans-Serif" font-size="10.00">doy</text>
<text text-anchor="start" x="84" y="-245.5" font-family="Helvetica,sans-Serif" font-size="10.00">+</text>
<text text-anchor="start" x="97" y="-245.5" font-family="Helvetica,sans-Serif" font-size="10.00">sod</text>
<text text-anchor="start" x="84" y="-230.5" font-family="Helvetica,sans-Serif" font-size="10.00">+</text>
<text text-anchor="start" x="97" y="-230.5" font-family="Helvetica,sans-Serif" font-size="10.00">UYds()</text>
<text text-anchor="start" x="84" y="-215.5" font-family="Helvetica,sans-Serif" font-size="10.00">+</text>
<text text-anchor="start" x="97" y="-215.5" font-family="Helvetica,sans-Serif" font-size="10.00">UYds()</text>
<text text-anchor="start" x="84" y="-200.5" font-family="Helvetica,sans-Serif" font-size="10.00">+</text>
<text text-anchor="start" x="97" y="-200.5" font-family="Helvetica,sans-Serif" font-size="10.00">operator=()</text>
<text text-anchor="start" x="84" y="-185.5" font-family="Helvetica,sans-Serif" font-size="10.00">+</text>
<text text-anchor="start" x="97" y="-185.5" font-family="Helvetica,sans-Serif" font-size="10.00">UYds()</text>
<text text-anchor="start" x="84" y="-170.5" font-family="Helvetica,sans-Serif" font-size="10.00">+</text>
<text text-anchor="start" x="97" y="-170.5" font-family="Helvetica,sans-Serif" font-size="10.00">operator+=()</text>
<text text-anchor="start" x="84" y="-155.5" font-family="Helvetica,sans-Serif" font-size="10.00">+</text>
<text text-anchor="start" x="97" y="-155.5" font-family="Helvetica,sans-Serif" font-size="10.00">operator=()</text>
<text text-anchor="start" x="84" y="-140.5" font-family="Helvetica,sans-Serif" font-size="10.00">+</text>
<text text-anchor="start" x="97" y="-140.5" font-family="Helvetica,sans-Serif" font-size="10.00">operator GTime()</text>
<polygon fill="#666666" stroke="#666666" points="80,-285.5 80,-285.5 186,-285.5 186,-285.5 80,-285.5"/>
<polygon fill="#666666" stroke="#666666" points="80,-240.5 80,-240.5 95,-240.5 95,-240.5 80,-240.5"/>
<polygon fill="#666666" stroke="#666666" points="95,-240.5 95,-240.5 186,-240.5 186,-240.5 95,-240.5"/>
<polygon fill="none" stroke="#666666" points="80,-134 80,-303 186,-303 186,-134 80,-134"/>
</a>
</g>
</g>
<!-- Node3&#45;&gt;Node1 -->
<g id="edge2_Node000001_Node000003" class="edge">
<title>Node3&#45;&gt;Node1</title>
<g id="a_edge2_Node000001_Node000003"><a xlink:title=" ">
<path fill="none" stroke="#63b8ff" d="M100.97,-129.89C95.12,-113.89 89.23,-97.78 84.03,-83.58"/>
<polygon fill="none" stroke="#63b8ff" points="83.97,-83.4 78.15,-79.14 79.85,-72.13 85.66,-76.39 83.97,-83.4"/>
</a>
</g>
<text text-anchor="middle" x="108.5" y="-98.5" font-family="Helvetica,sans-Serif" font-size="10.00" fill="grey"> +yds</text>
</g>
<!-- Node4 -->
<g id="Node000004" class="node">
<title>Node4</title>
<g id="a_Node000004"><a xlink:title=" ">
<path fill="white" stroke="#666666" d="M181,-401C181,-401 85,-401 85,-401 79,-401 73,-395 73,-389 73,-389 73,-356 73,-356 73,-350 79,-344 85,-344 85,-344 181,-344 181,-344 187,-344 193,-350 193,-356 193,-356 193,-389 193,-389 193,-395 187,-401 181,-401"/>
<text text-anchor="start" x="86" y="-384.5" font-family="Helvetica,sans-Serif" font-size="10.00">array&lt; double, 3 &gt;</text>
<text text-anchor="start" x="131" y="-369.5" font-family="Helvetica,sans-Serif" font-size="10.00"> </text>
<text text-anchor="start" x="131" y="-354.5" font-family="Helvetica,sans-Serif" font-size="10.00"> </text>
<polygon fill="#666666" stroke="#666666" points="81,-379.5 81,-379.5 185,-379.5 185,-379.5 81,-379.5"/>
<polygon fill="#666666" stroke="#666666" points="81,-364.5 81,-364.5 185,-364.5 185,-364.5 81,-364.5"/>
<polygon fill="none" stroke="#666666" points="81,-348 81,-397 185,-397 185,-348 81,-348"/>
</a>
</g>
</g>
<!-- Node4&#45;&gt;Node3 -->
<g id="edge3_Node000003_Node000004" class="edge">
<title>Node4&#45;&gt;Node3</title>
<g id="a_edge3_Node000003_Node000004"><a xlink:title=" ">
<path fill="none" stroke="#63b8ff" d="M133,-333.91C133,-325.58 133,-316.42 133,-307.01"/>
<polygon fill="none" stroke="#63b8ff" points="129.5,-333.97 133,-343.97 136.5,-333.97 129.5,-333.97"/>
</a>
</g>
</g>
</g>
</svg>
