<?xml version="1.0" encoding="UTF-8" standalone="no"?>
<!DOCTYPE svg PUBLIC "-//W3C//DTD SVG 1.1//EN"
 "http://www.w3.org/Graphics/SVG/1.1/DTD/svg11.dtd">
<!-- Generated by graphviz version 2.43.0 (0)
 -->
<!-- Title: SinexSolEpoch Pages: 1 -->
<svg width="202pt" height="405pt"
 viewBox="0.00 0.00 202.00 405.00" xmlns="http://www.w3.org/2000/svg" xmlns:xlink="http://www.w3.org/1999/xlink">
<g id="graph0" class="graph" transform="scale(1 1) rotate(0) translate(4 401)">
<title>SinexSolEpoch</title>
<!-- Node1 -->
<g id="Node000001" class="node">
<title>Node1</title>
<g id="a_Node000001"><a xlink:href="structSinexSolEpoch.html" target="_top" xlink:title=" ">
<path fill="white" stroke="#666666" stroke-width="2" d="M109,-57C109,-57 35,-57 35,-57 29,-57 23,-51 23,-45 23,-45 23,-12 23,-12 23,-6 29,0 35,0 35,0 109,0 109,0 115,0 121,-6 121,-12 121,-12 121,-45 121,-45 121,-51 115,-57 109,-57"/>
<text text-anchor="start" x="36" y="-40.5" font-family="Helvetica,sans-Serif" font-size="10.00">SinexSolEpoch</text>
<text text-anchor="start" x="38.5" y="-25.5" font-family="Helvetica,sans-Serif" font-size="10.00">+</text>
<text text-anchor="start" x="55" y="-25.5" font-family="Helvetica,sans-Serif" font-size="10.00">typecode</text>
<text text-anchor="start" x="70" y="-10.5" font-family="Helvetica,sans-Serif" font-size="10.00"> </text>
<polygon fill="#666666" stroke="#666666" points="31,-35.5 31,-35.5 113,-35.5 113,-35.5 31,-35.5"/>
<polygon fill="#666666" stroke="#666666" points="31,-20.5 31,-20.5 53,-20.5 53,-20.5 31,-20.5"/>
<polygon fill="#666666" stroke="#666666" points="53,-20.5 53,-20.5 113,-20.5 113,-20.5 53,-20.5"/>
<polygon fill="none" stroke="#666666" points="31,-4 31,-53 113,-53 113,-4 31,-4"/>
</a>
</g>
</g>
<!-- Node2 -->
<g id="Node000002" class="node">
<title>Node2</title>
<g id="a_Node000002"><a xlink:title=" ">
<path fill="white" stroke="#666666" d="M42,-243C42,-243 12,-243 12,-243 6,-243 0,-237 0,-231 0,-231 0,-198 0,-198 0,-192 6,-186 12,-186 12,-186 42,-186 42,-186 48,-186 54,-192 54,-198 54,-198 54,-231 54,-231 54,-237 48,-243 42,-243"/>
<text text-anchor="start" x="13" y="-226.5" font-family="Helvetica,sans-Serif" font-size="10.00">string</text>
<text text-anchor="start" x="25" y="-211.5" font-family="Helvetica,sans-Serif" font-size="10.00"> </text>
<text text-anchor="start" x="25" y="-196.5" font-family="Helvetica,sans-Serif" font-size="10.00"> </text>
<polygon fill="#666666" stroke="#666666" points="8,-221.5 8,-221.5 46,-221.5 46,-221.5 8,-221.5"/>
<polygon fill="#666666" stroke="#666666" points="8,-206.5 8,-206.5 46,-206.5 46,-206.5 8,-206.5"/>
<polygon fill="none" stroke="#666666" points="8,-190 8,-239 46,-239 46,-190 8,-190"/>
</a>
</g>
</g>
<!-- Node2&#45;&gt;Node1 -->
<g id="edge1_Node000001_Node000002" class="edge">
<title>Node2&#45;&gt;Node1</title>
<g id="a_edge1_Node000001_Node000002"><a xlink:title=" ">
<path fill="none" stroke="#63b8ff" d="M26.95,-185.91C27.69,-157.38 31.07,-111.92 44,-75 44.78,-72.77 45.69,-70.53 46.68,-68.31"/>
<polygon fill="none" stroke="#63b8ff" points="46.77,-68.12 45.95,-60.96 52.25,-57.44 53.07,-64.61 46.77,-68.12"/>
</a>
</g>
<text text-anchor="middle" x="69.5" y="-100" font-family="Helvetica,sans-Serif" font-size="10.00" fill="grey"> +ptcode</text>
<text text-anchor="middle" x="69.5" y="-89" font-family="Helvetica,sans-Serif" font-size="10.00" fill="grey">+sitecode</text>
<text text-anchor="middle" x="69.5" y="-78" font-family="Helvetica,sans-Serif" font-size="10.00" fill="grey">+solnnum</text>
</g>
<!-- Node3 -->
<g id="Node000003" class="node">
<title>Node3</title>
<g id="a_Node000003"><a xlink:href="structUYds.html" target="_top" xlink:title=" ">
<path fill="white" stroke="#666666" d="M182,-303C182,-303 84,-303 84,-303 78,-303 72,-297 72,-291 72,-291 72,-138 72,-138 72,-132 78,-126 84,-126 84,-126 182,-126 182,-126 188,-126 194,-132 194,-138 194,-138 194,-291 194,-291 194,-297 188,-303 182,-303"/>
<text text-anchor="start" x="120.5" y="-286.5" font-family="Helvetica,sans-Serif" font-size="10.00">UYds</text>
<text text-anchor="start" x="84" y="-271.5" font-family="Helvetica,sans-Serif" font-size="10.00">+</text>
<text text-anchor="start" x="97" y="-271.5" font-family="Helvetica,sans-Serif" font-size="10.00">year</text>
<text text-anchor="start" x="84" y="-256.5" font-family="Helvetica,sans-Serif" font-size="10.00">+</text>
<text text-anchor="start" x="97" y="-256.5" font-family="Helvetica,sans-Serif" font-size="10.00">doy</text>
<text text-anchor="start" x="84" y="-241.5" font-family="Helvetica,sans-Serif" font-size="10.00">+</text>
<text text-anchor="start" x="97" y="-241.5" font-family="Helvetica,sans-Serif" font-size="10.00">sod</text>
<text text-anchor="start" x="84" y="-226.5" font-family="Helvetica,sans-Serif" font-size="10.00">+</text>
<text text-anchor="start" x="97" y="-226.5" font-family="Helvetica,sans-Serif" font-size="10.00">UYds()</text>
<text text-anchor="start" x="84" y="-211.5" font-family="Helvetica,sans-Serif" font-size="10.00">+</text>
<text text-anchor="start" x="97" y="-211.5" font-family="Helvetica,sans-Serif" font-size="10.00">UYds()</text>
<text text-anchor="start" x="84" y="-196.5" font-family="Helvetica,sans-Serif" font-size="10.00">+</text>
<text text-anchor="start" x="97" y="-196.5" font-family="Helvetica,sans-Serif" font-size="10.00">operator=()</text>
<text text-anchor="start" x="84" y="-181.5" font-family="Helvetica,sans-Serif" font-size="10.00">+</text>
<text text-anchor="start" x="97" y="-181.5" font-family="Helvetica,sans-Serif" font-size="10.00">UYds()</text>
<text text-anchor="start" x="84" y="-166.5" font-family="Helvetica,sans-Serif" font-size="10.00">+</text>
<text text-anchor="start" x="97" y="-166.5" font-family="Helvetica,sans-Serif" font-size="10.00">operator+=()</text>
<text text-anchor="start" x="84" y="-151.5" font-family="Helvetica,sans-Serif" font-size="10.00">+</text>
<text text-anchor="start" x="97" y="-151.5" font-family="Helvetica,sans-Serif" font-size="10.00">operator=()</text>
<text text-anchor="start" x="84" y="-136.5" font-family="Helvetica,sans-Serif" font-size="10.00">+</text>
<text text-anchor="start" x="97" y="-136.5" font-family="Helvetica,sans-Serif" font-size="10.00">operator GTime()</text>
<polygon fill="#666666" stroke="#666666" points="80,-281.5 80,-281.5 186,-281.5 186,-281.5 80,-281.5"/>
<polygon fill="#666666" stroke="#666666" points="80,-236.5 80,-236.5 95,-236.5 95,-236.5 80,-236.5"/>
<polygon fill="#666666" stroke="#666666" points="95,-236.5 95,-236.5 186,-236.5 186,-236.5 95,-236.5"/>
<polygon fill="none" stroke="#666666" points="80,-130 80,-299 186,-299 186,-130 80,-130"/>
</a>
</g>
</g>
<!-- Node3&#45;&gt;Node1 -->
<g id="edge2_Node000001_Node000003" class="edge">
<title>Node3&#45;&gt;Node1</title>
<g id="a_edge2_Node000001_Node000003"><a xlink:title=" ">
<path fill="none" stroke="#63b8ff" d="M111.81,-125.83C106.88,-108.77 101.23,-91.17 95,-75 94.1,-72.68 93.13,-70.32 92.1,-67.95"/>
<polygon fill="none" stroke="#63b8ff" points="92.07,-67.89 85.92,-64.14 87.01,-57.01 93.17,-60.77 92.07,-67.89"/>
</a>
</g>
<text text-anchor="middle" x="123.5" y="-100" font-family="Helvetica,sans-Serif" font-size="10.00" fill="grey"> +end</text>
<text text-anchor="middle" x="123.5" y="-89" font-family="Helvetica,sans-Serif" font-size="10.00" fill="grey">+mean</text>
<text text-anchor="middle" x="123.5" y="-78" font-family="Helvetica,sans-Serif" font-size="10.00" fill="grey">+start</text>
</g>
<!-- Node4 -->
<g id="Node000004" class="node">
<title>Node4</title>
<g id="a_Node000004"><a xlink:title=" ">
<path fill="white" stroke="#666666" d="M181,-397C181,-397 85,-397 85,-397 79,-397 73,-391 73,-385 73,-385 73,-352 73,-352 73,-346 79,-340 85,-340 85,-340 181,-340 181,-340 187,-340 193,-346 193,-352 193,-352 193,-385 193,-385 193,-391 187,-397 181,-397"/>
<text text-anchor="start" x="86" y="-380.5" font-family="Helvetica,sans-Serif" font-size="10.00">array&lt; double, 3 &gt;</text>
<text text-anchor="start" x="131" y="-365.5" font-family="Helvetica,sans-Serif" font-size="10.00"> </text>
<text text-anchor="start" x="131" y="-350.5" font-family="Helvetica,sans-Serif" font-size="10.00"> </text>
<polygon fill="#666666" stroke="#666666" points="81,-375.5 81,-375.5 185,-375.5 185,-375.5 81,-375.5"/>
<polygon fill="#666666" stroke="#666666" points="81,-360.5 81,-360.5 185,-360.5 185,-360.5 81,-360.5"/>
<polygon fill="none" stroke="#666666" points="81,-344 81,-393 185,-393 185,-344 81,-344"/>
</a>
</g>
</g>
<!-- Node4&#45;&gt;Node3 -->
<g id="edge3_Node000003_Node000004" class="edge">
<title>Node4&#45;&gt;Node3</title>
<g id="a_edge3_Node000003_Node000004"><a xlink:title=" ">
<path fill="none" stroke="#63b8ff" d="M133,-329.91C133,-321.58 133,-312.42 133,-303.01"/>
<polygon fill="none" stroke="#63b8ff" points="129.5,-329.97 133,-339.97 136.5,-329.97 129.5,-329.97"/>
</a>
</g>
</g>
</g>
</svg>
