<?xml version="1.0" encoding="UTF-8" standalone="no"?>
<!DOCTYPE svg PUBLIC "-//W3C//DTD SVG 1.1//EN"
 "http://www.w3.org/Graphics/SVG/1.1/DTD/svg11.dtd">
<!-- Generated by graphviz version 2.43.0 (0)
 -->
<!-- Title: Geph Pages: 1 -->
<svg width="462pt" height="1116pt"
 viewBox="0.00 0.00 461.50 1116.00" xmlns="http://www.w3.org/2000/svg" xmlns:xlink="http://www.w3.org/1999/xlink">
<g id="graph0" class="graph" transform="scale(1 1) rotate(0) translate(4 1112)">
<title>Geph</title>
<!-- Node1 -->
<g id="Node000001" class="node">
<title>Node1</title>
<g id="a_Node000001"><a xlink:href="structGeph.html" target="_top" xlink:title="GLONASS broadcast ephemeris.">
<path fill="white" stroke="#666666" stroke-width="2" d="M286,-312C286,-312 224,-312 224,-312 218,-312 212,-306 212,-300 212,-300 212,-12 212,-12 212,-6 218,0 224,0 224,0 286,0 286,0 292,0 298,-6 298,-12 298,-12 298,-300 298,-300 298,-306 292,-312 286,-312"/>
<text text-anchor="start" x="242" y="-296" font-family="Helvetica,sans-Serif" font-size="10.00">Geph</text>
<text text-anchor="start" x="224" y="-281" font-family="Helvetica,sans-Serif" font-size="10.00">+</text>
<text text-anchor="start" x="237" y="-281" font-family="Helvetica,sans-Serif" font-size="10.00">type</text>
<text text-anchor="start" x="224" y="-266" font-family="Helvetica,sans-Serif" font-size="10.00">+</text>
<text text-anchor="start" x="237" y="-266" font-family="Helvetica,sans-Serif" font-size="10.00">iode</text>
<text text-anchor="start" x="224" y="-251" font-family="Helvetica,sans-Serif" font-size="10.00">+</text>
<text text-anchor="start" x="237" y="-251" font-family="Helvetica,sans-Serif" font-size="10.00">frq</text>
<text text-anchor="start" x="224" y="-236" font-family="Helvetica,sans-Serif" font-size="10.00">+</text>
<text text-anchor="start" x="237" y="-236" font-family="Helvetica,sans-Serif" font-size="10.00">svh</text>
<text text-anchor="start" x="224" y="-221" font-family="Helvetica,sans-Serif" font-size="10.00">+</text>
<text text-anchor="start" x="237" y="-221" font-family="Helvetica,sans-Serif" font-size="10.00">sva</text>
<text text-anchor="start" x="224" y="-206" font-family="Helvetica,sans-Serif" font-size="10.00">+</text>
<text text-anchor="start" x="237" y="-206" font-family="Helvetica,sans-Serif" font-size="10.00">age</text>
<text text-anchor="start" x="224" y="-191" font-family="Helvetica,sans-Serif" font-size="10.00">+</text>
<text text-anchor="start" x="237" y="-191" font-family="Helvetica,sans-Serif" font-size="10.00">taun</text>
<text text-anchor="start" x="224" y="-176" font-family="Helvetica,sans-Serif" font-size="10.00">+</text>
<text text-anchor="start" x="237" y="-176" font-family="Helvetica,sans-Serif" font-size="10.00">gammaN</text>
<text text-anchor="start" x="224" y="-161" font-family="Helvetica,sans-Serif" font-size="10.00">+</text>
<text text-anchor="start" x="237" y="-161" font-family="Helvetica,sans-Serif" font-size="10.00">dtaun</text>
<text text-anchor="start" x="224" y="-146" font-family="Helvetica,sans-Serif" font-size="10.00">+</text>
<text text-anchor="start" x="237" y="-146" font-family="Helvetica,sans-Serif" font-size="10.00">tofs</text>
<text text-anchor="start" x="224" y="-131" font-family="Helvetica,sans-Serif" font-size="10.00">+</text>
<text text-anchor="start" x="237" y="-131" font-family="Helvetica,sans-Serif" font-size="10.00">tk_hour</text>
<text text-anchor="start" x="224" y="-116" font-family="Helvetica,sans-Serif" font-size="10.00">+</text>
<text text-anchor="start" x="237" y="-116" font-family="Helvetica,sans-Serif" font-size="10.00">tk_min</text>
<text text-anchor="start" x="224" y="-101" font-family="Helvetica,sans-Serif" font-size="10.00">+</text>
<text text-anchor="start" x="237" y="-101" font-family="Helvetica,sans-Serif" font-size="10.00">tk_sec</text>
<text text-anchor="start" x="224" y="-86" font-family="Helvetica,sans-Serif" font-size="10.00">+</text>
<text text-anchor="start" x="237" y="-86" font-family="Helvetica,sans-Serif" font-size="10.00">tb</text>
<text text-anchor="start" x="224" y="-71" font-family="Helvetica,sans-Serif" font-size="10.00">+</text>
<text text-anchor="start" x="237" y="-71" font-family="Helvetica,sans-Serif" font-size="10.00">glonassM</text>
<text text-anchor="start" x="224" y="-56" font-family="Helvetica,sans-Serif" font-size="10.00">+</text>
<text text-anchor="start" x="237" y="-56" font-family="Helvetica,sans-Serif" font-size="10.00">NT</text>
<text text-anchor="start" x="224" y="-41" font-family="Helvetica,sans-Serif" font-size="10.00">+</text>
<text text-anchor="start" x="237" y="-41" font-family="Helvetica,sans-Serif" font-size="10.00">moreData</text>
<text text-anchor="start" x="224" y="-26" font-family="Helvetica,sans-Serif" font-size="10.00">+</text>
<text text-anchor="start" x="237" y="-26" font-family="Helvetica,sans-Serif" font-size="10.00">N4</text>
<text text-anchor="start" x="253" y="-11" font-family="Helvetica,sans-Serif" font-size="10.00"> </text>
<polygon fill="#666666" stroke="#666666" points="220,-291 220,-291 290,-291 290,-291 220,-291"/>
<polygon fill="#666666" stroke="#666666" points="220,-21 220,-21 235,-21 235,-21 220,-21"/>
<polygon fill="#666666" stroke="#666666" points="235,-21 235,-21 290,-21 290,-21 235,-21"/>
<polygon fill="none" stroke="#666666" points="220,-4 220,-308 290,-308 290,-4 220,-4"/>
</a>
</g>
</g>
<!-- Node2 -->
<g id="Node000002" class="node">
<title>Node2</title>
<g id="a_Node000002"><a xlink:href="structBrdcEph.html" target="_top" xlink:title=" ">
<path fill="white" stroke="#666666" d="M54,-715.5C54,-715.5 12,-715.5 12,-715.5 6,-715.5 0,-709.5 0,-703.5 0,-703.5 0,-670.5 0,-670.5 0,-664.5 6,-658.5 12,-658.5 12,-658.5 54,-658.5 54,-658.5 60,-658.5 66,-664.5 66,-670.5 66,-670.5 66,-703.5 66,-703.5 66,-709.5 60,-715.5 54,-715.5"/>
<text text-anchor="start" x="13" y="-699" font-family="Helvetica,sans-Serif" font-size="10.00">BrdcEph</text>
<text text-anchor="start" x="31" y="-684" font-family="Helvetica,sans-Serif" font-size="10.00"> </text>
<text text-anchor="start" x="31" y="-669" font-family="Helvetica,sans-Serif" font-size="10.00"> </text>
<polygon fill="#666666" stroke="#666666" points="8,-694 8,-694 58,-694 58,-694 8,-694"/>
<polygon fill="#666666" stroke="#666666" points="8,-679 8,-679 58,-679 58,-679 8,-679"/>
<polygon fill="none" stroke="#666666" points="8,-662.5 8,-711.5 58,-711.5 58,-662.5 8,-662.5"/>
</a>
</g>
</g>
<!-- Node2&#45;&gt;Node1 -->
<g id="edge1_Node000001_Node000002" class="edge">
<title>Node2&#45;&gt;Node1</title>
<g id="a_edge1_Node000001_Node000002"><a xlink:title=" ">
<path fill="none" stroke="#63b8ff" d="M31.86,-648.13C31.44,-588.71 36.19,-471.07 75,-381 106.69,-307.47 169.39,-238.09 211.77,-196.56"/>
<polygon fill="none" stroke="#63b8ff" points="28.36,-648.23 31.98,-658.18 35.36,-648.14 28.36,-648.23"/>
</a>
</g>
</g>
<!-- Node3 -->
<g id="Node000003" class="node">
<title>Node3</title>
<g id="a_Node000003"><a xlink:href="structSatSys.html" target="_top" xlink:title="Object holding satellite id, and providing related functions.">
<path fill="white" stroke="#666666" d="M189.5,-828C189.5,-828 96.5,-828 96.5,-828 90.5,-828 84.5,-822 84.5,-816 84.5,-816 84.5,-558 84.5,-558 84.5,-552 90.5,-546 96.5,-546 96.5,-546 189.5,-546 189.5,-546 195.5,-546 201.5,-552 201.5,-558 201.5,-558 201.5,-816 201.5,-816 201.5,-822 195.5,-828 189.5,-828"/>
<text text-anchor="start" x="126.5" y="-812" font-family="Helvetica,sans-Serif" font-size="10.00">SatSys</text>
<text text-anchor="start" x="97" y="-797" font-family="Helvetica,sans-Serif" font-size="10.00">+</text>
<text text-anchor="start" x="110" y="-797" font-family="Helvetica,sans-Serif" font-size="10.00">sys</text>
<text text-anchor="start" x="97" y="-782" font-family="Helvetica,sans-Serif" font-size="10.00">+</text>
<text text-anchor="start" x="110" y="-782" font-family="Helvetica,sans-Serif" font-size="10.00">prn</text>
<text text-anchor="start" x="97" y="-767" font-family="Helvetica,sans-Serif" font-size="10.00">+</text>
<text text-anchor="start" x="110" y="-767" font-family="Helvetica,sans-Serif" font-size="10.00">SatSys()</text>
<text text-anchor="start" x="97" y="-752" font-family="Helvetica,sans-Serif" font-size="10.00">+</text>
<text text-anchor="start" x="110" y="-752" font-family="Helvetica,sans-Serif" font-size="10.00">sysChar()</text>
<text text-anchor="start" x="97" y="-737" font-family="Helvetica,sans-Serif" font-size="10.00">+</text>
<text text-anchor="start" x="110" y="-737" font-family="Helvetica,sans-Serif" font-size="10.00">getId()</text>
<text text-anchor="start" x="97" y="-722" font-family="Helvetica,sans-Serif" font-size="10.00">+</text>
<text text-anchor="start" x="110" y="-722" font-family="Helvetica,sans-Serif" font-size="10.00">operator int()</text>
<text text-anchor="start" x="97" y="-707" font-family="Helvetica,sans-Serif" font-size="10.00">+</text>
<text text-anchor="start" x="110" y="-707" font-family="Helvetica,sans-Serif" font-size="10.00">setBlockType()</text>
<text text-anchor="start" x="97" y="-692" font-family="Helvetica,sans-Serif" font-size="10.00">+</text>
<text text-anchor="start" x="110" y="-692" font-family="Helvetica,sans-Serif" font-size="10.00">setSvn()</text>
<text text-anchor="start" x="97" y="-677" font-family="Helvetica,sans-Serif" font-size="10.00">+</text>
<text text-anchor="start" x="110" y="-677" font-family="Helvetica,sans-Serif" font-size="10.00">blockType()</text>
<text text-anchor="start" x="97" y="-662" font-family="Helvetica,sans-Serif" font-size="10.00">+</text>
<text text-anchor="start" x="110" y="-662" font-family="Helvetica,sans-Serif" font-size="10.00">svn()</text>
<text text-anchor="start" x="97" y="-647" font-family="Helvetica,sans-Serif" font-size="10.00">+</text>
<text text-anchor="start" x="110" y="-647" font-family="Helvetica,sans-Serif" font-size="10.00">fromHash()</text>
<text text-anchor="start" x="97" y="-632" font-family="Helvetica,sans-Serif" font-size="10.00">+</text>
<text text-anchor="start" x="110" y="-632" font-family="Helvetica,sans-Serif" font-size="10.00">id()</text>
<text text-anchor="start" x="97" y="-617" font-family="Helvetica,sans-Serif" font-size="10.00">+</text>
<text text-anchor="start" x="110" y="-617" font-family="Helvetica,sans-Serif" font-size="10.00">operator string()</text>
<text text-anchor="start" x="97" y="-602" font-family="Helvetica,sans-Serif" font-size="10.00">+</text>
<text text-anchor="start" x="110" y="-602" font-family="Helvetica,sans-Serif" font-size="10.00">SatSys()</text>
<text text-anchor="start" x="97" y="-587" font-family="Helvetica,sans-Serif" font-size="10.00">+</text>
<text text-anchor="start" x="110" y="-587" font-family="Helvetica,sans-Serif" font-size="10.00">sysName()</text>
<text text-anchor="start" x="97" y="-572" font-family="Helvetica,sans-Serif" font-size="10.00">+</text>
<text text-anchor="start" x="110" y="-572" font-family="Helvetica,sans-Serif" font-size="10.00">serialize()</text>
<text text-anchor="start" x="97" y="-557" font-family="Helvetica,sans-Serif" font-size="10.00">+</text>
<text text-anchor="start" x="110" y="-557" font-family="Helvetica,sans-Serif" font-size="10.00">sysFromChar()</text>
<polygon fill="#666666" stroke="#666666" points="93,-807 93,-807 194,-807 194,-807 93,-807"/>
<polygon fill="#666666" stroke="#666666" points="93,-777 93,-777 108,-777 108,-777 93,-777"/>
<polygon fill="#666666" stroke="#666666" points="108,-777 108,-777 194,-777 194,-777 108,-777"/>
<polygon fill="none" stroke="#666666" points="92.5,-550 92.5,-824 193.5,-824 193.5,-550 92.5,-550"/>
</a>
</g>
</g>
<!-- Node3&#45;&gt;Node1 -->
<g id="edge2_Node000001_Node000003" class="edge">
<title>Node3&#45;&gt;Node1</title>
<g id="a_edge2_Node000001_Node000003"><a xlink:title=" ">
<path fill="none" stroke="#63b8ff" d="M172.65,-545.97C187.07,-477.83 204.52,-395.42 219.64,-324.02"/>
<polygon fill="none" stroke="#63b8ff" points="219.66,-323.94 216.99,-317.24 222.14,-312.2 224.81,-318.9 219.66,-323.94"/>
</a>
</g>
<text text-anchor="middle" x="230" y="-344" font-family="Helvetica,sans-Serif" font-size="10.00" fill="grey"> +Sat</text>
</g>
<!-- Node4 -->
<g id="Node000004" class="node">
<title>Node4</title>
<g id="a_Node000004"><a xlink:title=" ">
<path fill="#fff0f0" stroke="red" d="M197,-1108C197,-1108 89,-1108 89,-1108 83,-1108 77,-1102 77,-1096 77,-1096 77,-1052 77,-1052 77,-1046 83,-1040 89,-1040 89,-1040 197,-1040 197,-1040 203,-1040 209,-1046 209,-1052 209,-1052 209,-1096 209,-1096 209,-1102 203,-1108 197,-1108"/>
<text text-anchor="start" x="90" y="-1092" font-family="Helvetica,sans-Serif" font-size="10.00">map&lt; SatSys, SatSys</text>
<text text-anchor="start" x="114.5" y="-1081" font-family="Helvetica,sans-Serif" font-size="10.00">::SatData &gt;</text>
<text text-anchor="start" x="141" y="-1066" font-family="Helvetica,sans-Serif" font-size="10.00"> </text>
<text text-anchor="start" x="141" y="-1051" font-family="Helvetica,sans-Serif" font-size="10.00"> </text>
<polygon fill="red" stroke="red" points="85,-1076 85,-1076 201,-1076 201,-1076 85,-1076"/>
<polygon fill="red" stroke="red" points="85,-1061 85,-1061 201,-1061 201,-1061 85,-1061"/>
<polygon fill="none" stroke="red" points="85,-1044 85,-1104 201,-1104 201,-1044 85,-1044"/>
</a>
</g>
</g>
<!-- Node4&#45;&gt;Node3 -->
<g id="edge3_Node000003_Node000004" class="edge">
<title>Node4&#45;&gt;Node3</title>
<g id="a_edge3_Node000003_Node000004"><a xlink:title=" ">
<path fill="none" stroke="#63b8ff" d="M143,-1039.84C143,-995.44 143,-913.71 143,-840.2"/>
<polygon fill="none" stroke="#63b8ff" points="143,-840.01 139,-834.01 143,-828.01 147,-834.01 143,-840.01"/>
</a>
</g>
<text text-anchor="middle" x="178.5" y="-1014" font-family="Helvetica,sans-Serif" font-size="10.00" fill="grey"> +satDataMap</text>
</g>
<!-- Node6 -->
<g id="Node000006" class="node">
<title>Node6</title>
<g id="a_Node000006"><a xlink:href="structGTime.html" target="_top" xlink:title="Time structure used throughout this software.">
<path fill="white" stroke="#666666" d="M354,-993C354,-993 232,-993 232,-993 226,-993 220,-987 220,-981 220,-981 220,-393 220,-393 220,-387 226,-381 232,-381 232,-381 354,-381 354,-381 360,-381 366,-387 366,-393 366,-393 366,-981 366,-981 366,-987 360,-993 354,-993"/>
<text text-anchor="start" x="276.5" y="-977" font-family="Helvetica,sans-Serif" font-size="10.00">GTime</text>
<text text-anchor="start" x="232" y="-962" font-family="Helvetica,sans-Serif" font-size="10.00">+</text>
<text text-anchor="start" x="245" y="-962" font-family="Helvetica,sans-Serif" font-size="10.00">bigTime</text>
<text text-anchor="start" x="232" y="-947" font-family="Helvetica,sans-Serif" font-size="10.00">+</text>
<text text-anchor="start" x="245" y="-947" font-family="Helvetica,sans-Serif" font-size="10.00">GTime()</text>
<text text-anchor="start" x="232" y="-932" font-family="Helvetica,sans-Serif" font-size="10.00">+</text>
<text text-anchor="start" x="245" y="-932" font-family="Helvetica,sans-Serif" font-size="10.00">GTime()</text>
<text text-anchor="start" x="232" y="-917" font-family="Helvetica,sans-Serif" font-size="10.00">+</text>
<text text-anchor="start" x="245" y="-917" font-family="Helvetica,sans-Serif" font-size="10.00">GTime()</text>
<text text-anchor="start" x="232" y="-902" font-family="Helvetica,sans-Serif" font-size="10.00">+</text>
<text text-anchor="start" x="245" y="-902" font-family="Helvetica,sans-Serif" font-size="10.00">to_string()</text>
<text text-anchor="start" x="232" y="-887" font-family="Helvetica,sans-Serif" font-size="10.00">+</text>
<text text-anchor="start" x="245" y="-887" font-family="Helvetica,sans-Serif" font-size="10.00">operator==()</text>
<text text-anchor="start" x="232" y="-872" font-family="Helvetica,sans-Serif" font-size="10.00">+</text>
<text text-anchor="start" x="245" y="-872" font-family="Helvetica,sans-Serif" font-size="10.00">operator!=()</text>
<text text-anchor="start" x="232" y="-857" font-family="Helvetica,sans-Serif" font-size="10.00">+</text>
<text text-anchor="start" x="245" y="-857" font-family="Helvetica,sans-Serif" font-size="10.00">operator&lt;()</text>
<text text-anchor="start" x="232" y="-842" font-family="Helvetica,sans-Serif" font-size="10.00">+</text>
<text text-anchor="start" x="245" y="-842" font-family="Helvetica,sans-Serif" font-size="10.00">operator&gt;()</text>
<text text-anchor="start" x="232" y="-827" font-family="Helvetica,sans-Serif" font-size="10.00">+</text>
<text text-anchor="start" x="245" y="-827" font-family="Helvetica,sans-Serif" font-size="10.00">operator&gt;=()</text>
<text text-anchor="start" x="232" y="-812" font-family="Helvetica,sans-Serif" font-size="10.00">+</text>
<text text-anchor="start" x="245" y="-812" font-family="Helvetica,sans-Serif" font-size="10.00">operator+()</text>
<text text-anchor="start" x="232" y="-797" font-family="Helvetica,sans-Serif" font-size="10.00">+</text>
<text text-anchor="start" x="245" y="-797" font-family="Helvetica,sans-Serif" font-size="10.00">operator+()</text>
<text text-anchor="start" x="232" y="-782" font-family="Helvetica,sans-Serif" font-size="10.00">+</text>
<text text-anchor="start" x="245" y="-782" font-family="Helvetica,sans-Serif" font-size="10.00">operator+()</text>
<text text-anchor="start" x="232" y="-767" font-family="Helvetica,sans-Serif" font-size="10.00">+</text>
<text text-anchor="start" x="245" y="-767" font-family="Helvetica,sans-Serif" font-size="10.00">operator+=()</text>
<text text-anchor="start" x="232" y="-752" font-family="Helvetica,sans-Serif" font-size="10.00">+</text>
<text text-anchor="start" x="245" y="-752" font-family="Helvetica,sans-Serif" font-size="10.00">operator&#45;=()</text>
<text text-anchor="start" x="232" y="-737" font-family="Helvetica,sans-Serif" font-size="10.00">+</text>
<text text-anchor="start" x="245" y="-737" font-family="Helvetica,sans-Serif" font-size="10.00">operator&#45;()</text>
<text text-anchor="start" x="232" y="-722" font-family="Helvetica,sans-Serif" font-size="10.00">+</text>
<text text-anchor="start" x="245" y="-722" font-family="Helvetica,sans-Serif" font-size="10.00">operator&#45;()</text>
<text text-anchor="start" x="232" y="-707" font-family="Helvetica,sans-Serif" font-size="10.00">+</text>
<text text-anchor="start" x="245" y="-707" font-family="Helvetica,sans-Serif" font-size="10.00">operator&#45;()</text>
<text text-anchor="start" x="232" y="-692" font-family="Helvetica,sans-Serif" font-size="10.00">+</text>
<text text-anchor="start" x="245" y="-692" font-family="Helvetica,sans-Serif" font-size="10.00">operator++()</text>
<text text-anchor="start" x="232" y="-677" font-family="Helvetica,sans-Serif" font-size="10.00">+</text>
<text text-anchor="start" x="245" y="-677" font-family="Helvetica,sans-Serif" font-size="10.00">GTime()</text>
<text text-anchor="start" x="232" y="-662" font-family="Helvetica,sans-Serif" font-size="10.00">+</text>
<text text-anchor="start" x="245" y="-662" font-family="Helvetica,sans-Serif" font-size="10.00">GTime()</text>
<text text-anchor="start" x="232" y="-647" font-family="Helvetica,sans-Serif" font-size="10.00">+</text>
<text text-anchor="start" x="245" y="-647" font-family="Helvetica,sans-Serif" font-size="10.00">GTime()</text>
<text text-anchor="start" x="232" y="-632" font-family="Helvetica,sans-Serif" font-size="10.00">+</text>
<text text-anchor="start" x="245" y="-632" font-family="Helvetica,sans-Serif" font-size="10.00">GTime()</text>
<text text-anchor="start" x="232" y="-617" font-family="Helvetica,sans-Serif" font-size="10.00">+</text>
<text text-anchor="start" x="245" y="-617" font-family="Helvetica,sans-Serif" font-size="10.00">GTime()</text>
<text text-anchor="start" x="232" y="-602" font-family="Helvetica,sans-Serif" font-size="10.00">+</text>
<text text-anchor="start" x="245" y="-602" font-family="Helvetica,sans-Serif" font-size="10.00">serialize()</text>
<text text-anchor="start" x="232" y="-587" font-family="Helvetica,sans-Serif" font-size="10.00">+</text>
<text text-anchor="start" x="245" y="-587" font-family="Helvetica,sans-Serif" font-size="10.00">floorTime()</text>
<text text-anchor="start" x="232" y="-572" font-family="Helvetica,sans-Serif" font-size="10.00">+</text>
<text text-anchor="start" x="245" y="-572" font-family="Helvetica,sans-Serif" font-size="10.00">gregString()</text>
<text text-anchor="start" x="232" y="-557" font-family="Helvetica,sans-Serif" font-size="10.00">+</text>
<text text-anchor="start" x="245" y="-557" font-family="Helvetica,sans-Serif" font-size="10.00">operator long double()</text>
<text text-anchor="start" x="232" y="-542" font-family="Helvetica,sans-Serif" font-size="10.00">+</text>
<text text-anchor="start" x="245" y="-542" font-family="Helvetica,sans-Serif" font-size="10.00">operator MjDateTT()</text>
<text text-anchor="start" x="232" y="-527" font-family="Helvetica,sans-Serif" font-size="10.00">+</text>
<text text-anchor="start" x="245" y="-527" font-family="Helvetica,sans-Serif" font-size="10.00">operator GEpoch()</text>
<text text-anchor="start" x="232" y="-512" font-family="Helvetica,sans-Serif" font-size="10.00">+</text>
<text text-anchor="start" x="245" y="-512" font-family="Helvetica,sans-Serif" font-size="10.00">operator UtcTime()</text>
<text text-anchor="start" x="232" y="-497" font-family="Helvetica,sans-Serif" font-size="10.00">+</text>
<text text-anchor="start" x="245" y="-497" font-family="Helvetica,sans-Serif" font-size="10.00">operator GWeek()</text>
<text text-anchor="start" x="232" y="-482" font-family="Helvetica,sans-Serif" font-size="10.00">+</text>
<text text-anchor="start" x="245" y="-482" font-family="Helvetica,sans-Serif" font-size="10.00">operator BWeek()</text>
<text text-anchor="start" x="232" y="-467" font-family="Helvetica,sans-Serif" font-size="10.00">+</text>
<text text-anchor="start" x="245" y="-467" font-family="Helvetica,sans-Serif" font-size="10.00">operator GTow()</text>
<text text-anchor="start" x="232" y="-452" font-family="Helvetica,sans-Serif" font-size="10.00">+</text>
<text text-anchor="start" x="245" y="-452" font-family="Helvetica,sans-Serif" font-size="10.00">operator BTow()</text>
<text text-anchor="start" x="232" y="-437" font-family="Helvetica,sans-Serif" font-size="10.00">+</text>
<text text-anchor="start" x="245" y="-437" font-family="Helvetica,sans-Serif" font-size="10.00">operator PTime()</text>
<text text-anchor="start" x="232" y="-422" font-family="Helvetica,sans-Serif" font-size="10.00">+</text>
<text text-anchor="start" x="245" y="-422" font-family="Helvetica,sans-Serif" font-size="10.00">operator string()</text>
<text text-anchor="start" x="232" y="-407" font-family="Helvetica,sans-Serif" font-size="10.00">+</text>
<text text-anchor="start" x="245" y="-407" font-family="Helvetica,sans-Serif" font-size="10.00">operator RTod()</text>
<text text-anchor="start" x="232" y="-392" font-family="Helvetica,sans-Serif" font-size="10.00">+</text>
<text text-anchor="start" x="245" y="-392" font-family="Helvetica,sans-Serif" font-size="10.00">noTime()</text>
<polygon fill="#666666" stroke="#666666" points="228,-972 228,-972 358,-972 358,-972 228,-972"/>
<polygon fill="#666666" stroke="#666666" points="228,-957 228,-957 243,-957 243,-957 228,-957"/>
<polygon fill="#666666" stroke="#666666" points="243,-957 243,-957 358,-957 358,-957 243,-957"/>
<polygon fill="none" stroke="#666666" points="228,-385 228,-989 358,-989 358,-385 228,-385"/>
</a>
</g>
</g>
<!-- Node6&#45;&gt;Node1 -->
<g id="edge4_Node000001_Node000006" class="edge">
<title>Node6&#45;&gt;Node1</title>
<g id="a_edge4_Node000001_Node000006"><a xlink:title=" ">
<path fill="none" stroke="#63b8ff" d="M271.09,-380.96C269.7,-361.67 268.34,-342.68 267.03,-324.4"/>
<polygon fill="none" stroke="#63b8ff" points="267.01,-324.16 262.59,-318.46 266.15,-312.19 270.57,-317.88 267.01,-324.16"/>
</a>
</g>
<text text-anchor="middle" x="284" y="-349.5" font-family="Helvetica,sans-Serif" font-size="10.00" fill="grey"> +toe</text>
<text text-anchor="middle" x="284" y="-338.5" font-family="Helvetica,sans-Serif" font-size="10.00" fill="grey">+tof</text>
</g>
<!-- Node7 -->
<g id="Node000007" class="node">
<title>Node7</title>
<g id="a_Node000007"><a xlink:title=" ">
<path fill="white" stroke="#666666" d="M441.5,-715.5C441.5,-715.5 396.5,-715.5 396.5,-715.5 390.5,-715.5 384.5,-709.5 384.5,-703.5 384.5,-703.5 384.5,-670.5 384.5,-670.5 384.5,-664.5 390.5,-658.5 396.5,-658.5 396.5,-658.5 441.5,-658.5 441.5,-658.5 447.5,-658.5 453.5,-664.5 453.5,-670.5 453.5,-670.5 453.5,-703.5 453.5,-703.5 453.5,-709.5 447.5,-715.5 441.5,-715.5"/>
<text text-anchor="start" x="398" y="-699" font-family="Helvetica,sans-Serif" font-size="10.00">Vector3d</text>
<text text-anchor="start" x="417.5" y="-684" font-family="Helvetica,sans-Serif" font-size="10.00"> </text>
<text text-anchor="start" x="417.5" y="-669" font-family="Helvetica,sans-Serif" font-size="10.00"> </text>
<polygon fill="#666666" stroke="#666666" points="393,-694 393,-694 446,-694 446,-694 393,-694"/>
<polygon fill="#666666" stroke="#666666" points="393,-679 393,-679 446,-679 446,-679 393,-679"/>
<polygon fill="none" stroke="#666666" points="392.5,-662.5 392.5,-711.5 445.5,-711.5 445.5,-662.5 392.5,-662.5"/>
</a>
</g>
</g>
<!-- Node7&#45;&gt;Node1 -->
<g id="edge5_Node000001_Node000007" class="edge">
<title>Node7&#45;&gt;Node1</title>
<g id="a_edge5_Node000001_Node000007"><a xlink:title=" ">
<path fill="none" stroke="#63b8ff" d="M418.21,-658.35C415.97,-603.91 407.41,-479.6 375,-381 357.98,-329.23 329.45,-275.26 304.47,-233.27"/>
<polygon fill="none" stroke="#63b8ff" points="304.4,-233.15 297.87,-230.07 298.21,-222.87 304.73,-225.94 304.4,-233.15"/>
</a>
</g>
<text text-anchor="middle" x="382" y="-355" font-family="Helvetica,sans-Serif" font-size="10.00" fill="grey"> +acc</text>
<text text-anchor="middle" x="382" y="-344" font-family="Helvetica,sans-Serif" font-size="10.00" fill="grey">+pos</text>
<text text-anchor="middle" x="382" y="-333" font-family="Helvetica,sans-Serif" font-size="10.00" fill="grey">+vel</text>
</g>
</g>
</svg>
