<?xml version="1.0" encoding="UTF-8" standalone="no"?>
<!DOCTYPE svg PUBLIC "-//W3C//DTD SVG 1.1//EN"
 "http://www.w3.org/Graphics/SVG/1.1/DTD/svg11.dtd">
<!-- Generated by graphviz version 2.43.0 (0)
 -->
<!-- Title: SSRBias Pages: 1 -->
<svg width="216pt" height="263pt"
 viewBox="0.00 0.00 216.00 263.00" xmlns="http://www.w3.org/2000/svg" xmlns:xlink="http://www.w3.org/1999/xlink">
<g id="graph0" class="graph" transform="scale(1 1) rotate(0) translate(4 259)">
<title>SSRBias</title>
<!-- Node1 -->
<g id="Node000001" class="node">
<title>Node1</title>
<g id="a_Node000001"><a xlink:href="structSSRBias.html" target="_top" xlink:title=" ">
<path fill="white" stroke="#666666" stroke-width="2" d="M150.5,-255C150.5,-255 52.5,-255 52.5,-255 46.5,-255 40.5,-249 40.5,-243 40.5,-243 40.5,-120 40.5,-120 40.5,-114 46.5,-108 52.5,-108 52.5,-108 150.5,-108 150.5,-108 156.5,-108 162.5,-114 162.5,-120 162.5,-120 162.5,-243 162.5,-243 162.5,-249 156.5,-255 150.5,-255"/>
<text text-anchor="start" x="81.5" y="-238.5" font-family="Helvetica,sans-Serif" font-size="10.00">SSRBias</text>
<text text-anchor="start" x="52.5" y="-223.5" font-family="Helvetica,sans-Serif" font-size="10.00">+</text>
<text text-anchor="start" x="65.5" y="-223.5" font-family="Helvetica,sans-Serif" font-size="10.00">ssrMeta</text>
<text text-anchor="start" x="52.5" y="-208.5" font-family="Helvetica,sans-Serif" font-size="10.00">+</text>
<text text-anchor="start" x="65.5" y="-208.5" font-family="Helvetica,sans-Serif" font-size="10.00">t0</text>
<text text-anchor="start" x="52.5" y="-193.5" font-family="Helvetica,sans-Serif" font-size="10.00">+</text>
<text text-anchor="start" x="65.5" y="-193.5" font-family="Helvetica,sans-Serif" font-size="10.00">udi</text>
<text text-anchor="start" x="52.5" y="-178.5" font-family="Helvetica,sans-Serif" font-size="10.00">+</text>
<text text-anchor="start" x="65.5" y="-178.5" font-family="Helvetica,sans-Serif" font-size="10.00">iod</text>
<text text-anchor="start" x="52.5" y="-163.5" font-family="Helvetica,sans-Serif" font-size="10.00">+</text>
<text text-anchor="start" x="65.5" y="-163.5" font-family="Helvetica,sans-Serif" font-size="10.00">nbias</text>
<text text-anchor="start" x="52.5" y="-148.5" font-family="Helvetica,sans-Serif" font-size="10.00">+</text>
<text text-anchor="start" x="65.5" y="-148.5" font-family="Helvetica,sans-Serif" font-size="10.00">obsCodeBiasMap</text>
<text text-anchor="start" x="52.5" y="-133.5" font-family="Helvetica,sans-Serif" font-size="10.00">+</text>
<text text-anchor="start" x="65.5" y="-133.5" font-family="Helvetica,sans-Serif" font-size="10.00">ionDCBOffset</text>
<text text-anchor="start" x="99.5" y="-118.5" font-family="Helvetica,sans-Serif" font-size="10.00"> </text>
<polygon fill="#666666" stroke="#666666" points="48.5,-233.5 48.5,-233.5 154.5,-233.5 154.5,-233.5 48.5,-233.5"/>
<polygon fill="#666666" stroke="#666666" points="48.5,-128.5 48.5,-128.5 63.5,-128.5 63.5,-128.5 48.5,-128.5"/>
<polygon fill="#666666" stroke="#666666" points="63.5,-128.5 63.5,-128.5 154.5,-128.5 154.5,-128.5 63.5,-128.5"/>
<polygon fill="none" stroke="#666666" points="48.5,-112 48.5,-251 154.5,-251 154.5,-112 48.5,-112"/>
</a>
</g>
</g>
<!-- Node2 -->
<g id="Node000002" class="node">
<title>Node2</title>
<g id="a_Node000002"><a xlink:href="structSSRCodeBias.html" target="_top" xlink:title=" ">
<path fill="white" stroke="#666666" d="M79,-64.5C79,-64.5 12,-64.5 12,-64.5 6,-64.5 0,-58.5 0,-52.5 0,-52.5 0,-19.5 0,-19.5 0,-13.5 6,-7.5 12,-7.5 12,-7.5 79,-7.5 79,-7.5 85,-7.5 91,-13.5 91,-19.5 91,-19.5 91,-52.5 91,-52.5 91,-58.5 85,-64.5 79,-64.5"/>
<text text-anchor="start" x="13.5" y="-48" font-family="Helvetica,sans-Serif" font-size="10.00">SSRCodeBias</text>
<text text-anchor="start" x="44" y="-33" font-family="Helvetica,sans-Serif" font-size="10.00"> </text>
<text text-anchor="start" x="44" y="-18" font-family="Helvetica,sans-Serif" font-size="10.00"> </text>
<polygon fill="#666666" stroke="#666666" points="8.5,-43 8.5,-43 83.5,-43 83.5,-43 8.5,-43"/>
<polygon fill="#666666" stroke="#666666" points="8.5,-28 8.5,-28 83.5,-28 83.5,-28 8.5,-28"/>
<polygon fill="none" stroke="#666666" points="8,-11.5 8,-60.5 83,-60.5 83,-11.5 8,-11.5"/>
</a>
</g>
</g>
<!-- Node1&#45;&gt;Node2 -->
<g id="edge1_Node000001_Node000002" class="edge">
<title>Node1&#45;&gt;Node2</title>
<g id="a_edge1_Node000001_Node000002"><a xlink:title=" ">
<path fill="none" stroke="#63b8ff" d="M69.51,-98.54C64.76,-86.35 60.16,-74.56 56.28,-64.62"/>
<polygon fill="none" stroke="#63b8ff" points="66.28,-99.87 73.17,-107.91 72.8,-97.32 66.28,-99.87"/>
</a>
</g>
</g>
<!-- Node3 -->
<g id="Node000003" class="node">
<title>Node3</title>
<g id="a_Node000003"><a xlink:href="structSSRPhasBias.html" target="_top" xlink:title=" ">
<path fill="white" stroke="#666666" d="M196,-72C196,-72 121,-72 121,-72 115,-72 109,-66 109,-60 109,-60 109,-12 109,-12 109,-6 115,0 121,0 121,0 196,0 196,0 202,0 208,-6 208,-12 208,-12 208,-60 208,-60 208,-66 202,-72 196,-72"/>
<text text-anchor="start" x="127" y="-56" font-family="Helvetica,sans-Serif" font-size="10.00">SSRPhasBias</text>
<text text-anchor="start" x="121.5" y="-41" font-family="Helvetica,sans-Serif" font-size="10.00">+</text>
<text text-anchor="start" x="134.5" y="-41" font-family="Helvetica,sans-Serif" font-size="10.00">ssrPhase</text>
<text text-anchor="start" x="121.5" y="-26" font-family="Helvetica,sans-Serif" font-size="10.00">+</text>
<text text-anchor="start" x="134.5" y="-26" font-family="Helvetica,sans-Serif" font-size="10.00">ssrPhaseChs</text>
<text text-anchor="start" x="157" y="-11" font-family="Helvetica,sans-Serif" font-size="10.00"> </text>
<polygon fill="#666666" stroke="#666666" points="117.5,-51 117.5,-51 200.5,-51 200.5,-51 117.5,-51"/>
<polygon fill="#666666" stroke="#666666" points="117.5,-21 117.5,-21 132.5,-21 132.5,-21 117.5,-21"/>
<polygon fill="#666666" stroke="#666666" points="132.5,-21 132.5,-21 200.5,-21 200.5,-21 132.5,-21"/>
<polygon fill="none" stroke="#666666" points="117,-4 117,-68 200,-68 200,-4 117,-4"/>
</a>
</g>
</g>
<!-- Node1&#45;&gt;Node3 -->
<g id="edge2_Node000001_Node000003" class="edge">
<title>Node1&#45;&gt;Node3</title>
<g id="a_edge2_Node000001_Node000003"><a xlink:title=" ">
<path fill="none" stroke="#63b8ff" d="M134.12,-98.37C137.74,-89.27 141.26,-80.4 144.45,-72.36"/>
<polygon fill="none" stroke="#63b8ff" points="130.77,-97.32 130.33,-107.91 137.28,-99.91 130.77,-97.32"/>
</a>
</g>
</g>
</g>
</svg>
