<?xml version="1.0" encoding="UTF-8" standalone="no"?>
<!DOCTYPE svg PUBLIC "-//W3C//DTD SVG 1.1//EN"
 "http://www.w3.org/Graphics/SVG/1.1/DTD/svg11.dtd">
<!-- Generated by graphviz version 2.43.0 (0)
 -->
<!-- Title: InteractiveTerminal Pages: 1 -->
<svg width="156pt" height="473pt"
 viewBox="0.00 0.00 156.00 473.00" xmlns="http://www.w3.org/2000/svg" xmlns:xlink="http://www.w3.org/1999/xlink">
<g id="graph0" class="graph" transform="scale(1 1) rotate(0) translate(4 469)">
<title>InteractiveTerminal</title>
<!-- Node1 -->
<g id="Node000001" class="node">
<title>Node1</title>
<g id="a_Node000001"><a xlink:href="structInteractiveTerminal.html" target="_top" xlink:title=" ">
<path fill="white" stroke="#666666" stroke-width="2" d="M136,-372C136,-372 12,-372 12,-372 6,-372 0,-366 0,-360 0,-360 0,-12 0,-12 0,-6 6,0 12,0 12,0 136,0 136,0 142,0 148,-6 148,-12 148,-12 148,-360 148,-360 148,-366 142,-372 136,-372"/>
<text text-anchor="start" x="26.5" y="-356" font-family="Helvetica,sans-Serif" font-size="10.00">InteractiveTerminal</text>
<text text-anchor="start" x="12" y="-341" font-family="Helvetica,sans-Serif" font-size="10.00">+</text>
<text text-anchor="start" x="25" y="-341" font-family="Helvetica,sans-Serif" font-size="10.00">name</text>
<text text-anchor="start" x="12" y="-326" font-family="Helvetica,sans-Serif" font-size="10.00">+</text>
<text text-anchor="start" x="25" y="-326" font-family="Helvetica,sans-Serif" font-size="10.00">trace</text>
<text text-anchor="start" x="12" y="-311" font-family="Helvetica,sans-Serif" font-size="10.00">+</text>
<text text-anchor="start" x="25" y="-311" font-family="Helvetica,sans-Serif" font-size="10.00">doClear</text>
<text text-anchor="start" x="12" y="-296" font-family="Helvetica,sans-Serif" font-size="10.00">+</text>
<text text-anchor="start" x="25" y="-296" font-family="Helvetica,sans-Serif" font-size="10.00">dataMutex</text>
<text text-anchor="start" x="12" y="-281" font-family="Helvetica,sans-Serif" font-size="10.00">+</text>
<text text-anchor="start" x="25" y="-281" font-family="Helvetica,sans-Serif" font-size="10.00">displayMutex</text>
<text text-anchor="start" x="12" y="-266" font-family="Helvetica,sans-Serif" font-size="10.00">+</text>
<text text-anchor="start" x="25" y="-266" font-family="Helvetica,sans-Serif" font-size="10.00">activePage</text>
<text text-anchor="start" x="12" y="-251" font-family="Helvetica,sans-Serif" font-size="10.00">+</text>
<text text-anchor="start" x="25" y="-251" font-family="Helvetica,sans-Serif" font-size="10.00">epoch</text>
<text text-anchor="start" x="12" y="-236" font-family="Helvetica,sans-Serif" font-size="10.00">+</text>
<text text-anchor="start" x="25" y="-236" font-family="Helvetica,sans-Serif" font-size="10.00">duration</text>
<text text-anchor="start" x="12" y="-221" font-family="Helvetica,sans-Serif" font-size="10.00">+</text>
<text text-anchor="start" x="25" y="-221" font-family="Helvetica,sans-Serif" font-size="10.00">interactMode</text>
<text text-anchor="start" x="12" y="-206" font-family="Helvetica,sans-Serif" font-size="10.00">+</text>
<text text-anchor="start" x="25" y="-206" font-family="Helvetica,sans-Serif" font-size="10.00">activeMode</text>
<text text-anchor="start" x="12" y="-191" font-family="Helvetica,sans-Serif" font-size="10.00">+</text>
<text text-anchor="start" x="25" y="-191" font-family="Helvetica,sans-Serif" font-size="10.00">enabled</text>
<text text-anchor="start" x="12" y="-176" font-family="Helvetica,sans-Serif" font-size="10.00">+</text>
<text text-anchor="start" x="25" y="-176" font-family="Helvetica,sans-Serif" font-size="10.00">pages</text>
<text text-anchor="start" x="12" y="-161" font-family="Helvetica,sans-Serif" font-size="10.00">+</text>
<text text-anchor="start" x="25" y="-161" font-family="Helvetica,sans-Serif" font-size="10.00">modes</text>
<text text-anchor="start" x="12" y="-146" font-family="Helvetica,sans-Serif" font-size="10.00">+</text>
<text text-anchor="start" x="25" y="-146" font-family="Helvetica,sans-Serif" font-size="10.00">InteractiveTerminal()</text>
<text text-anchor="start" x="12" y="-131" font-family="Helvetica,sans-Serif" font-size="10.00">+</text>
<text text-anchor="start" x="25" y="-131" font-family="Helvetica,sans-Serif" font-size="10.00">~InteractiveTerminal()</text>
<text text-anchor="start" x="12" y="-116" font-family="Helvetica,sans-Serif" font-size="10.00">+</text>
<text text-anchor="start" x="25" y="-116" font-family="Helvetica,sans-Serif" font-size="10.00">enable()</text>
<text text-anchor="start" x="12" y="-101" font-family="Helvetica,sans-Serif" font-size="10.00">+</text>
<text text-anchor="start" x="25" y="-101" font-family="Helvetica,sans-Serif" font-size="10.00">drawMenus()</text>
<text text-anchor="start" x="12" y="-86" font-family="Helvetica,sans-Serif" font-size="10.00">+</text>
<text text-anchor="start" x="25" y="-86" font-family="Helvetica,sans-Serif" font-size="10.00">drawWindow()</text>
<text text-anchor="start" x="12" y="-71" font-family="Helvetica,sans-Serif" font-size="10.00">+</text>
<text text-anchor="start" x="25" y="-71" font-family="Helvetica,sans-Serif" font-size="10.00">keyboardHandler()</text>
<text text-anchor="start" x="12" y="-56" font-family="Helvetica,sans-Serif" font-size="10.00">+</text>
<text text-anchor="start" x="25" y="-56" font-family="Helvetica,sans-Serif" font-size="10.00">clearPage()</text>
<text text-anchor="start" x="12" y="-41" font-family="Helvetica,sans-Serif" font-size="10.00">+</text>
<text text-anchor="start" x="25" y="-41" font-family="Helvetica,sans-Serif" font-size="10.00">clearModes()</text>
<text text-anchor="start" x="12" y="-26" font-family="Helvetica,sans-Serif" font-size="10.00">+</text>
<text text-anchor="start" x="25" y="-26" font-family="Helvetica,sans-Serif" font-size="10.00">setMode()</text>
<text text-anchor="start" x="12" y="-11" font-family="Helvetica,sans-Serif" font-size="10.00">+</text>
<text text-anchor="start" x="25" y="-11" font-family="Helvetica,sans-Serif" font-size="10.00">addString()</text>
<polygon fill="#666666" stroke="#666666" points="8,-351 8,-351 140,-351 140,-351 8,-351"/>
<polygon fill="#666666" stroke="#666666" points="8,-156 8,-156 23,-156 23,-156 8,-156"/>
<polygon fill="#666666" stroke="#666666" points="23,-156 23,-156 140,-156 140,-156 23,-156"/>
<polygon fill="none" stroke="#666666" points="8,-4 8,-368 140,-368 140,-4 8,-4"/>
</a>
</g>
</g>
<!-- Node2 -->
<g id="Node000002" class="node">
<title>Node2</title>
<g id="a_Node000002"><a xlink:title=" ">
<path fill="white" stroke="#666666" d="M109.5,-465C109.5,-465 38.5,-465 38.5,-465 32.5,-465 26.5,-459 26.5,-453 26.5,-453 26.5,-420 26.5,-420 26.5,-414 32.5,-408 38.5,-408 38.5,-408 109.5,-408 109.5,-408 115.5,-408 121.5,-414 121.5,-420 121.5,-420 121.5,-453 121.5,-453 121.5,-459 115.5,-465 109.5,-465"/>
<text text-anchor="start" x="40" y="-448.5" font-family="Helvetica,sans-Serif" font-size="10.00">ostringstream</text>
<text text-anchor="start" x="72.5" y="-433.5" font-family="Helvetica,sans-Serif" font-size="10.00"> </text>
<text text-anchor="start" x="72.5" y="-418.5" font-family="Helvetica,sans-Serif" font-size="10.00"> </text>
<polygon fill="#666666" stroke="#666666" points="35,-443.5 35,-443.5 114,-443.5 114,-443.5 35,-443.5"/>
<polygon fill="#666666" stroke="#666666" points="35,-428.5 35,-428.5 114,-428.5 114,-428.5 35,-428.5"/>
<polygon fill="none" stroke="#666666" points="34.5,-412 34.5,-461 113.5,-461 113.5,-412 34.5,-412"/>
</a>
</g>
</g>
<!-- Node2&#45;&gt;Node1 -->
<g id="edge1_Node000001_Node000002" class="edge">
<title>Node2&#45;&gt;Node1</title>
<g id="a_edge1_Node000001_Node000002"><a xlink:title=" ">
<path fill="none" stroke="#63b8ff" d="M74,-397.92C74,-390.13 74,-381.43 74,-372.12"/>
<polygon fill="none" stroke="#63b8ff" points="70.5,-397.96 74,-407.96 77.5,-397.96 70.5,-397.96"/>
</a>
</g>
</g>
</g>
</svg>
