<?xml version="1.0" encoding="UTF-8" standalone="no"?>
<!DOCTYPE svg PUBLIC "-//W3C//DTD SVG 1.1//EN"
 "http://www.w3.org/Graphics/SVG/1.1/DTD/svg11.dtd">
<!-- Generated by graphviz version 2.43.0 (0)
 -->
<!-- Title: IERS2010::PMUTOcean Pages: 1 -->
<svg width="230pt" height="27pt"
 viewBox="0.00 0.00 230.00 27.00" xmlns="http://www.w3.org/2000/svg" xmlns:xlink="http://www.w3.org/1999/xlink">
<g id="graph0" class="graph" transform="scale(1 1) rotate(0) translate(4 23)">
<title>IERS2010::PMUTOcean</title>
<!-- Node1 -->
<g id="Node000001" class="node">
<title>Node1</title>
<g id="a_Node000001"><a xlink:href="structIERS2010.html#a5d148e07e2fad178d96561137656b51c" target="_top" xlink:title=" ">
<path fill="#fff0f0" stroke="red" stroke-width="2" d="M215.67,-19C215.67,-19 100.33,-19 100.33,-19 97.17,-19 94,-15.83 94,-12.67 94,-12.67 94,-6.33 94,-6.33 94,-3.17 97.17,0 100.33,0 100.33,0 215.67,0 215.67,0 218.83,0 222,-3.17 222,-6.33 222,-6.33 222,-12.67 222,-12.67 222,-15.83 218.83,-19 215.67,-19"/>
<text text-anchor="middle" x="158" y="-7" font-family="Helvetica,sans-Serif" font-size="10.00">IERS2010::PMUTOcean</text>
</a>
</g>
</g>
<!-- Node2 -->
<g id="Node000002" class="node">
<title>Node2</title>
<g id="a_Node000002"><a xlink:href="coordinates_8cpp.html#ad5579407e3fbc4df3feb1b7d5e910075" target="_top" xlink:title=" ">
<path fill="#fff0f0" stroke="red" d="M51.67,-19C51.67,-19 6.33,-19 6.33,-19 3.17,-19 0,-15.83 0,-12.67 0,-12.67 0,-6.33 0,-6.33 0,-3.17 3.17,0 6.33,0 6.33,0 51.67,0 51.67,0 54.83,0 58,-3.17 58,-6.33 58,-6.33 58,-12.67 58,-12.67 58,-15.83 54.83,-19 51.67,-19"/>
<text text-anchor="middle" x="29" y="-7" font-family="Helvetica,sans-Serif" font-size="10.00">eci2ecef</text>
</a>
</g>
</g>
<!-- Node1&#45;&gt;Node2 -->
<g id="edge1_Node000001_Node000002" class="edge">
<title>Node1&#45;&gt;Node2</title>
<g id="a_edge1_Node000001_Node000002"><a xlink:title=" ">
<path fill="none" stroke="#63b8ff" d="M83.59,-9.5C74.56,-9.5 65.79,-9.5 58.06,-9.5"/>
<polygon fill="#63b8ff" stroke="#63b8ff" points="83.87,-13 93.87,-9.5 83.87,-6 83.87,-13"/>
</a>
</g>
</g>
</g>
</svg>
