<?xml version="1.0" encoding="UTF-8" standalone="no"?>
<!DOCTYPE svg PUBLIC "-//W3C//DTD SVG 1.1//EN"
 "http://www.w3.org/Graphics/SVG/1.1/DTD/svg11.dtd">
<!-- Generated by graphviz version 2.43.0 (0)
 -->
<!-- Title: CustomDecoder::decodeRXM Pages: 1 -->
<svg width="370pt" height="64pt"
 viewBox="0.00 0.00 370.00 64.00" xmlns="http://www.w3.org/2000/svg" xmlns:xlink="http://www.w3.org/1999/xlink">
<g id="graph0" class="graph" transform="scale(1 1) rotate(0) translate(4 60)">
<title>CustomDecoder::decodeRXM</title>
<!-- Node1 -->
<g id="Node000001" class="node">
<title>Node1</title>
<g id="a_Node000001"><a xlink:href="structCustomDecoder.html#a52e38737b5ae8a05fab43d563f789480" target="_top" xlink:title=" ">
<path fill="#fff0f0" stroke="red" stroke-width="2" d="M151.67,-37C151.67,-37 6.33,-37 6.33,-37 3.17,-37 0,-33.83 0,-30.67 0,-30.67 0,-24.33 0,-24.33 0,-21.17 3.17,-18 6.33,-18 6.33,-18 151.67,-18 151.67,-18 154.83,-18 158,-21.17 158,-24.33 158,-24.33 158,-30.67 158,-30.67 158,-33.83 154.83,-37 151.67,-37"/>
<text text-anchor="middle" x="79" y="-25" font-family="Helvetica,sans-Serif" font-size="10.00">CustomDecoder::decodeRXM</text>
</a>
</g>
</g>
<!-- Node2 -->
<g id="Node000002" class="node">
<title>Node2</title>
<g id="a_Node000002"><a xlink:href="structCustomDecoder.html#af16f5c6fc4982458d28bcadce8132f71" target="_top" xlink:title=" ">
<path fill="#fff0f0" stroke="red" d="M354.17,-56C354.17,-56 201.83,-56 201.83,-56 198.67,-56 195.5,-52.83 195.5,-49.67 195.5,-49.67 195.5,-43.33 195.5,-43.33 195.5,-40.17 198.67,-37 201.83,-37 201.83,-37 354.17,-37 354.17,-37 357.33,-37 360.5,-40.17 360.5,-43.33 360.5,-43.33 360.5,-49.67 360.5,-49.67 360.5,-52.83 357.33,-56 354.17,-56"/>
<text text-anchor="middle" x="278" y="-44" font-family="Helvetica,sans-Serif" font-size="10.00">CustomDecoder::decodeRAWX</text>
</a>
</g>
</g>
<!-- Node1&#45;&gt;Node2 -->
<g id="edge1_Node000001_Node000002" class="edge">
<title>Node1&#45;&gt;Node2</title>
<g id="a_edge1_Node000001_Node000002"><a xlink:title=" ">
<path fill="none" stroke="#63b8ff" d="M158.14,-35.04C167.04,-35.89 176.17,-36.78 185.22,-37.65"/>
<polygon fill="#63b8ff" stroke="#63b8ff" points="185.11,-41.15 195.4,-38.63 185.78,-34.19 185.11,-41.15"/>
</a>
</g>
</g>
<!-- Node4 -->
<g id="Node000004" class="node">
<title>Node4</title>
<g id="a_Node000004"><a xlink:href="structCustomDecoder.html#a0bfcabb423e6fd5bb673f228f568d218" target="_top" xlink:title=" ">
<path fill="#fff0f0" stroke="red" d="M355.67,-19C355.67,-19 200.33,-19 200.33,-19 197.17,-19 194,-15.83 194,-12.67 194,-12.67 194,-6.33 194,-6.33 194,-3.17 197.17,0 200.33,0 200.33,0 355.67,0 355.67,0 358.83,0 362,-3.17 362,-6.33 362,-6.33 362,-12.67 362,-12.67 362,-15.83 358.83,-19 355.67,-19"/>
<text text-anchor="middle" x="278" y="-7" font-family="Helvetica,sans-Serif" font-size="10.00">CustomDecoder::decodeSFRBX</text>
</a>
</g>
</g>
<!-- Node1&#45;&gt;Node4 -->
<g id="edge2_Node000001_Node000004" class="edge">
<title>Node1&#45;&gt;Node4</title>
<g id="a_edge2_Node000001_Node000004"><a xlink:title=" ">
<path fill="none" stroke="#63b8ff" d="M158.14,-20.36C166.56,-19.59 175.18,-18.8 183.75,-18.02"/>
<polygon fill="#63b8ff" stroke="#63b8ff" points="184.13,-21.5 193.77,-17.1 183.5,-14.53 184.13,-21.5"/>
</a>
</g>
</g>
</g>
</svg>
