<?xml version="1.0" encoding="UTF-8" standalone="no"?>
<!DOCTYPE svg PUBLIC "-//W3C//DTD SVG 1.1//EN"
 "http://www.w3.org/Graphics/SVG/1.1/DTD/svg11.dtd">
<!-- Generated by graphviz version 2.43.0 (0)
 -->
<!-- Title: TcpSocket::connect Pages: 1 -->
<svg width="312pt" height="101pt"
 viewBox="0.00 0.00 312.00 101.00" xmlns="http://www.w3.org/2000/svg" xmlns:xlink="http://www.w3.org/1999/xlink">
<g id="graph0" class="graph" transform="scale(1 1) rotate(0) translate(4 97)">
<title>TcpSocket::connect</title>
<!-- Node1 -->
<g id="Node000001" class="node">
<title>Node1</title>
<g id="a_Node000001"><a xlink:href="structTcpSocket.html#a4c09b381dbd56fa09e6187d833994db6" target="_top" xlink:title=" ">
<path fill="#fff0f0" stroke="red" stroke-width="2" d="M297.67,-56C297.67,-56 201.33,-56 201.33,-56 198.17,-56 195,-52.83 195,-49.67 195,-49.67 195,-43.33 195,-43.33 195,-40.17 198.17,-37 201.33,-37 201.33,-37 297.67,-37 297.67,-37 300.83,-37 304,-40.17 304,-43.33 304,-43.33 304,-49.67 304,-49.67 304,-52.83 300.83,-56 297.67,-56"/>
<text text-anchor="middle" x="249.5" y="-44" font-family="Helvetica,sans-Serif" font-size="10.00">TcpSocket::connect</text>
</a>
</g>
</g>
<!-- Node2 -->
<g id="Node000002" class="node">
<title>Node2</title>
<g id="a_Node000002"><a xlink:href="structNtripStream.html#aeb821b2c4050cc16c7ece01651d51724" target="_top" xlink:title=" ">
<path fill="#fff0f0" stroke="red" d="M143.67,-93C143.67,-93 15.33,-93 15.33,-93 12.17,-93 9,-89.83 9,-86.67 9,-86.67 9,-80.33 9,-80.33 9,-77.17 12.17,-74 15.33,-74 15.33,-74 143.67,-74 143.67,-74 146.83,-74 150,-77.17 150,-80.33 150,-80.33 150,-86.67 150,-86.67 150,-89.83 146.83,-93 143.67,-93"/>
<text text-anchor="middle" x="79.5" y="-81" font-family="Helvetica,sans-Serif" font-size="10.00">NtripStream::NtripStream</text>
</a>
</g>
</g>
<!-- Node1&#45;&gt;Node2 -->
<g id="edge1_Node000001_Node000002" class="edge">
<title>Node1&#45;&gt;Node2</title>
<g id="a_edge1_Node000001_Node000002"><a xlink:title=" ">
<path fill="none" stroke="#63b8ff" d="M195.28,-58.22C172.28,-63.29 145.7,-69.14 123.91,-73.94"/>
<polygon fill="#63b8ff" stroke="#63b8ff" points="196.22,-61.6 205.24,-56.03 194.72,-54.76 196.22,-61.6"/>
</a>
</g>
</g>
<!-- Node3 -->
<g id="Node000003" class="node">
<title>Node3</title>
<g id="a_Node000003"><a xlink:href="structNtripUploader.html#a7053ed49ff175076bf8db14933fc3f12" target="_top" xlink:title=" ">
<path fill="#fff0f0" stroke="red" d="M152.67,-56C152.67,-56 6.33,-56 6.33,-56 3.17,-56 0,-52.83 0,-49.67 0,-49.67 0,-43.33 0,-43.33 0,-40.17 3.17,-37 6.33,-37 6.33,-37 152.67,-37 152.67,-37 155.83,-37 159,-40.17 159,-43.33 159,-43.33 159,-49.67 159,-49.67 159,-52.83 155.83,-56 152.67,-56"/>
<text text-anchor="middle" x="79.5" y="-44" font-family="Helvetica,sans-Serif" font-size="10.00">NtripUploader::NtripUploader</text>
</a>
</g>
</g>
<!-- Node1&#45;&gt;Node3 -->
<g id="edge2_Node000001_Node000003" class="edge">
<title>Node1&#45;&gt;Node3</title>
<g id="a_edge2_Node000001_Node000003"><a xlink:title=" ">
<path fill="none" stroke="#63b8ff" d="M184.78,-46.5C176.36,-46.5 167.65,-46.5 159.02,-46.5"/>
<polygon fill="#63b8ff" stroke="#63b8ff" points="184.88,-50 194.88,-46.5 184.88,-43 184.88,-50"/>
</a>
</g>
</g>
<!-- Node4 -->
<g id="Node000004" class="node">
<title>Node4</title>
<g id="a_Node000004"><a xlink:href="structSisnetStream.html#abc57467361126d8bcd78831324254ccb" target="_top" xlink:title=" ">
<path fill="#fff0f0" stroke="red" d="M149.67,-19C149.67,-19 9.33,-19 9.33,-19 6.17,-19 3,-15.83 3,-12.67 3,-12.67 3,-6.33 3,-6.33 3,-3.17 6.17,0 9.33,0 9.33,0 149.67,0 149.67,0 152.83,0 156,-3.17 156,-6.33 156,-6.33 156,-12.67 156,-12.67 156,-15.83 152.83,-19 149.67,-19"/>
<text text-anchor="middle" x="79.5" y="-7" font-family="Helvetica,sans-Serif" font-size="10.00">SisnetStream::SisnetStream</text>
</a>
</g>
</g>
<!-- Node1&#45;&gt;Node4 -->
<g id="edge3_Node000001_Node000004" class="edge">
<title>Node1&#45;&gt;Node4</title>
<g id="a_edge3_Node000001_Node000004"><a xlink:title=" ">
<path fill="none" stroke="#63b8ff" d="M195.28,-34.78C172.28,-29.71 145.7,-23.86 123.91,-19.06"/>
<polygon fill="#63b8ff" stroke="#63b8ff" points="194.72,-38.24 205.24,-36.97 196.22,-31.4 194.72,-38.24"/>
</a>
</g>
</g>
</g>
</svg>
