<?xml version="1.0" encoding="UTF-8" standalone="no"?>
<!DOCTYPE svg PUBLIC "-//W3C//DTD SVG 1.1//EN"
 "http://www.w3.org/Graphics/SVG/1.1/DTD/svg11.dtd">
<!-- Generated by graphviz version 2.43.0 (0)
 -->
<!-- Title: RtcmTrace::networkLog Pages: 1 -->
<svg width="231pt" height="27pt"
 viewBox="0.00 0.00 231.00 27.00" xmlns="http://www.w3.org/2000/svg" xmlns:xlink="http://www.w3.org/1999/xlink">
<g id="graph0" class="graph" transform="scale(1 1) rotate(0) translate(4 23)">
<title>RtcmTrace::networkLog</title>
<!-- Node1 -->
<g id="Node000001" class="node">
<title>Node1</title>
<g id="a_Node000001"><a xlink:href="structRtcmTrace.html#a43de333946bf6415ccb695e73beceec2" target="_top" xlink:title=" ">
<path fill="#fff0f0" stroke="red" stroke-width="2" d="M124.67,-19C124.67,-19 6.33,-19 6.33,-19 3.17,-19 0,-15.83 0,-12.67 0,-12.67 0,-6.33 0,-6.33 0,-3.17 3.17,0 6.33,0 6.33,0 124.67,0 124.67,0 127.83,0 131,-3.17 131,-6.33 131,-6.33 131,-12.67 131,-12.67 131,-15.83 127.83,-19 124.67,-19"/>
<text text-anchor="middle" x="65.5" y="-7" font-family="Helvetica,sans-Serif" font-size="10.00">RtcmTrace::networkLog</text>
</a>
</g>
</g>
<!-- Node2 -->
<g id="Node000002" class="node">
<title>Node2</title>
<g id="a_Node000002"><a xlink:href="gTime_8cpp.html#abc73cf336f9fa1b3622c933d5925e073" target="_top" xlink:title=" ">
<path fill="#fff0f0" stroke="red" d="M216.67,-19C216.67,-19 173.33,-19 173.33,-19 170.17,-19 167,-15.83 167,-12.67 167,-12.67 167,-6.33 167,-6.33 167,-3.17 170.17,0 173.33,0 173.33,0 216.67,0 216.67,0 219.83,0 223,-3.17 223,-6.33 223,-6.33 223,-12.67 223,-12.67 223,-15.83 219.83,-19 216.67,-19"/>
<text text-anchor="middle" x="195" y="-7" font-family="Helvetica,sans-Serif" font-size="10.00">timeGet</text>
</a>
</g>
</g>
<!-- Node1&#45;&gt;Node2 -->
<g id="edge1_Node000001_Node000002" class="edge">
<title>Node1&#45;&gt;Node2</title>
<g id="a_edge1_Node000001_Node000002"><a xlink:title=" ">
<path fill="none" stroke="#63b8ff" d="M131.37,-9.5C140.1,-9.5 148.79,-9.5 156.81,-9.5"/>
<polygon fill="#63b8ff" stroke="#63b8ff" points="156.9,-13 166.9,-9.5 156.9,-6 156.9,-13"/>
</a>
</g>
</g>
</g>
</svg>
