<?xml version="1.0" encoding="UTF-8" standalone="no"?>
<!DOCTYPE svg PUBLIC "-//W3C//DTD SVG 1.1//EN"
 "http://www.w3.org/Graphics/SVG/1.1/DTD/svg11.dtd">
<!-- Generated by graphviz version 2.43.0 (0)
 -->
<!-- Title: SisnetStream::SisnetStream Pages: 1 -->
<svg width="306pt" height="27pt"
 viewBox="0.00 0.00 306.00 27.00" xmlns="http://www.w3.org/2000/svg" xmlns:xlink="http://www.w3.org/1999/xlink">
<g id="graph0" class="graph" transform="scale(1 1) rotate(0) translate(4 23)">
<title>SisnetStream::SisnetStream</title>
<!-- Node1 -->
<g id="Node000001" class="node">
<title>Node1</title>
<g id="a_Node000001"><a xlink:href="structSisnetStream.html#abc57467361126d8bcd78831324254ccb" target="_top" xlink:title=" ">
<path fill="#fff0f0" stroke="red" stroke-width="2" d="M146.67,-19C146.67,-19 6.33,-19 6.33,-19 3.17,-19 0,-15.83 0,-12.67 0,-12.67 0,-6.33 0,-6.33 0,-3.17 3.17,0 6.33,0 6.33,0 146.67,0 146.67,0 149.83,0 153,-3.17 153,-6.33 153,-6.33 153,-12.67 153,-12.67 153,-15.83 149.83,-19 146.67,-19"/>
<text text-anchor="middle" x="76.5" y="-7" font-family="Helvetica,sans-Serif" font-size="10.00">SisnetStream::SisnetStream</text>
</a>
</g>
</g>
<!-- Node2 -->
<g id="Node000002" class="node">
<title>Node2</title>
<g id="a_Node000002"><a xlink:href="structTcpSocket.html#a4c09b381dbd56fa09e6187d833994db6" target="_top" xlink:title=" ">
<path fill="#fff0f0" stroke="red" d="M291.67,-19C291.67,-19 195.33,-19 195.33,-19 192.17,-19 189,-15.83 189,-12.67 189,-12.67 189,-6.33 189,-6.33 189,-3.17 192.17,0 195.33,0 195.33,0 291.67,0 291.67,0 294.83,0 298,-3.17 298,-6.33 298,-6.33 298,-12.67 298,-12.67 298,-15.83 294.83,-19 291.67,-19"/>
<text text-anchor="middle" x="243.5" y="-7" font-family="Helvetica,sans-Serif" font-size="10.00">TcpSocket::connect</text>
</a>
</g>
</g>
<!-- Node1&#45;&gt;Node2 -->
<g id="edge1_Node000001_Node000002" class="edge">
<title>Node1&#45;&gt;Node2</title>
<g id="a_edge1_Node000001_Node000002"><a xlink:title=" ">
<path fill="none" stroke="#63b8ff" d="M153.24,-9.5C161.79,-9.5 170.44,-9.5 178.82,-9.5"/>
<polygon fill="#63b8ff" stroke="#63b8ff" points="178.88,-13 188.88,-9.5 178.88,-6 178.88,-13"/>
</a>
</g>
</g>
</g>
</svg>
