<?xml version="1.0" encoding="UTF-8" standalone="no"?>
<!DOCTYPE svg PUBLIC "-//W3C//DTD SVG 1.1//EN"
 "http://www.w3.org/Graphics/SVG/1.1/DTD/svg11.dtd">
<!-- Generated by graphviz version 2.43.0 (0)
 -->
<!-- Title: OutputOptions Pages: 1 -->
<svg width="510pt" height="2156pt"
 viewBox="0.00 0.00 509.50 2156.00" xmlns="http://www.w3.org/2000/svg" xmlns:xlink="http://www.w3.org/1999/xlink">
<g id="graph0" class="graph" transform="scale(1 1) rotate(0) translate(4 2152)">
<title>OutputOptions</title>
<!-- Node1 -->
<g id="Node000001" class="node">
<title>Node1</title>
<g id="a_Node000001"><a xlink:href="structOutputOptions.html" target="_top" xlink:title="Enabling and setting destiations of program outputs.">
<path fill="white" stroke="#666666" stroke-width="2" d="M320.5,-1740C320.5,-1740 155.5,-1740 155.5,-1740 149.5,-1740 143.5,-1734 143.5,-1728 143.5,-1728 143.5,-12 143.5,-12 143.5,-6 149.5,0 155.5,0 155.5,0 320.5,0 320.5,0 326.5,0 332.5,-6 332.5,-12 332.5,-12 332.5,-1728 332.5,-1728 332.5,-1734 326.5,-1740 320.5,-1740"/>
<text text-anchor="start" x="203" y="-1724" font-family="Helvetica,sans-Serif" font-size="10.00">OutputOptions</text>
<text text-anchor="start" x="156" y="-1709" font-family="Helvetica,sans-Serif" font-size="10.00">+</text>
<text text-anchor="start" x="169" y="-1709" font-family="Helvetica,sans-Serif" font-size="10.00">outputs_root</text>
<text text-anchor="start" x="156" y="-1694" font-family="Helvetica,sans-Serif" font-size="10.00">+</text>
<text text-anchor="start" x="169" y="-1694" font-family="Helvetica,sans-Serif" font-size="10.00">fatal_level</text>
<text text-anchor="start" x="156" y="-1679" font-family="Helvetica,sans-Serif" font-size="10.00">+</text>
<text text-anchor="start" x="169" y="-1679" font-family="Helvetica,sans-Serif" font-size="10.00">rotate_period</text>
<text text-anchor="start" x="156" y="-1664" font-family="Helvetica,sans-Serif" font-size="10.00">+</text>
<text text-anchor="start" x="169" y="-1664" font-family="Helvetica,sans-Serif" font-size="10.00">trace_level</text>
<text text-anchor="start" x="156" y="-1649" font-family="Helvetica,sans-Serif" font-size="10.00">+</text>
<text text-anchor="start" x="169" y="-1649" font-family="Helvetica,sans-Serif" font-size="10.00">output_receiver_trace</text>
<text text-anchor="start" x="156" y="-1634" font-family="Helvetica,sans-Serif" font-size="10.00">+</text>
<text text-anchor="start" x="169" y="-1634" font-family="Helvetica,sans-Serif" font-size="10.00">output_network_trace</text>
<text text-anchor="start" x="156" y="-1619" font-family="Helvetica,sans-Serif" font-size="10.00">+</text>
<text text-anchor="start" x="169" y="-1619" font-family="Helvetica,sans-Serif" font-size="10.00">output_ionosphere_trace</text>
<text text-anchor="start" x="156" y="-1604" font-family="Helvetica,sans-Serif" font-size="10.00">+</text>
<text text-anchor="start" x="169" y="-1604" font-family="Helvetica,sans-Serif" font-size="10.00">output_satellite_trace</text>
<text text-anchor="start" x="156" y="-1589" font-family="Helvetica,sans-Serif" font-size="10.00">+</text>
<text text-anchor="start" x="169" y="-1589" font-family="Helvetica,sans-Serif" font-size="10.00">output_json_trace</text>
<text text-anchor="start" x="156" y="-1574" font-family="Helvetica,sans-Serif" font-size="10.00">+</text>
<text text-anchor="start" x="169" y="-1574" font-family="Helvetica,sans-Serif" font-size="10.00">trace_directory</text>
<text text-anchor="start" x="156" y="-1559" font-family="Helvetica,sans-Serif" font-size="10.00">+</text>
<text text-anchor="start" x="169" y="-1559" font-family="Helvetica,sans-Serif" font-size="10.00">receiver_trace_filename</text>
<text text-anchor="start" x="156" y="-1544" font-family="Helvetica,sans-Serif" font-size="10.00">+</text>
<text text-anchor="start" x="169" y="-1544" font-family="Helvetica,sans-Serif" font-size="10.00">network_trace_filename</text>
<text text-anchor="start" x="156" y="-1529" font-family="Helvetica,sans-Serif" font-size="10.00">+</text>
<text text-anchor="start" x="169" y="-1529" font-family="Helvetica,sans-Serif" font-size="10.00">ionosphere_trace_filename</text>
<text text-anchor="start" x="156" y="-1514" font-family="Helvetica,sans-Serif" font-size="10.00">+</text>
<text text-anchor="start" x="169" y="-1514" font-family="Helvetica,sans-Serif" font-size="10.00">satellite_trace_filename</text>
<text text-anchor="start" x="156" y="-1499" font-family="Helvetica,sans-Serif" font-size="10.00">+</text>
<text text-anchor="start" x="169" y="-1499" font-family="Helvetica,sans-Serif" font-size="10.00">record_raw_ubx</text>
<text text-anchor="start" x="156" y="-1484" font-family="Helvetica,sans-Serif" font-size="10.00">+</text>
<text text-anchor="start" x="169" y="-1484" font-family="Helvetica,sans-Serif" font-size="10.00">raw_ubx_directory</text>
<text text-anchor="start" x="156" y="-1469" font-family="Helvetica,sans-Serif" font-size="10.00">+</text>
<text text-anchor="start" x="169" y="-1469" font-family="Helvetica,sans-Serif" font-size="10.00">raw_ubx_filename</text>
<text text-anchor="start" x="156" y="-1454" font-family="Helvetica,sans-Serif" font-size="10.00">+</text>
<text text-anchor="start" x="169" y="-1454" font-family="Helvetica,sans-Serif" font-size="10.00">record_raw_custom</text>
<text text-anchor="start" x="156" y="-1439" font-family="Helvetica,sans-Serif" font-size="10.00">+</text>
<text text-anchor="start" x="169" y="-1439" font-family="Helvetica,sans-Serif" font-size="10.00">raw_custom_directory</text>
<text text-anchor="start" x="156" y="-1424" font-family="Helvetica,sans-Serif" font-size="10.00">+</text>
<text text-anchor="start" x="169" y="-1424" font-family="Helvetica,sans-Serif" font-size="10.00">raw_custom_filename</text>
<text text-anchor="start" x="156" y="-1409" font-family="Helvetica,sans-Serif" font-size="10.00">+</text>
<text text-anchor="start" x="169" y="-1409" font-family="Helvetica,sans-Serif" font-size="10.00">record_rtcm_obs</text>
<text text-anchor="start" x="156" y="-1394" font-family="Helvetica,sans-Serif" font-size="10.00">+</text>
<text text-anchor="start" x="169" y="-1394" font-family="Helvetica,sans-Serif" font-size="10.00">record_rtcm_nav</text>
<text text-anchor="start" x="156" y="-1379" font-family="Helvetica,sans-Serif" font-size="10.00">+</text>
<text text-anchor="start" x="169" y="-1379" font-family="Helvetica,sans-Serif" font-size="10.00">rtcm_obs_directory</text>
<text text-anchor="start" x="156" y="-1364" font-family="Helvetica,sans-Serif" font-size="10.00">+</text>
<text text-anchor="start" x="169" y="-1364" font-family="Helvetica,sans-Serif" font-size="10.00">rtcm_nav_directory</text>
<text text-anchor="start" x="156" y="-1349" font-family="Helvetica,sans-Serif" font-size="10.00">+</text>
<text text-anchor="start" x="169" y="-1349" font-family="Helvetica,sans-Serif" font-size="10.00">rtcm_obs_filename</text>
<text text-anchor="start" x="156" y="-1334" font-family="Helvetica,sans-Serif" font-size="10.00">+</text>
<text text-anchor="start" x="169" y="-1334" font-family="Helvetica,sans-Serif" font-size="10.00">rtcm_nav_filename</text>
<text text-anchor="start" x="156" y="-1319" font-family="Helvetica,sans-Serif" font-size="10.00">+</text>
<text text-anchor="start" x="169" y="-1319" font-family="Helvetica,sans-Serif" font-size="10.00">output_log</text>
<text text-anchor="start" x="156" y="-1304" font-family="Helvetica,sans-Serif" font-size="10.00">+</text>
<text text-anchor="start" x="169" y="-1304" font-family="Helvetica,sans-Serif" font-size="10.00">log_directory</text>
<text text-anchor="start" x="156" y="-1289" font-family="Helvetica,sans-Serif" font-size="10.00">+</text>
<text text-anchor="start" x="169" y="-1289" font-family="Helvetica,sans-Serif" font-size="10.00">log_filename</text>
<text text-anchor="start" x="156" y="-1274" font-family="Helvetica,sans-Serif" font-size="10.00">+</text>
<text text-anchor="start" x="169" y="-1274" font-family="Helvetica,sans-Serif" font-size="10.00">output_ntrip_log</text>
<text text-anchor="start" x="156" y="-1259" font-family="Helvetica,sans-Serif" font-size="10.00">+</text>
<text text-anchor="start" x="169" y="-1259" font-family="Helvetica,sans-Serif" font-size="10.00">ntrip_log_directory</text>
<text text-anchor="start" x="156" y="-1244" font-family="Helvetica,sans-Serif" font-size="10.00">+</text>
<text text-anchor="start" x="169" y="-1244" font-family="Helvetica,sans-Serif" font-size="10.00">ntrip_log_filename</text>
<text text-anchor="start" x="156" y="-1229" font-family="Helvetica,sans-Serif" font-size="10.00">+</text>
<text text-anchor="start" x="169" y="-1229" font-family="Helvetica,sans-Serif" font-size="10.00">output_gpx</text>
<text text-anchor="start" x="156" y="-1214" font-family="Helvetica,sans-Serif" font-size="10.00">+</text>
<text text-anchor="start" x="169" y="-1214" font-family="Helvetica,sans-Serif" font-size="10.00">gpx_directory</text>
<text text-anchor="start" x="156" y="-1199" font-family="Helvetica,sans-Serif" font-size="10.00">+</text>
<text text-anchor="start" x="169" y="-1199" font-family="Helvetica,sans-Serif" font-size="10.00">gpx_filename</text>
<text text-anchor="start" x="156" y="-1184" font-family="Helvetica,sans-Serif" font-size="10.00">+</text>
<text text-anchor="start" x="169" y="-1184" font-family="Helvetica,sans-Serif" font-size="10.00">root_stream_url</text>
<text text-anchor="start" x="156" y="-1169" font-family="Helvetica,sans-Serif" font-size="10.00">+</text>
<text text-anchor="start" x="169" y="-1169" font-family="Helvetica,sans-Serif" font-size="10.00">output_predicted_states</text>
<text text-anchor="start" x="156" y="-1154" font-family="Helvetica,sans-Serif" font-size="10.00">+</text>
<text text-anchor="start" x="169" y="-1154" font-family="Helvetica,sans-Serif" font-size="10.00">output_initialised</text>
<text text-anchor="start" x="169" y="-1143" font-family="Helvetica,sans-Serif" font-size="10.00">_states</text>
<text text-anchor="start" x="156" y="-1128" font-family="Helvetica,sans-Serif" font-size="10.00">+</text>
<text text-anchor="start" x="169" y="-1128" font-family="Helvetica,sans-Serif" font-size="10.00">output_residuals</text>
<text text-anchor="start" x="156" y="-1113" font-family="Helvetica,sans-Serif" font-size="10.00">+</text>
<text text-anchor="start" x="169" y="-1113" font-family="Helvetica,sans-Serif" font-size="10.00">output_residual_chain</text>
<text text-anchor="start" x="156" y="-1098" font-family="Helvetica,sans-Serif" font-size="10.00">+</text>
<text text-anchor="start" x="169" y="-1098" font-family="Helvetica,sans-Serif" font-size="10.00">output_config</text>
<text text-anchor="start" x="156" y="-1083" font-family="Helvetica,sans-Serif" font-size="10.00">+</text>
<text text-anchor="start" x="169" y="-1083" font-family="Helvetica,sans-Serif" font-size="10.00">colourise_terminal</text>
<text text-anchor="start" x="156" y="-1068" font-family="Helvetica,sans-Serif" font-size="10.00">+</text>
<text text-anchor="start" x="169" y="-1068" font-family="Helvetica,sans-Serif" font-size="10.00">warn_once</text>
<text text-anchor="start" x="156" y="-1053" font-family="Helvetica,sans-Serif" font-size="10.00">+</text>
<text text-anchor="start" x="169" y="-1053" font-family="Helvetica,sans-Serif" font-size="10.00">output_clocks</text>
<text text-anchor="start" x="156" y="-1038" font-family="Helvetica,sans-Serif" font-size="10.00">+</text>
<text text-anchor="start" x="169" y="-1038" font-family="Helvetica,sans-Serif" font-size="10.00">output_sp3</text>
<text text-anchor="start" x="156" y="-1023" font-family="Helvetica,sans-Serif" font-size="10.00">+</text>
<text text-anchor="start" x="169" y="-1023" font-family="Helvetica,sans-Serif" font-size="10.00">output_inertial_orbits</text>
<text text-anchor="start" x="156" y="-1008" font-family="Helvetica,sans-Serif" font-size="10.00">+</text>
<text text-anchor="start" x="169" y="-1008" font-family="Helvetica,sans-Serif" font-size="10.00">output_sp3_velocities</text>
<text text-anchor="start" x="156" y="-993" font-family="Helvetica,sans-Serif" font-size="10.00">+</text>
<text text-anchor="start" x="169" y="-993" font-family="Helvetica,sans-Serif" font-size="10.00">sp3_output_interval</text>
<text text-anchor="start" x="156" y="-978" font-family="Helvetica,sans-Serif" font-size="10.00">+</text>
<text text-anchor="start" x="169" y="-978" font-family="Helvetica,sans-Serif" font-size="10.00">sp3_directory</text>
<text text-anchor="start" x="156" y="-963" font-family="Helvetica,sans-Serif" font-size="10.00">+</text>
<text text-anchor="start" x="169" y="-963" font-family="Helvetica,sans-Serif" font-size="10.00">sp3_filename</text>
<text text-anchor="start" x="156" y="-948" font-family="Helvetica,sans-Serif" font-size="10.00">+</text>
<text text-anchor="start" x="169" y="-948" font-family="Helvetica,sans-Serif" font-size="10.00">predicted_sp3_filename</text>
<text text-anchor="start" x="156" y="-933" font-family="Helvetica,sans-Serif" font-size="10.00">+</text>
<text text-anchor="start" x="169" y="-933" font-family="Helvetica,sans-Serif" font-size="10.00">output_orbex</text>
<text text-anchor="start" x="156" y="-918" font-family="Helvetica,sans-Serif" font-size="10.00">+</text>
<text text-anchor="start" x="169" y="-918" font-family="Helvetica,sans-Serif" font-size="10.00">orbex_directory</text>
<text text-anchor="start" x="156" y="-903" font-family="Helvetica,sans-Serif" font-size="10.00">+</text>
<text text-anchor="start" x="169" y="-903" font-family="Helvetica,sans-Serif" font-size="10.00">orbex_filename</text>
<text text-anchor="start" x="156" y="-888" font-family="Helvetica,sans-Serif" font-size="10.00">+</text>
<text text-anchor="start" x="169" y="-888" font-family="Helvetica,sans-Serif" font-size="10.00">split_sys</text>
<text text-anchor="start" x="156" y="-873" font-family="Helvetica,sans-Serif" font-size="10.00">+</text>
<text text-anchor="start" x="169" y="-873" font-family="Helvetica,sans-Serif" font-size="10.00">output_rinex_obs</text>
<text text-anchor="start" x="156" y="-858" font-family="Helvetica,sans-Serif" font-size="10.00">+</text>
<text text-anchor="start" x="169" y="-858" font-family="Helvetica,sans-Serif" font-size="10.00">rinex_obs_directory</text>
<text text-anchor="start" x="156" y="-843" font-family="Helvetica,sans-Serif" font-size="10.00">+</text>
<text text-anchor="start" x="169" y="-843" font-family="Helvetica,sans-Serif" font-size="10.00">rinex_obs_filename</text>
<text text-anchor="start" x="156" y="-828" font-family="Helvetica,sans-Serif" font-size="10.00">+</text>
<text text-anchor="start" x="169" y="-828" font-family="Helvetica,sans-Serif" font-size="10.00">rinex_obs_version</text>
<text text-anchor="start" x="156" y="-813" font-family="Helvetica,sans-Serif" font-size="10.00">+</text>
<text text-anchor="start" x="169" y="-813" font-family="Helvetica,sans-Serif" font-size="10.00">rinex_obs_print_C_code</text>
<text text-anchor="start" x="156" y="-798" font-family="Helvetica,sans-Serif" font-size="10.00">+</text>
<text text-anchor="start" x="169" y="-798" font-family="Helvetica,sans-Serif" font-size="10.00">rinex_obs_print_L_code</text>
<text text-anchor="start" x="156" y="-783" font-family="Helvetica,sans-Serif" font-size="10.00">+</text>
<text text-anchor="start" x="169" y="-783" font-family="Helvetica,sans-Serif" font-size="10.00">rinex_obs_print_D_code</text>
<text text-anchor="start" x="156" y="-768" font-family="Helvetica,sans-Serif" font-size="10.00">+</text>
<text text-anchor="start" x="169" y="-768" font-family="Helvetica,sans-Serif" font-size="10.00">rinex_obs_print_S_code</text>
<text text-anchor="start" x="156" y="-753" font-family="Helvetica,sans-Serif" font-size="10.00">+</text>
<text text-anchor="start" x="169" y="-753" font-family="Helvetica,sans-Serif" font-size="10.00">output_ionex</text>
<text text-anchor="start" x="156" y="-738" font-family="Helvetica,sans-Serif" font-size="10.00">+</text>
<text text-anchor="start" x="169" y="-738" font-family="Helvetica,sans-Serif" font-size="10.00">ionex_directory</text>
<text text-anchor="start" x="156" y="-723" font-family="Helvetica,sans-Serif" font-size="10.00">+</text>
<text text-anchor="start" x="169" y="-723" font-family="Helvetica,sans-Serif" font-size="10.00">ionex_filename</text>
<text text-anchor="start" x="156" y="-708" font-family="Helvetica,sans-Serif" font-size="10.00">+</text>
<text text-anchor="start" x="169" y="-708" font-family="Helvetica,sans-Serif" font-size="10.00">output_rinex_nav</text>
<text text-anchor="start" x="156" y="-693" font-family="Helvetica,sans-Serif" font-size="10.00">+</text>
<text text-anchor="start" x="169" y="-693" font-family="Helvetica,sans-Serif" font-size="10.00">rinex_nav_directory</text>
<text text-anchor="start" x="156" y="-678" font-family="Helvetica,sans-Serif" font-size="10.00">+</text>
<text text-anchor="start" x="169" y="-678" font-family="Helvetica,sans-Serif" font-size="10.00">rinex_nav_filename</text>
<text text-anchor="start" x="156" y="-663" font-family="Helvetica,sans-Serif" font-size="10.00">+</text>
<text text-anchor="start" x="169" y="-663" font-family="Helvetica,sans-Serif" font-size="10.00">rinex_nav_version</text>
<text text-anchor="start" x="156" y="-648" font-family="Helvetica,sans-Serif" font-size="10.00">+</text>
<text text-anchor="start" x="169" y="-648" font-family="Helvetica,sans-Serif" font-size="10.00">output_ionstec</text>
<text text-anchor="start" x="156" y="-633" font-family="Helvetica,sans-Serif" font-size="10.00">+</text>
<text text-anchor="start" x="169" y="-633" font-family="Helvetica,sans-Serif" font-size="10.00">ionstec_directory</text>
<text text-anchor="start" x="156" y="-618" font-family="Helvetica,sans-Serif" font-size="10.00">+</text>
<text text-anchor="start" x="169" y="-618" font-family="Helvetica,sans-Serif" font-size="10.00">ionstec_filename</text>
<text text-anchor="start" x="156" y="-603" font-family="Helvetica,sans-Serif" font-size="10.00">+</text>
<text text-anchor="start" x="169" y="-603" font-family="Helvetica,sans-Serif" font-size="10.00">output_erp</text>
<text text-anchor="start" x="156" y="-588" font-family="Helvetica,sans-Serif" font-size="10.00">+</text>
<text text-anchor="start" x="169" y="-588" font-family="Helvetica,sans-Serif" font-size="10.00">erp_directory</text>
<text text-anchor="start" x="156" y="-573" font-family="Helvetica,sans-Serif" font-size="10.00">+</text>
<text text-anchor="start" x="169" y="-573" font-family="Helvetica,sans-Serif" font-size="10.00">erp_filename</text>
<text text-anchor="start" x="156" y="-558" font-family="Helvetica,sans-Serif" font-size="10.00">+</text>
<text text-anchor="start" x="169" y="-558" font-family="Helvetica,sans-Serif" font-size="10.00">output_bias_sinex</text>
<text text-anchor="start" x="156" y="-543" font-family="Helvetica,sans-Serif" font-size="10.00">+</text>
<text text-anchor="start" x="169" y="-543" font-family="Helvetica,sans-Serif" font-size="10.00">output_sinex</text>
<text text-anchor="start" x="156" y="-528" font-family="Helvetica,sans-Serif" font-size="10.00">+</text>
<text text-anchor="start" x="169" y="-528" font-family="Helvetica,sans-Serif" font-size="10.00">sinex_directory</text>
<text text-anchor="start" x="156" y="-513" font-family="Helvetica,sans-Serif" font-size="10.00">+</text>
<text text-anchor="start" x="169" y="-513" font-family="Helvetica,sans-Serif" font-size="10.00">sinex_filename</text>
<text text-anchor="start" x="156" y="-498" font-family="Helvetica,sans-Serif" font-size="10.00">+</text>
<text text-anchor="start" x="169" y="-498" font-family="Helvetica,sans-Serif" font-size="10.00">output_trop_sinex</text>
<text text-anchor="start" x="156" y="-483" font-family="Helvetica,sans-Serif" font-size="10.00">+</text>
<text text-anchor="start" x="169" y="-483" font-family="Helvetica,sans-Serif" font-size="10.00">trop_sinex_directory</text>
<text text-anchor="start" x="156" y="-468" font-family="Helvetica,sans-Serif" font-size="10.00">+</text>
<text text-anchor="start" x="169" y="-468" font-family="Helvetica,sans-Serif" font-size="10.00">trop_sinex_filename</text>
<text text-anchor="start" x="156" y="-453" font-family="Helvetica,sans-Serif" font-size="10.00">+</text>
<text text-anchor="start" x="169" y="-453" font-family="Helvetica,sans-Serif" font-size="10.00">trop_sinex_sol_type</text>
<text text-anchor="start" x="156" y="-438" font-family="Helvetica,sans-Serif" font-size="10.00">+</text>
<text text-anchor="start" x="169" y="-438" font-family="Helvetica,sans-Serif" font-size="10.00">trop_sinex_obs_code</text>
<text text-anchor="start" x="156" y="-423" font-family="Helvetica,sans-Serif" font-size="10.00">+</text>
<text text-anchor="start" x="169" y="-423" font-family="Helvetica,sans-Serif" font-size="10.00">trop_sinex_const_code</text>
<text text-anchor="start" x="156" y="-408" font-family="Helvetica,sans-Serif" font-size="10.00">+</text>
<text text-anchor="start" x="169" y="-408" font-family="Helvetica,sans-Serif" font-size="10.00">trop_sinex_version</text>
<text text-anchor="start" x="156" y="-393" font-family="Helvetica,sans-Serif" font-size="10.00">+</text>
<text text-anchor="start" x="169" y="-393" font-family="Helvetica,sans-Serif" font-size="10.00">output_cost</text>
<text text-anchor="start" x="156" y="-378" font-family="Helvetica,sans-Serif" font-size="10.00">+</text>
<text text-anchor="start" x="169" y="-378" font-family="Helvetica,sans-Serif" font-size="10.00">cost_time_interval</text>
<text text-anchor="start" x="156" y="-363" font-family="Helvetica,sans-Serif" font-size="10.00">+</text>
<text text-anchor="start" x="169" y="-363" font-family="Helvetica,sans-Serif" font-size="10.00">cost_project</text>
<text text-anchor="start" x="156" y="-348" font-family="Helvetica,sans-Serif" font-size="10.00">+</text>
<text text-anchor="start" x="169" y="-348" font-family="Helvetica,sans-Serif" font-size="10.00">cost_status</text>
<text text-anchor="start" x="156" y="-333" font-family="Helvetica,sans-Serif" font-size="10.00">+</text>
<text text-anchor="start" x="169" y="-333" font-family="Helvetica,sans-Serif" font-size="10.00">cost_method</text>
<text text-anchor="start" x="156" y="-318" font-family="Helvetica,sans-Serif" font-size="10.00">+</text>
<text text-anchor="start" x="169" y="-318" font-family="Helvetica,sans-Serif" font-size="10.00">cost_orbit_type</text>
<text text-anchor="start" x="156" y="-303" font-family="Helvetica,sans-Serif" font-size="10.00">+</text>
<text text-anchor="start" x="169" y="-303" font-family="Helvetica,sans-Serif" font-size="10.00">output_slr_obs</text>
<text text-anchor="start" x="156" y="-288" font-family="Helvetica,sans-Serif" font-size="10.00">+</text>
<text text-anchor="start" x="169" y="-288" font-family="Helvetica,sans-Serif" font-size="10.00">slr_obs_directory</text>
<text text-anchor="start" x="156" y="-273" font-family="Helvetica,sans-Serif" font-size="10.00">+</text>
<text text-anchor="start" x="169" y="-273" font-family="Helvetica,sans-Serif" font-size="10.00">slr_obs_filename</text>
<text text-anchor="start" x="156" y="-258" font-family="Helvetica,sans-Serif" font-size="10.00">+</text>
<text text-anchor="start" x="169" y="-258" font-family="Helvetica,sans-Serif" font-size="10.00">output_orbit_ics</text>
<text text-anchor="start" x="156" y="-243" font-family="Helvetica,sans-Serif" font-size="10.00">+</text>
<text text-anchor="start" x="169" y="-243" font-family="Helvetica,sans-Serif" font-size="10.00">orbit_ics_directory</text>
<text text-anchor="start" x="156" y="-228" font-family="Helvetica,sans-Serif" font-size="10.00">+</text>
<text text-anchor="start" x="169" y="-228" font-family="Helvetica,sans-Serif" font-size="10.00">orbit_ics_filename</text>
<text text-anchor="start" x="156" y="-213" font-family="Helvetica,sans-Serif" font-size="10.00">+</text>
<text text-anchor="start" x="169" y="-213" font-family="Helvetica,sans-Serif" font-size="10.00">output_sbas_ems</text>
<text text-anchor="start" x="156" y="-198" font-family="Helvetica,sans-Serif" font-size="10.00">+</text>
<text text-anchor="start" x="169" y="-198" font-family="Helvetica,sans-Serif" font-size="10.00">ems_directory</text>
<text text-anchor="start" x="156" y="-183" font-family="Helvetica,sans-Serif" font-size="10.00">+</text>
<text text-anchor="start" x="169" y="-183" font-family="Helvetica,sans-Serif" font-size="10.00">ems_filename</text>
<text text-anchor="start" x="156" y="-168" font-family="Helvetica,sans-Serif" font-size="10.00">+</text>
<text text-anchor="start" x="169" y="-168" font-family="Helvetica,sans-Serif" font-size="10.00">output_decoded_rtcm_json</text>
<text text-anchor="start" x="156" y="-153" font-family="Helvetica,sans-Serif" font-size="10.00">+</text>
<text text-anchor="start" x="169" y="-153" font-family="Helvetica,sans-Serif" font-size="10.00">decoded_rtcm_json_directory</text>
<text text-anchor="start" x="156" y="-138" font-family="Helvetica,sans-Serif" font-size="10.00">+</text>
<text text-anchor="start" x="169" y="-138" font-family="Helvetica,sans-Serif" font-size="10.00">decoded_rtcm_json_filename</text>
<text text-anchor="start" x="156" y="-123" font-family="Helvetica,sans-Serif" font-size="10.00">+</text>
<text text-anchor="start" x="169" y="-123" font-family="Helvetica,sans-Serif" font-size="10.00">output_encoded_rtcm_json</text>
<text text-anchor="start" x="156" y="-108" font-family="Helvetica,sans-Serif" font-size="10.00">+</text>
<text text-anchor="start" x="169" y="-108" font-family="Helvetica,sans-Serif" font-size="10.00">encoded_rtcm_json_directory</text>
<text text-anchor="start" x="156" y="-93" font-family="Helvetica,sans-Serif" font-size="10.00">+</text>
<text text-anchor="start" x="169" y="-93" font-family="Helvetica,sans-Serif" font-size="10.00">encoded_rtcm_json_filename</text>
<text text-anchor="start" x="156" y="-78" font-family="Helvetica,sans-Serif" font-size="10.00">+</text>
<text text-anchor="start" x="169" y="-78" font-family="Helvetica,sans-Serif" font-size="10.00">output_network_statistics_json</text>
<text text-anchor="start" x="156" y="-63" font-family="Helvetica,sans-Serif" font-size="10.00">+</text>
<text text-anchor="start" x="169" y="-63" font-family="Helvetica,sans-Serif" font-size="10.00">network_statistics</text>
<text text-anchor="start" x="169" y="-52" font-family="Helvetica,sans-Serif" font-size="10.00">_json_directory</text>
<text text-anchor="start" x="156" y="-37" font-family="Helvetica,sans-Serif" font-size="10.00">+</text>
<text text-anchor="start" x="169" y="-37" font-family="Helvetica,sans-Serif" font-size="10.00">network_statistics</text>
<text text-anchor="start" x="169" y="-26" font-family="Helvetica,sans-Serif" font-size="10.00">_json_filename</text>
<text text-anchor="start" x="156" y="-11" font-family="Helvetica,sans-Serif" font-size="10.00">+</text>
<text text-anchor="start" x="169" y="-11" font-family="Helvetica,sans-Serif" font-size="10.00">defaultOutputOptions()</text>
<polygon fill="#666666" stroke="#666666" points="152,-1719 152,-1719 325,-1719 325,-1719 152,-1719"/>
<polygon fill="#666666" stroke="#666666" points="152,-21 152,-21 167,-21 167,-21 152,-21"/>
<polygon fill="#666666" stroke="#666666" points="167,-21 167,-21 325,-21 325,-21 167,-21"/>
<polygon fill="none" stroke="#666666" points="151.5,-4 151.5,-1736 324.5,-1736 324.5,-4 151.5,-4"/>
</a>
</g>
</g>
<!-- Node2 -->
<g id="Node000002" class="node">
<title>Node2</title>
<g id="a_Node000002"><a xlink:title=" ">
<path fill="white" stroke="#666666" d="M42,-1999C42,-1999 12,-1999 12,-1999 6,-1999 0,-1993 0,-1987 0,-1987 0,-1954 0,-1954 0,-1948 6,-1942 12,-1942 12,-1942 42,-1942 42,-1942 48,-1942 54,-1948 54,-1954 54,-1954 54,-1987 54,-1987 54,-1993 48,-1999 42,-1999"/>
<text text-anchor="start" x="13" y="-1982.5" font-family="Helvetica,sans-Serif" font-size="10.00">string</text>
<text text-anchor="start" x="25" y="-1967.5" font-family="Helvetica,sans-Serif" font-size="10.00"> </text>
<text text-anchor="start" x="25" y="-1952.5" font-family="Helvetica,sans-Serif" font-size="10.00"> </text>
<polygon fill="#666666" stroke="#666666" points="8,-1977.5 8,-1977.5 46,-1977.5 46,-1977.5 8,-1977.5"/>
<polygon fill="#666666" stroke="#666666" points="8,-1962.5 8,-1962.5 46,-1962.5 46,-1962.5 8,-1962.5"/>
<polygon fill="none" stroke="#666666" points="8,-1946 8,-1995 46,-1995 46,-1946 8,-1946"/>
</a>
</g>
</g>
<!-- Node2&#45;&gt;Node1 -->
<g id="edge1_Node000001_Node000002" class="edge">
<title>Node2&#45;&gt;Node1</title>
<g id="a_edge1_Node000001_Node000002"><a xlink:title=" ">
<path fill="none" stroke="#63b8ff" d="M28.02,-1941.99C29.8,-1901.5 34.24,-1823.58 44,-1758 68.4,-1594.08 105.48,-1415.19 140.71,-1261.28"/>
<polygon fill="none" stroke="#63b8ff" points="140.77,-1261 138.22,-1254.26 143.46,-1249.3 146.01,-1256.05 140.77,-1261"/>
</a>
</g>
<text text-anchor="middle" x="100" y="-1871" font-family="Helvetica,sans-Serif" font-size="10.00" fill="grey"> +bias_sinex_directory</text>
<text text-anchor="middle" x="100" y="-1860" font-family="Helvetica,sans-Serif" font-size="10.00" fill="grey">+bias_sinex_filename</text>
<text text-anchor="middle" x="100" y="-1849" font-family="Helvetica,sans-Serif" font-size="10.00" fill="grey">+bias_time_system</text>
<text text-anchor="middle" x="100" y="-1838" font-family="Helvetica,sans-Serif" font-size="10.00" fill="grey">+clocks_directory</text>
<text text-anchor="middle" x="100" y="-1827" font-family="Helvetica,sans-Serif" font-size="10.00" fill="grey">+clocks_filename</text>
<text text-anchor="middle" x="100" y="-1816" font-family="Helvetica,sans-Serif" font-size="10.00" fill="grey">+cost_centre</text>
<text text-anchor="middle" x="100" y="-1805" font-family="Helvetica,sans-Serif" font-size="10.00" fill="grey">+cost_directory</text>
<text text-anchor="middle" x="100" y="-1794" font-family="Helvetica,sans-Serif" font-size="10.00" fill="grey">+cost_filename</text>
<text text-anchor="middle" x="100" y="-1783" font-family="Helvetica,sans-Serif" font-size="10.00" fill="grey">+cost_format</text>
<text text-anchor="middle" x="100" y="-1772" font-family="Helvetica,sans-Serif" font-size="10.00" fill="grey">+cost_met_source</text>
<text text-anchor="middle" x="100" y="-1761" font-family="Helvetica,sans-Serif" font-size="10.00" fill="grey">...</text>
</g>
<!-- Node3 -->
<g id="Node000003" class="node">
<title>Node3</title>
<g id="a_Node000003"><a xlink:title=" ">
<path fill="white" stroke="#666666" d="M208,-1999C208,-1999 108,-1999 108,-1999 102,-1999 96,-1993 96,-1987 96,-1987 96,-1954 96,-1954 96,-1948 102,-1942 108,-1942 108,-1942 208,-1942 208,-1942 214,-1942 220,-1948 220,-1954 220,-1954 220,-1987 220,-1987 220,-1993 214,-1999 208,-1999"/>
<text text-anchor="start" x="109" y="-1982.5" font-family="Helvetica,sans-Serif" font-size="10.00">vector&lt; E_Source &gt;</text>
<text text-anchor="start" x="156" y="-1967.5" font-family="Helvetica,sans-Serif" font-size="10.00"> </text>
<text text-anchor="start" x="156" y="-1952.5" font-family="Helvetica,sans-Serif" font-size="10.00"> </text>
<polygon fill="#666666" stroke="#666666" points="104,-1977.5 104,-1977.5 212,-1977.5 212,-1977.5 104,-1977.5"/>
<polygon fill="#666666" stroke="#666666" points="104,-1962.5 104,-1962.5 212,-1962.5 212,-1962.5 104,-1962.5"/>
<polygon fill="none" stroke="#666666" points="104,-1946 104,-1995 212,-1995 212,-1946 104,-1946"/>
</a>
</g>
</g>
<!-- Node3&#45;&gt;Node1 -->
<g id="edge2_Node000001_Node000003" class="edge">
<title>Node3&#45;&gt;Node1</title>
<g id="a_edge2_Node000001_Node000003"><a xlink:title=" ">
<path fill="none" stroke="#63b8ff" d="M158.67,-1941.77C159.73,-1901.33 162.08,-1823.84 166,-1758 166.12,-1756.04 166.23,-1754.08 166.35,-1752.11"/>
<polygon fill="none" stroke="#63b8ff" points="166.36,-1751.98 162.73,-1745.75 167.08,-1740.01 170.71,-1746.24 166.36,-1751.98"/>
</a>
</g>
<text text-anchor="middle" x="231" y="-1860" font-family="Helvetica,sans-Serif" font-size="10.00" fill="grey"> +clocks_receiver_sources</text>
<text text-anchor="middle" x="231" y="-1849" font-family="Helvetica,sans-Serif" font-size="10.00" fill="grey">+clocks_satellite_sources</text>
<text text-anchor="middle" x="231" y="-1838" font-family="Helvetica,sans-Serif" font-size="10.00" fill="grey">+cost_data_sources</text>
<text text-anchor="middle" x="231" y="-1827" font-family="Helvetica,sans-Serif" font-size="10.00" fill="grey">+orbex_attitude_sources</text>
<text text-anchor="middle" x="231" y="-1816" font-family="Helvetica,sans-Serif" font-size="10.00" fill="grey">+orbex_clock_sources</text>
<text text-anchor="middle" x="231" y="-1805" font-family="Helvetica,sans-Serif" font-size="10.00" fill="grey">+orbex_orbit_sources</text>
<text text-anchor="middle" x="231" y="-1794" font-family="Helvetica,sans-Serif" font-size="10.00" fill="grey">+sp3_clock_sources</text>
<text text-anchor="middle" x="231" y="-1783" font-family="Helvetica,sans-Serif" font-size="10.00" fill="grey">+sp3_orbit_sources</text>
<text text-anchor="middle" x="231" y="-1772" font-family="Helvetica,sans-Serif" font-size="10.00" fill="grey">+trop_sinex_data_sources</text>
</g>
<!-- Node4 -->
<g id="Node000004" class="node">
<title>Node4</title>
<g id="a_Node000004"><a xlink:title=" ">
<path fill="white" stroke="#666666" d="M252.5,-2148C252.5,-2148 219.5,-2148 219.5,-2148 213.5,-2148 207.5,-2142 207.5,-2136 207.5,-2136 207.5,-2103 207.5,-2103 207.5,-2097 213.5,-2091 219.5,-2091 219.5,-2091 252.5,-2091 252.5,-2091 258.5,-2091 264.5,-2097 264.5,-2103 264.5,-2103 264.5,-2136 264.5,-2136 264.5,-2142 258.5,-2148 252.5,-2148"/>
<text text-anchor="start" x="221" y="-2131.5" font-family="Helvetica,sans-Serif" font-size="10.00">vector</text>
<text text-anchor="start" x="234.5" y="-2116.5" font-family="Helvetica,sans-Serif" font-size="10.00"> </text>
<text text-anchor="start" x="234.5" y="-2101.5" font-family="Helvetica,sans-Serif" font-size="10.00"> </text>
<polygon fill="#666666" stroke="#666666" points="216,-2126.5 216,-2126.5 257,-2126.5 257,-2126.5 216,-2126.5"/>
<polygon fill="#666666" stroke="#666666" points="216,-2111.5 216,-2111.5 257,-2111.5 257,-2111.5 216,-2111.5"/>
<polygon fill="none" stroke="#666666" points="215.5,-2095 215.5,-2144 256.5,-2144 256.5,-2095 215.5,-2095"/>
</a>
</g>
</g>
<!-- Node4&#45;&gt;Node3 -->
<g id="edge3_Node000003_Node000004" class="edge">
<title>Node4&#45;&gt;Node3</title>
<g id="a_edge3_Node000003_Node000004"><a xlink:title=" ">
<path fill="none" stroke="orange" d="M212.37,-2082.25C210.51,-2079.15 208.69,-2076.04 207,-2073 193.37,-2048.56 179.68,-2019.75 170.25,-1999.08"/>
<polygon fill="orange" stroke="orange" points="209.46,-2084.22 217.68,-2090.9 215.43,-2080.55 209.46,-2084.22"/>
</a>
</g>
<text text-anchor="middle" x="242" y="-2065" font-family="Helvetica,sans-Serif" font-size="10.00" fill="grey"> &lt; E_Source &gt;</text>
</g>
<!-- Node5 -->
<g id="Node000005" class="node">
<title>Node5</title>
<g id="a_Node000005"><a xlink:title=" ">
<path fill="white" stroke="#666666" d="M380,-1999C380,-1999 250,-1999 250,-1999 244,-1999 238,-1993 238,-1987 238,-1987 238,-1954 238,-1954 238,-1948 244,-1942 250,-1942 250,-1942 380,-1942 380,-1942 386,-1942 392,-1948 392,-1954 392,-1954 392,-1987 392,-1987 392,-1993 386,-1999 380,-1999"/>
<text text-anchor="start" x="251" y="-1982.5" font-family="Helvetica,sans-Serif" font-size="10.00">vector&lt; E_OrbexRecord &gt;</text>
<text text-anchor="start" x="313" y="-1967.5" font-family="Helvetica,sans-Serif" font-size="10.00"> </text>
<text text-anchor="start" x="313" y="-1952.5" font-family="Helvetica,sans-Serif" font-size="10.00"> </text>
<polygon fill="#666666" stroke="#666666" points="246,-1977.5 246,-1977.5 384,-1977.5 384,-1977.5 246,-1977.5"/>
<polygon fill="#666666" stroke="#666666" points="246,-1962.5 246,-1962.5 384,-1962.5 384,-1962.5 246,-1962.5"/>
<polygon fill="none" stroke="#666666" points="246,-1946 246,-1995 384,-1995 384,-1946 246,-1946"/>
</a>
</g>
</g>
<!-- Node4&#45;&gt;Node5 -->
<g id="edge5_Node000005_Node000004" class="edge">
<title>Node4&#45;&gt;Node5</title>
<g id="a_edge5_Node000005_Node000004"><a xlink:title=" ">
<path fill="none" stroke="orange" d="M270.16,-2083.01C272.63,-2079.74 274.95,-2076.38 277,-2073 291.16,-2049.68 301.47,-2020.22 307.75,-1999.05"/>
<polygon fill="orange" stroke="orange" points="267.33,-2080.94 263.79,-2090.92 272.78,-2085.33 267.33,-2080.94"/>
</a>
</g>
<text text-anchor="middle" x="332" y="-2065" font-family="Helvetica,sans-Serif" font-size="10.00" fill="grey"> &lt; E_OrbexRecord &gt;</text>
</g>
<!-- Node5&#45;&gt;Node1 -->
<g id="edge4_Node000001_Node000005" class="edge">
<title>Node5&#45;&gt;Node1</title>
<g id="a_edge4_Node000001_Node000005"><a xlink:title=" ">
<path fill="none" stroke="#63b8ff" d="M313.06,-1941.8C310.54,-1905.89 305.76,-1837.62 299.77,-1752.23"/>
<polygon fill="none" stroke="#63b8ff" points="299.76,-1752.04 295.35,-1746.33 298.92,-1740.07 303.33,-1745.77 299.76,-1752.04"/>
</a>
</g>
<text text-anchor="middle" x="362" y="-1816" font-family="Helvetica,sans-Serif" font-size="10.00" fill="grey"> +orbex_record_types</text>
</g>
<!-- Node6 -->
<g id="Node000006" class="node">
<title>Node6</title>
<g id="a_Node000006"><a xlink:href="structIonexOptions.html" target="_top" xlink:title=" ">
<path fill="white" stroke="#666666" d="M489.5,-2044C489.5,-2044 422.5,-2044 422.5,-2044 416.5,-2044 410.5,-2038 410.5,-2032 410.5,-2032 410.5,-1909 410.5,-1909 410.5,-1903 416.5,-1897 422.5,-1897 422.5,-1897 489.5,-1897 489.5,-1897 495.5,-1897 501.5,-1903 501.5,-1909 501.5,-1909 501.5,-2032 501.5,-2032 501.5,-2038 495.5,-2044 489.5,-2044"/>
<text text-anchor="start" x="424" y="-2027.5" font-family="Helvetica,sans-Serif" font-size="10.00">IonexOptions</text>
<text text-anchor="start" x="423.5" y="-2012.5" font-family="Helvetica,sans-Serif" font-size="10.00">+</text>
<text text-anchor="start" x="437" y="-2012.5" font-family="Helvetica,sans-Serif" font-size="10.00">lat_centre</text>
<text text-anchor="start" x="423.5" y="-1997.5" font-family="Helvetica,sans-Serif" font-size="10.00">+</text>
<text text-anchor="start" x="437" y="-1997.5" font-family="Helvetica,sans-Serif" font-size="10.00">lon_centre</text>
<text text-anchor="start" x="423.5" y="-1982.5" font-family="Helvetica,sans-Serif" font-size="10.00">+</text>
<text text-anchor="start" x="437" y="-1982.5" font-family="Helvetica,sans-Serif" font-size="10.00">lat_width</text>
<text text-anchor="start" x="423.5" y="-1967.5" font-family="Helvetica,sans-Serif" font-size="10.00">+</text>
<text text-anchor="start" x="437" y="-1967.5" font-family="Helvetica,sans-Serif" font-size="10.00">lon_width</text>
<text text-anchor="start" x="423.5" y="-1952.5" font-family="Helvetica,sans-Serif" font-size="10.00">+</text>
<text text-anchor="start" x="437" y="-1952.5" font-family="Helvetica,sans-Serif" font-size="10.00">lat_res</text>
<text text-anchor="start" x="423.5" y="-1937.5" font-family="Helvetica,sans-Serif" font-size="10.00">+</text>
<text text-anchor="start" x="437" y="-1937.5" font-family="Helvetica,sans-Serif" font-size="10.00">lon_res</text>
<text text-anchor="start" x="423.5" y="-1922.5" font-family="Helvetica,sans-Serif" font-size="10.00">+</text>
<text text-anchor="start" x="437" y="-1922.5" font-family="Helvetica,sans-Serif" font-size="10.00">time_res</text>
<text text-anchor="start" x="454.5" y="-1907.5" font-family="Helvetica,sans-Serif" font-size="10.00"> </text>
<polygon fill="#666666" stroke="#666666" points="419,-2022.5 419,-2022.5 494,-2022.5 494,-2022.5 419,-2022.5"/>
<polygon fill="#666666" stroke="#666666" points="419,-1917.5 419,-1917.5 435,-1917.5 435,-1917.5 419,-1917.5"/>
<polygon fill="#666666" stroke="#666666" points="435,-1917.5 435,-1917.5 494,-1917.5 494,-1917.5 435,-1917.5"/>
<polygon fill="none" stroke="#666666" points="418.5,-1901 418.5,-2040 493.5,-2040 493.5,-1901 418.5,-1901"/>
</a>
</g>
</g>
<!-- Node6&#45;&gt;Node1 -->
<g id="edge6_Node000001_Node000006" class="edge">
<title>Node6&#45;&gt;Node1</title>
<g id="a_edge6_Node000001_Node000006"><a xlink:title=" ">
<path fill="none" stroke="#63b8ff" d="M444.27,-1896.96C437.51,-1856.08 428.66,-1804.13 420,-1758 393.78,-1618.29 363.38,-1466.6 335.02,-1328.84"/>
<polygon fill="none" stroke="#63b8ff" points="334.96,-1328.58 329.84,-1323.51 332.54,-1316.83 337.67,-1321.9 334.96,-1328.58"/>
</a>
</g>
<text text-anchor="middle" x="470.5" y="-1816" font-family="Helvetica,sans-Serif" font-size="10.00" fill="grey"> +ionexGrid</text>
</g>
</g>
</svg>
