<?xml version="1.0" encoding="UTF-8" standalone="no"?>
<!DOCTYPE svg PUBLIC "-//W3C//DTD SVG 1.1//EN"
 "http://www.w3.org/Graphics/SVG/1.1/DTD/svg11.dtd">
<!-- Generated by graphviz version 2.43.0 (0)
 -->
<!-- Title: MapIteratorType::MapIteratorType Pages: 1 -->
<svg width="378pt" height="38pt"
 viewBox="0.00 0.00 378.00 38.00" xmlns="http://www.w3.org/2000/svg" xmlns:xlink="http://www.w3.org/1999/xlink">
<g id="graph0" class="graph" transform="scale(1 1) rotate(0) translate(4 34)">
<title>MapIteratorType::MapIteratorType</title>
<!-- Node1 -->
<g id="Node000001" class="node">
<title>Node1</title>
<g id="a_Node000001"><a xlink:href="structMapIteratorType.html#a099bd9c8ea22f720036b9177085d41c9" target="_top" xlink:title=" ">
<path fill="#fff0f0" stroke="red" stroke-width="2" d="M175.67,-24.5C175.67,-24.5 6.33,-24.5 6.33,-24.5 3.17,-24.5 0,-21.33 0,-18.17 0,-18.17 0,-11.83 0,-11.83 0,-8.67 3.17,-5.5 6.33,-5.5 6.33,-5.5 175.67,-5.5 175.67,-5.5 178.83,-5.5 182,-8.67 182,-11.83 182,-11.83 182,-18.17 182,-18.17 182,-21.33 178.83,-24.5 175.67,-24.5"/>
<text text-anchor="middle" x="91" y="-12.5" font-family="Helvetica,sans-Serif" font-size="10.00">MapIteratorType::MapIteratorType</text>
</a>
</g>
</g>
<!-- Node2 -->
<g id="Node000002" class="node">
<title>Node2</title>
<g id="a_Node000002"><a xlink:href="structMapIteratorType.html#a2d0e87cec500f112a8a0ac8563abfa38" target="_top" xlink:title=" ">
<path fill="#fff0f0" stroke="red" d="M360,-30C360,-30 228,-30 228,-30 223,-30 218,-25 218,-20 218,-20 218,-10 218,-10 218,-5 223,0 228,0 228,0 360,0 360,0 365,0 370,-5 370,-10 370,-10 370,-20 370,-20 370,-25 365,-30 360,-30"/>
<text text-anchor="start" x="226" y="-18" font-family="Helvetica,sans-Serif" font-size="10.00">MapIteratorType::increment</text>
<text text-anchor="middle" x="294" y="-7" font-family="Helvetica,sans-Serif" font-size="10.00">UntilGood</text>
</a>
</g>
</g>
<!-- Node1&#45;&gt;Node2 -->
<g id="edge1_Node000001_Node000002" class="edge">
<title>Node1&#45;&gt;Node2</title>
<g id="a_edge1_Node000001_Node000002"><a xlink:title=" ">
<path fill="none" stroke="#63b8ff" d="M182.21,-15C190.67,-15 199.23,-15 207.64,-15"/>
<polygon fill="#63b8ff" stroke="#63b8ff" points="207.81,-18.5 217.81,-15 207.81,-11.5 207.81,-18.5"/>
</a>
</g>
</g>
</g>
</svg>
