<?xml version="1.0" encoding="UTF-8" standalone="no"?>
<!DOCTYPE svg PUBLIC "-//W3C//DTD SVG 1.1//EN"
 "http://www.w3.org/Graphics/SVG/1.1/DTD/svg11.dtd">
<!-- Generated by graphviz version 2.43.0 (0)
 -->
<!-- Title: GTime::noTime Pages: 1 -->
<svg width="690pt" height="1634pt"
 viewBox="0.00 0.00 690.00 1633.92" xmlns="http://www.w3.org/2000/svg" xmlns:xlink="http://www.w3.org/1999/xlink">
<g id="graph0" class="graph" transform="scale(1 1) rotate(0) translate(4 1629.92)">
<title>GTime::noTime</title>
<!-- Node1 -->
<g id="Node000001" class="node">
<title>Node1</title>
<g id="a_Node000001"><a xlink:href="structGTime.html#aaa8a379d11cd6c040a6bbe680c0e913e" target="_top" xlink:title="Uninitialised time for comparisons.">
<path fill="#fff0f0" stroke="red" stroke-width="2" d="M675.67,-804C675.67,-804 596.33,-804 596.33,-804 593.17,-804 590,-800.83 590,-797.67 590,-797.67 590,-791.33 590,-791.33 590,-788.17 593.17,-785 596.33,-785 596.33,-785 675.67,-785 675.67,-785 678.83,-785 682,-788.17 682,-791.33 682,-791.33 682,-797.67 682,-797.67 682,-800.83 678.83,-804 675.67,-804"/>
<text text-anchor="middle" x="636" y="-792" font-family="Helvetica,sans-Serif" font-size="10.00">GTime::noTime</text>
</a>
</g>
</g>
<!-- Node2 -->
<g id="Node000002" class="node">
<title>Node2</title>
<g id="a_Node000002"><a xlink:href="gTime_8cpp.html#abd3e80e328e3d4afed1001aa34ca9d16" target="_top" xlink:title="Returns (posix) for current epoch.">
<path fill="#fff0f0" stroke="red" d="M179.67,-1433C179.67,-1433 95.33,-1433 95.33,-1433 92.17,-1433 89,-1429.83 89,-1426.67 89,-1426.67 89,-1420.33 89,-1420.33 89,-1417.17 92.17,-1414 95.33,-1414 95.33,-1414 179.67,-1414 179.67,-1414 182.83,-1414 186,-1417.17 186,-1420.33 186,-1420.33 186,-1426.67 186,-1426.67 186,-1429.83 182.83,-1433 179.67,-1433"/>
<text text-anchor="middle" x="137.5" y="-1421" font-family="Helvetica,sans-Serif" font-size="10.00">currentLogptime</text>
</a>
</g>
</g>
<!-- Node1&#45;&gt;Node2 -->
<g id="edge1_Node000001_Node000002" class="edge">
<title>Node1&#45;&gt;Node2</title>
<g id="a_edge1_Node000001_Node000002"><a xlink:title=" ">
<path fill="none" stroke="#63b8ff" d="M634.54,-814.19C631.6,-931.75 613.61,-1537.64 554,-1591.5 422.08,-1710.69 194.63,-1483.26 147.29,-1433.03"/>
<polygon fill="#63b8ff" stroke="#63b8ff" points="638.04,-814.19 634.79,-804.11 631.04,-814.02 638.04,-814.19"/>
</a>
</g>
</g>
<!-- Node5 -->
<g id="Node000005" class="node">
<title>Node5</title>
<g id="a_Node000005"><a xlink:href="main_8cpp.html#a2c1eabb2ea9b242d8d9fd2c1795849e9" target="_top" xlink:title=" ">
<path fill="#fff0f0" stroke="red" d="M37.67,-1186C37.67,-1186 6.33,-1186 6.33,-1186 3.17,-1186 0,-1182.83 0,-1179.67 0,-1179.67 0,-1173.33 0,-1173.33 0,-1170.17 3.17,-1167 6.33,-1167 6.33,-1167 37.67,-1167 37.67,-1167 40.83,-1167 44,-1170.17 44,-1173.33 44,-1173.33 44,-1179.67 44,-1179.67 44,-1182.83 40.83,-1186 37.67,-1186"/>
<text text-anchor="middle" x="22" y="-1174" font-family="Helvetica,sans-Serif" font-size="10.00">ginan</text>
</a>
</g>
</g>
<!-- Node1&#45;&gt;Node5 -->
<g id="edge20_Node000001_Node000005" class="edge">
<title>Node1&#45;&gt;Node5</title>
<g id="a_edge20_Node000001_Node000005"><a xlink:title=" ">
<path fill="none" stroke="#63b8ff" d="M634,-814.51C629.92,-886.91 611.91,-1133.48 554,-1180.5 474.47,-1245.07 132.81,-1194.51 44.11,-1180.06"/>
<polygon fill="#63b8ff" stroke="#63b8ff" points="637.52,-814.27 634.55,-804.1 630.53,-813.9 637.52,-814.27"/>
</a>
</g>
</g>
<!-- Node9 -->
<g id="Node000009" class="node">
<title>Node9</title>
<g id="a_Node000009"><a xlink:href="prototypeCmpSSRDecode_8cpp.html#a64568502e5d54f952257863f6a753f7d" target="_top" xlink:title=" ">
<path fill="#fff0f0" stroke="red" d="M516.17,-1582C516.17,-1582 415.83,-1582 415.83,-1582 412.67,-1582 409.5,-1578.83 409.5,-1575.67 409.5,-1575.67 409.5,-1569.33 409.5,-1569.33 409.5,-1566.17 412.67,-1563 415.83,-1563 415.83,-1563 516.17,-1563 516.17,-1563 519.33,-1563 522.5,-1566.17 522.5,-1569.33 522.5,-1569.33 522.5,-1575.67 522.5,-1575.67 522.5,-1578.83 519.33,-1582 516.17,-1582"/>
<text text-anchor="middle" x="466" y="-1570" font-family="Helvetica,sans-Serif" font-size="10.00">decodecompactSSR</text>
</a>
</g>
</g>
<!-- Node1&#45;&gt;Node9 -->
<g id="edge3_Node000001_Node000009" class="edge">
<title>Node1&#45;&gt;Node9</title>
<g id="a_edge3_Node000001_Node000009"><a xlink:title=" ">
<path fill="none" stroke="#63b8ff" d="M634.27,-814.17C629.86,-927.88 605.32,-1497.89 554,-1554.5 545.82,-1563.53 534.4,-1568.7 522.52,-1571.53"/>
<polygon fill="#63b8ff" stroke="#63b8ff" points="637.77,-814.24 634.65,-804.11 630.77,-813.97 637.77,-814.24"/>
</a>
</g>
</g>
<!-- Node12 -->
<g id="Node000012" class="node">
<title>Node12</title>
<g id="a_Node000012"><a xlink:href="structRtcmDecoder.html#a3b7993d7cc20610d8770c2f4d1e902d6" target="_top" xlink:title=" ">
<path fill="#fff0f0" stroke="red" d="M540.17,-1545C540.17,-1545 391.83,-1545 391.83,-1545 388.67,-1545 385.5,-1541.83 385.5,-1538.67 385.5,-1538.67 385.5,-1532.33 385.5,-1532.33 385.5,-1529.17 388.67,-1526 391.83,-1526 391.83,-1526 540.17,-1526 540.17,-1526 543.33,-1526 546.5,-1529.17 546.5,-1532.33 546.5,-1532.33 546.5,-1538.67 546.5,-1538.67 546.5,-1541.83 543.33,-1545 540.17,-1545"/>
<text text-anchor="middle" x="466" y="-1533" font-family="Helvetica,sans-Serif" font-size="10.00">RtcmDecoder::decodeCustom</text>
</a>
</g>
</g>
<!-- Node1&#45;&gt;Node12 -->
<g id="edge4_Node000001_Node000012" class="edge">
<title>Node1&#45;&gt;Node12</title>
<g id="a_edge4_Node000001_Node000012"><a xlink:title=" ">
<path fill="none" stroke="#63b8ff" d="M634.07,-814.36C628.74,-924.45 600.67,-1456.88 554,-1511.5 548.71,-1517.69 541.98,-1522.36 534.61,-1525.87"/>
<polygon fill="#63b8ff" stroke="#63b8ff" points="637.58,-814.2 634.56,-804.05 630.59,-813.87 637.58,-814.2"/>
</a>
</g>
</g>
<!-- Node13 -->
<g id="Node000013" class="node">
<title>Node13</title>
<g id="a_Node000013"><a xlink:href="gTime_8cpp.html#a42f524ddac7eb2f122e34df9a5a1f08f" target="_top" xlink:title=" ">
<path fill="#fff0f0" stroke="red" d="M317.17,-599C317.17,-599 255.83,-599 255.83,-599 252.67,-599 249.5,-595.83 249.5,-592.67 249.5,-592.67 249.5,-586.33 249.5,-586.33 249.5,-583.17 252.67,-580 255.83,-580 255.83,-580 317.17,-580 317.17,-580 320.33,-580 323.5,-583.17 323.5,-586.33 323.5,-586.33 323.5,-592.67 323.5,-592.67 323.5,-595.83 320.33,-599 317.17,-599"/>
<text text-anchor="middle" x="286.5" y="-587" font-family="Helvetica,sans-Serif" font-size="10.00">epoch2time</text>
</a>
</g>
</g>
<!-- Node1&#45;&gt;Node13 -->
<g id="edge5_Node000001_Node000013" class="edge">
<title>Node1&#45;&gt;Node13</title>
<g id="a_edge5_Node000001_Node000013"><a xlink:title=" ">
<path fill="none" stroke="#63b8ff" d="M634.19,-814.33C629.59,-921.99 605.16,-1433.05 554,-1478.5 524.76,-1504.48 406.22,-1505.58 378,-1478.5 308.19,-1411.52 399.65,-686.2 342,-608.5 337.46,-602.38 330.82,-598.23 323.71,-595.4"/>
<polygon fill="#63b8ff" stroke="#63b8ff" points="637.69,-814.35 634.61,-804.21 630.7,-814.06 637.69,-814.35"/>
</a>
</g>
</g>
<!-- Node17 -->
<g id="Node000017" class="node">
<title>Node17</title>
<g id="a_Node000017"><a xlink:href="antenna_8cpp.html#a8c56b39d78caff862f84c8364a392bc4" target="_top" xlink:title="Read antex file.">
<path fill="#fff0f0" stroke="red" d="M166.17,-767C166.17,-767 108.83,-767 108.83,-767 105.67,-767 102.5,-763.83 102.5,-760.67 102.5,-760.67 102.5,-754.33 102.5,-754.33 102.5,-751.17 105.67,-748 108.83,-748 108.83,-748 166.17,-748 166.17,-748 169.33,-748 172.5,-751.17 172.5,-754.33 172.5,-754.33 172.5,-760.67 172.5,-760.67 172.5,-763.83 169.33,-767 166.17,-767"/>
<text text-anchor="middle" x="137.5" y="-755" font-family="Helvetica,sans-Serif" font-size="10.00">readantexf</text>
</a>
</g>
</g>
<!-- Node1&#45;&gt;Node17 -->
<g id="edge33_Node000001_Node000017" class="edge">
<title>Node1&#45;&gt;Node17</title>
<g id="a_edge33_Node000001_Node000017"><a xlink:title=" ">
<path fill="none" stroke="#63b8ff" d="M579.95,-790.45C527.91,-786.62 447.64,-780.69 378,-775.5 304.82,-770.04 219.06,-763.58 172.61,-760.08"/>
<polygon fill="#63b8ff" stroke="#63b8ff" points="579.74,-793.94 589.97,-791.19 580.25,-786.96 579.74,-793.94"/>
</a>
</g>
</g>
<!-- Node36 -->
<g id="Node000036" class="node">
<title>Node36</title>
<g id="a_Node000036"><a xlink:href="structKFState.html#a0d12c57e70876543084c182a660bbbd3" target="_top" xlink:title="Kalman filter operation.">
<path fill="#fff0f0" stroke="red" d="M519.67,-1469C519.67,-1469 412.33,-1469 412.33,-1469 409.17,-1469 406,-1465.83 406,-1462.67 406,-1462.67 406,-1456.33 406,-1456.33 406,-1453.17 409.17,-1450 412.33,-1450 412.33,-1450 519.67,-1450 519.67,-1450 522.83,-1450 526,-1453.17 526,-1456.33 526,-1456.33 526,-1462.67 526,-1462.67 526,-1465.83 522.83,-1469 519.67,-1469"/>
<text text-anchor="middle" x="466" y="-1457" font-family="Helvetica,sans-Serif" font-size="10.00">KFState::filterKalman</text>
</a>
</g>
</g>
<!-- Node1&#45;&gt;Node36 -->
<g id="edge7_Node000001_Node000036" class="edge">
<title>Node1&#45;&gt;Node36</title>
<g id="a_edge7_Node000001_Node000036"><a xlink:title=" ">
<path fill="none" stroke="#63b8ff" d="M633.87,-814.39C627.81,-918.11 597.77,-1394.11 554,-1441.5 546.67,-1449.43 536.85,-1454.37 526.44,-1457.36"/>
<polygon fill="#63b8ff" stroke="#63b8ff" points="637.37,-814.52 634.45,-804.33 630.38,-814.12 637.37,-814.52"/>
</a>
</g>
</g>
<!-- Node47 -->
<g id="Node000047" class="node">
<title>Node47</title>
<g id="a_Node000047"><a xlink:href="minimumConstraints_8cpp.html#aa40934b017f373d875c3470591eff52e" target="_top" xlink:title=" ">
<path fill="#fff0f0" stroke="red" d="M306.67,-971C306.67,-971 266.33,-971 266.33,-971 263.17,-971 260,-967.83 260,-964.67 260,-964.67 260,-958.33 260,-958.33 260,-955.17 263.17,-952 266.33,-952 266.33,-952 306.67,-952 306.67,-952 309.83,-952 313,-955.17 313,-958.33 313,-958.33 313,-964.67 313,-964.67 313,-967.83 309.83,-971 306.67,-971"/>
<text text-anchor="middle" x="286.5" y="-959" font-family="Helvetica,sans-Serif" font-size="10.00">mincon</text>
</a>
</g>
</g>
<!-- Node1&#45;&gt;Node47 -->
<g id="edge27_Node000001_Node000047" class="edge">
<title>Node1&#45;&gt;Node47</title>
<g id="a_edge27_Node000001_Node000047"><a xlink:title=" ">
<path fill="none" stroke="#63b8ff" d="M629.09,-813.66C618.92,-843.08 595.15,-898.79 554,-925.5 514.54,-951.11 372.09,-958.71 313.23,-960.78"/>
<polygon fill="#63b8ff" stroke="#63b8ff" points="632.43,-814.7 632.23,-804.11 625.78,-812.52 632.43,-814.7"/>
</a>
</g>
</g>
<!-- Node41 -->
<g id="Node000041" class="node">
<title>Node41</title>
<g id="a_Node000041"><a xlink:href="main_8cpp.html#a2b0d1066eac1a878cf982adcdd550ce1" target="_top" xlink:title="Perform any post&#45;final epoch calculations and outputs, then begin reverse smoothing and tidy up.">
<path fill="#fff0f0" stroke="red" d="M188.67,-1065C188.67,-1065 86.33,-1065 86.33,-1065 83.17,-1065 80,-1061.83 80,-1058.67 80,-1058.67 80,-1052.33 80,-1052.33 80,-1049.17 83.17,-1046 86.33,-1046 86.33,-1046 188.67,-1046 188.67,-1046 191.83,-1046 195,-1049.17 195,-1052.33 195,-1052.33 195,-1058.67 195,-1058.67 195,-1061.83 191.83,-1065 188.67,-1065"/>
<text text-anchor="middle" x="137.5" y="-1053" font-family="Helvetica,sans-Serif" font-size="10.00">mainPostProcessing</text>
</a>
</g>
</g>
<!-- Node1&#45;&gt;Node41 -->
<g id="edge23_Node000001_Node000041" class="edge">
<title>Node1&#45;&gt;Node41</title>
<g id="a_edge23_Node000001_Node000041"><a xlink:title=" ">
<path fill="none" stroke="#63b8ff" d="M632.24,-814C623.7,-871.17 595.79,-1036.31 554,-1067.5 498.34,-1109.05 291.45,-1081.33 192.24,-1065.02"/>
<polygon fill="#63b8ff" stroke="#63b8ff" points="635.71,-814.48 633.69,-804.08 628.78,-813.47 635.71,-814.48"/>
</a>
</g>
</g>
<!-- Node55 -->
<g id="Node000055" class="node">
<title>Node55</title>
<g id="a_Node000055"><a xlink:href="ionoLocalSTEC_8cpp.html#a4ac0ae5657ac53a7056034344425230a" target="_top" xlink:title=" ">
<path fill="#fff0f0" stroke="red" d="M507.17,-1432C507.17,-1432 424.83,-1432 424.83,-1432 421.67,-1432 418.5,-1428.83 418.5,-1425.67 418.5,-1425.67 418.5,-1419.33 418.5,-1419.33 418.5,-1416.17 421.67,-1413 424.83,-1413 424.83,-1413 507.17,-1413 507.17,-1413 510.33,-1413 513.5,-1416.17 513.5,-1419.33 513.5,-1419.33 513.5,-1425.67 513.5,-1425.67 513.5,-1428.83 510.33,-1432 507.17,-1432"/>
<text text-anchor="middle" x="466" y="-1420" font-family="Helvetica,sans-Serif" font-size="10.00">getCmpSSRIono</text>
</a>
</g>
</g>
<!-- Node1&#45;&gt;Node55 -->
<g id="edge11_Node000001_Node000055" class="edge">
<title>Node1&#45;&gt;Node55</title>
<g id="a_edge11_Node000001_Node000055"><a xlink:title=" ">
<path fill="none" stroke="#63b8ff" d="M635.32,-814.54C636.4,-909.85 636.09,-1316.28 554,-1404.5 543.7,-1415.57 528.54,-1420.8 513.75,-1423.04"/>
<polygon fill="#63b8ff" stroke="#63b8ff" points="638.81,-814.24 635.18,-804.29 631.81,-814.33 638.81,-814.24"/>
</a>
</g>
</g>
<!-- Node58 -->
<g id="Node000058" class="node">
<title>Node58</title>
<g id="a_Node000058"><a xlink:href="erp_8cpp.html#afe3874cc58d609f4ccc2b03a5ef632b8" target="_top" xlink:title="Get earth rotation parameter values.">
<path fill="#fff0f0" stroke="red" d="M483.67,-1395C483.67,-1395 448.33,-1395 448.33,-1395 445.17,-1395 442,-1391.83 442,-1388.67 442,-1388.67 442,-1382.33 442,-1382.33 442,-1379.17 445.17,-1376 448.33,-1376 448.33,-1376 483.67,-1376 483.67,-1376 486.83,-1376 490,-1379.17 490,-1382.33 490,-1382.33 490,-1388.67 490,-1388.67 490,-1391.83 486.83,-1395 483.67,-1395"/>
<text text-anchor="middle" x="466" y="-1383" font-family="Helvetica,sans-Serif" font-size="10.00">getErp</text>
</a>
</g>
</g>
<!-- Node1&#45;&gt;Node58 -->
<g id="edge12_Node000001_Node000058" class="edge">
<title>Node1&#45;&gt;Node58</title>
<g id="a_edge12_Node000001_Node000058"><a xlink:title=" ">
<path fill="none" stroke="#63b8ff" d="M635.13,-814.19C635.3,-905.31 631.3,-1285.12 554,-1367.5 537.85,-1384.71 509.93,-1387.78 490.08,-1387.46"/>
<polygon fill="#63b8ff" stroke="#63b8ff" points="638.63,-814.11 635.09,-804.13 631.63,-814.14 638.63,-814.11"/>
</a>
</g>
</g>
<!-- Node109 -->
<g id="Node000109" class="node">
<title>Node109</title>
<g id="a_Node000109"><a xlink:href="structObsStream.html#a6d0ad39e5f301fc9455cfe5d9d3c3f99" target="_top" xlink:title="Return a list of observations from the stream, with a specified timestamp.">
<path fill="#fff0f0" stroke="red" d="M515.17,-1358C515.17,-1358 416.83,-1358 416.83,-1358 413.67,-1358 410.5,-1354.83 410.5,-1351.67 410.5,-1351.67 410.5,-1345.33 410.5,-1345.33 410.5,-1342.17 413.67,-1339 416.83,-1339 416.83,-1339 515.17,-1339 515.17,-1339 518.33,-1339 521.5,-1342.17 521.5,-1345.33 521.5,-1345.33 521.5,-1351.67 521.5,-1351.67 521.5,-1354.83 518.33,-1358 515.17,-1358"/>
<text text-anchor="middle" x="466" y="-1346" font-family="Helvetica,sans-Serif" font-size="10.00">ObsStream::getObs</text>
</a>
</g>
</g>
<!-- Node1&#45;&gt;Node109 -->
<g id="edge15_Node000001_Node000109" class="edge">
<title>Node1&#45;&gt;Node109</title>
<g id="a_edge15_Node000001_Node000109"><a xlink:title=" ">
<path fill="none" stroke="#63b8ff" d="M634.91,-814.57C634.1,-902.67 626.32,-1254.16 554,-1330.5 545.51,-1339.46 533.84,-1344.57 521.79,-1347.38"/>
<polygon fill="#63b8ff" stroke="#63b8ff" points="638.41,-814.37 634.98,-804.35 631.41,-814.32 638.41,-814.37"/>
</a>
</g>
</g>
<!-- Node110 -->
<g id="Node000110" class="node">
<title>Node110</title>
<g id="a_Node000110"><a xlink:href="sinex_8cpp.html#a896ea71ee9c9d98a1977581586139d28" target="_top" xlink:title=" ">
<path fill="#fff0f0" stroke="red" d="M501.67,-1321C501.67,-1321 430.33,-1321 430.33,-1321 427.17,-1321 424,-1317.83 424,-1314.67 424,-1314.67 424,-1308.33 424,-1308.33 424,-1305.17 427.17,-1302 430.33,-1302 430.33,-1302 501.67,-1302 501.67,-1302 504.83,-1302 508,-1305.17 508,-1308.33 508,-1308.33 508,-1314.67 508,-1314.67 508,-1317.83 504.83,-1321 501.67,-1321"/>
<text text-anchor="middle" x="466" y="-1309" font-family="Helvetica,sans-Serif" font-size="10.00">getSlrRecBias</text>
</a>
</g>
</g>
<!-- Node1&#45;&gt;Node110 -->
<g id="edge16_Node000001_Node000110" class="edge">
<title>Node1&#45;&gt;Node110</title>
<g id="a_edge16_Node000001_Node000110"><a xlink:title=" ">
<path fill="none" stroke="#63b8ff" d="M634.67,-814.24C632.87,-898 621.55,-1222.98 554,-1293.5 542.26,-1305.75 524.55,-1310.8 508.16,-1312.57"/>
<polygon fill="#63b8ff" stroke="#63b8ff" points="638.17,-814.14 634.87,-804.07 631.18,-814 638.17,-814.14"/>
</a>
</g>
</g>
<!-- Node112 -->
<g id="Node000112" class="node">
<title>Node112</title>
<g id="a_Node000112"><a xlink:href="sinex_8cpp.html#a2427a868db0f0ab748d35d7fedaffb6d" target="_top" xlink:title="Get attitude mode for sat.">
<path fill="#fff0f0" stroke="red" d="M513.17,-1284C513.17,-1284 418.83,-1284 418.83,-1284 415.67,-1284 412.5,-1280.83 412.5,-1277.67 412.5,-1277.67 412.5,-1271.33 412.5,-1271.33 412.5,-1268.17 415.67,-1265 418.83,-1265 418.83,-1265 513.17,-1265 513.17,-1265 516.33,-1265 519.5,-1268.17 519.5,-1271.33 519.5,-1271.33 519.5,-1277.67 519.5,-1277.67 519.5,-1280.83 516.33,-1284 513.17,-1284"/>
<text text-anchor="middle" x="466" y="-1272" font-family="Helvetica,sans-Serif" font-size="10.00">getSnxSatAttMode</text>
</a>
</g>
</g>
<!-- Node1&#45;&gt;Node112 -->
<g id="edge17_Node000001_Node000112" class="edge">
<title>Node1&#45;&gt;Node112</title>
<g id="a_edge17_Node000001_Node000112"><a xlink:title=" ">
<path fill="none" stroke="#63b8ff" d="M634.39,-814.29C631.51,-894.2 616.69,-1191.87 554,-1256.5 544.98,-1265.8 532.51,-1270.93 519.83,-1273.64"/>
<polygon fill="#63b8ff" stroke="#63b8ff" points="637.89,-814.24 634.73,-804.13 630.9,-814.01 637.89,-814.24"/>
</a>
</g>
</g>
<!-- Node113 -->
<g id="Node000113" class="node">
<title>Node113</title>
<g id="a_Node000113"><a xlink:href="attitude_8cpp.html#abd7ddf5a848e540724fe5341542eef52" target="_top" xlink:title="Yaw model for BDS&#45;2I/2M satellites Requires bds_yaw_modes.snx Ref: https://doi.org/10....">
<path fill="#fff0f0" stroke="red" d="M317.17,-636C317.17,-636 255.83,-636 255.83,-636 252.67,-636 249.5,-632.83 249.5,-629.67 249.5,-629.67 249.5,-623.33 249.5,-623.33 249.5,-620.17 252.67,-617 255.83,-617 255.83,-617 317.17,-617 317.17,-617 320.33,-617 323.5,-620.17 323.5,-623.33 323.5,-623.33 323.5,-629.67 323.5,-629.67 323.5,-632.83 320.33,-636 317.17,-636"/>
<text text-anchor="middle" x="286.5" y="-624" font-family="Helvetica,sans-Serif" font-size="10.00">satYawBds2</text>
</a>
</g>
</g>
<!-- Node1&#45;&gt;Node113 -->
<g id="edge41_Node000001_Node000113" class="edge">
<title>Node1&#45;&gt;Node113</title>
<g id="a_edge41_Node000001_Node000113"><a xlink:title=" ">
<path fill="none" stroke="#63b8ff" d="M632.3,-774.65C623.92,-716.45 596.41,-548.32 554,-516.5 491.43,-469.56 442.61,-472.4 378,-516.5 341.73,-541.25 373.87,-578.3 342,-608.5 336.86,-613.37 330.38,-616.92 323.7,-619.51"/>
<polygon fill="#63b8ff" stroke="#63b8ff" points="628.86,-775.33 633.71,-784.75 635.79,-774.36 628.86,-775.33"/>
</a>
</g>
</g>
<!-- Node116 -->
<g id="Node000116" class="node">
<title>Node116</title>
<g id="a_Node000116"><a xlink:href="rinexClkWrite_8cpp.html#a87a652e05ec91c35c1e56c0650176dfa" target="_top" xlink:title=" ">
<path fill="#fff0f0" stroke="red" d="M526.17,-1247C526.17,-1247 405.83,-1247 405.83,-1247 402.67,-1247 399.5,-1243.83 399.5,-1240.67 399.5,-1240.67 399.5,-1234.33 399.5,-1234.33 399.5,-1231.17 402.67,-1228 405.83,-1228 405.83,-1228 526.17,-1228 526.17,-1228 529.33,-1228 532.5,-1231.17 532.5,-1234.33 532.5,-1234.33 532.5,-1240.67 532.5,-1240.67 532.5,-1243.83 529.33,-1247 526.17,-1247"/>
<text text-anchor="middle" x="466" y="-1235" font-family="Helvetica,sans-Serif" font-size="10.00">getSysOutputFilenames</text>
</a>
</g>
</g>
<!-- Node1&#45;&gt;Node116 -->
<g id="edge19_Node000001_Node000116" class="edge">
<title>Node1&#45;&gt;Node116</title>
<g id="a_edge19_Node000001_Node000116"><a xlink:title=" ">
<path fill="none" stroke="#63b8ff" d="M633.85,-814.71C629.16,-890.14 609.03,-1153.99 554,-1213.5 548.15,-1219.83 540.8,-1224.54 532.86,-1228.05"/>
<polygon fill="#63b8ff" stroke="#63b8ff" points="637.37,-814.47 634.47,-804.28 630.38,-814.05 637.37,-814.47"/>
</a>
</g>
</g>
<!-- Node119 -->
<g id="Node000119" class="node">
<title>Node119</title>
<g id="a_Node000119"><a xlink:href="ionoSpherical_8cpp.html#a5b7bfe4a5b9c8c410133e7e6efbfc753" target="_top" xlink:title="rotates the Ionosphere piercing point time: I time of observations (to update the rotation matrix) IP...">
<path fill="#fff0f0" stroke="red" d="M507.17,-1171C507.17,-1171 424.83,-1171 424.83,-1171 421.67,-1171 418.5,-1167.83 418.5,-1164.67 418.5,-1164.67 418.5,-1158.33 418.5,-1158.33 418.5,-1155.17 421.67,-1152 424.83,-1152 424.83,-1152 507.17,-1152 507.17,-1152 510.33,-1152 513.5,-1155.17 513.5,-1158.33 513.5,-1158.33 513.5,-1164.67 513.5,-1164.67 513.5,-1167.83 510.33,-1171 507.17,-1171"/>
<text text-anchor="middle" x="466" y="-1159" font-family="Helvetica,sans-Serif" font-size="10.00">ippCheckSphhar</text>
</a>
</g>
</g>
<!-- Node1&#45;&gt;Node119 -->
<g id="edge21_Node000001_Node000119" class="edge">
<title>Node1&#45;&gt;Node119</title>
<g id="a_edge21_Node000001_Node000119"><a xlink:title=" ">
<path fill="none" stroke="#63b8ff" d="M633.16,-814.4C626.58,-881.31 601.96,-1096.67 554,-1143.5 543.29,-1153.95 528.21,-1159.07 513.6,-1161.39"/>
<polygon fill="#63b8ff" stroke="#63b8ff" points="636.66,-814.62 634.13,-804.33 629.69,-813.96 636.66,-814.62"/>
</a>
</g>
</g>
<!-- Node128 -->
<g id="Node000128" class="node">
<title>Node128</title>
<g id="a_Node000128"><a xlink:href="structKFMeas.html#aeb3d2d1ff6ef485f46f1b1eb2e9a59ee" target="_top" xlink:title="Combine a list of KFMeasEntrys into a single KFMeas object for used in the filter.">
<path fill="#fff0f0" stroke="red" d="M510.17,-1134C510.17,-1134 421.83,-1134 421.83,-1134 418.67,-1134 415.5,-1130.83 415.5,-1127.67 415.5,-1127.67 415.5,-1121.33 415.5,-1121.33 415.5,-1118.17 418.67,-1115 421.83,-1115 421.83,-1115 510.17,-1115 510.17,-1115 513.33,-1115 516.5,-1118.17 516.5,-1121.33 516.5,-1121.33 516.5,-1127.67 516.5,-1127.67 516.5,-1130.83 513.33,-1134 510.17,-1134"/>
<text text-anchor="middle" x="466" y="-1122" font-family="Helvetica,sans-Serif" font-size="10.00">KFMeas::KFMeas</text>
</a>
</g>
</g>
<!-- Node1&#45;&gt;Node128 -->
<g id="edge22_Node000001_Node000128" class="edge">
<title>Node1&#45;&gt;Node128</title>
<g id="a_edge22_Node000001_Node000128"><a xlink:title=" ">
<path fill="none" stroke="#63b8ff" d="M632.31,-814.57C623.72,-875.87 595.04,-1059.03 554,-1100.5 544.08,-1110.52 530.38,-1116.46 516.79,-1119.96"/>
<polygon fill="#63b8ff" stroke="#63b8ff" points="635.83,-814.69 633.72,-804.3 628.9,-813.73 635.83,-814.69"/>
</a>
</g>
</g>
<!-- Node129 -->
<g id="Node000129" class="node">
<title>Node129</title>
<g id="a_Node000129"><a xlink:href="structKFState.html#a35b82ca74c6a6795abf1b6e919a4fec1" target="_top" xlink:title="Add process noise and dynamics to filter object manually.">
<path fill="#fff0f0" stroke="red" d="M544.67,-1058C544.67,-1058 387.33,-1058 387.33,-1058 384.17,-1058 381,-1054.83 381,-1051.67 381,-1051.67 381,-1045.33 381,-1045.33 381,-1042.17 384.17,-1039 387.33,-1039 387.33,-1039 544.67,-1039 544.67,-1039 547.83,-1039 551,-1042.17 551,-1045.33 551,-1045.33 551,-1051.67 551,-1051.67 551,-1054.83 547.83,-1058 544.67,-1058"/>
<text text-anchor="middle" x="466" y="-1046" font-family="Helvetica,sans-Serif" font-size="10.00">KFState::manualStateTransition</text>
</a>
</g>
</g>
<!-- Node1&#45;&gt;Node129 -->
<g id="edge24_Node000001_Node000129" class="edge">
<title>Node1&#45;&gt;Node129</title>
<g id="a_edge24_Node000001_Node000129"><a xlink:title=" ">
<path fill="none" stroke="#63b8ff" d="M634.36,-814.42C631.78,-859.89 618.8,-971.86 554,-1029.5 549.73,-1033.3 544.87,-1036.4 539.69,-1038.92"/>
<polygon fill="#63b8ff" stroke="#63b8ff" points="637.86,-814.51 634.82,-804.36 630.87,-814.19 637.86,-814.51"/>
</a>
</g>
</g>
<!-- Node132 -->
<g id="Node000132" class="node">
<title>Node132</title>
<g id="a_Node000132"><a xlink:href="structNtripUploader.html#aed62670c2d0d02f1bb0d930f42e68609" target="_top" xlink:title=" ">
<path fill="#fff0f0" stroke="red" d="M544,-1002.5C544,-1002.5 388,-1002.5 388,-1002.5 383,-1002.5 378,-997.5 378,-992.5 378,-992.5 378,-982.5 378,-982.5 378,-977.5 383,-972.5 388,-972.5 388,-972.5 544,-972.5 544,-972.5 549,-972.5 554,-977.5 554,-982.5 554,-982.5 554,-992.5 554,-992.5 554,-997.5 549,-1002.5 544,-1002.5"/>
<text text-anchor="start" x="386" y="-990.5" font-family="Helvetica,sans-Serif" font-size="10.00">NtripUploader::messageTimeout</text>
<text text-anchor="middle" x="466" y="-979.5" font-family="Helvetica,sans-Serif" font-size="10.00">Handler</text>
</a>
</g>
</g>
<!-- Node1&#45;&gt;Node132 -->
<g id="edge25_Node000001_Node000132" class="edge">
<title>Node1&#45;&gt;Node132</title>
<g id="a_edge25_Node000001_Node000132"><a xlink:title=" ">
<path fill="none" stroke="#63b8ff" d="M630.51,-814.4C621.75,-848.71 599.17,-919.13 554,-958.5 547.52,-964.15 539.9,-968.71 531.91,-972.38"/>
<polygon fill="#63b8ff" stroke="#63b8ff" points="634.02,-814.78 632.96,-804.24 627.21,-813.14 634.02,-814.78"/>
</a>
</g>
</g>
<!-- Node135 -->
<g id="Node000135" class="node">
<title>Node135</title>
<g id="a_Node000135"><a xlink:href="mongoRead_8cpp.html#afb0cf2e28aad7d5f276d9735f941195d" target="_top" xlink:title=" ">
<path fill="#fff0f0" stroke="red" d="M509.67,-916C509.67,-916 422.33,-916 422.33,-916 419.17,-916 416,-912.83 416,-909.67 416,-909.67 416,-903.33 416,-903.33 416,-900.17 419.17,-897 422.33,-897 422.33,-897 509.67,-897 509.67,-897 512.83,-897 516,-900.17 516,-903.33 516,-903.33 516,-909.67 516,-909.67 516,-912.83 512.83,-916 509.67,-916"/>
<text text-anchor="middle" x="466" y="-904" font-family="Helvetica,sans-Serif" font-size="10.00">mongoReadFilter</text>
</a>
</g>
</g>
<!-- Node1&#45;&gt;Node135 -->
<g id="edge28_Node000001_Node000135" class="edge">
<title>Node1&#45;&gt;Node135</title>
<g id="a_edge28_Node000001_Node000135"><a xlink:title=" ">
<path fill="none" stroke="#63b8ff" d="M624.58,-812.63C611.15,-834.27 585.7,-869.85 554,-888.5 542.57,-895.23 529,-899.46 516.02,-902.13"/>
<polygon fill="#63b8ff" stroke="#63b8ff" points="627.59,-814.42 629.73,-804.04 621.59,-810.81 627.59,-814.42"/>
</a>
</g>
</g>
<!-- Node136 -->
<g id="Node000136" class="node">
<title>Node136</title>
<g id="a_Node000136"><a xlink:href="mongoWrite_8cpp.html#a7b0669675f4db278af7db5cb0b0dee6a" target="_top" xlink:title=" ">
<path fill="#fff0f0" stroke="red" d="M500.17,-879C500.17,-879 431.83,-879 431.83,-879 428.67,-879 425.5,-875.83 425.5,-872.67 425.5,-872.67 425.5,-866.33 425.5,-866.33 425.5,-863.17 428.67,-860 431.83,-860 431.83,-860 500.17,-860 500.17,-860 503.33,-860 506.5,-863.17 506.5,-866.33 506.5,-866.33 506.5,-872.67 506.5,-872.67 506.5,-875.83 503.33,-879 500.17,-879"/>
<text text-anchor="middle" x="466" y="-867" font-family="Helvetica,sans-Serif" font-size="10.00">mongoStates</text>
</a>
</g>
</g>
<!-- Node1&#45;&gt;Node136 -->
<g id="edge29_Node000001_Node000136" class="edge">
<title>Node1&#45;&gt;Node136</title>
<g id="a_edge29_Node000001_Node000136"><a xlink:title=" ">
<path fill="none" stroke="#63b8ff" d="M616.54,-810.84C600.94,-823.8 577.43,-841.35 554,-851.5 539.14,-857.93 521.83,-862.12 506.59,-864.82"/>
<polygon fill="#63b8ff" stroke="#63b8ff" points="619,-813.34 624.35,-804.2 614.47,-808.02 619,-813.34"/>
</a>
</g>
</g>
<!-- Node145 -->
<g id="Node000145" class="node">
<title>Node145</title>
<g id="a_Node000145"><a xlink:href="orbitProp_8cpp.html#a03c4ef0fbfbbf301403de6a3a8e27cc3" target="_top" xlink:title=" ">
<path fill="#fff0f0" stroke="red" d="M511.17,-842C511.17,-842 420.83,-842 420.83,-842 417.67,-842 414.5,-838.83 414.5,-835.67 414.5,-835.67 414.5,-829.33 414.5,-829.33 414.5,-826.17 417.67,-823 420.83,-823 420.83,-823 511.17,-823 511.17,-823 514.33,-823 517.5,-826.17 517.5,-829.33 517.5,-829.33 517.5,-835.67 517.5,-835.67 517.5,-838.83 514.33,-842 511.17,-842"/>
<text text-anchor="middle" x="466" y="-830" font-family="Helvetica,sans-Serif" font-size="10.00">outputOrbitConfig</text>
</a>
</g>
</g>
<!-- Node1&#45;&gt;Node145 -->
<g id="edge32_Node000001_Node000145" class="edge">
<title>Node1&#45;&gt;Node145</title>
<g id="a_edge32_Node000001_Node000145"><a xlink:title=" ">
<path fill="none" stroke="#63b8ff" d="M582.72,-806.32C559.04,-811.68 531.41,-817.93 509.09,-822.98"/>
<polygon fill="#63b8ff" stroke="#63b8ff" points="583.63,-809.71 592.61,-804.09 582.08,-802.88 583.63,-809.71"/>
</a>
</g>
</g>
<!-- Node146 -->
<g id="Node000146" class="node">
<title>Node146</title>
<g id="a_Node000146"><a xlink:href="erp_8cpp.html#a33c70b74bb73dd330fcbe0193762aa11" target="_top" xlink:title="read IERS C04 EOP products">
<path fill="#fff0f0" stroke="red" d="M503.17,-766C503.17,-766 428.83,-766 428.83,-766 425.67,-766 422.5,-762.83 422.5,-759.67 422.5,-759.67 422.5,-753.33 422.5,-753.33 422.5,-750.17 425.67,-747 428.83,-747 428.83,-747 503.17,-747 503.17,-747 506.33,-747 509.5,-750.17 509.5,-753.33 509.5,-753.33 509.5,-759.67 509.5,-759.67 509.5,-762.83 506.33,-766 503.17,-766"/>
<text text-anchor="middle" x="466" y="-754" font-family="Helvetica,sans-Serif" font-size="10.00">readIers14C04</text>
</a>
</g>
</g>
<!-- Node1&#45;&gt;Node146 -->
<g id="edge34_Node000001_Node000146" class="edge">
<title>Node1&#45;&gt;Node146</title>
<g id="a_edge34_Node000001_Node000146"><a xlink:title=" ">
<path fill="none" stroke="#63b8ff" d="M582.72,-782.68C559.04,-777.32 531.41,-771.07 509.09,-766.02"/>
<polygon fill="#63b8ff" stroke="#63b8ff" points="582.08,-786.12 592.61,-784.91 583.63,-779.29 582.08,-786.12"/>
</a>
</g>
</g>
<!-- Node148 -->
<g id="Node000148" class="node">
<title>Node148</title>
<g id="a_Node000148"><a xlink:href="erp_8cpp.html#aea74a6a66f8dbe955856469da9df6a43" target="_top" xlink:title="read IERS C04 EOP products">
<path fill="#fff0f0" stroke="red" d="M503.17,-729C503.17,-729 428.83,-729 428.83,-729 425.67,-729 422.5,-725.83 422.5,-722.67 422.5,-722.67 422.5,-716.33 422.5,-716.33 422.5,-713.17 425.67,-710 428.83,-710 428.83,-710 503.17,-710 503.17,-710 506.33,-710 509.5,-713.17 509.5,-716.33 509.5,-716.33 509.5,-722.67 509.5,-722.67 509.5,-725.83 506.33,-729 503.17,-729"/>
<text text-anchor="middle" x="466" y="-717" font-family="Helvetica,sans-Serif" font-size="10.00">readIers20C04</text>
</a>
</g>
</g>
<!-- Node1&#45;&gt;Node148 -->
<g id="edge35_Node000001_Node000148" class="edge">
<title>Node1&#45;&gt;Node148</title>
<g id="a_edge35_Node000001_Node000148"><a xlink:title=" ">
<path fill="none" stroke="#63b8ff" d="M616.2,-778.31C600.54,-765.65 577.15,-748.56 554,-738.5 540.1,-732.46 524.1,-728.26 509.63,-725.38"/>
<polygon fill="#63b8ff" stroke="#63b8ff" points="614.11,-781.12 624.05,-784.81 618.58,-775.73 614.11,-781.12"/>
</a>
</g>
</g>
<!-- Node149 -->
<g id="Node000149" class="node">
<title>Node149</title>
<g id="a_Node000149"><a xlink:href="tropVMF3_8cpp.html#a5d110a6f9820120ea75dce88891a17ef" target="_top" xlink:title="read vmf3 grid">
<path fill="#fff0f0" stroke="red" d="M491.67,-692C491.67,-692 440.33,-692 440.33,-692 437.17,-692 434,-688.83 434,-685.67 434,-685.67 434,-679.33 434,-679.33 434,-676.17 437.17,-673 440.33,-673 440.33,-673 491.67,-673 491.67,-673 494.83,-673 498,-676.17 498,-679.33 498,-679.33 498,-685.67 498,-685.67 498,-688.83 494.83,-692 491.67,-692"/>
<text text-anchor="middle" x="466" y="-680" font-family="Helvetica,sans-Serif" font-size="10.00">readvmf3</text>
</a>
</g>
</g>
<!-- Node1&#45;&gt;Node149 -->
<g id="edge36_Node000001_Node000149" class="edge">
<title>Node1&#45;&gt;Node149</title>
<g id="a_edge36_Node000001_Node000149"><a xlink:title=" ">
<path fill="none" stroke="#63b8ff" d="M624.11,-776C610.49,-754.6 585.15,-719.95 554,-701.5 537.11,-691.5 515.56,-686.74 498.14,-684.49"/>
<polygon fill="#63b8ff" stroke="#63b8ff" points="621.29,-778.11 629.51,-784.8 627.26,-774.45 621.29,-778.11"/>
</a>
</g>
</g>
<!-- Node150 -->
<g id="Node000150" class="node">
<title>Node150</title>
<g id="a_Node000150"><a xlink:href="ppp_8cpp.html#a075655f5235940732703f2e6ca41421a" target="_top" xlink:title="Remove ambiguity states from filter when they deemed old or bad This effectively reinitialises them o...">
<path fill="#fff0f0" stroke="red" d="M525.17,-655C525.17,-655 406.83,-655 406.83,-655 403.67,-655 400.5,-651.83 400.5,-648.67 400.5,-648.67 400.5,-642.33 400.5,-642.33 400.5,-639.17 403.67,-636 406.83,-636 406.83,-636 525.17,-636 525.17,-636 528.33,-636 531.5,-639.17 531.5,-642.33 531.5,-642.33 531.5,-648.67 531.5,-648.67 531.5,-651.83 528.33,-655 525.17,-655"/>
<text text-anchor="middle" x="466" y="-643" font-family="Helvetica,sans-Serif" font-size="10.00">removeBadAmbiguities</text>
</a>
</g>
</g>
<!-- Node1&#45;&gt;Node150 -->
<g id="edge37_Node000001_Node000150" class="edge">
<title>Node1&#45;&gt;Node150</title>
<g id="a_edge37_Node000001_Node000150"><a xlink:title=" ">
<path fill="none" stroke="#63b8ff" d="M628.48,-775.08C617.75,-746.2 593.5,-692.36 554,-664.5 547.3,-659.78 539.65,-656.2 531.73,-653.48"/>
<polygon fill="#63b8ff" stroke="#63b8ff" points="625.3,-776.57 631.94,-784.82 631.89,-774.22 625.3,-776.57"/>
</a>
</g>
</g>
<!-- Node151 -->
<g id="Node000151" class="node">
<title>Node151</title>
<g id="a_Node000151"><a xlink:href="ppp_8cpp.html#a3d11452be1ce2ea58117c7fd3ac9f981" target="_top" xlink:title="Remove ambiguity states from filter when they deemed old or bad This effectively reinitialises them o...">
<path fill="#fff0f0" stroke="red" d="M525.67,-618C525.67,-618 406.33,-618 406.33,-618 403.17,-618 400,-614.83 400,-611.67 400,-611.67 400,-605.33 400,-605.33 400,-602.17 403.17,-599 406.33,-599 406.33,-599 525.67,-599 525.67,-599 528.83,-599 532,-602.17 532,-605.33 532,-605.33 532,-611.67 532,-611.67 532,-614.83 528.83,-618 525.67,-618"/>
<text text-anchor="middle" x="466" y="-606" font-family="Helvetica,sans-Serif" font-size="10.00">removeBadIonospheres</text>
</a>
</g>
</g>
<!-- Node1&#45;&gt;Node151 -->
<g id="edge38_Node000001_Node000151" class="edge">
<title>Node1&#45;&gt;Node151</title>
<g id="a_edge38_Node000001_Node000151"><a xlink:title=" ">
<path fill="none" stroke="#63b8ff" d="M631.26,-774.7C623.51,-739.33 602.2,-665.46 554,-627.5 547.56,-622.43 540.06,-618.65 532.21,-615.83"/>
<polygon fill="#63b8ff" stroke="#63b8ff" points="627.88,-775.64 633.32,-784.73 634.74,-774.23 627.88,-775.64"/>
</a>
</g>
</g>
<!-- Node152 -->
<g id="Node000152" class="node">
<title>Node152</title>
<g id="a_Node000152"><a xlink:href="structRtcmDecoder.html#af4dcc94b23423696a4e8025d8235a1b1" target="_top" xlink:title=" ">
<path fill="#fff0f0" stroke="red" d="M527.67,-581C527.67,-581 404.33,-581 404.33,-581 401.17,-581 398,-577.83 398,-574.67 398,-574.67 398,-568.33 398,-568.33 398,-565.17 401.17,-562 404.33,-562 404.33,-562 527.67,-562 527.67,-562 530.83,-562 534,-565.17 534,-568.33 534,-568.33 534,-574.67 534,-574.67 534,-577.83 530.83,-581 527.67,-581"/>
<text text-anchor="middle" x="466" y="-569" font-family="Helvetica,sans-Serif" font-size="10.00">RtcmDecoder::rtcmTime</text>
</a>
</g>
</g>
<!-- Node1&#45;&gt;Node152 -->
<g id="edge39_Node000001_Node000152" class="edge">
<title>Node1&#45;&gt;Node152</title>
<g id="a_edge39_Node000001_Node000152"><a xlink:title=" ">
<path fill="none" stroke="#63b8ff" d="M633.16,-774.43C628.26,-733.24 611.09,-638.97 554,-590.5 548.23,-585.6 541.47,-581.87 534.33,-579.06"/>
<polygon fill="#63b8ff" stroke="#63b8ff" points="629.7,-774.99 634.24,-784.56 636.66,-774.24 629.7,-774.99"/>
</a>
</g>
</g>
<!-- Node90 -->
<g id="Node000090" class="node">
<title>Node90</title>
<g id="a_Node000090"><a xlink:href="ephKalman_8cpp.html#ae1697dd19411f771300532be63d186c2" target="_top" xlink:title=" ">
<path fill="#fff0f0" stroke="red" d="M502.67,-544C502.67,-544 429.33,-544 429.33,-544 426.17,-544 423,-540.83 423,-537.67 423,-537.67 423,-531.33 423,-531.33 423,-528.17 426.17,-525 429.33,-525 429.33,-525 502.67,-525 502.67,-525 505.83,-525 509,-528.17 509,-531.33 509,-531.33 509,-537.67 509,-537.67 509,-540.83 505.83,-544 502.67,-544"/>
<text text-anchor="middle" x="466" y="-532" font-family="Helvetica,sans-Serif" font-size="10.00">satPosKalman</text>
</a>
</g>
</g>
<!-- Node1&#45;&gt;Node90 -->
<g id="edge40_Node000001_Node000090" class="edge">
<title>Node1&#45;&gt;Node90</title>
<g id="a_edge40_Node000001_Node000090"><a xlink:title=" ">
<path fill="none" stroke="#63b8ff" d="M634.57,-774.72C632.43,-728.53 620.36,-612.98 554,-553.5 541.8,-542.56 524.78,-537.42 509.04,-535.16"/>
<polygon fill="#63b8ff" stroke="#63b8ff" points="631.08,-775.02 634.92,-784.9 638.07,-774.78 631.08,-775.02"/>
</a>
</g>
</g>
<!-- Node159 -->
<g id="Node000159" class="node">
<title>Node159</title>
<g id="a_Node000159"><a xlink:href="attitude_8cpp.html#a72b1b0bdafc8daa3b75faa96049b514f" target="_top" xlink:title="Yaw model for BDS&#45;3I/3M satellites Ref: https://doi.org/10.1007/s10291&#45;018&#45;0783&#45;1 https://doi....">
<path fill="#fff0f0" stroke="red" d="M496.67,-468C496.67,-468 435.33,-468 435.33,-468 432.17,-468 429,-464.83 429,-461.67 429,-461.67 429,-455.33 429,-455.33 429,-452.17 432.17,-449 435.33,-449 435.33,-449 496.67,-449 496.67,-449 499.83,-449 503,-452.17 503,-455.33 503,-455.33 503,-461.67 503,-461.67 503,-464.83 499.83,-468 496.67,-468"/>
<text text-anchor="middle" x="466" y="-456" font-family="Helvetica,sans-Serif" font-size="10.00">satYawBds3</text>
</a>
</g>
</g>
<!-- Node1&#45;&gt;Node159 -->
<g id="edge42_Node000001_Node000159" class="edge">
<title>Node1&#45;&gt;Node159</title>
<g id="a_edge42_Node000001_Node000159"><a xlink:title=" ">
<path fill="none" stroke="#63b8ff" d="M632.48,-774.84C624.18,-713.16 595.87,-525.01 554,-482.5 540.81,-469.1 520.87,-462.99 503.4,-460.28"/>
<polygon fill="#63b8ff" stroke="#63b8ff" points="629.02,-775.37 633.79,-784.82 635.96,-774.45 629.02,-775.37"/>
</a>
</g>
</g>
<!-- Node160 -->
<g id="Node000160" class="node">
<title>Node160</title>
<g id="a_Node000160"><a xlink:href="attitude_8cpp.html#abdce260d1dd40f5c15f4003e87bafd3b" target="_top" xlink:title="Yaw model for GAL FOC sats.">
<path fill="#fff0f0" stroke="red" d="M501.17,-431C501.17,-431 430.83,-431 430.83,-431 427.67,-431 424.5,-427.83 424.5,-424.67 424.5,-424.67 424.5,-418.33 424.5,-418.33 424.5,-415.17 427.67,-412 430.83,-412 430.83,-412 501.17,-412 501.17,-412 504.33,-412 507.5,-415.17 507.5,-418.33 507.5,-418.33 507.5,-424.67 507.5,-424.67 507.5,-427.83 504.33,-431 501.17,-431"/>
<text text-anchor="middle" x="466" y="-419" font-family="Helvetica,sans-Serif" font-size="10.00">satYawGalFoc</text>
</a>
</g>
</g>
<!-- Node1&#45;&gt;Node160 -->
<g id="edge44_Node000001_Node000160" class="edge">
<title>Node1&#45;&gt;Node160</title>
<g id="a_edge44_Node000001_Node000160"><a xlink:title=" ">
<path fill="none" stroke="#63b8ff" d="M633.23,-774.79C626.79,-707.5 602.39,-488.41 554,-440.5 541.92,-428.53 524.15,-423.34 507.82,-421.32"/>
<polygon fill="#63b8ff" stroke="#63b8ff" points="629.76,-775.24 634.17,-784.88 636.73,-774.6 629.76,-775.24"/>
</a>
</g>
</g>
<!-- Node161 -->
<g id="Node000161" class="node">
<title>Node161</title>
<g id="a_Node000161"><a xlink:href="attitude_8cpp.html#a18338f781fea251d0f8b03666fde5b9e" target="_top" xlink:title="Yaw model for GAL IOV sats.">
<path fill="#fff0f0" stroke="red" d="M500.67,-394C500.67,-394 431.33,-394 431.33,-394 428.17,-394 425,-390.83 425,-387.67 425,-387.67 425,-381.33 425,-381.33 425,-378.17 428.17,-375 431.33,-375 431.33,-375 500.67,-375 500.67,-375 503.83,-375 507,-378.17 507,-381.33 507,-381.33 507,-387.67 507,-387.67 507,-390.83 503.83,-394 500.67,-394"/>
<text text-anchor="middle" x="466" y="-382" font-family="Helvetica,sans-Serif" font-size="10.00">satYawGalIov</text>
</a>
</g>
</g>
<!-- Node1&#45;&gt;Node161 -->
<g id="edge45_Node000001_Node000161" class="edge">
<title>Node1&#45;&gt;Node161</title>
<g id="a_edge45_Node000001_Node000161"><a xlink:title=" ">
<path fill="none" stroke="#63b8ff" d="M633.68,-774.64C628.49,-702.69 607.11,-457.19 554,-403.5 541.82,-391.19 523.65,-386.02 507.05,-384.09"/>
<polygon fill="#63b8ff" stroke="#63b8ff" points="630.21,-775.24 634.4,-784.97 637.2,-774.75 630.21,-775.24"/>
</a>
</g>
</g>
<!-- Node70 -->
<g id="Node000070" class="node">
<title>Node70</title>
<g id="a_Node000070"><a xlink:href="attitude_8cpp.html#af64a8516da71e0d4f37682b1935fdca3" target="_top" xlink:title="Yaw model for GLONASS sats Returns false if no modelled yaw available Ref: https://igsac&#45;cnes....">
<path fill="#fff0f0" stroke="red" d="M493.17,-357C493.17,-357 438.83,-357 438.83,-357 435.67,-357 432.5,-353.83 432.5,-350.67 432.5,-350.67 432.5,-344.33 432.5,-344.33 432.5,-341.17 435.67,-338 438.83,-338 438.83,-338 493.17,-338 493.17,-338 496.33,-338 499.5,-341.17 499.5,-344.33 499.5,-344.33 499.5,-350.67 499.5,-350.67 499.5,-353.83 496.33,-357 493.17,-357"/>
<text text-anchor="middle" x="466" y="-345" font-family="Helvetica,sans-Serif" font-size="10.00">satYawGlo</text>
</a>
</g>
</g>
<!-- Node1&#45;&gt;Node70 -->
<g id="edge46_Node000001_Node000070" class="edge">
<title>Node1&#45;&gt;Node70</title>
<g id="a_edge46_Node000001_Node000070"><a xlink:title=" ">
<path fill="none" stroke="#63b8ff" d="M634.07,-774.74C630.09,-698.67 611.92,-426.06 554,-366.5 540.1,-352.2 518.11,-347.49 499.72,-346.33"/>
<polygon fill="#63b8ff" stroke="#63b8ff" points="630.58,-775.03 634.58,-784.84 637.57,-774.68 630.58,-775.03"/>
</a>
</g>
</g>
<!-- Node78 -->
<g id="Node000078" class="node">
<title>Node78</title>
<g id="a_Node000078"><a xlink:href="attitude_8cpp.html#a46cec52b21a1c337c0ca23eba28f5bca" target="_top" xlink:title="Yaw model for GPS&#45;IIA sats Ref: http://acc.igs.org/orbits/EclipseReadMe.pdf Ref: https://igsac&#45;cnes....">
<path fill="#fff0f0" stroke="red" d="M321.17,-319C321.17,-319 251.83,-319 251.83,-319 248.67,-319 245.5,-315.83 245.5,-312.67 245.5,-312.67 245.5,-306.33 245.5,-306.33 245.5,-303.17 248.67,-300 251.83,-300 251.83,-300 321.17,-300 321.17,-300 324.33,-300 327.5,-303.17 327.5,-306.33 327.5,-306.33 327.5,-312.67 327.5,-312.67 327.5,-315.83 324.33,-319 321.17,-319"/>
<text text-anchor="middle" x="286.5" y="-307" font-family="Helvetica,sans-Serif" font-size="10.00">satYawGpsIIA</text>
</a>
</g>
</g>
<!-- Node1&#45;&gt;Node78 -->
<g id="edge47_Node000001_Node000078" class="edge">
<title>Node1&#45;&gt;Node78</title>
<g id="a_edge47_Node000001_Node000078"><a xlink:title=" ">
<path fill="none" stroke="#63b8ff" d="M634.64,-774.35C632.72,-693.02 621.11,-390.36 554,-329.5 490.42,-271.84 379.56,-287.07 322.95,-299.96"/>
<polygon fill="#63b8ff" stroke="#63b8ff" points="631.14,-774.77 634.85,-784.69 638.14,-774.62 631.14,-774.77"/>
</a>
</g>
</g>
<!-- Node79 -->
<g id="Node000079" class="node">
<title>Node79</title>
<g id="a_Node000079"><a xlink:href="attitude_8cpp.html#af06aa2920ea6c715fd8973e86ab0822f" target="_top" xlink:title="Yaw model for GPS&#45;IIF sats Ref: https://www.researchgate.net/publication/306924379_Observed_features_...">
<path fill="#fff0f0" stroke="red" d="M320.67,-281C320.67,-281 252.33,-281 252.33,-281 249.17,-281 246,-277.83 246,-274.67 246,-274.67 246,-268.33 246,-268.33 246,-265.17 249.17,-262 252.33,-262 252.33,-262 320.67,-262 320.67,-262 323.83,-262 327,-265.17 327,-268.33 327,-268.33 327,-274.67 327,-274.67 327,-277.83 323.83,-281 320.67,-281"/>
<text text-anchor="middle" x="286.5" y="-269" font-family="Helvetica,sans-Serif" font-size="10.00">satYawGpsIIF</text>
</a>
</g>
</g>
<!-- Node1&#45;&gt;Node79 -->
<g id="edge48_Node000001_Node000079" class="edge">
<title>Node1&#45;&gt;Node79</title>
<g id="a_edge48_Node000001_Node000079"><a xlink:title=" ">
<path fill="none" stroke="#63b8ff" d="M635,-774.36C634.57,-688.21 628.08,-352.17 554,-285.5 521.63,-256.37 393.08,-262.47 327.07,-267.77"/>
<polygon fill="#63b8ff" stroke="#63b8ff" points="631.51,-774.61 635.03,-784.6 638.51,-774.59 631.51,-774.61"/>
</a>
</g>
</g>
<!-- Node162 -->
<g id="Node000162" class="node">
<title>Node162</title>
<g id="a_Node000162"><a xlink:href="attitude_8cpp.html#a43e7b17b62853da813d5289667b3284e" target="_top" xlink:title="Yaw model for GPS&#45;IIR sats Ref: http://acc.igs.org/orbits/EclipseReadMe.pdf Ref: https://igsac&#45;cnes....">
<path fill="#fff0f0" stroke="red" d="M500.67,-243C500.67,-243 431.33,-243 431.33,-243 428.17,-243 425,-239.83 425,-236.67 425,-236.67 425,-230.33 425,-230.33 425,-227.17 428.17,-224 431.33,-224 431.33,-224 500.67,-224 500.67,-224 503.83,-224 507,-227.17 507,-230.33 507,-230.33 507,-236.67 507,-236.67 507,-239.83 503.83,-243 500.67,-243"/>
<text text-anchor="middle" x="466" y="-231" font-family="Helvetica,sans-Serif" font-size="10.00">satYawGpsIIR</text>
</a>
</g>
</g>
<!-- Node1&#45;&gt;Node162 -->
<g id="edge49_Node000001_Node000162" class="edge">
<title>Node1&#45;&gt;Node162</title>
<g id="a_edge49_Node000001_Node000162"><a xlink:title=" ">
<path fill="none" stroke="#63b8ff" d="M634.8,-774.5C633.49,-686.72 623.91,-336.31 554,-257.5 542.25,-244.26 523.92,-238.03 507.11,-235.2"/>
<polygon fill="#63b8ff" stroke="#63b8ff" points="631.3,-774.74 634.93,-784.69 638.3,-774.65 631.3,-774.74"/>
</a>
</g>
</g>
<!-- Node115 -->
<g id="Node000115" class="node">
<title>Node115</title>
<g id="a_Node000115"><a xlink:href="attitude_8cpp.html#ae895bad3e9b1c1ce5b6ccadab478b787" target="_top" xlink:title="Yaw model for QZSS&#45;2I &amp; QZSS&#45;2A satellites Requires qzss_yaw_modes.snx &#45; generated by scripts/qzss_oh...">
<path fill="#fff0f0" stroke="red" d="M498.17,-206C498.17,-206 433.83,-206 433.83,-206 430.67,-206 427.5,-202.83 427.5,-199.67 427.5,-199.67 427.5,-193.33 427.5,-193.33 427.5,-190.17 430.67,-187 433.83,-187 433.83,-187 498.17,-187 498.17,-187 501.33,-187 504.5,-190.17 504.5,-193.33 504.5,-193.33 504.5,-199.67 504.5,-199.67 504.5,-202.83 501.33,-206 498.17,-206"/>
<text text-anchor="middle" x="466" y="-194" font-family="Helvetica,sans-Serif" font-size="10.00">satYawQzs2I</text>
</a>
</g>
</g>
<!-- Node1&#45;&gt;Node115 -->
<g id="edge52_Node000001_Node000115" class="edge">
<title>Node1&#45;&gt;Node115</title>
<g id="a_edge52_Node000001_Node000115"><a xlink:title=" ">
<path fill="none" stroke="#63b8ff" d="M635.16,-774.57C635.51,-682.35 632.16,-297.93 554,-214.5 541.56,-201.22 522.1,-196.36 504.74,-194.97"/>
<polygon fill="#63b8ff" stroke="#63b8ff" points="631.66,-774.74 635.11,-784.76 638.66,-774.78 631.66,-774.74"/>
</a>
</g>
</g>
<!-- Node163 -->
<g id="Node000163" class="node">
<title>Node163</title>
<g id="a_Node000163"><a xlink:href="structInteractiveTerminal.html#a1673a1bc7c18472e291aa3b1ed1bb1b7" target="_top" xlink:title=" ">
<path fill="#fff0f0" stroke="red" d="M332,-243.5C332,-243.5 241,-243.5 241,-243.5 236,-243.5 231,-238.5 231,-233.5 231,-233.5 231,-223.5 231,-223.5 231,-218.5 236,-213.5 241,-213.5 241,-213.5 332,-213.5 332,-213.5 337,-213.5 342,-218.5 342,-223.5 342,-223.5 342,-233.5 342,-233.5 342,-238.5 337,-243.5 332,-243.5"/>
<text text-anchor="start" x="239" y="-231.5" font-family="Helvetica,sans-Serif" font-size="10.00">InteractiveTerminal</text>
<text text-anchor="middle" x="286.5" y="-220.5" font-family="Helvetica,sans-Serif" font-size="10.00">::setMode</text>
</a>
</g>
</g>
<!-- Node1&#45;&gt;Node163 -->
<g id="edge53_Node000001_Node000163" class="edge">
<title>Node1&#45;&gt;Node163</title>
<g id="a_edge53_Node000001_Node000163"><a xlink:title=" ">
<path fill="none" stroke="#63b8ff" d="M633.91,-774.42C628.19,-672.76 600.14,-217.98 554,-177.5 483.18,-115.37 360.36,-181.44 310.01,-213.33"/>
<polygon fill="#63b8ff" stroke="#63b8ff" points="630.42,-774.77 634.47,-784.56 637.41,-774.38 630.42,-774.77"/>
</a>
</g>
</g>
<!-- Node166 -->
<g id="Node000166" class="node">
<title>Node166</title>
<g id="a_Node000166"><a xlink:href="pea__snx_8cpp.html#a998d8ea068788de9c3ca4f572a114e44" target="_top" xlink:title=" ">
<path fill="#fff0f0" stroke="red" d="M528.67,-130C528.67,-130 403.33,-130 403.33,-130 400.17,-130 397,-126.83 397,-123.67 397,-123.67 397,-117.33 397,-117.33 397,-114.17 400.17,-111 403.33,-111 403.33,-111 528.67,-111 528.67,-111 531.83,-111 535,-114.17 535,-117.33 535,-117.33 535,-123.67 535,-123.67 535,-126.83 531.83,-130 528.67,-130"/>
<text text-anchor="middle" x="466" y="-118" font-family="Helvetica,sans-Serif" font-size="10.00">sinexPerEpochPerStation</text>
</a>
</g>
</g>
<!-- Node1&#45;&gt;Node166 -->
<g id="edge56_Node000001_Node000166" class="edge">
<title>Node1&#45;&gt;Node166</title>
<g id="a_edge56_Node000001_Node000166"><a xlink:title=" ">
<path fill="none" stroke="#63b8ff" d="M635.38,-774.52C636.82,-675.9 638.23,-241.95 554,-144.5 548.67,-138.34 541.92,-133.69 534.54,-130.19"/>
<polygon fill="#63b8ff" stroke="#63b8ff" points="631.87,-774.56 635.21,-784.61 638.87,-774.67 631.87,-774.56"/>
</a>
</g>
</g>
<!-- Node167 -->
<g id="Node000167" class="node">
<title>Node167</title>
<g id="a_Node000167"><a xlink:href="structKFState.html#a7f8e4b9291361c063cef8d9178f07707" target="_top" xlink:title="Add process noise and dynamics to filter object according to time gap.">
<path fill="#fff0f0" stroke="red" d="M525.67,-93C525.67,-93 406.33,-93 406.33,-93 403.17,-93 400,-89.83 400,-86.67 400,-86.67 400,-80.33 400,-80.33 400,-77.17 403.17,-74 406.33,-74 406.33,-74 525.67,-74 525.67,-74 528.83,-74 532,-77.17 532,-80.33 532,-80.33 532,-86.67 532,-86.67 532,-89.83 528.83,-93 525.67,-93"/>
<text text-anchor="middle" x="466" y="-81" font-family="Helvetica,sans-Serif" font-size="10.00">KFState::stateTransition</text>
</a>
</g>
</g>
<!-- Node1&#45;&gt;Node167 -->
<g id="edge57_Node000001_Node000167" class="edge">
<title>Node1&#45;&gt;Node167</title>
<g id="a_edge57_Node000001_Node000167"><a xlink:title=" ">
<path fill="none" stroke="#63b8ff" d="M634.06,-774.92C628.73,-667.49 600.87,-152.67 554,-101.5 548.06,-95.02 540.45,-90.53 532.22,-87.47"/>
<polygon fill="#63b8ff" stroke="#63b8ff" points="630.57,-775.18 634.55,-785 637.56,-774.84 630.57,-775.18"/>
</a>
</g>
</g>
<!-- Node168 -->
<g id="Node000168" class="node">
<title>Node168</title>
<g id="a_Node000168"><a xlink:href="erp_8cpp.html#ab3d1603dc3b9792fd8a9116558ba1d49" target="_top" xlink:title=" ">
<path fill="#fff0f0" stroke="red" d="M521.17,-56C521.17,-56 410.83,-56 410.83,-56 407.67,-56 404.5,-52.83 404.5,-49.67 404.5,-49.67 404.5,-43.33 404.5,-43.33 404.5,-40.17 407.67,-37 410.83,-37 410.83,-37 521.17,-37 521.17,-37 524.33,-37 527.5,-40.17 527.5,-43.33 527.5,-43.33 527.5,-49.67 527.5,-49.67 527.5,-52.83 524.33,-56 521.17,-56"/>
<text text-anchor="middle" x="466" y="-44" font-family="Helvetica,sans-Serif" font-size="10.00">writeErpFromNetwork</text>
</a>
</g>
</g>
<!-- Node1&#45;&gt;Node168 -->
<g id="edge59_Node000001_Node000168" class="edge">
<title>Node1&#45;&gt;Node168</title>
<g id="a_edge59_Node000001_Node000168"><a xlink:title=" ">
<path fill="none" stroke="#63b8ff" d="M634.17,-774.57C629.32,-662.98 603.28,-118.62 554,-64.5 547.04,-56.86 537.77,-51.98 527.86,-48.95"/>
<polygon fill="#63b8ff" stroke="#63b8ff" points="630.68,-774.91 634.6,-784.75 637.67,-774.61 630.68,-774.91"/>
</a>
</g>
</g>
<!-- Node169 -->
<g id="Node000169" class="node">
<title>Node169</title>
<g id="a_Node000169"><a xlink:href="gTime_8cpp.html#a25abbda5263c0b29ab3479dd35b140e3" target="_top" xlink:title=" ">
<path fill="#fff0f0" stroke="red" d="M490.67,-19C490.67,-19 441.33,-19 441.33,-19 438.17,-19 435,-15.83 435,-12.67 435,-12.67 435,-6.33 435,-6.33 435,-3.17 438.17,0 441.33,0 441.33,0 490.67,0 490.67,0 493.83,0 497,-3.17 497,-6.33 497,-6.33 497,-12.67 497,-12.67 497,-15.83 493.83,-19 490.67,-19"/>
<text text-anchor="middle" x="466" y="-7" font-family="Helvetica,sans-Serif" font-size="10.00">yds2time</text>
</a>
</g>
</g>
<!-- Node1&#45;&gt;Node169 -->
<g id="edge60_Node000001_Node000169" class="edge">
<title>Node1&#45;&gt;Node169</title>
<g id="a_edge60_Node000001_Node000169"><a xlink:title=" ">
<path fill="none" stroke="#63b8ff" d="M634.28,-774.65C629.95,-659.9 605.76,-84.65 554,-27.5 539.92,-11.95 516.24,-7.84 497.14,-7.41"/>
<polygon fill="#63b8ff" stroke="#63b8ff" points="630.79,-774.94 634.66,-784.8 637.79,-774.68 630.79,-774.94"/>
</a>
</g>
</g>
<!-- Node2&#45;&gt;Node5 -->
<g id="edge2_Node000002_Node000005" class="edge">
<title>Node2&#45;&gt;Node5</title>
<g id="a_edge2_Node000002_Node000005"><a xlink:title=" ">
<path fill="none" stroke="#63b8ff" d="M127.8,-1404.56C105.03,-1355.02 44.32,-1222.89 27.42,-1186.12"/>
<polygon fill="#63b8ff" stroke="#63b8ff" points="124.69,-1406.19 132.05,-1413.82 131.06,-1403.27 124.69,-1406.19"/>
</a>
</g>
</g>
<!-- Node13&#45;&gt;Node17 -->
<g id="edge6_Node000013_Node000017" class="edge">
<title>Node13&#45;&gt;Node17</title>
<g id="a_edge6_Node000013_Node000017"><a xlink:title=" ">
<path fill="none" stroke="#63b8ff" d="M240.05,-602.54C236.84,-604.3 233.78,-606.27 231,-608.5 181.57,-648.09 151.4,-721.71 141.82,-747.93"/>
<polygon fill="#63b8ff" stroke="#63b8ff" points="241.8,-605.59 249.38,-598.18 238.84,-599.25 241.8,-605.59"/>
</a>
</g>
</g>
<!-- Node36&#45;&gt;Node47 -->
<g id="edge8_Node000036_Node000047" class="edge">
<title>Node36&#45;&gt;Node47</title>
<g id="a_edge8_Node000036_Node000047"><a xlink:title=" ">
<path fill="none" stroke="#63b8ff" d="M396.36,-1453.64C389.52,-1450.74 383.2,-1446.79 378,-1441.5 308.91,-1371.18 290.67,-1032.67 287.9,-971.11"/>
<polygon fill="#63b8ff" stroke="#63b8ff" points="395.35,-1457 405.94,-1457 397.66,-1450.39 395.35,-1457"/>
</a>
</g>
</g>
<!-- Node47&#45;&gt;Node41 -->
<g id="edge9_Node000047_Node000041" class="edge">
<title>Node47&#45;&gt;Node41</title>
<g id="a_edge9_Node000047_Node000041"><a xlink:title=" ">
<path fill="none" stroke="#63b8ff" d="M261.87,-976.61C231.31,-996.15 179,-1029.6 153.44,-1045.94"/>
<polygon fill="#63b8ff" stroke="#63b8ff" points="264.06,-979.37 270.6,-971.03 260.29,-973.47 264.06,-979.37"/>
</a>
</g>
</g>
<!-- Node41&#45;&gt;Node5 -->
<g id="edge10_Node000041_Node000005" class="edge">
<title>Node41&#45;&gt;Node5</title>
<g id="a_edge10_Node000041_Node000005"><a xlink:title=" ">
<path fill="none" stroke="#63b8ff" d="M120.11,-1072.97C95.86,-1098.82 51.23,-1146.4 32.1,-1166.8"/>
<polygon fill="#63b8ff" stroke="#63b8ff" points="122.92,-1075.09 127.21,-1065.4 117.82,-1070.3 122.92,-1075.09"/>
</a>
</g>
</g>
<!-- Node58&#45;&gt;Node47 -->
<g id="edge14_Node000058_Node000047" class="edge">
<title>Node58&#45;&gt;Node47</title>
<g id="a_edge14_Node000058_Node000047"><a xlink:title=" ">
<path fill="none" stroke="#63b8ff" d="M431.9,-1387.26C413.5,-1386.37 391.63,-1381.89 378,-1367.5 341.21,-1328.67 354.29,-1181.56 342,-1129.5 327.48,-1068.03 301.04,-996.7 291.26,-971.19"/>
<polygon fill="#63b8ff" stroke="#63b8ff" points="431.91,-1390.76 441.96,-1387.42 432.02,-1383.76 431.91,-1390.76"/>
</a>
</g>
</g>
<!-- Node58&#45;&gt;Node41 -->
<g id="edge13_Node000058_Node000041" class="edge">
<title>Node58&#45;&gt;Node41</title>
<g id="a_edge13_Node000058_Node000041"><a xlink:title=" ">
<path fill="none" stroke="#63b8ff" d="M431.78,-1384.11C414.64,-1382.1 394.02,-1377.54 378,-1367.5 248.41,-1286.24 162.24,-1108.31 142.72,-1065.1"/>
<polygon fill="#63b8ff" stroke="#63b8ff" points="431.65,-1387.62 441.94,-1385.07 432.31,-1380.65 431.65,-1387.62"/>
</a>
</g>
</g>
<!-- Node112&#45;&gt;Node113 -->
<g id="edge18_Node000112_Node000113" class="edge">
<title>Node112&#45;&gt;Node113</title>
<g id="a_edge18_Node000112_Node000113"><a xlink:title=" ">
<path fill="none" stroke="#63b8ff" d="M402.43,-1271.47C393.18,-1268.42 384.57,-1263.68 378,-1256.5 330.76,-1204.83 351.94,-1012.81 342,-943.5 324.53,-821.61 296.72,-674.52 289.35,-636.07"/>
<polygon fill="#63b8ff" stroke="#63b8ff" points="401.68,-1274.9 412.25,-1274.09 403.48,-1268.13 401.68,-1274.9"/>
</a>
</g>
</g>
<!-- Node132&#45;&gt;Node132 -->
<g id="edge26_Node000132_Node000132" class="edge">
<title>Node132&#45;&gt;Node132</title>
<g id="a_edge26_Node000132_Node000132"><a xlink:title=" ">
<path fill="none" stroke="#63b8ff" d="M495.76,-1013.1C491.69,-1017.47 481.77,-1020.5 466,-1020.5 439.44,-1020.5 429.48,-1011.91 436.12,-1002.78"/>
<polygon fill="#63b8ff" stroke="#63b8ff" points="499.26,-1012.82 495.88,-1002.78 492.26,-1012.73 499.26,-1012.82"/>
</a>
</g>
</g>
<!-- Node136&#45;&gt;Node47 -->
<g id="edge31_Node000136_Node000047" class="edge">
<title>Node136&#45;&gt;Node47</title>
<g id="a_edge31_Node000136_Node000047"><a xlink:title=" ">
<path fill="none" stroke="#63b8ff" d="M415.29,-876.22C402.74,-879.02 389.55,-882.96 378,-888.5 344.14,-904.73 311.71,-935.91 296.5,-951.75"/>
<polygon fill="#63b8ff" stroke="#63b8ff" points="416.08,-879.63 425.18,-874.21 414.68,-872.77 416.08,-879.63"/>
</a>
</g>
</g>
<!-- Node136&#45;&gt;Node41 -->
<g id="edge30_Node000136_Node000041" class="edge">
<title>Node136&#45;&gt;Node41</title>
<g id="a_edge30_Node000136_Node000041"><a xlink:title=" ">
<path fill="none" stroke="#63b8ff" d="M415.35,-871.86C402,-874.61 388.4,-879.62 378,-888.5 344.6,-917 373.35,-949.76 342,-980.5 302.21,-1019.51 240.41,-1038.48 195.35,-1047.55"/>
<polygon fill="#63b8ff" stroke="#63b8ff" points="416.17,-875.27 425.45,-870.16 415.01,-868.36 416.17,-875.27"/>
</a>
</g>
</g>
<!-- Node159&#45;&gt;Node113 -->
<g id="edge43_Node000159_Node000113" class="edge">
<title>Node159&#45;&gt;Node113</title>
<g id="a_edge43_Node000159_Node000113"><a xlink:title=" ">
<path fill="none" stroke="#63b8ff" d="M418.73,-462.34C404.06,-465.7 388.85,-471.75 378,-482.5 336.63,-523.49 382.34,-566.49 342,-608.5 336.96,-613.75 330.37,-617.47 323.51,-620.1"/>
<polygon fill="#63b8ff" stroke="#63b8ff" points="419.58,-465.74 428.74,-460.42 418.25,-458.87 419.58,-465.74"/>
</a>
</g>
</g>
<!-- Node162&#45;&gt;Node78 -->
<g id="edge50_Node000162_Node000078" class="edge">
<title>Node162&#45;&gt;Node78</title>
<g id="a_edge50_Node000162_Node000078"><a xlink:title=" ">
<path fill="none" stroke="#63b8ff" d="M436.5,-247.68C411.8,-259.74 374.93,-277.17 342,-290.5 333.83,-293.81 324.83,-297.09 316.55,-299.97"/>
<polygon fill="#63b8ff" stroke="#63b8ff" points="438.23,-250.73 445.66,-243.18 435.14,-244.45 438.23,-250.73"/>
</a>
</g>
</g>
<!-- Node162&#45;&gt;Node79 -->
<g id="edge51_Node000162_Node000079" class="edge">
<title>Node162&#45;&gt;Node79</title>
<g id="a_edge51_Node000162_Node000079"><a xlink:title=" ">
<path fill="none" stroke="#63b8ff" d="M414.79,-244.25C386.98,-250.2 352.9,-257.5 327.01,-263.04"/>
<polygon fill="#63b8ff" stroke="#63b8ff" points="415.68,-247.64 424.72,-242.12 414.21,-240.79 415.68,-247.64"/>
</a>
</g>
</g>
<!-- Node163&#45;&gt;Node5 -->
<g id="edge54_Node000163_Node000005" class="edge">
<title>Node163&#45;&gt;Node5</title>
<g id="a_edge54_Node000163_Node000005"><a xlink:title=" ">
<path fill="none" stroke="#63b8ff" d="M232.37,-250.63C231.9,-251.24 231.44,-251.86 231,-252.5 179.39,-327.96 241.97,-996.07 195,-1074.5 160.93,-1131.39 81.95,-1160.17 44.05,-1171.11"/>
<polygon fill="#63b8ff" stroke="#63b8ff" points="234.84,-253.12 239.56,-243.64 229.95,-248.1 234.84,-253.12"/>
</a>
</g>
</g>
<!-- Node163&#45;&gt;Node41 -->
<g id="edge55_Node000163_Node000041" class="edge">
<title>Node163&#45;&gt;Node41</title>
<g id="a_edge55_Node000163_Node000041"><a xlink:title=" ">
<path fill="none" stroke="#63b8ff" d="M232.43,-250.6C231.94,-251.22 231.46,-251.85 231,-252.5 197.46,-300.26 202.81,-718.67 195,-776.5 180.58,-883.27 149.75,-1010.52 140.91,-1045.94"/>
<polygon fill="#63b8ff" stroke="#63b8ff" points="235.06,-252.93 239.9,-243.51 230.24,-247.86 235.06,-252.93"/>
</a>
</g>
</g>
<!-- Node167&#45;&gt;Node47 -->
<g id="edge58_Node000167_Node000047" class="edge">
<title>Node167&#45;&gt;Node47</title>
<g id="a_edge58_Node000167_Node000047"><a xlink:title=" ">
<path fill="none" stroke="#63b8ff" d="M390.5,-91.4C385.83,-94.07 381.58,-97.39 378,-101.5 338.22,-147.18 349.16,-585.35 342,-645.5 327.5,-767.39 297.54,-913.74 289.52,-951.99"/>
<polygon fill="#63b8ff" stroke="#63b8ff" points="392.31,-94.42 399.92,-87.04 389.37,-88.07 392.31,-94.42"/>
</a>
</g>
</g>
<!-- Node169&#45;&gt;Node13 -->
<g id="edge61_Node000169_Node000013" class="edge">
<title>Node169&#45;&gt;Node13</title>
<g id="a_edge61_Node000169_Node000013"><a xlink:title=" ">
<path fill="none" stroke="#63b8ff" d="M424.76,-8.07C408,-9.69 389.75,-14.71 378,-27.5 332.43,-77.12 352.9,-262.02 342,-328.5 325.83,-427.17 298.15,-545.14 289.89,-579.6"/>
<polygon fill="#63b8ff" stroke="#63b8ff" points="425.15,-11.56 434.93,-7.47 424.74,-4.57 425.15,-11.56"/>
</a>
</g>
</g>
</g>
</svg>
