<?xml version="1.0" encoding="UTF-8" standalone="no"?>
<!DOCTYPE svg PUBLIC "-//W3C//DTD SVG 1.1//EN"
 "http://www.w3.org/Graphics/SVG/1.1/DTD/svg11.dtd">
<!-- Generated by graphviz version 2.43.0 (0)
 -->
<!-- Title: SSREphInput Pages: 1 -->
<svg width="242pt" height="876pt"
 viewBox="0.00 0.00 241.50 876.00" xmlns="http://www.w3.org/2000/svg" xmlns:xlink="http://www.w3.org/1999/xlink">
<g id="graph0" class="graph" transform="scale(1 1) rotate(0) translate(4 872)">
<title>SSREphInput</title>
<!-- Node1 -->
<g id="Node000001" class="node">
<title>Node1</title>
<g id="a_Node000001"><a xlink:href="structSSREphInput.html" target="_top" xlink:title=" ">
<path fill="white" stroke="#666666" stroke-width="2" d="M168,-57C168,-57 104,-57 104,-57 98,-57 92,-51 92,-45 92,-45 92,-12 92,-12 92,-6 98,0 104,0 104,0 168,0 168,0 174,0 180,-6 180,-12 180,-12 180,-45 180,-45 180,-51 174,-57 168,-57"/>
<text text-anchor="start" x="105" y="-40.5" font-family="Helvetica,sans-Serif" font-size="10.00">SSREphInput</text>
<text text-anchor="start" x="110.5" y="-25.5" font-family="Helvetica,sans-Serif" font-size="10.00">+</text>
<text text-anchor="start" x="130" y="-25.5" font-family="Helvetica,sans-Serif" font-size="10.00">valid</text>
<text text-anchor="start" x="134" y="-10.5" font-family="Helvetica,sans-Serif" font-size="10.00"> </text>
<polygon fill="#666666" stroke="#666666" points="100,-35.5 100,-35.5 172,-35.5 172,-35.5 100,-35.5"/>
<polygon fill="#666666" stroke="#666666" points="100,-20.5 100,-20.5 128,-20.5 128,-20.5 100,-20.5"/>
<polygon fill="#666666" stroke="#666666" points="128,-20.5 128,-20.5 172,-20.5 172,-20.5 128,-20.5"/>
<polygon fill="none" stroke="#666666" points="100,-4 100,-53 172,-53 172,-4 100,-4"/>
</a>
</g>
</g>
<!-- Node2 -->
<g id="Node000002" class="node">
<title>Node2</title>
<g id="a_Node000002"><a xlink:href="structEphValues.html" target="_top" xlink:title=" ">
<path fill="white" stroke="#666666" d="M162.5,-176C162.5,-176 109.5,-176 109.5,-176 103.5,-176 97.5,-170 97.5,-164 97.5,-164 97.5,-116 97.5,-116 97.5,-110 103.5,-104 109.5,-104 109.5,-104 162.5,-104 162.5,-104 168.5,-104 174.5,-110 174.5,-116 174.5,-116 174.5,-164 174.5,-164 174.5,-170 168.5,-176 162.5,-176"/>
<text text-anchor="start" x="111" y="-160" font-family="Helvetica,sans-Serif" font-size="10.00">EphValues</text>
<text text-anchor="start" x="111.5" y="-145" font-family="Helvetica,sans-Serif" font-size="10.00">+</text>
<text text-anchor="start" x="126" y="-145" font-family="Helvetica,sans-Serif" font-size="10.00">iode</text>
<text text-anchor="start" x="111.5" y="-130" font-family="Helvetica,sans-Serif" font-size="10.00">+</text>
<text text-anchor="start" x="126" y="-130" font-family="Helvetica,sans-Serif" font-size="10.00">ephVar</text>
<text text-anchor="start" x="134.5" y="-115" font-family="Helvetica,sans-Serif" font-size="10.00"> </text>
<polygon fill="#666666" stroke="#666666" points="106,-155 106,-155 167,-155 167,-155 106,-155"/>
<polygon fill="#666666" stroke="#666666" points="106,-125 106,-125 124,-125 124,-125 106,-125"/>
<polygon fill="#666666" stroke="#666666" points="124,-125 124,-125 167,-125 167,-125 124,-125"/>
<polygon fill="none" stroke="#666666" points="105.5,-108 105.5,-172 166.5,-172 166.5,-108 105.5,-108"/>
</a>
</g>
</g>
<!-- Node2&#45;&gt;Node1 -->
<g id="edge1_Node000001_Node000002" class="edge">
<title>Node2&#45;&gt;Node1</title>
<g id="a_edge1_Node000001_Node000002"><a xlink:title=" ">
<path fill="none" stroke="#63b8ff" d="M136,-103.75C136,-92.76 136,-80.56 136,-69.28"/>
<polygon fill="none" stroke="#63b8ff" points="136,-69.05 132,-63.05 136,-57.05 140,-63.05 136,-69.05"/>
</a>
</g>
<text text-anchor="middle" x="152" y="-78" font-family="Helvetica,sans-Serif" font-size="10.00" fill="grey"> +vals</text>
</g>
<!-- Node3 -->
<g id="Node000003" class="node">
<title>Node3</title>
<g id="a_Node000003"><a xlink:href="structGTime.html" target="_top" xlink:title="Time structure used throughout this software.">
<path fill="white" stroke="#666666" d="M134,-868C134,-868 12,-868 12,-868 6,-868 0,-862 0,-856 0,-856 0,-268 0,-268 0,-262 6,-256 12,-256 12,-256 134,-256 134,-256 140,-256 146,-262 146,-268 146,-268 146,-856 146,-856 146,-862 140,-868 134,-868"/>
<text text-anchor="start" x="56.5" y="-852" font-family="Helvetica,sans-Serif" font-size="10.00">GTime</text>
<text text-anchor="start" x="12" y="-837" font-family="Helvetica,sans-Serif" font-size="10.00">+</text>
<text text-anchor="start" x="25" y="-837" font-family="Helvetica,sans-Serif" font-size="10.00">bigTime</text>
<text text-anchor="start" x="12" y="-822" font-family="Helvetica,sans-Serif" font-size="10.00">+</text>
<text text-anchor="start" x="25" y="-822" font-family="Helvetica,sans-Serif" font-size="10.00">GTime()</text>
<text text-anchor="start" x="12" y="-807" font-family="Helvetica,sans-Serif" font-size="10.00">+</text>
<text text-anchor="start" x="25" y="-807" font-family="Helvetica,sans-Serif" font-size="10.00">GTime()</text>
<text text-anchor="start" x="12" y="-792" font-family="Helvetica,sans-Serif" font-size="10.00">+</text>
<text text-anchor="start" x="25" y="-792" font-family="Helvetica,sans-Serif" font-size="10.00">GTime()</text>
<text text-anchor="start" x="12" y="-777" font-family="Helvetica,sans-Serif" font-size="10.00">+</text>
<text text-anchor="start" x="25" y="-777" font-family="Helvetica,sans-Serif" font-size="10.00">to_string()</text>
<text text-anchor="start" x="12" y="-762" font-family="Helvetica,sans-Serif" font-size="10.00">+</text>
<text text-anchor="start" x="25" y="-762" font-family="Helvetica,sans-Serif" font-size="10.00">operator==()</text>
<text text-anchor="start" x="12" y="-747" font-family="Helvetica,sans-Serif" font-size="10.00">+</text>
<text text-anchor="start" x="25" y="-747" font-family="Helvetica,sans-Serif" font-size="10.00">operator!=()</text>
<text text-anchor="start" x="12" y="-732" font-family="Helvetica,sans-Serif" font-size="10.00">+</text>
<text text-anchor="start" x="25" y="-732" font-family="Helvetica,sans-Serif" font-size="10.00">operator&lt;()</text>
<text text-anchor="start" x="12" y="-717" font-family="Helvetica,sans-Serif" font-size="10.00">+</text>
<text text-anchor="start" x="25" y="-717" font-family="Helvetica,sans-Serif" font-size="10.00">operator&gt;()</text>
<text text-anchor="start" x="12" y="-702" font-family="Helvetica,sans-Serif" font-size="10.00">+</text>
<text text-anchor="start" x="25" y="-702" font-family="Helvetica,sans-Serif" font-size="10.00">operator&gt;=()</text>
<text text-anchor="start" x="12" y="-687" font-family="Helvetica,sans-Serif" font-size="10.00">+</text>
<text text-anchor="start" x="25" y="-687" font-family="Helvetica,sans-Serif" font-size="10.00">operator+()</text>
<text text-anchor="start" x="12" y="-672" font-family="Helvetica,sans-Serif" font-size="10.00">+</text>
<text text-anchor="start" x="25" y="-672" font-family="Helvetica,sans-Serif" font-size="10.00">operator+()</text>
<text text-anchor="start" x="12" y="-657" font-family="Helvetica,sans-Serif" font-size="10.00">+</text>
<text text-anchor="start" x="25" y="-657" font-family="Helvetica,sans-Serif" font-size="10.00">operator+()</text>
<text text-anchor="start" x="12" y="-642" font-family="Helvetica,sans-Serif" font-size="10.00">+</text>
<text text-anchor="start" x="25" y="-642" font-family="Helvetica,sans-Serif" font-size="10.00">operator+=()</text>
<text text-anchor="start" x="12" y="-627" font-family="Helvetica,sans-Serif" font-size="10.00">+</text>
<text text-anchor="start" x="25" y="-627" font-family="Helvetica,sans-Serif" font-size="10.00">operator&#45;=()</text>
<text text-anchor="start" x="12" y="-612" font-family="Helvetica,sans-Serif" font-size="10.00">+</text>
<text text-anchor="start" x="25" y="-612" font-family="Helvetica,sans-Serif" font-size="10.00">operator&#45;()</text>
<text text-anchor="start" x="12" y="-597" font-family="Helvetica,sans-Serif" font-size="10.00">+</text>
<text text-anchor="start" x="25" y="-597" font-family="Helvetica,sans-Serif" font-size="10.00">operator&#45;()</text>
<text text-anchor="start" x="12" y="-582" font-family="Helvetica,sans-Serif" font-size="10.00">+</text>
<text text-anchor="start" x="25" y="-582" font-family="Helvetica,sans-Serif" font-size="10.00">operator&#45;()</text>
<text text-anchor="start" x="12" y="-567" font-family="Helvetica,sans-Serif" font-size="10.00">+</text>
<text text-anchor="start" x="25" y="-567" font-family="Helvetica,sans-Serif" font-size="10.00">operator++()</text>
<text text-anchor="start" x="12" y="-552" font-family="Helvetica,sans-Serif" font-size="10.00">+</text>
<text text-anchor="start" x="25" y="-552" font-family="Helvetica,sans-Serif" font-size="10.00">GTime()</text>
<text text-anchor="start" x="12" y="-537" font-family="Helvetica,sans-Serif" font-size="10.00">+</text>
<text text-anchor="start" x="25" y="-537" font-family="Helvetica,sans-Serif" font-size="10.00">GTime()</text>
<text text-anchor="start" x="12" y="-522" font-family="Helvetica,sans-Serif" font-size="10.00">+</text>
<text text-anchor="start" x="25" y="-522" font-family="Helvetica,sans-Serif" font-size="10.00">GTime()</text>
<text text-anchor="start" x="12" y="-507" font-family="Helvetica,sans-Serif" font-size="10.00">+</text>
<text text-anchor="start" x="25" y="-507" font-family="Helvetica,sans-Serif" font-size="10.00">GTime()</text>
<text text-anchor="start" x="12" y="-492" font-family="Helvetica,sans-Serif" font-size="10.00">+</text>
<text text-anchor="start" x="25" y="-492" font-family="Helvetica,sans-Serif" font-size="10.00">GTime()</text>
<text text-anchor="start" x="12" y="-477" font-family="Helvetica,sans-Serif" font-size="10.00">+</text>
<text text-anchor="start" x="25" y="-477" font-family="Helvetica,sans-Serif" font-size="10.00">serialize()</text>
<text text-anchor="start" x="12" y="-462" font-family="Helvetica,sans-Serif" font-size="10.00">+</text>
<text text-anchor="start" x="25" y="-462" font-family="Helvetica,sans-Serif" font-size="10.00">floorTime()</text>
<text text-anchor="start" x="12" y="-447" font-family="Helvetica,sans-Serif" font-size="10.00">+</text>
<text text-anchor="start" x="25" y="-447" font-family="Helvetica,sans-Serif" font-size="10.00">gregString()</text>
<text text-anchor="start" x="12" y="-432" font-family="Helvetica,sans-Serif" font-size="10.00">+</text>
<text text-anchor="start" x="25" y="-432" font-family="Helvetica,sans-Serif" font-size="10.00">operator long double()</text>
<text text-anchor="start" x="12" y="-417" font-family="Helvetica,sans-Serif" font-size="10.00">+</text>
<text text-anchor="start" x="25" y="-417" font-family="Helvetica,sans-Serif" font-size="10.00">operator MjDateTT()</text>
<text text-anchor="start" x="12" y="-402" font-family="Helvetica,sans-Serif" font-size="10.00">+</text>
<text text-anchor="start" x="25" y="-402" font-family="Helvetica,sans-Serif" font-size="10.00">operator GEpoch()</text>
<text text-anchor="start" x="12" y="-387" font-family="Helvetica,sans-Serif" font-size="10.00">+</text>
<text text-anchor="start" x="25" y="-387" font-family="Helvetica,sans-Serif" font-size="10.00">operator UtcTime()</text>
<text text-anchor="start" x="12" y="-372" font-family="Helvetica,sans-Serif" font-size="10.00">+</text>
<text text-anchor="start" x="25" y="-372" font-family="Helvetica,sans-Serif" font-size="10.00">operator GWeek()</text>
<text text-anchor="start" x="12" y="-357" font-family="Helvetica,sans-Serif" font-size="10.00">+</text>
<text text-anchor="start" x="25" y="-357" font-family="Helvetica,sans-Serif" font-size="10.00">operator BWeek()</text>
<text text-anchor="start" x="12" y="-342" font-family="Helvetica,sans-Serif" font-size="10.00">+</text>
<text text-anchor="start" x="25" y="-342" font-family="Helvetica,sans-Serif" font-size="10.00">operator GTow()</text>
<text text-anchor="start" x="12" y="-327" font-family="Helvetica,sans-Serif" font-size="10.00">+</text>
<text text-anchor="start" x="25" y="-327" font-family="Helvetica,sans-Serif" font-size="10.00">operator BTow()</text>
<text text-anchor="start" x="12" y="-312" font-family="Helvetica,sans-Serif" font-size="10.00">+</text>
<text text-anchor="start" x="25" y="-312" font-family="Helvetica,sans-Serif" font-size="10.00">operator PTime()</text>
<text text-anchor="start" x="12" y="-297" font-family="Helvetica,sans-Serif" font-size="10.00">+</text>
<text text-anchor="start" x="25" y="-297" font-family="Helvetica,sans-Serif" font-size="10.00">operator string()</text>
<text text-anchor="start" x="12" y="-282" font-family="Helvetica,sans-Serif" font-size="10.00">+</text>
<text text-anchor="start" x="25" y="-282" font-family="Helvetica,sans-Serif" font-size="10.00">operator RTod()</text>
<text text-anchor="start" x="12" y="-267" font-family="Helvetica,sans-Serif" font-size="10.00">+</text>
<text text-anchor="start" x="25" y="-267" font-family="Helvetica,sans-Serif" font-size="10.00">noTime()</text>
<polygon fill="#666666" stroke="#666666" points="8,-847 8,-847 138,-847 138,-847 8,-847"/>
<polygon fill="#666666" stroke="#666666" points="8,-832 8,-832 23,-832 23,-832 8,-832"/>
<polygon fill="#666666" stroke="#666666" points="23,-832 23,-832 138,-832 138,-832 23,-832"/>
<polygon fill="none" stroke="#666666" points="8,-260 8,-864 138,-864 138,-260 8,-260"/>
</a>
</g>
</g>
<!-- Node3&#45;&gt;Node2 -->
<g id="edge2_Node000002_Node000003" class="edge">
<title>Node3&#45;&gt;Node2</title>
<g id="a_edge2_Node000002_Node000003"><a xlink:title=" ">
<path fill="none" stroke="#63b8ff" d="M118.78,-255.77C122.62,-230.22 126.09,-207.05 128.9,-188.33"/>
<polygon fill="none" stroke="#63b8ff" points="128.91,-188.27 125.84,-181.74 130.69,-176.4 133.76,-182.93 128.91,-188.27"/>
</a>
</g>
<text text-anchor="middle" x="144" y="-213.5" font-family="Helvetica,sans-Serif" font-size="10.00" fill="grey"> +time</text>
</g>
<!-- Node4 -->
<g id="Node000004" class="node">
<title>Node4</title>
<g id="a_Node000004"><a xlink:title=" ">
<path fill="white" stroke="#666666" d="M221.5,-590.5C221.5,-590.5 176.5,-590.5 176.5,-590.5 170.5,-590.5 164.5,-584.5 164.5,-578.5 164.5,-578.5 164.5,-545.5 164.5,-545.5 164.5,-539.5 170.5,-533.5 176.5,-533.5 176.5,-533.5 221.5,-533.5 221.5,-533.5 227.5,-533.5 233.5,-539.5 233.5,-545.5 233.5,-545.5 233.5,-578.5 233.5,-578.5 233.5,-584.5 227.5,-590.5 221.5,-590.5"/>
<text text-anchor="start" x="178" y="-574" font-family="Helvetica,sans-Serif" font-size="10.00">Vector3d</text>
<text text-anchor="start" x="197.5" y="-559" font-family="Helvetica,sans-Serif" font-size="10.00"> </text>
<text text-anchor="start" x="197.5" y="-544" font-family="Helvetica,sans-Serif" font-size="10.00"> </text>
<polygon fill="#666666" stroke="#666666" points="173,-569 173,-569 226,-569 226,-569 173,-569"/>
<polygon fill="#666666" stroke="#666666" points="173,-554 173,-554 226,-554 226,-554 173,-554"/>
<polygon fill="none" stroke="#666666" points="172.5,-537.5 172.5,-586.5 225.5,-586.5 225.5,-537.5 172.5,-537.5"/>
</a>
</g>
</g>
<!-- Node4&#45;&gt;Node2 -->
<g id="edge3_Node000002_Node000004" class="edge">
<title>Node4&#45;&gt;Node2</title>
<g id="a_edge3_Node000002_Node000004"><a xlink:title=" ">
<path fill="none" stroke="#63b8ff" d="M200.21,-533.1C202.11,-470.77 202.3,-316.09 165,-194 164.31,-191.74 163.52,-189.47 162.65,-187.21"/>
<polygon fill="none" stroke="#63b8ff" points="162.57,-187.03 156.49,-183.15 157.73,-176.05 163.81,-179.93 162.57,-187.03"/>
</a>
</g>
<text text-anchor="middle" x="200" y="-230" font-family="Helvetica,sans-Serif" font-size="10.00" fill="grey"> +brdcPos</text>
<text text-anchor="middle" x="200" y="-219" font-family="Helvetica,sans-Serif" font-size="10.00" fill="grey">+brdcVel</text>
<text text-anchor="middle" x="200" y="-208" font-family="Helvetica,sans-Serif" font-size="10.00" fill="grey">+precPos</text>
<text text-anchor="middle" x="200" y="-197" font-family="Helvetica,sans-Serif" font-size="10.00" fill="grey">+precVel</text>
</g>
</g>
</svg>
