<?xml version="1.0" encoding="UTF-8" standalone="no"?>
<!DOCTYPE svg PUBLIC "-//W3C//DTD SVG 1.1//EN"
 "http://www.w3.org/Graphics/SVG/1.1/DTD/svg11.dtd">
<!-- Generated by graphviz version 2.43.0 (0)
 -->
<!-- Title: Ceph Pages: 1 -->
<svg width="383pt" height="1112pt"
 viewBox="0.00 0.00 382.50 1112.00" xmlns="http://www.w3.org/2000/svg" xmlns:xlink="http://www.w3.org/1999/xlink">
<g id="graph0" class="graph" transform="scale(1 1) rotate(0) translate(4 1108)">
<title>Ceph</title>
<!-- Node1 -->
<g id="Node000001" class="node">
<title>Node1</title>
<g id="a_Node000001"><a xlink:href="structCeph.html" target="_top" xlink:title="GPS/QZS CNAV/CNAV&#45;2 or BDS CNAV&#45;1/CNAV&#45;2/CNAV&#45;3 ephemeris.">
<path fill="white" stroke="#666666" stroke-width="2" d="M171.5,-297C171.5,-297 131.5,-297 131.5,-297 125.5,-297 119.5,-291 119.5,-285 119.5,-285 119.5,-12 119.5,-12 119.5,-6 125.5,0 131.5,0 131.5,0 171.5,0 171.5,0 177.5,0 183.5,-6 183.5,-12 183.5,-12 183.5,-285 183.5,-285 183.5,-291 177.5,-297 171.5,-297"/>
<text text-anchor="start" x="139" y="-280.5" font-family="Helvetica,sans-Serif" font-size="10.00">Ceph</text>
<text text-anchor="start" x="131.5" y="-265.5" font-family="Helvetica,sans-Serif" font-size="10.00">+</text>
<text text-anchor="start" x="144.5" y="-265.5" font-family="Helvetica,sans-Serif" font-size="10.00">type</text>
<text text-anchor="start" x="131.5" y="-250.5" font-family="Helvetica,sans-Serif" font-size="10.00">+</text>
<text text-anchor="start" x="144.5" y="-250.5" font-family="Helvetica,sans-Serif" font-size="10.00">orb</text>
<text text-anchor="start" x="131.5" y="-235.5" font-family="Helvetica,sans-Serif" font-size="10.00">+</text>
<text text-anchor="start" x="144.5" y="-235.5" font-family="Helvetica,sans-Serif" font-size="10.00">iode</text>
<text text-anchor="start" x="131.5" y="-220.5" font-family="Helvetica,sans-Serif" font-size="10.00">+</text>
<text text-anchor="start" x="144.5" y="-220.5" font-family="Helvetica,sans-Serif" font-size="10.00">iodc</text>
<text text-anchor="start" x="131.5" y="-205.5" font-family="Helvetica,sans-Serif" font-size="10.00">+</text>
<text text-anchor="start" x="144.5" y="-205.5" font-family="Helvetica,sans-Serif" font-size="10.00">svh</text>
<text text-anchor="start" x="131.5" y="-190.5" font-family="Helvetica,sans-Serif" font-size="10.00">+</text>
<text text-anchor="start" x="144.5" y="-190.5" font-family="Helvetica,sans-Serif" font-size="10.00">wnop</text>
<text text-anchor="start" x="131.5" y="-175.5" font-family="Helvetica,sans-Serif" font-size="10.00">+</text>
<text text-anchor="start" x="144.5" y="-175.5" font-family="Helvetica,sans-Serif" font-size="10.00">flag</text>
<text text-anchor="start" x="131.5" y="-160.5" font-family="Helvetica,sans-Serif" font-size="10.00">+</text>
<text text-anchor="start" x="144.5" y="-160.5" font-family="Helvetica,sans-Serif" font-size="10.00">ura</text>
<text text-anchor="start" x="131.5" y="-145.5" font-family="Helvetica,sans-Serif" font-size="10.00">+</text>
<text text-anchor="start" x="144.5" y="-145.5" font-family="Helvetica,sans-Serif" font-size="10.00">isc</text>
<text text-anchor="start" x="131.5" y="-130.5" font-family="Helvetica,sans-Serif" font-size="10.00">+</text>
<text text-anchor="start" x="144.5" y="-130.5" font-family="Helvetica,sans-Serif" font-size="10.00">sis</text>
<text text-anchor="start" x="131.5" y="-115.5" font-family="Helvetica,sans-Serif" font-size="10.00">+</text>
<text text-anchor="start" x="144.5" y="-115.5" font-family="Helvetica,sans-Serif" font-size="10.00">tops</text>
<text text-anchor="start" x="131.5" y="-100.5" font-family="Helvetica,sans-Serif" font-size="10.00">+</text>
<text text-anchor="start" x="144.5" y="-100.5" font-family="Helvetica,sans-Serif" font-size="10.00">toes</text>
<text text-anchor="start" x="131.5" y="-85.5" font-family="Helvetica,sans-Serif" font-size="10.00">+</text>
<text text-anchor="start" x="144.5" y="-85.5" font-family="Helvetica,sans-Serif" font-size="10.00">f0</text>
<text text-anchor="start" x="131.5" y="-70.5" font-family="Helvetica,sans-Serif" font-size="10.00">+</text>
<text text-anchor="start" x="144.5" y="-70.5" font-family="Helvetica,sans-Serif" font-size="10.00">f1</text>
<text text-anchor="start" x="131.5" y="-55.5" font-family="Helvetica,sans-Serif" font-size="10.00">+</text>
<text text-anchor="start" x="144.5" y="-55.5" font-family="Helvetica,sans-Serif" font-size="10.00">f2</text>
<text text-anchor="start" x="131.5" y="-40.5" font-family="Helvetica,sans-Serif" font-size="10.00">+</text>
<text text-anchor="start" x="144.5" y="-40.5" font-family="Helvetica,sans-Serif" font-size="10.00">tgd</text>
<text text-anchor="start" x="131.5" y="-25.5" font-family="Helvetica,sans-Serif" font-size="10.00">+</text>
<text text-anchor="start" x="144.5" y="-25.5" font-family="Helvetica,sans-Serif" font-size="10.00">ttms</text>
<text text-anchor="start" x="149.5" y="-10.5" font-family="Helvetica,sans-Serif" font-size="10.00"> </text>
<polygon fill="#666666" stroke="#666666" points="127.5,-275.5 127.5,-275.5 175.5,-275.5 175.5,-275.5 127.5,-275.5"/>
<polygon fill="#666666" stroke="#666666" points="127.5,-20.5 127.5,-20.5 142.5,-20.5 142.5,-20.5 127.5,-20.5"/>
<polygon fill="#666666" stroke="#666666" points="142.5,-20.5 142.5,-20.5 175.5,-20.5 175.5,-20.5 142.5,-20.5"/>
<polygon fill="none" stroke="#666666" points="127.5,-4 127.5,-293 175.5,-293 175.5,-4 127.5,-4"/>
</a>
</g>
</g>
<!-- Node2 -->
<g id="Node000002" class="node">
<title>Node2</title>
<g id="a_Node000002"><a xlink:href="structKeplerEph.html" target="_top" xlink:title=" ">
<path fill="white" stroke="#666666" d="M63,-831.5C63,-831.5 12,-831.5 12,-831.5 6,-831.5 0,-825.5 0,-819.5 0,-819.5 0,-546.5 0,-546.5 0,-540.5 6,-534.5 12,-534.5 12,-534.5 63,-534.5 63,-534.5 69,-534.5 75,-540.5 75,-546.5 75,-546.5 75,-819.5 75,-819.5 75,-825.5 69,-831.5 63,-831.5"/>
<text text-anchor="start" x="13.5" y="-815" font-family="Helvetica,sans-Serif" font-size="10.00">KeplerEph</text>
<text text-anchor="start" x="14" y="-800" font-family="Helvetica,sans-Serif" font-size="10.00">+</text>
<text text-anchor="start" x="28.5" y="-800" font-family="Helvetica,sans-Serif" font-size="10.00">A</text>
<text text-anchor="start" x="14" y="-785" font-family="Helvetica,sans-Serif" font-size="10.00">+</text>
<text text-anchor="start" x="28.5" y="-785" font-family="Helvetica,sans-Serif" font-size="10.00">e</text>
<text text-anchor="start" x="14" y="-770" font-family="Helvetica,sans-Serif" font-size="10.00">+</text>
<text text-anchor="start" x="28.5" y="-770" font-family="Helvetica,sans-Serif" font-size="10.00">i0</text>
<text text-anchor="start" x="14" y="-755" font-family="Helvetica,sans-Serif" font-size="10.00">+</text>
<text text-anchor="start" x="28.5" y="-755" font-family="Helvetica,sans-Serif" font-size="10.00">OMG0</text>
<text text-anchor="start" x="14" y="-740" font-family="Helvetica,sans-Serif" font-size="10.00">+</text>
<text text-anchor="start" x="28.5" y="-740" font-family="Helvetica,sans-Serif" font-size="10.00">omg</text>
<text text-anchor="start" x="14" y="-725" font-family="Helvetica,sans-Serif" font-size="10.00">+</text>
<text text-anchor="start" x="28.5" y="-725" font-family="Helvetica,sans-Serif" font-size="10.00">M0</text>
<text text-anchor="start" x="14" y="-710" font-family="Helvetica,sans-Serif" font-size="10.00">+</text>
<text text-anchor="start" x="28.5" y="-710" font-family="Helvetica,sans-Serif" font-size="10.00">deln</text>
<text text-anchor="start" x="14" y="-695" font-family="Helvetica,sans-Serif" font-size="10.00">+</text>
<text text-anchor="start" x="28.5" y="-695" font-family="Helvetica,sans-Serif" font-size="10.00">OMGd</text>
<text text-anchor="start" x="14" y="-680" font-family="Helvetica,sans-Serif" font-size="10.00">+</text>
<text text-anchor="start" x="28.5" y="-680" font-family="Helvetica,sans-Serif" font-size="10.00">idot</text>
<text text-anchor="start" x="14" y="-665" font-family="Helvetica,sans-Serif" font-size="10.00">+</text>
<text text-anchor="start" x="28.5" y="-665" font-family="Helvetica,sans-Serif" font-size="10.00">crc</text>
<text text-anchor="start" x="14" y="-650" font-family="Helvetica,sans-Serif" font-size="10.00">+</text>
<text text-anchor="start" x="28.5" y="-650" font-family="Helvetica,sans-Serif" font-size="10.00">crs</text>
<text text-anchor="start" x="14" y="-635" font-family="Helvetica,sans-Serif" font-size="10.00">+</text>
<text text-anchor="start" x="28.5" y="-635" font-family="Helvetica,sans-Serif" font-size="10.00">cuc</text>
<text text-anchor="start" x="14" y="-620" font-family="Helvetica,sans-Serif" font-size="10.00">+</text>
<text text-anchor="start" x="28.5" y="-620" font-family="Helvetica,sans-Serif" font-size="10.00">cus</text>
<text text-anchor="start" x="14" y="-605" font-family="Helvetica,sans-Serif" font-size="10.00">+</text>
<text text-anchor="start" x="28.5" y="-605" font-family="Helvetica,sans-Serif" font-size="10.00">cic</text>
<text text-anchor="start" x="14" y="-590" font-family="Helvetica,sans-Serif" font-size="10.00">+</text>
<text text-anchor="start" x="28.5" y="-590" font-family="Helvetica,sans-Serif" font-size="10.00">cis</text>
<text text-anchor="start" x="14" y="-575" font-family="Helvetica,sans-Serif" font-size="10.00">+</text>
<text text-anchor="start" x="28.5" y="-575" font-family="Helvetica,sans-Serif" font-size="10.00">dn0d</text>
<text text-anchor="start" x="14" y="-560" font-family="Helvetica,sans-Serif" font-size="10.00">+</text>
<text text-anchor="start" x="28.5" y="-560" font-family="Helvetica,sans-Serif" font-size="10.00">Adot</text>
<text text-anchor="start" x="36" y="-545" font-family="Helvetica,sans-Serif" font-size="10.00"> </text>
<polygon fill="#666666" stroke="#666666" points="8.5,-810 8.5,-810 67.5,-810 67.5,-810 8.5,-810"/>
<polygon fill="#666666" stroke="#666666" points="8.5,-555 8.5,-555 26.5,-555 26.5,-555 8.5,-555"/>
<polygon fill="#666666" stroke="#666666" points="26.5,-555 26.5,-555 67.5,-555 67.5,-555 26.5,-555"/>
<polygon fill="none" stroke="#666666" points="8,-538.5 8,-827.5 67,-827.5 67,-538.5 8,-538.5"/>
</a>
</g>
</g>
<!-- Node2&#45;&gt;Node1 -->
<g id="edge1_Node000001_Node000002" class="edge">
<title>Node2&#45;&gt;Node1</title>
<g id="a_edge1_Node000001_Node000002"><a xlink:title=" ">
<path fill="none" stroke="#63b8ff" d="M56.99,-524.16C64.02,-476.6 72.89,-424.45 83.5,-377 93.24,-333.45 106.9,-286.06 119.43,-245.85"/>
<polygon fill="none" stroke="#63b8ff" points="53.5,-523.83 55.51,-534.23 60.42,-524.84 53.5,-523.83"/>
</a>
</g>
</g>
<!-- Node3 -->
<g id="Node000003" class="node">
<title>Node3</title>
<g id="a_Node000003"><a xlink:href="structSatSys.html" target="_top" xlink:title="Object holding satellite id, and providing related functions.">
<path fill="white" stroke="#666666" d="M198,-824C198,-824 105,-824 105,-824 99,-824 93,-818 93,-812 93,-812 93,-554 93,-554 93,-548 99,-542 105,-542 105,-542 198,-542 198,-542 204,-542 210,-548 210,-554 210,-554 210,-812 210,-812 210,-818 204,-824 198,-824"/>
<text text-anchor="start" x="135" y="-808" font-family="Helvetica,sans-Serif" font-size="10.00">SatSys</text>
<text text-anchor="start" x="105.5" y="-793" font-family="Helvetica,sans-Serif" font-size="10.00">+</text>
<text text-anchor="start" x="118.5" y="-793" font-family="Helvetica,sans-Serif" font-size="10.00">sys</text>
<text text-anchor="start" x="105.5" y="-778" font-family="Helvetica,sans-Serif" font-size="10.00">+</text>
<text text-anchor="start" x="118.5" y="-778" font-family="Helvetica,sans-Serif" font-size="10.00">prn</text>
<text text-anchor="start" x="105.5" y="-763" font-family="Helvetica,sans-Serif" font-size="10.00">+</text>
<text text-anchor="start" x="118.5" y="-763" font-family="Helvetica,sans-Serif" font-size="10.00">SatSys()</text>
<text text-anchor="start" x="105.5" y="-748" font-family="Helvetica,sans-Serif" font-size="10.00">+</text>
<text text-anchor="start" x="118.5" y="-748" font-family="Helvetica,sans-Serif" font-size="10.00">sysChar()</text>
<text text-anchor="start" x="105.5" y="-733" font-family="Helvetica,sans-Serif" font-size="10.00">+</text>
<text text-anchor="start" x="118.5" y="-733" font-family="Helvetica,sans-Serif" font-size="10.00">getId()</text>
<text text-anchor="start" x="105.5" y="-718" font-family="Helvetica,sans-Serif" font-size="10.00">+</text>
<text text-anchor="start" x="118.5" y="-718" font-family="Helvetica,sans-Serif" font-size="10.00">operator int()</text>
<text text-anchor="start" x="105.5" y="-703" font-family="Helvetica,sans-Serif" font-size="10.00">+</text>
<text text-anchor="start" x="118.5" y="-703" font-family="Helvetica,sans-Serif" font-size="10.00">setBlockType()</text>
<text text-anchor="start" x="105.5" y="-688" font-family="Helvetica,sans-Serif" font-size="10.00">+</text>
<text text-anchor="start" x="118.5" y="-688" font-family="Helvetica,sans-Serif" font-size="10.00">setSvn()</text>
<text text-anchor="start" x="105.5" y="-673" font-family="Helvetica,sans-Serif" font-size="10.00">+</text>
<text text-anchor="start" x="118.5" y="-673" font-family="Helvetica,sans-Serif" font-size="10.00">blockType()</text>
<text text-anchor="start" x="105.5" y="-658" font-family="Helvetica,sans-Serif" font-size="10.00">+</text>
<text text-anchor="start" x="118.5" y="-658" font-family="Helvetica,sans-Serif" font-size="10.00">svn()</text>
<text text-anchor="start" x="105.5" y="-643" font-family="Helvetica,sans-Serif" font-size="10.00">+</text>
<text text-anchor="start" x="118.5" y="-643" font-family="Helvetica,sans-Serif" font-size="10.00">fromHash()</text>
<text text-anchor="start" x="105.5" y="-628" font-family="Helvetica,sans-Serif" font-size="10.00">+</text>
<text text-anchor="start" x="118.5" y="-628" font-family="Helvetica,sans-Serif" font-size="10.00">id()</text>
<text text-anchor="start" x="105.5" y="-613" font-family="Helvetica,sans-Serif" font-size="10.00">+</text>
<text text-anchor="start" x="118.5" y="-613" font-family="Helvetica,sans-Serif" font-size="10.00">operator string()</text>
<text text-anchor="start" x="105.5" y="-598" font-family="Helvetica,sans-Serif" font-size="10.00">+</text>
<text text-anchor="start" x="118.5" y="-598" font-family="Helvetica,sans-Serif" font-size="10.00">SatSys()</text>
<text text-anchor="start" x="105.5" y="-583" font-family="Helvetica,sans-Serif" font-size="10.00">+</text>
<text text-anchor="start" x="118.5" y="-583" font-family="Helvetica,sans-Serif" font-size="10.00">sysName()</text>
<text text-anchor="start" x="105.5" y="-568" font-family="Helvetica,sans-Serif" font-size="10.00">+</text>
<text text-anchor="start" x="118.5" y="-568" font-family="Helvetica,sans-Serif" font-size="10.00">serialize()</text>
<text text-anchor="start" x="105.5" y="-553" font-family="Helvetica,sans-Serif" font-size="10.00">+</text>
<text text-anchor="start" x="118.5" y="-553" font-family="Helvetica,sans-Serif" font-size="10.00">sysFromChar()</text>
<polygon fill="#666666" stroke="#666666" points="101.5,-803 101.5,-803 202.5,-803 202.5,-803 101.5,-803"/>
<polygon fill="#666666" stroke="#666666" points="101.5,-773 101.5,-773 116.5,-773 116.5,-773 101.5,-773"/>
<polygon fill="#666666" stroke="#666666" points="116.5,-773 116.5,-773 202.5,-773 202.5,-773 116.5,-773"/>
<polygon fill="none" stroke="#666666" points="101,-546 101,-820 202,-820 202,-546 101,-546"/>
</a>
</g>
</g>
<!-- Node3&#45;&gt;Node1 -->
<g id="edge2_Node000001_Node000003" class="edge">
<title>Node3&#45;&gt;Node1</title>
<g id="a_edge2_Node000001_Node000003"><a xlink:title=" ">
<path fill="none" stroke="#63b8ff" d="M151.5,-541.74C151.5,-470.38 151.5,-383.31 151.5,-309.36"/>
<polygon fill="none" stroke="#63b8ff" points="151.5,-309.13 147.5,-303.13 151.5,-297.13 155.5,-303.13 151.5,-309.13"/>
</a>
</g>
<text text-anchor="middle" x="165.5" y="-334.5" font-family="Helvetica,sans-Serif" font-size="10.00" fill="grey"> +Sat</text>
</g>
<!-- Node4 -->
<g id="Node000004" class="node">
<title>Node4</title>
<g id="a_Node000004"><a xlink:title=" ">
<path fill="#fff0f0" stroke="red" d="M205.5,-1104C205.5,-1104 97.5,-1104 97.5,-1104 91.5,-1104 85.5,-1098 85.5,-1092 85.5,-1092 85.5,-1048 85.5,-1048 85.5,-1042 91.5,-1036 97.5,-1036 97.5,-1036 205.5,-1036 205.5,-1036 211.5,-1036 217.5,-1042 217.5,-1048 217.5,-1048 217.5,-1092 217.5,-1092 217.5,-1098 211.5,-1104 205.5,-1104"/>
<text text-anchor="start" x="98.5" y="-1088" font-family="Helvetica,sans-Serif" font-size="10.00">map&lt; SatSys, SatSys</text>
<text text-anchor="start" x="123" y="-1077" font-family="Helvetica,sans-Serif" font-size="10.00">::SatData &gt;</text>
<text text-anchor="start" x="149.5" y="-1062" font-family="Helvetica,sans-Serif" font-size="10.00"> </text>
<text text-anchor="start" x="149.5" y="-1047" font-family="Helvetica,sans-Serif" font-size="10.00"> </text>
<polygon fill="red" stroke="red" points="93.5,-1072 93.5,-1072 209.5,-1072 209.5,-1072 93.5,-1072"/>
<polygon fill="red" stroke="red" points="93.5,-1057 93.5,-1057 209.5,-1057 209.5,-1057 93.5,-1057"/>
<polygon fill="none" stroke="red" points="93.5,-1040 93.5,-1100 209.5,-1100 209.5,-1040 93.5,-1040"/>
</a>
</g>
</g>
<!-- Node4&#45;&gt;Node3 -->
<g id="edge3_Node000003_Node000004" class="edge">
<title>Node4&#45;&gt;Node3</title>
<g id="a_edge3_Node000003_Node000004"><a xlink:title=" ">
<path fill="none" stroke="#63b8ff" d="M151.5,-1035.84C151.5,-991.44 151.5,-909.71 151.5,-836.2"/>
<polygon fill="none" stroke="#63b8ff" points="151.5,-836.01 147.5,-830.01 151.5,-824.01 155.5,-830.01 151.5,-836.01"/>
</a>
</g>
<text text-anchor="middle" x="187" y="-1010" font-family="Helvetica,sans-Serif" font-size="10.00" fill="grey"> +satDataMap</text>
</g>
<!-- Node6 -->
<g id="Node000006" class="node">
<title>Node6</title>
<g id="a_Node000006"><a xlink:href="structGTime.html" target="_top" xlink:title="Time structure used throughout this software.">
<path fill="white" stroke="#666666" d="M362.5,-989C362.5,-989 240.5,-989 240.5,-989 234.5,-989 228.5,-983 228.5,-977 228.5,-977 228.5,-389 228.5,-389 228.5,-383 234.5,-377 240.5,-377 240.5,-377 362.5,-377 362.5,-377 368.5,-377 374.5,-383 374.5,-389 374.5,-389 374.5,-977 374.5,-977 374.5,-983 368.5,-989 362.5,-989"/>
<text text-anchor="start" x="285" y="-973" font-family="Helvetica,sans-Serif" font-size="10.00">GTime</text>
<text text-anchor="start" x="240.5" y="-958" font-family="Helvetica,sans-Serif" font-size="10.00">+</text>
<text text-anchor="start" x="253.5" y="-958" font-family="Helvetica,sans-Serif" font-size="10.00">bigTime</text>
<text text-anchor="start" x="240.5" y="-943" font-family="Helvetica,sans-Serif" font-size="10.00">+</text>
<text text-anchor="start" x="253.5" y="-943" font-family="Helvetica,sans-Serif" font-size="10.00">GTime()</text>
<text text-anchor="start" x="240.5" y="-928" font-family="Helvetica,sans-Serif" font-size="10.00">+</text>
<text text-anchor="start" x="253.5" y="-928" font-family="Helvetica,sans-Serif" font-size="10.00">GTime()</text>
<text text-anchor="start" x="240.5" y="-913" font-family="Helvetica,sans-Serif" font-size="10.00">+</text>
<text text-anchor="start" x="253.5" y="-913" font-family="Helvetica,sans-Serif" font-size="10.00">GTime()</text>
<text text-anchor="start" x="240.5" y="-898" font-family="Helvetica,sans-Serif" font-size="10.00">+</text>
<text text-anchor="start" x="253.5" y="-898" font-family="Helvetica,sans-Serif" font-size="10.00">to_string()</text>
<text text-anchor="start" x="240.5" y="-883" font-family="Helvetica,sans-Serif" font-size="10.00">+</text>
<text text-anchor="start" x="253.5" y="-883" font-family="Helvetica,sans-Serif" font-size="10.00">operator==()</text>
<text text-anchor="start" x="240.5" y="-868" font-family="Helvetica,sans-Serif" font-size="10.00">+</text>
<text text-anchor="start" x="253.5" y="-868" font-family="Helvetica,sans-Serif" font-size="10.00">operator!=()</text>
<text text-anchor="start" x="240.5" y="-853" font-family="Helvetica,sans-Serif" font-size="10.00">+</text>
<text text-anchor="start" x="253.5" y="-853" font-family="Helvetica,sans-Serif" font-size="10.00">operator&lt;()</text>
<text text-anchor="start" x="240.5" y="-838" font-family="Helvetica,sans-Serif" font-size="10.00">+</text>
<text text-anchor="start" x="253.5" y="-838" font-family="Helvetica,sans-Serif" font-size="10.00">operator&gt;()</text>
<text text-anchor="start" x="240.5" y="-823" font-family="Helvetica,sans-Serif" font-size="10.00">+</text>
<text text-anchor="start" x="253.5" y="-823" font-family="Helvetica,sans-Serif" font-size="10.00">operator&gt;=()</text>
<text text-anchor="start" x="240.5" y="-808" font-family="Helvetica,sans-Serif" font-size="10.00">+</text>
<text text-anchor="start" x="253.5" y="-808" font-family="Helvetica,sans-Serif" font-size="10.00">operator+()</text>
<text text-anchor="start" x="240.5" y="-793" font-family="Helvetica,sans-Serif" font-size="10.00">+</text>
<text text-anchor="start" x="253.5" y="-793" font-family="Helvetica,sans-Serif" font-size="10.00">operator+()</text>
<text text-anchor="start" x="240.5" y="-778" font-family="Helvetica,sans-Serif" font-size="10.00">+</text>
<text text-anchor="start" x="253.5" y="-778" font-family="Helvetica,sans-Serif" font-size="10.00">operator+()</text>
<text text-anchor="start" x="240.5" y="-763" font-family="Helvetica,sans-Serif" font-size="10.00">+</text>
<text text-anchor="start" x="253.5" y="-763" font-family="Helvetica,sans-Serif" font-size="10.00">operator+=()</text>
<text text-anchor="start" x="240.5" y="-748" font-family="Helvetica,sans-Serif" font-size="10.00">+</text>
<text text-anchor="start" x="253.5" y="-748" font-family="Helvetica,sans-Serif" font-size="10.00">operator&#45;=()</text>
<text text-anchor="start" x="240.5" y="-733" font-family="Helvetica,sans-Serif" font-size="10.00">+</text>
<text text-anchor="start" x="253.5" y="-733" font-family="Helvetica,sans-Serif" font-size="10.00">operator&#45;()</text>
<text text-anchor="start" x="240.5" y="-718" font-family="Helvetica,sans-Serif" font-size="10.00">+</text>
<text text-anchor="start" x="253.5" y="-718" font-family="Helvetica,sans-Serif" font-size="10.00">operator&#45;()</text>
<text text-anchor="start" x="240.5" y="-703" font-family="Helvetica,sans-Serif" font-size="10.00">+</text>
<text text-anchor="start" x="253.5" y="-703" font-family="Helvetica,sans-Serif" font-size="10.00">operator&#45;()</text>
<text text-anchor="start" x="240.5" y="-688" font-family="Helvetica,sans-Serif" font-size="10.00">+</text>
<text text-anchor="start" x="253.5" y="-688" font-family="Helvetica,sans-Serif" font-size="10.00">operator++()</text>
<text text-anchor="start" x="240.5" y="-673" font-family="Helvetica,sans-Serif" font-size="10.00">+</text>
<text text-anchor="start" x="253.5" y="-673" font-family="Helvetica,sans-Serif" font-size="10.00">GTime()</text>
<text text-anchor="start" x="240.5" y="-658" font-family="Helvetica,sans-Serif" font-size="10.00">+</text>
<text text-anchor="start" x="253.5" y="-658" font-family="Helvetica,sans-Serif" font-size="10.00">GTime()</text>
<text text-anchor="start" x="240.5" y="-643" font-family="Helvetica,sans-Serif" font-size="10.00">+</text>
<text text-anchor="start" x="253.5" y="-643" font-family="Helvetica,sans-Serif" font-size="10.00">GTime()</text>
<text text-anchor="start" x="240.5" y="-628" font-family="Helvetica,sans-Serif" font-size="10.00">+</text>
<text text-anchor="start" x="253.5" y="-628" font-family="Helvetica,sans-Serif" font-size="10.00">GTime()</text>
<text text-anchor="start" x="240.5" y="-613" font-family="Helvetica,sans-Serif" font-size="10.00">+</text>
<text text-anchor="start" x="253.5" y="-613" font-family="Helvetica,sans-Serif" font-size="10.00">GTime()</text>
<text text-anchor="start" x="240.5" y="-598" font-family="Helvetica,sans-Serif" font-size="10.00">+</text>
<text text-anchor="start" x="253.5" y="-598" font-family="Helvetica,sans-Serif" font-size="10.00">serialize()</text>
<text text-anchor="start" x="240.5" y="-583" font-family="Helvetica,sans-Serif" font-size="10.00">+</text>
<text text-anchor="start" x="253.5" y="-583" font-family="Helvetica,sans-Serif" font-size="10.00">floorTime()</text>
<text text-anchor="start" x="240.5" y="-568" font-family="Helvetica,sans-Serif" font-size="10.00">+</text>
<text text-anchor="start" x="253.5" y="-568" font-family="Helvetica,sans-Serif" font-size="10.00">gregString()</text>
<text text-anchor="start" x="240.5" y="-553" font-family="Helvetica,sans-Serif" font-size="10.00">+</text>
<text text-anchor="start" x="253.5" y="-553" font-family="Helvetica,sans-Serif" font-size="10.00">operator long double()</text>
<text text-anchor="start" x="240.5" y="-538" font-family="Helvetica,sans-Serif" font-size="10.00">+</text>
<text text-anchor="start" x="253.5" y="-538" font-family="Helvetica,sans-Serif" font-size="10.00">operator MjDateTT()</text>
<text text-anchor="start" x="240.5" y="-523" font-family="Helvetica,sans-Serif" font-size="10.00">+</text>
<text text-anchor="start" x="253.5" y="-523" font-family="Helvetica,sans-Serif" font-size="10.00">operator GEpoch()</text>
<text text-anchor="start" x="240.5" y="-508" font-family="Helvetica,sans-Serif" font-size="10.00">+</text>
<text text-anchor="start" x="253.5" y="-508" font-family="Helvetica,sans-Serif" font-size="10.00">operator UtcTime()</text>
<text text-anchor="start" x="240.5" y="-493" font-family="Helvetica,sans-Serif" font-size="10.00">+</text>
<text text-anchor="start" x="253.5" y="-493" font-family="Helvetica,sans-Serif" font-size="10.00">operator GWeek()</text>
<text text-anchor="start" x="240.5" y="-478" font-family="Helvetica,sans-Serif" font-size="10.00">+</text>
<text text-anchor="start" x="253.5" y="-478" font-family="Helvetica,sans-Serif" font-size="10.00">operator BWeek()</text>
<text text-anchor="start" x="240.5" y="-463" font-family="Helvetica,sans-Serif" font-size="10.00">+</text>
<text text-anchor="start" x="253.5" y="-463" font-family="Helvetica,sans-Serif" font-size="10.00">operator GTow()</text>
<text text-anchor="start" x="240.5" y="-448" font-family="Helvetica,sans-Serif" font-size="10.00">+</text>
<text text-anchor="start" x="253.5" y="-448" font-family="Helvetica,sans-Serif" font-size="10.00">operator BTow()</text>
<text text-anchor="start" x="240.5" y="-433" font-family="Helvetica,sans-Serif" font-size="10.00">+</text>
<text text-anchor="start" x="253.5" y="-433" font-family="Helvetica,sans-Serif" font-size="10.00">operator PTime()</text>
<text text-anchor="start" x="240.5" y="-418" font-family="Helvetica,sans-Serif" font-size="10.00">+</text>
<text text-anchor="start" x="253.5" y="-418" font-family="Helvetica,sans-Serif" font-size="10.00">operator string()</text>
<text text-anchor="start" x="240.5" y="-403" font-family="Helvetica,sans-Serif" font-size="10.00">+</text>
<text text-anchor="start" x="253.5" y="-403" font-family="Helvetica,sans-Serif" font-size="10.00">operator RTod()</text>
<text text-anchor="start" x="240.5" y="-388" font-family="Helvetica,sans-Serif" font-size="10.00">+</text>
<text text-anchor="start" x="253.5" y="-388" font-family="Helvetica,sans-Serif" font-size="10.00">noTime()</text>
<polygon fill="#666666" stroke="#666666" points="236.5,-968 236.5,-968 366.5,-968 366.5,-968 236.5,-968"/>
<polygon fill="#666666" stroke="#666666" points="236.5,-953 236.5,-953 251.5,-953 251.5,-953 236.5,-953"/>
<polygon fill="#666666" stroke="#666666" points="251.5,-953 251.5,-953 366.5,-953 366.5,-953 251.5,-953"/>
<polygon fill="none" stroke="#666666" points="236.5,-381 236.5,-985 366.5,-985 366.5,-381 236.5,-381"/>
</a>
</g>
</g>
<!-- Node6&#45;&gt;Node1 -->
<g id="edge4_Node000001_Node000006" class="edge">
<title>Node6&#45;&gt;Node1</title>
<g id="a_edge4_Node000001_Node000006"><a xlink:title=" ">
<path fill="none" stroke="#63b8ff" d="M228.44,-408.78C225.45,-398.04 222.46,-387.42 219.5,-377 209.26,-340.93 197.71,-301.76 187.08,-266.26"/>
<polygon fill="none" stroke="#63b8ff" points="186.96,-265.87 181.4,-261.27 183.51,-254.37 189.07,-258.97 186.96,-265.87"/>
</a>
</g>
<text text-anchor="middle" x="228" y="-351" font-family="Helvetica,sans-Serif" font-size="10.00" fill="grey"> +toc</text>
<text text-anchor="middle" x="228" y="-340" font-family="Helvetica,sans-Serif" font-size="10.00" fill="grey">+toe</text>
<text text-anchor="middle" x="228" y="-329" font-family="Helvetica,sans-Serif" font-size="10.00" fill="grey">+top</text>
<text text-anchor="middle" x="228" y="-318" font-family="Helvetica,sans-Serif" font-size="10.00" fill="grey">+ttm</text>
</g>
</g>
</svg>
