<?xml version="1.0" encoding="UTF-8" standalone="no"?>
<!DOCTYPE svg PUBLIC "-//W3C//DTD SVG 1.1//EN"
 "http://www.w3.org/Graphics/SVG/1.1/DTD/svg11.dtd">
<!-- Generated by graphviz version 2.43.0 (0)
 -->
<!-- Title: SinexRecData Pages: 1 -->
<svg width="789pt" height="1253pt"
 viewBox="0.00 0.00 789.00 1253.00" xmlns="http://www.w3.org/2000/svg" xmlns:xlink="http://www.w3.org/1999/xlink">
<g id="graph0" class="graph" transform="scale(1 1) rotate(0) translate(4 1249)">
<title>SinexRecData</title>
<!-- Node1 -->
<g id="Node000001" class="node">
<title>Node1</title>
<g id="a_Node000001"><a xlink:href="structSinexRecData.html" target="_top" xlink:title=" ">
<path fill="white" stroke="#666666" stroke-width="2" d="M436,-57C436,-57 365,-57 365,-57 359,-57 353,-51 353,-45 353,-45 353,-12 353,-12 353,-6 359,0 365,0 365,0 436,0 436,0 442,0 448,-6 448,-12 448,-12 448,-45 448,-45 448,-51 442,-57 436,-57"/>
<text text-anchor="start" x="366.5" y="-40.5" font-family="Helvetica,sans-Serif" font-size="10.00">SinexRecData</text>
<text text-anchor="start" x="370" y="-25.5" font-family="Helvetica,sans-Serif" font-size="10.00">+</text>
<text text-anchor="start" x="387.5" y="-25.5" font-family="Helvetica,sans-Serif" font-size="10.00">primary</text>
<text text-anchor="start" x="399" y="-10.5" font-family="Helvetica,sans-Serif" font-size="10.00"> </text>
<polygon fill="#666666" stroke="#666666" points="361.5,-35.5 361.5,-35.5 440.5,-35.5 440.5,-35.5 361.5,-35.5"/>
<polygon fill="#666666" stroke="#666666" points="361.5,-20.5 361.5,-20.5 385.5,-20.5 385.5,-20.5 361.5,-20.5"/>
<polygon fill="#666666" stroke="#666666" points="385.5,-20.5 385.5,-20.5 440.5,-20.5 440.5,-20.5 385.5,-20.5"/>
<polygon fill="none" stroke="#666666" points="361,-4 361,-53 440,-53 440,-4 361,-4"/>
</a>
</g>
</g>
<!-- Node2 -->
<g id="Node000002" class="node">
<title>Node2</title>
<g id="a_Node000002"><a xlink:href="structSinexSiteId.html" target="_top" xlink:title=" ">
<path fill="white" stroke="#666666" d="M71,-528.5C71,-528.5 12,-528.5 12,-528.5 6,-528.5 0,-522.5 0,-516.5 0,-516.5 0,-363.5 0,-363.5 0,-357.5 6,-351.5 12,-351.5 12,-351.5 71,-351.5 71,-351.5 77,-351.5 83,-357.5 83,-363.5 83,-363.5 83,-516.5 83,-516.5 83,-522.5 77,-528.5 71,-528.5"/>
<text text-anchor="start" x="14.5" y="-512" font-family="Helvetica,sans-Serif" font-size="10.00">SinexSiteId</text>
<text text-anchor="start" x="12.5" y="-497" font-family="Helvetica,sans-Serif" font-size="10.00">+</text>
<text text-anchor="start" x="25.5" y="-497" font-family="Helvetica,sans-Serif" font-size="10.00">typecode</text>
<text text-anchor="start" x="12.5" y="-482" font-family="Helvetica,sans-Serif" font-size="10.00">+</text>
<text text-anchor="start" x="25.5" y="-482" font-family="Helvetica,sans-Serif" font-size="10.00">lon_deg</text>
<text text-anchor="start" x="12.5" y="-467" font-family="Helvetica,sans-Serif" font-size="10.00">+</text>
<text text-anchor="start" x="25.5" y="-467" font-family="Helvetica,sans-Serif" font-size="10.00">lon_min</text>
<text text-anchor="start" x="12.5" y="-452" font-family="Helvetica,sans-Serif" font-size="10.00">+</text>
<text text-anchor="start" x="25.5" y="-452" font-family="Helvetica,sans-Serif" font-size="10.00">lon_sec</text>
<text text-anchor="start" x="12.5" y="-437" font-family="Helvetica,sans-Serif" font-size="10.00">+</text>
<text text-anchor="start" x="25.5" y="-437" font-family="Helvetica,sans-Serif" font-size="10.00">lat_deg</text>
<text text-anchor="start" x="12.5" y="-422" font-family="Helvetica,sans-Serif" font-size="10.00">+</text>
<text text-anchor="start" x="25.5" y="-422" font-family="Helvetica,sans-Serif" font-size="10.00">lat_min</text>
<text text-anchor="start" x="12.5" y="-407" font-family="Helvetica,sans-Serif" font-size="10.00">+</text>
<text text-anchor="start" x="25.5" y="-407" font-family="Helvetica,sans-Serif" font-size="10.00">lat_sec</text>
<text text-anchor="start" x="12.5" y="-392" font-family="Helvetica,sans-Serif" font-size="10.00">+</text>
<text text-anchor="start" x="25.5" y="-392" font-family="Helvetica,sans-Serif" font-size="10.00">height</text>
<text text-anchor="start" x="12.5" y="-377" font-family="Helvetica,sans-Serif" font-size="10.00">+</text>
<text text-anchor="start" x="25.5" y="-377" font-family="Helvetica,sans-Serif" font-size="10.00">used</text>
<text text-anchor="start" x="40" y="-362" font-family="Helvetica,sans-Serif" font-size="10.00"> </text>
<polygon fill="#666666" stroke="#666666" points="8.5,-507 8.5,-507 75.5,-507 75.5,-507 8.5,-507"/>
<polygon fill="#666666" stroke="#666666" points="8.5,-372 8.5,-372 23.5,-372 23.5,-372 8.5,-372"/>
<polygon fill="#666666" stroke="#666666" points="23.5,-372 23.5,-372 75.5,-372 75.5,-372 23.5,-372"/>
<polygon fill="none" stroke="#666666" points="8,-355.5 8,-524.5 75,-524.5 75,-355.5 8,-355.5"/>
</a>
</g>
</g>
<!-- Node2&#45;&gt;Node1 -->
<g id="edge1_Node000001_Node000002" class="edge">
<title>Node2&#45;&gt;Node1</title>
<g id="a_edge1_Node000001_Node000002"><a xlink:title=" ">
<path fill="none" stroke="#63b8ff" d="M31.2,-351.41C27.46,-277.09 34.64,-171.99 92.5,-104 124.14,-66.82 259.98,-45.38 340.31,-35.73"/>
<polygon fill="none" stroke="#63b8ff" points="340.78,-35.67 346.28,-31.01 352.7,-34.28 347.21,-38.95 340.78,-35.67"/>
</a>
</g>
<text text-anchor="middle" x="162.5" y="-78" font-family="Helvetica,sans-Serif" font-size="10.00" fill="grey"> +id_ptr</text>
</g>
<!-- Node3 -->
<g id="Node000003" class="node">
<title>Node3</title>
<g id="a_Node000003"><a xlink:title=" ">
<path fill="white" stroke="#666666" d="M202.5,-1076C202.5,-1076 172.5,-1076 172.5,-1076 166.5,-1076 160.5,-1070 160.5,-1064 160.5,-1064 160.5,-1031 160.5,-1031 160.5,-1025 166.5,-1019 172.5,-1019 172.5,-1019 202.5,-1019 202.5,-1019 208.5,-1019 214.5,-1025 214.5,-1031 214.5,-1031 214.5,-1064 214.5,-1064 214.5,-1070 208.5,-1076 202.5,-1076"/>
<text text-anchor="start" x="173.5" y="-1059.5" font-family="Helvetica,sans-Serif" font-size="10.00">string</text>
<text text-anchor="start" x="185.5" y="-1044.5" font-family="Helvetica,sans-Serif" font-size="10.00"> </text>
<text text-anchor="start" x="185.5" y="-1029.5" font-family="Helvetica,sans-Serif" font-size="10.00"> </text>
<polygon fill="#666666" stroke="#666666" points="168.5,-1054.5 168.5,-1054.5 206.5,-1054.5 206.5,-1054.5 168.5,-1054.5"/>
<polygon fill="#666666" stroke="#666666" points="168.5,-1039.5 168.5,-1039.5 206.5,-1039.5 206.5,-1039.5 168.5,-1039.5"/>
<polygon fill="none" stroke="#666666" points="168.5,-1023 168.5,-1072 206.5,-1072 206.5,-1023 168.5,-1023"/>
</a>
</g>
</g>
<!-- Node3&#45;&gt;Node2 -->
<g id="edge2_Node000002_Node000003" class="edge">
<title>Node3&#45;&gt;Node2</title>
<g id="a_edge2_Node000002_Node000003"><a xlink:title=" ">
<path fill="none" stroke="#63b8ff" d="M160.36,-1033.29C125.8,-1014.77 67.68,-977.49 43.5,-926 -14.26,-803.02 0,-642.38 18.44,-540.42"/>
<polygon fill="none" stroke="#63b8ff" points="18.44,-540.39 15.61,-533.75 20.64,-528.59 23.48,-535.22 18.44,-540.39"/>
</a>
</g>
<text text-anchor="middle" x="68.5" y="-874" font-family="Helvetica,sans-Serif" font-size="10.00" fill="grey"> +desc</text>
<text text-anchor="middle" x="68.5" y="-863" font-family="Helvetica,sans-Serif" font-size="10.00" fill="grey">+domes</text>
<text text-anchor="middle" x="68.5" y="-852" font-family="Helvetica,sans-Serif" font-size="10.00" fill="grey">+ptcode</text>
<text text-anchor="middle" x="68.5" y="-841" font-family="Helvetica,sans-Serif" font-size="10.00" fill="grey">+sitecode</text>
</g>
<!-- Node4 -->
<g id="Node000004" class="node">
<title>Node4</title>
<g id="a_Node000004"><a xlink:href="structSinexReceiver.html" target="_top" xlink:title=" ">
<path fill="white" stroke="#666666" d="M185.5,-476C185.5,-476 113.5,-476 113.5,-476 107.5,-476 101.5,-470 101.5,-464 101.5,-464 101.5,-416 101.5,-416 101.5,-410 107.5,-404 113.5,-404 113.5,-404 185.5,-404 185.5,-404 191.5,-404 197.5,-410 197.5,-416 197.5,-416 197.5,-464 197.5,-464 197.5,-470 191.5,-476 185.5,-476"/>
<text text-anchor="start" x="114.5" y="-460" font-family="Helvetica,sans-Serif" font-size="10.00">SinexReceiver</text>
<text text-anchor="start" x="116.5" y="-445" font-family="Helvetica,sans-Serif" font-size="10.00">+</text>
<text text-anchor="start" x="132.5" y="-445" font-family="Helvetica,sans-Serif" font-size="10.00">typecode</text>
<text text-anchor="start" x="116.5" y="-430" font-family="Helvetica,sans-Serif" font-size="10.00">+</text>
<text text-anchor="start" x="132.5" y="-430" font-family="Helvetica,sans-Serif" font-size="10.00">used</text>
<text text-anchor="start" x="147.5" y="-415" font-family="Helvetica,sans-Serif" font-size="10.00"> </text>
<polygon fill="#666666" stroke="#666666" points="109.5,-455 109.5,-455 189.5,-455 189.5,-455 109.5,-455"/>
<polygon fill="#666666" stroke="#666666" points="109.5,-425 109.5,-425 130.5,-425 130.5,-425 109.5,-425"/>
<polygon fill="#666666" stroke="#666666" points="130.5,-425 130.5,-425 189.5,-425 189.5,-425 130.5,-425"/>
<polygon fill="none" stroke="#666666" points="109.5,-408 109.5,-472 189.5,-472 189.5,-408 109.5,-408"/>
</a>
</g>
</g>
<!-- Node3&#45;&gt;Node4 -->
<g id="edge4_Node000004_Node000003" class="edge">
<title>Node3&#45;&gt;Node4</title>
<g id="a_edge4_Node000004_Node000003"><a xlink:title=" ">
<path fill="none" stroke="#63b8ff" d="M164.99,-1018.82C147.66,-995.61 125.1,-960.77 115.5,-926 72.44,-770 112.95,-575.62 136.01,-487.86"/>
<polygon fill="none" stroke="#63b8ff" points="136.03,-487.79 133.72,-480.96 139.13,-476.2 141.44,-483.03 136.03,-487.79"/>
</a>
</g>
<text text-anchor="middle" x="140.5" y="-885" font-family="Helvetica,sans-Serif" font-size="10.00" fill="grey"> +firm</text>
<text text-anchor="middle" x="140.5" y="-874" font-family="Helvetica,sans-Serif" font-size="10.00" fill="grey">+ptcode</text>
<text text-anchor="middle" x="140.5" y="-863" font-family="Helvetica,sans-Serif" font-size="10.00" fill="grey">+sitecode</text>
<text text-anchor="middle" x="140.5" y="-852" font-family="Helvetica,sans-Serif" font-size="10.00" fill="grey">+sn</text>
<text text-anchor="middle" x="140.5" y="-841" font-family="Helvetica,sans-Serif" font-size="10.00" fill="grey">+solnid</text>
<text text-anchor="middle" x="140.5" y="-830" font-family="Helvetica,sans-Serif" font-size="10.00" fill="grey">+type</text>
</g>
<!-- Node7 -->
<g id="Node000007" class="node">
<title>Node7</title>
<g id="a_Node000007"><a xlink:href="structSinexAntenna.html" target="_top" xlink:title=" ">
<path fill="white" stroke="#666666" d="M297.5,-476C297.5,-476 227.5,-476 227.5,-476 221.5,-476 215.5,-470 215.5,-464 215.5,-464 215.5,-416 215.5,-416 215.5,-410 221.5,-404 227.5,-404 227.5,-404 297.5,-404 297.5,-404 303.5,-404 309.5,-410 309.5,-416 309.5,-416 309.5,-464 309.5,-464 309.5,-470 303.5,-476 297.5,-476"/>
<text text-anchor="start" x="228.5" y="-460" font-family="Helvetica,sans-Serif" font-size="10.00">SinexAntenna</text>
<text text-anchor="start" x="230" y="-445" font-family="Helvetica,sans-Serif" font-size="10.00">+</text>
<text text-anchor="start" x="245.5" y="-445" font-family="Helvetica,sans-Serif" font-size="10.00">typecode</text>
<text text-anchor="start" x="230" y="-430" font-family="Helvetica,sans-Serif" font-size="10.00">+</text>
<text text-anchor="start" x="245.5" y="-430" font-family="Helvetica,sans-Serif" font-size="10.00">used</text>
<text text-anchor="start" x="260.5" y="-415" font-family="Helvetica,sans-Serif" font-size="10.00"> </text>
<polygon fill="#666666" stroke="#666666" points="223.5,-455 223.5,-455 301.5,-455 301.5,-455 223.5,-455"/>
<polygon fill="#666666" stroke="#666666" points="223.5,-425 223.5,-425 243.5,-425 243.5,-425 223.5,-425"/>
<polygon fill="#666666" stroke="#666666" points="243.5,-425 243.5,-425 301.5,-425 301.5,-425 243.5,-425"/>
<polygon fill="none" stroke="#666666" points="223.5,-408 223.5,-472 301.5,-472 301.5,-408 223.5,-408"/>
</a>
</g>
</g>
<!-- Node3&#45;&gt;Node7 -->
<g id="edge7_Node000007_Node000003" class="edge">
<title>Node3&#45;&gt;Node7</title>
<g id="a_edge7_Node000007_Node000003"><a xlink:title=" ">
<path fill="none" stroke="#63b8ff" d="M180.97,-1018.62C171.13,-970.59 156.81,-870.08 188.5,-794 192.85,-783.56 201.32,-786.06 206.5,-776 254.68,-682.42 262.9,-556.48 263.46,-488.79"/>
<polygon fill="none" stroke="#63b8ff" points="263.46,-488.46 259.47,-482.45 263.48,-476.46 267.47,-482.46 263.46,-488.46"/>
</a>
</g>
<text text-anchor="middle" x="221" y="-885" font-family="Helvetica,sans-Serif" font-size="10.00" fill="grey"> +calibModel</text>
<text text-anchor="middle" x="221" y="-874" font-family="Helvetica,sans-Serif" font-size="10.00" fill="grey">+ptcode</text>
<text text-anchor="middle" x="221" y="-863" font-family="Helvetica,sans-Serif" font-size="10.00" fill="grey">+sitecode</text>
<text text-anchor="middle" x="221" y="-852" font-family="Helvetica,sans-Serif" font-size="10.00" fill="grey">+sn</text>
<text text-anchor="middle" x="221" y="-841" font-family="Helvetica,sans-Serif" font-size="10.00" fill="grey">+solnnum</text>
<text text-anchor="middle" x="221" y="-830" font-family="Helvetica,sans-Serif" font-size="10.00" fill="grey">+type</text>
</g>
<!-- Node8 -->
<g id="Node000008" class="node">
<title>Node8</title>
<g id="a_Node000008"><a xlink:href="structSinexSiteEcc.html" target="_top" xlink:title=" ">
<path fill="white" stroke="#666666" d="M569,-476C569,-476 504,-476 504,-476 498,-476 492,-470 492,-464 492,-464 492,-416 492,-416 492,-410 498,-404 504,-404 504,-404 569,-404 569,-404 575,-404 581,-410 581,-416 581,-416 581,-464 581,-464 581,-470 575,-476 569,-476"/>
<text text-anchor="start" x="505.5" y="-460" font-family="Helvetica,sans-Serif" font-size="10.00">SinexSiteEcc</text>
<text text-anchor="start" x="506" y="-445" font-family="Helvetica,sans-Serif" font-size="10.00">+</text>
<text text-anchor="start" x="520.5" y="-445" font-family="Helvetica,sans-Serif" font-size="10.00">typecode</text>
<text text-anchor="start" x="506" y="-430" font-family="Helvetica,sans-Serif" font-size="10.00">+</text>
<text text-anchor="start" x="520.5" y="-430" font-family="Helvetica,sans-Serif" font-size="10.00">used</text>
<text text-anchor="start" x="535" y="-415" font-family="Helvetica,sans-Serif" font-size="10.00"> </text>
<polygon fill="#666666" stroke="#666666" points="500.5,-455 500.5,-455 573.5,-455 573.5,-455 500.5,-455"/>
<polygon fill="#666666" stroke="#666666" points="500.5,-425 500.5,-425 518.5,-425 518.5,-425 500.5,-425"/>
<polygon fill="#666666" stroke="#666666" points="518.5,-425 518.5,-425 573.5,-425 573.5,-425 518.5,-425"/>
<polygon fill="none" stroke="#666666" points="500,-408 500,-472 573,-472 573,-408 500,-408"/>
</a>
</g>
</g>
<!-- Node3&#45;&gt;Node8 -->
<g id="edge10_Node000008_Node000003" class="edge">
<title>Node3&#45;&gt;Node8</title>
<g id="a_edge10_Node000008_Node000003"><a xlink:title=" ">
<path fill="none" stroke="#63b8ff" d="M214.73,-1027.59C242.97,-1006.36 285.93,-969.19 307.5,-926 333.98,-872.97 284,-835.32 326.5,-794 376.54,-745.35 432.05,-824.23 482.5,-776 560.79,-701.15 554.48,-561.01 544.7,-487.98"/>
<polygon fill="none" stroke="#63b8ff" points="544.69,-487.88 539.88,-482.51 542.99,-476 547.8,-481.37 544.69,-487.88"/>
</a>
</g>
<text text-anchor="middle" x="352" y="-874" font-family="Helvetica,sans-Serif" font-size="10.00" fill="grey"> +ptcode</text>
<text text-anchor="middle" x="352" y="-863" font-family="Helvetica,sans-Serif" font-size="10.00" fill="grey">+rs</text>
<text text-anchor="middle" x="352" y="-852" font-family="Helvetica,sans-Serif" font-size="10.00" fill="grey">+sitecode</text>
<text text-anchor="middle" x="352" y="-841" font-family="Helvetica,sans-Serif" font-size="10.00" fill="grey">+solnnum</text>
</g>
<!-- Node12 -->
<g id="Node000012" class="node">
<title>Node12</title>
<g id="a_Node000012"><a xlink:href="structGTime.html" target="_top" xlink:title="Time structure used throughout this software.">
<path fill="white" stroke="#666666" d="M461.5,-776C461.5,-776 339.5,-776 339.5,-776 333.5,-776 327.5,-770 327.5,-764 327.5,-764 327.5,-116 327.5,-116 327.5,-110 333.5,-104 339.5,-104 339.5,-104 461.5,-104 461.5,-104 467.5,-104 473.5,-110 473.5,-116 473.5,-116 473.5,-764 473.5,-764 473.5,-770 467.5,-776 461.5,-776"/>
<text text-anchor="start" x="384" y="-760" font-family="Helvetica,sans-Serif" font-size="10.00">GTime</text>
<text text-anchor="start" x="339.5" y="-745" font-family="Helvetica,sans-Serif" font-size="10.00">+</text>
<text text-anchor="start" x="352.5" y="-745" font-family="Helvetica,sans-Serif" font-size="10.00">cacheN</text>
<text text-anchor="start" x="339.5" y="-730" font-family="Helvetica,sans-Serif" font-size="10.00">+</text>
<text text-anchor="start" x="352.5" y="-730" font-family="Helvetica,sans-Serif" font-size="10.00">cacheTime</text>
<text text-anchor="start" x="339.5" y="-715" font-family="Helvetica,sans-Serif" font-size="10.00">+</text>
<text text-anchor="start" x="352.5" y="-715" font-family="Helvetica,sans-Serif" font-size="10.00">bigTime</text>
<text text-anchor="start" x="339.5" y="-700" font-family="Helvetica,sans-Serif" font-size="10.00">+</text>
<text text-anchor="start" x="352.5" y="-700" font-family="Helvetica,sans-Serif" font-size="10.00">GTime()</text>
<text text-anchor="start" x="339.5" y="-685" font-family="Helvetica,sans-Serif" font-size="10.00">+</text>
<text text-anchor="start" x="352.5" y="-685" font-family="Helvetica,sans-Serif" font-size="10.00">GTime()</text>
<text text-anchor="start" x="339.5" y="-670" font-family="Helvetica,sans-Serif" font-size="10.00">+</text>
<text text-anchor="start" x="352.5" y="-670" font-family="Helvetica,sans-Serif" font-size="10.00">GTime()</text>
<text text-anchor="start" x="339.5" y="-655" font-family="Helvetica,sans-Serif" font-size="10.00">+</text>
<text text-anchor="start" x="352.5" y="-655" font-family="Helvetica,sans-Serif" font-size="10.00">to_string()</text>
<text text-anchor="start" x="339.5" y="-640" font-family="Helvetica,sans-Serif" font-size="10.00">+</text>
<text text-anchor="start" x="352.5" y="-640" font-family="Helvetica,sans-Serif" font-size="10.00">to_ISOstring()</text>
<text text-anchor="start" x="339.5" y="-625" font-family="Helvetica,sans-Serif" font-size="10.00">+</text>
<text text-anchor="start" x="352.5" y="-625" font-family="Helvetica,sans-Serif" font-size="10.00">to_decYear()</text>
<text text-anchor="start" x="339.5" y="-610" font-family="Helvetica,sans-Serif" font-size="10.00">+</text>
<text text-anchor="start" x="352.5" y="-610" font-family="Helvetica,sans-Serif" font-size="10.00">operator==()</text>
<text text-anchor="start" x="339.5" y="-595" font-family="Helvetica,sans-Serif" font-size="10.00">+</text>
<text text-anchor="start" x="352.5" y="-595" font-family="Helvetica,sans-Serif" font-size="10.00">operator!=()</text>
<text text-anchor="start" x="339.5" y="-580" font-family="Helvetica,sans-Serif" font-size="10.00">+</text>
<text text-anchor="start" x="352.5" y="-580" font-family="Helvetica,sans-Serif" font-size="10.00">operator&lt;()</text>
<text text-anchor="start" x="339.5" y="-565" font-family="Helvetica,sans-Serif" font-size="10.00">+</text>
<text text-anchor="start" x="352.5" y="-565" font-family="Helvetica,sans-Serif" font-size="10.00">operator&gt;()</text>
<text text-anchor="start" x="339.5" y="-550" font-family="Helvetica,sans-Serif" font-size="10.00">+</text>
<text text-anchor="start" x="352.5" y="-550" font-family="Helvetica,sans-Serif" font-size="10.00">operator&gt;=()</text>
<text text-anchor="start" x="339.5" y="-535" font-family="Helvetica,sans-Serif" font-size="10.00">+</text>
<text text-anchor="start" x="352.5" y="-535" font-family="Helvetica,sans-Serif" font-size="10.00">operator+()</text>
<text text-anchor="start" x="339.5" y="-520" font-family="Helvetica,sans-Serif" font-size="10.00">+</text>
<text text-anchor="start" x="352.5" y="-520" font-family="Helvetica,sans-Serif" font-size="10.00">operator+()</text>
<text text-anchor="start" x="339.5" y="-505" font-family="Helvetica,sans-Serif" font-size="10.00">+</text>
<text text-anchor="start" x="352.5" y="-505" font-family="Helvetica,sans-Serif" font-size="10.00">operator+()</text>
<text text-anchor="start" x="339.5" y="-490" font-family="Helvetica,sans-Serif" font-size="10.00">+</text>
<text text-anchor="start" x="352.5" y="-490" font-family="Helvetica,sans-Serif" font-size="10.00">operator+=()</text>
<text text-anchor="start" x="339.5" y="-475" font-family="Helvetica,sans-Serif" font-size="10.00">+</text>
<text text-anchor="start" x="352.5" y="-475" font-family="Helvetica,sans-Serif" font-size="10.00">operator&#45;=()</text>
<text text-anchor="start" x="339.5" y="-460" font-family="Helvetica,sans-Serif" font-size="10.00">+</text>
<text text-anchor="start" x="352.5" y="-460" font-family="Helvetica,sans-Serif" font-size="10.00">operator&#45;()</text>
<text text-anchor="start" x="339.5" y="-445" font-family="Helvetica,sans-Serif" font-size="10.00">+</text>
<text text-anchor="start" x="352.5" y="-445" font-family="Helvetica,sans-Serif" font-size="10.00">operator&#45;()</text>
<text text-anchor="start" x="339.5" y="-430" font-family="Helvetica,sans-Serif" font-size="10.00">+</text>
<text text-anchor="start" x="352.5" y="-430" font-family="Helvetica,sans-Serif" font-size="10.00">operator&#45;()</text>
<text text-anchor="start" x="339.5" y="-415" font-family="Helvetica,sans-Serif" font-size="10.00">+</text>
<text text-anchor="start" x="352.5" y="-415" font-family="Helvetica,sans-Serif" font-size="10.00">operator++()</text>
<text text-anchor="start" x="339.5" y="-400" font-family="Helvetica,sans-Serif" font-size="10.00">+</text>
<text text-anchor="start" x="352.5" y="-400" font-family="Helvetica,sans-Serif" font-size="10.00">GTime()</text>
<text text-anchor="start" x="339.5" y="-385" font-family="Helvetica,sans-Serif" font-size="10.00">+</text>
<text text-anchor="start" x="352.5" y="-385" font-family="Helvetica,sans-Serif" font-size="10.00">GTime()</text>
<text text-anchor="start" x="339.5" y="-370" font-family="Helvetica,sans-Serif" font-size="10.00">+</text>
<text text-anchor="start" x="352.5" y="-370" font-family="Helvetica,sans-Serif" font-size="10.00">GTime()</text>
<text text-anchor="start" x="339.5" y="-355" font-family="Helvetica,sans-Serif" font-size="10.00">+</text>
<text text-anchor="start" x="352.5" y="-355" font-family="Helvetica,sans-Serif" font-size="10.00">GTime()</text>
<text text-anchor="start" x="339.5" y="-340" font-family="Helvetica,sans-Serif" font-size="10.00">+</text>
<text text-anchor="start" x="352.5" y="-340" font-family="Helvetica,sans-Serif" font-size="10.00">GTime()</text>
<text text-anchor="start" x="339.5" y="-325" font-family="Helvetica,sans-Serif" font-size="10.00">+</text>
<text text-anchor="start" x="352.5" y="-325" font-family="Helvetica,sans-Serif" font-size="10.00">serialize()</text>
<text text-anchor="start" x="339.5" y="-310" font-family="Helvetica,sans-Serif" font-size="10.00">+</text>
<text text-anchor="start" x="352.5" y="-310" font-family="Helvetica,sans-Serif" font-size="10.00">floorTime()</text>
<text text-anchor="start" x="339.5" y="-295" font-family="Helvetica,sans-Serif" font-size="10.00">+</text>
<text text-anchor="start" x="352.5" y="-295" font-family="Helvetica,sans-Serif" font-size="10.00">gregString()</text>
<text text-anchor="start" x="339.5" y="-280" font-family="Helvetica,sans-Serif" font-size="10.00">+</text>
<text text-anchor="start" x="352.5" y="-280" font-family="Helvetica,sans-Serif" font-size="10.00">operator long double()</text>
<text text-anchor="start" x="339.5" y="-265" font-family="Helvetica,sans-Serif" font-size="10.00">+</text>
<text text-anchor="start" x="352.5" y="-265" font-family="Helvetica,sans-Serif" font-size="10.00">operator MjDateTT()</text>
<text text-anchor="start" x="339.5" y="-250" font-family="Helvetica,sans-Serif" font-size="10.00">+</text>
<text text-anchor="start" x="352.5" y="-250" font-family="Helvetica,sans-Serif" font-size="10.00">operator GEpoch()</text>
<text text-anchor="start" x="339.5" y="-235" font-family="Helvetica,sans-Serif" font-size="10.00">+</text>
<text text-anchor="start" x="352.5" y="-235" font-family="Helvetica,sans-Serif" font-size="10.00">operator UtcTime()</text>
<text text-anchor="start" x="339.5" y="-220" font-family="Helvetica,sans-Serif" font-size="10.00">+</text>
<text text-anchor="start" x="352.5" y="-220" font-family="Helvetica,sans-Serif" font-size="10.00">operator GWeek()</text>
<text text-anchor="start" x="339.5" y="-205" font-family="Helvetica,sans-Serif" font-size="10.00">+</text>
<text text-anchor="start" x="352.5" y="-205" font-family="Helvetica,sans-Serif" font-size="10.00">operator BWeek()</text>
<text text-anchor="start" x="339.5" y="-190" font-family="Helvetica,sans-Serif" font-size="10.00">+</text>
<text text-anchor="start" x="352.5" y="-190" font-family="Helvetica,sans-Serif" font-size="10.00">operator GTow()</text>
<text text-anchor="start" x="339.5" y="-175" font-family="Helvetica,sans-Serif" font-size="10.00">+</text>
<text text-anchor="start" x="352.5" y="-175" font-family="Helvetica,sans-Serif" font-size="10.00">operator BTow()</text>
<text text-anchor="start" x="339.5" y="-160" font-family="Helvetica,sans-Serif" font-size="10.00">+</text>
<text text-anchor="start" x="352.5" y="-160" font-family="Helvetica,sans-Serif" font-size="10.00">operator PTime()</text>
<text text-anchor="start" x="339.5" y="-145" font-family="Helvetica,sans-Serif" font-size="10.00">+</text>
<text text-anchor="start" x="352.5" y="-145" font-family="Helvetica,sans-Serif" font-size="10.00">operator string()</text>
<text text-anchor="start" x="339.5" y="-130" font-family="Helvetica,sans-Serif" font-size="10.00">+</text>
<text text-anchor="start" x="352.5" y="-130" font-family="Helvetica,sans-Serif" font-size="10.00">operator RTod()</text>
<text text-anchor="start" x="339.5" y="-115" font-family="Helvetica,sans-Serif" font-size="10.00">+</text>
<text text-anchor="start" x="352.5" y="-115" font-family="Helvetica,sans-Serif" font-size="10.00">noTime()</text>
<polygon fill="#666666" stroke="#666666" points="335.5,-755 335.5,-755 465.5,-755 465.5,-755 335.5,-755"/>
<polygon fill="#666666" stroke="#666666" points="335.5,-710 335.5,-710 350.5,-710 350.5,-710 335.5,-710"/>
<polygon fill="#666666" stroke="#666666" points="350.5,-710 350.5,-710 465.5,-710 465.5,-710 350.5,-710"/>
<polygon fill="none" stroke="#666666" points="335.5,-108 335.5,-772 465.5,-772 465.5,-108 335.5,-108"/>
</a>
</g>
</g>
<!-- Node3&#45;&gt;Node12 -->
<g id="edge18_Node000012_Node000003" class="edge">
<title>Node3&#45;&gt;Node12</title>
<g id="a_edge18_Node000012_Node000003"><a xlink:title=" ">
<path fill="none" stroke="#63b8ff" d="M214.76,-1038.7C258.8,-1024.47 344.41,-989.74 381.5,-926 390.16,-911.12 395.23,-856.32 398.11,-788.6"/>
<polygon fill="none" stroke="#63b8ff" points="398.13,-788.26 394.37,-782.11 398.61,-776.27 402.36,-782.43 398.13,-788.26"/>
</a>
</g>
<text text-anchor="middle" x="433" y="-857.5" font-family="Helvetica,sans-Serif" font-size="10.00" fill="grey"> +cacheString</text>
</g>
<!-- Node4&#45;&gt;Node1 -->
<g id="edge3_Node000001_Node000004" class="edge">
<title>Node4&#45;&gt;Node1</title>
<g id="a_edge3_Node000001_Node000004"><a xlink:title=" ">
<path fill="none" stroke="#63b8ff" d="M145.02,-403.87C138.58,-337.38 134.44,-191.97 206.5,-104 239.52,-63.69 297.03,-45.15 340.88,-36.65"/>
<polygon fill="none" stroke="#63b8ff" points="341.05,-36.62 346.25,-31.63 352.86,-34.51 347.66,-39.5 341.05,-36.62"/>
</a>
</g>
<text text-anchor="middle" x="258.5" y="-78" font-family="Helvetica,sans-Serif" font-size="10.00" fill="grey"> +rec_ptr</text>
</g>
<!-- Node5 -->
<g id="Node000005" class="node">
<title>Node5</title>
<g id="a_Node000005"><a xlink:href="structUYds.html" target="_top" xlink:title=" ">
<path fill="#fff0f0" stroke="red" d="M558.5,-1136C558.5,-1136 460.5,-1136 460.5,-1136 454.5,-1136 448.5,-1130 448.5,-1124 448.5,-1124 448.5,-971 448.5,-971 448.5,-965 454.5,-959 460.5,-959 460.5,-959 558.5,-959 558.5,-959 564.5,-959 570.5,-965 570.5,-971 570.5,-971 570.5,-1124 570.5,-1124 570.5,-1130 564.5,-1136 558.5,-1136"/>
<text text-anchor="start" x="497" y="-1119.5" font-family="Helvetica,sans-Serif" font-size="10.00">UYds</text>
<text text-anchor="start" x="460.5" y="-1104.5" font-family="Helvetica,sans-Serif" font-size="10.00">+</text>
<text text-anchor="start" x="473.5" y="-1104.5" font-family="Helvetica,sans-Serif" font-size="10.00">year</text>
<text text-anchor="start" x="460.5" y="-1089.5" font-family="Helvetica,sans-Serif" font-size="10.00">+</text>
<text text-anchor="start" x="473.5" y="-1089.5" font-family="Helvetica,sans-Serif" font-size="10.00">doy</text>
<text text-anchor="start" x="460.5" y="-1074.5" font-family="Helvetica,sans-Serif" font-size="10.00">+</text>
<text text-anchor="start" x="473.5" y="-1074.5" font-family="Helvetica,sans-Serif" font-size="10.00">sod</text>
<text text-anchor="start" x="460.5" y="-1059.5" font-family="Helvetica,sans-Serif" font-size="10.00">+</text>
<text text-anchor="start" x="473.5" y="-1059.5" font-family="Helvetica,sans-Serif" font-size="10.00">UYds()</text>
<text text-anchor="start" x="460.5" y="-1044.5" font-family="Helvetica,sans-Serif" font-size="10.00">+</text>
<text text-anchor="start" x="473.5" y="-1044.5" font-family="Helvetica,sans-Serif" font-size="10.00">UYds()</text>
<text text-anchor="start" x="460.5" y="-1029.5" font-family="Helvetica,sans-Serif" font-size="10.00">+</text>
<text text-anchor="start" x="473.5" y="-1029.5" font-family="Helvetica,sans-Serif" font-size="10.00">operator=()</text>
<text text-anchor="start" x="460.5" y="-1014.5" font-family="Helvetica,sans-Serif" font-size="10.00">+</text>
<text text-anchor="start" x="473.5" y="-1014.5" font-family="Helvetica,sans-Serif" font-size="10.00">UYds()</text>
<text text-anchor="start" x="460.5" y="-999.5" font-family="Helvetica,sans-Serif" font-size="10.00">+</text>
<text text-anchor="start" x="473.5" y="-999.5" font-family="Helvetica,sans-Serif" font-size="10.00">operator+=()</text>
<text text-anchor="start" x="460.5" y="-984.5" font-family="Helvetica,sans-Serif" font-size="10.00">+</text>
<text text-anchor="start" x="473.5" y="-984.5" font-family="Helvetica,sans-Serif" font-size="10.00">operator=()</text>
<text text-anchor="start" x="460.5" y="-969.5" font-family="Helvetica,sans-Serif" font-size="10.00">+</text>
<text text-anchor="start" x="473.5" y="-969.5" font-family="Helvetica,sans-Serif" font-size="10.00">operator GTime()</text>
<polygon fill="red" stroke="red" points="456.5,-1114.5 456.5,-1114.5 562.5,-1114.5 562.5,-1114.5 456.5,-1114.5"/>
<polygon fill="red" stroke="red" points="456.5,-1069.5 456.5,-1069.5 471.5,-1069.5 471.5,-1069.5 456.5,-1069.5"/>
<polygon fill="red" stroke="red" points="471.5,-1069.5 471.5,-1069.5 562.5,-1069.5 562.5,-1069.5 471.5,-1069.5"/>
<polygon fill="none" stroke="red" points="456.5,-963 456.5,-1132 562.5,-1132 562.5,-963 456.5,-963"/>
</a>
</g>
</g>
<!-- Node5&#45;&gt;Node1 -->
<g id="edge14_Node000001_Node000005" class="edge">
<title>Node5&#45;&gt;Node1</title>
<g id="a_edge14_Node000001_Node000005"><a xlink:title=" ">
<path fill="none" stroke="#63b8ff" d="M558.2,-958.77C562.91,-947.95 567.17,-936.87 570.5,-926 590.19,-861.75 585.27,-843.07 589.5,-776 594.2,-701.48 630.66,-166.3 589.5,-104 561.24,-61.23 504.16,-43.01 460.08,-35.25"/>
<polygon fill="none" stroke="#63b8ff" points="459.88,-35.22 453.32,-38.23 448.03,-33.33 454.58,-30.33 459.88,-35.22"/>
</a>
</g>
<text text-anchor="middle" x="625.5" y="-443" font-family="Helvetica,sans-Serif" font-size="10.00" fill="grey"> +start</text>
<text text-anchor="middle" x="625.5" y="-432" font-family="Helvetica,sans-Serif" font-size="10.00" fill="grey">+stop</text>
</g>
<!-- Node5&#45;&gt;Node4 -->
<g id="edge5_Node000004_Node000005" class="edge">
<title>Node5&#45;&gt;Node4</title>
<g id="a_edge5_Node000004_Node000005"><a xlink:title=" ">
<path fill="none" stroke="#63b8ff" d="M448.46,-1032.5C393.27,-1016.48 314.44,-984.53 272.5,-926 237.98,-877.82 290.49,-840.31 253.5,-794 239.54,-776.52 220.68,-793.3 206.5,-776 138.48,-693.05 138.33,-558.93 143.95,-488.17"/>
<polygon fill="none" stroke="#63b8ff" points="143.96,-488.09 140.5,-481.77 145.02,-476.14 148.47,-482.47 143.96,-488.09"/>
</a>
</g>
<text text-anchor="middle" x="288" y="-863" font-family="Helvetica,sans-Serif" font-size="10.00" fill="grey"> +end</text>
<text text-anchor="middle" x="288" y="-852" font-family="Helvetica,sans-Serif" font-size="10.00" fill="grey">+start</text>
</g>
<!-- Node5&#45;&gt;Node7 -->
<g id="edge8_Node000007_Node000005" class="edge">
<title>Node5&#45;&gt;Node7</title>
<g id="a_edge8_Node000007_Node000005"><a xlink:title=" ">
<path fill="none" stroke="#63b8ff" d="M496.94,-958.89C486.47,-886.56 473.03,-795.48 471.5,-794 422.31,-746.37 368.08,-823.23 318.5,-776 240,-701.22 245.37,-561.05 254.63,-488"/>
<polygon fill="none" stroke="#63b8ff" points="254.65,-487.91 251.49,-481.42 256.27,-476.02 259.42,-482.5 254.65,-487.91"/>
</a>
</g>
<text text-anchor="middle" x="507" y="-863" font-family="Helvetica,sans-Serif" font-size="10.00" fill="grey"> +end</text>
<text text-anchor="middle" x="507" y="-852" font-family="Helvetica,sans-Serif" font-size="10.00" fill="grey">+start</text>
</g>
<!-- Node5&#45;&gt;Node8 -->
<g id="edge11_Node000008_Node000005" class="edge">
<title>Node5&#45;&gt;Node8</title>
<g id="a_edge11_Node000008_Node000005"><a xlink:title=" ">
<path fill="none" stroke="#63b8ff" d="M523.95,-958.8C525.37,-947.78 526.61,-936.64 527.5,-926 540.89,-765.82 539.32,-574.9 537.65,-488.11"/>
<polygon fill="none" stroke="#63b8ff" points="537.65,-488.07 533.53,-482.16 537.4,-476.08 541.53,-481.99 537.65,-488.07"/>
</a>
</g>
<text text-anchor="middle" x="551" y="-863" font-family="Helvetica,sans-Serif" font-size="10.00" fill="grey"> +end</text>
<text text-anchor="middle" x="551" y="-852" font-family="Helvetica,sans-Serif" font-size="10.00" fill="grey">+start</text>
</g>
<!-- Node7&#45;&gt;Node1 -->
<g id="edge6_Node000001_Node000007" class="edge">
<title>Node7&#45;&gt;Node1</title>
<g id="a_edge6_Node000001_Node000007"><a xlink:title=" ">
<path fill="none" stroke="#63b8ff" d="M261.06,-403.8C259.96,-339.96 264.7,-202.61 318.5,-104 326.43,-89.47 338.29,-76.29 350.55,-65.19"/>
<polygon fill="none" stroke="#63b8ff" points="350.84,-64.94 352.79,-58 359.94,-57.13 358,-64.07 350.84,-64.94"/>
</a>
</g>
<text text-anchor="middle" x="363.5" y="-78" font-family="Helvetica,sans-Serif" font-size="10.00" fill="grey"> +ant_ptr</text>
</g>
<!-- Node8&#45;&gt;Node1 -->
<g id="edge9_Node000001_Node000008" class="edge">
<title>Node8&#45;&gt;Node1</title>
<g id="a_edge9_Node000001_Node000008"><a xlink:title=" ">
<path fill="none" stroke="#63b8ff" d="M536.58,-403.61C535.48,-340.63 527.53,-206.15 482.5,-104 475.95,-89.13 464.79,-75.97 452.78,-65"/>
<polygon fill="none" stroke="#63b8ff" points="452.61,-64.85 445.45,-63.98 443.5,-57.04 450.66,-57.91 452.61,-64.85"/>
</a>
</g>
<text text-anchor="middle" x="494" y="-78" font-family="Helvetica,sans-Serif" font-size="10.00" fill="grey"> +ecc_ptr</text>
</g>
<!-- Node9 -->
<g id="Node000009" class="node">
<title>Node9</title>
<g id="a_Node000009"><a xlink:href="structVectorEnu.html" target="_top" xlink:title=" ">
<path fill="white" stroke="#666666" d="M687,-1151C687,-1151 616,-1151 616,-1151 610,-1151 604,-1145 604,-1139 604,-1139 604,-956 604,-956 604,-950 610,-944 616,-944 616,-944 687,-944 687,-944 693,-944 699,-950 699,-956 699,-956 699,-1139 699,-1139 699,-1145 693,-1151 687,-1151"/>
<text text-anchor="start" x="627.5" y="-1134.5" font-family="Helvetica,sans-Serif" font-size="10.00">VectorEnu</text>
<text text-anchor="start" x="650" y="-1119.5" font-family="Helvetica,sans-Serif" font-size="10.00"> </text>
<text text-anchor="start" x="616.5" y="-1104.5" font-family="Helvetica,sans-Serif" font-size="10.00">+</text>
<text text-anchor="start" x="629.5" y="-1104.5" font-family="Helvetica,sans-Serif" font-size="10.00">VectorEnu()</text>
<text text-anchor="start" x="616.5" y="-1089.5" font-family="Helvetica,sans-Serif" font-size="10.00">+</text>
<text text-anchor="start" x="629.5" y="-1089.5" font-family="Helvetica,sans-Serif" font-size="10.00">VectorEnu()</text>
<text text-anchor="start" x="616.5" y="-1074.5" font-family="Helvetica,sans-Serif" font-size="10.00">+</text>
<text text-anchor="start" x="629.5" y="-1074.5" font-family="Helvetica,sans-Serif" font-size="10.00">operator=()</text>
<text text-anchor="start" x="616.5" y="-1059.5" font-family="Helvetica,sans-Serif" font-size="10.00">+</text>
<text text-anchor="start" x="629.5" y="-1059.5" font-family="Helvetica,sans-Serif" font-size="10.00">operator*()</text>
<text text-anchor="start" x="616.5" y="-1044.5" font-family="Helvetica,sans-Serif" font-size="10.00">+</text>
<text text-anchor="start" x="629.5" y="-1044.5" font-family="Helvetica,sans-Serif" font-size="10.00">operator&#45;()</text>
<text text-anchor="start" x="616.5" y="-1029.5" font-family="Helvetica,sans-Serif" font-size="10.00">+</text>
<text text-anchor="start" x="629.5" y="-1029.5" font-family="Helvetica,sans-Serif" font-size="10.00">operator+()</text>
<text text-anchor="start" x="616.5" y="-1014.5" font-family="Helvetica,sans-Serif" font-size="10.00">+</text>
<text text-anchor="start" x="629.5" y="-1014.5" font-family="Helvetica,sans-Serif" font-size="10.00">e()</text>
<text text-anchor="start" x="616.5" y="-999.5" font-family="Helvetica,sans-Serif" font-size="10.00">+</text>
<text text-anchor="start" x="629.5" y="-999.5" font-family="Helvetica,sans-Serif" font-size="10.00">n()</text>
<text text-anchor="start" x="616.5" y="-984.5" font-family="Helvetica,sans-Serif" font-size="10.00">+</text>
<text text-anchor="start" x="629.5" y="-984.5" font-family="Helvetica,sans-Serif" font-size="10.00">u()</text>
<text text-anchor="start" x="616.5" y="-969.5" font-family="Helvetica,sans-Serif" font-size="10.00">+</text>
<text text-anchor="start" x="629.5" y="-969.5" font-family="Helvetica,sans-Serif" font-size="10.00">r()</text>
<text text-anchor="start" x="616.5" y="-954.5" font-family="Helvetica,sans-Serif" font-size="10.00">+</text>
<text text-anchor="start" x="629.5" y="-954.5" font-family="Helvetica,sans-Serif" font-size="10.00">f()</text>
<polygon fill="#666666" stroke="#666666" points="612.5,-1129.5 612.5,-1129.5 691.5,-1129.5 691.5,-1129.5 612.5,-1129.5"/>
<polygon fill="#666666" stroke="#666666" points="612.5,-1114.5 612.5,-1114.5 691.5,-1114.5 691.5,-1114.5 612.5,-1114.5"/>
<polygon fill="none" stroke="#666666" points="612,-948 612,-1147 691,-1147 691,-948 612,-948"/>
</a>
</g>
</g>
<!-- Node9&#45;&gt;Node8 -->
<g id="edge12_Node000008_Node000009" class="edge">
<title>Node9&#45;&gt;Node8</title>
<g id="a_edge12_Node000008_Node000009"><a xlink:title=" ">
<path fill="none" stroke="#63b8ff" d="M629.51,-943.89C618.87,-893.39 606.15,-831.58 595.5,-776 575.88,-673.56 555.25,-553.02 544.34,-488.11"/>
<polygon fill="none" stroke="#63b8ff" points="544.34,-488.11 539.4,-482.85 542.36,-476.27 547.29,-481.53 544.34,-488.11"/>
</a>
</g>
<text text-anchor="middle" x="638.5" y="-857.5" font-family="Helvetica,sans-Serif" font-size="10.00" fill="grey"> +ecc</text>
</g>
<!-- Node10 -->
<g id="Node000010" class="node">
<title>Node10</title>
<g id="a_Node000010"><a xlink:title=" ">
<path fill="white" stroke="#666666" d="M713,-1245C713,-1245 668,-1245 668,-1245 662,-1245 656,-1239 656,-1233 656,-1233 656,-1200 656,-1200 656,-1194 662,-1188 668,-1188 668,-1188 713,-1188 713,-1188 719,-1188 725,-1194 725,-1200 725,-1200 725,-1233 725,-1233 725,-1239 719,-1245 713,-1245"/>
<text text-anchor="start" x="669.5" y="-1228.5" font-family="Helvetica,sans-Serif" font-size="10.00">Vector3d</text>
<text text-anchor="start" x="689" y="-1213.5" font-family="Helvetica,sans-Serif" font-size="10.00"> </text>
<text text-anchor="start" x="689" y="-1198.5" font-family="Helvetica,sans-Serif" font-size="10.00"> </text>
<polygon fill="#666666" stroke="#666666" points="664.5,-1223.5 664.5,-1223.5 717.5,-1223.5 717.5,-1223.5 664.5,-1223.5"/>
<polygon fill="#666666" stroke="#666666" points="664.5,-1208.5 664.5,-1208.5 717.5,-1208.5 717.5,-1208.5 664.5,-1208.5"/>
<polygon fill="none" stroke="#666666" points="664,-1192 664,-1241 717,-1241 717,-1192 664,-1192"/>
</a>
</g>
</g>
<!-- Node10&#45;&gt;Node9 -->
<g id="edge13_Node000009_Node000010" class="edge">
<title>Node10&#45;&gt;Node9</title>
<g id="a_edge13_Node000009_Node000010"><a xlink:title=" ">
<path fill="none" stroke="#63b8ff" d="M681.74,-1177.97C679.81,-1169.72 677.68,-1160.59 675.47,-1151.12"/>
<polygon fill="none" stroke="#63b8ff" points="678.38,-1178.98 684.06,-1187.92 685.19,-1177.39 678.38,-1178.98"/>
</a>
</g>
</g>
<!-- Node11 -->
<g id="Node000011" class="node">
<title>Node11</title>
<g id="a_Node000011"><a xlink:href="structVectorEcef.html" target="_top" xlink:title=" ">
<path fill="white" stroke="#666666" d="M769,-926C769,-926 696,-926 696,-926 690,-926 684,-920 684,-914 684,-914 684,-806 684,-806 684,-800 690,-794 696,-794 696,-794 769,-794 769,-794 775,-794 781,-800 781,-806 781,-806 781,-914 781,-914 781,-920 775,-926 769,-926"/>
<text text-anchor="start" x="707" y="-910" font-family="Helvetica,sans-Serif" font-size="10.00">VectorEcef</text>
<text text-anchor="start" x="731" y="-895" font-family="Helvetica,sans-Serif" font-size="10.00"> </text>
<text text-anchor="start" x="696.5" y="-880" font-family="Helvetica,sans-Serif" font-size="10.00">+</text>
<text text-anchor="start" x="709.5" y="-880" font-family="Helvetica,sans-Serif" font-size="10.00">VectorEcef()</text>
<text text-anchor="start" x="696.5" y="-865" font-family="Helvetica,sans-Serif" font-size="10.00">+</text>
<text text-anchor="start" x="709.5" y="-865" font-family="Helvetica,sans-Serif" font-size="10.00">VectorEcef()</text>
<text text-anchor="start" x="696.5" y="-850" font-family="Helvetica,sans-Serif" font-size="10.00">+</text>
<text text-anchor="start" x="709.5" y="-850" font-family="Helvetica,sans-Serif" font-size="10.00">operator=()</text>
<text text-anchor="start" x="696.5" y="-835" font-family="Helvetica,sans-Serif" font-size="10.00">+</text>
<text text-anchor="start" x="709.5" y="-835" font-family="Helvetica,sans-Serif" font-size="10.00">operator*()</text>
<text text-anchor="start" x="696.5" y="-820" font-family="Helvetica,sans-Serif" font-size="10.00">+</text>
<text text-anchor="start" x="709.5" y="-820" font-family="Helvetica,sans-Serif" font-size="10.00">operator&#45;()</text>
<text text-anchor="start" x="696.5" y="-805" font-family="Helvetica,sans-Serif" font-size="10.00">+</text>
<text text-anchor="start" x="709.5" y="-805" font-family="Helvetica,sans-Serif" font-size="10.00">operator+()</text>
<polygon fill="#666666" stroke="#666666" points="692.5,-905 692.5,-905 773.5,-905 773.5,-905 692.5,-905"/>
<polygon fill="#666666" stroke="#666666" points="692.5,-890 692.5,-890 773.5,-890 773.5,-890 692.5,-890"/>
<polygon fill="none" stroke="#666666" points="692,-798 692,-922 773,-922 773,-798 692,-798"/>
</a>
</g>
</g>
<!-- Node10&#45;&gt;Node11 -->
<g id="edge16_Node000011_Node000010" class="edge">
<title>Node10&#45;&gt;Node11</title>
<g id="a_edge16_Node000011_Node000010"><a xlink:title=" ">
<path fill="none" stroke="#63b8ff" d="M702.21,-1178.17C704.62,-1169.34 706.91,-1159.9 708.5,-1151 722.2,-1074.54 728.1,-985.32 730.63,-926.24"/>
<polygon fill="none" stroke="#63b8ff" points="698.83,-1177.25 699.46,-1187.83 705.57,-1179.17 698.83,-1177.25"/>
</a>
</g>
</g>
<!-- Node11&#45;&gt;Node1 -->
<g id="edge15_Node000001_Node000011" class="edge">
<title>Node11&#45;&gt;Node1</title>
<g id="a_edge15_Node000001_Node000011"><a xlink:title=" ">
<path fill="none" stroke="#63b8ff" d="M738.19,-793.79C747.36,-659.03 755.36,-342.51 655.5,-104 649.04,-88.57 645.88,-83.56 631.5,-75 579.05,-43.77 509.18,-33.5 460.06,-30.35"/>
<polygon fill="none" stroke="#63b8ff" points="460.03,-30.35 453.82,-34.02 448.05,-29.7 454.26,-26.03 460.03,-30.35"/>
</a>
</g>
<text text-anchor="middle" x="757" y="-448.5" font-family="Helvetica,sans-Serif" font-size="10.00" fill="grey"> +pos</text>
<text text-anchor="middle" x="757" y="-437.5" font-family="Helvetica,sans-Serif" font-size="10.00" fill="grey">+var</text>
<text text-anchor="middle" x="757" y="-426.5" font-family="Helvetica,sans-Serif" font-size="10.00" fill="grey">+vel</text>
</g>
<!-- Node12&#45;&gt;Node1 -->
<g id="edge17_Node000001_Node000012" class="edge">
<title>Node12&#45;&gt;Node1</title>
<g id="a_edge17_Node000001_Node000012"><a xlink:title=" ">
<path fill="none" stroke="#63b8ff" d="M400.5,-103.66C400.5,-91 400.5,-79.48 400.5,-69.5"/>
<polygon fill="none" stroke="#63b8ff" points="400.5,-69.29 396.5,-63.29 400.5,-57.29 404.5,-63.29 400.5,-69.29"/>
</a>
</g>
<text text-anchor="middle" x="428" y="-78" font-family="Helvetica,sans-Serif" font-size="10.00" fill="grey"> +refEpoch</text>
</g>
</g>
</svg>
