<?xml version="1.0" encoding="UTF-8" standalone="no"?>
<!DOCTYPE svg PUBLIC "-//W3C//DTD SVG 1.1//EN"
 "http://www.w3.org/Graphics/SVG/1.1/DTD/svg11.dtd">
<!-- Generated by graphviz version 2.43.0 (0)
 -->
<!-- Title: NtripStream Pages: 1 -->
<svg width="706pt" height="1093pt"
 viewBox="0.00 0.00 706.00 1093.00" xmlns="http://www.w3.org/2000/svg" xmlns:xlink="http://www.w3.org/1999/xlink">
<g id="graph0" class="graph" transform="scale(1 1) rotate(0) translate(4 1089)">
<title>NtripStream</title>
<!-- Node1 -->
<g id="Node000001" class="node">
<title>Node1</title>
<g id="a_Node000001"><a xlink:href="structNtripStream.html" target="_top" xlink:title=" ">
<path fill="white" stroke="#666666" stroke-width="2" d="M481.5,-102C481.5,-102 338.5,-102 338.5,-102 332.5,-102 326.5,-96 326.5,-90 326.5,-90 326.5,-12 326.5,-12 326.5,-6 332.5,0 338.5,0 338.5,0 481.5,0 481.5,0 487.5,0 493.5,-6 493.5,-12 493.5,-12 493.5,-90 493.5,-90 493.5,-96 487.5,-102 481.5,-102"/>
<text text-anchor="start" x="380.5" y="-86" font-family="Helvetica,sans-Serif" font-size="10.00">NtripStream</text>
<text text-anchor="start" x="408.5" y="-71" font-family="Helvetica,sans-Serif" font-size="10.00"> </text>
<text text-anchor="start" x="339" y="-56" font-family="Helvetica,sans-Serif" font-size="10.00">+</text>
<text text-anchor="start" x="352" y="-56" font-family="Helvetica,sans-Serif" font-size="10.00">NtripStream()</text>
<text text-anchor="start" x="339" y="-41" font-family="Helvetica,sans-Serif" font-size="10.00">+</text>
<text text-anchor="start" x="352" y="-41" font-family="Helvetica,sans-Serif" font-size="10.00">requestResponseHandler()</text>
<text text-anchor="start" x="339" y="-26" font-family="Helvetica,sans-Serif" font-size="10.00">+</text>
<text text-anchor="start" x="352" y="-26" font-family="Helvetica,sans-Serif" font-size="10.00">serverResponse()</text>
<text text-anchor="start" x="339" y="-11" font-family="Helvetica,sans-Serif" font-size="10.00">+</text>
<text text-anchor="start" x="352" y="-11" font-family="Helvetica,sans-Serif" font-size="10.00">~NtripStream()</text>
<polygon fill="#666666" stroke="#666666" points="335,-81 335,-81 486,-81 486,-81 335,-81"/>
<polygon fill="#666666" stroke="#666666" points="335,-66 335,-66 486,-66 486,-66 335,-66"/>
<polygon fill="none" stroke="#666666" points="334.5,-4 334.5,-98 485.5,-98 485.5,-4 334.5,-4"/>
</a>
</g>
</g>
<!-- Node2 -->
<g id="Node000002" class="node">
<title>Node2</title>
<g id="a_Node000002"><a xlink:href="structTcpSocket.html" target="_top" xlink:title=" ">
<path fill="white" stroke="#666666" d="M481.5,-691C481.5,-691 338.5,-691 338.5,-691 332.5,-691 326.5,-685 326.5,-679 326.5,-679 326.5,-151 326.5,-151 326.5,-145 332.5,-139 338.5,-139 338.5,-139 481.5,-139 481.5,-139 487.5,-139 493.5,-145 493.5,-151 493.5,-151 493.5,-679 493.5,-679 493.5,-685 487.5,-691 481.5,-691"/>
<text text-anchor="start" x="386" y="-675" font-family="Helvetica,sans-Serif" font-size="10.00">TcpSocket</text>
<text text-anchor="start" x="339" y="-660" font-family="Helvetica,sans-Serif" font-size="10.00">+</text>
<text text-anchor="start" x="352" y="-660" font-family="Helvetica,sans-Serif" font-size="10.00">reconnectDelay</text>
<text text-anchor="start" x="339" y="-645" font-family="Helvetica,sans-Serif" font-size="10.00">+</text>
<text text-anchor="start" x="352" y="-645" font-family="Helvetica,sans-Serif" font-size="10.00">disconnectionCount</text>
<text text-anchor="start" x="339" y="-630" font-family="Helvetica,sans-Serif" font-size="10.00">+</text>
<text text-anchor="start" x="352" y="-630" font-family="Helvetica,sans-Serif" font-size="10.00">isConnected</text>
<text text-anchor="start" x="339" y="-615" font-family="Helvetica,sans-Serif" font-size="10.00">+</text>
<text text-anchor="start" x="352" y="-615" font-family="Helvetica,sans-Serif" font-size="10.00">numberErroredChunks</text>
<text text-anchor="start" x="339" y="-600" font-family="Helvetica,sans-Serif" font-size="10.00">+</text>
<text text-anchor="start" x="352" y="-600" font-family="Helvetica,sans-Serif" font-size="10.00">logHttpSentReceived</text>
<text text-anchor="start" x="339" y="-585" font-family="Helvetica,sans-Serif" font-size="10.00">+</text>
<text text-anchor="start" x="352" y="-585" font-family="Helvetica,sans-Serif" font-size="10.00">content_length</text>
<text text-anchor="start" x="339" y="-570" font-family="Helvetica,sans-Serif" font-size="10.00">+</text>
<text text-anchor="start" x="352" y="-570" font-family="Helvetica,sans-Serif" font-size="10.00">sslContext</text>
<text text-anchor="start" x="339" y="-555" font-family="Helvetica,sans-Serif" font-size="10.00">+</text>
<text text-anchor="start" x="352" y="-555" font-family="Helvetica,sans-Serif" font-size="10.00">ioService</text>
<text text-anchor="start" x="339" y="-540" font-family="Helvetica,sans-Serif" font-size="10.00">#</text>
<text text-anchor="start" x="352" y="-540" font-family="Helvetica,sans-Serif" font-size="10.00">_socket</text>
<text text-anchor="start" x="339" y="-525" font-family="Helvetica,sans-Serif" font-size="10.00">#</text>
<text text-anchor="start" x="352" y="-525" font-family="Helvetica,sans-Serif" font-size="10.00">socket_ptr</text>
<text text-anchor="start" x="339" y="-510" font-family="Helvetica,sans-Serif" font-size="10.00">#</text>
<text text-anchor="start" x="352" y="-510" font-family="Helvetica,sans-Serif" font-size="10.00">_sslsocket</text>
<text text-anchor="start" x="339" y="-495" font-family="Helvetica,sans-Serif" font-size="10.00">#</text>
<text text-anchor="start" x="352" y="-495" font-family="Helvetica,sans-Serif" font-size="10.00">_resolver</text>
<text text-anchor="start" x="339" y="-480" font-family="Helvetica,sans-Serif" font-size="10.00">#</text>
<text text-anchor="start" x="352" y="-480" font-family="Helvetica,sans-Serif" font-size="10.00">timer</text>
<text text-anchor="start" x="339" y="-465" font-family="Helvetica,sans-Serif" font-size="10.00">#</text>
<text text-anchor="start" x="352" y="-465" font-family="Helvetica,sans-Serif" font-size="10.00">request</text>
<text text-anchor="start" x="339" y="-450" font-family="Helvetica,sans-Serif" font-size="10.00">#</text>
<text text-anchor="start" x="352" y="-450" font-family="Helvetica,sans-Serif" font-size="10.00">downloadBuf</text>
<text text-anchor="start" x="339" y="-435" font-family="Helvetica,sans-Serif" font-size="10.00">+</text>
<text text-anchor="start" x="352" y="-435" font-family="Helvetica,sans-Serif" font-size="10.00">TcpSocket()</text>
<text text-anchor="start" x="339" y="-420" font-family="Helvetica,sans-Serif" font-size="10.00">+</text>
<text text-anchor="start" x="352" y="-420" font-family="Helvetica,sans-Serif" font-size="10.00">setUrl()</text>
<text text-anchor="start" x="339" y="-405" font-family="Helvetica,sans-Serif" font-size="10.00">+</text>
<text text-anchor="start" x="352" y="-405" font-family="Helvetica,sans-Serif" font-size="10.00">connect()</text>
<text text-anchor="start" x="339" y="-390" font-family="Helvetica,sans-Serif" font-size="10.00">+</text>
<text text-anchor="start" x="352" y="-390" font-family="Helvetica,sans-Serif" font-size="10.00">disconnect()</text>
<text text-anchor="start" x="339" y="-375" font-family="Helvetica,sans-Serif" font-size="10.00">+</text>
<text text-anchor="start" x="352" y="-375" font-family="Helvetica,sans-Serif" font-size="10.00">startRead()</text>
<text text-anchor="start" x="339" y="-360" font-family="Helvetica,sans-Serif" font-size="10.00">+</text>
<text text-anchor="start" x="352" y="-360" font-family="Helvetica,sans-Serif" font-size="10.00">timeoutHandler()</text>
<text text-anchor="start" x="339" y="-345" font-family="Helvetica,sans-Serif" font-size="10.00">+</text>
<text text-anchor="start" x="352" y="-345" font-family="Helvetica,sans-Serif" font-size="10.00">delayedReconnect()</text>
<text text-anchor="start" x="339" y="-330" font-family="Helvetica,sans-Serif" font-size="10.00">+</text>
<text text-anchor="start" x="352" y="-330" font-family="Helvetica,sans-Serif" font-size="10.00">connectHandler()</text>
<text text-anchor="start" x="339" y="-315" font-family="Helvetica,sans-Serif" font-size="10.00">+</text>
<text text-anchor="start" x="352" y="-315" font-family="Helvetica,sans-Serif" font-size="10.00">requestResponseHandler()</text>
<text text-anchor="start" x="339" y="-300" font-family="Helvetica,sans-Serif" font-size="10.00">+</text>
<text text-anchor="start" x="352" y="-300" font-family="Helvetica,sans-Serif" font-size="10.00">logChunkError()</text>
<text text-anchor="start" x="339" y="-285" font-family="Helvetica,sans-Serif" font-size="10.00">+</text>
<text text-anchor="start" x="352" y="-285" font-family="Helvetica,sans-Serif" font-size="10.00">dataChunkDownloaded()</text>
<text text-anchor="start" x="339" y="-270" font-family="Helvetica,sans-Serif" font-size="10.00">+</text>
<text text-anchor="start" x="352" y="-270" font-family="Helvetica,sans-Serif" font-size="10.00">readContentDownloaded()</text>
<text text-anchor="start" x="339" y="-255" font-family="Helvetica,sans-Serif" font-size="10.00">+</text>
<text text-anchor="start" x="352" y="-255" font-family="Helvetica,sans-Serif" font-size="10.00">connected()</text>
<text text-anchor="start" x="339" y="-240" font-family="Helvetica,sans-Serif" font-size="10.00">+</text>
<text text-anchor="start" x="352" y="-240" font-family="Helvetica,sans-Serif" font-size="10.00">messageChunkLog()</text>
<text text-anchor="start" x="339" y="-225" font-family="Helvetica,sans-Serif" font-size="10.00">+</text>
<text text-anchor="start" x="352" y="-225" font-family="Helvetica,sans-Serif" font-size="10.00">networkLog()</text>
<text text-anchor="start" x="339" y="-210" font-family="Helvetica,sans-Serif" font-size="10.00">+</text>
<text text-anchor="start" x="352" y="-210" font-family="Helvetica,sans-Serif" font-size="10.00">getData()</text>
<text text-anchor="start" x="339" y="-195" font-family="Helvetica,sans-Serif" font-size="10.00">+</text>
<text text-anchor="start" x="352" y="-195" font-family="Helvetica,sans-Serif" font-size="10.00">connectionError()</text>
<text text-anchor="start" x="339" y="-180" font-family="Helvetica,sans-Serif" font-size="10.00">+</text>
<text text-anchor="start" x="352" y="-180" font-family="Helvetica,sans-Serif" font-size="10.00">~TcpSocket()</text>
<text text-anchor="start" x="339" y="-165" font-family="Helvetica,sans-Serif" font-size="10.00">+</text>
<text text-anchor="start" x="352" y="-165" font-family="Helvetica,sans-Serif" font-size="10.00">runService()</text>
<text text-anchor="start" x="339" y="-150" font-family="Helvetica,sans-Serif" font-size="10.00">+</text>
<text text-anchor="start" x="352" y="-150" font-family="Helvetica,sans-Serif" font-size="10.00">startClients()</text>
<polygon fill="#666666" stroke="#666666" points="335,-670 335,-670 486,-670 486,-670 335,-670"/>
<polygon fill="#666666" stroke="#666666" points="335,-445 335,-445 350,-445 350,-445 335,-445"/>
<polygon fill="#666666" stroke="#666666" points="350,-445 350,-445 486,-445 486,-445 350,-445"/>
<polygon fill="none" stroke="#666666" points="334.5,-143 334.5,-687 485.5,-687 485.5,-143 334.5,-143"/>
</a>
</g>
</g>
<!-- Node2&#45;&gt;Node1 -->
<g id="edge1_Node000001_Node000002" class="edge">
<title>Node2&#45;&gt;Node1</title>
<g id="a_edge1_Node000001_Node000002"><a xlink:title=" ">
<path fill="none" stroke="#63b8ff" d="M410,-128.63C410,-119.15 410,-110.25 410,-102.11"/>
<polygon fill="none" stroke="#63b8ff" points="406.5,-128.71 410,-138.71 413.5,-128.71 406.5,-128.71"/>
</a>
</g>
</g>
<!-- Node3 -->
<g id="Node000003" class="node">
<title>Node3</title>
<g id="a_Node000003"><a xlink:href="structNetworkStatistics.html" target="_top" xlink:title=" ">
<path fill="#fff0f0" stroke="red" d="M166,-915C166,-915 12,-915 12,-915 6,-915 0,-909 0,-903 0,-903 0,-750 0,-750 0,-744 6,-738 12,-738 12,-738 166,-738 166,-738 172,-738 178,-744 178,-750 178,-750 178,-903 178,-903 178,-909 172,-915 166,-915"/>
<text text-anchor="start" x="45.5" y="-898.5" font-family="Helvetica,sans-Serif" font-size="10.00">NetworkStatistics</text>
<text text-anchor="start" x="12" y="-883.5" font-family="Helvetica,sans-Serif" font-size="10.00">+</text>
<text text-anchor="start" x="25" y="-883.5" font-family="Helvetica,sans-Serif" font-size="10.00">connectCount</text>
<text text-anchor="start" x="12" y="-868.5" font-family="Helvetica,sans-Serif" font-size="10.00">+</text>
<text text-anchor="start" x="25" y="-868.5" font-family="Helvetica,sans-Serif" font-size="10.00">disconnectCount</text>
<text text-anchor="start" x="12" y="-853.5" font-family="Helvetica,sans-Serif" font-size="10.00">+</text>
<text text-anchor="start" x="25" y="-853.5" font-family="Helvetica,sans-Serif" font-size="10.00">chunksSent</text>
<text text-anchor="start" x="12" y="-838.5" font-family="Helvetica,sans-Serif" font-size="10.00">+</text>
<text text-anchor="start" x="25" y="-838.5" font-family="Helvetica,sans-Serif" font-size="10.00">chunksReceived</text>
<text text-anchor="start" x="12" y="-823.5" font-family="Helvetica,sans-Serif" font-size="10.00">+</text>
<text text-anchor="start" x="25" y="-823.5" font-family="Helvetica,sans-Serif" font-size="10.00">getNetworkStatistics()</text>
<text text-anchor="start" x="12" y="-808.5" font-family="Helvetica,sans-Serif" font-size="10.00">+</text>
<text text-anchor="start" x="25" y="-808.5" font-family="Helvetica,sans-Serif" font-size="10.00">onConnectedStatistics()</text>
<text text-anchor="start" x="12" y="-793.5" font-family="Helvetica,sans-Serif" font-size="10.00">+</text>
<text text-anchor="start" x="25" y="-793.5" font-family="Helvetica,sans-Serif" font-size="10.00">onDisconnectedStatistics()</text>
<text text-anchor="start" x="12" y="-778.5" font-family="Helvetica,sans-Serif" font-size="10.00">+</text>
<text text-anchor="start" x="25" y="-778.5" font-family="Helvetica,sans-Serif" font-size="10.00">onChunkSentStatistics()</text>
<text text-anchor="start" x="12" y="-763.5" font-family="Helvetica,sans-Serif" font-size="10.00">+</text>
<text text-anchor="start" x="25" y="-763.5" font-family="Helvetica,sans-Serif" font-size="10.00">onChunkReceivedStatistics()</text>
<text text-anchor="start" x="12" y="-748.5" font-family="Helvetica,sans-Serif" font-size="10.00">+</text>
<text text-anchor="start" x="25" y="-748.5" font-family="Helvetica,sans-Serif" font-size="10.00">onErrorStatistics()</text>
<polygon fill="red" stroke="red" points="8,-893.5 8,-893.5 170,-893.5 170,-893.5 8,-893.5"/>
<polygon fill="red" stroke="red" points="8,-833.5 8,-833.5 23,-833.5 23,-833.5 8,-833.5"/>
<polygon fill="red" stroke="red" points="23,-833.5 23,-833.5 170,-833.5 170,-833.5 23,-833.5"/>
<polygon fill="none" stroke="red" points="8,-742 8,-911 170,-911 170,-742 8,-742"/>
</a>
</g>
</g>
<!-- Node3&#45;&gt;Node2 -->
<g id="edge2_Node000002_Node000003" class="edge">
<title>Node3&#45;&gt;Node2</title>
<g id="a_edge2_Node000002_Node000003"><a xlink:title=" ">
<path fill="none" stroke="#63b8ff" d="M164.12,-729.67C212.74,-667.64 276.1,-586.81 326.33,-522.74"/>
<polygon fill="none" stroke="#63b8ff" points="161.08,-727.87 157.67,-737.9 166.59,-732.19 161.08,-727.87"/>
</a>
</g>
</g>
<!-- Node4 -->
<g id="Node000004" class="node">
<title>Node4</title>
<g id="a_Node000004"><a xlink:title=" ">
<path fill="white" stroke="#666666" d="M239,-1085C239,-1085 209,-1085 209,-1085 203,-1085 197,-1079 197,-1073 197,-1073 197,-1040 197,-1040 197,-1034 203,-1028 209,-1028 209,-1028 239,-1028 239,-1028 245,-1028 251,-1034 251,-1040 251,-1040 251,-1073 251,-1073 251,-1079 245,-1085 239,-1085"/>
<text text-anchor="start" x="210" y="-1068.5" font-family="Helvetica,sans-Serif" font-size="10.00">string</text>
<text text-anchor="start" x="222" y="-1053.5" font-family="Helvetica,sans-Serif" font-size="10.00"> </text>
<text text-anchor="start" x="222" y="-1038.5" font-family="Helvetica,sans-Serif" font-size="10.00"> </text>
<polygon fill="#666666" stroke="#666666" points="205,-1063.5 205,-1063.5 243,-1063.5 243,-1063.5 205,-1063.5"/>
<polygon fill="#666666" stroke="#666666" points="205,-1048.5 205,-1048.5 243,-1048.5 243,-1048.5 205,-1048.5"/>
<polygon fill="none" stroke="#666666" points="205,-1032 205,-1081 243,-1081 243,-1032 205,-1032"/>
</a>
</g>
</g>
<!-- Node4&#45;&gt;Node2 -->
<g id="edge7_Node000002_Node000004" class="edge">
<title>Node4&#45;&gt;Node2</title>
<g id="a_edge7_Node000002_Node000004"><a xlink:title=" ">
<path fill="none" stroke="#63b8ff" d="M230.72,-1027.7C231.96,-1021.88 233.13,-1015.76 234,-1010 252.17,-890.05 225.35,-855.12 257,-738 271.97,-682.61 296.16,-625.12 320.93,-574.3"/>
<polygon fill="none" stroke="#63b8ff" points="321.08,-573.99 320.15,-566.84 326.39,-563.23 327.32,-570.38 321.08,-573.99"/>
</a>
</g>
<text text-anchor="middle" x="299.5" y="-835" font-family="Helvetica,sans-Serif" font-size="10.00" fill="grey"> #readUntilString</text>
<text text-anchor="middle" x="299.5" y="-824" font-family="Helvetica,sans-Serif" font-size="10.00" fill="grey">#requestString</text>
<text text-anchor="middle" x="299.5" y="-813" font-family="Helvetica,sans-Serif" font-size="10.00" fill="grey">#responseString</text>
</g>
<!-- Node4&#45;&gt;Node3 -->
<g id="edge3_Node000003_Node000004" class="edge">
<title>Node4&#45;&gt;Node3</title>
<g id="a_edge3_Node000003_Node000004"><a xlink:title=" ">
<path fill="none" stroke="#63b8ff" d="M196.86,-1052.19C153.61,-1046.28 72.19,-1032.43 55,-1010 36.91,-986.39 36.28,-956.09 42.87,-926.99"/>
<polygon fill="none" stroke="#63b8ff" points="42.96,-926.66 40.6,-919.84 45.98,-915.05 48.34,-921.86 42.96,-926.66"/>
</a>
</g>
<text text-anchor="middle" x="116" y="-974.5" font-family="Helvetica,sans-Serif" font-size="10.00" fill="grey"> +networkTraceFilename</text>
<text text-anchor="middle" x="116" y="-963.5" font-family="Helvetica,sans-Serif" font-size="10.00" fill="grey">+streamName</text>
</g>
<!-- Node7 -->
<g id="Node000007" class="node">
<title>Node7</title>
<g id="a_Node000007"><a xlink:href="structSerialStream.html" target="_top" xlink:title=" ">
<path fill="#fff0f0" stroke="red" d="M457,-892.5C457,-892.5 363,-892.5 363,-892.5 357,-892.5 351,-886.5 351,-880.5 351,-880.5 351,-772.5 351,-772.5 351,-766.5 357,-760.5 363,-760.5 363,-760.5 457,-760.5 457,-760.5 463,-760.5 469,-766.5 469,-772.5 469,-772.5 469,-880.5 469,-880.5 469,-886.5 463,-892.5 457,-892.5"/>
<text text-anchor="start" x="378" y="-876.5" font-family="Helvetica,sans-Serif" font-size="10.00">SerialStream</text>
<text text-anchor="start" x="363" y="-861.5" font-family="Helvetica,sans-Serif" font-size="10.00">+</text>
<text text-anchor="start" x="376" y="-861.5" font-family="Helvetica,sans-Serif" font-size="10.00">fileDescriptor</text>
<text text-anchor="start" x="363" y="-846.5" font-family="Helvetica,sans-Serif" font-size="10.00">+</text>
<text text-anchor="start" x="376" y="-846.5" font-family="Helvetica,sans-Serif" font-size="10.00">SerialStream()</text>
<text text-anchor="start" x="363" y="-831.5" font-family="Helvetica,sans-Serif" font-size="10.00">+</text>
<text text-anchor="start" x="376" y="-831.5" font-family="Helvetica,sans-Serif" font-size="10.00">SerialStream()</text>
<text text-anchor="start" x="363" y="-816.5" font-family="Helvetica,sans-Serif" font-size="10.00">+</text>
<text text-anchor="start" x="376" y="-816.5" font-family="Helvetica,sans-Serif" font-size="10.00">openStream()</text>
<text text-anchor="start" x="363" y="-801.5" font-family="Helvetica,sans-Serif" font-size="10.00">+</text>
<text text-anchor="start" x="376" y="-801.5" font-family="Helvetica,sans-Serif" font-size="10.00">getData()</text>
<text text-anchor="start" x="363" y="-786.5" font-family="Helvetica,sans-Serif" font-size="10.00">+</text>
<text text-anchor="start" x="376" y="-786.5" font-family="Helvetica,sans-Serif" font-size="10.00">getIStream_ptr()</text>
<text text-anchor="start" x="363" y="-771.5" font-family="Helvetica,sans-Serif" font-size="10.00">+</text>
<text text-anchor="start" x="376" y="-771.5" font-family="Helvetica,sans-Serif" font-size="10.00">~SerialStream()</text>
<polygon fill="red" stroke="red" points="359,-871.5 359,-871.5 461,-871.5 461,-871.5 359,-871.5"/>
<polygon fill="red" stroke="red" points="359,-856.5 359,-856.5 374,-856.5 374,-856.5 359,-856.5"/>
<polygon fill="red" stroke="red" points="374,-856.5 374,-856.5 461,-856.5 461,-856.5 374,-856.5"/>
<polygon fill="none" stroke="red" points="359,-764.5 359,-888.5 461,-888.5 461,-764.5 359,-764.5"/>
</a>
</g>
</g>
<!-- Node4&#45;&gt;Node7 -->
<g id="edge5_Node000007_Node000004" class="edge">
<title>Node4&#45;&gt;Node7</title>
<g id="a_edge5_Node000007_Node000004"><a xlink:title=" ">
<path fill="none" stroke="#63b8ff" d="M229.96,-1027.99C237.35,-1000.26 252.6,-958.07 281,-933 300.6,-915.7 315.32,-929.62 337,-915 342.88,-911.03 348.55,-906.46 353.95,-901.53"/>
<polygon fill="none" stroke="#63b8ff" points="354.18,-901.31 355.68,-894.25 362.77,-892.93 361.27,-899.98 354.18,-901.31"/>
</a>
</g>
<text text-anchor="middle" x="298" y="-969" font-family="Helvetica,sans-Serif" font-size="10.00" fill="grey"> +path</text>
</g>
<!-- Node11 -->
<g id="Node000011" class="node">
<title>Node11</title>
<g id="a_Node000011"><a xlink:href="structURL.html" target="_top" xlink:title=" ">
<path fill="#fff0f0" stroke="red" d="M564.5,-870C564.5,-870 499.5,-870 499.5,-870 493.5,-870 487.5,-864 487.5,-858 487.5,-858 487.5,-795 487.5,-795 487.5,-789 493.5,-783 499.5,-783 499.5,-783 564.5,-783 564.5,-783 570.5,-783 576.5,-789 576.5,-795 576.5,-795 576.5,-858 576.5,-858 576.5,-864 570.5,-870 564.5,-870"/>
<text text-anchor="start" x="522.5" y="-853.5" font-family="Helvetica,sans-Serif" font-size="10.00">URL</text>
<text text-anchor="start" x="500" y="-838.5" font-family="Helvetica,sans-Serif" font-size="10.00">+</text>
<text text-anchor="start" x="513" y="-838.5" font-family="Helvetica,sans-Serif" font-size="10.00">port</text>
<text text-anchor="start" x="500" y="-823.5" font-family="Helvetica,sans-Serif" font-size="10.00">+</text>
<text text-anchor="start" x="513" y="-823.5" font-family="Helvetica,sans-Serif" font-size="10.00">URL()</text>
<text text-anchor="start" x="500" y="-808.5" font-family="Helvetica,sans-Serif" font-size="10.00">+</text>
<text text-anchor="start" x="513" y="-808.5" font-family="Helvetica,sans-Serif" font-size="10.00">URL()</text>
<text text-anchor="start" x="500" y="-793.5" font-family="Helvetica,sans-Serif" font-size="10.00">+</text>
<text text-anchor="start" x="513" y="-793.5" font-family="Helvetica,sans-Serif" font-size="10.00">sanitised()</text>
<polygon fill="red" stroke="red" points="496,-848.5 496,-848.5 569,-848.5 569,-848.5 496,-848.5"/>
<polygon fill="red" stroke="red" points="496,-833.5 496,-833.5 511,-833.5 511,-833.5 496,-833.5"/>
<polygon fill="red" stroke="red" points="511,-833.5 511,-833.5 569,-833.5 569,-833.5 511,-833.5"/>
<polygon fill="none" stroke="red" points="495.5,-787 495.5,-866 568.5,-866 568.5,-787 495.5,-787"/>
</a>
</g>
</g>
<!-- Node4&#45;&gt;Node11 -->
<g id="edge10_Node000011_Node000004" class="edge">
<title>Node4&#45;&gt;Node11</title>
<g id="a_edge10_Node000011_Node000004"><a xlink:title=" ">
<path fill="none" stroke="#63b8ff" d="M251.23,-1034.92C287.58,-1008.26 354.74,-961.81 418,-933 443.34,-921.46 455.92,-931.95 478,-915 489.84,-905.91 499.7,-893.43 507.62,-880.74"/>
<polygon fill="none" stroke="#63b8ff" points="507.78,-880.47 507.34,-873.27 513.81,-870.1 514.25,-877.3 507.78,-880.47"/>
</a>
</g>
<text text-anchor="middle" x="442.5" y="-1002" font-family="Helvetica,sans-Serif" font-size="10.00" fill="grey"> +host</text>
<text text-anchor="middle" x="442.5" y="-991" font-family="Helvetica,sans-Serif" font-size="10.00" fill="grey">+pass</text>
<text text-anchor="middle" x="442.5" y="-980" font-family="Helvetica,sans-Serif" font-size="10.00" fill="grey">+path</text>
<text text-anchor="middle" x="442.5" y="-969" font-family="Helvetica,sans-Serif" font-size="10.00" fill="grey">+portStr</text>
<text text-anchor="middle" x="442.5" y="-958" font-family="Helvetica,sans-Serif" font-size="10.00" fill="grey">+protocol</text>
<text text-anchor="middle" x="442.5" y="-947" font-family="Helvetica,sans-Serif" font-size="10.00" fill="grey">+url</text>
<text text-anchor="middle" x="442.5" y="-936" font-family="Helvetica,sans-Serif" font-size="10.00" fill="grey">+user</text>
</g>
<!-- Node7&#45;&gt;Node2 -->
<g id="edge4_Node000002_Node000007" class="edge">
<title>Node7&#45;&gt;Node2</title>
<g id="a_edge4_Node000002_Node000007"><a xlink:title=" ">
<path fill="none" stroke="#63b8ff" d="M410,-749.94C410,-732.14 410,-712.14 410,-691"/>
<polygon fill="none" stroke="#63b8ff" points="406.5,-750.16 410,-760.16 413.5,-750.16 406.5,-750.16"/>
</a>
</g>
</g>
<!-- Node9 -->
<g id="Node000009" class="node">
<title>Node9</title>
<g id="a_Node000009"><a xlink:title=" ">
<path fill="#fff0f0" stroke="red" d="M577.5,-1085C577.5,-1085 500.5,-1085 500.5,-1085 494.5,-1085 488.5,-1079 488.5,-1073 488.5,-1073 488.5,-1040 488.5,-1040 488.5,-1034 494.5,-1028 500.5,-1028 500.5,-1028 577.5,-1028 577.5,-1028 583.5,-1028 589.5,-1034 589.5,-1040 589.5,-1040 589.5,-1073 589.5,-1073 589.5,-1079 583.5,-1085 577.5,-1085"/>
<text text-anchor="start" x="502" y="-1068.5" font-family="Helvetica,sans-Serif" font-size="10.00">vector&lt; char &gt;</text>
<text text-anchor="start" x="537.5" y="-1053.5" font-family="Helvetica,sans-Serif" font-size="10.00"> </text>
<text text-anchor="start" x="537.5" y="-1038.5" font-family="Helvetica,sans-Serif" font-size="10.00"> </text>
<polygon fill="red" stroke="red" points="497,-1063.5 497,-1063.5 582,-1063.5 582,-1063.5 497,-1063.5"/>
<polygon fill="red" stroke="red" points="497,-1048.5 497,-1048.5 582,-1048.5 582,-1048.5 497,-1048.5"/>
<polygon fill="none" stroke="red" points="496.5,-1032 496.5,-1081 581.5,-1081 581.5,-1032 496.5,-1032"/>
</a>
</g>
</g>
<!-- Node9&#45;&gt;Node2 -->
<g id="edge8_Node000002_Node000009" class="edge">
<title>Node9&#45;&gt;Node2</title>
<g id="a_edge8_Node000002_Node000009"><a xlink:title=" ">
<path fill="none" stroke="#63b8ff" d="M579.29,-1027.95C584.44,-1022.62 588.96,-1016.61 592,-1010 606.76,-977.88 614.34,-842.22 586,-738 567.86,-671.3 533.49,-603.3 499.89,-547.08"/>
<polygon fill="none" stroke="#63b8ff" points="499.84,-546.99 493.31,-543.93 493.63,-536.72 500.16,-539.79 499.84,-546.99"/>
</a>
</g>
<text text-anchor="middle" x="651.5" y="-824" font-family="Helvetica,sans-Serif" font-size="10.00" fill="grey"> #receivedTcpData</text>
</g>
<!-- Node9&#45;&gt;Node7 -->
<g id="edge6_Node000007_Node000009" class="edge">
<title>Node9&#45;&gt;Node7</title>
<g id="a_edge6_Node000007_Node000009"><a xlink:title=" ">
<path fill="none" stroke="#63b8ff" d="M523.44,-1028C506.08,-997.32 477.25,-946.36 453,-903.49"/>
<polygon fill="none" stroke="#63b8ff" points="452.85,-903.23 446.41,-899.98 446.94,-892.79 453.37,-896.04 452.85,-903.23"/>
</a>
</g>
<text text-anchor="middle" x="549.5" y="-969" font-family="Helvetica,sans-Serif" font-size="10.00" fill="grey"> +receivedData</text>
</g>
<!-- Node11&#45;&gt;Node2 -->
<g id="edge9_Node000002_Node000011" class="edge">
<title>Node11&#45;&gt;Node2</title>
<g id="a_edge9_Node000002_Node000011"><a xlink:title=" ">
<path fill="none" stroke="#63b8ff" d="M519.29,-782.84C512.96,-761.58 504.7,-733.88 495.57,-703.22"/>
<polygon fill="none" stroke="#63b8ff" points="495.45,-702.83 489.91,-698.22 492.03,-691.33 497.57,-695.94 495.45,-702.83"/>
</a>
</g>
<text text-anchor="middle" x="511.5" y="-712" font-family="Helvetica,sans-Serif" font-size="10.00" fill="grey"> +url</text>
</g>
</g>
</svg>
