<?xml version="1.0" encoding="UTF-8" standalone="no"?>
<!DOCTYPE svg PUBLIC "-//W3C//DTD SVG 1.1//EN"
 "http://www.w3.org/Graphics/SVG/1.1/DTD/svg11.dtd">
<!-- Generated by graphviz version 2.43.0 (0)
 -->
<!-- Title: SSRMetaOpts Pages: 1 -->
<svg width="132pt" height="203pt"
 viewBox="0.00 0.00 132.00 203.00" xmlns="http://www.w3.org/2000/svg" xmlns:xlink="http://www.w3.org/1999/xlink">
<g id="graph0" class="graph" transform="scale(1 1) rotate(0) translate(4 199)">
<title>SSRMetaOpts</title>
<!-- Node1 -->
<g id="Node000001" class="node">
<title>Node1</title>
<g id="a_Node000001"><a xlink:href="structSSRMetaOpts.html" target="_top" xlink:title=" ">
<path fill="white" stroke="#666666" stroke-width="2" d="M96.5,-195C96.5,-195 27.5,-195 27.5,-195 21.5,-195 15.5,-189 15.5,-183 15.5,-183 15.5,-120 15.5,-120 15.5,-114 21.5,-108 27.5,-108 27.5,-108 96.5,-108 96.5,-108 102.5,-108 108.5,-114 108.5,-120 108.5,-120 108.5,-183 108.5,-183 108.5,-189 102.5,-195 96.5,-195"/>
<text text-anchor="start" x="29" y="-178.5" font-family="Helvetica,sans-Serif" font-size="10.00">SSRMetaOpts</text>
<text text-anchor="start" x="28" y="-163.5" font-family="Helvetica,sans-Serif" font-size="10.00">+</text>
<text text-anchor="start" x="41" y="-163.5" font-family="Helvetica,sans-Serif" font-size="10.00">itrf_datum</text>
<text text-anchor="start" x="28" y="-148.5" font-family="Helvetica,sans-Serif" font-size="10.00">+</text>
<text text-anchor="start" x="41" y="-148.5" font-family="Helvetica,sans-Serif" font-size="10.00">provider_id</text>
<text text-anchor="start" x="28" y="-133.5" font-family="Helvetica,sans-Serif" font-size="10.00">+</text>
<text text-anchor="start" x="41" y="-133.5" font-family="Helvetica,sans-Serif" font-size="10.00">solution_id</text>
<text text-anchor="start" x="60.5" y="-118.5" font-family="Helvetica,sans-Serif" font-size="10.00"> </text>
<polygon fill="#666666" stroke="#666666" points="24,-173.5 24,-173.5 101,-173.5 101,-173.5 24,-173.5"/>
<polygon fill="#666666" stroke="#666666" points="24,-128.5 24,-128.5 39,-128.5 39,-128.5 24,-128.5"/>
<polygon fill="#666666" stroke="#666666" points="39,-128.5 39,-128.5 101,-128.5 101,-128.5 39,-128.5"/>
<polygon fill="none" stroke="#666666" points="23.5,-112 23.5,-191 100.5,-191 100.5,-112 23.5,-112"/>
</a>
</g>
</g>
<!-- Node2 -->
<g id="Node000002" class="node">
<title>Node2</title>
<g id="a_Node000002"><a xlink:href="structSsrBroadcast.html" target="_top" xlink:title=" ">
<path fill="white" stroke="#666666" d="M112,-72C112,-72 12,-72 12,-72 6,-72 0,-66 0,-60 0,-60 0,-12 0,-12 0,-6 6,0 12,0 12,0 112,0 112,0 118,0 124,-6 124,-12 124,-12 124,-60 124,-60 124,-66 118,-72 112,-72"/>
<text text-anchor="start" x="30" y="-56" font-family="Helvetica,sans-Serif" font-size="10.00">SsrBroadcast</text>
<text text-anchor="start" x="12" y="-41" font-family="Helvetica,sans-Serif" font-size="10.00">+</text>
<text text-anchor="start" x="25" y="-41" font-family="Helvetica,sans-Serif" font-size="10.00">url</text>
<text text-anchor="start" x="12" y="-26" font-family="Helvetica,sans-Serif" font-size="10.00">+</text>
<text text-anchor="start" x="25" y="-26" font-family="Helvetica,sans-Serif" font-size="10.00">rtcmMsgOptsMap</text>
<text text-anchor="start" x="60" y="-11" font-family="Helvetica,sans-Serif" font-size="10.00"> </text>
<polygon fill="#666666" stroke="#666666" points="8,-51 8,-51 116,-51 116,-51 8,-51"/>
<polygon fill="#666666" stroke="#666666" points="8,-21 8,-21 23,-21 23,-21 8,-21"/>
<polygon fill="#666666" stroke="#666666" points="23,-21 23,-21 116,-21 116,-21 23,-21"/>
<polygon fill="none" stroke="#666666" points="8,-4 8,-68 116,-68 116,-4 8,-4"/>
</a>
</g>
</g>
<!-- Node1&#45;&gt;Node2 -->
<g id="edge1_Node000001_Node000002" class="edge">
<title>Node1&#45;&gt;Node2</title>
<g id="a_edge1_Node000001_Node000002"><a xlink:title=" ">
<path fill="none" stroke="#63b8ff" d="M62,-97.78C62,-89.05 62,-80.2 62,-72.05"/>
<polygon fill="none" stroke="#63b8ff" points="58.5,-97.91 62,-107.91 65.5,-97.91 58.5,-97.91"/>
</a>
</g>
</g>
</g>
</svg>
