<?xml version="1.0" encoding="UTF-8" standalone="no"?>
<!DOCTYPE svg PUBLIC "-//W3C//DTD SVG 1.1//EN"
 "http://www.w3.org/Graphics/SVG/1.1/DTD/svg11.dtd">
<!-- Generated by graphviz version 2.43.0 (0)
 -->
<!-- Title: MjDateTT Pages: 1 -->
<svg width="101pt" height="80pt"
 viewBox="0.00 0.00 101.00 80.00" xmlns="http://www.w3.org/2000/svg" xmlns:xlink="http://www.w3.org/1999/xlink">
<g id="graph0" class="graph" transform="scale(1 1) rotate(0) translate(4 76)">
<title>MjDateTT</title>
<!-- Node1 -->
<g id="Node000001" class="node">
<title>Node1</title>
<g id="a_Node000001"><a xlink:href="structMjDateTT.html" target="_top" xlink:title=" ">
<path fill="white" stroke="#666666" stroke-width="2" d="M81,-72C81,-72 12,-72 12,-72 6,-72 0,-66 0,-60 0,-60 0,-12 0,-12 0,-6 6,0 12,0 12,0 81,0 81,0 87,0 93,-6 93,-12 93,-12 93,-60 93,-60 93,-66 87,-72 81,-72"/>
<text text-anchor="start" x="23" y="-56" font-family="Helvetica,sans-Serif" font-size="10.00">MjDateTT</text>
<text text-anchor="start" x="12.5" y="-41" font-family="Helvetica,sans-Serif" font-size="10.00">+</text>
<text text-anchor="start" x="25.5" y="-41" font-family="Helvetica,sans-Serif" font-size="10.00">val</text>
<text text-anchor="start" x="12.5" y="-26" font-family="Helvetica,sans-Serif" font-size="10.00">+</text>
<text text-anchor="start" x="25.5" y="-26" font-family="Helvetica,sans-Serif" font-size="10.00">to_double()</text>
<text text-anchor="start" x="12.5" y="-11" font-family="Helvetica,sans-Serif" font-size="10.00">+</text>
<text text-anchor="start" x="25.5" y="-11" font-family="Helvetica,sans-Serif" font-size="10.00">to_j2000()</text>
<polygon fill="#666666" stroke="#666666" points="8.5,-51 8.5,-51 85.5,-51 85.5,-51 8.5,-51"/>
<polygon fill="#666666" stroke="#666666" points="8.5,-36 8.5,-36 23.5,-36 23.5,-36 8.5,-36"/>
<polygon fill="#666666" stroke="#666666" points="23.5,-36 23.5,-36 85.5,-36 85.5,-36 23.5,-36"/>
<polygon fill="none" stroke="#666666" points="8,-4 8,-68 85,-68 85,-4 8,-4"/>
</a>
</g>
</g>
</g>
</svg>
