<?xml version="1.0" encoding="UTF-8" standalone="no"?>
<!DOCTYPE svg PUBLIC "-//W3C//DTD SVG 1.1//EN"
 "http://www.w3.org/Graphics/SVG/1.1/DTD/svg11.dtd">
<!-- Generated by graphviz version 2.43.0 (0)
 -->
<!-- Title: SinexParser::parseSinexEstimateMatrix Pages: 1 -->
<svg width="328pt" height="38pt"
 viewBox="0.00 0.00 328.00 38.00" xmlns="http://www.w3.org/2000/svg" xmlns:xlink="http://www.w3.org/1999/xlink">
<g id="graph0" class="graph" transform="scale(1 1) rotate(0) translate(4 34)">
<title>SinexParser::parseSinexEstimateMatrix</title>
<!-- Node1 -->
<g id="Node000001" class="node">
<title>Node1</title>
<g id="a_Node000001"><a xlink:href="structSinexParser.html#a934f04081238a62ad21f91f7003ea1a0" target="_top" xlink:title=" ">
<path fill="#fff0f0" stroke="red" stroke-width="2" d="M310,-30C310,-30 153,-30 153,-30 148,-30 143,-25 143,-20 143,-20 143,-10 143,-10 143,-5 148,0 153,0 153,0 310,0 310,0 315,0 320,-5 320,-10 320,-10 320,-20 320,-20 320,-25 315,-30 310,-30"/>
<text text-anchor="start" x="151" y="-18" font-family="Helvetica,sans-Serif" font-size="10.00">SinexParser::parseSinexEstimate</text>
<text text-anchor="middle" x="231.5" y="-7" font-family="Helvetica,sans-Serif" font-size="10.00">Matrix</text>
</a>
</g>
</g>
<!-- Node2 -->
<g id="Node000002" class="node">
<title>Node2</title>
<g id="a_Node000002"><a xlink:href="structSinexParser.html#a2937731ff3b60670f34ec3c64ef14d84" target="_top" xlink:title=" ">
<path fill="#fff0f0" stroke="red" d="M100.67,-24.5C100.67,-24.5 6.33,-24.5 6.33,-24.5 3.17,-24.5 0,-21.33 0,-18.17 0,-18.17 0,-11.83 0,-11.83 0,-8.67 3.17,-5.5 6.33,-5.5 6.33,-5.5 100.67,-5.5 100.67,-5.5 103.83,-5.5 107,-8.67 107,-11.83 107,-11.83 107,-18.17 107,-18.17 107,-21.33 103.83,-24.5 100.67,-24.5"/>
<text text-anchor="middle" x="53.5" y="-12.5" font-family="Helvetica,sans-Serif" font-size="10.00">SinexParser::parse</text>
</a>
</g>
</g>
<!-- Node1&#45;&gt;Node2 -->
<g id="edge1_Node000001_Node000002" class="edge">
<title>Node1&#45;&gt;Node2</title>
<g id="a_edge1_Node000001_Node000002"><a xlink:title=" ">
<path fill="none" stroke="#63b8ff" d="M132.75,-15C123.91,-15 115.21,-15 107,-15"/>
<polygon fill="#63b8ff" stroke="#63b8ff" points="132.76,-18.5 142.76,-15 132.76,-11.5 132.76,-18.5"/>
</a>
</g>
</g>
</g>
</svg>
