<?xml version="1.0" encoding="UTF-8" standalone="no"?>
<!DOCTYPE svg PUBLIC "-//W3C//DTD SVG 1.1//EN"
 "http://www.w3.org/Graphics/SVG/1.1/DTD/svg11.dtd">
<!-- Generated by graphviz version 2.43.0 (0)
 -->
<!-- Title: NtripStream::NtripStream Pages: 1 -->
<svg width="294pt" height="82pt"
 viewBox="0.00 0.00 294.00 82.00" xmlns="http://www.w3.org/2000/svg" xmlns:xlink="http://www.w3.org/1999/xlink">
<g id="graph0" class="graph" transform="scale(1 1) rotate(0) translate(4 78)">
<title>NtripStream::NtripStream</title>
<!-- Node1 -->
<g id="Node000001" class="node">
<title>Node1</title>
<g id="a_Node000001"><a xlink:href="structNtripStream.html#aeb821b2c4050cc16c7ece01651d51724" target="_top" xlink:title=" ">
<path fill="#fff0f0" stroke="red" stroke-width="2" d="M134.67,-37C134.67,-37 6.33,-37 6.33,-37 3.17,-37 0,-33.83 0,-30.67 0,-30.67 0,-24.33 0,-24.33 0,-21.17 3.17,-18 6.33,-18 6.33,-18 134.67,-18 134.67,-18 137.83,-18 141,-21.17 141,-24.33 141,-24.33 141,-30.67 141,-30.67 141,-33.83 137.83,-37 134.67,-37"/>
<text text-anchor="middle" x="70.5" y="-25" font-family="Helvetica,sans-Serif" font-size="10.00">NtripStream::NtripStream</text>
</a>
</g>
</g>
<!-- Node2 -->
<g id="Node000002" class="node">
<title>Node2</title>
<g id="a_Node000002"><a xlink:href="structBase64.html#a3e8d4028aff313b0a28f4c65a808f43e" target="_top" xlink:title=" ">
<path fill="#fff0f0" stroke="red" d="M272.17,-56C272.17,-56 190.83,-56 190.83,-56 187.67,-56 184.5,-52.83 184.5,-49.67 184.5,-49.67 184.5,-43.33 184.5,-43.33 184.5,-40.17 187.67,-37 190.83,-37 190.83,-37 272.17,-37 272.17,-37 275.33,-37 278.5,-40.17 278.5,-43.33 278.5,-43.33 278.5,-49.67 278.5,-49.67 278.5,-52.83 275.33,-56 272.17,-56"/>
<text text-anchor="middle" x="231.5" y="-44" font-family="Helvetica,sans-Serif" font-size="10.00">Base64::encode</text>
</a>
</g>
</g>
<!-- Node1&#45;&gt;Node2 -->
<g id="edge1_Node000001_Node000002" class="edge">
<title>Node1&#45;&gt;Node2</title>
<g id="a_edge1_Node000001_Node000002"><a xlink:title=" ">
<path fill="none" stroke="#63b8ff" d="M141.24,-35.83C152.24,-37.15 163.5,-38.49 174.15,-39.77"/>
<polygon fill="#63b8ff" stroke="#63b8ff" points="173.8,-43.25 184.14,-40.96 174.63,-36.3 173.8,-43.25"/>
</a>
</g>
</g>
<!-- Node3 -->
<g id="Node000003" class="node">
<title>Node3</title>
<g id="a_Node000003"><a xlink:href="structTcpSocket.html#a4c09b381dbd56fa09e6187d833994db6" target="_top" xlink:title=" ">
<path fill="#fff0f0" stroke="red" d="M279.67,-19C279.67,-19 183.33,-19 183.33,-19 180.17,-19 177,-15.83 177,-12.67 177,-12.67 177,-6.33 177,-6.33 177,-3.17 180.17,0 183.33,0 183.33,0 279.67,0 279.67,0 282.83,0 286,-3.17 286,-6.33 286,-6.33 286,-12.67 286,-12.67 286,-15.83 282.83,-19 279.67,-19"/>
<text text-anchor="middle" x="231.5" y="-7" font-family="Helvetica,sans-Serif" font-size="10.00">TcpSocket::connect</text>
</a>
</g>
</g>
<!-- Node1&#45;&gt;Node3 -->
<g id="edge3_Node000001_Node000003" class="edge">
<title>Node1&#45;&gt;Node3</title>
<g id="a_edge3_Node000001_Node000003"><a xlink:title=" ">
<path fill="none" stroke="#63b8ff" d="M141.24,-19.6C149.66,-18.65 158.24,-17.68 166.57,-16.74"/>
<polygon fill="#63b8ff" stroke="#63b8ff" points="167.05,-20.21 176.59,-15.6 166.26,-13.25 167.05,-20.21"/>
</a>
</g>
</g>
<!-- Node2&#45;&gt;Node2 -->
<g id="edge2_Node000002_Node000002" class="edge">
<title>Node2&#45;&gt;Node2</title>
<g id="a_edge2_Node000002_Node000002"><a xlink:title=" ">
<path fill="none" stroke="#63b8ff" d="M206.84,-56.08C194.84,-64.73 203.06,-74 231.5,-74 250.16,-74 260.12,-70.01 261.37,-64.82"/>
<polygon fill="#63b8ff" stroke="#63b8ff" points="264.29,-62.88 256.16,-56.08 258.27,-66.47 264.29,-62.88"/>
</a>
</g>
</g>
</g>
</svg>
