<?xml version="1.0" encoding="UTF-8" standalone="no"?>
<!DOCTYPE svg PUBLIC "-//W3C//DTD SVG 1.1//EN"
 "http://www.w3.org/Graphics/SVG/1.1/DTD/svg11.dtd">
<!-- Generated by graphviz version 2.43.0 (0)
 -->
<!-- Title: AutoSender::pushValueKVP Pages: 1 -->
<svg width="422pt" height="46pt"
 viewBox="0.00 0.00 422.00 46.00" xmlns="http://www.w3.org/2000/svg" xmlns:xlink="http://www.w3.org/1999/xlink">
<g id="graph0" class="graph" transform="scale(1 1) rotate(0) translate(4 42)">
<title>AutoSender::pushValueKVP</title>
<!-- Node1 -->
<g id="Node000001" class="node">
<title>Node1</title>
<g id="a_Node000001"><a xlink:href="structAutoSender.html#a2d5da1e46d05a1ea018393a403f861fd" target="_top" xlink:title=" ">
<path fill="#fff0f0" stroke="red" stroke-width="2" d="M407.67,-19C407.67,-19 271.33,-19 271.33,-19 268.17,-19 265,-15.83 265,-12.67 265,-12.67 265,-6.33 265,-6.33 265,-3.17 268.17,0 271.33,0 271.33,0 407.67,0 407.67,0 410.83,0 414,-3.17 414,-6.33 414,-6.33 414,-12.67 414,-12.67 414,-15.83 410.83,-19 407.67,-19"/>
<text text-anchor="middle" x="339.5" y="-7" font-family="Helvetica,sans-Serif" font-size="10.00">AutoSender::pushValueKVP</text>
</a>
</g>
</g>
<!-- Node2 -->
<g id="Node000002" class="node">
<title>Node2</title>
<g id="a_Node000002"><a xlink:href="ppp__obs_8cpp.html#a00edf95b4e699d6e9c00ef7ef301cef7" target="_top" xlink:title=" ">
<path fill="#fff0f0" stroke="red" d="M222.67,-38C222.67,-38 116.33,-38 116.33,-38 113.17,-38 110,-34.83 110,-31.67 110,-31.67 110,-25.33 110,-25.33 110,-22.17 113.17,-19 116.33,-19 116.33,-19 222.67,-19 222.67,-19 225.83,-19 229,-22.17 229,-25.33 229,-25.33 229,-31.67 229,-31.67 229,-34.83 225.83,-38 222.67,-38"/>
<text text-anchor="middle" x="169.5" y="-26" font-family="Helvetica,sans-Serif" font-size="10.00">pppRecPhaseWindup</text>
</a>
</g>
</g>
<!-- Node1&#45;&gt;Node2 -->
<g id="edge1_Node000001_Node000002" class="edge">
<title>Node1&#45;&gt;Node2</title>
<g id="a_edge1_Node000001_Node000002"><a xlink:title=" ">
<path fill="none" stroke="#63b8ff" d="M254.73,-18.97C246.11,-19.95 237.5,-20.92 229.24,-21.86"/>
<polygon fill="#63b8ff" stroke="#63b8ff" points="255.27,-22.44 264.81,-17.83 254.48,-15.48 255.27,-22.44"/>
</a>
</g>
</g>
<!-- Node3 -->
<g id="Node000003" class="node">
<title>Node3</title>
<g id="a_Node000003"><a xlink:href="ppp__obs_8cpp.html#aa9dc8925a7e4b904e12660d44616f1fc" target="_top" xlink:title=" ">
<path fill="#fff0f0" stroke="red" d="M67.67,-19C67.67,-19 6.33,-19 6.33,-19 3.17,-19 0,-15.83 0,-12.67 0,-12.67 0,-6.33 0,-6.33 0,-3.17 3.17,0 6.33,0 6.33,0 67.67,0 67.67,0 70.83,0 74,-3.17 74,-6.33 74,-6.33 74,-12.67 74,-12.67 74,-15.83 70.83,-19 67.67,-19"/>
<text text-anchor="middle" x="37" y="-7" font-family="Helvetica,sans-Serif" font-size="10.00">receiverPPP</text>
</a>
</g>
</g>
<!-- Node1&#45;&gt;Node3 -->
<g id="edge3_Node000001_Node000003" class="edge">
<title>Node1&#45;&gt;Node3</title>
<g id="a_edge3_Node000001_Node000003"><a xlink:title=" ">
<path fill="none" stroke="#63b8ff" d="M254.88,-9.5C195.54,-9.5 118.82,-9.5 74.34,-9.5"/>
<polygon fill="#63b8ff" stroke="#63b8ff" points="254.99,-13 264.99,-9.5 254.99,-6 254.99,-13"/>
</a>
</g>
</g>
<!-- Node2&#45;&gt;Node3 -->
<g id="edge2_Node000002_Node000003" class="edge">
<title>Node2&#45;&gt;Node3</title>
<g id="a_edge2_Node000002_Node000003"><a xlink:title=" ">
<path fill="none" stroke="#63b8ff" d="M99.72,-18.49C90.84,-17.19 82.05,-15.91 74.01,-14.74"/>
<polygon fill="#63b8ff" stroke="#63b8ff" points="99.34,-21.97 109.74,-19.94 100.35,-15.04 99.34,-21.97"/>
</a>
</g>
</g>
</g>
</svg>
