<?xml version="1.0" encoding="UTF-8" standalone="no"?>
<!DOCTYPE svg PUBLIC "-//W3C//DTD SVG 1.1//EN"
 "http://www.w3.org/Graphics/SVG/1.1/DTD/svg11.dtd">
<!-- Generated by graphviz version 2.43.0 (0)
 -->
<!-- Title: SisnetStream::sisnetStartHandler Pages: 1 -->
<svg width="356pt" height="38pt"
 viewBox="0.00 0.00 356.00 38.00" xmlns="http://www.w3.org/2000/svg" xmlns:xlink="http://www.w3.org/1999/xlink">
<g id="graph0" class="graph" transform="scale(1 1) rotate(0) translate(4 34)">
<title>SisnetStream::sisnetStartHandler</title>
<!-- Node1 -->
<g id="Node000001" class="node">
<title>Node1</title>
<g id="a_Node000001"><a xlink:href="structSisnetStream.html#a5dc8b2ed787356a865782bdce91bb37a" target="_top" xlink:title=" ">
<path fill="#fff0f0" stroke="red" stroke-width="2" d="M338,-30C338,-30 218,-30 218,-30 213,-30 208,-25 208,-20 208,-20 208,-10 208,-10 208,-5 213,0 218,0 218,0 338,0 338,0 343,0 348,-5 348,-10 348,-10 348,-20 348,-20 348,-25 343,-30 338,-30"/>
<text text-anchor="start" x="216" y="-18" font-family="Helvetica,sans-Serif" font-size="10.00">SisnetStream::sisnetStart</text>
<text text-anchor="middle" x="278" y="-7" font-family="Helvetica,sans-Serif" font-size="10.00">Handler</text>
</a>
</g>
</g>
<!-- Node2 -->
<g id="Node000002" class="node">
<title>Node2</title>
<g id="a_Node000002"><a xlink:href="structSisnetStream.html#a56cc641704e031342a9c1eba56444c7a" target="_top" xlink:title=" ">
<path fill="#fff0f0" stroke="red" d="M162,-30C162,-30 10,-30 10,-30 5,-30 0,-25 0,-20 0,-20 0,-10 0,-10 0,-5 5,0 10,0 10,0 162,0 162,0 167,0 172,-5 172,-10 172,-10 172,-20 172,-20 172,-25 167,-30 162,-30"/>
<text text-anchor="start" x="8" y="-18" font-family="Helvetica,sans-Serif" font-size="10.00">SisnetStream::requestResponse</text>
<text text-anchor="middle" x="86" y="-7" font-family="Helvetica,sans-Serif" font-size="10.00">Handler</text>
</a>
</g>
</g>
<!-- Node1&#45;&gt;Node2 -->
<g id="edge1_Node000001_Node000002" class="edge">
<title>Node1&#45;&gt;Node2</title>
<g id="a_edge1_Node000001_Node000002"><a xlink:title=" ">
<path fill="none" stroke="#63b8ff" d="M197.72,-15C189.31,-15 180.74,-15 172.27,-15"/>
<polygon fill="#63b8ff" stroke="#63b8ff" points="197.87,-18.5 207.87,-15 197.87,-11.5 197.87,-18.5"/>
</a>
</g>
</g>
</g>
</svg>
