<?xml version="1.0" encoding="UTF-8" standalone="no"?>
<!DOCTYPE svg PUBLIC "-//W3C//DTD SVG 1.1//EN"
 "http://www.w3.org/Graphics/SVG/1.1/DTD/svg11.dtd">
<!-- Generated by graphviz version 2.43.0 (0)
 -->
<!-- Title: RtcmTrace::traceTimestamp Pages: 1 -->
<svg width="404pt" height="64pt"
 viewBox="0.00 0.00 404.00 64.00" xmlns="http://www.w3.org/2000/svg" xmlns:xlink="http://www.w3.org/1999/xlink">
<g id="graph0" class="graph" transform="scale(1 1) rotate(0) translate(4 60)">
<title>RtcmTrace::traceTimestamp</title>
<!-- Node1 -->
<g id="Node000001" class="node">
<title>Node1</title>
<g id="a_Node000001"><a xlink:href="structRtcmTrace.html#a2e5a2d492060c59091840d96dfe07bb8" target="_top" xlink:title=" ">
<path fill="#fff0f0" stroke="red" stroke-width="2" d="M389.67,-37C389.67,-37 248.33,-37 248.33,-37 245.17,-37 242,-33.83 242,-30.67 242,-30.67 242,-24.33 242,-24.33 242,-21.17 245.17,-18 248.33,-18 248.33,-18 389.67,-18 389.67,-18 392.83,-18 396,-21.17 396,-24.33 396,-24.33 396,-30.67 396,-30.67 396,-33.83 392.83,-37 389.67,-37"/>
<text text-anchor="middle" x="319" y="-25" font-family="Helvetica,sans-Serif" font-size="10.00">RtcmTrace::traceTimestamp</text>
</a>
</g>
</g>
<!-- Node2 -->
<g id="Node000002" class="node">
<title>Node2</title>
<g id="a_Node000002"><a xlink:href="structRtcmDecoder.html#a3b7993d7cc20610d8770c2f4d1e902d6" target="_top" xlink:title=" ">
<path fill="#fff0f0" stroke="red" d="M177.17,-56C177.17,-56 28.83,-56 28.83,-56 25.67,-56 22.5,-52.83 22.5,-49.67 22.5,-49.67 22.5,-43.33 22.5,-43.33 22.5,-40.17 25.67,-37 28.83,-37 28.83,-37 177.17,-37 177.17,-37 180.33,-37 183.5,-40.17 183.5,-43.33 183.5,-43.33 183.5,-49.67 183.5,-49.67 183.5,-52.83 180.33,-56 177.17,-56"/>
<text text-anchor="middle" x="103" y="-44" font-family="Helvetica,sans-Serif" font-size="10.00">RtcmDecoder::decodeCustom</text>
</a>
</g>
</g>
<!-- Node1&#45;&gt;Node2 -->
<g id="edge1_Node000001_Node000002" class="edge">
<title>Node1&#45;&gt;Node2</title>
<g id="a_edge1_Node000001_Node000002"><a xlink:title=" ">
<path fill="none" stroke="#63b8ff" d="M231.66,-35.17C215.84,-36.57 199.4,-38.03 183.79,-39.42"/>
<polygon fill="#63b8ff" stroke="#63b8ff" points="232.3,-38.62 241.95,-34.25 231.68,-31.65 232.3,-38.62"/>
</a>
</g>
</g>
<!-- Node5 -->
<g id="Node000005" class="node">
<title>Node5</title>
<g id="a_Node000005"><a xlink:href="structRtcmEncoder.html#aec43680779bba008687e1f4f792960e1" target="_top" xlink:title=" ">
<path fill="#fff0f0" stroke="red" d="M199.67,-19C199.67,-19 6.33,-19 6.33,-19 3.17,-19 0,-15.83 0,-12.67 0,-12.67 0,-6.33 0,-6.33 0,-3.17 3.17,0 6.33,0 6.33,0 199.67,0 199.67,0 202.83,0 206,-3.17 206,-6.33 206,-6.33 206,-12.67 206,-12.67 206,-15.83 202.83,-19 199.67,-19"/>
<text text-anchor="middle" x="103" y="-7" font-family="Helvetica,sans-Serif" font-size="10.00">RtcmEncoder::encodeTimeStampRTCM</text>
</a>
</g>
</g>
<!-- Node1&#45;&gt;Node5 -->
<g id="edge2_Node000001_Node000005" class="edge">
<title>Node1&#45;&gt;Node5</title>
<g id="a_edge2_Node000001_Node000005"><a xlink:title=" ">
<path fill="none" stroke="#63b8ff" d="M231.72,-20.24C223.26,-19.53 214.61,-18.8 206,-18.08"/>
<polygon fill="#63b8ff" stroke="#63b8ff" points="231.69,-23.75 241.95,-21.1 232.28,-16.78 231.69,-23.75"/>
</a>
</g>
</g>
</g>
</svg>
