<?xml version="1.0" encoding="UTF-8" standalone="no"?>
<!DOCTYPE svg PUBLIC "-//W3C//DTD SVG 1.1//EN"
 "http://www.w3.org/Graphics/SVG/1.1/DTD/svg11.dtd">
<!-- Generated by graphviz version 2.43.0 (0)
 -->
<!-- Title: UtcTime::operator GTime Pages: 1 -->
<svg width="243pt" height="27pt"
 viewBox="0.00 0.00 243.00 27.00" xmlns="http://www.w3.org/2000/svg" xmlns:xlink="http://www.w3.org/1999/xlink">
<g id="graph0" class="graph" transform="scale(1 1) rotate(0) translate(4 23)">
<title>UtcTime::operator GTime</title>
<!-- Node1 -->
<g id="Node000001" class="node">
<title>Node1</title>
<g id="a_Node000001"><a xlink:href="structUtcTime.html#a9b30e0b9f54c2b4530dba1c749618a89" target="_top" xlink:title=" ">
<path fill="#fff0f0" stroke="red" stroke-width="2" d="M133.67,-19C133.67,-19 6.33,-19 6.33,-19 3.17,-19 0,-15.83 0,-12.67 0,-12.67 0,-6.33 0,-6.33 0,-3.17 3.17,0 6.33,0 6.33,0 133.67,0 133.67,0 136.83,0 140,-3.17 140,-6.33 140,-6.33 140,-12.67 140,-12.67 140,-15.83 136.83,-19 133.67,-19"/>
<text text-anchor="middle" x="70" y="-7" font-family="Helvetica,sans-Serif" font-size="10.00">UtcTime::operator GTime</text>
</a>
</g>
</g>
<!-- Node2 -->
<g id="Node000002" class="node">
<title>Node2</title>
<g id="a_Node000002"><a xlink:href="gTime_8cpp.html#ad4d46b57a880857abd1826dacf374c77" target="_top" xlink:title=" ">
<path fill="#fff0f0" stroke="red" d="M228.67,-19C228.67,-19 182.33,-19 182.33,-19 179.17,-19 176,-15.83 176,-12.67 176,-12.67 176,-6.33 176,-6.33 176,-3.17 179.17,0 182.33,0 182.33,0 228.67,0 228.67,0 231.83,0 235,-3.17 235,-6.33 235,-6.33 235,-12.67 235,-12.67 235,-15.83 231.83,-19 228.67,-19"/>
<text text-anchor="middle" x="205.5" y="-7" font-family="Helvetica,sans-Serif" font-size="10.00">utc2gpst</text>
</a>
</g>
</g>
<!-- Node1&#45;&gt;Node2 -->
<g id="edge1_Node000001_Node000002" class="edge">
<title>Node1&#45;&gt;Node2</title>
<g id="a_edge1_Node000001_Node000002"><a xlink:title=" ">
<path fill="none" stroke="#63b8ff" d="M140.1,-9.5C148.86,-9.5 157.56,-9.5 165.61,-9.5"/>
<polygon fill="#63b8ff" stroke="#63b8ff" points="165.76,-13 175.76,-9.5 165.76,-6 165.76,-13"/>
</a>
</g>
</g>
</g>
</svg>
