<?xml version="1.0" encoding="UTF-8" standalone="no"?>
<!DOCTYPE svg PUBLIC "-//W3C//DTD SVG 1.1//EN"
 "http://www.w3.org/Graphics/SVG/1.1/DTD/svg11.dtd">
<!-- Generated by graphviz version 2.43.0 (0)
 -->
<!-- Title: IcdDecoder::decodeGPSSubframe3 Pages: 1 -->
<svg width="408pt" height="27pt"
 viewBox="0.00 0.00 408.00 27.00" xmlns="http://www.w3.org/2000/svg" xmlns:xlink="http://www.w3.org/1999/xlink">
<g id="graph0" class="graph" transform="scale(1 1) rotate(0) translate(4 23)">
<title>IcdDecoder::decodeGPSSubframe3</title>
<!-- Node1 -->
<g id="Node000001" class="node">
<title>Node1</title>
<g id="a_Node000001"><a xlink:href="structIcdDecoder.html#afaba292d1d3b077eaf2e7ba3a8cd2ff0" target="_top" xlink:title=" ">
<path fill="#fff0f0" stroke="red" stroke-width="2" d="M393.67,-19C393.67,-19 221.33,-19 221.33,-19 218.17,-19 215,-15.83 215,-12.67 215,-12.67 215,-6.33 215,-6.33 215,-3.17 218.17,0 221.33,0 221.33,0 393.67,0 393.67,0 396.83,0 400,-3.17 400,-6.33 400,-6.33 400,-12.67 400,-12.67 400,-15.83 396.83,-19 393.67,-19"/>
<text text-anchor="middle" x="307.5" y="-7" font-family="Helvetica,sans-Serif" font-size="10.00">IcdDecoder::decodeGPSSubframe3</text>
</a>
</g>
</g>
<!-- Node2 -->
<g id="Node000002" class="node">
<title>Node2</title>
<g id="a_Node000002"><a xlink:href="structIcdDecoder.html#afb7c938f9952f314e4959e98d1077682" target="_top" xlink:title=" ">
<path fill="#fff0f0" stroke="red" d="M172.67,-19C172.67,-19 6.33,-19 6.33,-19 3.17,-19 0,-15.83 0,-12.67 0,-12.67 0,-6.33 0,-6.33 0,-3.17 3.17,0 6.33,0 6.33,0 172.67,0 172.67,0 175.83,0 179,-3.17 179,-6.33 179,-6.33 179,-12.67 179,-12.67 179,-15.83 175.83,-19 172.67,-19"/>
<text text-anchor="middle" x="89.5" y="-7" font-family="Helvetica,sans-Serif" font-size="10.00">IcdDecoder::decodeGpsSubframe</text>
</a>
</g>
</g>
<!-- Node1&#45;&gt;Node2 -->
<g id="edge1_Node000001_Node000002" class="edge">
<title>Node1&#45;&gt;Node2</title>
<g id="a_edge1_Node000001_Node000002"><a xlink:title=" ">
<path fill="none" stroke="#63b8ff" d="M204.85,-9.5C196.27,-9.5 187.62,-9.5 179.15,-9.5"/>
<polygon fill="#63b8ff" stroke="#63b8ff" points="204.9,-13 214.9,-9.5 204.9,-6 204.9,-13"/>
</a>
</g>
</g>
</g>
</svg>
