<?xml version="1.0" encoding="UTF-8" standalone="no"?>
<!DOCTYPE svg PUBLIC "-//W3C//DTD SVG 1.1//EN"
 "http://www.w3.org/Graphics/SVG/1.1/DTD/svg11.dtd">
<!-- Generated by graphviz version 2.43.0 (0)
 -->
<!-- Title: InertialIntegrator Pages: 1 -->
<svg width="157pt" height="739pt"
 viewBox="0.00 0.00 157.00 739.00" xmlns="http://www.w3.org/2000/svg" xmlns:xlink="http://www.w3.org/1999/xlink">
<g id="graph0" class="graph" transform="scale(1 1) rotate(0) translate(4 735)">
<title>InertialIntegrator</title>
<!-- Node1 -->
<g id="Node000001" class="node">
<title>Node1</title>
<g id="a_Node000001"><a xlink:href="structInertialIntegrator.html" target="_top" xlink:title=" ">
<path fill="white" stroke="#666666" stroke-width="2" d="M137,-72C137,-72 12,-72 12,-72 6,-72 0,-66 0,-60 0,-60 0,-12 0,-12 0,-6 6,0 12,0 12,0 137,0 137,0 143,0 149,-6 149,-12 149,-12 149,-60 149,-60 149,-66 143,-72 137,-72"/>
<text text-anchor="start" x="33.5" y="-56" font-family="Helvetica,sans-Serif" font-size="10.00">InertialIntegrator</text>
<text text-anchor="start" x="12.5" y="-41" font-family="Helvetica,sans-Serif" font-size="10.00">+</text>
<text text-anchor="start" x="25.5" y="-41" font-family="Helvetica,sans-Serif" font-size="10.00">odeIntegrator</text>
<text text-anchor="start" x="12.5" y="-26" font-family="Helvetica,sans-Serif" font-size="10.00">+</text>
<text text-anchor="start" x="25.5" y="-26" font-family="Helvetica,sans-Serif" font-size="10.00">operator()()</text>
<text text-anchor="start" x="12.5" y="-11" font-family="Helvetica,sans-Serif" font-size="10.00">+</text>
<text text-anchor="start" x="25.5" y="-11" font-family="Helvetica,sans-Serif" font-size="10.00">computeDeltaInertial()</text>
<polygon fill="#666666" stroke="#666666" points="8.5,-51 8.5,-51 141.5,-51 141.5,-51 8.5,-51"/>
<polygon fill="#666666" stroke="#666666" points="8.5,-36 8.5,-36 23.5,-36 23.5,-36 8.5,-36"/>
<polygon fill="#666666" stroke="#666666" points="23.5,-36 23.5,-36 141.5,-36 141.5,-36 23.5,-36"/>
<polygon fill="none" stroke="#666666" points="8,-4 8,-68 141,-68 141,-4 8,-4"/>
</a>
</g>
</g>
<!-- Node2 -->
<g id="Node000002" class="node">
<title>Node2</title>
<g id="a_Node000002"><a xlink:href="structGTime.html" target="_top" xlink:title="Time structure used throughout this software.">
<path fill="white" stroke="#666666" d="M135.5,-731C135.5,-731 13.5,-731 13.5,-731 7.5,-731 1.5,-725 1.5,-719 1.5,-719 1.5,-131 1.5,-131 1.5,-125 7.5,-119 13.5,-119 13.5,-119 135.5,-119 135.5,-119 141.5,-119 147.5,-125 147.5,-131 147.5,-131 147.5,-719 147.5,-719 147.5,-725 141.5,-731 135.5,-731"/>
<text text-anchor="start" x="58" y="-715" font-family="Helvetica,sans-Serif" font-size="10.00">GTime</text>
<text text-anchor="start" x="13.5" y="-700" font-family="Helvetica,sans-Serif" font-size="10.00">+</text>
<text text-anchor="start" x="26.5" y="-700" font-family="Helvetica,sans-Serif" font-size="10.00">bigTime</text>
<text text-anchor="start" x="13.5" y="-685" font-family="Helvetica,sans-Serif" font-size="10.00">+</text>
<text text-anchor="start" x="26.5" y="-685" font-family="Helvetica,sans-Serif" font-size="10.00">GTime()</text>
<text text-anchor="start" x="13.5" y="-670" font-family="Helvetica,sans-Serif" font-size="10.00">+</text>
<text text-anchor="start" x="26.5" y="-670" font-family="Helvetica,sans-Serif" font-size="10.00">GTime()</text>
<text text-anchor="start" x="13.5" y="-655" font-family="Helvetica,sans-Serif" font-size="10.00">+</text>
<text text-anchor="start" x="26.5" y="-655" font-family="Helvetica,sans-Serif" font-size="10.00">GTime()</text>
<text text-anchor="start" x="13.5" y="-640" font-family="Helvetica,sans-Serif" font-size="10.00">+</text>
<text text-anchor="start" x="26.5" y="-640" font-family="Helvetica,sans-Serif" font-size="10.00">to_string()</text>
<text text-anchor="start" x="13.5" y="-625" font-family="Helvetica,sans-Serif" font-size="10.00">+</text>
<text text-anchor="start" x="26.5" y="-625" font-family="Helvetica,sans-Serif" font-size="10.00">operator==()</text>
<text text-anchor="start" x="13.5" y="-610" font-family="Helvetica,sans-Serif" font-size="10.00">+</text>
<text text-anchor="start" x="26.5" y="-610" font-family="Helvetica,sans-Serif" font-size="10.00">operator!=()</text>
<text text-anchor="start" x="13.5" y="-595" font-family="Helvetica,sans-Serif" font-size="10.00">+</text>
<text text-anchor="start" x="26.5" y="-595" font-family="Helvetica,sans-Serif" font-size="10.00">operator&lt;()</text>
<text text-anchor="start" x="13.5" y="-580" font-family="Helvetica,sans-Serif" font-size="10.00">+</text>
<text text-anchor="start" x="26.5" y="-580" font-family="Helvetica,sans-Serif" font-size="10.00">operator&gt;()</text>
<text text-anchor="start" x="13.5" y="-565" font-family="Helvetica,sans-Serif" font-size="10.00">+</text>
<text text-anchor="start" x="26.5" y="-565" font-family="Helvetica,sans-Serif" font-size="10.00">operator&gt;=()</text>
<text text-anchor="start" x="13.5" y="-550" font-family="Helvetica,sans-Serif" font-size="10.00">+</text>
<text text-anchor="start" x="26.5" y="-550" font-family="Helvetica,sans-Serif" font-size="10.00">operator+()</text>
<text text-anchor="start" x="13.5" y="-535" font-family="Helvetica,sans-Serif" font-size="10.00">+</text>
<text text-anchor="start" x="26.5" y="-535" font-family="Helvetica,sans-Serif" font-size="10.00">operator+()</text>
<text text-anchor="start" x="13.5" y="-520" font-family="Helvetica,sans-Serif" font-size="10.00">+</text>
<text text-anchor="start" x="26.5" y="-520" font-family="Helvetica,sans-Serif" font-size="10.00">operator+()</text>
<text text-anchor="start" x="13.5" y="-505" font-family="Helvetica,sans-Serif" font-size="10.00">+</text>
<text text-anchor="start" x="26.5" y="-505" font-family="Helvetica,sans-Serif" font-size="10.00">operator+=()</text>
<text text-anchor="start" x="13.5" y="-490" font-family="Helvetica,sans-Serif" font-size="10.00">+</text>
<text text-anchor="start" x="26.5" y="-490" font-family="Helvetica,sans-Serif" font-size="10.00">operator&#45;=()</text>
<text text-anchor="start" x="13.5" y="-475" font-family="Helvetica,sans-Serif" font-size="10.00">+</text>
<text text-anchor="start" x="26.5" y="-475" font-family="Helvetica,sans-Serif" font-size="10.00">operator&#45;()</text>
<text text-anchor="start" x="13.5" y="-460" font-family="Helvetica,sans-Serif" font-size="10.00">+</text>
<text text-anchor="start" x="26.5" y="-460" font-family="Helvetica,sans-Serif" font-size="10.00">operator&#45;()</text>
<text text-anchor="start" x="13.5" y="-445" font-family="Helvetica,sans-Serif" font-size="10.00">+</text>
<text text-anchor="start" x="26.5" y="-445" font-family="Helvetica,sans-Serif" font-size="10.00">operator&#45;()</text>
<text text-anchor="start" x="13.5" y="-430" font-family="Helvetica,sans-Serif" font-size="10.00">+</text>
<text text-anchor="start" x="26.5" y="-430" font-family="Helvetica,sans-Serif" font-size="10.00">operator++()</text>
<text text-anchor="start" x="13.5" y="-415" font-family="Helvetica,sans-Serif" font-size="10.00">+</text>
<text text-anchor="start" x="26.5" y="-415" font-family="Helvetica,sans-Serif" font-size="10.00">GTime()</text>
<text text-anchor="start" x="13.5" y="-400" font-family="Helvetica,sans-Serif" font-size="10.00">+</text>
<text text-anchor="start" x="26.5" y="-400" font-family="Helvetica,sans-Serif" font-size="10.00">GTime()</text>
<text text-anchor="start" x="13.5" y="-385" font-family="Helvetica,sans-Serif" font-size="10.00">+</text>
<text text-anchor="start" x="26.5" y="-385" font-family="Helvetica,sans-Serif" font-size="10.00">GTime()</text>
<text text-anchor="start" x="13.5" y="-370" font-family="Helvetica,sans-Serif" font-size="10.00">+</text>
<text text-anchor="start" x="26.5" y="-370" font-family="Helvetica,sans-Serif" font-size="10.00">GTime()</text>
<text text-anchor="start" x="13.5" y="-355" font-family="Helvetica,sans-Serif" font-size="10.00">+</text>
<text text-anchor="start" x="26.5" y="-355" font-family="Helvetica,sans-Serif" font-size="10.00">GTime()</text>
<text text-anchor="start" x="13.5" y="-340" font-family="Helvetica,sans-Serif" font-size="10.00">+</text>
<text text-anchor="start" x="26.5" y="-340" font-family="Helvetica,sans-Serif" font-size="10.00">serialize()</text>
<text text-anchor="start" x="13.5" y="-325" font-family="Helvetica,sans-Serif" font-size="10.00">+</text>
<text text-anchor="start" x="26.5" y="-325" font-family="Helvetica,sans-Serif" font-size="10.00">floorTime()</text>
<text text-anchor="start" x="13.5" y="-310" font-family="Helvetica,sans-Serif" font-size="10.00">+</text>
<text text-anchor="start" x="26.5" y="-310" font-family="Helvetica,sans-Serif" font-size="10.00">gregString()</text>
<text text-anchor="start" x="13.5" y="-295" font-family="Helvetica,sans-Serif" font-size="10.00">+</text>
<text text-anchor="start" x="26.5" y="-295" font-family="Helvetica,sans-Serif" font-size="10.00">operator long double()</text>
<text text-anchor="start" x="13.5" y="-280" font-family="Helvetica,sans-Serif" font-size="10.00">+</text>
<text text-anchor="start" x="26.5" y="-280" font-family="Helvetica,sans-Serif" font-size="10.00">operator MjDateTT()</text>
<text text-anchor="start" x="13.5" y="-265" font-family="Helvetica,sans-Serif" font-size="10.00">+</text>
<text text-anchor="start" x="26.5" y="-265" font-family="Helvetica,sans-Serif" font-size="10.00">operator GEpoch()</text>
<text text-anchor="start" x="13.5" y="-250" font-family="Helvetica,sans-Serif" font-size="10.00">+</text>
<text text-anchor="start" x="26.5" y="-250" font-family="Helvetica,sans-Serif" font-size="10.00">operator UtcTime()</text>
<text text-anchor="start" x="13.5" y="-235" font-family="Helvetica,sans-Serif" font-size="10.00">+</text>
<text text-anchor="start" x="26.5" y="-235" font-family="Helvetica,sans-Serif" font-size="10.00">operator GWeek()</text>
<text text-anchor="start" x="13.5" y="-220" font-family="Helvetica,sans-Serif" font-size="10.00">+</text>
<text text-anchor="start" x="26.5" y="-220" font-family="Helvetica,sans-Serif" font-size="10.00">operator BWeek()</text>
<text text-anchor="start" x="13.5" y="-205" font-family="Helvetica,sans-Serif" font-size="10.00">+</text>
<text text-anchor="start" x="26.5" y="-205" font-family="Helvetica,sans-Serif" font-size="10.00">operator GTow()</text>
<text text-anchor="start" x="13.5" y="-190" font-family="Helvetica,sans-Serif" font-size="10.00">+</text>
<text text-anchor="start" x="26.5" y="-190" font-family="Helvetica,sans-Serif" font-size="10.00">operator BTow()</text>
<text text-anchor="start" x="13.5" y="-175" font-family="Helvetica,sans-Serif" font-size="10.00">+</text>
<text text-anchor="start" x="26.5" y="-175" font-family="Helvetica,sans-Serif" font-size="10.00">operator PTime()</text>
<text text-anchor="start" x="13.5" y="-160" font-family="Helvetica,sans-Serif" font-size="10.00">+</text>
<text text-anchor="start" x="26.5" y="-160" font-family="Helvetica,sans-Serif" font-size="10.00">operator string()</text>
<text text-anchor="start" x="13.5" y="-145" font-family="Helvetica,sans-Serif" font-size="10.00">+</text>
<text text-anchor="start" x="26.5" y="-145" font-family="Helvetica,sans-Serif" font-size="10.00">operator RTod()</text>
<text text-anchor="start" x="13.5" y="-130" font-family="Helvetica,sans-Serif" font-size="10.00">+</text>
<text text-anchor="start" x="26.5" y="-130" font-family="Helvetica,sans-Serif" font-size="10.00">noTime()</text>
<polygon fill="#666666" stroke="#666666" points="9.5,-710 9.5,-710 139.5,-710 139.5,-710 9.5,-710"/>
<polygon fill="#666666" stroke="#666666" points="9.5,-695 9.5,-695 24.5,-695 24.5,-695 9.5,-695"/>
<polygon fill="#666666" stroke="#666666" points="24.5,-695 24.5,-695 139.5,-695 139.5,-695 24.5,-695"/>
<polygon fill="none" stroke="#666666" points="9.5,-123 9.5,-727 139.5,-727 139.5,-123 9.5,-123"/>
</a>
</g>
</g>
<!-- Node2&#45;&gt;Node1 -->
<g id="edge1_Node000001_Node000002" class="edge">
<title>Node2&#45;&gt;Node1</title>
<g id="a_edge1_Node000001_Node000002"><a xlink:title=" ">
<path fill="none" stroke="#63b8ff" d="M74.5,-118.6C74.5,-106.15 74.5,-94.64 74.5,-84.43"/>
<polygon fill="none" stroke="#63b8ff" points="74.5,-84.22 70.5,-78.22 74.5,-72.22 78.5,-78.22 74.5,-84.22"/>
</a>
</g>
<text text-anchor="middle" x="99.5" y="-93" font-family="Helvetica,sans-Serif" font-size="10.00" fill="grey"> +timeInit</text>
</g>
</g>
</svg>
