<?xml version="1.0" encoding="UTF-8" standalone="no"?>
<!DOCTYPE svg PUBLIC "-//W3C//DTD SVG 1.1//EN"
 "http://www.w3.org/Graphics/SVG/1.1/DTD/svg11.dtd">
<!-- Generated by graphviz version 2.43.0 (0)
 -->
<!-- Title: CustomDecoder::decodeESF Pages: 1 -->
<svg width="334pt" height="27pt"
 viewBox="0.00 0.00 334.00 27.00" xmlns="http://www.w3.org/2000/svg" xmlns:xlink="http://www.w3.org/1999/xlink">
<g id="graph0" class="graph" transform="scale(1 1) rotate(0) translate(4 23)">
<title>CustomDecoder::decodeESF</title>
<!-- Node1 -->
<g id="Node000001" class="node">
<title>Node1</title>
<g id="a_Node000001"><a xlink:href="structCustomDecoder.html#a08bfa0a7e2348a70f2da67dc8a6b0c33" target="_top" xlink:title=" ">
<path fill="#fff0f0" stroke="red" stroke-width="2" d="M319.67,-19C319.67,-19 178.33,-19 178.33,-19 175.17,-19 172,-15.83 172,-12.67 172,-12.67 172,-6.33 172,-6.33 172,-3.17 175.17,0 178.33,0 178.33,0 319.67,0 319.67,0 322.83,0 326,-3.17 326,-6.33 326,-6.33 326,-12.67 326,-12.67 326,-15.83 322.83,-19 319.67,-19"/>
<text text-anchor="middle" x="249" y="-7" font-family="Helvetica,sans-Serif" font-size="10.00">CustomDecoder::decodeESF</text>
</a>
</g>
</g>
<!-- Node2 -->
<g id="Node000002" class="node">
<title>Node2</title>
<g id="a_Node000002"><a xlink:href="structCustomDecoder.html#a1904db26f92b7a03abea464d19b8366f" target="_top" xlink:title=" ">
<path fill="#fff0f0" stroke="red" d="M129.67,-19C129.67,-19 6.33,-19 6.33,-19 3.17,-19 0,-15.83 0,-12.67 0,-12.67 0,-6.33 0,-6.33 0,-3.17 3.17,0 6.33,0 6.33,0 129.67,0 129.67,0 132.83,0 136,-3.17 136,-6.33 136,-6.33 136,-12.67 136,-12.67 136,-15.83 132.83,-19 129.67,-19"/>
<text text-anchor="middle" x="68" y="-7" font-family="Helvetica,sans-Serif" font-size="10.00">CustomDecoder::decode</text>
</a>
</g>
</g>
<!-- Node1&#45;&gt;Node2 -->
<g id="edge1_Node000001_Node000002" class="edge">
<title>Node1&#45;&gt;Node2</title>
<g id="a_edge1_Node000001_Node000002"><a xlink:title=" ">
<path fill="none" stroke="#63b8ff" d="M161.74,-9.5C153.11,-9.5 144.44,-9.5 136.05,-9.5"/>
<polygon fill="#63b8ff" stroke="#63b8ff" points="161.83,-13 171.83,-9.5 161.83,-6 161.83,-13"/>
</a>
</g>
</g>
</g>
</svg>
