<?xml version="1.0" encoding="UTF-8" standalone="no"?>
<!DOCTYPE svg PUBLIC "-//W3C//DTD SVG 1.1//EN"
 "http://www.w3.org/Graphics/SVG/1.1/DTD/svg11.dtd">
<!-- Generated by graphviz version 2.43.0 (0)
 -->
<!-- Title: SinexParser::parseSinexEstimates Pages: 1 -->
<svg width="363pt" height="27pt"
 viewBox="0.00 0.00 363.00 27.00" xmlns="http://www.w3.org/2000/svg" xmlns:xlink="http://www.w3.org/1999/xlink">
<g id="graph0" class="graph" transform="scale(1 1) rotate(0) translate(4 23)">
<title>SinexParser::parseSinexEstimates</title>
<!-- Node1 -->
<g id="Node000001" class="node">
<title>Node1</title>
<g id="a_Node000001"><a xlink:href="structSinexParser.html#ac83a748e7684f1e4b129899692cb9aa7" target="_top" xlink:title=" ">
<path fill="#fff0f0" stroke="red" stroke-width="2" d="M175.67,-19C175.67,-19 6.33,-19 6.33,-19 3.17,-19 0,-15.83 0,-12.67 0,-12.67 0,-6.33 0,-6.33 0,-3.17 3.17,0 6.33,0 6.33,0 175.67,0 175.67,0 178.83,0 182,-3.17 182,-6.33 182,-6.33 182,-12.67 182,-12.67 182,-15.83 178.83,-19 175.67,-19"/>
<text text-anchor="middle" x="91" y="-7" font-family="Helvetica,sans-Serif" font-size="10.00">SinexParser::parseSinexEstimates</text>
</a>
</g>
</g>
<!-- Node2 -->
<g id="Node000002" class="node">
<title>Node2</title>
<g id="a_Node000002"><a xlink:href="structSinexParser.html#afc2cf33d23cb84147ae5890880d7df59" target="_top" xlink:title=" ">
<path fill="#fff0f0" stroke="red" d="M348.67,-19C348.67,-19 224.33,-19 224.33,-19 221.17,-19 218,-15.83 218,-12.67 218,-12.67 218,-6.33 218,-6.33 218,-3.17 221.17,0 224.33,0 224.33,0 348.67,0 348.67,0 351.83,0 355,-3.17 355,-6.33 355,-6.33 355,-12.67 355,-12.67 355,-15.83 351.83,-19 348.67,-19"/>
<text text-anchor="middle" x="286.5" y="-7" font-family="Helvetica,sans-Serif" font-size="10.00">SinexParser::nearestYear</text>
</a>
</g>
</g>
<!-- Node1&#45;&gt;Node2 -->
<g id="edge1_Node000001_Node000002" class="edge">
<title>Node1&#45;&gt;Node2</title>
<g id="a_edge1_Node000001_Node000002"><a xlink:title=" ">
<path fill="none" stroke="#63b8ff" d="M182.24,-9.5C190.78,-9.5 199.39,-9.5 207.81,-9.5"/>
<polygon fill="#63b8ff" stroke="#63b8ff" points="207.95,-13 217.95,-9.5 207.95,-6 207.95,-13"/>
</a>
</g>
</g>
</g>
</svg>
