<?xml version="1.0" encoding="UTF-8" standalone="no"?>
<!DOCTYPE svg PUBLIC "-//W3C//DTD SVG 1.1//EN"
 "http://www.w3.org/Graphics/SVG/1.1/DTD/svg11.dtd">
<!-- Generated by graphviz version 2.43.0 (0)
 -->
<!-- Title: FundamentalArgs Pages: 1 -->
<svg width="139pt" height="233pt"
 viewBox="0.00 0.00 139.00 233.00" xmlns="http://www.w3.org/2000/svg" xmlns:xlink="http://www.w3.org/1999/xlink">
<g id="graph0" class="graph" transform="scale(1 1) rotate(0) translate(4 229)">
<title>FundamentalArgs</title>
<!-- Node1 -->
<g id="Node000001" class="node">
<title>Node1</title>
<g id="a_Node000001"><a xlink:href="structFundamentalArgs.html" target="_top" xlink:title=" ">
<path fill="white" stroke="#666666" stroke-width="2" d="M119,-132C119,-132 12,-132 12,-132 6,-132 0,-126 0,-120 0,-120 0,-12 0,-12 0,-6 6,0 12,0 12,0 119,0 119,0 125,0 131,-6 131,-12 131,-12 131,-120 131,-120 131,-126 125,-132 119,-132"/>
<text text-anchor="start" x="23" y="-116" font-family="Helvetica,sans-Serif" font-size="10.00">FundamentalArgs</text>
<text text-anchor="start" x="12.5" y="-101" font-family="Helvetica,sans-Serif" font-size="10.00">+</text>
<text text-anchor="start" x="25.5" y="-101" font-family="Helvetica,sans-Serif" font-size="10.00">gmst</text>
<text text-anchor="start" x="12.5" y="-86" font-family="Helvetica,sans-Serif" font-size="10.00">+</text>
<text text-anchor="start" x="25.5" y="-86" font-family="Helvetica,sans-Serif" font-size="10.00">l</text>
<text text-anchor="start" x="12.5" y="-71" font-family="Helvetica,sans-Serif" font-size="10.00">+</text>
<text text-anchor="start" x="25.5" y="-71" font-family="Helvetica,sans-Serif" font-size="10.00">l_prime</text>
<text text-anchor="start" x="12.5" y="-56" font-family="Helvetica,sans-Serif" font-size="10.00">+</text>
<text text-anchor="start" x="25.5" y="-56" font-family="Helvetica,sans-Serif" font-size="10.00">f</text>
<text text-anchor="start" x="12.5" y="-41" font-family="Helvetica,sans-Serif" font-size="10.00">+</text>
<text text-anchor="start" x="25.5" y="-41" font-family="Helvetica,sans-Serif" font-size="10.00">d</text>
<text text-anchor="start" x="12.5" y="-26" font-family="Helvetica,sans-Serif" font-size="10.00">+</text>
<text text-anchor="start" x="25.5" y="-26" font-family="Helvetica,sans-Serif" font-size="10.00">omega</text>
<text text-anchor="start" x="12.5" y="-11" font-family="Helvetica,sans-Serif" font-size="10.00">+</text>
<text text-anchor="start" x="25.5" y="-11" font-family="Helvetica,sans-Serif" font-size="10.00">FundamentalArgs()</text>
<polygon fill="#666666" stroke="#666666" points="8.5,-111 8.5,-111 123.5,-111 123.5,-111 8.5,-111"/>
<polygon fill="#666666" stroke="#666666" points="8.5,-21 8.5,-21 23.5,-21 23.5,-21 8.5,-21"/>
<polygon fill="#666666" stroke="#666666" points="23.5,-21 23.5,-21 123.5,-21 123.5,-21 23.5,-21"/>
<polygon fill="none" stroke="#666666" points="8,-4 8,-128 123,-128 123,-4 8,-4"/>
</a>
</g>
</g>
<!-- Node2 -->
<g id="Node000002" class="node">
<title>Node2</title>
<g id="a_Node000002"><a xlink:title=" ">
<path fill="white" stroke="#666666" d="M86,-225C86,-225 45,-225 45,-225 39,-225 33,-219 33,-213 33,-213 33,-180 33,-180 33,-174 39,-168 45,-168 45,-168 86,-168 86,-168 92,-168 98,-174 98,-180 98,-180 98,-213 98,-213 98,-219 92,-225 86,-225"/>
<text text-anchor="start" x="46.5" y="-208.5" font-family="Helvetica,sans-Serif" font-size="10.00">Array6d</text>
<text text-anchor="start" x="64" y="-193.5" font-family="Helvetica,sans-Serif" font-size="10.00"> </text>
<text text-anchor="start" x="64" y="-178.5" font-family="Helvetica,sans-Serif" font-size="10.00"> </text>
<polygon fill="#666666" stroke="#666666" points="41.5,-203.5 41.5,-203.5 90.5,-203.5 90.5,-203.5 41.5,-203.5"/>
<polygon fill="#666666" stroke="#666666" points="41.5,-188.5 41.5,-188.5 90.5,-188.5 90.5,-188.5 41.5,-188.5"/>
<polygon fill="none" stroke="#666666" points="41,-172 41,-221 90,-221 90,-172 41,-172"/>
</a>
</g>
</g>
<!-- Node2&#45;&gt;Node1 -->
<g id="edge1_Node000001_Node000002" class="edge">
<title>Node2&#45;&gt;Node1</title>
<g id="a_edge1_Node000001_Node000002"><a xlink:title=" ">
<path fill="none" stroke="#63b8ff" d="M65.5,-157.72C65.5,-149.61 65.5,-140.82 65.5,-132.01"/>
<polygon fill="none" stroke="#63b8ff" points="62,-157.93 65.5,-167.93 69,-157.93 62,-157.93"/>
</a>
</g>
</g>
</g>
</svg>
