<?xml version="1.0" encoding="UTF-8" standalone="no"?>
<!DOCTYPE svg PUBLIC "-//W3C//DTD SVG 1.1//EN"
 "http://www.w3.org/Graphics/SVG/1.1/DTD/svg11.dtd">
<!-- Generated by graphviz version 2.43.0 (0)
 -->
<!-- Title: URL Pages: 1 -->
<svg width="234pt" height="369pt"
 viewBox="0.00 0.00 234.00 369.00" xmlns="http://www.w3.org/2000/svg" xmlns:xlink="http://www.w3.org/1999/xlink">
<g id="graph0" class="graph" transform="scale(1 1) rotate(0) translate(4 365)">
<title>URL</title>
<!-- Node1 -->
<g id="Node000001" class="node">
<title>Node1</title>
<g id="a_Node000001"><a xlink:href="structURL.html" target="_top" xlink:title=" ">
<path fill="white" stroke="#666666" stroke-width="2" d="M104.5,-87C104.5,-87 39.5,-87 39.5,-87 33.5,-87 27.5,-81 27.5,-75 27.5,-75 27.5,-12 27.5,-12 27.5,-6 33.5,0 39.5,0 39.5,0 104.5,0 104.5,0 110.5,0 116.5,-6 116.5,-12 116.5,-12 116.5,-75 116.5,-75 116.5,-81 110.5,-87 104.5,-87"/>
<text text-anchor="start" x="62.5" y="-70.5" font-family="Helvetica,sans-Serif" font-size="10.00">URL</text>
<text text-anchor="start" x="40" y="-55.5" font-family="Helvetica,sans-Serif" font-size="10.00">+</text>
<text text-anchor="start" x="53" y="-55.5" font-family="Helvetica,sans-Serif" font-size="10.00">port</text>
<text text-anchor="start" x="40" y="-40.5" font-family="Helvetica,sans-Serif" font-size="10.00">+</text>
<text text-anchor="start" x="53" y="-40.5" font-family="Helvetica,sans-Serif" font-size="10.00">URL()</text>
<text text-anchor="start" x="40" y="-25.5" font-family="Helvetica,sans-Serif" font-size="10.00">+</text>
<text text-anchor="start" x="53" y="-25.5" font-family="Helvetica,sans-Serif" font-size="10.00">URL()</text>
<text text-anchor="start" x="40" y="-10.5" font-family="Helvetica,sans-Serif" font-size="10.00">+</text>
<text text-anchor="start" x="53" y="-10.5" font-family="Helvetica,sans-Serif" font-size="10.00">sanitised()</text>
<polygon fill="#666666" stroke="#666666" points="36,-65.5 36,-65.5 109,-65.5 109,-65.5 36,-65.5"/>
<polygon fill="#666666" stroke="#666666" points="36,-50.5 36,-50.5 51,-50.5 51,-50.5 36,-50.5"/>
<polygon fill="#666666" stroke="#666666" points="51,-50.5 51,-50.5 109,-50.5 109,-50.5 51,-50.5"/>
<polygon fill="none" stroke="#666666" points="35.5,-4 35.5,-83 108.5,-83 108.5,-4 35.5,-4"/>
</a>
</g>
</g>
<!-- Node2 -->
<g id="Node000002" class="node">
<title>Node2</title>
<g id="a_Node000002"><a xlink:title=" ">
<path fill="white" stroke="#666666" d="M42,-257C42,-257 12,-257 12,-257 6,-257 0,-251 0,-245 0,-245 0,-212 0,-212 0,-206 6,-200 12,-200 12,-200 42,-200 42,-200 48,-200 54,-206 54,-212 54,-212 54,-245 54,-245 54,-251 48,-257 42,-257"/>
<text text-anchor="start" x="13" y="-240.5" font-family="Helvetica,sans-Serif" font-size="10.00">string</text>
<text text-anchor="start" x="25" y="-225.5" font-family="Helvetica,sans-Serif" font-size="10.00"> </text>
<text text-anchor="start" x="25" y="-210.5" font-family="Helvetica,sans-Serif" font-size="10.00"> </text>
<polygon fill="#666666" stroke="#666666" points="8,-235.5 8,-235.5 46,-235.5 46,-235.5 8,-235.5"/>
<polygon fill="#666666" stroke="#666666" points="8,-220.5 8,-220.5 46,-220.5 46,-220.5 8,-220.5"/>
<polygon fill="none" stroke="#666666" points="8,-204 8,-253 46,-253 46,-204 8,-204"/>
</a>
</g>
</g>
<!-- Node2&#45;&gt;Node1 -->
<g id="edge1_Node000001_Node000002" class="edge">
<title>Node2&#45;&gt;Node1</title>
<g id="a_edge1_Node000001_Node000002"><a xlink:title=" ">
<path fill="none" stroke="#63b8ff" d="M29.68,-199.86C32.53,-174.77 37.93,-136.92 47,-105 47.6,-102.88 48.26,-100.73 48.95,-98.57"/>
<polygon fill="none" stroke="#63b8ff" points="49.03,-98.36 47.24,-91.37 53,-87.03 54.79,-94.02 49.03,-98.36"/>
</a>
</g>
<text text-anchor="middle" x="71.5" y="-174" font-family="Helvetica,sans-Serif" font-size="10.00" fill="grey"> +host</text>
<text text-anchor="middle" x="71.5" y="-163" font-family="Helvetica,sans-Serif" font-size="10.00" fill="grey">+pass</text>
<text text-anchor="middle" x="71.5" y="-152" font-family="Helvetica,sans-Serif" font-size="10.00" fill="grey">+path</text>
<text text-anchor="middle" x="71.5" y="-141" font-family="Helvetica,sans-Serif" font-size="10.00" fill="grey">+portStr</text>
<text text-anchor="middle" x="71.5" y="-130" font-family="Helvetica,sans-Serif" font-size="10.00" fill="grey">+protocol</text>
<text text-anchor="middle" x="71.5" y="-119" font-family="Helvetica,sans-Serif" font-size="10.00" fill="grey">+url</text>
<text text-anchor="middle" x="71.5" y="-108" font-family="Helvetica,sans-Serif" font-size="10.00" fill="grey">+user</text>
</g>
<!-- Node3 -->
<g id="Node000003" class="node">
<title>Node3</title>
<g id="a_Node000003"><a xlink:title=" ">
<path fill="white" stroke="#666666" d="M192,-257C192,-257 84,-257 84,-257 78,-257 72,-251 72,-245 72,-245 72,-212 72,-212 72,-206 78,-200 84,-200 84,-200 192,-200 192,-200 198,-200 204,-206 204,-212 204,-212 204,-245 204,-245 204,-251 198,-257 192,-257"/>
<text text-anchor="start" x="85" y="-240.5" font-family="Helvetica,sans-Serif" font-size="10.00">map&lt; string, string &gt;</text>
<text text-anchor="start" x="136" y="-225.5" font-family="Helvetica,sans-Serif" font-size="10.00"> </text>
<text text-anchor="start" x="136" y="-210.5" font-family="Helvetica,sans-Serif" font-size="10.00"> </text>
<polygon fill="#666666" stroke="#666666" points="80,-235.5 80,-235.5 196,-235.5 196,-235.5 80,-235.5"/>
<polygon fill="#666666" stroke="#666666" points="80,-220.5 80,-220.5 196,-220.5 196,-220.5 80,-220.5"/>
<polygon fill="none" stroke="#666666" points="80,-204 80,-253 196,-253 196,-204 80,-204"/>
</a>
</g>
</g>
<!-- Node3&#45;&gt;Node1 -->
<g id="edge2_Node000001_Node000003" class="edge">
<title>Node3&#45;&gt;Node1</title>
<g id="a_edge2_Node000001_Node000003"><a xlink:title=" ">
<path fill="none" stroke="#63b8ff" d="M128.86,-199.64C120.6,-174.72 107.92,-137.27 96,-105 95.19,-102.81 94.36,-100.59 93.51,-98.34"/>
<polygon fill="none" stroke="#63b8ff" points="93.47,-98.24 87.59,-94.08 89.17,-87.04 95.05,-91.21 93.47,-98.24"/>
</a>
</g>
<text text-anchor="middle" x="146.5" y="-141" font-family="Helvetica,sans-Serif" font-size="10.00" fill="grey"> +params</text>
</g>
<!-- Node4 -->
<g id="Node000004" class="node">
<title>Node4</title>
<g id="a_Node000004"><a xlink:title=" ">
<path fill="white" stroke="#666666" d="M150,-361C150,-361 126,-361 126,-361 120,-361 114,-355 114,-349 114,-349 114,-316 114,-316 114,-310 120,-304 126,-304 126,-304 150,-304 150,-304 156,-304 162,-310 162,-316 162,-316 162,-349 162,-349 162,-355 156,-361 150,-361"/>
<text text-anchor="start" x="127" y="-344.5" font-family="Helvetica,sans-Serif" font-size="10.00">map</text>
<text text-anchor="start" x="136" y="-329.5" font-family="Helvetica,sans-Serif" font-size="10.00"> </text>
<text text-anchor="start" x="136" y="-314.5" font-family="Helvetica,sans-Serif" font-size="10.00"> </text>
<polygon fill="#666666" stroke="#666666" points="122,-339.5 122,-339.5 154,-339.5 154,-339.5 122,-339.5"/>
<polygon fill="#666666" stroke="#666666" points="122,-324.5 122,-324.5 154,-324.5 154,-324.5 122,-324.5"/>
<polygon fill="none" stroke="#666666" points="122,-308 122,-357 154,-357 154,-308 122,-308"/>
</a>
</g>
</g>
<!-- Node4&#45;&gt;Node3 -->
<g id="edge3_Node000003_Node000004" class="edge">
<title>Node4&#45;&gt;Node3</title>
<g id="a_edge3_Node000003_Node000004"><a xlink:title=" ">
<path fill="none" stroke="orange" d="M138,-293.61C138,-281.51 138,-268.35 138,-257.12"/>
<polygon fill="orange" stroke="orange" points="134.5,-293.9 138,-303.9 141.5,-293.9 134.5,-293.9"/>
</a>
</g>
<text text-anchor="middle" x="182" y="-278" font-family="Helvetica,sans-Serif" font-size="10.00" fill="grey"> &lt; string, string &gt;</text>
</g>
</g>
</svg>
