<?xml version="1.0" encoding="UTF-8" standalone="no"?>
<!DOCTYPE svg PUBLIC "-//W3C//DTD SVG 1.1//EN"
 "http://www.w3.org/Graphics/SVG/1.1/DTD/svg11.dtd">
<!-- Generated by graphviz version 2.43.0 (0)
 -->
<!-- Title: RtcmEncoder Pages: 1 -->
<svg width="612pt" height="674pt"
 viewBox="0.00 0.00 611.50 674.00" xmlns="http://www.w3.org/2000/svg" xmlns:xlink="http://www.w3.org/1999/xlink">
<g id="graph0" class="graph" transform="scale(1 1) rotate(0) translate(4 670)">
<title>RtcmEncoder</title>
<!-- Node1 -->
<g id="Node000001" class="node">
<title>Node1</title>
<g id="a_Node000001"><a xlink:href="structRtcmEncoder.html" target="_top" xlink:title=" ">
<path fill="white" stroke="#666666" stroke-width="2" d="M367.5,-237C367.5,-237 201.5,-237 201.5,-237 195.5,-237 189.5,-231 189.5,-225 189.5,-225 189.5,-12 189.5,-12 189.5,-6 195.5,0 201.5,0 201.5,0 367.5,0 367.5,0 373.5,0 379.5,-6 379.5,-12 379.5,-12 379.5,-225 379.5,-225 379.5,-231 373.5,-237 367.5,-237"/>
<text text-anchor="start" x="252" y="-220.5" font-family="Helvetica,sans-Serif" font-size="10.00">RtcmEncoder</text>
<text text-anchor="start" x="201.5" y="-205.5" font-family="Helvetica,sans-Serif" font-size="10.00">+</text>
<text text-anchor="start" x="214.5" y="-205.5" font-family="Helvetica,sans-Serif" font-size="10.00">masterIod</text>
<text text-anchor="start" x="201.5" y="-190.5" font-family="Helvetica,sans-Serif" font-size="10.00">+</text>
<text text-anchor="start" x="214.5" y="-190.5" font-family="Helvetica,sans-Serif" font-size="10.00">updateInterval</text>
<text text-anchor="start" x="201.5" y="-175.5" font-family="Helvetica,sans-Serif" font-size="10.00">+</text>
<text text-anchor="start" x="214.5" y="-175.5" font-family="Helvetica,sans-Serif" font-size="10.00">RtcmEncoder()</text>
<text text-anchor="start" x="201.5" y="-160.5" font-family="Helvetica,sans-Serif" font-size="10.00">+</text>
<text text-anchor="start" x="214.5" y="-160.5" font-family="Helvetica,sans-Serif" font-size="10.00">encodeWriteMessages()</text>
<text text-anchor="start" x="201.5" y="-145.5" font-family="Helvetica,sans-Serif" font-size="10.00">+</text>
<text text-anchor="start" x="214.5" y="-145.5" font-family="Helvetica,sans-Serif" font-size="10.00">encodeWriteMessageToBuffer()</text>
<text text-anchor="start" x="201.5" y="-130.5" font-family="Helvetica,sans-Serif" font-size="10.00">+</text>
<text text-anchor="start" x="214.5" y="-130.5" font-family="Helvetica,sans-Serif" font-size="10.00">encodeTimeStampRTCM()</text>
<text text-anchor="start" x="201.5" y="-115.5" font-family="Helvetica,sans-Serif" font-size="10.00">+</text>
<text text-anchor="start" x="214.5" y="-115.5" font-family="Helvetica,sans-Serif" font-size="10.00">encodeSsrHeader()</text>
<text text-anchor="start" x="201.5" y="-100.5" font-family="Helvetica,sans-Serif" font-size="10.00">+</text>
<text text-anchor="start" x="214.5" y="-100.5" font-family="Helvetica,sans-Serif" font-size="10.00">encodeSsrOrbClk()</text>
<text text-anchor="start" x="201.5" y="-85.5" font-family="Helvetica,sans-Serif" font-size="10.00">+</text>
<text text-anchor="start" x="214.5" y="-85.5" font-family="Helvetica,sans-Serif" font-size="10.00">encodeSsrUra()</text>
<text text-anchor="start" x="201.5" y="-70.5" font-family="Helvetica,sans-Serif" font-size="10.00">+</text>
<text text-anchor="start" x="214.5" y="-70.5" font-family="Helvetica,sans-Serif" font-size="10.00">encodeSsrCode()</text>
<text text-anchor="start" x="201.5" y="-55.5" font-family="Helvetica,sans-Serif" font-size="10.00">+</text>
<text text-anchor="start" x="214.5" y="-55.5" font-family="Helvetica,sans-Serif" font-size="10.00">encodeSsrPhase()</text>
<text text-anchor="start" x="201.5" y="-40.5" font-family="Helvetica,sans-Serif" font-size="10.00">+</text>
<text text-anchor="start" x="214.5" y="-40.5" font-family="Helvetica,sans-Serif" font-size="10.00">encodeEphemeris()</text>
<text text-anchor="start" x="201.5" y="-25.5" font-family="Helvetica,sans-Serif" font-size="10.00">+</text>
<text text-anchor="start" x="214.5" y="-25.5" font-family="Helvetica,sans-Serif" font-size="10.00">encodeEphemeris()</text>
<text text-anchor="start" x="201.5" y="-10.5" font-family="Helvetica,sans-Serif" font-size="10.00">+</text>
<text text-anchor="start" x="214.5" y="-10.5" font-family="Helvetica,sans-Serif" font-size="10.00">getUdiIndex()</text>
<polygon fill="#666666" stroke="#666666" points="197.5,-215.5 197.5,-215.5 371.5,-215.5 371.5,-215.5 197.5,-215.5"/>
<polygon fill="#666666" stroke="#666666" points="197.5,-185.5 197.5,-185.5 212.5,-185.5 212.5,-185.5 197.5,-185.5"/>
<polygon fill="#666666" stroke="#666666" points="212.5,-185.5 212.5,-185.5 371.5,-185.5 371.5,-185.5 212.5,-185.5"/>
<polygon fill="none" stroke="#666666" points="197.5,-4 197.5,-233 371.5,-233 371.5,-4 197.5,-4"/>
</a>
</g>
</g>
<!-- Node2 -->
<g id="Node000002" class="node">
<title>Node2</title>
<g id="a_Node000002"><a xlink:href="structRtcmTrace.html" target="_top" xlink:title=" ">
<path fill="white" stroke="#666666" d="M125,-551C125,-551 12,-551 12,-551 6,-551 0,-545 0,-539 0,-539 0,-296 0,-296 0,-290 6,-284 12,-284 12,-284 125,-284 125,-284 131,-284 137,-290 137,-296 137,-296 137,-539 137,-539 137,-545 131,-551 125,-551"/>
<text text-anchor="start" x="43" y="-534.5" font-family="Helvetica,sans-Serif" font-size="10.00">RtcmTrace</text>
<text text-anchor="start" x="12.5" y="-519.5" font-family="Helvetica,sans-Serif" font-size="10.00">+</text>
<text text-anchor="start" x="25.5" y="-519.5" font-family="Helvetica,sans-Serif" font-size="10.00">qzssL6</text>
<text text-anchor="start" x="12.5" y="-504.5" font-family="Helvetica,sans-Serif" font-size="10.00">+</text>
<text text-anchor="start" x="25.5" y="-504.5" font-family="Helvetica,sans-Serif" font-size="10.00">RtcmTrace()</text>
<text text-anchor="start" x="12.5" y="-489.5" font-family="Helvetica,sans-Serif" font-size="10.00">+</text>
<text text-anchor="start" x="25.5" y="-489.5" font-family="Helvetica,sans-Serif" font-size="10.00">networkLog()</text>
<text text-anchor="start" x="12.5" y="-474.5" font-family="Helvetica,sans-Serif" font-size="10.00">+</text>
<text text-anchor="start" x="25.5" y="-474.5" font-family="Helvetica,sans-Serif" font-size="10.00">messageChunkLog()</text>
<text text-anchor="start" x="12.5" y="-459.5" font-family="Helvetica,sans-Serif" font-size="10.00">+</text>
<text text-anchor="start" x="25.5" y="-459.5" font-family="Helvetica,sans-Serif" font-size="10.00">messageRtcmLog()</text>
<text text-anchor="start" x="12.5" y="-444.5" font-family="Helvetica,sans-Serif" font-size="10.00">+</text>
<text text-anchor="start" x="25.5" y="-444.5" font-family="Helvetica,sans-Serif" font-size="10.00">traceSsrEph()</text>
<text text-anchor="start" x="12.5" y="-429.5" font-family="Helvetica,sans-Serif" font-size="10.00">+</text>
<text text-anchor="start" x="25.5" y="-429.5" font-family="Helvetica,sans-Serif" font-size="10.00">traceSsrClk()</text>
<text text-anchor="start" x="12.5" y="-414.5" font-family="Helvetica,sans-Serif" font-size="10.00">+</text>
<text text-anchor="start" x="25.5" y="-414.5" font-family="Helvetica,sans-Serif" font-size="10.00">traceSsrUra()</text>
<text text-anchor="start" x="12.5" y="-399.5" font-family="Helvetica,sans-Serif" font-size="10.00">+</text>
<text text-anchor="start" x="25.5" y="-399.5" font-family="Helvetica,sans-Serif" font-size="10.00">traceSsrHRClk()</text>
<text text-anchor="start" x="12.5" y="-384.5" font-family="Helvetica,sans-Serif" font-size="10.00">+</text>
<text text-anchor="start" x="25.5" y="-384.5" font-family="Helvetica,sans-Serif" font-size="10.00">traceSsrCodeBias()</text>
<text text-anchor="start" x="12.5" y="-369.5" font-family="Helvetica,sans-Serif" font-size="10.00">+</text>
<text text-anchor="start" x="25.5" y="-369.5" font-family="Helvetica,sans-Serif" font-size="10.00">traceSsrPhasBias()</text>
<text text-anchor="start" x="12.5" y="-354.5" font-family="Helvetica,sans-Serif" font-size="10.00">+</text>
<text text-anchor="start" x="25.5" y="-354.5" font-family="Helvetica,sans-Serif" font-size="10.00">traceTimestamp()</text>
<text text-anchor="start" x="12.5" y="-339.5" font-family="Helvetica,sans-Serif" font-size="10.00">+</text>
<text text-anchor="start" x="25.5" y="-339.5" font-family="Helvetica,sans-Serif" font-size="10.00">traceBrdcEph()</text>
<text text-anchor="start" x="12.5" y="-324.5" font-family="Helvetica,sans-Serif" font-size="10.00">+</text>
<text text-anchor="start" x="25.5" y="-324.5" font-family="Helvetica,sans-Serif" font-size="10.00">traceBrdcEph()</text>
<text text-anchor="start" x="12.5" y="-309.5" font-family="Helvetica,sans-Serif" font-size="10.00">+</text>
<text text-anchor="start" x="25.5" y="-309.5" font-family="Helvetica,sans-Serif" font-size="10.00">traceMSM()</text>
<text text-anchor="start" x="12.5" y="-294.5" font-family="Helvetica,sans-Serif" font-size="10.00">+</text>
<text text-anchor="start" x="25.5" y="-294.5" font-family="Helvetica,sans-Serif" font-size="10.00">traceUnknown()</text>
<polygon fill="#666666" stroke="#666666" points="8.5,-529.5 8.5,-529.5 129.5,-529.5 129.5,-529.5 8.5,-529.5"/>
<polygon fill="#666666" stroke="#666666" points="8.5,-514.5 8.5,-514.5 23.5,-514.5 23.5,-514.5 8.5,-514.5"/>
<polygon fill="#666666" stroke="#666666" points="23.5,-514.5 23.5,-514.5 129.5,-514.5 129.5,-514.5 23.5,-514.5"/>
<polygon fill="none" stroke="#666666" points="8,-288 8,-547 129,-547 129,-288 8,-288"/>
</a>
</g>
</g>
<!-- Node2&#45;&gt;Node1 -->
<g id="edge1_Node000001_Node000002" class="edge">
<title>Node2&#45;&gt;Node1</title>
<g id="a_edge1_Node000001_Node000002"><a xlink:title=" ">
<path fill="none" stroke="#63b8ff" d="M142.95,-289.08C144.13,-287.37 145.32,-285.68 146.5,-284 159.73,-265.28 174.56,-246.05 189.47,-227.65"/>
<polygon fill="none" stroke="#63b8ff" points="139.78,-287.52 137.06,-297.76 145.57,-291.45 139.78,-287.52"/>
</a>
</g>
</g>
<!-- Node3 -->
<g id="Node000003" class="node">
<title>Node3</title>
<g id="a_Node000003"><a xlink:title=" ">
<path fill="white" stroke="#666666" d="M83.5,-666C83.5,-666 53.5,-666 53.5,-666 47.5,-666 41.5,-660 41.5,-654 41.5,-654 41.5,-621 41.5,-621 41.5,-615 47.5,-609 53.5,-609 53.5,-609 83.5,-609 83.5,-609 89.5,-609 95.5,-615 95.5,-621 95.5,-621 95.5,-654 95.5,-654 95.5,-660 89.5,-666 83.5,-666"/>
<text text-anchor="start" x="54.5" y="-649.5" font-family="Helvetica,sans-Serif" font-size="10.00">string</text>
<text text-anchor="start" x="66.5" y="-634.5" font-family="Helvetica,sans-Serif" font-size="10.00"> </text>
<text text-anchor="start" x="66.5" y="-619.5" font-family="Helvetica,sans-Serif" font-size="10.00"> </text>
<polygon fill="#666666" stroke="#666666" points="49.5,-644.5 49.5,-644.5 87.5,-644.5 87.5,-644.5 49.5,-644.5"/>
<polygon fill="#666666" stroke="#666666" points="49.5,-629.5 49.5,-629.5 87.5,-629.5 87.5,-629.5 49.5,-629.5"/>
<polygon fill="none" stroke="#666666" points="49.5,-613 49.5,-662 87.5,-662 87.5,-613 49.5,-613"/>
</a>
</g>
</g>
<!-- Node3&#45;&gt;Node2 -->
<g id="edge2_Node000002_Node000003" class="edge">
<title>Node3&#45;&gt;Node2</title>
<g id="a_edge2_Node000002_Node000003"><a xlink:title=" ">
<path fill="none" stroke="#63b8ff" d="M68.5,-608.89C68.5,-596.32 68.5,-580.4 68.5,-563.14"/>
<polygon fill="none" stroke="#63b8ff" points="68.5,-563 64.5,-557 68.5,-551 72.5,-557 68.5,-563"/>
</a>
</g>
<text text-anchor="middle" x="119.5" y="-583" font-family="Helvetica,sans-Serif" font-size="10.00" fill="grey"> +rtcmMountpoint</text>
<text text-anchor="middle" x="119.5" y="-572" font-family="Helvetica,sans-Serif" font-size="10.00" fill="grey">+rtcmTraceFilename</text>
</g>
<!-- Node4 -->
<g id="Node000004" class="node">
<title>Node4</title>
<g id="a_Node000004"><a xlink:title=" ">
<path fill="white" stroke="#666666" d="M257.5,-446C257.5,-446 167.5,-446 167.5,-446 161.5,-446 155.5,-440 155.5,-434 155.5,-434 155.5,-401 155.5,-401 155.5,-395 161.5,-389 167.5,-389 167.5,-389 257.5,-389 257.5,-389 263.5,-389 269.5,-395 269.5,-401 269.5,-401 269.5,-434 269.5,-434 269.5,-440 263.5,-446 257.5,-446"/>
<text text-anchor="start" x="168.5" y="-429.5" font-family="Helvetica,sans-Serif" font-size="10.00">vector&lt; uint8_t &gt;</text>
<text text-anchor="start" x="210.5" y="-414.5" font-family="Helvetica,sans-Serif" font-size="10.00"> </text>
<text text-anchor="start" x="210.5" y="-399.5" font-family="Helvetica,sans-Serif" font-size="10.00"> </text>
<polygon fill="#666666" stroke="#666666" points="163.5,-424.5 163.5,-424.5 261.5,-424.5 261.5,-424.5 163.5,-424.5"/>
<polygon fill="#666666" stroke="#666666" points="163.5,-409.5 163.5,-409.5 261.5,-409.5 261.5,-409.5 163.5,-409.5"/>
<polygon fill="none" stroke="#666666" points="163.5,-393 163.5,-442 261.5,-442 261.5,-393 163.5,-393"/>
</a>
</g>
</g>
<!-- Node4&#45;&gt;Node1 -->
<g id="edge3_Node000001_Node000004" class="edge">
<title>Node4&#45;&gt;Node1</title>
<g id="a_edge3_Node000001_Node000004"><a xlink:title=" ">
<path fill="none" stroke="#63b8ff" d="M219.21,-388.83C227.01,-356.63 240.45,-301.19 253.12,-248.95"/>
<polygon fill="none" stroke="#63b8ff" points="253.15,-248.82 250.67,-242.05 255.98,-237.16 258.45,-243.94 253.15,-248.82"/>
</a>
</g>
<text text-anchor="middle" x="268.5" y="-258" font-family="Helvetica,sans-Serif" font-size="10.00" fill="grey"> +data</text>
</g>
<!-- Node5 -->
<g id="Node000005" class="node">
<title>Node5</title>
<g id="a_Node000005"><a xlink:title=" ">
<path fill="white" stroke="#666666" d="M229,-666C229,-666 196,-666 196,-666 190,-666 184,-660 184,-654 184,-654 184,-621 184,-621 184,-615 190,-609 196,-609 196,-609 229,-609 229,-609 235,-609 241,-615 241,-621 241,-621 241,-654 241,-654 241,-660 235,-666 229,-666"/>
<text text-anchor="start" x="197.5" y="-649.5" font-family="Helvetica,sans-Serif" font-size="10.00">vector</text>
<text text-anchor="start" x="211" y="-634.5" font-family="Helvetica,sans-Serif" font-size="10.00"> </text>
<text text-anchor="start" x="211" y="-619.5" font-family="Helvetica,sans-Serif" font-size="10.00"> </text>
<polygon fill="#666666" stroke="#666666" points="192.5,-644.5 192.5,-644.5 233.5,-644.5 233.5,-644.5 192.5,-644.5"/>
<polygon fill="#666666" stroke="#666666" points="192.5,-629.5 192.5,-629.5 233.5,-629.5 233.5,-629.5 192.5,-629.5"/>
<polygon fill="none" stroke="#666666" points="192,-613 192,-662 233,-662 233,-613 192,-613"/>
</a>
</g>
</g>
<!-- Node5&#45;&gt;Node4 -->
<g id="edge4_Node000004_Node000005" class="edge">
<title>Node5&#45;&gt;Node4</title>
<g id="a_edge4_Node000004_Node000005"><a xlink:title=" ">
<path fill="none" stroke="orange" d="M212.5,-598.72C212.5,-555.26 212.5,-484.93 212.5,-446.23"/>
<polygon fill="orange" stroke="orange" points="209,-598.89 212.5,-608.89 216,-598.89 209,-598.89"/>
</a>
</g>
<text text-anchor="middle" x="242.5" y="-577.5" font-family="Helvetica,sans-Serif" font-size="10.00" fill="grey"> &lt; uint8_t &gt;</text>
</g>
<!-- Node6 -->
<g id="Node000006" class="node">
<title>Node6</title>
<g id="a_Node000006"><a xlink:title=" ">
<path fill="white" stroke="#666666" d="M423,-446C423,-446 300,-446 300,-446 294,-446 288,-440 288,-434 288,-434 288,-401 288,-401 288,-395 294,-389 300,-389 300,-389 423,-389 423,-389 429,-389 435,-395 435,-401 435,-401 435,-434 435,-434 435,-440 429,-446 423,-446"/>
<text text-anchor="start" x="301.5" y="-429.5" font-family="Helvetica,sans-Serif" font-size="10.00">map&lt; SatSys, SSREph &gt;</text>
<text text-anchor="start" x="360" y="-414.5" font-family="Helvetica,sans-Serif" font-size="10.00"> </text>
<text text-anchor="start" x="360" y="-399.5" font-family="Helvetica,sans-Serif" font-size="10.00"> </text>
<polygon fill="#666666" stroke="#666666" points="296.5,-424.5 296.5,-424.5 427.5,-424.5 427.5,-424.5 296.5,-424.5"/>
<polygon fill="#666666" stroke="#666666" points="296.5,-409.5 296.5,-409.5 427.5,-409.5 427.5,-409.5 296.5,-409.5"/>
<polygon fill="none" stroke="#666666" points="296,-393 296,-442 427,-442 427,-393 296,-393"/>
</a>
</g>
</g>
<!-- Node6&#45;&gt;Node1 -->
<g id="edge5_Node000001_Node000006" class="edge">
<title>Node6&#45;&gt;Node1</title>
<g id="a_edge5_Node000001_Node000006"><a xlink:title=" ">
<path fill="none" stroke="#63b8ff" d="M354.33,-388.83C345.98,-356.63 331.6,-301.19 318.06,-248.95"/>
<polygon fill="none" stroke="#63b8ff" points="318.02,-248.78 312.64,-243.97 315.01,-237.16 320.38,-241.97 318.02,-248.78"/>
</a>
</g>
<text text-anchor="middle" x="373" y="-258" font-family="Helvetica,sans-Serif" font-size="10.00" fill="grey"> +lastRegSsrEphMap</text>
</g>
<!-- Node7 -->
<g id="Node000007" class="node">
<title>Node7</title>
<g id="a_Node000007"><a xlink:title=" ">
<path fill="white" stroke="#666666" d="M455.5,-666C455.5,-666 431.5,-666 431.5,-666 425.5,-666 419.5,-660 419.5,-654 419.5,-654 419.5,-621 419.5,-621 419.5,-615 425.5,-609 431.5,-609 431.5,-609 455.5,-609 455.5,-609 461.5,-609 467.5,-615 467.5,-621 467.5,-621 467.5,-654 467.5,-654 467.5,-660 461.5,-666 455.5,-666"/>
<text text-anchor="start" x="432.5" y="-649.5" font-family="Helvetica,sans-Serif" font-size="10.00">map</text>
<text text-anchor="start" x="441.5" y="-634.5" font-family="Helvetica,sans-Serif" font-size="10.00"> </text>
<text text-anchor="start" x="441.5" y="-619.5" font-family="Helvetica,sans-Serif" font-size="10.00"> </text>
<polygon fill="#666666" stroke="#666666" points="427.5,-644.5 427.5,-644.5 459.5,-644.5 459.5,-644.5 427.5,-644.5"/>
<polygon fill="#666666" stroke="#666666" points="427.5,-629.5 427.5,-629.5 459.5,-629.5 459.5,-629.5 427.5,-629.5"/>
<polygon fill="none" stroke="#666666" points="427.5,-613 427.5,-662 459.5,-662 459.5,-613 427.5,-613"/>
</a>
</g>
</g>
<!-- Node7&#45;&gt;Node6 -->
<g id="edge6_Node000006_Node000007" class="edge">
<title>Node7&#45;&gt;Node6</title>
<g id="a_edge6_Node000006_Node000007"><a xlink:title=" ">
<path fill="none" stroke="orange" d="M411.23,-614.31C403.68,-607.65 396.42,-599.75 391.5,-591 365.58,-544.89 361.04,-481.77 360.79,-446.07"/>
<polygon fill="orange" stroke="orange" points="409.48,-617.4 419.44,-621.04 413.92,-611.99 409.48,-617.4"/>
</a>
</g>
<text text-anchor="middle" x="442.5" y="-577.5" font-family="Helvetica,sans-Serif" font-size="10.00" fill="grey"> &lt; SatSys, SSREph &gt;</text>
</g>
<!-- Node8 -->
<g id="Node000008" class="node">
<title>Node8</title>
<g id="a_Node000008"><a xlink:title=" ">
<path fill="white" stroke="#666666" d="M585.5,-446C585.5,-446 465.5,-446 465.5,-446 459.5,-446 453.5,-440 453.5,-434 453.5,-434 453.5,-401 453.5,-401 453.5,-395 459.5,-389 465.5,-389 465.5,-389 585.5,-389 585.5,-389 591.5,-389 597.5,-395 597.5,-401 597.5,-401 597.5,-434 597.5,-434 597.5,-440 591.5,-446 585.5,-446"/>
<text text-anchor="start" x="466.5" y="-429.5" font-family="Helvetica,sans-Serif" font-size="10.00">map&lt; SatSys, SSRClk &gt;</text>
<text text-anchor="start" x="523.5" y="-414.5" font-family="Helvetica,sans-Serif" font-size="10.00"> </text>
<text text-anchor="start" x="523.5" y="-399.5" font-family="Helvetica,sans-Serif" font-size="10.00"> </text>
<polygon fill="#666666" stroke="#666666" points="461.5,-424.5 461.5,-424.5 589.5,-424.5 589.5,-424.5 461.5,-424.5"/>
<polygon fill="#666666" stroke="#666666" points="461.5,-409.5 461.5,-409.5 589.5,-409.5 589.5,-409.5 461.5,-409.5"/>
<polygon fill="none" stroke="#666666" points="461.5,-393 461.5,-442 589.5,-442 589.5,-393 461.5,-393"/>
</a>
</g>
</g>
<!-- Node7&#45;&gt;Node8 -->
<g id="edge8_Node000008_Node000007" class="edge">
<title>Node7&#45;&gt;Node8</title>
<g id="a_edge8_Node000008_Node000007"><a xlink:title=" ">
<path fill="none" stroke="orange" d="M475.23,-613.37C482.21,-606.87 488.89,-599.28 493.5,-591 519.28,-544.69 524.8,-481.64 525.69,-446"/>
<polygon fill="orange" stroke="orange" points="472.86,-610.79 467.61,-619.99 477.46,-616.07 472.86,-610.79"/>
</a>
</g>
<text text-anchor="middle" x="553.5" y="-577.5" font-family="Helvetica,sans-Serif" font-size="10.00" fill="grey"> &lt; SatSys, SSRClk &gt;</text>
</g>
<!-- Node8&#45;&gt;Node1 -->
<g id="edge7_Node000001_Node000008" class="edge">
<title>Node8&#45;&gt;Node1</title>
<g id="a_edge7_Node000001_Node000008"><a xlink:title=" ">
<path fill="none" stroke="#63b8ff" d="M511.83,-388.72C494.72,-355.31 463.39,-298.29 428.5,-255 416.37,-239.95 402.61,-224.96 388.52,-210.74"/>
<polygon fill="none" stroke="#63b8ff" points="388.23,-210.45 381.15,-209.06 379.72,-201.99 386.79,-203.38 388.23,-210.45"/>
</a>
</g>
<text text-anchor="middle" x="485.5" y="-258" font-family="Helvetica,sans-Serif" font-size="10.00" fill="grey"> +lastRegSsrClkMap</text>
</g>
</g>
</svg>
