<?xml version="1.0" encoding="UTF-8" standalone="no"?>
<!DOCTYPE svg PUBLIC "-//W3C//DTD SVG 1.1//EN"
 "http://www.w3.org/Graphics/SVG/1.1/DTD/svg11.dtd">
<!-- Generated by graphviz version 2.43.0 (0)
 -->
<!-- Title: SatGeom Pages: 1 -->
<svg width="248pt" height="609pt"
 viewBox="0.00 0.00 247.50 609.00" xmlns="http://www.w3.org/2000/svg" xmlns:xlink="http://www.w3.org/1999/xlink">
<g id="graph0" class="graph" transform="scale(1 1) rotate(0) translate(4 605)">
<title>SatGeom</title>
<!-- Node1 -->
<g id="Node000001" class="node">
<title>Node1</title>
<g id="a_Node000001"><a xlink:href="structSatGeom.html" target="_top" xlink:title=" ">
<path fill="white" stroke="#666666" stroke-width="2" d="M157,-102C157,-102 99,-102 99,-102 93,-102 87,-96 87,-90 87,-90 87,-12 87,-12 87,-6 93,0 99,0 99,0 157,0 157,0 163,0 169,-6 169,-12 169,-12 169,-90 169,-90 169,-96 163,-102 157,-102"/>
<text text-anchor="start" x="105" y="-86" font-family="Helvetica,sans-Serif" font-size="10.00">SatGeom</text>
<text text-anchor="start" x="99" y="-71" font-family="Helvetica,sans-Serif" font-size="10.00">+</text>
<text text-anchor="start" x="112" y="-71" font-family="Helvetica,sans-Serif" font-size="10.00">beta</text>
<text text-anchor="start" x="99" y="-56" font-family="Helvetica,sans-Serif" font-size="10.00">+</text>
<text text-anchor="start" x="112" y="-56" font-family="Helvetica,sans-Serif" font-size="10.00">betaRate</text>
<text text-anchor="start" x="99" y="-41" font-family="Helvetica,sans-Serif" font-size="10.00">+</text>
<text text-anchor="start" x="112" y="-41" font-family="Helvetica,sans-Serif" font-size="10.00">mu</text>
<text text-anchor="start" x="99" y="-26" font-family="Helvetica,sans-Serif" font-size="10.00">+</text>
<text text-anchor="start" x="112" y="-26" font-family="Helvetica,sans-Serif" font-size="10.00">muRate</text>
<text text-anchor="start" x="126" y="-11" font-family="Helvetica,sans-Serif" font-size="10.00"> </text>
<polygon fill="#666666" stroke="#666666" points="95,-81 95,-81 161,-81 161,-81 95,-81"/>
<polygon fill="#666666" stroke="#666666" points="95,-21 95,-21 110,-21 110,-21 95,-21"/>
<polygon fill="#666666" stroke="#666666" points="110,-21 110,-21 161,-21 161,-21 110,-21"/>
<polygon fill="none" stroke="#666666" points="95,-4 95,-98 161,-98 161,-4 95,-4"/>
</a>
</g>
</g>
<!-- Node2 -->
<g id="Node000002" class="node">
<title>Node2</title>
<g id="a_Node000002"><a xlink:href="structSatSys.html" target="_top" xlink:title="Object holding satellite id, and providing related functions.">
<path fill="white" stroke="#666666" d="M112.5,-486C112.5,-486 19.5,-486 19.5,-486 13.5,-486 7.5,-480 7.5,-474 7.5,-474 7.5,-216 7.5,-216 7.5,-210 13.5,-204 19.5,-204 19.5,-204 112.5,-204 112.5,-204 118.5,-204 124.5,-210 124.5,-216 124.5,-216 124.5,-474 124.5,-474 124.5,-480 118.5,-486 112.5,-486"/>
<text text-anchor="start" x="49.5" y="-470" font-family="Helvetica,sans-Serif" font-size="10.00">SatSys</text>
<text text-anchor="start" x="20" y="-455" font-family="Helvetica,sans-Serif" font-size="10.00">+</text>
<text text-anchor="start" x="33" y="-455" font-family="Helvetica,sans-Serif" font-size="10.00">sys</text>
<text text-anchor="start" x="20" y="-440" font-family="Helvetica,sans-Serif" font-size="10.00">+</text>
<text text-anchor="start" x="33" y="-440" font-family="Helvetica,sans-Serif" font-size="10.00">prn</text>
<text text-anchor="start" x="20" y="-425" font-family="Helvetica,sans-Serif" font-size="10.00">+</text>
<text text-anchor="start" x="33" y="-425" font-family="Helvetica,sans-Serif" font-size="10.00">SatSys()</text>
<text text-anchor="start" x="20" y="-410" font-family="Helvetica,sans-Serif" font-size="10.00">+</text>
<text text-anchor="start" x="33" y="-410" font-family="Helvetica,sans-Serif" font-size="10.00">sysChar()</text>
<text text-anchor="start" x="20" y="-395" font-family="Helvetica,sans-Serif" font-size="10.00">+</text>
<text text-anchor="start" x="33" y="-395" font-family="Helvetica,sans-Serif" font-size="10.00">getId()</text>
<text text-anchor="start" x="20" y="-380" font-family="Helvetica,sans-Serif" font-size="10.00">+</text>
<text text-anchor="start" x="33" y="-380" font-family="Helvetica,sans-Serif" font-size="10.00">operator int()</text>
<text text-anchor="start" x="20" y="-365" font-family="Helvetica,sans-Serif" font-size="10.00">+</text>
<text text-anchor="start" x="33" y="-365" font-family="Helvetica,sans-Serif" font-size="10.00">setBlockType()</text>
<text text-anchor="start" x="20" y="-350" font-family="Helvetica,sans-Serif" font-size="10.00">+</text>
<text text-anchor="start" x="33" y="-350" font-family="Helvetica,sans-Serif" font-size="10.00">setSvn()</text>
<text text-anchor="start" x="20" y="-335" font-family="Helvetica,sans-Serif" font-size="10.00">+</text>
<text text-anchor="start" x="33" y="-335" font-family="Helvetica,sans-Serif" font-size="10.00">blockType()</text>
<text text-anchor="start" x="20" y="-320" font-family="Helvetica,sans-Serif" font-size="10.00">+</text>
<text text-anchor="start" x="33" y="-320" font-family="Helvetica,sans-Serif" font-size="10.00">svn()</text>
<text text-anchor="start" x="20" y="-305" font-family="Helvetica,sans-Serif" font-size="10.00">+</text>
<text text-anchor="start" x="33" y="-305" font-family="Helvetica,sans-Serif" font-size="10.00">fromHash()</text>
<text text-anchor="start" x="20" y="-290" font-family="Helvetica,sans-Serif" font-size="10.00">+</text>
<text text-anchor="start" x="33" y="-290" font-family="Helvetica,sans-Serif" font-size="10.00">id()</text>
<text text-anchor="start" x="20" y="-275" font-family="Helvetica,sans-Serif" font-size="10.00">+</text>
<text text-anchor="start" x="33" y="-275" font-family="Helvetica,sans-Serif" font-size="10.00">operator string()</text>
<text text-anchor="start" x="20" y="-260" font-family="Helvetica,sans-Serif" font-size="10.00">+</text>
<text text-anchor="start" x="33" y="-260" font-family="Helvetica,sans-Serif" font-size="10.00">SatSys()</text>
<text text-anchor="start" x="20" y="-245" font-family="Helvetica,sans-Serif" font-size="10.00">+</text>
<text text-anchor="start" x="33" y="-245" font-family="Helvetica,sans-Serif" font-size="10.00">sysName()</text>
<text text-anchor="start" x="20" y="-230" font-family="Helvetica,sans-Serif" font-size="10.00">+</text>
<text text-anchor="start" x="33" y="-230" font-family="Helvetica,sans-Serif" font-size="10.00">serialize()</text>
<text text-anchor="start" x="20" y="-215" font-family="Helvetica,sans-Serif" font-size="10.00">+</text>
<text text-anchor="start" x="33" y="-215" font-family="Helvetica,sans-Serif" font-size="10.00">sysFromChar()</text>
<polygon fill="#666666" stroke="#666666" points="16,-465 16,-465 117,-465 117,-465 16,-465"/>
<polygon fill="#666666" stroke="#666666" points="16,-435 16,-435 31,-435 31,-435 16,-435"/>
<polygon fill="#666666" stroke="#666666" points="31,-435 31,-435 117,-435 117,-435 31,-435"/>
<polygon fill="none" stroke="#666666" points="15.5,-208 15.5,-482 116.5,-482 116.5,-208 15.5,-208"/>
</a>
</g>
</g>
<!-- Node2&#45;&gt;Node1 -->
<g id="edge1_Node000001_Node000002" class="edge">
<title>Node2&#45;&gt;Node1</title>
<g id="a_edge1_Node000001_Node000002"><a xlink:title=" ">
<path fill="none" stroke="#63b8ff" d="M95.73,-203.99C102.41,-172.52 109.17,-140.69 114.76,-114.34"/>
<polygon fill="none" stroke="#63b8ff" points="114.84,-114 112.17,-107.3 117.33,-102.26 119.99,-108.96 114.84,-114"/>
</a>
</g>
<text text-anchor="middle" x="128" y="-150.5" font-family="Helvetica,sans-Serif" font-size="10.00" fill="grey"> +Sat</text>
</g>
<!-- Node3 -->
<g id="Node000003" class="node">
<title>Node3</title>
<g id="a_Node000003"><a xlink:title=" ">
<path fill="#fff0f0" stroke="red" d="M120,-601C120,-601 12,-601 12,-601 6,-601 0,-595 0,-589 0,-589 0,-545 0,-545 0,-539 6,-533 12,-533 12,-533 120,-533 120,-533 126,-533 132,-539 132,-545 132,-545 132,-589 132,-589 132,-595 126,-601 120,-601"/>
<text text-anchor="start" x="13" y="-585" font-family="Helvetica,sans-Serif" font-size="10.00">map&lt; SatSys, SatSys</text>
<text text-anchor="start" x="37.5" y="-574" font-family="Helvetica,sans-Serif" font-size="10.00">::SatData &gt;</text>
<text text-anchor="start" x="64" y="-559" font-family="Helvetica,sans-Serif" font-size="10.00"> </text>
<text text-anchor="start" x="64" y="-544" font-family="Helvetica,sans-Serif" font-size="10.00"> </text>
<polygon fill="red" stroke="red" points="8,-569 8,-569 124,-569 124,-569 8,-569"/>
<polygon fill="red" stroke="red" points="8,-554 8,-554 124,-554 124,-554 8,-554"/>
<polygon fill="none" stroke="red" points="8,-537 8,-597 124,-597 124,-537 8,-537"/>
</a>
</g>
</g>
<!-- Node3&#45;&gt;Node2 -->
<g id="edge2_Node000002_Node000003" class="edge">
<title>Node3&#45;&gt;Node2</title>
<g id="a_edge2_Node000002_Node000003"><a xlink:title=" ">
<path fill="none" stroke="#63b8ff" d="M66,-532.59C66,-522.66 66,-511.08 66,-498.63"/>
<polygon fill="none" stroke="#63b8ff" points="66,-498.47 62,-492.47 66,-486.47 70,-492.47 66,-498.47"/>
</a>
</g>
<text text-anchor="middle" x="101.5" y="-507" font-family="Helvetica,sans-Serif" font-size="10.00" fill="grey"> +satDataMap</text>
</g>
<!-- Node5 -->
<g id="Node000005" class="node">
<title>Node5</title>
<g id="a_Node000005"><a xlink:href="structVectorEcef.html" target="_top" xlink:title=" ">
<path fill="white" stroke="#666666" d="M227.5,-411C227.5,-411 154.5,-411 154.5,-411 148.5,-411 142.5,-405 142.5,-399 142.5,-399 142.5,-291 142.5,-291 142.5,-285 148.5,-279 154.5,-279 154.5,-279 227.5,-279 227.5,-279 233.5,-279 239.5,-285 239.5,-291 239.5,-291 239.5,-399 239.5,-399 239.5,-405 233.5,-411 227.5,-411"/>
<text text-anchor="start" x="165.5" y="-395" font-family="Helvetica,sans-Serif" font-size="10.00">VectorEcef</text>
<text text-anchor="start" x="189.5" y="-380" font-family="Helvetica,sans-Serif" font-size="10.00"> </text>
<text text-anchor="start" x="155" y="-365" font-family="Helvetica,sans-Serif" font-size="10.00">+</text>
<text text-anchor="start" x="168" y="-365" font-family="Helvetica,sans-Serif" font-size="10.00">VectorEcef()</text>
<text text-anchor="start" x="155" y="-350" font-family="Helvetica,sans-Serif" font-size="10.00">+</text>
<text text-anchor="start" x="168" y="-350" font-family="Helvetica,sans-Serif" font-size="10.00">VectorEcef()</text>
<text text-anchor="start" x="155" y="-335" font-family="Helvetica,sans-Serif" font-size="10.00">+</text>
<text text-anchor="start" x="168" y="-335" font-family="Helvetica,sans-Serif" font-size="10.00">operator=()</text>
<text text-anchor="start" x="155" y="-320" font-family="Helvetica,sans-Serif" font-size="10.00">+</text>
<text text-anchor="start" x="168" y="-320" font-family="Helvetica,sans-Serif" font-size="10.00">operator*()</text>
<text text-anchor="start" x="155" y="-305" font-family="Helvetica,sans-Serif" font-size="10.00">+</text>
<text text-anchor="start" x="168" y="-305" font-family="Helvetica,sans-Serif" font-size="10.00">operator&#45;()</text>
<text text-anchor="start" x="155" y="-290" font-family="Helvetica,sans-Serif" font-size="10.00">+</text>
<text text-anchor="start" x="168" y="-290" font-family="Helvetica,sans-Serif" font-size="10.00">operator+()</text>
<polygon fill="#666666" stroke="#666666" points="151,-390 151,-390 232,-390 232,-390 151,-390"/>
<polygon fill="#666666" stroke="#666666" points="151,-375 151,-375 232,-375 232,-375 151,-375"/>
<polygon fill="none" stroke="#666666" points="150.5,-283 150.5,-407 231.5,-407 231.5,-283 150.5,-283"/>
</a>
</g>
</g>
<!-- Node5&#45;&gt;Node1 -->
<g id="edge3_Node000001_Node000005" class="edge">
<title>Node5&#45;&gt;Node1</title>
<g id="a_edge3_Node000001_Node000005"><a xlink:title=" ">
<path fill="none" stroke="#63b8ff" d="M178.94,-278.59C170.42,-233.8 158.36,-173.12 146,-120 145.53,-118 145.05,-115.96 144.56,-113.91"/>
<polygon fill="none" stroke="#63b8ff" points="144.5,-113.69 139.18,-108.83 141.62,-102.05 146.94,-106.91 144.5,-113.69"/>
</a>
</g>
<text text-anchor="middle" x="189.5" y="-178" font-family="Helvetica,sans-Serif" font-size="10.00" fill="grey"> +eNorm</text>
<text text-anchor="middle" x="189.5" y="-167" font-family="Helvetica,sans-Serif" font-size="10.00" fill="grey">+rMoon</text>
<text text-anchor="middle" x="189.5" y="-156" font-family="Helvetica,sans-Serif" font-size="10.00" fill="grey">+rSat</text>
<text text-anchor="middle" x="189.5" y="-145" font-family="Helvetica,sans-Serif" font-size="10.00" fill="grey">+rSun</text>
<text text-anchor="middle" x="189.5" y="-134" font-family="Helvetica,sans-Serif" font-size="10.00" fill="grey">+vSat</text>
<text text-anchor="middle" x="189.5" y="-123" font-family="Helvetica,sans-Serif" font-size="10.00" fill="grey">+vSatPrime</text>
</g>
<!-- Node6 -->
<g id="Node000006" class="node">
<title>Node6</title>
<g id="a_Node000006"><a xlink:title=" ">
<path fill="white" stroke="#666666" d="M213.5,-595.5C213.5,-595.5 168.5,-595.5 168.5,-595.5 162.5,-595.5 156.5,-589.5 156.5,-583.5 156.5,-583.5 156.5,-550.5 156.5,-550.5 156.5,-544.5 162.5,-538.5 168.5,-538.5 168.5,-538.5 213.5,-538.5 213.5,-538.5 219.5,-538.5 225.5,-544.5 225.5,-550.5 225.5,-550.5 225.5,-583.5 225.5,-583.5 225.5,-589.5 219.5,-595.5 213.5,-595.5"/>
<text text-anchor="start" x="170" y="-579" font-family="Helvetica,sans-Serif" font-size="10.00">Vector3d</text>
<text text-anchor="start" x="189.5" y="-564" font-family="Helvetica,sans-Serif" font-size="10.00"> </text>
<text text-anchor="start" x="189.5" y="-549" font-family="Helvetica,sans-Serif" font-size="10.00"> </text>
<polygon fill="#666666" stroke="#666666" points="165,-574 165,-574 218,-574 218,-574 165,-574"/>
<polygon fill="#666666" stroke="#666666" points="165,-559 165,-559 218,-559 218,-559 165,-559"/>
<polygon fill="none" stroke="#666666" points="164.5,-542.5 164.5,-591.5 217.5,-591.5 217.5,-542.5 164.5,-542.5"/>
</a>
</g>
</g>
<!-- Node6&#45;&gt;Node5 -->
<g id="edge4_Node000005_Node000006" class="edge">
<title>Node6&#45;&gt;Node5</title>
<g id="a_edge4_Node000005_Node000006"><a xlink:title=" ">
<path fill="none" stroke="#63b8ff" d="M191,-527.86C191,-495.84 191,-449.37 191,-411.42"/>
<polygon fill="none" stroke="#63b8ff" points="187.5,-528.14 191,-538.14 194.5,-528.14 187.5,-528.14"/>
</a>
</g>
</g>
</g>
</svg>
