<?xml version="1.0" encoding="UTF-8" standalone="no"?>
<!DOCTYPE svg PUBLIC "-//W3C//DTD SVG 1.1//EN"
 "http://www.w3.org/Graphics/SVG/1.1/DTD/svg11.dtd">
<!-- Generated by graphviz version 2.43.0 (0)
 -->
<!-- Title: IcdDecoder::decodeGPSSubframe2 Pages: 1 -->
<svg width="547pt" height="158pt"
 viewBox="0.00 0.00 547.00 158.00" xmlns="http://www.w3.org/2000/svg" xmlns:xlink="http://www.w3.org/1999/xlink">
<g id="graph0" class="graph" transform="scale(1 1) rotate(0) translate(4 154)">
<title>IcdDecoder::decodeGPSSubframe2</title>
<!-- Node1 -->
<g id="Node000001" class="node">
<title>Node1</title>
<g id="a_Node000001"><a xlink:href="structIcdDecoder.html#a29584df4fce2ea922d887e0c5b5e2487" target="_top" xlink:title=" ">
<path fill="#fff0f0" stroke="red" stroke-width="2" d="M178.67,-66C178.67,-66 6.33,-66 6.33,-66 3.17,-66 0,-62.83 0,-59.67 0,-59.67 0,-53.33 0,-53.33 0,-50.17 3.17,-47 6.33,-47 6.33,-47 178.67,-47 178.67,-47 181.83,-47 185,-50.17 185,-53.33 185,-53.33 185,-59.67 185,-59.67 185,-62.83 181.83,-66 178.67,-66"/>
<text text-anchor="middle" x="92.5" y="-54" font-family="Helvetica,sans-Serif" font-size="10.00">IcdDecoder::decodeGPSSubframe2</text>
</a>
</g>
</g>
<!-- Node2 -->
<g id="Node000002" class="node">
<title>Node2</title>
<g id="a_Node000002"><a xlink:href="structIcdDecoder.html#a79e3697462fd9605f031ed633f71e12b" target="_top" xlink:title=" ">
<path fill="#fff0f0" stroke="red" d="M391.17,-150C391.17,-150 228.83,-150 228.83,-150 225.67,-150 222.5,-146.83 222.5,-143.67 222.5,-143.67 222.5,-137.33 222.5,-137.33 222.5,-134.17 225.67,-131 228.83,-131 228.83,-131 391.17,-131 391.17,-131 394.33,-131 397.5,-134.17 397.5,-137.33 397.5,-137.33 397.5,-143.67 397.5,-143.67 397.5,-146.83 394.33,-150 391.17,-150"/>
<text text-anchor="middle" x="310" y="-138" font-family="Helvetica,sans-Serif" font-size="10.00">IcdDecoder::decodeGpsTlmWord</text>
</a>
</g>
</g>
<!-- Node1&#45;&gt;Node2 -->
<g id="edge1_Node000001_Node000002" class="edge">
<title>Node1&#45;&gt;Node2</title>
<g id="a_edge1_Node000001_Node000002"><a xlink:title=" ">
<path fill="none" stroke="#63b8ff" d="M108.58,-66.07C131.83,-80.4 178.23,-107.38 221,-122.5 227.32,-124.73 234,-126.73 240.74,-128.49"/>
<polygon fill="#63b8ff" stroke="#63b8ff" points="240.08,-131.93 250.63,-130.92 241.75,-125.14 240.08,-131.93"/>
</a>
</g>
</g>
<!-- Node3 -->
<g id="Node000003" class="node">
<title>Node3</title>
<g id="a_Node000003"><a xlink:href="structIcdDecoder.html#acb598e47f5b9091532e280c590007025" target="_top" xlink:title=" ">
<path fill="#fff0f0" stroke="red" d="M392.67,-113C392.67,-113 227.33,-113 227.33,-113 224.17,-113 221,-109.83 221,-106.67 221,-106.67 221,-100.33 221,-100.33 221,-97.17 224.17,-94 227.33,-94 227.33,-94 392.67,-94 392.67,-94 395.83,-94 399,-97.17 399,-100.33 399,-100.33 399,-106.67 399,-106.67 399,-109.83 395.83,-113 392.67,-113"/>
<text text-anchor="middle" x="310" y="-101" font-family="Helvetica,sans-Serif" font-size="10.00">IcdDecoder::decodeGpsHowWord</text>
</a>
</g>
</g>
<!-- Node1&#45;&gt;Node3 -->
<g id="edge2_Node000001_Node000003" class="edge">
<title>Node1&#45;&gt;Node3</title>
<g id="a_edge2_Node000001_Node000003"><a xlink:title=" ">
<path fill="none" stroke="#63b8ff" d="M137.11,-66.01C171.17,-73.44 218.68,-83.8 255.12,-91.75"/>
<polygon fill="#63b8ff" stroke="#63b8ff" points="254.57,-95.21 265.09,-93.92 256.06,-88.37 254.57,-95.21"/>
</a>
</g>
</g>
<!-- Node4 -->
<g id="Node000004" class="node">
<title>Node4</title>
<g id="a_Node000004"><a xlink:href="ubxDecoder_8cpp.html#a3f7c471b91d0090e112befb07c810ee0" target="_top" xlink:title=" ">
<path fill="#fff0f0" stroke="red" d="M532.67,-66C532.67,-66 441.33,-66 441.33,-66 438.17,-66 435,-62.83 435,-59.67 435,-59.67 435,-53.33 435,-53.33 435,-50.17 438.17,-47 441.33,-47 441.33,-47 532.67,-47 532.67,-47 535.83,-47 539,-50.17 539,-53.33 539,-53.33 539,-59.67 539,-59.67 539,-62.83 535.83,-66 532.67,-66"/>
<text text-anchor="middle" x="487" y="-54" font-family="Helvetica,sans-Serif" font-size="10.00">gpsBitUFromWord</text>
</a>
</g>
</g>
<!-- Node1&#45;&gt;Node4 -->
<g id="edge4_Node000001_Node000004" class="edge">
<title>Node1&#45;&gt;Node4</title>
<g id="a_edge4_Node000001_Node000004"><a xlink:title=" ">
<path fill="none" stroke="#63b8ff" d="M185.03,-50.69C258.74,-49.22 360.32,-49.47 424.57,-51.43"/>
<polygon fill="#63b8ff" stroke="#63b8ff" points="424.84,-54.94 434.95,-51.78 425.07,-47.95 424.84,-54.94"/>
</a>
</g>
</g>
<!-- Node1&#45;&gt;Node4 -->
<g id="edge7_Node000001_Node000004" class="edge">
<title>Node1&#45;&gt;Node4</title>
<g id="a_edge7_Node000001_Node000004"><a xlink:title=" ">
<path fill="none" stroke="#63b8ff" d="M185.03,-62.31C258.74,-63.78 360.32,-63.53 424.57,-61.57"/>
<polygon fill="#63b8ff" stroke="#63b8ff" points="425.07,-65.05 434.95,-61.22 424.84,-58.06 425.07,-65.05"/>
</a>
</g>
</g>
<!-- Node5 -->
<g id="Node000005" class="node">
<title>Node5</title>
<g id="a_Node000005"><a xlink:href="ubxDecoder_8cpp.html#aa710d3a4e32d533b7f8e00d16e8e82c8" target="_top" xlink:title=" ">
<path fill="#fff0f0" stroke="red" d="M355.17,-19C355.17,-19 264.83,-19 264.83,-19 261.67,-19 258.5,-15.83 258.5,-12.67 258.5,-12.67 258.5,-6.33 258.5,-6.33 258.5,-3.17 261.67,0 264.83,0 264.83,0 355.17,0 355.17,0 358.33,0 361.5,-3.17 361.5,-6.33 361.5,-6.33 361.5,-12.67 361.5,-12.67 361.5,-15.83 358.33,-19 355.17,-19"/>
<text text-anchor="middle" x="310" y="-7" font-family="Helvetica,sans-Serif" font-size="10.00">gpsBitSFromWord</text>
</a>
</g>
</g>
<!-- Node1&#45;&gt;Node5 -->
<g id="edge5_Node000001_Node000005" class="edge">
<title>Node1&#45;&gt;Node5</title>
<g id="a_edge5_Node000001_Node000005"><a xlink:title=" ">
<path fill="none" stroke="#63b8ff" d="M116.97,-46.98C148.24,-37.8 204.7,-24.9 248.33,-16.59"/>
<polygon fill="#63b8ff" stroke="#63b8ff" points="249.09,-20.01 258.27,-14.74 247.8,-13.13 249.09,-20.01"/>
</a>
</g>
</g>
<!-- Node1&#45;&gt;Node5 -->
<g id="edge6_Node000001_Node000005" class="edge">
<title>Node1&#45;&gt;Node5</title>
<g id="a_edge6_Node000001_Node000005"><a xlink:title=" ">
<path fill="none" stroke="#63b8ff" d="M166.76,-46.96C203.76,-39.59 246.83,-29.73 275.8,-21.78"/>
<polygon fill="#63b8ff" stroke="#63b8ff" points="276.76,-25.14 285.42,-19.05 274.85,-18.41 276.76,-25.14"/>
</a>
</g>
</g>
<!-- Node3&#45;&gt;Node4 -->
<g id="edge3_Node000003_Node000004" class="edge">
<title>Node3&#45;&gt;Node4</title>
<g id="a_edge3_Node000003_Node000004"><a xlink:title=" ">
<path fill="none" stroke="#63b8ff" d="M346.41,-93.99C373.48,-86.72 411.01,-76.64 440.34,-68.76"/>
<polygon fill="#63b8ff" stroke="#63b8ff" points="441.59,-72.05 450.34,-66.08 439.77,-65.29 441.59,-72.05"/>
</a>
</g>
</g>
</g>
</svg>
