<?xml version="1.0" encoding="UTF-8" standalone="no"?>
<!DOCTYPE svg PUBLIC "-//W3C//DTD SVG 1.1//EN"
 "http://www.w3.org/Graphics/SVG/1.1/DTD/svg11.dtd">
<!-- Generated by graphviz version 2.43.0 (0)
 -->
<!-- Title: InertialState Pages: 1 -->
<svg width="705pt" height="1709pt"
 viewBox="0.00 0.00 704.50 1709.00" xmlns="http://www.w3.org/2000/svg" xmlns:xlink="http://www.w3.org/1999/xlink">
<g id="graph0" class="graph" transform="scale(1 1) rotate(0) translate(4 1705)">
<title>InertialState</title>
<!-- Node1 -->
<g id="Node000001" class="node">
<title>Node1</title>
<g id="a_Node000001"><a xlink:href="structInertialState.html" target="_top" xlink:title=" ">
<path fill="white" stroke="#666666" stroke-width="2" d="M473,-147C473,-147 394,-147 394,-147 388,-147 382,-141 382,-135 382,-135 382,-12 382,-12 382,-6 388,0 394,0 394,0 473,0 473,0 479,0 485,-6 485,-12 485,-12 485,-135 485,-135 485,-141 479,-147 473,-147"/>
<text text-anchor="start" x="403.5" y="-130.5" font-family="Helvetica,sans-Serif" font-size="10.00">InertialState</text>
<text text-anchor="start" x="394.5" y="-115.5" font-family="Helvetica,sans-Serif" font-size="10.00">+</text>
<text text-anchor="start" x="407.5" y="-115.5" font-family="Helvetica,sans-Serif" font-size="10.00">exclude</text>
<text text-anchor="start" x="394.5" y="-100.5" font-family="Helvetica,sans-Serif" font-size="10.00">+</text>
<text text-anchor="start" x="407.5" y="-100.5" font-family="Helvetica,sans-Serif" font-size="10.00">numParams</text>
<text text-anchor="start" x="394.5" y="-85.5" font-family="Helvetica,sans-Serif" font-size="10.00">+</text>
<text text-anchor="start" x="407.5" y="-85.5" font-family="Helvetica,sans-Serif" font-size="10.00">posVar</text>
<text text-anchor="start" x="394.5" y="-70.5" font-family="Helvetica,sans-Serif" font-size="10.00">+</text>
<text text-anchor="start" x="407.5" y="-70.5" font-family="Helvetica,sans-Serif" font-size="10.00">operator+=()</text>
<text text-anchor="start" x="394.5" y="-55.5" font-family="Helvetica,sans-Serif" font-size="10.00">+</text>
<text text-anchor="start" x="407.5" y="-55.5" font-family="Helvetica,sans-Serif" font-size="10.00">operator*=()</text>
<text text-anchor="start" x="394.5" y="-40.5" font-family="Helvetica,sans-Serif" font-size="10.00">+</text>
<text text-anchor="start" x="407.5" y="-40.5" font-family="Helvetica,sans-Serif" font-size="10.00">operator+()</text>
<text text-anchor="start" x="394.5" y="-25.5" font-family="Helvetica,sans-Serif" font-size="10.00">+</text>
<text text-anchor="start" x="407.5" y="-25.5" font-family="Helvetica,sans-Serif" font-size="10.00">operator+()</text>
<text text-anchor="start" x="394.5" y="-10.5" font-family="Helvetica,sans-Serif" font-size="10.00">+</text>
<text text-anchor="start" x="407.5" y="-10.5" font-family="Helvetica,sans-Serif" font-size="10.00">operator*()</text>
<polygon fill="#666666" stroke="#666666" points="390.5,-125.5 390.5,-125.5 477.5,-125.5 477.5,-125.5 390.5,-125.5"/>
<polygon fill="#666666" stroke="#666666" points="390.5,-80.5 390.5,-80.5 405.5,-80.5 405.5,-80.5 390.5,-80.5"/>
<polygon fill="#666666" stroke="#666666" points="405.5,-80.5 405.5,-80.5 477.5,-80.5 477.5,-80.5 405.5,-80.5"/>
<polygon fill="none" stroke="#666666" points="390,-4 390,-143 477,-143 477,-4 390,-4"/>
</a>
</g>
</g>
<!-- Node2 -->
<g id="Node000002" class="node">
<title>Node2</title>
<g id="a_Node000002"><a xlink:href="structSatSys.html" target="_top" xlink:title="Object holding satellite id, and providing related functions.">
<path fill="white" stroke="#666666" d="M501,-1436C501,-1436 408,-1436 408,-1436 402,-1436 396,-1430 396,-1424 396,-1424 396,-1166 396,-1166 396,-1160 402,-1154 408,-1154 408,-1154 501,-1154 501,-1154 507,-1154 513,-1160 513,-1166 513,-1166 513,-1424 513,-1424 513,-1430 507,-1436 501,-1436"/>
<text text-anchor="start" x="438" y="-1420" font-family="Helvetica,sans-Serif" font-size="10.00">SatSys</text>
<text text-anchor="start" x="408.5" y="-1405" font-family="Helvetica,sans-Serif" font-size="10.00">+</text>
<text text-anchor="start" x="421.5" y="-1405" font-family="Helvetica,sans-Serif" font-size="10.00">sys</text>
<text text-anchor="start" x="408.5" y="-1390" font-family="Helvetica,sans-Serif" font-size="10.00">+</text>
<text text-anchor="start" x="421.5" y="-1390" font-family="Helvetica,sans-Serif" font-size="10.00">prn</text>
<text text-anchor="start" x="408.5" y="-1375" font-family="Helvetica,sans-Serif" font-size="10.00">+</text>
<text text-anchor="start" x="421.5" y="-1375" font-family="Helvetica,sans-Serif" font-size="10.00">SatSys()</text>
<text text-anchor="start" x="408.5" y="-1360" font-family="Helvetica,sans-Serif" font-size="10.00">+</text>
<text text-anchor="start" x="421.5" y="-1360" font-family="Helvetica,sans-Serif" font-size="10.00">sysChar()</text>
<text text-anchor="start" x="408.5" y="-1345" font-family="Helvetica,sans-Serif" font-size="10.00">+</text>
<text text-anchor="start" x="421.5" y="-1345" font-family="Helvetica,sans-Serif" font-size="10.00">getId()</text>
<text text-anchor="start" x="408.5" y="-1330" font-family="Helvetica,sans-Serif" font-size="10.00">+</text>
<text text-anchor="start" x="421.5" y="-1330" font-family="Helvetica,sans-Serif" font-size="10.00">operator int()</text>
<text text-anchor="start" x="408.5" y="-1315" font-family="Helvetica,sans-Serif" font-size="10.00">+</text>
<text text-anchor="start" x="421.5" y="-1315" font-family="Helvetica,sans-Serif" font-size="10.00">setBlockType()</text>
<text text-anchor="start" x="408.5" y="-1300" font-family="Helvetica,sans-Serif" font-size="10.00">+</text>
<text text-anchor="start" x="421.5" y="-1300" font-family="Helvetica,sans-Serif" font-size="10.00">setSvn()</text>
<text text-anchor="start" x="408.5" y="-1285" font-family="Helvetica,sans-Serif" font-size="10.00">+</text>
<text text-anchor="start" x="421.5" y="-1285" font-family="Helvetica,sans-Serif" font-size="10.00">blockType()</text>
<text text-anchor="start" x="408.5" y="-1270" font-family="Helvetica,sans-Serif" font-size="10.00">+</text>
<text text-anchor="start" x="421.5" y="-1270" font-family="Helvetica,sans-Serif" font-size="10.00">svn()</text>
<text text-anchor="start" x="408.5" y="-1255" font-family="Helvetica,sans-Serif" font-size="10.00">+</text>
<text text-anchor="start" x="421.5" y="-1255" font-family="Helvetica,sans-Serif" font-size="10.00">fromHash()</text>
<text text-anchor="start" x="408.5" y="-1240" font-family="Helvetica,sans-Serif" font-size="10.00">+</text>
<text text-anchor="start" x="421.5" y="-1240" font-family="Helvetica,sans-Serif" font-size="10.00">id()</text>
<text text-anchor="start" x="408.5" y="-1225" font-family="Helvetica,sans-Serif" font-size="10.00">+</text>
<text text-anchor="start" x="421.5" y="-1225" font-family="Helvetica,sans-Serif" font-size="10.00">operator string()</text>
<text text-anchor="start" x="408.5" y="-1210" font-family="Helvetica,sans-Serif" font-size="10.00">+</text>
<text text-anchor="start" x="421.5" y="-1210" font-family="Helvetica,sans-Serif" font-size="10.00">SatSys()</text>
<text text-anchor="start" x="408.5" y="-1195" font-family="Helvetica,sans-Serif" font-size="10.00">+</text>
<text text-anchor="start" x="421.5" y="-1195" font-family="Helvetica,sans-Serif" font-size="10.00">sysName()</text>
<text text-anchor="start" x="408.5" y="-1180" font-family="Helvetica,sans-Serif" font-size="10.00">+</text>
<text text-anchor="start" x="421.5" y="-1180" font-family="Helvetica,sans-Serif" font-size="10.00">serialize()</text>
<text text-anchor="start" x="408.5" y="-1165" font-family="Helvetica,sans-Serif" font-size="10.00">+</text>
<text text-anchor="start" x="421.5" y="-1165" font-family="Helvetica,sans-Serif" font-size="10.00">sysFromChar()</text>
<polygon fill="#666666" stroke="#666666" points="404.5,-1415 404.5,-1415 505.5,-1415 505.5,-1415 404.5,-1415"/>
<polygon fill="#666666" stroke="#666666" points="404.5,-1385 404.5,-1385 419.5,-1385 419.5,-1385 404.5,-1385"/>
<polygon fill="#666666" stroke="#666666" points="419.5,-1385 419.5,-1385 505.5,-1385 505.5,-1385 419.5,-1385"/>
<polygon fill="none" stroke="#666666" points="404,-1158 404,-1432 505,-1432 505,-1158 404,-1158"/>
</a>
</g>
</g>
<!-- Node2&#45;&gt;Node1 -->
<g id="edge1_Node000001_Node000002" class="edge">
<title>Node2&#45;&gt;Node1</title>
<g id="a_edge1_Node000001_Node000002"><a xlink:title=" ">
<path fill="none" stroke="#63b8ff" d="M459.6,-1153.82C465.99,-940.14 473.15,-520.25 446.5,-165 446.36,-163.08 446.2,-161.14 446.02,-159.18"/>
<polygon fill="none" stroke="#63b8ff" points="446,-158.96 441.42,-153.39 444.8,-147.02 449.38,-152.59 446,-158.96"/>
</a>
</g>
<text text-anchor="middle" x="478.5" y="-917.5" font-family="Helvetica,sans-Serif" font-size="10.00" fill="grey"> +Sat</text>
</g>
<!-- Node26 -->
<g id="Node000026" class="node">
<title>Node26</title>
<g id="a_Node000026"><a xlink:href="structKFKey.html" target="_top" xlink:title="Keys used to interface with Kalman filter objects.">
<path fill="#fff0f0" stroke="red" d="M381,-1096C381,-1096 288,-1096 288,-1096 282,-1096 276,-1090 276,-1084 276,-1084 276,-961 276,-961 276,-955 282,-949 288,-949 288,-949 381,-949 381,-949 387,-949 393,-955 393,-961 393,-961 393,-1084 393,-1084 393,-1090 387,-1096 381,-1096"/>
<text text-anchor="start" x="319.5" y="-1079.5" font-family="Helvetica,sans-Serif" font-size="10.00">KFKey</text>
<text text-anchor="start" x="288.5" y="-1064.5" font-family="Helvetica,sans-Serif" font-size="10.00">+</text>
<text text-anchor="start" x="301.5" y="-1064.5" font-family="Helvetica,sans-Serif" font-size="10.00">type</text>
<text text-anchor="start" x="288.5" y="-1049.5" font-family="Helvetica,sans-Serif" font-size="10.00">+</text>
<text text-anchor="start" x="301.5" y="-1049.5" font-family="Helvetica,sans-Serif" font-size="10.00">num</text>
<text text-anchor="start" x="288.5" y="-1034.5" font-family="Helvetica,sans-Serif" font-size="10.00">+</text>
<text text-anchor="start" x="301.5" y="-1034.5" font-family="Helvetica,sans-Serif" font-size="10.00">operator==()</text>
<text text-anchor="start" x="288.5" y="-1019.5" font-family="Helvetica,sans-Serif" font-size="10.00">+</text>
<text text-anchor="start" x="301.5" y="-1019.5" font-family="Helvetica,sans-Serif" font-size="10.00">operator&lt;()</text>
<text text-anchor="start" x="288.5" y="-1004.5" font-family="Helvetica,sans-Serif" font-size="10.00">+</text>
<text text-anchor="start" x="301.5" y="-1004.5" font-family="Helvetica,sans-Serif" font-size="10.00">operator string()</text>
<text text-anchor="start" x="288.5" y="-989.5" font-family="Helvetica,sans-Serif" font-size="10.00">+</text>
<text text-anchor="start" x="301.5" y="-989.5" font-family="Helvetica,sans-Serif" font-size="10.00">commaString()</text>
<text text-anchor="start" x="288.5" y="-974.5" font-family="Helvetica,sans-Serif" font-size="10.00">+</text>
<text text-anchor="start" x="301.5" y="-974.5" font-family="Helvetica,sans-Serif" font-size="10.00">serialize()</text>
<text text-anchor="start" x="288.5" y="-959.5" font-family="Helvetica,sans-Serif" font-size="10.00">+</text>
<text text-anchor="start" x="301.5" y="-959.5" font-family="Helvetica,sans-Serif" font-size="10.00">emptyString()</text>
<polygon fill="red" stroke="red" points="284.5,-1074.5 284.5,-1074.5 385.5,-1074.5 385.5,-1074.5 284.5,-1074.5"/>
<polygon fill="red" stroke="red" points="284.5,-1044.5 284.5,-1044.5 299.5,-1044.5 299.5,-1044.5 284.5,-1044.5"/>
<polygon fill="red" stroke="red" points="299.5,-1044.5 299.5,-1044.5 385.5,-1044.5 385.5,-1044.5 299.5,-1044.5"/>
<polygon fill="none" stroke="red" points="284,-953 284,-1092 385,-1092 385,-953 284,-953"/>
</a>
</g>
</g>
<!-- Node2&#45;&gt;Node26 -->
<g id="edge12_Node000026_Node000002" class="edge">
<title>Node2&#45;&gt;Node26</title>
<g id="a_edge12_Node000026_Node000002"><a xlink:title=" ">
<path fill="none" stroke="#63b8ff" d="M395.91,-1161.92C387.66,-1143.33 379.37,-1124.66 371.68,-1107.31"/>
<polygon fill="none" stroke="#63b8ff" points="371.58,-1107.09 365.49,-1103.22 366.71,-1096.12 372.8,-1099.98 371.58,-1107.09"/>
</a>
</g>
<text text-anchor="middle" x="397.5" y="-1122.5" font-family="Helvetica,sans-Serif" font-size="10.00" fill="grey"> +Sat</text>
</g>
<!-- Node3 -->
<g id="Node000003" class="node">
<title>Node3</title>
<g id="a_Node000003"><a xlink:title=" ">
<path fill="white" stroke="#666666" d="M469.5,-1597C469.5,-1597 361.5,-1597 361.5,-1597 355.5,-1597 349.5,-1591 349.5,-1585 349.5,-1585 349.5,-1541 349.5,-1541 349.5,-1535 355.5,-1529 361.5,-1529 361.5,-1529 469.5,-1529 469.5,-1529 475.5,-1529 481.5,-1535 481.5,-1541 481.5,-1541 481.5,-1585 481.5,-1585 481.5,-1591 475.5,-1597 469.5,-1597"/>
<text text-anchor="start" x="362.5" y="-1581" font-family="Helvetica,sans-Serif" font-size="10.00">map&lt; SatSys, SatSys</text>
<text text-anchor="start" x="387" y="-1570" font-family="Helvetica,sans-Serif" font-size="10.00">::SatData &gt;</text>
<text text-anchor="start" x="413.5" y="-1555" font-family="Helvetica,sans-Serif" font-size="10.00"> </text>
<text text-anchor="start" x="413.5" y="-1540" font-family="Helvetica,sans-Serif" font-size="10.00"> </text>
<polygon fill="#666666" stroke="#666666" points="357.5,-1565 357.5,-1565 473.5,-1565 473.5,-1565 357.5,-1565"/>
<polygon fill="#666666" stroke="#666666" points="357.5,-1550 357.5,-1550 473.5,-1550 473.5,-1550 357.5,-1550"/>
<polygon fill="none" stroke="#666666" points="357.5,-1533 357.5,-1593 473.5,-1593 473.5,-1533 357.5,-1533"/>
</a>
</g>
</g>
<!-- Node3&#45;&gt;Node2 -->
<g id="edge2_Node000002_Node000003" class="edge">
<title>Node3&#45;&gt;Node2</title>
<g id="a_edge2_Node000002_Node000003"><a xlink:title=" ">
<path fill="none" stroke="#63b8ff" d="M413.26,-1528.82C412.95,-1522.89 412.67,-1516.76 412.5,-1511 411.76,-1485.68 409.22,-1479.12 412.5,-1454 412.75,-1452.06 413.02,-1450.11 413.31,-1448.15"/>
<polygon fill="none" stroke="#63b8ff" points="413.35,-1447.89 410.35,-1441.33 415.25,-1436.04 418.25,-1442.6 413.35,-1447.89"/>
</a>
</g>
<text text-anchor="middle" x="448" y="-1480" font-family="Helvetica,sans-Serif" font-size="10.00" fill="grey"> +satDataMap</text>
</g>
<!-- Node4 -->
<g id="Node000004" class="node">
<title>Node4</title>
<g id="a_Node000004"><a xlink:title=" ">
<path fill="white" stroke="#666666" d="M509.5,-1701C509.5,-1701 485.5,-1701 485.5,-1701 479.5,-1701 473.5,-1695 473.5,-1689 473.5,-1689 473.5,-1656 473.5,-1656 473.5,-1650 479.5,-1644 485.5,-1644 485.5,-1644 509.5,-1644 509.5,-1644 515.5,-1644 521.5,-1650 521.5,-1656 521.5,-1656 521.5,-1689 521.5,-1689 521.5,-1695 515.5,-1701 509.5,-1701"/>
<text text-anchor="start" x="486.5" y="-1684.5" font-family="Helvetica,sans-Serif" font-size="10.00">map</text>
<text text-anchor="start" x="495.5" y="-1669.5" font-family="Helvetica,sans-Serif" font-size="10.00"> </text>
<text text-anchor="start" x="495.5" y="-1654.5" font-family="Helvetica,sans-Serif" font-size="10.00"> </text>
<polygon fill="#666666" stroke="#666666" points="481.5,-1679.5 481.5,-1679.5 513.5,-1679.5 513.5,-1679.5 481.5,-1679.5"/>
<polygon fill="#666666" stroke="#666666" points="481.5,-1664.5 481.5,-1664.5 513.5,-1664.5 513.5,-1664.5 481.5,-1664.5"/>
<polygon fill="none" stroke="#666666" points="481.5,-1648 481.5,-1697 513.5,-1697 513.5,-1648 481.5,-1648"/>
</a>
</g>
</g>
<!-- Node4&#45;&gt;Node3 -->
<g id="edge3_Node000003_Node000004" class="edge">
<title>Node4&#45;&gt;Node3</title>
<g id="a_edge3_Node000003_Node000004"><a xlink:title=" ">
<path fill="none" stroke="orange" d="M463.83,-1661.98C446.11,-1655.08 425.95,-1643.76 415.5,-1626 410.48,-1617.47 409.06,-1607.06 409.31,-1597.23"/>
<polygon fill="orange" stroke="orange" points="462.74,-1665.31 473.34,-1665.38 465.1,-1658.72 462.74,-1665.31"/>
</a>
</g>
<text text-anchor="middle" x="487" y="-1618" font-family="Helvetica,sans-Serif" font-size="10.00" fill="grey"> &lt; SatSys, SatSys::SatData &gt;</text>
</g>
<!-- Node60 -->
<g id="Node000060" class="node">
<title>Node60</title>
<g id="a_Node000060"><a xlink:title=" ">
<path fill="white" stroke="#666666" d="M657,-1511C657,-1511 504,-1511 504,-1511 498,-1511 492,-1505 492,-1499 492,-1499 492,-1466 492,-1466 492,-1460 498,-1454 504,-1454 504,-1454 657,-1454 657,-1454 663,-1454 669,-1460 669,-1466 669,-1466 669,-1499 669,-1499 669,-1505 663,-1511 657,-1511"/>
<text text-anchor="start" x="505.5" y="-1494.5" font-family="Helvetica,sans-Serif" font-size="10.00">map&lt; E_Component, double &gt;</text>
<text text-anchor="start" x="579" y="-1479.5" font-family="Helvetica,sans-Serif" font-size="10.00"> </text>
<text text-anchor="start" x="579" y="-1464.5" font-family="Helvetica,sans-Serif" font-size="10.00"> </text>
<polygon fill="#666666" stroke="#666666" points="500.5,-1489.5 500.5,-1489.5 661.5,-1489.5 661.5,-1489.5 500.5,-1489.5"/>
<polygon fill="#666666" stroke="#666666" points="500.5,-1474.5 500.5,-1474.5 661.5,-1474.5 661.5,-1474.5 500.5,-1474.5"/>
<polygon fill="none" stroke="#666666" points="500,-1458 500,-1507 661,-1507 661,-1458 500,-1458"/>
</a>
</g>
</g>
<!-- Node4&#45;&gt;Node60 -->
<g id="edge15_Node000060_Node000004" class="edge">
<title>Node4&#45;&gt;Node60</title>
<g id="a_edge15_Node000060_Node000004"><a xlink:title=" ">
<path fill="none" stroke="orange" d="M530.51,-1653.85C541.06,-1646.59 551.74,-1637.23 558.5,-1626 579.86,-1590.5 582.79,-1541.34 582.2,-1511.02"/>
<polygon fill="orange" stroke="orange" points="528.31,-1651.1 521.77,-1659.44 532.08,-1657 528.31,-1651.1"/>
</a>
</g>
<text text-anchor="middle" x="630" y="-1618" font-family="Helvetica,sans-Serif" font-size="10.00" fill="grey"> &lt; E_Component, double &gt;</text>
</g>
<!-- Node5 -->
<g id="Node000005" class="node">
<title>Node5</title>
<g id="a_Node000005"><a xlink:title=" ">
<path fill="white" stroke="#666666" d="M287.5,-1323.5C287.5,-1323.5 257.5,-1323.5 257.5,-1323.5 251.5,-1323.5 245.5,-1317.5 245.5,-1311.5 245.5,-1311.5 245.5,-1278.5 245.5,-1278.5 245.5,-1272.5 251.5,-1266.5 257.5,-1266.5 257.5,-1266.5 287.5,-1266.5 287.5,-1266.5 293.5,-1266.5 299.5,-1272.5 299.5,-1278.5 299.5,-1278.5 299.5,-1311.5 299.5,-1311.5 299.5,-1317.5 293.5,-1323.5 287.5,-1323.5"/>
<text text-anchor="start" x="258.5" y="-1307" font-family="Helvetica,sans-Serif" font-size="10.00">string</text>
<text text-anchor="start" x="270.5" y="-1292" font-family="Helvetica,sans-Serif" font-size="10.00"> </text>
<text text-anchor="start" x="270.5" y="-1277" font-family="Helvetica,sans-Serif" font-size="10.00"> </text>
<polygon fill="#666666" stroke="#666666" points="253.5,-1302 253.5,-1302 291.5,-1302 291.5,-1302 253.5,-1302"/>
<polygon fill="#666666" stroke="#666666" points="253.5,-1287 253.5,-1287 291.5,-1287 291.5,-1287 253.5,-1287"/>
<polygon fill="none" stroke="#666666" points="253.5,-1270.5 253.5,-1319.5 291.5,-1319.5 291.5,-1270.5 253.5,-1270.5"/>
</a>
</g>
</g>
<!-- Node5&#45;&gt;Node1 -->
<g id="edge4_Node000001_Node000005" class="edge">
<title>Node5&#45;&gt;Node1</title>
<g id="a_edge4_Node000001_Node000005"><a xlink:title=" ">
<path fill="none" stroke="#63b8ff" d="M262.41,-1266.05C241.66,-1203.3 201.46,-1048.96 267.5,-949 276.56,-935.29 394.19,-904.54 403.5,-891 444.14,-831.88 439.28,-356.38 435.46,-159.44"/>
<polygon fill="none" stroke="#63b8ff" points="435.45,-159.16 431.33,-153.24 435.21,-147.16 439.33,-153.08 435.45,-159.16"/>
</a>
</g>
<text text-anchor="middle" x="377" y="-917.5" font-family="Helvetica,sans-Serif" font-size="10.00" fill="grey"> +str</text>
</g>
<!-- Node7 -->
<g id="Node000007" class="node">
<title>Node7</title>
<g id="a_Node000007"><a xlink:href="structKFState__.html" target="_top" xlink:title="Kalman filter object.">
<path fill="#fff0f0" stroke="red" d="M163,-139.5C163,-139.5 12,-139.5 12,-139.5 6,-139.5 0,-133.5 0,-127.5 0,-127.5 0,-19.5 0,-19.5 0,-13.5 6,-7.5 12,-7.5 12,-7.5 163,-7.5 163,-7.5 169,-7.5 175,-13.5 175,-19.5 175,-19.5 175,-127.5 175,-127.5 175,-133.5 169,-139.5 163,-139.5"/>
<text text-anchor="start" x="66.5" y="-123.5" font-family="Helvetica,sans-Serif" font-size="10.00">KFState_</text>
<text text-anchor="start" x="12.5" y="-108.5" font-family="Helvetica,sans-Serif" font-size="10.00">+</text>
<text text-anchor="start" x="25.5" y="-108.5" font-family="Helvetica,sans-Serif" font-size="10.00">lsqRequired</text>
<text text-anchor="start" x="12.5" y="-93.5" font-family="Helvetica,sans-Serif" font-size="10.00">+</text>
<text text-anchor="start" x="25.5" y="-93.5" font-family="Helvetica,sans-Serif" font-size="10.00">chiQCPass</text>
<text text-anchor="start" x="12.5" y="-78.5" font-family="Helvetica,sans-Serif" font-size="10.00">+</text>
<text text-anchor="start" x="25.5" y="-78.5" font-family="Helvetica,sans-Serif" font-size="10.00">chi</text>
<text text-anchor="start" x="12.5" y="-63.5" font-family="Helvetica,sans-Serif" font-size="10.00">+</text>
<text text-anchor="start" x="25.5" y="-63.5" font-family="Helvetica,sans-Serif" font-size="10.00">dof</text>
<text text-anchor="start" x="12.5" y="-48.5" font-family="Helvetica,sans-Serif" font-size="10.00">+</text>
<text text-anchor="start" x="25.5" y="-48.5" font-family="Helvetica,sans-Serif" font-size="10.00">output_residuals</text>
<text text-anchor="start" x="12.5" y="-33.5" font-family="Helvetica,sans-Serif" font-size="10.00">+</text>
<text text-anchor="start" x="25.5" y="-33.5" font-family="Helvetica,sans-Serif" font-size="10.00">outputMongoMeasurements</text>
<text text-anchor="start" x="86" y="-18.5" font-family="Helvetica,sans-Serif" font-size="10.00"> </text>
<polygon fill="red" stroke="red" points="8.5,-118.5 8.5,-118.5 167.5,-118.5 167.5,-118.5 8.5,-118.5"/>
<polygon fill="red" stroke="red" points="8.5,-28.5 8.5,-28.5 23.5,-28.5 23.5,-28.5 8.5,-28.5"/>
<polygon fill="red" stroke="red" points="23.5,-28.5 23.5,-28.5 167.5,-28.5 167.5,-28.5 23.5,-28.5"/>
<polygon fill="none" stroke="red" points="8,-11.5 8,-135.5 167,-135.5 167,-11.5 8,-11.5"/>
</a>
</g>
</g>
<!-- Node5&#45;&gt;Node7 -->
<g id="edge8_Node000007_Node000005" class="edge">
<title>Node5&#45;&gt;Node7</title>
<g id="a_edge8_Node000007_Node000005"><a xlink:title=" ">
<path fill="none" stroke="#63b8ff" d="M245.22,-1270.64C206.79,-1236.26 137.11,-1168.25 98.5,-1096 62.73,-1029.06 71.73,-1004.91 54.5,-931 -16.23,-627.54 22.81,-542.51 15.5,-231 14.81,-201.67 5.83,-192.69 15.5,-165 17.21,-160.1 19.32,-155.26 21.71,-150.52"/>
<polygon fill="none" stroke="#63b8ff" points="21.92,-150.15 21.36,-142.96 27.79,-139.68 28.34,-146.87 21.92,-150.15"/>
</a>
</g>
<text text-anchor="middle" x="93.5" y="-923" font-family="Helvetica,sans-Serif" font-size="10.00" fill="grey"> +id</text>
<text text-anchor="middle" x="93.5" y="-912" font-family="Helvetica,sans-Serif" font-size="10.00" fill="grey">+rts_basename</text>
</g>
<!-- Node5&#45;&gt;Node26 -->
<g id="edge13_Node000026_Node000005" class="edge">
<title>Node5&#45;&gt;Node26</title>
<g id="a_edge13_Node000026_Node000005"><a xlink:title=" ">
<path fill="none" stroke="#63b8ff" d="M278.84,-1266.32C287.31,-1229.38 302.69,-1162.3 315.13,-1107.99"/>
<polygon fill="none" stroke="#63b8ff" points="315.14,-1107.96 312.58,-1101.22 317.82,-1096.26 320.38,-1103 315.14,-1107.96"/>
</a>
</g>
<text text-anchor="middle" x="341.5" y="-1128" font-family="Helvetica,sans-Serif" font-size="10.00" fill="grey"> +comment</text>
<text text-anchor="middle" x="341.5" y="-1117" font-family="Helvetica,sans-Serif" font-size="10.00" fill="grey">+str</text>
</g>
<!-- Node6 -->
<g id="Node000006" class="node">
<title>Node6</title>
<g id="a_Node000006"><a xlink:href="structKFState.html" target="_top" xlink:title="Wrapper to protect main KFState_ structure from multithreading issues.">
<path fill="white" stroke="#666666" d="M205.5,-891C205.5,-891 67.5,-891 67.5,-891 61.5,-891 55.5,-885 55.5,-879 55.5,-879 55.5,-261 55.5,-261 55.5,-255 61.5,-249 67.5,-249 67.5,-249 205.5,-249 205.5,-249 211.5,-249 217.5,-255 217.5,-261 217.5,-261 217.5,-879 217.5,-879 217.5,-885 211.5,-891 205.5,-891"/>
<text text-anchor="start" x="117.5" y="-875" font-family="Helvetica,sans-Serif" font-size="10.00">KFState</text>
<text text-anchor="start" x="134.5" y="-860" font-family="Helvetica,sans-Serif" font-size="10.00"> </text>
<text text-anchor="start" x="67.5" y="-845" font-family="Helvetica,sans-Serif" font-size="10.00">+</text>
<text text-anchor="start" x="80.5" y="-845" font-family="Helvetica,sans-Serif" font-size="10.00">KFState()</text>
<text text-anchor="start" x="67.5" y="-830" font-family="Helvetica,sans-Serif" font-size="10.00">+</text>
<text text-anchor="start" x="80.5" y="-830" font-family="Helvetica,sans-Serif" font-size="10.00">KFState()</text>
<text text-anchor="start" x="67.5" y="-815" font-family="Helvetica,sans-Serif" font-size="10.00">+</text>
<text text-anchor="start" x="80.5" y="-815" font-family="Helvetica,sans-Serif" font-size="10.00">operator=()</text>
<text text-anchor="start" x="67.5" y="-800" font-family="Helvetica,sans-Serif" font-size="10.00">+</text>
<text text-anchor="start" x="80.5" y="-800" font-family="Helvetica,sans-Serif" font-size="10.00">serialize()</text>
<text text-anchor="start" x="67.5" y="-785" font-family="Helvetica,sans-Serif" font-size="10.00">+</text>
<text text-anchor="start" x="80.5" y="-785" font-family="Helvetica,sans-Serif" font-size="10.00">initFilterEpoch()</text>
<text text-anchor="start" x="67.5" y="-770" font-family="Helvetica,sans-Serif" font-size="10.00">+</text>
<text text-anchor="start" x="80.5" y="-770" font-family="Helvetica,sans-Serif" font-size="10.00">getKFIndex()</text>
<text text-anchor="start" x="67.5" y="-755" font-family="Helvetica,sans-Serif" font-size="10.00">+</text>
<text text-anchor="start" x="80.5" y="-755" font-family="Helvetica,sans-Serif" font-size="10.00">getKFValue()</text>
<text text-anchor="start" x="67.5" y="-740" font-family="Helvetica,sans-Serif" font-size="10.00">+</text>
<text text-anchor="start" x="80.5" y="-740" font-family="Helvetica,sans-Serif" font-size="10.00">getKFSigma()</text>
<text text-anchor="start" x="67.5" y="-725" font-family="Helvetica,sans-Serif" font-size="10.00">+</text>
<text text-anchor="start" x="80.5" y="-725" font-family="Helvetica,sans-Serif" font-size="10.00">addKFState()</text>
<text text-anchor="start" x="67.5" y="-710" font-family="Helvetica,sans-Serif" font-size="10.00">+</text>
<text text-anchor="start" x="80.5" y="-710" font-family="Helvetica,sans-Serif" font-size="10.00">setExponentialNoise()</text>
<text text-anchor="start" x="67.5" y="-695" font-family="Helvetica,sans-Serif" font-size="10.00">+</text>
<text text-anchor="start" x="80.5" y="-695" font-family="Helvetica,sans-Serif" font-size="10.00">setAccelerator()</text>
<text text-anchor="start" x="67.5" y="-680" font-family="Helvetica,sans-Serif" font-size="10.00">+</text>
<text text-anchor="start" x="80.5" y="-680" font-family="Helvetica,sans-Serif" font-size="10.00">setKFTrans()</text>
<text text-anchor="start" x="67.5" y="-665" font-family="Helvetica,sans-Serif" font-size="10.00">+</text>
<text text-anchor="start" x="80.5" y="-665" font-family="Helvetica,sans-Serif" font-size="10.00">setKFTransRate()</text>
<text text-anchor="start" x="67.5" y="-650" font-family="Helvetica,sans-Serif" font-size="10.00">+</text>
<text text-anchor="start" x="80.5" y="-650" font-family="Helvetica,sans-Serif" font-size="10.00">addNoiseElement()</text>
<text text-anchor="start" x="67.5" y="-635" font-family="Helvetica,sans-Serif" font-size="10.00">+</text>
<text text-anchor="start" x="80.5" y="-635" font-family="Helvetica,sans-Serif" font-size="10.00">removeState()</text>
<text text-anchor="start" x="67.5" y="-620" font-family="Helvetica,sans-Serif" font-size="10.00">+</text>
<text text-anchor="start" x="80.5" y="-620" font-family="Helvetica,sans-Serif" font-size="10.00">stateTransition()</text>
<text text-anchor="start" x="67.5" y="-605" font-family="Helvetica,sans-Serif" font-size="10.00">+</text>
<text text-anchor="start" x="80.5" y="-605" font-family="Helvetica,sans-Serif" font-size="10.00">manualStateTransition()</text>
<text text-anchor="start" x="67.5" y="-590" font-family="Helvetica,sans-Serif" font-size="10.00">+</text>
<text text-anchor="start" x="80.5" y="-590" font-family="Helvetica,sans-Serif" font-size="10.00">preFitSigmaCheck()</text>
<text text-anchor="start" x="67.5" y="-575" font-family="Helvetica,sans-Serif" font-size="10.00">+</text>
<text text-anchor="start" x="80.5" y="-575" font-family="Helvetica,sans-Serif" font-size="10.00">postFitSigmaChecks()</text>
<text text-anchor="start" x="67.5" y="-560" font-family="Helvetica,sans-Serif" font-size="10.00">+</text>
<text text-anchor="start" x="80.5" y="-560" font-family="Helvetica,sans-Serif" font-size="10.00">stateChiSquare()</text>
<text text-anchor="start" x="67.5" y="-545" font-family="Helvetica,sans-Serif" font-size="10.00">+</text>
<text text-anchor="start" x="80.5" y="-545" font-family="Helvetica,sans-Serif" font-size="10.00">measChiSquare()</text>
<text text-anchor="start" x="67.5" y="-530" font-family="Helvetica,sans-Serif" font-size="10.00">+</text>
<text text-anchor="start" x="80.5" y="-530" font-family="Helvetica,sans-Serif" font-size="10.00">innovChiSquare()</text>
<text text-anchor="start" x="67.5" y="-515" font-family="Helvetica,sans-Serif" font-size="10.00">+</text>
<text text-anchor="start" x="80.5" y="-515" font-family="Helvetica,sans-Serif" font-size="10.00">kFilter()</text>
<text text-anchor="start" x="67.5" y="-500" font-family="Helvetica,sans-Serif" font-size="10.00">+</text>
<text text-anchor="start" x="80.5" y="-500" font-family="Helvetica,sans-Serif" font-size="10.00">chiQC()</text>
<text text-anchor="start" x="67.5" y="-485" font-family="Helvetica,sans-Serif" font-size="10.00">+</text>
<text text-anchor="start" x="80.5" y="-485" font-family="Helvetica,sans-Serif" font-size="10.00">outputStates()</text>
<text text-anchor="start" x="67.5" y="-470" font-family="Helvetica,sans-Serif" font-size="10.00">+</text>
<text text-anchor="start" x="80.5" y="-470" font-family="Helvetica,sans-Serif" font-size="10.00">outputConditionNumber()</text>
<text text-anchor="start" x="67.5" y="-455" font-family="Helvetica,sans-Serif" font-size="10.00">+</text>
<text text-anchor="start" x="80.5" y="-455" font-family="Helvetica,sans-Serif" font-size="10.00">outputCorrelations()</text>
<text text-anchor="start" x="67.5" y="-440" font-family="Helvetica,sans-Serif" font-size="10.00">+</text>
<text text-anchor="start" x="80.5" y="-440" font-family="Helvetica,sans-Serif" font-size="10.00">outputMeasurements()</text>
<text text-anchor="start" x="67.5" y="-425" font-family="Helvetica,sans-Serif" font-size="10.00">+</text>
<text text-anchor="start" x="80.5" y="-425" font-family="Helvetica,sans-Serif" font-size="10.00">doStateRejectCallbacks()</text>
<text text-anchor="start" x="67.5" y="-410" font-family="Helvetica,sans-Serif" font-size="10.00">+</text>
<text text-anchor="start" x="80.5" y="-410" font-family="Helvetica,sans-Serif" font-size="10.00">doMeasRejectCallbacks()</text>
<text text-anchor="start" x="67.5" y="-395" font-family="Helvetica,sans-Serif" font-size="10.00">+</text>
<text text-anchor="start" x="80.5" y="-395" font-family="Helvetica,sans-Serif" font-size="10.00">filterKalman()</text>
<text text-anchor="start" x="67.5" y="-380" font-family="Helvetica,sans-Serif" font-size="10.00">+</text>
<text text-anchor="start" x="80.5" y="-380" font-family="Helvetica,sans-Serif" font-size="10.00">leastSquareInitStates()</text>
<text text-anchor="start" x="67.5" y="-365" font-family="Helvetica,sans-Serif" font-size="10.00">+</text>
<text text-anchor="start" x="80.5" y="-365" font-family="Helvetica,sans-Serif" font-size="10.00">getSubState()</text>
<text text-anchor="start" x="67.5" y="-350" font-family="Helvetica,sans-Serif" font-size="10.00">+</text>
<text text-anchor="start" x="80.5" y="-350" font-family="Helvetica,sans-Serif" font-size="10.00">getSubState()</text>
<text text-anchor="start" x="67.5" y="-335" font-family="Helvetica,sans-Serif" font-size="10.00">+</text>
<text text-anchor="start" x="80.5" y="-335" font-family="Helvetica,sans-Serif" font-size="10.00">getSubState()</text>
<text text-anchor="start" x="67.5" y="-320" font-family="Helvetica,sans-Serif" font-size="10.00">+</text>
<text text-anchor="start" x="80.5" y="-320" font-family="Helvetica,sans-Serif" font-size="10.00">removeState()</text>
<text text-anchor="start" x="67.5" y="-305" font-family="Helvetica,sans-Serif" font-size="10.00">+</text>
<text text-anchor="start" x="80.5" y="-305" font-family="Helvetica,sans-Serif" font-size="10.00">setExponentialNoise()</text>
<text text-anchor="start" x="67.5" y="-290" font-family="Helvetica,sans-Serif" font-size="10.00">+</text>
<text text-anchor="start" x="80.5" y="-290" font-family="Helvetica,sans-Serif" font-size="10.00">addKFState()</text>
<text text-anchor="start" x="67.5" y="-275" font-family="Helvetica,sans-Serif" font-size="10.00">+</text>
<text text-anchor="start" x="80.5" y="-275" font-family="Helvetica,sans-Serif" font-size="10.00">setKFTrans()</text>
<text text-anchor="start" x="67.5" y="-260" font-family="Helvetica,sans-Serif" font-size="10.00">+</text>
<text text-anchor="start" x="80.5" y="-260" font-family="Helvetica,sans-Serif" font-size="10.00">setKFTransRate()</text>
<polygon fill="#666666" stroke="#666666" points="63.5,-870 63.5,-870 209.5,-870 209.5,-870 63.5,-870"/>
<polygon fill="#666666" stroke="#666666" points="63.5,-855 63.5,-855 209.5,-855 209.5,-855 63.5,-855"/>
<polygon fill="none" stroke="#666666" points="63.5,-253 63.5,-887 209.5,-887 209.5,-253 63.5,-253"/>
</a>
</g>
</g>
<!-- Node6&#45;&gt;Node1 -->
<g id="edge5_Node000001_Node000006" class="edge">
<title>Node6&#45;&gt;Node1</title>
<g id="a_edge5_Node000001_Node000006"><a xlink:title=" ">
<path fill="none" stroke="#63b8ff" d="M55.49,-363.66C41.74,-293.84 44.17,-219.72 89.5,-165 116.91,-131.91 142.71,-157.02 184.5,-147 248.34,-131.7 320.24,-110.3 370.3,-94.73"/>
<polygon fill="none" stroke="#63b8ff" points="370.45,-94.68 374.98,-89.07 381.91,-91.1 377.37,-96.71 370.45,-94.68"/>
</a>
</g>
<text text-anchor="middle" x="117" y="-195.5" font-family="Helvetica,sans-Serif" font-size="10.00" fill="grey"> +subState</text>
</g>
<!-- Node6&#45;&gt;Node7 -->
<g id="edge9_Node000007_Node000006" class="edge">
<title>Node6&#45;&gt;Node7</title>
<g id="a_edge9_Node000007_Node000006"><a xlink:title=" ">
<path fill="none" stroke="#63b8ff" d="M165.23,-248.84C162.05,-220.16 156.7,-191.84 148.5,-165 147.02,-160.16 145.19,-155.34 143.09,-150.6"/>
<polygon fill="none" stroke="#63b8ff" points="143.02,-150.46 136.79,-146.83 137.75,-139.68 143.97,-143.31 143.02,-150.46"/>
</a>
</g>
<text text-anchor="middle" x="201" y="-195.5" font-family="Helvetica,sans-Serif" font-size="10.00" fill="grey"> +alternate_ptr</text>
</g>
<!-- Node7&#45;&gt;Node6 -->
<g id="edge6_Node000006_Node000007" class="edge">
<title>Node7&#45;&gt;Node6</title>
<g id="a_edge6_Node000006_Node000007"><a xlink:title=" ">
<path fill="none" stroke="#63b8ff" d="M124.06,-149.13C125.8,-154.42 127.31,-159.74 128.5,-165 134.62,-192.03 139.04,-220.33 142.14,-248.88"/>
<polygon fill="none" stroke="#63b8ff" points="127.35,-147.92 120.72,-139.65 120.75,-150.25 127.35,-147.92"/>
</a>
</g>
</g>
<!-- Node14 -->
<g id="Node000014" class="node">
<title>Node14</title>
<g id="a_Node000014"><a xlink:title=" ">
<path fill="white" stroke="#666666" d="M295,-598.5C295,-598.5 248,-598.5 248,-598.5 242,-598.5 236,-592.5 236,-586.5 236,-586.5 236,-553.5 236,-553.5 236,-547.5 242,-541.5 248,-541.5 248,-541.5 295,-541.5 295,-541.5 301,-541.5 307,-547.5 307,-553.5 307,-553.5 307,-586.5 307,-586.5 307,-592.5 301,-598.5 295,-598.5"/>
<text text-anchor="start" x="249.5" y="-582" font-family="Helvetica,sans-Serif" font-size="10.00">MatrixXd</text>
<text text-anchor="start" x="270" y="-567" font-family="Helvetica,sans-Serif" font-size="10.00"> </text>
<text text-anchor="start" x="270" y="-552" font-family="Helvetica,sans-Serif" font-size="10.00"> </text>
<polygon fill="#666666" stroke="#666666" points="244.5,-577 244.5,-577 299.5,-577 299.5,-577 244.5,-577"/>
<polygon fill="#666666" stroke="#666666" points="244.5,-562 244.5,-562 299.5,-562 299.5,-562 244.5,-562"/>
<polygon fill="none" stroke="#666666" points="244,-545.5 244,-594.5 299,-594.5 299,-545.5 244,-545.5"/>
</a>
</g>
</g>
<!-- Node14&#45;&gt;Node1 -->
<g id="edge18_Node000001_Node000014" class="edge">
<title>Node14&#45;&gt;Node1</title>
<g id="a_edge18_Node000001_Node000014"><a xlink:title=" ">
<path fill="none" stroke="#63b8ff" d="M263.37,-541.3C244.77,-472.16 206.09,-288.64 278.5,-165 298.59,-130.7 337.15,-108.11 370.78,-94.08"/>
<polygon fill="none" stroke="#63b8ff" points="370.81,-94.06 374.92,-88.13 381.97,-89.64 377.86,-95.57 370.81,-94.06"/>
</a>
</g>
<text text-anchor="middle" x="322.5" y="-195.5" font-family="Helvetica,sans-Serif" font-size="10.00" fill="grey"> +posVelQuatSTM</text>
</g>
<!-- Node14&#45;&gt;Node7 -->
<g id="edge7_Node000007_Node000014" class="edge">
<title>Node14&#45;&gt;Node7</title>
<g id="a_edge7_Node000007_Node000014"><a xlink:title=" ">
<path fill="none" stroke="#63b8ff" d="M277.55,-541.35C289.39,-478.95 307.89,-326.64 226.5,-249 195.17,-219.12 61.67,-263 32.5,-231 12.11,-208.64 17.73,-178.26 31.44,-150.23"/>
<polygon fill="none" stroke="#63b8ff" points="31.44,-150.22 30.71,-143.05 37.05,-139.62 37.78,-146.79 31.44,-150.22"/>
</a>
</g>
<text text-anchor="middle" x="41.5" y="-195.5" font-family="Helvetica,sans-Serif" font-size="10.00" fill="grey"> +P</text>
</g>
<!-- Node25 -->
<g id="Node000025" class="node">
<title>Node25</title>
<g id="a_Node000025"><a xlink:title=" ">
<path fill="white" stroke="#666666" d="M153.5,-1051C153.5,-1051 119.5,-1051 119.5,-1051 113.5,-1051 107.5,-1045 107.5,-1039 107.5,-1039 107.5,-1006 107.5,-1006 107.5,-1000 113.5,-994 119.5,-994 119.5,-994 153.5,-994 153.5,-994 159.5,-994 165.5,-1000 165.5,-1006 165.5,-1006 165.5,-1039 165.5,-1039 165.5,-1045 159.5,-1051 153.5,-1051"/>
<text text-anchor="start" x="120.5" y="-1034.5" font-family="Helvetica,sans-Serif" font-size="10.00">mutex</text>
<text text-anchor="start" x="134.5" y="-1019.5" font-family="Helvetica,sans-Serif" font-size="10.00"> </text>
<text text-anchor="start" x="134.5" y="-1004.5" font-family="Helvetica,sans-Serif" font-size="10.00"> </text>
<polygon fill="#666666" stroke="#666666" points="115.5,-1029.5 115.5,-1029.5 157.5,-1029.5 157.5,-1029.5 115.5,-1029.5"/>
<polygon fill="#666666" stroke="#666666" points="115.5,-1014.5 115.5,-1014.5 157.5,-1014.5 157.5,-1014.5 115.5,-1014.5"/>
<polygon fill="none" stroke="#666666" points="115.5,-998 115.5,-1047 157.5,-1047 157.5,-998 115.5,-998"/>
</a>
</g>
</g>
<!-- Node25&#45;&gt;Node6 -->
<g id="edge10_Node000006_Node000025" class="edge">
<title>Node25&#45;&gt;Node6</title>
<g id="a_edge10_Node000006_Node000025"><a xlink:title=" ">
<path fill="none" stroke="#63b8ff" d="M136.5,-994C136.5,-972.67 136.5,-940.52 136.5,-903.29"/>
<polygon fill="none" stroke="#63b8ff" points="136.5,-903.03 132.5,-897.03 136.5,-891.03 140.5,-897.03 136.5,-903.03"/>
</a>
</g>
<text text-anchor="middle" x="175.5" y="-917.5" font-family="Helvetica,sans-Serif" font-size="10.00" fill="grey"> +kfStateMutex</text>
</g>
<!-- Node26&#45;&gt;Node6 -->
<g id="edge11_Node000006_Node000026" class="edge">
<title>Node26&#45;&gt;Node6</title>
<g id="a_edge11_Node000006_Node000026"><a xlink:title=" ">
<path fill="none" stroke="#63b8ff" d="M275.8,-960.51C258.27,-939.74 240.33,-915.53 227.5,-891 225.95,-888.04 224.43,-885.06 222.93,-882.04"/>
<polygon fill="none" stroke="#63b8ff" points="222.83,-881.83 216.61,-878.17 217.6,-871.02 223.81,-874.68 222.83,-881.83"/>
</a>
</g>
<text text-anchor="middle" x="275.5" y="-917.5" font-family="Helvetica,sans-Serif" font-size="10.00" fill="grey"> +oneKey</text>
</g>
<!-- Node60&#45;&gt;Node1 -->
<g id="edge14_Node000001_Node000060" class="edge">
<title>Node60&#45;&gt;Node1</title>
<g id="a_edge14_Node000001_Node000060"><a xlink:title=" ">
<path fill="none" stroke="#63b8ff" d="M575.4,-1453.96C564.83,-1394.37 541.5,-1248.94 541.5,-1126 541.5,-1126 541.5,-1126 541.5,-569 541.5,-422.07 495.43,-256.12 463.47,-158.68"/>
<polygon fill="none" stroke="#63b8ff" points="463.42,-158.53 457.73,-154.1 459.64,-147.14 465.33,-151.58 463.42,-158.53"/>
</a>
</g>
<text text-anchor="middle" x="588" y="-1020" font-family="Helvetica,sans-Serif" font-size="10.00" fill="grey"> +componentsMap</text>
</g>
<!-- Node36 -->
<g id="Node000036" class="node">
<title>Node36</title>
<g id="a_Node000036"><a xlink:title=" ">
<path fill="white" stroke="#666666" d="M627,-598.5C627,-598.5 582,-598.5 582,-598.5 576,-598.5 570,-592.5 570,-586.5 570,-586.5 570,-553.5 570,-553.5 570,-547.5 576,-541.5 582,-541.5 582,-541.5 627,-541.5 627,-541.5 633,-541.5 639,-547.5 639,-553.5 639,-553.5 639,-586.5 639,-586.5 639,-592.5 633,-598.5 627,-598.5"/>
<text text-anchor="start" x="583.5" y="-582" font-family="Helvetica,sans-Serif" font-size="10.00">Vector3d</text>
<text text-anchor="start" x="603" y="-567" font-family="Helvetica,sans-Serif" font-size="10.00"> </text>
<text text-anchor="start" x="603" y="-552" font-family="Helvetica,sans-Serif" font-size="10.00"> </text>
<polygon fill="#666666" stroke="#666666" points="578.5,-577 578.5,-577 631.5,-577 631.5,-577 578.5,-577"/>
<polygon fill="#666666" stroke="#666666" points="578.5,-562 578.5,-562 631.5,-562 631.5,-562 578.5,-562"/>
<polygon fill="none" stroke="#666666" points="578,-545.5 578,-594.5 631,-594.5 631,-545.5 578,-545.5"/>
</a>
</g>
</g>
<!-- Node36&#45;&gt;Node1 -->
<g id="edge16_Node000001_Node000036" class="edge">
<title>Node36&#45;&gt;Node1</title>
<g id="a_edge16_Node000001_Node000036"><a xlink:title=" ">
<path fill="none" stroke="#63b8ff" d="M608.19,-541.44C616.02,-472.61 628.03,-289.76 555.5,-165 541.42,-140.78 518.02,-121.08 495.45,-106.31"/>
<polygon fill="none" stroke="#63b8ff" points="495.35,-106.25 488.14,-106.45 485.18,-99.88 492.39,-99.68 495.35,-106.25"/>
</a>
</g>
<text text-anchor="middle" x="611" y="-223" font-family="Helvetica,sans-Serif" font-size="10.00" fill="grey"> +acclBias</text>
<text text-anchor="middle" x="611" y="-212" font-family="Helvetica,sans-Serif" font-size="10.00" fill="grey">+acclScale</text>
<text text-anchor="middle" x="611" y="-201" font-family="Helvetica,sans-Serif" font-size="10.00" fill="grey">+gyroBias</text>
<text text-anchor="middle" x="611" y="-190" font-family="Helvetica,sans-Serif" font-size="10.00" fill="grey">+gyroScale</text>
<text text-anchor="middle" x="611" y="-179" font-family="Helvetica,sans-Serif" font-size="10.00" fill="grey">+pos</text>
<text text-anchor="middle" x="611" y="-168" font-family="Helvetica,sans-Serif" font-size="10.00" fill="grey">+vel</text>
</g>
<!-- Node61 -->
<g id="Node000061" class="node">
<title>Node61</title>
<g id="a_Node000061"><a xlink:title=" ">
<path fill="white" stroke="#666666" d="M382,-598.5C382,-598.5 337,-598.5 337,-598.5 331,-598.5 325,-592.5 325,-586.5 325,-586.5 325,-553.5 325,-553.5 325,-547.5 331,-541.5 337,-541.5 337,-541.5 382,-541.5 382,-541.5 388,-541.5 394,-547.5 394,-553.5 394,-553.5 394,-586.5 394,-586.5 394,-592.5 388,-598.5 382,-598.5"/>
<text text-anchor="start" x="338.5" y="-582" font-family="Helvetica,sans-Serif" font-size="10.00">Vector4d</text>
<text text-anchor="start" x="358" y="-567" font-family="Helvetica,sans-Serif" font-size="10.00"> </text>
<text text-anchor="start" x="358" y="-552" font-family="Helvetica,sans-Serif" font-size="10.00"> </text>
<polygon fill="#666666" stroke="#666666" points="333.5,-577 333.5,-577 386.5,-577 386.5,-577 333.5,-577"/>
<polygon fill="#666666" stroke="#666666" points="333.5,-562 333.5,-562 386.5,-562 386.5,-562 333.5,-562"/>
<polygon fill="none" stroke="#666666" points="333,-545.5 333,-594.5 386,-594.5 386,-545.5 333,-545.5"/>
</a>
</g>
</g>
<!-- Node61&#45;&gt;Node1 -->
<g id="edge17_Node000001_Node000061" class="edge">
<title>Node61&#45;&gt;Node1</title>
<g id="a_edge17_Node000001_Node000061"><a xlink:title=" ">
<path fill="none" stroke="#63b8ff" d="M357.35,-541.38C353.02,-475.02 346.72,-301.94 385.5,-165 386.1,-162.88 386.76,-160.75 387.46,-158.62"/>
<polygon fill="none" stroke="#63b8ff" points="387.5,-158.52 385.81,-151.51 391.64,-147.25 393.32,-154.26 387.5,-158.52"/>
</a>
</g>
<text text-anchor="middle" x="402.5" y="-195.5" font-family="Helvetica,sans-Serif" font-size="10.00" fill="grey"> +quat</text>
</g>
</g>
</svg>
