<?xml version="1.0" encoding="UTF-8" standalone="no"?>
<!DOCTYPE svg PUBLIC "-//W3C//DTD SVG 1.1//EN"
 "http://www.w3.org/Graphics/SVG/1.1/DTD/svg11.dtd">
<!-- Generated by graphviz version 2.43.0 (0)
 -->
<!-- Title: URL::sanitised Pages: 1 -->
<svg width="296pt" height="113pt"
 viewBox="0.00 0.00 296.00 113.00" xmlns="http://www.w3.org/2000/svg" xmlns:xlink="http://www.w3.org/1999/xlink">
<g id="graph0" class="graph" transform="scale(1 1) rotate(0) translate(4 109)">
<title>URL::sanitised</title>
<!-- Node1 -->
<g id="Node000001" class="node">
<title>Node1</title>
<g id="a_Node000001"><a xlink:href="structURL.html#ab0ccd3714f16e338f40eb008b2a25cf2" target="_top" xlink:title=" ">
<path fill="#fff0f0" stroke="red" stroke-width="2" d="M281.67,-62C281.67,-62 208.33,-62 208.33,-62 205.17,-62 202,-58.83 202,-55.67 202,-55.67 202,-49.33 202,-49.33 202,-46.17 205.17,-43 208.33,-43 208.33,-43 281.67,-43 281.67,-43 284.83,-43 288,-46.17 288,-49.33 288,-49.33 288,-55.67 288,-55.67 288,-58.83 284.83,-62 281.67,-62"/>
<text text-anchor="middle" x="245" y="-50" font-family="Helvetica,sans-Serif" font-size="10.00">URL::sanitised</text>
</a>
</g>
</g>
<!-- Node2 -->
<g id="Node000002" class="node">
<title>Node2</title>
<g id="a_Node000002"><a xlink:href="structTcpSocket.html#a4c09b381dbd56fa09e6187d833994db6" target="_top" xlink:title=" ">
<path fill="#fff0f0" stroke="red" d="M131.17,-105C131.17,-105 34.83,-105 34.83,-105 31.67,-105 28.5,-101.83 28.5,-98.67 28.5,-98.67 28.5,-92.33 28.5,-92.33 28.5,-89.17 31.67,-86 34.83,-86 34.83,-86 131.17,-86 131.17,-86 134.33,-86 137.5,-89.17 137.5,-92.33 137.5,-92.33 137.5,-98.67 137.5,-98.67 137.5,-101.83 134.33,-105 131.17,-105"/>
<text text-anchor="middle" x="83" y="-93" font-family="Helvetica,sans-Serif" font-size="10.00">TcpSocket::connect</text>
</a>
</g>
</g>
<!-- Node1&#45;&gt;Node2 -->
<g id="edge1_Node000001_Node000002" class="edge">
<title>Node1&#45;&gt;Node2</title>
<g id="a_edge1_Node000001_Node000002"><a xlink:title=" ">
<path fill="none" stroke="#63b8ff" d="M204.92,-65.12C192.53,-68.96 178.74,-73.07 166,-76.5 153.72,-79.81 140.32,-83.06 127.98,-85.91"/>
<polygon fill="#63b8ff" stroke="#63b8ff" points="206.02,-68.44 214.51,-62.11 203.92,-61.76 206.02,-68.44"/>
</a>
</g>
</g>
<!-- Node6 -->
<g id="Node000006" class="node">
<title>Node6</title>
<g id="a_Node000006"><a xlink:href="structNtripStream.html#a8e7a5e1d0ae5f1837f336fe2d31c5ae4" target="_top" xlink:title=" ">
<path fill="#fff0f0" stroke="red" d="M156,-67.5C156,-67.5 10,-67.5 10,-67.5 5,-67.5 0,-62.5 0,-57.5 0,-57.5 0,-47.5 0,-47.5 0,-42.5 5,-37.5 10,-37.5 10,-37.5 156,-37.5 156,-37.5 161,-37.5 166,-42.5 166,-47.5 166,-47.5 166,-57.5 166,-57.5 166,-62.5 161,-67.5 156,-67.5"/>
<text text-anchor="start" x="8" y="-55.5" font-family="Helvetica,sans-Serif" font-size="10.00">NtripStream::requestResponse</text>
<text text-anchor="middle" x="83" y="-44.5" font-family="Helvetica,sans-Serif" font-size="10.00">Handler</text>
</a>
</g>
</g>
<!-- Node1&#45;&gt;Node6 -->
<g id="edge2_Node000001_Node000006" class="edge">
<title>Node1&#45;&gt;Node6</title>
<g id="a_edge2_Node000001_Node000006"><a xlink:title=" ">
<path fill="none" stroke="#63b8ff" d="M191.76,-52.5C183.49,-52.5 174.77,-52.5 166.02,-52.5"/>
<polygon fill="#63b8ff" stroke="#63b8ff" points="191.96,-56 201.96,-52.5 191.96,-49 191.96,-56"/>
</a>
</g>
</g>
<!-- Node7 -->
<g id="Node000007" class="node">
<title>Node7</title>
<g id="a_Node000007"><a xlink:href="structTcpSocket.html#af0d4224df8c4ae9c3ca8227bfd10a701" target="_top" xlink:title=" ">
<path fill="#fff0f0" stroke="red" d="M150.17,-19C150.17,-19 15.83,-19 15.83,-19 12.67,-19 9.5,-15.83 9.5,-12.67 9.5,-12.67 9.5,-6.33 9.5,-6.33 9.5,-3.17 12.67,0 15.83,0 15.83,0 150.17,0 150.17,0 153.33,0 156.5,-3.17 156.5,-6.33 156.5,-6.33 156.5,-12.67 156.5,-12.67 156.5,-15.83 153.33,-19 150.17,-19"/>
<text text-anchor="middle" x="83" y="-7" font-family="Helvetica,sans-Serif" font-size="10.00">TcpSocket::timeoutHandler</text>
</a>
</g>
</g>
<!-- Node1&#45;&gt;Node7 -->
<g id="edge3_Node000001_Node000007" class="edge">
<title>Node1&#45;&gt;Node7</title>
<g id="a_edge3_Node000001_Node000007"><a xlink:title=" ">
<path fill="none" stroke="#63b8ff" d="M204.92,-39.88C192.53,-36.04 178.74,-31.93 166,-28.5 153.72,-25.19 140.32,-21.94 127.98,-19.09"/>
<polygon fill="#63b8ff" stroke="#63b8ff" points="203.92,-43.24 214.51,-42.89 206.02,-36.56 203.92,-43.24"/>
</a>
</g>
</g>
</g>
</svg>
