<?xml version="1.0" encoding="UTF-8" standalone="no"?>
<!DOCTYPE svg PUBLIC "-//W3C//DTD SVG 1.1//EN"
 "http://www.w3.org/Graphics/SVG/1.1/DTD/svg11.dtd">
<!-- Generated by graphviz version 2.43.0 (0)
 -->
<!-- Title: KFState Pages: 1 -->
<svg width="183pt" height="1331pt"
 viewBox="0.00 0.00 183.00 1331.00" xmlns="http://www.w3.org/2000/svg" xmlns:xlink="http://www.w3.org/1999/xlink">
<g id="graph0" class="graph" transform="scale(1 1) rotate(0) translate(4 1327)">
<title>KFState</title>
<!-- Node1 -->
<g id="Node000001" class="node">
<title>Node1</title>
<g id="a_Node000001"><a xlink:href="structKFState.html" target="_top" xlink:title="Wrapper to protect main KFState_ structure from multithreading issues.">
<path fill="white" stroke="#666666" stroke-width="2" d="M156.5,-657C156.5,-657 18.5,-657 18.5,-657 12.5,-657 6.5,-651 6.5,-645 6.5,-645 6.5,-12 6.5,-12 6.5,-6 12.5,0 18.5,0 18.5,0 156.5,0 156.5,0 162.5,0 168.5,-6 168.5,-12 168.5,-12 168.5,-645 168.5,-645 168.5,-651 162.5,-657 156.5,-657"/>
<text text-anchor="start" x="68.5" y="-640.5" font-family="Helvetica,sans-Serif" font-size="10.00">KFState</text>
<text text-anchor="start" x="18.5" y="-625.5" font-family="Helvetica,sans-Serif" font-size="10.00">+</text>
<text text-anchor="start" x="31.5" y="-625.5" font-family="Helvetica,sans-Serif" font-size="10.00">kfStateMutex</text>
<text text-anchor="start" x="18.5" y="-610.5" font-family="Helvetica,sans-Serif" font-size="10.00">+</text>
<text text-anchor="start" x="31.5" y="-610.5" font-family="Helvetica,sans-Serif" font-size="10.00">oneKey</text>
<text text-anchor="start" x="18.5" y="-595.5" font-family="Helvetica,sans-Serif" font-size="10.00">+</text>
<text text-anchor="start" x="31.5" y="-595.5" font-family="Helvetica,sans-Serif" font-size="10.00">KFState()</text>
<text text-anchor="start" x="18.5" y="-580.5" font-family="Helvetica,sans-Serif" font-size="10.00">+</text>
<text text-anchor="start" x="31.5" y="-580.5" font-family="Helvetica,sans-Serif" font-size="10.00">KFState()</text>
<text text-anchor="start" x="18.5" y="-565.5" font-family="Helvetica,sans-Serif" font-size="10.00">+</text>
<text text-anchor="start" x="31.5" y="-565.5" font-family="Helvetica,sans-Serif" font-size="10.00">operator=()</text>
<text text-anchor="start" x="18.5" y="-550.5" font-family="Helvetica,sans-Serif" font-size="10.00">+</text>
<text text-anchor="start" x="31.5" y="-550.5" font-family="Helvetica,sans-Serif" font-size="10.00">serialize()</text>
<text text-anchor="start" x="18.5" y="-535.5" font-family="Helvetica,sans-Serif" font-size="10.00">+</text>
<text text-anchor="start" x="31.5" y="-535.5" font-family="Helvetica,sans-Serif" font-size="10.00">initFilterEpoch()</text>
<text text-anchor="start" x="18.5" y="-520.5" font-family="Helvetica,sans-Serif" font-size="10.00">+</text>
<text text-anchor="start" x="31.5" y="-520.5" font-family="Helvetica,sans-Serif" font-size="10.00">getKFIndex()</text>
<text text-anchor="start" x="18.5" y="-505.5" font-family="Helvetica,sans-Serif" font-size="10.00">+</text>
<text text-anchor="start" x="31.5" y="-505.5" font-family="Helvetica,sans-Serif" font-size="10.00">getKFValue()</text>
<text text-anchor="start" x="18.5" y="-490.5" font-family="Helvetica,sans-Serif" font-size="10.00">+</text>
<text text-anchor="start" x="31.5" y="-490.5" font-family="Helvetica,sans-Serif" font-size="10.00">getKFSigma()</text>
<text text-anchor="start" x="18.5" y="-475.5" font-family="Helvetica,sans-Serif" font-size="10.00">+</text>
<text text-anchor="start" x="31.5" y="-475.5" font-family="Helvetica,sans-Serif" font-size="10.00">addKFState()</text>
<text text-anchor="start" x="18.5" y="-460.5" font-family="Helvetica,sans-Serif" font-size="10.00">+</text>
<text text-anchor="start" x="31.5" y="-460.5" font-family="Helvetica,sans-Serif" font-size="10.00">setExponentialNoise()</text>
<text text-anchor="start" x="18.5" y="-445.5" font-family="Helvetica,sans-Serif" font-size="10.00">+</text>
<text text-anchor="start" x="31.5" y="-445.5" font-family="Helvetica,sans-Serif" font-size="10.00">setAccelerator()</text>
<text text-anchor="start" x="18.5" y="-430.5" font-family="Helvetica,sans-Serif" font-size="10.00">+</text>
<text text-anchor="start" x="31.5" y="-430.5" font-family="Helvetica,sans-Serif" font-size="10.00">setKFTrans()</text>
<text text-anchor="start" x="18.5" y="-415.5" font-family="Helvetica,sans-Serif" font-size="10.00">+</text>
<text text-anchor="start" x="31.5" y="-415.5" font-family="Helvetica,sans-Serif" font-size="10.00">setKFTransRate()</text>
<text text-anchor="start" x="18.5" y="-400.5" font-family="Helvetica,sans-Serif" font-size="10.00">+</text>
<text text-anchor="start" x="31.5" y="-400.5" font-family="Helvetica,sans-Serif" font-size="10.00">addNoiseElement()</text>
<text text-anchor="start" x="18.5" y="-385.5" font-family="Helvetica,sans-Serif" font-size="10.00">+</text>
<text text-anchor="start" x="31.5" y="-385.5" font-family="Helvetica,sans-Serif" font-size="10.00">removeState()</text>
<text text-anchor="start" x="18.5" y="-370.5" font-family="Helvetica,sans-Serif" font-size="10.00">+</text>
<text text-anchor="start" x="31.5" y="-370.5" font-family="Helvetica,sans-Serif" font-size="10.00">stateTransition()</text>
<text text-anchor="start" x="18.5" y="-355.5" font-family="Helvetica,sans-Serif" font-size="10.00">+</text>
<text text-anchor="start" x="31.5" y="-355.5" font-family="Helvetica,sans-Serif" font-size="10.00">manualStateTransition()</text>
<text text-anchor="start" x="18.5" y="-340.5" font-family="Helvetica,sans-Serif" font-size="10.00">+</text>
<text text-anchor="start" x="31.5" y="-340.5" font-family="Helvetica,sans-Serif" font-size="10.00">preFitSigmaCheck()</text>
<text text-anchor="start" x="18.5" y="-325.5" font-family="Helvetica,sans-Serif" font-size="10.00">+</text>
<text text-anchor="start" x="31.5" y="-325.5" font-family="Helvetica,sans-Serif" font-size="10.00">postFitSigmaChecks()</text>
<text text-anchor="start" x="18.5" y="-310.5" font-family="Helvetica,sans-Serif" font-size="10.00">+</text>
<text text-anchor="start" x="31.5" y="-310.5" font-family="Helvetica,sans-Serif" font-size="10.00">stateChiSquare()</text>
<text text-anchor="start" x="18.5" y="-295.5" font-family="Helvetica,sans-Serif" font-size="10.00">+</text>
<text text-anchor="start" x="31.5" y="-295.5" font-family="Helvetica,sans-Serif" font-size="10.00">measChiSquare()</text>
<text text-anchor="start" x="18.5" y="-280.5" font-family="Helvetica,sans-Serif" font-size="10.00">+</text>
<text text-anchor="start" x="31.5" y="-280.5" font-family="Helvetica,sans-Serif" font-size="10.00">innovChiSquare()</text>
<text text-anchor="start" x="18.5" y="-265.5" font-family="Helvetica,sans-Serif" font-size="10.00">+</text>
<text text-anchor="start" x="31.5" y="-265.5" font-family="Helvetica,sans-Serif" font-size="10.00">kFilter()</text>
<text text-anchor="start" x="18.5" y="-250.5" font-family="Helvetica,sans-Serif" font-size="10.00">+</text>
<text text-anchor="start" x="31.5" y="-250.5" font-family="Helvetica,sans-Serif" font-size="10.00">chiQC()</text>
<text text-anchor="start" x="18.5" y="-235.5" font-family="Helvetica,sans-Serif" font-size="10.00">+</text>
<text text-anchor="start" x="31.5" y="-235.5" font-family="Helvetica,sans-Serif" font-size="10.00">outputStates()</text>
<text text-anchor="start" x="18.5" y="-220.5" font-family="Helvetica,sans-Serif" font-size="10.00">+</text>
<text text-anchor="start" x="31.5" y="-220.5" font-family="Helvetica,sans-Serif" font-size="10.00">outputConditionNumber()</text>
<text text-anchor="start" x="18.5" y="-205.5" font-family="Helvetica,sans-Serif" font-size="10.00">+</text>
<text text-anchor="start" x="31.5" y="-205.5" font-family="Helvetica,sans-Serif" font-size="10.00">outputCorrelations()</text>
<text text-anchor="start" x="18.5" y="-190.5" font-family="Helvetica,sans-Serif" font-size="10.00">+</text>
<text text-anchor="start" x="31.5" y="-190.5" font-family="Helvetica,sans-Serif" font-size="10.00">outputMeasurements()</text>
<text text-anchor="start" x="18.5" y="-175.5" font-family="Helvetica,sans-Serif" font-size="10.00">+</text>
<text text-anchor="start" x="31.5" y="-175.5" font-family="Helvetica,sans-Serif" font-size="10.00">doStateRejectCallbacks()</text>
<text text-anchor="start" x="18.5" y="-160.5" font-family="Helvetica,sans-Serif" font-size="10.00">+</text>
<text text-anchor="start" x="31.5" y="-160.5" font-family="Helvetica,sans-Serif" font-size="10.00">doMeasRejectCallbacks()</text>
<text text-anchor="start" x="18.5" y="-145.5" font-family="Helvetica,sans-Serif" font-size="10.00">+</text>
<text text-anchor="start" x="31.5" y="-145.5" font-family="Helvetica,sans-Serif" font-size="10.00">filterKalman()</text>
<text text-anchor="start" x="18.5" y="-130.5" font-family="Helvetica,sans-Serif" font-size="10.00">+</text>
<text text-anchor="start" x="31.5" y="-130.5" font-family="Helvetica,sans-Serif" font-size="10.00">leastSquareInitStates()</text>
<text text-anchor="start" x="18.5" y="-115.5" font-family="Helvetica,sans-Serif" font-size="10.00">+</text>
<text text-anchor="start" x="31.5" y="-115.5" font-family="Helvetica,sans-Serif" font-size="10.00">getSubState()</text>
<text text-anchor="start" x="18.5" y="-100.5" font-family="Helvetica,sans-Serif" font-size="10.00">+</text>
<text text-anchor="start" x="31.5" y="-100.5" font-family="Helvetica,sans-Serif" font-size="10.00">getSubState()</text>
<text text-anchor="start" x="18.5" y="-85.5" font-family="Helvetica,sans-Serif" font-size="10.00">+</text>
<text text-anchor="start" x="31.5" y="-85.5" font-family="Helvetica,sans-Serif" font-size="10.00">getSubState()</text>
<text text-anchor="start" x="18.5" y="-70.5" font-family="Helvetica,sans-Serif" font-size="10.00">+</text>
<text text-anchor="start" x="31.5" y="-70.5" font-family="Helvetica,sans-Serif" font-size="10.00">removeState()</text>
<text text-anchor="start" x="18.5" y="-55.5" font-family="Helvetica,sans-Serif" font-size="10.00">+</text>
<text text-anchor="start" x="31.5" y="-55.5" font-family="Helvetica,sans-Serif" font-size="10.00">setExponentialNoise()</text>
<text text-anchor="start" x="18.5" y="-40.5" font-family="Helvetica,sans-Serif" font-size="10.00">+</text>
<text text-anchor="start" x="31.5" y="-40.5" font-family="Helvetica,sans-Serif" font-size="10.00">addKFState()</text>
<text text-anchor="start" x="18.5" y="-25.5" font-family="Helvetica,sans-Serif" font-size="10.00">+</text>
<text text-anchor="start" x="31.5" y="-25.5" font-family="Helvetica,sans-Serif" font-size="10.00">setKFTrans()</text>
<text text-anchor="start" x="18.5" y="-10.5" font-family="Helvetica,sans-Serif" font-size="10.00">+</text>
<text text-anchor="start" x="31.5" y="-10.5" font-family="Helvetica,sans-Serif" font-size="10.00">setKFTransRate()</text>
<polygon fill="#666666" stroke="#666666" points="14.5,-635.5 14.5,-635.5 160.5,-635.5 160.5,-635.5 14.5,-635.5"/>
<polygon fill="#666666" stroke="#666666" points="14.5,-605.5 14.5,-605.5 29.5,-605.5 29.5,-605.5 14.5,-605.5"/>
<polygon fill="#666666" stroke="#666666" points="29.5,-605.5 29.5,-605.5 160.5,-605.5 160.5,-605.5 29.5,-605.5"/>
<polygon fill="none" stroke="#666666" points="14.5,-4 14.5,-653 160.5,-653 160.5,-4 14.5,-4"/>
</a>
</g>
</g>
<!-- Node2 -->
<g id="Node000002" class="node">
<title>Node2</title>
<g id="a_Node000002"><a xlink:href="structKFState__.html" target="_top" xlink:title="Kalman filter object.">
<path fill="white" stroke="#666666" d="M163,-1125C163,-1125 12,-1125 12,-1125 6,-1125 0,-1119 0,-1113 0,-1113 0,-705 0,-705 0,-699 6,-693 12,-693 12,-693 163,-693 163,-693 169,-693 175,-699 175,-705 175,-705 175,-1113 175,-1113 175,-1119 169,-1125 163,-1125"/>
<text text-anchor="start" x="66.5" y="-1109" font-family="Helvetica,sans-Serif" font-size="10.00">KFState_</text>
<text text-anchor="start" x="12.5" y="-1094" font-family="Helvetica,sans-Serif" font-size="10.00">+</text>
<text text-anchor="start" x="25.5" y="-1094" font-family="Helvetica,sans-Serif" font-size="10.00">lsqRequired</text>
<text text-anchor="start" x="12.5" y="-1079" font-family="Helvetica,sans-Serif" font-size="10.00">+</text>
<text text-anchor="start" x="25.5" y="-1079" font-family="Helvetica,sans-Serif" font-size="10.00">time</text>
<text text-anchor="start" x="12.5" y="-1064" font-family="Helvetica,sans-Serif" font-size="10.00">+</text>
<text text-anchor="start" x="25.5" y="-1064" font-family="Helvetica,sans-Serif" font-size="10.00">x</text>
<text text-anchor="start" x="12.5" y="-1049" font-family="Helvetica,sans-Serif" font-size="10.00">+</text>
<text text-anchor="start" x="25.5" y="-1049" font-family="Helvetica,sans-Serif" font-size="10.00">P</text>
<text text-anchor="start" x="12.5" y="-1034" font-family="Helvetica,sans-Serif" font-size="10.00">+</text>
<text text-anchor="start" x="25.5" y="-1034" font-family="Helvetica,sans-Serif" font-size="10.00">dx</text>
<text text-anchor="start" x="12.5" y="-1019" font-family="Helvetica,sans-Serif" font-size="10.00">+</text>
<text text-anchor="start" x="25.5" y="-1019" font-family="Helvetica,sans-Serif" font-size="10.00">kfIndexMap</text>
<text text-anchor="start" x="12.5" y="-1004" font-family="Helvetica,sans-Serif" font-size="10.00">+</text>
<text text-anchor="start" x="25.5" y="-1004" font-family="Helvetica,sans-Serif" font-size="10.00">stateTransitionMap</text>
<text text-anchor="start" x="12.5" y="-989" font-family="Helvetica,sans-Serif" font-size="10.00">+</text>
<text text-anchor="start" x="25.5" y="-989" font-family="Helvetica,sans-Serif" font-size="10.00">gaussMarkovTauMap</text>
<text text-anchor="start" x="12.5" y="-974" font-family="Helvetica,sans-Serif" font-size="10.00">+</text>
<text text-anchor="start" x="25.5" y="-974" font-family="Helvetica,sans-Serif" font-size="10.00">gaussMarkovMuMap</text>
<text text-anchor="start" x="12.5" y="-959" font-family="Helvetica,sans-Serif" font-size="10.00">+</text>
<text text-anchor="start" x="25.5" y="-959" font-family="Helvetica,sans-Serif" font-size="10.00">procNoiseMap</text>
<text text-anchor="start" x="12.5" y="-944" font-family="Helvetica,sans-Serif" font-size="10.00">+</text>
<text text-anchor="start" x="25.5" y="-944" font-family="Helvetica,sans-Serif" font-size="10.00">initNoiseMap</text>
<text text-anchor="start" x="12.5" y="-929" font-family="Helvetica,sans-Serif" font-size="10.00">+</text>
<text text-anchor="start" x="25.5" y="-929" font-family="Helvetica,sans-Serif" font-size="10.00">exponentialNoiseMap</text>
<text text-anchor="start" x="12.5" y="-914" font-family="Helvetica,sans-Serif" font-size="10.00">+</text>
<text text-anchor="start" x="25.5" y="-914" font-family="Helvetica,sans-Serif" font-size="10.00">stateRejectCallbacks</text>
<text text-anchor="start" x="12.5" y="-899" font-family="Helvetica,sans-Serif" font-size="10.00">+</text>
<text text-anchor="start" x="25.5" y="-899" font-family="Helvetica,sans-Serif" font-size="10.00">measRejectCallbacks</text>
<text text-anchor="start" x="12.5" y="-884" font-family="Helvetica,sans-Serif" font-size="10.00">+</text>
<text text-anchor="start" x="25.5" y="-884" font-family="Helvetica,sans-Serif" font-size="10.00">filterChunkMap</text>
<text text-anchor="start" x="12.5" y="-869" font-family="Helvetica,sans-Serif" font-size="10.00">+</text>
<text text-anchor="start" x="25.5" y="-869" font-family="Helvetica,sans-Serif" font-size="10.00">metaDataMap</text>
<text text-anchor="start" x="12.5" y="-854" font-family="Helvetica,sans-Serif" font-size="10.00">+</text>
<text text-anchor="start" x="25.5" y="-854" font-family="Helvetica,sans-Serif" font-size="10.00">chiQCPass</text>
<text text-anchor="start" x="12.5" y="-839" font-family="Helvetica,sans-Serif" font-size="10.00">+</text>
<text text-anchor="start" x="25.5" y="-839" font-family="Helvetica,sans-Serif" font-size="10.00">chi</text>
<text text-anchor="start" x="12.5" y="-824" font-family="Helvetica,sans-Serif" font-size="10.00">+</text>
<text text-anchor="start" x="25.5" y="-824" font-family="Helvetica,sans-Serif" font-size="10.00">dof</text>
<text text-anchor="start" x="12.5" y="-809" font-family="Helvetica,sans-Serif" font-size="10.00">+</text>
<text text-anchor="start" x="25.5" y="-809" font-family="Helvetica,sans-Serif" font-size="10.00">id</text>
<text text-anchor="start" x="12.5" y="-794" font-family="Helvetica,sans-Serif" font-size="10.00">+</text>
<text text-anchor="start" x="25.5" y="-794" font-family="Helvetica,sans-Serif" font-size="10.00">rts_basename</text>
<text text-anchor="start" x="12.5" y="-779" font-family="Helvetica,sans-Serif" font-size="10.00">+</text>
<text text-anchor="start" x="25.5" y="-779" font-family="Helvetica,sans-Serif" font-size="10.00">output_residuals</text>
<text text-anchor="start" x="12.5" y="-764" font-family="Helvetica,sans-Serif" font-size="10.00">+</text>
<text text-anchor="start" x="25.5" y="-764" font-family="Helvetica,sans-Serif" font-size="10.00">outputMongoMeasurements</text>
<text text-anchor="start" x="12.5" y="-749" font-family="Helvetica,sans-Serif" font-size="10.00">+</text>
<text text-anchor="start" x="25.5" y="-749" font-family="Helvetica,sans-Serif" font-size="10.00">alternate_ptr</text>
<text text-anchor="start" x="12.5" y="-734" font-family="Helvetica,sans-Serif" font-size="10.00">+</text>
<text text-anchor="start" x="25.5" y="-734" font-family="Helvetica,sans-Serif" font-size="10.00">statisticsMap</text>
<text text-anchor="start" x="12.5" y="-719" font-family="Helvetica,sans-Serif" font-size="10.00">+</text>
<text text-anchor="start" x="25.5" y="-719" font-family="Helvetica,sans-Serif" font-size="10.00">statisticsMapSum</text>
<text text-anchor="start" x="86" y="-704" font-family="Helvetica,sans-Serif" font-size="10.00"> </text>
<polygon fill="#666666" stroke="#666666" points="8.5,-1104 8.5,-1104 167.5,-1104 167.5,-1104 8.5,-1104"/>
<polygon fill="#666666" stroke="#666666" points="8.5,-714 8.5,-714 23.5,-714 23.5,-714 8.5,-714"/>
<polygon fill="#666666" stroke="#666666" points="23.5,-714 23.5,-714 167.5,-714 167.5,-714 23.5,-714"/>
<polygon fill="none" stroke="#666666" points="8,-697 8,-1121 167,-1121 167,-697 8,-697"/>
</a>
</g>
</g>
<!-- Node2&#45;&gt;Node1 -->
<g id="edge1_Node000001_Node000002" class="edge">
<title>Node2&#45;&gt;Node1</title>
<g id="a_edge1_Node000001_Node000002"><a xlink:title=" ">
<path fill="none" stroke="#63b8ff" d="M87.5,-682.78C87.5,-674.38 87.5,-665.89 87.5,-657.37"/>
<polygon fill="none" stroke="#63b8ff" points="84,-683 87.5,-693 91,-683 84,-683"/>
</a>
</g>
</g>
<!-- Node3 -->
<g id="Node000003" class="node">
<title>Node3</title>
<g id="a_Node000003"><a xlink:href="structFilterOptions.html" target="_top" xlink:title=" ">
<path fill="#fff0f0" stroke="red" d="M143,-1323C143,-1323 32,-1323 32,-1323 26,-1323 20,-1317 20,-1311 20,-1311 20,-1173 20,-1173 20,-1167 26,-1161 32,-1161 32,-1161 143,-1161 143,-1161 149,-1161 155,-1167 155,-1173 155,-1173 155,-1311 155,-1311 155,-1317 149,-1323 143,-1323"/>
<text text-anchor="start" x="56.5" y="-1307" font-family="Helvetica,sans-Serif" font-size="10.00">FilterOptions</text>
<text text-anchor="start" x="32.5" y="-1292" font-family="Helvetica,sans-Serif" font-size="10.00">+</text>
<text text-anchor="start" x="45.5" y="-1292" font-family="Helvetica,sans-Serif" font-size="10.00">simulate_filter_only</text>
<text text-anchor="start" x="32.5" y="-1277" font-family="Helvetica,sans-Serif" font-size="10.00">+</text>
<text text-anchor="start" x="45.5" y="-1277" font-family="Helvetica,sans-Serif" font-size="10.00">assume_linearity</text>
<text text-anchor="start" x="32.5" y="-1262" font-family="Helvetica,sans-Serif" font-size="10.00">+</text>
<text text-anchor="start" x="45.5" y="-1262" font-family="Helvetica,sans-Serif" font-size="10.00">advanced_postfits</text>
<text text-anchor="start" x="32.5" y="-1247" font-family="Helvetica,sans-Serif" font-size="10.00">+</text>
<text text-anchor="start" x="45.5" y="-1247" font-family="Helvetica,sans-Serif" font-size="10.00">joseph_stabilisation</text>
<text text-anchor="start" x="32.5" y="-1232" font-family="Helvetica,sans-Serif" font-size="10.00">+</text>
<text text-anchor="start" x="45.5" y="-1232" font-family="Helvetica,sans-Serif" font-size="10.00">inverter</text>
<text text-anchor="start" x="32.5" y="-1217" font-family="Helvetica,sans-Serif" font-size="10.00">+</text>
<text text-anchor="start" x="45.5" y="-1217" font-family="Helvetica,sans-Serif" font-size="10.00">prefitOpts</text>
<text text-anchor="start" x="32.5" y="-1202" font-family="Helvetica,sans-Serif" font-size="10.00">+</text>
<text text-anchor="start" x="45.5" y="-1202" font-family="Helvetica,sans-Serif" font-size="10.00">postfitOpts</text>
<text text-anchor="start" x="32.5" y="-1187" font-family="Helvetica,sans-Serif" font-size="10.00">+</text>
<text text-anchor="start" x="45.5" y="-1187" font-family="Helvetica,sans-Serif" font-size="10.00">chiSquareTest</text>
<text text-anchor="start" x="86" y="-1172" font-family="Helvetica,sans-Serif" font-size="10.00"> </text>
<polygon fill="red" stroke="red" points="28.5,-1302 28.5,-1302 147.5,-1302 147.5,-1302 28.5,-1302"/>
<polygon fill="red" stroke="red" points="28.5,-1182 28.5,-1182 43.5,-1182 43.5,-1182 28.5,-1182"/>
<polygon fill="red" stroke="red" points="43.5,-1182 43.5,-1182 147.5,-1182 147.5,-1182 43.5,-1182"/>
<polygon fill="none" stroke="red" points="28,-1165 28,-1319 147,-1319 147,-1165 28,-1165"/>
</a>
</g>
</g>
<!-- Node3&#45;&gt;Node2 -->
<g id="edge2_Node000002_Node000003" class="edge">
<title>Node3&#45;&gt;Node2</title>
<g id="a_edge2_Node000002_Node000003"><a xlink:title=" ">
<path fill="none" stroke="#63b8ff" d="M87.5,-1150.64C87.5,-1142.41 87.5,-1133.88 87.5,-1125.14"/>
<polygon fill="none" stroke="#63b8ff" points="84,-1150.87 87.5,-1160.87 91,-1150.87 84,-1150.87"/>
</a>
</g>
</g>
</g>
</svg>
