<?xml version="1.0" encoding="UTF-8" standalone="no"?>
<!DOCTYPE svg PUBLIC "-//W3C//DTD SVG 1.1//EN"
 "http://www.w3.org/Graphics/SVG/1.1/DTD/svg11.dtd">
<!-- Generated by graphviz version 2.43.0 (0)
 -->
<!-- Title: Typer&lt; ITERATOR, TYPE, KEYTYPE, INTYPE &gt; Pages: 1 -->
<svg width="153pt" height="136pt"
 viewBox="0.00 0.00 153.00 136.00" xmlns="http://www.w3.org/2000/svg" xmlns:xlink="http://www.w3.org/1999/xlink">
<g id="graph0" class="graph" transform="scale(1 1) rotate(0) translate(4 132)">
<title>Typer&lt; ITERATOR, TYPE, KEYTYPE, INTYPE &gt;</title>
<!-- Node1 -->
<g id="Node000001" class="node">
<title>Node1</title>
<g id="a_Node000001"><a xlink:href="structTyper.html" target="_top" xlink:title="An object just for templating the other functions without over&#45;verbosity.">
<path fill="white" stroke="#666666" stroke-width="2" d="M133,-128C133,-128 12,-128 12,-128 6,-128 0,-122 0,-116 0,-116 0,-12 0,-12 0,-6 6,0 12,0 12,0 133,0 133,0 139,0 145,-6 145,-12 145,-12 145,-116 145,-116 145,-122 139,-128 133,-128"/>
<text text-anchor="start" x="13.5" y="-112" font-family="Helvetica,sans-Serif" font-size="10.00">Typer&lt; ITERATOR, TYPE,</text>
<text text-anchor="start" x="24" y="-101" font-family="Helvetica,sans-Serif" font-size="10.00"> KEYTYPE, INTYPE &gt;</text>
<text text-anchor="start" x="21.5" y="-86" font-family="Helvetica,sans-Serif" font-size="10.00">+</text>
<text text-anchor="start" x="43.5" y="-86" font-family="Helvetica,sans-Serif" font-size="10.00">baseContainer</text>
<text text-anchor="start" x="21.5" y="-71" font-family="Helvetica,sans-Serif" font-size="10.00">+</text>
<text text-anchor="start" x="43.5" y="-71" font-family="Helvetica,sans-Serif" font-size="10.00">Typer()</text>
<text text-anchor="start" x="21.5" y="-56" font-family="Helvetica,sans-Serif" font-size="10.00">+</text>
<text text-anchor="start" x="43.5" y="-56" font-family="Helvetica,sans-Serif" font-size="10.00">begin()</text>
<text text-anchor="start" x="21.5" y="-41" font-family="Helvetica,sans-Serif" font-size="10.00">+</text>
<text text-anchor="start" x="43.5" y="-41" font-family="Helvetica,sans-Serif" font-size="10.00">begin()</text>
<text text-anchor="start" x="21.5" y="-26" font-family="Helvetica,sans-Serif" font-size="10.00">+</text>
<text text-anchor="start" x="43.5" y="-26" font-family="Helvetica,sans-Serif" font-size="10.00">end()</text>
<text text-anchor="start" x="21.5" y="-11" font-family="Helvetica,sans-Serif" font-size="10.00">+</text>
<text text-anchor="start" x="43.5" y="-11" font-family="Helvetica,sans-Serif" font-size="10.00">end()</text>
<polygon fill="#666666" stroke="#666666" points="8.5,-96 8.5,-96 137.5,-96 137.5,-96 8.5,-96"/>
<polygon fill="#666666" stroke="#666666" points="8.5,-81 8.5,-81 41.5,-81 41.5,-81 8.5,-81"/>
<polygon fill="#666666" stroke="#666666" points="41.5,-81 41.5,-81 137.5,-81 137.5,-81 41.5,-81"/>
<polygon fill="none" stroke="#666666" points="8,-4 8,-124 137,-124 137,-4 8,-4"/>
</a>
</g>
</g>
</g>
</svg>
