<?xml version="1.0" encoding="UTF-8" standalone="no"?>
<!DOCTYPE svg PUBLIC "-//W3C//DTD SVG 1.1//EN"
 "http://www.w3.org/Graphics/SVG/1.1/DTD/svg11.dtd">
<!-- Generated by graphviz version 2.43.0 (0)
 -->
<!-- Title: UbxParser Pages: 1 -->
<svg width="967pt" height="1173pt"
 viewBox="0.00 0.00 967.00 1173.00" xmlns="http://www.w3.org/2000/svg" xmlns:xlink="http://www.w3.org/1999/xlink">
<g id="graph0" class="graph" transform="scale(1 1) rotate(0) translate(4 1169)">
<title>UbxParser</title>
<!-- Node1 -->
<g id="Node000001" class="node">
<title>Node1</title>
<g id="a_Node000001"><a xlink:href="structUbxParser.html" target="_top" xlink:title=" ">
<path fill="white" stroke="#666666" stroke-width="2" d="M470,-72C470,-72 396,-72 396,-72 390,-72 384,-66 384,-60 384,-60 384,-12 384,-12 384,-6 390,0 396,0 396,0 470,0 470,0 476,0 482,-6 482,-12 482,-12 482,-60 482,-60 482,-66 476,-72 470,-72"/>
<text text-anchor="start" x="408" y="-56" font-family="Helvetica,sans-Serif" font-size="10.00">UbxParser</text>
<text text-anchor="start" x="431" y="-41" font-family="Helvetica,sans-Serif" font-size="10.00"> </text>
<text text-anchor="start" x="396" y="-26" font-family="Helvetica,sans-Serif" font-size="10.00">+</text>
<text text-anchor="start" x="409" y="-26" font-family="Helvetica,sans-Serif" font-size="10.00">parse()</text>
<text text-anchor="start" x="396" y="-11" font-family="Helvetica,sans-Serif" font-size="10.00">+</text>
<text text-anchor="start" x="409" y="-11" font-family="Helvetica,sans-Serif" font-size="10.00">parserType()</text>
<polygon fill="#666666" stroke="#666666" points="392,-51 392,-51 474,-51 474,-51 392,-51"/>
<polygon fill="#666666" stroke="#666666" points="392,-36 392,-36 474,-36 474,-36 392,-36"/>
<polygon fill="none" stroke="#666666" points="392,-4 392,-68 474,-68 474,-4 392,-4"/>
</a>
</g>
</g>
<!-- Node2 -->
<g id="Node000002" class="node">
<title>Node2</title>
<g id="a_Node000002"><a xlink:href="structParser.html" target="_top" xlink:title=" ">
<path fill="white" stroke="#666666" d="M336,-263.5C336,-263.5 262,-263.5 262,-263.5 256,-263.5 250,-257.5 250,-251.5 250,-251.5 250,-188.5 250,-188.5 250,-182.5 256,-176.5 262,-176.5 262,-176.5 336,-176.5 336,-176.5 342,-176.5 348,-182.5 348,-188.5 348,-188.5 348,-251.5 348,-251.5 348,-257.5 342,-263.5 336,-263.5"/>
<text text-anchor="start" x="283.5" y="-247" font-family="Helvetica,sans-Serif" font-size="10.00">Parser</text>
<text text-anchor="start" x="297" y="-232" font-family="Helvetica,sans-Serif" font-size="10.00"> </text>
<text text-anchor="start" x="262" y="-217" font-family="Helvetica,sans-Serif" font-size="10.00">+</text>
<text text-anchor="start" x="275" y="-217" font-family="Helvetica,sans-Serif" font-size="10.00">parse()</text>
<text text-anchor="start" x="262" y="-202" font-family="Helvetica,sans-Serif" font-size="10.00">+</text>
<text text-anchor="start" x="275" y="-202" font-family="Helvetica,sans-Serif" font-size="10.00">parserType()</text>
<text text-anchor="start" x="262" y="-187" font-family="Helvetica,sans-Serif" font-size="10.00">+</text>
<text text-anchor="start" x="275" y="-187" font-family="Helvetica,sans-Serif" font-size="10.00">~Parser()</text>
<polygon fill="#666666" stroke="#666666" points="258,-242 258,-242 340,-242 340,-242 258,-242"/>
<polygon fill="#666666" stroke="#666666" points="258,-227 258,-227 340,-227 340,-227 258,-227"/>
<polygon fill="none" stroke="#666666" points="258,-180.5 258,-259.5 340,-259.5 340,-180.5 258,-180.5"/>
</a>
</g>
</g>
<!-- Node2&#45;&gt;Node1 -->
<g id="edge1_Node000001_Node000002" class="edge">
<title>Node2&#45;&gt;Node1</title>
<g id="a_edge1_Node000001_Node000002"><a xlink:title=" ">
<path fill="none" stroke="#63b8ff" d="M321.95,-167.15C331.52,-148.04 343.55,-126.74 357,-109 366.88,-95.97 379.21,-83.2 391.04,-72.12"/>
<polygon fill="none" stroke="#63b8ff" points="318.71,-165.81 317.46,-176.33 325,-168.89 318.71,-165.81"/>
</a>
</g>
</g>
<!-- Node3 -->
<g id="Node000003" class="node">
<title>Node3</title>
<g id="a_Node000003"><a xlink:href="structUbxDecoder.html" target="_top" xlink:title=" ">
<path fill="white" stroke="#666666" d="M488,-301C488,-301 378,-301 378,-301 372,-301 366,-295 366,-289 366,-289 366,-151 366,-151 366,-145 372,-139 378,-139 378,-139 488,-139 488,-139 494,-139 500,-145 500,-151 500,-151 500,-289 500,-289 500,-295 494,-301 488,-301"/>
<text text-anchor="start" x="402.5" y="-285" font-family="Helvetica,sans-Serif" font-size="10.00">UbxDecoder</text>
<text text-anchor="start" x="378" y="-270" font-family="Helvetica,sans-Serif" font-size="10.00">+</text>
<text text-anchor="start" x="391" y="-270" font-family="Helvetica,sans-Serif" font-size="10.00">lastTimeTag</text>
<text text-anchor="start" x="378" y="-255" font-family="Helvetica,sans-Serif" font-size="10.00">+</text>
<text text-anchor="start" x="391" y="-255" font-family="Helvetica,sans-Serif" font-size="10.00">decodeEphFrames()</text>
<text text-anchor="start" x="378" y="-240" font-family="Helvetica,sans-Serif" font-size="10.00">+</text>
<text text-anchor="start" x="391" y="-240" font-family="Helvetica,sans-Serif" font-size="10.00">decodeRAWX()</text>
<text text-anchor="start" x="378" y="-225" font-family="Helvetica,sans-Serif" font-size="10.00">+</text>
<text text-anchor="start" x="391" y="-225" font-family="Helvetica,sans-Serif" font-size="10.00">decodeSFRBX()</text>
<text text-anchor="start" x="378" y="-210" font-family="Helvetica,sans-Serif" font-size="10.00">+</text>
<text text-anchor="start" x="391" y="-210" font-family="Helvetica,sans-Serif" font-size="10.00">decodeMEAS()</text>
<text text-anchor="start" x="378" y="-195" font-family="Helvetica,sans-Serif" font-size="10.00">+</text>
<text text-anchor="start" x="391" y="-195" font-family="Helvetica,sans-Serif" font-size="10.00">decodeRXM()</text>
<text text-anchor="start" x="378" y="-180" font-family="Helvetica,sans-Serif" font-size="10.00">+</text>
<text text-anchor="start" x="391" y="-180" font-family="Helvetica,sans-Serif" font-size="10.00">decodeESF()</text>
<text text-anchor="start" x="378" y="-165" font-family="Helvetica,sans-Serif" font-size="10.00">+</text>
<text text-anchor="start" x="391" y="-165" font-family="Helvetica,sans-Serif" font-size="10.00">decode()</text>
<text text-anchor="start" x="378" y="-150" font-family="Helvetica,sans-Serif" font-size="10.00">+</text>
<text text-anchor="start" x="391" y="-150" font-family="Helvetica,sans-Serif" font-size="10.00">recordFrame()</text>
<polygon fill="#666666" stroke="#666666" points="374,-280 374,-280 492,-280 492,-280 374,-280"/>
<polygon fill="#666666" stroke="#666666" points="374,-265 374,-265 389,-265 389,-265 374,-265"/>
<polygon fill="#666666" stroke="#666666" points="389,-265 389,-265 492,-265 492,-265 389,-265"/>
<polygon fill="none" stroke="#666666" points="374,-143 374,-297 492,-297 492,-143 374,-143"/>
</a>
</g>
</g>
<!-- Node3&#45;&gt;Node1 -->
<g id="edge2_Node000001_Node000003" class="edge">
<title>Node3&#45;&gt;Node1</title>
<g id="a_edge2_Node000001_Node000003"><a xlink:title=" ">
<path fill="none" stroke="#63b8ff" d="M433,-128.78C433,-108.74 433,-88.66 433,-72.41"/>
<polygon fill="none" stroke="#63b8ff" points="429.5,-128.91 433,-138.91 436.5,-128.91 429.5,-128.91"/>
</a>
</g>
</g>
<!-- Node4 -->
<g id="Node000004" class="node">
<title>Node4</title>
<g id="a_Node000004"><a xlink:href="structObsLister.html" target="_top" xlink:title=" ">
<path fill="#fff0f0" stroke="red" d="M60,-753.5C60,-753.5 12,-753.5 12,-753.5 6,-753.5 0,-747.5 0,-741.5 0,-741.5 0,-708.5 0,-708.5 0,-702.5 6,-696.5 12,-696.5 12,-696.5 60,-696.5 60,-696.5 66,-696.5 72,-702.5 72,-708.5 72,-708.5 72,-741.5 72,-741.5 72,-747.5 66,-753.5 60,-753.5"/>
<text text-anchor="start" x="13" y="-737" font-family="Helvetica,sans-Serif" font-size="10.00">ObsLister</text>
<text text-anchor="start" x="34" y="-722" font-family="Helvetica,sans-Serif" font-size="10.00"> </text>
<text text-anchor="start" x="34" y="-707" font-family="Helvetica,sans-Serif" font-size="10.00"> </text>
<polygon fill="red" stroke="red" points="8,-732 8,-732 64,-732 64,-732 8,-732"/>
<polygon fill="red" stroke="red" points="8,-717 8,-717 64,-717 64,-717 8,-717"/>
<polygon fill="none" stroke="red" points="8,-700.5 8,-749.5 64,-749.5 64,-700.5 8,-700.5"/>
</a>
</g>
</g>
<!-- Node4&#45;&gt;Node3 -->
<g id="edge3_Node000003_Node000004" class="edge">
<title>Node4&#45;&gt;Node3</title>
<g id="a_edge3_Node000003_Node000004"><a xlink:title=" ">
<path fill="none" stroke="#63b8ff" d="M28.53,-686.28C17.29,-617.51 4.74,-471.29 81,-389 139.06,-326.34 185.38,-366.45 269,-349 308.08,-340.85 323.69,-353.01 357,-331 369.01,-323.07 379.65,-312.52 388.9,-301.1"/>
<polygon fill="none" stroke="#63b8ff" points="25.1,-686.97 30.24,-696.24 32,-685.79 25.1,-686.97"/>
</a>
</g>
</g>
<!-- Node7 -->
<g id="Node000007" class="node">
<title>Node7</title>
<g id="a_Node000007"><a xlink:href="structIcdDecoder.html" target="_top" xlink:title=" ">
<path fill="#fff0f0" stroke="red" d="M231.5,-791C231.5,-791 102.5,-791 102.5,-791 96.5,-791 90.5,-785 90.5,-779 90.5,-779 90.5,-671 90.5,-671 90.5,-665 96.5,-659 102.5,-659 102.5,-659 231.5,-659 231.5,-659 237.5,-659 243.5,-665 243.5,-671 243.5,-671 243.5,-779 243.5,-779 243.5,-785 237.5,-791 231.5,-791"/>
<text text-anchor="start" x="140" y="-775" font-family="Helvetica,sans-Serif" font-size="10.00">IcdDecoder</text>
<text text-anchor="start" x="165.5" y="-760" font-family="Helvetica,sans-Serif" font-size="10.00"> </text>
<text text-anchor="start" x="103" y="-745" font-family="Helvetica,sans-Serif" font-size="10.00">+</text>
<text text-anchor="start" x="116" y="-745" font-family="Helvetica,sans-Serif" font-size="10.00">decodeGpsTlmWord()</text>
<text text-anchor="start" x="103" y="-730" font-family="Helvetica,sans-Serif" font-size="10.00">+</text>
<text text-anchor="start" x="116" y="-730" font-family="Helvetica,sans-Serif" font-size="10.00">decodeGpsHowWord()</text>
<text text-anchor="start" x="103" y="-715" font-family="Helvetica,sans-Serif" font-size="10.00">+</text>
<text text-anchor="start" x="116" y="-715" font-family="Helvetica,sans-Serif" font-size="10.00">decodeGPSSubframe1()</text>
<text text-anchor="start" x="103" y="-700" font-family="Helvetica,sans-Serif" font-size="10.00">+</text>
<text text-anchor="start" x="116" y="-700" font-family="Helvetica,sans-Serif" font-size="10.00">decodeGPSSubframe2()</text>
<text text-anchor="start" x="103" y="-685" font-family="Helvetica,sans-Serif" font-size="10.00">+</text>
<text text-anchor="start" x="116" y="-685" font-family="Helvetica,sans-Serif" font-size="10.00">decodeGPSSubframe3()</text>
<text text-anchor="start" x="103" y="-670" font-family="Helvetica,sans-Serif" font-size="10.00">+</text>
<text text-anchor="start" x="116" y="-670" font-family="Helvetica,sans-Serif" font-size="10.00">decodeGpsSubframe()</text>
<polygon fill="red" stroke="red" points="99,-770 99,-770 236,-770 236,-770 99,-770"/>
<polygon fill="red" stroke="red" points="99,-755 99,-755 236,-755 236,-755 99,-755"/>
<polygon fill="none" stroke="red" points="98.5,-663 98.5,-787 235.5,-787 235.5,-663 98.5,-663"/>
</a>
</g>
</g>
<!-- Node7&#45;&gt;Node3 -->
<g id="edge4_Node000003_Node000007" class="edge">
<title>Node7&#45;&gt;Node3</title>
<g id="a_edge4_Node000003_Node000007"><a xlink:title=" ">
<path fill="none" stroke="#63b8ff" d="M169.58,-648.76C175.65,-575.56 194.71,-464.63 253,-389 285.31,-347.08 317.83,-366.59 357,-331 366.71,-322.18 375.83,-311.9 384.16,-301.22"/>
<polygon fill="none" stroke="#63b8ff" points="166.08,-648.59 168.8,-658.83 173.06,-649.12 166.08,-648.59"/>
</a>
</g>
</g>
<!-- Node10 -->
<g id="Node000010" class="node">
<title>Node10</title>
<g id="a_Node000010"><a xlink:title=" ">
<path fill="#fff0f0" stroke="red" d="M412,-764.5C412,-764.5 274,-764.5 274,-764.5 268,-764.5 262,-758.5 262,-752.5 262,-752.5 262,-697.5 262,-697.5 262,-691.5 268,-685.5 274,-685.5 274,-685.5 412,-685.5 412,-685.5 418,-685.5 424,-691.5 424,-697.5 424,-697.5 424,-752.5 424,-752.5 424,-758.5 418,-764.5 412,-764.5"/>
<text text-anchor="start" x="275" y="-748" font-family="Helvetica,sans-Serif" font-size="10.00">map&lt; string, map&lt; GTime,</text>
<text text-anchor="start" x="275" y="-737" font-family="Helvetica,sans-Serif" font-size="10.00"> Vector3d, std::greater</text>
<text text-anchor="start" x="304" y="-726" font-family="Helvetica,sans-Serif" font-size="10.00">&lt; GTime &gt; &gt; &gt;</text>
<text text-anchor="start" x="341" y="-711" font-family="Helvetica,sans-Serif" font-size="10.00"> </text>
<text text-anchor="start" x="341" y="-696" font-family="Helvetica,sans-Serif" font-size="10.00"> </text>
<polygon fill="red" stroke="red" points="270,-721 270,-721 416,-721 416,-721 270,-721"/>
<polygon fill="red" stroke="red" points="270,-706 270,-706 416,-706 416,-706 270,-706"/>
<polygon fill="none" stroke="red" points="270,-689.5 270,-760.5 416,-760.5 416,-689.5 270,-689.5"/>
</a>
</g>
</g>
<!-- Node10&#45;&gt;Node3 -->
<g id="edge5_Node000003_Node000010" class="edge">
<title>Node10&#45;&gt;Node3</title>
<g id="a_edge5_Node000003_Node000010"><a xlink:title=" ">
<path fill="none" stroke="#63b8ff" d="M349.91,-685.37C364.05,-606.35 396.61,-424.36 416.52,-313.12"/>
<polygon fill="none" stroke="#63b8ff" points="416.53,-313.06 413.65,-306.45 418.64,-301.25 421.52,-307.86 416.53,-313.06"/>
</a>
</g>
<text text-anchor="middle" x="449.5" y="-363" font-family="Helvetica,sans-Serif" font-size="10.00" fill="grey"> +acclDataMaps</text>
<text text-anchor="middle" x="449.5" y="-352" font-family="Helvetica,sans-Serif" font-size="10.00" fill="grey">+gyroDataMaps</text>
</g>
<!-- Node11 -->
<g id="Node000011" class="node">
<title>Node11</title>
<g id="a_Node000011"><a xlink:title=" ">
<path fill="#fff0f0" stroke="red" d="M592,-764.5C592,-764.5 454,-764.5 454,-764.5 448,-764.5 442,-758.5 442,-752.5 442,-752.5 442,-697.5 442,-697.5 442,-691.5 448,-685.5 454,-685.5 454,-685.5 592,-685.5 592,-685.5 598,-685.5 604,-691.5 604,-697.5 604,-697.5 604,-752.5 604,-752.5 604,-758.5 598,-764.5 592,-764.5"/>
<text text-anchor="start" x="455" y="-748" font-family="Helvetica,sans-Serif" font-size="10.00">map&lt; string, map&lt; GTime,</text>
<text text-anchor="start" x="455" y="-737" font-family="Helvetica,sans-Serif" font-size="10.00"> double, std::greater</text>
<text text-anchor="start" x="484" y="-726" font-family="Helvetica,sans-Serif" font-size="10.00">&lt; GTime &gt; &gt; &gt;</text>
<text text-anchor="start" x="521" y="-711" font-family="Helvetica,sans-Serif" font-size="10.00"> </text>
<text text-anchor="start" x="521" y="-696" font-family="Helvetica,sans-Serif" font-size="10.00"> </text>
<polygon fill="red" stroke="red" points="450,-721 450,-721 596,-721 596,-721 450,-721"/>
<polygon fill="red" stroke="red" points="450,-706 450,-706 596,-706 596,-706 450,-706"/>
<polygon fill="none" stroke="red" points="450,-689.5 450,-760.5 596,-760.5 596,-689.5 450,-689.5"/>
</a>
</g>
</g>
<!-- Node11&#45;&gt;Node3 -->
<g id="edge6_Node000003_Node000011" class="edge">
<title>Node11&#45;&gt;Node3</title>
<g id="a_edge6_Node000003_Node000011"><a xlink:title=" ">
<path fill="none" stroke="#63b8ff" d="M524.61,-685.43C526.48,-616.59 525.93,-468.55 494,-349 490.78,-336.92 486.43,-324.6 481.54,-312.61"/>
<polygon fill="none" stroke="#63b8ff" points="481.39,-312.27 475.36,-308.32 476.69,-301.23 482.72,-305.19 481.39,-312.27"/>
</a>
</g>
<text text-anchor="middle" x="542.5" y="-357.5" font-family="Helvetica,sans-Serif" font-size="10.00" fill="grey"> +tempDataMaps</text>
</g>
<!-- Node12 -->
<g id="Node000012" class="node">
<title>Node12</title>
<g id="a_Node000012"><a xlink:href="structGTime.html" target="_top" xlink:title="Time structure used throughout this software.">
<path fill="white" stroke="#666666" d="M756,-1061C756,-1061 634,-1061 634,-1061 628,-1061 622,-1055 622,-1049 622,-1049 622,-401 622,-401 622,-395 628,-389 634,-389 634,-389 756,-389 756,-389 762,-389 768,-395 768,-401 768,-401 768,-1049 768,-1049 768,-1055 762,-1061 756,-1061"/>
<text text-anchor="start" x="678.5" y="-1045" font-family="Helvetica,sans-Serif" font-size="10.00">GTime</text>
<text text-anchor="start" x="634" y="-1030" font-family="Helvetica,sans-Serif" font-size="10.00">+</text>
<text text-anchor="start" x="647" y="-1030" font-family="Helvetica,sans-Serif" font-size="10.00">cacheN</text>
<text text-anchor="start" x="634" y="-1015" font-family="Helvetica,sans-Serif" font-size="10.00">+</text>
<text text-anchor="start" x="647" y="-1015" font-family="Helvetica,sans-Serif" font-size="10.00">cacheTime</text>
<text text-anchor="start" x="634" y="-1000" font-family="Helvetica,sans-Serif" font-size="10.00">+</text>
<text text-anchor="start" x="647" y="-1000" font-family="Helvetica,sans-Serif" font-size="10.00">bigTime</text>
<text text-anchor="start" x="634" y="-985" font-family="Helvetica,sans-Serif" font-size="10.00">+</text>
<text text-anchor="start" x="647" y="-985" font-family="Helvetica,sans-Serif" font-size="10.00">GTime()</text>
<text text-anchor="start" x="634" y="-970" font-family="Helvetica,sans-Serif" font-size="10.00">+</text>
<text text-anchor="start" x="647" y="-970" font-family="Helvetica,sans-Serif" font-size="10.00">GTime()</text>
<text text-anchor="start" x="634" y="-955" font-family="Helvetica,sans-Serif" font-size="10.00">+</text>
<text text-anchor="start" x="647" y="-955" font-family="Helvetica,sans-Serif" font-size="10.00">GTime()</text>
<text text-anchor="start" x="634" y="-940" font-family="Helvetica,sans-Serif" font-size="10.00">+</text>
<text text-anchor="start" x="647" y="-940" font-family="Helvetica,sans-Serif" font-size="10.00">to_string()</text>
<text text-anchor="start" x="634" y="-925" font-family="Helvetica,sans-Serif" font-size="10.00">+</text>
<text text-anchor="start" x="647" y="-925" font-family="Helvetica,sans-Serif" font-size="10.00">to_ISOstring()</text>
<text text-anchor="start" x="634" y="-910" font-family="Helvetica,sans-Serif" font-size="10.00">+</text>
<text text-anchor="start" x="647" y="-910" font-family="Helvetica,sans-Serif" font-size="10.00">to_decYear()</text>
<text text-anchor="start" x="634" y="-895" font-family="Helvetica,sans-Serif" font-size="10.00">+</text>
<text text-anchor="start" x="647" y="-895" font-family="Helvetica,sans-Serif" font-size="10.00">operator==()</text>
<text text-anchor="start" x="634" y="-880" font-family="Helvetica,sans-Serif" font-size="10.00">+</text>
<text text-anchor="start" x="647" y="-880" font-family="Helvetica,sans-Serif" font-size="10.00">operator!=()</text>
<text text-anchor="start" x="634" y="-865" font-family="Helvetica,sans-Serif" font-size="10.00">+</text>
<text text-anchor="start" x="647" y="-865" font-family="Helvetica,sans-Serif" font-size="10.00">operator&lt;()</text>
<text text-anchor="start" x="634" y="-850" font-family="Helvetica,sans-Serif" font-size="10.00">+</text>
<text text-anchor="start" x="647" y="-850" font-family="Helvetica,sans-Serif" font-size="10.00">operator&gt;()</text>
<text text-anchor="start" x="634" y="-835" font-family="Helvetica,sans-Serif" font-size="10.00">+</text>
<text text-anchor="start" x="647" y="-835" font-family="Helvetica,sans-Serif" font-size="10.00">operator&gt;=()</text>
<text text-anchor="start" x="634" y="-820" font-family="Helvetica,sans-Serif" font-size="10.00">+</text>
<text text-anchor="start" x="647" y="-820" font-family="Helvetica,sans-Serif" font-size="10.00">operator+()</text>
<text text-anchor="start" x="634" y="-805" font-family="Helvetica,sans-Serif" font-size="10.00">+</text>
<text text-anchor="start" x="647" y="-805" font-family="Helvetica,sans-Serif" font-size="10.00">operator+()</text>
<text text-anchor="start" x="634" y="-790" font-family="Helvetica,sans-Serif" font-size="10.00">+</text>
<text text-anchor="start" x="647" y="-790" font-family="Helvetica,sans-Serif" font-size="10.00">operator+()</text>
<text text-anchor="start" x="634" y="-775" font-family="Helvetica,sans-Serif" font-size="10.00">+</text>
<text text-anchor="start" x="647" y="-775" font-family="Helvetica,sans-Serif" font-size="10.00">operator+=()</text>
<text text-anchor="start" x="634" y="-760" font-family="Helvetica,sans-Serif" font-size="10.00">+</text>
<text text-anchor="start" x="647" y="-760" font-family="Helvetica,sans-Serif" font-size="10.00">operator&#45;=()</text>
<text text-anchor="start" x="634" y="-745" font-family="Helvetica,sans-Serif" font-size="10.00">+</text>
<text text-anchor="start" x="647" y="-745" font-family="Helvetica,sans-Serif" font-size="10.00">operator&#45;()</text>
<text text-anchor="start" x="634" y="-730" font-family="Helvetica,sans-Serif" font-size="10.00">+</text>
<text text-anchor="start" x="647" y="-730" font-family="Helvetica,sans-Serif" font-size="10.00">operator&#45;()</text>
<text text-anchor="start" x="634" y="-715" font-family="Helvetica,sans-Serif" font-size="10.00">+</text>
<text text-anchor="start" x="647" y="-715" font-family="Helvetica,sans-Serif" font-size="10.00">operator&#45;()</text>
<text text-anchor="start" x="634" y="-700" font-family="Helvetica,sans-Serif" font-size="10.00">+</text>
<text text-anchor="start" x="647" y="-700" font-family="Helvetica,sans-Serif" font-size="10.00">operator++()</text>
<text text-anchor="start" x="634" y="-685" font-family="Helvetica,sans-Serif" font-size="10.00">+</text>
<text text-anchor="start" x="647" y="-685" font-family="Helvetica,sans-Serif" font-size="10.00">GTime()</text>
<text text-anchor="start" x="634" y="-670" font-family="Helvetica,sans-Serif" font-size="10.00">+</text>
<text text-anchor="start" x="647" y="-670" font-family="Helvetica,sans-Serif" font-size="10.00">GTime()</text>
<text text-anchor="start" x="634" y="-655" font-family="Helvetica,sans-Serif" font-size="10.00">+</text>
<text text-anchor="start" x="647" y="-655" font-family="Helvetica,sans-Serif" font-size="10.00">GTime()</text>
<text text-anchor="start" x="634" y="-640" font-family="Helvetica,sans-Serif" font-size="10.00">+</text>
<text text-anchor="start" x="647" y="-640" font-family="Helvetica,sans-Serif" font-size="10.00">GTime()</text>
<text text-anchor="start" x="634" y="-625" font-family="Helvetica,sans-Serif" font-size="10.00">+</text>
<text text-anchor="start" x="647" y="-625" font-family="Helvetica,sans-Serif" font-size="10.00">GTime()</text>
<text text-anchor="start" x="634" y="-610" font-family="Helvetica,sans-Serif" font-size="10.00">+</text>
<text text-anchor="start" x="647" y="-610" font-family="Helvetica,sans-Serif" font-size="10.00">serialize()</text>
<text text-anchor="start" x="634" y="-595" font-family="Helvetica,sans-Serif" font-size="10.00">+</text>
<text text-anchor="start" x="647" y="-595" font-family="Helvetica,sans-Serif" font-size="10.00">floorTime()</text>
<text text-anchor="start" x="634" y="-580" font-family="Helvetica,sans-Serif" font-size="10.00">+</text>
<text text-anchor="start" x="647" y="-580" font-family="Helvetica,sans-Serif" font-size="10.00">gregString()</text>
<text text-anchor="start" x="634" y="-565" font-family="Helvetica,sans-Serif" font-size="10.00">+</text>
<text text-anchor="start" x="647" y="-565" font-family="Helvetica,sans-Serif" font-size="10.00">operator long double()</text>
<text text-anchor="start" x="634" y="-550" font-family="Helvetica,sans-Serif" font-size="10.00">+</text>
<text text-anchor="start" x="647" y="-550" font-family="Helvetica,sans-Serif" font-size="10.00">operator MjDateTT()</text>
<text text-anchor="start" x="634" y="-535" font-family="Helvetica,sans-Serif" font-size="10.00">+</text>
<text text-anchor="start" x="647" y="-535" font-family="Helvetica,sans-Serif" font-size="10.00">operator GEpoch()</text>
<text text-anchor="start" x="634" y="-520" font-family="Helvetica,sans-Serif" font-size="10.00">+</text>
<text text-anchor="start" x="647" y="-520" font-family="Helvetica,sans-Serif" font-size="10.00">operator UtcTime()</text>
<text text-anchor="start" x="634" y="-505" font-family="Helvetica,sans-Serif" font-size="10.00">+</text>
<text text-anchor="start" x="647" y="-505" font-family="Helvetica,sans-Serif" font-size="10.00">operator GWeek()</text>
<text text-anchor="start" x="634" y="-490" font-family="Helvetica,sans-Serif" font-size="10.00">+</text>
<text text-anchor="start" x="647" y="-490" font-family="Helvetica,sans-Serif" font-size="10.00">operator BWeek()</text>
<text text-anchor="start" x="634" y="-475" font-family="Helvetica,sans-Serif" font-size="10.00">+</text>
<text text-anchor="start" x="647" y="-475" font-family="Helvetica,sans-Serif" font-size="10.00">operator GTow()</text>
<text text-anchor="start" x="634" y="-460" font-family="Helvetica,sans-Serif" font-size="10.00">+</text>
<text text-anchor="start" x="647" y="-460" font-family="Helvetica,sans-Serif" font-size="10.00">operator BTow()</text>
<text text-anchor="start" x="634" y="-445" font-family="Helvetica,sans-Serif" font-size="10.00">+</text>
<text text-anchor="start" x="647" y="-445" font-family="Helvetica,sans-Serif" font-size="10.00">operator PTime()</text>
<text text-anchor="start" x="634" y="-430" font-family="Helvetica,sans-Serif" font-size="10.00">+</text>
<text text-anchor="start" x="647" y="-430" font-family="Helvetica,sans-Serif" font-size="10.00">operator string()</text>
<text text-anchor="start" x="634" y="-415" font-family="Helvetica,sans-Serif" font-size="10.00">+</text>
<text text-anchor="start" x="647" y="-415" font-family="Helvetica,sans-Serif" font-size="10.00">operator RTod()</text>
<text text-anchor="start" x="634" y="-400" font-family="Helvetica,sans-Serif" font-size="10.00">+</text>
<text text-anchor="start" x="647" y="-400" font-family="Helvetica,sans-Serif" font-size="10.00">noTime()</text>
<polygon fill="#666666" stroke="#666666" points="630,-1040 630,-1040 760,-1040 760,-1040 630,-1040"/>
<polygon fill="#666666" stroke="#666666" points="630,-995 630,-995 645,-995 645,-995 630,-995"/>
<polygon fill="#666666" stroke="#666666" points="645,-995 645,-995 760,-995 760,-995 645,-995"/>
<polygon fill="none" stroke="#666666" points="630,-393 630,-1057 760,-1057 760,-393 630,-393"/>
</a>
</g>
</g>
<!-- Node12&#45;&gt;Node3 -->
<g id="edge7_Node000003_Node000012" class="edge">
<title>Node12&#45;&gt;Node3</title>
<g id="a_edge7_Node000003_Node000012"><a xlink:title=" ">
<path fill="none" stroke="#63b8ff" d="M630.4,-388.94C618.9,-373.93 605.53,-360.41 590,-349 560.28,-327.16 539.59,-351.59 509,-331 500.49,-325.27 492.65,-318.24 485.51,-310.53"/>
<polygon fill="none" stroke="#63b8ff" points="485.29,-310.28 478.34,-308.36 477.44,-301.2 484.39,-303.12 485.29,-310.28"/>
</a>
</g>
<text text-anchor="middle" x="640.5" y="-357.5" font-family="Helvetica,sans-Serif" font-size="10.00" fill="grey"> +lastTime</text>
</g>
<!-- Node13 -->
<g id="Node000013" class="node">
<title>Node13</title>
<g id="a_Node000013"><a xlink:title=" ">
<path fill="white" stroke="#666666" d="M765,-1165C765,-1165 735,-1165 735,-1165 729,-1165 723,-1159 723,-1153 723,-1153 723,-1120 723,-1120 723,-1114 729,-1108 735,-1108 735,-1108 765,-1108 765,-1108 771,-1108 777,-1114 777,-1120 777,-1120 777,-1153 777,-1153 777,-1159 771,-1165 765,-1165"/>
<text text-anchor="start" x="736" y="-1148.5" font-family="Helvetica,sans-Serif" font-size="10.00">string</text>
<text text-anchor="start" x="748" y="-1133.5" font-family="Helvetica,sans-Serif" font-size="10.00"> </text>
<text text-anchor="start" x="748" y="-1118.5" font-family="Helvetica,sans-Serif" font-size="10.00"> </text>
<polygon fill="#666666" stroke="#666666" points="731,-1143.5 731,-1143.5 769,-1143.5 769,-1143.5 731,-1143.5"/>
<polygon fill="#666666" stroke="#666666" points="731,-1128.5 731,-1128.5 769,-1128.5 769,-1128.5 731,-1128.5"/>
<polygon fill="none" stroke="#666666" points="731,-1112 731,-1161 769,-1161 769,-1112 731,-1112"/>
</a>
</g>
</g>
<!-- Node13&#45;&gt;Node3 -->
<g id="edge9_Node000003_Node000013" class="edge">
<title>Node13&#45;&gt;Node3</title>
<g id="a_edge9_Node000003_Node000013"><a xlink:title=" ">
<path fill="none" stroke="#63b8ff" d="M777.33,-1110.74C782.51,-1104.53 787.18,-1097.48 790,-1090 791.72,-1085.43 790.05,-1083.89 790,-1079 787.11,-772.29 953.42,-639.91 777,-389 748.28,-348.15 720.54,-360.72 672,-349 601.15,-331.89 571.59,-368.35 509,-331 499.8,-325.51 491.45,-318.43 483.94,-310.5"/>
<polygon fill="none" stroke="#63b8ff" points="483.73,-310.26 476.77,-308.39 475.82,-301.24 482.79,-303.11 483.73,-310.26"/>
</a>
</g>
<text text-anchor="middle" x="908.5" y="-728" font-family="Helvetica,sans-Serif" font-size="10.00" fill="grey"> +raw_ubx_filename</text>
<text text-anchor="middle" x="908.5" y="-717" font-family="Helvetica,sans-Serif" font-size="10.00" fill="grey">+recId</text>
</g>
<!-- Node13&#45;&gt;Node12 -->
<g id="edge8_Node000012_Node000013" class="edge">
<title>Node13&#45;&gt;Node12</title>
<g id="a_edge8_Node000012_Node000013"><a xlink:title=" ">
<path fill="none" stroke="#63b8ff" d="M729.29,-1107.71C725.98,-1102.09 723,-1096.05 721,-1090 719.14,-1084.37 717.38,-1078.67 715.72,-1072.91"/>
<polygon fill="none" stroke="#63b8ff" points="715.62,-1072.57 710.18,-1067.85 712.44,-1061 717.89,-1065.73 715.62,-1072.57"/>
</a>
</g>
<text text-anchor="middle" x="755.5" y="-1082" font-family="Helvetica,sans-Serif" font-size="10.00" fill="grey"> +cacheString</text>
</g>
<!-- Node14 -->
<g id="Node000014" class="node">
<title>Node14</title>
<g id="a_Node000014"><a xlink:href="structPacketStatistics.html" target="_top" xlink:title=" ">
<path fill="white" stroke="#666666" d="M652,-331C652,-331 530,-331 530,-331 524,-331 518,-325 518,-319 518,-319 518,-121 518,-121 518,-115 524,-109 530,-109 530,-109 652,-109 652,-109 658,-109 664,-115 664,-121 664,-121 664,-319 664,-319 664,-325 658,-331 652,-331"/>
<text text-anchor="start" x="552.5" y="-315" font-family="Helvetica,sans-Serif" font-size="10.00">PacketStatistics</text>
<text text-anchor="start" x="530" y="-300" font-family="Helvetica,sans-Serif" font-size="10.00">+</text>
<text text-anchor="start" x="543" y="-300" font-family="Helvetica,sans-Serif" font-size="10.00">numPreambleFound</text>
<text text-anchor="start" x="530" y="-285" font-family="Helvetica,sans-Serif" font-size="10.00">+</text>
<text text-anchor="start" x="543" y="-285" font-family="Helvetica,sans-Serif" font-size="10.00">numFramesFailedCRC</text>
<text text-anchor="start" x="530" y="-270" font-family="Helvetica,sans-Serif" font-size="10.00">+</text>
<text text-anchor="start" x="543" y="-270" font-family="Helvetica,sans-Serif" font-size="10.00">numFramesPassCRC</text>
<text text-anchor="start" x="530" y="-255" font-family="Helvetica,sans-Serif" font-size="10.00">+</text>
<text text-anchor="start" x="543" y="-255" font-family="Helvetica,sans-Serif" font-size="10.00">numFramesDecoded</text>
<text text-anchor="start" x="530" y="-240" font-family="Helvetica,sans-Serif" font-size="10.00">+</text>
<text text-anchor="start" x="543" y="-240" font-family="Helvetica,sans-Serif" font-size="10.00">numNonMessBytes</text>
<text text-anchor="start" x="530" y="-225" font-family="Helvetica,sans-Serif" font-size="10.00">+</text>
<text text-anchor="start" x="543" y="-225" font-family="Helvetica,sans-Serif" font-size="10.00">numMessagesLatency</text>
<text text-anchor="start" x="530" y="-210" font-family="Helvetica,sans-Serif" font-size="10.00">+</text>
<text text-anchor="start" x="543" y="-210" font-family="Helvetica,sans-Serif" font-size="10.00">totalLatency</text>
<text text-anchor="start" x="530" y="-195" font-family="Helvetica,sans-Serif" font-size="10.00">+</text>
<text text-anchor="start" x="543" y="-195" font-family="Helvetica,sans-Serif" font-size="10.00">printPacketStatistics()</text>
<text text-anchor="start" x="530" y="-180" font-family="Helvetica,sans-Serif" font-size="10.00">+</text>
<text text-anchor="start" x="543" y="-180" font-family="Helvetica,sans-Serif" font-size="10.00">checksumFailure()</text>
<text text-anchor="start" x="530" y="-165" font-family="Helvetica,sans-Serif" font-size="10.00">+</text>
<text text-anchor="start" x="543" y="-165" font-family="Helvetica,sans-Serif" font-size="10.00">checksumSuccess()</text>
<text text-anchor="start" x="530" y="-150" font-family="Helvetica,sans-Serif" font-size="10.00">+</text>
<text text-anchor="start" x="543" y="-150" font-family="Helvetica,sans-Serif" font-size="10.00">nonFrameByteFound()</text>
<text text-anchor="start" x="530" y="-135" font-family="Helvetica,sans-Serif" font-size="10.00">+</text>
<text text-anchor="start" x="543" y="-135" font-family="Helvetica,sans-Serif" font-size="10.00">preambleFound()</text>
<text text-anchor="start" x="530" y="-120" font-family="Helvetica,sans-Serif" font-size="10.00">+</text>
<text text-anchor="start" x="543" y="-120" font-family="Helvetica,sans-Serif" font-size="10.00">frameDecoded()</text>
<polygon fill="#666666" stroke="#666666" points="526,-310 526,-310 656,-310 656,-310 526,-310"/>
<polygon fill="#666666" stroke="#666666" points="526,-205 526,-205 541,-205 541,-205 526,-205"/>
<polygon fill="#666666" stroke="#666666" points="541,-205 541,-205 656,-205 656,-205 541,-205"/>
<polygon fill="none" stroke="#666666" points="526,-113 526,-327 656,-327 656,-113 526,-113"/>
</a>
</g>
</g>
<!-- Node14&#45;&gt;Node1 -->
<g id="edge10_Node000001_Node000014" class="edge">
<title>Node14&#45;&gt;Node1</title>
<g id="a_edge10_Node000001_Node000014"><a xlink:title=" ">
<path fill="none" stroke="#63b8ff" d="M511.2,-111.49C510.46,-110.65 509.73,-109.82 509,-109 497.77,-96.36 484.67,-83.41 472.54,-72.03"/>
<polygon fill="none" stroke="#63b8ff" points="508.61,-113.85 517.78,-119.15 513.91,-109.28 508.61,-113.85"/>
</a>
</g>
</g>
</g>
</svg>
