<?xml version="1.0" encoding="UTF-8" standalone="no"?>
<!DOCTYPE svg PUBLIC "-//W3C//DTD SVG 1.1//EN"
 "http://www.w3.org/Graphics/SVG/1.1/DTD/svg11.dtd">
<!-- Generated by graphviz version 2.43.0 (0)
 -->
<!-- Title: SlipOptions Pages: 1 -->
<svg width="90pt" height="110pt"
 viewBox="0.00 0.00 90.00 110.00" xmlns="http://www.w3.org/2000/svg" xmlns:xlink="http://www.w3.org/1999/xlink">
<g id="graph0" class="graph" transform="scale(1 1) rotate(0) translate(4 106)">
<title>SlipOptions</title>
<!-- Node1 -->
<g id="Node000001" class="node">
<title>Node1</title>
<g id="a_Node000001"><a xlink:href="structSlipOptions.html" target="_top" xlink:title=" ">
<path fill="white" stroke="#666666" stroke-width="2" d="M70,-102C70,-102 12,-102 12,-102 6,-102 0,-96 0,-90 0,-90 0,-12 0,-12 0,-6 6,0 12,0 12,0 70,0 70,0 76,0 82,-6 82,-12 82,-12 82,-90 82,-90 82,-96 76,-102 70,-102"/>
<text text-anchor="start" x="13" y="-86" font-family="Helvetica,sans-Serif" font-size="10.00">SlipOptions</text>
<text text-anchor="start" x="15.5" y="-71" font-family="Helvetica,sans-Serif" font-size="10.00">+</text>
<text text-anchor="start" x="32" y="-71" font-family="Helvetica,sans-Serif" font-size="10.00">LLI</text>
<text text-anchor="start" x="15.5" y="-56" font-family="Helvetica,sans-Serif" font-size="10.00">+</text>
<text text-anchor="start" x="32" y="-56" font-family="Helvetica,sans-Serif" font-size="10.00">GF</text>
<text text-anchor="start" x="15.5" y="-41" font-family="Helvetica,sans-Serif" font-size="10.00">+</text>
<text text-anchor="start" x="32" y="-41" font-family="Helvetica,sans-Serif" font-size="10.00">MW</text>
<text text-anchor="start" x="15.5" y="-26" font-family="Helvetica,sans-Serif" font-size="10.00">+</text>
<text text-anchor="start" x="32" y="-26" font-family="Helvetica,sans-Serif" font-size="10.00">SCDIA</text>
<text text-anchor="start" x="39" y="-11" font-family="Helvetica,sans-Serif" font-size="10.00"> </text>
<polygon fill="#666666" stroke="#666666" points="8,-81 8,-81 74,-81 74,-81 8,-81"/>
<polygon fill="#666666" stroke="#666666" points="8,-21 8,-21 30,-21 30,-21 8,-21"/>
<polygon fill="#666666" stroke="#666666" points="30,-21 30,-21 74,-21 74,-21 30,-21"/>
<polygon fill="none" stroke="#666666" points="8,-4 8,-98 74,-98 74,-4 8,-4"/>
</a>
</g>
</g>
</g>
</svg>
