<?xml version="1.0" encoding="UTF-8" standalone="no"?>
<!DOCTYPE svg PUBLIC "-//W3C//DTD SVG 1.1//EN"
 "http://www.w3.org/Graphics/SVG/1.1/DTD/svg11.dtd">
<!-- Generated by graphviz version 2.43.0 (0)
 -->
<!-- Title: InputOptions Pages: 1 -->
<svg width="805pt" height="827pt"
 viewBox="0.00 0.00 805.00 827.00" xmlns="http://www.w3.org/2000/svg" xmlns:xlink="http://www.w3.org/1999/xlink">
<g id="graph0" class="graph" transform="scale(1 1) rotate(0) translate(4 823)">
<title>InputOptions</title>
<!-- Node1 -->
<g id="Node000001" class="node">
<title>Node1</title>
<g id="a_Node000001"><a xlink:href="structInputOptions.html" target="_top" xlink:title="Input source filenames and directories.">
<path fill="white" stroke="#666666" stroke-width="2" d="M391,-457C391,-457 249,-457 249,-457 243,-457 237,-451 237,-445 237,-445 237,-12 237,-12 237,-6 243,0 249,0 249,0 391,0 391,0 397,0 403,-6 403,-12 403,-12 403,-445 403,-445 403,-451 397,-457 391,-457"/>
<text text-anchor="start" x="288.5" y="-440.5" font-family="Helvetica,sans-Serif" font-size="10.00">InputOptions</text>
<text text-anchor="start" x="249" y="-425.5" font-family="Helvetica,sans-Serif" font-size="10.00">+</text>
<text text-anchor="start" x="262" y="-425.5" font-family="Helvetica,sans-Serif" font-size="10.00">snx_files</text>
<text text-anchor="start" x="249" y="-410.5" font-family="Helvetica,sans-Serif" font-size="10.00">+</text>
<text text-anchor="start" x="262" y="-410.5" font-family="Helvetica,sans-Serif" font-size="10.00">nav_files</text>
<text text-anchor="start" x="249" y="-395.5" font-family="Helvetica,sans-Serif" font-size="10.00">+</text>
<text text-anchor="start" x="262" y="-395.5" font-family="Helvetica,sans-Serif" font-size="10.00">sp3_files</text>
<text text-anchor="start" x="249" y="-380.5" font-family="Helvetica,sans-Serif" font-size="10.00">+</text>
<text text-anchor="start" x="262" y="-380.5" font-family="Helvetica,sans-Serif" font-size="10.00">obx_files</text>
<text text-anchor="start" x="249" y="-365.5" font-family="Helvetica,sans-Serif" font-size="10.00">+</text>
<text text-anchor="start" x="262" y="-365.5" font-family="Helvetica,sans-Serif" font-size="10.00">sid_files</text>
<text text-anchor="start" x="249" y="-350.5" font-family="Helvetica,sans-Serif" font-size="10.00">+</text>
<text text-anchor="start" x="262" y="-350.5" font-family="Helvetica,sans-Serif" font-size="10.00">vmf_files</text>
<text text-anchor="start" x="249" y="-335.5" font-family="Helvetica,sans-Serif" font-size="10.00">+</text>
<text text-anchor="start" x="262" y="-335.5" font-family="Helvetica,sans-Serif" font-size="10.00">erp_files</text>
<text text-anchor="start" x="249" y="-320.5" font-family="Helvetica,sans-Serif" font-size="10.00">+</text>
<text text-anchor="start" x="262" y="-320.5" font-family="Helvetica,sans-Serif" font-size="10.00">dcb_files</text>
<text text-anchor="start" x="249" y="-305.5" font-family="Helvetica,sans-Serif" font-size="10.00">+</text>
<text text-anchor="start" x="262" y="-305.5" font-family="Helvetica,sans-Serif" font-size="10.00">ion_files</text>
<text text-anchor="start" x="249" y="-290.5" font-family="Helvetica,sans-Serif" font-size="10.00">+</text>
<text text-anchor="start" x="262" y="-290.5" font-family="Helvetica,sans-Serif" font-size="10.00">igrf_files</text>
<text text-anchor="start" x="249" y="-275.5" font-family="Helvetica,sans-Serif" font-size="10.00">+</text>
<text text-anchor="start" x="262" y="-275.5" font-family="Helvetica,sans-Serif" font-size="10.00">egm_files</text>
<text text-anchor="start" x="249" y="-260.5" font-family="Helvetica,sans-Serif" font-size="10.00">+</text>
<text text-anchor="start" x="262" y="-260.5" font-family="Helvetica,sans-Serif" font-size="10.00">hfeop_files</text>
<text text-anchor="start" x="249" y="-245.5" font-family="Helvetica,sans-Serif" font-size="10.00">+</text>
<text text-anchor="start" x="262" y="-245.5" font-family="Helvetica,sans-Serif" font-size="10.00">gpt2grid_files</text>
<text text-anchor="start" x="249" y="-230.5" font-family="Helvetica,sans-Serif" font-size="10.00">+</text>
<text text-anchor="start" x="262" y="-230.5" font-family="Helvetica,sans-Serif" font-size="10.00">orography_files</text>
<text text-anchor="start" x="249" y="-215.5" font-family="Helvetica,sans-Serif" font-size="10.00">+</text>
<text text-anchor="start" x="262" y="-215.5" font-family="Helvetica,sans-Serif" font-size="10.00">pseudo_filter_files</text>
<text text-anchor="start" x="249" y="-200.5" font-family="Helvetica,sans-Serif" font-size="10.00">+</text>
<text text-anchor="start" x="262" y="-200.5" font-family="Helvetica,sans-Serif" font-size="10.00">planetary_ephemeris</text>
<text text-anchor="start" x="262" y="-189.5" font-family="Helvetica,sans-Serif" font-size="10.00">_files</text>
<text text-anchor="start" x="249" y="-174.5" font-family="Helvetica,sans-Serif" font-size="10.00">+</text>
<text text-anchor="start" x="262" y="-174.5" font-family="Helvetica,sans-Serif" font-size="10.00">ocean_tide_potential</text>
<text text-anchor="start" x="262" y="-163.5" font-family="Helvetica,sans-Serif" font-size="10.00">_files</text>
<text text-anchor="start" x="249" y="-148.5" font-family="Helvetica,sans-Serif" font-size="10.00">+</text>
<text text-anchor="start" x="262" y="-148.5" font-family="Helvetica,sans-Serif" font-size="10.00">ocean_tide_loading</text>
<text text-anchor="start" x="262" y="-137.5" font-family="Helvetica,sans-Serif" font-size="10.00">_blq_files</text>
<text text-anchor="start" x="249" y="-122.5" font-family="Helvetica,sans-Serif" font-size="10.00">+</text>
<text text-anchor="start" x="262" y="-122.5" font-family="Helvetica,sans-Serif" font-size="10.00">ocean_pole_tide_loading</text>
<text text-anchor="start" x="262" y="-111.5" font-family="Helvetica,sans-Serif" font-size="10.00">_files</text>
<text text-anchor="start" x="249" y="-96.5" font-family="Helvetica,sans-Serif" font-size="10.00">+</text>
<text text-anchor="start" x="262" y="-96.5" font-family="Helvetica,sans-Serif" font-size="10.00">ocean_pole_tide_potential</text>
<text text-anchor="start" x="262" y="-85.5" font-family="Helvetica,sans-Serif" font-size="10.00">_files</text>
<text text-anchor="start" x="249" y="-70.5" font-family="Helvetica,sans-Serif" font-size="10.00">+</text>
<text text-anchor="start" x="262" y="-70.5" font-family="Helvetica,sans-Serif" font-size="10.00">sisnet_inputs</text>
<text text-anchor="start" x="249" y="-55.5" font-family="Helvetica,sans-Serif" font-size="10.00">+</text>
<text text-anchor="start" x="262" y="-55.5" font-family="Helvetica,sans-Serif" font-size="10.00">nav_rtcm_inputs</text>
<text text-anchor="start" x="249" y="-40.5" font-family="Helvetica,sans-Serif" font-size="10.00">+</text>
<text text-anchor="start" x="262" y="-40.5" font-family="Helvetica,sans-Serif" font-size="10.00">qzs_rtcm_inputs</text>
<text text-anchor="start" x="249" y="-25.5" font-family="Helvetica,sans-Serif" font-size="10.00">+</text>
<text text-anchor="start" x="262" y="-25.5" font-family="Helvetica,sans-Serif" font-size="10.00">eci_pseudoobs</text>
<text text-anchor="start" x="318" y="-10.5" font-family="Helvetica,sans-Serif" font-size="10.00"> </text>
<polygon fill="#666666" stroke="#666666" points="245,-435.5 245,-435.5 395,-435.5 395,-435.5 245,-435.5"/>
<polygon fill="#666666" stroke="#666666" points="245,-20.5 245,-20.5 260,-20.5 260,-20.5 245,-20.5"/>
<polygon fill="#666666" stroke="#666666" points="260,-20.5 260,-20.5 395,-20.5 395,-20.5 260,-20.5"/>
<polygon fill="none" stroke="#666666" points="245,-4 245,-453 395,-453 395,-4 245,-4"/>
</a>
</g>
</g>
<!-- Node2 -->
<g id="Node000002" class="node">
<title>Node2</title>
<g id="a_Node000002"><a xlink:title=" ">
<path fill="white" stroke="#666666" d="M42,-709.5C42,-709.5 12,-709.5 12,-709.5 6,-709.5 0,-703.5 0,-697.5 0,-697.5 0,-664.5 0,-664.5 0,-658.5 6,-652.5 12,-652.5 12,-652.5 42,-652.5 42,-652.5 48,-652.5 54,-658.5 54,-664.5 54,-664.5 54,-697.5 54,-697.5 54,-703.5 48,-709.5 42,-709.5"/>
<text text-anchor="start" x="13" y="-693" font-family="Helvetica,sans-Serif" font-size="10.00">string</text>
<text text-anchor="start" x="25" y="-678" font-family="Helvetica,sans-Serif" font-size="10.00"> </text>
<text text-anchor="start" x="25" y="-663" font-family="Helvetica,sans-Serif" font-size="10.00"> </text>
<polygon fill="#666666" stroke="#666666" points="8,-688 8,-688 46,-688 46,-688 8,-688"/>
<polygon fill="#666666" stroke="#666666" points="8,-673 8,-673 46,-673 46,-673 8,-673"/>
<polygon fill="none" stroke="#666666" points="8,-656.5 8,-705.5 46,-705.5 46,-656.5 8,-656.5"/>
</a>
</g>
</g>
<!-- Node2&#45;&gt;Node1 -->
<g id="edge1_Node000001_Node000002" class="edge">
<title>Node2&#45;&gt;Node1</title>
<g id="a_edge1_Node000001_Node000002"><a xlink:title=" ">
<path fill="none" stroke="#63b8ff" d="M19.91,-652.21C10.97,-611.25 -0.17,-533.21 27,-475 67.85,-387.48 156.94,-320.13 226.23,-278.3"/>
<polygon fill="none" stroke="#63b8ff" points="226.41,-278.19 229.53,-271.69 236.73,-272.06 233.61,-278.57 226.41,-278.19"/>
</a>
</g>
<text text-anchor="start" x="27" y="-599" font-family="Helvetica,sans-Serif" font-size="10.00" fill="grey"> +custom_pseudo_obs</text>
<text text-anchor="middle" x="82.5" y="-588" font-family="Helvetica,sans-Serif" font-size="10.00" fill="grey">_root</text>
<text text-anchor="middle" x="82.5" y="-577" font-family="Helvetica,sans-Serif" font-size="10.00" fill="grey">+gnss_obs_root</text>
<text text-anchor="middle" x="82.5" y="-566" font-family="Helvetica,sans-Serif" font-size="10.00" fill="grey">+inputs_root</text>
<text text-anchor="middle" x="82.5" y="-555" font-family="Helvetica,sans-Serif" font-size="10.00" fill="grey">+pseudo_obs_root</text>
<text text-anchor="middle" x="82.5" y="-544" font-family="Helvetica,sans-Serif" font-size="10.00" fill="grey">+rtcm_inputs_root</text>
<text text-anchor="middle" x="82.5" y="-533" font-family="Helvetica,sans-Serif" font-size="10.00" fill="grey">+sat_data_root</text>
<text text-anchor="middle" x="82.5" y="-522" font-family="Helvetica,sans-Serif" font-size="10.00" fill="grey">+sisnet_inputs_root</text>
<text text-anchor="middle" x="82.5" y="-511" font-family="Helvetica,sans-Serif" font-size="10.00" fill="grey">+stream_pass</text>
<text text-anchor="middle" x="82.5" y="-500" font-family="Helvetica,sans-Serif" font-size="10.00" fill="grey">+stream_user</text>
</g>
<!-- Node3 -->
<g id="Node000003" class="node">
<title>Node3</title>
<g id="a_Node000003"><a xlink:title=" ">
<path fill="white" stroke="#666666" d="M185,-709.5C185,-709.5 101,-709.5 101,-709.5 95,-709.5 89,-703.5 89,-697.5 89,-697.5 89,-664.5 89,-664.5 89,-658.5 95,-652.5 101,-652.5 101,-652.5 185,-652.5 185,-652.5 191,-652.5 197,-658.5 197,-664.5 197,-664.5 197,-697.5 197,-697.5 197,-703.5 191,-709.5 185,-709.5"/>
<text text-anchor="start" x="102" y="-693" font-family="Helvetica,sans-Serif" font-size="10.00">vector&lt; string &gt;</text>
<text text-anchor="start" x="141" y="-678" font-family="Helvetica,sans-Serif" font-size="10.00"> </text>
<text text-anchor="start" x="141" y="-663" font-family="Helvetica,sans-Serif" font-size="10.00"> </text>
<polygon fill="#666666" stroke="#666666" points="97,-688 97,-688 189,-688 189,-688 97,-688"/>
<polygon fill="#666666" stroke="#666666" points="97,-673 97,-673 189,-673 189,-673 97,-673"/>
<polygon fill="none" stroke="#666666" points="97,-656.5 97,-705.5 189,-705.5 189,-656.5 97,-656.5"/>
</a>
</g>
</g>
<!-- Node3&#45;&gt;Node1 -->
<g id="edge2_Node000001_Node000003" class="edge">
<title>Node3&#45;&gt;Node1</title>
<g id="a_edge2_Node000001_Node000003"><a xlink:title=" ">
<path fill="none" stroke="#63b8ff" d="M141.86,-652.28C141.09,-612.05 142.94,-535.67 164,-475 179.5,-430.33 204.54,-385.5 230.05,-346.59"/>
<polygon fill="none" stroke="#63b8ff" points="230.25,-346.3 230.24,-339.09 236.9,-336.31 236.9,-343.52 230.25,-346.3"/>
</a>
</g>
<text text-anchor="middle" x="232" y="-621" font-family="Helvetica,sans-Serif" font-size="10.00" fill="grey"> +atm_reg_definitions</text>
<text text-anchor="start" x="164" y="-610" font-family="Helvetica,sans-Serif" font-size="10.00" fill="grey">+atmos_oceean_dealiasing</text>
<text text-anchor="middle" x="232" y="-599" font-family="Helvetica,sans-Serif" font-size="10.00" fill="grey">_files</text>
<text text-anchor="start" x="164" y="-588" font-family="Helvetica,sans-Serif" font-size="10.00" fill="grey">+atmos_tide_loading</text>
<text text-anchor="middle" x="232" y="-577" font-family="Helvetica,sans-Serif" font-size="10.00" fill="grey">_blq_files</text>
<text text-anchor="start" x="164" y="-566" font-family="Helvetica,sans-Serif" font-size="10.00" fill="grey">+atmos_tide_potential</text>
<text text-anchor="middle" x="232" y="-555" font-family="Helvetica,sans-Serif" font-size="10.00" fill="grey">_files</text>
<text text-anchor="middle" x="232" y="-544" font-family="Helvetica,sans-Serif" font-size="10.00" fill="grey">+atx_files</text>
<text text-anchor="middle" x="232" y="-533" font-family="Helvetica,sans-Serif" font-size="10.00" fill="grey">+bsx_files</text>
<text text-anchor="middle" x="232" y="-522" font-family="Helvetica,sans-Serif" font-size="10.00" fill="grey">+clk_files</text>
<text text-anchor="middle" x="232" y="-511" font-family="Helvetica,sans-Serif" font-size="10.00" fill="grey">+cmc_files</text>
<text text-anchor="middle" x="232" y="-500" font-family="Helvetica,sans-Serif" font-size="10.00" fill="grey">+com_files</text>
<text text-anchor="middle" x="232" y="-489" font-family="Helvetica,sans-Serif" font-size="10.00" fill="grey">+crd_files</text>
<text text-anchor="middle" x="232" y="-478" font-family="Helvetica,sans-Serif" font-size="10.00" fill="grey">...</text>
</g>
<!-- Node4 -->
<g id="Node000004" class="node">
<title>Node4</title>
<g id="a_Node000004"><a xlink:title=" ">
<path fill="white" stroke="#666666" d="M317.5,-819C317.5,-819 284.5,-819 284.5,-819 278.5,-819 272.5,-813 272.5,-807 272.5,-807 272.5,-774 272.5,-774 272.5,-768 278.5,-762 284.5,-762 284.5,-762 317.5,-762 317.5,-762 323.5,-762 329.5,-768 329.5,-774 329.5,-774 329.5,-807 329.5,-807 329.5,-813 323.5,-819 317.5,-819"/>
<text text-anchor="start" x="286" y="-802.5" font-family="Helvetica,sans-Serif" font-size="10.00">vector</text>
<text text-anchor="start" x="299.5" y="-787.5" font-family="Helvetica,sans-Serif" font-size="10.00"> </text>
<text text-anchor="start" x="299.5" y="-772.5" font-family="Helvetica,sans-Serif" font-size="10.00"> </text>
<polygon fill="#666666" stroke="#666666" points="281,-797.5 281,-797.5 322,-797.5 322,-797.5 281,-797.5"/>
<polygon fill="#666666" stroke="#666666" points="281,-782.5 281,-782.5 322,-782.5 322,-782.5 281,-782.5"/>
<polygon fill="none" stroke="#666666" points="280.5,-766 280.5,-815 321.5,-815 321.5,-766 280.5,-766"/>
</a>
</g>
</g>
<!-- Node4&#45;&gt;Node3 -->
<g id="edge3_Node000003_Node000004" class="edge">
<title>Node4&#45;&gt;Node3</title>
<g id="a_edge3_Node000003_Node000004"><a xlink:title=" ">
<path fill="none" stroke="orange" d="M263.86,-764.23C239.76,-747.83 208.34,-726.46 183.58,-709.61"/>
<polygon fill="orange" stroke="orange" points="262.15,-767.3 272.39,-770.03 266.09,-761.51 262.15,-767.3"/>
</a>
</g>
<text text-anchor="middle" x="259" y="-736" font-family="Helvetica,sans-Serif" font-size="10.00" fill="grey"> &lt; string &gt;</text>
</g>
<!-- Node7 -->
<g id="Node000007" class="node">
<title>Node7</title>
<g id="a_Node000007"><a xlink:title=" ">
<path fill="white" stroke="#666666" d="M374.5,-709.5C374.5,-709.5 227.5,-709.5 227.5,-709.5 221.5,-709.5 215.5,-703.5 215.5,-697.5 215.5,-697.5 215.5,-664.5 215.5,-664.5 215.5,-658.5 221.5,-652.5 227.5,-652.5 227.5,-652.5 374.5,-652.5 374.5,-652.5 380.5,-652.5 386.5,-658.5 386.5,-664.5 386.5,-664.5 386.5,-697.5 386.5,-697.5 386.5,-703.5 380.5,-709.5 374.5,-709.5"/>
<text text-anchor="start" x="229" y="-693" font-family="Helvetica,sans-Serif" font-size="10.00">vector&lt; E_TidalComponent &gt;</text>
<text text-anchor="start" x="299.5" y="-678" font-family="Helvetica,sans-Serif" font-size="10.00"> </text>
<text text-anchor="start" x="299.5" y="-663" font-family="Helvetica,sans-Serif" font-size="10.00"> </text>
<polygon fill="#666666" stroke="#666666" points="224,-688 224,-688 379,-688 379,-688 224,-688"/>
<polygon fill="#666666" stroke="#666666" points="224,-673 224,-673 379,-673 379,-673 224,-673"/>
<polygon fill="none" stroke="#666666" points="223.5,-656.5 223.5,-705.5 378.5,-705.5 378.5,-656.5 223.5,-656.5"/>
</a>
</g>
</g>
<!-- Node4&#45;&gt;Node7 -->
<g id="edge7_Node000007_Node000004" class="edge">
<title>Node4&#45;&gt;Node7</title>
<g id="a_edge7_Node000007_Node000004"><a xlink:title=" ">
<path fill="none" stroke="orange" d="M301,-751.6C301,-737.75 301,-722.37 301,-709.59"/>
<polygon fill="orange" stroke="orange" points="297.5,-751.82 301,-761.82 304.5,-751.82 297.5,-751.82"/>
</a>
</g>
<text text-anchor="middle" x="360" y="-736" font-family="Helvetica,sans-Serif" font-size="10.00" fill="grey"> &lt; E_TidalComponent &gt;</text>
</g>
<!-- Node8 -->
<g id="Node000008" class="node">
<title>Node8</title>
<g id="a_Node000008"><a xlink:title=" ">
<path fill="white" stroke="#666666" d="M563.5,-709.5C563.5,-709.5 416.5,-709.5 416.5,-709.5 410.5,-709.5 404.5,-703.5 404.5,-697.5 404.5,-697.5 404.5,-664.5 404.5,-664.5 404.5,-658.5 410.5,-652.5 416.5,-652.5 416.5,-652.5 563.5,-652.5 563.5,-652.5 569.5,-652.5 575.5,-658.5 575.5,-664.5 575.5,-664.5 575.5,-697.5 575.5,-697.5 575.5,-703.5 569.5,-709.5 563.5,-709.5"/>
<text text-anchor="start" x="418" y="-693" font-family="Helvetica,sans-Serif" font-size="10.00">vector&lt; E_TidalConstituent &gt;</text>
<text text-anchor="start" x="488.5" y="-678" font-family="Helvetica,sans-Serif" font-size="10.00"> </text>
<text text-anchor="start" x="488.5" y="-663" font-family="Helvetica,sans-Serif" font-size="10.00"> </text>
<polygon fill="#666666" stroke="#666666" points="413,-688 413,-688 568,-688 568,-688 413,-688"/>
<polygon fill="#666666" stroke="#666666" points="413,-673 413,-673 568,-673 568,-673 413,-673"/>
<polygon fill="none" stroke="#666666" points="412.5,-656.5 412.5,-705.5 567.5,-705.5 567.5,-656.5 412.5,-656.5"/>
</a>
</g>
</g>
<!-- Node4&#45;&gt;Node8 -->
<g id="edge9_Node000008_Node000004" class="edge">
<title>Node4&#45;&gt;Node8</title>
<g id="a_edge9_Node000008_Node000004"><a xlink:title=" ">
<path fill="none" stroke="orange" d="M339.39,-779.4C364.34,-771.84 396.94,-760.04 423,-744 438.25,-734.61 453.09,-721.43 464.91,-709.64"/>
<polygon fill="orange" stroke="orange" points="338.16,-776.11 329.55,-782.28 340.13,-782.83 338.16,-776.11"/>
</a>
</g>
<text text-anchor="middle" x="497" y="-736" font-family="Helvetica,sans-Serif" font-size="10.00" fill="grey"> &lt; E_TidalConstituent &gt;</text>
</g>
<!-- Node5 -->
<g id="Node000005" class="node">
<title>Node5</title>
<g id="a_Node000005"><a xlink:title=" ">
<path fill="white" stroke="#666666" d="M706,-715C706,-715 606,-715 606,-715 600,-715 594,-709 594,-703 594,-703 594,-659 594,-659 594,-653 600,-647 606,-647 606,-647 706,-647 706,-647 712,-647 718,-653 718,-659 718,-659 718,-703 718,-703 718,-709 712,-715 706,-715"/>
<text text-anchor="start" x="607" y="-699" font-family="Helvetica,sans-Serif" font-size="10.00">map&lt; string, vector</text>
<text text-anchor="start" x="625" y="-688" font-family="Helvetica,sans-Serif" font-size="10.00">&lt; string &gt; &gt;</text>
<text text-anchor="start" x="654" y="-673" font-family="Helvetica,sans-Serif" font-size="10.00"> </text>
<text text-anchor="start" x="654" y="-658" font-family="Helvetica,sans-Serif" font-size="10.00"> </text>
<polygon fill="#666666" stroke="#666666" points="602,-683 602,-683 710,-683 710,-683 602,-683"/>
<polygon fill="#666666" stroke="#666666" points="602,-668 602,-668 710,-668 710,-668 602,-668"/>
<polygon fill="none" stroke="#666666" points="602,-651 602,-711 710,-711 710,-651 602,-651"/>
</a>
</g>
</g>
<!-- Node5&#45;&gt;Node1 -->
<g id="edge4_Node000001_Node000005" class="edge">
<title>Node5&#45;&gt;Node1</title>
<g id="a_edge4_Node000001_Node000005"><a xlink:title=" ">
<path fill="none" stroke="#63b8ff" d="M646.35,-646.77C633.11,-604.49 606.6,-530.32 569,-475 525.46,-410.94 463.47,-349.75 412.24,-304.49"/>
<polygon fill="none" stroke="#63b8ff" points="412.16,-304.42 405.01,-303.47 403.13,-296.51 410.28,-297.45 412.16,-304.42"/>
</a>
</g>
<text text-anchor="middle" x="691" y="-577" font-family="Helvetica,sans-Serif" font-size="10.00" fill="grey"> +custom_inputs</text>
<text text-anchor="middle" x="691" y="-566" font-family="Helvetica,sans-Serif" font-size="10.00" fill="grey">+obs_rtcm_inputs</text>
<text text-anchor="middle" x="691" y="-555" font-family="Helvetica,sans-Serif" font-size="10.00" fill="grey">+pseudo_snx_inputs</text>
<text text-anchor="middle" x="691" y="-544" font-family="Helvetica,sans-Serif" font-size="10.00" fill="grey">+pseudo_sp3_inputs</text>
<text text-anchor="middle" x="691" y="-533" font-family="Helvetica,sans-Serif" font-size="10.00" fill="grey">+rnx_inputs</text>
<text text-anchor="middle" x="691" y="-522" font-family="Helvetica,sans-Serif" font-size="10.00" fill="grey">+ubx_inputs</text>
</g>
<!-- Node6 -->
<g id="Node000006" class="node">
<title>Node6</title>
<g id="a_Node000006"><a xlink:title=" ">
<path fill="white" stroke="#666666" d="M668,-819C668,-819 644,-819 644,-819 638,-819 632,-813 632,-807 632,-807 632,-774 632,-774 632,-768 638,-762 644,-762 644,-762 668,-762 668,-762 674,-762 680,-768 680,-774 680,-774 680,-807 680,-807 680,-813 674,-819 668,-819"/>
<text text-anchor="start" x="645" y="-802.5" font-family="Helvetica,sans-Serif" font-size="10.00">map</text>
<text text-anchor="start" x="654" y="-787.5" font-family="Helvetica,sans-Serif" font-size="10.00"> </text>
<text text-anchor="start" x="654" y="-772.5" font-family="Helvetica,sans-Serif" font-size="10.00"> </text>
<polygon fill="#666666" stroke="#666666" points="640,-797.5 640,-797.5 672,-797.5 672,-797.5 640,-797.5"/>
<polygon fill="#666666" stroke="#666666" points="640,-782.5 640,-782.5 672,-782.5 672,-782.5 640,-782.5"/>
<polygon fill="none" stroke="#666666" points="640,-766 640,-815 672,-815 672,-766 640,-766"/>
</a>
</g>
</g>
<!-- Node6&#45;&gt;Node5 -->
<g id="edge5_Node000005_Node000006" class="edge">
<title>Node6&#45;&gt;Node5</title>
<g id="a_edge5_Node000005_Node000006"><a xlink:title=" ">
<path fill="none" stroke="orange" d="M656,-751.75C656,-739.88 656,-726.87 656,-715.34"/>
<polygon fill="orange" stroke="orange" points="652.5,-751.82 656,-761.82 659.5,-751.82 652.5,-751.82"/>
</a>
</g>
<text text-anchor="middle" x="726.5" y="-736" font-family="Helvetica,sans-Serif" font-size="10.00" fill="grey"> &lt; string, vector&lt; string &gt; &gt;</text>
</g>
<!-- Node7&#45;&gt;Node1 -->
<g id="edge6_Node000001_Node000007" class="edge">
<title>Node7&#45;&gt;Node1</title>
<g id="a_edge6_Node000001_Node000007"><a xlink:title=" ">
<path fill="none" stroke="#63b8ff" d="M302.16,-652.5C303.75,-614.77 306.77,-543.2 309.88,-469.52"/>
<polygon fill="none" stroke="#63b8ff" points="309.89,-469.19 306.15,-463.03 310.4,-457.2 314.14,-463.36 309.89,-469.19"/>
</a>
</g>
<text text-anchor="middle" x="359.5" y="-555" font-family="Helvetica,sans-Serif" font-size="10.00" fill="grey"> +atl_blq_row_order</text>
<text text-anchor="middle" x="359.5" y="-544" font-family="Helvetica,sans-Serif" font-size="10.00" fill="grey">+otl_blq_row_order</text>
</g>
<!-- Node8&#45;&gt;Node1 -->
<g id="edge8_Node000001_Node000008" class="edge">
<title>Node8&#45;&gt;Node1</title>
<g id="a_edge8_Node000001_Node000008"><a xlink:title=" ">
<path fill="none" stroke="#63b8ff" d="M479.69,-652.47C464.94,-613.11 436.95,-538.5 413,-475 411.17,-470.14 409.31,-465.23 407.45,-460.28"/>
<polygon fill="none" stroke="#63b8ff" points="407.3,-459.89 401.44,-455.69 403.06,-448.66 408.92,-452.86 407.3,-459.89"/>
</a>
</g>
<text text-anchor="middle" x="517.5" y="-555" font-family="Helvetica,sans-Serif" font-size="10.00" fill="grey"> +atl_blq_col_order</text>
<text text-anchor="middle" x="517.5" y="-544" font-family="Helvetica,sans-Serif" font-size="10.00" fill="grey">+otl_blq_col_order</text>
</g>
</g>
</svg>
