<?xml version="1.0" encoding="UTF-8" standalone="no"?>
<!DOCTYPE svg PUBLIC "-//W3C//DTD SVG 1.1//EN"
 "http://www.w3.org/Graphics/SVG/1.1/DTD/svg11.dtd">
<!-- Generated by graphviz version 2.43.0 (0)
 -->
<!-- Title: KFState::filterKalman Pages: 1 -->
<svg width="433pt" height="362pt"
 viewBox="0.00 0.00 433.00 362.00" xmlns="http://www.w3.org/2000/svg" xmlns:xlink="http://www.w3.org/1999/xlink">
<g id="graph0" class="graph" transform="scale(1 1) rotate(0) translate(4 358)">
<title>KFState::filterKalman</title>
<!-- Node1 -->
<g id="Node000001" class="node">
<title>Node1</title>
<g id="a_Node000001"><a xlink:href="structKFState.html#a0d12c57e70876543084c182a660bbbd3" target="_top" xlink:title="Kalman filter operation.">
<path fill="#fff0f0" stroke="red" stroke-width="2" d="M418.67,-187C418.67,-187 311.33,-187 311.33,-187 308.17,-187 305,-183.83 305,-180.67 305,-180.67 305,-174.33 305,-174.33 305,-171.17 308.17,-168 311.33,-168 311.33,-168 418.67,-168 418.67,-168 421.83,-168 425,-171.17 425,-174.33 425,-174.33 425,-180.67 425,-180.67 425,-183.83 421.83,-187 418.67,-187"/>
<text text-anchor="middle" x="365" y="-175" font-family="Helvetica,sans-Serif" font-size="10.00">KFState::filterKalman</text>
</a>
</g>
</g>
<!-- Node2 -->
<g id="Node000002" class="node">
<title>Node2</title>
<g id="a_Node000002"><a xlink:href="debug_8cpp.html#ae4e8d5c9ae89428a527a780093a3d872" target="_top" xlink:title=" ">
<path fill="#fff0f0" stroke="red" d="M208.67,-354C208.67,-354 179.33,-354 179.33,-354 176.17,-354 173,-350.83 173,-347.67 173,-347.67 173,-341.33 173,-341.33 173,-338.17 176.17,-335 179.33,-335 179.33,-335 208.67,-335 208.67,-335 211.83,-335 215,-338.17 215,-341.33 215,-341.33 215,-347.67 215,-347.67 215,-350.83 211.83,-354 208.67,-354"/>
<text text-anchor="middle" x="194" y="-342" font-family="Helvetica,sans-Serif" font-size="10.00">accel</text>
</a>
</g>
</g>
<!-- Node1&#45;&gt;Node2 -->
<g id="edge1_Node000001_Node000002" class="edge">
<title>Node1&#45;&gt;Node2</title>
<g id="a_edge1_Node000001_Node000002"><a xlink:title=" ">
<path fill="none" stroke="#63b8ff" d="M357.16,-196.93C344.8,-229.09 315.63,-293.15 269,-326.5 253.19,-337.81 231.14,-342.06 215.22,-343.64"/>
<polygon fill="#63b8ff" stroke="#63b8ff" points="360.52,-197.93 360.71,-187.34 353.96,-195.5 360.52,-197.93"/>
</a>
</g>
</g>
<!-- Node3 -->
<g id="Node000003" class="node">
<title>Node3</title>
<g id="a_Node000003"><a xlink:href="ppp__ambres_8cpp.html#ad41d635b049a650ddbe2f7e13d29e85b" target="_top" xlink:title=" ">
<path fill="#fff0f0" stroke="red" d="M262.67,-317C262.67,-317 125.33,-317 125.33,-317 122.17,-317 119,-313.83 119,-310.67 119,-310.67 119,-304.33 119,-304.33 119,-301.17 122.17,-298 125.33,-298 125.33,-298 262.67,-298 262.67,-298 265.83,-298 269,-301.17 269,-304.33 269,-304.33 269,-310.67 269,-310.67 269,-313.83 265.83,-317 262.67,-317"/>
<text text-anchor="middle" x="194" y="-305" font-family="Helvetica,sans-Serif" font-size="10.00">applyBestIntegerAmbiguity</text>
</a>
</g>
</g>
<!-- Node1&#45;&gt;Node3 -->
<g id="edge2_Node000001_Node000003" class="edge">
<title>Node1&#45;&gt;Node3</title>
<g id="a_edge2_Node000001_Node000003"><a xlink:title=" ">
<path fill="none" stroke="#63b8ff" d="M353.53,-195.95C338.27,-221.11 307.5,-265.74 269,-289.5 263.49,-292.9 257.37,-295.66 251.09,-297.9"/>
<polygon fill="#63b8ff" stroke="#63b8ff" points="356.71,-197.45 358.77,-187.06 350.68,-193.9 356.71,-197.45"/>
</a>
</g>
</g>
<!-- Node12 -->
<g id="Node000012" class="node">
<title>Node12</title>
<g id="a_Node000012"><a xlink:href="ppp__ambres_8cpp.html#a604fb46557eb8261b38abf76fb147433" target="_top" xlink:title=" ">
<path fill="#fff0f0" stroke="red" d="M245.67,-280C245.67,-280 142.33,-280 142.33,-280 139.17,-280 136,-276.83 136,-273.67 136,-273.67 136,-267.33 136,-267.33 136,-264.17 139.17,-261 142.33,-261 142.33,-261 245.67,-261 245.67,-261 248.83,-261 252,-264.17 252,-267.33 252,-267.33 252,-273.67 252,-273.67 252,-276.83 248.83,-280 245.67,-280"/>
<text text-anchor="middle" x="194" y="-268" font-family="Helvetica,sans-Serif" font-size="10.00">applyUCAmbiguities</text>
</a>
</g>
</g>
<!-- Node1&#45;&gt;Node12 -->
<g id="edge3_Node000001_Node000012" class="edge">
<title>Node1&#45;&gt;Node12</title>
<g id="a_edge3_Node000001_Node000012"><a xlink:title=" ">
<path fill="none" stroke="#63b8ff" d="M347.41,-194.33C329.58,-211.46 299.63,-237.57 269,-252.5 261.99,-255.92 254.28,-258.72 246.56,-261"/>
<polygon fill="#63b8ff" stroke="#63b8ff" points="350.03,-196.66 354.71,-187.16 345.13,-191.67 350.03,-196.66"/>
</a>
</g>
</g>
<!-- Node13 -->
<g id="Node000013" class="node">
<title>Node13</title>
<g id="a_Node000013"><a xlink:href="ionoModel_8cpp.html#ae7821a74f98f349d4508712aeced88e1" target="_top" xlink:title="Updating the ionosphere model parameters The ionosphere model should be initialized by calling &#39;confi...">
<path fill="#fff0f0" stroke="red" d="M234.17,-243C234.17,-243 153.83,-243 153.83,-243 150.67,-243 147.5,-239.83 147.5,-236.67 147.5,-236.67 147.5,-230.33 147.5,-230.33 147.5,-227.17 150.67,-224 153.83,-224 153.83,-224 234.17,-224 234.17,-224 237.33,-224 240.5,-227.17 240.5,-230.33 240.5,-230.33 240.5,-236.67 240.5,-236.67 240.5,-239.83 237.33,-243 234.17,-243"/>
<text text-anchor="middle" x="194" y="-231" font-family="Helvetica,sans-Serif" font-size="10.00">filterIonosphere</text>
</a>
</g>
</g>
<!-- Node1&#45;&gt;Node13 -->
<g id="edge4_Node000001_Node000013" class="edge">
<title>Node1&#45;&gt;Node13</title>
<g id="a_edge4_Node000001_Node000013"><a xlink:title=" ">
<path fill="none" stroke="#63b8ff" d="M333.1,-191.15C314.72,-198.95 290.8,-208.53 269,-215.5 259.3,-218.6 248.74,-221.47 238.72,-223.95"/>
<polygon fill="#63b8ff" stroke="#63b8ff" points="334.63,-194.31 342.44,-187.15 331.87,-187.87 334.63,-194.31"/>
</a>
</g>
</g>
<!-- Node14 -->
<g id="Node000014" class="node">
<title>Node14</title>
<g id="a_Node000014"><a xlink:href="debug_8cpp.html#a6b386ae3f1e24bab3a4c831fa043a400" target="_top" xlink:title=" ">
<path fill="#fff0f0" stroke="red" d="M222.67,-206C222.67,-206 165.33,-206 165.33,-206 162.17,-206 159,-202.83 159,-199.67 159,-199.67 159,-193.33 159,-193.33 159,-190.17 162.17,-187 165.33,-187 165.33,-187 222.67,-187 222.67,-187 225.83,-187 229,-190.17 229,-193.33 229,-193.33 229,-199.67 229,-199.67 229,-202.83 225.83,-206 222.67,-206"/>
<text text-anchor="middle" x="194" y="-194" font-family="Helvetica,sans-Serif" font-size="10.00">infiniteTest</text>
</a>
</g>
</g>
<!-- Node1&#45;&gt;Node14 -->
<g id="edge5_Node000001_Node000014" class="edge">
<title>Node1&#45;&gt;Node14</title>
<g id="a_edge5_Node000001_Node000014"><a xlink:title=" ">
<path fill="none" stroke="#63b8ff" d="M294.65,-185.3C272.08,-187.83 248.02,-190.54 229.19,-192.66"/>
<polygon fill="#63b8ff" stroke="#63b8ff" points="295.35,-188.74 304.89,-184.15 294.56,-181.78 295.35,-188.74"/>
</a>
</g>
</g>
<!-- Node15 -->
<g id="Node000015" class="node">
<title>Node15</title>
<g id="a_Node000015"><a xlink:href="minimumConstraints_8cpp.html#aa40934b017f373d875c3470591eff52e" target="_top" xlink:title=" ">
<path fill="#fff0f0" stroke="red" d="M214.17,-169C214.17,-169 173.83,-169 173.83,-169 170.67,-169 167.5,-165.83 167.5,-162.67 167.5,-162.67 167.5,-156.33 167.5,-156.33 167.5,-153.17 170.67,-150 173.83,-150 173.83,-150 214.17,-150 214.17,-150 217.33,-150 220.5,-153.17 220.5,-156.33 220.5,-156.33 220.5,-162.67 220.5,-162.67 220.5,-165.83 217.33,-169 214.17,-169"/>
<text text-anchor="middle" x="194" y="-157" font-family="Helvetica,sans-Serif" font-size="10.00">mincon</text>
</a>
</g>
</g>
<!-- Node1&#45;&gt;Node15 -->
<g id="edge6_Node000001_Node000015" class="edge">
<title>Node1&#45;&gt;Node15</title>
<g id="a_edge6_Node000001_Node000015"><a xlink:title=" ">
<path fill="none" stroke="#63b8ff" d="M294.63,-170.11C268.54,-167.33 240.47,-164.34 220.79,-162.25"/>
<polygon fill="#63b8ff" stroke="#63b8ff" points="294.58,-173.63 304.89,-171.2 295.32,-166.66 294.58,-173.63"/>
</a>
</g>
</g>
<!-- Node19 -->
<g id="Node000019" class="node">
<title>Node19</title>
<g id="a_Node000019"><a xlink:href="debug_8cpp.html#a80d24c0bf09dad23394c5fcac25aa80b" target="_top" xlink:title=" ">
<path fill="#fff0f0" stroke="red" d="M76.67,-150C76.67,-150 6.33,-150 6.33,-150 3.17,-150 0,-146.83 0,-143.67 0,-143.67 0,-137.33 0,-137.33 0,-134.17 3.17,-131 6.33,-131 6.33,-131 76.67,-131 76.67,-131 79.83,-131 83,-134.17 83,-137.33 83,-137.33 83,-143.67 83,-143.67 83,-146.83 79.83,-150 76.67,-150"/>
<text text-anchor="middle" x="41.5" y="-138" font-family="Helvetica,sans-Serif" font-size="10.00">minimumTest</text>
</a>
</g>
</g>
<!-- Node1&#45;&gt;Node19 -->
<g id="edge8_Node000001_Node000019" class="edge">
<title>Node1&#45;&gt;Node19</title>
<g id="a_edge8_Node000001_Node000019"><a xlink:title=" ">
<path fill="none" stroke="#63b8ff" d="M335.64,-163.69C317.15,-155.46 292.23,-145.81 269,-141.5 204.82,-129.6 128.63,-132.71 83,-136.37"/>
<polygon fill="#63b8ff" stroke="#63b8ff" points="334.39,-166.96 344.94,-167.95 337.31,-160.6 334.39,-166.96"/>
</a>
</g>
</g>
<!-- Node21 -->
<g id="Node000021" class="node">
<title>Node21</title>
<g id="a_Node000021"><a xlink:href="ppppp_8cpp.html#a9997f03cab80cd8db895650860eb025e" target="_top" xlink:title=" ">
<path fill="#fff0f0" stroke="red" d="M205.17,-93C205.17,-93 182.83,-93 182.83,-93 179.67,-93 176.5,-89.83 176.5,-86.67 176.5,-86.67 176.5,-80.33 176.5,-80.33 176.5,-77.17 179.67,-74 182.83,-74 182.83,-74 205.17,-74 205.17,-74 208.33,-74 211.5,-77.17 211.5,-80.33 211.5,-80.33 211.5,-86.67 211.5,-86.67 211.5,-89.83 208.33,-93 205.17,-93"/>
<text text-anchor="middle" x="194" y="-81" font-family="Helvetica,sans-Serif" font-size="10.00">ppp</text>
</a>
</g>
</g>
<!-- Node1&#45;&gt;Node21 -->
<g id="edge9_Node000001_Node000021" class="edge">
<title>Node1&#45;&gt;Node21</title>
<g id="a_edge9_Node000001_Node000021"><a xlink:title=" ">
<path fill="none" stroke="#63b8ff" d="M345.79,-161.28C327.49,-145.69 297.92,-122.35 269,-107.5 250.38,-97.94 227.18,-91.16 211.77,-87.29"/>
<polygon fill="#63b8ff" stroke="#63b8ff" points="343.52,-163.94 353.37,-167.85 348.1,-158.65 343.52,-163.94"/>
</a>
</g>
</g>
<!-- Node22 -->
<g id="Node000022" class="node">
<title>Node22</title>
<g id="a_Node000022"><a xlink:href="walkthrough_8cpp.html#af3e41749378ce9de79e7bdb41df88419" target="_top" xlink:title="Ginan kalman filter basics The basic structure for kalman filtering in ginan is the KFState struct,...">
<path fill="#fff0f0" stroke="red" d="M229.17,-56C229.17,-56 158.83,-56 158.83,-56 155.67,-56 152.5,-52.83 152.5,-49.67 152.5,-49.67 152.5,-43.33 152.5,-43.33 152.5,-40.17 155.67,-37 158.83,-37 158.83,-37 229.17,-37 229.17,-37 232.33,-37 235.5,-40.17 235.5,-43.33 235.5,-43.33 235.5,-49.67 235.5,-49.67 235.5,-52.83 232.33,-56 229.17,-56"/>
<text text-anchor="middle" x="194" y="-44" font-family="Helvetica,sans-Serif" font-size="10.00">walkthrough1</text>
</a>
</g>
</g>
<!-- Node1&#45;&gt;Node22 -->
<g id="edge10_Node000001_Node000022" class="edge">
<title>Node1&#45;&gt;Node22</title>
<g id="a_edge10_Node000001_Node000022"><a xlink:title=" ">
<path fill="none" stroke="#63b8ff" d="M353.49,-159.12C338.18,-134.04 307.35,-89.51 269,-65.5 258.99,-59.24 247,-55.03 235.61,-52.21"/>
<polygon fill="#63b8ff" stroke="#63b8ff" points="350.63,-161.16 358.74,-167.98 356.65,-157.59 350.63,-161.16"/>
</a>
</g>
</g>
<!-- Node24 -->
<g id="Node000024" class="node">
<title>Node24</title>
<g id="a_Node000024"><a xlink:href="walkthrough_8cpp.html#aff7ddc151473d418c066b30f06e6b42e" target="_top" xlink:title=" ">
<path fill="#fff0f0" stroke="red" d="M229.17,-19C229.17,-19 158.83,-19 158.83,-19 155.67,-19 152.5,-15.83 152.5,-12.67 152.5,-12.67 152.5,-6.33 152.5,-6.33 152.5,-3.17 155.67,0 158.83,0 158.83,0 229.17,0 229.17,0 232.33,0 235.5,-3.17 235.5,-6.33 235.5,-6.33 235.5,-12.67 235.5,-12.67 235.5,-15.83 232.33,-19 229.17,-19"/>
<text text-anchor="middle" x="194" y="-7" font-family="Helvetica,sans-Serif" font-size="10.00">walkthrough2</text>
</a>
</g>
</g>
<!-- Node1&#45;&gt;Node24 -->
<g id="edge11_Node000001_Node000024" class="edge">
<title>Node1&#45;&gt;Node24</title>
<g id="a_edge11_Node000001_Node000024"><a xlink:title=" ">
<path fill="none" stroke="#63b8ff" d="M357.11,-158.14C344.69,-126.07 315.42,-62.15 269,-28.5 259.33,-21.49 247.32,-17.07 235.8,-14.27"/>
<polygon fill="#63b8ff" stroke="#63b8ff" points="353.91,-159.55 360.68,-167.7 360.47,-157.11 353.91,-159.55"/>
</a>
</g>
</g>
<!-- Node15&#45;&gt;Node19 -->
<g id="edge7_Node000015_Node000019" class="edge">
<title>Node15&#45;&gt;Node19</title>
<g id="a_edge7_Node000015_Node000019"><a xlink:title=" ">
<path fill="none" stroke="#63b8ff" d="M157.43,-155.01C135.16,-152.2 106.4,-148.57 83.22,-145.64"/>
<polygon fill="#63b8ff" stroke="#63b8ff" points="157.11,-158.5 167.47,-156.28 157.99,-151.55 157.11,-158.5"/>
</a>
</g>
</g>
</g>
</svg>
