<?xml version="1.0" encoding="UTF-8" standalone="no"?>
<!DOCTYPE svg PUBLIC "-//W3C//DTD SVG 1.1//EN"
 "http://www.w3.org/Graphics/SVG/1.1/DTD/svg11.dtd">
<!-- Generated by graphviz version 2.43.0 (0)
 -->
<!-- Title: BiasVar Pages: 1 -->
<svg width="71pt" height="80pt"
 viewBox="0.00 0.00 71.00 80.00" xmlns="http://www.w3.org/2000/svg" xmlns:xlink="http://www.w3.org/1999/xlink">
<g id="graph0" class="graph" transform="scale(1 1) rotate(0) translate(4 76)">
<title>BiasVar</title>
<!-- Node1 -->
<g id="Node000001" class="node">
<title>Node1</title>
<g id="a_Node000001"><a xlink:href="structBiasVar.html" target="_top" xlink:title=" ">
<path fill="white" stroke="#666666" stroke-width="2" d="M51,-72C51,-72 12,-72 12,-72 6,-72 0,-66 0,-60 0,-60 0,-12 0,-12 0,-6 6,0 12,0 12,0 51,0 51,0 57,0 63,-6 63,-12 63,-12 63,-60 63,-60 63,-66 57,-72 51,-72"/>
<text text-anchor="start" x="13.5" y="-56" font-family="Helvetica,sans-Serif" font-size="10.00">BiasVar</text>
<text text-anchor="start" x="13.5" y="-41" font-family="Helvetica,sans-Serif" font-size="10.00">+</text>
<text text-anchor="start" x="27.5" y="-41" font-family="Helvetica,sans-Serif" font-size="10.00">bias</text>
<text text-anchor="start" x="13.5" y="-26" font-family="Helvetica,sans-Serif" font-size="10.00">+</text>
<text text-anchor="start" x="27.5" y="-26" font-family="Helvetica,sans-Serif" font-size="10.00">var</text>
<text text-anchor="start" x="30" y="-11" font-family="Helvetica,sans-Serif" font-size="10.00"> </text>
<polygon fill="#666666" stroke="#666666" points="8.5,-51 8.5,-51 55.5,-51 55.5,-51 8.5,-51"/>
<polygon fill="#666666" stroke="#666666" points="8.5,-21 8.5,-21 25.5,-21 25.5,-21 8.5,-21"/>
<polygon fill="#666666" stroke="#666666" points="25.5,-21 25.5,-21 55.5,-21 55.5,-21 25.5,-21"/>
<polygon fill="none" stroke="#666666" points="8,-4 8,-68 55,-68 55,-4 8,-4"/>
</a>
</g>
</g>
</g>
</svg>
