<?xml version="1.0" encoding="UTF-8" standalone="no"?>
<!DOCTYPE svg PUBLIC "-//W3C//DTD SVG 1.1//EN"
 "http://www.w3.org/Graphics/SVG/1.1/DTD/svg11.dtd">
<!-- Generated by graphviz version 2.43.0 (0)
 -->
<!-- Title: ConsoleLog::consume Pages: 1 -->
<svg width="278pt" height="56pt"
 viewBox="0.00 0.00 278.00 56.00" xmlns="http://www.w3.org/2000/svg" xmlns:xlink="http://www.w3.org/1999/xlink">
<g id="graph0" class="graph" transform="scale(1 1) rotate(0) translate(4 52)">
<title>ConsoleLog::consume</title>
<!-- Node1 -->
<g id="Node000001" class="node">
<title>Node1</title>
<g id="a_Node000001"><a xlink:href="structConsoleLog.html#a847be8802a82594b562ab5ddacc7164a" target="_top" xlink:title=" ">
<path fill="#fff0f0" stroke="red" stroke-width="2" d="M116.67,-24.5C116.67,-24.5 6.33,-24.5 6.33,-24.5 3.17,-24.5 0,-21.33 0,-18.17 0,-18.17 0,-11.83 0,-11.83 0,-8.67 3.17,-5.5 6.33,-5.5 6.33,-5.5 116.67,-5.5 116.67,-5.5 119.83,-5.5 123,-8.67 123,-11.83 123,-11.83 123,-18.17 123,-18.17 123,-21.33 119.83,-24.5 116.67,-24.5"/>
<text text-anchor="middle" x="61.5" y="-12.5" font-family="Helvetica,sans-Serif" font-size="10.00">ConsoleLog::consume</text>
</a>
</g>
</g>
<!-- Node2 -->
<g id="Node000002" class="node">
<title>Node2</title>
<g id="a_Node000002"><a xlink:href="structInteractiveTerminal.html#acaff8ba8e5700113836f7d680285996d" target="_top" xlink:title=" ">
<path fill="#fff0f0" stroke="red" d="M260,-30C260,-30 169,-30 169,-30 164,-30 159,-25 159,-20 159,-20 159,-10 159,-10 159,-5 164,0 169,0 169,0 260,0 260,0 265,0 270,-5 270,-10 270,-10 270,-20 270,-20 270,-25 265,-30 260,-30"/>
<text text-anchor="start" x="167" y="-18" font-family="Helvetica,sans-Serif" font-size="10.00">InteractiveTerminal</text>
<text text-anchor="middle" x="214.5" y="-7" font-family="Helvetica,sans-Serif" font-size="10.00">::addString</text>
</a>
</g>
</g>
<!-- Node1&#45;&gt;Node2 -->
<g id="edge1_Node000001_Node000002" class="edge">
<title>Node1&#45;&gt;Node2</title>
<g id="a_edge1_Node000001_Node000002"><a xlink:title=" ">
<path fill="none" stroke="#63b8ff" d="M123.05,-8.37C131.45,-8.23 140.1,-8.21 148.58,-8.31"/>
<polygon fill="#63b8ff" stroke="#63b8ff" points="148.74,-11.81 158.8,-8.48 148.86,-4.81 148.74,-11.81"/>
</a>
</g>
</g>
<!-- Node1&#45;&gt;Node2 -->
<g id="edge3_Node000001_Node000002" class="edge">
<title>Node1&#45;&gt;Node2</title>
<g id="a_edge3_Node000001_Node000002"><a xlink:title=" ">
<path fill="none" stroke="#63b8ff" d="M123.05,-21.63C131.45,-21.77 140.1,-21.79 148.58,-21.69"/>
<polygon fill="#63b8ff" stroke="#63b8ff" points="148.86,-25.19 158.8,-21.52 148.74,-18.19 148.86,-25.19"/>
</a>
</g>
</g>
<!-- Node2&#45;&gt;Node2 -->
<g id="edge2_Node000002_Node000002" class="edge">
<title>Node2&#45;&gt;Node2</title>
<g id="a_edge2_Node000002_Node000002"><a xlink:title=" ">
<path fill="none" stroke="#63b8ff" d="M187.78,-30.28C181.84,-39.41 190.75,-48 214.5,-48 228.6,-48 237.47,-44.97 241.11,-40.6"/>
<polygon fill="#63b8ff" stroke="#63b8ff" points="244.61,-40.31 241.22,-30.28 237.61,-40.24 244.61,-40.31"/>
</a>
</g>
</g>
</g>
</svg>
