<?xml version="1.0" encoding="UTF-8" standalone="no"?>
<!DOCTYPE svg PUBLIC "-//W3C//DTD SVG 1.1//EN"
 "http://www.w3.org/Graphics/SVG/1.1/DTD/svg11.dtd">
<!-- Generated by graphviz version 2.43.0 (0)
 -->
<!-- Title: Att Pages: 1 -->
<svg width="352pt" height="903pt"
 viewBox="0.00 0.00 351.88 903.00" xmlns="http://www.w3.org/2000/svg" xmlns:xlink="http://www.w3.org/1999/xlink">
<g id="graph0" class="graph" transform="scale(1 1) rotate(0) translate(4 899)">
<title>Att</title>
<!-- Node1 -->
<g id="Node000001" class="node">
<title>Node1</title>
<g id="a_Node000001"><a xlink:href="structAtt.html" target="_top" xlink:title="Satellite attitude.">
<path fill="white" stroke="#666666" stroke-width="2" d="M186.88,-72C186.88,-72 143.88,-72 143.88,-72 137.88,-72 131.88,-66 131.88,-60 131.88,-60 131.88,-12 131.88,-12 131.88,-6 137.88,0 143.88,0 143.88,0 186.88,0 186.88,0 192.88,0 198.88,-6 198.88,-12 198.88,-12 198.88,-60 198.88,-60 198.88,-66 192.88,-72 186.88,-72"/>
<text text-anchor="start" x="158.38" y="-56" font-family="Helvetica,sans-Serif" font-size="10.00">Att</text>
<text text-anchor="start" x="144.38" y="-41" font-family="Helvetica,sans-Serif" font-size="10.00">+</text>
<text text-anchor="start" x="157.38" y="-41" font-family="Helvetica,sans-Serif" font-size="10.00">index</text>
<text text-anchor="start" x="144.38" y="-26" font-family="Helvetica,sans-Serif" font-size="10.00">+</text>
<text text-anchor="start" x="157.38" y="-26" font-family="Helvetica,sans-Serif" font-size="10.00">frame</text>
<text text-anchor="start" x="163.88" y="-11" font-family="Helvetica,sans-Serif" font-size="10.00"> </text>
<polygon fill="#666666" stroke="#666666" points="140.38,-51 140.38,-51 191.38,-51 191.38,-51 140.38,-51"/>
<polygon fill="#666666" stroke="#666666" points="140.38,-21 140.38,-21 155.38,-21 155.38,-21 140.38,-21"/>
<polygon fill="#666666" stroke="#666666" points="155.38,-21 155.38,-21 191.38,-21 191.38,-21 155.38,-21"/>
<polygon fill="none" stroke="#666666" points="139.88,-4 139.88,-68 190.88,-68 190.88,-4 139.88,-4"/>
</a>
</g>
</g>
<!-- Node2 -->
<g id="Node000002" class="node">
<title>Node2</title>
<g id="a_Node000002"><a xlink:title=" ">
<path fill="white" stroke="#666666" d="M84.38,-895C84.38,-895 54.38,-895 54.38,-895 48.38,-895 42.38,-889 42.38,-883 42.38,-883 42.38,-850 42.38,-850 42.38,-844 48.38,-838 54.38,-838 54.38,-838 84.38,-838 84.38,-838 90.38,-838 96.38,-844 96.38,-850 96.38,-850 96.38,-883 96.38,-883 96.38,-889 90.38,-895 84.38,-895"/>
<text text-anchor="start" x="55.38" y="-878.5" font-family="Helvetica,sans-Serif" font-size="10.00">string</text>
<text text-anchor="start" x="67.38" y="-863.5" font-family="Helvetica,sans-Serif" font-size="10.00"> </text>
<text text-anchor="start" x="67.38" y="-848.5" font-family="Helvetica,sans-Serif" font-size="10.00"> </text>
<polygon fill="#666666" stroke="#666666" points="50.38,-873.5 50.38,-873.5 88.38,-873.5 88.38,-873.5 50.38,-873.5"/>
<polygon fill="#666666" stroke="#666666" points="50.38,-858.5 50.38,-858.5 88.38,-858.5 88.38,-858.5 50.38,-858.5"/>
<polygon fill="none" stroke="#666666" points="50.38,-842 50.38,-891 88.38,-891 88.38,-842 50.38,-842"/>
</a>
</g>
</g>
<!-- Node2&#45;&gt;Node1 -->
<g id="edge1_Node000001_Node000002" class="edge">
<title>Node2&#45;&gt;Node1</title>
<g id="a_edge1_Node000001_Node000002"><a xlink:title=" ">
<path fill="none" stroke="#63b8ff" d="M60.85,-837.86C31.03,-735.89 -60.32,-373.51 62.38,-119 74.66,-93.52 99.14,-73.51 121.15,-59.64"/>
<polygon fill="none" stroke="#63b8ff" points="121.4,-59.49 124.49,-52.98 131.69,-53.33 128.6,-59.84 121.4,-59.49"/>
</a>
</g>
<text text-anchor="middle" x="72.88" y="-452.5" font-family="Helvetica,sans-Serif" font-size="10.00" fill="grey"> +id</text>
</g>
<!-- Node3 -->
<g id="Node000003" class="node">
<title>Node3</title>
<g id="a_Node000003"><a xlink:href="structGTime.html" target="_top" xlink:title="Time structure used throughout this software.">
<path fill="white" stroke="#666666" d="M226.38,-791C226.38,-791 104.38,-791 104.38,-791 98.38,-791 92.38,-785 92.38,-779 92.38,-779 92.38,-131 92.38,-131 92.38,-125 98.38,-119 104.38,-119 104.38,-119 226.38,-119 226.38,-119 232.38,-119 238.38,-125 238.38,-131 238.38,-131 238.38,-779 238.38,-779 238.38,-785 232.38,-791 226.38,-791"/>
<text text-anchor="start" x="148.88" y="-775" font-family="Helvetica,sans-Serif" font-size="10.00">GTime</text>
<text text-anchor="start" x="104.38" y="-760" font-family="Helvetica,sans-Serif" font-size="10.00">+</text>
<text text-anchor="start" x="117.38" y="-760" font-family="Helvetica,sans-Serif" font-size="10.00">cacheN</text>
<text text-anchor="start" x="104.38" y="-745" font-family="Helvetica,sans-Serif" font-size="10.00">+</text>
<text text-anchor="start" x="117.38" y="-745" font-family="Helvetica,sans-Serif" font-size="10.00">cacheTime</text>
<text text-anchor="start" x="104.38" y="-730" font-family="Helvetica,sans-Serif" font-size="10.00">+</text>
<text text-anchor="start" x="117.38" y="-730" font-family="Helvetica,sans-Serif" font-size="10.00">bigTime</text>
<text text-anchor="start" x="104.38" y="-715" font-family="Helvetica,sans-Serif" font-size="10.00">+</text>
<text text-anchor="start" x="117.38" y="-715" font-family="Helvetica,sans-Serif" font-size="10.00">GTime()</text>
<text text-anchor="start" x="104.38" y="-700" font-family="Helvetica,sans-Serif" font-size="10.00">+</text>
<text text-anchor="start" x="117.38" y="-700" font-family="Helvetica,sans-Serif" font-size="10.00">GTime()</text>
<text text-anchor="start" x="104.38" y="-685" font-family="Helvetica,sans-Serif" font-size="10.00">+</text>
<text text-anchor="start" x="117.38" y="-685" font-family="Helvetica,sans-Serif" font-size="10.00">GTime()</text>
<text text-anchor="start" x="104.38" y="-670" font-family="Helvetica,sans-Serif" font-size="10.00">+</text>
<text text-anchor="start" x="117.38" y="-670" font-family="Helvetica,sans-Serif" font-size="10.00">to_string()</text>
<text text-anchor="start" x="104.38" y="-655" font-family="Helvetica,sans-Serif" font-size="10.00">+</text>
<text text-anchor="start" x="117.38" y="-655" font-family="Helvetica,sans-Serif" font-size="10.00">to_ISOstring()</text>
<text text-anchor="start" x="104.38" y="-640" font-family="Helvetica,sans-Serif" font-size="10.00">+</text>
<text text-anchor="start" x="117.38" y="-640" font-family="Helvetica,sans-Serif" font-size="10.00">to_decYear()</text>
<text text-anchor="start" x="104.38" y="-625" font-family="Helvetica,sans-Serif" font-size="10.00">+</text>
<text text-anchor="start" x="117.38" y="-625" font-family="Helvetica,sans-Serif" font-size="10.00">operator==()</text>
<text text-anchor="start" x="104.38" y="-610" font-family="Helvetica,sans-Serif" font-size="10.00">+</text>
<text text-anchor="start" x="117.38" y="-610" font-family="Helvetica,sans-Serif" font-size="10.00">operator!=()</text>
<text text-anchor="start" x="104.38" y="-595" font-family="Helvetica,sans-Serif" font-size="10.00">+</text>
<text text-anchor="start" x="117.38" y="-595" font-family="Helvetica,sans-Serif" font-size="10.00">operator&lt;()</text>
<text text-anchor="start" x="104.38" y="-580" font-family="Helvetica,sans-Serif" font-size="10.00">+</text>
<text text-anchor="start" x="117.38" y="-580" font-family="Helvetica,sans-Serif" font-size="10.00">operator&gt;()</text>
<text text-anchor="start" x="104.38" y="-565" font-family="Helvetica,sans-Serif" font-size="10.00">+</text>
<text text-anchor="start" x="117.38" y="-565" font-family="Helvetica,sans-Serif" font-size="10.00">operator&gt;=()</text>
<text text-anchor="start" x="104.38" y="-550" font-family="Helvetica,sans-Serif" font-size="10.00">+</text>
<text text-anchor="start" x="117.38" y="-550" font-family="Helvetica,sans-Serif" font-size="10.00">operator+()</text>
<text text-anchor="start" x="104.38" y="-535" font-family="Helvetica,sans-Serif" font-size="10.00">+</text>
<text text-anchor="start" x="117.38" y="-535" font-family="Helvetica,sans-Serif" font-size="10.00">operator+()</text>
<text text-anchor="start" x="104.38" y="-520" font-family="Helvetica,sans-Serif" font-size="10.00">+</text>
<text text-anchor="start" x="117.38" y="-520" font-family="Helvetica,sans-Serif" font-size="10.00">operator+()</text>
<text text-anchor="start" x="104.38" y="-505" font-family="Helvetica,sans-Serif" font-size="10.00">+</text>
<text text-anchor="start" x="117.38" y="-505" font-family="Helvetica,sans-Serif" font-size="10.00">operator+=()</text>
<text text-anchor="start" x="104.38" y="-490" font-family="Helvetica,sans-Serif" font-size="10.00">+</text>
<text text-anchor="start" x="117.38" y="-490" font-family="Helvetica,sans-Serif" font-size="10.00">operator&#45;=()</text>
<text text-anchor="start" x="104.38" y="-475" font-family="Helvetica,sans-Serif" font-size="10.00">+</text>
<text text-anchor="start" x="117.38" y="-475" font-family="Helvetica,sans-Serif" font-size="10.00">operator&#45;()</text>
<text text-anchor="start" x="104.38" y="-460" font-family="Helvetica,sans-Serif" font-size="10.00">+</text>
<text text-anchor="start" x="117.38" y="-460" font-family="Helvetica,sans-Serif" font-size="10.00">operator&#45;()</text>
<text text-anchor="start" x="104.38" y="-445" font-family="Helvetica,sans-Serif" font-size="10.00">+</text>
<text text-anchor="start" x="117.38" y="-445" font-family="Helvetica,sans-Serif" font-size="10.00">operator&#45;()</text>
<text text-anchor="start" x="104.38" y="-430" font-family="Helvetica,sans-Serif" font-size="10.00">+</text>
<text text-anchor="start" x="117.38" y="-430" font-family="Helvetica,sans-Serif" font-size="10.00">operator++()</text>
<text text-anchor="start" x="104.38" y="-415" font-family="Helvetica,sans-Serif" font-size="10.00">+</text>
<text text-anchor="start" x="117.38" y="-415" font-family="Helvetica,sans-Serif" font-size="10.00">GTime()</text>
<text text-anchor="start" x="104.38" y="-400" font-family="Helvetica,sans-Serif" font-size="10.00">+</text>
<text text-anchor="start" x="117.38" y="-400" font-family="Helvetica,sans-Serif" font-size="10.00">GTime()</text>
<text text-anchor="start" x="104.38" y="-385" font-family="Helvetica,sans-Serif" font-size="10.00">+</text>
<text text-anchor="start" x="117.38" y="-385" font-family="Helvetica,sans-Serif" font-size="10.00">GTime()</text>
<text text-anchor="start" x="104.38" y="-370" font-family="Helvetica,sans-Serif" font-size="10.00">+</text>
<text text-anchor="start" x="117.38" y="-370" font-family="Helvetica,sans-Serif" font-size="10.00">GTime()</text>
<text text-anchor="start" x="104.38" y="-355" font-family="Helvetica,sans-Serif" font-size="10.00">+</text>
<text text-anchor="start" x="117.38" y="-355" font-family="Helvetica,sans-Serif" font-size="10.00">GTime()</text>
<text text-anchor="start" x="104.38" y="-340" font-family="Helvetica,sans-Serif" font-size="10.00">+</text>
<text text-anchor="start" x="117.38" y="-340" font-family="Helvetica,sans-Serif" font-size="10.00">serialize()</text>
<text text-anchor="start" x="104.38" y="-325" font-family="Helvetica,sans-Serif" font-size="10.00">+</text>
<text text-anchor="start" x="117.38" y="-325" font-family="Helvetica,sans-Serif" font-size="10.00">floorTime()</text>
<text text-anchor="start" x="104.38" y="-310" font-family="Helvetica,sans-Serif" font-size="10.00">+</text>
<text text-anchor="start" x="117.38" y="-310" font-family="Helvetica,sans-Serif" font-size="10.00">gregString()</text>
<text text-anchor="start" x="104.38" y="-295" font-family="Helvetica,sans-Serif" font-size="10.00">+</text>
<text text-anchor="start" x="117.38" y="-295" font-family="Helvetica,sans-Serif" font-size="10.00">operator long double()</text>
<text text-anchor="start" x="104.38" y="-280" font-family="Helvetica,sans-Serif" font-size="10.00">+</text>
<text text-anchor="start" x="117.38" y="-280" font-family="Helvetica,sans-Serif" font-size="10.00">operator MjDateTT()</text>
<text text-anchor="start" x="104.38" y="-265" font-family="Helvetica,sans-Serif" font-size="10.00">+</text>
<text text-anchor="start" x="117.38" y="-265" font-family="Helvetica,sans-Serif" font-size="10.00">operator GEpoch()</text>
<text text-anchor="start" x="104.38" y="-250" font-family="Helvetica,sans-Serif" font-size="10.00">+</text>
<text text-anchor="start" x="117.38" y="-250" font-family="Helvetica,sans-Serif" font-size="10.00">operator UtcTime()</text>
<text text-anchor="start" x="104.38" y="-235" font-family="Helvetica,sans-Serif" font-size="10.00">+</text>
<text text-anchor="start" x="117.38" y="-235" font-family="Helvetica,sans-Serif" font-size="10.00">operator GWeek()</text>
<text text-anchor="start" x="104.38" y="-220" font-family="Helvetica,sans-Serif" font-size="10.00">+</text>
<text text-anchor="start" x="117.38" y="-220" font-family="Helvetica,sans-Serif" font-size="10.00">operator BWeek()</text>
<text text-anchor="start" x="104.38" y="-205" font-family="Helvetica,sans-Serif" font-size="10.00">+</text>
<text text-anchor="start" x="117.38" y="-205" font-family="Helvetica,sans-Serif" font-size="10.00">operator GTow()</text>
<text text-anchor="start" x="104.38" y="-190" font-family="Helvetica,sans-Serif" font-size="10.00">+</text>
<text text-anchor="start" x="117.38" y="-190" font-family="Helvetica,sans-Serif" font-size="10.00">operator BTow()</text>
<text text-anchor="start" x="104.38" y="-175" font-family="Helvetica,sans-Serif" font-size="10.00">+</text>
<text text-anchor="start" x="117.38" y="-175" font-family="Helvetica,sans-Serif" font-size="10.00">operator PTime()</text>
<text text-anchor="start" x="104.38" y="-160" font-family="Helvetica,sans-Serif" font-size="10.00">+</text>
<text text-anchor="start" x="117.38" y="-160" font-family="Helvetica,sans-Serif" font-size="10.00">operator string()</text>
<text text-anchor="start" x="104.38" y="-145" font-family="Helvetica,sans-Serif" font-size="10.00">+</text>
<text text-anchor="start" x="117.38" y="-145" font-family="Helvetica,sans-Serif" font-size="10.00">operator RTod()</text>
<text text-anchor="start" x="104.38" y="-130" font-family="Helvetica,sans-Serif" font-size="10.00">+</text>
<text text-anchor="start" x="117.38" y="-130" font-family="Helvetica,sans-Serif" font-size="10.00">noTime()</text>
<polygon fill="#666666" stroke="#666666" points="100.38,-770 100.38,-770 230.38,-770 230.38,-770 100.38,-770"/>
<polygon fill="#666666" stroke="#666666" points="100.38,-725 100.38,-725 115.38,-725 115.38,-725 100.38,-725"/>
<polygon fill="#666666" stroke="#666666" points="115.38,-725 115.38,-725 230.38,-725 230.38,-725 115.38,-725"/>
<polygon fill="none" stroke="#666666" points="100.38,-123 100.38,-787 230.38,-787 230.38,-123 100.38,-123"/>
</a>
</g>
</g>
<!-- Node2&#45;&gt;Node3 -->
<g id="edge3_Node000003_Node000002" class="edge">
<title>Node2&#45;&gt;Node3</title>
<g id="a_edge3_Node000003_Node000002"><a xlink:title=" ">
<path fill="none" stroke="#63b8ff" d="M75.83,-838C79.33,-823.05 84.07,-802.84 89.54,-779.48"/>
<polygon fill="none" stroke="#63b8ff" points="89.55,-779.46 87.03,-772.7 92.29,-767.77 94.81,-774.53 89.55,-779.46"/>
</a>
</g>
<text text-anchor="middle" x="115.88" y="-812" font-family="Helvetica,sans-Serif" font-size="10.00" fill="grey"> +cacheString</text>
</g>
<!-- Node3&#45;&gt;Node1 -->
<g id="edge2_Node000001_Node000003" class="edge">
<title>Node3&#45;&gt;Node1</title>
<g id="a_edge2_Node000001_Node000003"><a xlink:title=" ">
<path fill="none" stroke="#63b8ff" d="M165.38,-118.89C165.38,-106.31 165.38,-94.72 165.38,-84.46"/>
<polygon fill="none" stroke="#63b8ff" points="165.38,-84.2 161.38,-78.2 165.38,-72.2 169.38,-78.2 165.38,-84.2"/>
</a>
</g>
<text text-anchor="middle" x="182.38" y="-93" font-family="Helvetica,sans-Serif" font-size="10.00" fill="grey"> +time</text>
</g>
<!-- Node4 -->
<g id="Node000004" class="node">
<title>Node4</title>
<g id="a_Node000004"><a xlink:title=" ">
<path fill="white" stroke="#666666" d="M331.88,-483.5C331.88,-483.5 268.88,-483.5 268.88,-483.5 262.88,-483.5 256.88,-477.5 256.88,-471.5 256.88,-471.5 256.88,-438.5 256.88,-438.5 256.88,-432.5 262.88,-426.5 268.88,-426.5 268.88,-426.5 331.88,-426.5 331.88,-426.5 337.88,-426.5 343.88,-432.5 343.88,-438.5 343.88,-438.5 343.88,-471.5 343.88,-471.5 343.88,-477.5 337.88,-483.5 331.88,-483.5"/>
<text text-anchor="start" x="270.38" y="-467" font-family="Helvetica,sans-Serif" font-size="10.00">Quaterniond</text>
<text text-anchor="start" x="298.88" y="-452" font-family="Helvetica,sans-Serif" font-size="10.00"> </text>
<text text-anchor="start" x="298.88" y="-437" font-family="Helvetica,sans-Serif" font-size="10.00"> </text>
<polygon fill="#666666" stroke="#666666" points="265.38,-462 265.38,-462 336.38,-462 336.38,-462 265.38,-462"/>
<polygon fill="#666666" stroke="#666666" points="265.38,-447 265.38,-447 336.38,-447 336.38,-447 265.38,-447"/>
<polygon fill="none" stroke="#666666" points="264.88,-430.5 264.88,-479.5 335.88,-479.5 335.88,-430.5 264.88,-430.5"/>
</a>
</g>
</g>
<!-- Node4&#45;&gt;Node1 -->
<g id="edge4_Node000001_Node000004" class="edge">
<title>Node4&#45;&gt;Node1</title>
<g id="a_edge4_Node000001_Node000004"><a xlink:title=" ">
<path fill="none" stroke="#63b8ff" d="M301.6,-426.2C303.06,-366.47 300.3,-222.89 247.38,-119 238,-100.58 222.95,-83.74 208.29,-70.18"/>
<polygon fill="none" stroke="#63b8ff" points="208.24,-70.14 201.1,-69.15 199.26,-62.18 206.41,-63.17 208.24,-70.14"/>
</a>
</g>
<text text-anchor="middle" x="244.38" y="-93" font-family="Helvetica,sans-Serif" font-size="10.00" fill="grey"> +q</text>
</g>
</g>
</svg>
