<?xml version="1.0" encoding="UTF-8" standalone="no"?>
<!DOCTYPE svg PUBLIC "-//W3C//DTD SVG 1.1//EN"
 "http://www.w3.org/Graphics/SVG/1.1/DTD/svg11.dtd">
<!-- Generated by graphviz version 2.43.0 (0)
 -->
<!-- Title: KFMeasEntry::addNoiseEntry Pages: 1 -->
<svg width="339pt" height="397pt"
 viewBox="0.00 0.00 339.00 397.00" xmlns="http://www.w3.org/2000/svg" xmlns:xlink="http://www.w3.org/1999/xlink">
<g id="graph0" class="graph" transform="scale(1 1) rotate(0) translate(4 393)">
<title>KFMeasEntry::addNoiseEntry</title>
<!-- Node1 -->
<g id="Node000001" class="node">
<title>Node1</title>
<g id="a_Node000001"><a xlink:href="structKFMeasEntry.html#a7b34625115c46a7943e1ac8ffb7478e9" target="_top" xlink:title="Adds a noise element for this measurement.">
<path fill="#fff0f0" stroke="red" stroke-width="2" d="M324.67,-204C324.67,-204 179.33,-204 179.33,-204 176.17,-204 173,-200.83 173,-197.67 173,-197.67 173,-191.33 173,-191.33 173,-188.17 176.17,-185 179.33,-185 179.33,-185 324.67,-185 324.67,-185 327.83,-185 331,-188.17 331,-191.33 331,-191.33 331,-197.67 331,-197.67 331,-200.83 327.83,-204 324.67,-204"/>
<text text-anchor="middle" x="252" y="-192" font-family="Helvetica,sans-Serif" font-size="10.00">KFMeasEntry::addNoiseEntry</text>
</a>
</g>
</g>
<!-- Node2 -->
<g id="Node000002" class="node">
<title>Node2</title>
<g id="a_Node000002"><a xlink:href="ppp__pseudoobs_8cpp.html#a02995a7f24f39419730eea3b664553cf" target="_top" xlink:title=" ">
<path fill="#fff0f0" stroke="red" d="M111.17,-389C111.17,-389 25.83,-389 25.83,-389 22.67,-389 19.5,-385.83 19.5,-382.67 19.5,-382.67 19.5,-376.33 19.5,-376.33 19.5,-373.17 22.67,-370 25.83,-370 25.83,-370 111.17,-370 111.17,-370 114.33,-370 117.5,-373.17 117.5,-376.33 117.5,-376.33 117.5,-382.67 117.5,-382.67 117.5,-385.83 114.33,-389 111.17,-389"/>
<text text-anchor="middle" x="68.5" y="-377" font-family="Helvetica,sans-Serif" font-size="10.00">ambgPseudoObs</text>
</a>
</g>
</g>
<!-- Node1&#45;&gt;Node2 -->
<g id="edge1_Node000001_Node000002" class="edge">
<title>Node1&#45;&gt;Node2</title>
<g id="a_edge1_Node000001_Node000002"><a xlink:title=" ">
<path fill="none" stroke="#63b8ff" d="M243.32,-213.72C228.33,-248.69 191.78,-322.7 137,-361.5 131.16,-365.64 124.43,-368.82 117.52,-371.27"/>
<polygon fill="#63b8ff" stroke="#63b8ff" points="246.67,-214.78 247.27,-204.2 240.2,-212.09 246.67,-214.78"/>
</a>
</g>
</g>
<!-- Node7 -->
<g id="Node000007" class="node">
<title>Node7</title>
<g id="a_Node000007"><a xlink:href="ppp__ambres_8cpp.html#a604fb46557eb8261b38abf76fb147433" target="_top" xlink:title=" ">
<path fill="#fff0f0" stroke="red" d="M120.17,-352C120.17,-352 16.83,-352 16.83,-352 13.67,-352 10.5,-348.83 10.5,-345.67 10.5,-345.67 10.5,-339.33 10.5,-339.33 10.5,-336.17 13.67,-333 16.83,-333 16.83,-333 120.17,-333 120.17,-333 123.33,-333 126.5,-336.17 126.5,-339.33 126.5,-339.33 126.5,-345.67 126.5,-345.67 126.5,-348.83 123.33,-352 120.17,-352"/>
<text text-anchor="middle" x="68.5" y="-340" font-family="Helvetica,sans-Serif" font-size="10.00">applyUCAmbiguities</text>
</a>
</g>
</g>
<!-- Node1&#45;&gt;Node7 -->
<g id="edge2_Node000001_Node000007" class="edge">
<title>Node1&#45;&gt;Node7</title>
<g id="a_edge2_Node000001_Node000007"><a xlink:title=" ">
<path fill="none" stroke="#63b8ff" d="M239.97,-212.94C222.03,-241.32 183.76,-295.46 137,-324.5 131.54,-327.89 125.45,-330.65 119.22,-332.89"/>
<polygon fill="#63b8ff" stroke="#63b8ff" points="243.18,-214.41 245.45,-204.06 237.22,-210.73 243.18,-214.41"/>
</a>
</g>
</g>
<!-- Node13 -->
<g id="Node000013" class="node">
<title>Node13</title>
<g id="a_Node000013"><a xlink:href="ppp__pseudoobs_8cpp.html#a2851c6a4dfd04eb338a17257bfc2b865" target="_top" xlink:title=" ">
<path fill="#fff0f0" stroke="red" d="M108.67,-315C108.67,-315 28.33,-315 28.33,-315 25.17,-315 22,-311.83 22,-308.67 22,-308.67 22,-302.33 22,-302.33 22,-299.17 25.17,-296 28.33,-296 28.33,-296 108.67,-296 108.67,-296 111.83,-296 115,-299.17 115,-302.33 115,-302.33 115,-308.67 115,-308.67 115,-311.83 111.83,-315 108.67,-315"/>
<text text-anchor="middle" x="68.5" y="-303" font-family="Helvetica,sans-Serif" font-size="10.00">filterPseudoObs</text>
</a>
</g>
</g>
<!-- Node1&#45;&gt;Node13 -->
<g id="edge3_Node000001_Node000013" class="edge">
<title>Node1&#45;&gt;Node13</title>
<g id="a_edge3_Node000001_Node000013"><a xlink:title=" ">
<path fill="none" stroke="#63b8ff" d="M234.88,-211.5C214.14,-232.39 176.13,-267.51 137,-287.5 130.2,-290.98 122.65,-293.83 115.15,-296.16"/>
<polygon fill="#63b8ff" stroke="#63b8ff" points="237.47,-213.86 241.94,-204.25 232.46,-208.97 237.47,-213.86"/>
</a>
</g>
</g>
<!-- Node14 -->
<g id="Node000014" class="node">
<title>Node14</title>
<g id="a_Node000014"><a xlink:href="debug_8cpp.html#a6b386ae3f1e24bab3a4c831fa043a400" target="_top" xlink:title=" ">
<path fill="#fff0f0" stroke="red" d="M97.17,-278C97.17,-278 39.83,-278 39.83,-278 36.67,-278 33.5,-274.83 33.5,-271.67 33.5,-271.67 33.5,-265.33 33.5,-265.33 33.5,-262.17 36.67,-259 39.83,-259 39.83,-259 97.17,-259 97.17,-259 100.33,-259 103.5,-262.17 103.5,-265.33 103.5,-265.33 103.5,-271.67 103.5,-271.67 103.5,-274.83 100.33,-278 97.17,-278"/>
<text text-anchor="middle" x="68.5" y="-266" font-family="Helvetica,sans-Serif" font-size="10.00">infiniteTest</text>
</a>
</g>
</g>
<!-- Node1&#45;&gt;Node14 -->
<g id="edge4_Node000001_Node000014" class="edge">
<title>Node1&#45;&gt;Node14</title>
<g id="a_edge4_Node000001_Node000014"><a xlink:title=" ">
<path fill="none" stroke="#63b8ff" d="M225.1,-209.05C202.41,-221.34 168.26,-238.78 137,-250.5 126.32,-254.5 114.39,-257.99 103.56,-260.81"/>
<polygon fill="#63b8ff" stroke="#63b8ff" points="227,-212 234.08,-204.12 223.63,-205.86 227,-212"/>
</a>
</g>
</g>
<!-- Node15 -->
<g id="Node000015" class="node">
<title>Node15</title>
<g id="a_Node000015"><a xlink:href="ppp__pseudoobs_8cpp.html#ae73c509527efa6401eb80a02825fb7fd" target="_top" xlink:title=" ">
<path fill="#fff0f0" stroke="red" d="M108.17,-241C108.17,-241 28.83,-241 28.83,-241 25.67,-241 22.5,-237.83 22.5,-234.67 22.5,-234.67 22.5,-228.33 22.5,-228.33 22.5,-225.17 25.67,-222 28.83,-222 28.83,-222 108.17,-222 108.17,-222 111.33,-222 114.5,-225.17 114.5,-228.33 114.5,-228.33 114.5,-234.67 114.5,-234.67 114.5,-237.83 111.33,-241 108.17,-241"/>
<text text-anchor="middle" x="68.5" y="-229" font-family="Helvetica,sans-Serif" font-size="10.00">ionoPseudoObs</text>
</a>
</g>
</g>
<!-- Node1&#45;&gt;Node15 -->
<g id="edge5_Node000001_Node000015" class="edge">
<title>Node1&#45;&gt;Node15</title>
<g id="a_edge5_Node000001_Node000015"><a xlink:title=" ">
<path fill="none" stroke="#63b8ff" d="M194.28,-206.06C168.58,-211.3 138.63,-217.41 114.52,-222.32"/>
<polygon fill="#63b8ff" stroke="#63b8ff" points="195.16,-209.46 204.26,-204.03 193.76,-202.6 195.16,-209.46"/>
</a>
</g>
</g>
<!-- Node16 -->
<g id="Node000016" class="node">
<title>Node16</title>
<g id="a_Node000016"><a xlink:href="ppp__pseudoobs_8cpp.html#a49ce4050de278a66c933406b92bbbf39" target="_top" xlink:title=" ">
<path fill="#fff0f0" stroke="red" d="M108.67,-204C108.67,-204 28.33,-204 28.33,-204 25.17,-204 22,-200.83 22,-197.67 22,-197.67 22,-191.33 22,-191.33 22,-188.17 25.17,-185 28.33,-185 28.33,-185 108.67,-185 108.67,-185 111.83,-185 115,-188.17 115,-191.33 115,-191.33 115,-197.67 115,-197.67 115,-200.83 111.83,-204 108.67,-204"/>
<text text-anchor="middle" x="68.5" y="-192" font-family="Helvetica,sans-Serif" font-size="10.00">orbitPseudoObs</text>
</a>
</g>
</g>
<!-- Node1&#45;&gt;Node16 -->
<g id="edge6_Node000001_Node000016" class="edge">
<title>Node1&#45;&gt;Node16</title>
<g id="a_edge6_Node000001_Node000016"><a xlink:title=" ">
<path fill="none" stroke="#63b8ff" d="M162.77,-194.5C146.32,-194.5 129.76,-194.5 115.25,-194.5"/>
<polygon fill="#63b8ff" stroke="#63b8ff" points="162.97,-198 172.97,-194.5 162.97,-191 162.97,-198"/>
</a>
</g>
</g>
<!-- Node17 -->
<g id="Node000017" class="node">
<title>Node17</title>
<g id="a_Node000017"><a xlink:href="ppp__pseudoobs_8cpp.html#accfefc993178e71db6783bbe525342a7" target="_top" xlink:title=" ">
<path fill="#fff0f0" stroke="red" d="M106.67,-167C106.67,-167 30.33,-167 30.33,-167 27.17,-167 24,-163.83 24,-160.67 24,-160.67 24,-154.33 24,-154.33 24,-151.17 27.17,-148 30.33,-148 30.33,-148 106.67,-148 106.67,-148 109.83,-148 113,-151.17 113,-154.33 113,-154.33 113,-160.67 113,-160.67 113,-163.83 109.83,-167 106.67,-167"/>
<text text-anchor="middle" x="68.5" y="-155" font-family="Helvetica,sans-Serif" font-size="10.00">pseudoRecDcb</text>
</a>
</g>
</g>
<!-- Node1&#45;&gt;Node17 -->
<g id="edge7_Node000001_Node000017" class="edge">
<title>Node1&#45;&gt;Node17</title>
<g id="a_edge7_Node000001_Node000017"><a xlink:title=" ">
<path fill="none" stroke="#63b8ff" d="M194.12,-182.9C168.02,-177.58 137.55,-171.37 113.28,-166.42"/>
<polygon fill="#63b8ff" stroke="#63b8ff" points="193.76,-186.4 204.26,-184.97 195.16,-179.54 193.76,-186.4"/>
</a>
</g>
</g>
<!-- Node18 -->
<g id="Node000018" class="node">
<title>Node18</title>
<g id="a_Node000018"><a xlink:href="ppp__obs_8cpp.html#aa9dc8925a7e4b904e12660d44616f1fc" target="_top" xlink:title=" ">
<path fill="#fff0f0" stroke="red" d="M99.17,-130C99.17,-130 37.83,-130 37.83,-130 34.67,-130 31.5,-126.83 31.5,-123.67 31.5,-123.67 31.5,-117.33 31.5,-117.33 31.5,-114.17 34.67,-111 37.83,-111 37.83,-111 99.17,-111 99.17,-111 102.33,-111 105.5,-114.17 105.5,-117.33 105.5,-117.33 105.5,-123.67 105.5,-123.67 105.5,-126.83 102.33,-130 99.17,-130"/>
<text text-anchor="middle" x="68.5" y="-118" font-family="Helvetica,sans-Serif" font-size="10.00">receiverPPP</text>
</a>
</g>
</g>
<!-- Node1&#45;&gt;Node18 -->
<g id="edge8_Node000001_Node000018" class="edge">
<title>Node1&#45;&gt;Node18</title>
<g id="a_edge8_Node000001_Node000018"><a xlink:title=" ">
<path fill="none" stroke="#63b8ff" d="M224.63,-180.14C201.89,-168.16 167.93,-151.21 137,-139.5 126.98,-135.71 115.87,-132.28 105.61,-129.41"/>
<polygon fill="#63b8ff" stroke="#63b8ff" points="223.18,-183.33 233.65,-184.94 226.47,-177.15 223.18,-183.33"/>
</a>
</g>
</g>
<!-- Node19 -->
<g id="Node000019" class="node">
<title>Node19</title>
<g id="a_Node000019"><a xlink:href="ppp__slr_8cpp.html#a0f53eb82b1b0572a1aabec8b6fe5a6ad" target="_top" xlink:title=" ">
<path fill="#fff0f0" stroke="red" d="M96.67,-93C96.67,-93 40.33,-93 40.33,-93 37.17,-93 34,-89.83 34,-86.67 34,-86.67 34,-80.33 34,-80.33 34,-77.17 37.17,-74 40.33,-74 40.33,-74 96.67,-74 96.67,-74 99.83,-74 103,-77.17 103,-80.33 103,-80.33 103,-86.67 103,-86.67 103,-89.83 99.83,-93 96.67,-93"/>
<text text-anchor="middle" x="68.5" y="-81" font-family="Helvetica,sans-Serif" font-size="10.00">receiverSlr</text>
</a>
</g>
</g>
<!-- Node1&#45;&gt;Node19 -->
<g id="edge9_Node000001_Node000019" class="edge">
<title>Node1&#45;&gt;Node19</title>
<g id="a_edge9_Node000001_Node000019"><a xlink:title=" ">
<path fill="none" stroke="#63b8ff" d="M234.8,-177.78C213.98,-157.21 175.87,-122.57 137,-102.5 126.51,-97.08 114.28,-93.04 103.13,-90.11"/>
<polygon fill="#63b8ff" stroke="#63b8ff" points="232.36,-180.29 241.89,-184.91 237.32,-175.35 232.36,-180.29"/>
</a>
</g>
</g>
<!-- Node20 -->
<g id="Node000020" class="node">
<title>Node20</title>
<g id="a_Node000020"><a xlink:href="ppp__pseudoobs_8cpp.html#a52383a80aee53c1d20ad7952dc63ce17" target="_top" xlink:title=" ">
<path fill="#fff0f0" stroke="red" d="M130.67,-56C130.67,-56 6.33,-56 6.33,-56 3.17,-56 0,-52.83 0,-49.67 0,-49.67 0,-43.33 0,-43.33 0,-40.17 3.17,-37 6.33,-37 6.33,-37 130.67,-37 130.67,-37 133.83,-37 137,-40.17 137,-43.33 137,-43.33 137,-49.67 137,-49.67 137,-52.83 133.83,-56 130.67,-56"/>
<text text-anchor="middle" x="68.5" y="-44" font-family="Helvetica,sans-Serif" font-size="10.00">satClockPivotPseudoObs</text>
</a>
</g>
</g>
<!-- Node1&#45;&gt;Node20 -->
<g id="edge10_Node000001_Node000020" class="edge">
<title>Node1&#45;&gt;Node20</title>
<g id="a_edge10_Node000001_Node000020"><a xlink:title=" ">
<path fill="none" stroke="#63b8ff" d="M239.86,-176.24C221.79,-148.17 183.39,-94.63 137,-65.5 130.81,-61.62 123.82,-58.51 116.74,-56.03"/>
<polygon fill="#63b8ff" stroke="#63b8ff" points="236.9,-178.11 245.19,-184.71 242.83,-174.38 236.9,-178.11"/>
</a>
</g>
</g>
<!-- Node21 -->
<g id="Node000021" class="node">
<title>Node21</title>
<g id="a_Node000021"><a xlink:href="ppp__pseudoobs_8cpp.html#a0df461e27bceaa75ec50285c2abf8f27" target="_top" xlink:title=" ">
<path fill="#fff0f0" stroke="red" d="M107.17,-19C107.17,-19 29.83,-19 29.83,-19 26.67,-19 23.5,-15.83 23.5,-12.67 23.5,-12.67 23.5,-6.33 23.5,-6.33 23.5,-3.17 26.67,0 29.83,0 29.83,0 107.17,0 107.17,0 110.33,0 113.5,-3.17 113.5,-6.33 113.5,-6.33 113.5,-12.67 113.5,-12.67 113.5,-15.83 110.33,-19 107.17,-19"/>
<text text-anchor="middle" x="68.5" y="-7" font-family="Helvetica,sans-Serif" font-size="10.00">tropPseudoObs</text>
</a>
</g>
</g>
<!-- Node1&#45;&gt;Node21 -->
<g id="edge11_Node000001_Node000021" class="edge">
<title>Node1&#45;&gt;Node21</title>
<g id="a_edge11_Node000001_Node000021"><a xlink:title=" ">
<path fill="none" stroke="#63b8ff" d="M243.23,-175.47C228.11,-140.82 191.34,-67.44 137,-28.5 130.07,-23.54 121.89,-19.87 113.65,-17.15"/>
<polygon fill="#63b8ff" stroke="#63b8ff" points="240.11,-177.06 247.23,-184.9 246.55,-174.33 240.11,-177.06"/>
</a>
</g>
</g>
</g>
</svg>
