<?xml version="1.0" encoding="UTF-8" standalone="no"?>
<!DOCTYPE svg PUBLIC "-//W3C//DTD SVG 1.1//EN"
 "http://www.w3.org/Graphics/SVG/1.1/DTD/svg11.dtd">
<!-- Generated by graphviz version 2.43.0 (0)
 -->
<!-- Title: Vector3dInit Pages: 1 -->
<svg width="112pt" height="173pt"
 viewBox="0.00 0.00 112.00 173.00" xmlns="http://www.w3.org/2000/svg" xmlns:xlink="http://www.w3.org/1999/xlink">
<g id="graph0" class="graph" transform="scale(1 1) rotate(0) translate(4 169)">
<title>Vector3dInit</title>
<!-- Node1 -->
<g id="Node000001" class="node">
<title>Node1</title>
<g id="a_Node000001"><a xlink:href="structVector3dInit.html" target="_top" xlink:title=" ">
<path fill="white" stroke="#666666" stroke-width="2" d="M92,-72C92,-72 12,-72 12,-72 6,-72 0,-66 0,-60 0,-60 0,-12 0,-12 0,-6 6,0 12,0 12,0 92,0 92,0 98,0 104,-6 104,-12 104,-12 104,-60 104,-60 104,-66 98,-72 92,-72"/>
<text text-anchor="start" x="22.5" y="-56" font-family="Helvetica,sans-Serif" font-size="10.00">Vector3dInit</text>
<text text-anchor="start" x="50" y="-41" font-family="Helvetica,sans-Serif" font-size="10.00"> </text>
<text text-anchor="start" x="12" y="-26" font-family="Helvetica,sans-Serif" font-size="10.00">+</text>
<text text-anchor="start" x="25" y="-26" font-family="Helvetica,sans-Serif" font-size="10.00">Vector3dInit()</text>
<text text-anchor="start" x="12" y="-11" font-family="Helvetica,sans-Serif" font-size="10.00">+</text>
<text text-anchor="start" x="25" y="-11" font-family="Helvetica,sans-Serif" font-size="10.00">operator=()</text>
<polygon fill="#666666" stroke="#666666" points="8,-51 8,-51 96,-51 96,-51 8,-51"/>
<polygon fill="#666666" stroke="#666666" points="8,-36 8,-36 96,-36 96,-36 8,-36"/>
<polygon fill="none" stroke="#666666" points="8,-4 8,-68 96,-68 96,-4 8,-4"/>
</a>
</g>
</g>
<!-- Node2 -->
<g id="Node000002" class="node">
<title>Node2</title>
<g id="a_Node000002"><a xlink:title=" ">
<path fill="white" stroke="#666666" d="M74.5,-165C74.5,-165 29.5,-165 29.5,-165 23.5,-165 17.5,-159 17.5,-153 17.5,-153 17.5,-120 17.5,-120 17.5,-114 23.5,-108 29.5,-108 29.5,-108 74.5,-108 74.5,-108 80.5,-108 86.5,-114 86.5,-120 86.5,-120 86.5,-153 86.5,-153 86.5,-159 80.5,-165 74.5,-165"/>
<text text-anchor="start" x="31" y="-148.5" font-family="Helvetica,sans-Serif" font-size="10.00">Vector3d</text>
<text text-anchor="start" x="50.5" y="-133.5" font-family="Helvetica,sans-Serif" font-size="10.00"> </text>
<text text-anchor="start" x="50.5" y="-118.5" font-family="Helvetica,sans-Serif" font-size="10.00"> </text>
<polygon fill="#666666" stroke="#666666" points="26,-143.5 26,-143.5 79,-143.5 79,-143.5 26,-143.5"/>
<polygon fill="#666666" stroke="#666666" points="26,-128.5 26,-128.5 79,-128.5 79,-128.5 26,-128.5"/>
<polygon fill="none" stroke="#666666" points="25.5,-112 25.5,-161 78.5,-161 78.5,-112 25.5,-112"/>
</a>
</g>
</g>
<!-- Node2&#45;&gt;Node1 -->
<g id="edge1_Node000001_Node000002" class="edge">
<title>Node2&#45;&gt;Node1</title>
<g id="a_edge1_Node000001_Node000002"><a xlink:title=" ">
<path fill="none" stroke="#63b8ff" d="M52,-97.57C52,-89.24 52,-80.45 52,-72.23"/>
<polygon fill="none" stroke="#63b8ff" points="48.5,-97.8 52,-107.8 55.5,-97.8 48.5,-97.8"/>
</a>
</g>
</g>
</g>
</svg>
