<?xml version="1.0" encoding="UTF-8" standalone="no"?>
<!DOCTYPE svg PUBLIC "-//W3C//DTD SVG 1.1//EN"
 "http://www.w3.org/Graphics/SVG/1.1/DTD/svg11.dtd">
<!-- Generated by graphviz version 2.43.0 (0)
 -->
<!-- Title: IteratorType::IteratorType Pages: 1 -->
<svg width="363pt" height="27pt"
 viewBox="0.00 0.00 363.00 27.00" xmlns="http://www.w3.org/2000/svg" xmlns:xlink="http://www.w3.org/1999/xlink">
<g id="graph0" class="graph" transform="scale(1 1) rotate(0) translate(4 23)">
<title>IteratorType::IteratorType</title>
<!-- Node1 -->
<g id="Node000001" class="node">
<title>Node1</title>
<g id="a_Node000001"><a xlink:href="structIteratorType.html#ae6d79f06aa7348085e6e5439428aaf18" target="_top" xlink:title=" ">
<path fill="#fff0f0" stroke="red" stroke-width="2" d="M133.67,-19C133.67,-19 6.33,-19 6.33,-19 3.17,-19 0,-15.83 0,-12.67 0,-12.67 0,-6.33 0,-6.33 0,-3.17 3.17,0 6.33,0 6.33,0 133.67,0 133.67,0 136.83,0 140,-3.17 140,-6.33 140,-6.33 140,-12.67 140,-12.67 140,-15.83 136.83,-19 133.67,-19"/>
<text text-anchor="middle" x="70" y="-7" font-family="Helvetica,sans-Serif" font-size="10.00">IteratorType::IteratorType</text>
</a>
</g>
</g>
<!-- Node2 -->
<g id="Node000002" class="node">
<title>Node2</title>
<g id="a_Node000002"><a xlink:href="structIteratorType.html#a7ecae54e30e0933a627c3e9da7803ac7" target="_top" xlink:title=" ">
<path fill="#fff0f0" stroke="red" d="M348.67,-19C348.67,-19 182.33,-19 182.33,-19 179.17,-19 176,-15.83 176,-12.67 176,-12.67 176,-6.33 176,-6.33 176,-3.17 179.17,0 182.33,0 182.33,0 348.67,0 348.67,0 351.83,0 355,-3.17 355,-6.33 355,-6.33 355,-12.67 355,-12.67 355,-15.83 351.83,-19 348.67,-19"/>
<text text-anchor="middle" x="265.5" y="-7" font-family="Helvetica,sans-Serif" font-size="10.00">IteratorType::incrementUntilGood</text>
</a>
</g>
</g>
<!-- Node1&#45;&gt;Node2 -->
<g id="edge1_Node000001_Node000002" class="edge">
<title>Node1&#45;&gt;Node2</title>
<g id="a_edge1_Node000001_Node000002"><a xlink:title=" ">
<path fill="none" stroke="#63b8ff" d="M140.04,-9.5C148.39,-9.5 157.03,-9.5 165.7,-9.5"/>
<polygon fill="#63b8ff" stroke="#63b8ff" points="165.87,-13 175.87,-9.5 165.87,-6 165.87,-13"/>
</a>
</g>
</g>
</g>
</svg>
