<?xml version="1.0" encoding="UTF-8" standalone="no"?>
<!DOCTYPE svg PUBLIC "-//W3C//DTD SVG 1.1//EN"
 "http://www.w3.org/Graphics/SVG/1.1/DTD/svg11.dtd">
<!-- Generated by graphviz version 2.43.0 (0)
 -->
<!-- Title: AodData Pages: 1 -->
<svg width="79pt" height="180pt"
 viewBox="0.00 0.00 79.00 180.00" xmlns="http://www.w3.org/2000/svg" xmlns:xlink="http://www.w3.org/1999/xlink">
<g id="graph0" class="graph" transform="scale(1 1) rotate(0) translate(4 176)">
<title>AodData</title>
<!-- Node1 -->
<g id="Node000001" class="node">
<title>Node1</title>
<g id="a_Node000001"><a xlink:href="structAodData.html" target="_top" xlink:title=" ">
<path fill="white" stroke="#666666" stroke-width="2" d="M58,-57C58,-57 13,-57 13,-57 7,-57 1,-51 1,-45 1,-45 1,-12 1,-12 1,-6 7,0 13,0 13,0 58,0 58,0 64,0 70,-6 70,-12 70,-12 70,-45 70,-45 70,-51 64,-57 58,-57"/>
<text text-anchor="start" x="14.5" y="-40.5" font-family="Helvetica,sans-Serif" font-size="10.00">AodData</text>
<text text-anchor="start" x="34" y="-25.5" font-family="Helvetica,sans-Serif" font-size="10.00"> </text>
<text text-anchor="start" x="34" y="-10.5" font-family="Helvetica,sans-Serif" font-size="10.00"> </text>
<polygon fill="#666666" stroke="#666666" points="9.5,-35.5 9.5,-35.5 62.5,-35.5 62.5,-35.5 9.5,-35.5"/>
<polygon fill="#666666" stroke="#666666" points="9.5,-20.5 9.5,-20.5 62.5,-20.5 62.5,-20.5 9.5,-20.5"/>
<polygon fill="none" stroke="#666666" points="9,-4 9,-53 62,-53 62,-4 9,-4"/>
</a>
</g>
</g>
<!-- Node2 -->
<g id="Node000002" class="node">
<title>Node2</title>
<g id="a_Node000002"><a xlink:title=" ">
<path fill="white" stroke="#666666" d="M59,-172C59,-172 12,-172 12,-172 6,-172 0,-166 0,-160 0,-160 0,-127 0,-127 0,-121 6,-115 12,-115 12,-115 59,-115 59,-115 65,-115 71,-121 71,-127 71,-127 71,-160 71,-160 71,-166 65,-172 59,-172"/>
<text text-anchor="start" x="13.5" y="-155.5" font-family="Helvetica,sans-Serif" font-size="10.00">MatrixXd</text>
<text text-anchor="start" x="34" y="-140.5" font-family="Helvetica,sans-Serif" font-size="10.00"> </text>
<text text-anchor="start" x="34" y="-125.5" font-family="Helvetica,sans-Serif" font-size="10.00"> </text>
<polygon fill="#666666" stroke="#666666" points="8.5,-150.5 8.5,-150.5 63.5,-150.5 63.5,-150.5 8.5,-150.5"/>
<polygon fill="#666666" stroke="#666666" points="8.5,-135.5 8.5,-135.5 63.5,-135.5 63.5,-135.5 8.5,-135.5"/>
<polygon fill="none" stroke="#666666" points="8,-119 8,-168 63,-168 63,-119 8,-119"/>
</a>
</g>
</g>
<!-- Node2&#45;&gt;Node1 -->
<g id="edge1_Node000001_Node000002" class="edge">
<title>Node2&#45;&gt;Node1</title>
<g id="a_edge1_Node000001_Node000002"><a xlink:title=" ">
<path fill="none" stroke="#63b8ff" d="M35.5,-114.86C35.5,-101.18 35.5,-84.41 35.5,-69.37"/>
<polygon fill="none" stroke="#63b8ff" points="35.5,-69.25 31.5,-63.25 35.5,-57.25 39.5,-63.25 35.5,-69.25"/>
</a>
</g>
<text text-anchor="middle" x="52.5" y="-89" font-family="Helvetica,sans-Serif" font-size="10.00" fill="grey"> +Cnm</text>
<text text-anchor="middle" x="52.5" y="-78" font-family="Helvetica,sans-Serif" font-size="10.00" fill="grey">+Snm</text>
</g>
</g>
</svg>
