<?xml version="1.0" encoding="UTF-8" standalone="no"?>
<!DOCTYPE svg PUBLIC "-//W3C//DTD SVG 1.1//EN"
 "http://www.w3.org/Graphics/SVG/1.1/DTD/svg11.dtd">
<!-- Generated by graphviz version 2.43.0 (0)
 -->
<!-- Title: Legendre::Legendre Pages: 1 -->
<svg width="240pt" height="27pt"
 viewBox="0.00 0.00 240.00 27.00" xmlns="http://www.w3.org/2000/svg" xmlns:xlink="http://www.w3.org/1999/xlink">
<g id="graph0" class="graph" transform="scale(1 1) rotate(0) translate(4 23)">
<title>Legendre::Legendre</title>
<!-- Node1 -->
<g id="Node000001" class="node">
<title>Node1</title>
<g id="a_Node000001"><a xlink:href="structLegendre.html#aaa4e2eb202db69effc72d389453ad3ff" target="_top" xlink:title=" ">
<path fill="#fff0f0" stroke="red" stroke-width="2" d="M106.67,-19C106.67,-19 6.33,-19 6.33,-19 3.17,-19 0,-15.83 0,-12.67 0,-12.67 0,-6.33 0,-6.33 0,-3.17 3.17,0 6.33,0 6.33,0 106.67,0 106.67,0 109.83,0 113,-3.17 113,-6.33 113,-6.33 113,-12.67 113,-12.67 113,-15.83 109.83,-19 106.67,-19"/>
<text text-anchor="middle" x="56.5" y="-7" font-family="Helvetica,sans-Serif" font-size="10.00">Legendre::Legendre</text>
</a>
</g>
</g>
<!-- Node2 -->
<g id="Node000002" class="node">
<title>Node2</title>
<g id="a_Node000002"><a xlink:href="structLegendre.html#aae5ec5ebc9b401c5a46b31979eb534d3" target="_top" xlink:title=" ">
<path fill="#fff0f0" stroke="red" d="M225.67,-19C225.67,-19 155.33,-19 155.33,-19 152.17,-19 149,-15.83 149,-12.67 149,-12.67 149,-6.33 149,-6.33 149,-3.17 152.17,0 155.33,0 155.33,0 225.67,0 225.67,0 228.83,0 232,-3.17 232,-6.33 232,-6.33 232,-12.67 232,-12.67 232,-15.83 228.83,-19 225.67,-19"/>
<text text-anchor="middle" x="190.5" y="-7" font-family="Helvetica,sans-Serif" font-size="10.00">Legendre::init</text>
</a>
</g>
</g>
<!-- Node1&#45;&gt;Node2 -->
<g id="edge1_Node000001_Node000002" class="edge">
<title>Node1&#45;&gt;Node2</title>
<g id="a_edge1_Node000001_Node000002"><a xlink:title=" ">
<path fill="none" stroke="#63b8ff" d="M113.1,-9.5C121.61,-9.5 130.37,-9.5 138.77,-9.5"/>
<polygon fill="#63b8ff" stroke="#63b8ff" points="138.81,-13 148.81,-9.5 138.81,-6 138.81,-13"/>
</a>
</g>
</g>
</g>
</svg>
