<?xml version="1.0" encoding="UTF-8" standalone="no"?>
<!DOCTYPE svg PUBLIC "-//W3C//DTD SVG 1.1//EN"
 "http://www.w3.org/Graphics/SVG/1.1/DTD/svg11.dtd">
<!-- Generated by graphviz version 2.43.0 (0)
 -->
<!-- Title: ObsStream::getObs Pages: 1 -->
<svg width="270pt" height="27pt"
 viewBox="0.00 0.00 270.00 27.00" xmlns="http://www.w3.org/2000/svg" xmlns:xlink="http://www.w3.org/1999/xlink">
<g id="graph0" class="graph" transform="scale(1 1) rotate(0) translate(4 23)">
<title>ObsStream::getObs</title>
<!-- Node1 -->
<g id="Node000001" class="node">
<title>Node1</title>
<g id="a_Node000001"><a xlink:href="structObsStream.html#a72abbf0503505bc3f1a2c45f0dd5ae95" target="_top" xlink:title=" ">
<path fill="#fff0f0" stroke="red" stroke-width="2" d="M104.67,-19C104.67,-19 6.33,-19 6.33,-19 3.17,-19 0,-15.83 0,-12.67 0,-12.67 0,-6.33 0,-6.33 0,-3.17 3.17,0 6.33,0 6.33,0 104.67,0 104.67,0 107.83,0 111,-3.17 111,-6.33 111,-6.33 111,-12.67 111,-12.67 111,-15.83 107.83,-19 104.67,-19"/>
<text text-anchor="middle" x="55.5" y="-7" font-family="Helvetica,sans-Serif" font-size="10.00">ObsStream::getObs</text>
</a>
</g>
</g>
<!-- Node2 -->
<g id="Node000002" class="node">
<title>Node2</title>
<g id="a_Node000002"><a xlink:href="structStreamParser.html#a78ac18a6adf2850103320c9e2f05fc2e" target="_top" xlink:title=" ">
<path fill="#fff0f0" stroke="red" d="M255.67,-19C255.67,-19 153.33,-19 153.33,-19 150.17,-19 147,-15.83 147,-12.67 147,-12.67 147,-6.33 147,-6.33 147,-3.17 150.17,0 153.33,0 153.33,0 255.67,0 255.67,0 258.83,0 262,-3.17 262,-6.33 262,-6.33 262,-12.67 262,-12.67 262,-15.83 258.83,-19 255.67,-19"/>
<text text-anchor="middle" x="204.5" y="-7" font-family="Helvetica,sans-Serif" font-size="10.00">StreamParser::parse</text>
</a>
</g>
</g>
<!-- Node1&#45;&gt;Node2 -->
<g id="edge1_Node000001_Node000002" class="edge">
<title>Node1&#45;&gt;Node2</title>
<g id="a_edge1_Node000001_Node000002"><a xlink:title=" ">
<path fill="none" stroke="#63b8ff" d="M111.24,-9.5C119.48,-9.5 128.06,-9.5 136.52,-9.5"/>
<polygon fill="#63b8ff" stroke="#63b8ff" points="136.75,-13 146.75,-9.5 136.75,-6 136.75,-13"/>
</a>
</g>
</g>
</g>
</svg>
