<?xml version="1.0" encoding="UTF-8" standalone="no"?>
<!DOCTYPE svg PUBLIC "-//W3C//DTD SVG 1.1//EN"
 "http://www.w3.org/Graphics/SVG/1.1/DTD/svg11.dtd">
<!-- Generated by graphviz version 2.43.0 (0)
 -->
<!-- Title: RtcmParser::parse Pages: 1 -->
<svg width="558pt" height="490pt"
 viewBox="0.00 0.00 558.00 490.12" xmlns="http://www.w3.org/2000/svg" xmlns:xlink="http://www.w3.org/1999/xlink">
<g id="graph0" class="graph" transform="scale(1 1) rotate(0) translate(4 486.12)">
<title>RtcmParser::parse</title>
<!-- Node1 -->
<g id="Node000001" class="node">
<title>Node1</title>
<g id="a_Node000001"><a xlink:href="structRtcmParser.html#a6138840942a03f0a06ecb288ab412716" target="_top" xlink:title=" ">
<path fill="#fff0f0" stroke="red" stroke-width="2" d="M98.67,-295C98.67,-295 6.33,-295 6.33,-295 3.17,-295 0,-291.83 0,-288.67 0,-288.67 0,-282.33 0,-282.33 0,-279.17 3.17,-276 6.33,-276 6.33,-276 98.67,-276 98.67,-276 101.83,-276 105,-279.17 105,-282.33 105,-282.33 105,-288.67 105,-288.67 105,-291.83 101.83,-295 98.67,-295"/>
<text text-anchor="middle" x="52.5" y="-283" font-family="Helvetica,sans-Serif" font-size="10.00">RtcmParser::parse</text>
</a>
</g>
</g>
<!-- Node2 -->
<g id="Node000002" class="node">
<title>Node2</title>
<g id="a_Node000002"><a xlink:href="rtcmDecoder_8cpp.html#aaa6463f592ed6478626814466d3d02a5" target="_top" xlink:title="increasingly extract unsigned bits from byte data">
<path fill="#fff0f0" stroke="red" d="M421.17,-266C421.17,-266 368.83,-266 368.83,-266 365.67,-266 362.5,-262.83 362.5,-259.67 362.5,-259.67 362.5,-253.33 362.5,-253.33 362.5,-250.17 365.67,-247 368.83,-247 368.83,-247 421.17,-247 421.17,-247 424.33,-247 427.5,-250.17 427.5,-253.33 427.5,-253.33 427.5,-259.67 427.5,-259.67 427.5,-262.83 424.33,-266 421.17,-266"/>
<text text-anchor="middle" x="395" y="-254" font-family="Helvetica,sans-Serif" font-size="10.00">getbituInc</text>
</a>
</g>
</g>
<!-- Node1&#45;&gt;Node2 -->
<g id="edge1_Node000001_Node000002" class="edge">
<title>Node1&#45;&gt;Node2</title>
<g id="a_edge1_Node000001_Node000002"><a xlink:title=" ">
<path fill="none" stroke="#63b8ff" d="M56.13,-295.09C63.13,-323.68 85.54,-405.43 141,-438.5 198.26,-472.65 233.75,-472.67 291,-438.5 352.08,-402.04 379.09,-315.47 389.06,-276.14"/>
<polygon fill="#63b8ff" stroke="#63b8ff" points="392.52,-276.72 391.48,-266.18 385.72,-275.07 392.52,-276.72"/>
</a>
</g>
</g>
<!-- Node1&#45;&gt;Node2 -->
<g id="edge4_Node000001_Node000002" class="edge">
<title>Node1&#45;&gt;Node2</title>
<g id="a_edge4_Node000001_Node000002"><a xlink:title=" ">
<path fill="none" stroke="#63b8ff" d="M54.62,-295.36C59.39,-326.73 80.6,-420.48 141,-456.5 198.26,-490.65 233.75,-490.67 291,-456.5 357.22,-416.97 383.4,-318.53 391.23,-276.07"/>
<polygon fill="#63b8ff" stroke="#63b8ff" points="394.7,-276.55 392.9,-266.11 387.79,-275.39 394.7,-276.55"/>
</a>
</g>
</g>
<!-- Node3 -->
<g id="Node000003" class="node">
<title>Node3</title>
<g id="a_Node000003"><a xlink:href="rtcmDecoder_8cpp.html#a85a03123ae20efc3b06434f616140943" target="_top" xlink:title="extract unsigned bits from byte data">
<path fill="#fff0f0" stroke="red" d="M543.67,-247C543.67,-247 505.33,-247 505.33,-247 502.17,-247 499,-243.83 499,-240.67 499,-240.67 499,-234.33 499,-234.33 499,-231.17 502.17,-228 505.33,-228 505.33,-228 543.67,-228 543.67,-228 546.83,-228 550,-231.17 550,-234.33 550,-234.33 550,-240.67 550,-240.67 550,-243.83 546.83,-247 543.67,-247"/>
<text text-anchor="middle" x="524.5" y="-235" font-family="Helvetica,sans-Serif" font-size="10.00">getbitu</text>
</a>
</g>
</g>
<!-- Node1&#45;&gt;Node3 -->
<g id="edge11_Node000001_Node000003" class="edge">
<title>Node1&#45;&gt;Node3</title>
<g id="a_edge11_Node000001_Node000003"><a xlink:title=" ">
<path fill="none" stroke="#63b8ff" d="M65.97,-275.98C82.21,-264.25 111.96,-244.94 141,-237.5 265.56,-205.58 420.53,-221.95 488.64,-231.82"/>
<polygon fill="#63b8ff" stroke="#63b8ff" points="488.4,-235.32 498.81,-233.34 489.44,-228.4 488.4,-235.32"/>
</a>
</g>
</g>
<!-- Node4 -->
<g id="Node000004" class="node">
<title>Node4</title>
<g id="a_Node000004"><a xlink:href="rtcmEncoder_8cpp.html#af0d5eab5e18729b5d6b67194e94979a0" target="_top" xlink:title="increasingly set unsigned bits to byte data">
<path fill="#fff0f0" stroke="red" d="M242.17,-438C242.17,-438 189.83,-438 189.83,-438 186.67,-438 183.5,-434.83 183.5,-431.67 183.5,-431.67 183.5,-425.33 183.5,-425.33 183.5,-422.17 186.67,-419 189.83,-419 189.83,-419 242.17,-419 242.17,-419 245.33,-419 248.5,-422.17 248.5,-425.33 248.5,-425.33 248.5,-431.67 248.5,-431.67 248.5,-434.83 245.33,-438 242.17,-438"/>
<text text-anchor="middle" x="216" y="-426" font-family="Helvetica,sans-Serif" font-size="10.00">setbituInc</text>
</a>
</g>
</g>
<!-- Node1&#45;&gt;Node4 -->
<g id="edge3_Node000001_Node000004" class="edge">
<title>Node1&#45;&gt;Node4</title>
<g id="a_edge3_Node000001_Node000004"><a xlink:title=" ">
<path fill="none" stroke="#63b8ff" d="M60.67,-295.17C73.35,-316.87 102.12,-367.43 141,-395.5 154.79,-405.45 172.92,-411.42 187.79,-415.99"/>
<polygon fill="#63b8ff" stroke="#63b8ff" points="186.87,-419.37 197.46,-418.96 188.93,-412.68 186.87,-419.37"/>
</a>
</g>
</g>
<!-- Node1&#45;&gt;Node4 -->
<g id="edge8_Node000001_Node000004" class="edge">
<title>Node1&#45;&gt;Node4</title>
<g id="a_edge8_Node000001_Node000004"><a xlink:title=" ">
<path fill="none" stroke="#63b8ff" d="M56.2,-295.21C65.26,-319.81 96.5,-381.38 141,-413.5 150.66,-420.47 162.44,-425.49 173.74,-428.7"/>
<polygon fill="#63b8ff" stroke="#63b8ff" points="172.93,-432.1 183.48,-431.06 174.59,-425.3 172.93,-432.1"/>
</a>
</g>
</g>
<!-- Node6 -->
<g id="Node000006" class="node">
<title>Node6</title>
<g id="a_Node000006"><a xlink:href="prototypeCmpSSRDecode_8cpp.html#a64568502e5d54f952257863f6a753f7d" target="_top" xlink:title=" ">
<path fill="#fff0f0" stroke="red" d="M445.17,-86C445.17,-86 344.83,-86 344.83,-86 341.67,-86 338.5,-82.83 338.5,-79.67 338.5,-79.67 338.5,-73.33 338.5,-73.33 338.5,-70.17 341.67,-67 344.83,-67 344.83,-67 445.17,-67 445.17,-67 448.33,-67 451.5,-70.17 451.5,-73.33 451.5,-73.33 451.5,-79.67 451.5,-79.67 451.5,-82.83 448.33,-86 445.17,-86"/>
<text text-anchor="middle" x="395" y="-74" font-family="Helvetica,sans-Serif" font-size="10.00">decodecompactSSR</text>
</a>
</g>
</g>
<!-- Node1&#45;&gt;Node6 -->
<g id="edge5_Node000001_Node000006" class="edge">
<title>Node1&#45;&gt;Node6</title>
<g id="a_edge5_Node000001_Node000006"><a xlink:title=" ">
<path fill="none" stroke="#63b8ff" d="M67.26,-295.17C107.11,-321.9 224.03,-391.11 291,-333.5 372.11,-263.74 256.27,-175.77 327,-95.5 328.05,-94.31 329.17,-93.19 330.34,-92.14"/>
<polygon fill="#63b8ff" stroke="#63b8ff" points="332.69,-94.77 338.86,-86.15 328.66,-89.04 332.69,-94.77"/>
</a>
</g>
</g>
<!-- Node36 -->
<g id="Node000036" class="node">
<title>Node36</title>
<g id="a_Node000036"><a xlink:href="structRtcmDecoder.html#af4dcc94b23423696a4e8025d8235a1b1" target="_top" xlink:title=" ">
<path fill="#fff0f0" stroke="red" d="M456.67,-123C456.67,-123 333.33,-123 333.33,-123 330.17,-123 327,-119.83 327,-116.67 327,-116.67 327,-110.33 327,-110.33 327,-107.17 330.17,-104 333.33,-104 333.33,-104 456.67,-104 456.67,-104 459.83,-104 463,-107.17 463,-110.33 463,-110.33 463,-116.67 463,-116.67 463,-119.83 459.83,-123 456.67,-123"/>
<text text-anchor="middle" x="395" y="-111" font-family="Helvetica,sans-Serif" font-size="10.00">RtcmDecoder::rtcmTime</text>
</a>
</g>
</g>
<!-- Node1&#45;&gt;Node36 -->
<g id="edge7_Node000001_Node000036" class="edge">
<title>Node1&#45;&gt;Node36</title>
<g id="a_edge7_Node000001_Node000036"><a xlink:title=" ">
<path fill="none" stroke="#63b8ff" d="M65.97,-295.02C82.21,-306.75 111.96,-326.06 141,-333.5 205.58,-350.05 236.14,-371.38 291,-333.5 328.16,-307.85 308.3,-279.6 327,-238.5 344.75,-199.5 369.33,-155.76 383.25,-131.75"/>
<polygon fill="#63b8ff" stroke="#63b8ff" points="386.33,-133.41 388.35,-123.01 380.29,-129.88 386.33,-133.41"/>
</a>
</g>
</g>
<!-- Node38 -->
<g id="Node000038" class="node">
<title>Node38</title>
<g id="a_Node000038"><a xlink:href="structPacketStatistics.html#a080db5e73adbd4447002c7b54f691f03" target="_top" xlink:title=" ">
<path fill="#fff0f0" stroke="red" d="M280,-324.5C280,-324.5 152,-324.5 152,-324.5 147,-324.5 142,-319.5 142,-314.5 142,-314.5 142,-304.5 142,-304.5 142,-299.5 147,-294.5 152,-294.5 152,-294.5 280,-294.5 280,-294.5 285,-294.5 290,-299.5 290,-304.5 290,-304.5 290,-314.5 290,-314.5 290,-319.5 285,-324.5 280,-324.5"/>
<text text-anchor="start" x="150" y="-312.5" font-family="Helvetica,sans-Serif" font-size="10.00">PacketStatistics::nonFrame</text>
<text text-anchor="middle" x="216" y="-301.5" font-family="Helvetica,sans-Serif" font-size="10.00">ByteFound</text>
</a>
</g>
</g>
<!-- Node1&#45;&gt;Node38 -->
<g id="edge9_Node000001_Node000038" class="edge">
<title>Node1&#45;&gt;Node38</title>
<g id="a_edge9_Node000001_Node000038"><a xlink:title=" ">
<path fill="none" stroke="#63b8ff" d="M105.04,-293.16C113.65,-294.44 122.77,-295.79 131.94,-297.16"/>
<polygon fill="#63b8ff" stroke="#63b8ff" points="131.46,-300.62 141.87,-298.63 132.49,-293.7 131.46,-300.62"/>
</a>
</g>
</g>
<!-- Node39 -->
<g id="Node000039" class="node">
<title>Node39</title>
<g id="a_Node000039"><a xlink:href="structPacketStatistics.html#ac2f8d993a9d06c8241746a66e642e1ca" target="_top" xlink:title=" ">
<path fill="#fff0f0" stroke="red" d="M279,-276.5C279,-276.5 153,-276.5 153,-276.5 148,-276.5 143,-271.5 143,-266.5 143,-266.5 143,-256.5 143,-256.5 143,-251.5 148,-246.5 153,-246.5 153,-246.5 279,-246.5 279,-246.5 284,-246.5 289,-251.5 289,-256.5 289,-256.5 289,-266.5 289,-266.5 289,-271.5 284,-276.5 279,-276.5"/>
<text text-anchor="start" x="151" y="-264.5" font-family="Helvetica,sans-Serif" font-size="10.00">PacketStatistics::preamble</text>
<text text-anchor="middle" x="216" y="-253.5" font-family="Helvetica,sans-Serif" font-size="10.00">Found</text>
</a>
</g>
</g>
<!-- Node1&#45;&gt;Node39 -->
<g id="edge10_Node000001_Node000039" class="edge">
<title>Node1&#45;&gt;Node39</title>
<g id="a_edge10_Node000001_Node000039"><a xlink:title=" ">
<path fill="none" stroke="#63b8ff" d="M105.04,-277.84C113.86,-276.53 123.21,-275.14 132.59,-273.75"/>
<polygon fill="#63b8ff" stroke="#63b8ff" points="133.37,-277.17 142.75,-272.24 132.34,-270.24 133.37,-277.17"/>
</a>
</g>
</g>
<!-- Node40 -->
<g id="Node000040" class="node">
<title>Node40</title>
<g id="a_Node000040"><a xlink:href="common_8cpp.html#a143f5fa72a5c2aa56901ad78710eb4c2" target="_top" xlink:title="crc&#45;24q parity compute crc&#45;24q parity for sbas, rtcm3 see reference [2] A.4.3.3 Parity">
<path fill="#fff0f0" stroke="red" d="M234.17,-190C234.17,-190 197.83,-190 197.83,-190 194.67,-190 191.5,-186.83 191.5,-183.67 191.5,-183.67 191.5,-177.33 191.5,-177.33 191.5,-174.17 194.67,-171 197.83,-171 197.83,-171 234.17,-171 234.17,-171 237.33,-171 240.5,-174.17 240.5,-177.33 240.5,-177.33 240.5,-183.67 240.5,-183.67 240.5,-186.83 237.33,-190 234.17,-190"/>
<text text-anchor="middle" x="216" y="-178" font-family="Helvetica,sans-Serif" font-size="10.00">crc24q</text>
</a>
</g>
</g>
<!-- Node1&#45;&gt;Node40 -->
<g id="edge12_Node000001_Node000040" class="edge">
<title>Node1&#45;&gt;Node40</title>
<g id="a_edge12_Node000001_Node000040"><a xlink:title=" ">
<path fill="none" stroke="#63b8ff" d="M61.41,-275.83C75.64,-259.01 107.25,-224.29 141,-204.5 153.44,-197.21 168.38,-191.82 181.57,-188.02"/>
<polygon fill="#63b8ff" stroke="#63b8ff" points="182.49,-191.4 191.24,-185.42 180.67,-184.64 182.49,-191.4"/>
</a>
</g>
</g>
<!-- Node41 -->
<g id="Node000041" class="node">
<title>Node41</title>
<g id="a_Node000041"><a xlink:href="structPacketStatistics.html#a332885ac12f530a7fc8a15dfc81fe747" target="_top" xlink:title=" ">
<path fill="#fff0f0" stroke="red" d="M280.5,-152.5C280.5,-152.5 151.5,-152.5 151.5,-152.5 146.5,-152.5 141.5,-147.5 141.5,-142.5 141.5,-142.5 141.5,-132.5 141.5,-132.5 141.5,-127.5 146.5,-122.5 151.5,-122.5 151.5,-122.5 280.5,-122.5 280.5,-122.5 285.5,-122.5 290.5,-127.5 290.5,-132.5 290.5,-132.5 290.5,-142.5 290.5,-142.5 290.5,-147.5 285.5,-152.5 280.5,-152.5"/>
<text text-anchor="start" x="149.5" y="-140.5" font-family="Helvetica,sans-Serif" font-size="10.00">PacketStatistics::checksum</text>
<text text-anchor="middle" x="216" y="-129.5" font-family="Helvetica,sans-Serif" font-size="10.00">Failure</text>
</a>
</g>
</g>
<!-- Node1&#45;&gt;Node41 -->
<g id="edge13_Node000001_Node000041" class="edge">
<title>Node1&#45;&gt;Node41</title>
<g id="a_edge13_Node000001_Node000041"><a xlink:title=" ">
<path fill="none" stroke="#63b8ff" d="M57.71,-275.95C68.3,-252.98 98.3,-194.23 141,-162.5 143.61,-160.56 146.38,-158.76 149.27,-157.1"/>
<polygon fill="#63b8ff" stroke="#63b8ff" points="150.89,-160.2 158.18,-152.5 147.68,-153.98 150.89,-160.2"/>
</a>
</g>
</g>
<!-- Node42 -->
<g id="Node000042" class="node">
<title>Node42</title>
<g id="a_Node000042"><a xlink:href="structPacketStatistics.html#a2718aa30f1f5cacbd389d6037a1c64a9" target="_top" xlink:title=" ">
<path fill="#fff0f0" stroke="red" d="M280.5,-104.5C280.5,-104.5 151.5,-104.5 151.5,-104.5 146.5,-104.5 141.5,-99.5 141.5,-94.5 141.5,-94.5 141.5,-84.5 141.5,-84.5 141.5,-79.5 146.5,-74.5 151.5,-74.5 151.5,-74.5 280.5,-74.5 280.5,-74.5 285.5,-74.5 290.5,-79.5 290.5,-84.5 290.5,-84.5 290.5,-94.5 290.5,-94.5 290.5,-99.5 285.5,-104.5 280.5,-104.5"/>
<text text-anchor="start" x="149.5" y="-92.5" font-family="Helvetica,sans-Serif" font-size="10.00">PacketStatistics::checksum</text>
<text text-anchor="middle" x="216" y="-81.5" font-family="Helvetica,sans-Serif" font-size="10.00">Success</text>
</a>
</g>
</g>
<!-- Node1&#45;&gt;Node42 -->
<g id="edge14_Node000001_Node000042" class="edge">
<title>Node1&#45;&gt;Node42</title>
<g id="a_edge14_Node000001_Node000042"><a xlink:title=" ">
<path fill="none" stroke="#63b8ff" d="M55.68,-275.68C62.66,-246.49 87.25,-159.41 141,-113.5 142.5,-112.22 144.07,-111 145.7,-109.85"/>
<polygon fill="#63b8ff" stroke="#63b8ff" points="147.55,-112.82 154.26,-104.62 143.9,-106.85 147.55,-112.82"/>
</a>
</g>
</g>
<!-- Node43 -->
<g id="Node000043" class="node">
<title>Node43</title>
<g id="a_Node000043"><a xlink:href="structRtcmDecoder.html#a9dcc38e7fa87e8aef6ec17cc3626146a" target="_top" xlink:title=" ">
<path fill="#fff0f0" stroke="red" d="M284.67,-56C284.67,-56 147.33,-56 147.33,-56 144.17,-56 141,-52.83 141,-49.67 141,-49.67 141,-43.33 141,-43.33 141,-40.17 144.17,-37 147.33,-37 147.33,-37 284.67,-37 284.67,-37 287.83,-37 291,-40.17 291,-43.33 291,-43.33 291,-49.67 291,-49.67 291,-52.83 287.83,-56 284.67,-56"/>
<text text-anchor="middle" x="216" y="-44" font-family="Helvetica,sans-Serif" font-size="10.00">RtcmDecoder::recordFrame</text>
</a>
</g>
</g>
<!-- Node1&#45;&gt;Node43 -->
<g id="edge15_Node000001_Node000043" class="edge">
<title>Node1&#45;&gt;Node43</title>
<g id="a_edge15_Node000001_Node000043"><a xlink:title=" ">
<path fill="none" stroke="#63b8ff" d="M54.31,-275.84C57.73,-241.53 74.05,-124.43 141,-65.5 142.78,-63.93 144.67,-62.49 146.65,-61.17"/>
<polygon fill="#63b8ff" stroke="#63b8ff" points="148.78,-63.99 155.82,-56.08 145.38,-57.87 148.78,-63.99"/>
</a>
</g>
</g>
<!-- Node48 -->
<g id="Node000048" class="node">
<title>Node48</title>
<g id="a_Node000048"><a xlink:href="structRtcmDecoder.html#a34dfe8bbed06d1cabb0fed2899584dfd" target="_top" xlink:title=" ">
<path fill="#fff0f0" stroke="red" d="M271.67,-19C271.67,-19 160.33,-19 160.33,-19 157.17,-19 154,-15.83 154,-12.67 154,-12.67 154,-6.33 154,-6.33 154,-3.17 157.17,0 160.33,0 160.33,0 271.67,0 271.67,0 274.83,0 278,-3.17 278,-6.33 278,-6.33 278,-12.67 278,-12.67 278,-15.83 274.83,-19 271.67,-19"/>
<text text-anchor="middle" x="216" y="-7" font-family="Helvetica,sans-Serif" font-size="10.00">RtcmDecoder::decode</text>
</a>
</g>
</g>
<!-- Node1&#45;&gt;Node48 -->
<g id="edge16_Node000001_Node000048" class="edge">
<title>Node1&#45;&gt;Node48</title>
<g id="a_edge16_Node000001_Node000048"><a xlink:title=" ">
<path fill="none" stroke="#63b8ff" d="M53.65,-275.8C54.79,-237.8 64.24,-97.76 141,-27.5 142.31,-26.3 143.68,-25.18 145.11,-24.13"/>
<polygon fill="#63b8ff" stroke="#63b8ff" points="147.08,-27.03 153.83,-18.87 143.46,-21.04 147.08,-27.03"/>
</a>
</g>
</g>
<!-- Node2&#45;&gt;Node3 -->
<g id="edge2_Node000002_Node000003" class="edge">
<title>Node2&#45;&gt;Node3</title>
<g id="a_edge2_Node000002_Node000003"><a xlink:title=" ">
<path fill="none" stroke="#63b8ff" d="M427.52,-251.8C446.06,-249.04 469.54,-245.54 488.63,-242.7"/>
<polygon fill="#63b8ff" stroke="#63b8ff" points="489.36,-246.13 498.73,-241.19 488.32,-239.2 489.36,-246.13"/>
</a>
</g>
</g>
<!-- Node6&#45;&gt;Node3 -->
<g id="edge6_Node000006_Node000003" class="edge">
<title>Node6&#45;&gt;Node3</title>
<g id="a_edge6_Node000006_Node000003"><a xlink:title=" ">
<path fill="none" stroke="#63b8ff" d="M448.19,-86.15C453.57,-88.6 458.65,-91.66 463,-95.5 500.07,-128.16 515.12,-187.42 520.65,-218.03"/>
<polygon fill="#63b8ff" stroke="#63b8ff" points="517.2,-218.62 522.27,-227.91 524.1,-217.48 517.2,-218.62"/>
</a>
</g>
</g>
<!-- Node48&#45;&gt;Node2 -->
<g id="edge18_Node000048_Node000002" class="edge">
<title>Node48&#45;&gt;Node2</title>
<g id="a_edge18_Node000048_Node000002"><a xlink:title=" ">
<path fill="none" stroke="#63b8ff" d="M278.16,-18.88C282.82,-21.19 287.19,-24.02 291,-27.5 327.45,-60.75 307.21,-87.31 327,-132.5 344,-171.31 368.65,-214.34 382.83,-238.14"/>
<polygon fill="#63b8ff" stroke="#63b8ff" points="379.89,-240.05 388.05,-246.81 385.89,-236.44 379.89,-240.05"/>
</a>
</g>
</g>
<!-- Node48&#45;&gt;Node3 -->
<g id="edge17_Node000048_Node000003" class="edge">
<title>Node48&#45;&gt;Node3</title>
<g id="a_edge17_Node000048_Node000003"><a xlink:title=" ">
<path fill="none" stroke="#63b8ff" d="M278.19,-17.78C282.97,-20.3 287.35,-23.49 291,-27.5 365.95,-109.89 242.78,-202.62 327,-275.5 372.71,-315.05 404.92,-292.23 463,-275.5 478.05,-271.17 492.97,-261.86 504.23,-253.55"/>
<polygon fill="#63b8ff" stroke="#63b8ff" points="506.65,-256.1 512.4,-247.21 502.36,-250.57 506.65,-256.1"/>
</a>
</g>
</g>
<!-- Node48&#45;&gt;Node6 -->
<g id="edge20_Node000048_Node000006" class="edge">
<title>Node48&#45;&gt;Node6</title>
<g id="a_edge20_Node000048_Node000006"><a xlink:title=" ">
<path fill="none" stroke="#63b8ff" d="M262.83,-19.09C272.25,-21.5 282.03,-24.31 291,-27.5 317.9,-37.06 347.17,-51.39 367.61,-62.09"/>
<polygon fill="#63b8ff" stroke="#63b8ff" points="366.13,-65.27 376.61,-66.86 369.42,-59.09 366.13,-65.27"/>
</a>
</g>
</g>
<!-- Node48&#45;&gt;Node36 -->
<g id="edge19_Node000048_Node000036" class="edge">
<title>Node48&#45;&gt;Node36</title>
<g id="a_edge19_Node000048_Node000036"><a xlink:title=" ">
<path fill="none" stroke="#63b8ff" d="M278.33,-10.91C282.85,-12.98 287.14,-15.5 291,-18.5 317.99,-39.5 300.26,-65.18 327,-86.5 336.47,-94.05 348.83,-98.45 360.36,-101.55"/>
<polygon fill="#63b8ff" stroke="#63b8ff" points="359.63,-104.97 370.18,-103.98 361.32,-98.18 359.63,-104.97"/>
</a>
</g>
</g>
<!-- Node48&#45;&gt;Node36 -->
<g id="edge21_Node000048_Node000036" class="edge">
<title>Node48&#45;&gt;Node36</title>
<g id="a_edge21_Node000048_Node000036"><a xlink:title=" ">
<path fill="none" stroke="#63b8ff" d="M246.14,-19.02C260.87,-22.04 278.27,-26.59 291,-36.5 314.94,-55.13 303.69,-77.44 319.52,-97.13"/>
<polygon fill="#63b8ff" stroke="#63b8ff" points="317.13,-99.69 326.69,-104.25 322.06,-94.72 317.13,-99.69"/>
</a>
</g>
</g>
</g>
</svg>
