<?xml version="1.0" encoding="UTF-8" standalone="no"?>
<!DOCTYPE svg PUBLIC "-//W3C//DTD SVG 1.1//EN"
 "http://www.w3.org/Graphics/SVG/1.1/DTD/svg11.dtd">
<!-- Generated by graphviz version 2.43.0 (0)
 -->
<!-- Title: std::hash&lt; SatSys &gt; Pages: 1 -->
<svg width="134pt" height="65pt"
 viewBox="0.00 0.00 134.00 65.00" xmlns="http://www.w3.org/2000/svg" xmlns:xlink="http://www.w3.org/1999/xlink">
<g id="graph0" class="graph" transform="scale(1 1) rotate(0) translate(4 61)">
<title>std::hash&lt; SatSys &gt;</title>
<!-- Node1 -->
<g id="Node000001" class="node">
<title>Node1</title>
<g id="a_Node000001"><a xlink:href="structstd_1_1hash_3_01SatSys_01_4.html" target="_top" xlink:title=" ">
<path fill="white" stroke="#666666" stroke-width="2" d="M114,-57C114,-57 12,-57 12,-57 6,-57 0,-51 0,-45 0,-45 0,-12 0,-12 0,-6 6,0 12,0 12,0 114,0 114,0 120,0 126,-6 126,-12 126,-12 126,-45 126,-45 126,-51 120,-57 114,-57"/>
<text text-anchor="start" x="13" y="-40.5" font-family="Helvetica,sans-Serif" font-size="10.00">std::hash&lt; SatSys &gt;</text>
<text text-anchor="start" x="61" y="-25.5" font-family="Helvetica,sans-Serif" font-size="10.00"> </text>
<text text-anchor="start" x="20" y="-10.5" font-family="Helvetica,sans-Serif" font-size="10.00">+</text>
<text text-anchor="start" x="41" y="-10.5" font-family="Helvetica,sans-Serif" font-size="10.00">operator()()</text>
<polygon fill="#666666" stroke="#666666" points="8,-35.5 8,-35.5 118,-35.5 118,-35.5 8,-35.5"/>
<polygon fill="#666666" stroke="#666666" points="8,-20.5 8,-20.5 118,-20.5 118,-20.5 8,-20.5"/>
<polygon fill="none" stroke="#666666" points="8,-4 8,-53 118,-53 118,-4 8,-4"/>
</a>
</g>
</g>
</g>
</svg>
