<?xml version="1.0" encoding="UTF-8" standalone="no"?>
<!DOCTYPE svg PUBLIC "-//W3C//DTD SVG 1.1//EN"
 "http://www.w3.org/Graphics/SVG/1.1/DTD/svg11.dtd">
<!-- Generated by graphviz version 2.43.0 (0)
 -->
<!-- Title: Peph Pages: 1 -->
<svg width="631pt" height="850pt"
 viewBox="0.00 0.00 630.50 850.00" xmlns="http://www.w3.org/2000/svg" xmlns:xlink="http://www.w3.org/1999/xlink">
<g id="graph0" class="graph" transform="scale(1 1) rotate(0) translate(4 846)">
<title>Peph</title>
<!-- Node1 -->
<g id="Node000001" class="node">
<title>Node1</title>
<g id="a_Node000001"><a xlink:href="structPeph.html" target="_top" xlink:title="precise ephemeris">
<path fill="white" stroke="#666666" stroke-width="2" d="M326,-57C326,-57 285,-57 285,-57 279,-57 273,-51 273,-45 273,-45 273,-12 273,-12 273,-6 279,0 285,0 285,0 326,0 326,0 332,0 338,-6 338,-12 338,-12 338,-45 338,-45 338,-51 332,-57 326,-57"/>
<text text-anchor="start" x="293.5" y="-40.5" font-family="Helvetica,sans-Serif" font-size="10.00">Peph</text>
<text text-anchor="start" x="285.5" y="-25.5" font-family="Helvetica,sans-Serif" font-size="10.00">+</text>
<text text-anchor="start" x="298.5" y="-25.5" font-family="Helvetica,sans-Serif" font-size="10.00">index</text>
<text text-anchor="start" x="304" y="-10.5" font-family="Helvetica,sans-Serif" font-size="10.00"> </text>
<polygon fill="#666666" stroke="#666666" points="281.5,-35.5 281.5,-35.5 330.5,-35.5 330.5,-35.5 281.5,-35.5"/>
<polygon fill="#666666" stroke="#666666" points="281.5,-20.5 281.5,-20.5 296.5,-20.5 296.5,-20.5 281.5,-20.5"/>
<polygon fill="#666666" stroke="#666666" points="296.5,-20.5 296.5,-20.5 330.5,-20.5 330.5,-20.5 296.5,-20.5"/>
<polygon fill="none" stroke="#666666" points="281,-4 281,-53 330,-53 330,-4 281,-4"/>
</a>
</g>
</g>
<!-- Node2 -->
<g id="Node000002" class="node">
<title>Node2</title>
<g id="a_Node000002"><a xlink:href="structPclk.html" target="_top" xlink:title="precise clock">
<path fill="white" stroke="#666666" d="M67,-464.5C67,-464.5 12,-464.5 12,-464.5 6,-464.5 0,-458.5 0,-452.5 0,-452.5 0,-389.5 0,-389.5 0,-383.5 6,-377.5 12,-377.5 12,-377.5 67,-377.5 67,-377.5 73,-377.5 79,-383.5 79,-389.5 79,-389.5 79,-452.5 79,-452.5 79,-458.5 73,-464.5 67,-464.5"/>
<text text-anchor="start" x="29.5" y="-448" font-family="Helvetica,sans-Serif" font-size="10.00">Pclk</text>
<text text-anchor="start" x="12.5" y="-433" font-family="Helvetica,sans-Serif" font-size="10.00">+</text>
<text text-anchor="start" x="25.5" y="-433" font-family="Helvetica,sans-Serif" font-size="10.00">clk</text>
<text text-anchor="start" x="12.5" y="-418" font-family="Helvetica,sans-Serif" font-size="10.00">+</text>
<text text-anchor="start" x="25.5" y="-418" font-family="Helvetica,sans-Serif" font-size="10.00">clkStd</text>
<text text-anchor="start" x="12.5" y="-403" font-family="Helvetica,sans-Serif" font-size="10.00">+</text>
<text text-anchor="start" x="25.5" y="-403" font-family="Helvetica,sans-Serif" font-size="10.00">clkIndex</text>
<text text-anchor="start" x="38" y="-388" font-family="Helvetica,sans-Serif" font-size="10.00"> </text>
<polygon fill="#666666" stroke="#666666" points="8.5,-443 8.5,-443 71.5,-443 71.5,-443 8.5,-443"/>
<polygon fill="#666666" stroke="#666666" points="8.5,-398 8.5,-398 23.5,-398 23.5,-398 8.5,-398"/>
<polygon fill="#666666" stroke="#666666" points="23.5,-398 23.5,-398 71.5,-398 71.5,-398 23.5,-398"/>
<polygon fill="none" stroke="#666666" points="8,-381.5 8,-460.5 71,-460.5 71,-381.5 8,-381.5"/>
</a>
</g>
</g>
<!-- Node2&#45;&gt;Node1 -->
<g id="edge1_Node000001_Node000002" class="edge">
<title>Node2&#45;&gt;Node1</title>
<g id="a_edge1_Node000001_Node000002"><a xlink:title=" ">
<path fill="none" stroke="#63b8ff" d="M33.03,-367.13C27.93,-300.86 29.52,-187.21 87.5,-115 133.83,-57.31 224.47,-38.43 273,-32.34"/>
<polygon fill="none" stroke="#63b8ff" points="29.57,-367.68 33.9,-377.35 36.54,-367.09 29.57,-367.68"/>
</a>
</g>
</g>
<!-- Node3 -->
<g id="Node000003" class="node">
<title>Node3</title>
<g id="a_Node000003"><a xlink:href="structSatSys.html" target="_top" xlink:title="Object holding satellite id, and providing related functions.">
<path fill="white" stroke="#666666" d="M202,-562C202,-562 109,-562 109,-562 103,-562 97,-556 97,-550 97,-550 97,-292 97,-292 97,-286 103,-280 109,-280 109,-280 202,-280 202,-280 208,-280 214,-286 214,-292 214,-292 214,-550 214,-550 214,-556 208,-562 202,-562"/>
<text text-anchor="start" x="139" y="-546" font-family="Helvetica,sans-Serif" font-size="10.00">SatSys</text>
<text text-anchor="start" x="109.5" y="-531" font-family="Helvetica,sans-Serif" font-size="10.00">+</text>
<text text-anchor="start" x="122.5" y="-531" font-family="Helvetica,sans-Serif" font-size="10.00">sys</text>
<text text-anchor="start" x="109.5" y="-516" font-family="Helvetica,sans-Serif" font-size="10.00">+</text>
<text text-anchor="start" x="122.5" y="-516" font-family="Helvetica,sans-Serif" font-size="10.00">prn</text>
<text text-anchor="start" x="109.5" y="-501" font-family="Helvetica,sans-Serif" font-size="10.00">+</text>
<text text-anchor="start" x="122.5" y="-501" font-family="Helvetica,sans-Serif" font-size="10.00">SatSys()</text>
<text text-anchor="start" x="109.5" y="-486" font-family="Helvetica,sans-Serif" font-size="10.00">+</text>
<text text-anchor="start" x="122.5" y="-486" font-family="Helvetica,sans-Serif" font-size="10.00">sysChar()</text>
<text text-anchor="start" x="109.5" y="-471" font-family="Helvetica,sans-Serif" font-size="10.00">+</text>
<text text-anchor="start" x="122.5" y="-471" font-family="Helvetica,sans-Serif" font-size="10.00">getId()</text>
<text text-anchor="start" x="109.5" y="-456" font-family="Helvetica,sans-Serif" font-size="10.00">+</text>
<text text-anchor="start" x="122.5" y="-456" font-family="Helvetica,sans-Serif" font-size="10.00">operator int()</text>
<text text-anchor="start" x="109.5" y="-441" font-family="Helvetica,sans-Serif" font-size="10.00">+</text>
<text text-anchor="start" x="122.5" y="-441" font-family="Helvetica,sans-Serif" font-size="10.00">setBlockType()</text>
<text text-anchor="start" x="109.5" y="-426" font-family="Helvetica,sans-Serif" font-size="10.00">+</text>
<text text-anchor="start" x="122.5" y="-426" font-family="Helvetica,sans-Serif" font-size="10.00">setSvn()</text>
<text text-anchor="start" x="109.5" y="-411" font-family="Helvetica,sans-Serif" font-size="10.00">+</text>
<text text-anchor="start" x="122.5" y="-411" font-family="Helvetica,sans-Serif" font-size="10.00">blockType()</text>
<text text-anchor="start" x="109.5" y="-396" font-family="Helvetica,sans-Serif" font-size="10.00">+</text>
<text text-anchor="start" x="122.5" y="-396" font-family="Helvetica,sans-Serif" font-size="10.00">svn()</text>
<text text-anchor="start" x="109.5" y="-381" font-family="Helvetica,sans-Serif" font-size="10.00">+</text>
<text text-anchor="start" x="122.5" y="-381" font-family="Helvetica,sans-Serif" font-size="10.00">fromHash()</text>
<text text-anchor="start" x="109.5" y="-366" font-family="Helvetica,sans-Serif" font-size="10.00">+</text>
<text text-anchor="start" x="122.5" y="-366" font-family="Helvetica,sans-Serif" font-size="10.00">id()</text>
<text text-anchor="start" x="109.5" y="-351" font-family="Helvetica,sans-Serif" font-size="10.00">+</text>
<text text-anchor="start" x="122.5" y="-351" font-family="Helvetica,sans-Serif" font-size="10.00">operator string()</text>
<text text-anchor="start" x="109.5" y="-336" font-family="Helvetica,sans-Serif" font-size="10.00">+</text>
<text text-anchor="start" x="122.5" y="-336" font-family="Helvetica,sans-Serif" font-size="10.00">SatSys()</text>
<text text-anchor="start" x="109.5" y="-321" font-family="Helvetica,sans-Serif" font-size="10.00">+</text>
<text text-anchor="start" x="122.5" y="-321" font-family="Helvetica,sans-Serif" font-size="10.00">sysName()</text>
<text text-anchor="start" x="109.5" y="-306" font-family="Helvetica,sans-Serif" font-size="10.00">+</text>
<text text-anchor="start" x="122.5" y="-306" font-family="Helvetica,sans-Serif" font-size="10.00">serialize()</text>
<text text-anchor="start" x="109.5" y="-291" font-family="Helvetica,sans-Serif" font-size="10.00">+</text>
<text text-anchor="start" x="122.5" y="-291" font-family="Helvetica,sans-Serif" font-size="10.00">sysFromChar()</text>
<polygon fill="#666666" stroke="#666666" points="105.5,-541 105.5,-541 206.5,-541 206.5,-541 105.5,-541"/>
<polygon fill="#666666" stroke="#666666" points="105.5,-511 105.5,-511 120.5,-511 120.5,-511 105.5,-511"/>
<polygon fill="#666666" stroke="#666666" points="120.5,-511 120.5,-511 206.5,-511 206.5,-511 120.5,-511"/>
<polygon fill="none" stroke="#666666" points="105,-284 105,-558 206,-558 206,-284 105,-284"/>
</a>
</g>
</g>
<!-- Node3&#45;&gt;Node1 -->
<g id="edge2_Node000001_Node000003" class="edge">
<title>Node3&#45;&gt;Node1</title>
<g id="a_edge2_Node000001_Node000003"><a xlink:title=" ">
<path fill="none" stroke="#63b8ff" d="M170.41,-279.63C180.24,-225.83 196.53,-165.33 223.5,-115 233.56,-96.23 248.89,-78.67 263.58,-64.39"/>
<polygon fill="none" stroke="#63b8ff" points="263.84,-64.15 265.48,-57.13 272.6,-55.95 270.95,-62.97 263.84,-64.15"/>
</a>
</g>
<text text-anchor="middle" x="266.5" y="-83.5" font-family="Helvetica,sans-Serif" font-size="10.00" fill="grey"> +Sat</text>
</g>
<!-- Node4 -->
<g id="Node000004" class="node">
<title>Node4</title>
<g id="a_Node000004"><a xlink:title=" ">
<path fill="#fff0f0" stroke="red" d="M209.5,-842C209.5,-842 101.5,-842 101.5,-842 95.5,-842 89.5,-836 89.5,-830 89.5,-830 89.5,-786 89.5,-786 89.5,-780 95.5,-774 101.5,-774 101.5,-774 209.5,-774 209.5,-774 215.5,-774 221.5,-780 221.5,-786 221.5,-786 221.5,-830 221.5,-830 221.5,-836 215.5,-842 209.5,-842"/>
<text text-anchor="start" x="102.5" y="-826" font-family="Helvetica,sans-Serif" font-size="10.00">map&lt; SatSys, SatSys</text>
<text text-anchor="start" x="127" y="-815" font-family="Helvetica,sans-Serif" font-size="10.00">::SatData &gt;</text>
<text text-anchor="start" x="153.5" y="-800" font-family="Helvetica,sans-Serif" font-size="10.00"> </text>
<text text-anchor="start" x="153.5" y="-785" font-family="Helvetica,sans-Serif" font-size="10.00"> </text>
<polygon fill="red" stroke="red" points="97.5,-810 97.5,-810 213.5,-810 213.5,-810 97.5,-810"/>
<polygon fill="red" stroke="red" points="97.5,-795 97.5,-795 213.5,-795 213.5,-795 97.5,-795"/>
<polygon fill="none" stroke="red" points="97.5,-778 97.5,-838 213.5,-838 213.5,-778 97.5,-778"/>
</a>
</g>
</g>
<!-- Node4&#45;&gt;Node3 -->
<g id="edge3_Node000003_Node000004" class="edge">
<title>Node4&#45;&gt;Node3</title>
<g id="a_edge3_Node000003_Node000004"><a xlink:title=" ">
<path fill="none" stroke="#63b8ff" d="M155.5,-773.84C155.5,-729.44 155.5,-647.71 155.5,-574.2"/>
<polygon fill="none" stroke="#63b8ff" points="155.5,-574.01 151.5,-568.01 155.5,-562.01 159.5,-568.01 155.5,-574.01"/>
</a>
</g>
<text text-anchor="middle" x="191" y="-748" font-family="Helvetica,sans-Serif" font-size="10.00" fill="grey"> +satDataMap</text>
</g>
<!-- Node6 -->
<g id="Node000006" class="node">
<title>Node6</title>
<g id="a_Node000006"><a xlink:href="structGTime.html" target="_top" xlink:title="Time structure used throughout this software.">
<path fill="white" stroke="#666666" d="M366.5,-727C366.5,-727 244.5,-727 244.5,-727 238.5,-727 232.5,-721 232.5,-715 232.5,-715 232.5,-127 232.5,-127 232.5,-121 238.5,-115 244.5,-115 244.5,-115 366.5,-115 366.5,-115 372.5,-115 378.5,-121 378.5,-127 378.5,-127 378.5,-715 378.5,-715 378.5,-721 372.5,-727 366.5,-727"/>
<text text-anchor="start" x="289" y="-711" font-family="Helvetica,sans-Serif" font-size="10.00">GTime</text>
<text text-anchor="start" x="244.5" y="-696" font-family="Helvetica,sans-Serif" font-size="10.00">+</text>
<text text-anchor="start" x="257.5" y="-696" font-family="Helvetica,sans-Serif" font-size="10.00">bigTime</text>
<text text-anchor="start" x="244.5" y="-681" font-family="Helvetica,sans-Serif" font-size="10.00">+</text>
<text text-anchor="start" x="257.5" y="-681" font-family="Helvetica,sans-Serif" font-size="10.00">GTime()</text>
<text text-anchor="start" x="244.5" y="-666" font-family="Helvetica,sans-Serif" font-size="10.00">+</text>
<text text-anchor="start" x="257.5" y="-666" font-family="Helvetica,sans-Serif" font-size="10.00">GTime()</text>
<text text-anchor="start" x="244.5" y="-651" font-family="Helvetica,sans-Serif" font-size="10.00">+</text>
<text text-anchor="start" x="257.5" y="-651" font-family="Helvetica,sans-Serif" font-size="10.00">GTime()</text>
<text text-anchor="start" x="244.5" y="-636" font-family="Helvetica,sans-Serif" font-size="10.00">+</text>
<text text-anchor="start" x="257.5" y="-636" font-family="Helvetica,sans-Serif" font-size="10.00">to_string()</text>
<text text-anchor="start" x="244.5" y="-621" font-family="Helvetica,sans-Serif" font-size="10.00">+</text>
<text text-anchor="start" x="257.5" y="-621" font-family="Helvetica,sans-Serif" font-size="10.00">operator==()</text>
<text text-anchor="start" x="244.5" y="-606" font-family="Helvetica,sans-Serif" font-size="10.00">+</text>
<text text-anchor="start" x="257.5" y="-606" font-family="Helvetica,sans-Serif" font-size="10.00">operator!=()</text>
<text text-anchor="start" x="244.5" y="-591" font-family="Helvetica,sans-Serif" font-size="10.00">+</text>
<text text-anchor="start" x="257.5" y="-591" font-family="Helvetica,sans-Serif" font-size="10.00">operator&lt;()</text>
<text text-anchor="start" x="244.5" y="-576" font-family="Helvetica,sans-Serif" font-size="10.00">+</text>
<text text-anchor="start" x="257.5" y="-576" font-family="Helvetica,sans-Serif" font-size="10.00">operator&gt;()</text>
<text text-anchor="start" x="244.5" y="-561" font-family="Helvetica,sans-Serif" font-size="10.00">+</text>
<text text-anchor="start" x="257.5" y="-561" font-family="Helvetica,sans-Serif" font-size="10.00">operator&gt;=()</text>
<text text-anchor="start" x="244.5" y="-546" font-family="Helvetica,sans-Serif" font-size="10.00">+</text>
<text text-anchor="start" x="257.5" y="-546" font-family="Helvetica,sans-Serif" font-size="10.00">operator+()</text>
<text text-anchor="start" x="244.5" y="-531" font-family="Helvetica,sans-Serif" font-size="10.00">+</text>
<text text-anchor="start" x="257.5" y="-531" font-family="Helvetica,sans-Serif" font-size="10.00">operator+()</text>
<text text-anchor="start" x="244.5" y="-516" font-family="Helvetica,sans-Serif" font-size="10.00">+</text>
<text text-anchor="start" x="257.5" y="-516" font-family="Helvetica,sans-Serif" font-size="10.00">operator+()</text>
<text text-anchor="start" x="244.5" y="-501" font-family="Helvetica,sans-Serif" font-size="10.00">+</text>
<text text-anchor="start" x="257.5" y="-501" font-family="Helvetica,sans-Serif" font-size="10.00">operator+=()</text>
<text text-anchor="start" x="244.5" y="-486" font-family="Helvetica,sans-Serif" font-size="10.00">+</text>
<text text-anchor="start" x="257.5" y="-486" font-family="Helvetica,sans-Serif" font-size="10.00">operator&#45;=()</text>
<text text-anchor="start" x="244.5" y="-471" font-family="Helvetica,sans-Serif" font-size="10.00">+</text>
<text text-anchor="start" x="257.5" y="-471" font-family="Helvetica,sans-Serif" font-size="10.00">operator&#45;()</text>
<text text-anchor="start" x="244.5" y="-456" font-family="Helvetica,sans-Serif" font-size="10.00">+</text>
<text text-anchor="start" x="257.5" y="-456" font-family="Helvetica,sans-Serif" font-size="10.00">operator&#45;()</text>
<text text-anchor="start" x="244.5" y="-441" font-family="Helvetica,sans-Serif" font-size="10.00">+</text>
<text text-anchor="start" x="257.5" y="-441" font-family="Helvetica,sans-Serif" font-size="10.00">operator&#45;()</text>
<text text-anchor="start" x="244.5" y="-426" font-family="Helvetica,sans-Serif" font-size="10.00">+</text>
<text text-anchor="start" x="257.5" y="-426" font-family="Helvetica,sans-Serif" font-size="10.00">operator++()</text>
<text text-anchor="start" x="244.5" y="-411" font-family="Helvetica,sans-Serif" font-size="10.00">+</text>
<text text-anchor="start" x="257.5" y="-411" font-family="Helvetica,sans-Serif" font-size="10.00">GTime()</text>
<text text-anchor="start" x="244.5" y="-396" font-family="Helvetica,sans-Serif" font-size="10.00">+</text>
<text text-anchor="start" x="257.5" y="-396" font-family="Helvetica,sans-Serif" font-size="10.00">GTime()</text>
<text text-anchor="start" x="244.5" y="-381" font-family="Helvetica,sans-Serif" font-size="10.00">+</text>
<text text-anchor="start" x="257.5" y="-381" font-family="Helvetica,sans-Serif" font-size="10.00">GTime()</text>
<text text-anchor="start" x="244.5" y="-366" font-family="Helvetica,sans-Serif" font-size="10.00">+</text>
<text text-anchor="start" x="257.5" y="-366" font-family="Helvetica,sans-Serif" font-size="10.00">GTime()</text>
<text text-anchor="start" x="244.5" y="-351" font-family="Helvetica,sans-Serif" font-size="10.00">+</text>
<text text-anchor="start" x="257.5" y="-351" font-family="Helvetica,sans-Serif" font-size="10.00">GTime()</text>
<text text-anchor="start" x="244.5" y="-336" font-family="Helvetica,sans-Serif" font-size="10.00">+</text>
<text text-anchor="start" x="257.5" y="-336" font-family="Helvetica,sans-Serif" font-size="10.00">serialize()</text>
<text text-anchor="start" x="244.5" y="-321" font-family="Helvetica,sans-Serif" font-size="10.00">+</text>
<text text-anchor="start" x="257.5" y="-321" font-family="Helvetica,sans-Serif" font-size="10.00">floorTime()</text>
<text text-anchor="start" x="244.5" y="-306" font-family="Helvetica,sans-Serif" font-size="10.00">+</text>
<text text-anchor="start" x="257.5" y="-306" font-family="Helvetica,sans-Serif" font-size="10.00">gregString()</text>
<text text-anchor="start" x="244.5" y="-291" font-family="Helvetica,sans-Serif" font-size="10.00">+</text>
<text text-anchor="start" x="257.5" y="-291" font-family="Helvetica,sans-Serif" font-size="10.00">operator long double()</text>
<text text-anchor="start" x="244.5" y="-276" font-family="Helvetica,sans-Serif" font-size="10.00">+</text>
<text text-anchor="start" x="257.5" y="-276" font-family="Helvetica,sans-Serif" font-size="10.00">operator MjDateTT()</text>
<text text-anchor="start" x="244.5" y="-261" font-family="Helvetica,sans-Serif" font-size="10.00">+</text>
<text text-anchor="start" x="257.5" y="-261" font-family="Helvetica,sans-Serif" font-size="10.00">operator GEpoch()</text>
<text text-anchor="start" x="244.5" y="-246" font-family="Helvetica,sans-Serif" font-size="10.00">+</text>
<text text-anchor="start" x="257.5" y="-246" font-family="Helvetica,sans-Serif" font-size="10.00">operator UtcTime()</text>
<text text-anchor="start" x="244.5" y="-231" font-family="Helvetica,sans-Serif" font-size="10.00">+</text>
<text text-anchor="start" x="257.5" y="-231" font-family="Helvetica,sans-Serif" font-size="10.00">operator GWeek()</text>
<text text-anchor="start" x="244.5" y="-216" font-family="Helvetica,sans-Serif" font-size="10.00">+</text>
<text text-anchor="start" x="257.5" y="-216" font-family="Helvetica,sans-Serif" font-size="10.00">operator BWeek()</text>
<text text-anchor="start" x="244.5" y="-201" font-family="Helvetica,sans-Serif" font-size="10.00">+</text>
<text text-anchor="start" x="257.5" y="-201" font-family="Helvetica,sans-Serif" font-size="10.00">operator GTow()</text>
<text text-anchor="start" x="244.5" y="-186" font-family="Helvetica,sans-Serif" font-size="10.00">+</text>
<text text-anchor="start" x="257.5" y="-186" font-family="Helvetica,sans-Serif" font-size="10.00">operator BTow()</text>
<text text-anchor="start" x="244.5" y="-171" font-family="Helvetica,sans-Serif" font-size="10.00">+</text>
<text text-anchor="start" x="257.5" y="-171" font-family="Helvetica,sans-Serif" font-size="10.00">operator PTime()</text>
<text text-anchor="start" x="244.5" y="-156" font-family="Helvetica,sans-Serif" font-size="10.00">+</text>
<text text-anchor="start" x="257.5" y="-156" font-family="Helvetica,sans-Serif" font-size="10.00">operator string()</text>
<text text-anchor="start" x="244.5" y="-141" font-family="Helvetica,sans-Serif" font-size="10.00">+</text>
<text text-anchor="start" x="257.5" y="-141" font-family="Helvetica,sans-Serif" font-size="10.00">operator RTod()</text>
<text text-anchor="start" x="244.5" y="-126" font-family="Helvetica,sans-Serif" font-size="10.00">+</text>
<text text-anchor="start" x="257.5" y="-126" font-family="Helvetica,sans-Serif" font-size="10.00">noTime()</text>
<polygon fill="#666666" stroke="#666666" points="240.5,-706 240.5,-706 370.5,-706 370.5,-706 240.5,-706"/>
<polygon fill="#666666" stroke="#666666" points="240.5,-691 240.5,-691 255.5,-691 255.5,-691 240.5,-691"/>
<polygon fill="#666666" stroke="#666666" points="255.5,-691 255.5,-691 370.5,-691 370.5,-691 255.5,-691"/>
<polygon fill="none" stroke="#666666" points="240.5,-119 240.5,-723 370.5,-723 370.5,-119 240.5,-119"/>
</a>
</g>
</g>
<!-- Node6&#45;&gt;Node1 -->
<g id="edge4_Node000001_Node000006" class="edge">
<title>Node6&#45;&gt;Node1</title>
<g id="a_edge4_Node000001_Node000006"><a xlink:title=" ">
<path fill="none" stroke="#63b8ff" d="M305.5,-114.71C305.5,-97.55 305.5,-82.07 305.5,-69.16"/>
<polygon fill="none" stroke="#63b8ff" points="305.5,-69.14 301.5,-63.14 305.5,-57.14 309.5,-63.14 305.5,-69.14"/>
</a>
</g>
<text text-anchor="middle" x="322.5" y="-83.5" font-family="Helvetica,sans-Serif" font-size="10.00" fill="grey"> +time</text>
</g>
<!-- Node7 -->
<g id="Node000007" class="node">
<title>Node7</title>
<g id="a_Node000007"><a xlink:href="structVectorEcef.html" target="_top" xlink:title=" ">
<path fill="white" stroke="#666666" d="M482,-487C482,-487 409,-487 409,-487 403,-487 397,-481 397,-475 397,-475 397,-367 397,-367 397,-361 403,-355 409,-355 409,-355 482,-355 482,-355 488,-355 494,-361 494,-367 494,-367 494,-475 494,-475 494,-481 488,-487 482,-487"/>
<text text-anchor="start" x="420" y="-471" font-family="Helvetica,sans-Serif" font-size="10.00">VectorEcef</text>
<text text-anchor="start" x="444" y="-456" font-family="Helvetica,sans-Serif" font-size="10.00"> </text>
<text text-anchor="start" x="409.5" y="-441" font-family="Helvetica,sans-Serif" font-size="10.00">+</text>
<text text-anchor="start" x="422.5" y="-441" font-family="Helvetica,sans-Serif" font-size="10.00">VectorEcef()</text>
<text text-anchor="start" x="409.5" y="-426" font-family="Helvetica,sans-Serif" font-size="10.00">+</text>
<text text-anchor="start" x="422.5" y="-426" font-family="Helvetica,sans-Serif" font-size="10.00">VectorEcef()</text>
<text text-anchor="start" x="409.5" y="-411" font-family="Helvetica,sans-Serif" font-size="10.00">+</text>
<text text-anchor="start" x="422.5" y="-411" font-family="Helvetica,sans-Serif" font-size="10.00">operator=()</text>
<text text-anchor="start" x="409.5" y="-396" font-family="Helvetica,sans-Serif" font-size="10.00">+</text>
<text text-anchor="start" x="422.5" y="-396" font-family="Helvetica,sans-Serif" font-size="10.00">operator*()</text>
<text text-anchor="start" x="409.5" y="-381" font-family="Helvetica,sans-Serif" font-size="10.00">+</text>
<text text-anchor="start" x="422.5" y="-381" font-family="Helvetica,sans-Serif" font-size="10.00">operator&#45;()</text>
<text text-anchor="start" x="409.5" y="-366" font-family="Helvetica,sans-Serif" font-size="10.00">+</text>
<text text-anchor="start" x="422.5" y="-366" font-family="Helvetica,sans-Serif" font-size="10.00">operator+()</text>
<polygon fill="#666666" stroke="#666666" points="405.5,-466 405.5,-466 486.5,-466 486.5,-466 405.5,-466"/>
<polygon fill="#666666" stroke="#666666" points="405.5,-451 405.5,-451 486.5,-451 486.5,-451 405.5,-451"/>
<polygon fill="none" stroke="#666666" points="405,-359 405,-483 486,-483 486,-359 405,-359"/>
</a>
</g>
</g>
<!-- Node7&#45;&gt;Node1 -->
<g id="edge5_Node000001_Node000007" class="edge">
<title>Node7&#45;&gt;Node1</title>
<g id="a_edge5_Node000001_Node000007"><a xlink:title=" ">
<path fill="none" stroke="#63b8ff" d="M443.77,-354.93C439.69,-290.69 426.85,-191.29 387.5,-115 377.66,-95.93 362.22,-78.2 347.38,-63.89"/>
<polygon fill="none" stroke="#63b8ff" points="347.07,-63.6 339.95,-62.45 338.27,-55.43 345.39,-56.58 347.07,-63.6"/>
</a>
</g>
<text text-anchor="middle" x="391" y="-89" font-family="Helvetica,sans-Serif" font-size="10.00" fill="grey"> +pos</text>
<text text-anchor="middle" x="391" y="-78" font-family="Helvetica,sans-Serif" font-size="10.00" fill="grey">+vel</text>
</g>
<!-- Node8 -->
<g id="Node000008" class="node">
<title>Node8</title>
<g id="a_Node000008"><a xlink:title=" ">
<path fill="white" stroke="#666666" d="M526,-836.5C526,-836.5 481,-836.5 481,-836.5 475,-836.5 469,-830.5 469,-824.5 469,-824.5 469,-791.5 469,-791.5 469,-785.5 475,-779.5 481,-779.5 481,-779.5 526,-779.5 526,-779.5 532,-779.5 538,-785.5 538,-791.5 538,-791.5 538,-824.5 538,-824.5 538,-830.5 532,-836.5 526,-836.5"/>
<text text-anchor="start" x="482.5" y="-820" font-family="Helvetica,sans-Serif" font-size="10.00">Vector3d</text>
<text text-anchor="start" x="502" y="-805" font-family="Helvetica,sans-Serif" font-size="10.00"> </text>
<text text-anchor="start" x="502" y="-790" font-family="Helvetica,sans-Serif" font-size="10.00"> </text>
<polygon fill="#666666" stroke="#666666" points="477.5,-815 477.5,-815 530.5,-815 530.5,-815 477.5,-815"/>
<polygon fill="#666666" stroke="#666666" points="477.5,-800 477.5,-800 530.5,-800 530.5,-800 477.5,-800"/>
<polygon fill="none" stroke="#666666" points="477,-783.5 477,-832.5 530,-832.5 530,-783.5 477,-783.5"/>
</a>
</g>
</g>
<!-- Node8&#45;&gt;Node1 -->
<g id="edge7_Node000001_Node000008" class="edge">
<title>Node8&#45;&gt;Node1</title>
<g id="a_edge7_Node000001_Node000008"><a xlink:title=" ">
<path fill="none" stroke="#63b8ff" d="M513.35,-779.19C546.88,-679.22 646.72,-332.54 502.5,-115 468.65,-63.94 397.09,-43.2 350.18,-34.9"/>
<polygon fill="none" stroke="#63b8ff" points="350.08,-34.88 343.52,-37.87 338.24,-32.96 344.8,-29.97 350.08,-34.88"/>
</a>
</g>
<text text-anchor="middle" x="600" y="-424" font-family="Helvetica,sans-Serif" font-size="10.00" fill="grey"> +posStd</text>
<text text-anchor="middle" x="600" y="-413" font-family="Helvetica,sans-Serif" font-size="10.00" fill="grey">+velStd</text>
</g>
<!-- Node8&#45;&gt;Node7 -->
<g id="edge6_Node000007_Node000008" class="edge">
<title>Node8&#45;&gt;Node7</title>
<g id="a_edge6_Node000007_Node000008"><a xlink:title=" ">
<path fill="none" stroke="#63b8ff" d="M497.78,-769.02C487.89,-703.38 467.49,-567.99 455.31,-487.09"/>
<polygon fill="none" stroke="#63b8ff" points="494.38,-769.94 499.33,-779.31 501.3,-768.9 494.38,-769.94"/>
</a>
</g>
</g>
</g>
</svg>
