<?xml version="1.0" encoding="UTF-8" standalone="no"?>
<!DOCTYPE svg PUBLIC "-//W3C//DTD SVG 1.1//EN"
 "http://www.w3.org/Graphics/SVG/1.1/DTD/svg11.dtd">
<!-- Generated by graphviz version 2.43.0 (0)
 -->
<!-- Title: MinimumConstraintOptions Pages: 1 -->
<svg width="1145pt" height="530pt"
 viewBox="0.00 0.00 1145.00 530.00" xmlns="http://www.w3.org/2000/svg" xmlns:xlink="http://www.w3.org/1999/xlink">
<g id="graph0" class="graph" transform="scale(1 1) rotate(0) translate(4 526)">
<title>MinimumConstraintOptions</title>
<!-- Node1 -->
<g id="Node000001" class="node">
<title>Node1</title>
<g id="a_Node000001"><a xlink:href="structMinimumConstraintOptions.html" target="_top" xlink:title="Options associated with the minimum constraints mode of operation.">
<path fill="white" stroke="#666666" stroke-width="2" d="M690,-117C690,-117 553,-117 553,-117 547,-117 541,-111 541,-105 541,-105 541,-12 541,-12 541,-6 547,0 553,0 553,0 690,0 690,0 696,0 702,-6 702,-12 702,-12 702,-105 702,-105 702,-111 696,-117 690,-117"/>
<text text-anchor="start" x="554.5" y="-100.5" font-family="Helvetica,sans-Serif" font-size="10.00">MinimumConstraintOptions</text>
<text text-anchor="start" x="556.5" y="-85.5" font-family="Helvetica,sans-Serif" font-size="10.00">+</text>
<text text-anchor="start" x="572.5" y="-85.5" font-family="Helvetica,sans-Serif" font-size="10.00">once_per_epoch</text>
<text text-anchor="start" x="556.5" y="-70.5" font-family="Helvetica,sans-Serif" font-size="10.00">+</text>
<text text-anchor="start" x="572.5" y="-70.5" font-family="Helvetica,sans-Serif" font-size="10.00">full_vcv</text>
<text text-anchor="start" x="556.5" y="-55.5" font-family="Helvetica,sans-Serif" font-size="10.00">+</text>
<text text-anchor="start" x="572.5" y="-55.5" font-family="Helvetica,sans-Serif" font-size="10.00">constrain_orbits</text>
<text text-anchor="start" x="556.5" y="-40.5" font-family="Helvetica,sans-Serif" font-size="10.00">+</text>
<text text-anchor="start" x="572.5" y="-40.5" font-family="Helvetica,sans-Serif" font-size="10.00">transform_unweighted</text>
<text text-anchor="start" x="556.5" y="-25.5" font-family="Helvetica,sans-Serif" font-size="10.00">+</text>
<text text-anchor="start" x="572.5" y="-25.5" font-family="Helvetica,sans-Serif" font-size="10.00">application_mode</text>
<text text-anchor="start" x="620" y="-10.5" font-family="Helvetica,sans-Serif" font-size="10.00"> </text>
<polygon fill="#666666" stroke="#666666" points="549.5,-95.5 549.5,-95.5 694.5,-95.5 694.5,-95.5 549.5,-95.5"/>
<polygon fill="#666666" stroke="#666666" points="549.5,-20.5 549.5,-20.5 570.5,-20.5 570.5,-20.5 549.5,-20.5"/>
<polygon fill="#666666" stroke="#666666" points="570.5,-20.5 570.5,-20.5 694.5,-20.5 694.5,-20.5 570.5,-20.5"/>
<polygon fill="none" stroke="#666666" points="549,-4 549,-113 694,-113 694,-4 549,-4"/>
</a>
</g>
</g>
<!-- Node2 -->
<g id="Node000002" class="node">
<title>Node2</title>
<g id="a_Node000002"><a xlink:href="structFilterOptions.html" target="_top" xlink:title=" ">
<path fill="white" stroke="#666666" d="M473,-314C473,-314 362,-314 362,-314 356,-314 350,-308 350,-302 350,-302 350,-209 350,-209 350,-203 356,-197 362,-197 362,-197 473,-197 473,-197 479,-197 485,-203 485,-209 485,-209 485,-302 485,-302 485,-308 479,-314 473,-314"/>
<text text-anchor="start" x="386.5" y="-297.5" font-family="Helvetica,sans-Serif" font-size="10.00">FilterOptions</text>
<text text-anchor="start" x="362.5" y="-282.5" font-family="Helvetica,sans-Serif" font-size="10.00">+</text>
<text text-anchor="start" x="375.5" y="-282.5" font-family="Helvetica,sans-Serif" font-size="10.00">simulate_filter_only</text>
<text text-anchor="start" x="362.5" y="-267.5" font-family="Helvetica,sans-Serif" font-size="10.00">+</text>
<text text-anchor="start" x="375.5" y="-267.5" font-family="Helvetica,sans-Serif" font-size="10.00">assume_linearity</text>
<text text-anchor="start" x="362.5" y="-252.5" font-family="Helvetica,sans-Serif" font-size="10.00">+</text>
<text text-anchor="start" x="375.5" y="-252.5" font-family="Helvetica,sans-Serif" font-size="10.00">advanced_postfits</text>
<text text-anchor="start" x="362.5" y="-237.5" font-family="Helvetica,sans-Serif" font-size="10.00">+</text>
<text text-anchor="start" x="375.5" y="-237.5" font-family="Helvetica,sans-Serif" font-size="10.00">joseph_stabilisation</text>
<text text-anchor="start" x="362.5" y="-222.5" font-family="Helvetica,sans-Serif" font-size="10.00">+</text>
<text text-anchor="start" x="375.5" y="-222.5" font-family="Helvetica,sans-Serif" font-size="10.00">inverter</text>
<text text-anchor="start" x="416" y="-207.5" font-family="Helvetica,sans-Serif" font-size="10.00"> </text>
<polygon fill="#666666" stroke="#666666" points="358.5,-292.5 358.5,-292.5 477.5,-292.5 477.5,-292.5 358.5,-292.5"/>
<polygon fill="#666666" stroke="#666666" points="358.5,-217.5 358.5,-217.5 373.5,-217.5 373.5,-217.5 358.5,-217.5"/>
<polygon fill="#666666" stroke="#666666" points="373.5,-217.5 373.5,-217.5 477.5,-217.5 477.5,-217.5 373.5,-217.5"/>
<polygon fill="none" stroke="#666666" points="358,-201 358,-310 477,-310 477,-201 358,-201"/>
</a>
</g>
</g>
<!-- Node2&#45;&gt;Node1 -->
<g id="edge1_Node000001_Node000002" class="edge">
<title>Node2&#45;&gt;Node1</title>
<g id="a_edge1_Node000001_Node000002"><a xlink:title=" ">
<path fill="none" stroke="#63b8ff" d="M485.39,-189.6C509.93,-166.15 537.44,-139.85 561.28,-117.07"/>
<polygon fill="none" stroke="#63b8ff" points="482.69,-187.35 477.88,-196.79 487.53,-192.41 482.69,-187.35"/>
</a>
</g>
</g>
<!-- Node3 -->
<g id="Node000003" class="node">
<title>Node3</title>
<g id="a_Node000003"><a xlink:href="structRtsOptions.html" target="_top" xlink:title=" ">
<path fill="#fff0f0" stroke="red" d="M143,-522C143,-522 12,-522 12,-522 6,-522 0,-516 0,-510 0,-510 0,-417 0,-417 0,-411 6,-405 12,-405 12,-405 143,-405 143,-405 149,-405 155,-411 155,-417 155,-417 155,-510 155,-510 155,-516 149,-522 143,-522"/>
<text text-anchor="start" x="51" y="-505.5" font-family="Helvetica,sans-Serif" font-size="10.00">RtsOptions</text>
<text text-anchor="start" x="12.5" y="-490.5" font-family="Helvetica,sans-Serif" font-size="10.00">+</text>
<text text-anchor="start" x="25.5" y="-490.5" font-family="Helvetica,sans-Serif" font-size="10.00">rts_lag</text>
<text text-anchor="start" x="12.5" y="-475.5" font-family="Helvetica,sans-Serif" font-size="10.00">+</text>
<text text-anchor="start" x="25.5" y="-475.5" font-family="Helvetica,sans-Serif" font-size="10.00">rts_interval</text>
<text text-anchor="start" x="12.5" y="-460.5" font-family="Helvetica,sans-Serif" font-size="10.00">+</text>
<text text-anchor="start" x="25.5" y="-460.5" font-family="Helvetica,sans-Serif" font-size="10.00">output_intermediate_rts</text>
<text text-anchor="start" x="12.5" y="-445.5" font-family="Helvetica,sans-Serif" font-size="10.00">+</text>
<text text-anchor="start" x="25.5" y="-445.5" font-family="Helvetica,sans-Serif" font-size="10.00">queue_rts_outputs</text>
<text text-anchor="start" x="12.5" y="-430.5" font-family="Helvetica,sans-Serif" font-size="10.00">+</text>
<text text-anchor="start" x="25.5" y="-430.5" font-family="Helvetica,sans-Serif" font-size="10.00">rts_inverter</text>
<text text-anchor="start" x="76" y="-415.5" font-family="Helvetica,sans-Serif" font-size="10.00"> </text>
<polygon fill="red" stroke="red" points="8.5,-500.5 8.5,-500.5 147.5,-500.5 147.5,-500.5 8.5,-500.5"/>
<polygon fill="red" stroke="red" points="8.5,-425.5 8.5,-425.5 23.5,-425.5 23.5,-425.5 8.5,-425.5"/>
<polygon fill="red" stroke="red" points="23.5,-425.5 23.5,-425.5 147.5,-425.5 147.5,-425.5 23.5,-425.5"/>
<polygon fill="none" stroke="red" points="8,-409 8,-518 147,-518 147,-409 8,-409"/>
</a>
</g>
</g>
<!-- Node3&#45;&gt;Node2 -->
<g id="edge2_Node000002_Node000003" class="edge">
<title>Node3&#45;&gt;Node2</title>
<g id="a_edge2_Node000002_Node000003"><a xlink:title=" ">
<path fill="none" stroke="#63b8ff" d="M163.88,-404.82C231.77,-362.55 300.54,-322.66 349.99,-294.49"/>
<polygon fill="none" stroke="#63b8ff" points="161.81,-401.99 155.18,-410.26 165.51,-407.93 161.81,-401.99"/>
</a>
</g>
</g>
<!-- Node5 -->
<g id="Node000005" class="node">
<title>Node5</title>
<g id="a_Node000005"><a xlink:href="structPrefitOptions.html" target="_top" xlink:title=" ">
<path fill="white" stroke="#666666" d="M312,-522C312,-522 185,-522 185,-522 179,-522 173,-516 173,-510 173,-510 173,-417 173,-417 173,-411 179,-405 185,-405 185,-405 312,-405 312,-405 318,-405 324,-411 324,-417 324,-417 324,-510 324,-510 324,-516 318,-522 312,-522"/>
<text text-anchor="start" x="217" y="-505.5" font-family="Helvetica,sans-Serif" font-size="10.00">PrefitOptions</text>
<text text-anchor="start" x="185.5" y="-490.5" font-family="Helvetica,sans-Serif" font-size="10.00">+</text>
<text text-anchor="start" x="198.5" y="-490.5" font-family="Helvetica,sans-Serif" font-size="10.00">max_iterations</text>
<text text-anchor="start" x="185.5" y="-475.5" font-family="Helvetica,sans-Serif" font-size="10.00">+</text>
<text text-anchor="start" x="198.5" y="-475.5" font-family="Helvetica,sans-Serif" font-size="10.00">sigma_check</text>
<text text-anchor="start" x="185.5" y="-460.5" font-family="Helvetica,sans-Serif" font-size="10.00">+</text>
<text text-anchor="start" x="198.5" y="-460.5" font-family="Helvetica,sans-Serif" font-size="10.00">state_sigma_threshold</text>
<text text-anchor="start" x="185.5" y="-445.5" font-family="Helvetica,sans-Serif" font-size="10.00">+</text>
<text text-anchor="start" x="198.5" y="-445.5" font-family="Helvetica,sans-Serif" font-size="10.00">meas_sigma_threshold</text>
<text text-anchor="start" x="185.5" y="-430.5" font-family="Helvetica,sans-Serif" font-size="10.00">+</text>
<text text-anchor="start" x="198.5" y="-430.5" font-family="Helvetica,sans-Serif" font-size="10.00">omega_test</text>
<text text-anchor="start" x="247" y="-415.5" font-family="Helvetica,sans-Serif" font-size="10.00"> </text>
<polygon fill="#666666" stroke="#666666" points="181.5,-500.5 181.5,-500.5 316.5,-500.5 316.5,-500.5 181.5,-500.5"/>
<polygon fill="#666666" stroke="#666666" points="181.5,-425.5 181.5,-425.5 196.5,-425.5 196.5,-425.5 181.5,-425.5"/>
<polygon fill="#666666" stroke="#666666" points="196.5,-425.5 196.5,-425.5 316.5,-425.5 316.5,-425.5 196.5,-425.5"/>
<polygon fill="none" stroke="#666666" points="181,-409 181,-518 316,-518 316,-409 181,-409"/>
</a>
</g>
</g>
<!-- Node5&#45;&gt;Node2 -->
<g id="edge3_Node000002_Node000005" class="edge">
<title>Node5&#45;&gt;Node2</title>
<g id="a_edge3_Node000002_Node000005"><a xlink:title=" ">
<path fill="none" stroke="#63b8ff" d="M294.44,-404.75C312.7,-381.98 333.96,-355.65 353.5,-332 355.83,-329.18 358.22,-326.3 360.64,-323.4"/>
<polygon fill="none" stroke="#63b8ff" points="360.73,-323.29 361.51,-316.12 368.43,-314.08 367.65,-321.25 360.73,-323.29"/>
</a>
</g>
<text text-anchor="middle" x="383.5" y="-357" font-family="Helvetica,sans-Serif" font-size="10.00" fill="grey"> +prefitOpts</text>
</g>
<!-- Node6 -->
<g id="Node000006" class="node">
<title>Node6</title>
<g id="a_Node000006"><a xlink:href="structPostfitOptions.html" target="_top" xlink:title=" ">
<path fill="white" stroke="#666666" d="M481,-514.5C481,-514.5 354,-514.5 354,-514.5 348,-514.5 342,-508.5 342,-502.5 342,-502.5 342,-424.5 342,-424.5 342,-418.5 348,-412.5 354,-412.5 354,-412.5 481,-412.5 481,-412.5 487,-412.5 493,-418.5 493,-424.5 493,-424.5 493,-502.5 493,-502.5 493,-508.5 487,-514.5 481,-514.5"/>
<text text-anchor="start" x="383.5" y="-498.5" font-family="Helvetica,sans-Serif" font-size="10.00">PostfitOptions</text>
<text text-anchor="start" x="354.5" y="-483.5" font-family="Helvetica,sans-Serif" font-size="10.00">+</text>
<text text-anchor="start" x="367.5" y="-483.5" font-family="Helvetica,sans-Serif" font-size="10.00">max_iterations</text>
<text text-anchor="start" x="354.5" y="-468.5" font-family="Helvetica,sans-Serif" font-size="10.00">+</text>
<text text-anchor="start" x="367.5" y="-468.5" font-family="Helvetica,sans-Serif" font-size="10.00">sigma_check</text>
<text text-anchor="start" x="354.5" y="-453.5" font-family="Helvetica,sans-Serif" font-size="10.00">+</text>
<text text-anchor="start" x="367.5" y="-453.5" font-family="Helvetica,sans-Serif" font-size="10.00">state_sigma_threshold</text>
<text text-anchor="start" x="354.5" y="-438.5" font-family="Helvetica,sans-Serif" font-size="10.00">+</text>
<text text-anchor="start" x="367.5" y="-438.5" font-family="Helvetica,sans-Serif" font-size="10.00">meas_sigma_threshold</text>
<text text-anchor="start" x="416" y="-423.5" font-family="Helvetica,sans-Serif" font-size="10.00"> </text>
<polygon fill="#666666" stroke="#666666" points="350.5,-493.5 350.5,-493.5 485.5,-493.5 485.5,-493.5 350.5,-493.5"/>
<polygon fill="#666666" stroke="#666666" points="350.5,-433.5 350.5,-433.5 365.5,-433.5 365.5,-433.5 350.5,-433.5"/>
<polygon fill="#666666" stroke="#666666" points="365.5,-433.5 365.5,-433.5 485.5,-433.5 485.5,-433.5 365.5,-433.5"/>
<polygon fill="none" stroke="#666666" points="350,-416.5 350,-510.5 485,-510.5 485,-416.5 350,-416.5"/>
</a>
</g>
</g>
<!-- Node6&#45;&gt;Node2 -->
<g id="edge4_Node000002_Node000006" class="edge">
<title>Node6&#45;&gt;Node2</title>
<g id="a_edge4_Node000002_Node000006"><a xlink:title=" ">
<path fill="none" stroke="#63b8ff" d="M417.5,-412.37C417.5,-386.54 417.5,-354.62 417.5,-326.41"/>
<polygon fill="none" stroke="#63b8ff" points="417.5,-326.16 413.5,-320.16 417.5,-314.16 421.5,-320.16 417.5,-326.16"/>
</a>
</g>
<text text-anchor="middle" x="450" y="-357" font-family="Helvetica,sans-Serif" font-size="10.00" fill="grey"> +postfitOpts</text>
</g>
<!-- Node7 -->
<g id="Node000007" class="node">
<title>Node7</title>
<g id="a_Node000007"><a xlink:href="structChiSquareOptions.html" target="_top" xlink:title=" ">
<path fill="white" stroke="#666666" d="M618,-507C618,-507 523,-507 523,-507 517,-507 511,-501 511,-495 511,-495 511,-432 511,-432 511,-426 517,-420 523,-420 523,-420 618,-420 618,-420 624,-420 630,-426 630,-432 630,-432 630,-495 630,-495 630,-501 624,-507 618,-507"/>
<text text-anchor="start" x="527" y="-490.5" font-family="Helvetica,sans-Serif" font-size="10.00">ChiSquareOptions</text>
<text text-anchor="start" x="523.5" y="-475.5" font-family="Helvetica,sans-Serif" font-size="10.00">+</text>
<text text-anchor="start" x="536.5" y="-475.5" font-family="Helvetica,sans-Serif" font-size="10.00">enable</text>
<text text-anchor="start" x="523.5" y="-460.5" font-family="Helvetica,sans-Serif" font-size="10.00">+</text>
<text text-anchor="start" x="536.5" y="-460.5" font-family="Helvetica,sans-Serif" font-size="10.00">mode</text>
<text text-anchor="start" x="523.5" y="-445.5" font-family="Helvetica,sans-Serif" font-size="10.00">+</text>
<text text-anchor="start" x="536.5" y="-445.5" font-family="Helvetica,sans-Serif" font-size="10.00">sigma_threshold</text>
<text text-anchor="start" x="569" y="-430.5" font-family="Helvetica,sans-Serif" font-size="10.00"> </text>
<polygon fill="#666666" stroke="#666666" points="519.5,-485.5 519.5,-485.5 622.5,-485.5 622.5,-485.5 519.5,-485.5"/>
<polygon fill="#666666" stroke="#666666" points="519.5,-440.5 519.5,-440.5 534.5,-440.5 534.5,-440.5 519.5,-440.5"/>
<polygon fill="#666666" stroke="#666666" points="534.5,-440.5 534.5,-440.5 622.5,-440.5 622.5,-440.5 534.5,-440.5"/>
<polygon fill="none" stroke="#666666" points="519,-424 519,-503 622,-503 622,-424 519,-424"/>
</a>
</g>
</g>
<!-- Node7&#45;&gt;Node2 -->
<g id="edge5_Node000002_Node000007" class="edge">
<title>Node7&#45;&gt;Node2</title>
<g id="a_edge5_Node000002_Node000007"><a xlink:title=" ">
<path fill="none" stroke="#63b8ff" d="M545.56,-419.84C529.69,-393.74 508.12,-360.07 486.5,-332 484.37,-329.23 482.15,-326.44 479.89,-323.65"/>
<polygon fill="none" stroke="#63b8ff" points="479.68,-323.4 472.77,-321.35 472,-314.18 478.91,-316.23 479.68,-323.4"/>
</a>
</g>
<text text-anchor="middle" x="563" y="-357" font-family="Helvetica,sans-Serif" font-size="10.00" fill="grey"> +chiSquareTest</text>
</g>
<!-- Node8 -->
<g id="Node000008" class="node">
<title>Node8</title>
<g id="a_Node000008"><a xlink:href="structKalmanModel.html" target="_top" xlink:title="Options associated with kalman filter states.">
<path fill="white" stroke="#666666" d="M868,-284C868,-284 789,-284 789,-284 783,-284 777,-278 777,-272 777,-272 777,-239 777,-239 777,-233 783,-227 789,-227 789,-227 868,-227 868,-227 874,-227 880,-233 880,-239 880,-239 880,-272 880,-272 880,-278 874,-284 868,-284"/>
<text text-anchor="start" x="795" y="-267.5" font-family="Helvetica,sans-Serif" font-size="10.00">KalmanModel</text>
<text text-anchor="start" x="827" y="-252.5" font-family="Helvetica,sans-Serif" font-size="10.00"> </text>
<text text-anchor="start" x="789.5" y="-237.5" font-family="Helvetica,sans-Serif" font-size="10.00">+</text>
<text text-anchor="start" x="802.5" y="-237.5" font-family="Helvetica,sans-Serif" font-size="10.00">operator+=()</text>
<polygon fill="#666666" stroke="#666666" points="785.5,-262.5 785.5,-262.5 872.5,-262.5 872.5,-262.5 785.5,-262.5"/>
<polygon fill="#666666" stroke="#666666" points="785.5,-247.5 785.5,-247.5 872.5,-247.5 872.5,-247.5 785.5,-247.5"/>
<polygon fill="none" stroke="#666666" points="785,-231 785,-280 872,-280 872,-231 785,-231"/>
</a>
</g>
</g>
<!-- Node8&#45;&gt;Node1 -->
<g id="edge6_Node000001_Node000008" class="edge">
<title>Node8&#45;&gt;Node1</title>
<g id="a_edge6_Node000001_Node000008"><a xlink:title=" ">
<path fill="none" stroke="#63b8ff" d="M799.28,-226.97C771.54,-200.84 728.76,-160.54 692.11,-126.02"/>
<polygon fill="none" stroke="#63b8ff" points="691.67,-125.61 684.56,-124.4 682.94,-117.38 690.05,-118.58 691.67,-125.61"/>
</a>
</g>
<text text-anchor="middle" x="774" y="-171" font-family="Helvetica,sans-Serif" font-size="10.00" fill="grey"> +delay</text>
<text text-anchor="middle" x="774" y="-160" font-family="Helvetica,sans-Serif" font-size="10.00" fill="grey">+rotation</text>
<text text-anchor="middle" x="774" y="-149" font-family="Helvetica,sans-Serif" font-size="10.00" fill="grey">+scale</text>
<text text-anchor="middle" x="774" y="-138" font-family="Helvetica,sans-Serif" font-size="10.00" fill="grey">+translation</text>
</g>
<!-- Node9 -->
<g id="Node000009" class="node">
<title>Node9</title>
<g id="a_Node000009"><a xlink:title=" ">
<path fill="#fff0f0" stroke="red" d="M749,-492C749,-492 660,-492 660,-492 654,-492 648,-486 648,-480 648,-480 648,-447 648,-447 648,-441 654,-435 660,-435 660,-435 749,-435 749,-435 755,-435 761,-441 761,-447 761,-447 761,-480 761,-480 761,-486 755,-492 749,-492"/>
<text text-anchor="start" x="661.5" y="-475.5" font-family="Helvetica,sans-Serif" font-size="10.00">vector&lt; double &gt;</text>
<text text-anchor="start" x="703" y="-460.5" font-family="Helvetica,sans-Serif" font-size="10.00"> </text>
<text text-anchor="start" x="703" y="-445.5" font-family="Helvetica,sans-Serif" font-size="10.00"> </text>
<polygon fill="red" stroke="red" points="656.5,-470.5 656.5,-470.5 753.5,-470.5 753.5,-470.5 656.5,-470.5"/>
<polygon fill="red" stroke="red" points="656.5,-455.5 656.5,-455.5 753.5,-455.5 753.5,-455.5 656.5,-455.5"/>
<polygon fill="none" stroke="red" points="656,-439 656,-488 753,-488 753,-439 656,-439"/>
</a>
</g>
</g>
<!-- Node9&#45;&gt;Node8 -->
<g id="edge7_Node000008_Node000009" class="edge">
<title>Node9&#45;&gt;Node8</title>
<g id="a_edge7_Node000008_Node000009"><a xlink:title=" ">
<path fill="none" stroke="#63b8ff" d="M709.13,-434.74C714.71,-407.04 725.98,-364.08 746.5,-332 755.81,-317.44 768.61,-303.85 781.33,-292.32"/>
<polygon fill="none" stroke="#63b8ff" points="781.47,-292.19 783.37,-285.24 790.52,-284.31 788.62,-291.27 781.47,-292.19"/>
</a>
</g>
<text text-anchor="middle" x="785.5" y="-379" font-family="Helvetica,sans-Serif" font-size="10.00" fill="grey"> +apriori_value</text>
<text text-anchor="middle" x="785.5" y="-368" font-family="Helvetica,sans-Serif" font-size="10.00" fill="grey">+mu</text>
<text text-anchor="middle" x="785.5" y="-357" font-family="Helvetica,sans-Serif" font-size="10.00" fill="grey">+process_noise</text>
<text text-anchor="middle" x="785.5" y="-346" font-family="Helvetica,sans-Serif" font-size="10.00" fill="grey">+sigma</text>
<text text-anchor="middle" x="785.5" y="-335" font-family="Helvetica,sans-Serif" font-size="10.00" fill="grey">+tau</text>
</g>
<!-- Node11 -->
<g id="Node000011" class="node">
<title>Node11</title>
<g id="a_Node000011"><a xlink:title=" ">
<path fill="#fff0f0" stroke="red" d="M868,-492C868,-492 791,-492 791,-492 785,-492 779,-486 779,-480 779,-480 779,-447 779,-447 779,-441 785,-435 791,-435 791,-435 868,-435 868,-435 874,-435 880,-441 880,-447 880,-447 880,-480 880,-480 880,-486 874,-492 868,-492"/>
<text text-anchor="start" x="792.5" y="-475.5" font-family="Helvetica,sans-Serif" font-size="10.00">vector&lt; bool &gt;</text>
<text text-anchor="start" x="828" y="-460.5" font-family="Helvetica,sans-Serif" font-size="10.00"> </text>
<text text-anchor="start" x="828" y="-445.5" font-family="Helvetica,sans-Serif" font-size="10.00"> </text>
<polygon fill="red" stroke="red" points="787.5,-470.5 787.5,-470.5 872.5,-470.5 872.5,-470.5 787.5,-470.5"/>
<polygon fill="red" stroke="red" points="787.5,-455.5 787.5,-455.5 872.5,-455.5 872.5,-455.5 787.5,-455.5"/>
<polygon fill="none" stroke="red" points="787,-439 787,-488 872,-488 872,-439 787,-439"/>
</a>
</g>
</g>
<!-- Node11&#45;&gt;Node8 -->
<g id="edge8_Node000008_Node000011" class="edge">
<title>Node11&#45;&gt;Node8</title>
<g id="a_edge8_Node000008_Node000011"><a xlink:title=" ">
<path fill="none" stroke="#63b8ff" d="M829.37,-434.72C829.19,-399.06 828.89,-336.97 828.69,-296.31"/>
<polygon fill="none" stroke="#63b8ff" points="828.69,-296.17 824.66,-290.19 828.63,-284.17 832.66,-290.15 828.69,-296.17"/>
</a>
</g>
<text text-anchor="middle" x="879.5" y="-362.5" font-family="Helvetica,sans-Serif" font-size="10.00" fill="grey"> +estimate</text>
<text text-anchor="middle" x="879.5" y="-351.5" font-family="Helvetica,sans-Serif" font-size="10.00" fill="grey">+use_remote_sigma</text>
</g>
<!-- Node12 -->
<g id="Node000012" class="node">
<title>Node12</title>
<g id="a_Node000012"><a xlink:title=" ">
<path fill="#fff0f0" stroke="red" d="M995.5,-492C995.5,-492 911.5,-492 911.5,-492 905.5,-492 899.5,-486 899.5,-480 899.5,-480 899.5,-447 899.5,-447 899.5,-441 905.5,-435 911.5,-435 911.5,-435 995.5,-435 995.5,-435 1001.5,-435 1007.5,-441 1007.5,-447 1007.5,-447 1007.5,-480 1007.5,-480 1007.5,-486 1001.5,-492 995.5,-492"/>
<text text-anchor="start" x="912.5" y="-475.5" font-family="Helvetica,sans-Serif" font-size="10.00">vector&lt; string &gt;</text>
<text text-anchor="start" x="951.5" y="-460.5" font-family="Helvetica,sans-Serif" font-size="10.00"> </text>
<text text-anchor="start" x="951.5" y="-445.5" font-family="Helvetica,sans-Serif" font-size="10.00"> </text>
<polygon fill="red" stroke="red" points="907.5,-470.5 907.5,-470.5 999.5,-470.5 999.5,-470.5 907.5,-470.5"/>
<polygon fill="red" stroke="red" points="907.5,-455.5 907.5,-455.5 999.5,-455.5 999.5,-455.5 907.5,-455.5"/>
<polygon fill="none" stroke="red" points="907.5,-439 907.5,-488 999.5,-488 999.5,-439 907.5,-439"/>
</a>
</g>
</g>
<!-- Node12&#45;&gt;Node8 -->
<g id="edge9_Node000008_Node000012" class="edge">
<title>Node12&#45;&gt;Node8</title>
<g id="a_edge9_Node000008_Node000012"><a xlink:title=" ">
<path fill="none" stroke="#63b8ff" d="M954.68,-434.93C954.61,-406.98 950.92,-363.48 931.5,-332 921.33,-315.51 906.11,-301.49 890.46,-290.16"/>
<polygon fill="none" stroke="#63b8ff" points="890.07,-289.89 882.86,-289.8 880.17,-283.11 887.38,-283.2 890.07,-289.89"/>
</a>
</g>
<text text-anchor="middle" x="979.5" y="-357" font-family="Helvetica,sans-Serif" font-size="10.00" fill="grey"> +comment</text>
</g>
<!-- Node13 -->
<g id="Node000013" class="node">
<title>Node13</title>
<g id="a_Node000013"><a xlink:title=" ">
<path fill="#fff0f0" stroke="red" d="M1125,-492C1125,-492 1038,-492 1038,-492 1032,-492 1026,-486 1026,-480 1026,-480 1026,-447 1026,-447 1026,-441 1032,-435 1038,-435 1038,-435 1125,-435 1125,-435 1131,-435 1137,-441 1137,-447 1137,-447 1137,-480 1137,-480 1137,-486 1131,-492 1125,-492"/>
<text text-anchor="start" x="1039.5" y="-475.5" font-family="Helvetica,sans-Serif" font-size="10.00">map&lt; int, bool &gt;</text>
<text text-anchor="start" x="1080" y="-460.5" font-family="Helvetica,sans-Serif" font-size="10.00"> </text>
<text text-anchor="start" x="1080" y="-445.5" font-family="Helvetica,sans-Serif" font-size="10.00"> </text>
<polygon fill="red" stroke="red" points="1034.5,-470.5 1034.5,-470.5 1129.5,-470.5 1129.5,-470.5 1034.5,-470.5"/>
<polygon fill="red" stroke="red" points="1034.5,-455.5 1034.5,-455.5 1129.5,-455.5 1129.5,-455.5 1034.5,-455.5"/>
<polygon fill="none" stroke="red" points="1034,-439 1034,-488 1129,-488 1129,-439 1034,-439"/>
</a>
</g>
</g>
<!-- Node13&#45;&gt;Node8 -->
<g id="edge10_Node000008_Node000013" class="edge">
<title>Node13&#45;&gt;Node8</title>
<g id="a_edge10_Node000008_Node000013"><a xlink:title=" ">
<path fill="none" stroke="#63b8ff" d="M1073.23,-434.99C1063.19,-405.86 1043.63,-360.24 1012.5,-332 978.55,-301.19 930.33,-282.03 891.76,-270.73"/>
<polygon fill="none" stroke="#63b8ff" points="891.69,-270.71 884.83,-272.94 880.13,-267.47 886.99,-265.23 891.69,-270.71"/>
</a>
</g>
<text text-anchor="middle" x="1093" y="-357" font-family="Helvetica,sans-Serif" font-size="10.00" fill="grey"> +initialisedMap</text>
</g>
</g>
</svg>
