<?xml version="1.0" encoding="UTF-8" standalone="no"?>
<!DOCTYPE svg PUBLIC "-//W3C//DTD SVG 1.1//EN"
 "http://www.w3.org/Graphics/SVG/1.1/DTD/svg11.dtd">
<!-- Generated by graphviz version 2.43.0 (0)
 -->
<!-- Title: SinexSourceId Pages: 1 -->
<svg width="120pt" height="202pt"
 viewBox="0.00 0.00 120.00 202.00" xmlns="http://www.w3.org/2000/svg" xmlns:xlink="http://www.w3.org/1999/xlink">
<g id="graph0" class="graph" transform="scale(1 1) rotate(0) translate(4 198)">
<title>SinexSourceId</title>
<!-- Node1 -->
<g id="Node000001" class="node">
<title>Node1</title>
<g id="a_Node000001"><a xlink:href="structSinexSourceId.html" target="_top" xlink:title=" ">
<path fill="white" stroke="#666666" stroke-width="2" d="M84,-57C84,-57 12,-57 12,-57 6,-57 0,-51 0,-45 0,-45 0,-12 0,-12 0,-6 6,0 12,0 12,0 84,0 84,0 90,0 96,-6 96,-12 96,-12 96,-45 96,-45 96,-51 90,-57 84,-57"/>
<text text-anchor="start" x="13" y="-40.5" font-family="Helvetica,sans-Serif" font-size="10.00">SinexSourceId</text>
<text text-anchor="start" x="46" y="-25.5" font-family="Helvetica,sans-Serif" font-size="10.00"> </text>
<text text-anchor="start" x="46" y="-10.5" font-family="Helvetica,sans-Serif" font-size="10.00"> </text>
<polygon fill="#666666" stroke="#666666" points="8,-35.5 8,-35.5 88,-35.5 88,-35.5 8,-35.5"/>
<polygon fill="#666666" stroke="#666666" points="8,-20.5 8,-20.5 88,-20.5 88,-20.5 8,-20.5"/>
<polygon fill="none" stroke="#666666" points="8,-4 8,-53 88,-53 88,-4 8,-4"/>
</a>
</g>
</g>
<!-- Node2 -->
<g id="Node000002" class="node">
<title>Node2</title>
<g id="a_Node000002"><a xlink:title=" ">
<path fill="white" stroke="#666666" d="M63,-194C63,-194 33,-194 33,-194 27,-194 21,-188 21,-182 21,-182 21,-149 21,-149 21,-143 27,-137 33,-137 33,-137 63,-137 63,-137 69,-137 75,-143 75,-149 75,-149 75,-182 75,-182 75,-188 69,-194 63,-194"/>
<text text-anchor="start" x="34" y="-177.5" font-family="Helvetica,sans-Serif" font-size="10.00">string</text>
<text text-anchor="start" x="46" y="-162.5" font-family="Helvetica,sans-Serif" font-size="10.00"> </text>
<text text-anchor="start" x="46" y="-147.5" font-family="Helvetica,sans-Serif" font-size="10.00"> </text>
<polygon fill="#666666" stroke="#666666" points="29,-172.5 29,-172.5 67,-172.5 67,-172.5 29,-172.5"/>
<polygon fill="#666666" stroke="#666666" points="29,-157.5 29,-157.5 67,-157.5 67,-157.5 29,-157.5"/>
<polygon fill="none" stroke="#666666" points="29,-141 29,-190 67,-190 67,-141 29,-141"/>
</a>
</g>
</g>
<!-- Node2&#45;&gt;Node1 -->
<g id="edge1_Node000001_Node000002" class="edge">
<title>Node2&#45;&gt;Node1</title>
<g id="a_edge1_Node000001_Node000002"><a xlink:title=" ">
<path fill="none" stroke="#63b8ff" d="M48,-136.85C48,-117.38 48,-91.01 48,-69.28"/>
<polygon fill="none" stroke="#63b8ff" points="48,-69.11 44,-63.11 48,-57.11 52,-63.11 48,-69.11"/>
</a>
</g>
<text text-anchor="middle" x="80" y="-111" font-family="Helvetica,sans-Serif" font-size="10.00" fill="grey"> +comments</text>
<text text-anchor="middle" x="80" y="-100" font-family="Helvetica,sans-Serif" font-size="10.00" fill="grey">+icrf</text>
<text text-anchor="middle" x="80" y="-89" font-family="Helvetica,sans-Serif" font-size="10.00" fill="grey">+iers</text>
<text text-anchor="middle" x="80" y="-78" font-family="Helvetica,sans-Serif" font-size="10.00" fill="grey">+source</text>
</g>
</g>
</svg>
