<?xml version="1.0" encoding="UTF-8" standalone="no"?>
<!DOCTYPE svg PUBLIC "-//W3C//DTD SVG 1.1//EN"
 "http://www.w3.org/Graphics/SVG/1.1/DTD/svg11.dtd">
<!-- Generated by graphviz version 2.43.0 (0)
 -->
<!-- Title: STO Pages: 1 -->
<svg width="297pt" height="1015pt"
 viewBox="0.00 0.00 297.00 1015.00" xmlns="http://www.w3.org/2000/svg" xmlns:xlink="http://www.w3.org/1999/xlink">
<g id="graph0" class="graph" transform="scale(1 1) rotate(0) translate(4 1011)">
<title>STO</title>
<!-- Node1 -->
<g id="Node000001" class="node">
<title>Node1</title>
<g id="a_Node000001"><a xlink:href="structSTO.html" target="_top" xlink:title="system Time offset message">
<path fill="white" stroke="#666666" stroke-width="2" d="M158.5,-162C158.5,-162 121.5,-162 121.5,-162 115.5,-162 109.5,-156 109.5,-150 109.5,-150 109.5,-12 109.5,-12 109.5,-6 115.5,0 121.5,0 121.5,0 158.5,0 158.5,0 164.5,0 170.5,-6 170.5,-12 170.5,-12 170.5,-150 170.5,-150 170.5,-156 164.5,-162 158.5,-162"/>
<text text-anchor="start" x="130.5" y="-146" font-family="Helvetica,sans-Serif" font-size="10.00">STO</text>
<text text-anchor="start" x="122" y="-131" font-family="Helvetica,sans-Serif" font-size="10.00">+</text>
<text text-anchor="start" x="135" y="-131" font-family="Helvetica,sans-Serif" font-size="10.00">type</text>
<text text-anchor="start" x="122" y="-116" font-family="Helvetica,sans-Serif" font-size="10.00">+</text>
<text text-anchor="start" x="135" y="-116" font-family="Helvetica,sans-Serif" font-size="10.00">code</text>
<text text-anchor="start" x="122" y="-101" font-family="Helvetica,sans-Serif" font-size="10.00">+</text>
<text text-anchor="start" x="135" y="-101" font-family="Helvetica,sans-Serif" font-size="10.00">sid</text>
<text text-anchor="start" x="122" y="-86" font-family="Helvetica,sans-Serif" font-size="10.00">+</text>
<text text-anchor="start" x="135" y="-86" font-family="Helvetica,sans-Serif" font-size="10.00">uid</text>
<text text-anchor="start" x="122" y="-71" font-family="Helvetica,sans-Serif" font-size="10.00">+</text>
<text text-anchor="start" x="135" y="-71" font-family="Helvetica,sans-Serif" font-size="10.00">A0</text>
<text text-anchor="start" x="122" y="-56" font-family="Helvetica,sans-Serif" font-size="10.00">+</text>
<text text-anchor="start" x="135" y="-56" font-family="Helvetica,sans-Serif" font-size="10.00">A1</text>
<text text-anchor="start" x="122" y="-41" font-family="Helvetica,sans-Serif" font-size="10.00">+</text>
<text text-anchor="start" x="135" y="-41" font-family="Helvetica,sans-Serif" font-size="10.00">A2</text>
<text text-anchor="start" x="122" y="-26" font-family="Helvetica,sans-Serif" font-size="10.00">+</text>
<text text-anchor="start" x="135" y="-26" font-family="Helvetica,sans-Serif" font-size="10.00">ttms</text>
<text text-anchor="start" x="138.5" y="-11" font-family="Helvetica,sans-Serif" font-size="10.00"> </text>
<polygon fill="#666666" stroke="#666666" points="118,-141 118,-141 163,-141 163,-141 118,-141"/>
<polygon fill="#666666" stroke="#666666" points="118,-21 118,-21 133,-21 133,-21 118,-21"/>
<polygon fill="#666666" stroke="#666666" points="133,-21 133,-21 163,-21 163,-21 133,-21"/>
<polygon fill="none" stroke="#666666" points="117.5,-4 117.5,-158 162.5,-158 162.5,-4 117.5,-4"/>
</a>
</g>
</g>
<!-- Node2 -->
<g id="Node000002" class="node">
<title>Node2</title>
<g id="a_Node000002"><a xlink:href="structSatSys.html" target="_top" xlink:title="Object holding satellite id, and providing related functions.">
<path fill="white" stroke="#666666" d="M112.5,-697C112.5,-697 19.5,-697 19.5,-697 13.5,-697 7.5,-691 7.5,-685 7.5,-685 7.5,-427 7.5,-427 7.5,-421 13.5,-415 19.5,-415 19.5,-415 112.5,-415 112.5,-415 118.5,-415 124.5,-421 124.5,-427 124.5,-427 124.5,-685 124.5,-685 124.5,-691 118.5,-697 112.5,-697"/>
<text text-anchor="start" x="49.5" y="-681" font-family="Helvetica,sans-Serif" font-size="10.00">SatSys</text>
<text text-anchor="start" x="20" y="-666" font-family="Helvetica,sans-Serif" font-size="10.00">+</text>
<text text-anchor="start" x="33" y="-666" font-family="Helvetica,sans-Serif" font-size="10.00">sys</text>
<text text-anchor="start" x="20" y="-651" font-family="Helvetica,sans-Serif" font-size="10.00">+</text>
<text text-anchor="start" x="33" y="-651" font-family="Helvetica,sans-Serif" font-size="10.00">prn</text>
<text text-anchor="start" x="20" y="-636" font-family="Helvetica,sans-Serif" font-size="10.00">+</text>
<text text-anchor="start" x="33" y="-636" font-family="Helvetica,sans-Serif" font-size="10.00">SatSys()</text>
<text text-anchor="start" x="20" y="-621" font-family="Helvetica,sans-Serif" font-size="10.00">+</text>
<text text-anchor="start" x="33" y="-621" font-family="Helvetica,sans-Serif" font-size="10.00">sysChar()</text>
<text text-anchor="start" x="20" y="-606" font-family="Helvetica,sans-Serif" font-size="10.00">+</text>
<text text-anchor="start" x="33" y="-606" font-family="Helvetica,sans-Serif" font-size="10.00">getId()</text>
<text text-anchor="start" x="20" y="-591" font-family="Helvetica,sans-Serif" font-size="10.00">+</text>
<text text-anchor="start" x="33" y="-591" font-family="Helvetica,sans-Serif" font-size="10.00">operator int()</text>
<text text-anchor="start" x="20" y="-576" font-family="Helvetica,sans-Serif" font-size="10.00">+</text>
<text text-anchor="start" x="33" y="-576" font-family="Helvetica,sans-Serif" font-size="10.00">setBlockType()</text>
<text text-anchor="start" x="20" y="-561" font-family="Helvetica,sans-Serif" font-size="10.00">+</text>
<text text-anchor="start" x="33" y="-561" font-family="Helvetica,sans-Serif" font-size="10.00">setSvn()</text>
<text text-anchor="start" x="20" y="-546" font-family="Helvetica,sans-Serif" font-size="10.00">+</text>
<text text-anchor="start" x="33" y="-546" font-family="Helvetica,sans-Serif" font-size="10.00">blockType()</text>
<text text-anchor="start" x="20" y="-531" font-family="Helvetica,sans-Serif" font-size="10.00">+</text>
<text text-anchor="start" x="33" y="-531" font-family="Helvetica,sans-Serif" font-size="10.00">svn()</text>
<text text-anchor="start" x="20" y="-516" font-family="Helvetica,sans-Serif" font-size="10.00">+</text>
<text text-anchor="start" x="33" y="-516" font-family="Helvetica,sans-Serif" font-size="10.00">fromHash()</text>
<text text-anchor="start" x="20" y="-501" font-family="Helvetica,sans-Serif" font-size="10.00">+</text>
<text text-anchor="start" x="33" y="-501" font-family="Helvetica,sans-Serif" font-size="10.00">id()</text>
<text text-anchor="start" x="20" y="-486" font-family="Helvetica,sans-Serif" font-size="10.00">+</text>
<text text-anchor="start" x="33" y="-486" font-family="Helvetica,sans-Serif" font-size="10.00">operator string()</text>
<text text-anchor="start" x="20" y="-471" font-family="Helvetica,sans-Serif" font-size="10.00">+</text>
<text text-anchor="start" x="33" y="-471" font-family="Helvetica,sans-Serif" font-size="10.00">SatSys()</text>
<text text-anchor="start" x="20" y="-456" font-family="Helvetica,sans-Serif" font-size="10.00">+</text>
<text text-anchor="start" x="33" y="-456" font-family="Helvetica,sans-Serif" font-size="10.00">sysName()</text>
<text text-anchor="start" x="20" y="-441" font-family="Helvetica,sans-Serif" font-size="10.00">+</text>
<text text-anchor="start" x="33" y="-441" font-family="Helvetica,sans-Serif" font-size="10.00">serialize()</text>
<text text-anchor="start" x="20" y="-426" font-family="Helvetica,sans-Serif" font-size="10.00">+</text>
<text text-anchor="start" x="33" y="-426" font-family="Helvetica,sans-Serif" font-size="10.00">sysFromChar()</text>
<polygon fill="#666666" stroke="#666666" points="16,-676 16,-676 117,-676 117,-676 16,-676"/>
<polygon fill="#666666" stroke="#666666" points="16,-646 16,-646 31,-646 31,-646 16,-646"/>
<polygon fill="#666666" stroke="#666666" points="31,-646 31,-646 117,-646 117,-646 31,-646"/>
<polygon fill="none" stroke="#666666" points="15.5,-419 15.5,-693 116.5,-693 116.5,-419 15.5,-419"/>
</a>
</g>
</g>
<!-- Node2&#45;&gt;Node1 -->
<g id="edge1_Node000001_Node000002" class="edge">
<title>Node2&#45;&gt;Node1</title>
<g id="a_edge1_Node000001_Node000002"><a xlink:title=" ">
<path fill="none" stroke="#63b8ff" d="M87.95,-414.68C100.11,-336.96 114.89,-242.53 125.58,-174.16"/>
<polygon fill="none" stroke="#63b8ff" points="125.61,-173.99 122.58,-167.44 127.46,-162.14 130.49,-168.68 125.61,-173.99"/>
</a>
</g>
<text text-anchor="middle" x="139" y="-188.5" font-family="Helvetica,sans-Serif" font-size="10.00" fill="grey"> +Sat</text>
</g>
<!-- Node3 -->
<g id="Node000003" class="node">
<title>Node3</title>
<g id="a_Node000003"><a xlink:title=" ">
<path fill="#fff0f0" stroke="red" d="M120,-1007C120,-1007 12,-1007 12,-1007 6,-1007 0,-1001 0,-995 0,-995 0,-951 0,-951 0,-945 6,-939 12,-939 12,-939 120,-939 120,-939 126,-939 132,-945 132,-951 132,-951 132,-995 132,-995 132,-1001 126,-1007 120,-1007"/>
<text text-anchor="start" x="13" y="-991" font-family="Helvetica,sans-Serif" font-size="10.00">map&lt; SatSys, SatSys</text>
<text text-anchor="start" x="37.5" y="-980" font-family="Helvetica,sans-Serif" font-size="10.00">::SatData &gt;</text>
<text text-anchor="start" x="64" y="-965" font-family="Helvetica,sans-Serif" font-size="10.00"> </text>
<text text-anchor="start" x="64" y="-950" font-family="Helvetica,sans-Serif" font-size="10.00"> </text>
<polygon fill="red" stroke="red" points="8,-975 8,-975 124,-975 124,-975 8,-975"/>
<polygon fill="red" stroke="red" points="8,-960 8,-960 124,-960 124,-960 8,-960"/>
<polygon fill="none" stroke="red" points="8,-943 8,-1003 124,-1003 124,-943 8,-943"/>
</a>
</g>
</g>
<!-- Node3&#45;&gt;Node2 -->
<g id="edge2_Node000002_Node000003" class="edge">
<title>Node3&#45;&gt;Node2</title>
<g id="a_edge2_Node000002_Node000003"><a xlink:title=" ">
<path fill="none" stroke="#63b8ff" d="M66,-938.74C66,-889.24 66,-793.06 66,-709.63"/>
<polygon fill="none" stroke="#63b8ff" points="66,-709.42 62,-703.42 66,-697.42 70,-703.42 66,-709.42"/>
</a>
</g>
<text text-anchor="middle" x="101.5" y="-913" font-family="Helvetica,sans-Serif" font-size="10.00" fill="grey"> +satDataMap</text>
</g>
<!-- Node5 -->
<g id="Node000005" class="node">
<title>Node5</title>
<g id="a_Node000005"><a xlink:href="structGTime.html" target="_top" xlink:title="Time structure used throughout this software.">
<path fill="white" stroke="#666666" d="M277,-892C277,-892 155,-892 155,-892 149,-892 143,-886 143,-880 143,-880 143,-232 143,-232 143,-226 149,-220 155,-220 155,-220 277,-220 277,-220 283,-220 289,-226 289,-232 289,-232 289,-880 289,-880 289,-886 283,-892 277,-892"/>
<text text-anchor="start" x="199.5" y="-876" font-family="Helvetica,sans-Serif" font-size="10.00">GTime</text>
<text text-anchor="start" x="155" y="-861" font-family="Helvetica,sans-Serif" font-size="10.00">+</text>
<text text-anchor="start" x="168" y="-861" font-family="Helvetica,sans-Serif" font-size="10.00">cacheN</text>
<text text-anchor="start" x="155" y="-846" font-family="Helvetica,sans-Serif" font-size="10.00">+</text>
<text text-anchor="start" x="168" y="-846" font-family="Helvetica,sans-Serif" font-size="10.00">cacheTime</text>
<text text-anchor="start" x="155" y="-831" font-family="Helvetica,sans-Serif" font-size="10.00">+</text>
<text text-anchor="start" x="168" y="-831" font-family="Helvetica,sans-Serif" font-size="10.00">bigTime</text>
<text text-anchor="start" x="155" y="-816" font-family="Helvetica,sans-Serif" font-size="10.00">+</text>
<text text-anchor="start" x="168" y="-816" font-family="Helvetica,sans-Serif" font-size="10.00">GTime()</text>
<text text-anchor="start" x="155" y="-801" font-family="Helvetica,sans-Serif" font-size="10.00">+</text>
<text text-anchor="start" x="168" y="-801" font-family="Helvetica,sans-Serif" font-size="10.00">GTime()</text>
<text text-anchor="start" x="155" y="-786" font-family="Helvetica,sans-Serif" font-size="10.00">+</text>
<text text-anchor="start" x="168" y="-786" font-family="Helvetica,sans-Serif" font-size="10.00">GTime()</text>
<text text-anchor="start" x="155" y="-771" font-family="Helvetica,sans-Serif" font-size="10.00">+</text>
<text text-anchor="start" x="168" y="-771" font-family="Helvetica,sans-Serif" font-size="10.00">to_string()</text>
<text text-anchor="start" x="155" y="-756" font-family="Helvetica,sans-Serif" font-size="10.00">+</text>
<text text-anchor="start" x="168" y="-756" font-family="Helvetica,sans-Serif" font-size="10.00">to_ISOstring()</text>
<text text-anchor="start" x="155" y="-741" font-family="Helvetica,sans-Serif" font-size="10.00">+</text>
<text text-anchor="start" x="168" y="-741" font-family="Helvetica,sans-Serif" font-size="10.00">to_decYear()</text>
<text text-anchor="start" x="155" y="-726" font-family="Helvetica,sans-Serif" font-size="10.00">+</text>
<text text-anchor="start" x="168" y="-726" font-family="Helvetica,sans-Serif" font-size="10.00">operator==()</text>
<text text-anchor="start" x="155" y="-711" font-family="Helvetica,sans-Serif" font-size="10.00">+</text>
<text text-anchor="start" x="168" y="-711" font-family="Helvetica,sans-Serif" font-size="10.00">operator!=()</text>
<text text-anchor="start" x="155" y="-696" font-family="Helvetica,sans-Serif" font-size="10.00">+</text>
<text text-anchor="start" x="168" y="-696" font-family="Helvetica,sans-Serif" font-size="10.00">operator&lt;()</text>
<text text-anchor="start" x="155" y="-681" font-family="Helvetica,sans-Serif" font-size="10.00">+</text>
<text text-anchor="start" x="168" y="-681" font-family="Helvetica,sans-Serif" font-size="10.00">operator&gt;()</text>
<text text-anchor="start" x="155" y="-666" font-family="Helvetica,sans-Serif" font-size="10.00">+</text>
<text text-anchor="start" x="168" y="-666" font-family="Helvetica,sans-Serif" font-size="10.00">operator&gt;=()</text>
<text text-anchor="start" x="155" y="-651" font-family="Helvetica,sans-Serif" font-size="10.00">+</text>
<text text-anchor="start" x="168" y="-651" font-family="Helvetica,sans-Serif" font-size="10.00">operator+()</text>
<text text-anchor="start" x="155" y="-636" font-family="Helvetica,sans-Serif" font-size="10.00">+</text>
<text text-anchor="start" x="168" y="-636" font-family="Helvetica,sans-Serif" font-size="10.00">operator+()</text>
<text text-anchor="start" x="155" y="-621" font-family="Helvetica,sans-Serif" font-size="10.00">+</text>
<text text-anchor="start" x="168" y="-621" font-family="Helvetica,sans-Serif" font-size="10.00">operator+()</text>
<text text-anchor="start" x="155" y="-606" font-family="Helvetica,sans-Serif" font-size="10.00">+</text>
<text text-anchor="start" x="168" y="-606" font-family="Helvetica,sans-Serif" font-size="10.00">operator+=()</text>
<text text-anchor="start" x="155" y="-591" font-family="Helvetica,sans-Serif" font-size="10.00">+</text>
<text text-anchor="start" x="168" y="-591" font-family="Helvetica,sans-Serif" font-size="10.00">operator&#45;=()</text>
<text text-anchor="start" x="155" y="-576" font-family="Helvetica,sans-Serif" font-size="10.00">+</text>
<text text-anchor="start" x="168" y="-576" font-family="Helvetica,sans-Serif" font-size="10.00">operator&#45;()</text>
<text text-anchor="start" x="155" y="-561" font-family="Helvetica,sans-Serif" font-size="10.00">+</text>
<text text-anchor="start" x="168" y="-561" font-family="Helvetica,sans-Serif" font-size="10.00">operator&#45;()</text>
<text text-anchor="start" x="155" y="-546" font-family="Helvetica,sans-Serif" font-size="10.00">+</text>
<text text-anchor="start" x="168" y="-546" font-family="Helvetica,sans-Serif" font-size="10.00">operator&#45;()</text>
<text text-anchor="start" x="155" y="-531" font-family="Helvetica,sans-Serif" font-size="10.00">+</text>
<text text-anchor="start" x="168" y="-531" font-family="Helvetica,sans-Serif" font-size="10.00">operator++()</text>
<text text-anchor="start" x="155" y="-516" font-family="Helvetica,sans-Serif" font-size="10.00">+</text>
<text text-anchor="start" x="168" y="-516" font-family="Helvetica,sans-Serif" font-size="10.00">GTime()</text>
<text text-anchor="start" x="155" y="-501" font-family="Helvetica,sans-Serif" font-size="10.00">+</text>
<text text-anchor="start" x="168" y="-501" font-family="Helvetica,sans-Serif" font-size="10.00">GTime()</text>
<text text-anchor="start" x="155" y="-486" font-family="Helvetica,sans-Serif" font-size="10.00">+</text>
<text text-anchor="start" x="168" y="-486" font-family="Helvetica,sans-Serif" font-size="10.00">GTime()</text>
<text text-anchor="start" x="155" y="-471" font-family="Helvetica,sans-Serif" font-size="10.00">+</text>
<text text-anchor="start" x="168" y="-471" font-family="Helvetica,sans-Serif" font-size="10.00">GTime()</text>
<text text-anchor="start" x="155" y="-456" font-family="Helvetica,sans-Serif" font-size="10.00">+</text>
<text text-anchor="start" x="168" y="-456" font-family="Helvetica,sans-Serif" font-size="10.00">GTime()</text>
<text text-anchor="start" x="155" y="-441" font-family="Helvetica,sans-Serif" font-size="10.00">+</text>
<text text-anchor="start" x="168" y="-441" font-family="Helvetica,sans-Serif" font-size="10.00">serialize()</text>
<text text-anchor="start" x="155" y="-426" font-family="Helvetica,sans-Serif" font-size="10.00">+</text>
<text text-anchor="start" x="168" y="-426" font-family="Helvetica,sans-Serif" font-size="10.00">floorTime()</text>
<text text-anchor="start" x="155" y="-411" font-family="Helvetica,sans-Serif" font-size="10.00">+</text>
<text text-anchor="start" x="168" y="-411" font-family="Helvetica,sans-Serif" font-size="10.00">gregString()</text>
<text text-anchor="start" x="155" y="-396" font-family="Helvetica,sans-Serif" font-size="10.00">+</text>
<text text-anchor="start" x="168" y="-396" font-family="Helvetica,sans-Serif" font-size="10.00">operator long double()</text>
<text text-anchor="start" x="155" y="-381" font-family="Helvetica,sans-Serif" font-size="10.00">+</text>
<text text-anchor="start" x="168" y="-381" font-family="Helvetica,sans-Serif" font-size="10.00">operator MjDateTT()</text>
<text text-anchor="start" x="155" y="-366" font-family="Helvetica,sans-Serif" font-size="10.00">+</text>
<text text-anchor="start" x="168" y="-366" font-family="Helvetica,sans-Serif" font-size="10.00">operator GEpoch()</text>
<text text-anchor="start" x="155" y="-351" font-family="Helvetica,sans-Serif" font-size="10.00">+</text>
<text text-anchor="start" x="168" y="-351" font-family="Helvetica,sans-Serif" font-size="10.00">operator UtcTime()</text>
<text text-anchor="start" x="155" y="-336" font-family="Helvetica,sans-Serif" font-size="10.00">+</text>
<text text-anchor="start" x="168" y="-336" font-family="Helvetica,sans-Serif" font-size="10.00">operator GWeek()</text>
<text text-anchor="start" x="155" y="-321" font-family="Helvetica,sans-Serif" font-size="10.00">+</text>
<text text-anchor="start" x="168" y="-321" font-family="Helvetica,sans-Serif" font-size="10.00">operator BWeek()</text>
<text text-anchor="start" x="155" y="-306" font-family="Helvetica,sans-Serif" font-size="10.00">+</text>
<text text-anchor="start" x="168" y="-306" font-family="Helvetica,sans-Serif" font-size="10.00">operator GTow()</text>
<text text-anchor="start" x="155" y="-291" font-family="Helvetica,sans-Serif" font-size="10.00">+</text>
<text text-anchor="start" x="168" y="-291" font-family="Helvetica,sans-Serif" font-size="10.00">operator BTow()</text>
<text text-anchor="start" x="155" y="-276" font-family="Helvetica,sans-Serif" font-size="10.00">+</text>
<text text-anchor="start" x="168" y="-276" font-family="Helvetica,sans-Serif" font-size="10.00">operator PTime()</text>
<text text-anchor="start" x="155" y="-261" font-family="Helvetica,sans-Serif" font-size="10.00">+</text>
<text text-anchor="start" x="168" y="-261" font-family="Helvetica,sans-Serif" font-size="10.00">operator string()</text>
<text text-anchor="start" x="155" y="-246" font-family="Helvetica,sans-Serif" font-size="10.00">+</text>
<text text-anchor="start" x="168" y="-246" font-family="Helvetica,sans-Serif" font-size="10.00">operator RTod()</text>
<text text-anchor="start" x="155" y="-231" font-family="Helvetica,sans-Serif" font-size="10.00">+</text>
<text text-anchor="start" x="168" y="-231" font-family="Helvetica,sans-Serif" font-size="10.00">noTime()</text>
<polygon fill="#666666" stroke="#666666" points="151,-871 151,-871 281,-871 281,-871 151,-871"/>
<polygon fill="#666666" stroke="#666666" points="151,-826 151,-826 166,-826 166,-826 151,-826"/>
<polygon fill="#666666" stroke="#666666" points="166,-826 166,-826 281,-826 281,-826 166,-826"/>
<polygon fill="none" stroke="#666666" points="151,-224 151,-888 281,-888 281,-224 151,-224"/>
</a>
</g>
</g>
<!-- Node5&#45;&gt;Node1 -->
<g id="edge3_Node000001_Node000005" class="edge">
<title>Node5&#45;&gt;Node1</title>
<g id="a_edge3_Node000001_Node000005"><a xlink:title=" ">
<path fill="none" stroke="#63b8ff" d="M163.55,-219.92C161.35,-206.43 159.16,-193.09 157,-180 156.69,-178.1 156.37,-176.18 156.04,-174.24"/>
<polygon fill="none" stroke="#63b8ff" points="156.01,-174.04 151.07,-168.79 154.02,-162.21 158.96,-167.46 156.01,-174.04"/>
</a>
</g>
<text text-anchor="middle" x="174" y="-194" font-family="Helvetica,sans-Serif" font-size="10.00" fill="grey"> +tot</text>
<text text-anchor="middle" x="174" y="-183" font-family="Helvetica,sans-Serif" font-size="10.00" fill="grey">+ttm</text>
</g>
<!-- Node6 -->
<g id="Node000006" class="node">
<title>Node6</title>
<g id="a_Node000006"><a xlink:title=" ">
<path fill="white" stroke="#666666" d="M231,-1001.5C231,-1001.5 201,-1001.5 201,-1001.5 195,-1001.5 189,-995.5 189,-989.5 189,-989.5 189,-956.5 189,-956.5 189,-950.5 195,-944.5 201,-944.5 201,-944.5 231,-944.5 231,-944.5 237,-944.5 243,-950.5 243,-956.5 243,-956.5 243,-989.5 243,-989.5 243,-995.5 237,-1001.5 231,-1001.5"/>
<text text-anchor="start" x="202" y="-985" font-family="Helvetica,sans-Serif" font-size="10.00">string</text>
<text text-anchor="start" x="214" y="-970" font-family="Helvetica,sans-Serif" font-size="10.00"> </text>
<text text-anchor="start" x="214" y="-955" font-family="Helvetica,sans-Serif" font-size="10.00"> </text>
<polygon fill="#666666" stroke="#666666" points="197,-980 197,-980 235,-980 235,-980 197,-980"/>
<polygon fill="#666666" stroke="#666666" points="197,-965 197,-965 235,-965 235,-965 197,-965"/>
<polygon fill="none" stroke="#666666" points="197,-948.5 197,-997.5 235,-997.5 235,-948.5 197,-948.5"/>
</a>
</g>
</g>
<!-- Node6&#45;&gt;Node5 -->
<g id="edge4_Node000005_Node000006" class="edge">
<title>Node6&#45;&gt;Node5</title>
<g id="a_edge4_Node000005_Node000006"><a xlink:title=" ">
<path fill="none" stroke="#63b8ff" d="M216,-944.45C216,-933.63 216,-920.06 216,-904.52"/>
<polygon fill="none" stroke="#63b8ff" points="216,-904.27 212,-898.27 216,-892.27 220,-898.27 216,-904.27"/>
</a>
</g>
<text text-anchor="middle" x="250.5" y="-913" font-family="Helvetica,sans-Serif" font-size="10.00" fill="grey"> +cacheString</text>
</g>
</g>
</svg>
