<?xml version="1.0" encoding="UTF-8" standalone="no"?>
<!DOCTYPE svg PUBLIC "-//W3C//DTD SVG 1.1//EN"
 "http://www.w3.org/Graphics/SVG/1.1/DTD/svg11.dtd">
<!-- Generated by graphviz version 2.43.0 (0)
 -->
<!-- Title: SinexParser::nearestYear Pages: 1 -->
<svg width="387pt" height="64pt"
 viewBox="0.00 0.00 387.00 64.00" xmlns="http://www.w3.org/2000/svg" xmlns:xlink="http://www.w3.org/1999/xlink">
<g id="graph0" class="graph" transform="scale(1 1) rotate(0) translate(4 60)">
<title>SinexParser::nearestYear</title>
<!-- Node1 -->
<g id="Node000001" class="node">
<title>Node1</title>
<g id="a_Node000001"><a xlink:href="structSinexParser.html#afc2cf33d23cb84147ae5890880d7df59" target="_top" xlink:title=" ">
<path fill="#fff0f0" stroke="red" stroke-width="2" d="M372.67,-37C372.67,-37 248.33,-37 248.33,-37 245.17,-37 242,-33.83 242,-30.67 242,-30.67 242,-24.33 242,-24.33 242,-21.17 245.17,-18 248.33,-18 248.33,-18 372.67,-18 372.67,-18 375.83,-18 379,-21.17 379,-24.33 379,-24.33 379,-30.67 379,-30.67 379,-33.83 375.83,-37 372.67,-37"/>
<text text-anchor="middle" x="310.5" y="-25" font-family="Helvetica,sans-Serif" font-size="10.00">SinexParser::nearestYear</text>
</a>
</g>
</g>
<!-- Node2 -->
<g id="Node000002" class="node">
<title>Node2</title>
<g id="a_Node000002"><a xlink:href="structSinexParser.html#ade7a1bd2fb3e99dc9ddf9b0c9116ab65" target="_top" xlink:title=" ">
<path fill="#fff0f0" stroke="red" d="M199.67,-56C199.67,-56 6.33,-56 6.33,-56 3.17,-56 0,-52.83 0,-49.67 0,-49.67 0,-43.33 0,-43.33 0,-40.17 3.17,-37 6.33,-37 6.33,-37 199.67,-37 199.67,-37 202.83,-37 206,-40.17 206,-43.33 206,-43.33 206,-49.67 206,-49.67 206,-52.83 202.83,-56 199.67,-56"/>
<text text-anchor="middle" x="103" y="-44" font-family="Helvetica,sans-Serif" font-size="10.00">SinexParser::parseSinexDiscontinuities</text>
</a>
</g>
</g>
<!-- Node1&#45;&gt;Node2 -->
<g id="edge1_Node000001_Node000002" class="edge">
<title>Node1&#45;&gt;Node2</title>
<g id="a_edge1_Node000001_Node000002"><a xlink:title=" ">
<path fill="none" stroke="#63b8ff" d="M231.83,-34.68C223.45,-35.46 214.83,-36.25 206.21,-37.05"/>
<polygon fill="#63b8ff" stroke="#63b8ff" points="232.29,-38.15 241.93,-33.75 231.65,-31.18 232.29,-38.15"/>
</a>
</g>
</g>
<!-- Node4 -->
<g id="Node000004" class="node">
<title>Node4</title>
<g id="a_Node000004"><a xlink:href="structSinexParser.html#ac83a748e7684f1e4b129899692cb9aa7" target="_top" xlink:title=" ">
<path fill="#fff0f0" stroke="red" d="M187.67,-19C187.67,-19 18.33,-19 18.33,-19 15.17,-19 12,-15.83 12,-12.67 12,-12.67 12,-6.33 12,-6.33 12,-3.17 15.17,0 18.33,0 18.33,0 187.67,0 187.67,0 190.83,0 194,-3.17 194,-6.33 194,-6.33 194,-12.67 194,-12.67 194,-15.83 190.83,-19 187.67,-19"/>
<text text-anchor="middle" x="103" y="-7" font-family="Helvetica,sans-Serif" font-size="10.00">SinexParser::parseSinexEstimates</text>
</a>
</g>
</g>
<!-- Node1&#45;&gt;Node4 -->
<g id="edge2_Node000001_Node000004" class="edge">
<title>Node1&#45;&gt;Node4</title>
<g id="a_edge2_Node000001_Node000004"><a xlink:title=" ">
<path fill="none" stroke="#63b8ff" d="M231.72,-20.69C219.4,-19.61 206.57,-18.48 194,-17.38"/>
<polygon fill="#63b8ff" stroke="#63b8ff" points="231.66,-24.2 241.93,-21.58 232.27,-17.22 231.66,-24.2"/>
</a>
</g>
</g>
</g>
</svg>
