<?xml version="1.0" encoding="UTF-8" standalone="no"?>
<!DOCTYPE svg PUBLIC "-//W3C//DTD SVG 1.1//EN"
 "http://www.w3.org/Graphics/SVG/1.1/DTD/svg11.dtd">
<!-- Generated by graphviz version 2.43.0 (0)
 -->
<!-- Title: IteratorType&lt; OUTTYPE, INTYPE, VOIDTYPE &gt; Pages: 1 -->
<svg width="152pt" height="151pt"
 viewBox="0.00 0.00 152.00 151.00" xmlns="http://www.w3.org/2000/svg" xmlns:xlink="http://www.w3.org/1999/xlink">
<g id="graph0" class="graph" transform="scale(1 1) rotate(0) translate(4 147)">
<title>IteratorType&lt; OUTTYPE, INTYPE, VOIDTYPE &gt;</title>
<!-- Node1 -->
<g id="Node000001" class="node">
<title>Node1</title>
<g id="a_Node000001"><a xlink:href="structIteratorType.html" target="_top" xlink:title="An iterator that trys to cast elements to the desired type before using them.">
<path fill="white" stroke="#666666" stroke-width="2" d="M132,-143C132,-143 12,-143 12,-143 6,-143 0,-137 0,-131 0,-131 0,-12 0,-12 0,-6 6,0 12,0 12,0 132,0 132,0 138,0 144,-6 144,-12 144,-12 144,-131 144,-131 144,-137 138,-143 132,-143"/>
<text text-anchor="start" x="13" y="-126.5" font-family="Helvetica,sans-Serif" font-size="10.00">IteratorType&lt; OUTTYPE,</text>
<text text-anchor="start" x="20" y="-115.5" font-family="Helvetica,sans-Serif" font-size="10.00"> INTYPE, VOIDTYPE &gt;</text>
<text text-anchor="start" x="12" y="-100.5" font-family="Helvetica,sans-Serif" font-size="10.00">+</text>
<text text-anchor="start" x="25" y="-100.5" font-family="Helvetica,sans-Serif" font-size="10.00">ptr_ptr</text>
<text text-anchor="start" x="12" y="-85.5" font-family="Helvetica,sans-Serif" font-size="10.00">+</text>
<text text-anchor="start" x="25" y="-85.5" font-family="Helvetica,sans-Serif" font-size="10.00">endPtr_ptr</text>
<text text-anchor="start" x="12" y="-70.5" font-family="Helvetica,sans-Serif" font-size="10.00">+</text>
<text text-anchor="start" x="25" y="-70.5" font-family="Helvetica,sans-Serif" font-size="10.00">IteratorType()</text>
<text text-anchor="start" x="12" y="-55.5" font-family="Helvetica,sans-Serif" font-size="10.00">+</text>
<text text-anchor="start" x="25" y="-55.5" font-family="Helvetica,sans-Serif" font-size="10.00">operator!=()</text>
<text text-anchor="start" x="12" y="-40.5" font-family="Helvetica,sans-Serif" font-size="10.00">+</text>
<text text-anchor="start" x="25" y="-40.5" font-family="Helvetica,sans-Serif" font-size="10.00">operator*()</text>
<text text-anchor="start" x="12" y="-25.5" font-family="Helvetica,sans-Serif" font-size="10.00">+</text>
<text text-anchor="start" x="25" y="-25.5" font-family="Helvetica,sans-Serif" font-size="10.00">incrementUntilGood()</text>
<text text-anchor="start" x="12" y="-10.5" font-family="Helvetica,sans-Serif" font-size="10.00">+</text>
<text text-anchor="start" x="25" y="-10.5" font-family="Helvetica,sans-Serif" font-size="10.00">operator++()</text>
<polygon fill="#666666" stroke="#666666" points="8,-110.5 8,-110.5 136,-110.5 136,-110.5 8,-110.5"/>
<polygon fill="#666666" stroke="#666666" points="8,-80.5 8,-80.5 23,-80.5 23,-80.5 8,-80.5"/>
<polygon fill="#666666" stroke="#666666" points="23,-80.5 23,-80.5 136,-80.5 136,-80.5 23,-80.5"/>
<polygon fill="none" stroke="#666666" points="8,-4 8,-139 136,-139 136,-4 8,-4"/>
</a>
</g>
</g>
</g>
</svg>
