<?xml version="1.0" encoding="UTF-8" standalone="no"?>
<!DOCTYPE svg PUBLIC "-//W3C//DTD SVG 1.1//EN"
 "http://www.w3.org/Graphics/SVG/1.1/DTD/svg11.dtd">
<!-- Generated by graphviz version 2.43.0 (0)
 -->
<!-- Title: FilterOptions Pages: 1 -->
<svg width="638pt" height="415pt"
 viewBox="0.00 0.00 638.00 415.00" xmlns="http://www.w3.org/2000/svg" xmlns:xlink="http://www.w3.org/1999/xlink">
<g id="graph0" class="graph" transform="scale(1 1) rotate(0) translate(4 411)">
<title>FilterOptions</title>
<!-- Node1 -->
<g id="Node000001" class="node">
<title>Node1</title>
<g id="a_Node000001"><a xlink:href="structFilterOptions.html" target="_top" xlink:title=" ">
<path fill="white" stroke="#666666" stroke-width="2" d="M388,-117C388,-117 277,-117 277,-117 271,-117 265,-111 265,-105 265,-105 265,-12 265,-12 265,-6 271,0 277,0 277,0 388,0 388,0 394,0 400,-6 400,-12 400,-12 400,-105 400,-105 400,-111 394,-117 388,-117"/>
<text text-anchor="start" x="301.5" y="-100.5" font-family="Helvetica,sans-Serif" font-size="10.00">FilterOptions</text>
<text text-anchor="start" x="277.5" y="-85.5" font-family="Helvetica,sans-Serif" font-size="10.00">+</text>
<text text-anchor="start" x="290.5" y="-85.5" font-family="Helvetica,sans-Serif" font-size="10.00">simulate_filter_only</text>
<text text-anchor="start" x="277.5" y="-70.5" font-family="Helvetica,sans-Serif" font-size="10.00">+</text>
<text text-anchor="start" x="290.5" y="-70.5" font-family="Helvetica,sans-Serif" font-size="10.00">assume_linearity</text>
<text text-anchor="start" x="277.5" y="-55.5" font-family="Helvetica,sans-Serif" font-size="10.00">+</text>
<text text-anchor="start" x="290.5" y="-55.5" font-family="Helvetica,sans-Serif" font-size="10.00">advanced_postfits</text>
<text text-anchor="start" x="277.5" y="-40.5" font-family="Helvetica,sans-Serif" font-size="10.00">+</text>
<text text-anchor="start" x="290.5" y="-40.5" font-family="Helvetica,sans-Serif" font-size="10.00">joseph_stabilisation</text>
<text text-anchor="start" x="277.5" y="-25.5" font-family="Helvetica,sans-Serif" font-size="10.00">+</text>
<text text-anchor="start" x="290.5" y="-25.5" font-family="Helvetica,sans-Serif" font-size="10.00">inverter</text>
<text text-anchor="start" x="331" y="-10.5" font-family="Helvetica,sans-Serif" font-size="10.00"> </text>
<polygon fill="#666666" stroke="#666666" points="273.5,-95.5 273.5,-95.5 392.5,-95.5 392.5,-95.5 273.5,-95.5"/>
<polygon fill="#666666" stroke="#666666" points="273.5,-20.5 273.5,-20.5 288.5,-20.5 288.5,-20.5 273.5,-20.5"/>
<polygon fill="#666666" stroke="#666666" points="288.5,-20.5 288.5,-20.5 392.5,-20.5 392.5,-20.5 288.5,-20.5"/>
<polygon fill="none" stroke="#666666" points="273,-4 273,-113 392,-113 392,-4 273,-4"/>
</a>
</g>
</g>
<!-- Node2 -->
<g id="Node000002" class="node">
<title>Node2</title>
<g id="a_Node000002"><a xlink:href="structRtsOptions.html" target="_top" xlink:title=" ">
<path fill="white" stroke="#666666" d="M143,-281C143,-281 12,-281 12,-281 6,-281 0,-275 0,-269 0,-269 0,-176 0,-176 0,-170 6,-164 12,-164 12,-164 143,-164 143,-164 149,-164 155,-170 155,-176 155,-176 155,-269 155,-269 155,-275 149,-281 143,-281"/>
<text text-anchor="start" x="51" y="-264.5" font-family="Helvetica,sans-Serif" font-size="10.00">RtsOptions</text>
<text text-anchor="start" x="12.5" y="-249.5" font-family="Helvetica,sans-Serif" font-size="10.00">+</text>
<text text-anchor="start" x="25.5" y="-249.5" font-family="Helvetica,sans-Serif" font-size="10.00">rts_lag</text>
<text text-anchor="start" x="12.5" y="-234.5" font-family="Helvetica,sans-Serif" font-size="10.00">+</text>
<text text-anchor="start" x="25.5" y="-234.5" font-family="Helvetica,sans-Serif" font-size="10.00">rts_interval</text>
<text text-anchor="start" x="12.5" y="-219.5" font-family="Helvetica,sans-Serif" font-size="10.00">+</text>
<text text-anchor="start" x="25.5" y="-219.5" font-family="Helvetica,sans-Serif" font-size="10.00">output_intermediate_rts</text>
<text text-anchor="start" x="12.5" y="-204.5" font-family="Helvetica,sans-Serif" font-size="10.00">+</text>
<text text-anchor="start" x="25.5" y="-204.5" font-family="Helvetica,sans-Serif" font-size="10.00">queue_rts_outputs</text>
<text text-anchor="start" x="12.5" y="-189.5" font-family="Helvetica,sans-Serif" font-size="10.00">+</text>
<text text-anchor="start" x="25.5" y="-189.5" font-family="Helvetica,sans-Serif" font-size="10.00">rts_inverter</text>
<text text-anchor="start" x="76" y="-174.5" font-family="Helvetica,sans-Serif" font-size="10.00"> </text>
<polygon fill="#666666" stroke="#666666" points="8.5,-259.5 8.5,-259.5 147.5,-259.5 147.5,-259.5 8.5,-259.5"/>
<polygon fill="#666666" stroke="#666666" points="8.5,-184.5 8.5,-184.5 23.5,-184.5 23.5,-184.5 8.5,-184.5"/>
<polygon fill="#666666" stroke="#666666" points="23.5,-184.5 23.5,-184.5 147.5,-184.5 147.5,-184.5 23.5,-184.5"/>
<polygon fill="none" stroke="#666666" points="8,-168 8,-277 147,-277 147,-168 8,-168"/>
</a>
</g>
</g>
<!-- Node2&#45;&gt;Node1 -->
<g id="edge1_Node000001_Node000002" class="edge">
<title>Node2&#45;&gt;Node1</title>
<g id="a_edge1_Node000001_Node000002"><a xlink:title=" ">
<path fill="none" stroke="#63b8ff" d="M163.89,-163.79C201.77,-139.51 235.89,-118.34 264.72,-100.65"/>
<polygon fill="none" stroke="#63b8ff" points="161.76,-161 155.23,-169.35 165.54,-166.89 161.76,-161"/>
</a>
</g>
</g>
<!-- Node3 -->
<g id="Node000003" class="node">
<title>Node3</title>
<g id="a_Node000003"><a xlink:title=" ">
<path fill="white" stroke="#666666" d="M92.5,-407C92.5,-407 62.5,-407 62.5,-407 56.5,-407 50.5,-401 50.5,-395 50.5,-395 50.5,-362 50.5,-362 50.5,-356 56.5,-350 62.5,-350 62.5,-350 92.5,-350 92.5,-350 98.5,-350 104.5,-356 104.5,-362 104.5,-362 104.5,-395 104.5,-395 104.5,-401 98.5,-407 92.5,-407"/>
<text text-anchor="start" x="63.5" y="-390.5" font-family="Helvetica,sans-Serif" font-size="10.00">string</text>
<text text-anchor="start" x="75.5" y="-375.5" font-family="Helvetica,sans-Serif" font-size="10.00"> </text>
<text text-anchor="start" x="75.5" y="-360.5" font-family="Helvetica,sans-Serif" font-size="10.00"> </text>
<polygon fill="#666666" stroke="#666666" points="58.5,-385.5 58.5,-385.5 96.5,-385.5 96.5,-385.5 58.5,-385.5"/>
<polygon fill="#666666" stroke="#666666" points="58.5,-370.5 58.5,-370.5 96.5,-370.5 96.5,-370.5 58.5,-370.5"/>
<polygon fill="none" stroke="#666666" points="58.5,-354 58.5,-403 96.5,-403 96.5,-354 58.5,-354"/>
</a>
</g>
</g>
<!-- Node3&#45;&gt;Node2 -->
<g id="edge2_Node000002_Node000003" class="edge">
<title>Node3&#45;&gt;Node2</title>
<g id="a_edge2_Node000002_Node000003"><a xlink:title=" ">
<path fill="none" stroke="#63b8ff" d="M77.5,-349.97C77.5,-334.06 77.5,-313.27 77.5,-293.15"/>
<polygon fill="none" stroke="#63b8ff" points="77.5,-293.09 73.5,-287.09 77.5,-281.09 81.5,-287.09 77.5,-293.09"/>
</a>
</g>
<text text-anchor="middle" x="131.5" y="-324" font-family="Helvetica,sans-Serif" font-size="10.00" fill="grey"> +rts_directory</text>
<text text-anchor="middle" x="131.5" y="-313" font-family="Helvetica,sans-Serif" font-size="10.00" fill="grey">+rts_filename</text>
<text text-anchor="middle" x="131.5" y="-302" font-family="Helvetica,sans-Serif" font-size="10.00" fill="grey">+rts_smoothed_suffix</text>
</g>
<!-- Node4 -->
<g id="Node000004" class="node">
<title>Node4</title>
<g id="a_Node000004"><a xlink:href="structPrefitOptions.html" target="_top" xlink:title=" ">
<path fill="white" stroke="#666666" d="M312,-281C312,-281 185,-281 185,-281 179,-281 173,-275 173,-269 173,-269 173,-176 173,-176 173,-170 179,-164 185,-164 185,-164 312,-164 312,-164 318,-164 324,-170 324,-176 324,-176 324,-269 324,-269 324,-275 318,-281 312,-281"/>
<text text-anchor="start" x="217" y="-264.5" font-family="Helvetica,sans-Serif" font-size="10.00">PrefitOptions</text>
<text text-anchor="start" x="185.5" y="-249.5" font-family="Helvetica,sans-Serif" font-size="10.00">+</text>
<text text-anchor="start" x="198.5" y="-249.5" font-family="Helvetica,sans-Serif" font-size="10.00">max_iterations</text>
<text text-anchor="start" x="185.5" y="-234.5" font-family="Helvetica,sans-Serif" font-size="10.00">+</text>
<text text-anchor="start" x="198.5" y="-234.5" font-family="Helvetica,sans-Serif" font-size="10.00">sigma_check</text>
<text text-anchor="start" x="185.5" y="-219.5" font-family="Helvetica,sans-Serif" font-size="10.00">+</text>
<text text-anchor="start" x="198.5" y="-219.5" font-family="Helvetica,sans-Serif" font-size="10.00">state_sigma_threshold</text>
<text text-anchor="start" x="185.5" y="-204.5" font-family="Helvetica,sans-Serif" font-size="10.00">+</text>
<text text-anchor="start" x="198.5" y="-204.5" font-family="Helvetica,sans-Serif" font-size="10.00">meas_sigma_threshold</text>
<text text-anchor="start" x="185.5" y="-189.5" font-family="Helvetica,sans-Serif" font-size="10.00">+</text>
<text text-anchor="start" x="198.5" y="-189.5" font-family="Helvetica,sans-Serif" font-size="10.00">omega_test</text>
<text text-anchor="start" x="247" y="-174.5" font-family="Helvetica,sans-Serif" font-size="10.00"> </text>
<polygon fill="#666666" stroke="#666666" points="181.5,-259.5 181.5,-259.5 316.5,-259.5 316.5,-259.5 181.5,-259.5"/>
<polygon fill="#666666" stroke="#666666" points="181.5,-184.5 181.5,-184.5 196.5,-184.5 196.5,-184.5 181.5,-184.5"/>
<polygon fill="#666666" stroke="#666666" points="196.5,-184.5 196.5,-184.5 316.5,-184.5 316.5,-184.5 196.5,-184.5"/>
<polygon fill="none" stroke="#666666" points="181,-168 181,-277 316,-277 316,-168 181,-168"/>
</a>
</g>
</g>
<!-- Node4&#45;&gt;Node1 -->
<g id="edge3_Node000001_Node000004" class="edge">
<title>Node4&#45;&gt;Node1</title>
<g id="a_edge3_Node000001_Node000004"><a xlink:title=" ">
<path fill="none" stroke="#63b8ff" d="M278.35,-163.93C284.38,-152.3 290.78,-139.97 296.98,-128.01"/>
<polygon fill="none" stroke="#63b8ff" points="297.08,-127.81 296.29,-120.64 302.6,-117.16 303.39,-124.33 297.08,-127.81"/>
</a>
</g>
<text text-anchor="middle" x="323.5" y="-138" font-family="Helvetica,sans-Serif" font-size="10.00" fill="grey"> +prefitOpts</text>
</g>
<!-- Node5 -->
<g id="Node000005" class="node">
<title>Node5</title>
<g id="a_Node000005"><a xlink:href="structPostfitOptions.html" target="_top" xlink:title=" ">
<path fill="white" stroke="#666666" d="M481,-273.5C481,-273.5 354,-273.5 354,-273.5 348,-273.5 342,-267.5 342,-261.5 342,-261.5 342,-183.5 342,-183.5 342,-177.5 348,-171.5 354,-171.5 354,-171.5 481,-171.5 481,-171.5 487,-171.5 493,-177.5 493,-183.5 493,-183.5 493,-261.5 493,-261.5 493,-267.5 487,-273.5 481,-273.5"/>
<text text-anchor="start" x="383.5" y="-257.5" font-family="Helvetica,sans-Serif" font-size="10.00">PostfitOptions</text>
<text text-anchor="start" x="354.5" y="-242.5" font-family="Helvetica,sans-Serif" font-size="10.00">+</text>
<text text-anchor="start" x="367.5" y="-242.5" font-family="Helvetica,sans-Serif" font-size="10.00">max_iterations</text>
<text text-anchor="start" x="354.5" y="-227.5" font-family="Helvetica,sans-Serif" font-size="10.00">+</text>
<text text-anchor="start" x="367.5" y="-227.5" font-family="Helvetica,sans-Serif" font-size="10.00">sigma_check</text>
<text text-anchor="start" x="354.5" y="-212.5" font-family="Helvetica,sans-Serif" font-size="10.00">+</text>
<text text-anchor="start" x="367.5" y="-212.5" font-family="Helvetica,sans-Serif" font-size="10.00">state_sigma_threshold</text>
<text text-anchor="start" x="354.5" y="-197.5" font-family="Helvetica,sans-Serif" font-size="10.00">+</text>
<text text-anchor="start" x="367.5" y="-197.5" font-family="Helvetica,sans-Serif" font-size="10.00">meas_sigma_threshold</text>
<text text-anchor="start" x="416" y="-182.5" font-family="Helvetica,sans-Serif" font-size="10.00"> </text>
<polygon fill="#666666" stroke="#666666" points="350.5,-252.5 350.5,-252.5 485.5,-252.5 485.5,-252.5 350.5,-252.5"/>
<polygon fill="#666666" stroke="#666666" points="350.5,-192.5 350.5,-192.5 365.5,-192.5 365.5,-192.5 350.5,-192.5"/>
<polygon fill="#666666" stroke="#666666" points="365.5,-192.5 365.5,-192.5 485.5,-192.5 485.5,-192.5 365.5,-192.5"/>
<polygon fill="none" stroke="#666666" points="350,-175.5 350,-269.5 485,-269.5 485,-175.5 350,-175.5"/>
</a>
</g>
</g>
<!-- Node5&#45;&gt;Node1 -->
<g id="edge4_Node000001_Node000005" class="edge">
<title>Node5&#45;&gt;Node1</title>
<g id="a_edge4_Node000001_Node000005"><a xlink:title=" ">
<path fill="none" stroke="#63b8ff" d="M391.07,-171.13C383.93,-157.51 376.07,-142.54 368.5,-128.1"/>
<polygon fill="none" stroke="#63b8ff" points="368.35,-127.83 362.02,-124.37 362.77,-117.2 369.1,-120.65 368.35,-127.83"/>
</a>
</g>
<text text-anchor="middle" x="410" y="-138" font-family="Helvetica,sans-Serif" font-size="10.00" fill="grey"> +postfitOpts</text>
</g>
<!-- Node6 -->
<g id="Node000006" class="node">
<title>Node6</title>
<g id="a_Node000006"><a xlink:href="structChiSquareOptions.html" target="_top" xlink:title=" ">
<path fill="white" stroke="#666666" d="M618,-266C618,-266 523,-266 523,-266 517,-266 511,-260 511,-254 511,-254 511,-191 511,-191 511,-185 517,-179 523,-179 523,-179 618,-179 618,-179 624,-179 630,-185 630,-191 630,-191 630,-254 630,-254 630,-260 624,-266 618,-266"/>
<text text-anchor="start" x="527" y="-249.5" font-family="Helvetica,sans-Serif" font-size="10.00">ChiSquareOptions</text>
<text text-anchor="start" x="523.5" y="-234.5" font-family="Helvetica,sans-Serif" font-size="10.00">+</text>
<text text-anchor="start" x="536.5" y="-234.5" font-family="Helvetica,sans-Serif" font-size="10.00">enable</text>
<text text-anchor="start" x="523.5" y="-219.5" font-family="Helvetica,sans-Serif" font-size="10.00">+</text>
<text text-anchor="start" x="536.5" y="-219.5" font-family="Helvetica,sans-Serif" font-size="10.00">mode</text>
<text text-anchor="start" x="523.5" y="-204.5" font-family="Helvetica,sans-Serif" font-size="10.00">+</text>
<text text-anchor="start" x="536.5" y="-204.5" font-family="Helvetica,sans-Serif" font-size="10.00">sigma_threshold</text>
<text text-anchor="start" x="569" y="-189.5" font-family="Helvetica,sans-Serif" font-size="10.00"> </text>
<polygon fill="#666666" stroke="#666666" points="519.5,-244.5 519.5,-244.5 622.5,-244.5 622.5,-244.5 519.5,-244.5"/>
<polygon fill="#666666" stroke="#666666" points="519.5,-199.5 519.5,-199.5 534.5,-199.5 534.5,-199.5 519.5,-199.5"/>
<polygon fill="#666666" stroke="#666666" points="534.5,-199.5 534.5,-199.5 622.5,-199.5 622.5,-199.5 534.5,-199.5"/>
<polygon fill="none" stroke="#666666" points="519,-183 519,-262 622,-262 622,-183 519,-183"/>
</a>
</g>
</g>
<!-- Node6&#45;&gt;Node1 -->
<g id="edge5_Node000001_Node000006" class="edge">
<title>Node6&#45;&gt;Node1</title>
<g id="a_edge5_Node000001_Node000006"><a xlink:title=" ">
<path fill="none" stroke="#63b8ff" d="M521.81,-178.83C515.43,-173.69 508.89,-168.62 502.5,-164 473.51,-143.01 440.23,-121.95 410.84,-104.28"/>
<polygon fill="none" stroke="#63b8ff" points="410.51,-104.08 403.31,-104.44 400.21,-97.93 407.41,-97.58 410.51,-104.08"/>
</a>
</g>
<text text-anchor="middle" x="515" y="-138" font-family="Helvetica,sans-Serif" font-size="10.00" fill="grey"> +chiSquareTest</text>
</g>
</g>
</svg>
