<?xml version="1.0" encoding="UTF-8" standalone="no"?>
<!DOCTYPE svg PUBLIC "-//W3C//DTD SVG 1.1//EN"
 "http://www.w3.org/Graphics/SVG/1.1/DTD/svg11.dtd">
<!-- Generated by graphviz version 2.43.0 (0)
 -->
<!-- Title: UYds::operator GTime Pages: 1 -->
<svg width="230pt" height="27pt"
 viewBox="0.00 0.00 230.00 27.00" xmlns="http://www.w3.org/2000/svg" xmlns:xlink="http://www.w3.org/1999/xlink">
<g id="graph0" class="graph" transform="scale(1 1) rotate(0) translate(4 23)">
<title>UYds::operator GTime</title>
<!-- Node1 -->
<g id="Node000001" class="node">
<title>Node1</title>
<g id="a_Node000001"><a xlink:href="structUYds.html#afd7141305b1800bb7d6dee30fc09a1c1" target="_top" xlink:title=" ">
<path fill="#fff0f0" stroke="red" stroke-width="2" d="M117.67,-19C117.67,-19 6.33,-19 6.33,-19 3.17,-19 0,-15.83 0,-12.67 0,-12.67 0,-6.33 0,-6.33 0,-3.17 3.17,0 6.33,0 6.33,0 117.67,0 117.67,0 120.83,0 124,-3.17 124,-6.33 124,-6.33 124,-12.67 124,-12.67 124,-15.83 120.83,-19 117.67,-19"/>
<text text-anchor="middle" x="62" y="-7" font-family="Helvetica,sans-Serif" font-size="10.00">UYds::operator GTime</text>
</a>
</g>
</g>
<!-- Node2 -->
<g id="Node000002" class="node">
<title>Node2</title>
<g id="a_Node000002"><a xlink:href="gTime_8cpp.html#a25abbda5263c0b29ab3479dd35b140e3" target="_top" xlink:title=" ">
<path fill="#fff0f0" stroke="red" d="M215.67,-19C215.67,-19 166.33,-19 166.33,-19 163.17,-19 160,-15.83 160,-12.67 160,-12.67 160,-6.33 160,-6.33 160,-3.17 163.17,0 166.33,0 166.33,0 215.67,0 215.67,0 218.83,0 222,-3.17 222,-6.33 222,-6.33 222,-12.67 222,-12.67 222,-15.83 218.83,-19 215.67,-19"/>
<text text-anchor="middle" x="191" y="-7" font-family="Helvetica,sans-Serif" font-size="10.00">yds2time</text>
</a>
</g>
</g>
<!-- Node1&#45;&gt;Node2 -->
<g id="edge1_Node000001_Node000002" class="edge">
<title>Node1&#45;&gt;Node2</title>
<g id="a_edge1_Node000001_Node000002"><a xlink:title=" ">
<path fill="none" stroke="#63b8ff" d="M124.27,-9.5C133.01,-9.5 141.81,-9.5 150,-9.5"/>
<polygon fill="#63b8ff" stroke="#63b8ff" points="150,-13 160,-9.5 150,-6 150,-13"/>
</a>
</g>
</g>
</g>
</svg>
