<?xml version="1.0" encoding="UTF-8" standalone="no"?>
<!DOCTYPE svg PUBLIC "-//W3C//DTD SVG 1.1//EN"
 "http://www.w3.org/Graphics/SVG/1.1/DTD/svg11.dtd">
<!-- Generated by graphviz version 2.43.0 (0)
 -->
<!-- Title: TcpSocket::connectionError Pages: 1 -->
<svg width="289pt" height="64pt"
 viewBox="0.00 0.00 289.00 64.00" xmlns="http://www.w3.org/2000/svg" xmlns:xlink="http://www.w3.org/1999/xlink">
<g id="graph0" class="graph" transform="scale(1 1) rotate(0) translate(4 60)">
<title>TcpSocket::connectionError</title>
<!-- Node1 -->
<g id="Node000001" class="node">
<title>Node1</title>
<g id="a_Node000001"><a xlink:href="structTcpSocket.html#a70b1ac4ab92ceee63c2088cb2ffcf2f8" target="_top" xlink:title=" ">
<path fill="#fff0f0" stroke="red" stroke-width="2" d="M140.67,-37C140.67,-37 6.33,-37 6.33,-37 3.17,-37 0,-33.83 0,-30.67 0,-30.67 0,-24.33 0,-24.33 0,-21.17 3.17,-18 6.33,-18 6.33,-18 140.67,-18 140.67,-18 143.83,-18 147,-21.17 147,-24.33 147,-24.33 147,-30.67 147,-30.67 147,-33.83 143.83,-37 140.67,-37"/>
<text text-anchor="middle" x="73.5" y="-25" font-family="Helvetica,sans-Serif" font-size="10.00">TcpSocket::connectionError</text>
</a>
</g>
</g>
<!-- Node2 -->
<g id="Node000002" class="node">
<title>Node2</title>
<g id="a_Node000002"><a xlink:href="gTime_8cpp.html#abc73cf336f9fa1b3622c933d5925e073" target="_top" xlink:title=" ">
<path fill="#fff0f0" stroke="red" d="M253.67,-56C253.67,-56 210.33,-56 210.33,-56 207.17,-56 204,-52.83 204,-49.67 204,-49.67 204,-43.33 204,-43.33 204,-40.17 207.17,-37 210.33,-37 210.33,-37 253.67,-37 253.67,-37 256.83,-37 260,-40.17 260,-43.33 260,-43.33 260,-49.67 260,-49.67 260,-52.83 256.83,-56 253.67,-56"/>
<text text-anchor="middle" x="232" y="-44" font-family="Helvetica,sans-Serif" font-size="10.00">timeGet</text>
</a>
</g>
</g>
<!-- Node1&#45;&gt;Node2 -->
<g id="edge1_Node000001_Node000002" class="edge">
<title>Node1&#45;&gt;Node2</title>
<g id="a_edge1_Node000001_Node000002"><a xlink:title=" ">
<path fill="none" stroke="#63b8ff" d="M147.25,-36.33C163.28,-38.28 179.62,-40.26 193.56,-41.95"/>
<polygon fill="#63b8ff" stroke="#63b8ff" points="193.36,-45.46 203.71,-43.19 194.2,-38.51 193.36,-45.46"/>
</a>
</g>
</g>
<!-- Node3 -->
<g id="Node000003" class="node">
<title>Node3</title>
<g id="a_Node000003"><a xlink:href="structGTime.html#a98fdbaaec5a132a7e694f28b4f1907cb" target="_top" xlink:title=" ">
<path fill="#fff0f0" stroke="red" d="M274.67,-19C274.67,-19 189.33,-19 189.33,-19 186.17,-19 183,-15.83 183,-12.67 183,-12.67 183,-6.33 183,-6.33 183,-3.17 186.17,0 189.33,0 189.33,0 274.67,0 274.67,0 277.83,0 281,-3.17 281,-6.33 281,-6.33 281,-12.67 281,-12.67 281,-15.83 277.83,-19 274.67,-19"/>
<text text-anchor="middle" x="232" y="-7" font-family="Helvetica,sans-Serif" font-size="10.00">GTime::to_string</text>
</a>
</g>
</g>
<!-- Node1&#45;&gt;Node3 -->
<g id="edge2_Node000001_Node000003" class="edge">
<title>Node1&#45;&gt;Node3</title>
<g id="a_edge2_Node000001_Node000003"><a xlink:title=" ">
<path fill="none" stroke="#63b8ff" d="M147.25,-19.13C155.67,-18.16 164.17,-17.19 172.37,-16.24"/>
<polygon fill="#63b8ff" stroke="#63b8ff" points="173.03,-19.69 182.56,-15.07 172.23,-12.74 173.03,-19.69"/>
</a>
</g>
</g>
</g>
</svg>
