<?xml version="1.0" encoding="UTF-8" standalone="no"?>
<!DOCTYPE svg PUBLIC "-//W3C//DTD SVG 1.1//EN"
 "http://www.w3.org/Graphics/SVG/1.1/DTD/svg11.dtd">
<!-- Generated by graphviz version 2.43.0 (0)
 -->
<!-- Title: SatSys::svn Pages: 1 -->
<svg width="447pt" height="327pt"
 viewBox="0.00 0.00 447.00 327.00" xmlns="http://www.w3.org/2000/svg" xmlns:xlink="http://www.w3.org/1999/xlink">
<g id="graph0" class="graph" transform="scale(1 1) rotate(0) translate(4 323)">
<title>SatSys::svn</title>
<!-- Node1 -->
<g id="Node000001" class="node">
<title>Node1</title>
<g id="a_Node000001"><a xlink:href="structSatSys.html#a1da3994cf03ff0ec115928954c9307bb" target="_top" xlink:title=" ">
<path fill="#fff0f0" stroke="red" stroke-width="2" d="M432.67,-168C432.67,-168 372.33,-168 372.33,-168 369.17,-168 366,-164.83 366,-161.67 366,-161.67 366,-155.33 366,-155.33 366,-152.17 369.17,-149 372.33,-149 372.33,-149 432.67,-149 432.67,-149 435.83,-149 439,-152.17 439,-155.33 439,-155.33 439,-161.67 439,-161.67 439,-164.83 435.83,-168 432.67,-168"/>
<text text-anchor="middle" x="402.5" y="-156" font-family="Helvetica,sans-Serif" font-size="10.00">SatSys::svn</text>
</a>
</g>
</g>
<!-- Node2 -->
<g id="Node000002" class="node">
<title>Node2</title>
<g id="a_Node000002"><a xlink:href="structACSConfig.html#a20ca3689eafecfa2b7e656c28e340256" target="_top" xlink:title="Set satellite options for a specific satellite using a hierarchy of sources.">
<path fill="#fff0f0" stroke="red" d="M323.67,-319C323.67,-319 209.33,-319 209.33,-319 206.17,-319 203,-315.83 203,-312.67 203,-312.67 203,-306.33 203,-306.33 203,-303.17 206.17,-300 209.33,-300 209.33,-300 323.67,-300 323.67,-300 326.83,-300 330,-303.17 330,-306.33 330,-306.33 330,-312.67 330,-312.67 330,-315.83 326.83,-319 323.67,-319"/>
<text text-anchor="middle" x="266.5" y="-307" font-family="Helvetica,sans-Serif" font-size="10.00">ACSConfig::getSatOpts</text>
</a>
</g>
</g>
<!-- Node1&#45;&gt;Node2 -->
<g id="edge1_Node000001_Node000002" class="edge">
<title>Node1&#45;&gt;Node2</title>
<g id="a_edge1_Node000001_Node000002"><a xlink:title=" ">
<path fill="none" stroke="#63b8ff" d="M395.32,-177.93C385.63,-205.48 364.32,-255.86 330,-285.5 322.79,-291.73 313.78,-296.43 304.87,-299.94"/>
<polygon fill="#63b8ff" stroke="#63b8ff" points="398.7,-178.85 398.57,-168.26 392.07,-176.62 398.7,-178.85"/>
</a>
</g>
</g>
<!-- Node17 -->
<g id="Node000017" class="node">
<title>Node17</title>
<g id="a_Node000017"><a xlink:href="main_8cpp.html#a79eb17a8eaafbf1dde7569cb7eae3b7e" target="_top" xlink:title=" ">
<path fill="#fff0f0" stroke="red" d="M160.67,-281C160.67,-281 6.33,-281 6.33,-281 3.17,-281 0,-277.83 0,-274.67 0,-274.67 0,-268.33 0,-268.33 0,-265.17 3.17,-262 6.33,-262 6.33,-262 160.67,-262 160.67,-262 163.83,-262 167,-265.17 167,-268.33 167,-268.33 167,-274.67 167,-274.67 167,-277.83 163.83,-281 160.67,-281"/>
<text text-anchor="middle" x="83.5" y="-269" font-family="Helvetica,sans-Serif" font-size="10.00">mainOncePerEpochPerSatellite</text>
</a>
</g>
</g>
<!-- Node1&#45;&gt;Node17 -->
<g id="edge3_Node000001_Node000017" class="edge">
<title>Node1&#45;&gt;Node17</title>
<g id="a_edge3_Node000001_Node000017"><a xlink:title=" ">
<path fill="none" stroke="#63b8ff" d="M393.24,-177.22C382.31,-199.49 360.76,-235.74 330,-252.5 277.63,-281.03 209.44,-284.11 158.22,-281"/>
<polygon fill="#63b8ff" stroke="#63b8ff" points="396.44,-178.64 397.51,-168.1 390.1,-175.67 396.44,-178.64"/>
</a>
</g>
</g>
<!-- Node59 -->
<g id="Node000059" class="node">
<title>Node59</title>
<g id="a_Node000059"><a xlink:href="attitude_8cpp.html#abd7ddf5a848e540724fe5341542eef52" target="_top" xlink:title="Yaw model for BDS&#45;2I/2M satellites Requires bds_yaw_modes.snx Ref: https://doi.org/10....">
<path fill="#fff0f0" stroke="red" d="M297.17,-243C297.17,-243 235.83,-243 235.83,-243 232.67,-243 229.5,-239.83 229.5,-236.67 229.5,-236.67 229.5,-230.33 229.5,-230.33 229.5,-227.17 232.67,-224 235.83,-224 235.83,-224 297.17,-224 297.17,-224 300.33,-224 303.5,-227.17 303.5,-230.33 303.5,-230.33 303.5,-236.67 303.5,-236.67 303.5,-239.83 300.33,-243 297.17,-243"/>
<text text-anchor="middle" x="266.5" y="-231" font-family="Helvetica,sans-Serif" font-size="10.00">satYawBds2</text>
</a>
</g>
</g>
<!-- Node1&#45;&gt;Node59 -->
<g id="edge4_Node000001_Node000059" class="edge">
<title>Node1&#45;&gt;Node59</title>
<g id="a_edge4_Node000001_Node000059"><a xlink:title=" ">
<path fill="none" stroke="#63b8ff" d="M384.11,-175.64C370.42,-188.26 350.32,-205 330,-215.5 321.87,-219.7 312.63,-223.04 303.8,-225.65"/>
<polygon fill="#63b8ff" stroke="#63b8ff" points="386.9,-177.82 391.75,-168.4 382.08,-172.74 386.9,-177.82"/>
</a>
</g>
</g>
<!-- Node61 -->
<g id="Node000061" class="node">
<title>Node61</title>
<g id="a_Node000061"><a xlink:href="attitude_8cpp.html#af64a8516da71e0d4f37682b1935fdca3" target="_top" xlink:title="Yaw model for GLONASS sats Returns false if no modelled yaw available Ref: https://igsac&#45;cnes....">
<path fill="#fff0f0" stroke="red" d="M293.67,-206C293.67,-206 239.33,-206 239.33,-206 236.17,-206 233,-202.83 233,-199.67 233,-199.67 233,-193.33 233,-193.33 233,-190.17 236.17,-187 239.33,-187 239.33,-187 293.67,-187 293.67,-187 296.83,-187 300,-190.17 300,-193.33 300,-193.33 300,-199.67 300,-199.67 300,-202.83 296.83,-206 293.67,-206"/>
<text text-anchor="middle" x="266.5" y="-194" font-family="Helvetica,sans-Serif" font-size="10.00">satYawGlo</text>
</a>
</g>
</g>
<!-- Node1&#45;&gt;Node61 -->
<g id="edge5_Node000001_Node000061" class="edge">
<title>Node1&#45;&gt;Node61</title>
<g id="a_edge5_Node000001_Node000061"><a xlink:title=" ">
<path fill="none" stroke="#63b8ff" d="M357.91,-170.86C339.2,-176.17 317.71,-182.26 300.38,-187.18"/>
<polygon fill="#63b8ff" stroke="#63b8ff" points="359.02,-174.18 367.69,-168.09 357.11,-167.45 359.02,-174.18"/>
</a>
</g>
</g>
<!-- Node62 -->
<g id="Node000062" class="node">
<title>Node62</title>
<g id="a_Node000062"><a xlink:href="attitude_8cpp.html#a46cec52b21a1c337c0ca23eba28f5bca" target="_top" xlink:title="Yaw model for GPS&#45;IIA sats Ref: http://acc.igs.org/orbits/EclipseReadMe.pdf Ref: https://igsac&#45;cnes....">
<path fill="#fff0f0" stroke="red" d="M118.17,-149C118.17,-149 48.83,-149 48.83,-149 45.67,-149 42.5,-145.83 42.5,-142.67 42.5,-142.67 42.5,-136.33 42.5,-136.33 42.5,-133.17 45.67,-130 48.83,-130 48.83,-130 118.17,-130 118.17,-130 121.33,-130 124.5,-133.17 124.5,-136.33 124.5,-136.33 124.5,-142.67 124.5,-142.67 124.5,-145.83 121.33,-149 118.17,-149"/>
<text text-anchor="middle" x="83.5" y="-137" font-family="Helvetica,sans-Serif" font-size="10.00">satYawGpsIIA</text>
</a>
</g>
</g>
<!-- Node1&#45;&gt;Node62 -->
<g id="edge6_Node000001_Node000062" class="edge">
<title>Node1&#45;&gt;Node62</title>
<g id="a_edge6_Node000001_Node000062"><a xlink:title=" ">
<path fill="none" stroke="#63b8ff" d="M355.46,-155.74C293.3,-152.01 183.53,-145.44 124.59,-141.9"/>
<polygon fill="#63b8ff" stroke="#63b8ff" points="355.56,-159.25 365.75,-156.36 355.98,-152.27 355.56,-159.25"/>
</a>
</g>
</g>
<!-- Node63 -->
<g id="Node000063" class="node">
<title>Node63</title>
<g id="a_Node000063"><a xlink:href="attitude_8cpp.html#a43e7b17b62853da813d5289667b3284e" target="_top" xlink:title="Yaw model for GPS&#45;IIR sats Ref: http://acc.igs.org/orbits/EclipseReadMe.pdf Ref: https://igsac&#45;cnes....">
<path fill="#fff0f0" stroke="red" d="M301.17,-130C301.17,-130 231.83,-130 231.83,-130 228.67,-130 225.5,-126.83 225.5,-123.67 225.5,-123.67 225.5,-117.33 225.5,-117.33 225.5,-114.17 228.67,-111 231.83,-111 231.83,-111 301.17,-111 301.17,-111 304.33,-111 307.5,-114.17 307.5,-117.33 307.5,-117.33 307.5,-123.67 307.5,-123.67 307.5,-126.83 304.33,-130 301.17,-130"/>
<text text-anchor="middle" x="266.5" y="-118" font-family="Helvetica,sans-Serif" font-size="10.00">satYawGpsIIR</text>
</a>
</g>
</g>
<!-- Node1&#45;&gt;Node63 -->
<g id="edge7_Node000001_Node000063" class="edge">
<title>Node1&#45;&gt;Node63</title>
<g id="a_edge7_Node000001_Node000063"><a xlink:title=" ">
<path fill="none" stroke="#63b8ff" d="M358.06,-146.18C339.65,-140.96 318.52,-134.97 301.3,-130.09"/>
<polygon fill="#63b8ff" stroke="#63b8ff" points="357.11,-149.55 367.69,-148.91 359.02,-142.82 357.11,-149.55"/>
</a>
</g>
</g>
<!-- Node65 -->
<g id="Node000065" class="node">
<title>Node65</title>
<g id="a_Node000065"><a xlink:href="attitude_8cpp.html#a11f76062306c3303d884e53aeaa74696" target="_top" xlink:title="Yaw model for QZSS&#45;1 satellites Requires qzss_yaw_modes.snx &#45; generated by scripts/qzss_ohi_merge....">
<path fill="#fff0f0" stroke="red" d="M297.17,-93C297.17,-93 235.83,-93 235.83,-93 232.67,-93 229.5,-89.83 229.5,-86.67 229.5,-86.67 229.5,-80.33 229.5,-80.33 229.5,-77.17 232.67,-74 235.83,-74 235.83,-74 297.17,-74 297.17,-74 300.33,-74 303.5,-77.17 303.5,-80.33 303.5,-80.33 303.5,-86.67 303.5,-86.67 303.5,-89.83 300.33,-93 297.17,-93"/>
<text text-anchor="middle" x="266.5" y="-81" font-family="Helvetica,sans-Serif" font-size="10.00">satYawQzs1</text>
</a>
</g>
</g>
<!-- Node1&#45;&gt;Node65 -->
<g id="edge9_Node000001_Node000065" class="edge">
<title>Node1&#45;&gt;Node65</title>
<g id="a_edge9_Node000001_Node000065"><a xlink:title=" ">
<path fill="none" stroke="#63b8ff" d="M384.11,-141.36C370.42,-128.74 350.32,-112 330,-101.5 321.87,-97.3 312.63,-93.96 303.8,-91.35"/>
<polygon fill="#63b8ff" stroke="#63b8ff" points="382.08,-144.26 391.75,-148.6 386.9,-139.18 382.08,-144.26"/>
</a>
</g>
</g>
<!-- Node67 -->
<g id="Node000067" class="node">
<title>Node67</title>
<g id="a_Node000067"><a xlink:href="structSatSys.html#a2ddfec2df97dea21d4c8b04502d75c3a" target="_top" xlink:title=" ">
<path fill="#fff0f0" stroke="red" d="M304.67,-56C304.67,-56 228.33,-56 228.33,-56 225.17,-56 222,-52.83 222,-49.67 222,-49.67 222,-43.33 222,-43.33 222,-40.17 225.17,-37 228.33,-37 228.33,-37 304.67,-37 304.67,-37 307.83,-37 311,-40.17 311,-43.33 311,-43.33 311,-49.67 311,-49.67 311,-52.83 307.83,-56 304.67,-56"/>
<text text-anchor="middle" x="266.5" y="-44" font-family="Helvetica,sans-Serif" font-size="10.00">SatSys::setSvn</text>
</a>
</g>
</g>
<!-- Node1&#45;&gt;Node67 -->
<g id="edge10_Node000001_Node000067" class="edge">
<title>Node1&#45;&gt;Node67</title>
<g id="a_edge10_Node000001_Node000067"><a xlink:title=" ">
<path fill="none" stroke="#63b8ff" d="M392.11,-139.84C380.42,-118.5 358.48,-84 330,-64.5 324.32,-60.61 317.79,-57.55 311.15,-55.15"/>
<polygon fill="#63b8ff" stroke="#63b8ff" points="389.11,-141.67 396.87,-148.88 395.31,-138.4 389.11,-141.67"/>
</a>
</g>
</g>
<!-- Node68 -->
<g id="Node000068" class="node">
<title>Node68</title>
<g id="a_Node000068"><a xlink:href="biasSINEXwrite_8cpp.html#adcabd7eefaca5c01cf305a80294e57a7" target="_top" xlink:title="print bias SINEX data line">
<path fill="#fff0f0" stroke="red" d="M309.17,-19C309.17,-19 223.83,-19 223.83,-19 220.67,-19 217.5,-15.83 217.5,-12.67 217.5,-12.67 217.5,-6.33 217.5,-6.33 217.5,-3.17 220.67,0 223.83,0 223.83,0 309.17,0 309.17,0 312.33,0 315.5,-3.17 315.5,-6.33 315.5,-6.33 315.5,-12.67 315.5,-12.67 315.5,-15.83 312.33,-19 309.17,-19"/>
<text text-anchor="middle" x="266.5" y="-7" font-family="Helvetica,sans-Serif" font-size="10.00">writeBSINEXLine</text>
</a>
</g>
</g>
<!-- Node1&#45;&gt;Node68 -->
<g id="edge12_Node000001_Node000068" class="edge">
<title>Node1&#45;&gt;Node68</title>
<g id="a_edge12_Node000001_Node000068"><a xlink:title=" ">
<path fill="none" stroke="#63b8ff" d="M396.22,-139.28C387.36,-110.63 366.75,-56.96 330,-27.5 325.68,-24.04 320.73,-21.24 315.54,-18.99"/>
<polygon fill="#63b8ff" stroke="#63b8ff" points="392.88,-140.32 399.05,-148.93 399.6,-138.35 392.88,-140.32"/>
</a>
</g>
</g>
<!-- Node2&#45;&gt;Node17 -->
<g id="edge2_Node000002_Node000017" class="edge">
<title>Node2&#45;&gt;Node17</title>
<g id="a_edge2_Node000002_Node000017"><a xlink:title=" ">
<path fill="none" stroke="#63b8ff" d="M209.86,-297.82C184.19,-292.43 154.11,-286.11 129.85,-281.02"/>
<polygon fill="#63b8ff" stroke="#63b8ff" points="209.32,-301.28 219.83,-299.91 210.76,-294.43 209.32,-301.28"/>
</a>
</g>
</g>
<!-- Node63&#45;&gt;Node62 -->
<g id="edge8_Node000063_Node000062" class="edge">
<title>Node63&#45;&gt;Node62</title>
<g id="a_edge8_Node000063_Node000062"><a xlink:title=" ">
<path fill="none" stroke="#63b8ff" d="M215.13,-125.79C186.54,-128.79 151.25,-132.49 124.56,-135.3"/>
<polygon fill="#63b8ff" stroke="#63b8ff" points="215.75,-129.24 225.33,-124.72 215.02,-122.28 215.75,-129.24"/>
</a>
</g>
</g>
<!-- Node67&#45;&gt;Node17 -->
<g id="edge11_Node000067_Node000017" class="edge">
<title>Node67&#45;&gt;Node17</title>
<g id="a_edge11_Node000067_Node000017"><a xlink:title=" ">
<path fill="none" stroke="#63b8ff" d="M212.39,-57.77C209.01,-59.68 205.83,-61.9 203,-64.5 170.05,-94.76 188.38,-119.2 167,-158.5 144.6,-199.68 109.08,-243 92.96,-261.82"/>
<polygon fill="#63b8ff" stroke="#63b8ff" points="214.15,-60.82 221.75,-53.44 211.2,-54.47 214.15,-60.82"/>
</a>
</g>
</g>
</g>
</svg>
