<?xml version="1.0" encoding="UTF-8" standalone="no"?>
<!DOCTYPE svg PUBLIC "-//W3C//DTD SVG 1.1//EN"
 "http://www.w3.org/Graphics/SVG/1.1/DTD/svg11.dtd">
<!-- Generated by graphviz version 2.43.0 (0)
 -->
<!-- Title: IcdDecoder::decodeGPSSubframe3 Pages: 1 -->
<svg width="547pt" height="148pt"
 viewBox="0.00 0.00 547.00 148.00" xmlns="http://www.w3.org/2000/svg" xmlns:xlink="http://www.w3.org/1999/xlink">
<g id="graph0" class="graph" transform="scale(1 1) rotate(0) translate(4 144)">
<title>IcdDecoder::decodeGPSSubframe3</title>
<!-- Node1 -->
<g id="Node000001" class="node">
<title>Node1</title>
<g id="a_Node000001"><a xlink:href="structIcdDecoder.html#afaba292d1d3b077eaf2e7ba3a8cd2ff0" target="_top" xlink:title=" ">
<path fill="#fff0f0" stroke="red" stroke-width="2" d="M178.67,-66C178.67,-66 6.33,-66 6.33,-66 3.17,-66 0,-62.83 0,-59.67 0,-59.67 0,-53.33 0,-53.33 0,-50.17 3.17,-47 6.33,-47 6.33,-47 178.67,-47 178.67,-47 181.83,-47 185,-50.17 185,-53.33 185,-53.33 185,-59.67 185,-59.67 185,-62.83 181.83,-66 178.67,-66"/>
<text text-anchor="middle" x="92.5" y="-54" font-family="Helvetica,sans-Serif" font-size="10.00">IcdDecoder::decodeGPSSubframe3</text>
</a>
</g>
</g>
<!-- Node2 -->
<g id="Node000002" class="node">
<title>Node2</title>
<g id="a_Node000002"><a xlink:href="structIcdDecoder.html#a79e3697462fd9605f031ed633f71e12b" target="_top" xlink:title=" ">
<path fill="#fff0f0" stroke="red" d="M391.17,-140C391.17,-140 228.83,-140 228.83,-140 225.67,-140 222.5,-136.83 222.5,-133.67 222.5,-133.67 222.5,-127.33 222.5,-127.33 222.5,-124.17 225.67,-121 228.83,-121 228.83,-121 391.17,-121 391.17,-121 394.33,-121 397.5,-124.17 397.5,-127.33 397.5,-127.33 397.5,-133.67 397.5,-133.67 397.5,-136.83 394.33,-140 391.17,-140"/>
<text text-anchor="middle" x="310" y="-128" font-family="Helvetica,sans-Serif" font-size="10.00">IcdDecoder::decodeGpsTlmWord</text>
</a>
</g>
</g>
<!-- Node1&#45;&gt;Node2 -->
<g id="edge1_Node000001_Node000002" class="edge">
<title>Node1&#45;&gt;Node2</title>
<g id="a_edge1_Node000001_Node000002"><a xlink:title=" ">
<path fill="none" stroke="#63b8ff" d="M112.02,-66.13C136.42,-78.46 180.91,-99.76 221,-112.5 228.13,-114.77 235.68,-116.82 243.24,-118.65"/>
<polygon fill="#63b8ff" stroke="#63b8ff" points="242.62,-122.1 253.15,-120.94 244.19,-115.28 242.62,-122.1"/>
</a>
</g>
</g>
<!-- Node3 -->
<g id="Node000003" class="node">
<title>Node3</title>
<g id="a_Node000003"><a xlink:href="structIcdDecoder.html#acb598e47f5b9091532e280c590007025" target="_top" xlink:title=" ">
<path fill="#fff0f0" stroke="red" d="M392.67,-103C392.67,-103 227.33,-103 227.33,-103 224.17,-103 221,-99.83 221,-96.67 221,-96.67 221,-90.33 221,-90.33 221,-87.17 224.17,-84 227.33,-84 227.33,-84 392.67,-84 392.67,-84 395.83,-84 399,-87.17 399,-90.33 399,-90.33 399,-96.67 399,-96.67 399,-99.83 395.83,-103 392.67,-103"/>
<text text-anchor="middle" x="310" y="-91" font-family="Helvetica,sans-Serif" font-size="10.00">IcdDecoder::decodeGpsHowWord</text>
</a>
</g>
</g>
<!-- Node1&#45;&gt;Node3 -->
<g id="edge2_Node000001_Node000003" class="edge">
<title>Node1&#45;&gt;Node3</title>
<g id="a_edge2_Node000001_Node000003"><a xlink:title=" ">
<path fill="none" stroke="#63b8ff" d="M149,-66.03C177.79,-70.97 213.16,-77.04 243.31,-82.22"/>
<polygon fill="#63b8ff" stroke="#63b8ff" points="242.87,-85.7 253.32,-83.94 244.05,-78.8 242.87,-85.7"/>
</a>
</g>
</g>
<!-- Node4 -->
<g id="Node000004" class="node">
<title>Node4</title>
<g id="a_Node000004"><a xlink:href="ubxDecoder_8cpp.html#a3f7c471b91d0090e112befb07c810ee0" target="_top" xlink:title=" ">
<path fill="#fff0f0" stroke="red" d="M532.67,-19C532.67,-19 441.33,-19 441.33,-19 438.17,-19 435,-15.83 435,-12.67 435,-12.67 435,-6.33 435,-6.33 435,-3.17 438.17,0 441.33,0 441.33,0 532.67,0 532.67,0 535.83,0 539,-3.17 539,-6.33 539,-6.33 539,-12.67 539,-12.67 539,-15.83 535.83,-19 532.67,-19"/>
<text text-anchor="middle" x="487" y="-7" font-family="Helvetica,sans-Serif" font-size="10.00">gpsBitUFromWord</text>
</a>
</g>
</g>
<!-- Node1&#45;&gt;Node4 -->
<g id="edge6_Node000001_Node000004" class="edge">
<title>Node1&#45;&gt;Node4</title>
<g id="a_edge6_Node000001_Node000004"><a xlink:title=" ">
<path fill="none" stroke="#63b8ff" d="M114.68,-46.89C139.96,-40.54 183.51,-34.2 221,-29.5 290.67,-20.77 370.84,-12.2 424.59,-8.54"/>
<polygon fill="#63b8ff" stroke="#63b8ff" points="424.89,-12.03 434.65,-7.9 424.44,-5.05 424.89,-12.03"/>
</a>
</g>
</g>
<!-- Node1&#45;&gt;Node4 -->
<g id="edge7_Node000001_Node000004" class="edge">
<title>Node1&#45;&gt;Node4</title>
<g id="a_edge7_Node000001_Node000004"><a xlink:title=" ">
<path fill="none" stroke="#63b8ff" d="M185.04,-52.15C197.12,-50.58 209.35,-48.96 221,-47.5 297.63,-37.9 386.96,-28.49 439.87,-20.61"/>
<polygon fill="#63b8ff" stroke="#63b8ff" points="440.6,-24.04 449.95,-19.06 439.54,-17.12 440.6,-24.04"/>
</a>
</g>
</g>
<!-- Node5 -->
<g id="Node000005" class="node">
<title>Node5</title>
<g id="a_Node000005"><a xlink:href="ubxDecoder_8cpp.html#aa710d3a4e32d533b7f8e00d16e8e82c8" target="_top" xlink:title=" ">
<path fill="#fff0f0" stroke="red" d="M355.17,-66C355.17,-66 264.83,-66 264.83,-66 261.67,-66 258.5,-62.83 258.5,-59.67 258.5,-59.67 258.5,-53.33 258.5,-53.33 258.5,-50.17 261.67,-47 264.83,-47 264.83,-47 355.17,-47 355.17,-47 358.33,-47 361.5,-50.17 361.5,-53.33 361.5,-53.33 361.5,-59.67 361.5,-59.67 361.5,-62.83 358.33,-66 355.17,-66"/>
<text text-anchor="middle" x="310" y="-54" font-family="Helvetica,sans-Serif" font-size="10.00">gpsBitSFromWord</text>
</a>
</g>
</g>
<!-- Node1&#45;&gt;Node5 -->
<g id="edge4_Node000001_Node000005" class="edge">
<title>Node1&#45;&gt;Node5</title>
<g id="a_edge4_Node000001_Node000005"><a xlink:title=" ">
<path fill="none" stroke="#63b8ff" d="M185.2,-49.82C206.57,-49.64 228.79,-49.82 248.42,-50.36"/>
<polygon fill="#63b8ff" stroke="#63b8ff" points="248.32,-53.86 258.42,-50.68 248.54,-46.86 248.32,-53.86"/>
</a>
</g>
</g>
<!-- Node1&#45;&gt;Node5 -->
<g id="edge5_Node000001_Node000005" class="edge">
<title>Node1&#45;&gt;Node5</title>
<g id="a_edge5_Node000001_Node000005"><a xlink:title=" ">
<path fill="none" stroke="#63b8ff" d="M185.2,-63.18C206.57,-63.36 228.79,-63.18 248.42,-62.64"/>
<polygon fill="#63b8ff" stroke="#63b8ff" points="248.54,-66.14 258.42,-62.32 248.32,-59.14 248.54,-66.14"/>
</a>
</g>
</g>
<!-- Node3&#45;&gt;Node4 -->
<g id="edge3_Node000003_Node000004" class="edge">
<title>Node3&#45;&gt;Node4</title>
<g id="a_edge3_Node000003_Node000004"><a xlink:title=" ">
<path fill="none" stroke="#63b8ff" d="M375.04,-83.93C383.29,-81.68 391.47,-78.91 399,-75.5 425.91,-63.31 452.3,-41.5 468.83,-26.31"/>
<polygon fill="#63b8ff" stroke="#63b8ff" points="471.65,-28.45 476.52,-19.05 466.84,-23.36 471.65,-28.45"/>
</a>
</g>
</g>
</g>
</svg>
