<?xml version="1.0" encoding="UTF-8" standalone="no"?>
<!DOCTYPE svg PUBLIC "-//W3C//DTD SVG 1.1//EN"
 "http://www.w3.org/Graphics/SVG/1.1/DTD/svg11.dtd">
<!-- Generated by graphviz version 2.43.0 (0)
 -->
<!-- Title: LObs Pages: 1 -->
<svg width="404pt" height="1282pt"
 viewBox="0.00 0.00 404.00 1282.00" xmlns="http://www.w3.org/2000/svg" xmlns:xlink="http://www.w3.org/1999/xlink">
<g id="graph0" class="graph" transform="scale(1 1) rotate(0) translate(4 1278)">
<title>LObs</title>
<!-- Node1 -->
<g id="Node000001" class="node">
<title>Node1</title>
<g id="a_Node000001"><a xlink:href="structLObs.html" target="_top" xlink:title=" ">
<path fill="white" stroke="#666666" stroke-width="2" d="M245.5,-233C245.5,-233 129.5,-233 129.5,-233 123.5,-233 117.5,-227 117.5,-221 117.5,-221 117.5,-12 117.5,-12 117.5,-6 123.5,0 129.5,0 129.5,0 245.5,0 245.5,0 251.5,0 257.5,-6 257.5,-12 257.5,-12 257.5,-221 257.5,-221 257.5,-227 251.5,-233 245.5,-233"/>
<text text-anchor="start" x="175" y="-216.5" font-family="Helvetica,sans-Serif" font-size="10.00">LObs</text>
<text text-anchor="start" x="129.5" y="-201.5" font-family="Helvetica,sans-Serif" font-size="10.00">+</text>
<text text-anchor="start" x="142.5" y="-201.5" font-family="Helvetica,sans-Serif" font-size="10.00">epochEvent</text>
<text text-anchor="start" x="129.5" y="-186.5" font-family="Helvetica,sans-Serif" font-size="10.00">+</text>
<text text-anchor="start" x="142.5" y="-186.5" font-family="Helvetica,sans-Serif" font-size="10.00">timeTx</text>
<text text-anchor="start" x="129.5" y="-171.5" font-family="Helvetica,sans-Serif" font-size="10.00">+</text>
<text text-anchor="start" x="142.5" y="-171.5" font-family="Helvetica,sans-Serif" font-size="10.00">twoWayTimeOfFlight</text>
<text text-anchor="start" x="129.5" y="-156.5" font-family="Helvetica,sans-Serif" font-size="10.00">+</text>
<text text-anchor="start" x="142.5" y="-156.5" font-family="Helvetica,sans-Serif" font-size="10.00">pressure</text>
<text text-anchor="start" x="129.5" y="-141.5" font-family="Helvetica,sans-Serif" font-size="10.00">+</text>
<text text-anchor="start" x="142.5" y="-141.5" font-family="Helvetica,sans-Serif" font-size="10.00">temperature</text>
<text text-anchor="start" x="129.5" y="-126.5" font-family="Helvetica,sans-Serif" font-size="10.00">+</text>
<text text-anchor="start" x="142.5" y="-126.5" font-family="Helvetica,sans-Serif" font-size="10.00">humidity</text>
<text text-anchor="start" x="129.5" y="-111.5" font-family="Helvetica,sans-Serif" font-size="10.00">+</text>
<text text-anchor="start" x="142.5" y="-111.5" font-family="Helvetica,sans-Serif" font-size="10.00">wavelengthNm</text>
<text text-anchor="start" x="129.5" y="-96.5" font-family="Helvetica,sans-Serif" font-size="10.00">+</text>
<text text-anchor="start" x="142.5" y="-96.5" font-family="Helvetica,sans-Serif" font-size="10.00">rangeBias</text>
<text text-anchor="start" x="129.5" y="-81.5" font-family="Helvetica,sans-Serif" font-size="10.00">+</text>
<text text-anchor="start" x="142.5" y="-81.5" font-family="Helvetica,sans-Serif" font-size="10.00">timeBias</text>
<text text-anchor="start" x="129.5" y="-66.5" font-family="Helvetica,sans-Serif" font-size="10.00">+</text>
<text text-anchor="start" x="142.5" y="-66.5" font-family="Helvetica,sans-Serif" font-size="10.00">pressureBias</text>
<text text-anchor="start" x="129.5" y="-51.5" font-family="Helvetica,sans-Serif" font-size="10.00">+</text>
<text text-anchor="start" x="142.5" y="-51.5" font-family="Helvetica,sans-Serif" font-size="10.00">humidityBias</text>
<text text-anchor="start" x="129.5" y="-36.5" font-family="Helvetica,sans-Serif" font-size="10.00">+</text>
<text text-anchor="start" x="142.5" y="-36.5" font-family="Helvetica,sans-Serif" font-size="10.00">operator shared_ptr</text>
<text text-anchor="start" x="142.5" y="-25.5" font-family="Helvetica,sans-Serif" font-size="10.00">&lt; LObs &gt;()</text>
<text text-anchor="start" x="129.5" y="-10.5" font-family="Helvetica,sans-Serif" font-size="10.00">+</text>
<text text-anchor="start" x="142.5" y="-10.5" font-family="Helvetica,sans-Serif" font-size="10.00">~LObs()</text>
<polygon fill="#666666" stroke="#666666" points="125.5,-211.5 125.5,-211.5 249.5,-211.5 249.5,-211.5 125.5,-211.5"/>
<polygon fill="#666666" stroke="#666666" points="125.5,-46.5 125.5,-46.5 140.5,-46.5 140.5,-46.5 125.5,-46.5"/>
<polygon fill="#666666" stroke="#666666" points="140.5,-46.5 140.5,-46.5 249.5,-46.5 249.5,-46.5 140.5,-46.5"/>
<polygon fill="none" stroke="#666666" points="125.5,-4 125.5,-229 249.5,-229 249.5,-4 125.5,-4"/>
</a>
</g>
</g>
<!-- Node2 -->
<g id="Node000002" class="node">
<title>Node2</title>
<g id="a_Node000002"><a xlink:href="structObservation.html" target="_top" xlink:title=" ">
<path fill="white" stroke="#666666" d="M116,-701C116,-701 27,-701 27,-701 21,-701 15,-695 15,-689 15,-689 15,-566 15,-566 15,-560 21,-554 27,-554 27,-554 116,-554 116,-554 122,-554 128,-560 128,-566 128,-566 128,-689 128,-689 128,-695 122,-701 116,-701"/>
<text text-anchor="start" x="42" y="-684.5" font-family="Helvetica,sans-Serif" font-size="10.00">Observation</text>
<text text-anchor="start" x="27.5" y="-669.5" font-family="Helvetica,sans-Serif" font-size="10.00">+</text>
<text text-anchor="start" x="40.5" y="-669.5" font-family="Helvetica,sans-Serif" font-size="10.00">time</text>
<text text-anchor="start" x="27.5" y="-654.5" font-family="Helvetica,sans-Serif" font-size="10.00">+</text>
<text text-anchor="start" x="40.5" y="-654.5" font-family="Helvetica,sans-Serif" font-size="10.00">mount</text>
<text text-anchor="start" x="27.5" y="-639.5" font-family="Helvetica,sans-Serif" font-size="10.00">+</text>
<text text-anchor="start" x="40.5" y="-639.5" font-family="Helvetica,sans-Serif" font-size="10.00">ephVar</text>
<text text-anchor="start" x="27.5" y="-624.5" font-family="Helvetica,sans-Serif" font-size="10.00">#</text>
<text text-anchor="start" x="40.5" y="-624.5" font-family="Helvetica,sans-Serif" font-size="10.00">gObs_ptr</text>
<text text-anchor="start" x="27.5" y="-609.5" font-family="Helvetica,sans-Serif" font-size="10.00">#</text>
<text text-anchor="start" x="40.5" y="-609.5" font-family="Helvetica,sans-Serif" font-size="10.00">pObs_ptr</text>
<text text-anchor="start" x="27.5" y="-594.5" font-family="Helvetica,sans-Serif" font-size="10.00">#</text>
<text text-anchor="start" x="40.5" y="-594.5" font-family="Helvetica,sans-Serif" font-size="10.00">fObs_ptr</text>
<text text-anchor="start" x="27.5" y="-579.5" font-family="Helvetica,sans-Serif" font-size="10.00">#</text>
<text text-anchor="start" x="40.5" y="-579.5" font-family="Helvetica,sans-Serif" font-size="10.00">lObs_ptr</text>
<text text-anchor="start" x="27.5" y="-564.5" font-family="Helvetica,sans-Serif" font-size="10.00">+</text>
<text text-anchor="start" x="40.5" y="-564.5" font-family="Helvetica,sans-Serif" font-size="10.00">~Observation()</text>
<polygon fill="#666666" stroke="#666666" points="23.5,-679.5 23.5,-679.5 120.5,-679.5 120.5,-679.5 23.5,-679.5"/>
<polygon fill="#666666" stroke="#666666" points="23.5,-574.5 23.5,-574.5 38.5,-574.5 38.5,-574.5 23.5,-574.5"/>
<polygon fill="#666666" stroke="#666666" points="38.5,-574.5 38.5,-574.5 120.5,-574.5 120.5,-574.5 38.5,-574.5"/>
<polygon fill="none" stroke="#666666" points="23,-558 23,-697 120,-697 120,-558 23,-558"/>
</a>
</g>
</g>
<!-- Node2&#45;&gt;Node1 -->
<g id="edge1_Node000001_Node000002" class="edge">
<title>Node2&#45;&gt;Node1</title>
<g id="a_edge1_Node000001_Node000002"><a xlink:title=" ">
<path fill="none" stroke="#63b8ff" d="M83.47,-543.93C94.81,-471.02 113.65,-362.14 137.5,-269 140.49,-257.33 143.91,-245.25 147.52,-233.24"/>
<polygon fill="none" stroke="#63b8ff" points="79.99,-543.56 81.92,-553.97 86.9,-544.62 79.99,-543.56"/>
</a>
</g>
</g>
<!-- Node3 -->
<g id="Node000003" class="node">
<title>Node3</title>
<g id="a_Node000003"><a xlink:href="structObsMeta.html" target="_top" xlink:title=" ">
<path fill="white" stroke="#666666" d="M131,-1274C131,-1274 12,-1274 12,-1274 6,-1274 0,-1268 0,-1262 0,-1262 0,-1034 0,-1034 0,-1028 6,-1022 12,-1022 12,-1022 131,-1022 131,-1022 137,-1022 143,-1028 143,-1034 143,-1034 143,-1262 143,-1262 143,-1268 137,-1274 131,-1274"/>
<text text-anchor="start" x="50" y="-1258" font-family="Helvetica,sans-Serif" font-size="10.00">ObsMeta</text>
<text text-anchor="start" x="12.5" y="-1243" font-family="Helvetica,sans-Serif" font-size="10.00">+</text>
<text text-anchor="start" x="25.5" y="-1243" font-family="Helvetica,sans-Serif" font-size="10.00">exclude</text>
<text text-anchor="start" x="12.5" y="-1228" font-family="Helvetica,sans-Serif" font-size="10.00">+</text>
<text text-anchor="start" x="25.5" y="-1228" font-family="Helvetica,sans-Serif" font-size="10.00">excludeElevation</text>
<text text-anchor="start" x="12.5" y="-1213" font-family="Helvetica,sans-Serif" font-size="10.00">+</text>
<text text-anchor="start" x="25.5" y="-1213" font-family="Helvetica,sans-Serif" font-size="10.00">excludeEclipse</text>
<text text-anchor="start" x="12.5" y="-1198" font-family="Helvetica,sans-Serif" font-size="10.00">+</text>
<text text-anchor="start" x="25.5" y="-1198" font-family="Helvetica,sans-Serif" font-size="10.00">excludeSystem</text>
<text text-anchor="start" x="12.5" y="-1183" font-family="Helvetica,sans-Serif" font-size="10.00">+</text>
<text text-anchor="start" x="25.5" y="-1183" font-family="Helvetica,sans-Serif" font-size="10.00">excludeOutlier</text>
<text text-anchor="start" x="12.5" y="-1168" font-family="Helvetica,sans-Serif" font-size="10.00">+</text>
<text text-anchor="start" x="25.5" y="-1168" font-family="Helvetica,sans-Serif" font-size="10.00">excludeBadSPP</text>
<text text-anchor="start" x="12.5" y="-1153" font-family="Helvetica,sans-Serif" font-size="10.00">+</text>
<text text-anchor="start" x="25.5" y="-1153" font-family="Helvetica,sans-Serif" font-size="10.00">excludeConfig</text>
<text text-anchor="start" x="12.5" y="-1138" font-family="Helvetica,sans-Serif" font-size="10.00">+</text>
<text text-anchor="start" x="25.5" y="-1138" font-family="Helvetica,sans-Serif" font-size="10.00">excludeSVH</text>
<text text-anchor="start" x="12.5" y="-1123" font-family="Helvetica,sans-Serif" font-size="10.00">+</text>
<text text-anchor="start" x="25.5" y="-1123" font-family="Helvetica,sans-Serif" font-size="10.00">excludeBadRange</text>
<text text-anchor="start" x="12.5" y="-1108" font-family="Helvetica,sans-Serif" font-size="10.00">+</text>
<text text-anchor="start" x="25.5" y="-1108" font-family="Helvetica,sans-Serif" font-size="10.00">excludeDataHandling</text>
<text text-anchor="start" x="12.5" y="-1093" font-family="Helvetica,sans-Serif" font-size="10.00">+</text>
<text text-anchor="start" x="25.5" y="-1093" font-family="Helvetica,sans-Serif" font-size="10.00">excludeCom</text>
<text text-anchor="start" x="12.5" y="-1078" font-family="Helvetica,sans-Serif" font-size="10.00">+</text>
<text text-anchor="start" x="25.5" y="-1078" font-family="Helvetica,sans-Serif" font-size="10.00">excludeBadFlags</text>
<text text-anchor="start" x="12.5" y="-1063" font-family="Helvetica,sans-Serif" font-size="10.00">+</text>
<text text-anchor="start" x="25.5" y="-1063" font-family="Helvetica,sans-Serif" font-size="10.00">excludeAlert</text>
<text text-anchor="start" x="12.5" y="-1048" font-family="Helvetica,sans-Serif" font-size="10.00">+</text>
<text text-anchor="start" x="25.5" y="-1048" font-family="Helvetica,sans-Serif" font-size="10.00">@21</text>
<text text-anchor="start" x="12.5" y="-1033" font-family="Helvetica,sans-Serif" font-size="10.00">+</text>
<text text-anchor="start" x="25.5" y="-1033" font-family="Helvetica,sans-Serif" font-size="10.00">ObsMeta()</text>
<polygon fill="#666666" stroke="#666666" points="8.5,-1253 8.5,-1253 135.5,-1253 135.5,-1253 8.5,-1253"/>
<polygon fill="#666666" stroke="#666666" points="8.5,-1043 8.5,-1043 23.5,-1043 23.5,-1043 8.5,-1043"/>
<polygon fill="#666666" stroke="#666666" points="23.5,-1043 23.5,-1043 135.5,-1043 135.5,-1043 23.5,-1043"/>
<polygon fill="none" stroke="#666666" points="8,-1026 8,-1270 135,-1270 135,-1026 8,-1026"/>
</a>
</g>
</g>
<!-- Node3&#45;&gt;Node2 -->
<g id="edge2_Node000002_Node000003" class="edge">
<title>Node3&#45;&gt;Node2</title>
<g id="a_edge2_Node000002_Node000003"><a xlink:title=" ">
<path fill="none" stroke="#63b8ff" d="M71.5,-1011.7C71.5,-912.36 71.5,-781.27 71.5,-701.02"/>
<polygon fill="none" stroke="#63b8ff" points="68,-1011.82 71.5,-1021.82 75,-1011.82 68,-1011.82"/>
</a>
</g>
</g>
<!-- Node4 -->
<g id="Node000004" class="node">
<title>Node4</title>
<g id="a_Node000004"><a xlink:href="structLObsMeta.html" target="_top" xlink:title=" ">
<path fill="white" stroke="#666666" d="M216.5,-686C216.5,-686 158.5,-686 158.5,-686 152.5,-686 146.5,-680 146.5,-674 146.5,-674 146.5,-581 146.5,-581 146.5,-575 152.5,-569 158.5,-569 158.5,-569 216.5,-569 216.5,-569 222.5,-569 228.5,-575 228.5,-581 228.5,-581 228.5,-674 228.5,-674 228.5,-680 222.5,-686 216.5,-686"/>
<text text-anchor="start" x="163" y="-669.5" font-family="Helvetica,sans-Serif" font-size="10.00">LObsMeta</text>
<text text-anchor="start" x="158.5" y="-654.5" font-family="Helvetica,sans-Serif" font-size="10.00">+</text>
<text text-anchor="start" x="171.5" y="-654.5" font-family="Helvetica,sans-Serif" font-size="10.00">recName</text>
<text text-anchor="start" x="158.5" y="-639.5" font-family="Helvetica,sans-Serif" font-size="10.00">+</text>
<text text-anchor="start" x="171.5" y="-639.5" font-family="Helvetica,sans-Serif" font-size="10.00">recCdpId</text>
<text text-anchor="start" x="158.5" y="-624.5" font-family="Helvetica,sans-Serif" font-size="10.00">+</text>
<text text-anchor="start" x="171.5" y="-624.5" font-family="Helvetica,sans-Serif" font-size="10.00">satName</text>
<text text-anchor="start" x="158.5" y="-609.5" font-family="Helvetica,sans-Serif" font-size="10.00">+</text>
<text text-anchor="start" x="171.5" y="-609.5" font-family="Helvetica,sans-Serif" font-size="10.00">ilrsId</text>
<text text-anchor="start" x="158.5" y="-594.5" font-family="Helvetica,sans-Serif" font-size="10.00">+</text>
<text text-anchor="start" x="171.5" y="-594.5" font-family="Helvetica,sans-Serif" font-size="10.00">cosparId</text>
<text text-anchor="start" x="185.5" y="-579.5" font-family="Helvetica,sans-Serif" font-size="10.00"> </text>
<polygon fill="#666666" stroke="#666666" points="154.5,-664.5 154.5,-664.5 220.5,-664.5 220.5,-664.5 154.5,-664.5"/>
<polygon fill="#666666" stroke="#666666" points="154.5,-589.5 154.5,-589.5 169.5,-589.5 169.5,-589.5 154.5,-589.5"/>
<polygon fill="#666666" stroke="#666666" points="169.5,-589.5 169.5,-589.5 220.5,-589.5 220.5,-589.5 169.5,-589.5"/>
<polygon fill="none" stroke="#666666" points="154.5,-573 154.5,-682 220.5,-682 220.5,-573 154.5,-573"/>
</a>
</g>
</g>
<!-- Node4&#45;&gt;Node1 -->
<g id="edge3_Node000001_Node000004" class="edge">
<title>Node4&#45;&gt;Node1</title>
<g id="a_edge3_Node000001_Node000004"><a xlink:title=" ">
<path fill="none" stroke="#63b8ff" d="M187.5,-558.52C187.5,-475.39 187.5,-333.39 187.5,-233.01"/>
<polygon fill="none" stroke="#63b8ff" points="184,-558.61 187.5,-568.61 191,-558.61 184,-558.61"/>
</a>
</g>
</g>
<!-- Node5 -->
<g id="Node000005" class="node">
<title>Node5</title>
<g id="a_Node000005"><a xlink:href="structSatPos.html" target="_top" xlink:title="Satellite position data &#45; for determining and storing satellite positions/clocks.">
<path fill="white" stroke="#666666" d="M384,-986C384,-986 259,-986 259,-986 253,-986 247,-980 247,-974 247,-974 247,-281 247,-281 247,-275 253,-269 259,-269 259,-269 384,-269 384,-269 390,-269 396,-275 396,-281 396,-281 396,-974 396,-974 396,-980 390,-986 384,-986"/>
<text text-anchor="start" x="305" y="-969.5" font-family="Helvetica,sans-Serif" font-size="10.00">SatPos</text>
<text text-anchor="start" x="259.5" y="-954.5" font-family="Helvetica,sans-Serif" font-size="10.00">+</text>
<text text-anchor="start" x="272.5" y="-954.5" font-family="Helvetica,sans-Serif" font-size="10.00">posTime</text>
<text text-anchor="start" x="259.5" y="-939.5" font-family="Helvetica,sans-Serif" font-size="10.00">+</text>
<text text-anchor="start" x="272.5" y="-939.5" font-family="Helvetica,sans-Serif" font-size="10.00">Sat</text>
<text text-anchor="start" x="259.5" y="-924.5" font-family="Helvetica,sans-Serif" font-size="10.00">+</text>
<text text-anchor="start" x="272.5" y="-924.5" font-family="Helvetica,sans-Serif" font-size="10.00">satNav_ptr</text>
<text text-anchor="start" x="259.5" y="-909.5" font-family="Helvetica,sans-Serif" font-size="10.00">+</text>
<text text-anchor="start" x="272.5" y="-909.5" font-family="Helvetica,sans-Serif" font-size="10.00">satStat_ptr</text>
<text text-anchor="start" x="259.5" y="-894.5" font-family="Helvetica,sans-Serif" font-size="10.00">+</text>
<text text-anchor="start" x="272.5" y="-894.5" font-family="Helvetica,sans-Serif" font-size="10.00">posSource</text>
<text text-anchor="start" x="259.5" y="-879.5" font-family="Helvetica,sans-Serif" font-size="10.00">+</text>
<text text-anchor="start" x="272.5" y="-879.5" font-family="Helvetica,sans-Serif" font-size="10.00">clkSource</text>
<text text-anchor="start" x="259.5" y="-864.5" font-family="Helvetica,sans-Serif" font-size="10.00">+</text>
<text text-anchor="start" x="272.5" y="-864.5" font-family="Helvetica,sans-Serif" font-size="10.00">rSatCom</text>
<text text-anchor="start" x="259.5" y="-849.5" font-family="Helvetica,sans-Serif" font-size="10.00">+</text>
<text text-anchor="start" x="272.5" y="-849.5" font-family="Helvetica,sans-Serif" font-size="10.00">rSatApc</text>
<text text-anchor="start" x="259.5" y="-834.5" font-family="Helvetica,sans-Serif" font-size="10.00">+</text>
<text text-anchor="start" x="272.5" y="-834.5" font-family="Helvetica,sans-Serif" font-size="10.00">satVel</text>
<text text-anchor="start" x="259.5" y="-819.5" font-family="Helvetica,sans-Serif" font-size="10.00">+</text>
<text text-anchor="start" x="272.5" y="-819.5" font-family="Helvetica,sans-Serif" font-size="10.00">rSatEciDt</text>
<text text-anchor="start" x="259.5" y="-804.5" font-family="Helvetica,sans-Serif" font-size="10.00">+</text>
<text text-anchor="start" x="272.5" y="-804.5" font-family="Helvetica,sans-Serif" font-size="10.00">vSatEciDt</text>
<text text-anchor="start" x="259.5" y="-789.5" font-family="Helvetica,sans-Serif" font-size="10.00">+</text>
<text text-anchor="start" x="272.5" y="-789.5" font-family="Helvetica,sans-Serif" font-size="10.00">rSatEci0</text>
<text text-anchor="start" x="259.5" y="-774.5" font-family="Helvetica,sans-Serif" font-size="10.00">+</text>
<text text-anchor="start" x="272.5" y="-774.5" font-family="Helvetica,sans-Serif" font-size="10.00">vSatEci0</text>
<text text-anchor="start" x="259.5" y="-759.5" font-family="Helvetica,sans-Serif" font-size="10.00">+</text>
<text text-anchor="start" x="272.5" y="-759.5" font-family="Helvetica,sans-Serif" font-size="10.00">posVar</text>
<text text-anchor="start" x="259.5" y="-744.5" font-family="Helvetica,sans-Serif" font-size="10.00">+</text>
<text text-anchor="start" x="272.5" y="-744.5" font-family="Helvetica,sans-Serif" font-size="10.00">satClk</text>
<text text-anchor="start" x="259.5" y="-729.5" font-family="Helvetica,sans-Serif" font-size="10.00">+</text>
<text text-anchor="start" x="272.5" y="-729.5" font-family="Helvetica,sans-Serif" font-size="10.00">satClkVel</text>
<text text-anchor="start" x="259.5" y="-714.5" font-family="Helvetica,sans-Serif" font-size="10.00">+</text>
<text text-anchor="start" x="272.5" y="-714.5" font-family="Helvetica,sans-Serif" font-size="10.00">satClkVar</text>
<text text-anchor="start" x="259.5" y="-699.5" font-family="Helvetica,sans-Serif" font-size="10.00">+</text>
<text text-anchor="start" x="272.5" y="-699.5" font-family="Helvetica,sans-Serif" font-size="10.00">sppValid</text>
<text text-anchor="start" x="259.5" y="-684.5" font-family="Helvetica,sans-Serif" font-size="10.00">+</text>
<text text-anchor="start" x="272.5" y="-684.5" font-family="Helvetica,sans-Serif" font-size="10.00">iodeClk</text>
<text text-anchor="start" x="259.5" y="-669.5" font-family="Helvetica,sans-Serif" font-size="10.00">+</text>
<text text-anchor="start" x="272.5" y="-669.5" font-family="Helvetica,sans-Serif" font-size="10.00">iodePos</text>
<text text-anchor="start" x="259.5" y="-654.5" font-family="Helvetica,sans-Serif" font-size="10.00">+</text>
<text text-anchor="start" x="272.5" y="-654.5" font-family="Helvetica,sans-Serif" font-size="10.00">ephPosValid</text>
<text text-anchor="start" x="259.5" y="-639.5" font-family="Helvetica,sans-Serif" font-size="10.00">+</text>
<text text-anchor="start" x="272.5" y="-639.5" font-family="Helvetica,sans-Serif" font-size="10.00">ephClkValid</text>
<text text-anchor="start" x="259.5" y="-624.5" font-family="Helvetica,sans-Serif" font-size="10.00">+</text>
<text text-anchor="start" x="272.5" y="-624.5" font-family="Helvetica,sans-Serif" font-size="10.00">tof</text>
<text text-anchor="start" x="259.5" y="-609.5" font-family="Helvetica,sans-Serif" font-size="10.00">+</text>
<text text-anchor="start" x="272.5" y="-609.5" font-family="Helvetica,sans-Serif" font-size="10.00">failure</text>
<text text-anchor="start" x="259.5" y="-594.5" font-family="Helvetica,sans-Serif" font-size="10.00">+</text>
<text text-anchor="start" x="272.5" y="-594.5" font-family="Helvetica,sans-Serif" font-size="10.00">failureExclude</text>
<text text-anchor="start" x="259.5" y="-579.5" font-family="Helvetica,sans-Serif" font-size="10.00">+</text>
<text text-anchor="start" x="272.5" y="-579.5" font-family="Helvetica,sans-Serif" font-size="10.00">failureNoSatPos</text>
<text text-anchor="start" x="259.5" y="-564.5" font-family="Helvetica,sans-Serif" font-size="10.00">+</text>
<text text-anchor="start" x="272.5" y="-564.5" font-family="Helvetica,sans-Serif" font-size="10.00">failureNoSatClock</text>
<text text-anchor="start" x="259.5" y="-549.5" font-family="Helvetica,sans-Serif" font-size="10.00">+</text>
<text text-anchor="start" x="272.5" y="-549.5" font-family="Helvetica,sans-Serif" font-size="10.00">failureNoPseudorange</text>
<text text-anchor="start" x="259.5" y="-534.5" font-family="Helvetica,sans-Serif" font-size="10.00">+</text>
<text text-anchor="start" x="272.5" y="-534.5" font-family="Helvetica,sans-Serif" font-size="10.00">failureIodeConsistency</text>
<text text-anchor="start" x="259.5" y="-519.5" font-family="Helvetica,sans-Serif" font-size="10.00">+</text>
<text text-anchor="start" x="272.5" y="-519.5" font-family="Helvetica,sans-Serif" font-size="10.00">failureBroadcastEph</text>
<text text-anchor="start" x="259.5" y="-504.5" font-family="Helvetica,sans-Serif" font-size="10.00">+</text>
<text text-anchor="start" x="272.5" y="-504.5" font-family="Helvetica,sans-Serif" font-size="10.00">failureSSRFail</text>
<text text-anchor="start" x="259.5" y="-489.5" font-family="Helvetica,sans-Serif" font-size="10.00">+</text>
<text text-anchor="start" x="272.5" y="-489.5" font-family="Helvetica,sans-Serif" font-size="10.00">failureSsrPosEmpty</text>
<text text-anchor="start" x="259.5" y="-474.5" font-family="Helvetica,sans-Serif" font-size="10.00">+</text>
<text text-anchor="start" x="272.5" y="-474.5" font-family="Helvetica,sans-Serif" font-size="10.00">failureSsrClkEmpty</text>
<text text-anchor="start" x="259.5" y="-459.5" font-family="Helvetica,sans-Serif" font-size="10.00">+</text>
<text text-anchor="start" x="272.5" y="-459.5" font-family="Helvetica,sans-Serif" font-size="10.00">failureSsrPosTime</text>
<text text-anchor="start" x="259.5" y="-444.5" font-family="Helvetica,sans-Serif" font-size="10.00">+</text>
<text text-anchor="start" x="272.5" y="-444.5" font-family="Helvetica,sans-Serif" font-size="10.00">failureSsrClkTime</text>
<text text-anchor="start" x="259.5" y="-429.5" font-family="Helvetica,sans-Serif" font-size="10.00">+</text>
<text text-anchor="start" x="272.5" y="-429.5" font-family="Helvetica,sans-Serif" font-size="10.00">failureSsrPosMag</text>
<text text-anchor="start" x="259.5" y="-414.5" font-family="Helvetica,sans-Serif" font-size="10.00">+</text>
<text text-anchor="start" x="272.5" y="-414.5" font-family="Helvetica,sans-Serif" font-size="10.00">failureSsrClkMag</text>
<text text-anchor="start" x="259.5" y="-399.5" font-family="Helvetica,sans-Serif" font-size="10.00">+</text>
<text text-anchor="start" x="272.5" y="-399.5" font-family="Helvetica,sans-Serif" font-size="10.00">failureSsrPosUdi</text>
<text text-anchor="start" x="259.5" y="-384.5" font-family="Helvetica,sans-Serif" font-size="10.00">+</text>
<text text-anchor="start" x="272.5" y="-384.5" font-family="Helvetica,sans-Serif" font-size="10.00">failureSsrClkUdi</text>
<text text-anchor="start" x="259.5" y="-369.5" font-family="Helvetica,sans-Serif" font-size="10.00">+</text>
<text text-anchor="start" x="272.5" y="-369.5" font-family="Helvetica,sans-Serif" font-size="10.00">failureGeodist</text>
<text text-anchor="start" x="259.5" y="-354.5" font-family="Helvetica,sans-Serif" font-size="10.00">+</text>
<text text-anchor="start" x="272.5" y="-354.5" font-family="Helvetica,sans-Serif" font-size="10.00">failureRSat</text>
<text text-anchor="start" x="259.5" y="-339.5" font-family="Helvetica,sans-Serif" font-size="10.00">+</text>
<text text-anchor="start" x="272.5" y="-339.5" font-family="Helvetica,sans-Serif" font-size="10.00">failureElevation</text>
<text text-anchor="start" x="259.5" y="-324.5" font-family="Helvetica,sans-Serif" font-size="10.00">+</text>
<text text-anchor="start" x="272.5" y="-324.5" font-family="Helvetica,sans-Serif" font-size="10.00">failurePrange</text>
<text text-anchor="start" x="259.5" y="-309.5" font-family="Helvetica,sans-Serif" font-size="10.00">+</text>
<text text-anchor="start" x="272.5" y="-309.5" font-family="Helvetica,sans-Serif" font-size="10.00">failureIonocorr</text>
<text text-anchor="start" x="259.5" y="-294.5" font-family="Helvetica,sans-Serif" font-size="10.00">+</text>
<text text-anchor="start" x="272.5" y="-294.5" font-family="Helvetica,sans-Serif" font-size="10.00">@29</text>
<text text-anchor="start" x="259.5" y="-279.5" font-family="Helvetica,sans-Serif" font-size="10.00">+</text>
<text text-anchor="start" x="272.5" y="-279.5" font-family="Helvetica,sans-Serif" font-size="10.00">SatPos()</text>
<polygon fill="#666666" stroke="#666666" points="255.5,-964.5 255.5,-964.5 388.5,-964.5 388.5,-964.5 255.5,-964.5"/>
<polygon fill="#666666" stroke="#666666" points="255.5,-289.5 255.5,-289.5 270.5,-289.5 270.5,-289.5 255.5,-289.5"/>
<polygon fill="#666666" stroke="#666666" points="270.5,-289.5 270.5,-289.5 388.5,-289.5 388.5,-289.5 270.5,-289.5"/>
<polygon fill="none" stroke="#666666" points="255,-273 255,-982 388,-982 388,-273 255,-273"/>
</a>
</g>
</g>
<!-- Node5&#45;&gt;Node1 -->
<g id="edge4_Node000001_Node000005" class="edge">
<title>Node5&#45;&gt;Node1</title>
<g id="a_edge4_Node000001_Node000005"><a xlink:title=" ">
<path fill="none" stroke="#63b8ff" d="M244.27,-293.46C242.03,-285.21 239.77,-277.05 237.5,-269 234.23,-257.4 230.63,-245.37 226.9,-233.39"/>
<polygon fill="none" stroke="#63b8ff" points="240.9,-294.43 246.89,-303.17 247.66,-292.6 240.9,-294.43"/>
</a>
</g>
</g>
</g>
</svg>
