<?xml version="1.0" encoding="UTF-8" standalone="no"?>
<!DOCTYPE svg PUBLIC "-//W3C//DTD SVG 1.1//EN"
 "http://www.w3.org/Graphics/SVG/1.1/DTD/svg11.dtd">
<!-- Generated by graphviz version 2.43.0 (0)
 -->
<!-- Title: SphericalComMap Pages: 1 -->
<svg width="182pt" height="180pt"
 viewBox="0.00 0.00 182.00 180.00" xmlns="http://www.w3.org/2000/svg" xmlns:xlink="http://www.w3.org/1999/xlink">
<g id="graph0" class="graph" transform="scale(1 1) rotate(0) translate(4 176)">
<title>SphericalComMap</title>
<!-- Node1 -->
<g id="Node000001" class="node">
<title>Node1</title>
<g id="a_Node000001"><a xlink:href="structSphericalComMap.html" target="_top" xlink:title=" ">
<path fill="white" stroke="#666666" stroke-width="2" d="M132.5,-57C132.5,-57 41.5,-57 41.5,-57 35.5,-57 29.5,-51 29.5,-45 29.5,-45 29.5,-12 29.5,-12 29.5,-6 35.5,0 41.5,0 41.5,0 132.5,0 132.5,0 138.5,0 144.5,-6 144.5,-12 144.5,-12 144.5,-45 144.5,-45 144.5,-51 138.5,-57 132.5,-57"/>
<text text-anchor="start" x="43" y="-40.5" font-family="Helvetica,sans-Serif" font-size="10.00">SphericalComMap</text>
<text text-anchor="start" x="85.5" y="-25.5" font-family="Helvetica,sans-Serif" font-size="10.00"> </text>
<text text-anchor="start" x="85.5" y="-10.5" font-family="Helvetica,sans-Serif" font-size="10.00"> </text>
<polygon fill="#666666" stroke="#666666" points="38,-35.5 38,-35.5 137,-35.5 137,-35.5 38,-35.5"/>
<polygon fill="#666666" stroke="#666666" points="38,-20.5 38,-20.5 137,-20.5 137,-20.5 38,-20.5"/>
<polygon fill="none" stroke="#666666" points="37.5,-4 37.5,-53 136.5,-53 136.5,-4 37.5,-4"/>
</a>
</g>
</g>
<!-- Node2 -->
<g id="Node000002" class="node">
<title>Node2</title>
<g id="a_Node000002"><a xlink:title=" ">
<path fill="white" stroke="#666666" d="M162,-172C162,-172 12,-172 12,-172 6,-172 0,-166 0,-160 0,-160 0,-105 0,-105 0,-99 6,-93 12,-93 12,-93 162,-93 162,-93 168,-93 174,-99 174,-105 174,-105 174,-160 174,-160 174,-166 168,-172 162,-172"/>
<text text-anchor="start" x="13" y="-155.5" font-family="Helvetica,sans-Serif" font-size="10.00">map&lt; string, map&lt; string,</text>
<text text-anchor="start" x="13" y="-144.5" font-family="Helvetica,sans-Serif" font-size="10.00"> map&lt; GTime, SphericalCom,</text>
<text text-anchor="start" x="13" y="-133.5" font-family="Helvetica,sans-Serif" font-size="10.00"> std::greater&lt; GTime &gt; &gt; &gt; &gt;</text>
<text text-anchor="start" x="85" y="-118.5" font-family="Helvetica,sans-Serif" font-size="10.00"> </text>
<text text-anchor="start" x="85" y="-103.5" font-family="Helvetica,sans-Serif" font-size="10.00"> </text>
<polygon fill="#666666" stroke="#666666" points="8,-128.5 8,-128.5 166,-128.5 166,-128.5 8,-128.5"/>
<polygon fill="#666666" stroke="#666666" points="8,-113.5 8,-113.5 166,-113.5 166,-113.5 8,-113.5"/>
<polygon fill="none" stroke="#666666" points="8,-97 8,-168 166,-168 166,-97 8,-97"/>
</a>
</g>
</g>
<!-- Node2&#45;&gt;Node1 -->
<g id="edge1_Node000001_Node000002" class="edge">
<title>Node2&#45;&gt;Node1</title>
<g id="a_edge1_Node000001_Node000002"><a xlink:title=" ">
<path fill="none" stroke="#63b8ff" d="M87,-82.78C87,-74.03 87,-65.2 87,-57.31"/>
<polygon fill="none" stroke="#63b8ff" points="83.5,-82.94 87,-92.94 90.5,-82.94 83.5,-82.94"/>
</a>
</g>
</g>
</g>
</svg>
