<?xml version="1.0" encoding="UTF-8" standalone="no"?>
<!DOCTYPE svg PUBLIC "-//W3C//DTD SVG 1.1//EN"
 "http://www.w3.org/Graphics/SVG/1.1/DTD/svg11.dtd">
<!-- Generated by graphviz version 2.43.0 (0)
 -->
<!-- Title: ACSConfig::parse Pages: 1 -->
<svg width="286pt" height="46pt"
 viewBox="0.00 0.00 286.00 46.00" xmlns="http://www.w3.org/2000/svg" xmlns:xlink="http://www.w3.org/1999/xlink">
<g id="graph0" class="graph" transform="scale(1 1) rotate(0) translate(4 42)">
<title>ACSConfig::parse</title>
<!-- Node1 -->
<g id="Node000001" class="node">
<title>Node1</title>
<g id="a_Node000001"><a xlink:href="structACSConfig.html#acbe400e2cc2760cbebd28dda6413c4ad" target="_top" xlink:title="Parse options to set acsConfig values.">
<path fill="#fff0f0" stroke="red" stroke-width="2" d="M271.67,-19C271.67,-19 184.33,-19 184.33,-19 181.17,-19 178,-15.83 178,-12.67 178,-12.67 178,-6.33 178,-6.33 178,-3.17 181.17,0 184.33,0 184.33,0 271.67,0 271.67,0 274.83,0 278,-3.17 278,-6.33 278,-6.33 278,-12.67 278,-12.67 278,-15.83 274.83,-19 271.67,-19"/>
<text text-anchor="middle" x="228" y="-7" font-family="Helvetica,sans-Serif" font-size="10.00">ACSConfig::parse</text>
</a>
</g>
</g>
<!-- Node2 -->
<g id="Node000002" class="node">
<title>Node2</title>
<g id="a_Node000002"><a xlink:href="acsConfig_8cpp.html#a428af53af7dd917738fb5d204948f74f" target="_top" xlink:title="Prepare the configuration of the program.">
<path fill="#fff0f0" stroke="red" d="M135.67,-38C135.67,-38 86.33,-38 86.33,-38 83.17,-38 80,-34.83 80,-31.67 80,-31.67 80,-25.33 80,-25.33 80,-22.17 83.17,-19 86.33,-19 86.33,-19 135.67,-19 135.67,-19 138.83,-19 142,-22.17 142,-25.33 142,-25.33 142,-31.67 142,-31.67 142,-34.83 138.83,-38 135.67,-38"/>
<text text-anchor="middle" x="111" y="-26" font-family="Helvetica,sans-Serif" font-size="10.00">configure</text>
</a>
</g>
</g>
<!-- Node1&#45;&gt;Node2 -->
<g id="edge1_Node000001_Node000002" class="edge">
<title>Node1&#45;&gt;Node2</title>
<g id="a_edge1_Node000001_Node000002"><a xlink:title=" ">
<path fill="none" stroke="#63b8ff" d="M167.91,-19.26C159.05,-20.73 150.23,-22.18 142.31,-23.49"/>
<polygon fill="#63b8ff" stroke="#63b8ff" points="168.6,-22.7 177.9,-17.61 167.46,-15.79 168.6,-22.7"/>
</a>
</g>
</g>
<!-- Node3 -->
<g id="Node000003" class="node">
<title>Node3</title>
<g id="a_Node000003"><a xlink:href="main_8cpp.html#a2c1eabb2ea9b242d8d9fd2c1795849e9" target="_top" xlink:title=" ">
<path fill="#fff0f0" stroke="red" d="M37.67,-19C37.67,-19 6.33,-19 6.33,-19 3.17,-19 0,-15.83 0,-12.67 0,-12.67 0,-6.33 0,-6.33 0,-3.17 3.17,0 6.33,0 6.33,0 37.67,0 37.67,0 40.83,0 44,-3.17 44,-6.33 44,-6.33 44,-12.67 44,-12.67 44,-15.83 40.83,-19 37.67,-19"/>
<text text-anchor="middle" x="22" y="-7" font-family="Helvetica,sans-Serif" font-size="10.00">ginan</text>
</a>
</g>
</g>
<!-- Node1&#45;&gt;Node3 -->
<g id="edge3_Node000001_Node000003" class="edge">
<title>Node1&#45;&gt;Node3</title>
<g id="a_edge3_Node000001_Node000003"><a xlink:title=" ">
<path fill="none" stroke="#63b8ff" d="M167.85,-9.5C126.26,-9.5 73.06,-9.5 44.1,-9.5"/>
<polygon fill="#63b8ff" stroke="#63b8ff" points="167.88,-13 177.88,-9.5 167.88,-6 167.88,-13"/>
</a>
</g>
</g>
<!-- Node2&#45;&gt;Node3 -->
<g id="edge2_Node000002_Node000003" class="edge">
<title>Node2&#45;&gt;Node3</title>
<g id="a_edge2_Node000002_Node000003"><a xlink:title=" ">
<path fill="none" stroke="#63b8ff" d="M69.77,-19.71C60.96,-17.79 51.96,-15.82 44.24,-14.14"/>
<polygon fill="#63b8ff" stroke="#63b8ff" points="69.06,-23.14 79.57,-21.85 70.55,-16.3 69.06,-23.14"/>
</a>
</g>
</g>
</g>
</svg>
