<?xml version="1.0" encoding="UTF-8" standalone="no"?>
<!DOCTYPE svg PUBLIC "-//W3C//DTD SVG 1.1//EN"
 "http://www.w3.org/Graphics/SVG/1.1/DTD/svg11.dtd">
<!-- Generated by graphviz version 2.43.0 (0)
 -->
<!-- Title: DS2DCParser Pages: 1 -->
<svg width="106pt" height="203pt"
 viewBox="0.00 0.00 106.00 203.00" xmlns="http://www.w3.org/2000/svg" xmlns:xlink="http://www.w3.org/1999/xlink">
<g id="graph0" class="graph" transform="scale(1 1) rotate(0) translate(4 199)">
<title>DS2DCParser</title>
<!-- Node1 -->
<g id="Node000001" class="node">
<title>Node1</title>
<g id="a_Node000001"><a xlink:href="structDS2DCParser.html" target="_top" xlink:title=" ">
<path fill="white" stroke="#666666" stroke-width="2" d="M86,-72C86,-72 12,-72 12,-72 6,-72 0,-66 0,-60 0,-60 0,-12 0,-12 0,-6 6,0 12,0 12,0 86,0 86,0 92,0 98,-6 98,-12 98,-12 98,-60 98,-60 98,-66 92,-72 86,-72"/>
<text text-anchor="start" x="17" y="-56" font-family="Helvetica,sans-Serif" font-size="10.00">DS2DCParser</text>
<text text-anchor="start" x="47" y="-41" font-family="Helvetica,sans-Serif" font-size="10.00"> </text>
<text text-anchor="start" x="12" y="-26" font-family="Helvetica,sans-Serif" font-size="10.00">+</text>
<text text-anchor="start" x="25" y="-26" font-family="Helvetica,sans-Serif" font-size="10.00">parse()</text>
<text text-anchor="start" x="12" y="-11" font-family="Helvetica,sans-Serif" font-size="10.00">+</text>
<text text-anchor="start" x="25" y="-11" font-family="Helvetica,sans-Serif" font-size="10.00">parserType()</text>
<polygon fill="#666666" stroke="#666666" points="8,-51 8,-51 90,-51 90,-51 8,-51"/>
<polygon fill="#666666" stroke="#666666" points="8,-36 8,-36 90,-36 90,-36 8,-36"/>
<polygon fill="none" stroke="#666666" points="8,-4 8,-68 90,-68 90,-4 8,-4"/>
</a>
</g>
</g>
<!-- Node2 -->
<g id="Node000002" class="node">
<title>Node2</title>
<g id="a_Node000002"><a xlink:href="structParser.html" target="_top" xlink:title=" ">
<path fill="white" stroke="#666666" d="M86,-195C86,-195 12,-195 12,-195 6,-195 0,-189 0,-183 0,-183 0,-120 0,-120 0,-114 6,-108 12,-108 12,-108 86,-108 86,-108 92,-108 98,-114 98,-120 98,-120 98,-183 98,-183 98,-189 92,-195 86,-195"/>
<text text-anchor="start" x="33.5" y="-178.5" font-family="Helvetica,sans-Serif" font-size="10.00">Parser</text>
<text text-anchor="start" x="47" y="-163.5" font-family="Helvetica,sans-Serif" font-size="10.00"> </text>
<text text-anchor="start" x="12" y="-148.5" font-family="Helvetica,sans-Serif" font-size="10.00">+</text>
<text text-anchor="start" x="25" y="-148.5" font-family="Helvetica,sans-Serif" font-size="10.00">parse()</text>
<text text-anchor="start" x="12" y="-133.5" font-family="Helvetica,sans-Serif" font-size="10.00">+</text>
<text text-anchor="start" x="25" y="-133.5" font-family="Helvetica,sans-Serif" font-size="10.00">parserType()</text>
<text text-anchor="start" x="12" y="-118.5" font-family="Helvetica,sans-Serif" font-size="10.00">+</text>
<text text-anchor="start" x="25" y="-118.5" font-family="Helvetica,sans-Serif" font-size="10.00">~Parser()</text>
<polygon fill="#666666" stroke="#666666" points="8,-173.5 8,-173.5 90,-173.5 90,-173.5 8,-173.5"/>
<polygon fill="#666666" stroke="#666666" points="8,-158.5 8,-158.5 90,-158.5 90,-158.5 8,-158.5"/>
<polygon fill="none" stroke="#666666" points="8,-112 8,-191 90,-191 90,-112 8,-112"/>
</a>
</g>
</g>
<!-- Node2&#45;&gt;Node1 -->
<g id="edge1_Node000001_Node000002" class="edge">
<title>Node2&#45;&gt;Node1</title>
<g id="a_edge1_Node000001_Node000002"><a xlink:title=" ">
<path fill="none" stroke="#63b8ff" d="M49,-97.78C49,-89.05 49,-80.2 49,-72.05"/>
<polygon fill="none" stroke="#63b8ff" points="45.5,-97.91 49,-107.91 52.5,-97.91 45.5,-97.91"/>
</a>
</g>
</g>
</g>
</svg>
