<?xml version="1.0" encoding="UTF-8" standalone="no"?>
<!DOCTYPE svg PUBLIC "-//W3C//DTD SVG 1.1//EN"
 "http://www.w3.org/Graphics/SVG/1.1/DTD/svg11.dtd">
<!-- Generated by graphviz version 2.43.0 (0)
 -->
<!-- Title: SinexSatMass Pages: 1 -->
<svg width="202pt" height="394pt"
 viewBox="0.00 0.00 202.00 394.00" xmlns="http://www.w3.org/2000/svg" xmlns:xlink="http://www.w3.org/1999/xlink">
<g id="graph0" class="graph" transform="scale(1 1) rotate(0) translate(4 390)">
<title>SinexSatMass</title>
<!-- Node1 -->
<g id="Node000001" class="node">
<title>Node1</title>
<g id="a_Node000001"><a xlink:href="structSinexSatMass.html" target="_top" xlink:title=" ">
<path fill="white" stroke="#666666" stroke-width="2" d="M108.5,-57C108.5,-57 37.5,-57 37.5,-57 31.5,-57 25.5,-51 25.5,-45 25.5,-45 25.5,-12 25.5,-12 25.5,-6 31.5,0 37.5,0 37.5,0 108.5,0 108.5,0 114.5,0 120.5,-6 120.5,-12 120.5,-12 120.5,-45 120.5,-45 120.5,-51 114.5,-57 108.5,-57"/>
<text text-anchor="start" x="39" y="-40.5" font-family="Helvetica,sans-Serif" font-size="10.00">SinexSatMass</text>
<text text-anchor="start" x="45.5" y="-25.5" font-family="Helvetica,sans-Serif" font-size="10.00">+</text>
<text text-anchor="start" x="66" y="-25.5" font-family="Helvetica,sans-Serif" font-size="10.00">mass</text>
<text text-anchor="start" x="71.5" y="-10.5" font-family="Helvetica,sans-Serif" font-size="10.00"> </text>
<polygon fill="#666666" stroke="#666666" points="34,-35.5 34,-35.5 113,-35.5 113,-35.5 34,-35.5"/>
<polygon fill="#666666" stroke="#666666" points="34,-20.5 34,-20.5 64,-20.5 64,-20.5 34,-20.5"/>
<polygon fill="#666666" stroke="#666666" points="64,-20.5 64,-20.5 113,-20.5 113,-20.5 64,-20.5"/>
<polygon fill="none" stroke="#666666" points="33.5,-4 33.5,-53 112.5,-53 112.5,-4 33.5,-4"/>
</a>
</g>
</g>
<!-- Node2 -->
<g id="Node000002" class="node">
<title>Node2</title>
<g id="a_Node000002"><a xlink:title=" ">
<path fill="white" stroke="#666666" d="M42,-232C42,-232 12,-232 12,-232 6,-232 0,-226 0,-220 0,-220 0,-187 0,-187 0,-181 6,-175 12,-175 12,-175 42,-175 42,-175 48,-175 54,-181 54,-187 54,-187 54,-220 54,-220 54,-226 48,-232 42,-232"/>
<text text-anchor="start" x="13" y="-215.5" font-family="Helvetica,sans-Serif" font-size="10.00">string</text>
<text text-anchor="start" x="25" y="-200.5" font-family="Helvetica,sans-Serif" font-size="10.00"> </text>
<text text-anchor="start" x="25" y="-185.5" font-family="Helvetica,sans-Serif" font-size="10.00"> </text>
<polygon fill="#666666" stroke="#666666" points="8,-210.5 8,-210.5 46,-210.5 46,-210.5 8,-210.5"/>
<polygon fill="#666666" stroke="#666666" points="8,-195.5 8,-195.5 46,-195.5 46,-195.5 8,-195.5"/>
<polygon fill="none" stroke="#666666" points="8,-179 8,-228 46,-228 46,-179 8,-179"/>
</a>
</g>
</g>
<!-- Node2&#45;&gt;Node1 -->
<g id="edge1_Node000001_Node000002" class="edge">
<title>Node2&#45;&gt;Node1</title>
<g id="a_edge1_Node000001_Node000002"><a xlink:title=" ">
<path fill="none" stroke="#63b8ff" d="M25.74,-174.94C25.46,-148.46 27.51,-107.74 40,-75 40.96,-72.48 42.1,-69.98 43.36,-67.51"/>
<polygon fill="none" stroke="#63b8ff" points="43.45,-67.36 43.07,-60.16 49.58,-57.04 49.95,-64.25 43.45,-67.36"/>
</a>
</g>
<text text-anchor="middle" x="69" y="-89" font-family="Helvetica,sans-Serif" font-size="10.00" fill="grey"> +comment</text>
<text text-anchor="middle" x="69" y="-78" font-family="Helvetica,sans-Serif" font-size="10.00" fill="grey">+svn</text>
</g>
<!-- Node3 -->
<g id="Node000003" class="node">
<title>Node3</title>
<g id="a_Node000003"><a xlink:href="structUYds.html" target="_top" xlink:title=" ">
<path fill="white" stroke="#666666" d="M182,-292C182,-292 84,-292 84,-292 78,-292 72,-286 72,-280 72,-280 72,-127 72,-127 72,-121 78,-115 84,-115 84,-115 182,-115 182,-115 188,-115 194,-121 194,-127 194,-127 194,-280 194,-280 194,-286 188,-292 182,-292"/>
<text text-anchor="start" x="120.5" y="-275.5" font-family="Helvetica,sans-Serif" font-size="10.00">UYds</text>
<text text-anchor="start" x="84" y="-260.5" font-family="Helvetica,sans-Serif" font-size="10.00">+</text>
<text text-anchor="start" x="97" y="-260.5" font-family="Helvetica,sans-Serif" font-size="10.00">year</text>
<text text-anchor="start" x="84" y="-245.5" font-family="Helvetica,sans-Serif" font-size="10.00">+</text>
<text text-anchor="start" x="97" y="-245.5" font-family="Helvetica,sans-Serif" font-size="10.00">doy</text>
<text text-anchor="start" x="84" y="-230.5" font-family="Helvetica,sans-Serif" font-size="10.00">+</text>
<text text-anchor="start" x="97" y="-230.5" font-family="Helvetica,sans-Serif" font-size="10.00">sod</text>
<text text-anchor="start" x="84" y="-215.5" font-family="Helvetica,sans-Serif" font-size="10.00">+</text>
<text text-anchor="start" x="97" y="-215.5" font-family="Helvetica,sans-Serif" font-size="10.00">UYds()</text>
<text text-anchor="start" x="84" y="-200.5" font-family="Helvetica,sans-Serif" font-size="10.00">+</text>
<text text-anchor="start" x="97" y="-200.5" font-family="Helvetica,sans-Serif" font-size="10.00">UYds()</text>
<text text-anchor="start" x="84" y="-185.5" font-family="Helvetica,sans-Serif" font-size="10.00">+</text>
<text text-anchor="start" x="97" y="-185.5" font-family="Helvetica,sans-Serif" font-size="10.00">operator=()</text>
<text text-anchor="start" x="84" y="-170.5" font-family="Helvetica,sans-Serif" font-size="10.00">+</text>
<text text-anchor="start" x="97" y="-170.5" font-family="Helvetica,sans-Serif" font-size="10.00">UYds()</text>
<text text-anchor="start" x="84" y="-155.5" font-family="Helvetica,sans-Serif" font-size="10.00">+</text>
<text text-anchor="start" x="97" y="-155.5" font-family="Helvetica,sans-Serif" font-size="10.00">operator+=()</text>
<text text-anchor="start" x="84" y="-140.5" font-family="Helvetica,sans-Serif" font-size="10.00">+</text>
<text text-anchor="start" x="97" y="-140.5" font-family="Helvetica,sans-Serif" font-size="10.00">operator=()</text>
<text text-anchor="start" x="84" y="-125.5" font-family="Helvetica,sans-Serif" font-size="10.00">+</text>
<text text-anchor="start" x="97" y="-125.5" font-family="Helvetica,sans-Serif" font-size="10.00">operator GTime()</text>
<polygon fill="#666666" stroke="#666666" points="80,-270.5 80,-270.5 186,-270.5 186,-270.5 80,-270.5"/>
<polygon fill="#666666" stroke="#666666" points="80,-225.5 80,-225.5 95,-225.5 95,-225.5 80,-225.5"/>
<polygon fill="#666666" stroke="#666666" points="95,-225.5 95,-225.5 186,-225.5 186,-225.5 95,-225.5"/>
<polygon fill="none" stroke="#666666" points="80,-119 80,-288 186,-288 186,-119 80,-119"/>
</a>
</g>
</g>
<!-- Node3&#45;&gt;Node1 -->
<g id="edge2_Node000001_Node000003" class="edge">
<title>Node3&#45;&gt;Node1</title>
<g id="a_edge2_Node000001_Node000003"><a xlink:title=" ">
<path fill="none" stroke="#63b8ff" d="M111.86,-114.83C107.77,-101.32 103.13,-87.66 98,-75 97.11,-72.81 96.14,-70.59 95.12,-68.36"/>
<polygon fill="none" stroke="#63b8ff" points="95.01,-68.14 88.75,-64.55 89.66,-57.39 95.91,-60.99 95.01,-68.14"/>
</a>
</g>
<text text-anchor="middle" x="122" y="-89" font-family="Helvetica,sans-Serif" font-size="10.00" fill="grey"> +start</text>
<text text-anchor="middle" x="122" y="-78" font-family="Helvetica,sans-Serif" font-size="10.00" fill="grey">+stop</text>
</g>
<!-- Node4 -->
<g id="Node000004" class="node">
<title>Node4</title>
<g id="a_Node000004"><a xlink:title=" ">
<path fill="white" stroke="#666666" d="M181,-386C181,-386 85,-386 85,-386 79,-386 73,-380 73,-374 73,-374 73,-341 73,-341 73,-335 79,-329 85,-329 85,-329 181,-329 181,-329 187,-329 193,-335 193,-341 193,-341 193,-374 193,-374 193,-380 187,-386 181,-386"/>
<text text-anchor="start" x="86" y="-369.5" font-family="Helvetica,sans-Serif" font-size="10.00">array&lt; double, 3 &gt;</text>
<text text-anchor="start" x="131" y="-354.5" font-family="Helvetica,sans-Serif" font-size="10.00"> </text>
<text text-anchor="start" x="131" y="-339.5" font-family="Helvetica,sans-Serif" font-size="10.00"> </text>
<polygon fill="#666666" stroke="#666666" points="81,-364.5 81,-364.5 185,-364.5 185,-364.5 81,-364.5"/>
<polygon fill="#666666" stroke="#666666" points="81,-349.5 81,-349.5 185,-349.5 185,-349.5 81,-349.5"/>
<polygon fill="none" stroke="#666666" points="81,-333 81,-382 185,-382 185,-333 81,-333"/>
</a>
</g>
</g>
<!-- Node4&#45;&gt;Node3 -->
<g id="edge3_Node000003_Node000004" class="edge">
<title>Node4&#45;&gt;Node3</title>
<g id="a_edge3_Node000003_Node000004"><a xlink:title=" ">
<path fill="none" stroke="#63b8ff" d="M133,-318.91C133,-310.58 133,-301.42 133,-292.01"/>
<polygon fill="none" stroke="#63b8ff" points="129.5,-318.97 133,-328.97 136.5,-318.97 129.5,-318.97"/>
</a>
</g>
</g>
</g>
</svg>
