<?xml version="1.0" encoding="UTF-8" standalone="no"?>
<!DOCTYPE svg PUBLIC "-//W3C//DTD SVG 1.1//EN"
 "http://www.w3.org/Graphics/SVG/1.1/DTD/svg11.dtd">
<!-- Generated by graphviz version 2.43.0 (0)
 -->
<!-- Title: PhaseCenterData Pages: 1 -->
<svg width="472pt" height="497pt"
 viewBox="0.00 0.00 471.50 497.00" xmlns="http://www.w3.org/2000/svg" xmlns:xlink="http://www.w3.org/1999/xlink">
<g id="graph0" class="graph" transform="scale(1 1) rotate(0) translate(4 493)">
<title>PhaseCenterData</title>
<!-- Node1 -->
<g id="Node000001" class="node">
<title>Node1</title>
<g id="a_Node000001"><a xlink:href="structPhaseCenterData.html" target="_top" xlink:title=" ">
<path fill="white" stroke="#666666" stroke-width="2" d="M322,-87C322,-87 235,-87 235,-87 229,-87 223,-81 223,-75 223,-75 223,-12 223,-12 223,-6 229,0 235,0 235,0 322,0 322,0 328,0 334,-6 334,-12 334,-12 334,-75 334,-75 334,-81 328,-87 322,-87"/>
<text text-anchor="start" x="236.5" y="-70.5" font-family="Helvetica,sans-Serif" font-size="10.00">PhaseCenterData</text>
<text text-anchor="start" x="251.5" y="-55.5" font-family="Helvetica,sans-Serif" font-size="10.00">+</text>
<text text-anchor="start" x="280.5" y="-55.5" font-family="Helvetica,sans-Serif" font-size="10.00">ft</text>
<text text-anchor="start" x="251.5" y="-40.5" font-family="Helvetica,sans-Serif" font-size="10.00">+</text>
<text text-anchor="start" x="280.5" y="-40.5" font-family="Helvetica,sans-Serif" font-size="10.00">tf</text>
<text text-anchor="start" x="251.5" y="-25.5" font-family="Helvetica,sans-Serif" font-size="10.00">+</text>
<text text-anchor="start" x="280.5" y="-25.5" font-family="Helvetica,sans-Serif" font-size="10.00">tu</text>
<text text-anchor="start" x="277" y="-10.5" font-family="Helvetica,sans-Serif" font-size="10.00"> </text>
<polygon fill="#666666" stroke="#666666" points="231.5,-65.5 231.5,-65.5 326.5,-65.5 326.5,-65.5 231.5,-65.5"/>
<polygon fill="#666666" stroke="#666666" points="231.5,-20.5 231.5,-20.5 278.5,-20.5 278.5,-20.5 231.5,-20.5"/>
<polygon fill="#666666" stroke="#666666" points="278.5,-20.5 278.5,-20.5 326.5,-20.5 326.5,-20.5 278.5,-20.5"/>
<polygon fill="none" stroke="#666666" points="231,-4 231,-83 326,-83 326,-4 231,-4"/>
</a>
</g>
</g>
<!-- Node2 -->
<g id="Node000002" class="node">
<title>Node2</title>
<g id="a_Node000002"><a xlink:href="structAzElMapData.html" target="_top" xlink:title=" ">
<path fill="white" stroke="#666666" d="M281,-310C281,-310 158,-310 158,-310 152,-310 146,-304 146,-298 146,-298 146,-190 146,-190 146,-184 152,-178 158,-178 158,-178 281,-178 281,-178 287,-178 293,-184 293,-190 293,-190 293,-298 293,-298 293,-304 287,-310 281,-310"/>
<text text-anchor="start" x="159.5" y="-294" font-family="Helvetica,sans-Serif" font-size="10.00">AzElMapData&lt; double &gt;</text>
<text text-anchor="start" x="175" y="-279" font-family="Helvetica,sans-Serif" font-size="10.00">+</text>
<text text-anchor="start" x="204.5" y="-279" font-family="Helvetica,sans-Serif" font-size="10.00">aziDelta</text>
<text text-anchor="start" x="175" y="-264" font-family="Helvetica,sans-Serif" font-size="10.00">+</text>
<text text-anchor="start" x="204.5" y="-264" font-family="Helvetica,sans-Serif" font-size="10.00">zenStart</text>
<text text-anchor="start" x="175" y="-249" font-family="Helvetica,sans-Serif" font-size="10.00">+</text>
<text text-anchor="start" x="204.5" y="-249" font-family="Helvetica,sans-Serif" font-size="10.00">zenStop</text>
<text text-anchor="start" x="175" y="-234" font-family="Helvetica,sans-Serif" font-size="10.00">+</text>
<text text-anchor="start" x="204.5" y="-234" font-family="Helvetica,sans-Serif" font-size="10.00">zenDelta</text>
<text text-anchor="start" x="175" y="-219" font-family="Helvetica,sans-Serif" font-size="10.00">+</text>
<text text-anchor="start" x="204.5" y="-219" font-family="Helvetica,sans-Serif" font-size="10.00">nz</text>
<text text-anchor="start" x="175" y="-204" font-family="Helvetica,sans-Serif" font-size="10.00">+</text>
<text text-anchor="start" x="204.5" y="-204" font-family="Helvetica,sans-Serif" font-size="10.00">naz</text>
<text text-anchor="start" x="218" y="-189" font-family="Helvetica,sans-Serif" font-size="10.00"> </text>
<polygon fill="#666666" stroke="#666666" points="154.5,-289 154.5,-289 285.5,-289 285.5,-289 154.5,-289"/>
<polygon fill="#666666" stroke="#666666" points="154.5,-199 154.5,-199 202.5,-199 202.5,-199 154.5,-199"/>
<polygon fill="#666666" stroke="#666666" points="202.5,-199 202.5,-199 285.5,-199 285.5,-199 202.5,-199"/>
<polygon fill="none" stroke="#666666" points="154,-182 154,-306 285,-306 285,-182 154,-182"/>
</a>
</g>
</g>
<!-- Node2&#45;&gt;Node1 -->
<g id="edge1_Node000001_Node000002" class="edge">
<title>Node2&#45;&gt;Node1</title>
<g id="a_edge1_Node000001_Node000002"><a xlink:title=" ">
<path fill="none" stroke="#63b8ff" d="M241.84,-167.83C249.94,-140.59 258.8,-110.78 265.78,-87.3"/>
<polygon fill="none" stroke="#63b8ff" points="238.39,-167.15 238.9,-177.73 245.1,-169.14 238.39,-167.15"/>
</a>
</g>
</g>
<!-- Node3 -->
<g id="Node000003" class="node">
<title>Node3</title>
<g id="a_Node000003"><a xlink:title=" ">
<path fill="#fff0f0" stroke="red" d="M101,-451.5C101,-451.5 12,-451.5 12,-451.5 6,-451.5 0,-445.5 0,-439.5 0,-439.5 0,-406.5 0,-406.5 0,-400.5 6,-394.5 12,-394.5 12,-394.5 101,-394.5 101,-394.5 107,-394.5 113,-400.5 113,-406.5 113,-406.5 113,-439.5 113,-439.5 113,-445.5 107,-451.5 101,-451.5"/>
<text text-anchor="start" x="13.5" y="-435" font-family="Helvetica,sans-Serif" font-size="10.00">vector&lt; double &gt;</text>
<text text-anchor="start" x="55" y="-420" font-family="Helvetica,sans-Serif" font-size="10.00"> </text>
<text text-anchor="start" x="55" y="-405" font-family="Helvetica,sans-Serif" font-size="10.00"> </text>
<polygon fill="red" stroke="red" points="8.5,-430 8.5,-430 105.5,-430 105.5,-430 8.5,-430"/>
<polygon fill="red" stroke="red" points="8.5,-415 8.5,-415 105.5,-415 105.5,-415 8.5,-415"/>
<polygon fill="none" stroke="red" points="8,-398.5 8,-447.5 105,-447.5 105,-398.5 8,-398.5"/>
</a>
</g>
</g>
<!-- Node3&#45;&gt;Node2 -->
<g id="edge2_Node000002_Node000003" class="edge">
<title>Node3&#45;&gt;Node2</title>
<g id="a_edge2_Node000002_Node000003"><a xlink:title=" ">
<path fill="none" stroke="#63b8ff" d="M81.97,-394.34C100.55,-374.16 126.67,-345.81 151.15,-319.22"/>
<polygon fill="none" stroke="#63b8ff" points="151.25,-319.11 152.38,-311.98 159.38,-310.28 158.26,-317.4 151.25,-319.11"/>
</a>
</g>
<text text-anchor="middle" x="164.5" y="-331" font-family="Helvetica,sans-Serif" font-size="10.00" fill="grey"> +elMap</text>
</g>
<!-- Node5 -->
<g id="Node000005" class="node">
<title>Node5</title>
<g id="a_Node000005"><a xlink:title=" ">
<path fill="#fff0f0" stroke="red" d="M295.5,-451.5C295.5,-451.5 143.5,-451.5 143.5,-451.5 137.5,-451.5 131.5,-445.5 131.5,-439.5 131.5,-439.5 131.5,-406.5 131.5,-406.5 131.5,-400.5 137.5,-394.5 143.5,-394.5 143.5,-394.5 295.5,-394.5 295.5,-394.5 301.5,-394.5 307.5,-400.5 307.5,-406.5 307.5,-406.5 307.5,-439.5 307.5,-439.5 307.5,-445.5 301.5,-451.5 295.5,-451.5"/>
<text text-anchor="start" x="144.5" y="-435" font-family="Helvetica,sans-Serif" font-size="10.00">map&lt; int, vector&lt; double &gt; &gt;</text>
<text text-anchor="start" x="217.5" y="-420" font-family="Helvetica,sans-Serif" font-size="10.00"> </text>
<text text-anchor="start" x="217.5" y="-405" font-family="Helvetica,sans-Serif" font-size="10.00"> </text>
<polygon fill="red" stroke="red" points="139.5,-430 139.5,-430 299.5,-430 299.5,-430 139.5,-430"/>
<polygon fill="red" stroke="red" points="139.5,-415 139.5,-415 299.5,-415 299.5,-415 139.5,-415"/>
<polygon fill="none" stroke="red" points="139.5,-398.5 139.5,-447.5 299.5,-447.5 299.5,-398.5 139.5,-398.5"/>
</a>
</g>
</g>
<!-- Node5&#45;&gt;Node2 -->
<g id="edge3_Node000002_Node000005" class="edge">
<title>Node5&#45;&gt;Node2</title>
<g id="a_edge3_Node000002_Node000005"><a xlink:title=" ">
<path fill="none" stroke="#63b8ff" d="M219.5,-394.34C219.5,-374.95 219.5,-348.01 219.5,-322.34"/>
<polygon fill="none" stroke="#63b8ff" points="219.5,-322.28 215.5,-316.28 219.5,-310.28 223.5,-316.28 219.5,-322.28"/>
</a>
</g>
<text text-anchor="middle" x="246" y="-331" font-family="Helvetica,sans-Serif" font-size="10.00" fill="grey"> +azElMap</text>
</g>
<!-- Node7 -->
<g id="Node000007" class="node">
<title>Node7</title>
<g id="a_Node000007"><a xlink:href="structAzElMapData.html" target="_top" xlink:title=" ">
<path fill="#fff0f0" stroke="red" d="M451.5,-489C451.5,-489 337.5,-489 337.5,-489 331.5,-489 325.5,-483 325.5,-477 325.5,-477 325.5,-369 325.5,-369 325.5,-363 331.5,-357 337.5,-357 337.5,-357 451.5,-357 451.5,-357 457.5,-357 463.5,-363 463.5,-369 463.5,-369 463.5,-477 463.5,-477 463.5,-483 457.5,-489 451.5,-489"/>
<text text-anchor="start" x="338.5" y="-473" font-family="Helvetica,sans-Serif" font-size="10.00">AzElMapData&lt; TYPE &gt;</text>
<text text-anchor="start" x="351.5" y="-458" font-family="Helvetica,sans-Serif" font-size="10.00">+</text>
<text text-anchor="start" x="378.5" y="-458" font-family="Helvetica,sans-Serif" font-size="10.00">aziDelta</text>
<text text-anchor="start" x="351.5" y="-443" font-family="Helvetica,sans-Serif" font-size="10.00">+</text>
<text text-anchor="start" x="378.5" y="-443" font-family="Helvetica,sans-Serif" font-size="10.00">zenStart</text>
<text text-anchor="start" x="351.5" y="-428" font-family="Helvetica,sans-Serif" font-size="10.00">+</text>
<text text-anchor="start" x="378.5" y="-428" font-family="Helvetica,sans-Serif" font-size="10.00">zenStop</text>
<text text-anchor="start" x="351.5" y="-413" font-family="Helvetica,sans-Serif" font-size="10.00">+</text>
<text text-anchor="start" x="378.5" y="-413" font-family="Helvetica,sans-Serif" font-size="10.00">zenDelta</text>
<text text-anchor="start" x="351.5" y="-398" font-family="Helvetica,sans-Serif" font-size="10.00">+</text>
<text text-anchor="start" x="378.5" y="-398" font-family="Helvetica,sans-Serif" font-size="10.00">nz</text>
<text text-anchor="start" x="351.5" y="-383" font-family="Helvetica,sans-Serif" font-size="10.00">+</text>
<text text-anchor="start" x="378.5" y="-383" font-family="Helvetica,sans-Serif" font-size="10.00">naz</text>
<text text-anchor="start" x="392.5" y="-368" font-family="Helvetica,sans-Serif" font-size="10.00"> </text>
<polygon fill="red" stroke="red" points="333.5,-468 333.5,-468 455.5,-468 455.5,-468 333.5,-468"/>
<polygon fill="red" stroke="red" points="333.5,-378 333.5,-378 376.5,-378 376.5,-378 333.5,-378"/>
<polygon fill="red" stroke="red" points="376.5,-378 376.5,-378 455.5,-378 455.5,-378 376.5,-378"/>
<polygon fill="none" stroke="red" points="333.5,-361 333.5,-485 455.5,-485 455.5,-361 333.5,-361"/>
</a>
</g>
</g>
<!-- Node7&#45;&gt;Node2 -->
<g id="edge4_Node000002_Node000007" class="edge">
<title>Node7&#45;&gt;Node2</title>
<g id="a_edge4_Node000002_Node000007"><a xlink:title=" ">
<path fill="none" stroke="orange" d="M322.94,-349.62C309.97,-336.5 296.52,-322.9 283.78,-310.02"/>
<polygon fill="orange" stroke="orange" points="320.56,-352.2 330.08,-356.85 325.54,-347.27 320.56,-352.2"/>
</a>
</g>
<text text-anchor="middle" x="341" y="-331" font-family="Helvetica,sans-Serif" font-size="10.00" fill="grey"> &lt; double &gt;</text>
</g>
<!-- Node10 -->
<g id="Node000010" class="node">
<title>Node10</title>
<g id="a_Node000010"><a xlink:title=" ">
<path fill="white" stroke="#666666" d="M353.5,-272.5C353.5,-272.5 323.5,-272.5 323.5,-272.5 317.5,-272.5 311.5,-266.5 311.5,-260.5 311.5,-260.5 311.5,-227.5 311.5,-227.5 311.5,-221.5 317.5,-215.5 323.5,-215.5 323.5,-215.5 353.5,-215.5 353.5,-215.5 359.5,-215.5 365.5,-221.5 365.5,-227.5 365.5,-227.5 365.5,-260.5 365.5,-260.5 365.5,-266.5 359.5,-272.5 353.5,-272.5"/>
<text text-anchor="start" x="324.5" y="-256" font-family="Helvetica,sans-Serif" font-size="10.00">string</text>
<text text-anchor="start" x="336.5" y="-241" font-family="Helvetica,sans-Serif" font-size="10.00"> </text>
<text text-anchor="start" x="336.5" y="-226" font-family="Helvetica,sans-Serif" font-size="10.00"> </text>
<polygon fill="#666666" stroke="#666666" points="319.5,-251 319.5,-251 357.5,-251 357.5,-251 319.5,-251"/>
<polygon fill="#666666" stroke="#666666" points="319.5,-236 319.5,-236 357.5,-236 357.5,-236 319.5,-236"/>
<polygon fill="none" stroke="#666666" points="319.5,-219.5 319.5,-268.5 357.5,-268.5 357.5,-219.5 319.5,-219.5"/>
</a>
</g>
</g>
<!-- Node10&#45;&gt;Node1 -->
<g id="edge5_Node000001_Node000010" class="edge">
<title>Node10&#45;&gt;Node1</title>
<g id="a_edge5_Node000001_Node000010"><a xlink:title=" ">
<path fill="none" stroke="#63b8ff" d="M330.16,-215.4C321.09,-185.41 306.38,-136.73 294.97,-98.98"/>
<polygon fill="none" stroke="#63b8ff" points="294.86,-98.63 289.3,-94.04 291.39,-87.14 296.95,-91.73 294.86,-98.63"/>
</a>
</g>
<text text-anchor="middle" x="344" y="-152" font-family="Helvetica,sans-Serif" font-size="10.00" fill="grey"> +calibModel</text>
<text text-anchor="middle" x="344" y="-141" font-family="Helvetica,sans-Serif" font-size="10.00" fill="grey">+code</text>
<text text-anchor="middle" x="344" y="-130" font-family="Helvetica,sans-Serif" font-size="10.00" fill="grey">+cospar</text>
<text text-anchor="middle" x="344" y="-119" font-family="Helvetica,sans-Serif" font-size="10.00" fill="grey">+svn</text>
<text text-anchor="middle" x="344" y="-108" font-family="Helvetica,sans-Serif" font-size="10.00" fill="grey">+type</text>
</g>
</g>
</svg>
