<?xml version="1.0" encoding="UTF-8" standalone="no"?>
<!DOCTYPE svg PUBLIC "-//W3C//DTD SVG 1.1//EN"
 "http://www.w3.org/Graphics/SVG/1.1/DTD/svg11.dtd">
<!-- Generated by graphviz version 2.43.0 (0)
 -->
<!-- Title: SsrBroadcast Pages: 1 -->
<svg width="378pt" height="314pt"
 viewBox="0.00 0.00 377.50 314.00" xmlns="http://www.w3.org/2000/svg" xmlns:xlink="http://www.w3.org/1999/xlink">
<g id="graph0" class="graph" transform="scale(1 1) rotate(0) translate(4 310)">
<title>SsrBroadcast</title>
<!-- Node1 -->
<g id="Node000001" class="node">
<title>Node1</title>
<g id="a_Node000001"><a xlink:href="structSsrBroadcast.html" target="_top" xlink:title=" ">
<path fill="white" stroke="#666666" stroke-width="2" d="M171.5,-57C171.5,-57 105.5,-57 105.5,-57 99.5,-57 93.5,-51 93.5,-45 93.5,-45 93.5,-12 93.5,-12 93.5,-6 99.5,0 105.5,0 105.5,0 171.5,0 171.5,0 177.5,0 183.5,-6 183.5,-12 183.5,-12 183.5,-45 183.5,-45 183.5,-51 177.5,-57 171.5,-57"/>
<text text-anchor="start" x="106.5" y="-40.5" font-family="Helvetica,sans-Serif" font-size="10.00">SsrBroadcast</text>
<text text-anchor="start" x="136.5" y="-25.5" font-family="Helvetica,sans-Serif" font-size="10.00"> </text>
<text text-anchor="start" x="136.5" y="-10.5" font-family="Helvetica,sans-Serif" font-size="10.00"> </text>
<polygon fill="#666666" stroke="#666666" points="101.5,-35.5 101.5,-35.5 175.5,-35.5 175.5,-35.5 101.5,-35.5"/>
<polygon fill="#666666" stroke="#666666" points="101.5,-20.5 101.5,-20.5 175.5,-20.5 175.5,-20.5 101.5,-20.5"/>
<polygon fill="none" stroke="#666666" points="101.5,-4 101.5,-53 175.5,-53 175.5,-4 101.5,-4"/>
</a>
</g>
</g>
<!-- Node2 -->
<g id="Node000002" class="node">
<title>Node2</title>
<g id="a_Node000002"><a xlink:href="structSSRMetaOpts.html" target="_top" xlink:title=" ">
<path fill="white" stroke="#666666" d="M81,-191C81,-191 12,-191 12,-191 6,-191 0,-185 0,-179 0,-179 0,-116 0,-116 0,-110 6,-104 12,-104 12,-104 81,-104 81,-104 87,-104 93,-110 93,-116 93,-116 93,-179 93,-179 93,-185 87,-191 81,-191"/>
<text text-anchor="start" x="13.5" y="-174.5" font-family="Helvetica,sans-Serif" font-size="10.00">SSRMetaOpts</text>
<text text-anchor="start" x="12.5" y="-159.5" font-family="Helvetica,sans-Serif" font-size="10.00">+</text>
<text text-anchor="start" x="25.5" y="-159.5" font-family="Helvetica,sans-Serif" font-size="10.00">itrf_datum</text>
<text text-anchor="start" x="12.5" y="-144.5" font-family="Helvetica,sans-Serif" font-size="10.00">+</text>
<text text-anchor="start" x="25.5" y="-144.5" font-family="Helvetica,sans-Serif" font-size="10.00">provider_id</text>
<text text-anchor="start" x="12.5" y="-129.5" font-family="Helvetica,sans-Serif" font-size="10.00">+</text>
<text text-anchor="start" x="25.5" y="-129.5" font-family="Helvetica,sans-Serif" font-size="10.00">solution_id</text>
<text text-anchor="start" x="45" y="-114.5" font-family="Helvetica,sans-Serif" font-size="10.00"> </text>
<polygon fill="#666666" stroke="#666666" points="8.5,-169.5 8.5,-169.5 85.5,-169.5 85.5,-169.5 8.5,-169.5"/>
<polygon fill="#666666" stroke="#666666" points="8.5,-124.5 8.5,-124.5 23.5,-124.5 23.5,-124.5 8.5,-124.5"/>
<polygon fill="#666666" stroke="#666666" points="23.5,-124.5 23.5,-124.5 85.5,-124.5 85.5,-124.5 23.5,-124.5"/>
<polygon fill="none" stroke="#666666" points="8,-108 8,-187 85,-187 85,-108 8,-108"/>
</a>
</g>
</g>
<!-- Node2&#45;&gt;Node1 -->
<g id="edge1_Node000001_Node000002" class="edge">
<title>Node2&#45;&gt;Node1</title>
<g id="a_edge1_Node000001_Node000002"><a xlink:title=" ">
<path fill="none" stroke="#63b8ff" d="M86.37,-95.79C96.77,-82.57 107.59,-68.81 116.66,-57.27"/>
<polygon fill="none" stroke="#63b8ff" points="83.4,-93.91 79.97,-103.93 88.91,-98.23 83.4,-93.91"/>
</a>
</g>
</g>
<!-- Node3 -->
<g id="Node000003" class="node">
<title>Node3</title>
<g id="a_Node000003"><a xlink:title=" ">
<path fill="white" stroke="#666666" d="M153.5,-176C153.5,-176 123.5,-176 123.5,-176 117.5,-176 111.5,-170 111.5,-164 111.5,-164 111.5,-131 111.5,-131 111.5,-125 117.5,-119 123.5,-119 123.5,-119 153.5,-119 153.5,-119 159.5,-119 165.5,-125 165.5,-131 165.5,-131 165.5,-164 165.5,-164 165.5,-170 159.5,-176 153.5,-176"/>
<text text-anchor="start" x="124.5" y="-159.5" font-family="Helvetica,sans-Serif" font-size="10.00">string</text>
<text text-anchor="start" x="136.5" y="-144.5" font-family="Helvetica,sans-Serif" font-size="10.00"> </text>
<text text-anchor="start" x="136.5" y="-129.5" font-family="Helvetica,sans-Serif" font-size="10.00"> </text>
<polygon fill="#666666" stroke="#666666" points="119.5,-154.5 119.5,-154.5 157.5,-154.5 157.5,-154.5 119.5,-154.5"/>
<polygon fill="#666666" stroke="#666666" points="119.5,-139.5 119.5,-139.5 157.5,-139.5 157.5,-139.5 119.5,-139.5"/>
<polygon fill="none" stroke="#666666" points="119.5,-123 119.5,-172 157.5,-172 157.5,-123 119.5,-123"/>
</a>
</g>
</g>
<!-- Node3&#45;&gt;Node1 -->
<g id="edge2_Node000001_Node000003" class="edge">
<title>Node3&#45;&gt;Node1</title>
<g id="a_edge2_Node000001_Node000003"><a xlink:title=" ">
<path fill="none" stroke="#63b8ff" d="M138.5,-118.77C138.5,-104.06 138.5,-85.71 138.5,-69.48"/>
<polygon fill="none" stroke="#63b8ff" points="138.5,-69.03 134.5,-63.03 138.5,-57.03 142.5,-63.03 138.5,-69.03"/>
</a>
</g>
<text text-anchor="middle" x="151" y="-78" font-family="Helvetica,sans-Serif" font-size="10.00" fill="grey"> +url</text>
</g>
<!-- Node4 -->
<g id="Node000004" class="node">
<title>Node4</title>
<g id="a_Node000004"><a xlink:title=" ">
<path fill="white" stroke="#666666" d="M325.5,-181.5C325.5,-181.5 195.5,-181.5 195.5,-181.5 189.5,-181.5 183.5,-175.5 183.5,-169.5 183.5,-169.5 183.5,-125.5 183.5,-125.5 183.5,-119.5 189.5,-113.5 195.5,-113.5 195.5,-113.5 325.5,-113.5 325.5,-113.5 331.5,-113.5 337.5,-119.5 337.5,-125.5 337.5,-125.5 337.5,-169.5 337.5,-169.5 337.5,-175.5 331.5,-181.5 325.5,-181.5"/>
<text text-anchor="start" x="196.5" y="-165.5" font-family="Helvetica,sans-Serif" font-size="10.00">map&lt; RtcmMessageType,</text>
<text text-anchor="start" x="207.5" y="-154.5" font-family="Helvetica,sans-Serif" font-size="10.00"> RtcmMsgTypeOpts &gt;</text>
<text text-anchor="start" x="258.5" y="-139.5" font-family="Helvetica,sans-Serif" font-size="10.00"> </text>
<text text-anchor="start" x="258.5" y="-124.5" font-family="Helvetica,sans-Serif" font-size="10.00"> </text>
<polygon fill="#666666" stroke="#666666" points="191.5,-149.5 191.5,-149.5 329.5,-149.5 329.5,-149.5 191.5,-149.5"/>
<polygon fill="#666666" stroke="#666666" points="191.5,-134.5 191.5,-134.5 329.5,-134.5 329.5,-134.5 191.5,-134.5"/>
<polygon fill="none" stroke="#666666" points="191.5,-117.5 191.5,-177.5 329.5,-177.5 329.5,-117.5 191.5,-117.5"/>
</a>
</g>
</g>
<!-- Node4&#45;&gt;Node1 -->
<g id="edge3_Node000001_Node000004" class="edge">
<title>Node4&#45;&gt;Node1</title>
<g id="a_edge3_Node000001_Node000004"><a xlink:title=" ">
<path fill="none" stroke="#63b8ff" d="M225.87,-113.29C210.44,-98.49 192.22,-81.02 176.43,-65.87"/>
<polygon fill="none" stroke="#63b8ff" points="176.11,-65.57 169.01,-64.3 167.45,-57.26 174.55,-58.53 176.11,-65.57"/>
</a>
</g>
<text text-anchor="middle" x="244.5" y="-78" font-family="Helvetica,sans-Serif" font-size="10.00" fill="grey"> +rtcmMsgOptsMap</text>
</g>
<!-- Node5 -->
<g id="Node000005" class="node">
<title>Node5</title>
<g id="a_Node000005"><a xlink:title=" ">
<path fill="white" stroke="#666666" d="M272.5,-306C272.5,-306 248.5,-306 248.5,-306 242.5,-306 236.5,-300 236.5,-294 236.5,-294 236.5,-261 236.5,-261 236.5,-255 242.5,-249 248.5,-249 248.5,-249 272.5,-249 272.5,-249 278.5,-249 284.5,-255 284.5,-261 284.5,-261 284.5,-294 284.5,-294 284.5,-300 278.5,-306 272.5,-306"/>
<text text-anchor="start" x="249.5" y="-289.5" font-family="Helvetica,sans-Serif" font-size="10.00">map</text>
<text text-anchor="start" x="258.5" y="-274.5" font-family="Helvetica,sans-Serif" font-size="10.00"> </text>
<text text-anchor="start" x="258.5" y="-259.5" font-family="Helvetica,sans-Serif" font-size="10.00"> </text>
<polygon fill="#666666" stroke="#666666" points="244.5,-284.5 244.5,-284.5 276.5,-284.5 276.5,-284.5 244.5,-284.5"/>
<polygon fill="#666666" stroke="#666666" points="244.5,-269.5 244.5,-269.5 276.5,-269.5 276.5,-269.5 244.5,-269.5"/>
<polygon fill="none" stroke="#666666" points="244.5,-253 244.5,-302 276.5,-302 276.5,-253 244.5,-253"/>
</a>
</g>
</g>
<!-- Node5&#45;&gt;Node4 -->
<g id="edge4_Node000004_Node000005" class="edge">
<title>Node5&#45;&gt;Node4</title>
<g id="a_edge4_Node000004_Node000005"><a xlink:title=" ">
<path fill="none" stroke="orange" d="M260.5,-238.53C260.5,-220.47 260.5,-199.07 260.5,-181.67"/>
<polygon fill="orange" stroke="orange" points="257,-238.73 260.5,-248.73 264,-238.73 257,-238.73"/>
</a>
</g>
<text text-anchor="start" x="260.5" y="-223" font-family="Helvetica,sans-Serif" font-size="10.00" fill="grey"> &lt; RtcmMessageType,</text>
<text text-anchor="middle" x="315" y="-212" font-family="Helvetica,sans-Serif" font-size="10.00" fill="grey"> RtcmMsgTypeOpts &gt;</text>
</g>
</g>
</svg>
