<?xml version="1.0" encoding="UTF-8" standalone="no"?>
<!DOCTYPE svg PUBLIC "-//W3C//DTD SVG 1.1//EN"
 "http://www.w3.org/Graphics/SVG/1.1/DTD/svg11.dtd">
<!-- Generated by graphviz version 2.43.0 (0)
 -->
<!-- Title: TidalWave Pages: 1 -->
<svg width="245pt" height="261pt"
 viewBox="0.00 0.00 245.00 261.00" xmlns="http://www.w3.org/2000/svg" xmlns:xlink="http://www.w3.org/1999/xlink">
<g id="graph0" class="graph" transform="scale(1 1) rotate(0) translate(4 257)">
<title>TidalWave</title>
<!-- Node1 -->
<g id="Node000001" class="node">
<title>Node1</title>
<g id="a_Node000001"><a xlink:href="structTidalWave.html" target="_top" xlink:title=" ">
<path fill="white" stroke="#666666" stroke-width="2" d="M153,-72C153,-72 81,-72 81,-72 75,-72 69,-66 69,-60 69,-60 69,-12 69,-12 69,-6 75,0 81,0 81,0 153,0 153,0 159,0 165,-6 165,-12 165,-12 165,-60 165,-60 165,-66 159,-72 153,-72"/>
<text text-anchor="start" x="91" y="-56" font-family="Helvetica,sans-Serif" font-size="10.00">TidalWave</text>
<text text-anchor="start" x="81" y="-41" font-family="Helvetica,sans-Serif" font-size="10.00">+</text>
<text text-anchor="start" x="94" y="-41" font-family="Helvetica,sans-Serif" font-size="10.00">doodson</text>
<text text-anchor="start" x="81" y="-26" font-family="Helvetica,sans-Serif" font-size="10.00">+</text>
<text text-anchor="start" x="94" y="-26" font-family="Helvetica,sans-Serif" font-size="10.00">TidalWave()</text>
<text text-anchor="start" x="81" y="-11" font-family="Helvetica,sans-Serif" font-size="10.00">+</text>
<text text-anchor="start" x="94" y="-11" font-family="Helvetica,sans-Serif" font-size="10.00">TidalWave()</text>
<polygon fill="#666666" stroke="#666666" points="77,-51 77,-51 157,-51 157,-51 77,-51"/>
<polygon fill="#666666" stroke="#666666" points="77,-36 77,-36 92,-36 92,-36 77,-36"/>
<polygon fill="#666666" stroke="#666666" points="92,-36 92,-36 157,-36 157,-36 92,-36"/>
<polygon fill="none" stroke="#666666" points="77,-4 77,-68 157,-68 157,-4 77,-4"/>
</a>
</g>
</g>
<!-- Node2 -->
<g id="Node000002" class="node">
<title>Node2</title>
<g id="a_Node000002"><a xlink:title=" ">
<path fill="white" stroke="#666666" d="M42,-253C42,-253 12,-253 12,-253 6,-253 0,-247 0,-241 0,-241 0,-208 0,-208 0,-202 6,-196 12,-196 12,-196 42,-196 42,-196 48,-196 54,-202 54,-208 54,-208 54,-241 54,-241 54,-247 48,-253 42,-253"/>
<text text-anchor="start" x="13" y="-236.5" font-family="Helvetica,sans-Serif" font-size="10.00">string</text>
<text text-anchor="start" x="25" y="-221.5" font-family="Helvetica,sans-Serif" font-size="10.00"> </text>
<text text-anchor="start" x="25" y="-206.5" font-family="Helvetica,sans-Serif" font-size="10.00"> </text>
<polygon fill="#666666" stroke="#666666" points="8,-231.5 8,-231.5 46,-231.5 46,-231.5 8,-231.5"/>
<polygon fill="#666666" stroke="#666666" points="8,-216.5 8,-216.5 46,-216.5 46,-216.5 8,-216.5"/>
<polygon fill="none" stroke="#666666" points="8,-200 8,-249 46,-249 46,-200 8,-200"/>
</a>
</g>
</g>
<!-- Node2&#45;&gt;Node1 -->
<g id="edge1_Node000001_Node000002" class="edge">
<title>Node2&#45;&gt;Node1</title>
<g id="a_edge1_Node000001_Node000002"><a xlink:title=" ">
<path fill="none" stroke="#63b8ff" d="M24.98,-195.91C24.18,-167.41 26.65,-122.62 46,-90 49.67,-83.81 54.37,-78.12 59.6,-72.94"/>
<polygon fill="none" stroke="#63b8ff" points="59.86,-72.71 61.67,-65.73 68.81,-64.72 67,-71.7 59.86,-72.71"/>
</a>
</g>
<text text-anchor="middle" x="79.5" y="-131.5" font-family="Helvetica,sans-Serif" font-size="10.00" fill="grey"> +waveName</text>
</g>
<!-- Node3 -->
<g id="Node000003" class="node">
<title>Node3</title>
<g id="a_Node000003"><a xlink:title=" ">
<path fill="white" stroke="#666666" d="M140.5,-253C140.5,-253 93.5,-253 93.5,-253 87.5,-253 81.5,-247 81.5,-241 81.5,-241 81.5,-208 81.5,-208 81.5,-202 87.5,-196 93.5,-196 93.5,-196 140.5,-196 140.5,-196 146.5,-196 152.5,-202 152.5,-208 152.5,-208 152.5,-241 152.5,-241 152.5,-247 146.5,-253 140.5,-253"/>
<text text-anchor="start" x="95" y="-236.5" font-family="Helvetica,sans-Serif" font-size="10.00">MatrixXd</text>
<text text-anchor="start" x="115.5" y="-221.5" font-family="Helvetica,sans-Serif" font-size="10.00"> </text>
<text text-anchor="start" x="115.5" y="-206.5" font-family="Helvetica,sans-Serif" font-size="10.00"> </text>
<polygon fill="#666666" stroke="#666666" points="90,-231.5 90,-231.5 145,-231.5 145,-231.5 90,-231.5"/>
<polygon fill="#666666" stroke="#666666" points="90,-216.5 90,-216.5 145,-216.5 145,-216.5 90,-216.5"/>
<polygon fill="none" stroke="#666666" points="89.5,-200 89.5,-249 144.5,-249 144.5,-200 89.5,-200"/>
</a>
</g>
</g>
<!-- Node3&#45;&gt;Node1 -->
<g id="edge2_Node000001_Node000003" class="edge">
<title>Node3&#45;&gt;Node1</title>
<g id="a_edge2_Node000001_Node000003"><a xlink:title=" ">
<path fill="none" stroke="#63b8ff" d="M117,-195.98C117,-166.74 117,-119.96 117,-84.7"/>
<polygon fill="none" stroke="#63b8ff" points="117,-84.28 113,-78.28 117,-72.28 121,-78.28 117,-84.28"/>
</a>
</g>
<text text-anchor="middle" x="137" y="-170" font-family="Helvetica,sans-Serif" font-size="10.00" fill="grey"> +C1</text>
<text text-anchor="middle" x="137" y="-159" font-family="Helvetica,sans-Serif" font-size="10.00" fill="grey">+C2</text>
<text text-anchor="middle" x="137" y="-148" font-family="Helvetica,sans-Serif" font-size="10.00" fill="grey">+CnmM</text>
<text text-anchor="middle" x="137" y="-137" font-family="Helvetica,sans-Serif" font-size="10.00" fill="grey">+CnmP</text>
<text text-anchor="middle" x="137" y="-126" font-family="Helvetica,sans-Serif" font-size="10.00" fill="grey">+S1</text>
<text text-anchor="middle" x="137" y="-115" font-family="Helvetica,sans-Serif" font-size="10.00" fill="grey">+S2</text>
<text text-anchor="middle" x="137" y="-104" font-family="Helvetica,sans-Serif" font-size="10.00" fill="grey">+SnmM</text>
<text text-anchor="middle" x="137" y="-93" font-family="Helvetica,sans-Serif" font-size="10.00" fill="grey">+SnmP</text>
</g>
<!-- Node4 -->
<g id="Node000004" class="node">
<title>Node4</title>
<g id="a_Node000004"><a xlink:title=" ">
<path fill="white" stroke="#666666" d="M225,-253C225,-253 183,-253 183,-253 177,-253 171,-247 171,-241 171,-241 171,-208 171,-208 171,-202 177,-196 183,-196 183,-196 225,-196 225,-196 231,-196 237,-202 237,-208 237,-208 237,-241 237,-241 237,-247 231,-253 225,-253"/>
<text text-anchor="start" x="184" y="-236.5" font-family="Helvetica,sans-Serif" font-size="10.00">ArrayXd</text>
<text text-anchor="start" x="202" y="-221.5" font-family="Helvetica,sans-Serif" font-size="10.00"> </text>
<text text-anchor="start" x="202" y="-206.5" font-family="Helvetica,sans-Serif" font-size="10.00"> </text>
<polygon fill="#666666" stroke="#666666" points="179,-231.5 179,-231.5 229,-231.5 229,-231.5 179,-231.5"/>
<polygon fill="#666666" stroke="#666666" points="179,-216.5 179,-216.5 229,-216.5 229,-216.5 179,-216.5"/>
<polygon fill="none" stroke="#666666" points="179,-200 179,-249 229,-249 229,-200 179,-200"/>
</a>
</g>
</g>
<!-- Node4&#45;&gt;Node1 -->
<g id="edge3_Node000001_Node000004" class="edge">
<title>Node4&#45;&gt;Node1</title>
<g id="a_edge3_Node000001_Node000004"><a xlink:title=" ">
<path fill="none" stroke="#63b8ff" d="M198.37,-195.93C191.94,-168.03 179.81,-124.25 161,-90 159.54,-87.34 157.94,-84.69 156.23,-82.07"/>
<polygon fill="none" stroke="#63b8ff" points="156.17,-81.97 149.44,-79.37 149.26,-72.16 155.98,-74.76 156.17,-81.97"/>
</a>
</g>
<text text-anchor="middle" x="211" y="-131.5" font-family="Helvetica,sans-Serif" font-size="10.00" fill="grey"> +coeff</text>
</g>
</g>
</svg>
