<?xml version="1.0" encoding="UTF-8" standalone="no"?>
<!DOCTYPE svg PUBLIC "-//W3C//DTD SVG 1.1//EN"
 "http://www.w3.org/Graphics/SVG/1.1/DTD/svg11.dtd">
<!-- Generated by graphviz version 2.43.0 (0)
 -->
<!-- Title: ION Pages: 1 -->
<svg width="297pt" height="1259pt"
 viewBox="0.00 0.00 297.00 1259.00" xmlns="http://www.w3.org/2000/svg" xmlns:xlink="http://www.w3.org/1999/xlink">
<g id="graph0" class="graph" transform="scale(1 1) rotate(0) translate(4 1255)">
<title>ION</title>
<!-- Node1 -->
<g id="Node000001" class="node">
<title>Node1</title>
<g id="a_Node000001"><a xlink:href="structION.html" target="_top" xlink:title="ionosphere message">
<path fill="white" stroke="#666666" stroke-width="2" d="M163.5,-417C163.5,-417 116.5,-417 116.5,-417 110.5,-417 104.5,-411 104.5,-405 104.5,-405 104.5,-12 104.5,-12 104.5,-6 110.5,0 116.5,0 116.5,0 163.5,0 163.5,0 169.5,0 175.5,-6 175.5,-12 175.5,-12 175.5,-405 175.5,-405 175.5,-411 169.5,-417 163.5,-417"/>
<text text-anchor="start" x="131" y="-400.5" font-family="Helvetica,sans-Serif" font-size="10.00">ION</text>
<text text-anchor="start" x="117" y="-385.5" font-family="Helvetica,sans-Serif" font-size="10.00">+</text>
<text text-anchor="start" x="130" y="-385.5" font-family="Helvetica,sans-Serif" font-size="10.00">type</text>
<text text-anchor="start" x="117" y="-370.5" font-family="Helvetica,sans-Serif" font-size="10.00">+</text>
<text text-anchor="start" x="130" y="-370.5" font-family="Helvetica,sans-Serif" font-size="10.00">code</text>
<text text-anchor="start" x="117" y="-355.5" font-family="Helvetica,sans-Serif" font-size="10.00">+</text>
<text text-anchor="start" x="130" y="-355.5" font-family="Helvetica,sans-Serif" font-size="10.00">flag</text>
<text text-anchor="start" x="117" y="-340.5" font-family="Helvetica,sans-Serif" font-size="10.00">+</text>
<text text-anchor="start" x="130" y="-340.5" font-family="Helvetica,sans-Serif" font-size="10.00">vals</text>
<text text-anchor="start" x="117" y="-325.5" font-family="Helvetica,sans-Serif" font-size="10.00">+</text>
<text text-anchor="start" x="130" y="-325.5" font-family="Helvetica,sans-Serif" font-size="10.00">a0</text>
<text text-anchor="start" x="117" y="-310.5" font-family="Helvetica,sans-Serif" font-size="10.00">+</text>
<text text-anchor="start" x="130" y="-310.5" font-family="Helvetica,sans-Serif" font-size="10.00">a1</text>
<text text-anchor="start" x="117" y="-295.5" font-family="Helvetica,sans-Serif" font-size="10.00">+</text>
<text text-anchor="start" x="130" y="-295.5" font-family="Helvetica,sans-Serif" font-size="10.00">a2</text>
<text text-anchor="start" x="117" y="-280.5" font-family="Helvetica,sans-Serif" font-size="10.00">+</text>
<text text-anchor="start" x="130" y="-280.5" font-family="Helvetica,sans-Serif" font-size="10.00">a3</text>
<text text-anchor="start" x="117" y="-265.5" font-family="Helvetica,sans-Serif" font-size="10.00">+</text>
<text text-anchor="start" x="130" y="-265.5" font-family="Helvetica,sans-Serif" font-size="10.00">b0</text>
<text text-anchor="start" x="117" y="-250.5" font-family="Helvetica,sans-Serif" font-size="10.00">+</text>
<text text-anchor="start" x="130" y="-250.5" font-family="Helvetica,sans-Serif" font-size="10.00">b1</text>
<text text-anchor="start" x="117" y="-235.5" font-family="Helvetica,sans-Serif" font-size="10.00">+</text>
<text text-anchor="start" x="130" y="-235.5" font-family="Helvetica,sans-Serif" font-size="10.00">b2</text>
<text text-anchor="start" x="117" y="-220.5" font-family="Helvetica,sans-Serif" font-size="10.00">+</text>
<text text-anchor="start" x="130" y="-220.5" font-family="Helvetica,sans-Serif" font-size="10.00">b3</text>
<text text-anchor="start" x="117" y="-205.5" font-family="Helvetica,sans-Serif" font-size="10.00">+</text>
<text text-anchor="start" x="130" y="-205.5" font-family="Helvetica,sans-Serif" font-size="10.00">ai0</text>
<text text-anchor="start" x="117" y="-190.5" font-family="Helvetica,sans-Serif" font-size="10.00">+</text>
<text text-anchor="start" x="130" y="-190.5" font-family="Helvetica,sans-Serif" font-size="10.00">ai1</text>
<text text-anchor="start" x="117" y="-175.5" font-family="Helvetica,sans-Serif" font-size="10.00">+</text>
<text text-anchor="start" x="130" y="-175.5" font-family="Helvetica,sans-Serif" font-size="10.00">ai2</text>
<text text-anchor="start" x="117" y="-160.5" font-family="Helvetica,sans-Serif" font-size="10.00">+</text>
<text text-anchor="start" x="130" y="-160.5" font-family="Helvetica,sans-Serif" font-size="10.00">alpha1</text>
<text text-anchor="start" x="117" y="-145.5" font-family="Helvetica,sans-Serif" font-size="10.00">+</text>
<text text-anchor="start" x="130" y="-145.5" font-family="Helvetica,sans-Serif" font-size="10.00">alpha2</text>
<text text-anchor="start" x="117" y="-130.5" font-family="Helvetica,sans-Serif" font-size="10.00">+</text>
<text text-anchor="start" x="130" y="-130.5" font-family="Helvetica,sans-Serif" font-size="10.00">alpha3</text>
<text text-anchor="start" x="117" y="-115.5" font-family="Helvetica,sans-Serif" font-size="10.00">+</text>
<text text-anchor="start" x="130" y="-115.5" font-family="Helvetica,sans-Serif" font-size="10.00">alpha4</text>
<text text-anchor="start" x="117" y="-100.5" font-family="Helvetica,sans-Serif" font-size="10.00">+</text>
<text text-anchor="start" x="130" y="-100.5" font-family="Helvetica,sans-Serif" font-size="10.00">alpha5</text>
<text text-anchor="start" x="117" y="-85.5" font-family="Helvetica,sans-Serif" font-size="10.00">+</text>
<text text-anchor="start" x="130" y="-85.5" font-family="Helvetica,sans-Serif" font-size="10.00">alpha6</text>
<text text-anchor="start" x="117" y="-70.5" font-family="Helvetica,sans-Serif" font-size="10.00">+</text>
<text text-anchor="start" x="130" y="-70.5" font-family="Helvetica,sans-Serif" font-size="10.00">alpha7</text>
<text text-anchor="start" x="117" y="-55.5" font-family="Helvetica,sans-Serif" font-size="10.00">+</text>
<text text-anchor="start" x="130" y="-55.5" font-family="Helvetica,sans-Serif" font-size="10.00">alpha8</text>
<text text-anchor="start" x="117" y="-40.5" font-family="Helvetica,sans-Serif" font-size="10.00">+</text>
<text text-anchor="start" x="130" y="-40.5" font-family="Helvetica,sans-Serif" font-size="10.00">alpha9</text>
<text text-anchor="start" x="117" y="-25.5" font-family="Helvetica,sans-Serif" font-size="10.00">+</text>
<text text-anchor="start" x="130" y="-25.5" font-family="Helvetica,sans-Serif" font-size="10.00">@13</text>
<text text-anchor="start" x="138.5" y="-10.5" font-family="Helvetica,sans-Serif" font-size="10.00"> </text>
<polygon fill="#666666" stroke="#666666" points="113,-395.5 113,-395.5 168,-395.5 168,-395.5 113,-395.5"/>
<polygon fill="#666666" stroke="#666666" points="113,-20.5 113,-20.5 128,-20.5 128,-20.5 113,-20.5"/>
<polygon fill="#666666" stroke="#666666" points="128,-20.5 128,-20.5 168,-20.5 168,-20.5 128,-20.5"/>
<polygon fill="none" stroke="#666666" points="112.5,-4 112.5,-413 167.5,-413 167.5,-4 112.5,-4"/>
</a>
</g>
</g>
<!-- Node2 -->
<g id="Node000002" class="node">
<title>Node2</title>
<g id="a_Node000002"><a xlink:href="structSatSys.html" target="_top" xlink:title="Object holding satellite id, and providing related functions.">
<path fill="white" stroke="#666666" d="M112.5,-941C112.5,-941 19.5,-941 19.5,-941 13.5,-941 7.5,-935 7.5,-929 7.5,-929 7.5,-671 7.5,-671 7.5,-665 13.5,-659 19.5,-659 19.5,-659 112.5,-659 112.5,-659 118.5,-659 124.5,-665 124.5,-671 124.5,-671 124.5,-929 124.5,-929 124.5,-935 118.5,-941 112.5,-941"/>
<text text-anchor="start" x="49.5" y="-925" font-family="Helvetica,sans-Serif" font-size="10.00">SatSys</text>
<text text-anchor="start" x="20" y="-910" font-family="Helvetica,sans-Serif" font-size="10.00">+</text>
<text text-anchor="start" x="33" y="-910" font-family="Helvetica,sans-Serif" font-size="10.00">sys</text>
<text text-anchor="start" x="20" y="-895" font-family="Helvetica,sans-Serif" font-size="10.00">+</text>
<text text-anchor="start" x="33" y="-895" font-family="Helvetica,sans-Serif" font-size="10.00">prn</text>
<text text-anchor="start" x="20" y="-880" font-family="Helvetica,sans-Serif" font-size="10.00">+</text>
<text text-anchor="start" x="33" y="-880" font-family="Helvetica,sans-Serif" font-size="10.00">SatSys()</text>
<text text-anchor="start" x="20" y="-865" font-family="Helvetica,sans-Serif" font-size="10.00">+</text>
<text text-anchor="start" x="33" y="-865" font-family="Helvetica,sans-Serif" font-size="10.00">sysChar()</text>
<text text-anchor="start" x="20" y="-850" font-family="Helvetica,sans-Serif" font-size="10.00">+</text>
<text text-anchor="start" x="33" y="-850" font-family="Helvetica,sans-Serif" font-size="10.00">getId()</text>
<text text-anchor="start" x="20" y="-835" font-family="Helvetica,sans-Serif" font-size="10.00">+</text>
<text text-anchor="start" x="33" y="-835" font-family="Helvetica,sans-Serif" font-size="10.00">operator int()</text>
<text text-anchor="start" x="20" y="-820" font-family="Helvetica,sans-Serif" font-size="10.00">+</text>
<text text-anchor="start" x="33" y="-820" font-family="Helvetica,sans-Serif" font-size="10.00">setBlockType()</text>
<text text-anchor="start" x="20" y="-805" font-family="Helvetica,sans-Serif" font-size="10.00">+</text>
<text text-anchor="start" x="33" y="-805" font-family="Helvetica,sans-Serif" font-size="10.00">setSvn()</text>
<text text-anchor="start" x="20" y="-790" font-family="Helvetica,sans-Serif" font-size="10.00">+</text>
<text text-anchor="start" x="33" y="-790" font-family="Helvetica,sans-Serif" font-size="10.00">blockType()</text>
<text text-anchor="start" x="20" y="-775" font-family="Helvetica,sans-Serif" font-size="10.00">+</text>
<text text-anchor="start" x="33" y="-775" font-family="Helvetica,sans-Serif" font-size="10.00">svn()</text>
<text text-anchor="start" x="20" y="-760" font-family="Helvetica,sans-Serif" font-size="10.00">+</text>
<text text-anchor="start" x="33" y="-760" font-family="Helvetica,sans-Serif" font-size="10.00">fromHash()</text>
<text text-anchor="start" x="20" y="-745" font-family="Helvetica,sans-Serif" font-size="10.00">+</text>
<text text-anchor="start" x="33" y="-745" font-family="Helvetica,sans-Serif" font-size="10.00">id()</text>
<text text-anchor="start" x="20" y="-730" font-family="Helvetica,sans-Serif" font-size="10.00">+</text>
<text text-anchor="start" x="33" y="-730" font-family="Helvetica,sans-Serif" font-size="10.00">operator string()</text>
<text text-anchor="start" x="20" y="-715" font-family="Helvetica,sans-Serif" font-size="10.00">+</text>
<text text-anchor="start" x="33" y="-715" font-family="Helvetica,sans-Serif" font-size="10.00">SatSys()</text>
<text text-anchor="start" x="20" y="-700" font-family="Helvetica,sans-Serif" font-size="10.00">+</text>
<text text-anchor="start" x="33" y="-700" font-family="Helvetica,sans-Serif" font-size="10.00">sysName()</text>
<text text-anchor="start" x="20" y="-685" font-family="Helvetica,sans-Serif" font-size="10.00">+</text>
<text text-anchor="start" x="33" y="-685" font-family="Helvetica,sans-Serif" font-size="10.00">serialize()</text>
<text text-anchor="start" x="20" y="-670" font-family="Helvetica,sans-Serif" font-size="10.00">+</text>
<text text-anchor="start" x="33" y="-670" font-family="Helvetica,sans-Serif" font-size="10.00">sysFromChar()</text>
<polygon fill="#666666" stroke="#666666" points="16,-920 16,-920 117,-920 117,-920 16,-920"/>
<polygon fill="#666666" stroke="#666666" points="16,-890 16,-890 31,-890 31,-890 16,-890"/>
<polygon fill="#666666" stroke="#666666" points="31,-890 31,-890 117,-890 117,-890 31,-890"/>
<polygon fill="none" stroke="#666666" points="15.5,-663 15.5,-937 116.5,-937 116.5,-663 15.5,-663"/>
</a>
</g>
</g>
<!-- Node2&#45;&gt;Node1 -->
<g id="edge1_Node000001_Node000002" class="edge">
<title>Node2&#45;&gt;Node1</title>
<g id="a_edge1_Node000001_Node000002"><a xlink:title=" ">
<path fill="none" stroke="#63b8ff" d="M83.58,-658.92C92.19,-590.4 102.74,-506.32 112.39,-429.49"/>
<polygon fill="none" stroke="#63b8ff" points="112.43,-429.13 109.21,-422.68 113.92,-417.22 117.15,-423.67 112.43,-429.13"/>
</a>
</g>
<text text-anchor="middle" x="125" y="-438" font-family="Helvetica,sans-Serif" font-size="10.00" fill="grey"> +Sat</text>
</g>
<!-- Node3 -->
<g id="Node000003" class="node">
<title>Node3</title>
<g id="a_Node000003"><a xlink:title=" ">
<path fill="#fff0f0" stroke="red" d="M120,-1251C120,-1251 12,-1251 12,-1251 6,-1251 0,-1245 0,-1239 0,-1239 0,-1195 0,-1195 0,-1189 6,-1183 12,-1183 12,-1183 120,-1183 120,-1183 126,-1183 132,-1189 132,-1195 132,-1195 132,-1239 132,-1239 132,-1245 126,-1251 120,-1251"/>
<text text-anchor="start" x="13" y="-1235" font-family="Helvetica,sans-Serif" font-size="10.00">map&lt; SatSys, SatSys</text>
<text text-anchor="start" x="37.5" y="-1224" font-family="Helvetica,sans-Serif" font-size="10.00">::SatData &gt;</text>
<text text-anchor="start" x="64" y="-1209" font-family="Helvetica,sans-Serif" font-size="10.00"> </text>
<text text-anchor="start" x="64" y="-1194" font-family="Helvetica,sans-Serif" font-size="10.00"> </text>
<polygon fill="red" stroke="red" points="8,-1219 8,-1219 124,-1219 124,-1219 8,-1219"/>
<polygon fill="red" stroke="red" points="8,-1204 8,-1204 124,-1204 124,-1204 8,-1204"/>
<polygon fill="none" stroke="red" points="8,-1187 8,-1247 124,-1247 124,-1187 8,-1187"/>
</a>
</g>
</g>
<!-- Node3&#45;&gt;Node2 -->
<g id="edge2_Node000002_Node000003" class="edge">
<title>Node3&#45;&gt;Node2</title>
<g id="a_edge2_Node000002_Node000003"><a xlink:title=" ">
<path fill="none" stroke="#63b8ff" d="M66,-1182.74C66,-1133.24 66,-1037.06 66,-953.63"/>
<polygon fill="none" stroke="#63b8ff" points="66,-953.42 62,-947.42 66,-941.42 70,-947.42 66,-953.42"/>
</a>
</g>
<text text-anchor="middle" x="101.5" y="-1157" font-family="Helvetica,sans-Serif" font-size="10.00" fill="grey"> +satDataMap</text>
</g>
<!-- Node5 -->
<g id="Node000005" class="node">
<title>Node5</title>
<g id="a_Node000005"><a xlink:href="structGTime.html" target="_top" xlink:title="Time structure used throughout this software.">
<path fill="white" stroke="#666666" d="M277,-1136C277,-1136 155,-1136 155,-1136 149,-1136 143,-1130 143,-1124 143,-1124 143,-476 143,-476 143,-470 149,-464 155,-464 155,-464 277,-464 277,-464 283,-464 289,-470 289,-476 289,-476 289,-1124 289,-1124 289,-1130 283,-1136 277,-1136"/>
<text text-anchor="start" x="199.5" y="-1120" font-family="Helvetica,sans-Serif" font-size="10.00">GTime</text>
<text text-anchor="start" x="155" y="-1105" font-family="Helvetica,sans-Serif" font-size="10.00">+</text>
<text text-anchor="start" x="168" y="-1105" font-family="Helvetica,sans-Serif" font-size="10.00">cacheN</text>
<text text-anchor="start" x="155" y="-1090" font-family="Helvetica,sans-Serif" font-size="10.00">+</text>
<text text-anchor="start" x="168" y="-1090" font-family="Helvetica,sans-Serif" font-size="10.00">cacheTime</text>
<text text-anchor="start" x="155" y="-1075" font-family="Helvetica,sans-Serif" font-size="10.00">+</text>
<text text-anchor="start" x="168" y="-1075" font-family="Helvetica,sans-Serif" font-size="10.00">bigTime</text>
<text text-anchor="start" x="155" y="-1060" font-family="Helvetica,sans-Serif" font-size="10.00">+</text>
<text text-anchor="start" x="168" y="-1060" font-family="Helvetica,sans-Serif" font-size="10.00">GTime()</text>
<text text-anchor="start" x="155" y="-1045" font-family="Helvetica,sans-Serif" font-size="10.00">+</text>
<text text-anchor="start" x="168" y="-1045" font-family="Helvetica,sans-Serif" font-size="10.00">GTime()</text>
<text text-anchor="start" x="155" y="-1030" font-family="Helvetica,sans-Serif" font-size="10.00">+</text>
<text text-anchor="start" x="168" y="-1030" font-family="Helvetica,sans-Serif" font-size="10.00">GTime()</text>
<text text-anchor="start" x="155" y="-1015" font-family="Helvetica,sans-Serif" font-size="10.00">+</text>
<text text-anchor="start" x="168" y="-1015" font-family="Helvetica,sans-Serif" font-size="10.00">to_string()</text>
<text text-anchor="start" x="155" y="-1000" font-family="Helvetica,sans-Serif" font-size="10.00">+</text>
<text text-anchor="start" x="168" y="-1000" font-family="Helvetica,sans-Serif" font-size="10.00">to_ISOstring()</text>
<text text-anchor="start" x="155" y="-985" font-family="Helvetica,sans-Serif" font-size="10.00">+</text>
<text text-anchor="start" x="168" y="-985" font-family="Helvetica,sans-Serif" font-size="10.00">to_decYear()</text>
<text text-anchor="start" x="155" y="-970" font-family="Helvetica,sans-Serif" font-size="10.00">+</text>
<text text-anchor="start" x="168" y="-970" font-family="Helvetica,sans-Serif" font-size="10.00">operator==()</text>
<text text-anchor="start" x="155" y="-955" font-family="Helvetica,sans-Serif" font-size="10.00">+</text>
<text text-anchor="start" x="168" y="-955" font-family="Helvetica,sans-Serif" font-size="10.00">operator!=()</text>
<text text-anchor="start" x="155" y="-940" font-family="Helvetica,sans-Serif" font-size="10.00">+</text>
<text text-anchor="start" x="168" y="-940" font-family="Helvetica,sans-Serif" font-size="10.00">operator&lt;()</text>
<text text-anchor="start" x="155" y="-925" font-family="Helvetica,sans-Serif" font-size="10.00">+</text>
<text text-anchor="start" x="168" y="-925" font-family="Helvetica,sans-Serif" font-size="10.00">operator&gt;()</text>
<text text-anchor="start" x="155" y="-910" font-family="Helvetica,sans-Serif" font-size="10.00">+</text>
<text text-anchor="start" x="168" y="-910" font-family="Helvetica,sans-Serif" font-size="10.00">operator&gt;=()</text>
<text text-anchor="start" x="155" y="-895" font-family="Helvetica,sans-Serif" font-size="10.00">+</text>
<text text-anchor="start" x="168" y="-895" font-family="Helvetica,sans-Serif" font-size="10.00">operator+()</text>
<text text-anchor="start" x="155" y="-880" font-family="Helvetica,sans-Serif" font-size="10.00">+</text>
<text text-anchor="start" x="168" y="-880" font-family="Helvetica,sans-Serif" font-size="10.00">operator+()</text>
<text text-anchor="start" x="155" y="-865" font-family="Helvetica,sans-Serif" font-size="10.00">+</text>
<text text-anchor="start" x="168" y="-865" font-family="Helvetica,sans-Serif" font-size="10.00">operator+()</text>
<text text-anchor="start" x="155" y="-850" font-family="Helvetica,sans-Serif" font-size="10.00">+</text>
<text text-anchor="start" x="168" y="-850" font-family="Helvetica,sans-Serif" font-size="10.00">operator+=()</text>
<text text-anchor="start" x="155" y="-835" font-family="Helvetica,sans-Serif" font-size="10.00">+</text>
<text text-anchor="start" x="168" y="-835" font-family="Helvetica,sans-Serif" font-size="10.00">operator&#45;=()</text>
<text text-anchor="start" x="155" y="-820" font-family="Helvetica,sans-Serif" font-size="10.00">+</text>
<text text-anchor="start" x="168" y="-820" font-family="Helvetica,sans-Serif" font-size="10.00">operator&#45;()</text>
<text text-anchor="start" x="155" y="-805" font-family="Helvetica,sans-Serif" font-size="10.00">+</text>
<text text-anchor="start" x="168" y="-805" font-family="Helvetica,sans-Serif" font-size="10.00">operator&#45;()</text>
<text text-anchor="start" x="155" y="-790" font-family="Helvetica,sans-Serif" font-size="10.00">+</text>
<text text-anchor="start" x="168" y="-790" font-family="Helvetica,sans-Serif" font-size="10.00">operator&#45;()</text>
<text text-anchor="start" x="155" y="-775" font-family="Helvetica,sans-Serif" font-size="10.00">+</text>
<text text-anchor="start" x="168" y="-775" font-family="Helvetica,sans-Serif" font-size="10.00">operator++()</text>
<text text-anchor="start" x="155" y="-760" font-family="Helvetica,sans-Serif" font-size="10.00">+</text>
<text text-anchor="start" x="168" y="-760" font-family="Helvetica,sans-Serif" font-size="10.00">GTime()</text>
<text text-anchor="start" x="155" y="-745" font-family="Helvetica,sans-Serif" font-size="10.00">+</text>
<text text-anchor="start" x="168" y="-745" font-family="Helvetica,sans-Serif" font-size="10.00">GTime()</text>
<text text-anchor="start" x="155" y="-730" font-family="Helvetica,sans-Serif" font-size="10.00">+</text>
<text text-anchor="start" x="168" y="-730" font-family="Helvetica,sans-Serif" font-size="10.00">GTime()</text>
<text text-anchor="start" x="155" y="-715" font-family="Helvetica,sans-Serif" font-size="10.00">+</text>
<text text-anchor="start" x="168" y="-715" font-family="Helvetica,sans-Serif" font-size="10.00">GTime()</text>
<text text-anchor="start" x="155" y="-700" font-family="Helvetica,sans-Serif" font-size="10.00">+</text>
<text text-anchor="start" x="168" y="-700" font-family="Helvetica,sans-Serif" font-size="10.00">GTime()</text>
<text text-anchor="start" x="155" y="-685" font-family="Helvetica,sans-Serif" font-size="10.00">+</text>
<text text-anchor="start" x="168" y="-685" font-family="Helvetica,sans-Serif" font-size="10.00">serialize()</text>
<text text-anchor="start" x="155" y="-670" font-family="Helvetica,sans-Serif" font-size="10.00">+</text>
<text text-anchor="start" x="168" y="-670" font-family="Helvetica,sans-Serif" font-size="10.00">floorTime()</text>
<text text-anchor="start" x="155" y="-655" font-family="Helvetica,sans-Serif" font-size="10.00">+</text>
<text text-anchor="start" x="168" y="-655" font-family="Helvetica,sans-Serif" font-size="10.00">gregString()</text>
<text text-anchor="start" x="155" y="-640" font-family="Helvetica,sans-Serif" font-size="10.00">+</text>
<text text-anchor="start" x="168" y="-640" font-family="Helvetica,sans-Serif" font-size="10.00">operator long double()</text>
<text text-anchor="start" x="155" y="-625" font-family="Helvetica,sans-Serif" font-size="10.00">+</text>
<text text-anchor="start" x="168" y="-625" font-family="Helvetica,sans-Serif" font-size="10.00">operator MjDateTT()</text>
<text text-anchor="start" x="155" y="-610" font-family="Helvetica,sans-Serif" font-size="10.00">+</text>
<text text-anchor="start" x="168" y="-610" font-family="Helvetica,sans-Serif" font-size="10.00">operator GEpoch()</text>
<text text-anchor="start" x="155" y="-595" font-family="Helvetica,sans-Serif" font-size="10.00">+</text>
<text text-anchor="start" x="168" y="-595" font-family="Helvetica,sans-Serif" font-size="10.00">operator UtcTime()</text>
<text text-anchor="start" x="155" y="-580" font-family="Helvetica,sans-Serif" font-size="10.00">+</text>
<text text-anchor="start" x="168" y="-580" font-family="Helvetica,sans-Serif" font-size="10.00">operator GWeek()</text>
<text text-anchor="start" x="155" y="-565" font-family="Helvetica,sans-Serif" font-size="10.00">+</text>
<text text-anchor="start" x="168" y="-565" font-family="Helvetica,sans-Serif" font-size="10.00">operator BWeek()</text>
<text text-anchor="start" x="155" y="-550" font-family="Helvetica,sans-Serif" font-size="10.00">+</text>
<text text-anchor="start" x="168" y="-550" font-family="Helvetica,sans-Serif" font-size="10.00">operator GTow()</text>
<text text-anchor="start" x="155" y="-535" font-family="Helvetica,sans-Serif" font-size="10.00">+</text>
<text text-anchor="start" x="168" y="-535" font-family="Helvetica,sans-Serif" font-size="10.00">operator BTow()</text>
<text text-anchor="start" x="155" y="-520" font-family="Helvetica,sans-Serif" font-size="10.00">+</text>
<text text-anchor="start" x="168" y="-520" font-family="Helvetica,sans-Serif" font-size="10.00">operator PTime()</text>
<text text-anchor="start" x="155" y="-505" font-family="Helvetica,sans-Serif" font-size="10.00">+</text>
<text text-anchor="start" x="168" y="-505" font-family="Helvetica,sans-Serif" font-size="10.00">operator string()</text>
<text text-anchor="start" x="155" y="-490" font-family="Helvetica,sans-Serif" font-size="10.00">+</text>
<text text-anchor="start" x="168" y="-490" font-family="Helvetica,sans-Serif" font-size="10.00">operator RTod()</text>
<text text-anchor="start" x="155" y="-475" font-family="Helvetica,sans-Serif" font-size="10.00">+</text>
<text text-anchor="start" x="168" y="-475" font-family="Helvetica,sans-Serif" font-size="10.00">noTime()</text>
<polygon fill="#666666" stroke="#666666" points="151,-1115 151,-1115 281,-1115 281,-1115 151,-1115"/>
<polygon fill="#666666" stroke="#666666" points="151,-1070 151,-1070 166,-1070 166,-1070 151,-1070"/>
<polygon fill="#666666" stroke="#666666" points="166,-1070 166,-1070 281,-1070 281,-1070 166,-1070"/>
<polygon fill="none" stroke="#666666" points="151,-468 151,-1132 281,-1132 281,-468 151,-468"/>
</a>
</g>
</g>
<!-- Node5&#45;&gt;Node1 -->
<g id="edge3_Node000001_Node000005" class="edge">
<title>Node5&#45;&gt;Node1</title>
<g id="a_edge3_Node000001_Node000005"><a xlink:title=" ">
<path fill="none" stroke="#63b8ff" d="M172.78,-463.78C171.27,-452.04 169.77,-440.39 168.29,-428.91"/>
<polygon fill="none" stroke="#63b8ff" points="168.29,-428.91 163.55,-423.47 166.75,-417 171.49,-422.44 168.29,-428.91"/>
</a>
</g>
<text text-anchor="middle" x="185.5" y="-438" font-family="Helvetica,sans-Serif" font-size="10.00" fill="grey"> +ttm</text>
</g>
<!-- Node6 -->
<g id="Node000006" class="node">
<title>Node6</title>
<g id="a_Node000006"><a xlink:title=" ">
<path fill="white" stroke="#666666" d="M231,-1245.5C231,-1245.5 201,-1245.5 201,-1245.5 195,-1245.5 189,-1239.5 189,-1233.5 189,-1233.5 189,-1200.5 189,-1200.5 189,-1194.5 195,-1188.5 201,-1188.5 201,-1188.5 231,-1188.5 231,-1188.5 237,-1188.5 243,-1194.5 243,-1200.5 243,-1200.5 243,-1233.5 243,-1233.5 243,-1239.5 237,-1245.5 231,-1245.5"/>
<text text-anchor="start" x="202" y="-1229" font-family="Helvetica,sans-Serif" font-size="10.00">string</text>
<text text-anchor="start" x="214" y="-1214" font-family="Helvetica,sans-Serif" font-size="10.00"> </text>
<text text-anchor="start" x="214" y="-1199" font-family="Helvetica,sans-Serif" font-size="10.00"> </text>
<polygon fill="#666666" stroke="#666666" points="197,-1224 197,-1224 235,-1224 235,-1224 197,-1224"/>
<polygon fill="#666666" stroke="#666666" points="197,-1209 197,-1209 235,-1209 235,-1209 197,-1209"/>
<polygon fill="none" stroke="#666666" points="197,-1192.5 197,-1241.5 235,-1241.5 235,-1192.5 197,-1192.5"/>
</a>
</g>
</g>
<!-- Node6&#45;&gt;Node5 -->
<g id="edge4_Node000005_Node000006" class="edge">
<title>Node6&#45;&gt;Node5</title>
<g id="a_edge4_Node000005_Node000006"><a xlink:title=" ">
<path fill="none" stroke="#63b8ff" d="M216,-1188.45C216,-1177.63 216,-1164.06 216,-1148.52"/>
<polygon fill="none" stroke="#63b8ff" points="216,-1148.27 212,-1142.27 216,-1136.27 220,-1142.27 216,-1148.27"/>
</a>
</g>
<text text-anchor="middle" x="250.5" y="-1157" font-family="Helvetica,sans-Serif" font-size="10.00" fill="grey"> +cacheString</text>
</g>
</g>
</svg>
