<?xml version="1.0" encoding="UTF-8" standalone="no"?>
<!DOCTYPE svg PUBLIC "-//W3C//DTD SVG 1.1//EN"
 "http://www.w3.org/Graphics/SVG/1.1/DTD/svg11.dtd">
<!-- Generated by graphviz version 2.43.0 (0)
 -->
<!-- Title: Sp3Parser Pages: 1 -->
<svg width="214pt" height="233pt"
 viewBox="0.00 0.00 213.50 233.00" xmlns="http://www.w3.org/2000/svg" xmlns:xlink="http://www.w3.org/1999/xlink">
<g id="graph0" class="graph" transform="scale(1 1) rotate(0) translate(4 229)">
<title>Sp3Parser</title>
<!-- Node1 -->
<g id="Node000001" class="node">
<title>Node1</title>
<g id="a_Node000001"><a xlink:href="structSp3Parser.html" target="_top" xlink:title=" ">
<path fill="white" stroke="#666666" stroke-width="2" d="M142.5,-102C142.5,-102 67.5,-102 67.5,-102 61.5,-102 55.5,-96 55.5,-90 55.5,-90 55.5,-12 55.5,-12 55.5,-6 61.5,0 67.5,0 67.5,0 142.5,0 142.5,0 148.5,0 154.5,-6 154.5,-12 154.5,-12 154.5,-90 154.5,-90 154.5,-96 148.5,-102 142.5,-102"/>
<text text-anchor="start" x="81" y="-86" font-family="Helvetica,sans-Serif" font-size="10.00">Sp3Parser</text>
<text text-anchor="start" x="68" y="-71" font-family="Helvetica,sans-Serif" font-size="10.00">+</text>
<text text-anchor="start" x="81" y="-71" font-family="Helvetica,sans-Serif" font-size="10.00">tempObsList</text>
<text text-anchor="start" x="68" y="-56" font-family="Helvetica,sans-Serif" font-size="10.00">+</text>
<text text-anchor="start" x="81" y="-56" font-family="Helvetica,sans-Serif" font-size="10.00">tsys</text>
<text text-anchor="start" x="68" y="-41" font-family="Helvetica,sans-Serif" font-size="10.00">+</text>
<text text-anchor="start" x="81" y="-41" font-family="Helvetica,sans-Serif" font-size="10.00">bfact</text>
<text text-anchor="start" x="68" y="-26" font-family="Helvetica,sans-Serif" font-size="10.00">+</text>
<text text-anchor="start" x="81" y="-26" font-family="Helvetica,sans-Serif" font-size="10.00">parse()</text>
<text text-anchor="start" x="68" y="-11" font-family="Helvetica,sans-Serif" font-size="10.00">+</text>
<text text-anchor="start" x="81" y="-11" font-family="Helvetica,sans-Serif" font-size="10.00">parserType()</text>
<polygon fill="#666666" stroke="#666666" points="64,-81 64,-81 147,-81 147,-81 64,-81"/>
<polygon fill="#666666" stroke="#666666" points="64,-36 64,-36 79,-36 79,-36 64,-36"/>
<polygon fill="#666666" stroke="#666666" points="79,-36 79,-36 147,-36 147,-36 79,-36"/>
<polygon fill="none" stroke="#666666" points="63.5,-4 63.5,-98 146.5,-98 146.5,-4 63.5,-4"/>
</a>
</g>
</g>
<!-- Node2 -->
<g id="Node000002" class="node">
<title>Node2</title>
<g id="a_Node000002"><a xlink:href="structParser.html" target="_top" xlink:title=" ">
<path fill="white" stroke="#666666" d="M86,-225C86,-225 12,-225 12,-225 6,-225 0,-219 0,-213 0,-213 0,-150 0,-150 0,-144 6,-138 12,-138 12,-138 86,-138 86,-138 92,-138 98,-144 98,-150 98,-150 98,-213 98,-213 98,-219 92,-225 86,-225"/>
<text text-anchor="start" x="33.5" y="-208.5" font-family="Helvetica,sans-Serif" font-size="10.00">Parser</text>
<text text-anchor="start" x="47" y="-193.5" font-family="Helvetica,sans-Serif" font-size="10.00"> </text>
<text text-anchor="start" x="12" y="-178.5" font-family="Helvetica,sans-Serif" font-size="10.00">+</text>
<text text-anchor="start" x="25" y="-178.5" font-family="Helvetica,sans-Serif" font-size="10.00">parse()</text>
<text text-anchor="start" x="12" y="-163.5" font-family="Helvetica,sans-Serif" font-size="10.00">+</text>
<text text-anchor="start" x="25" y="-163.5" font-family="Helvetica,sans-Serif" font-size="10.00">parserType()</text>
<text text-anchor="start" x="12" y="-148.5" font-family="Helvetica,sans-Serif" font-size="10.00">+</text>
<text text-anchor="start" x="25" y="-148.5" font-family="Helvetica,sans-Serif" font-size="10.00">~Parser()</text>
<polygon fill="#666666" stroke="#666666" points="8,-203.5 8,-203.5 90,-203.5 90,-203.5 8,-203.5"/>
<polygon fill="#666666" stroke="#666666" points="8,-188.5 8,-188.5 90,-188.5 90,-188.5 8,-188.5"/>
<polygon fill="none" stroke="#666666" points="8,-142 8,-221 90,-221 90,-142 8,-142"/>
</a>
</g>
</g>
<!-- Node2&#45;&gt;Node1 -->
<g id="edge1_Node000001_Node000002" class="edge">
<title>Node2&#45;&gt;Node1</title>
<g id="a_edge1_Node000001_Node000002"><a xlink:title=" ">
<path fill="none" stroke="#63b8ff" d="M71.68,-128.45C75.46,-119.78 79.38,-110.8 83.14,-102.17"/>
<polygon fill="none" stroke="#63b8ff" points="68.43,-127.15 67.65,-137.71 74.85,-129.94 68.43,-127.15"/>
</a>
</g>
</g>
<!-- Node3 -->
<g id="Node000003" class="node">
<title>Node3</title>
<g id="a_Node000003"><a xlink:href="structObsLister.html" target="_top" xlink:title=" ">
<path fill="white" stroke="#666666" d="M193.5,-210C193.5,-210 128.5,-210 128.5,-210 122.5,-210 116.5,-204 116.5,-198 116.5,-198 116.5,-165 116.5,-165 116.5,-159 122.5,-153 128.5,-153 128.5,-153 193.5,-153 193.5,-153 199.5,-153 205.5,-159 205.5,-165 205.5,-165 205.5,-198 205.5,-198 205.5,-204 199.5,-210 193.5,-210"/>
<text text-anchor="start" x="138.5" y="-193.5" font-family="Helvetica,sans-Serif" font-size="10.00">ObsLister</text>
<text text-anchor="start" x="129" y="-178.5" font-family="Helvetica,sans-Serif" font-size="10.00">+</text>
<text text-anchor="start" x="142" y="-178.5" font-family="Helvetica,sans-Serif" font-size="10.00">obsListList</text>
<text text-anchor="start" x="159.5" y="-163.5" font-family="Helvetica,sans-Serif" font-size="10.00"> </text>
<polygon fill="#666666" stroke="#666666" points="125,-188.5 125,-188.5 198,-188.5 198,-188.5 125,-188.5"/>
<polygon fill="#666666" stroke="#666666" points="125,-173.5 125,-173.5 140,-173.5 140,-173.5 125,-173.5"/>
<polygon fill="#666666" stroke="#666666" points="140,-173.5 140,-173.5 198,-173.5 198,-173.5 140,-173.5"/>
<polygon fill="none" stroke="#666666" points="124.5,-157 124.5,-206 197.5,-206 197.5,-157 124.5,-157"/>
</a>
</g>
</g>
<!-- Node3&#45;&gt;Node1 -->
<g id="edge2_Node000001_Node000003" class="edge">
<title>Node3&#45;&gt;Node1</title>
<g id="a_edge2_Node000001_Node000003"><a xlink:title=" ">
<path fill="none" stroke="#63b8ff" d="M144.86,-143.46C139.23,-130.56 132.83,-115.86 126.82,-102.07"/>
<polygon fill="none" stroke="#63b8ff" points="141.78,-145.16 148.99,-152.93 148.2,-142.37 141.78,-145.16"/>
</a>
</g>
</g>
</g>
</svg>
