<?xml version="1.0" encoding="UTF-8" standalone="no"?>
<!DOCTYPE svg PUBLIC "-//W3C//DTD SVG 1.1//EN"
 "http://www.w3.org/Graphics/SVG/1.1/DTD/svg11.dtd">
<!-- Generated by graphviz version 2.43.0 (0)
 -->
<!-- Title: GlobalOptions Pages: 1 -->
<svg width="826pt" height="1142pt"
 viewBox="0.00 0.00 825.50 1142.00" xmlns="http://www.w3.org/2000/svg" xmlns:xlink="http://www.w3.org/1999/xlink">
<g id="graph0" class="graph" transform="scale(1 1) rotate(0) translate(4 1138)">
<title>GlobalOptions</title>
<!-- Node1 -->
<g id="Node000001" class="node">
<title>Node1</title>
<g id="a_Node000001"><a xlink:href="structGlobalOptions.html" target="_top" xlink:title="Options for the general operation of the software.">
<path fill="white" stroke="#666666" stroke-width="2" d="M385,-761C385,-761 222,-761 222,-761 216,-761 210,-755 210,-749 210,-749 210,-12 210,-12 210,-6 216,0 222,0 222,0 385,0 385,0 391,0 397,-6 397,-12 397,-12 397,-749 397,-749 397,-755 391,-761 385,-761"/>
<text text-anchor="start" x="269" y="-744.5" font-family="Helvetica,sans-Serif" font-size="10.00">GlobalOptions</text>
<text text-anchor="start" x="222.5" y="-729.5" font-family="Helvetica,sans-Serif" font-size="10.00">+</text>
<text text-anchor="start" x="235.5" y="-729.5" font-family="Helvetica,sans-Serif" font-size="10.00">sleep_milliseconds</text>
<text text-anchor="start" x="222.5" y="-714.5" font-family="Helvetica,sans-Serif" font-size="10.00">+</text>
<text text-anchor="start" x="235.5" y="-714.5" font-family="Helvetica,sans-Serif" font-size="10.00">epoch_interval</text>
<text text-anchor="start" x="222.5" y="-699.5" font-family="Helvetica,sans-Serif" font-size="10.00">+</text>
<text text-anchor="start" x="235.5" y="-699.5" font-family="Helvetica,sans-Serif" font-size="10.00">epoch_tolerance</text>
<text text-anchor="start" x="222.5" y="-684.5" font-family="Helvetica,sans-Serif" font-size="10.00">+</text>
<text text-anchor="start" x="235.5" y="-684.5" font-family="Helvetica,sans-Serif" font-size="10.00">max_epochs</text>
<text text-anchor="start" x="222.5" y="-669.5" font-family="Helvetica,sans-Serif" font-size="10.00">+</text>
<text text-anchor="start" x="235.5" y="-669.5" font-family="Helvetica,sans-Serif" font-size="10.00">leap_seconds</text>
<text text-anchor="start" x="222.5" y="-654.5" font-family="Helvetica,sans-Serif" font-size="10.00">+</text>
<text text-anchor="start" x="235.5" y="-654.5" font-family="Helvetica,sans-Serif" font-size="10.00">rinex_comment</text>
<text text-anchor="start" x="222.5" y="-639.5" font-family="Helvetica,sans-Serif" font-size="10.00">+</text>
<text text-anchor="start" x="235.5" y="-639.5" font-family="Helvetica,sans-Serif" font-size="10.00">reference_system</text>
<text text-anchor="start" x="222.5" y="-624.5" font-family="Helvetica,sans-Serif" font-size="10.00">+</text>
<text text-anchor="start" x="235.5" y="-624.5" font-family="Helvetica,sans-Serif" font-size="10.00">time_system</text>
<text text-anchor="start" x="222.5" y="-609.5" font-family="Helvetica,sans-Serif" font-size="10.00">+</text>
<text text-anchor="start" x="235.5" y="-609.5" font-family="Helvetica,sans-Serif" font-size="10.00">ocean_tide_loading</text>
<text text-anchor="start" x="235.5" y="-598.5" font-family="Helvetica,sans-Serif" font-size="10.00">_model</text>
<text text-anchor="start" x="222.5" y="-583.5" font-family="Helvetica,sans-Serif" font-size="10.00">+</text>
<text text-anchor="start" x="235.5" y="-583.5" font-family="Helvetica,sans-Serif" font-size="10.00">simulate_real_time</text>
<text text-anchor="start" x="222.5" y="-568.5" font-family="Helvetica,sans-Serif" font-size="10.00">+</text>
<text text-anchor="start" x="235.5" y="-568.5" font-family="Helvetica,sans-Serif" font-size="10.00">process_preprocessor</text>
<text text-anchor="start" x="222.5" y="-553.5" font-family="Helvetica,sans-Serif" font-size="10.00">+</text>
<text text-anchor="start" x="235.5" y="-553.5" font-family="Helvetica,sans-Serif" font-size="10.00">process_spp</text>
<text text-anchor="start" x="222.5" y="-538.5" font-family="Helvetica,sans-Serif" font-size="10.00">+</text>
<text text-anchor="start" x="235.5" y="-538.5" font-family="Helvetica,sans-Serif" font-size="10.00">process_minimum_constraints</text>
<text text-anchor="start" x="222.5" y="-523.5" font-family="Helvetica,sans-Serif" font-size="10.00">+</text>
<text text-anchor="start" x="235.5" y="-523.5" font-family="Helvetica,sans-Serif" font-size="10.00">process_ionosphere</text>
<text text-anchor="start" x="222.5" y="-508.5" font-family="Helvetica,sans-Serif" font-size="10.00">+</text>
<text text-anchor="start" x="235.5" y="-508.5" font-family="Helvetica,sans-Serif" font-size="10.00">process_rts</text>
<text text-anchor="start" x="222.5" y="-493.5" font-family="Helvetica,sans-Serif" font-size="10.00">+</text>
<text text-anchor="start" x="235.5" y="-493.5" font-family="Helvetica,sans-Serif" font-size="10.00">process_ppp</text>
<text text-anchor="start" x="222.5" y="-478.5" font-family="Helvetica,sans-Serif" font-size="10.00">+</text>
<text text-anchor="start" x="235.5" y="-478.5" font-family="Helvetica,sans-Serif" font-size="10.00">process_orbits</text>
<text text-anchor="start" x="222.5" y="-463.5" font-family="Helvetica,sans-Serif" font-size="10.00">+</text>
<text text-anchor="start" x="235.5" y="-463.5" font-family="Helvetica,sans-Serif" font-size="10.00">process_meas</text>
<text text-anchor="start" x="222.5" y="-448.5" font-family="Helvetica,sans-Serif" font-size="10.00">+</text>
<text text-anchor="start" x="235.5" y="-448.5" font-family="Helvetica,sans-Serif" font-size="10.00">pivot_receiver</text>
<text text-anchor="start" x="222.5" y="-433.5" font-family="Helvetica,sans-Serif" font-size="10.00">+</text>
<text text-anchor="start" x="235.5" y="-433.5" font-family="Helvetica,sans-Serif" font-size="10.00">pivot_satellite</text>
<text text-anchor="start" x="222.5" y="-418.5" font-family="Helvetica,sans-Serif" font-size="10.00">+</text>
<text text-anchor="start" x="235.5" y="-418.5" font-family="Helvetica,sans-Serif" font-size="10.00">interpolate_rec_pco</text>
<text text-anchor="start" x="222.5" y="-403.5" font-family="Helvetica,sans-Serif" font-size="10.00">+</text>
<text text-anchor="start" x="235.5" y="-403.5" font-family="Helvetica,sans-Serif" font-size="10.00">auto_fill_pco</text>
<text text-anchor="start" x="222.5" y="-388.5" font-family="Helvetica,sans-Serif" font-size="10.00">+</text>
<text text-anchor="start" x="235.5" y="-388.5" font-family="Helvetica,sans-Serif" font-size="10.00">require_apriori_positions</text>
<text text-anchor="start" x="222.5" y="-373.5" font-family="Helvetica,sans-Serif" font-size="10.00">+</text>
<text text-anchor="start" x="235.5" y="-373.5" font-family="Helvetica,sans-Serif" font-size="10.00">require_site_eccentricity</text>
<text text-anchor="start" x="222.5" y="-358.5" font-family="Helvetica,sans-Serif" font-size="10.00">+</text>
<text text-anchor="start" x="235.5" y="-358.5" font-family="Helvetica,sans-Serif" font-size="10.00">require_sinex_data</text>
<text text-anchor="start" x="222.5" y="-343.5" font-family="Helvetica,sans-Serif" font-size="10.00">+</text>
<text text-anchor="start" x="235.5" y="-343.5" font-family="Helvetica,sans-Serif" font-size="10.00">require_antenna_details</text>
<text text-anchor="start" x="222.5" y="-328.5" font-family="Helvetica,sans-Serif" font-size="10.00">+</text>
<text text-anchor="start" x="235.5" y="-328.5" font-family="Helvetica,sans-Serif" font-size="10.00">require_reflector_com</text>
<text text-anchor="start" x="222.5" y="-313.5" font-family="Helvetica,sans-Serif" font-size="10.00">+</text>
<text text-anchor="start" x="235.5" y="-313.5" font-family="Helvetica,sans-Serif" font-size="10.00">use_tgd_bias</text>
<text text-anchor="start" x="222.5" y="-298.5" font-family="Helvetica,sans-Serif" font-size="10.00">+</text>
<text text-anchor="start" x="235.5" y="-298.5" font-family="Helvetica,sans-Serif" font-size="10.00">wait_next_epoch</text>
<text text-anchor="start" x="222.5" y="-283.5" font-family="Helvetica,sans-Serif" font-size="10.00">+</text>
<text text-anchor="start" x="235.5" y="-283.5" font-family="Helvetica,sans-Serif" font-size="10.00">max_rec_latency</text>
<text text-anchor="start" x="222.5" y="-268.5" font-family="Helvetica,sans-Serif" font-size="10.00">+</text>
<text text-anchor="start" x="235.5" y="-268.5" font-family="Helvetica,sans-Serif" font-size="10.00">require_obs</text>
<text text-anchor="start" x="222.5" y="-253.5" font-family="Helvetica,sans-Serif" font-size="10.00">+</text>
<text text-anchor="start" x="235.5" y="-253.5" font-family="Helvetica,sans-Serif" font-size="10.00">assign_closest_epoch</text>
<text text-anchor="start" x="222.5" y="-238.5" font-family="Helvetica,sans-Serif" font-size="10.00">+</text>
<text text-anchor="start" x="235.5" y="-238.5" font-family="Helvetica,sans-Serif" font-size="10.00">delete_old_ephemerides</text>
<text text-anchor="start" x="222.5" y="-223.5" font-family="Helvetica,sans-Serif" font-size="10.00">+</text>
<text text-anchor="start" x="235.5" y="-223.5" font-family="Helvetica,sans-Serif" font-size="10.00">validity_interval_factor</text>
<text text-anchor="start" x="222.5" y="-208.5" font-family="Helvetica,sans-Serif" font-size="10.00">+</text>
<text text-anchor="start" x="235.5" y="-208.5" font-family="Helvetica,sans-Serif" font-size="10.00">ssr_input_antenna_offset</text>
<text text-anchor="start" x="222.5" y="-193.5" font-family="Helvetica,sans-Serif" font-size="10.00">+</text>
<text text-anchor="start" x="235.5" y="-193.5" font-family="Helvetica,sans-Serif" font-size="10.00">fixed_phase_bias_var</text>
<text text-anchor="start" x="222.5" y="-178.5" font-family="Helvetica,sans-Serif" font-size="10.00">+</text>
<text text-anchor="start" x="235.5" y="-178.5" font-family="Helvetica,sans-Serif" font-size="10.00">adjust_rec_clocks_by_spp</text>
<text text-anchor="start" x="222.5" y="-163.5" font-family="Helvetica,sans-Serif" font-size="10.00">+</text>
<text text-anchor="start" x="235.5" y="-163.5" font-family="Helvetica,sans-Serif" font-size="10.00">adjust_clocks_for_jumps_only</text>
<text text-anchor="start" x="222.5" y="-148.5" font-family="Helvetica,sans-Serif" font-size="10.00">+</text>
<text text-anchor="start" x="235.5" y="-148.5" font-family="Helvetica,sans-Serif" font-size="10.00">minimise_sat_clock</text>
<text text-anchor="start" x="235.5" y="-137.5" font-family="Helvetica,sans-Serif" font-size="10.00">_offsets</text>
<text text-anchor="start" x="222.5" y="-122.5" font-family="Helvetica,sans-Serif" font-size="10.00">+</text>
<text text-anchor="start" x="235.5" y="-122.5" font-family="Helvetica,sans-Serif" font-size="10.00">minimise_sat_orbit</text>
<text text-anchor="start" x="235.5" y="-111.5" font-family="Helvetica,sans-Serif" font-size="10.00">_offsets</text>
<text text-anchor="start" x="222.5" y="-96.5" font-family="Helvetica,sans-Serif" font-size="10.00">+</text>
<text text-anchor="start" x="235.5" y="-96.5" font-family="Helvetica,sans-Serif" font-size="10.00">minimise_ionosphere</text>
<text text-anchor="start" x="235.5" y="-85.5" font-family="Helvetica,sans-Serif" font-size="10.00">_offsets</text>
<text text-anchor="start" x="222.5" y="-70.5" font-family="Helvetica,sans-Serif" font-size="10.00">+</text>
<text text-anchor="start" x="235.5" y="-70.5" font-family="Helvetica,sans-Serif" font-size="10.00">common_sat_pco</text>
<text text-anchor="start" x="222.5" y="-55.5" font-family="Helvetica,sans-Serif" font-size="10.00">+</text>
<text text-anchor="start" x="235.5" y="-55.5" font-family="Helvetica,sans-Serif" font-size="10.00">common_rec_pco</text>
<text text-anchor="start" x="222.5" y="-40.5" font-family="Helvetica,sans-Serif" font-size="10.00">+</text>
<text text-anchor="start" x="235.5" y="-40.5" font-family="Helvetica,sans-Serif" font-size="10.00">use_trop_corrections</text>
<text text-anchor="start" x="222.5" y="-25.5" font-family="Helvetica,sans-Serif" font-size="10.00">+</text>
<text text-anchor="start" x="235.5" y="-25.5" font-family="Helvetica,sans-Serif" font-size="10.00">predefined_fail</text>
<text text-anchor="start" x="302" y="-10.5" font-family="Helvetica,sans-Serif" font-size="10.00"> </text>
<polygon fill="#666666" stroke="#666666" points="218.5,-739.5 218.5,-739.5 389.5,-739.5 389.5,-739.5 218.5,-739.5"/>
<polygon fill="#666666" stroke="#666666" points="218.5,-20.5 218.5,-20.5 233.5,-20.5 233.5,-20.5 218.5,-20.5"/>
<polygon fill="#666666" stroke="#666666" points="233.5,-20.5 233.5,-20.5 389.5,-20.5 389.5,-20.5 233.5,-20.5"/>
<polygon fill="none" stroke="#666666" points="218,-4 218,-757 389,-757 389,-4 218,-4"/>
</a>
</g>
</g>
<!-- Node2 -->
<g id="Node000002" class="node">
<title>Node2</title>
<g id="a_Node000002"><a xlink:title=" ">
<path fill="white" stroke="#666666" d="M43,-1013.5C43,-1013.5 12,-1013.5 12,-1013.5 6,-1013.5 0,-1007.5 0,-1001.5 0,-1001.5 0,-968.5 0,-968.5 0,-962.5 6,-956.5 12,-956.5 12,-956.5 43,-956.5 43,-956.5 49,-956.5 55,-962.5 55,-968.5 55,-968.5 55,-1001.5 55,-1001.5 55,-1007.5 49,-1013.5 43,-1013.5"/>
<text text-anchor="start" x="13.5" y="-997" font-family="Helvetica,sans-Serif" font-size="10.00">ptime</text>
<text text-anchor="start" x="26" y="-982" font-family="Helvetica,sans-Serif" font-size="10.00"> </text>
<text text-anchor="start" x="26" y="-967" font-family="Helvetica,sans-Serif" font-size="10.00"> </text>
<polygon fill="#666666" stroke="#666666" points="8.5,-992 8.5,-992 47.5,-992 47.5,-992 8.5,-992"/>
<polygon fill="#666666" stroke="#666666" points="8.5,-977 8.5,-977 47.5,-977 47.5,-977 8.5,-977"/>
<polygon fill="none" stroke="#666666" points="8,-960.5 8,-1009.5 47,-1009.5 47,-960.5 8,-960.5"/>
</a>
</g>
</g>
<!-- Node2&#45;&gt;Node1 -->
<g id="edge1_Node000001_Node000002" class="edge">
<title>Node2&#45;&gt;Node1</title>
<g id="a_edge1_Node000001_Node000002"><a xlink:title=" ">
<path fill="none" stroke="#63b8ff" d="M25.39,-956.27C23.28,-916.04 22.82,-839.65 43.5,-779 78.2,-677.23 145,-576 202.21,-501.17"/>
<polygon fill="none" stroke="#63b8ff" points="202.52,-500.76 203.02,-493.56 209.85,-491.25 209.36,-498.45 202.52,-500.76"/>
</a>
</g>
<text text-anchor="middle" x="76.5" y="-859" font-family="Helvetica,sans-Serif" font-size="10.00" fill="grey"> +end_epoch</text>
<text text-anchor="middle" x="76.5" y="-848" font-family="Helvetica,sans-Serif" font-size="10.00" fill="grey">+start_epoch</text>
</g>
<!-- Node3 -->
<g id="Node000003" class="node">
<title>Node3</title>
<g id="a_Node000003"><a xlink:title=" ">
<path fill="white" stroke="#666666" d="M131.5,-1013.5C131.5,-1013.5 101.5,-1013.5 101.5,-1013.5 95.5,-1013.5 89.5,-1007.5 89.5,-1001.5 89.5,-1001.5 89.5,-968.5 89.5,-968.5 89.5,-962.5 95.5,-956.5 101.5,-956.5 101.5,-956.5 131.5,-956.5 131.5,-956.5 137.5,-956.5 143.5,-962.5 143.5,-968.5 143.5,-968.5 143.5,-1001.5 143.5,-1001.5 143.5,-1007.5 137.5,-1013.5 131.5,-1013.5"/>
<text text-anchor="start" x="102.5" y="-997" font-family="Helvetica,sans-Serif" font-size="10.00">string</text>
<text text-anchor="start" x="114.5" y="-982" font-family="Helvetica,sans-Serif" font-size="10.00"> </text>
<text text-anchor="start" x="114.5" y="-967" font-family="Helvetica,sans-Serif" font-size="10.00"> </text>
<polygon fill="#666666" stroke="#666666" points="97.5,-992 97.5,-992 135.5,-992 135.5,-992 97.5,-992"/>
<polygon fill="#666666" stroke="#666666" points="97.5,-977 97.5,-977 135.5,-977 135.5,-977 97.5,-977"/>
<polygon fill="none" stroke="#666666" points="97.5,-960.5 97.5,-1009.5 135.5,-1009.5 135.5,-960.5 97.5,-960.5"/>
</a>
</g>
</g>
<!-- Node3&#45;&gt;Node1 -->
<g id="edge2_Node000001_Node000003" class="edge">
<title>Node3&#45;&gt;Node1</title>
<g id="a_edge2_Node000001_Node000003"><a xlink:title=" ">
<path fill="none" stroke="#63b8ff" d="M114.47,-956.36C112.26,-916.55 110.81,-841.05 125.5,-779 142.82,-705.82 173.56,-629.5 204.66,-563.52"/>
<polygon fill="none" stroke="#63b8ff" points="204.7,-563.44 203.67,-556.3 209.86,-552.6 210.89,-559.74 204.7,-563.44"/>
</a>
</g>
<text text-anchor="middle" x="174" y="-925" font-family="Helvetica,sans-Serif" font-size="10.00" fill="grey"> +ac_contact</text>
<text text-anchor="middle" x="174" y="-914" font-family="Helvetica,sans-Serif" font-size="10.00" fill="grey">+analysis_agency</text>
<text text-anchor="middle" x="174" y="-903" font-family="Helvetica,sans-Serif" font-size="10.00" fill="grey">+analysis_centre</text>
<text text-anchor="middle" x="174" y="-892" font-family="Helvetica,sans-Serif" font-size="10.00" fill="grey">+analysis_software</text>
<text text-anchor="start" x="125.5" y="-881" font-family="Helvetica,sans-Serif" font-size="10.00" fill="grey">+analysis_software</text>
<text text-anchor="middle" x="174" y="-870" font-family="Helvetica,sans-Serif" font-size="10.00" fill="grey">_version</text>
<text text-anchor="start" x="125.5" y="-859" font-family="Helvetica,sans-Serif" font-size="10.00" fill="grey">+atmospheric_tide</text>
<text text-anchor="middle" x="174" y="-848" font-family="Helvetica,sans-Serif" font-size="10.00" fill="grey">_loading_model</text>
<text text-anchor="middle" x="174" y="-837" font-family="Helvetica,sans-Serif" font-size="10.00" fill="grey">+config_description</text>
<text text-anchor="middle" x="174" y="-826" font-family="Helvetica,sans-Serif" font-size="10.00" fill="grey">+config_details</text>
<text text-anchor="middle" x="174" y="-815" font-family="Helvetica,sans-Serif" font-size="10.00" fill="grey">+geoid_model</text>
<text text-anchor="start" x="125.5" y="-804" font-family="Helvetica,sans-Serif" font-size="10.00" fill="grey">+gradient_mapping</text>
<text text-anchor="middle" x="174" y="-793" font-family="Helvetica,sans-Serif" font-size="10.00" fill="grey">_function</text>
<text text-anchor="middle" x="174" y="-782" font-family="Helvetica,sans-Serif" font-size="10.00" fill="grey">...</text>
</g>
<!-- Node4 -->
<g id="Node000004" class="node">
<title>Node4</title>
<g id="a_Node000004"><a xlink:title=" ">
<path fill="white" stroke="#666666" d="M276.5,-1013.5C276.5,-1013.5 174.5,-1013.5 174.5,-1013.5 168.5,-1013.5 162.5,-1007.5 162.5,-1001.5 162.5,-1001.5 162.5,-968.5 162.5,-968.5 162.5,-962.5 168.5,-956.5 174.5,-956.5 174.5,-956.5 276.5,-956.5 276.5,-956.5 282.5,-956.5 288.5,-962.5 288.5,-968.5 288.5,-968.5 288.5,-1001.5 288.5,-1001.5 288.5,-1007.5 282.5,-1013.5 276.5,-1013.5"/>
<text text-anchor="start" x="175.5" y="-997" font-family="Helvetica,sans-Serif" font-size="10.00">map&lt; E_Sys, bool &gt;</text>
<text text-anchor="start" x="223.5" y="-982" font-family="Helvetica,sans-Serif" font-size="10.00"> </text>
<text text-anchor="start" x="223.5" y="-967" font-family="Helvetica,sans-Serif" font-size="10.00"> </text>
<polygon fill="#666666" stroke="#666666" points="170.5,-992 170.5,-992 280.5,-992 280.5,-992 170.5,-992"/>
<polygon fill="#666666" stroke="#666666" points="170.5,-977 170.5,-977 280.5,-977 280.5,-977 170.5,-977"/>
<polygon fill="none" stroke="#666666" points="170.5,-960.5 170.5,-1009.5 280.5,-1009.5 280.5,-960.5 170.5,-960.5"/>
</a>
</g>
</g>
<!-- Node4&#45;&gt;Node1 -->
<g id="edge3_Node000001_Node000004" class="edge">
<title>Node4&#45;&gt;Node1</title>
<g id="a_edge3_Node000001_Node000004"><a xlink:title=" ">
<path fill="none" stroke="#63b8ff" d="M225.39,-956.39C225.51,-916.94 226.73,-842.22 233.5,-779 233.71,-777.06 233.92,-775.11 234.14,-773.16"/>
<polygon fill="none" stroke="#63b8ff" points="234.15,-773.03 230.85,-766.62 235.5,-761.11 238.8,-767.52 234.15,-773.03"/>
</a>
</g>
<text text-anchor="middle" x="289.5" y="-886.5" font-family="Helvetica,sans-Serif" font-size="10.00" fill="grey"> +network_amb_pivot</text>
<text text-anchor="middle" x="289.5" y="-875.5" font-family="Helvetica,sans-Serif" font-size="10.00" fill="grey">+process_sys</text>
<text text-anchor="middle" x="289.5" y="-864.5" font-family="Helvetica,sans-Serif" font-size="10.00" fill="grey">+receiver_amb_pivot</text>
<text text-anchor="middle" x="289.5" y="-853.5" font-family="Helvetica,sans-Serif" font-size="10.00" fill="grey">+reject_eclipse</text>
<text text-anchor="middle" x="289.5" y="-842.5" font-family="Helvetica,sans-Serif" font-size="10.00" fill="grey">+solve_amb_for</text>
<text text-anchor="middle" x="289.5" y="-831.5" font-family="Helvetica,sans-Serif" font-size="10.00" fill="grey">+use_for_iono_model</text>
<text text-anchor="middle" x="289.5" y="-820.5" font-family="Helvetica,sans-Serif" font-size="10.00" fill="grey">+use_iono_corrections</text>
</g>
<!-- Node5 -->
<g id="Node000005" class="node">
<title>Node5</title>
<g id="a_Node000005"><a xlink:title=" ">
<path fill="white" stroke="#666666" d="M381.5,-1134C381.5,-1134 357.5,-1134 357.5,-1134 351.5,-1134 345.5,-1128 345.5,-1122 345.5,-1122 345.5,-1089 345.5,-1089 345.5,-1083 351.5,-1077 357.5,-1077 357.5,-1077 381.5,-1077 381.5,-1077 387.5,-1077 393.5,-1083 393.5,-1089 393.5,-1089 393.5,-1122 393.5,-1122 393.5,-1128 387.5,-1134 381.5,-1134"/>
<text text-anchor="start" x="358.5" y="-1117.5" font-family="Helvetica,sans-Serif" font-size="10.00">map</text>
<text text-anchor="start" x="367.5" y="-1102.5" font-family="Helvetica,sans-Serif" font-size="10.00"> </text>
<text text-anchor="start" x="367.5" y="-1087.5" font-family="Helvetica,sans-Serif" font-size="10.00"> </text>
<polygon fill="#666666" stroke="#666666" points="353.5,-1112.5 353.5,-1112.5 385.5,-1112.5 385.5,-1112.5 353.5,-1112.5"/>
<polygon fill="#666666" stroke="#666666" points="353.5,-1097.5 353.5,-1097.5 385.5,-1097.5 385.5,-1097.5 353.5,-1097.5"/>
<polygon fill="none" stroke="#666666" points="353.5,-1081 353.5,-1130 385.5,-1130 385.5,-1081 353.5,-1081"/>
</a>
</g>
</g>
<!-- Node5&#45;&gt;Node4 -->
<g id="edge4_Node000004_Node000005" class="edge">
<title>Node5&#45;&gt;Node4</title>
<g id="a_edge4_Node000004_Node000005"><a xlink:title=" ">
<path fill="none" stroke="orange" d="M335.83,-1090.66C319.09,-1082.82 299.14,-1071.99 283.5,-1059 267.93,-1046.07 253.74,-1028.37 243.29,-1013.63"/>
<polygon fill="orange" stroke="orange" points="334.71,-1093.99 345.27,-1094.92 337.59,-1087.61 334.71,-1093.99"/>
</a>
</g>
<text text-anchor="middle" x="324.5" y="-1045.5" font-family="Helvetica,sans-Serif" font-size="10.00" fill="grey"> &lt; E_Sys, bool &gt;</text>
</g>
<!-- Node6 -->
<g id="Node000006" class="node">
<title>Node6</title>
<g id="a_Node000006"><a xlink:title=" ">
<path fill="white" stroke="#666666" d="M420,-1019C420,-1019 319,-1019 319,-1019 313,-1019 307,-1013 307,-1007 307,-1007 307,-963 307,-963 307,-957 313,-951 319,-951 319,-951 420,-951 420,-951 426,-951 432,-957 432,-963 432,-963 432,-1007 432,-1007 432,-1013 426,-1019 420,-1019"/>
<text text-anchor="start" x="320.5" y="-1003" font-family="Helvetica,sans-Serif" font-size="10.00">map&lt; E_Sys, vector</text>
<text text-anchor="start" x="325.5" y="-992" font-family="Helvetica,sans-Serif" font-size="10.00">&lt; E_ObsCode &gt; &gt;</text>
<text text-anchor="start" x="368" y="-977" font-family="Helvetica,sans-Serif" font-size="10.00"> </text>
<text text-anchor="start" x="368" y="-962" font-family="Helvetica,sans-Serif" font-size="10.00"> </text>
<polygon fill="#666666" stroke="#666666" points="315.5,-987 315.5,-987 424.5,-987 424.5,-987 315.5,-987"/>
<polygon fill="#666666" stroke="#666666" points="315.5,-972 315.5,-972 424.5,-972 424.5,-972 315.5,-972"/>
<polygon fill="none" stroke="#666666" points="315,-955 315,-1015 424,-1015 424,-955 315,-955"/>
</a>
</g>
</g>
<!-- Node5&#45;&gt;Node6 -->
<g id="edge6_Node000006_Node000005" class="edge">
<title>Node5&#45;&gt;Node6</title>
<g id="a_edge6_Node000006_Node000005"><a xlink:title=" ">
<path fill="none" stroke="orange" d="M369.5,-1066.55C369.5,-1051.28 369.5,-1033.83 369.5,-1019.09"/>
<polygon fill="orange" stroke="orange" points="366,-1066.72 369.5,-1076.72 373,-1066.72 366,-1066.72"/>
</a>
</g>
<text text-anchor="start" x="369.5" y="-1051" font-family="Helvetica,sans-Serif" font-size="10.00" fill="grey"> &lt; E_Sys, vector&lt; E</text>
<text text-anchor="middle" x="418" y="-1040" font-family="Helvetica,sans-Serif" font-size="10.00" fill="grey">_ObsCode &gt; &gt;</text>
</g>
<!-- Node7 -->
<g id="Node000007" class="node">
<title>Node7</title>
<g id="a_Node000007"><a xlink:title=" ">
<path fill="white" stroke="#666666" d="M617,-1013.5C617,-1013.5 462,-1013.5 462,-1013.5 456,-1013.5 450,-1007.5 450,-1001.5 450,-1001.5 450,-968.5 450,-968.5 450,-962.5 456,-956.5 462,-956.5 462,-956.5 617,-956.5 617,-956.5 623,-956.5 629,-962.5 629,-968.5 629,-968.5 629,-1001.5 629,-1001.5 629,-1007.5 623,-1013.5 617,-1013.5"/>
<text text-anchor="start" x="463.5" y="-997" font-family="Helvetica,sans-Serif" font-size="10.00">map&lt; E_Sys, E_NavMsgType &gt;</text>
<text text-anchor="start" x="538" y="-982" font-family="Helvetica,sans-Serif" font-size="10.00"> </text>
<text text-anchor="start" x="538" y="-967" font-family="Helvetica,sans-Serif" font-size="10.00"> </text>
<polygon fill="#666666" stroke="#666666" points="458.5,-992 458.5,-992 621.5,-992 621.5,-992 458.5,-992"/>
<polygon fill="#666666" stroke="#666666" points="458.5,-977 458.5,-977 621.5,-977 621.5,-977 458.5,-977"/>
<polygon fill="none" stroke="#666666" points="458,-960.5 458,-1009.5 621,-1009.5 621,-960.5 458,-960.5"/>
</a>
</g>
</g>
<!-- Node5&#45;&gt;Node7 -->
<g id="edge8_Node000007_Node000005" class="edge">
<title>Node5&#45;&gt;Node7</title>
<g id="a_edge8_Node000007_Node000005"><a xlink:title=" ">
<path fill="none" stroke="orange" d="M403.32,-1093.08C423.81,-1085.26 449.9,-1073.66 470.5,-1059 488.4,-1046.26 505.4,-1028.38 518.04,-1013.5"/>
<polygon fill="orange" stroke="orange" points="401.92,-1089.87 393.75,-1096.61 404.34,-1096.43 401.92,-1089.87"/>
</a>
</g>
<text text-anchor="middle" x="563.5" y="-1045.5" font-family="Helvetica,sans-Serif" font-size="10.00" fill="grey"> &lt; E_Sys, E_NavMsgType &gt;</text>
</g>
<!-- Node6&#45;&gt;Node1 -->
<g id="edge5_Node000001_Node000006" class="edge">
<title>Node6&#45;&gt;Node1</title>
<g id="a_edge5_Node000001_Node000006"><a xlink:title=" ">
<path fill="none" stroke="#63b8ff" d="M366.46,-950.96C362.69,-910.43 355.96,-839.63 349.5,-779 349.29,-777.07 349.09,-775.14 348.88,-773.2"/>
<polygon fill="none" stroke="#63b8ff" points="348.88,-773.18 344.26,-767.64 347.6,-761.25 352.21,-766.79 348.88,-773.18"/>
</a>
</g>
<text text-anchor="middle" x="406.5" y="-853.5" font-family="Helvetica,sans-Serif" font-size="10.00" fill="grey"> +code_priorities</text>
</g>
<!-- Node7&#45;&gt;Node1 -->
<g id="edge7_Node000001_Node000007" class="edge">
<title>Node7&#45;&gt;Node1</title>
<g id="a_edge7_Node000001_Node000007"><a xlink:title=" ">
<path fill="none" stroke="#63b8ff" d="M528.59,-956.15C505.82,-898.02 451.22,-758.63 401.5,-631.7"/>
<polygon fill="none" stroke="#63b8ff" points="401.39,-631.42 395.48,-627.29 397.02,-620.24 402.93,-624.37 401.39,-631.42"/>
</a>
</g>
<text text-anchor="middle" x="565" y="-853.5" font-family="Helvetica,sans-Serif" font-size="10.00" fill="grey"> +used_nav_types</text>
</g>
<!-- Node8 -->
<g id="Node000008" class="node">
<title>Node8</title>
<g id="a_Node000008"><a xlink:title=" ">
<path fill="white" stroke="#666666" d="M770,-1013.5C770,-1013.5 659,-1013.5 659,-1013.5 653,-1013.5 647,-1007.5 647,-1001.5 647,-1001.5 647,-968.5 647,-968.5 647,-962.5 653,-956.5 659,-956.5 659,-956.5 770,-956.5 770,-956.5 776,-956.5 782,-962.5 782,-968.5 782,-968.5 782,-1001.5 782,-1001.5 782,-1007.5 776,-1013.5 770,-1013.5"/>
<text text-anchor="start" x="660.5" y="-997" font-family="Helvetica,sans-Serif" font-size="10.00">vector&lt; E_ObsCode &gt;</text>
<text text-anchor="start" x="713" y="-982" font-family="Helvetica,sans-Serif" font-size="10.00"> </text>
<text text-anchor="start" x="713" y="-967" font-family="Helvetica,sans-Serif" font-size="10.00"> </text>
<polygon fill="#666666" stroke="#666666" points="655.5,-992 655.5,-992 774.5,-992 774.5,-992 655.5,-992"/>
<polygon fill="#666666" stroke="#666666" points="655.5,-977 655.5,-977 774.5,-977 774.5,-977 655.5,-977"/>
<polygon fill="none" stroke="#666666" points="655,-960.5 655,-1009.5 774,-1009.5 774,-960.5 655,-960.5"/>
</a>
</g>
</g>
<!-- Node8&#45;&gt;Node1 -->
<g id="edge9_Node000001_Node000008" class="edge">
<title>Node8&#45;&gt;Node1</title>
<g id="a_edge9_Node000001_Node000008"><a xlink:title=" ">
<path fill="none" stroke="#63b8ff" d="M703.14,-956.17C686.19,-915.8 652.19,-839.27 614.5,-779 552,-679.06 469.3,-574.38 404.89,-497.55"/>
<polygon fill="none" stroke="#63b8ff" points="404.85,-497.5 397.93,-495.48 397.13,-488.32 404.05,-490.34 404.85,-497.5"/>
</a>
</g>
<text text-anchor="middle" x="755.5" y="-853.5" font-family="Helvetica,sans-Serif" font-size="10.00" fill="grey"> +code_priorities_default</text>
</g>
<!-- Node9 -->
<g id="Node000009" class="node">
<title>Node9</title>
<g id="a_Node000009"><a xlink:title=" ">
<path fill="white" stroke="#666666" d="M731,-1134C731,-1134 698,-1134 698,-1134 692,-1134 686,-1128 686,-1122 686,-1122 686,-1089 686,-1089 686,-1083 692,-1077 698,-1077 698,-1077 731,-1077 731,-1077 737,-1077 743,-1083 743,-1089 743,-1089 743,-1122 743,-1122 743,-1128 737,-1134 731,-1134"/>
<text text-anchor="start" x="699.5" y="-1117.5" font-family="Helvetica,sans-Serif" font-size="10.00">vector</text>
<text text-anchor="start" x="713" y="-1102.5" font-family="Helvetica,sans-Serif" font-size="10.00"> </text>
<text text-anchor="start" x="713" y="-1087.5" font-family="Helvetica,sans-Serif" font-size="10.00"> </text>
<polygon fill="#666666" stroke="#666666" points="694.5,-1112.5 694.5,-1112.5 735.5,-1112.5 735.5,-1112.5 694.5,-1112.5"/>
<polygon fill="#666666" stroke="#666666" points="694.5,-1097.5 694.5,-1097.5 735.5,-1097.5 735.5,-1097.5 694.5,-1097.5"/>
<polygon fill="none" stroke="#666666" points="694,-1081 694,-1130 735,-1130 735,-1081 694,-1081"/>
</a>
</g>
</g>
<!-- Node9&#45;&gt;Node8 -->
<g id="edge10_Node000008_Node000009" class="edge">
<title>Node9&#45;&gt;Node8</title>
<g id="a_edge10_Node000008_Node000009"><a xlink:title=" ">
<path fill="none" stroke="orange" d="M714.5,-1066.43C714.5,-1049.25 714.5,-1029.33 714.5,-1013.61"/>
<polygon fill="orange" stroke="orange" points="711,-1066.72 714.5,-1076.72 718,-1066.72 711,-1066.72"/>
</a>
</g>
<text text-anchor="middle" x="755" y="-1045.5" font-family="Helvetica,sans-Serif" font-size="10.00" fill="grey"> &lt; E_ObsCode &gt;</text>
</g>
</g>
</svg>
