<?xml version="1.0" encoding="UTF-8" standalone="no"?>
<!DOCTYPE svg PUBLIC "-//W3C//DTD SVG 1.1//EN"
 "http://www.w3.org/Graphics/SVG/1.1/DTD/svg11.dtd">
<!-- Generated by graphviz version 2.43.0 (0)
 -->
<!-- Title: IonexOptions Pages: 1 -->
<svg width="99pt" height="155pt"
 viewBox="0.00 0.00 99.00 155.00" xmlns="http://www.w3.org/2000/svg" xmlns:xlink="http://www.w3.org/1999/xlink">
<g id="graph0" class="graph" transform="scale(1 1) rotate(0) translate(4 151)">
<title>IonexOptions</title>
<!-- Node1 -->
<g id="Node000001" class="node">
<title>Node1</title>
<g id="a_Node000001"><a xlink:href="structIonexOptions.html" target="_top" xlink:title=" ">
<path fill="white" stroke="#666666" stroke-width="2" d="M79,-147C79,-147 12,-147 12,-147 6,-147 0,-141 0,-135 0,-135 0,-12 0,-12 0,-6 6,0 12,0 12,0 79,0 79,0 85,0 91,-6 91,-12 91,-12 91,-135 91,-135 91,-141 85,-147 79,-147"/>
<text text-anchor="start" x="13.5" y="-130.5" font-family="Helvetica,sans-Serif" font-size="10.00">IonexOptions</text>
<text text-anchor="start" x="13" y="-115.5" font-family="Helvetica,sans-Serif" font-size="10.00">+</text>
<text text-anchor="start" x="26.5" y="-115.5" font-family="Helvetica,sans-Serif" font-size="10.00">lat_centre</text>
<text text-anchor="start" x="13" y="-100.5" font-family="Helvetica,sans-Serif" font-size="10.00">+</text>
<text text-anchor="start" x="26.5" y="-100.5" font-family="Helvetica,sans-Serif" font-size="10.00">lon_centre</text>
<text text-anchor="start" x="13" y="-85.5" font-family="Helvetica,sans-Serif" font-size="10.00">+</text>
<text text-anchor="start" x="26.5" y="-85.5" font-family="Helvetica,sans-Serif" font-size="10.00">lat_width</text>
<text text-anchor="start" x="13" y="-70.5" font-family="Helvetica,sans-Serif" font-size="10.00">+</text>
<text text-anchor="start" x="26.5" y="-70.5" font-family="Helvetica,sans-Serif" font-size="10.00">lon_width</text>
<text text-anchor="start" x="13" y="-55.5" font-family="Helvetica,sans-Serif" font-size="10.00">+</text>
<text text-anchor="start" x="26.5" y="-55.5" font-family="Helvetica,sans-Serif" font-size="10.00">lat_res</text>
<text text-anchor="start" x="13" y="-40.5" font-family="Helvetica,sans-Serif" font-size="10.00">+</text>
<text text-anchor="start" x="26.5" y="-40.5" font-family="Helvetica,sans-Serif" font-size="10.00">lon_res</text>
<text text-anchor="start" x="13" y="-25.5" font-family="Helvetica,sans-Serif" font-size="10.00">+</text>
<text text-anchor="start" x="26.5" y="-25.5" font-family="Helvetica,sans-Serif" font-size="10.00">time_res</text>
<text text-anchor="start" x="44" y="-10.5" font-family="Helvetica,sans-Serif" font-size="10.00"> </text>
<polygon fill="#666666" stroke="#666666" points="8.5,-125.5 8.5,-125.5 83.5,-125.5 83.5,-125.5 8.5,-125.5"/>
<polygon fill="#666666" stroke="#666666" points="8.5,-20.5 8.5,-20.5 24.5,-20.5 24.5,-20.5 8.5,-20.5"/>
<polygon fill="#666666" stroke="#666666" points="24.5,-20.5 24.5,-20.5 83.5,-20.5 83.5,-20.5 24.5,-20.5"/>
<polygon fill="none" stroke="#666666" points="8,-4 8,-143 83,-143 83,-4 8,-4"/>
</a>
</g>
</g>
</g>
</svg>
