<?xml version="1.0" encoding="UTF-8" standalone="no"?>
<!DOCTYPE svg PUBLIC "-//W3C//DTD SVG 1.1//EN"
 "http://www.w3.org/Graphics/SVG/1.1/DTD/svg11.dtd">
<!-- Generated by graphviz version 2.43.0 (0)
 -->
<!-- Title: RtcmDecoder::adjGstWeek Pages: 1 -->
<svg width="367pt" height="27pt"
 viewBox="0.00 0.00 367.00 27.00" xmlns="http://www.w3.org/2000/svg" xmlns:xlink="http://www.w3.org/1999/xlink">
<g id="graph0" class="graph" transform="scale(1 1) rotate(0) translate(4 23)">
<title>RtcmDecoder::adjGstWeek</title>
<!-- Node1 -->
<g id="Node000001" class="node">
<title>Node1</title>
<g id="a_Node000001"><a xlink:href="structRtcmDecoder.html#a3f27b2fcee11a1266301ca9abec7d70d" target="_top" xlink:title="adjust GST week number according to RTCM time">
<path fill="#fff0f0" stroke="red" stroke-width="2" d="M352.67,-19C352.67,-19 218.33,-19 218.33,-19 215.17,-19 212,-15.83 212,-12.67 212,-12.67 212,-6.33 212,-6.33 212,-3.17 215.17,0 218.33,0 218.33,0 352.67,0 352.67,0 355.83,0 359,-3.17 359,-6.33 359,-6.33 359,-12.67 359,-12.67 359,-15.83 355.83,-19 352.67,-19"/>
<text text-anchor="middle" x="285.5" y="-7" font-family="Helvetica,sans-Serif" font-size="10.00">RtcmDecoder::adjGstWeek</text>
</a>
</g>
</g>
<!-- Node2 -->
<g id="Node000002" class="node">
<title>Node2</title>
<g id="a_Node000002"><a xlink:href="structRtcmDecoder.html#a424082e15bbf15120f1fc5f0635b01b9" target="_top" xlink:title="decode RTCM navigation messages">
<path fill="#fff0f0" stroke="red" d="M169.67,-19C169.67,-19 6.33,-19 6.33,-19 3.17,-19 0,-15.83 0,-12.67 0,-12.67 0,-6.33 0,-6.33 0,-3.17 3.17,0 6.33,0 6.33,0 169.67,0 169.67,0 172.83,0 176,-3.17 176,-6.33 176,-6.33 176,-12.67 176,-12.67 176,-15.83 172.83,-19 169.67,-19"/>
<text text-anchor="middle" x="88" y="-7" font-family="Helvetica,sans-Serif" font-size="10.00">RtcmDecoder::decodeEphemeris</text>
</a>
</g>
</g>
<!-- Node1&#45;&gt;Node2 -->
<g id="edge1_Node000001_Node000002" class="edge">
<title>Node1&#45;&gt;Node2</title>
<g id="a_edge1_Node000001_Node000002"><a xlink:title=" ">
<path fill="none" stroke="#63b8ff" d="M201.79,-9.5C193.35,-9.5 184.77,-9.5 176.29,-9.5"/>
<polygon fill="#63b8ff" stroke="#63b8ff" points="201.98,-13 211.98,-9.5 201.98,-6 201.98,-13"/>
</a>
</g>
</g>
</g>
</svg>
