<?xml version="1.0" encoding="UTF-8" standalone="no"?>
<!DOCTYPE svg PUBLIC "-//W3C//DTD SVG 1.1//EN"
 "http://www.w3.org/Graphics/SVG/1.1/DTD/svg11.dtd">
<!-- Generated by graphviz version 2.43.0 (0)
 -->
<!-- Title: SlrOptions Pages: 1 -->
<svg width="100pt" height="65pt"
 viewBox="0.00 0.00 100.00 65.00" xmlns="http://www.w3.org/2000/svg" xmlns:xlink="http://www.w3.org/1999/xlink">
<g id="graph0" class="graph" transform="scale(1 1) rotate(0) translate(4 61)">
<title>SlrOptions</title>
<!-- Node1 -->
<g id="Node000001" class="node">
<title>Node1</title>
<g id="a_Node000001"><a xlink:href="structSlrOptions.html" target="_top" xlink:title="Options for processing SLR observations.">
<path fill="white" stroke="#666666" stroke-width="2" d="M80,-57C80,-57 12,-57 12,-57 6,-57 0,-51 0,-45 0,-45 0,-12 0,-12 0,-6 6,0 12,0 12,0 80,0 80,0 86,0 92,-6 92,-12 92,-12 92,-45 92,-45 92,-51 86,-57 80,-57"/>
<text text-anchor="start" x="20.5" y="-40.5" font-family="Helvetica,sans-Serif" font-size="10.00">SlrOptions</text>
<text text-anchor="start" x="12" y="-25.5" font-family="Helvetica,sans-Serif" font-size="10.00">+</text>
<text text-anchor="start" x="25" y="-25.5" font-family="Helvetica,sans-Serif" font-size="10.00">process_slr</text>
<text text-anchor="start" x="44" y="-10.5" font-family="Helvetica,sans-Serif" font-size="10.00"> </text>
<polygon fill="#666666" stroke="#666666" points="8,-35.5 8,-35.5 84,-35.5 84,-35.5 8,-35.5"/>
<polygon fill="#666666" stroke="#666666" points="8,-20.5 8,-20.5 23,-20.5 23,-20.5 8,-20.5"/>
<polygon fill="#666666" stroke="#666666" points="23,-20.5 23,-20.5 84,-20.5 84,-20.5 23,-20.5"/>
<polygon fill="none" stroke="#666666" points="8,-4 8,-53 84,-53 84,-4 8,-4"/>
</a>
</g>
</g>
</g>
</svg>
