<?xml version="1.0" encoding="UTF-8" standalone="no"?>
<!DOCTYPE svg PUBLIC "-//W3C//DTD SVG 1.1//EN"
 "http://www.w3.org/Graphics/SVG/1.1/DTD/svg11.dtd">
<!-- Generated by graphviz version 2.43.0 (0)
 -->
<!-- Title: ReceiverKalmans Pages: 1 -->
<svg width="401pt" height="1623pt"
 viewBox="0.00 0.00 400.50 1623.00" xmlns="http://www.w3.org/2000/svg" xmlns:xlink="http://www.w3.org/1999/xlink">
<g id="graph0" class="graph" transform="scale(1 1) rotate(0) translate(4 1619)">
<title>ReceiverKalmans</title>
<!-- Node1 -->
<g id="Node000001" class="node">
<title>Node1</title>
<g id="a_Node000001"><a xlink:href="structReceiverKalmans.html" target="_top" xlink:title=" ">
<path fill="white" stroke="#666666" stroke-width="2" d="M246,-937C246,-937 158,-937 158,-937 152,-937 146,-931 146,-925 146,-925 146,-757 146,-757 146,-751 152,-745 158,-745 158,-745 246,-745 246,-745 252,-745 258,-751 258,-757 258,-757 258,-925 258,-925 258,-931 252,-937 246,-937"/>
<text text-anchor="start" x="159" y="-921" font-family="Helvetica,sans-Serif" font-size="10.00">ReceiverKalmans</text>
<text text-anchor="start" x="159" y="-906" font-family="Helvetica,sans-Serif" font-size="10.00">+</text>
<text text-anchor="start" x="173" y="-906" font-family="Helvetica,sans-Serif" font-size="10.00">ambiguity</text>
<text text-anchor="start" x="159" y="-891" font-family="Helvetica,sans-Serif" font-size="10.00">+</text>
<text text-anchor="start" x="173" y="-891" font-family="Helvetica,sans-Serif" font-size="10.00">strain_rate</text>
<text text-anchor="start" x="159" y="-876" font-family="Helvetica,sans-Serif" font-size="10.00">+</text>
<text text-anchor="start" x="173" y="-876" font-family="Helvetica,sans-Serif" font-size="10.00">slr_range_bias</text>
<text text-anchor="start" x="159" y="-861" font-family="Helvetica,sans-Serif" font-size="10.00">+</text>
<text text-anchor="start" x="173" y="-861" font-family="Helvetica,sans-Serif" font-size="10.00">slr_time_bias</text>
<text text-anchor="start" x="159" y="-846" font-family="Helvetica,sans-Serif" font-size="10.00">+</text>
<text text-anchor="start" x="173" y="-846" font-family="Helvetica,sans-Serif" font-size="10.00">pcv</text>
<text text-anchor="start" x="159" y="-831" font-family="Helvetica,sans-Serif" font-size="10.00">+</text>
<text text-anchor="start" x="173" y="-831" font-family="Helvetica,sans-Serif" font-size="10.00">ion_stec</text>
<text text-anchor="start" x="159" y="-816" font-family="Helvetica,sans-Serif" font-size="10.00">+</text>
<text text-anchor="start" x="173" y="-816" font-family="Helvetica,sans-Serif" font-size="10.00">ion_model</text>
<text text-anchor="start" x="159" y="-801" font-family="Helvetica,sans-Serif" font-size="10.00">+</text>
<text text-anchor="start" x="173" y="-801" font-family="Helvetica,sans-Serif" font-size="10.00">trop</text>
<text text-anchor="start" x="159" y="-786" font-family="Helvetica,sans-Serif" font-size="10.00">+</text>
<text text-anchor="start" x="173" y="-786" font-family="Helvetica,sans-Serif" font-size="10.00">trop_grads</text>
<text text-anchor="start" x="159" y="-771" font-family="Helvetica,sans-Serif" font-size="10.00">+</text>
<text text-anchor="start" x="173" y="-771" font-family="Helvetica,sans-Serif" font-size="10.00">trop_maps</text>
<text text-anchor="start" x="159" y="-756" font-family="Helvetica,sans-Serif" font-size="10.00">+</text>
<text text-anchor="start" x="173" y="-756" font-family="Helvetica,sans-Serif" font-size="10.00">operator+=()</text>
<polygon fill="#666666" stroke="#666666" points="154,-916 154,-916 250,-916 250,-916 154,-916"/>
<polygon fill="#666666" stroke="#666666" points="154,-766 154,-766 171,-766 171,-766 154,-766"/>
<polygon fill="#666666" stroke="#666666" points="171,-766 171,-766 250,-766 250,-766 171,-766"/>
<polygon fill="none" stroke="#666666" points="154,-749 154,-933 250,-933 250,-749 154,-749"/>
</a>
</g>
</g>
<!-- Node5 -->
<g id="Node000005" class="node">
<title>Node5</title>
<g id="a_Node000005"><a xlink:href="structReceiverOptions.html" target="_top" xlink:title="Options to be applied to kalman filter states for individual receivers.">
<path fill="white" stroke="#666666" d="M272,-709C272,-709 132,-709 132,-709 126,-709 120,-703 120,-697 120,-697 120,-12 120,-12 120,-6 126,0 132,0 132,0 272,0 272,0 278,0 284,-6 284,-12 284,-12 284,-697 284,-697 284,-703 278,-709 272,-709"/>
<text text-anchor="start" x="161.5" y="-692.5" font-family="Helvetica,sans-Serif" font-size="10.00">ReceiverOptions</text>
<text text-anchor="start" x="132" y="-677.5" font-family="Helvetica,sans-Serif" font-size="10.00">+</text>
<text text-anchor="start" x="145" y="-677.5" font-family="Helvetica,sans-Serif" font-size="10.00">_initialised</text>
<text text-anchor="start" x="132" y="-662.5" font-family="Helvetica,sans-Serif" font-size="10.00">+</text>
<text text-anchor="start" x="145" y="-662.5" font-family="Helvetica,sans-Serif" font-size="10.00">id</text>
<text text-anchor="start" x="132" y="-647.5" font-family="Helvetica,sans-Serif" font-size="10.00">+</text>
<text text-anchor="start" x="145" y="-647.5" font-family="Helvetica,sans-Serif" font-size="10.00">rinex23Conv</text>
<text text-anchor="start" x="132" y="-632.5" font-family="Helvetica,sans-Serif" font-size="10.00">+</text>
<text text-anchor="start" x="145" y="-632.5" font-family="Helvetica,sans-Serif" font-size="10.00">kill</text>
<text text-anchor="start" x="132" y="-617.5" font-family="Helvetica,sans-Serif" font-size="10.00">+</text>
<text text-anchor="start" x="145" y="-617.5" font-family="Helvetica,sans-Serif" font-size="10.00">zero_dcb_codes</text>
<text text-anchor="start" x="132" y="-602.5" font-family="Helvetica,sans-Serif" font-size="10.00">+</text>
<text text-anchor="start" x="145" y="-602.5" font-family="Helvetica,sans-Serif" font-size="10.00">apriori_pos</text>
<text text-anchor="start" x="132" y="-587.5" font-family="Helvetica,sans-Serif" font-size="10.00">+</text>
<text text-anchor="start" x="145" y="-587.5" font-family="Helvetica,sans-Serif" font-size="10.00">antenna_type</text>
<text text-anchor="start" x="132" y="-572.5" font-family="Helvetica,sans-Serif" font-size="10.00">+</text>
<text text-anchor="start" x="145" y="-572.5" font-family="Helvetica,sans-Serif" font-size="10.00">receiver_type</text>
<text text-anchor="start" x="132" y="-557.5" font-family="Helvetica,sans-Serif" font-size="10.00">+</text>
<text text-anchor="start" x="145" y="-557.5" font-family="Helvetica,sans-Serif" font-size="10.00">sat_id</text>
<text text-anchor="start" x="132" y="-542.5" font-family="Helvetica,sans-Serif" font-size="10.00">+</text>
<text text-anchor="start" x="145" y="-542.5" font-family="Helvetica,sans-Serif" font-size="10.00">elevation_mask_deg</text>
<text text-anchor="start" x="132" y="-527.5" font-family="Helvetica,sans-Serif" font-size="10.00">+</text>
<text text-anchor="start" x="145" y="-527.5" font-family="Helvetica,sans-Serif" font-size="10.00">receiver_reference</text>
<text text-anchor="start" x="145" y="-516.5" font-family="Helvetica,sans-Serif" font-size="10.00">_system</text>
<text text-anchor="start" x="132" y="-501.5" font-family="Helvetica,sans-Serif" font-size="10.00">+</text>
<text text-anchor="start" x="145" y="-501.5" font-family="Helvetica,sans-Serif" font-size="10.00">enable</text>
<text text-anchor="start" x="132" y="-486.5" font-family="Helvetica,sans-Serif" font-size="10.00">+</text>
<text text-anchor="start" x="145" y="-486.5" font-family="Helvetica,sans-Serif" font-size="10.00">eccentricity</text>
<text text-anchor="start" x="132" y="-471.5" font-family="Helvetica,sans-Serif" font-size="10.00">+</text>
<text text-anchor="start" x="145" y="-471.5" font-family="Helvetica,sans-Serif" font-size="10.00">eccentricityModel</text>
<text text-anchor="start" x="132" y="-456.5" font-family="Helvetica,sans-Serif" font-size="10.00">+</text>
<text text-anchor="start" x="145" y="-456.5" font-family="Helvetica,sans-Serif" font-size="10.00">models</text>
<text text-anchor="start" x="132" y="-441.5" font-family="Helvetica,sans-Serif" font-size="10.00">+</text>
<text text-anchor="start" x="145" y="-441.5" font-family="Helvetica,sans-Serif" font-size="10.00">tropModel</text>
<text text-anchor="start" x="132" y="-426.5" font-family="Helvetica,sans-Serif" font-size="10.00">+</text>
<text text-anchor="start" x="145" y="-426.5" font-family="Helvetica,sans-Serif" font-size="10.00">solid</text>
<text text-anchor="start" x="132" y="-411.5" font-family="Helvetica,sans-Serif" font-size="10.00">+</text>
<text text-anchor="start" x="145" y="-411.5" font-family="Helvetica,sans-Serif" font-size="10.00">otl</text>
<text text-anchor="start" x="132" y="-396.5" font-family="Helvetica,sans-Serif" font-size="10.00">+</text>
<text text-anchor="start" x="145" y="-396.5" font-family="Helvetica,sans-Serif" font-size="10.00">atl</text>
<text text-anchor="start" x="132" y="-381.5" font-family="Helvetica,sans-Serif" font-size="10.00">+</text>
<text text-anchor="start" x="145" y="-381.5" font-family="Helvetica,sans-Serif" font-size="10.00">spole</text>
<text text-anchor="start" x="132" y="-366.5" font-family="Helvetica,sans-Serif" font-size="10.00">+</text>
<text text-anchor="start" x="145" y="-366.5" font-family="Helvetica,sans-Serif" font-size="10.00">opole</text>
<text text-anchor="start" x="132" y="-351.5" font-family="Helvetica,sans-Serif" font-size="10.00">+</text>
<text text-anchor="start" x="145" y="-351.5" font-family="Helvetica,sans-Serif" font-size="10.00">tideModels</text>
<text text-anchor="start" x="132" y="-336.5" font-family="Helvetica,sans-Serif" font-size="10.00">+</text>
<text text-anchor="start" x="145" y="-336.5" font-family="Helvetica,sans-Serif" font-size="10.00">range</text>
<text text-anchor="start" x="132" y="-321.5" font-family="Helvetica,sans-Serif" font-size="10.00">+</text>
<text text-anchor="start" x="145" y="-321.5" font-family="Helvetica,sans-Serif" font-size="10.00">relativity</text>
<text text-anchor="start" x="132" y="-306.5" font-family="Helvetica,sans-Serif" font-size="10.00">+</text>
<text text-anchor="start" x="145" y="-306.5" font-family="Helvetica,sans-Serif" font-size="10.00">relativity2</text>
<text text-anchor="start" x="132" y="-291.5" font-family="Helvetica,sans-Serif" font-size="10.00">+</text>
<text text-anchor="start" x="145" y="-291.5" font-family="Helvetica,sans-Serif" font-size="10.00">sagnac</text>
<text text-anchor="start" x="132" y="-276.5" font-family="Helvetica,sans-Serif" font-size="10.00">+</text>
<text text-anchor="start" x="145" y="-276.5" font-family="Helvetica,sans-Serif" font-size="10.00">integer_ambiguity</text>
<text text-anchor="start" x="132" y="-261.5" font-family="Helvetica,sans-Serif" font-size="10.00">+</text>
<text text-anchor="start" x="145" y="-261.5" font-family="Helvetica,sans-Serif" font-size="10.00">ionospheric_component</text>
<text text-anchor="start" x="132" y="-246.5" font-family="Helvetica,sans-Serif" font-size="10.00">+</text>
<text text-anchor="start" x="145" y="-246.5" font-family="Helvetica,sans-Serif" font-size="10.00">ionospheric_component2</text>
<text text-anchor="start" x="132" y="-231.5" font-family="Helvetica,sans-Serif" font-size="10.00">+</text>
<text text-anchor="start" x="145" y="-231.5" font-family="Helvetica,sans-Serif" font-size="10.00">ionospheric_component3</text>
<text text-anchor="start" x="132" y="-216.5" font-family="Helvetica,sans-Serif" font-size="10.00">+</text>
<text text-anchor="start" x="145" y="-216.5" font-family="Helvetica,sans-Serif" font-size="10.00">ionospheric_model</text>
<text text-anchor="start" x="132" y="-201.5" font-family="Helvetica,sans-Serif" font-size="10.00">+</text>
<text text-anchor="start" x="145" y="-201.5" font-family="Helvetica,sans-Serif" font-size="10.00">tropospheric_map</text>
<text text-anchor="start" x="132" y="-186.5" font-family="Helvetica,sans-Serif" font-size="10.00">+</text>
<text text-anchor="start" x="145" y="-186.5" font-family="Helvetica,sans-Serif" font-size="10.00">eop</text>
<text text-anchor="start" x="132" y="-171.5" font-family="Helvetica,sans-Serif" font-size="10.00">+</text>
<text text-anchor="start" x="145" y="-171.5" font-family="Helvetica,sans-Serif" font-size="10.00">mapping_function</text>
<text text-anchor="start" x="132" y="-156.5" font-family="Helvetica,sans-Serif" font-size="10.00">+</text>
<text text-anchor="start" x="145" y="-156.5" font-family="Helvetica,sans-Serif" font-size="10.00">geomagnetic_field_height</text>
<text text-anchor="start" x="132" y="-141.5" font-family="Helvetica,sans-Serif" font-size="10.00">+</text>
<text text-anchor="start" x="145" y="-141.5" font-family="Helvetica,sans-Serif" font-size="10.00">mapping_function_layer</text>
<text text-anchor="start" x="145" y="-130.5" font-family="Helvetica,sans-Serif" font-size="10.00">_height</text>
<text text-anchor="start" x="132" y="-115.5" font-family="Helvetica,sans-Serif" font-size="10.00">+</text>
<text text-anchor="start" x="145" y="-115.5" font-family="Helvetica,sans-Serif" font-size="10.00">iono_sigma_limit</text>
<text text-anchor="start" x="132" y="-100.5" font-family="Helvetica,sans-Serif" font-size="10.00">+</text>
<text text-anchor="start" x="145" y="-100.5" font-family="Helvetica,sans-Serif" font-size="10.00">error_model</text>
<text text-anchor="start" x="132" y="-85.5" font-family="Helvetica,sans-Serif" font-size="10.00">+</text>
<text text-anchor="start" x="145" y="-85.5" font-family="Helvetica,sans-Serif" font-size="10.00">code_sigma</text>
<text text-anchor="start" x="132" y="-70.5" font-family="Helvetica,sans-Serif" font-size="10.00">+</text>
<text text-anchor="start" x="145" y="-70.5" font-family="Helvetica,sans-Serif" font-size="10.00">phase_sigma</text>
<text text-anchor="start" x="132" y="-55.5" font-family="Helvetica,sans-Serif" font-size="10.00">+</text>
<text text-anchor="start" x="145" y="-55.5" font-family="Helvetica,sans-Serif" font-size="10.00">inheritors</text>
<text text-anchor="start" x="132" y="-40.5" font-family="Helvetica,sans-Serif" font-size="10.00">+</text>
<text text-anchor="start" x="145" y="-40.5" font-family="Helvetica,sans-Serif" font-size="10.00">inheritedFrom</text>
<text text-anchor="start" x="132" y="-25.5" font-family="Helvetica,sans-Serif" font-size="10.00">+</text>
<text text-anchor="start" x="145" y="-25.5" font-family="Helvetica,sans-Serif" font-size="10.00">initialisedMap</text>
<text text-anchor="start" x="132" y="-10.5" font-family="Helvetica,sans-Serif" font-size="10.00">+</text>
<text text-anchor="start" x="145" y="-10.5" font-family="Helvetica,sans-Serif" font-size="10.00">operator+=()</text>
<polygon fill="#666666" stroke="#666666" points="128,-687.5 128,-687.5 276,-687.5 276,-687.5 128,-687.5"/>
<polygon fill="#666666" stroke="#666666" points="128,-20.5 128,-20.5 143,-20.5 143,-20.5 128,-20.5"/>
<polygon fill="#666666" stroke="#666666" points="143,-20.5 143,-20.5 276,-20.5 276,-20.5 143,-20.5"/>
<polygon fill="none" stroke="#666666" points="128,-4 128,-705 276,-705 276,-4 128,-4"/>
</a>
</g>
</g>
<!-- Node1&#45;&gt;Node5 -->
<g id="edge4_Node000001_Node000005" class="edge">
<title>Node1&#45;&gt;Node5</title>
<g id="a_edge4_Node000001_Node000005"><a xlink:title=" ">
<path fill="none" stroke="#63b8ff" d="M202,-734.62C202,-726.4 202,-717.86 202,-709.08"/>
<polygon fill="none" stroke="#63b8ff" points="198.5,-734.86 202,-744.86 205.5,-734.86 198.5,-734.86"/>
</a>
</g>
</g>
<!-- Node2 -->
<g id="Node000002" class="node">
<title>Node2</title>
<g id="a_Node000002"><a xlink:href="structCommonKalmans.html" target="_top" xlink:title=" ">
<path fill="white" stroke="#666666" d="M102,-1382.5C102,-1382.5 12,-1382.5 12,-1382.5 6,-1382.5 0,-1376.5 0,-1370.5 0,-1370.5 0,-1217.5 0,-1217.5 0,-1211.5 6,-1205.5 12,-1205.5 12,-1205.5 102,-1205.5 102,-1205.5 108,-1205.5 114,-1211.5 114,-1217.5 114,-1217.5 114,-1370.5 114,-1370.5 114,-1376.5 108,-1382.5 102,-1382.5"/>
<text text-anchor="start" x="13" y="-1366" font-family="Helvetica,sans-Serif" font-size="10.00">CommonKalmans</text>
<text text-anchor="start" x="14.5" y="-1351" font-family="Helvetica,sans-Serif" font-size="10.00">+</text>
<text text-anchor="start" x="30" y="-1351" font-family="Helvetica,sans-Serif" font-size="10.00">pos</text>
<text text-anchor="start" x="14.5" y="-1336" font-family="Helvetica,sans-Serif" font-size="10.00">+</text>
<text text-anchor="start" x="30" y="-1336" font-family="Helvetica,sans-Serif" font-size="10.00">pos_rate</text>
<text text-anchor="start" x="14.5" y="-1321" font-family="Helvetica,sans-Serif" font-size="10.00">+</text>
<text text-anchor="start" x="30" y="-1321" font-family="Helvetica,sans-Serif" font-size="10.00">orbit</text>
<text text-anchor="start" x="14.5" y="-1306" font-family="Helvetica,sans-Serif" font-size="10.00">+</text>
<text text-anchor="start" x="30" y="-1306" font-family="Helvetica,sans-Serif" font-size="10.00">clk</text>
<text text-anchor="start" x="14.5" y="-1291" font-family="Helvetica,sans-Serif" font-size="10.00">+</text>
<text text-anchor="start" x="30" y="-1291" font-family="Helvetica,sans-Serif" font-size="10.00">clk_rate</text>
<text text-anchor="start" x="14.5" y="-1276" font-family="Helvetica,sans-Serif" font-size="10.00">+</text>
<text text-anchor="start" x="30" y="-1276" font-family="Helvetica,sans-Serif" font-size="10.00">code_bias</text>
<text text-anchor="start" x="14.5" y="-1261" font-family="Helvetica,sans-Serif" font-size="10.00">+</text>
<text text-anchor="start" x="30" y="-1261" font-family="Helvetica,sans-Serif" font-size="10.00">phase_bias</text>
<text text-anchor="start" x="14.5" y="-1246" font-family="Helvetica,sans-Serif" font-size="10.00">+</text>
<text text-anchor="start" x="30" y="-1246" font-family="Helvetica,sans-Serif" font-size="10.00">pco</text>
<text text-anchor="start" x="14.5" y="-1231" font-family="Helvetica,sans-Serif" font-size="10.00">+</text>
<text text-anchor="start" x="30" y="-1231" font-family="Helvetica,sans-Serif" font-size="10.00">ant_delta</text>
<text text-anchor="start" x="14.5" y="-1216" font-family="Helvetica,sans-Serif" font-size="10.00">+</text>
<text text-anchor="start" x="30" y="-1216" font-family="Helvetica,sans-Serif" font-size="10.00">operator+=()</text>
<polygon fill="#666666" stroke="#666666" points="8,-1361 8,-1361 106,-1361 106,-1361 8,-1361"/>
<polygon fill="#666666" stroke="#666666" points="8,-1226 8,-1226 28,-1226 28,-1226 8,-1226"/>
<polygon fill="#666666" stroke="#666666" points="28,-1226 28,-1226 106,-1226 106,-1226 28,-1226"/>
<polygon fill="none" stroke="#666666" points="8,-1209.5 8,-1378.5 106,-1378.5 106,-1209.5 8,-1209.5"/>
</a>
</g>
</g>
<!-- Node2&#45;&gt;Node1 -->
<g id="edge1_Node000001_Node000002" class="edge">
<title>Node2&#45;&gt;Node1</title>
<g id="a_edge1_Node000001_Node000002"><a xlink:title=" ">
<path fill="none" stroke="#63b8ff" d="M68.38,-1195.3C78.02,-1130.63 94.89,-1044.83 123,-973 129.24,-957.05 137.35,-940.82 146,-925.46"/>
<polygon fill="none" stroke="#63b8ff" points="64.88,-1195.09 66.9,-1205.49 71.8,-1196.1 64.88,-1195.09"/>
</a>
</g>
</g>
<!-- Node3 -->
<g id="Node000003" class="node">
<title>Node3</title>
<g id="a_Node000003"><a xlink:href="structInertialKalmans.html" target="_top" xlink:title=" ">
<path fill="white" stroke="#666666" d="M259.5,-1360C259.5,-1360 144.5,-1360 144.5,-1360 138.5,-1360 132.5,-1354 132.5,-1348 132.5,-1348 132.5,-1240 132.5,-1240 132.5,-1234 138.5,-1228 144.5,-1228 144.5,-1228 259.5,-1228 259.5,-1228 265.5,-1228 271.5,-1234 271.5,-1240 271.5,-1240 271.5,-1348 271.5,-1348 271.5,-1354 265.5,-1360 259.5,-1360"/>
<text text-anchor="start" x="163.5" y="-1344" font-family="Helvetica,sans-Serif" font-size="10.00">InertialKalmans</text>
<text text-anchor="start" x="145" y="-1329" font-family="Helvetica,sans-Serif" font-size="10.00">+</text>
<text text-anchor="start" x="158" y="-1329" font-family="Helvetica,sans-Serif" font-size="10.00">accelerometer_scale</text>
<text text-anchor="start" x="145" y="-1314" font-family="Helvetica,sans-Serif" font-size="10.00">+</text>
<text text-anchor="start" x="158" y="-1314" font-family="Helvetica,sans-Serif" font-size="10.00">accelerometer_bias</text>
<text text-anchor="start" x="145" y="-1299" font-family="Helvetica,sans-Serif" font-size="10.00">+</text>
<text text-anchor="start" x="158" y="-1299" font-family="Helvetica,sans-Serif" font-size="10.00">orientation</text>
<text text-anchor="start" x="145" y="-1284" font-family="Helvetica,sans-Serif" font-size="10.00">+</text>
<text text-anchor="start" x="158" y="-1284" font-family="Helvetica,sans-Serif" font-size="10.00">imu_offset</text>
<text text-anchor="start" x="145" y="-1269" font-family="Helvetica,sans-Serif" font-size="10.00">+</text>
<text text-anchor="start" x="158" y="-1269" font-family="Helvetica,sans-Serif" font-size="10.00">gyro_scale</text>
<text text-anchor="start" x="145" y="-1254" font-family="Helvetica,sans-Serif" font-size="10.00">+</text>
<text text-anchor="start" x="158" y="-1254" font-family="Helvetica,sans-Serif" font-size="10.00">gyro_bias</text>
<text text-anchor="start" x="145" y="-1239" font-family="Helvetica,sans-Serif" font-size="10.00">+</text>
<text text-anchor="start" x="158" y="-1239" font-family="Helvetica,sans-Serif" font-size="10.00">operator+=()</text>
<polygon fill="#666666" stroke="#666666" points="141,-1339 141,-1339 264,-1339 264,-1339 141,-1339"/>
<polygon fill="#666666" stroke="#666666" points="141,-1249 141,-1249 156,-1249 156,-1249 141,-1249"/>
<polygon fill="#666666" stroke="#666666" points="156,-1249 156,-1249 264,-1249 264,-1249 156,-1249"/>
<polygon fill="none" stroke="#666666" points="140.5,-1232 140.5,-1356 263.5,-1356 263.5,-1232 140.5,-1232"/>
</a>
</g>
</g>
<!-- Node3&#45;&gt;Node1 -->
<g id="edge2_Node000001_Node000003" class="edge">
<title>Node3&#45;&gt;Node1</title>
<g id="a_edge2_Node000001_Node000003"><a xlink:title=" ">
<path fill="none" stroke="#63b8ff" d="M202,-1217.8C202,-1140.84 202,-1020.98 202,-937.39"/>
<polygon fill="none" stroke="#63b8ff" points="198.5,-1217.9 202,-1227.9 205.5,-1217.9 198.5,-1217.9"/>
</a>
</g>
</g>
<!-- Node4 -->
<g id="Node000004" class="node">
<title>Node4</title>
<g id="a_Node000004"><a xlink:href="structEmpKalmans.html" target="_top" xlink:title=" ">
<path fill="white" stroke="#666666" d="M380.5,-1615C380.5,-1615 301.5,-1615 301.5,-1615 295.5,-1615 289.5,-1609 289.5,-1603 289.5,-1603 289.5,-985 289.5,-985 289.5,-979 295.5,-973 301.5,-973 301.5,-973 380.5,-973 380.5,-973 386.5,-973 392.5,-979 392.5,-985 392.5,-985 392.5,-1603 392.5,-1603 392.5,-1609 386.5,-1615 380.5,-1615"/>
<text text-anchor="start" x="309" y="-1599" font-family="Helvetica,sans-Serif" font-size="10.00">EmpKalmans</text>
<text text-anchor="start" x="302" y="-1584" font-family="Helvetica,sans-Serif" font-size="10.00">+</text>
<text text-anchor="start" x="315" y="-1584" font-family="Helvetica,sans-Serif" font-size="10.00">emp_d_0</text>
<text text-anchor="start" x="302" y="-1569" font-family="Helvetica,sans-Serif" font-size="10.00">+</text>
<text text-anchor="start" x="315" y="-1569" font-family="Helvetica,sans-Serif" font-size="10.00">emp_d_1</text>
<text text-anchor="start" x="302" y="-1554" font-family="Helvetica,sans-Serif" font-size="10.00">+</text>
<text text-anchor="start" x="315" y="-1554" font-family="Helvetica,sans-Serif" font-size="10.00">emp_d_2</text>
<text text-anchor="start" x="302" y="-1539" font-family="Helvetica,sans-Serif" font-size="10.00">+</text>
<text text-anchor="start" x="315" y="-1539" font-family="Helvetica,sans-Serif" font-size="10.00">emp_d_3</text>
<text text-anchor="start" x="302" y="-1524" font-family="Helvetica,sans-Serif" font-size="10.00">+</text>
<text text-anchor="start" x="315" y="-1524" font-family="Helvetica,sans-Serif" font-size="10.00">emp_d_4</text>
<text text-anchor="start" x="302" y="-1509" font-family="Helvetica,sans-Serif" font-size="10.00">+</text>
<text text-anchor="start" x="315" y="-1509" font-family="Helvetica,sans-Serif" font-size="10.00">emp_y_0</text>
<text text-anchor="start" x="302" y="-1494" font-family="Helvetica,sans-Serif" font-size="10.00">+</text>
<text text-anchor="start" x="315" y="-1494" font-family="Helvetica,sans-Serif" font-size="10.00">emp_y_1</text>
<text text-anchor="start" x="302" y="-1479" font-family="Helvetica,sans-Serif" font-size="10.00">+</text>
<text text-anchor="start" x="315" y="-1479" font-family="Helvetica,sans-Serif" font-size="10.00">emp_y_2</text>
<text text-anchor="start" x="302" y="-1464" font-family="Helvetica,sans-Serif" font-size="10.00">+</text>
<text text-anchor="start" x="315" y="-1464" font-family="Helvetica,sans-Serif" font-size="10.00">emp_y_3</text>
<text text-anchor="start" x="302" y="-1449" font-family="Helvetica,sans-Serif" font-size="10.00">+</text>
<text text-anchor="start" x="315" y="-1449" font-family="Helvetica,sans-Serif" font-size="10.00">emp_y_4</text>
<text text-anchor="start" x="302" y="-1434" font-family="Helvetica,sans-Serif" font-size="10.00">+</text>
<text text-anchor="start" x="315" y="-1434" font-family="Helvetica,sans-Serif" font-size="10.00">emp_b_0</text>
<text text-anchor="start" x="302" y="-1419" font-family="Helvetica,sans-Serif" font-size="10.00">+</text>
<text text-anchor="start" x="315" y="-1419" font-family="Helvetica,sans-Serif" font-size="10.00">emp_b_1</text>
<text text-anchor="start" x="302" y="-1404" font-family="Helvetica,sans-Serif" font-size="10.00">+</text>
<text text-anchor="start" x="315" y="-1404" font-family="Helvetica,sans-Serif" font-size="10.00">emp_b_2</text>
<text text-anchor="start" x="302" y="-1389" font-family="Helvetica,sans-Serif" font-size="10.00">+</text>
<text text-anchor="start" x="315" y="-1389" font-family="Helvetica,sans-Serif" font-size="10.00">emp_b_3</text>
<text text-anchor="start" x="302" y="-1374" font-family="Helvetica,sans-Serif" font-size="10.00">+</text>
<text text-anchor="start" x="315" y="-1374" font-family="Helvetica,sans-Serif" font-size="10.00">emp_b_4</text>
<text text-anchor="start" x="302" y="-1359" font-family="Helvetica,sans-Serif" font-size="10.00">+</text>
<text text-anchor="start" x="315" y="-1359" font-family="Helvetica,sans-Serif" font-size="10.00">emp_r_0</text>
<text text-anchor="start" x="302" y="-1344" font-family="Helvetica,sans-Serif" font-size="10.00">+</text>
<text text-anchor="start" x="315" y="-1344" font-family="Helvetica,sans-Serif" font-size="10.00">emp_r_1</text>
<text text-anchor="start" x="302" y="-1329" font-family="Helvetica,sans-Serif" font-size="10.00">+</text>
<text text-anchor="start" x="315" y="-1329" font-family="Helvetica,sans-Serif" font-size="10.00">emp_r_2</text>
<text text-anchor="start" x="302" y="-1314" font-family="Helvetica,sans-Serif" font-size="10.00">+</text>
<text text-anchor="start" x="315" y="-1314" font-family="Helvetica,sans-Serif" font-size="10.00">emp_r_3</text>
<text text-anchor="start" x="302" y="-1299" font-family="Helvetica,sans-Serif" font-size="10.00">+</text>
<text text-anchor="start" x="315" y="-1299" font-family="Helvetica,sans-Serif" font-size="10.00">emp_r_4</text>
<text text-anchor="start" x="302" y="-1284" font-family="Helvetica,sans-Serif" font-size="10.00">+</text>
<text text-anchor="start" x="315" y="-1284" font-family="Helvetica,sans-Serif" font-size="10.00">emp_t_0</text>
<text text-anchor="start" x="302" y="-1269" font-family="Helvetica,sans-Serif" font-size="10.00">+</text>
<text text-anchor="start" x="315" y="-1269" font-family="Helvetica,sans-Serif" font-size="10.00">emp_t_1</text>
<text text-anchor="start" x="302" y="-1254" font-family="Helvetica,sans-Serif" font-size="10.00">+</text>
<text text-anchor="start" x="315" y="-1254" font-family="Helvetica,sans-Serif" font-size="10.00">emp_t_2</text>
<text text-anchor="start" x="302" y="-1239" font-family="Helvetica,sans-Serif" font-size="10.00">+</text>
<text text-anchor="start" x="315" y="-1239" font-family="Helvetica,sans-Serif" font-size="10.00">emp_t_3</text>
<text text-anchor="start" x="302" y="-1224" font-family="Helvetica,sans-Serif" font-size="10.00">+</text>
<text text-anchor="start" x="315" y="-1224" font-family="Helvetica,sans-Serif" font-size="10.00">emp_t_4</text>
<text text-anchor="start" x="302" y="-1209" font-family="Helvetica,sans-Serif" font-size="10.00">+</text>
<text text-anchor="start" x="315" y="-1209" font-family="Helvetica,sans-Serif" font-size="10.00">emp_n_0</text>
<text text-anchor="start" x="302" y="-1194" font-family="Helvetica,sans-Serif" font-size="10.00">+</text>
<text text-anchor="start" x="315" y="-1194" font-family="Helvetica,sans-Serif" font-size="10.00">emp_n_1</text>
<text text-anchor="start" x="302" y="-1179" font-family="Helvetica,sans-Serif" font-size="10.00">+</text>
<text text-anchor="start" x="315" y="-1179" font-family="Helvetica,sans-Serif" font-size="10.00">emp_n_2</text>
<text text-anchor="start" x="302" y="-1164" font-family="Helvetica,sans-Serif" font-size="10.00">+</text>
<text text-anchor="start" x="315" y="-1164" font-family="Helvetica,sans-Serif" font-size="10.00">emp_n_3</text>
<text text-anchor="start" x="302" y="-1149" font-family="Helvetica,sans-Serif" font-size="10.00">+</text>
<text text-anchor="start" x="315" y="-1149" font-family="Helvetica,sans-Serif" font-size="10.00">emp_n_4</text>
<text text-anchor="start" x="302" y="-1134" font-family="Helvetica,sans-Serif" font-size="10.00">+</text>
<text text-anchor="start" x="315" y="-1134" font-family="Helvetica,sans-Serif" font-size="10.00">emp_p_0</text>
<text text-anchor="start" x="302" y="-1119" font-family="Helvetica,sans-Serif" font-size="10.00">+</text>
<text text-anchor="start" x="315" y="-1119" font-family="Helvetica,sans-Serif" font-size="10.00">emp_p_1</text>
<text text-anchor="start" x="302" y="-1104" font-family="Helvetica,sans-Serif" font-size="10.00">+</text>
<text text-anchor="start" x="315" y="-1104" font-family="Helvetica,sans-Serif" font-size="10.00">emp_p_2</text>
<text text-anchor="start" x="302" y="-1089" font-family="Helvetica,sans-Serif" font-size="10.00">+</text>
<text text-anchor="start" x="315" y="-1089" font-family="Helvetica,sans-Serif" font-size="10.00">emp_p_3</text>
<text text-anchor="start" x="302" y="-1074" font-family="Helvetica,sans-Serif" font-size="10.00">+</text>
<text text-anchor="start" x="315" y="-1074" font-family="Helvetica,sans-Serif" font-size="10.00">emp_p_4</text>
<text text-anchor="start" x="302" y="-1059" font-family="Helvetica,sans-Serif" font-size="10.00">+</text>
<text text-anchor="start" x="315" y="-1059" font-family="Helvetica,sans-Serif" font-size="10.00">emp_q_0</text>
<text text-anchor="start" x="302" y="-1044" font-family="Helvetica,sans-Serif" font-size="10.00">+</text>
<text text-anchor="start" x="315" y="-1044" font-family="Helvetica,sans-Serif" font-size="10.00">emp_q_1</text>
<text text-anchor="start" x="302" y="-1029" font-family="Helvetica,sans-Serif" font-size="10.00">+</text>
<text text-anchor="start" x="315" y="-1029" font-family="Helvetica,sans-Serif" font-size="10.00">emp_q_2</text>
<text text-anchor="start" x="302" y="-1014" font-family="Helvetica,sans-Serif" font-size="10.00">+</text>
<text text-anchor="start" x="315" y="-1014" font-family="Helvetica,sans-Serif" font-size="10.00">emp_q_3</text>
<text text-anchor="start" x="302" y="-999" font-family="Helvetica,sans-Serif" font-size="10.00">+</text>
<text text-anchor="start" x="315" y="-999" font-family="Helvetica,sans-Serif" font-size="10.00">emp_q_4</text>
<text text-anchor="start" x="302" y="-984" font-family="Helvetica,sans-Serif" font-size="10.00">+</text>
<text text-anchor="start" x="315" y="-984" font-family="Helvetica,sans-Serif" font-size="10.00">operator+=()</text>
<polygon fill="#666666" stroke="#666666" points="298,-1594 298,-1594 385,-1594 385,-1594 298,-1594"/>
<polygon fill="#666666" stroke="#666666" points="298,-994 298,-994 313,-994 313,-994 298,-994"/>
<polygon fill="#666666" stroke="#666666" points="313,-994 313,-994 385,-994 385,-994 313,-994"/>
<polygon fill="none" stroke="#666666" points="297.5,-977 297.5,-1611 384.5,-1611 384.5,-977 297.5,-977"/>
</a>
</g>
</g>
<!-- Node4&#45;&gt;Node1 -->
<g id="edge3_Node000001_Node000004" class="edge">
<title>Node4&#45;&gt;Node1</title>
<g id="a_edge3_Node000001_Node000004"><a xlink:title=" ">
<path fill="none" stroke="#63b8ff" d="M286.14,-987.04C284.47,-982.31 282.76,-977.63 281,-973 274.85,-956.87 266.74,-940.48 258.04,-925.01"/>
<polygon fill="none" stroke="#63b8ff" points="282.93,-988.49 289.48,-996.82 289.56,-986.23 282.93,-988.49"/>
</a>
</g>
</g>
</g>
</svg>
