<?xml version="1.0" encoding="UTF-8" standalone="no"?>
<!DOCTYPE svg PUBLIC "-//W3C//DTD SVG 1.1//EN"
 "http://www.w3.org/Graphics/SVG/1.1/DTD/svg11.dtd">
<!-- Generated by graphviz version 2.43.0 (0)
 -->
<!-- Title: SinexAck Pages: 1 -->
<svg width="107pt" height="180pt"
 viewBox="0.00 0.00 107.00 180.00" xmlns="http://www.w3.org/2000/svg" xmlns:xlink="http://www.w3.org/1999/xlink">
<g id="graph0" class="graph" transform="scale(1 1) rotate(0) translate(4 176)">
<title>SinexAck</title>
<!-- Node1 -->
<g id="Node000001" class="node">
<title>Node1</title>
<g id="a_Node000001"><a xlink:href="structSinexAck.html" target="_top" xlink:title=" ">
<path fill="white" stroke="#666666" stroke-width="2" d="M60,-57C60,-57 12,-57 12,-57 6,-57 0,-51 0,-45 0,-45 0,-12 0,-12 0,-6 6,0 12,0 12,0 60,0 60,0 66,0 72,-6 72,-12 72,-12 72,-45 72,-45 72,-51 66,-57 60,-57"/>
<text text-anchor="start" x="13" y="-40.5" font-family="Helvetica,sans-Serif" font-size="10.00">SinexAck</text>
<text text-anchor="start" x="34" y="-25.5" font-family="Helvetica,sans-Serif" font-size="10.00"> </text>
<text text-anchor="start" x="34" y="-10.5" font-family="Helvetica,sans-Serif" font-size="10.00"> </text>
<polygon fill="#666666" stroke="#666666" points="8,-35.5 8,-35.5 64,-35.5 64,-35.5 8,-35.5"/>
<polygon fill="#666666" stroke="#666666" points="8,-20.5 8,-20.5 64,-20.5 64,-20.5 8,-20.5"/>
<polygon fill="none" stroke="#666666" points="8,-4 8,-53 64,-53 64,-4 8,-4"/>
</a>
</g>
</g>
<!-- Node2 -->
<g id="Node000002" class="node">
<title>Node2</title>
<g id="a_Node000002"><a xlink:title=" ">
<path fill="white" stroke="#666666" d="M51,-172C51,-172 21,-172 21,-172 15,-172 9,-166 9,-160 9,-160 9,-127 9,-127 9,-121 15,-115 21,-115 21,-115 51,-115 51,-115 57,-115 63,-121 63,-127 63,-127 63,-160 63,-160 63,-166 57,-172 51,-172"/>
<text text-anchor="start" x="22" y="-155.5" font-family="Helvetica,sans-Serif" font-size="10.00">string</text>
<text text-anchor="start" x="34" y="-140.5" font-family="Helvetica,sans-Serif" font-size="10.00"> </text>
<text text-anchor="start" x="34" y="-125.5" font-family="Helvetica,sans-Serif" font-size="10.00"> </text>
<polygon fill="#666666" stroke="#666666" points="17,-150.5 17,-150.5 55,-150.5 55,-150.5 17,-150.5"/>
<polygon fill="#666666" stroke="#666666" points="17,-135.5 17,-135.5 55,-135.5 55,-135.5 17,-135.5"/>
<polygon fill="none" stroke="#666666" points="17,-119 17,-168 55,-168 55,-119 17,-119"/>
</a>
</g>
</g>
<!-- Node2&#45;&gt;Node1 -->
<g id="edge1_Node000001_Node000002" class="edge">
<title>Node2&#45;&gt;Node1</title>
<g id="a_edge1_Node000001_Node000002"><a xlink:title=" ">
<path fill="none" stroke="#63b8ff" d="M36,-114.86C36,-101.18 36,-84.41 36,-69.37"/>
<polygon fill="none" stroke="#63b8ff" points="36,-69.25 32,-63.25 36,-57.25 40,-63.25 36,-69.25"/>
</a>
</g>
<text text-anchor="middle" x="67.5" y="-89" font-family="Helvetica,sans-Serif" font-size="10.00" fill="grey"> +agency</text>
<text text-anchor="middle" x="67.5" y="-78" font-family="Helvetica,sans-Serif" font-size="10.00" fill="grey">+description</text>
</g>
</g>
</svg>
