<?xml version="1.0" encoding="UTF-8" standalone="no"?>
<!DOCTYPE svg PUBLIC "-//W3C//DTD SVG 1.1//EN"
 "http://www.w3.org/Graphics/SVG/1.1/DTD/svg11.dtd">
<!-- Generated by graphviz version 2.43.0 (0)
 -->
<!-- Title: CustomParser Pages: 1 -->
<svg width="811pt" height="1173pt"
 viewBox="0.00 0.00 811.00 1173.00" xmlns="http://www.w3.org/2000/svg" xmlns:xlink="http://www.w3.org/1999/xlink">
<g id="graph0" class="graph" transform="scale(1 1) rotate(0) translate(4 1169)">
<title>CustomParser</title>
<!-- Node1 -->
<g id="Node000001" class="node">
<title>Node1</title>
<g id="a_Node000001"><a xlink:href="structCustomParser.html" target="_top" xlink:title=" ">
<path fill="white" stroke="#666666" stroke-width="2" d="M388,-72C388,-72 314,-72 314,-72 308,-72 302,-66 302,-60 302,-60 302,-12 302,-12 302,-6 308,0 314,0 314,0 388,0 388,0 394,0 400,-6 400,-12 400,-12 400,-60 400,-60 400,-66 394,-72 388,-72"/>
<text text-anchor="start" x="317" y="-56" font-family="Helvetica,sans-Serif" font-size="10.00">CustomParser</text>
<text text-anchor="start" x="349" y="-41" font-family="Helvetica,sans-Serif" font-size="10.00"> </text>
<text text-anchor="start" x="314" y="-26" font-family="Helvetica,sans-Serif" font-size="10.00">+</text>
<text text-anchor="start" x="327" y="-26" font-family="Helvetica,sans-Serif" font-size="10.00">parse()</text>
<text text-anchor="start" x="314" y="-11" font-family="Helvetica,sans-Serif" font-size="10.00">+</text>
<text text-anchor="start" x="327" y="-11" font-family="Helvetica,sans-Serif" font-size="10.00">parserType()</text>
<polygon fill="#666666" stroke="#666666" points="310,-51 310,-51 392,-51 392,-51 310,-51"/>
<polygon fill="#666666" stroke="#666666" points="310,-36 310,-36 392,-36 392,-36 310,-36"/>
<polygon fill="none" stroke="#666666" points="310,-4 310,-68 392,-68 392,-4 310,-4"/>
</a>
</g>
</g>
<!-- Node2 -->
<g id="Node000002" class="node">
<title>Node2</title>
<g id="a_Node000002"><a xlink:href="structParser.html" target="_top" xlink:title=" ">
<path fill="white" stroke="#666666" d="M254,-263.5C254,-263.5 180,-263.5 180,-263.5 174,-263.5 168,-257.5 168,-251.5 168,-251.5 168,-188.5 168,-188.5 168,-182.5 174,-176.5 180,-176.5 180,-176.5 254,-176.5 254,-176.5 260,-176.5 266,-182.5 266,-188.5 266,-188.5 266,-251.5 266,-251.5 266,-257.5 260,-263.5 254,-263.5"/>
<text text-anchor="start" x="201.5" y="-247" font-family="Helvetica,sans-Serif" font-size="10.00">Parser</text>
<text text-anchor="start" x="215" y="-232" font-family="Helvetica,sans-Serif" font-size="10.00"> </text>
<text text-anchor="start" x="180" y="-217" font-family="Helvetica,sans-Serif" font-size="10.00">+</text>
<text text-anchor="start" x="193" y="-217" font-family="Helvetica,sans-Serif" font-size="10.00">parse()</text>
<text text-anchor="start" x="180" y="-202" font-family="Helvetica,sans-Serif" font-size="10.00">+</text>
<text text-anchor="start" x="193" y="-202" font-family="Helvetica,sans-Serif" font-size="10.00">parserType()</text>
<text text-anchor="start" x="180" y="-187" font-family="Helvetica,sans-Serif" font-size="10.00">+</text>
<text text-anchor="start" x="193" y="-187" font-family="Helvetica,sans-Serif" font-size="10.00">~Parser()</text>
<polygon fill="#666666" stroke="#666666" points="176,-242 176,-242 258,-242 258,-242 176,-242"/>
<polygon fill="#666666" stroke="#666666" points="176,-227 176,-227 258,-227 258,-227 176,-227"/>
<polygon fill="none" stroke="#666666" points="176,-180.5 176,-259.5 258,-259.5 258,-180.5 176,-180.5"/>
</a>
</g>
</g>
<!-- Node2&#45;&gt;Node1 -->
<g id="edge1_Node000001_Node000002" class="edge">
<title>Node2&#45;&gt;Node1</title>
<g id="a_edge1_Node000001_Node000002"><a xlink:title=" ">
<path fill="none" stroke="#63b8ff" d="M239.95,-167.15C249.52,-148.04 261.55,-126.74 275,-109 284.88,-95.97 297.21,-83.2 309.04,-72.12"/>
<polygon fill="none" stroke="#63b8ff" points="236.71,-165.81 235.46,-176.33 243,-168.89 236.71,-165.81"/>
</a>
</g>
</g>
<!-- Node3 -->
<g id="Node000003" class="node">
<title>Node3</title>
<g id="a_Node000003"><a xlink:href="structCustomDecoder.html" target="_top" xlink:title=" ">
<path fill="white" stroke="#666666" d="M406,-301C406,-301 296,-301 296,-301 290,-301 284,-295 284,-289 284,-289 284,-151 284,-151 284,-145 290,-139 296,-139 296,-139 406,-139 406,-139 412,-139 418,-145 418,-151 418,-151 418,-289 418,-289 418,-295 412,-301 406,-301"/>
<text text-anchor="start" x="311.5" y="-285" font-family="Helvetica,sans-Serif" font-size="10.00">CustomDecoder</text>
<text text-anchor="start" x="296" y="-270" font-family="Helvetica,sans-Serif" font-size="10.00">+</text>
<text text-anchor="start" x="309" y="-270" font-family="Helvetica,sans-Serif" font-size="10.00">lastTimeTag</text>
<text text-anchor="start" x="296" y="-255" font-family="Helvetica,sans-Serif" font-size="10.00">+</text>
<text text-anchor="start" x="309" y="-255" font-family="Helvetica,sans-Serif" font-size="10.00">decodeEphFrames()</text>
<text text-anchor="start" x="296" y="-240" font-family="Helvetica,sans-Serif" font-size="10.00">+</text>
<text text-anchor="start" x="309" y="-240" font-family="Helvetica,sans-Serif" font-size="10.00">decodeRAWX()</text>
<text text-anchor="start" x="296" y="-225" font-family="Helvetica,sans-Serif" font-size="10.00">+</text>
<text text-anchor="start" x="309" y="-225" font-family="Helvetica,sans-Serif" font-size="10.00">decodeSFRBX()</text>
<text text-anchor="start" x="296" y="-210" font-family="Helvetica,sans-Serif" font-size="10.00">+</text>
<text text-anchor="start" x="309" y="-210" font-family="Helvetica,sans-Serif" font-size="10.00">decodeMEAS()</text>
<text text-anchor="start" x="296" y="-195" font-family="Helvetica,sans-Serif" font-size="10.00">+</text>
<text text-anchor="start" x="309" y="-195" font-family="Helvetica,sans-Serif" font-size="10.00">decodeRXM()</text>
<text text-anchor="start" x="296" y="-180" font-family="Helvetica,sans-Serif" font-size="10.00">+</text>
<text text-anchor="start" x="309" y="-180" font-family="Helvetica,sans-Serif" font-size="10.00">decodeESF()</text>
<text text-anchor="start" x="296" y="-165" font-family="Helvetica,sans-Serif" font-size="10.00">+</text>
<text text-anchor="start" x="309" y="-165" font-family="Helvetica,sans-Serif" font-size="10.00">decode()</text>
<text text-anchor="start" x="296" y="-150" font-family="Helvetica,sans-Serif" font-size="10.00">+</text>
<text text-anchor="start" x="309" y="-150" font-family="Helvetica,sans-Serif" font-size="10.00">recordFrame()</text>
<polygon fill="#666666" stroke="#666666" points="292,-280 292,-280 410,-280 410,-280 292,-280"/>
<polygon fill="#666666" stroke="#666666" points="292,-265 292,-265 307,-265 307,-265 292,-265"/>
<polygon fill="#666666" stroke="#666666" points="307,-265 307,-265 410,-265 410,-265 307,-265"/>
<polygon fill="none" stroke="#666666" points="292,-143 292,-297 410,-297 410,-143 292,-143"/>
</a>
</g>
</g>
<!-- Node3&#45;&gt;Node1 -->
<g id="edge2_Node000001_Node000003" class="edge">
<title>Node3&#45;&gt;Node1</title>
<g id="a_edge2_Node000001_Node000003"><a xlink:title=" ">
<path fill="none" stroke="#63b8ff" d="M351,-128.78C351,-108.74 351,-88.66 351,-72.41"/>
<polygon fill="none" stroke="#63b8ff" points="347.5,-128.91 351,-138.91 354.5,-128.91 347.5,-128.91"/>
</a>
</g>
</g>
<!-- Node4 -->
<g id="Node000004" class="node">
<title>Node4</title>
<g id="a_Node000004"><a xlink:href="structObsLister.html" target="_top" xlink:title=" ">
<path fill="#fff0f0" stroke="red" d="M60,-753.5C60,-753.5 12,-753.5 12,-753.5 6,-753.5 0,-747.5 0,-741.5 0,-741.5 0,-708.5 0,-708.5 0,-702.5 6,-696.5 12,-696.5 12,-696.5 60,-696.5 60,-696.5 66,-696.5 72,-702.5 72,-708.5 72,-708.5 72,-741.5 72,-741.5 72,-747.5 66,-753.5 60,-753.5"/>
<text text-anchor="start" x="13" y="-737" font-family="Helvetica,sans-Serif" font-size="10.00">ObsLister</text>
<text text-anchor="start" x="34" y="-722" font-family="Helvetica,sans-Serif" font-size="10.00"> </text>
<text text-anchor="start" x="34" y="-707" font-family="Helvetica,sans-Serif" font-size="10.00"> </text>
<polygon fill="red" stroke="red" points="8,-732 8,-732 64,-732 64,-732 8,-732"/>
<polygon fill="red" stroke="red" points="8,-717 8,-717 64,-717 64,-717 8,-717"/>
<polygon fill="none" stroke="red" points="8,-700.5 8,-749.5 64,-749.5 64,-700.5 8,-700.5"/>
</a>
</g>
</g>
<!-- Node4&#45;&gt;Node3 -->
<g id="edge3_Node000003_Node000004" class="edge">
<title>Node4&#45;&gt;Node3</title>
<g id="a_edge3_Node000003_Node000004"><a xlink:title=" ">
<path fill="none" stroke="#63b8ff" d="M29.04,-685.93C18.91,-617.73 8.46,-473.92 81,-389 139.45,-320.57 202.2,-383.9 275,-331 286.36,-322.75 296.6,-312.25 305.6,-301.03"/>
<polygon fill="none" stroke="#63b8ff" points="25.65,-686.87 30.65,-696.21 32.56,-685.78 25.65,-686.87"/>
</a>
</g>
</g>
<!-- Node7 -->
<g id="Node000007" class="node">
<title>Node7</title>
<g id="a_Node000007"><a xlink:title=" ">
<path fill="#fff0f0" stroke="red" d="M240,-764.5C240,-764.5 102,-764.5 102,-764.5 96,-764.5 90,-758.5 90,-752.5 90,-752.5 90,-697.5 90,-697.5 90,-691.5 96,-685.5 102,-685.5 102,-685.5 240,-685.5 240,-685.5 246,-685.5 252,-691.5 252,-697.5 252,-697.5 252,-752.5 252,-752.5 252,-758.5 246,-764.5 240,-764.5"/>
<text text-anchor="start" x="103" y="-748" font-family="Helvetica,sans-Serif" font-size="10.00">map&lt; string, map&lt; GTime,</text>
<text text-anchor="start" x="103" y="-737" font-family="Helvetica,sans-Serif" font-size="10.00"> Vector3d, std::greater</text>
<text text-anchor="start" x="132" y="-726" font-family="Helvetica,sans-Serif" font-size="10.00">&lt; GTime &gt; &gt; &gt;</text>
<text text-anchor="start" x="169" y="-711" font-family="Helvetica,sans-Serif" font-size="10.00"> </text>
<text text-anchor="start" x="169" y="-696" font-family="Helvetica,sans-Serif" font-size="10.00"> </text>
<polygon fill="red" stroke="red" points="98,-721 98,-721 244,-721 244,-721 98,-721"/>
<polygon fill="red" stroke="red" points="98,-706 98,-706 244,-706 244,-706 98,-706"/>
<polygon fill="none" stroke="red" points="98,-689.5 98,-760.5 244,-760.5 244,-689.5 98,-689.5"/>
</a>
</g>
</g>
<!-- Node7&#45;&gt;Node3 -->
<g id="edge4_Node000003_Node000007" class="edge">
<title>Node7&#45;&gt;Node3</title>
<g id="a_edge4_Node000003_Node000007"><a xlink:title=" ">
<path fill="none" stroke="#63b8ff" d="M176.38,-685.34C187.01,-615.72 214.3,-465.66 266,-349 269.83,-340.35 278.07,-326.66 287.98,-311.39"/>
<polygon fill="none" stroke="#63b8ff" points="288.11,-311.19 288.06,-303.98 294.7,-301.16 294.75,-308.37 288.11,-311.19"/>
</a>
</g>
<text text-anchor="middle" x="306.5" y="-363" font-family="Helvetica,sans-Serif" font-size="10.00" fill="grey"> +acclDataMaps</text>
<text text-anchor="middle" x="306.5" y="-352" font-family="Helvetica,sans-Serif" font-size="10.00" fill="grey">+gyroDataMaps</text>
</g>
<!-- Node9 -->
<g id="Node000009" class="node">
<title>Node9</title>
<g id="a_Node000009"><a xlink:title=" ">
<path fill="#fff0f0" stroke="red" d="M420,-764.5C420,-764.5 282,-764.5 282,-764.5 276,-764.5 270,-758.5 270,-752.5 270,-752.5 270,-697.5 270,-697.5 270,-691.5 276,-685.5 282,-685.5 282,-685.5 420,-685.5 420,-685.5 426,-685.5 432,-691.5 432,-697.5 432,-697.5 432,-752.5 432,-752.5 432,-758.5 426,-764.5 420,-764.5"/>
<text text-anchor="start" x="283" y="-748" font-family="Helvetica,sans-Serif" font-size="10.00">map&lt; string, map&lt; GTime,</text>
<text text-anchor="start" x="283" y="-737" font-family="Helvetica,sans-Serif" font-size="10.00"> double, std::greater</text>
<text text-anchor="start" x="312" y="-726" font-family="Helvetica,sans-Serif" font-size="10.00">&lt; GTime &gt; &gt; &gt;</text>
<text text-anchor="start" x="349" y="-711" font-family="Helvetica,sans-Serif" font-size="10.00"> </text>
<text text-anchor="start" x="349" y="-696" font-family="Helvetica,sans-Serif" font-size="10.00"> </text>
<polygon fill="red" stroke="red" points="278,-721 278,-721 424,-721 424,-721 278,-721"/>
<polygon fill="red" stroke="red" points="278,-706 278,-706 424,-706 424,-706 278,-706"/>
<polygon fill="none" stroke="red" points="278,-689.5 278,-760.5 424,-760.5 424,-689.5 278,-689.5"/>
</a>
</g>
</g>
<!-- Node9&#45;&gt;Node3 -->
<g id="edge5_Node000003_Node000009" class="edge">
<title>Node9&#45;&gt;Node3</title>
<g id="a_edge5_Node000003_Node000009"><a xlink:title=" ">
<path fill="none" stroke="#63b8ff" d="M351,-685.37C351,-606.43 351,-424.73 351,-313.46"/>
<polygon fill="none" stroke="#63b8ff" points="351,-313.25 347,-307.25 351,-301.25 355,-307.25 351,-313.25"/>
</a>
</g>
<text text-anchor="middle" x="394.5" y="-357.5" font-family="Helvetica,sans-Serif" font-size="10.00" fill="grey"> +tempDataMaps</text>
</g>
<!-- Node10 -->
<g id="Node000010" class="node">
<title>Node10</title>
<g id="a_Node000010"><a xlink:href="structGTime.html" target="_top" xlink:title="Time structure used throughout this software.">
<path fill="white" stroke="#666666" d="M584,-1061C584,-1061 462,-1061 462,-1061 456,-1061 450,-1055 450,-1049 450,-1049 450,-401 450,-401 450,-395 456,-389 462,-389 462,-389 584,-389 584,-389 590,-389 596,-395 596,-401 596,-401 596,-1049 596,-1049 596,-1055 590,-1061 584,-1061"/>
<text text-anchor="start" x="506.5" y="-1045" font-family="Helvetica,sans-Serif" font-size="10.00">GTime</text>
<text text-anchor="start" x="462" y="-1030" font-family="Helvetica,sans-Serif" font-size="10.00">+</text>
<text text-anchor="start" x="475" y="-1030" font-family="Helvetica,sans-Serif" font-size="10.00">cacheN</text>
<text text-anchor="start" x="462" y="-1015" font-family="Helvetica,sans-Serif" font-size="10.00">+</text>
<text text-anchor="start" x="475" y="-1015" font-family="Helvetica,sans-Serif" font-size="10.00">cacheTime</text>
<text text-anchor="start" x="462" y="-1000" font-family="Helvetica,sans-Serif" font-size="10.00">+</text>
<text text-anchor="start" x="475" y="-1000" font-family="Helvetica,sans-Serif" font-size="10.00">bigTime</text>
<text text-anchor="start" x="462" y="-985" font-family="Helvetica,sans-Serif" font-size="10.00">+</text>
<text text-anchor="start" x="475" y="-985" font-family="Helvetica,sans-Serif" font-size="10.00">GTime()</text>
<text text-anchor="start" x="462" y="-970" font-family="Helvetica,sans-Serif" font-size="10.00">+</text>
<text text-anchor="start" x="475" y="-970" font-family="Helvetica,sans-Serif" font-size="10.00">GTime()</text>
<text text-anchor="start" x="462" y="-955" font-family="Helvetica,sans-Serif" font-size="10.00">+</text>
<text text-anchor="start" x="475" y="-955" font-family="Helvetica,sans-Serif" font-size="10.00">GTime()</text>
<text text-anchor="start" x="462" y="-940" font-family="Helvetica,sans-Serif" font-size="10.00">+</text>
<text text-anchor="start" x="475" y="-940" font-family="Helvetica,sans-Serif" font-size="10.00">to_string()</text>
<text text-anchor="start" x="462" y="-925" font-family="Helvetica,sans-Serif" font-size="10.00">+</text>
<text text-anchor="start" x="475" y="-925" font-family="Helvetica,sans-Serif" font-size="10.00">to_ISOstring()</text>
<text text-anchor="start" x="462" y="-910" font-family="Helvetica,sans-Serif" font-size="10.00">+</text>
<text text-anchor="start" x="475" y="-910" font-family="Helvetica,sans-Serif" font-size="10.00">to_decYear()</text>
<text text-anchor="start" x="462" y="-895" font-family="Helvetica,sans-Serif" font-size="10.00">+</text>
<text text-anchor="start" x="475" y="-895" font-family="Helvetica,sans-Serif" font-size="10.00">operator==()</text>
<text text-anchor="start" x="462" y="-880" font-family="Helvetica,sans-Serif" font-size="10.00">+</text>
<text text-anchor="start" x="475" y="-880" font-family="Helvetica,sans-Serif" font-size="10.00">operator!=()</text>
<text text-anchor="start" x="462" y="-865" font-family="Helvetica,sans-Serif" font-size="10.00">+</text>
<text text-anchor="start" x="475" y="-865" font-family="Helvetica,sans-Serif" font-size="10.00">operator&lt;()</text>
<text text-anchor="start" x="462" y="-850" font-family="Helvetica,sans-Serif" font-size="10.00">+</text>
<text text-anchor="start" x="475" y="-850" font-family="Helvetica,sans-Serif" font-size="10.00">operator&gt;()</text>
<text text-anchor="start" x="462" y="-835" font-family="Helvetica,sans-Serif" font-size="10.00">+</text>
<text text-anchor="start" x="475" y="-835" font-family="Helvetica,sans-Serif" font-size="10.00">operator&gt;=()</text>
<text text-anchor="start" x="462" y="-820" font-family="Helvetica,sans-Serif" font-size="10.00">+</text>
<text text-anchor="start" x="475" y="-820" font-family="Helvetica,sans-Serif" font-size="10.00">operator+()</text>
<text text-anchor="start" x="462" y="-805" font-family="Helvetica,sans-Serif" font-size="10.00">+</text>
<text text-anchor="start" x="475" y="-805" font-family="Helvetica,sans-Serif" font-size="10.00">operator+()</text>
<text text-anchor="start" x="462" y="-790" font-family="Helvetica,sans-Serif" font-size="10.00">+</text>
<text text-anchor="start" x="475" y="-790" font-family="Helvetica,sans-Serif" font-size="10.00">operator+()</text>
<text text-anchor="start" x="462" y="-775" font-family="Helvetica,sans-Serif" font-size="10.00">+</text>
<text text-anchor="start" x="475" y="-775" font-family="Helvetica,sans-Serif" font-size="10.00">operator+=()</text>
<text text-anchor="start" x="462" y="-760" font-family="Helvetica,sans-Serif" font-size="10.00">+</text>
<text text-anchor="start" x="475" y="-760" font-family="Helvetica,sans-Serif" font-size="10.00">operator&#45;=()</text>
<text text-anchor="start" x="462" y="-745" font-family="Helvetica,sans-Serif" font-size="10.00">+</text>
<text text-anchor="start" x="475" y="-745" font-family="Helvetica,sans-Serif" font-size="10.00">operator&#45;()</text>
<text text-anchor="start" x="462" y="-730" font-family="Helvetica,sans-Serif" font-size="10.00">+</text>
<text text-anchor="start" x="475" y="-730" font-family="Helvetica,sans-Serif" font-size="10.00">operator&#45;()</text>
<text text-anchor="start" x="462" y="-715" font-family="Helvetica,sans-Serif" font-size="10.00">+</text>
<text text-anchor="start" x="475" y="-715" font-family="Helvetica,sans-Serif" font-size="10.00">operator&#45;()</text>
<text text-anchor="start" x="462" y="-700" font-family="Helvetica,sans-Serif" font-size="10.00">+</text>
<text text-anchor="start" x="475" y="-700" font-family="Helvetica,sans-Serif" font-size="10.00">operator++()</text>
<text text-anchor="start" x="462" y="-685" font-family="Helvetica,sans-Serif" font-size="10.00">+</text>
<text text-anchor="start" x="475" y="-685" font-family="Helvetica,sans-Serif" font-size="10.00">GTime()</text>
<text text-anchor="start" x="462" y="-670" font-family="Helvetica,sans-Serif" font-size="10.00">+</text>
<text text-anchor="start" x="475" y="-670" font-family="Helvetica,sans-Serif" font-size="10.00">GTime()</text>
<text text-anchor="start" x="462" y="-655" font-family="Helvetica,sans-Serif" font-size="10.00">+</text>
<text text-anchor="start" x="475" y="-655" font-family="Helvetica,sans-Serif" font-size="10.00">GTime()</text>
<text text-anchor="start" x="462" y="-640" font-family="Helvetica,sans-Serif" font-size="10.00">+</text>
<text text-anchor="start" x="475" y="-640" font-family="Helvetica,sans-Serif" font-size="10.00">GTime()</text>
<text text-anchor="start" x="462" y="-625" font-family="Helvetica,sans-Serif" font-size="10.00">+</text>
<text text-anchor="start" x="475" y="-625" font-family="Helvetica,sans-Serif" font-size="10.00">GTime()</text>
<text text-anchor="start" x="462" y="-610" font-family="Helvetica,sans-Serif" font-size="10.00">+</text>
<text text-anchor="start" x="475" y="-610" font-family="Helvetica,sans-Serif" font-size="10.00">serialize()</text>
<text text-anchor="start" x="462" y="-595" font-family="Helvetica,sans-Serif" font-size="10.00">+</text>
<text text-anchor="start" x="475" y="-595" font-family="Helvetica,sans-Serif" font-size="10.00">floorTime()</text>
<text text-anchor="start" x="462" y="-580" font-family="Helvetica,sans-Serif" font-size="10.00">+</text>
<text text-anchor="start" x="475" y="-580" font-family="Helvetica,sans-Serif" font-size="10.00">gregString()</text>
<text text-anchor="start" x="462" y="-565" font-family="Helvetica,sans-Serif" font-size="10.00">+</text>
<text text-anchor="start" x="475" y="-565" font-family="Helvetica,sans-Serif" font-size="10.00">operator long double()</text>
<text text-anchor="start" x="462" y="-550" font-family="Helvetica,sans-Serif" font-size="10.00">+</text>
<text text-anchor="start" x="475" y="-550" font-family="Helvetica,sans-Serif" font-size="10.00">operator MjDateTT()</text>
<text text-anchor="start" x="462" y="-535" font-family="Helvetica,sans-Serif" font-size="10.00">+</text>
<text text-anchor="start" x="475" y="-535" font-family="Helvetica,sans-Serif" font-size="10.00">operator GEpoch()</text>
<text text-anchor="start" x="462" y="-520" font-family="Helvetica,sans-Serif" font-size="10.00">+</text>
<text text-anchor="start" x="475" y="-520" font-family="Helvetica,sans-Serif" font-size="10.00">operator UtcTime()</text>
<text text-anchor="start" x="462" y="-505" font-family="Helvetica,sans-Serif" font-size="10.00">+</text>
<text text-anchor="start" x="475" y="-505" font-family="Helvetica,sans-Serif" font-size="10.00">operator GWeek()</text>
<text text-anchor="start" x="462" y="-490" font-family="Helvetica,sans-Serif" font-size="10.00">+</text>
<text text-anchor="start" x="475" y="-490" font-family="Helvetica,sans-Serif" font-size="10.00">operator BWeek()</text>
<text text-anchor="start" x="462" y="-475" font-family="Helvetica,sans-Serif" font-size="10.00">+</text>
<text text-anchor="start" x="475" y="-475" font-family="Helvetica,sans-Serif" font-size="10.00">operator GTow()</text>
<text text-anchor="start" x="462" y="-460" font-family="Helvetica,sans-Serif" font-size="10.00">+</text>
<text text-anchor="start" x="475" y="-460" font-family="Helvetica,sans-Serif" font-size="10.00">operator BTow()</text>
<text text-anchor="start" x="462" y="-445" font-family="Helvetica,sans-Serif" font-size="10.00">+</text>
<text text-anchor="start" x="475" y="-445" font-family="Helvetica,sans-Serif" font-size="10.00">operator PTime()</text>
<text text-anchor="start" x="462" y="-430" font-family="Helvetica,sans-Serif" font-size="10.00">+</text>
<text text-anchor="start" x="475" y="-430" font-family="Helvetica,sans-Serif" font-size="10.00">operator string()</text>
<text text-anchor="start" x="462" y="-415" font-family="Helvetica,sans-Serif" font-size="10.00">+</text>
<text text-anchor="start" x="475" y="-415" font-family="Helvetica,sans-Serif" font-size="10.00">operator RTod()</text>
<text text-anchor="start" x="462" y="-400" font-family="Helvetica,sans-Serif" font-size="10.00">+</text>
<text text-anchor="start" x="475" y="-400" font-family="Helvetica,sans-Serif" font-size="10.00">noTime()</text>
<polygon fill="#666666" stroke="#666666" points="458,-1040 458,-1040 588,-1040 588,-1040 458,-1040"/>
<polygon fill="#666666" stroke="#666666" points="458,-995 458,-995 473,-995 473,-995 458,-995"/>
<polygon fill="#666666" stroke="#666666" points="473,-995 473,-995 588,-995 588,-995 473,-995"/>
<polygon fill="none" stroke="#666666" points="458,-393 458,-1057 588,-1057 588,-393 458,-393"/>
</a>
</g>
</g>
<!-- Node10&#45;&gt;Node3 -->
<g id="edge6_Node000003_Node000010" class="edge">
<title>Node10&#45;&gt;Node3</title>
<g id="a_edge6_Node000003_Node000010"><a xlink:title=" ">
<path fill="none" stroke="#63b8ff" d="M459.42,-388.89C454.07,-375.23 448.28,-361.87 442,-349 437.44,-339.64 433.3,-339.29 427,-331 422.14,-324.6 417.21,-317.93 412.31,-311.16"/>
<polygon fill="none" stroke="#63b8ff" points="412.16,-310.96 405.42,-308.42 405.17,-301.21 411.91,-303.76 412.16,-310.96"/>
</a>
</g>
<text text-anchor="middle" x="478.5" y="-357.5" font-family="Helvetica,sans-Serif" font-size="10.00" fill="grey"> +lastTime</text>
</g>
<!-- Node11 -->
<g id="Node000011" class="node">
<title>Node11</title>
<g id="a_Node000011"><a xlink:title=" ">
<path fill="white" stroke="#666666" d="M598,-1165C598,-1165 568,-1165 568,-1165 562,-1165 556,-1159 556,-1153 556,-1153 556,-1120 556,-1120 556,-1114 562,-1108 568,-1108 568,-1108 598,-1108 598,-1108 604,-1108 610,-1114 610,-1120 610,-1120 610,-1153 610,-1153 610,-1159 604,-1165 598,-1165"/>
<text text-anchor="start" x="569" y="-1148.5" font-family="Helvetica,sans-Serif" font-size="10.00">string</text>
<text text-anchor="start" x="581" y="-1133.5" font-family="Helvetica,sans-Serif" font-size="10.00"> </text>
<text text-anchor="start" x="581" y="-1118.5" font-family="Helvetica,sans-Serif" font-size="10.00"> </text>
<polygon fill="#666666" stroke="#666666" points="564,-1143.5 564,-1143.5 602,-1143.5 602,-1143.5 564,-1143.5"/>
<polygon fill="#666666" stroke="#666666" points="564,-1128.5 564,-1128.5 602,-1128.5 602,-1128.5 564,-1128.5"/>
<polygon fill="none" stroke="#666666" points="564,-1112 564,-1161 602,-1161 602,-1112 564,-1112"/>
</a>
</g>
</g>
<!-- Node11&#45;&gt;Node3 -->
<g id="edge8_Node000003_Node000011" class="edge">
<title>Node11&#45;&gt;Node3</title>
<g id="a_edge8_Node000003_Node000011"><a xlink:title=" ">
<path fill="none" stroke="#63b8ff" d="M608.72,-1107.8C612.53,-1102.27 615.88,-1096.23 618,-1090 619.57,-1085.37 618.05,-1083.89 618,-1079 615.11,-772.29 777.06,-642.91 605,-389 579.3,-351.07 553.68,-362.8 510,-349 474.01,-337.63 458.37,-352 427,-331 418.47,-325.29 410.63,-318.28 403.48,-310.57"/>
<polygon fill="none" stroke="#63b8ff" points="403.26,-310.33 396.31,-308.41 395.41,-301.25 402.36,-303.17 403.26,-310.33"/>
</a>
</g>
<text text-anchor="middle" x="743.5" y="-728" font-family="Helvetica,sans-Serif" font-size="10.00" fill="grey"> +raw_custom_filename</text>
<text text-anchor="middle" x="743.5" y="-717" font-family="Helvetica,sans-Serif" font-size="10.00" fill="grey">+recId</text>
</g>
<!-- Node11&#45;&gt;Node10 -->
<g id="edge7_Node000010_Node000011" class="edge">
<title>Node11&#45;&gt;Node10</title>
<g id="a_edge7_Node000010_Node000011"><a xlink:title=" ">
<path fill="none" stroke="#63b8ff" d="M558.54,-1107.84C554.73,-1102.26 551.31,-1096.19 549,-1090 546.93,-1084.45 544.98,-1078.82 543.14,-1073.12"/>
<polygon fill="none" stroke="#63b8ff" points="543.04,-1072.8 537.46,-1068.24 539.51,-1061.33 545.1,-1065.89 543.04,-1072.8"/>
</a>
</g>
<text text-anchor="middle" x="583.5" y="-1082" font-family="Helvetica,sans-Serif" font-size="10.00" fill="grey"> +cacheString</text>
</g>
<!-- Node12 -->
<g id="Node000012" class="node">
<title>Node12</title>
<g id="a_Node000012"><a xlink:href="structPacketStatistics.html" target="_top" xlink:title=" ">
<path fill="white" stroke="#666666" d="M570,-331C570,-331 448,-331 448,-331 442,-331 436,-325 436,-319 436,-319 436,-121 436,-121 436,-115 442,-109 448,-109 448,-109 570,-109 570,-109 576,-109 582,-115 582,-121 582,-121 582,-319 582,-319 582,-325 576,-331 570,-331"/>
<text text-anchor="start" x="470.5" y="-315" font-family="Helvetica,sans-Serif" font-size="10.00">PacketStatistics</text>
<text text-anchor="start" x="448" y="-300" font-family="Helvetica,sans-Serif" font-size="10.00">+</text>
<text text-anchor="start" x="461" y="-300" font-family="Helvetica,sans-Serif" font-size="10.00">numPreambleFound</text>
<text text-anchor="start" x="448" y="-285" font-family="Helvetica,sans-Serif" font-size="10.00">+</text>
<text text-anchor="start" x="461" y="-285" font-family="Helvetica,sans-Serif" font-size="10.00">numFramesFailedCRC</text>
<text text-anchor="start" x="448" y="-270" font-family="Helvetica,sans-Serif" font-size="10.00">+</text>
<text text-anchor="start" x="461" y="-270" font-family="Helvetica,sans-Serif" font-size="10.00">numFramesPassCRC</text>
<text text-anchor="start" x="448" y="-255" font-family="Helvetica,sans-Serif" font-size="10.00">+</text>
<text text-anchor="start" x="461" y="-255" font-family="Helvetica,sans-Serif" font-size="10.00">numFramesDecoded</text>
<text text-anchor="start" x="448" y="-240" font-family="Helvetica,sans-Serif" font-size="10.00">+</text>
<text text-anchor="start" x="461" y="-240" font-family="Helvetica,sans-Serif" font-size="10.00">numNonMessBytes</text>
<text text-anchor="start" x="448" y="-225" font-family="Helvetica,sans-Serif" font-size="10.00">+</text>
<text text-anchor="start" x="461" y="-225" font-family="Helvetica,sans-Serif" font-size="10.00">numMessagesLatency</text>
<text text-anchor="start" x="448" y="-210" font-family="Helvetica,sans-Serif" font-size="10.00">+</text>
<text text-anchor="start" x="461" y="-210" font-family="Helvetica,sans-Serif" font-size="10.00">totalLatency</text>
<text text-anchor="start" x="448" y="-195" font-family="Helvetica,sans-Serif" font-size="10.00">+</text>
<text text-anchor="start" x="461" y="-195" font-family="Helvetica,sans-Serif" font-size="10.00">printPacketStatistics()</text>
<text text-anchor="start" x="448" y="-180" font-family="Helvetica,sans-Serif" font-size="10.00">+</text>
<text text-anchor="start" x="461" y="-180" font-family="Helvetica,sans-Serif" font-size="10.00">checksumFailure()</text>
<text text-anchor="start" x="448" y="-165" font-family="Helvetica,sans-Serif" font-size="10.00">+</text>
<text text-anchor="start" x="461" y="-165" font-family="Helvetica,sans-Serif" font-size="10.00">checksumSuccess()</text>
<text text-anchor="start" x="448" y="-150" font-family="Helvetica,sans-Serif" font-size="10.00">+</text>
<text text-anchor="start" x="461" y="-150" font-family="Helvetica,sans-Serif" font-size="10.00">nonFrameByteFound()</text>
<text text-anchor="start" x="448" y="-135" font-family="Helvetica,sans-Serif" font-size="10.00">+</text>
<text text-anchor="start" x="461" y="-135" font-family="Helvetica,sans-Serif" font-size="10.00">preambleFound()</text>
<text text-anchor="start" x="448" y="-120" font-family="Helvetica,sans-Serif" font-size="10.00">+</text>
<text text-anchor="start" x="461" y="-120" font-family="Helvetica,sans-Serif" font-size="10.00">frameDecoded()</text>
<polygon fill="#666666" stroke="#666666" points="444,-310 444,-310 574,-310 574,-310 444,-310"/>
<polygon fill="#666666" stroke="#666666" points="444,-205 444,-205 459,-205 459,-205 444,-205"/>
<polygon fill="#666666" stroke="#666666" points="459,-205 459,-205 574,-205 574,-205 459,-205"/>
<polygon fill="none" stroke="#666666" points="444,-113 444,-327 574,-327 574,-113 444,-113"/>
</a>
</g>
</g>
<!-- Node12&#45;&gt;Node1 -->
<g id="edge9_Node000001_Node000012" class="edge">
<title>Node12&#45;&gt;Node1</title>
<g id="a_edge9_Node000001_Node000012"><a xlink:title=" ">
<path fill="none" stroke="#63b8ff" d="M429.2,-111.49C428.46,-110.65 427.73,-109.82 427,-109 415.77,-96.36 402.67,-83.41 390.54,-72.03"/>
<polygon fill="none" stroke="#63b8ff" points="426.61,-113.85 435.78,-119.15 431.91,-109.28 426.61,-113.85"/>
</a>
</g>
</g>
</g>
</svg>
