<?xml version="1.0" encoding="UTF-8" standalone="no"?>
<!DOCTYPE svg PUBLIC "-//W3C//DTD SVG 1.1//EN"
 "http://www.w3.org/Graphics/SVG/1.1/DTD/svg11.dtd">
<!-- Generated by graphviz version 2.43.0 (0)
 -->
<!-- Title: OceanPoleGrid Pages: 1 -->
<svg width="190pt" height="378pt"
 viewBox="0.00 0.00 189.50 378.00" xmlns="http://www.w3.org/2000/svg" xmlns:xlink="http://www.w3.org/1999/xlink">
<g id="graph0" class="graph" transform="scale(1 1) rotate(0) translate(4 374)">
<title>OceanPoleGrid</title>
<!-- Node1 -->
<g id="Node000001" class="node">
<title>Node1</title>
<g id="a_Node000001"><a xlink:href="structOceanPoleGrid.html" target="_top" xlink:title="Structure for grid map of ocean pole load tide coefficients.">
<path fill="white" stroke="#666666" stroke-width="2" d="M116,-162C116,-162 41,-162 41,-162 35,-162 29,-156 29,-150 29,-150 29,-12 29,-12 29,-6 35,0 41,0 41,0 116,0 116,0 122,0 128,-6 128,-12 128,-12 128,-150 128,-150 128,-156 122,-162 116,-162"/>
<text text-anchor="start" x="42.5" y="-146" font-family="Helvetica,sans-Serif" font-size="10.00">OceanPoleGrid</text>
<text text-anchor="start" x="42" y="-131" font-family="Helvetica,sans-Serif" font-size="10.00">+</text>
<text text-anchor="start" x="55.5" y="-131" font-family="Helvetica,sans-Serif" font-size="10.00">numLonGrid</text>
<text text-anchor="start" x="42" y="-116" font-family="Helvetica,sans-Serif" font-size="10.00">+</text>
<text text-anchor="start" x="55.5" y="-116" font-family="Helvetica,sans-Serif" font-size="10.00">numLatGrid</text>
<text text-anchor="start" x="42" y="-101" font-family="Helvetica,sans-Serif" font-size="10.00">+</text>
<text text-anchor="start" x="55.5" y="-101" font-family="Helvetica,sans-Serif" font-size="10.00">firstLonDeg</text>
<text text-anchor="start" x="42" y="-86" font-family="Helvetica,sans-Serif" font-size="10.00">+</text>
<text text-anchor="start" x="55.5" y="-86" font-family="Helvetica,sans-Serif" font-size="10.00">firstLatDeg</text>
<text text-anchor="start" x="42" y="-71" font-family="Helvetica,sans-Serif" font-size="10.00">+</text>
<text text-anchor="start" x="55.5" y="-71" font-family="Helvetica,sans-Serif" font-size="10.00">lastLonDeg</text>
<text text-anchor="start" x="42" y="-56" font-family="Helvetica,sans-Serif" font-size="10.00">+</text>
<text text-anchor="start" x="55.5" y="-56" font-family="Helvetica,sans-Serif" font-size="10.00">lastLatDeg</text>
<text text-anchor="start" x="42" y="-41" font-family="Helvetica,sans-Serif" font-size="10.00">+</text>
<text text-anchor="start" x="55.5" y="-41" font-family="Helvetica,sans-Serif" font-size="10.00">lonStepDeg</text>
<text text-anchor="start" x="42" y="-26" font-family="Helvetica,sans-Serif" font-size="10.00">+</text>
<text text-anchor="start" x="55.5" y="-26" font-family="Helvetica,sans-Serif" font-size="10.00">latStepDeg</text>
<text text-anchor="start" x="77" y="-11" font-family="Helvetica,sans-Serif" font-size="10.00"> </text>
<polygon fill="#666666" stroke="#666666" points="37.5,-141 37.5,-141 120.5,-141 120.5,-141 37.5,-141"/>
<polygon fill="#666666" stroke="#666666" points="37.5,-21 37.5,-21 53.5,-21 53.5,-21 37.5,-21"/>
<polygon fill="#666666" stroke="#666666" points="53.5,-21 53.5,-21 120.5,-21 120.5,-21 53.5,-21"/>
<polygon fill="none" stroke="#666666" points="37,-4 37,-158 120,-158 120,-4 37,-4"/>
</a>
</g>
</g>
<!-- Node2 -->
<g id="Node000002" class="node">
<title>Node2</title>
<g id="a_Node000002"><a xlink:title=" ">
<path fill="white" stroke="#666666" d="M145,-266C145,-266 12,-266 12,-266 6,-266 0,-260 0,-254 0,-254 0,-221 0,-221 0,-215 6,-209 12,-209 12,-209 145,-209 145,-209 151,-209 157,-215 157,-221 157,-221 157,-254 157,-254 157,-260 151,-266 145,-266"/>
<text text-anchor="start" x="13.5" y="-249.5" font-family="Helvetica,sans-Serif" font-size="10.00">vector&lt; OceanPoleCoeff &gt;</text>
<text text-anchor="start" x="77" y="-234.5" font-family="Helvetica,sans-Serif" font-size="10.00"> </text>
<text text-anchor="start" x="77" y="-219.5" font-family="Helvetica,sans-Serif" font-size="10.00"> </text>
<polygon fill="#666666" stroke="#666666" points="8.5,-244.5 8.5,-244.5 149.5,-244.5 149.5,-244.5 8.5,-244.5"/>
<polygon fill="#666666" stroke="#666666" points="8.5,-229.5 8.5,-229.5 149.5,-229.5 149.5,-229.5 8.5,-229.5"/>
<polygon fill="none" stroke="#666666" points="8,-213 8,-262 149,-262 149,-213 8,-213"/>
</a>
</g>
</g>
<!-- Node2&#45;&gt;Node1 -->
<g id="edge1_Node000001_Node000002" class="edge">
<title>Node2&#45;&gt;Node1</title>
<g id="a_edge1_Node000001_Node000002"><a xlink:title=" ">
<path fill="none" stroke="#63b8ff" d="M78.5,-208.88C78.5,-198.81 78.5,-186.8 78.5,-174.24"/>
<polygon fill="none" stroke="#63b8ff" points="78.5,-174.07 74.5,-168.07 78.5,-162.07 82.5,-168.07 78.5,-174.07"/>
</a>
</g>
<text text-anchor="middle" x="94" y="-183" font-family="Helvetica,sans-Serif" font-size="10.00" fill="grey"> +grid</text>
</g>
<!-- Node3 -->
<g id="Node000003" class="node">
<title>Node3</title>
<g id="a_Node000003"><a xlink:title=" ">
<path fill="white" stroke="#666666" d="M95,-370C95,-370 62,-370 62,-370 56,-370 50,-364 50,-358 50,-358 50,-325 50,-325 50,-319 56,-313 62,-313 62,-313 95,-313 95,-313 101,-313 107,-319 107,-325 107,-325 107,-358 107,-358 107,-364 101,-370 95,-370"/>
<text text-anchor="start" x="63.5" y="-353.5" font-family="Helvetica,sans-Serif" font-size="10.00">vector</text>
<text text-anchor="start" x="77" y="-338.5" font-family="Helvetica,sans-Serif" font-size="10.00"> </text>
<text text-anchor="start" x="77" y="-323.5" font-family="Helvetica,sans-Serif" font-size="10.00"> </text>
<polygon fill="#666666" stroke="#666666" points="58.5,-348.5 58.5,-348.5 99.5,-348.5 99.5,-348.5 58.5,-348.5"/>
<polygon fill="#666666" stroke="#666666" points="58.5,-333.5 58.5,-333.5 99.5,-333.5 99.5,-333.5 58.5,-333.5"/>
<polygon fill="none" stroke="#666666" points="58,-317 58,-366 99,-366 99,-317 58,-317"/>
</a>
</g>
</g>
<!-- Node3&#45;&gt;Node2 -->
<g id="edge2_Node000002_Node000003" class="edge">
<title>Node3&#45;&gt;Node2</title>
<g id="a_edge2_Node000002_Node000003"><a xlink:title=" ">
<path fill="none" stroke="orange" d="M78.5,-302.61C78.5,-290.51 78.5,-277.35 78.5,-266.12"/>
<polygon fill="orange" stroke="orange" points="75,-302.9 78.5,-312.9 82,-302.9 75,-302.9"/>
</a>
</g>
<text text-anchor="middle" x="130" y="-287" font-family="Helvetica,sans-Serif" font-size="10.00" fill="grey"> &lt; OceanPoleCoeff &gt;</text>
</g>
</g>
</svg>
