<?xml version="1.0" encoding="UTF-8" standalone="no"?>
<!DOCTYPE svg PUBLIC "-//W3C//DTD SVG 1.1//EN"
 "http://www.w3.org/Graphics/SVG/1.1/DTD/svg11.dtd">
<!-- Generated by graphviz version 2.43.0 (0)
 -->
<!-- Title: MapIteratorType&lt; OUTTYPE, INTYPE, KEYTYPE &gt; Pages: 1 -->
<svg width="173pt" height="151pt"
 viewBox="0.00 0.00 173.00 151.00" xmlns="http://www.w3.org/2000/svg" xmlns:xlink="http://www.w3.org/1999/xlink">
<g id="graph0" class="graph" transform="scale(1 1) rotate(0) translate(4 147)">
<title>MapIteratorType&lt; OUTTYPE, INTYPE, KEYTYPE &gt;</title>
<!-- Node1 -->
<g id="Node000001" class="node">
<title>Node1</title>
<g id="a_Node000001"><a xlink:href="structMapIteratorType.html" target="_top" xlink:title="An iterator that trys to cast elements to the desired type before using them.">
<path fill="white" stroke="#666666" stroke-width="2" d="M153,-143C153,-143 12,-143 12,-143 6,-143 0,-137 0,-131 0,-131 0,-12 0,-12 0,-6 6,0 12,0 12,0 153,0 153,0 159,0 165,-6 165,-12 165,-12 165,-131 165,-131 165,-137 159,-143 153,-143"/>
<text text-anchor="start" x="13.5" y="-126.5" font-family="Helvetica,sans-Serif" font-size="10.00">MapIteratorType&lt; OUTTYPE,</text>
<text text-anchor="start" x="34" y="-115.5" font-family="Helvetica,sans-Serif" font-size="10.00"> INTYPE, KEYTYPE &gt;</text>
<text text-anchor="start" x="18" y="-100.5" font-family="Helvetica,sans-Serif" font-size="10.00">+</text>
<text text-anchor="start" x="36.5" y="-100.5" font-family="Helvetica,sans-Serif" font-size="10.00">ptr_ptr</text>
<text text-anchor="start" x="18" y="-85.5" font-family="Helvetica,sans-Serif" font-size="10.00">+</text>
<text text-anchor="start" x="36.5" y="-85.5" font-family="Helvetica,sans-Serif" font-size="10.00">endPtr_ptr</text>
<text text-anchor="start" x="18" y="-70.5" font-family="Helvetica,sans-Serif" font-size="10.00">+</text>
<text text-anchor="start" x="36.5" y="-70.5" font-family="Helvetica,sans-Serif" font-size="10.00">MapIteratorType()</text>
<text text-anchor="start" x="18" y="-55.5" font-family="Helvetica,sans-Serif" font-size="10.00">+</text>
<text text-anchor="start" x="36.5" y="-55.5" font-family="Helvetica,sans-Serif" font-size="10.00">operator!=()</text>
<text text-anchor="start" x="18" y="-40.5" font-family="Helvetica,sans-Serif" font-size="10.00">+</text>
<text text-anchor="start" x="36.5" y="-40.5" font-family="Helvetica,sans-Serif" font-size="10.00">operator*()</text>
<text text-anchor="start" x="18" y="-25.5" font-family="Helvetica,sans-Serif" font-size="10.00">+</text>
<text text-anchor="start" x="36.5" y="-25.5" font-family="Helvetica,sans-Serif" font-size="10.00">incrementUntilGood()</text>
<text text-anchor="start" x="18" y="-10.5" font-family="Helvetica,sans-Serif" font-size="10.00">+</text>
<text text-anchor="start" x="36.5" y="-10.5" font-family="Helvetica,sans-Serif" font-size="10.00">operator++()</text>
<polygon fill="#666666" stroke="#666666" points="8.5,-110.5 8.5,-110.5 157.5,-110.5 157.5,-110.5 8.5,-110.5"/>
<polygon fill="#666666" stroke="#666666" points="8.5,-80.5 8.5,-80.5 34.5,-80.5 34.5,-80.5 8.5,-80.5"/>
<polygon fill="#666666" stroke="#666666" points="34.5,-80.5 34.5,-80.5 157.5,-80.5 157.5,-80.5 34.5,-80.5"/>
<polygon fill="none" stroke="#666666" points="8,-4 8,-139 157,-139 157,-4 8,-4"/>
</a>
</g>
</g>
</g>
</svg>
