<?xml version="1.0" encoding="UTF-8" standalone="no"?>
<!DOCTYPE svg PUBLIC "-//W3C//DTD SVG 1.1//EN"
 "http://www.w3.org/Graphics/SVG/1.1/DTD/svg11.dtd">
<!-- Generated by graphviz version 2.43.0 (0)
 -->
<!-- Title: Rtk Pages: 1 -->
<svg width="136pt" height="683pt"
 viewBox="0.00 0.00 136.00 683.00" xmlns="http://www.w3.org/2000/svg" xmlns:xlink="http://www.w3.org/1999/xlink">
<g id="graph0" class="graph" transform="scale(1 1) rotate(0) translate(4 679)">
<title>Rtk</title>
<!-- Node1 -->
<g id="Node000001" class="node">
<title>Node1</title>
<g id="a_Node000001"><a xlink:href="structRtk.html" target="_top" xlink:title=" ">
<path fill="white" stroke="#666666" stroke-width="2" d="M111,-675C111,-675 17,-675 17,-675 11,-675 5,-669 5,-663 5,-663 5,-510 5,-510 5,-504 11,-498 17,-498 17,-498 111,-498 111,-498 117,-498 123,-504 123,-510 123,-510 123,-663 123,-663 123,-669 117,-675 111,-675"/>
<text text-anchor="start" x="55.5" y="-658.5" font-family="Helvetica,sans-Serif" font-size="10.00">Rtk</text>
<text text-anchor="start" x="17" y="-643.5" font-family="Helvetica,sans-Serif" font-size="10.00">+</text>
<text text-anchor="start" x="30" y="-643.5" font-family="Helvetica,sans-Serif" font-size="10.00">sol</text>
<text text-anchor="start" x="17" y="-628.5" font-family="Helvetica,sans-Serif" font-size="10.00">+</text>
<text text-anchor="start" x="30" y="-628.5" font-family="Helvetica,sans-Serif" font-size="10.00">antennaType</text>
<text text-anchor="start" x="17" y="-613.5" font-family="Helvetica,sans-Serif" font-size="10.00">+</text>
<text text-anchor="start" x="30" y="-613.5" font-family="Helvetica,sans-Serif" font-size="10.00">receiverType</text>
<text text-anchor="start" x="17" y="-598.5" font-family="Helvetica,sans-Serif" font-size="10.00">+</text>
<text text-anchor="start" x="30" y="-598.5" font-family="Helvetica,sans-Serif" font-size="10.00">antennaId</text>
<text text-anchor="start" x="17" y="-583.5" font-family="Helvetica,sans-Serif" font-size="10.00">+</text>
<text text-anchor="start" x="30" y="-583.5" font-family="Helvetica,sans-Serif" font-size="10.00">satStatMap</text>
<text text-anchor="start" x="17" y="-568.5" font-family="Helvetica,sans-Serif" font-size="10.00">+</text>
<text text-anchor="start" x="30" y="-568.5" font-family="Helvetica,sans-Serif" font-size="10.00">otlDisplacement</text>
<text text-anchor="start" x="17" y="-553.5" font-family="Helvetica,sans-Serif" font-size="10.00">+</text>
<text text-anchor="start" x="30" y="-553.5" font-family="Helvetica,sans-Serif" font-size="10.00">atlDisplacement</text>
<text text-anchor="start" x="17" y="-538.5" font-family="Helvetica,sans-Serif" font-size="10.00">+</text>
<text text-anchor="start" x="30" y="-538.5" font-family="Helvetica,sans-Serif" font-size="10.00">antDelta</text>
<text text-anchor="start" x="17" y="-523.5" font-family="Helvetica,sans-Serif" font-size="10.00">+</text>
<text text-anchor="start" x="30" y="-523.5" font-family="Helvetica,sans-Serif" font-size="10.00">attStatus</text>
<text text-anchor="start" x="62" y="-508.5" font-family="Helvetica,sans-Serif" font-size="10.00"> </text>
<polygon fill="#666666" stroke="#666666" points="13,-653.5 13,-653.5 115,-653.5 115,-653.5 13,-653.5"/>
<polygon fill="#666666" stroke="#666666" points="13,-518.5 13,-518.5 28,-518.5 28,-518.5 13,-518.5"/>
<polygon fill="#666666" stroke="#666666" points="28,-518.5 28,-518.5 115,-518.5 115,-518.5 28,-518.5"/>
<polygon fill="none" stroke="#666666" points="13,-502 13,-671 115,-671 115,-502 13,-502"/>
</a>
</g>
</g>
<!-- Node2 -->
<g id="Node000002" class="node">
<title>Node2</title>
<g id="a_Node000002"><a xlink:href="structReceiver.html" target="_top" xlink:title="Object to maintain receiver station data.">
<path fill="white" stroke="#666666" d="M116,-462C116,-462 12,-462 12,-462 6,-462 0,-456 0,-450 0,-450 0,-12 0,-12 0,-6 6,0 12,0 12,0 116,0 116,0 122,0 128,-6 128,-12 128,-12 128,-450 128,-450 128,-456 122,-462 116,-462"/>
<text text-anchor="start" x="42.5" y="-446" font-family="Helvetica,sans-Serif" font-size="10.00">Receiver</text>
<text text-anchor="start" x="12" y="-431" font-family="Helvetica,sans-Serif" font-size="10.00">+</text>
<text text-anchor="start" x="25" y="-431" font-family="Helvetica,sans-Serif" font-size="10.00">isPseudoRec</text>
<text text-anchor="start" x="12" y="-416" font-family="Helvetica,sans-Serif" font-size="10.00">+</text>
<text text-anchor="start" x="25" y="-416" font-family="Helvetica,sans-Serif" font-size="10.00">invalid</text>
<text text-anchor="start" x="12" y="-401" font-family="Helvetica,sans-Serif" font-size="10.00">+</text>
<text text-anchor="start" x="25" y="-401" font-family="Helvetica,sans-Serif" font-size="10.00">snx</text>
<text text-anchor="start" x="12" y="-386" font-family="Helvetica,sans-Serif" font-size="10.00">+</text>
<text text-anchor="start" x="25" y="-386" font-family="Helvetica,sans-Serif" font-size="10.00">metaDataMap</text>
<text text-anchor="start" x="12" y="-371" font-family="Helvetica,sans-Serif" font-size="10.00">+</text>
<text text-anchor="start" x="25" y="-371" font-family="Helvetica,sans-Serif" font-size="10.00">obsList</text>
<text text-anchor="start" x="12" y="-356" font-family="Helvetica,sans-Serif" font-size="10.00">+</text>
<text text-anchor="start" x="25" y="-356" font-family="Helvetica,sans-Serif" font-size="10.00">id</text>
<text text-anchor="start" x="12" y="-341" font-family="Helvetica,sans-Serif" font-size="10.00">+</text>
<text text-anchor="start" x="25" y="-341" font-family="Helvetica,sans-Serif" font-size="10.00">primaryApriori</text>
<text text-anchor="start" x="12" y="-326" font-family="Helvetica,sans-Serif" font-size="10.00">+</text>
<text text-anchor="start" x="25" y="-326" font-family="Helvetica,sans-Serif" font-size="10.00">aprioriTime</text>
<text text-anchor="start" x="12" y="-311" font-family="Helvetica,sans-Serif" font-size="10.00">+</text>
<text text-anchor="start" x="25" y="-311" font-family="Helvetica,sans-Serif" font-size="10.00">aprioriClk</text>
<text text-anchor="start" x="12" y="-296" font-family="Helvetica,sans-Serif" font-size="10.00">+</text>
<text text-anchor="start" x="25" y="-296" font-family="Helvetica,sans-Serif" font-size="10.00">aprioriClkVar</text>
<text text-anchor="start" x="12" y="-281" font-family="Helvetica,sans-Serif" font-size="10.00">+</text>
<text text-anchor="start" x="25" y="-281" font-family="Helvetica,sans-Serif" font-size="10.00">aprioriPos</text>
<text text-anchor="start" x="12" y="-266" font-family="Helvetica,sans-Serif" font-size="10.00">+</text>
<text text-anchor="start" x="25" y="-266" font-family="Helvetica,sans-Serif" font-size="10.00">aprioriVar</text>
<text text-anchor="start" x="12" y="-251" font-family="Helvetica,sans-Serif" font-size="10.00">+</text>
<text text-anchor="start" x="25" y="-251" font-family="Helvetica,sans-Serif" font-size="10.00">minconApriori</text>
<text text-anchor="start" x="12" y="-236" font-family="Helvetica,sans-Serif" font-size="10.00">+</text>
<text text-anchor="start" x="25" y="-236" font-family="Helvetica,sans-Serif" font-size="10.00">pos</text>
<text text-anchor="start" x="12" y="-221" font-family="Helvetica,sans-Serif" font-size="10.00">+</text>
<text text-anchor="start" x="25" y="-221" font-family="Helvetica,sans-Serif" font-size="10.00">ready</text>
<text text-anchor="start" x="12" y="-206" font-family="Helvetica,sans-Serif" font-size="10.00">+</text>
<text text-anchor="start" x="25" y="-206" font-family="Helvetica,sans-Serif" font-size="10.00">antBoresight</text>
<text text-anchor="start" x="12" y="-191" font-family="Helvetica,sans-Serif" font-size="10.00">+</text>
<text text-anchor="start" x="25" y="-191" font-family="Helvetica,sans-Serif" font-size="10.00">antAzimuth</text>
<text text-anchor="start" x="12" y="-176" font-family="Helvetica,sans-Serif" font-size="10.00">+</text>
<text text-anchor="start" x="25" y="-176" font-family="Helvetica,sans-Serif" font-size="10.00">traceFilename</text>
<text text-anchor="start" x="12" y="-161" font-family="Helvetica,sans-Serif" font-size="10.00">+</text>
<text text-anchor="start" x="25" y="-161" font-family="Helvetica,sans-Serif" font-size="10.00">jsonTraceFilename</text>
<text text-anchor="start" x="12" y="-146" font-family="Helvetica,sans-Serif" font-size="10.00">+</text>
<text text-anchor="start" x="25" y="-146" font-family="Helvetica,sans-Serif" font-size="10.00">savedSlips</text>
<text text-anchor="start" x="12" y="-131" font-family="Helvetica,sans-Serif" font-size="10.00">+</text>
<text text-anchor="start" x="25" y="-131" font-family="Helvetica,sans-Serif" font-size="10.00">failure</text>
<text text-anchor="start" x="12" y="-116" font-family="Helvetica,sans-Serif" font-size="10.00">+</text>
<text text-anchor="start" x="25" y="-116" font-family="Helvetica,sans-Serif" font-size="10.00">failureSinex</text>
<text text-anchor="start" x="12" y="-101" font-family="Helvetica,sans-Serif" font-size="10.00">+</text>
<text text-anchor="start" x="25" y="-101" font-family="Helvetica,sans-Serif" font-size="10.00">failureAprioriPos</text>
<text text-anchor="start" x="12" y="-86" font-family="Helvetica,sans-Serif" font-size="10.00">+</text>
<text text-anchor="start" x="25" y="-86" font-family="Helvetica,sans-Serif" font-size="10.00">failureEccentricity</text>
<text text-anchor="start" x="12" y="-71" font-family="Helvetica,sans-Serif" font-size="10.00">+</text>
<text text-anchor="start" x="25" y="-71" font-family="Helvetica,sans-Serif" font-size="10.00">failureAntenna</text>
<text text-anchor="start" x="12" y="-56" font-family="Helvetica,sans-Serif" font-size="10.00">+</text>
<text text-anchor="start" x="25" y="-56" font-family="Helvetica,sans-Serif" font-size="10.00">@37</text>
<text text-anchor="start" x="12" y="-41" font-family="Helvetica,sans-Serif" font-size="10.00">+</text>
<text text-anchor="start" x="25" y="-41" font-family="Helvetica,sans-Serif" font-size="10.00">pppTideCache</text>
<text text-anchor="start" x="12" y="-26" font-family="Helvetica,sans-Serif" font-size="10.00">+</text>
<text text-anchor="start" x="25" y="-26" font-family="Helvetica,sans-Serif" font-size="10.00">pppEopCache</text>
<text text-anchor="start" x="62" y="-11" font-family="Helvetica,sans-Serif" font-size="10.00"> </text>
<polygon fill="#666666" stroke="#666666" points="8,-441 8,-441 120,-441 120,-441 8,-441"/>
<polygon fill="#666666" stroke="#666666" points="8,-21 8,-21 23,-21 23,-21 8,-21"/>
<polygon fill="#666666" stroke="#666666" points="23,-21 23,-21 120,-21 120,-21 23,-21"/>
<polygon fill="none" stroke="#666666" points="8,-4 8,-458 120,-458 120,-4 8,-4"/>
</a>
</g>
</g>
<!-- Node1&#45;&gt;Node2 -->
<g id="edge1_Node000001_Node000002" class="edge">
<title>Node1&#45;&gt;Node2</title>
<g id="a_edge1_Node000001_Node000002"><a xlink:title=" ">
<path fill="none" stroke="#63b8ff" d="M64,-487.48C64,-479.32 64,-470.88 64,-462.25"/>
<polygon fill="none" stroke="#63b8ff" points="60.5,-487.66 64,-497.66 67.5,-487.66 60.5,-487.66"/>
</a>
</g>
</g>
</g>
</svg>
