<?xml version="1.0" encoding="UTF-8" standalone="no"?>
<!DOCTYPE svg PUBLIC "-//W3C//DTD SVG 1.1//EN"
 "http://www.w3.org/Graphics/SVG/1.1/DTD/svg11.dtd">
<!-- Generated by graphviz version 2.43.0 (0)
 -->
<!-- Title: PObs Pages: 1 -->
<svg width="540pt" height="1329pt"
 viewBox="0.00 0.00 539.50 1329.00" xmlns="http://www.w3.org/2000/svg" xmlns:xlink="http://www.w3.org/1999/xlink">
<g id="graph0" class="graph" transform="scale(1 1) rotate(0) translate(4 1325)">
<title>PObs</title>
<!-- Node1 -->
<g id="Node000001" class="node">
<title>Node1</title>
<g id="a_Node000001"><a xlink:href="structPObs.html" target="_top" xlink:title=" ">
<path fill="white" stroke="#666666" stroke-width="2" d="M355.5,-716.5C355.5,-716.5 245.5,-716.5 245.5,-716.5 239.5,-716.5 233.5,-710.5 233.5,-704.5 233.5,-704.5 233.5,-645.5 233.5,-645.5 233.5,-639.5 239.5,-633.5 245.5,-633.5 245.5,-633.5 355.5,-633.5 355.5,-633.5 361.5,-633.5 367.5,-639.5 367.5,-645.5 367.5,-645.5 367.5,-704.5 367.5,-704.5 367.5,-710.5 361.5,-716.5 355.5,-716.5"/>
<text text-anchor="start" x="288" y="-700" font-family="Helvetica,sans-Serif" font-size="10.00">PObs</text>
<text text-anchor="start" x="298.5" y="-685" font-family="Helvetica,sans-Serif" font-size="10.00"> </text>
<text text-anchor="start" x="245.5" y="-670" font-family="Helvetica,sans-Serif" font-size="10.00">+</text>
<text text-anchor="start" x="258.5" y="-670" font-family="Helvetica,sans-Serif" font-size="10.00">operator shared_ptr</text>
<text text-anchor="start" x="258.5" y="-659" font-family="Helvetica,sans-Serif" font-size="10.00">&lt; PObs &gt;()</text>
<text text-anchor="start" x="245.5" y="-644" font-family="Helvetica,sans-Serif" font-size="10.00">+</text>
<text text-anchor="start" x="258.5" y="-644" font-family="Helvetica,sans-Serif" font-size="10.00">~PObs()</text>
<polygon fill="#666666" stroke="#666666" points="241.5,-695 241.5,-695 359.5,-695 359.5,-695 241.5,-695"/>
<polygon fill="#666666" stroke="#666666" points="241.5,-680 241.5,-680 359.5,-680 359.5,-680 241.5,-680"/>
<polygon fill="none" stroke="#666666" points="241.5,-637.5 241.5,-712.5 359.5,-712.5 359.5,-637.5 241.5,-637.5"/>
</a>
</g>
</g>
<!-- Node2 -->
<g id="Node000002" class="node">
<title>Node2</title>
<g id="a_Node000002"><a xlink:href="structObservation.html" target="_top" xlink:title=" ">
<path fill="white" stroke="#666666" d="M312,-322C312,-322 223,-322 223,-322 217,-322 211,-316 211,-310 211,-310 211,-277 211,-277 211,-271 217,-265 223,-265 223,-265 312,-265 312,-265 318,-265 324,-271 324,-277 324,-277 324,-310 324,-310 324,-316 318,-322 312,-322"/>
<text text-anchor="start" x="238" y="-305.5" font-family="Helvetica,sans-Serif" font-size="10.00">Observation</text>
<text text-anchor="start" x="223.5" y="-290.5" font-family="Helvetica,sans-Serif" font-size="10.00">+</text>
<text text-anchor="start" x="236.5" y="-290.5" font-family="Helvetica,sans-Serif" font-size="10.00">ephVar</text>
<text text-anchor="start" x="223.5" y="-275.5" font-family="Helvetica,sans-Serif" font-size="10.00">+</text>
<text text-anchor="start" x="236.5" y="-275.5" font-family="Helvetica,sans-Serif" font-size="10.00">~Observation()</text>
<polygon fill="#666666" stroke="#666666" points="219.5,-300.5 219.5,-300.5 316.5,-300.5 316.5,-300.5 219.5,-300.5"/>
<polygon fill="#666666" stroke="#666666" points="219.5,-285.5 219.5,-285.5 234.5,-285.5 234.5,-285.5 219.5,-285.5"/>
<polygon fill="#666666" stroke="#666666" points="234.5,-285.5 234.5,-285.5 316.5,-285.5 316.5,-285.5 234.5,-285.5"/>
<polygon fill="none" stroke="#666666" points="219,-269 219,-318 316,-318 316,-269 219,-269"/>
</a>
</g>
</g>
<!-- Node1&#45;&gt;Node2 -->
<g id="edge7_Node000002_Node000001" class="edge">
<title>Node1&#45;&gt;Node2</title>
<g id="a_edge7_Node000002_Node000001"><a xlink:title=" ">
<path fill="none" stroke="#63b8ff" d="M300.06,-633.4C298.88,-570.29 294.53,-444.98 278.5,-340 278.21,-338.1 277.88,-336.17 277.52,-334.22"/>
<polygon fill="none" stroke="#63b8ff" points="277.48,-334.01 272.33,-328.96 275.01,-322.26 280.16,-327.31 277.48,-334.01"/>
</a>
</g>
<text text-anchor="middle" x="308" y="-343" font-family="Helvetica,sans-Serif" font-size="10.00" fill="grey"> #pObs_ptr</text>
</g>
<!-- Node2&#45;&gt;Node1 -->
<g id="edge1_Node000001_Node000002" class="edge">
<title>Node2&#45;&gt;Node1</title>
<g id="a_edge1_Node000001_Node000002"><a xlink:title=" ">
<path fill="none" stroke="#63b8ff" d="M270.8,-332.46C277.05,-404.3 290.55,-559.55 296.97,-633.39"/>
<polygon fill="none" stroke="#63b8ff" points="274.25,-331.74 269.9,-322.08 267.28,-332.34 274.25,-331.74"/>
</a>
</g>
</g>
<!-- Node6 -->
<g id="Node000006" class="node">
<title>Node6</title>
<g id="a_Node000006"><a xlink:href="structGObs.html" target="_top" xlink:title="Raw observation data from a receiver.">
<path fill="#fff0f0" stroke="red" d="M206.5,-150.5C206.5,-150.5 96.5,-150.5 96.5,-150.5 90.5,-150.5 84.5,-144.5 84.5,-138.5 84.5,-138.5 84.5,-79.5 84.5,-79.5 84.5,-73.5 90.5,-67.5 96.5,-67.5 96.5,-67.5 206.5,-67.5 206.5,-67.5 212.5,-67.5 218.5,-73.5 218.5,-79.5 218.5,-79.5 218.5,-138.5 218.5,-138.5 218.5,-144.5 212.5,-150.5 206.5,-150.5"/>
<text text-anchor="start" x="138" y="-134" font-family="Helvetica,sans-Serif" font-size="10.00">GObs</text>
<text text-anchor="start" x="149.5" y="-119" font-family="Helvetica,sans-Serif" font-size="10.00"> </text>
<text text-anchor="start" x="96.5" y="-104" font-family="Helvetica,sans-Serif" font-size="10.00">+</text>
<text text-anchor="start" x="109.5" y="-104" font-family="Helvetica,sans-Serif" font-size="10.00">operator shared_ptr</text>
<text text-anchor="start" x="109.5" y="-93" font-family="Helvetica,sans-Serif" font-size="10.00">&lt; GObs &gt;()</text>
<text text-anchor="start" x="96.5" y="-78" font-family="Helvetica,sans-Serif" font-size="10.00">+</text>
<text text-anchor="start" x="109.5" y="-78" font-family="Helvetica,sans-Serif" font-size="10.00">~GObs()</text>
<polygon fill="red" stroke="red" points="92.5,-129 92.5,-129 210.5,-129 210.5,-129 92.5,-129"/>
<polygon fill="red" stroke="red" points="92.5,-114 92.5,-114 210.5,-114 210.5,-114 92.5,-114"/>
<polygon fill="none" stroke="red" points="92.5,-71.5 92.5,-146.5 210.5,-146.5 210.5,-71.5 92.5,-71.5"/>
</a>
</g>
</g>
<!-- Node2&#45;&gt;Node6 -->
<g id="edge6_Node000006_Node000002" class="edge">
<title>Node2&#45;&gt;Node6</title>
<g id="a_edge6_Node000006_Node000002"><a xlink:title=" ">
<path fill="none" stroke="#63b8ff" d="M244.4,-256.16C225.02,-225.66 197.36,-182.14 177.26,-150.53"/>
<polygon fill="none" stroke="#63b8ff" points="241.56,-258.22 249.88,-264.78 247.47,-254.47 241.56,-258.22"/>
</a>
</g>
</g>
<!-- Node89 -->
<g id="Node000089" class="node">
<title>Node89</title>
<g id="a_Node000089"><a xlink:href="structFObs.html" target="_top" xlink:title=" ">
<path fill="#fff0f0" stroke="red" d="M358.5,-150.5C358.5,-150.5 248.5,-150.5 248.5,-150.5 242.5,-150.5 236.5,-144.5 236.5,-138.5 236.5,-138.5 236.5,-79.5 236.5,-79.5 236.5,-73.5 242.5,-67.5 248.5,-67.5 248.5,-67.5 358.5,-67.5 358.5,-67.5 364.5,-67.5 370.5,-73.5 370.5,-79.5 370.5,-79.5 370.5,-138.5 370.5,-138.5 370.5,-144.5 364.5,-150.5 358.5,-150.5"/>
<text text-anchor="start" x="291" y="-134" font-family="Helvetica,sans-Serif" font-size="10.00">FObs</text>
<text text-anchor="start" x="301.5" y="-119" font-family="Helvetica,sans-Serif" font-size="10.00"> </text>
<text text-anchor="start" x="248.5" y="-104" font-family="Helvetica,sans-Serif" font-size="10.00">+</text>
<text text-anchor="start" x="261.5" y="-104" font-family="Helvetica,sans-Serif" font-size="10.00">operator shared_ptr</text>
<text text-anchor="start" x="261.5" y="-93" font-family="Helvetica,sans-Serif" font-size="10.00">&lt; FObs &gt;()</text>
<text text-anchor="start" x="248.5" y="-78" font-family="Helvetica,sans-Serif" font-size="10.00">+</text>
<text text-anchor="start" x="261.5" y="-78" font-family="Helvetica,sans-Serif" font-size="10.00">~FObs()</text>
<polygon fill="red" stroke="red" points="244.5,-129 244.5,-129 362.5,-129 362.5,-129 244.5,-129"/>
<polygon fill="red" stroke="red" points="244.5,-114 244.5,-114 362.5,-114 362.5,-114 244.5,-114"/>
<polygon fill="none" stroke="red" points="244.5,-71.5 244.5,-146.5 362.5,-146.5 362.5,-71.5 244.5,-71.5"/>
</a>
</g>
</g>
<!-- Node2&#45;&gt;Node89 -->
<g id="edge9_Node000089_Node000002" class="edge">
<title>Node2&#45;&gt;Node89</title>
<g id="a_edge9_Node000089_Node000002"><a xlink:title=" ">
<path fill="none" stroke="#63b8ff" d="M311.78,-256.96C314.01,-253.81 315.96,-250.48 317.5,-247 330.94,-216.6 325.65,-178.83 318.02,-150.64"/>
<polygon fill="none" stroke="#63b8ff" points="308.9,-254.95 305.3,-264.92 314.33,-259.38 308.9,-254.95"/>
</a>
</g>
</g>
<!-- Node90 -->
<g id="Node000090" class="node">
<title>Node90</title>
<g id="a_Node000090"><a xlink:href="structLObs.html" target="_top" xlink:title=" ">
<path fill="#fff0f0" stroke="red" d="M516.5,-218C516.5,-218 400.5,-218 400.5,-218 394.5,-218 388.5,-212 388.5,-206 388.5,-206 388.5,-12 388.5,-12 388.5,-6 394.5,0 400.5,0 400.5,0 516.5,0 516.5,0 522.5,0 528.5,-6 528.5,-12 528.5,-12 528.5,-206 528.5,-206 528.5,-212 522.5,-218 516.5,-218"/>
<text text-anchor="start" x="446" y="-202" font-family="Helvetica,sans-Serif" font-size="10.00">LObs</text>
<text text-anchor="start" x="400.5" y="-187" font-family="Helvetica,sans-Serif" font-size="10.00">+</text>
<text text-anchor="start" x="413.5" y="-187" font-family="Helvetica,sans-Serif" font-size="10.00">epochEvent</text>
<text text-anchor="start" x="400.5" y="-172" font-family="Helvetica,sans-Serif" font-size="10.00">+</text>
<text text-anchor="start" x="413.5" y="-172" font-family="Helvetica,sans-Serif" font-size="10.00">twoWayTimeOfFlight</text>
<text text-anchor="start" x="400.5" y="-157" font-family="Helvetica,sans-Serif" font-size="10.00">+</text>
<text text-anchor="start" x="413.5" y="-157" font-family="Helvetica,sans-Serif" font-size="10.00">pressure</text>
<text text-anchor="start" x="400.5" y="-142" font-family="Helvetica,sans-Serif" font-size="10.00">+</text>
<text text-anchor="start" x="413.5" y="-142" font-family="Helvetica,sans-Serif" font-size="10.00">temperature</text>
<text text-anchor="start" x="400.5" y="-127" font-family="Helvetica,sans-Serif" font-size="10.00">+</text>
<text text-anchor="start" x="413.5" y="-127" font-family="Helvetica,sans-Serif" font-size="10.00">humidity</text>
<text text-anchor="start" x="400.5" y="-112" font-family="Helvetica,sans-Serif" font-size="10.00">+</text>
<text text-anchor="start" x="413.5" y="-112" font-family="Helvetica,sans-Serif" font-size="10.00">wavelengthNm</text>
<text text-anchor="start" x="400.5" y="-97" font-family="Helvetica,sans-Serif" font-size="10.00">+</text>
<text text-anchor="start" x="413.5" y="-97" font-family="Helvetica,sans-Serif" font-size="10.00">rangeBias</text>
<text text-anchor="start" x="400.5" y="-82" font-family="Helvetica,sans-Serif" font-size="10.00">+</text>
<text text-anchor="start" x="413.5" y="-82" font-family="Helvetica,sans-Serif" font-size="10.00">timeBias</text>
<text text-anchor="start" x="400.5" y="-67" font-family="Helvetica,sans-Serif" font-size="10.00">+</text>
<text text-anchor="start" x="413.5" y="-67" font-family="Helvetica,sans-Serif" font-size="10.00">pressureBias</text>
<text text-anchor="start" x="400.5" y="-52" font-family="Helvetica,sans-Serif" font-size="10.00">+</text>
<text text-anchor="start" x="413.5" y="-52" font-family="Helvetica,sans-Serif" font-size="10.00">humidityBias</text>
<text text-anchor="start" x="400.5" y="-37" font-family="Helvetica,sans-Serif" font-size="10.00">+</text>
<text text-anchor="start" x="413.5" y="-37" font-family="Helvetica,sans-Serif" font-size="10.00">operator shared_ptr</text>
<text text-anchor="start" x="413.5" y="-26" font-family="Helvetica,sans-Serif" font-size="10.00">&lt; LObs &gt;()</text>
<text text-anchor="start" x="400.5" y="-11" font-family="Helvetica,sans-Serif" font-size="10.00">+</text>
<text text-anchor="start" x="413.5" y="-11" font-family="Helvetica,sans-Serif" font-size="10.00">~LObs()</text>
<polygon fill="red" stroke="red" points="396.5,-197 396.5,-197 520.5,-197 520.5,-197 396.5,-197"/>
<polygon fill="red" stroke="red" points="396.5,-47 396.5,-47 411.5,-47 411.5,-47 396.5,-47"/>
<polygon fill="red" stroke="red" points="411.5,-47 411.5,-47 520.5,-47 520.5,-47 411.5,-47"/>
<polygon fill="none" stroke="red" points="396.5,-4 396.5,-214 520.5,-214 520.5,-4 396.5,-4"/>
</a>
</g>
</g>
<!-- Node2&#45;&gt;Node90 -->
<g id="edge11_Node000090_Node000002" class="edge">
<title>Node2&#45;&gt;Node90</title>
<g id="a_edge11_Node000090_Node000002"><a xlink:title=" ">
<path fill="none" stroke="#63b8ff" d="M333.99,-285.03C361.37,-278.85 391.52,-267.56 412.5,-247 420.92,-238.74 427.8,-228.9 433.42,-218.34"/>
<polygon fill="none" stroke="#63b8ff" points="333.13,-281.63 324.05,-287.09 334.55,-288.49 333.13,-281.63"/>
</a>
</g>
</g>
<!-- Node3 -->
<g id="Node000003" class="node">
<title>Node3</title>
<g id="a_Node000003"><a xlink:href="structObsMeta.html" target="_top" xlink:title=" ">
<path fill="white" stroke="#666666" d="M131,-801C131,-801 12,-801 12,-801 6,-801 0,-795 0,-789 0,-789 0,-561 0,-561 0,-555 6,-549 12,-549 12,-549 131,-549 131,-549 137,-549 143,-555 143,-561 143,-561 143,-789 143,-789 143,-795 137,-801 131,-801"/>
<text text-anchor="start" x="50" y="-785" font-family="Helvetica,sans-Serif" font-size="10.00">ObsMeta</text>
<text text-anchor="start" x="12.5" y="-770" font-family="Helvetica,sans-Serif" font-size="10.00">+</text>
<text text-anchor="start" x="25.5" y="-770" font-family="Helvetica,sans-Serif" font-size="10.00">exclude</text>
<text text-anchor="start" x="12.5" y="-755" font-family="Helvetica,sans-Serif" font-size="10.00">+</text>
<text text-anchor="start" x="25.5" y="-755" font-family="Helvetica,sans-Serif" font-size="10.00">excludeElevation</text>
<text text-anchor="start" x="12.5" y="-740" font-family="Helvetica,sans-Serif" font-size="10.00">+</text>
<text text-anchor="start" x="25.5" y="-740" font-family="Helvetica,sans-Serif" font-size="10.00">excludeEclipse</text>
<text text-anchor="start" x="12.5" y="-725" font-family="Helvetica,sans-Serif" font-size="10.00">+</text>
<text text-anchor="start" x="25.5" y="-725" font-family="Helvetica,sans-Serif" font-size="10.00">excludeSystem</text>
<text text-anchor="start" x="12.5" y="-710" font-family="Helvetica,sans-Serif" font-size="10.00">+</text>
<text text-anchor="start" x="25.5" y="-710" font-family="Helvetica,sans-Serif" font-size="10.00">excludeOutlier</text>
<text text-anchor="start" x="12.5" y="-695" font-family="Helvetica,sans-Serif" font-size="10.00">+</text>
<text text-anchor="start" x="25.5" y="-695" font-family="Helvetica,sans-Serif" font-size="10.00">excludeBadSPP</text>
<text text-anchor="start" x="12.5" y="-680" font-family="Helvetica,sans-Serif" font-size="10.00">+</text>
<text text-anchor="start" x="25.5" y="-680" font-family="Helvetica,sans-Serif" font-size="10.00">excludeConfig</text>
<text text-anchor="start" x="12.5" y="-665" font-family="Helvetica,sans-Serif" font-size="10.00">+</text>
<text text-anchor="start" x="25.5" y="-665" font-family="Helvetica,sans-Serif" font-size="10.00">excludeSVH</text>
<text text-anchor="start" x="12.5" y="-650" font-family="Helvetica,sans-Serif" font-size="10.00">+</text>
<text text-anchor="start" x="25.5" y="-650" font-family="Helvetica,sans-Serif" font-size="10.00">excludeBadRange</text>
<text text-anchor="start" x="12.5" y="-635" font-family="Helvetica,sans-Serif" font-size="10.00">+</text>
<text text-anchor="start" x="25.5" y="-635" font-family="Helvetica,sans-Serif" font-size="10.00">excludeDataHandling</text>
<text text-anchor="start" x="12.5" y="-620" font-family="Helvetica,sans-Serif" font-size="10.00">+</text>
<text text-anchor="start" x="25.5" y="-620" font-family="Helvetica,sans-Serif" font-size="10.00">excludeCom</text>
<text text-anchor="start" x="12.5" y="-605" font-family="Helvetica,sans-Serif" font-size="10.00">+</text>
<text text-anchor="start" x="25.5" y="-605" font-family="Helvetica,sans-Serif" font-size="10.00">excludeBadFlags</text>
<text text-anchor="start" x="12.5" y="-590" font-family="Helvetica,sans-Serif" font-size="10.00">+</text>
<text text-anchor="start" x="25.5" y="-590" font-family="Helvetica,sans-Serif" font-size="10.00">excludeAlert</text>
<text text-anchor="start" x="12.5" y="-575" font-family="Helvetica,sans-Serif" font-size="10.00">+</text>
<text text-anchor="start" x="25.5" y="-575" font-family="Helvetica,sans-Serif" font-size="10.00">@21</text>
<text text-anchor="start" x="12.5" y="-560" font-family="Helvetica,sans-Serif" font-size="10.00">+</text>
<text text-anchor="start" x="25.5" y="-560" font-family="Helvetica,sans-Serif" font-size="10.00">ObsMeta()</text>
<polygon fill="#666666" stroke="#666666" points="8.5,-780 8.5,-780 135.5,-780 135.5,-780 8.5,-780"/>
<polygon fill="#666666" stroke="#666666" points="8.5,-570 8.5,-570 23.5,-570 23.5,-570 8.5,-570"/>
<polygon fill="#666666" stroke="#666666" points="23.5,-570 23.5,-570 135.5,-570 135.5,-570 23.5,-570"/>
<polygon fill="none" stroke="#666666" points="8,-553 8,-797 135,-797 135,-553 8,-553"/>
</a>
</g>
</g>
<!-- Node3&#45;&gt;Node2 -->
<g id="edge2_Node000002_Node000003" class="edge">
<title>Node3&#45;&gt;Node2</title>
<g id="a_edge2_Node000002_Node000003"><a xlink:title=" ">
<path fill="none" stroke="#63b8ff" d="M85.62,-538.79C96.78,-482.19 116.76,-418.25 152.5,-369 167.38,-348.5 189.78,-332.16 210.87,-320.07"/>
<polygon fill="none" stroke="#63b8ff" points="82.13,-538.43 83.7,-548.9 89,-539.73 82.13,-538.43"/>
</a>
</g>
</g>
<!-- Node4 -->
<g id="Node000004" class="node">
<title>Node4</title>
<g id="a_Node000004"><a xlink:href="structGTime.html" target="_top" xlink:title="Time structure used throughout this software.">
<path fill="white" stroke="#666666" d="M519.5,-981C519.5,-981 397.5,-981 397.5,-981 391.5,-981 385.5,-975 385.5,-969 385.5,-969 385.5,-381 385.5,-381 385.5,-375 391.5,-369 397.5,-369 397.5,-369 519.5,-369 519.5,-369 525.5,-369 531.5,-375 531.5,-381 531.5,-381 531.5,-969 531.5,-969 531.5,-975 525.5,-981 519.5,-981"/>
<text text-anchor="start" x="442" y="-965" font-family="Helvetica,sans-Serif" font-size="10.00">GTime</text>
<text text-anchor="start" x="397.5" y="-950" font-family="Helvetica,sans-Serif" font-size="10.00">+</text>
<text text-anchor="start" x="410.5" y="-950" font-family="Helvetica,sans-Serif" font-size="10.00">bigTime</text>
<text text-anchor="start" x="397.5" y="-935" font-family="Helvetica,sans-Serif" font-size="10.00">+</text>
<text text-anchor="start" x="410.5" y="-935" font-family="Helvetica,sans-Serif" font-size="10.00">GTime()</text>
<text text-anchor="start" x="397.5" y="-920" font-family="Helvetica,sans-Serif" font-size="10.00">+</text>
<text text-anchor="start" x="410.5" y="-920" font-family="Helvetica,sans-Serif" font-size="10.00">GTime()</text>
<text text-anchor="start" x="397.5" y="-905" font-family="Helvetica,sans-Serif" font-size="10.00">+</text>
<text text-anchor="start" x="410.5" y="-905" font-family="Helvetica,sans-Serif" font-size="10.00">GTime()</text>
<text text-anchor="start" x="397.5" y="-890" font-family="Helvetica,sans-Serif" font-size="10.00">+</text>
<text text-anchor="start" x="410.5" y="-890" font-family="Helvetica,sans-Serif" font-size="10.00">to_string()</text>
<text text-anchor="start" x="397.5" y="-875" font-family="Helvetica,sans-Serif" font-size="10.00">+</text>
<text text-anchor="start" x="410.5" y="-875" font-family="Helvetica,sans-Serif" font-size="10.00">operator==()</text>
<text text-anchor="start" x="397.5" y="-860" font-family="Helvetica,sans-Serif" font-size="10.00">+</text>
<text text-anchor="start" x="410.5" y="-860" font-family="Helvetica,sans-Serif" font-size="10.00">operator!=()</text>
<text text-anchor="start" x="397.5" y="-845" font-family="Helvetica,sans-Serif" font-size="10.00">+</text>
<text text-anchor="start" x="410.5" y="-845" font-family="Helvetica,sans-Serif" font-size="10.00">operator&lt;()</text>
<text text-anchor="start" x="397.5" y="-830" font-family="Helvetica,sans-Serif" font-size="10.00">+</text>
<text text-anchor="start" x="410.5" y="-830" font-family="Helvetica,sans-Serif" font-size="10.00">operator&gt;()</text>
<text text-anchor="start" x="397.5" y="-815" font-family="Helvetica,sans-Serif" font-size="10.00">+</text>
<text text-anchor="start" x="410.5" y="-815" font-family="Helvetica,sans-Serif" font-size="10.00">operator&gt;=()</text>
<text text-anchor="start" x="397.5" y="-800" font-family="Helvetica,sans-Serif" font-size="10.00">+</text>
<text text-anchor="start" x="410.5" y="-800" font-family="Helvetica,sans-Serif" font-size="10.00">operator+()</text>
<text text-anchor="start" x="397.5" y="-785" font-family="Helvetica,sans-Serif" font-size="10.00">+</text>
<text text-anchor="start" x="410.5" y="-785" font-family="Helvetica,sans-Serif" font-size="10.00">operator+()</text>
<text text-anchor="start" x="397.5" y="-770" font-family="Helvetica,sans-Serif" font-size="10.00">+</text>
<text text-anchor="start" x="410.5" y="-770" font-family="Helvetica,sans-Serif" font-size="10.00">operator+()</text>
<text text-anchor="start" x="397.5" y="-755" font-family="Helvetica,sans-Serif" font-size="10.00">+</text>
<text text-anchor="start" x="410.5" y="-755" font-family="Helvetica,sans-Serif" font-size="10.00">operator+=()</text>
<text text-anchor="start" x="397.5" y="-740" font-family="Helvetica,sans-Serif" font-size="10.00">+</text>
<text text-anchor="start" x="410.5" y="-740" font-family="Helvetica,sans-Serif" font-size="10.00">operator&#45;=()</text>
<text text-anchor="start" x="397.5" y="-725" font-family="Helvetica,sans-Serif" font-size="10.00">+</text>
<text text-anchor="start" x="410.5" y="-725" font-family="Helvetica,sans-Serif" font-size="10.00">operator&#45;()</text>
<text text-anchor="start" x="397.5" y="-710" font-family="Helvetica,sans-Serif" font-size="10.00">+</text>
<text text-anchor="start" x="410.5" y="-710" font-family="Helvetica,sans-Serif" font-size="10.00">operator&#45;()</text>
<text text-anchor="start" x="397.5" y="-695" font-family="Helvetica,sans-Serif" font-size="10.00">+</text>
<text text-anchor="start" x="410.5" y="-695" font-family="Helvetica,sans-Serif" font-size="10.00">operator&#45;()</text>
<text text-anchor="start" x="397.5" y="-680" font-family="Helvetica,sans-Serif" font-size="10.00">+</text>
<text text-anchor="start" x="410.5" y="-680" font-family="Helvetica,sans-Serif" font-size="10.00">operator++()</text>
<text text-anchor="start" x="397.5" y="-665" font-family="Helvetica,sans-Serif" font-size="10.00">+</text>
<text text-anchor="start" x="410.5" y="-665" font-family="Helvetica,sans-Serif" font-size="10.00">GTime()</text>
<text text-anchor="start" x="397.5" y="-650" font-family="Helvetica,sans-Serif" font-size="10.00">+</text>
<text text-anchor="start" x="410.5" y="-650" font-family="Helvetica,sans-Serif" font-size="10.00">GTime()</text>
<text text-anchor="start" x="397.5" y="-635" font-family="Helvetica,sans-Serif" font-size="10.00">+</text>
<text text-anchor="start" x="410.5" y="-635" font-family="Helvetica,sans-Serif" font-size="10.00">GTime()</text>
<text text-anchor="start" x="397.5" y="-620" font-family="Helvetica,sans-Serif" font-size="10.00">+</text>
<text text-anchor="start" x="410.5" y="-620" font-family="Helvetica,sans-Serif" font-size="10.00">GTime()</text>
<text text-anchor="start" x="397.5" y="-605" font-family="Helvetica,sans-Serif" font-size="10.00">+</text>
<text text-anchor="start" x="410.5" y="-605" font-family="Helvetica,sans-Serif" font-size="10.00">GTime()</text>
<text text-anchor="start" x="397.5" y="-590" font-family="Helvetica,sans-Serif" font-size="10.00">+</text>
<text text-anchor="start" x="410.5" y="-590" font-family="Helvetica,sans-Serif" font-size="10.00">serialize()</text>
<text text-anchor="start" x="397.5" y="-575" font-family="Helvetica,sans-Serif" font-size="10.00">+</text>
<text text-anchor="start" x="410.5" y="-575" font-family="Helvetica,sans-Serif" font-size="10.00">floorTime()</text>
<text text-anchor="start" x="397.5" y="-560" font-family="Helvetica,sans-Serif" font-size="10.00">+</text>
<text text-anchor="start" x="410.5" y="-560" font-family="Helvetica,sans-Serif" font-size="10.00">gregString()</text>
<text text-anchor="start" x="397.5" y="-545" font-family="Helvetica,sans-Serif" font-size="10.00">+</text>
<text text-anchor="start" x="410.5" y="-545" font-family="Helvetica,sans-Serif" font-size="10.00">operator long double()</text>
<text text-anchor="start" x="397.5" y="-530" font-family="Helvetica,sans-Serif" font-size="10.00">+</text>
<text text-anchor="start" x="410.5" y="-530" font-family="Helvetica,sans-Serif" font-size="10.00">operator MjDateTT()</text>
<text text-anchor="start" x="397.5" y="-515" font-family="Helvetica,sans-Serif" font-size="10.00">+</text>
<text text-anchor="start" x="410.5" y="-515" font-family="Helvetica,sans-Serif" font-size="10.00">operator GEpoch()</text>
<text text-anchor="start" x="397.5" y="-500" font-family="Helvetica,sans-Serif" font-size="10.00">+</text>
<text text-anchor="start" x="410.5" y="-500" font-family="Helvetica,sans-Serif" font-size="10.00">operator UtcTime()</text>
<text text-anchor="start" x="397.5" y="-485" font-family="Helvetica,sans-Serif" font-size="10.00">+</text>
<text text-anchor="start" x="410.5" y="-485" font-family="Helvetica,sans-Serif" font-size="10.00">operator GWeek()</text>
<text text-anchor="start" x="397.5" y="-470" font-family="Helvetica,sans-Serif" font-size="10.00">+</text>
<text text-anchor="start" x="410.5" y="-470" font-family="Helvetica,sans-Serif" font-size="10.00">operator BWeek()</text>
<text text-anchor="start" x="397.5" y="-455" font-family="Helvetica,sans-Serif" font-size="10.00">+</text>
<text text-anchor="start" x="410.5" y="-455" font-family="Helvetica,sans-Serif" font-size="10.00">operator GTow()</text>
<text text-anchor="start" x="397.5" y="-440" font-family="Helvetica,sans-Serif" font-size="10.00">+</text>
<text text-anchor="start" x="410.5" y="-440" font-family="Helvetica,sans-Serif" font-size="10.00">operator BTow()</text>
<text text-anchor="start" x="397.5" y="-425" font-family="Helvetica,sans-Serif" font-size="10.00">+</text>
<text text-anchor="start" x="410.5" y="-425" font-family="Helvetica,sans-Serif" font-size="10.00">operator PTime()</text>
<text text-anchor="start" x="397.5" y="-410" font-family="Helvetica,sans-Serif" font-size="10.00">+</text>
<text text-anchor="start" x="410.5" y="-410" font-family="Helvetica,sans-Serif" font-size="10.00">operator string()</text>
<text text-anchor="start" x="397.5" y="-395" font-family="Helvetica,sans-Serif" font-size="10.00">+</text>
<text text-anchor="start" x="410.5" y="-395" font-family="Helvetica,sans-Serif" font-size="10.00">operator RTod()</text>
<text text-anchor="start" x="397.5" y="-380" font-family="Helvetica,sans-Serif" font-size="10.00">+</text>
<text text-anchor="start" x="410.5" y="-380" font-family="Helvetica,sans-Serif" font-size="10.00">noTime()</text>
<polygon fill="#666666" stroke="#666666" points="393.5,-960 393.5,-960 523.5,-960 523.5,-960 393.5,-960"/>
<polygon fill="#666666" stroke="#666666" points="393.5,-945 393.5,-945 408.5,-945 408.5,-945 393.5,-945"/>
<polygon fill="#666666" stroke="#666666" points="408.5,-945 408.5,-945 523.5,-945 523.5,-945 408.5,-945"/>
<polygon fill="none" stroke="#666666" points="393.5,-373 393.5,-977 523.5,-977 523.5,-373 393.5,-373"/>
</a>
</g>
</g>
<!-- Node4&#45;&gt;Node2 -->
<g id="edge3_Node000002_Node000004" class="edge">
<title>Node4&#45;&gt;Node2</title>
<g id="a_edge3_Node000002_Node000004"><a xlink:title=" ">
<path fill="none" stroke="#63b8ff" d="M385.46,-383.39C382.58,-378.49 379.6,-373.69 376.5,-369 365.87,-352.92 350.46,-339.37 334.56,-328.42"/>
<polygon fill="none" stroke="#63b8ff" points="334.15,-328.15 326.94,-328.22 324.09,-321.6 331.3,-321.52 334.15,-328.15"/>
</a>
</g>
<text text-anchor="middle" x="377.5" y="-343" font-family="Helvetica,sans-Serif" font-size="10.00" fill="grey"> +time</text>
</g>
<!-- Node4&#45;&gt;Node90 -->
<g id="edge12_Node000090_Node000004" class="edge">
<title>Node4&#45;&gt;Node90</title>
<g id="a_edge12_Node000090_Node000004"><a xlink:title=" ">
<path fill="none" stroke="#63b8ff" d="M458.5,-368.89C458.5,-319.64 458.5,-271.33 458.5,-230.03"/>
<polygon fill="none" stroke="#63b8ff" points="458.5,-230.01 454.5,-224.01 458.5,-218.01 462.5,-224.01 458.5,-230.01"/>
</a>
</g>
<text text-anchor="middle" x="481.5" y="-291" font-family="Helvetica,sans-Serif" font-size="10.00" fill="grey"> +timeTx</text>
</g>
<!-- Node5 -->
<g id="Node000005" class="node">
<title>Node5</title>
<g id="a_Node000005"><a xlink:title=" ">
<path fill="white" stroke="#666666" d="M203.5,-703.5C203.5,-703.5 173.5,-703.5 173.5,-703.5 167.5,-703.5 161.5,-697.5 161.5,-691.5 161.5,-691.5 161.5,-658.5 161.5,-658.5 161.5,-652.5 167.5,-646.5 173.5,-646.5 173.5,-646.5 203.5,-646.5 203.5,-646.5 209.5,-646.5 215.5,-652.5 215.5,-658.5 215.5,-658.5 215.5,-691.5 215.5,-691.5 215.5,-697.5 209.5,-703.5 203.5,-703.5"/>
<text text-anchor="start" x="174.5" y="-687" font-family="Helvetica,sans-Serif" font-size="10.00">string</text>
<text text-anchor="start" x="186.5" y="-672" font-family="Helvetica,sans-Serif" font-size="10.00"> </text>
<text text-anchor="start" x="186.5" y="-657" font-family="Helvetica,sans-Serif" font-size="10.00"> </text>
<polygon fill="#666666" stroke="#666666" points="169.5,-682 169.5,-682 207.5,-682 207.5,-682 169.5,-682"/>
<polygon fill="#666666" stroke="#666666" points="169.5,-667 169.5,-667 207.5,-667 207.5,-667 169.5,-667"/>
<polygon fill="none" stroke="#666666" points="169.5,-650.5 169.5,-699.5 207.5,-699.5 207.5,-650.5 169.5,-650.5"/>
</a>
</g>
</g>
<!-- Node5&#45;&gt;Node2 -->
<g id="edge4_Node000002_Node000005" class="edge">
<title>Node5&#45;&gt;Node2</title>
<g id="a_edge4_Node000002_Node000005"><a xlink:title=" ">
<path fill="none" stroke="#63b8ff" d="M185.92,-646.07C181.63,-586.71 177.69,-444.84 225.5,-340 226.77,-337.22 228.27,-334.49 229.95,-331.85"/>
<polygon fill="none" stroke="#63b8ff" points="230.01,-331.76 230.32,-324.56 237.09,-322.07 236.78,-329.28 230.01,-331.76"/>
</a>
</g>
<text text-anchor="middle" x="247" y="-343" font-family="Helvetica,sans-Serif" font-size="10.00" fill="grey"> +mount</text>
</g>
<!-- Node6&#45;&gt;Node2 -->
<g id="edge5_Node000002_Node000006" class="edge">
<title>Node6&#45;&gt;Node2</title>
<g id="a_edge5_Node000002_Node000006"><a xlink:title=" ">
<path fill="none" stroke="#63b8ff" d="M142.89,-150.54C139.01,-179.94 138.97,-219.25 158.5,-247 168.38,-261.03 183.44,-270.76 199.25,-277.48"/>
<polygon fill="none" stroke="#63b8ff" points="199.61,-277.62 206.64,-276.01 210.83,-281.87 203.8,-283.49 199.61,-277.62"/>
</a>
</g>
<text text-anchor="middle" x="186" y="-239" font-family="Helvetica,sans-Serif" font-size="10.00" fill="grey"> #gObs_ptr</text>
</g>
<!-- Node89&#45;&gt;Node2 -->
<g id="edge8_Node000002_Node000089" class="edge">
<title>Node89&#45;&gt;Node2</title>
<g id="a_edge8_Node000002_Node000089"><a xlink:title=" ">
<path fill="none" stroke="#63b8ff" d="M287.49,-150.7C278.79,-175.03 268.92,-206.79 264.5,-236 263.77,-240.83 264.34,-242.11 264.5,-247 264.56,-248.78 264.63,-250.6 264.71,-252.44"/>
<polygon fill="none" stroke="#63b8ff" points="264.72,-252.62 269.04,-258.39 265.37,-264.6 261.05,-258.83 264.72,-252.62"/>
</a>
</g>
<text text-anchor="middle" x="291" y="-239" font-family="Helvetica,sans-Serif" font-size="10.00" fill="grey"> #fObs_ptr</text>
</g>
<!-- Node90&#45;&gt;Node2 -->
<g id="edge10_Node000002_Node000090" class="edge">
<title>Node90&#45;&gt;Node2</title>
<g id="a_edge10_Node000002_Node000090"><a xlink:title=" ">
<path fill="none" stroke="#63b8ff" d="M388.45,-208.98C385.51,-212.09 382.52,-215.11 379.5,-218 363.91,-232.91 344.99,-246.76 327.17,-258.37"/>
<polygon fill="none" stroke="#63b8ff" points="326.97,-258.5 324.05,-265.1 316.84,-264.94 319.76,-258.35 326.97,-258.5"/>
</a>
</g>
<text text-anchor="middle" x="382.5" y="-239" font-family="Helvetica,sans-Serif" font-size="10.00" fill="grey"> #lObs_ptr</text>
</g>
<!-- Node9 -->
<g id="Node000009" class="node">
<title>Node9</title>
<g id="a_Node000009"><a xlink:href="structSatSys.html" target="_top" xlink:title="Object holding satellite id, and providing related functions.">
<path fill="#fff0f0" stroke="red" d="M292,-1321C292,-1321 199,-1321 199,-1321 193,-1321 187,-1315 187,-1309 187,-1309 187,-1051 187,-1051 187,-1045 193,-1039 199,-1039 199,-1039 292,-1039 292,-1039 298,-1039 304,-1045 304,-1051 304,-1051 304,-1309 304,-1309 304,-1315 298,-1321 292,-1321"/>
<text text-anchor="start" x="229" y="-1305" font-family="Helvetica,sans-Serif" font-size="10.00">SatSys</text>
<text text-anchor="start" x="199.5" y="-1290" font-family="Helvetica,sans-Serif" font-size="10.00">+</text>
<text text-anchor="start" x="212.5" y="-1290" font-family="Helvetica,sans-Serif" font-size="10.00">sys</text>
<text text-anchor="start" x="199.5" y="-1275" font-family="Helvetica,sans-Serif" font-size="10.00">+</text>
<text text-anchor="start" x="212.5" y="-1275" font-family="Helvetica,sans-Serif" font-size="10.00">prn</text>
<text text-anchor="start" x="199.5" y="-1260" font-family="Helvetica,sans-Serif" font-size="10.00">+</text>
<text text-anchor="start" x="212.5" y="-1260" font-family="Helvetica,sans-Serif" font-size="10.00">SatSys()</text>
<text text-anchor="start" x="199.5" y="-1245" font-family="Helvetica,sans-Serif" font-size="10.00">+</text>
<text text-anchor="start" x="212.5" y="-1245" font-family="Helvetica,sans-Serif" font-size="10.00">sysChar()</text>
<text text-anchor="start" x="199.5" y="-1230" font-family="Helvetica,sans-Serif" font-size="10.00">+</text>
<text text-anchor="start" x="212.5" y="-1230" font-family="Helvetica,sans-Serif" font-size="10.00">getId()</text>
<text text-anchor="start" x="199.5" y="-1215" font-family="Helvetica,sans-Serif" font-size="10.00">+</text>
<text text-anchor="start" x="212.5" y="-1215" font-family="Helvetica,sans-Serif" font-size="10.00">operator int()</text>
<text text-anchor="start" x="199.5" y="-1200" font-family="Helvetica,sans-Serif" font-size="10.00">+</text>
<text text-anchor="start" x="212.5" y="-1200" font-family="Helvetica,sans-Serif" font-size="10.00">setBlockType()</text>
<text text-anchor="start" x="199.5" y="-1185" font-family="Helvetica,sans-Serif" font-size="10.00">+</text>
<text text-anchor="start" x="212.5" y="-1185" font-family="Helvetica,sans-Serif" font-size="10.00">setSvn()</text>
<text text-anchor="start" x="199.5" y="-1170" font-family="Helvetica,sans-Serif" font-size="10.00">+</text>
<text text-anchor="start" x="212.5" y="-1170" font-family="Helvetica,sans-Serif" font-size="10.00">blockType()</text>
<text text-anchor="start" x="199.5" y="-1155" font-family="Helvetica,sans-Serif" font-size="10.00">+</text>
<text text-anchor="start" x="212.5" y="-1155" font-family="Helvetica,sans-Serif" font-size="10.00">svn()</text>
<text text-anchor="start" x="199.5" y="-1140" font-family="Helvetica,sans-Serif" font-size="10.00">+</text>
<text text-anchor="start" x="212.5" y="-1140" font-family="Helvetica,sans-Serif" font-size="10.00">fromHash()</text>
<text text-anchor="start" x="199.5" y="-1125" font-family="Helvetica,sans-Serif" font-size="10.00">+</text>
<text text-anchor="start" x="212.5" y="-1125" font-family="Helvetica,sans-Serif" font-size="10.00">id()</text>
<text text-anchor="start" x="199.5" y="-1110" font-family="Helvetica,sans-Serif" font-size="10.00">+</text>
<text text-anchor="start" x="212.5" y="-1110" font-family="Helvetica,sans-Serif" font-size="10.00">operator string()</text>
<text text-anchor="start" x="199.5" y="-1095" font-family="Helvetica,sans-Serif" font-size="10.00">+</text>
<text text-anchor="start" x="212.5" y="-1095" font-family="Helvetica,sans-Serif" font-size="10.00">SatSys()</text>
<text text-anchor="start" x="199.5" y="-1080" font-family="Helvetica,sans-Serif" font-size="10.00">+</text>
<text text-anchor="start" x="212.5" y="-1080" font-family="Helvetica,sans-Serif" font-size="10.00">sysName()</text>
<text text-anchor="start" x="199.5" y="-1065" font-family="Helvetica,sans-Serif" font-size="10.00">+</text>
<text text-anchor="start" x="212.5" y="-1065" font-family="Helvetica,sans-Serif" font-size="10.00">serialize()</text>
<text text-anchor="start" x="199.5" y="-1050" font-family="Helvetica,sans-Serif" font-size="10.00">+</text>
<text text-anchor="start" x="212.5" y="-1050" font-family="Helvetica,sans-Serif" font-size="10.00">sysFromChar()</text>
<polygon fill="red" stroke="red" points="195.5,-1300 195.5,-1300 296.5,-1300 296.5,-1300 195.5,-1300"/>
<polygon fill="red" stroke="red" points="195.5,-1270 195.5,-1270 210.5,-1270 210.5,-1270 195.5,-1270"/>
<polygon fill="red" stroke="red" points="210.5,-1270 210.5,-1270 296.5,-1270 296.5,-1270 210.5,-1270"/>
<polygon fill="none" stroke="red" points="195,-1043 195,-1317 296,-1317 296,-1043 195,-1043"/>
</a>
</g>
</g>
<!-- Node9&#45;&gt;Node1 -->
<g id="edge13_Node000001_Node000009" class="edge">
<title>Node9&#45;&gt;Node1</title>
<g id="a_edge13_Node000001_Node000009"><a xlink:title=" ">
<path fill="none" stroke="#63b8ff" d="M260.82,-1038.89C272.09,-935.84 286.77,-801.53 294.74,-728.64"/>
<polygon fill="none" stroke="#63b8ff" points="294.75,-728.56 291.43,-722.16 296.06,-716.63 299.38,-723.03 294.75,-728.56"/>
</a>
</g>
<text text-anchor="middle" x="279.5" y="-1007.5" font-family="Helvetica,sans-Serif" font-size="10.00" fill="grey"> +Sat</text>
</g>
<!-- Node42 -->
<g id="Node000042" class="node">
<title>Node42</title>
<g id="a_Node000042"><a xlink:title=" ">
<path fill="white" stroke="#666666" d="M379,-1208.5C379,-1208.5 334,-1208.5 334,-1208.5 328,-1208.5 322,-1202.5 322,-1196.5 322,-1196.5 322,-1163.5 322,-1163.5 322,-1157.5 328,-1151.5 334,-1151.5 334,-1151.5 379,-1151.5 379,-1151.5 385,-1151.5 391,-1157.5 391,-1163.5 391,-1163.5 391,-1196.5 391,-1196.5 391,-1202.5 385,-1208.5 379,-1208.5"/>
<text text-anchor="start" x="335.5" y="-1192" font-family="Helvetica,sans-Serif" font-size="10.00">Vector3d</text>
<text text-anchor="start" x="355" y="-1177" font-family="Helvetica,sans-Serif" font-size="10.00"> </text>
<text text-anchor="start" x="355" y="-1162" font-family="Helvetica,sans-Serif" font-size="10.00"> </text>
<polygon fill="#666666" stroke="#666666" points="330.5,-1187 330.5,-1187 383.5,-1187 383.5,-1187 330.5,-1187"/>
<polygon fill="#666666" stroke="#666666" points="330.5,-1172 330.5,-1172 383.5,-1172 383.5,-1172 330.5,-1172"/>
<polygon fill="none" stroke="#666666" points="330,-1155.5 330,-1204.5 383,-1204.5 383,-1155.5 330,-1155.5"/>
</a>
</g>
</g>
<!-- Node42&#45;&gt;Node1 -->
<g id="edge14_Node000001_Node000042" class="edge">
<title>Node42&#45;&gt;Node1</title>
<g id="a_edge14_Node000001_Node000042"><a xlink:title=" ">
<path fill="none" stroke="#63b8ff" d="M353.41,-1151.24C344.42,-1070.51 318.18,-834.84 306.38,-728.79"/>
<polygon fill="none" stroke="#63b8ff" points="306.37,-728.75 301.73,-723.23 305.04,-716.82 309.68,-722.34 306.37,-728.75"/>
</a>
</g>
<text text-anchor="middle" x="352" y="-1013" font-family="Helvetica,sans-Serif" font-size="10.00" fill="grey"> +pos</text>
<text text-anchor="middle" x="352" y="-1002" font-family="Helvetica,sans-Serif" font-size="10.00" fill="grey">+vel</text>
</g>
</g>
</svg>
