<?xml version="1.0" encoding="UTF-8" standalone="no"?>
<!DOCTYPE svg PUBLIC "-//W3C//DTD SVG 1.1//EN"
 "http://www.w3.org/Graphics/SVG/1.1/DTD/svg11.dtd">
<!-- Generated by graphviz version 2.43.0 (0)
 -->
<!-- Title: NtripBroadcaster::startBroadcast Pages: 1 -->
<svg width="347pt" height="27pt"
 viewBox="0.00 0.00 347.00 27.00" xmlns="http://www.w3.org/2000/svg" xmlns:xlink="http://www.w3.org/1999/xlink">
<g id="graph0" class="graph" transform="scale(1 1) rotate(0) translate(4 23)">
<title>NtripBroadcaster::startBroadcast</title>
<!-- Node1 -->
<g id="Node000001" class="node">
<title>Node1</title>
<g id="a_Node000001"><a xlink:href="structNtripBroadcaster.html#a0bc31e25bfc5c0b12d3a5351c86fc345" target="_top" xlink:title=" ">
<path fill="#fff0f0" stroke="red" stroke-width="2" d="M169.67,-19C169.67,-19 6.33,-19 6.33,-19 3.17,-19 0,-15.83 0,-12.67 0,-12.67 0,-6.33 0,-6.33 0,-3.17 3.17,0 6.33,0 6.33,0 169.67,0 169.67,0 172.83,0 176,-3.17 176,-6.33 176,-6.33 176,-12.67 176,-12.67 176,-15.83 172.83,-19 169.67,-19"/>
<text text-anchor="middle" x="88" y="-7" font-family="Helvetica,sans-Serif" font-size="10.00">NtripBroadcaster::startBroadcast</text>
</a>
</g>
</g>
<!-- Node2 -->
<g id="Node000002" class="node">
<title>Node2</title>
<g id="a_Node000002"><a xlink:href="structTcpSocket.html#a7f5d1588f288781c063fd0609b9e5bf8" target="_top" xlink:title=" ">
<path fill="#fff0f0" stroke="red" d="M332.67,-19C332.67,-19 218.33,-19 218.33,-19 215.17,-19 212,-15.83 212,-12.67 212,-12.67 212,-6.33 212,-6.33 212,-3.17 215.17,0 218.33,0 218.33,0 332.67,0 332.67,0 335.83,0 339,-3.17 339,-6.33 339,-6.33 339,-12.67 339,-12.67 339,-15.83 335.83,-19 332.67,-19"/>
<text text-anchor="middle" x="275.5" y="-7" font-family="Helvetica,sans-Serif" font-size="10.00">TcpSocket::startClients</text>
</a>
</g>
</g>
<!-- Node1&#45;&gt;Node2 -->
<g id="edge1_Node000001_Node000002" class="edge">
<title>Node1&#45;&gt;Node2</title>
<g id="a_edge1_Node000001_Node000002"><a xlink:title=" ">
<path fill="none" stroke="#63b8ff" d="M176.05,-9.5C184.61,-9.5 193.24,-9.5 201.65,-9.5"/>
<polygon fill="#63b8ff" stroke="#63b8ff" points="201.76,-13 211.76,-9.5 201.76,-6 201.76,-13"/>
</a>
</g>
</g>
</g>
</svg>
