<?xml version="1.0" encoding="UTF-8" standalone="no"?>
<!DOCTYPE svg PUBLIC "-//W3C//DTD SVG 1.1//EN"
 "http://www.w3.org/Graphics/SVG/1.1/DTD/svg11.dtd">
<!-- Generated by graphviz version 2.43.0 (0)
 -->
<!-- Title: ReceiverKalmans Pages: 1 -->
<svg width="401pt" height="1597pt"
 viewBox="0.00 0.00 400.50 1597.00" xmlns="http://www.w3.org/2000/svg" xmlns:xlink="http://www.w3.org/1999/xlink">
<g id="graph0" class="graph" transform="scale(1 1) rotate(0) translate(4 1593)">
<title>ReceiverKalmans</title>
<!-- Node1 -->
<g id="Node000001" class="node">
<title>Node1</title>
<g id="a_Node000001"><a xlink:href="structReceiverKalmans.html" target="_top" xlink:title=" ">
<path fill="white" stroke="#666666" stroke-width="2" d="M246,-911C246,-911 158,-911 158,-911 152,-911 146,-905 146,-899 146,-899 146,-731 146,-731 146,-725 152,-719 158,-719 158,-719 246,-719 246,-719 252,-719 258,-725 258,-731 258,-731 258,-899 258,-899 258,-905 252,-911 246,-911"/>
<text text-anchor="start" x="159" y="-895" font-family="Helvetica,sans-Serif" font-size="10.00">ReceiverKalmans</text>
<text text-anchor="start" x="159" y="-880" font-family="Helvetica,sans-Serif" font-size="10.00">+</text>
<text text-anchor="start" x="173" y="-880" font-family="Helvetica,sans-Serif" font-size="10.00">ambiguity</text>
<text text-anchor="start" x="159" y="-865" font-family="Helvetica,sans-Serif" font-size="10.00">+</text>
<text text-anchor="start" x="173" y="-865" font-family="Helvetica,sans-Serif" font-size="10.00">strain_rate</text>
<text text-anchor="start" x="159" y="-850" font-family="Helvetica,sans-Serif" font-size="10.00">+</text>
<text text-anchor="start" x="173" y="-850" font-family="Helvetica,sans-Serif" font-size="10.00">slr_range_bias</text>
<text text-anchor="start" x="159" y="-835" font-family="Helvetica,sans-Serif" font-size="10.00">+</text>
<text text-anchor="start" x="173" y="-835" font-family="Helvetica,sans-Serif" font-size="10.00">slr_time_bias</text>
<text text-anchor="start" x="159" y="-820" font-family="Helvetica,sans-Serif" font-size="10.00">+</text>
<text text-anchor="start" x="173" y="-820" font-family="Helvetica,sans-Serif" font-size="10.00">pcv</text>
<text text-anchor="start" x="159" y="-805" font-family="Helvetica,sans-Serif" font-size="10.00">+</text>
<text text-anchor="start" x="173" y="-805" font-family="Helvetica,sans-Serif" font-size="10.00">ion_stec</text>
<text text-anchor="start" x="159" y="-790" font-family="Helvetica,sans-Serif" font-size="10.00">+</text>
<text text-anchor="start" x="173" y="-790" font-family="Helvetica,sans-Serif" font-size="10.00">ion_model</text>
<text text-anchor="start" x="159" y="-775" font-family="Helvetica,sans-Serif" font-size="10.00">+</text>
<text text-anchor="start" x="173" y="-775" font-family="Helvetica,sans-Serif" font-size="10.00">trop</text>
<text text-anchor="start" x="159" y="-760" font-family="Helvetica,sans-Serif" font-size="10.00">+</text>
<text text-anchor="start" x="173" y="-760" font-family="Helvetica,sans-Serif" font-size="10.00">trop_grads</text>
<text text-anchor="start" x="159" y="-745" font-family="Helvetica,sans-Serif" font-size="10.00">+</text>
<text text-anchor="start" x="173" y="-745" font-family="Helvetica,sans-Serif" font-size="10.00">trop_maps</text>
<text text-anchor="start" x="159" y="-730" font-family="Helvetica,sans-Serif" font-size="10.00">+</text>
<text text-anchor="start" x="173" y="-730" font-family="Helvetica,sans-Serif" font-size="10.00">operator+=()</text>
<polygon fill="#666666" stroke="#666666" points="154,-890 154,-890 250,-890 250,-890 154,-890"/>
<polygon fill="#666666" stroke="#666666" points="154,-740 154,-740 171,-740 171,-740 154,-740"/>
<polygon fill="#666666" stroke="#666666" points="171,-740 171,-740 250,-740 250,-740 171,-740"/>
<polygon fill="none" stroke="#666666" points="154,-723 154,-907 250,-907 250,-723 154,-723"/>
</a>
</g>
</g>
<!-- Node5 -->
<g id="Node000005" class="node">
<title>Node5</title>
<g id="a_Node000005"><a xlink:href="structReceiverOptions.html" target="_top" xlink:title="Options to be applied to kalman filter states for individual receivers.">
<path fill="white" stroke="#666666" d="M272,-683C272,-683 132,-683 132,-683 126,-683 120,-677 120,-671 120,-671 120,-12 120,-12 120,-6 126,0 132,0 132,0 272,0 272,0 278,0 284,-6 284,-12 284,-12 284,-671 284,-671 284,-677 278,-683 272,-683"/>
<text text-anchor="start" x="161.5" y="-666.5" font-family="Helvetica,sans-Serif" font-size="10.00">ReceiverOptions</text>
<text text-anchor="start" x="132" y="-651.5" font-family="Helvetica,sans-Serif" font-size="10.00">+</text>
<text text-anchor="start" x="145" y="-651.5" font-family="Helvetica,sans-Serif" font-size="10.00">_initialised</text>
<text text-anchor="start" x="132" y="-636.5" font-family="Helvetica,sans-Serif" font-size="10.00">+</text>
<text text-anchor="start" x="145" y="-636.5" font-family="Helvetica,sans-Serif" font-size="10.00">id</text>
<text text-anchor="start" x="132" y="-621.5" font-family="Helvetica,sans-Serif" font-size="10.00">+</text>
<text text-anchor="start" x="145" y="-621.5" font-family="Helvetica,sans-Serif" font-size="10.00">rinex23Conv</text>
<text text-anchor="start" x="132" y="-606.5" font-family="Helvetica,sans-Serif" font-size="10.00">+</text>
<text text-anchor="start" x="145" y="-606.5" font-family="Helvetica,sans-Serif" font-size="10.00">kill</text>
<text text-anchor="start" x="132" y="-591.5" font-family="Helvetica,sans-Serif" font-size="10.00">+</text>
<text text-anchor="start" x="145" y="-591.5" font-family="Helvetica,sans-Serif" font-size="10.00">zero_dcb_codes</text>
<text text-anchor="start" x="132" y="-576.5" font-family="Helvetica,sans-Serif" font-size="10.00">+</text>
<text text-anchor="start" x="145" y="-576.5" font-family="Helvetica,sans-Serif" font-size="10.00">apriori_pos</text>
<text text-anchor="start" x="132" y="-561.5" font-family="Helvetica,sans-Serif" font-size="10.00">+</text>
<text text-anchor="start" x="145" y="-561.5" font-family="Helvetica,sans-Serif" font-size="10.00">antenna_type</text>
<text text-anchor="start" x="132" y="-546.5" font-family="Helvetica,sans-Serif" font-size="10.00">+</text>
<text text-anchor="start" x="145" y="-546.5" font-family="Helvetica,sans-Serif" font-size="10.00">receiver_type</text>
<text text-anchor="start" x="132" y="-531.5" font-family="Helvetica,sans-Serif" font-size="10.00">+</text>
<text text-anchor="start" x="145" y="-531.5" font-family="Helvetica,sans-Serif" font-size="10.00">sat_id</text>
<text text-anchor="start" x="132" y="-516.5" font-family="Helvetica,sans-Serif" font-size="10.00">+</text>
<text text-anchor="start" x="145" y="-516.5" font-family="Helvetica,sans-Serif" font-size="10.00">elevation_mask_deg</text>
<text text-anchor="start" x="132" y="-501.5" font-family="Helvetica,sans-Serif" font-size="10.00">+</text>
<text text-anchor="start" x="145" y="-501.5" font-family="Helvetica,sans-Serif" font-size="10.00">enable</text>
<text text-anchor="start" x="132" y="-486.5" font-family="Helvetica,sans-Serif" font-size="10.00">+</text>
<text text-anchor="start" x="145" y="-486.5" font-family="Helvetica,sans-Serif" font-size="10.00">eccentricity</text>
<text text-anchor="start" x="132" y="-471.5" font-family="Helvetica,sans-Serif" font-size="10.00">+</text>
<text text-anchor="start" x="145" y="-471.5" font-family="Helvetica,sans-Serif" font-size="10.00">eccentricityModel</text>
<text text-anchor="start" x="132" y="-456.5" font-family="Helvetica,sans-Serif" font-size="10.00">+</text>
<text text-anchor="start" x="145" y="-456.5" font-family="Helvetica,sans-Serif" font-size="10.00">models</text>
<text text-anchor="start" x="132" y="-441.5" font-family="Helvetica,sans-Serif" font-size="10.00">+</text>
<text text-anchor="start" x="145" y="-441.5" font-family="Helvetica,sans-Serif" font-size="10.00">tropModel</text>
<text text-anchor="start" x="132" y="-426.5" font-family="Helvetica,sans-Serif" font-size="10.00">+</text>
<text text-anchor="start" x="145" y="-426.5" font-family="Helvetica,sans-Serif" font-size="10.00">solid</text>
<text text-anchor="start" x="132" y="-411.5" font-family="Helvetica,sans-Serif" font-size="10.00">+</text>
<text text-anchor="start" x="145" y="-411.5" font-family="Helvetica,sans-Serif" font-size="10.00">otl</text>
<text text-anchor="start" x="132" y="-396.5" font-family="Helvetica,sans-Serif" font-size="10.00">+</text>
<text text-anchor="start" x="145" y="-396.5" font-family="Helvetica,sans-Serif" font-size="10.00">atl</text>
<text text-anchor="start" x="132" y="-381.5" font-family="Helvetica,sans-Serif" font-size="10.00">+</text>
<text text-anchor="start" x="145" y="-381.5" font-family="Helvetica,sans-Serif" font-size="10.00">spole</text>
<text text-anchor="start" x="132" y="-366.5" font-family="Helvetica,sans-Serif" font-size="10.00">+</text>
<text text-anchor="start" x="145" y="-366.5" font-family="Helvetica,sans-Serif" font-size="10.00">opole</text>
<text text-anchor="start" x="132" y="-351.5" font-family="Helvetica,sans-Serif" font-size="10.00">+</text>
<text text-anchor="start" x="145" y="-351.5" font-family="Helvetica,sans-Serif" font-size="10.00">tideModels</text>
<text text-anchor="start" x="132" y="-336.5" font-family="Helvetica,sans-Serif" font-size="10.00">+</text>
<text text-anchor="start" x="145" y="-336.5" font-family="Helvetica,sans-Serif" font-size="10.00">range</text>
<text text-anchor="start" x="132" y="-321.5" font-family="Helvetica,sans-Serif" font-size="10.00">+</text>
<text text-anchor="start" x="145" y="-321.5" font-family="Helvetica,sans-Serif" font-size="10.00">relativity</text>
<text text-anchor="start" x="132" y="-306.5" font-family="Helvetica,sans-Serif" font-size="10.00">+</text>
<text text-anchor="start" x="145" y="-306.5" font-family="Helvetica,sans-Serif" font-size="10.00">relativity2</text>
<text text-anchor="start" x="132" y="-291.5" font-family="Helvetica,sans-Serif" font-size="10.00">+</text>
<text text-anchor="start" x="145" y="-291.5" font-family="Helvetica,sans-Serif" font-size="10.00">sagnac</text>
<text text-anchor="start" x="132" y="-276.5" font-family="Helvetica,sans-Serif" font-size="10.00">+</text>
<text text-anchor="start" x="145" y="-276.5" font-family="Helvetica,sans-Serif" font-size="10.00">integer_ambiguity</text>
<text text-anchor="start" x="132" y="-261.5" font-family="Helvetica,sans-Serif" font-size="10.00">+</text>
<text text-anchor="start" x="145" y="-261.5" font-family="Helvetica,sans-Serif" font-size="10.00">ionospheric_component</text>
<text text-anchor="start" x="132" y="-246.5" font-family="Helvetica,sans-Serif" font-size="10.00">+</text>
<text text-anchor="start" x="145" y="-246.5" font-family="Helvetica,sans-Serif" font-size="10.00">ionospheric_component2</text>
<text text-anchor="start" x="132" y="-231.5" font-family="Helvetica,sans-Serif" font-size="10.00">+</text>
<text text-anchor="start" x="145" y="-231.5" font-family="Helvetica,sans-Serif" font-size="10.00">ionospheric_component3</text>
<text text-anchor="start" x="132" y="-216.5" font-family="Helvetica,sans-Serif" font-size="10.00">+</text>
<text text-anchor="start" x="145" y="-216.5" font-family="Helvetica,sans-Serif" font-size="10.00">ionospheric_model</text>
<text text-anchor="start" x="132" y="-201.5" font-family="Helvetica,sans-Serif" font-size="10.00">+</text>
<text text-anchor="start" x="145" y="-201.5" font-family="Helvetica,sans-Serif" font-size="10.00">tropospheric_map</text>
<text text-anchor="start" x="132" y="-186.5" font-family="Helvetica,sans-Serif" font-size="10.00">+</text>
<text text-anchor="start" x="145" y="-186.5" font-family="Helvetica,sans-Serif" font-size="10.00">eop</text>
<text text-anchor="start" x="132" y="-171.5" font-family="Helvetica,sans-Serif" font-size="10.00">+</text>
<text text-anchor="start" x="145" y="-171.5" font-family="Helvetica,sans-Serif" font-size="10.00">mapping_function</text>
<text text-anchor="start" x="132" y="-156.5" font-family="Helvetica,sans-Serif" font-size="10.00">+</text>
<text text-anchor="start" x="145" y="-156.5" font-family="Helvetica,sans-Serif" font-size="10.00">geomagnetic_field_height</text>
<text text-anchor="start" x="132" y="-141.5" font-family="Helvetica,sans-Serif" font-size="10.00">+</text>
<text text-anchor="start" x="145" y="-141.5" font-family="Helvetica,sans-Serif" font-size="10.00">mapping_function_layer</text>
<text text-anchor="start" x="145" y="-130.5" font-family="Helvetica,sans-Serif" font-size="10.00">_height</text>
<text text-anchor="start" x="132" y="-115.5" font-family="Helvetica,sans-Serif" font-size="10.00">+</text>
<text text-anchor="start" x="145" y="-115.5" font-family="Helvetica,sans-Serif" font-size="10.00">iono_sigma_limit</text>
<text text-anchor="start" x="132" y="-100.5" font-family="Helvetica,sans-Serif" font-size="10.00">+</text>
<text text-anchor="start" x="145" y="-100.5" font-family="Helvetica,sans-Serif" font-size="10.00">error_model</text>
<text text-anchor="start" x="132" y="-85.5" font-family="Helvetica,sans-Serif" font-size="10.00">+</text>
<text text-anchor="start" x="145" y="-85.5" font-family="Helvetica,sans-Serif" font-size="10.00">code_sigma</text>
<text text-anchor="start" x="132" y="-70.5" font-family="Helvetica,sans-Serif" font-size="10.00">+</text>
<text text-anchor="start" x="145" y="-70.5" font-family="Helvetica,sans-Serif" font-size="10.00">phase_sigma</text>
<text text-anchor="start" x="132" y="-55.5" font-family="Helvetica,sans-Serif" font-size="10.00">+</text>
<text text-anchor="start" x="145" y="-55.5" font-family="Helvetica,sans-Serif" font-size="10.00">inheritors</text>
<text text-anchor="start" x="132" y="-40.5" font-family="Helvetica,sans-Serif" font-size="10.00">+</text>
<text text-anchor="start" x="145" y="-40.5" font-family="Helvetica,sans-Serif" font-size="10.00">inheritedFrom</text>
<text text-anchor="start" x="132" y="-25.5" font-family="Helvetica,sans-Serif" font-size="10.00">+</text>
<text text-anchor="start" x="145" y="-25.5" font-family="Helvetica,sans-Serif" font-size="10.00">initialisedMap</text>
<text text-anchor="start" x="132" y="-10.5" font-family="Helvetica,sans-Serif" font-size="10.00">+</text>
<text text-anchor="start" x="145" y="-10.5" font-family="Helvetica,sans-Serif" font-size="10.00">operator+=()</text>
<polygon fill="#666666" stroke="#666666" points="128,-661.5 128,-661.5 276,-661.5 276,-661.5 128,-661.5"/>
<polygon fill="#666666" stroke="#666666" points="128,-20.5 128,-20.5 143,-20.5 143,-20.5 128,-20.5"/>
<polygon fill="#666666" stroke="#666666" points="143,-20.5 143,-20.5 276,-20.5 276,-20.5 143,-20.5"/>
<polygon fill="none" stroke="#666666" points="128,-4 128,-679 276,-679 276,-4 128,-4"/>
</a>
</g>
</g>
<!-- Node1&#45;&gt;Node5 -->
<g id="edge4_Node000001_Node000005" class="edge">
<title>Node1&#45;&gt;Node5</title>
<g id="a_edge4_Node000001_Node000005"><a xlink:title=" ">
<path fill="none" stroke="#63b8ff" d="M202,-708.63C202,-700.42 202,-691.89 202,-683.12"/>
<polygon fill="none" stroke="#63b8ff" points="198.5,-708.87 202,-718.87 205.5,-708.87 198.5,-708.87"/>
</a>
</g>
</g>
<!-- Node2 -->
<g id="Node000002" class="node">
<title>Node2</title>
<g id="a_Node000002"><a xlink:href="structCommonKalmans.html" target="_top" xlink:title=" ">
<path fill="white" stroke="#666666" d="M102,-1356.5C102,-1356.5 12,-1356.5 12,-1356.5 6,-1356.5 0,-1350.5 0,-1344.5 0,-1344.5 0,-1191.5 0,-1191.5 0,-1185.5 6,-1179.5 12,-1179.5 12,-1179.5 102,-1179.5 102,-1179.5 108,-1179.5 114,-1185.5 114,-1191.5 114,-1191.5 114,-1344.5 114,-1344.5 114,-1350.5 108,-1356.5 102,-1356.5"/>
<text text-anchor="start" x="13" y="-1340" font-family="Helvetica,sans-Serif" font-size="10.00">CommonKalmans</text>
<text text-anchor="start" x="14.5" y="-1325" font-family="Helvetica,sans-Serif" font-size="10.00">+</text>
<text text-anchor="start" x="30" y="-1325" font-family="Helvetica,sans-Serif" font-size="10.00">pos</text>
<text text-anchor="start" x="14.5" y="-1310" font-family="Helvetica,sans-Serif" font-size="10.00">+</text>
<text text-anchor="start" x="30" y="-1310" font-family="Helvetica,sans-Serif" font-size="10.00">pos_rate</text>
<text text-anchor="start" x="14.5" y="-1295" font-family="Helvetica,sans-Serif" font-size="10.00">+</text>
<text text-anchor="start" x="30" y="-1295" font-family="Helvetica,sans-Serif" font-size="10.00">orbit</text>
<text text-anchor="start" x="14.5" y="-1280" font-family="Helvetica,sans-Serif" font-size="10.00">+</text>
<text text-anchor="start" x="30" y="-1280" font-family="Helvetica,sans-Serif" font-size="10.00">clk</text>
<text text-anchor="start" x="14.5" y="-1265" font-family="Helvetica,sans-Serif" font-size="10.00">+</text>
<text text-anchor="start" x="30" y="-1265" font-family="Helvetica,sans-Serif" font-size="10.00">clk_rate</text>
<text text-anchor="start" x="14.5" y="-1250" font-family="Helvetica,sans-Serif" font-size="10.00">+</text>
<text text-anchor="start" x="30" y="-1250" font-family="Helvetica,sans-Serif" font-size="10.00">code_bias</text>
<text text-anchor="start" x="14.5" y="-1235" font-family="Helvetica,sans-Serif" font-size="10.00">+</text>
<text text-anchor="start" x="30" y="-1235" font-family="Helvetica,sans-Serif" font-size="10.00">phase_bias</text>
<text text-anchor="start" x="14.5" y="-1220" font-family="Helvetica,sans-Serif" font-size="10.00">+</text>
<text text-anchor="start" x="30" y="-1220" font-family="Helvetica,sans-Serif" font-size="10.00">pco</text>
<text text-anchor="start" x="14.5" y="-1205" font-family="Helvetica,sans-Serif" font-size="10.00">+</text>
<text text-anchor="start" x="30" y="-1205" font-family="Helvetica,sans-Serif" font-size="10.00">ant_delta</text>
<text text-anchor="start" x="14.5" y="-1190" font-family="Helvetica,sans-Serif" font-size="10.00">+</text>
<text text-anchor="start" x="30" y="-1190" font-family="Helvetica,sans-Serif" font-size="10.00">operator+=()</text>
<polygon fill="#666666" stroke="#666666" points="8,-1335 8,-1335 106,-1335 106,-1335 8,-1335"/>
<polygon fill="#666666" stroke="#666666" points="8,-1200 8,-1200 28,-1200 28,-1200 8,-1200"/>
<polygon fill="#666666" stroke="#666666" points="28,-1200 28,-1200 106,-1200 106,-1200 28,-1200"/>
<polygon fill="none" stroke="#666666" points="8,-1183.5 8,-1352.5 106,-1352.5 106,-1183.5 8,-1183.5"/>
</a>
</g>
</g>
<!-- Node2&#45;&gt;Node1 -->
<g id="edge1_Node000001_Node000002" class="edge">
<title>Node2&#45;&gt;Node1</title>
<g id="a_edge1_Node000001_Node000002"><a xlink:title=" ">
<path fill="none" stroke="#63b8ff" d="M68.38,-1169.3C78.02,-1104.63 94.89,-1018.83 123,-947 129.24,-931.05 137.35,-914.82 146,-899.46"/>
<polygon fill="none" stroke="#63b8ff" points="64.88,-1169.09 66.9,-1179.49 71.8,-1170.1 64.88,-1169.09"/>
</a>
</g>
</g>
<!-- Node3 -->
<g id="Node000003" class="node">
<title>Node3</title>
<g id="a_Node000003"><a xlink:href="structInertialKalmans.html" target="_top" xlink:title=" ">
<path fill="white" stroke="#666666" d="M259.5,-1334C259.5,-1334 144.5,-1334 144.5,-1334 138.5,-1334 132.5,-1328 132.5,-1322 132.5,-1322 132.5,-1214 132.5,-1214 132.5,-1208 138.5,-1202 144.5,-1202 144.5,-1202 259.5,-1202 259.5,-1202 265.5,-1202 271.5,-1208 271.5,-1214 271.5,-1214 271.5,-1322 271.5,-1322 271.5,-1328 265.5,-1334 259.5,-1334"/>
<text text-anchor="start" x="163.5" y="-1318" font-family="Helvetica,sans-Serif" font-size="10.00">InertialKalmans</text>
<text text-anchor="start" x="145" y="-1303" font-family="Helvetica,sans-Serif" font-size="10.00">+</text>
<text text-anchor="start" x="158" y="-1303" font-family="Helvetica,sans-Serif" font-size="10.00">accelerometer_scale</text>
<text text-anchor="start" x="145" y="-1288" font-family="Helvetica,sans-Serif" font-size="10.00">+</text>
<text text-anchor="start" x="158" y="-1288" font-family="Helvetica,sans-Serif" font-size="10.00">accelerometer_bias</text>
<text text-anchor="start" x="145" y="-1273" font-family="Helvetica,sans-Serif" font-size="10.00">+</text>
<text text-anchor="start" x="158" y="-1273" font-family="Helvetica,sans-Serif" font-size="10.00">orientation</text>
<text text-anchor="start" x="145" y="-1258" font-family="Helvetica,sans-Serif" font-size="10.00">+</text>
<text text-anchor="start" x="158" y="-1258" font-family="Helvetica,sans-Serif" font-size="10.00">imu_offset</text>
<text text-anchor="start" x="145" y="-1243" font-family="Helvetica,sans-Serif" font-size="10.00">+</text>
<text text-anchor="start" x="158" y="-1243" font-family="Helvetica,sans-Serif" font-size="10.00">gyro_scale</text>
<text text-anchor="start" x="145" y="-1228" font-family="Helvetica,sans-Serif" font-size="10.00">+</text>
<text text-anchor="start" x="158" y="-1228" font-family="Helvetica,sans-Serif" font-size="10.00">gyro_bias</text>
<text text-anchor="start" x="145" y="-1213" font-family="Helvetica,sans-Serif" font-size="10.00">+</text>
<text text-anchor="start" x="158" y="-1213" font-family="Helvetica,sans-Serif" font-size="10.00">operator+=()</text>
<polygon fill="#666666" stroke="#666666" points="141,-1313 141,-1313 264,-1313 264,-1313 141,-1313"/>
<polygon fill="#666666" stroke="#666666" points="141,-1223 141,-1223 156,-1223 156,-1223 141,-1223"/>
<polygon fill="#666666" stroke="#666666" points="156,-1223 156,-1223 264,-1223 264,-1223 156,-1223"/>
<polygon fill="none" stroke="#666666" points="140.5,-1206 140.5,-1330 263.5,-1330 263.5,-1206 140.5,-1206"/>
</a>
</g>
</g>
<!-- Node3&#45;&gt;Node1 -->
<g id="edge2_Node000001_Node000003" class="edge">
<title>Node3&#45;&gt;Node1</title>
<g id="a_edge2_Node000001_Node000003"><a xlink:title=" ">
<path fill="none" stroke="#63b8ff" d="M202,-1191.8C202,-1114.84 202,-994.98 202,-911.39"/>
<polygon fill="none" stroke="#63b8ff" points="198.5,-1191.9 202,-1201.9 205.5,-1191.9 198.5,-1191.9"/>
</a>
</g>
</g>
<!-- Node4 -->
<g id="Node000004" class="node">
<title>Node4</title>
<g id="a_Node000004"><a xlink:href="structEmpKalmans.html" target="_top" xlink:title=" ">
<path fill="white" stroke="#666666" d="M380.5,-1589C380.5,-1589 301.5,-1589 301.5,-1589 295.5,-1589 289.5,-1583 289.5,-1577 289.5,-1577 289.5,-959 289.5,-959 289.5,-953 295.5,-947 301.5,-947 301.5,-947 380.5,-947 380.5,-947 386.5,-947 392.5,-953 392.5,-959 392.5,-959 392.5,-1577 392.5,-1577 392.5,-1583 386.5,-1589 380.5,-1589"/>
<text text-anchor="start" x="309" y="-1573" font-family="Helvetica,sans-Serif" font-size="10.00">EmpKalmans</text>
<text text-anchor="start" x="302" y="-1558" font-family="Helvetica,sans-Serif" font-size="10.00">+</text>
<text text-anchor="start" x="315" y="-1558" font-family="Helvetica,sans-Serif" font-size="10.00">emp_d_0</text>
<text text-anchor="start" x="302" y="-1543" font-family="Helvetica,sans-Serif" font-size="10.00">+</text>
<text text-anchor="start" x="315" y="-1543" font-family="Helvetica,sans-Serif" font-size="10.00">emp_d_1</text>
<text text-anchor="start" x="302" y="-1528" font-family="Helvetica,sans-Serif" font-size="10.00">+</text>
<text text-anchor="start" x="315" y="-1528" font-family="Helvetica,sans-Serif" font-size="10.00">emp_d_2</text>
<text text-anchor="start" x="302" y="-1513" font-family="Helvetica,sans-Serif" font-size="10.00">+</text>
<text text-anchor="start" x="315" y="-1513" font-family="Helvetica,sans-Serif" font-size="10.00">emp_d_3</text>
<text text-anchor="start" x="302" y="-1498" font-family="Helvetica,sans-Serif" font-size="10.00">+</text>
<text text-anchor="start" x="315" y="-1498" font-family="Helvetica,sans-Serif" font-size="10.00">emp_d_4</text>
<text text-anchor="start" x="302" y="-1483" font-family="Helvetica,sans-Serif" font-size="10.00">+</text>
<text text-anchor="start" x="315" y="-1483" font-family="Helvetica,sans-Serif" font-size="10.00">emp_y_0</text>
<text text-anchor="start" x="302" y="-1468" font-family="Helvetica,sans-Serif" font-size="10.00">+</text>
<text text-anchor="start" x="315" y="-1468" font-family="Helvetica,sans-Serif" font-size="10.00">emp_y_1</text>
<text text-anchor="start" x="302" y="-1453" font-family="Helvetica,sans-Serif" font-size="10.00">+</text>
<text text-anchor="start" x="315" y="-1453" font-family="Helvetica,sans-Serif" font-size="10.00">emp_y_2</text>
<text text-anchor="start" x="302" y="-1438" font-family="Helvetica,sans-Serif" font-size="10.00">+</text>
<text text-anchor="start" x="315" y="-1438" font-family="Helvetica,sans-Serif" font-size="10.00">emp_y_3</text>
<text text-anchor="start" x="302" y="-1423" font-family="Helvetica,sans-Serif" font-size="10.00">+</text>
<text text-anchor="start" x="315" y="-1423" font-family="Helvetica,sans-Serif" font-size="10.00">emp_y_4</text>
<text text-anchor="start" x="302" y="-1408" font-family="Helvetica,sans-Serif" font-size="10.00">+</text>
<text text-anchor="start" x="315" y="-1408" font-family="Helvetica,sans-Serif" font-size="10.00">emp_b_0</text>
<text text-anchor="start" x="302" y="-1393" font-family="Helvetica,sans-Serif" font-size="10.00">+</text>
<text text-anchor="start" x="315" y="-1393" font-family="Helvetica,sans-Serif" font-size="10.00">emp_b_1</text>
<text text-anchor="start" x="302" y="-1378" font-family="Helvetica,sans-Serif" font-size="10.00">+</text>
<text text-anchor="start" x="315" y="-1378" font-family="Helvetica,sans-Serif" font-size="10.00">emp_b_2</text>
<text text-anchor="start" x="302" y="-1363" font-family="Helvetica,sans-Serif" font-size="10.00">+</text>
<text text-anchor="start" x="315" y="-1363" font-family="Helvetica,sans-Serif" font-size="10.00">emp_b_3</text>
<text text-anchor="start" x="302" y="-1348" font-family="Helvetica,sans-Serif" font-size="10.00">+</text>
<text text-anchor="start" x="315" y="-1348" font-family="Helvetica,sans-Serif" font-size="10.00">emp_b_4</text>
<text text-anchor="start" x="302" y="-1333" font-family="Helvetica,sans-Serif" font-size="10.00">+</text>
<text text-anchor="start" x="315" y="-1333" font-family="Helvetica,sans-Serif" font-size="10.00">emp_r_0</text>
<text text-anchor="start" x="302" y="-1318" font-family="Helvetica,sans-Serif" font-size="10.00">+</text>
<text text-anchor="start" x="315" y="-1318" font-family="Helvetica,sans-Serif" font-size="10.00">emp_r_1</text>
<text text-anchor="start" x="302" y="-1303" font-family="Helvetica,sans-Serif" font-size="10.00">+</text>
<text text-anchor="start" x="315" y="-1303" font-family="Helvetica,sans-Serif" font-size="10.00">emp_r_2</text>
<text text-anchor="start" x="302" y="-1288" font-family="Helvetica,sans-Serif" font-size="10.00">+</text>
<text text-anchor="start" x="315" y="-1288" font-family="Helvetica,sans-Serif" font-size="10.00">emp_r_3</text>
<text text-anchor="start" x="302" y="-1273" font-family="Helvetica,sans-Serif" font-size="10.00">+</text>
<text text-anchor="start" x="315" y="-1273" font-family="Helvetica,sans-Serif" font-size="10.00">emp_r_4</text>
<text text-anchor="start" x="302" y="-1258" font-family="Helvetica,sans-Serif" font-size="10.00">+</text>
<text text-anchor="start" x="315" y="-1258" font-family="Helvetica,sans-Serif" font-size="10.00">emp_t_0</text>
<text text-anchor="start" x="302" y="-1243" font-family="Helvetica,sans-Serif" font-size="10.00">+</text>
<text text-anchor="start" x="315" y="-1243" font-family="Helvetica,sans-Serif" font-size="10.00">emp_t_1</text>
<text text-anchor="start" x="302" y="-1228" font-family="Helvetica,sans-Serif" font-size="10.00">+</text>
<text text-anchor="start" x="315" y="-1228" font-family="Helvetica,sans-Serif" font-size="10.00">emp_t_2</text>
<text text-anchor="start" x="302" y="-1213" font-family="Helvetica,sans-Serif" font-size="10.00">+</text>
<text text-anchor="start" x="315" y="-1213" font-family="Helvetica,sans-Serif" font-size="10.00">emp_t_3</text>
<text text-anchor="start" x="302" y="-1198" font-family="Helvetica,sans-Serif" font-size="10.00">+</text>
<text text-anchor="start" x="315" y="-1198" font-family="Helvetica,sans-Serif" font-size="10.00">emp_t_4</text>
<text text-anchor="start" x="302" y="-1183" font-family="Helvetica,sans-Serif" font-size="10.00">+</text>
<text text-anchor="start" x="315" y="-1183" font-family="Helvetica,sans-Serif" font-size="10.00">emp_n_0</text>
<text text-anchor="start" x="302" y="-1168" font-family="Helvetica,sans-Serif" font-size="10.00">+</text>
<text text-anchor="start" x="315" y="-1168" font-family="Helvetica,sans-Serif" font-size="10.00">emp_n_1</text>
<text text-anchor="start" x="302" y="-1153" font-family="Helvetica,sans-Serif" font-size="10.00">+</text>
<text text-anchor="start" x="315" y="-1153" font-family="Helvetica,sans-Serif" font-size="10.00">emp_n_2</text>
<text text-anchor="start" x="302" y="-1138" font-family="Helvetica,sans-Serif" font-size="10.00">+</text>
<text text-anchor="start" x="315" y="-1138" font-family="Helvetica,sans-Serif" font-size="10.00">emp_n_3</text>
<text text-anchor="start" x="302" y="-1123" font-family="Helvetica,sans-Serif" font-size="10.00">+</text>
<text text-anchor="start" x="315" y="-1123" font-family="Helvetica,sans-Serif" font-size="10.00">emp_n_4</text>
<text text-anchor="start" x="302" y="-1108" font-family="Helvetica,sans-Serif" font-size="10.00">+</text>
<text text-anchor="start" x="315" y="-1108" font-family="Helvetica,sans-Serif" font-size="10.00">emp_p_0</text>
<text text-anchor="start" x="302" y="-1093" font-family="Helvetica,sans-Serif" font-size="10.00">+</text>
<text text-anchor="start" x="315" y="-1093" font-family="Helvetica,sans-Serif" font-size="10.00">emp_p_1</text>
<text text-anchor="start" x="302" y="-1078" font-family="Helvetica,sans-Serif" font-size="10.00">+</text>
<text text-anchor="start" x="315" y="-1078" font-family="Helvetica,sans-Serif" font-size="10.00">emp_p_2</text>
<text text-anchor="start" x="302" y="-1063" font-family="Helvetica,sans-Serif" font-size="10.00">+</text>
<text text-anchor="start" x="315" y="-1063" font-family="Helvetica,sans-Serif" font-size="10.00">emp_p_3</text>
<text text-anchor="start" x="302" y="-1048" font-family="Helvetica,sans-Serif" font-size="10.00">+</text>
<text text-anchor="start" x="315" y="-1048" font-family="Helvetica,sans-Serif" font-size="10.00">emp_p_4</text>
<text text-anchor="start" x="302" y="-1033" font-family="Helvetica,sans-Serif" font-size="10.00">+</text>
<text text-anchor="start" x="315" y="-1033" font-family="Helvetica,sans-Serif" font-size="10.00">emp_q_0</text>
<text text-anchor="start" x="302" y="-1018" font-family="Helvetica,sans-Serif" font-size="10.00">+</text>
<text text-anchor="start" x="315" y="-1018" font-family="Helvetica,sans-Serif" font-size="10.00">emp_q_1</text>
<text text-anchor="start" x="302" y="-1003" font-family="Helvetica,sans-Serif" font-size="10.00">+</text>
<text text-anchor="start" x="315" y="-1003" font-family="Helvetica,sans-Serif" font-size="10.00">emp_q_2</text>
<text text-anchor="start" x="302" y="-988" font-family="Helvetica,sans-Serif" font-size="10.00">+</text>
<text text-anchor="start" x="315" y="-988" font-family="Helvetica,sans-Serif" font-size="10.00">emp_q_3</text>
<text text-anchor="start" x="302" y="-973" font-family="Helvetica,sans-Serif" font-size="10.00">+</text>
<text text-anchor="start" x="315" y="-973" font-family="Helvetica,sans-Serif" font-size="10.00">emp_q_4</text>
<text text-anchor="start" x="302" y="-958" font-family="Helvetica,sans-Serif" font-size="10.00">+</text>
<text text-anchor="start" x="315" y="-958" font-family="Helvetica,sans-Serif" font-size="10.00">operator+=()</text>
<polygon fill="#666666" stroke="#666666" points="298,-1568 298,-1568 385,-1568 385,-1568 298,-1568"/>
<polygon fill="#666666" stroke="#666666" points="298,-968 298,-968 313,-968 313,-968 298,-968"/>
<polygon fill="#666666" stroke="#666666" points="313,-968 313,-968 385,-968 385,-968 313,-968"/>
<polygon fill="none" stroke="#666666" points="297.5,-951 297.5,-1585 384.5,-1585 384.5,-951 297.5,-951"/>
</a>
</g>
</g>
<!-- Node4&#45;&gt;Node1 -->
<g id="edge3_Node000001_Node000004" class="edge">
<title>Node4&#45;&gt;Node1</title>
<g id="a_edge3_Node000001_Node000004"><a xlink:title=" ">
<path fill="none" stroke="#63b8ff" d="M286.14,-961.04C284.47,-956.31 282.76,-951.63 281,-947 274.85,-930.87 266.74,-914.48 258.04,-899.01"/>
<polygon fill="none" stroke="#63b8ff" points="282.93,-962.49 289.48,-970.82 289.56,-960.23 282.93,-962.49"/>
</a>
</g>
</g>
</g>
</svg>
