<?xml version="1.0" encoding="UTF-8" standalone="no"?>
<!DOCTYPE svg PUBLIC "-//W3C//DTD SVG 1.1//EN"
 "http://www.w3.org/Graphics/SVG/1.1/DTD/svg11.dtd">
<!-- Generated by graphviz version 2.43.0 (0)
 -->
<!-- Title: FrameSwapper::operator() Pages: 1 -->
<svg width="332pt" height="27pt"
 viewBox="0.00 0.00 332.00 27.00" xmlns="http://www.w3.org/2000/svg" xmlns:xlink="http://www.w3.org/1999/xlink">
<g id="graph0" class="graph" transform="scale(1 1) rotate(0) translate(4 23)">
<title>FrameSwapper::operator()</title>
<!-- Node1 -->
<g id="Node000001" class="node">
<title>Node1</title>
<g id="a_Node000001"><a xlink:href="structFrameSwapper.html#a8301b34901b9251c3cdcb12eee2a5494" target="_top" xlink:title=" ">
<path fill="#fff0f0" stroke="red" stroke-width="2" d="M137.67,-19C137.67,-19 6.33,-19 6.33,-19 3.17,-19 0,-15.83 0,-12.67 0,-12.67 0,-6.33 0,-6.33 0,-3.17 3.17,0 6.33,0 6.33,0 137.67,0 137.67,0 140.83,0 144,-3.17 144,-6.33 144,-6.33 144,-12.67 144,-12.67 144,-15.83 140.83,-19 137.67,-19"/>
<text text-anchor="middle" x="72" y="-7" font-family="Helvetica,sans-Serif" font-size="10.00">FrameSwapper::operator()</text>
</a>
</g>
</g>
<!-- Node2 -->
<g id="Node000002" class="node">
<title>Node2</title>
<g id="a_Node000002"><a xlink:href="structFrameSwapper.html#ad1ea45e1dff56e8790830b1593e22bad" target="_top" xlink:title=" ">
<path fill="#fff0f0" stroke="red" d="M317.67,-19C317.67,-19 186.33,-19 186.33,-19 183.17,-19 180,-15.83 180,-12.67 180,-12.67 180,-6.33 180,-6.33 180,-3.17 183.17,0 186.33,0 186.33,0 317.67,0 317.67,0 320.83,0 324,-3.17 324,-6.33 324,-6.33 324,-12.67 324,-12.67 324,-15.83 320.83,-19 317.67,-19"/>
<text text-anchor="middle" x="252" y="-7" font-family="Helvetica,sans-Serif" font-size="10.00">FrameSwapper::operator()</text>
</a>
</g>
</g>
<!-- Node1&#45;&gt;Node2 -->
<g id="edge1_Node000001_Node000002" class="edge">
<title>Node1&#45;&gt;Node2</title>
<g id="a_edge1_Node000001_Node000002"><a xlink:title=" ">
<path fill="none" stroke="#63b8ff" d="M144.12,-9.5C152.61,-9.5 161.33,-9.5 169.94,-9.5"/>
<polygon fill="#63b8ff" stroke="#63b8ff" points="170,-13 180,-9.5 170,-6 170,-13"/>
</a>
</g>
</g>
</g>
</svg>
