<?xml version="1.0" encoding="UTF-8" standalone="no"?>
<!DOCTYPE svg PUBLIC "-//W3C//DTD SVG 1.1//EN"
 "http://www.w3.org/Graphics/SVG/1.1/DTD/svg11.dtd">
<!-- Generated by graphviz version 2.43.0 (0)
 -->
<!-- Title: RtcmEncoder::encodeEphemeris Pages: 1 -->
<svg width="356pt" height="101pt"
 viewBox="0.00 0.00 356.00 101.00" xmlns="http://www.w3.org/2000/svg" xmlns:xlink="http://www.w3.org/1999/xlink">
<g id="graph0" class="graph" transform="scale(1 1) rotate(0) translate(4 97)">
<title>RtcmEncoder::encodeEphemeris</title>
<!-- Node1 -->
<g id="Node000001" class="node">
<title>Node1</title>
<g id="a_Node000001"><a xlink:href="structRtcmEncoder.html#af36c83c9a132fd9e303ffc337922fd51" target="_top" xlink:title="encode GLO ephemeris messages">
<path fill="#fff0f0" stroke="red" stroke-width="2" d="M167.67,-56C167.67,-56 6.33,-56 6.33,-56 3.17,-56 0,-52.83 0,-49.67 0,-49.67 0,-43.33 0,-43.33 0,-40.17 3.17,-37 6.33,-37 6.33,-37 167.67,-37 167.67,-37 170.83,-37 174,-40.17 174,-43.33 174,-43.33 174,-49.67 174,-49.67 174,-52.83 170.83,-56 167.67,-56"/>
<text text-anchor="middle" x="87" y="-44" font-family="Helvetica,sans-Serif" font-size="10.00">RtcmEncoder::encodeEphemeris</text>
</a>
</g>
</g>
<!-- Node2 -->
<g id="Node000002" class="node">
<title>Node2</title>
<g id="a_Node000002"><a xlink:href="rtcmEncoder_8cpp.html#af0d5eab5e18729b5d6b67194e94979a0" target="_top" xlink:title="increasingly set unsigned bits to byte data">
<path fill="#fff0f0" stroke="red" d="M305.17,-93C305.17,-93 252.83,-93 252.83,-93 249.67,-93 246.5,-89.83 246.5,-86.67 246.5,-86.67 246.5,-80.33 246.5,-80.33 246.5,-77.17 249.67,-74 252.83,-74 252.83,-74 305.17,-74 305.17,-74 308.33,-74 311.5,-77.17 311.5,-80.33 311.5,-80.33 311.5,-86.67 311.5,-86.67 311.5,-89.83 308.33,-93 305.17,-93"/>
<text text-anchor="middle" x="279" y="-81" font-family="Helvetica,sans-Serif" font-size="10.00">setbituInc</text>
</a>
</g>
</g>
<!-- Node1&#45;&gt;Node2 -->
<g id="edge1_Node000001_Node000002" class="edge">
<title>Node1&#45;&gt;Node2</title>
<g id="a_edge1_Node000001_Node000002"><a xlink:title=" ">
<path fill="none" stroke="#63b8ff" d="M171.34,-56.02C196.76,-60.78 223.3,-66.4 243.56,-71.45"/>
<polygon fill="#63b8ff" stroke="#63b8ff" points="242.69,-74.84 253.25,-73.95 244.44,-68.06 242.69,-74.84"/>
</a>
</g>
</g>
<!-- Node1&#45;&gt;Node2 -->
<g id="edge2_Node000001_Node000002" class="edge">
<title>Node1&#45;&gt;Node2</title>
<g id="a_edge2_Node000001_Node000002"><a xlink:title=" ">
<path fill="none" stroke="#63b8ff" d="M112.84,-56.07C144.1,-64.47 198.26,-75.34 236.01,-81.03"/>
<polygon fill="#63b8ff" stroke="#63b8ff" points="235.79,-84.54 246.18,-82.5 236.78,-77.61 235.79,-84.54"/>
</a>
</g>
</g>
<!-- Node4 -->
<g id="Node000004" class="node">
<title>Node4</title>
<g id="a_Node000004"><a xlink:href="rtcmEncoder_8cpp.html#af93a14942ffca49c6609e270b9071926" target="_top" xlink:title="increasingly set sign&#45;magnitude bits applied in GLO nav messages">
<path fill="#fff0f0" stroke="red" d="M305.17,-56C305.17,-56 252.83,-56 252.83,-56 249.67,-56 246.5,-52.83 246.5,-49.67 246.5,-49.67 246.5,-43.33 246.5,-43.33 246.5,-40.17 249.67,-37 252.83,-37 252.83,-37 305.17,-37 305.17,-37 308.33,-37 311.5,-40.17 311.5,-43.33 311.5,-43.33 311.5,-49.67 311.5,-49.67 311.5,-52.83 308.33,-56 305.17,-56"/>
<text text-anchor="middle" x="279" y="-44" font-family="Helvetica,sans-Serif" font-size="10.00">setbitgInc</text>
</a>
</g>
</g>
<!-- Node1&#45;&gt;Node4 -->
<g id="edge3_Node000001_Node000004" class="edge">
<title>Node1&#45;&gt;Node4</title>
<g id="a_edge3_Node000001_Node000004"><a xlink:title=" ">
<path fill="none" stroke="#63b8ff" d="M174.11,-39.78C195.71,-39.65 217.93,-39.99 236.25,-40.8"/>
<polygon fill="#63b8ff" stroke="#63b8ff" points="236.11,-44.3 246.28,-41.31 236.47,-37.3 236.11,-44.3"/>
</a>
</g>
</g>
<!-- Node1&#45;&gt;Node4 -->
<g id="edge4_Node000001_Node000004" class="edge">
<title>Node1&#45;&gt;Node4</title>
<g id="a_edge4_Node000001_Node000004"><a xlink:title=" ">
<path fill="none" stroke="#63b8ff" d="M174.11,-53.22C195.71,-53.35 217.93,-53.01 236.25,-52.2"/>
<polygon fill="#63b8ff" stroke="#63b8ff" points="236.47,-55.7 246.28,-51.69 236.11,-48.7 236.47,-55.7"/>
</a>
</g>
</g>
<!-- Node6 -->
<g id="Node000006" class="node">
<title>Node6</title>
<g id="a_Node000006"><a xlink:href="structRtcmTrace.html#a7988263389150711e951a4df5f1dcdd1" target="_top" xlink:title="Write decoded/encoded GPS/GAL/BDS/QZS ephemeris messages to a json file.">
<path fill="#fff0f0" stroke="red" d="M341.67,-19C341.67,-19 216.33,-19 216.33,-19 213.17,-19 210,-15.83 210,-12.67 210,-12.67 210,-6.33 210,-6.33 210,-3.17 213.17,0 216.33,0 216.33,0 341.67,0 341.67,0 344.83,0 348,-3.17 348,-6.33 348,-6.33 348,-12.67 348,-12.67 348,-15.83 344.83,-19 341.67,-19"/>
<text text-anchor="middle" x="279" y="-7" font-family="Helvetica,sans-Serif" font-size="10.00">RtcmTrace::traceBrdcEph</text>
</a>
</g>
</g>
<!-- Node1&#45;&gt;Node6 -->
<g id="edge5_Node000001_Node000006" class="edge">
<title>Node1&#45;&gt;Node6</title>
<g id="a_edge5_Node000001_Node000006"><a xlink:title=" ">
<path fill="none" stroke="#63b8ff" d="M136.93,-36.97C161.99,-32.09 192.68,-26.11 219.04,-20.98"/>
<polygon fill="#63b8ff" stroke="#63b8ff" points="219.76,-24.41 228.91,-19.06 218.42,-17.54 219.76,-24.41"/>
</a>
</g>
</g>
</g>
</svg>
