<?xml version="1.0" encoding="UTF-8" standalone="no"?>
<!DOCTYPE svg PUBLIC "-//W3C//DTD SVG 1.1//EN"
 "http://www.w3.org/Graphics/SVG/1.1/DTD/svg11.dtd">
<!-- Generated by graphviz version 2.43.0 (0)
 -->
<!-- Title: KalmanModel Pages: 1 -->
<svg width="507pt" height="317pt"
 viewBox="0.00 0.00 506.50 317.00" xmlns="http://www.w3.org/2000/svg" xmlns:xlink="http://www.w3.org/1999/xlink">
<g id="graph0" class="graph" transform="scale(1 1) rotate(0) translate(4 313)">
<title>KalmanModel</title>
<!-- Node1 -->
<g id="Node000001" class="node">
<title>Node1</title>
<g id="a_Node000001"><a xlink:href="structKalmanModel.html" target="_top" xlink:title="Options associated with kalman filter states.">
<path fill="white" stroke="#666666" stroke-width="2" d="M282,-57C282,-57 203,-57 203,-57 197,-57 191,-51 191,-45 191,-45 191,-12 191,-12 191,-6 197,0 203,0 203,0 282,0 282,0 288,0 294,-6 294,-12 294,-12 294,-45 294,-45 294,-51 288,-57 282,-57"/>
<text text-anchor="start" x="209" y="-40.5" font-family="Helvetica,sans-Serif" font-size="10.00">KalmanModel</text>
<text text-anchor="start" x="241" y="-25.5" font-family="Helvetica,sans-Serif" font-size="10.00"> </text>
<text text-anchor="start" x="203.5" y="-10.5" font-family="Helvetica,sans-Serif" font-size="10.00">+</text>
<text text-anchor="start" x="216.5" y="-10.5" font-family="Helvetica,sans-Serif" font-size="10.00">operator+=()</text>
<polygon fill="#666666" stroke="#666666" points="199.5,-35.5 199.5,-35.5 286.5,-35.5 286.5,-35.5 199.5,-35.5"/>
<polygon fill="#666666" stroke="#666666" points="199.5,-20.5 199.5,-20.5 286.5,-20.5 286.5,-20.5 199.5,-20.5"/>
<polygon fill="none" stroke="#666666" points="199,-4 199,-53 286,-53 286,-4 199,-4"/>
</a>
</g>
</g>
<!-- Node2 -->
<g id="Node000002" class="node">
<title>Node2</title>
<g id="a_Node000002"><a xlink:title=" ">
<path fill="white" stroke="#666666" d="M101,-205C101,-205 12,-205 12,-205 6,-205 0,-199 0,-193 0,-193 0,-160 0,-160 0,-154 6,-148 12,-148 12,-148 101,-148 101,-148 107,-148 113,-154 113,-160 113,-160 113,-193 113,-193 113,-199 107,-205 101,-205"/>
<text text-anchor="start" x="13.5" y="-188.5" font-family="Helvetica,sans-Serif" font-size="10.00">vector&lt; double &gt;</text>
<text text-anchor="start" x="55" y="-173.5" font-family="Helvetica,sans-Serif" font-size="10.00"> </text>
<text text-anchor="start" x="55" y="-158.5" font-family="Helvetica,sans-Serif" font-size="10.00"> </text>
<polygon fill="#666666" stroke="#666666" points="8.5,-183.5 8.5,-183.5 105.5,-183.5 105.5,-183.5 8.5,-183.5"/>
<polygon fill="#666666" stroke="#666666" points="8.5,-168.5 8.5,-168.5 105.5,-168.5 105.5,-168.5 8.5,-168.5"/>
<polygon fill="none" stroke="#666666" points="8,-152 8,-201 105,-201 105,-152 8,-152"/>
</a>
</g>
</g>
<!-- Node2&#45;&gt;Node1 -->
<g id="edge1_Node000001_Node000002" class="edge">
<title>Node2&#45;&gt;Node1</title>
<g id="a_edge1_Node000001_Node000002"><a xlink:title=" ">
<path fill="none" stroke="#63b8ff" d="M59.24,-147.94C62.91,-125.38 71.49,-94.18 91.5,-75 114.87,-52.6 148.85,-41.19 178.67,-35.39"/>
<polygon fill="none" stroke="#63b8ff" points="178.89,-35.35 184.12,-30.38 190.71,-33.3 185.48,-38.27 178.89,-35.35"/>
</a>
</g>
<text text-anchor="middle" x="130.5" y="-122" font-family="Helvetica,sans-Serif" font-size="10.00" fill="grey"> +apriori_value</text>
<text text-anchor="middle" x="130.5" y="-111" font-family="Helvetica,sans-Serif" font-size="10.00" fill="grey">+mu</text>
<text text-anchor="middle" x="130.5" y="-100" font-family="Helvetica,sans-Serif" font-size="10.00" fill="grey">+process_noise</text>
<text text-anchor="middle" x="130.5" y="-89" font-family="Helvetica,sans-Serif" font-size="10.00" fill="grey">+sigma</text>
<text text-anchor="middle" x="130.5" y="-78" font-family="Helvetica,sans-Serif" font-size="10.00" fill="grey">+tau</text>
</g>
<!-- Node3 -->
<g id="Node000003" class="node">
<title>Node3</title>
<g id="a_Node000003"><a xlink:title=" ">
<path fill="white" stroke="#666666" d="M198,-309C198,-309 165,-309 165,-309 159,-309 153,-303 153,-297 153,-297 153,-264 153,-264 153,-258 159,-252 165,-252 165,-252 198,-252 198,-252 204,-252 210,-258 210,-264 210,-264 210,-297 210,-297 210,-303 204,-309 198,-309"/>
<text text-anchor="start" x="166.5" y="-292.5" font-family="Helvetica,sans-Serif" font-size="10.00">vector</text>
<text text-anchor="start" x="180" y="-277.5" font-family="Helvetica,sans-Serif" font-size="10.00"> </text>
<text text-anchor="start" x="180" y="-262.5" font-family="Helvetica,sans-Serif" font-size="10.00"> </text>
<polygon fill="#666666" stroke="#666666" points="161.5,-287.5 161.5,-287.5 202.5,-287.5 202.5,-287.5 161.5,-287.5"/>
<polygon fill="#666666" stroke="#666666" points="161.5,-272.5 161.5,-272.5 202.5,-272.5 202.5,-272.5 161.5,-272.5"/>
<polygon fill="none" stroke="#666666" points="161,-256 161,-305 202,-305 202,-256 161,-256"/>
</a>
</g>
</g>
<!-- Node3&#45;&gt;Node2 -->
<g id="edge2_Node000002_Node000003" class="edge">
<title>Node3&#45;&gt;Node2</title>
<g id="a_edge2_Node000002_Node000003"><a xlink:title=" ">
<path fill="none" stroke="orange" d="M144.6,-253.92C135.9,-247.59 126.75,-240.7 118.5,-234 107.42,-225 95.74,-214.61 85.54,-205.22"/>
<polygon fill="orange" stroke="orange" points="142.6,-256.79 152.76,-259.78 146.68,-251.11 142.6,-256.79"/>
</a>
</g>
<text text-anchor="middle" x="148" y="-226" font-family="Helvetica,sans-Serif" font-size="10.00" fill="grey"> &lt; double &gt;</text>
</g>
<!-- Node4 -->
<g id="Node000004" class="node">
<title>Node4</title>
<g id="a_Node000004"><a xlink:title=" ">
<path fill="white" stroke="#666666" d="M220,-205C220,-205 143,-205 143,-205 137,-205 131,-199 131,-193 131,-193 131,-160 131,-160 131,-154 137,-148 143,-148 143,-148 220,-148 220,-148 226,-148 232,-154 232,-160 232,-160 232,-193 232,-193 232,-199 226,-205 220,-205"/>
<text text-anchor="start" x="144.5" y="-188.5" font-family="Helvetica,sans-Serif" font-size="10.00">vector&lt; bool &gt;</text>
<text text-anchor="start" x="180" y="-173.5" font-family="Helvetica,sans-Serif" font-size="10.00"> </text>
<text text-anchor="start" x="180" y="-158.5" font-family="Helvetica,sans-Serif" font-size="10.00"> </text>
<polygon fill="#666666" stroke="#666666" points="139.5,-183.5 139.5,-183.5 224.5,-183.5 224.5,-183.5 139.5,-183.5"/>
<polygon fill="#666666" stroke="#666666" points="139.5,-168.5 139.5,-168.5 224.5,-168.5 224.5,-168.5 139.5,-168.5"/>
<polygon fill="none" stroke="#666666" points="139,-152 139,-201 224,-201 224,-152 139,-152"/>
</a>
</g>
</g>
<!-- Node3&#45;&gt;Node4 -->
<g id="edge4_Node000004_Node000003" class="edge">
<title>Node3&#45;&gt;Node4</title>
<g id="a_edge4_Node000004_Node000003"><a xlink:title=" ">
<path fill="none" stroke="orange" d="M181.5,-241.61C181.5,-229.51 181.5,-216.35 181.5,-205.12"/>
<polygon fill="orange" stroke="orange" points="178,-241.9 181.5,-251.9 185,-241.9 178,-241.9"/>
</a>
</g>
<text text-anchor="middle" x="205" y="-226" font-family="Helvetica,sans-Serif" font-size="10.00" fill="grey"> &lt; bool &gt;</text>
</g>
<!-- Node5 -->
<g id="Node000005" class="node">
<title>Node5</title>
<g id="a_Node000005"><a xlink:title=" ">
<path fill="white" stroke="#666666" d="M346.5,-205C346.5,-205 262.5,-205 262.5,-205 256.5,-205 250.5,-199 250.5,-193 250.5,-193 250.5,-160 250.5,-160 250.5,-154 256.5,-148 262.5,-148 262.5,-148 346.5,-148 346.5,-148 352.5,-148 358.5,-154 358.5,-160 358.5,-160 358.5,-193 358.5,-193 358.5,-199 352.5,-205 346.5,-205"/>
<text text-anchor="start" x="263.5" y="-188.5" font-family="Helvetica,sans-Serif" font-size="10.00">vector&lt; string &gt;</text>
<text text-anchor="start" x="302.5" y="-173.5" font-family="Helvetica,sans-Serif" font-size="10.00"> </text>
<text text-anchor="start" x="302.5" y="-158.5" font-family="Helvetica,sans-Serif" font-size="10.00"> </text>
<polygon fill="#666666" stroke="#666666" points="258.5,-183.5 258.5,-183.5 350.5,-183.5 350.5,-183.5 258.5,-183.5"/>
<polygon fill="#666666" stroke="#666666" points="258.5,-168.5 258.5,-168.5 350.5,-168.5 350.5,-168.5 258.5,-168.5"/>
<polygon fill="none" stroke="#666666" points="258.5,-152 258.5,-201 350.5,-201 350.5,-152 258.5,-152"/>
</a>
</g>
</g>
<!-- Node3&#45;&gt;Node5 -->
<g id="edge6_Node000005_Node000003" class="edge">
<title>Node3&#45;&gt;Node5</title>
<g id="a_edge6_Node000005_Node000003"><a xlink:title=" ">
<path fill="none" stroke="orange" d="M218.05,-249.19C234.95,-235.17 254.88,-218.65 271.34,-205"/>
<polygon fill="orange" stroke="orange" points="215.49,-246.77 210.03,-255.84 219.96,-252.15 215.49,-246.77"/>
</a>
</g>
<text text-anchor="middle" x="274.5" y="-226" font-family="Helvetica,sans-Serif" font-size="10.00" fill="grey"> &lt; string &gt;</text>
</g>
<!-- Node4&#45;&gt;Node1 -->
<g id="edge3_Node000001_Node000004" class="edge">
<title>Node4&#45;&gt;Node1</title>
<g id="a_edge3_Node000001_Node000004"><a xlink:title=" ">
<path fill="none" stroke="#63b8ff" d="M175.1,-147.96C171.66,-126.85 170.16,-97.61 181.5,-75 183.08,-71.84 185,-68.85 187.16,-66.02"/>
<polygon fill="none" stroke="#63b8ff" points="187.27,-65.91 188.35,-58.78 195.35,-57.03 194.27,-64.16 187.27,-65.91"/>
</a>
</g>
<text text-anchor="middle" x="232.5" y="-105.5" font-family="Helvetica,sans-Serif" font-size="10.00" fill="grey"> +estimate</text>
<text text-anchor="middle" x="232.5" y="-94.5" font-family="Helvetica,sans-Serif" font-size="10.00" fill="grey">+use_remote_sigma</text>
</g>
<!-- Node5&#45;&gt;Node1 -->
<g id="edge5_Node000001_Node000005" class="edge">
<title>Node5&#45;&gt;Node1</title>
<g id="a_edge5_Node000001_Node000005"><a xlink:title=" ">
<path fill="none" stroke="#63b8ff" d="M302.63,-147.77C300.31,-126.83 295.12,-97.89 283.5,-75 282.11,-72.26 280.51,-69.56 278.77,-66.93"/>
<polygon fill="none" stroke="#63b8ff" points="278.65,-66.77 271.86,-64.35 271.48,-57.15 278.27,-59.57 278.65,-66.77"/>
</a>
</g>
<text text-anchor="middle" x="329.5" y="-100" font-family="Helvetica,sans-Serif" font-size="10.00" fill="grey"> +comment</text>
</g>
<!-- Node6 -->
<g id="Node000006" class="node">
<title>Node6</title>
<g id="a_Node000006"><a xlink:title=" ">
<path fill="white" stroke="#666666" d="M476,-205C476,-205 389,-205 389,-205 383,-205 377,-199 377,-193 377,-193 377,-160 377,-160 377,-154 383,-148 389,-148 389,-148 476,-148 476,-148 482,-148 488,-154 488,-160 488,-160 488,-193 488,-193 488,-199 482,-205 476,-205"/>
<text text-anchor="start" x="390.5" y="-188.5" font-family="Helvetica,sans-Serif" font-size="10.00">map&lt; int, bool &gt;</text>
<text text-anchor="start" x="431" y="-173.5" font-family="Helvetica,sans-Serif" font-size="10.00"> </text>
<text text-anchor="start" x="431" y="-158.5" font-family="Helvetica,sans-Serif" font-size="10.00"> </text>
<polygon fill="#666666" stroke="#666666" points="385.5,-183.5 385.5,-183.5 480.5,-183.5 480.5,-183.5 385.5,-183.5"/>
<polygon fill="#666666" stroke="#666666" points="385.5,-168.5 385.5,-168.5 480.5,-168.5 480.5,-168.5 385.5,-168.5"/>
<polygon fill="none" stroke="#666666" points="385,-152 385,-201 480,-201 480,-152 385,-152"/>
</a>
</g>
</g>
<!-- Node6&#45;&gt;Node1 -->
<g id="edge7_Node000001_Node000006" class="edge">
<title>Node6&#45;&gt;Node1</title>
<g id="a_edge7_Node000001_Node000006"><a xlink:title=" ">
<path fill="none" stroke="#63b8ff" d="M419.13,-147.72C407.1,-125.33 387.48,-94.49 362.5,-75 345.91,-62.06 325.23,-52.47 305.73,-45.53"/>
<polygon fill="none" stroke="#63b8ff" points="305.5,-45.45 298.54,-47.34 294.12,-41.64 301.08,-39.75 305.5,-45.45"/>
</a>
</g>
<text text-anchor="middle" x="448" y="-100" font-family="Helvetica,sans-Serif" font-size="10.00" fill="grey"> +initialisedMap</text>
</g>
<!-- Node7 -->
<g id="Node000007" class="node">
<title>Node7</title>
<g id="a_Node000007"><a xlink:title=" ">
<path fill="white" stroke="#666666" d="M444.5,-309C444.5,-309 420.5,-309 420.5,-309 414.5,-309 408.5,-303 408.5,-297 408.5,-297 408.5,-264 408.5,-264 408.5,-258 414.5,-252 420.5,-252 420.5,-252 444.5,-252 444.5,-252 450.5,-252 456.5,-258 456.5,-264 456.5,-264 456.5,-297 456.5,-297 456.5,-303 450.5,-309 444.5,-309"/>
<text text-anchor="start" x="421.5" y="-292.5" font-family="Helvetica,sans-Serif" font-size="10.00">map</text>
<text text-anchor="start" x="430.5" y="-277.5" font-family="Helvetica,sans-Serif" font-size="10.00"> </text>
<text text-anchor="start" x="430.5" y="-262.5" font-family="Helvetica,sans-Serif" font-size="10.00"> </text>
<polygon fill="#666666" stroke="#666666" points="416.5,-287.5 416.5,-287.5 448.5,-287.5 448.5,-287.5 416.5,-287.5"/>
<polygon fill="#666666" stroke="#666666" points="416.5,-272.5 416.5,-272.5 448.5,-272.5 448.5,-272.5 416.5,-272.5"/>
<polygon fill="none" stroke="#666666" points="416.5,-256 416.5,-305 448.5,-305 448.5,-256 416.5,-256"/>
</a>
</g>
</g>
<!-- Node7&#45;&gt;Node6 -->
<g id="edge8_Node000006_Node000007" class="edge">
<title>Node7&#45;&gt;Node6</title>
<g id="a_edge8_Node000006_Node000007"><a xlink:title=" ">
<path fill="none" stroke="orange" d="M432.5,-241.61C432.5,-229.51 432.5,-216.35 432.5,-205.12"/>
<polygon fill="orange" stroke="orange" points="429,-241.9 432.5,-251.9 436,-241.9 429,-241.9"/>
</a>
</g>
<text text-anchor="middle" x="465.5" y="-226" font-family="Helvetica,sans-Serif" font-size="10.00" fill="grey"> &lt; int, bool &gt;</text>
</g>
</g>
</svg>
