<?xml version="1.0" encoding="UTF-8" standalone="no"?>
<!DOCTYPE svg PUBLIC "-//W3C//DTD SVG 1.1//EN"
 "http://www.w3.org/Graphics/SVG/1.1/DTD/svg11.dtd">
<!-- Generated by graphviz version 2.43.0 (0)
 -->
<!-- Title: UbxDecoder::decodeRXM Pages: 1 -->
<svg width="302pt" height="27pt"
 viewBox="0.00 0.00 302.00 27.00" xmlns="http://www.w3.org/2000/svg" xmlns:xlink="http://www.w3.org/1999/xlink">
<g id="graph0" class="graph" transform="scale(1 1) rotate(0) translate(4 23)">
<title>UbxDecoder::decodeRXM</title>
<!-- Node1 -->
<g id="Node000001" class="node">
<title>Node1</title>
<g id="a_Node000001"><a xlink:href="structUbxDecoder.html#a2608cdb3376f8d8caece45350c7c5951" target="_top" xlink:title=" ">
<path fill="#fff0f0" stroke="red" stroke-width="2" d="M287.67,-19C287.67,-19 160.33,-19 160.33,-19 157.17,-19 154,-15.83 154,-12.67 154,-12.67 154,-6.33 154,-6.33 154,-3.17 157.17,0 160.33,0 160.33,0 287.67,0 287.67,0 290.83,0 294,-3.17 294,-6.33 294,-6.33 294,-12.67 294,-12.67 294,-15.83 290.83,-19 287.67,-19"/>
<text text-anchor="middle" x="224" y="-7" font-family="Helvetica,sans-Serif" font-size="10.00">UbxDecoder::decodeRXM</text>
</a>
</g>
</g>
<!-- Node2 -->
<g id="Node000002" class="node">
<title>Node2</title>
<g id="a_Node000002"><a xlink:href="structUbxDecoder.html#a4b74cd3c51f08160ca5949d75393bb68" target="_top" xlink:title=" ">
<path fill="#fff0f0" stroke="red" d="M111.67,-19C111.67,-19 6.33,-19 6.33,-19 3.17,-19 0,-15.83 0,-12.67 0,-12.67 0,-6.33 0,-6.33 0,-3.17 3.17,0 6.33,0 6.33,0 111.67,0 111.67,0 114.83,0 118,-3.17 118,-6.33 118,-6.33 118,-12.67 118,-12.67 118,-15.83 114.83,-19 111.67,-19"/>
<text text-anchor="middle" x="59" y="-7" font-family="Helvetica,sans-Serif" font-size="10.00">UbxDecoder::decode</text>
</a>
</g>
</g>
<!-- Node1&#45;&gt;Node2 -->
<g id="edge1_Node000001_Node000002" class="edge">
<title>Node1&#45;&gt;Node2</title>
<g id="a_edge1_Node000001_Node000002"><a xlink:title=" ">
<path fill="none" stroke="#63b8ff" d="M143.78,-9.5C135.15,-9.5 126.49,-9.5 118.18,-9.5"/>
<polygon fill="#63b8ff" stroke="#63b8ff" points="143.87,-13 153.87,-9.5 143.87,-6 143.87,-13"/>
</a>
</g>
</g>
</g>
</svg>
