<?xml version="1.0" encoding="UTF-8" standalone="no"?>
<!DOCTYPE svg PUBLIC "-//W3C//DTD SVG 1.1//EN"
 "http://www.w3.org/Graphics/SVG/1.1/DTD/svg11.dtd">
<!-- Generated by graphviz version 2.43.0 (0)
 -->
<!-- Title: NetworkStatistics Pages: 1 -->
<svg width="545pt" height="1241pt"
 viewBox="0.00 0.00 545.00 1241.00" xmlns="http://www.w3.org/2000/svg" xmlns:xlink="http://www.w3.org/1999/xlink">
<g id="graph0" class="graph" transform="scale(1 1) rotate(0) translate(4 1237)">
<title>NetworkStatistics</title>
<!-- Node1 -->
<g id="Node000001" class="node">
<title>Node1</title>
<g id="a_Node000001"><a xlink:href="structNetworkStatistics.html" target="_top" xlink:title=" ">
<path fill="white" stroke="#666666" stroke-width="2" d="M345.5,-1233C345.5,-1233 191.5,-1233 191.5,-1233 185.5,-1233 179.5,-1227 179.5,-1221 179.5,-1221 179.5,-978 179.5,-978 179.5,-972 185.5,-966 191.5,-966 191.5,-966 345.5,-966 345.5,-966 351.5,-966 357.5,-972 357.5,-978 357.5,-978 357.5,-1221 357.5,-1221 357.5,-1227 351.5,-1233 345.5,-1233"/>
<text text-anchor="start" x="225" y="-1216.5" font-family="Helvetica,sans-Serif" font-size="10.00">NetworkStatistics</text>
<text text-anchor="start" x="191.5" y="-1201.5" font-family="Helvetica,sans-Serif" font-size="10.00">+</text>
<text text-anchor="start" x="204.5" y="-1201.5" font-family="Helvetica,sans-Serif" font-size="10.00">streamName</text>
<text text-anchor="start" x="191.5" y="-1186.5" font-family="Helvetica,sans-Serif" font-size="10.00">+</text>
<text text-anchor="start" x="204.5" y="-1186.5" font-family="Helvetica,sans-Serif" font-size="10.00">startTime</text>
<text text-anchor="start" x="191.5" y="-1171.5" font-family="Helvetica,sans-Serif" font-size="10.00">+</text>
<text text-anchor="start" x="204.5" y="-1171.5" font-family="Helvetica,sans-Serif" font-size="10.00">endTime</text>
<text text-anchor="start" x="191.5" y="-1156.5" font-family="Helvetica,sans-Serif" font-size="10.00">+</text>
<text text-anchor="start" x="204.5" y="-1156.5" font-family="Helvetica,sans-Serif" font-size="10.00">networkTraceFilename</text>
<text text-anchor="start" x="191.5" y="-1141.5" font-family="Helvetica,sans-Serif" font-size="10.00">+</text>
<text text-anchor="start" x="204.5" y="-1141.5" font-family="Helvetica,sans-Serif" font-size="10.00">connectCount</text>
<text text-anchor="start" x="191.5" y="-1126.5" font-family="Helvetica,sans-Serif" font-size="10.00">+</text>
<text text-anchor="start" x="204.5" y="-1126.5" font-family="Helvetica,sans-Serif" font-size="10.00">disconnectCount</text>
<text text-anchor="start" x="191.5" y="-1111.5" font-family="Helvetica,sans-Serif" font-size="10.00">+</text>
<text text-anchor="start" x="204.5" y="-1111.5" font-family="Helvetica,sans-Serif" font-size="10.00">chunksSent</text>
<text text-anchor="start" x="191.5" y="-1096.5" font-family="Helvetica,sans-Serif" font-size="10.00">+</text>
<text text-anchor="start" x="204.5" y="-1096.5" font-family="Helvetica,sans-Serif" font-size="10.00">chunksReceived</text>
<text text-anchor="start" x="191.5" y="-1081.5" font-family="Helvetica,sans-Serif" font-size="10.00">+</text>
<text text-anchor="start" x="204.5" y="-1081.5" font-family="Helvetica,sans-Serif" font-size="10.00">connectedDuration</text>
<text text-anchor="start" x="191.5" y="-1066.5" font-family="Helvetica,sans-Serif" font-size="10.00">+</text>
<text text-anchor="start" x="204.5" y="-1066.5" font-family="Helvetica,sans-Serif" font-size="10.00">disconnectedDuration</text>
<text text-anchor="start" x="191.5" y="-1051.5" font-family="Helvetica,sans-Serif" font-size="10.00">+</text>
<text text-anchor="start" x="204.5" y="-1051.5" font-family="Helvetica,sans-Serif" font-size="10.00">getNetworkStatistics()</text>
<text text-anchor="start" x="191.5" y="-1036.5" font-family="Helvetica,sans-Serif" font-size="10.00">+</text>
<text text-anchor="start" x="204.5" y="-1036.5" font-family="Helvetica,sans-Serif" font-size="10.00">onConnectedStatistics()</text>
<text text-anchor="start" x="191.5" y="-1021.5" font-family="Helvetica,sans-Serif" font-size="10.00">+</text>
<text text-anchor="start" x="204.5" y="-1021.5" font-family="Helvetica,sans-Serif" font-size="10.00">onDisconnectedStatistics()</text>
<text text-anchor="start" x="191.5" y="-1006.5" font-family="Helvetica,sans-Serif" font-size="10.00">+</text>
<text text-anchor="start" x="204.5" y="-1006.5" font-family="Helvetica,sans-Serif" font-size="10.00">onChunkSentStatistics()</text>
<text text-anchor="start" x="191.5" y="-991.5" font-family="Helvetica,sans-Serif" font-size="10.00">+</text>
<text text-anchor="start" x="204.5" y="-991.5" font-family="Helvetica,sans-Serif" font-size="10.00">onChunkReceivedStatistics()</text>
<text text-anchor="start" x="191.5" y="-976.5" font-family="Helvetica,sans-Serif" font-size="10.00">+</text>
<text text-anchor="start" x="204.5" y="-976.5" font-family="Helvetica,sans-Serif" font-size="10.00">onErrorStatistics()</text>
<polygon fill="#666666" stroke="#666666" points="187.5,-1211.5 187.5,-1211.5 349.5,-1211.5 349.5,-1211.5 187.5,-1211.5"/>
<polygon fill="#666666" stroke="#666666" points="187.5,-1061.5 187.5,-1061.5 202.5,-1061.5 202.5,-1061.5 187.5,-1061.5"/>
<polygon fill="#666666" stroke="#666666" points="202.5,-1061.5 202.5,-1061.5 349.5,-1061.5 349.5,-1061.5 202.5,-1061.5"/>
<polygon fill="none" stroke="#666666" points="187.5,-970 187.5,-1229 349.5,-1229 349.5,-970 187.5,-970"/>
</a>
</g>
</g>
<!-- Node2 -->
<g id="Node000002" class="node">
<title>Node2</title>
<g id="a_Node000002"><a xlink:href="structTcpSocket.html" target="_top" xlink:title=" ">
<path fill="white" stroke="#666666" d="M340,-930C340,-930 197,-930 197,-930 191,-930 185,-924 185,-918 185,-918 185,-315 185,-315 185,-309 191,-303 197,-303 197,-303 340,-303 340,-303 346,-303 352,-309 352,-315 352,-315 352,-918 352,-918 352,-924 346,-930 340,-930"/>
<text text-anchor="start" x="244.5" y="-913.5" font-family="Helvetica,sans-Serif" font-size="10.00">TcpSocket</text>
<text text-anchor="start" x="197.5" y="-898.5" font-family="Helvetica,sans-Serif" font-size="10.00">+</text>
<text text-anchor="start" x="210.5" y="-898.5" font-family="Helvetica,sans-Serif" font-size="10.00">url</text>
<text text-anchor="start" x="197.5" y="-883.5" font-family="Helvetica,sans-Serif" font-size="10.00">+</text>
<text text-anchor="start" x="210.5" y="-883.5" font-family="Helvetica,sans-Serif" font-size="10.00">reconnectDelay</text>
<text text-anchor="start" x="197.5" y="-868.5" font-family="Helvetica,sans-Serif" font-size="10.00">+</text>
<text text-anchor="start" x="210.5" y="-868.5" font-family="Helvetica,sans-Serif" font-size="10.00">disconnectionCount</text>
<text text-anchor="start" x="197.5" y="-853.5" font-family="Helvetica,sans-Serif" font-size="10.00">+</text>
<text text-anchor="start" x="210.5" y="-853.5" font-family="Helvetica,sans-Serif" font-size="10.00">isConnected</text>
<text text-anchor="start" x="197.5" y="-838.5" font-family="Helvetica,sans-Serif" font-size="10.00">+</text>
<text text-anchor="start" x="210.5" y="-838.5" font-family="Helvetica,sans-Serif" font-size="10.00">numberErroredChunks</text>
<text text-anchor="start" x="197.5" y="-823.5" font-family="Helvetica,sans-Serif" font-size="10.00">+</text>
<text text-anchor="start" x="210.5" y="-823.5" font-family="Helvetica,sans-Serif" font-size="10.00">logHttpSentReceived</text>
<text text-anchor="start" x="197.5" y="-808.5" font-family="Helvetica,sans-Serif" font-size="10.00">+</text>
<text text-anchor="start" x="210.5" y="-808.5" font-family="Helvetica,sans-Serif" font-size="10.00">content_length</text>
<text text-anchor="start" x="197.5" y="-793.5" font-family="Helvetica,sans-Serif" font-size="10.00">+</text>
<text text-anchor="start" x="210.5" y="-793.5" font-family="Helvetica,sans-Serif" font-size="10.00">sslContext</text>
<text text-anchor="start" x="197.5" y="-778.5" font-family="Helvetica,sans-Serif" font-size="10.00">+</text>
<text text-anchor="start" x="210.5" y="-778.5" font-family="Helvetica,sans-Serif" font-size="10.00">ioService</text>
<text text-anchor="start" x="197.5" y="-763.5" font-family="Helvetica,sans-Serif" font-size="10.00">#</text>
<text text-anchor="start" x="210.5" y="-763.5" font-family="Helvetica,sans-Serif" font-size="10.00">_socket</text>
<text text-anchor="start" x="197.5" y="-748.5" font-family="Helvetica,sans-Serif" font-size="10.00">#</text>
<text text-anchor="start" x="210.5" y="-748.5" font-family="Helvetica,sans-Serif" font-size="10.00">socket_ptr</text>
<text text-anchor="start" x="197.5" y="-733.5" font-family="Helvetica,sans-Serif" font-size="10.00">#</text>
<text text-anchor="start" x="210.5" y="-733.5" font-family="Helvetica,sans-Serif" font-size="10.00">_sslsocket</text>
<text text-anchor="start" x="197.5" y="-718.5" font-family="Helvetica,sans-Serif" font-size="10.00">#</text>
<text text-anchor="start" x="210.5" y="-718.5" font-family="Helvetica,sans-Serif" font-size="10.00">_resolver</text>
<text text-anchor="start" x="197.5" y="-703.5" font-family="Helvetica,sans-Serif" font-size="10.00">#</text>
<text text-anchor="start" x="210.5" y="-703.5" font-family="Helvetica,sans-Serif" font-size="10.00">timer</text>
<text text-anchor="start" x="197.5" y="-688.5" font-family="Helvetica,sans-Serif" font-size="10.00">#</text>
<text text-anchor="start" x="210.5" y="-688.5" font-family="Helvetica,sans-Serif" font-size="10.00">readUntilString</text>
<text text-anchor="start" x="197.5" y="-673.5" font-family="Helvetica,sans-Serif" font-size="10.00">#</text>
<text text-anchor="start" x="210.5" y="-673.5" font-family="Helvetica,sans-Serif" font-size="10.00">requestString</text>
<text text-anchor="start" x="197.5" y="-658.5" font-family="Helvetica,sans-Serif" font-size="10.00">#</text>
<text text-anchor="start" x="210.5" y="-658.5" font-family="Helvetica,sans-Serif" font-size="10.00">responseString</text>
<text text-anchor="start" x="197.5" y="-643.5" font-family="Helvetica,sans-Serif" font-size="10.00">#</text>
<text text-anchor="start" x="210.5" y="-643.5" font-family="Helvetica,sans-Serif" font-size="10.00">request</text>
<text text-anchor="start" x="197.5" y="-628.5" font-family="Helvetica,sans-Serif" font-size="10.00">#</text>
<text text-anchor="start" x="210.5" y="-628.5" font-family="Helvetica,sans-Serif" font-size="10.00">downloadBuf</text>
<text text-anchor="start" x="197.5" y="-613.5" font-family="Helvetica,sans-Serif" font-size="10.00">#</text>
<text text-anchor="start" x="210.5" y="-613.5" font-family="Helvetica,sans-Serif" font-size="10.00">receivedTcpData</text>
<text text-anchor="start" x="197.5" y="-598.5" font-family="Helvetica,sans-Serif" font-size="10.00">+</text>
<text text-anchor="start" x="210.5" y="-598.5" font-family="Helvetica,sans-Serif" font-size="10.00">TcpSocket()</text>
<text text-anchor="start" x="197.5" y="-583.5" font-family="Helvetica,sans-Serif" font-size="10.00">+</text>
<text text-anchor="start" x="210.5" y="-583.5" font-family="Helvetica,sans-Serif" font-size="10.00">setUrl()</text>
<text text-anchor="start" x="197.5" y="-568.5" font-family="Helvetica,sans-Serif" font-size="10.00">+</text>
<text text-anchor="start" x="210.5" y="-568.5" font-family="Helvetica,sans-Serif" font-size="10.00">connect()</text>
<text text-anchor="start" x="197.5" y="-553.5" font-family="Helvetica,sans-Serif" font-size="10.00">+</text>
<text text-anchor="start" x="210.5" y="-553.5" font-family="Helvetica,sans-Serif" font-size="10.00">disconnect()</text>
<text text-anchor="start" x="197.5" y="-538.5" font-family="Helvetica,sans-Serif" font-size="10.00">+</text>
<text text-anchor="start" x="210.5" y="-538.5" font-family="Helvetica,sans-Serif" font-size="10.00">startRead()</text>
<text text-anchor="start" x="197.5" y="-523.5" font-family="Helvetica,sans-Serif" font-size="10.00">+</text>
<text text-anchor="start" x="210.5" y="-523.5" font-family="Helvetica,sans-Serif" font-size="10.00">timeoutHandler()</text>
<text text-anchor="start" x="197.5" y="-508.5" font-family="Helvetica,sans-Serif" font-size="10.00">+</text>
<text text-anchor="start" x="210.5" y="-508.5" font-family="Helvetica,sans-Serif" font-size="10.00">delayedReconnect()</text>
<text text-anchor="start" x="197.5" y="-493.5" font-family="Helvetica,sans-Serif" font-size="10.00">+</text>
<text text-anchor="start" x="210.5" y="-493.5" font-family="Helvetica,sans-Serif" font-size="10.00">connectHandler()</text>
<text text-anchor="start" x="197.5" y="-478.5" font-family="Helvetica,sans-Serif" font-size="10.00">+</text>
<text text-anchor="start" x="210.5" y="-478.5" font-family="Helvetica,sans-Serif" font-size="10.00">requestResponseHandler()</text>
<text text-anchor="start" x="197.5" y="-463.5" font-family="Helvetica,sans-Serif" font-size="10.00">+</text>
<text text-anchor="start" x="210.5" y="-463.5" font-family="Helvetica,sans-Serif" font-size="10.00">logChunkError()</text>
<text text-anchor="start" x="197.5" y="-448.5" font-family="Helvetica,sans-Serif" font-size="10.00">+</text>
<text text-anchor="start" x="210.5" y="-448.5" font-family="Helvetica,sans-Serif" font-size="10.00">dataChunkDownloaded()</text>
<text text-anchor="start" x="197.5" y="-433.5" font-family="Helvetica,sans-Serif" font-size="10.00">+</text>
<text text-anchor="start" x="210.5" y="-433.5" font-family="Helvetica,sans-Serif" font-size="10.00">readContentDownloaded()</text>
<text text-anchor="start" x="197.5" y="-418.5" font-family="Helvetica,sans-Serif" font-size="10.00">+</text>
<text text-anchor="start" x="210.5" y="-418.5" font-family="Helvetica,sans-Serif" font-size="10.00">connected()</text>
<text text-anchor="start" x="197.5" y="-403.5" font-family="Helvetica,sans-Serif" font-size="10.00">+</text>
<text text-anchor="start" x="210.5" y="-403.5" font-family="Helvetica,sans-Serif" font-size="10.00">messageChunkLog()</text>
<text text-anchor="start" x="197.5" y="-388.5" font-family="Helvetica,sans-Serif" font-size="10.00">+</text>
<text text-anchor="start" x="210.5" y="-388.5" font-family="Helvetica,sans-Serif" font-size="10.00">networkLog()</text>
<text text-anchor="start" x="197.5" y="-373.5" font-family="Helvetica,sans-Serif" font-size="10.00">+</text>
<text text-anchor="start" x="210.5" y="-373.5" font-family="Helvetica,sans-Serif" font-size="10.00">getData()</text>
<text text-anchor="start" x="197.5" y="-358.5" font-family="Helvetica,sans-Serif" font-size="10.00">+</text>
<text text-anchor="start" x="210.5" y="-358.5" font-family="Helvetica,sans-Serif" font-size="10.00">connectionError()</text>
<text text-anchor="start" x="197.5" y="-343.5" font-family="Helvetica,sans-Serif" font-size="10.00">+</text>
<text text-anchor="start" x="210.5" y="-343.5" font-family="Helvetica,sans-Serif" font-size="10.00">~TcpSocket()</text>
<text text-anchor="start" x="197.5" y="-328.5" font-family="Helvetica,sans-Serif" font-size="10.00">+</text>
<text text-anchor="start" x="210.5" y="-328.5" font-family="Helvetica,sans-Serif" font-size="10.00">runService()</text>
<text text-anchor="start" x="197.5" y="-313.5" font-family="Helvetica,sans-Serif" font-size="10.00">+</text>
<text text-anchor="start" x="210.5" y="-313.5" font-family="Helvetica,sans-Serif" font-size="10.00">startClients()</text>
<polygon fill="#666666" stroke="#666666" points="193.5,-908.5 193.5,-908.5 344.5,-908.5 344.5,-908.5 193.5,-908.5"/>
<polygon fill="#666666" stroke="#666666" points="193.5,-608.5 193.5,-608.5 208.5,-608.5 208.5,-608.5 193.5,-608.5"/>
<polygon fill="#666666" stroke="#666666" points="208.5,-608.5 208.5,-608.5 344.5,-608.5 344.5,-608.5 208.5,-608.5"/>
<polygon fill="none" stroke="#666666" points="193,-307 193,-926 344,-926 344,-307 193,-307"/>
</a>
</g>
</g>
<!-- Node1&#45;&gt;Node2 -->
<g id="edge1_Node000001_Node000002" class="edge">
<title>Node1&#45;&gt;Node2</title>
<g id="a_edge1_Node000001_Node000002"><a xlink:title=" ">
<path fill="none" stroke="#63b8ff" d="M268.5,-955.68C268.5,-947.32 268.5,-938.76 268.5,-930.06"/>
<polygon fill="none" stroke="#63b8ff" points="265,-955.79 268.5,-965.79 272,-955.79 265,-955.79"/>
</a>
</g>
</g>
<!-- Node3 -->
<g id="Node000003" class="node">
<title>Node3</title>
<g id="a_Node000003"><a xlink:href="structNtripStream.html" target="_top" xlink:title=" ">
<path fill="white" stroke="#666666" d="M155,-184.5C155,-184.5 12,-184.5 12,-184.5 6,-184.5 0,-178.5 0,-172.5 0,-172.5 0,-94.5 0,-94.5 0,-88.5 6,-82.5 12,-82.5 12,-82.5 155,-82.5 155,-82.5 161,-82.5 167,-88.5 167,-94.5 167,-94.5 167,-172.5 167,-172.5 167,-178.5 161,-184.5 155,-184.5"/>
<text text-anchor="start" x="54" y="-168.5" font-family="Helvetica,sans-Serif" font-size="10.00">NtripStream</text>
<text text-anchor="start" x="82" y="-153.5" font-family="Helvetica,sans-Serif" font-size="10.00"> </text>
<text text-anchor="start" x="12.5" y="-138.5" font-family="Helvetica,sans-Serif" font-size="10.00">+</text>
<text text-anchor="start" x="25.5" y="-138.5" font-family="Helvetica,sans-Serif" font-size="10.00">NtripStream()</text>
<text text-anchor="start" x="12.5" y="-123.5" font-family="Helvetica,sans-Serif" font-size="10.00">+</text>
<text text-anchor="start" x="25.5" y="-123.5" font-family="Helvetica,sans-Serif" font-size="10.00">requestResponseHandler()</text>
<text text-anchor="start" x="12.5" y="-108.5" font-family="Helvetica,sans-Serif" font-size="10.00">+</text>
<text text-anchor="start" x="25.5" y="-108.5" font-family="Helvetica,sans-Serif" font-size="10.00">serverResponse()</text>
<text text-anchor="start" x="12.5" y="-93.5" font-family="Helvetica,sans-Serif" font-size="10.00">+</text>
<text text-anchor="start" x="25.5" y="-93.5" font-family="Helvetica,sans-Serif" font-size="10.00">~NtripStream()</text>
<polygon fill="#666666" stroke="#666666" points="8.5,-163.5 8.5,-163.5 159.5,-163.5 159.5,-163.5 8.5,-163.5"/>
<polygon fill="#666666" stroke="#666666" points="8.5,-148.5 8.5,-148.5 159.5,-148.5 159.5,-148.5 8.5,-148.5"/>
<polygon fill="none" stroke="#666666" points="8,-86.5 8,-180.5 159,-180.5 159,-86.5 8,-86.5"/>
</a>
</g>
</g>
<!-- Node2&#45;&gt;Node3 -->
<g id="edge2_Node000002_Node000003" class="edge">
<title>Node2&#45;&gt;Node3</title>
<g id="a_edge2_Node000002_Node000003"><a xlink:title=" ">
<path fill="none" stroke="#63b8ff" d="M181.17,-388.43C151.79,-312.06 121.72,-233.87 102.85,-184.81"/>
<polygon fill="none" stroke="#63b8ff" points="178.07,-390.14 184.93,-398.22 184.61,-387.63 178.07,-390.14"/>
</a>
</g>
</g>
<!-- Node4 -->
<g id="Node000004" class="node">
<title>Node4</title>
<g id="a_Node000004"><a xlink:href="structNtripUploader.html" target="_top" xlink:title=" ">
<path fill="white" stroke="#666666" d="M340.5,-267C340.5,-267 196.5,-267 196.5,-267 190.5,-267 184.5,-261 184.5,-255 184.5,-255 184.5,-12 184.5,-12 184.5,-6 190.5,0 196.5,0 196.5,0 340.5,0 340.5,0 346.5,0 352.5,-6 352.5,-12 352.5,-12 352.5,-255 352.5,-255 352.5,-261 346.5,-267 340.5,-267"/>
<text text-anchor="start" x="234" y="-250.5" font-family="Helvetica,sans-Serif" font-size="10.00">NtripUploader</text>
<text text-anchor="start" x="196.5" y="-235.5" font-family="Helvetica,sans-Serif" font-size="10.00">+</text>
<text text-anchor="start" x="209.5" y="-235.5" font-family="Helvetica,sans-Serif" font-size="10.00">timeNextMessage</text>
<text text-anchor="start" x="196.5" y="-220.5" font-family="Helvetica,sans-Serif" font-size="10.00">+</text>
<text text-anchor="start" x="209.5" y="-220.5" font-family="Helvetica,sans-Serif" font-size="10.00">outMessagesMtx</text>
<text text-anchor="start" x="196.5" y="-205.5" font-family="Helvetica,sans-Serif" font-size="10.00">+</text>
<text text-anchor="start" x="209.5" y="-205.5" font-family="Helvetica,sans-Serif" font-size="10.00">outMessages</text>
<text text-anchor="start" x="196.5" y="-190.5" font-family="Helvetica,sans-Serif" font-size="10.00">+</text>
<text text-anchor="start" x="209.5" y="-190.5" font-family="Helvetica,sans-Serif" font-size="10.00">sendTimer</text>
<text text-anchor="start" x="196.5" y="-175.5" font-family="Helvetica,sans-Serif" font-size="10.00">+</text>
<text text-anchor="start" x="209.5" y="-175.5" font-family="Helvetica,sans-Serif" font-size="10.00">numberChunksSent</text>
<text text-anchor="start" x="196.5" y="-160.5" font-family="Helvetica,sans-Serif" font-size="10.00">+</text>
<text text-anchor="start" x="209.5" y="-160.5" font-family="Helvetica,sans-Serif" font-size="10.00">previousTargetTime</text>
<text text-anchor="start" x="196.5" y="-145.5" font-family="Helvetica,sans-Serif" font-size="10.00">+</text>
<text text-anchor="start" x="209.5" y="-145.5" font-family="Helvetica,sans-Serif" font-size="10.00">ntripStr</text>
<text text-anchor="start" x="196.5" y="-130.5" font-family="Helvetica,sans-Serif" font-size="10.00">+</text>
<text text-anchor="start" x="209.5" y="-130.5" font-family="Helvetica,sans-Serif" font-size="10.00">id</text>
<text text-anchor="start" x="196.5" y="-115.5" font-family="Helvetica,sans-Serif" font-size="10.00">+</text>
<text text-anchor="start" x="209.5" y="-115.5" font-family="Helvetica,sans-Serif" font-size="10.00">streamConfig</text>
<text text-anchor="start" x="196.5" y="-100.5" font-family="Helvetica,sans-Serif" font-size="10.00">+</text>
<text text-anchor="start" x="209.5" y="-100.5" font-family="Helvetica,sans-Serif" font-size="10.00">NtripUploader()</text>
<text text-anchor="start" x="196.5" y="-85.5" font-family="Helvetica,sans-Serif" font-size="10.00">+</text>
<text text-anchor="start" x="209.5" y="-85.5" font-family="Helvetica,sans-Serif" font-size="10.00">startBroadcast()</text>
<text text-anchor="start" x="196.5" y="-70.5" font-family="Helvetica,sans-Serif" font-size="10.00">+</text>
<text text-anchor="start" x="209.5" y="-70.5" font-family="Helvetica,sans-Serif" font-size="10.00">connected()</text>
<text text-anchor="start" x="196.5" y="-55.5" font-family="Helvetica,sans-Serif" font-size="10.00">+</text>
<text text-anchor="start" x="209.5" y="-55.5" font-family="Helvetica,sans-Serif" font-size="10.00">messageTimeoutHandler()</text>
<text text-anchor="start" x="196.5" y="-40.5" font-family="Helvetica,sans-Serif" font-size="10.00">+</text>
<text text-anchor="start" x="209.5" y="-40.5" font-family="Helvetica,sans-Serif" font-size="10.00">writeHandler()</text>
<text text-anchor="start" x="196.5" y="-25.5" font-family="Helvetica,sans-Serif" font-size="10.00">+</text>
<text text-anchor="start" x="209.5" y="-25.5" font-family="Helvetica,sans-Serif" font-size="10.00">serverResponse()</text>
<text text-anchor="start" x="196.5" y="-10.5" font-family="Helvetica,sans-Serif" font-size="10.00">+</text>
<text text-anchor="start" x="209.5" y="-10.5" font-family="Helvetica,sans-Serif" font-size="10.00">getJsonNetworkStatistics()</text>
<polygon fill="#666666" stroke="#666666" points="192.5,-245.5 192.5,-245.5 344.5,-245.5 344.5,-245.5 192.5,-245.5"/>
<polygon fill="#666666" stroke="#666666" points="192.5,-110.5 192.5,-110.5 207.5,-110.5 207.5,-110.5 192.5,-110.5"/>
<polygon fill="#666666" stroke="#666666" points="207.5,-110.5 207.5,-110.5 344.5,-110.5 344.5,-110.5 207.5,-110.5"/>
<polygon fill="none" stroke="#666666" points="192.5,-4 192.5,-263 344.5,-263 344.5,-4 192.5,-4"/>
</a>
</g>
</g>
<!-- Node2&#45;&gt;Node4 -->
<g id="edge3_Node000002_Node000004" class="edge">
<title>Node2&#45;&gt;Node4</title>
<g id="a_edge3_Node000002_Node000004"><a xlink:title=" ">
<path fill="none" stroke="#63b8ff" d="M268.5,-292.5C268.5,-283.85 268.5,-275.36 268.5,-267.09"/>
<polygon fill="none" stroke="#63b8ff" points="265,-292.73 268.5,-302.73 272,-292.73 265,-292.73"/>
</a>
</g>
</g>
<!-- Node5 -->
<g id="Node000005" class="node">
<title>Node5</title>
<g id="a_Node000005"><a xlink:href="structSisnetStream.html" target="_top" xlink:title=" ">
<path fill="white" stroke="#666666" d="M525,-199.5C525,-199.5 382,-199.5 382,-199.5 376,-199.5 370,-193.5 370,-187.5 370,-187.5 370,-79.5 370,-79.5 370,-73.5 376,-67.5 382,-67.5 382,-67.5 525,-67.5 525,-67.5 531,-67.5 537,-73.5 537,-79.5 537,-79.5 537,-187.5 537,-187.5 537,-193.5 531,-199.5 525,-199.5"/>
<text text-anchor="start" x="421" y="-183.5" font-family="Helvetica,sans-Serif" font-size="10.00">SisnetStream</text>
<text text-anchor="start" x="452" y="-168.5" font-family="Helvetica,sans-Serif" font-size="10.00"> </text>
<text text-anchor="start" x="382.5" y="-153.5" font-family="Helvetica,sans-Serif" font-size="10.00">+</text>
<text text-anchor="start" x="395.5" y="-153.5" font-family="Helvetica,sans-Serif" font-size="10.00">SisnetStream()</text>
<text text-anchor="start" x="382.5" y="-138.5" font-family="Helvetica,sans-Serif" font-size="10.00">+</text>
<text text-anchor="start" x="395.5" y="-138.5" font-family="Helvetica,sans-Serif" font-size="10.00">sisnetHandler()</text>
<text text-anchor="start" x="382.5" y="-123.5" font-family="Helvetica,sans-Serif" font-size="10.00">+</text>
<text text-anchor="start" x="395.5" y="-123.5" font-family="Helvetica,sans-Serif" font-size="10.00">sisnetResponseHandler()</text>
<text text-anchor="start" x="382.5" y="-108.5" font-family="Helvetica,sans-Serif" font-size="10.00">+</text>
<text text-anchor="start" x="395.5" y="-108.5" font-family="Helvetica,sans-Serif" font-size="10.00">sisnetStartHandler()</text>
<text text-anchor="start" x="382.5" y="-93.5" font-family="Helvetica,sans-Serif" font-size="10.00">+</text>
<text text-anchor="start" x="395.5" y="-93.5" font-family="Helvetica,sans-Serif" font-size="10.00">requestResponseHandler()</text>
<text text-anchor="start" x="382.5" y="-78.5" font-family="Helvetica,sans-Serif" font-size="10.00">+</text>
<text text-anchor="start" x="395.5" y="-78.5" font-family="Helvetica,sans-Serif" font-size="10.00">~SisnetStream()</text>
<polygon fill="#666666" stroke="#666666" points="378.5,-178.5 378.5,-178.5 529.5,-178.5 529.5,-178.5 378.5,-178.5"/>
<polygon fill="#666666" stroke="#666666" points="378.5,-163.5 378.5,-163.5 529.5,-163.5 529.5,-163.5 378.5,-163.5"/>
<polygon fill="none" stroke="#666666" points="378,-71.5 378,-195.5 529,-195.5 529,-71.5 378,-71.5"/>
</a>
</g>
</g>
<!-- Node2&#45;&gt;Node5 -->
<g id="edge4_Node000002_Node000005" class="edge">
<title>Node2&#45;&gt;Node5</title>
<g id="a_edge4_Node000002_Node000005"><a xlink:title=" ">
<path fill="none" stroke="#63b8ff" d="M355.82,-388.47C382.41,-319.33 409.58,-248.69 428.49,-199.52"/>
<polygon fill="none" stroke="#63b8ff" points="352.39,-387.63 352.07,-398.22 358.93,-390.14 352.39,-387.63"/>
</a>
</g>
</g>
</g>
</svg>
