<?xml version="1.0" encoding="UTF-8" standalone="no"?>
<!DOCTYPE svg PUBLIC "-//W3C//DTD SVG 1.1//EN"
 "http://www.w3.org/Graphics/SVG/1.1/DTD/svg11.dtd">
<!-- Generated by graphviz version 2.43.0 (0)
 -->
<!-- Title: IonoPP Pages: 1 -->
<svg width="99pt" height="95pt"
 viewBox="0.00 0.00 99.00 95.00" xmlns="http://www.w3.org/2000/svg" xmlns:xlink="http://www.w3.org/1999/xlink">
<g id="graph0" class="graph" transform="scale(1 1) rotate(0) translate(4 91)">
<title>IonoPP</title>
<!-- Node1 -->
<g id="Node000001" class="node">
<title>Node1</title>
<g id="a_Node000001"><a xlink:href="structIonoPP.html" target="_top" xlink:title=" ">
<path fill="white" stroke="#666666" stroke-width="2" d="M79,-87C79,-87 12,-87 12,-87 6,-87 0,-81 0,-75 0,-75 0,-12 0,-12 0,-6 6,0 12,0 12,0 79,0 79,0 85,0 91,-6 91,-12 91,-12 91,-75 91,-75 91,-81 85,-87 79,-87"/>
<text text-anchor="start" x="29" y="-70.5" font-family="Helvetica,sans-Serif" font-size="10.00">IonoPP</text>
<text text-anchor="start" x="12.5" y="-55.5" font-family="Helvetica,sans-Serif" font-size="10.00">+</text>
<text text-anchor="start" x="25.5" y="-55.5" font-family="Helvetica,sans-Serif" font-size="10.00">latDeg</text>
<text text-anchor="start" x="12.5" y="-40.5" font-family="Helvetica,sans-Serif" font-size="10.00">+</text>
<text text-anchor="start" x="25.5" y="-40.5" font-family="Helvetica,sans-Serif" font-size="10.00">lonDeg</text>
<text text-anchor="start" x="12.5" y="-25.5" font-family="Helvetica,sans-Serif" font-size="10.00">+</text>
<text text-anchor="start" x="25.5" y="-25.5" font-family="Helvetica,sans-Serif" font-size="10.00">slantFactor</text>
<text text-anchor="start" x="44" y="-10.5" font-family="Helvetica,sans-Serif" font-size="10.00"> </text>
<polygon fill="#666666" stroke="#666666" points="8.5,-65.5 8.5,-65.5 83.5,-65.5 83.5,-65.5 8.5,-65.5"/>
<polygon fill="#666666" stroke="#666666" points="8.5,-20.5 8.5,-20.5 23.5,-20.5 23.5,-20.5 8.5,-20.5"/>
<polygon fill="#666666" stroke="#666666" points="23.5,-20.5 23.5,-20.5 83.5,-20.5 83.5,-20.5 23.5,-20.5"/>
<polygon fill="none" stroke="#666666" points="8,-4 8,-83 83,-83 83,-4 8,-4"/>
</a>
</g>
</g>
</g>
</svg>
