<?xml version="1.0" encoding="UTF-8" standalone="no"?>
<!DOCTYPE svg PUBLIC "-//W3C//DTD SVG 1.1//EN"
 "http://www.w3.org/Graphics/SVG/1.1/DTD/svg11.dtd">
<!-- Generated by graphviz version 2.43.0 (0)
 -->
<!-- Title: FileStream Pages: 1 -->
<svg width="126pt" height="233pt"
 viewBox="0.00 0.00 126.00 233.00" xmlns="http://www.w3.org/2000/svg" xmlns:xlink="http://www.w3.org/1999/xlink">
<g id="graph0" class="graph" transform="scale(1 1) rotate(0) translate(4 229)">
<title>FileStream</title>
<!-- Node1 -->
<g id="Node000001" class="node">
<title>Node1</title>
<g id="a_Node000001"><a xlink:href="structFileStream.html" target="_top" xlink:title=" ">
<path fill="white" stroke="#666666" stroke-width="2" d="M106,-102C106,-102 12,-102 12,-102 6,-102 0,-96 0,-90 0,-90 0,-12 0,-12 0,-6 6,0 12,0 12,0 106,0 106,0 112,0 118,-6 118,-12 118,-12 118,-90 118,-90 118,-96 112,-102 106,-102"/>
<text text-anchor="start" x="32.5" y="-86" font-family="Helvetica,sans-Serif" font-size="10.00">FileStream</text>
<text text-anchor="start" x="12" y="-71" font-family="Helvetica,sans-Serif" font-size="10.00">+</text>
<text text-anchor="start" x="25" y="-71" font-family="Helvetica,sans-Serif" font-size="10.00">path</text>
<text text-anchor="start" x="12" y="-56" font-family="Helvetica,sans-Serif" font-size="10.00">+</text>
<text text-anchor="start" x="25" y="-56" font-family="Helvetica,sans-Serif" font-size="10.00">filePos</text>
<text text-anchor="start" x="12" y="-41" font-family="Helvetica,sans-Serif" font-size="10.00">+</text>
<text text-anchor="start" x="25" y="-41" font-family="Helvetica,sans-Serif" font-size="10.00">FileStream()</text>
<text text-anchor="start" x="12" y="-26" font-family="Helvetica,sans-Serif" font-size="10.00">+</text>
<text text-anchor="start" x="25" y="-26" font-family="Helvetica,sans-Serif" font-size="10.00">getIStream_ptr()</text>
<text text-anchor="start" x="12" y="-11" font-family="Helvetica,sans-Serif" font-size="10.00">+</text>
<text text-anchor="start" x="25" y="-11" font-family="Helvetica,sans-Serif" font-size="10.00">isDead()</text>
<polygon fill="#666666" stroke="#666666" points="8,-81 8,-81 110,-81 110,-81 8,-81"/>
<polygon fill="#666666" stroke="#666666" points="8,-51 8,-51 23,-51 23,-51 8,-51"/>
<polygon fill="#666666" stroke="#666666" points="23,-51 23,-51 110,-51 110,-51 23,-51"/>
<polygon fill="none" stroke="#666666" points="8,-4 8,-98 110,-98 110,-4 8,-4"/>
</a>
</g>
</g>
<!-- Node2 -->
<g id="Node000002" class="node">
<title>Node2</title>
<g id="a_Node000002"><a xlink:href="structStream.html" target="_top" xlink:title=" ">
<path fill="white" stroke="#666666" d="M106,-225C106,-225 12,-225 12,-225 6,-225 0,-219 0,-213 0,-213 0,-150 0,-150 0,-144 6,-138 12,-138 12,-138 106,-138 106,-138 112,-138 118,-144 118,-150 118,-150 118,-213 118,-213 118,-219 112,-225 106,-225"/>
<text text-anchor="start" x="41" y="-208.5" font-family="Helvetica,sans-Serif" font-size="10.00">Stream</text>
<text text-anchor="start" x="12" y="-193.5" font-family="Helvetica,sans-Serif" font-size="10.00">+</text>
<text text-anchor="start" x="25" y="-193.5" font-family="Helvetica,sans-Serif" font-size="10.00">sourceString</text>
<text text-anchor="start" x="12" y="-178.5" font-family="Helvetica,sans-Serif" font-size="10.00">+</text>
<text text-anchor="start" x="25" y="-178.5" font-family="Helvetica,sans-Serif" font-size="10.00">getIStream_ptr()</text>
<text text-anchor="start" x="12" y="-163.5" font-family="Helvetica,sans-Serif" font-size="10.00">+</text>
<text text-anchor="start" x="25" y="-163.5" font-family="Helvetica,sans-Serif" font-size="10.00">isDead()</text>
<text text-anchor="start" x="12" y="-148.5" font-family="Helvetica,sans-Serif" font-size="10.00">+</text>
<text text-anchor="start" x="25" y="-148.5" font-family="Helvetica,sans-Serif" font-size="10.00">~Stream()</text>
<polygon fill="#666666" stroke="#666666" points="8,-203.5 8,-203.5 110,-203.5 110,-203.5 8,-203.5"/>
<polygon fill="#666666" stroke="#666666" points="8,-188.5 8,-188.5 23,-188.5 23,-188.5 8,-188.5"/>
<polygon fill="#666666" stroke="#666666" points="23,-188.5 23,-188.5 110,-188.5 110,-188.5 23,-188.5"/>
<polygon fill="none" stroke="#666666" points="8,-142 8,-221 110,-221 110,-142 8,-142"/>
</a>
</g>
</g>
<!-- Node2&#45;&gt;Node1 -->
<g id="edge1_Node000001_Node000002" class="edge">
<title>Node2&#45;&gt;Node1</title>
<g id="a_edge1_Node000001_Node000002"><a xlink:title=" ">
<path fill="none" stroke="#63b8ff" d="M59,-127.62C59,-119.2 59,-110.52 59,-102.17"/>
<polygon fill="none" stroke="#63b8ff" points="55.5,-127.71 59,-137.71 62.5,-127.71 55.5,-127.71"/>
</a>
</g>
</g>
</g>
</svg>
