<?xml version="1.0" encoding="UTF-8" standalone="no"?>
<!DOCTYPE svg PUBLIC "-//W3C//DTD SVG 1.1//EN"
 "http://www.w3.org/Graphics/SVG/1.1/DTD/svg11.dtd">
<!-- Generated by graphviz version 2.43.0 (0)
 -->
<!-- Title: MjDateUt1::to_j2000 Pages: 1 -->
<svg width="244pt" height="27pt"
 viewBox="0.00 0.00 244.00 27.00" xmlns="http://www.w3.org/2000/svg" xmlns:xlink="http://www.w3.org/1999/xlink">
<g id="graph0" class="graph" transform="scale(1 1) rotate(0) translate(4 23)">
<title>MjDateUt1::to_j2000</title>
<!-- Node1 -->
<g id="Node000001" class="node">
<title>Node1</title>
<g id="a_Node000001"><a xlink:href="structMjDateUt1.html#a8bb1cb01c154aebcd2ab809b8ffb00ed" target="_top" xlink:title=" ">
<path fill="#fff0f0" stroke="red" stroke-width="2" d="M229.67,-19C229.67,-19 125.33,-19 125.33,-19 122.17,-19 119,-15.83 119,-12.67 119,-12.67 119,-6.33 119,-6.33 119,-3.17 122.17,0 125.33,0 125.33,0 229.67,0 229.67,0 232.83,0 236,-3.17 236,-6.33 236,-6.33 236,-12.67 236,-12.67 236,-15.83 232.83,-19 229.67,-19"/>
<text text-anchor="middle" x="177.5" y="-7" font-family="Helvetica,sans-Serif" font-size="10.00">MjDateUt1::to_j2000</text>
</a>
</g>
</g>
<!-- Node2 -->
<g id="Node000002" class="node">
<title>Node2</title>
<g id="a_Node000002"><a xlink:href="tides_8cpp.html#a355b2b8163e37996af1622c2780315c8" target="_top" xlink:title="IERS mean pole See ref [2.2] eq.21 Eugene: This function will be gone in the future as IERS2010::mean...">
<path fill="#fff0f0" stroke="red" d="M76.67,-19C76.67,-19 6.33,-19 6.33,-19 3.17,-19 0,-15.83 0,-12.67 0,-12.67 0,-6.33 0,-6.33 0,-3.17 3.17,0 6.33,0 6.33,0 76.67,0 76.67,0 79.83,0 83,-3.17 83,-6.33 83,-6.33 83,-12.67 83,-12.67 83,-15.83 79.83,-19 76.67,-19"/>
<text text-anchor="middle" x="41.5" y="-7" font-family="Helvetica,sans-Serif" font-size="10.00">iersMeanPole</text>
</a>
</g>
</g>
<!-- Node1&#45;&gt;Node2 -->
<g id="edge1_Node000001_Node000002" class="edge">
<title>Node1&#45;&gt;Node2</title>
<g id="a_edge1_Node000001_Node000002"><a xlink:title=" ">
<path fill="none" stroke="#63b8ff" d="M108.66,-9.5C99.91,-9.5 91.19,-9.5 83.08,-9.5"/>
<polygon fill="#63b8ff" stroke="#63b8ff" points="108.89,-13 118.89,-9.5 108.89,-6 108.89,-13"/>
</a>
</g>
</g>
</g>
</svg>
