<?xml version="1.0" encoding="UTF-8" standalone="no"?>
<!DOCTYPE svg PUBLIC "-//W3C//DTD SVG 1.1//EN"
 "http://www.w3.org/Graphics/SVG/1.1/DTD/svg11.dtd">
<!-- Generated by graphviz version 2.43.0 (0)
 -->
<!-- Title: KFState::outputStates Pages: 1 -->
<svg width="659pt" height="591pt"
 viewBox="0.00 0.00 659.00 591.00" xmlns="http://www.w3.org/2000/svg" xmlns:xlink="http://www.w3.org/1999/xlink">
<g id="graph0" class="graph" transform="scale(1 1) rotate(0) translate(4 587)">
<title>KFState::outputStates</title>
<!-- Node1 -->
<g id="Node000001" class="node">
<title>Node1</title>
<g id="a_Node000001"><a xlink:href="structKFState.html#a0c84e911a5ea760fe728baec661e33f0" target="_top" xlink:title="Output keys and states in human readable format.">
<path fill="#fff0f0" stroke="red" stroke-width="2" d="M644.67,-302C644.67,-302 535.33,-302 535.33,-302 532.17,-302 529,-298.83 529,-295.67 529,-295.67 529,-289.33 529,-289.33 529,-286.17 532.17,-283 535.33,-283 535.33,-283 644.67,-283 644.67,-283 647.83,-283 651,-286.17 651,-289.33 651,-289.33 651,-295.67 651,-295.67 651,-298.83 647.83,-302 644.67,-302"/>
<text text-anchor="middle" x="590" y="-290" font-family="Helvetica,sans-Serif" font-size="10.00">KFState::outputStates</text>
</a>
</g>
</g>
<!-- Node2 -->
<g id="Node000002" class="node">
<title>Node2</title>
<g id="a_Node000002"><a xlink:href="debug_8cpp.html#ae4e8d5c9ae89428a527a780093a3d872" target="_top" xlink:title=" ">
<path fill="#fff0f0" stroke="red" d="M432.67,-583C432.67,-583 403.33,-583 403.33,-583 400.17,-583 397,-579.83 397,-576.67 397,-576.67 397,-570.33 397,-570.33 397,-567.17 400.17,-564 403.33,-564 403.33,-564 432.67,-564 432.67,-564 435.83,-564 439,-567.17 439,-570.33 439,-570.33 439,-576.67 439,-576.67 439,-579.83 435.83,-583 432.67,-583"/>
<text text-anchor="middle" x="418" y="-571" font-family="Helvetica,sans-Serif" font-size="10.00">accel</text>
</a>
</g>
</g>
<!-- Node1&#45;&gt;Node2 -->
<g id="edge1_Node000001_Node000002" class="edge">
<title>Node1&#45;&gt;Node2</title>
<g id="a_edge1_Node000001_Node000002"><a xlink:title=" ">
<path fill="none" stroke="#63b8ff" d="M587.88,-312.37C584.01,-361.47 566.96,-489.35 493,-555.5 478.32,-568.63 455.66,-572.58 439.28,-573.58"/>
<polygon fill="#63b8ff" stroke="#63b8ff" points="591.39,-312.36 588.58,-302.15 584.41,-311.89 591.39,-312.36"/>
</a>
</g>
</g>
<!-- Node3 -->
<g id="Node000003" class="node">
<title>Node3</title>
<g id="a_Node000003"><a xlink:href="ppp__ambres_8cpp.html#ad41d635b049a650ddbe2f7e13d29e85b" target="_top" xlink:title=" ">
<path fill="#fff0f0" stroke="red" d="M486.67,-546C486.67,-546 349.33,-546 349.33,-546 346.17,-546 343,-542.83 343,-539.67 343,-539.67 343,-533.33 343,-533.33 343,-530.17 346.17,-527 349.33,-527 349.33,-527 486.67,-527 486.67,-527 489.83,-527 493,-530.17 493,-533.33 493,-533.33 493,-539.67 493,-539.67 493,-542.83 489.83,-546 486.67,-546"/>
<text text-anchor="middle" x="418" y="-534" font-family="Helvetica,sans-Serif" font-size="10.00">applyBestIntegerAmbiguity</text>
</a>
</g>
</g>
<!-- Node1&#45;&gt;Node3 -->
<g id="edge2_Node000001_Node000003" class="edge">
<title>Node1&#45;&gt;Node3</title>
<g id="a_edge2_Node000001_Node000003"><a xlink:title=" ">
<path fill="none" stroke="#63b8ff" d="M586.52,-312.54C579.95,-356.82 557.87,-463.43 493,-518.5 488.97,-521.92 484.39,-524.72 479.53,-526.99"/>
<polygon fill="#63b8ff" stroke="#63b8ff" points="590.01,-312.85 587.9,-302.47 583.08,-311.9 590.01,-312.85"/>
</a>
</g>
</g>
<!-- Node12 -->
<g id="Node000012" class="node">
<title>Node12</title>
<g id="a_Node000012"><a xlink:href="ppp__ambres_8cpp.html#a604fb46557eb8261b38abf76fb147433" target="_top" xlink:title=" ">
<path fill="#fff0f0" stroke="red" d="M469.67,-509C469.67,-509 366.33,-509 366.33,-509 363.17,-509 360,-505.83 360,-502.67 360,-502.67 360,-496.33 360,-496.33 360,-493.17 363.17,-490 366.33,-490 366.33,-490 469.67,-490 469.67,-490 472.83,-490 476,-493.17 476,-496.33 476,-496.33 476,-502.67 476,-502.67 476,-505.83 472.83,-509 469.67,-509"/>
<text text-anchor="middle" x="418" y="-497" font-family="Helvetica,sans-Serif" font-size="10.00">applyUCAmbiguities</text>
</a>
</g>
</g>
<!-- Node1&#45;&gt;Node12 -->
<g id="edge3_Node000001_Node000012" class="edge">
<title>Node1&#45;&gt;Node12</title>
<g id="a_edge3_Node000001_Node000012"><a xlink:title=" ">
<path fill="none" stroke="#63b8ff" d="M584.8,-312.13C575.45,-350.81 549.2,-437 493,-481.5 488.02,-485.44 482.31,-488.53 476.32,-490.96"/>
<polygon fill="#63b8ff" stroke="#63b8ff" points="588.26,-312.67 587.08,-302.14 581.44,-311.11 588.26,-312.67"/>
</a>
</g>
</g>
<!-- Node13 -->
<g id="Node000013" class="node">
<title>Node13</title>
<g id="a_Node000013"><a xlink:href="ionoModel_8cpp.html#ae7821a74f98f349d4508712aeced88e1" target="_top" xlink:title="Updating the ionosphere model parameters The ionosphere model should be initialized by calling &#39;confi...">
<path fill="#fff0f0" stroke="red" d="M458.17,-472C458.17,-472 377.83,-472 377.83,-472 374.67,-472 371.5,-468.83 371.5,-465.67 371.5,-465.67 371.5,-459.33 371.5,-459.33 371.5,-456.17 374.67,-453 377.83,-453 377.83,-453 458.17,-453 458.17,-453 461.33,-453 464.5,-456.17 464.5,-459.33 464.5,-459.33 464.5,-465.67 464.5,-465.67 464.5,-468.83 461.33,-472 458.17,-472"/>
<text text-anchor="middle" x="418" y="-460" font-family="Helvetica,sans-Serif" font-size="10.00">filterIonosphere</text>
</a>
</g>
</g>
<!-- Node1&#45;&gt;Node13 -->
<g id="edge4_Node000001_Node000013" class="edge">
<title>Node1&#45;&gt;Node13</title>
<g id="a_edge4_Node000001_Node000013"><a xlink:title=" ">
<path fill="none" stroke="#63b8ff" d="M582.32,-311.85C570.02,-344.49 540.59,-410.3 493,-444.5 484.73,-450.44 474.74,-454.44 464.82,-457.12"/>
<polygon fill="#63b8ff" stroke="#63b8ff" points="585.72,-312.73 585.84,-302.14 579.14,-310.35 585.72,-312.73"/>
</a>
</g>
</g>
<!-- Node5 -->
<g id="Node000005" class="node">
<title>Node5</title>
<g id="a_Node000005"><a xlink:href="main_8cpp.html#a712043e1e94db2f9f7c1022f2bc006e2" target="_top" xlink:title=" ">
<path fill="#fff0f0" stroke="red" d="M297,-359.5C297,-359.5 157,-359.5 157,-359.5 152,-359.5 147,-354.5 147,-349.5 147,-349.5 147,-339.5 147,-339.5 147,-334.5 152,-329.5 157,-329.5 157,-329.5 297,-329.5 297,-329.5 302,-329.5 307,-334.5 307,-339.5 307,-339.5 307,-349.5 307,-349.5 307,-354.5 302,-359.5 297,-359.5"/>
<text text-anchor="start" x="155" y="-347.5" font-family="Helvetica,sans-Serif" font-size="10.00">mainPerEpochPostProcessing</text>
<text text-anchor="middle" x="227" y="-336.5" font-family="Helvetica,sans-Serif" font-size="10.00">AndOutputs</text>
</a>
</g>
</g>
<!-- Node1&#45;&gt;Node5 -->
<g id="edge9_Node000001_Node000005" class="edge">
<title>Node1&#45;&gt;Node5</title>
<g id="a_edge9_Node000001_Node000005"><a xlink:title=" ">
<path fill="none" stroke="#63b8ff" d="M527.76,-303.76C516.23,-305.76 504.26,-307.76 493,-309.5 430.74,-319.12 360,-328.38 307.27,-334.95"/>
<polygon fill="#63b8ff" stroke="#63b8ff" points="528.51,-307.18 537.75,-302 527.3,-300.29 528.51,-307.18"/>
</a>
</g>
</g>
<!-- Node6 -->
<g id="Node000006" class="node">
<title>Node6</title>
<g id="a_Node000006"><a xlink:href="main_8cpp.html#a479f892b35943104163405de9a93be14" target="_top" xlink:title=" ">
<path fill="#fff0f0" stroke="red" d="M104.67,-354C104.67,-354 6.33,-354 6.33,-354 3.17,-354 0,-350.83 0,-347.67 0,-347.67 0,-341.33 0,-341.33 0,-338.17 3.17,-335 6.33,-335 6.33,-335 104.67,-335 104.67,-335 107.83,-335 111,-338.17 111,-341.33 111,-341.33 111,-347.67 111,-347.67 111,-350.83 107.83,-354 104.67,-354"/>
<text text-anchor="middle" x="55.5" y="-342" font-family="Helvetica,sans-Serif" font-size="10.00">mainOncePerEpoch</text>
</a>
</g>
</g>
<!-- Node1&#45;&gt;Node6 -->
<g id="edge8_Node000001_Node000006" class="edge">
<title>Node1&#45;&gt;Node6</title>
<g id="a_edge8_Node000001_Node000006"><a xlink:title=" ">
<path fill="none" stroke="#63b8ff" d="M560.79,-306.48C541.98,-315.31 516.48,-326.37 493,-333.5 345.11,-378.41 300.27,-388.48 147,-368.5 125.88,-365.75 102.68,-359.53 85.06,-354.11"/>
<polygon fill="#63b8ff" stroke="#63b8ff" points="562.46,-309.56 569.97,-302.09 559.44,-303.24 562.46,-309.56"/>
</a>
</g>
</g>
<!-- Node14 -->
<g id="Node000014" class="node">
<title>Node14</title>
<g id="a_Node000014"><a xlink:href="debug_8cpp.html#a6b386ae3f1e24bab3a4c831fa043a400" target="_top" xlink:title=" ">
<path fill="#fff0f0" stroke="red" d="M446.67,-435C446.67,-435 389.33,-435 389.33,-435 386.17,-435 383,-431.83 383,-428.67 383,-428.67 383,-422.33 383,-422.33 383,-419.17 386.17,-416 389.33,-416 389.33,-416 446.67,-416 446.67,-416 449.83,-416 453,-419.17 453,-422.33 453,-422.33 453,-428.67 453,-428.67 453,-431.83 449.83,-435 446.67,-435"/>
<text text-anchor="middle" x="418" y="-423" font-family="Helvetica,sans-Serif" font-size="10.00">infiniteTest</text>
</a>
</g>
</g>
<!-- Node1&#45;&gt;Node14 -->
<g id="edge7_Node000001_Node000014" class="edge">
<title>Node1&#45;&gt;Node14</title>
<g id="a_edge7_Node000001_Node000014"><a xlink:title=" ">
<path fill="none" stroke="#63b8ff" d="M577.51,-310.77C561.44,-334.91 530.03,-377.18 493,-401.5 481.03,-409.36 466.29,-414.83 453.12,-418.53"/>
<polygon fill="#63b8ff" stroke="#63b8ff" points="580.57,-312.5 583.08,-302.21 574.7,-308.69 580.57,-312.5"/>
</a>
</g>
</g>
<!-- Node9 -->
<g id="Node000009" class="node">
<title>Node9</title>
<g id="a_Node000009"><a xlink:href="main_8cpp.html#a2b0d1066eac1a878cf982adcdd550ce1" target="_top" xlink:title="Perform any post&#45;final epoch calculations and outputs, then begin reverse smoothing and tidy up.">
<path fill="#fff0f0" stroke="red" d="M278.17,-310C278.17,-310 175.83,-310 175.83,-310 172.67,-310 169.5,-306.83 169.5,-303.67 169.5,-303.67 169.5,-297.33 169.5,-297.33 169.5,-294.17 172.67,-291 175.83,-291 175.83,-291 278.17,-291 278.17,-291 281.33,-291 284.5,-294.17 284.5,-297.33 284.5,-297.33 284.5,-303.67 284.5,-303.67 284.5,-306.83 281.33,-310 278.17,-310"/>
<text text-anchor="middle" x="227" y="-298" font-family="Helvetica,sans-Serif" font-size="10.00">mainPostProcessing</text>
</a>
</g>
</g>
<!-- Node1&#45;&gt;Node9 -->
<g id="edge10_Node000001_Node000009" class="edge">
<title>Node1&#45;&gt;Node9</title>
<g id="a_edge10_Node000001_Node000009"><a xlink:title=" ">
<path fill="none" stroke="#63b8ff" d="M518.74,-294.06C450.39,-295.57 347.86,-297.84 284.59,-299.25"/>
<polygon fill="#63b8ff" stroke="#63b8ff" points="519.06,-297.55 528.98,-293.83 518.91,-290.55 519.06,-297.55"/>
</a>
</g>
</g>
<!-- Node15 -->
<g id="Node000015" class="node">
<title>Node15</title>
<g id="a_Node000015"><a xlink:href="minimumConstraints_8cpp.html#aa40934b017f373d875c3470591eff52e" target="_top" xlink:title=" ">
<path fill="#fff0f0" stroke="red" d="M438.17,-283C438.17,-283 397.83,-283 397.83,-283 394.67,-283 391.5,-279.83 391.5,-276.67 391.5,-276.67 391.5,-270.33 391.5,-270.33 391.5,-267.17 394.67,-264 397.83,-264 397.83,-264 438.17,-264 438.17,-264 441.33,-264 444.5,-267.17 444.5,-270.33 444.5,-270.33 444.5,-276.67 444.5,-276.67 444.5,-279.83 441.33,-283 438.17,-283"/>
<text text-anchor="middle" x="418" y="-271" font-family="Helvetica,sans-Serif" font-size="10.00">mincon</text>
</a>
</g>
</g>
<!-- Node1&#45;&gt;Node15 -->
<g id="edge11_Node000001_Node000015" class="edge">
<title>Node1&#45;&gt;Node15</title>
<g id="a_edge11_Node000001_Node000015"><a xlink:title=" ">
<path fill="none" stroke="#63b8ff" d="M518.31,-284.6C492.19,-281.68 464.22,-278.55 444.64,-276.37"/>
<polygon fill="#63b8ff" stroke="#63b8ff" points="518.26,-288.12 528.59,-285.75 519.04,-281.16 518.26,-288.12"/>
</a>
</g>
</g>
<!-- Node18 -->
<g id="Node000018" class="node">
<title>Node18</title>
<g id="a_Node000018"><a xlink:href="minimumConstraints_8cpp.html#aeb8c374e79e38289a66b8b65d6574141" target="_top" xlink:title=" ">
<path fill="#fff0f0" stroke="red" d="M258.17,-271C258.17,-271 195.83,-271 195.83,-271 192.67,-271 189.5,-267.83 189.5,-264.67 189.5,-264.67 189.5,-258.33 189.5,-258.33 189.5,-255.17 192.67,-252 195.83,-252 195.83,-252 258.17,-252 258.17,-252 261.33,-252 264.5,-255.17 264.5,-258.33 264.5,-258.33 264.5,-264.67 264.5,-264.67 264.5,-267.83 261.33,-271 258.17,-271"/>
<text text-anchor="middle" x="227" y="-259" font-family="Helvetica,sans-Serif" font-size="10.00">minconOnly</text>
</a>
</g>
</g>
<!-- Node1&#45;&gt;Node18 -->
<g id="edge17_Node000001_Node000018" class="edge">
<title>Node1&#45;&gt;Node18</title>
<g id="a_edge17_Node000001_Node000018"><a xlink:title=" ">
<path fill="none" stroke="#63b8ff" d="M561.34,-278.71C542.58,-270.15 516.93,-259.95 493,-255.5 412.69,-240.56 316.35,-249.22 264.82,-255.94"/>
<polygon fill="#63b8ff" stroke="#63b8ff" points="559.94,-281.92 570.48,-283 562.91,-275.58 559.94,-281.92"/>
</a>
</g>
</g>
<!-- Node19 -->
<g id="Node000019" class="node">
<title>Node19</title>
<g id="a_Node000019"><a xlink:href="debug_8cpp.html#a80d24c0bf09dad23394c5fcac25aa80b" target="_top" xlink:title=" ">
<path fill="#fff0f0" stroke="red" d="M262.17,-230C262.17,-230 191.83,-230 191.83,-230 188.67,-230 185.5,-226.83 185.5,-223.67 185.5,-223.67 185.5,-217.33 185.5,-217.33 185.5,-214.17 188.67,-211 191.83,-211 191.83,-211 262.17,-211 262.17,-211 265.33,-211 268.5,-214.17 268.5,-217.33 268.5,-217.33 268.5,-223.67 268.5,-223.67 268.5,-226.83 265.33,-230 262.17,-230"/>
<text text-anchor="middle" x="227" y="-218" font-family="Helvetica,sans-Serif" font-size="10.00">minimumTest</text>
</a>
</g>
</g>
<!-- Node1&#45;&gt;Node19 -->
<g id="edge18_Node000001_Node000019" class="edge">
<title>Node1&#45;&gt;Node19</title>
<g id="a_edge18_Node000001_Node000019"><a xlink:title=" ">
<path fill="none" stroke="#63b8ff" d="M566.68,-277.6C547.88,-265.87 519.84,-250.26 493,-242.5 416.06,-220.25 321.69,-218.05 268.85,-218.95"/>
<polygon fill="#63b8ff" stroke="#63b8ff" points="564.81,-280.55 575.12,-282.99 568.58,-274.65 564.81,-280.55"/>
</a>
</g>
</g>
<!-- Node10 -->
<g id="Node000010" class="node">
<title>Node10</title>
<g id="a_Node000010"><a xlink:href="rtsSmoothing_8cpp.html#a65cd5f94ab58227ab032b1e894ca3987" target="_top" xlink:title=" ">
<path fill="#fff0f0" stroke="red" d="M266.67,-185C266.67,-185 187.33,-185 187.33,-185 184.17,-185 181,-181.83 181,-178.67 181,-178.67 181,-172.33 181,-172.33 181,-169.17 184.17,-166 187.33,-166 187.33,-166 266.67,-166 266.67,-166 269.83,-166 273,-169.17 273,-172.33 273,-172.33 273,-178.67 273,-178.67 273,-181.83 269.83,-185 266.67,-185"/>
<text text-anchor="middle" x="227" y="-173" font-family="Helvetica,sans-Serif" font-size="10.00">postRTSActions</text>
</a>
</g>
</g>
<!-- Node1&#45;&gt;Node10 -->
<g id="edge19_Node000001_Node000010" class="edge">
<title>Node1&#45;&gt;Node10</title>
<g id="a_edge19_Node000001_Node000010"><a xlink:title=" ">
<path fill="none" stroke="#63b8ff" d="M573.12,-275.23C555.43,-257.17 525.07,-229.55 493,-215.5 420.55,-183.76 327.46,-176.54 273.1,-175.26"/>
<polygon fill="#63b8ff" stroke="#63b8ff" points="570.88,-277.95 580.32,-282.77 575.94,-273.12 570.88,-277.95"/>
</a>
</g>
</g>
<!-- Node21 -->
<g id="Node000021" class="node">
<title>Node21</title>
<g id="a_Node000021"><a xlink:href="ppppp_8cpp.html#a9997f03cab80cd8db895650860eb025e" target="_top" xlink:title=" ">
<path fill="#fff0f0" stroke="red" d="M238.17,-132C238.17,-132 215.83,-132 215.83,-132 212.67,-132 209.5,-128.83 209.5,-125.67 209.5,-125.67 209.5,-119.33 209.5,-119.33 209.5,-116.17 212.67,-113 215.83,-113 215.83,-113 238.17,-113 238.17,-113 241.33,-113 244.5,-116.17 244.5,-119.33 244.5,-119.33 244.5,-125.67 244.5,-125.67 244.5,-128.83 241.33,-132 238.17,-132"/>
<text text-anchor="middle" x="227" y="-120" font-family="Helvetica,sans-Serif" font-size="10.00">ppp</text>
</a>
</g>
</g>
<!-- Node1&#45;&gt;Node21 -->
<g id="edge20_Node000001_Node000021" class="edge">
<title>Node1&#45;&gt;Node21</title>
<g id="a_edge20_Node000001_Node000021"><a xlink:title=" ">
<path fill="none" stroke="#63b8ff" d="M579.09,-273.91C564.12,-247.75 533.15,-200.58 493,-176.5 409.85,-126.63 288.42,-122.08 244.57,-122.18"/>
<polygon fill="#63b8ff" stroke="#63b8ff" points="576.12,-275.77 584.03,-282.82 582.24,-272.38 576.12,-275.77"/>
</a>
</g>
</g>
<!-- Node22 -->
<g id="Node000022" class="node">
<title>Node22</title>
<g id="a_Node000022"><a xlink:href="spp_8cpp.html#a2ec47af9ec762fa7586a8309d413cf84" target="_top" xlink:title="Compute receiver position, velocity, clock bias by single&#45;point positioning with pseudorange observab...">
<path fill="#fff0f0" stroke="red" d="M428.67,-93C428.67,-93 407.33,-93 407.33,-93 404.17,-93 401,-89.83 401,-86.67 401,-86.67 401,-80.33 401,-80.33 401,-77.17 404.17,-74 407.33,-74 407.33,-74 428.67,-74 428.67,-74 431.83,-74 435,-77.17 435,-80.33 435,-80.33 435,-86.67 435,-86.67 435,-89.83 431.83,-93 428.67,-93"/>
<text text-anchor="middle" x="418" y="-81" font-family="Helvetica,sans-Serif" font-size="10.00">spp</text>
</a>
</g>
</g>
<!-- Node1&#45;&gt;Node22 -->
<g id="edge22_Node000001_Node000022" class="edge">
<title>Node1&#45;&gt;Node22</title>
<g id="a_edge22_Node000001_Node000022"><a xlink:title=" ">
<path fill="none" stroke="#63b8ff" d="M584.24,-273.11C574.04,-235.6 546.52,-152.85 493,-107.5 476.41,-93.44 451.42,-87.58 435.15,-85.16"/>
<polygon fill="#63b8ff" stroke="#63b8ff" points="580.86,-274.01 586.76,-282.81 587.63,-272.25 580.86,-274.01"/>
</a>
</g>
</g>
<!-- Node25 -->
<g id="Node000025" class="node">
<title>Node25</title>
<g id="a_Node000025"><a xlink:href="walkthrough_8cpp.html#af3e41749378ce9de79e7bdb41df88419" target="_top" xlink:title="Ginan kalman filter basics The basic structure for kalman filtering in ginan is the KFState struct,...">
<path fill="#fff0f0" stroke="red" d="M453.17,-56C453.17,-56 382.83,-56 382.83,-56 379.67,-56 376.5,-52.83 376.5,-49.67 376.5,-49.67 376.5,-43.33 376.5,-43.33 376.5,-40.17 379.67,-37 382.83,-37 382.83,-37 453.17,-37 453.17,-37 456.33,-37 459.5,-40.17 459.5,-43.33 459.5,-43.33 459.5,-49.67 459.5,-49.67 459.5,-52.83 456.33,-56 453.17,-56"/>
<text text-anchor="middle" x="418" y="-44" font-family="Helvetica,sans-Serif" font-size="10.00">walkthrough1</text>
</a>
</g>
</g>
<!-- Node1&#45;&gt;Node25 -->
<g id="edge23_Node000001_Node000025" class="edge">
<title>Node1&#45;&gt;Node25</title>
<g id="a_edge23_Node000001_Node000025"><a xlink:title=" ">
<path fill="none" stroke="#63b8ff" d="M586.67,-272.9C580.32,-228.61 558.57,-120.34 493,-64.5 483.74,-56.61 471.58,-52.07 459.8,-49.49"/>
<polygon fill="#63b8ff" stroke="#63b8ff" points="583.21,-273.48 587.99,-282.93 590.15,-272.56 583.21,-273.48"/>
</a>
</g>
</g>
<!-- Node27 -->
<g id="Node000027" class="node">
<title>Node27</title>
<g id="a_Node000027"><a xlink:href="walkthrough_8cpp.html#aff7ddc151473d418c066b30f06e6b42e" target="_top" xlink:title=" ">
<path fill="#fff0f0" stroke="red" d="M453.17,-19C453.17,-19 382.83,-19 382.83,-19 379.67,-19 376.5,-15.83 376.5,-12.67 376.5,-12.67 376.5,-6.33 376.5,-6.33 376.5,-3.17 379.67,0 382.83,0 382.83,0 453.17,0 453.17,0 456.33,0 459.5,-3.17 459.5,-6.33 459.5,-6.33 459.5,-12.67 459.5,-12.67 459.5,-15.83 456.33,-19 453.17,-19"/>
<text text-anchor="middle" x="418" y="-7" font-family="Helvetica,sans-Serif" font-size="10.00">walkthrough2</text>
</a>
</g>
</g>
<!-- Node1&#45;&gt;Node27 -->
<g id="edge24_Node000001_Node000027" class="edge">
<title>Node1&#45;&gt;Node27</title>
<g id="a_edge24_Node000001_Node000027"><a xlink:title=" ">
<path fill="none" stroke="#63b8ff" d="M587.96,-272.8C584.25,-223.56 567.53,-94.32 493,-27.5 483.84,-19.29 471.58,-14.67 459.66,-12.12"/>
<polygon fill="#63b8ff" stroke="#63b8ff" points="584.46,-273.03 588.61,-282.78 591.45,-272.57 584.46,-273.03"/>
</a>
</g>
</g>
<!-- Node13&#45;&gt;Node5 -->
<g id="edge5_Node000013_Node000005" class="edge">
<title>Node13&#45;&gt;Node5</title>
<g id="a_edge5_Node000013_Node000005"><a xlink:title=" ">
<path fill="none" stroke="#63b8ff" d="M361.21,-452.01C354.91,-449.93 348.7,-447.45 343,-444.5 300.46,-422.51 260.59,-381.62 240.87,-359.56"/>
<polygon fill="#63b8ff" stroke="#63b8ff" points="360.57,-455.47 371.15,-454.96 362.56,-448.76 360.57,-455.47"/>
</a>
</g>
</g>
<!-- Node5&#45;&gt;Node6 -->
<g id="edge6_Node000005_Node000006" class="edge">
<title>Node5&#45;&gt;Node6</title>
<g id="a_edge6_Node000005_Node000006"><a xlink:title=" ">
<path fill="none" stroke="#63b8ff" d="M136.52,-344.5C127.84,-344.5 119.24,-344.5 111.06,-344.5"/>
<polygon fill="#63b8ff" stroke="#63b8ff" points="136.71,-348 146.71,-344.5 136.71,-341 136.71,-348"/>
</a>
</g>
</g>
<!-- Node15&#45;&gt;Node5 -->
<g id="edge12_Node000015_Node000005" class="edge">
<title>Node15&#45;&gt;Node5</title>
<g id="a_edge12_Node000015_Node000005"><a xlink:title=" ">
<path fill="none" stroke="#63b8ff" d="M386.29,-287.21C364.39,-296.78 334.14,-309.56 307,-319.5 297.68,-322.92 287.65,-326.31 277.96,-329.44"/>
<polygon fill="#63b8ff" stroke="#63b8ff" points="387.98,-290.29 395.73,-283.06 385.16,-283.88 387.98,-290.29"/>
</a>
</g>
</g>
<!-- Node15&#45;&gt;Node9 -->
<g id="edge13_Node000015_Node000009" class="edge">
<title>Node15&#45;&gt;Node9</title>
<g id="a_edge13_Node000015_Node000009"><a xlink:title=" ">
<path fill="none" stroke="#63b8ff" d="M380.88,-278.66C353.66,-282.55 315.81,-287.96 284.58,-292.42"/>
<polygon fill="#63b8ff" stroke="#63b8ff" points="381.71,-282.08 391.12,-277.2 380.72,-275.15 381.71,-282.08"/>
</a>
</g>
</g>
<!-- Node15&#45;&gt;Node18 -->
<g id="edge14_Node000015_Node000018" class="edge">
<title>Node15&#45;&gt;Node18</title>
<g id="a_edge14_Node000015_Node000018"><a xlink:title=" ">
<path fill="none" stroke="#63b8ff" d="M380.88,-271.21C347.49,-269.09 298.11,-265.95 264.58,-263.82"/>
<polygon fill="#63b8ff" stroke="#63b8ff" points="380.91,-274.72 391.12,-271.86 381.36,-267.73 380.91,-274.72"/>
</a>
</g>
</g>
<!-- Node15&#45;&gt;Node19 -->
<g id="edge15_Node000015_Node000019" class="edge">
<title>Node15&#45;&gt;Node19</title>
<g id="a_edge15_Node000015_Node000019"><a xlink:title=" ">
<path fill="none" stroke="#63b8ff" d="M381.09,-263.43C346.9,-253.84 295.81,-239.51 262.2,-230.09"/>
<polygon fill="#63b8ff" stroke="#63b8ff" points="380.54,-266.91 391.12,-266.24 382.43,-260.17 380.54,-266.91"/>
</a>
</g>
</g>
<!-- Node15&#45;&gt;Node10 -->
<g id="edge16_Node000015_Node000010" class="edge">
<title>Node15&#45;&gt;Node10</title>
<g id="a_edge16_Node000015_Node000010"><a xlink:title=" ">
<path fill="none" stroke="#63b8ff" d="M396.34,-257.97C374.88,-242.38 339.9,-218.44 307,-202.5 292.65,-195.55 276.05,-189.58 261.78,-185.04"/>
<polygon fill="#63b8ff" stroke="#63b8ff" points="394.27,-260.79 404.4,-263.9 398.42,-255.15 394.27,-260.79"/>
</a>
</g>
</g>
<!-- Node21&#45;&gt;Node6 -->
<g id="edge21_Node000021_Node000006" class="edge">
<title>Node21&#45;&gt;Node6</title>
<g id="a_edge21_Node000021_Node000006"><a xlink:title=" ">
<path fill="none" stroke="#63b8ff" d="M199.48,-128.76C182.72,-133.86 161.55,-142.55 147,-156.5 91.3,-209.89 65.64,-304.58 58.59,-334.89"/>
<polygon fill="#63b8ff" stroke="#63b8ff" points="200.56,-132.09 209.25,-126.03 198.68,-125.35 200.56,-132.09"/>
</a>
</g>
</g>
</g>
</svg>
