<?xml version="1.0" encoding="UTF-8" standalone="no"?>
<!DOCTYPE svg PUBLIC "-//W3C//DTD SVG 1.1//EN"
 "http://www.w3.org/Graphics/SVG/1.1/DTD/svg11.dtd">
<!-- Generated by graphviz version 2.43.0 (0)
 -->
<!-- Title: BspBasis Pages: 1 -->
<svg width="80pt" height="95pt"
 viewBox="0.00 0.00 80.00 95.00" xmlns="http://www.w3.org/2000/svg" xmlns:xlink="http://www.w3.org/1999/xlink">
<g id="graph0" class="graph" transform="scale(1 1) rotate(0) translate(4 91)">
<title>BspBasis</title>
<!-- Node1 -->
<g id="Node000001" class="node">
<title>Node1</title>
<g id="a_Node000001"><a xlink:href="structBspBasis.html" target="_top" xlink:title=" ">
<path fill="white" stroke="#666666" stroke-width="2" d="M60,-87C60,-87 12,-87 12,-87 6,-87 0,-81 0,-75 0,-75 0,-12 0,-12 0,-6 6,0 12,0 12,0 60,0 60,0 66,0 72,-6 72,-12 72,-12 72,-75 72,-75 72,-81 66,-87 60,-87"/>
<text text-anchor="start" x="13.5" y="-70.5" font-family="Helvetica,sans-Serif" font-size="10.00">BspBasis</text>
<text text-anchor="start" x="12" y="-55.5" font-family="Helvetica,sans-Serif" font-size="10.00">+</text>
<text text-anchor="start" x="25" y="-55.5" font-family="Helvetica,sans-Serif" font-size="10.00">ind</text>
<text text-anchor="start" x="12" y="-40.5" font-family="Helvetica,sans-Serif" font-size="10.00">+</text>
<text text-anchor="start" x="25" y="-40.5" font-family="Helvetica,sans-Serif" font-size="10.00">latDeg</text>
<text text-anchor="start" x="12" y="-25.5" font-family="Helvetica,sans-Serif" font-size="10.00">+</text>
<text text-anchor="start" x="25" y="-25.5" font-family="Helvetica,sans-Serif" font-size="10.00">lonDeg</text>
<text text-anchor="start" x="34" y="-10.5" font-family="Helvetica,sans-Serif" font-size="10.00"> </text>
<polygon fill="#666666" stroke="#666666" points="8,-65.5 8,-65.5 64,-65.5 64,-65.5 8,-65.5"/>
<polygon fill="#666666" stroke="#666666" points="8,-20.5 8,-20.5 23,-20.5 23,-20.5 8,-20.5"/>
<polygon fill="#666666" stroke="#666666" points="23,-20.5 23,-20.5 64,-20.5 64,-20.5 23,-20.5"/>
<polygon fill="none" stroke="#666666" points="8,-4 8,-83 64,-83 64,-4 8,-4"/>
</a>
</g>
</g>
</g>
</svg>
