<?xml version="1.0" encoding="UTF-8" standalone="no"?>
<!DOCTYPE svg PUBLIC "-//W3C//DTD SVG 1.1//EN"
 "http://www.w3.org/Graphics/SVG/1.1/DTD/svg11.dtd">
<!-- Generated by graphviz version 2.43.0 (0)
 -->
<!-- Title: Sig Pages: 1 -->
<svg width="103pt" height="308pt"
 viewBox="0.00 0.00 103.00 308.00" xmlns="http://www.w3.org/2000/svg" xmlns:xlink="http://www.w3.org/1999/xlink">
<g id="graph0" class="graph" transform="scale(1 1) rotate(0) translate(4 304)">
<title>Sig</title>
<!-- Node1 -->
<g id="Node000001" class="node">
<title>Node1</title>
<g id="a_Node000001"><a xlink:href="structSig.html" target="_top" xlink:title="Per signal data that is calculated from the raw signals.">
<path fill="white" stroke="#666666" stroke-width="2" d="M75,-117C75,-117 20,-117 20,-117 14,-117 8,-111 8,-105 8,-105 8,-12 8,-12 8,-6 14,0 20,0 20,0 75,0 75,0 81,0 87,-6 87,-12 87,-12 87,-105 87,-105 87,-111 81,-117 75,-117"/>
<text text-anchor="start" x="40" y="-100.5" font-family="Helvetica,sans-Serif" font-size="10.00">Sig</text>
<text text-anchor="start" x="20.5" y="-85.5" font-family="Helvetica,sans-Serif" font-size="10.00">+</text>
<text text-anchor="start" x="33.5" y="-85.5" font-family="Helvetica,sans-Serif" font-size="10.00">codeVar</text>
<text text-anchor="start" x="20.5" y="-70.5" font-family="Helvetica,sans-Serif" font-size="10.00">+</text>
<text text-anchor="start" x="33.5" y="-70.5" font-family="Helvetica,sans-Serif" font-size="10.00">phasVar</text>
<text text-anchor="start" x="20.5" y="-55.5" font-family="Helvetica,sans-Serif" font-size="10.00">+</text>
<text text-anchor="start" x="33.5" y="-55.5" font-family="Helvetica,sans-Serif" font-size="10.00">biases</text>
<text text-anchor="start" x="20.5" y="-40.5" font-family="Helvetica,sans-Serif" font-size="10.00">+</text>
<text text-anchor="start" x="33.5" y="-40.5" font-family="Helvetica,sans-Serif" font-size="10.00">biasVars</text>
<text text-anchor="start" x="20.5" y="-25.5" font-family="Helvetica,sans-Serif" font-size="10.00">+</text>
<text text-anchor="start" x="33.5" y="-25.5" font-family="Helvetica,sans-Serif" font-size="10.00">Sig()</text>
<text text-anchor="start" x="20.5" y="-10.5" font-family="Helvetica,sans-Serif" font-size="10.00">+</text>
<text text-anchor="start" x="33.5" y="-10.5" font-family="Helvetica,sans-Serif" font-size="10.00">Sig()</text>
<polygon fill="#666666" stroke="#666666" points="16.5,-95.5 16.5,-95.5 79.5,-95.5 79.5,-95.5 16.5,-95.5"/>
<polygon fill="#666666" stroke="#666666" points="16.5,-35.5 16.5,-35.5 31.5,-35.5 31.5,-35.5 16.5,-35.5"/>
<polygon fill="#666666" stroke="#666666" points="31.5,-35.5 31.5,-35.5 79.5,-35.5 79.5,-35.5 31.5,-35.5"/>
<polygon fill="none" stroke="#666666" points="16,-4 16,-113 79,-113 79,-4 16,-4"/>
</a>
</g>
</g>
<!-- Node2 -->
<g id="Node000002" class="node">
<title>Node2</title>
<g id="a_Node000002"><a xlink:href="structRawSig.html" target="_top" xlink:title="Raw observation data from a receiver for a single frequency.">
<path fill="white" stroke="#666666" d="M83,-300C83,-300 12,-300 12,-300 6,-300 0,-294 0,-288 0,-288 0,-165 0,-165 0,-159 6,-153 12,-153 12,-153 83,-153 83,-153 89,-153 95,-159 95,-165 95,-165 95,-288 95,-288 95,-294 89,-300 83,-300"/>
<text text-anchor="start" x="29.5" y="-283.5" font-family="Helvetica,sans-Serif" font-size="10.00">RawSig</text>
<text text-anchor="start" x="12.5" y="-268.5" font-family="Helvetica,sans-Serif" font-size="10.00">+</text>
<text text-anchor="start" x="25.5" y="-268.5" font-family="Helvetica,sans-Serif" font-size="10.00">code</text>
<text text-anchor="start" x="12.5" y="-253.5" font-family="Helvetica,sans-Serif" font-size="10.00">+</text>
<text text-anchor="start" x="25.5" y="-253.5" font-family="Helvetica,sans-Serif" font-size="10.00">L</text>
<text text-anchor="start" x="12.5" y="-238.5" font-family="Helvetica,sans-Serif" font-size="10.00">+</text>
<text text-anchor="start" x="25.5" y="-238.5" font-family="Helvetica,sans-Serif" font-size="10.00">P</text>
<text text-anchor="start" x="12.5" y="-223.5" font-family="Helvetica,sans-Serif" font-size="10.00">+</text>
<text text-anchor="start" x="25.5" y="-223.5" font-family="Helvetica,sans-Serif" font-size="10.00">D</text>
<text text-anchor="start" x="12.5" y="-208.5" font-family="Helvetica,sans-Serif" font-size="10.00">+</text>
<text text-anchor="start" x="25.5" y="-208.5" font-family="Helvetica,sans-Serif" font-size="10.00">LLI</text>
<text text-anchor="start" x="12.5" y="-193.5" font-family="Helvetica,sans-Serif" font-size="10.00">+</text>
<text text-anchor="start" x="25.5" y="-193.5" font-family="Helvetica,sans-Serif" font-size="10.00">snr</text>
<text text-anchor="start" x="12.5" y="-178.5" font-family="Helvetica,sans-Serif" font-size="10.00">+</text>
<text text-anchor="start" x="25.5" y="-178.5" font-family="Helvetica,sans-Serif" font-size="10.00">invalid</text>
<text text-anchor="start" x="12.5" y="-163.5" font-family="Helvetica,sans-Serif" font-size="10.00">+</text>
<text text-anchor="start" x="25.5" y="-163.5" font-family="Helvetica,sans-Serif" font-size="10.00">operator&lt;()</text>
<polygon fill="#666666" stroke="#666666" points="8.5,-278.5 8.5,-278.5 87.5,-278.5 87.5,-278.5 8.5,-278.5"/>
<polygon fill="#666666" stroke="#666666" points="8.5,-173.5 8.5,-173.5 23.5,-173.5 23.5,-173.5 8.5,-173.5"/>
<polygon fill="#666666" stroke="#666666" points="23.5,-173.5 23.5,-173.5 87.5,-173.5 87.5,-173.5 23.5,-173.5"/>
<polygon fill="none" stroke="#666666" points="8,-157 8,-296 87,-296 87,-157 8,-157"/>
</a>
</g>
</g>
<!-- Node2&#45;&gt;Node1 -->
<g id="edge1_Node000001_Node000002" class="edge">
<title>Node2&#45;&gt;Node1</title>
<g id="a_edge1_Node000001_Node000002"><a xlink:title=" ">
<path fill="none" stroke="#63b8ff" d="M47.5,-142.57C47.5,-133.94 47.5,-125.3 47.5,-117.04"/>
<polygon fill="none" stroke="#63b8ff" points="44,-142.69 47.5,-152.69 51,-142.69 44,-142.69"/>
</a>
</g>
</g>
</g>
</svg>
