<?xml version="1.0" encoding="UTF-8" standalone="no"?>
<!DOCTYPE svg PUBLIC "-//W3C//DTD SVG 1.1//EN"
 "http://www.w3.org/Graphics/SVG/1.1/DTD/svg11.dtd">
<!-- Generated by graphviz version 2.43.0 (0)
 -->
<!-- Title: SatSys::getId Pages: 1 -->
<svg width="219pt" height="27pt"
 viewBox="0.00 0.00 219.00 27.00" xmlns="http://www.w3.org/2000/svg" xmlns:xlink="http://www.w3.org/1999/xlink">
<g id="graph0" class="graph" transform="scale(1 1) rotate(0) translate(4 23)">
<title>SatSys::getId</title>
<!-- Node1 -->
<g id="Node000001" class="node">
<title>Node1</title>
<g id="a_Node000001"><a xlink:href="structSatSys.html#adbdf98ba1ef1f22b6aaed93916529513" target="_top" xlink:title=" ">
<path fill="#fff0f0" stroke="red" stroke-width="2" d="M73.67,-19C73.67,-19 6.33,-19 6.33,-19 3.17,-19 0,-15.83 0,-12.67 0,-12.67 0,-6.33 0,-6.33 0,-3.17 3.17,0 6.33,0 6.33,0 73.67,0 73.67,0 76.83,0 80,-3.17 80,-6.33 80,-6.33 80,-12.67 80,-12.67 80,-15.83 76.83,-19 73.67,-19"/>
<text text-anchor="middle" x="40" y="-7" font-family="Helvetica,sans-Serif" font-size="10.00">SatSys::getId</text>
</a>
</g>
</g>
<!-- Node2 -->
<g id="Node000002" class="node">
<title>Node2</title>
<g id="a_Node000002"><a xlink:href="structSatSys.html#abfd7e43b0d57c2718d05ca595ee360dd" target="_top" xlink:title="Returns the character used as a prefix for this system.">
<path fill="#fff0f0" stroke="red" d="M204.67,-19C204.67,-19 122.33,-19 122.33,-19 119.17,-19 116,-15.83 116,-12.67 116,-12.67 116,-6.33 116,-6.33 116,-3.17 119.17,0 122.33,0 122.33,0 204.67,0 204.67,0 207.83,0 211,-3.17 211,-6.33 211,-6.33 211,-12.67 211,-12.67 211,-15.83 207.83,-19 204.67,-19"/>
<text text-anchor="middle" x="163.5" y="-7" font-family="Helvetica,sans-Serif" font-size="10.00">SatSys::sysChar</text>
</a>
</g>
</g>
<!-- Node1&#45;&gt;Node2 -->
<g id="edge1_Node000001_Node000002" class="edge">
<title>Node1&#45;&gt;Node2</title>
<g id="a_edge1_Node000001_Node000002"><a xlink:title=" ">
<path fill="none" stroke="#63b8ff" d="M80.11,-9.5C88.29,-9.5 97.07,-9.5 105.74,-9.5"/>
<polygon fill="#63b8ff" stroke="#63b8ff" points="105.82,-13 115.82,-9.5 105.82,-6 105.82,-13"/>
</a>
</g>
</g>
</g>
</svg>
