<?xml version="1.0" encoding="UTF-8" standalone="no"?>
<!DOCTYPE svg PUBLIC "-//W3C//DTD SVG 1.1//EN"
 "http://www.w3.org/Graphics/SVG/1.1/DTD/svg11.dtd">
<!-- Generated by graphviz version 2.43.0 (0)
 -->
<!-- Title: RtcmTrace::traceSsrCodeBias Pages: 1 -->
<svg width="365pt" height="64pt"
 viewBox="0.00 0.00 365.00 64.00" xmlns="http://www.w3.org/2000/svg" xmlns:xlink="http://www.w3.org/1999/xlink">
<g id="graph0" class="graph" transform="scale(1 1) rotate(0) translate(4 60)">
<title>RtcmTrace::traceSsrCodeBias</title>
<!-- Node1 -->
<g id="Node000001" class="node">
<title>Node1</title>
<g id="a_Node000001"><a xlink:href="structRtcmTrace.html#abcf156ad1b35a69c33db080f609b6f16" target="_top" xlink:title=" ">
<path fill="#fff0f0" stroke="red" stroke-width="2" d="M350.67,-37C350.67,-37 204.33,-37 204.33,-37 201.17,-37 198,-33.83 198,-30.67 198,-30.67 198,-24.33 198,-24.33 198,-21.17 201.17,-18 204.33,-18 204.33,-18 350.67,-18 350.67,-18 353.83,-18 357,-21.17 357,-24.33 357,-24.33 357,-30.67 357,-30.67 357,-33.83 353.83,-37 350.67,-37"/>
<text text-anchor="middle" x="277.5" y="-25" font-family="Helvetica,sans-Serif" font-size="10.00">RtcmTrace::traceSsrCodeBias</text>
</a>
</g>
</g>
<!-- Node2 -->
<g id="Node000002" class="node">
<title>Node2</title>
<g id="a_Node000002"><a xlink:href="structRtcmDecoder.html#adae4ba7ddd9f744631b806a5d550fe39" target="_top" xlink:title="decode RTCM SSR messages">
<path fill="#fff0f0" stroke="red" d="M146.17,-56C146.17,-56 15.83,-56 15.83,-56 12.67,-56 9.5,-52.83 9.5,-49.67 9.5,-49.67 9.5,-43.33 9.5,-43.33 9.5,-40.17 12.67,-37 15.83,-37 15.83,-37 146.17,-37 146.17,-37 149.33,-37 152.5,-40.17 152.5,-43.33 152.5,-43.33 152.5,-49.67 152.5,-49.67 152.5,-52.83 149.33,-56 146.17,-56"/>
<text text-anchor="middle" x="81" y="-44" font-family="Helvetica,sans-Serif" font-size="10.00">RtcmDecoder::decodeSSR</text>
</a>
</g>
</g>
<!-- Node1&#45;&gt;Node2 -->
<g id="edge1_Node000001_Node000002" class="edge">
<title>Node1&#45;&gt;Node2</title>
<g id="a_edge1_Node000001_Node000002"><a xlink:title=" ">
<path fill="none" stroke="#63b8ff" d="M187.7,-36.17C175.96,-37.32 164.06,-38.48 152.69,-39.6"/>
<polygon fill="#63b8ff" stroke="#63b8ff" points="188.34,-39.63 197.95,-35.17 187.66,-32.66 188.34,-39.63"/>
</a>
</g>
</g>
<!-- Node5 -->
<g id="Node000005" class="node">
<title>Node5</title>
<g id="a_Node000005"><a xlink:href="structRtcmEncoder.html#a18fe202e400a35f110954b78f93647ef" target="_top" xlink:title="encode code bias messages">
<path fill="#fff0f0" stroke="red" d="M155.67,-19C155.67,-19 6.33,-19 6.33,-19 3.17,-19 0,-15.83 0,-12.67 0,-12.67 0,-6.33 0,-6.33 0,-3.17 3.17,0 6.33,0 6.33,0 155.67,0 155.67,0 158.83,0 162,-3.17 162,-6.33 162,-6.33 162,-12.67 162,-12.67 162,-15.83 158.83,-19 155.67,-19"/>
<text text-anchor="middle" x="81" y="-7" font-family="Helvetica,sans-Serif" font-size="10.00">RtcmEncoder::encodeSsrCode</text>
</a>
</g>
</g>
<!-- Node1&#45;&gt;Node5 -->
<g id="edge2_Node000001_Node000005" class="edge">
<title>Node1&#45;&gt;Node5</title>
<g id="a_edge2_Node000001_Node000005"><a xlink:title=" ">
<path fill="none" stroke="#63b8ff" d="M187.91,-19.3C179.31,-18.51 170.62,-17.7 162.11,-16.91"/>
<polygon fill="#63b8ff" stroke="#63b8ff" points="187.67,-22.79 197.95,-20.23 188.32,-15.82 187.67,-22.79"/>
</a>
</g>
</g>
</g>
</svg>
