<?xml version="1.0" encoding="UTF-8" standalone="no"?>
<!DOCTYPE svg PUBLIC "-//W3C//DTD SVG 1.1//EN"
 "http://www.w3.org/Graphics/SVG/1.1/DTD/svg11.dtd">
<!-- Generated by graphviz version 2.43.0 (0)
 -->
<!-- Title: ERP Pages: 1 -->
<svg width="317pt" height="1068pt"
 viewBox="0.00 0.00 316.50 1068.00" xmlns="http://www.w3.org/2000/svg" xmlns:xlink="http://www.w3.org/1999/xlink">
<g id="graph0" class="graph" transform="scale(1 1) rotate(0) translate(4 1064)">
<title>ERP</title>
<!-- Node1 -->
<g id="Node000001" class="node">
<title>Node1</title>
<g id="a_Node000001"><a xlink:href="structERP.html" target="_top" xlink:title=" ">
<path fill="white" stroke="#666666" stroke-width="2" d="M154,-57C154,-57 133,-57 133,-57 127,-57 121,-51 121,-45 121,-45 121,-12 121,-12 121,-6 127,0 133,0 133,0 154,0 154,0 160,0 166,-6 166,-12 166,-12 166,-45 166,-45 166,-51 160,-57 154,-57"/>
<text text-anchor="start" x="134.5" y="-40.5" font-family="Helvetica,sans-Serif" font-size="10.00">ERP</text>
<text text-anchor="start" x="142" y="-25.5" font-family="Helvetica,sans-Serif" font-size="10.00"> </text>
<text text-anchor="start" x="142" y="-10.5" font-family="Helvetica,sans-Serif" font-size="10.00"> </text>
<polygon fill="#666666" stroke="#666666" points="129.5,-35.5 129.5,-35.5 158.5,-35.5 158.5,-35.5 129.5,-35.5"/>
<polygon fill="#666666" stroke="#666666" points="129.5,-20.5 129.5,-20.5 158.5,-20.5 158.5,-20.5 129.5,-20.5"/>
<polygon fill="none" stroke="#666666" points="129,-4 129,-53 158,-53 158,-4 129,-4"/>
</a>
</g>
</g>
<!-- Node2 -->
<g id="Node000002" class="node">
<title>Node2</title>
<g id="a_Node000002"><a xlink:title=" ">
<path fill="white" stroke="#666666" d="M125,-286.5C125,-286.5 12,-286.5 12,-286.5 6,-286.5 0,-280.5 0,-274.5 0,-274.5 0,-230.5 0,-230.5 0,-224.5 6,-218.5 12,-218.5 12,-218.5 125,-218.5 125,-218.5 131,-218.5 137,-224.5 137,-230.5 137,-230.5 137,-274.5 137,-274.5 137,-280.5 131,-286.5 125,-286.5"/>
<text text-anchor="start" x="13.5" y="-270.5" font-family="Helvetica,sans-Serif" font-size="10.00">vector&lt; map&lt; GTime,</text>
<text text-anchor="start" x="30.5" y="-259.5" font-family="Helvetica,sans-Serif" font-size="10.00"> ERPValues &gt; &gt;</text>
<text text-anchor="start" x="67" y="-244.5" font-family="Helvetica,sans-Serif" font-size="10.00"> </text>
<text text-anchor="start" x="67" y="-229.5" font-family="Helvetica,sans-Serif" font-size="10.00"> </text>
<polygon fill="#666666" stroke="#666666" points="8.5,-254.5 8.5,-254.5 129.5,-254.5 129.5,-254.5 8.5,-254.5"/>
<polygon fill="#666666" stroke="#666666" points="8.5,-239.5 8.5,-239.5 129.5,-239.5 129.5,-239.5 8.5,-239.5"/>
<polygon fill="none" stroke="#666666" points="8,-222.5 8,-282.5 129,-282.5 129,-222.5 8,-222.5"/>
</a>
</g>
</g>
<!-- Node2&#45;&gt;Node1 -->
<g id="edge1_Node000001_Node000002" class="edge">
<title>Node2&#45;&gt;Node1</title>
<g id="a_edge1_Node000001_Node000002"><a xlink:title=" ">
<path fill="none" stroke="#63b8ff" d="M79.73,-218.26C93.22,-178.33 115.83,-111.4 130.19,-68.9"/>
<polygon fill="none" stroke="#63b8ff" points="130.25,-68.71 128.39,-61.74 134.1,-57.34 135.96,-64.3 130.25,-68.71"/>
</a>
</g>
<text text-anchor="middle" x="154.5" y="-78" font-family="Helvetica,sans-Serif" font-size="10.00" fill="grey"> +erpMaps</text>
</g>
<!-- Node3 -->
<g id="Node000003" class="node">
<title>Node3</title>
<g id="a_Node000003"><a xlink:title=" ">
<path fill="white" stroke="#666666" d="M69,-782.5C69,-782.5 36,-782.5 36,-782.5 30,-782.5 24,-776.5 24,-770.5 24,-770.5 24,-737.5 24,-737.5 24,-731.5 30,-725.5 36,-725.5 36,-725.5 69,-725.5 69,-725.5 75,-725.5 81,-731.5 81,-737.5 81,-737.5 81,-770.5 81,-770.5 81,-776.5 75,-782.5 69,-782.5"/>
<text text-anchor="start" x="37.5" y="-766" font-family="Helvetica,sans-Serif" font-size="10.00">vector</text>
<text text-anchor="start" x="51" y="-751" font-family="Helvetica,sans-Serif" font-size="10.00"> </text>
<text text-anchor="start" x="51" y="-736" font-family="Helvetica,sans-Serif" font-size="10.00"> </text>
<polygon fill="#666666" stroke="#666666" points="32.5,-761 32.5,-761 73.5,-761 73.5,-761 32.5,-761"/>
<polygon fill="#666666" stroke="#666666" points="32.5,-746 32.5,-746 73.5,-746 73.5,-746 32.5,-746"/>
<polygon fill="none" stroke="#666666" points="32,-729.5 32,-778.5 73,-778.5 73,-729.5 32,-729.5"/>
</a>
</g>
</g>
<!-- Node3&#45;&gt;Node2 -->
<g id="edge2_Node000002_Node000003" class="edge">
<title>Node3&#45;&gt;Node2</title>
<g id="a_edge2_Node000002_Node000003"><a xlink:title=" ">
<path fill="none" stroke="orange" d="M53.71,-715.21C56.73,-620.84 64.57,-376.05 67.44,-286.74"/>
<polygon fill="orange" stroke="orange" points="50.21,-715.33 53.38,-725.43 57.2,-715.55 50.21,-715.33"/>
</a>
</g>
<text text-anchor="middle" x="143.5" y="-422" font-family="Helvetica,sans-Serif" font-size="10.00" fill="grey"> &lt; map&lt; GTime, ERPValues &gt; &gt;</text>
</g>
<!-- Node4 -->
<g id="Node000004" class="node">
<title>Node4</title>
<g id="a_Node000004"><a xlink:href="structERPValues.html" target="_top" xlink:title="earth rotation parameter data type">
<path fill="white" stroke="#666666" d="M280,-401C280,-401 175,-401 175,-401 169,-401 163,-395 163,-389 163,-389 163,-116 163,-116 163,-110 169,-104 175,-104 175,-104 280,-104 280,-104 286,-104 292,-110 292,-116 292,-116 292,-389 292,-389 292,-395 286,-401 280,-401"/>
<text text-anchor="start" x="202" y="-384.5" font-family="Helvetica,sans-Serif" font-size="10.00">ERPValues</text>
<text text-anchor="start" x="175.5" y="-369.5" font-family="Helvetica,sans-Serif" font-size="10.00">+</text>
<text text-anchor="start" x="188.5" y="-369.5" font-family="Helvetica,sans-Serif" font-size="10.00">xp</text>
<text text-anchor="start" x="175.5" y="-354.5" font-family="Helvetica,sans-Serif" font-size="10.00">+</text>
<text text-anchor="start" x="188.5" y="-354.5" font-family="Helvetica,sans-Serif" font-size="10.00">yp</text>
<text text-anchor="start" x="175.5" y="-339.5" font-family="Helvetica,sans-Serif" font-size="10.00">+</text>
<text text-anchor="start" x="188.5" y="-339.5" font-family="Helvetica,sans-Serif" font-size="10.00">ut1Utc</text>
<text text-anchor="start" x="175.5" y="-324.5" font-family="Helvetica,sans-Serif" font-size="10.00">+</text>
<text text-anchor="start" x="188.5" y="-324.5" font-family="Helvetica,sans-Serif" font-size="10.00">lod</text>
<text text-anchor="start" x="175.5" y="-309.5" font-family="Helvetica,sans-Serif" font-size="10.00">+</text>
<text text-anchor="start" x="188.5" y="-309.5" font-family="Helvetica,sans-Serif" font-size="10.00">xpr</text>
<text text-anchor="start" x="175.5" y="-294.5" font-family="Helvetica,sans-Serif" font-size="10.00">+</text>
<text text-anchor="start" x="188.5" y="-294.5" font-family="Helvetica,sans-Serif" font-size="10.00">ypr</text>
<text text-anchor="start" x="175.5" y="-279.5" font-family="Helvetica,sans-Serif" font-size="10.00">+</text>
<text text-anchor="start" x="188.5" y="-279.5" font-family="Helvetica,sans-Serif" font-size="10.00">xpSigma</text>
<text text-anchor="start" x="175.5" y="-264.5" font-family="Helvetica,sans-Serif" font-size="10.00">+</text>
<text text-anchor="start" x="188.5" y="-264.5" font-family="Helvetica,sans-Serif" font-size="10.00">ypSigma</text>
<text text-anchor="start" x="175.5" y="-249.5" font-family="Helvetica,sans-Serif" font-size="10.00">+</text>
<text text-anchor="start" x="188.5" y="-249.5" font-family="Helvetica,sans-Serif" font-size="10.00">xprSigma</text>
<text text-anchor="start" x="175.5" y="-234.5" font-family="Helvetica,sans-Serif" font-size="10.00">+</text>
<text text-anchor="start" x="188.5" y="-234.5" font-family="Helvetica,sans-Serif" font-size="10.00">yprSigma</text>
<text text-anchor="start" x="175.5" y="-219.5" font-family="Helvetica,sans-Serif" font-size="10.00">+</text>
<text text-anchor="start" x="188.5" y="-219.5" font-family="Helvetica,sans-Serif" font-size="10.00">ut1UtcSigma</text>
<text text-anchor="start" x="175.5" y="-204.5" font-family="Helvetica,sans-Serif" font-size="10.00">+</text>
<text text-anchor="start" x="188.5" y="-204.5" font-family="Helvetica,sans-Serif" font-size="10.00">lodSigma</text>
<text text-anchor="start" x="175.5" y="-189.5" font-family="Helvetica,sans-Serif" font-size="10.00">+</text>
<text text-anchor="start" x="188.5" y="-189.5" font-family="Helvetica,sans-Serif" font-size="10.00">isPredicted</text>
<text text-anchor="start" x="175.5" y="-174.5" font-family="Helvetica,sans-Serif" font-size="10.00">+</text>
<text text-anchor="start" x="188.5" y="-174.5" font-family="Helvetica,sans-Serif" font-size="10.00">isFiltered</text>
<text text-anchor="start" x="175.5" y="-159.5" font-family="Helvetica,sans-Serif" font-size="10.00">+</text>
<text text-anchor="start" x="188.5" y="-159.5" font-family="Helvetica,sans-Serif" font-size="10.00">operator+()</text>
<text text-anchor="start" x="175.5" y="-144.5" font-family="Helvetica,sans-Serif" font-size="10.00">+</text>
<text text-anchor="start" x="188.5" y="-144.5" font-family="Helvetica,sans-Serif" font-size="10.00">operator*()</text>
<text text-anchor="start" x="175.5" y="-129.5" font-family="Helvetica,sans-Serif" font-size="10.00">+</text>
<text text-anchor="start" x="188.5" y="-129.5" font-family="Helvetica,sans-Serif" font-size="10.00">toString()</text>
<text text-anchor="start" x="175.5" y="-114.5" font-family="Helvetica,sans-Serif" font-size="10.00">+</text>
<text text-anchor="start" x="188.5" y="-114.5" font-family="Helvetica,sans-Serif" font-size="10.00">toReadableString()</text>
<polygon fill="#666666" stroke="#666666" points="171.5,-379.5 171.5,-379.5 284.5,-379.5 284.5,-379.5 171.5,-379.5"/>
<polygon fill="#666666" stroke="#666666" points="171.5,-169.5 171.5,-169.5 186.5,-169.5 186.5,-169.5 171.5,-169.5"/>
<polygon fill="#666666" stroke="#666666" points="186.5,-169.5 186.5,-169.5 284.5,-169.5 284.5,-169.5 186.5,-169.5"/>
<polygon fill="none" stroke="#666666" points="171,-108 171,-397 284,-397 284,-108 171,-108"/>
</a>
</g>
</g>
<!-- Node4&#45;&gt;Node1 -->
<g id="edge3_Node000001_Node000004" class="edge">
<title>Node4&#45;&gt;Node1</title>
<g id="a_edge3_Node000001_Node000004"><a xlink:title=" ">
<path fill="none" stroke="#63b8ff" d="M195.33,-103.67C191.5,-93.77 187.24,-84.12 182.5,-75 180.13,-70.43 177.21,-65.93 174.06,-61.63"/>
<polygon fill="none" stroke="#63b8ff" points="173.89,-61.43 167.02,-59.25 166.39,-52.07 173.26,-54.25 173.89,-61.43"/>
</a>
</g>
<text text-anchor="middle" x="221" y="-78" font-family="Helvetica,sans-Serif" font-size="10.00" fill="grey"> +filterValues</text>
</g>
<!-- Node5 -->
<g id="Node000005" class="node">
<title>Node5</title>
<g id="a_Node000005"><a xlink:href="structGTime.html" target="_top" xlink:title="Time structure used throughout this software.">
<path fill="white" stroke="#666666" d="M296.5,-1060C296.5,-1060 174.5,-1060 174.5,-1060 168.5,-1060 162.5,-1054 162.5,-1048 162.5,-1048 162.5,-460 162.5,-460 162.5,-454 168.5,-448 174.5,-448 174.5,-448 296.5,-448 296.5,-448 302.5,-448 308.5,-454 308.5,-460 308.5,-460 308.5,-1048 308.5,-1048 308.5,-1054 302.5,-1060 296.5,-1060"/>
<text text-anchor="start" x="219" y="-1044" font-family="Helvetica,sans-Serif" font-size="10.00">GTime</text>
<text text-anchor="start" x="174.5" y="-1029" font-family="Helvetica,sans-Serif" font-size="10.00">+</text>
<text text-anchor="start" x="187.5" y="-1029" font-family="Helvetica,sans-Serif" font-size="10.00">bigTime</text>
<text text-anchor="start" x="174.5" y="-1014" font-family="Helvetica,sans-Serif" font-size="10.00">+</text>
<text text-anchor="start" x="187.5" y="-1014" font-family="Helvetica,sans-Serif" font-size="10.00">GTime()</text>
<text text-anchor="start" x="174.5" y="-999" font-family="Helvetica,sans-Serif" font-size="10.00">+</text>
<text text-anchor="start" x="187.5" y="-999" font-family="Helvetica,sans-Serif" font-size="10.00">GTime()</text>
<text text-anchor="start" x="174.5" y="-984" font-family="Helvetica,sans-Serif" font-size="10.00">+</text>
<text text-anchor="start" x="187.5" y="-984" font-family="Helvetica,sans-Serif" font-size="10.00">GTime()</text>
<text text-anchor="start" x="174.5" y="-969" font-family="Helvetica,sans-Serif" font-size="10.00">+</text>
<text text-anchor="start" x="187.5" y="-969" font-family="Helvetica,sans-Serif" font-size="10.00">to_string()</text>
<text text-anchor="start" x="174.5" y="-954" font-family="Helvetica,sans-Serif" font-size="10.00">+</text>
<text text-anchor="start" x="187.5" y="-954" font-family="Helvetica,sans-Serif" font-size="10.00">operator==()</text>
<text text-anchor="start" x="174.5" y="-939" font-family="Helvetica,sans-Serif" font-size="10.00">+</text>
<text text-anchor="start" x="187.5" y="-939" font-family="Helvetica,sans-Serif" font-size="10.00">operator!=()</text>
<text text-anchor="start" x="174.5" y="-924" font-family="Helvetica,sans-Serif" font-size="10.00">+</text>
<text text-anchor="start" x="187.5" y="-924" font-family="Helvetica,sans-Serif" font-size="10.00">operator&lt;()</text>
<text text-anchor="start" x="174.5" y="-909" font-family="Helvetica,sans-Serif" font-size="10.00">+</text>
<text text-anchor="start" x="187.5" y="-909" font-family="Helvetica,sans-Serif" font-size="10.00">operator&gt;()</text>
<text text-anchor="start" x="174.5" y="-894" font-family="Helvetica,sans-Serif" font-size="10.00">+</text>
<text text-anchor="start" x="187.5" y="-894" font-family="Helvetica,sans-Serif" font-size="10.00">operator&gt;=()</text>
<text text-anchor="start" x="174.5" y="-879" font-family="Helvetica,sans-Serif" font-size="10.00">+</text>
<text text-anchor="start" x="187.5" y="-879" font-family="Helvetica,sans-Serif" font-size="10.00">operator+()</text>
<text text-anchor="start" x="174.5" y="-864" font-family="Helvetica,sans-Serif" font-size="10.00">+</text>
<text text-anchor="start" x="187.5" y="-864" font-family="Helvetica,sans-Serif" font-size="10.00">operator+()</text>
<text text-anchor="start" x="174.5" y="-849" font-family="Helvetica,sans-Serif" font-size="10.00">+</text>
<text text-anchor="start" x="187.5" y="-849" font-family="Helvetica,sans-Serif" font-size="10.00">operator+()</text>
<text text-anchor="start" x="174.5" y="-834" font-family="Helvetica,sans-Serif" font-size="10.00">+</text>
<text text-anchor="start" x="187.5" y="-834" font-family="Helvetica,sans-Serif" font-size="10.00">operator+=()</text>
<text text-anchor="start" x="174.5" y="-819" font-family="Helvetica,sans-Serif" font-size="10.00">+</text>
<text text-anchor="start" x="187.5" y="-819" font-family="Helvetica,sans-Serif" font-size="10.00">operator&#45;=()</text>
<text text-anchor="start" x="174.5" y="-804" font-family="Helvetica,sans-Serif" font-size="10.00">+</text>
<text text-anchor="start" x="187.5" y="-804" font-family="Helvetica,sans-Serif" font-size="10.00">operator&#45;()</text>
<text text-anchor="start" x="174.5" y="-789" font-family="Helvetica,sans-Serif" font-size="10.00">+</text>
<text text-anchor="start" x="187.5" y="-789" font-family="Helvetica,sans-Serif" font-size="10.00">operator&#45;()</text>
<text text-anchor="start" x="174.5" y="-774" font-family="Helvetica,sans-Serif" font-size="10.00">+</text>
<text text-anchor="start" x="187.5" y="-774" font-family="Helvetica,sans-Serif" font-size="10.00">operator&#45;()</text>
<text text-anchor="start" x="174.5" y="-759" font-family="Helvetica,sans-Serif" font-size="10.00">+</text>
<text text-anchor="start" x="187.5" y="-759" font-family="Helvetica,sans-Serif" font-size="10.00">operator++()</text>
<text text-anchor="start" x="174.5" y="-744" font-family="Helvetica,sans-Serif" font-size="10.00">+</text>
<text text-anchor="start" x="187.5" y="-744" font-family="Helvetica,sans-Serif" font-size="10.00">GTime()</text>
<text text-anchor="start" x="174.5" y="-729" font-family="Helvetica,sans-Serif" font-size="10.00">+</text>
<text text-anchor="start" x="187.5" y="-729" font-family="Helvetica,sans-Serif" font-size="10.00">GTime()</text>
<text text-anchor="start" x="174.5" y="-714" font-family="Helvetica,sans-Serif" font-size="10.00">+</text>
<text text-anchor="start" x="187.5" y="-714" font-family="Helvetica,sans-Serif" font-size="10.00">GTime()</text>
<text text-anchor="start" x="174.5" y="-699" font-family="Helvetica,sans-Serif" font-size="10.00">+</text>
<text text-anchor="start" x="187.5" y="-699" font-family="Helvetica,sans-Serif" font-size="10.00">GTime()</text>
<text text-anchor="start" x="174.5" y="-684" font-family="Helvetica,sans-Serif" font-size="10.00">+</text>
<text text-anchor="start" x="187.5" y="-684" font-family="Helvetica,sans-Serif" font-size="10.00">GTime()</text>
<text text-anchor="start" x="174.5" y="-669" font-family="Helvetica,sans-Serif" font-size="10.00">+</text>
<text text-anchor="start" x="187.5" y="-669" font-family="Helvetica,sans-Serif" font-size="10.00">serialize()</text>
<text text-anchor="start" x="174.5" y="-654" font-family="Helvetica,sans-Serif" font-size="10.00">+</text>
<text text-anchor="start" x="187.5" y="-654" font-family="Helvetica,sans-Serif" font-size="10.00">floorTime()</text>
<text text-anchor="start" x="174.5" y="-639" font-family="Helvetica,sans-Serif" font-size="10.00">+</text>
<text text-anchor="start" x="187.5" y="-639" font-family="Helvetica,sans-Serif" font-size="10.00">gregString()</text>
<text text-anchor="start" x="174.5" y="-624" font-family="Helvetica,sans-Serif" font-size="10.00">+</text>
<text text-anchor="start" x="187.5" y="-624" font-family="Helvetica,sans-Serif" font-size="10.00">operator long double()</text>
<text text-anchor="start" x="174.5" y="-609" font-family="Helvetica,sans-Serif" font-size="10.00">+</text>
<text text-anchor="start" x="187.5" y="-609" font-family="Helvetica,sans-Serif" font-size="10.00">operator MjDateTT()</text>
<text text-anchor="start" x="174.5" y="-594" font-family="Helvetica,sans-Serif" font-size="10.00">+</text>
<text text-anchor="start" x="187.5" y="-594" font-family="Helvetica,sans-Serif" font-size="10.00">operator GEpoch()</text>
<text text-anchor="start" x="174.5" y="-579" font-family="Helvetica,sans-Serif" font-size="10.00">+</text>
<text text-anchor="start" x="187.5" y="-579" font-family="Helvetica,sans-Serif" font-size="10.00">operator UtcTime()</text>
<text text-anchor="start" x="174.5" y="-564" font-family="Helvetica,sans-Serif" font-size="10.00">+</text>
<text text-anchor="start" x="187.5" y="-564" font-family="Helvetica,sans-Serif" font-size="10.00">operator GWeek()</text>
<text text-anchor="start" x="174.5" y="-549" font-family="Helvetica,sans-Serif" font-size="10.00">+</text>
<text text-anchor="start" x="187.5" y="-549" font-family="Helvetica,sans-Serif" font-size="10.00">operator BWeek()</text>
<text text-anchor="start" x="174.5" y="-534" font-family="Helvetica,sans-Serif" font-size="10.00">+</text>
<text text-anchor="start" x="187.5" y="-534" font-family="Helvetica,sans-Serif" font-size="10.00">operator GTow()</text>
<text text-anchor="start" x="174.5" y="-519" font-family="Helvetica,sans-Serif" font-size="10.00">+</text>
<text text-anchor="start" x="187.5" y="-519" font-family="Helvetica,sans-Serif" font-size="10.00">operator BTow()</text>
<text text-anchor="start" x="174.5" y="-504" font-family="Helvetica,sans-Serif" font-size="10.00">+</text>
<text text-anchor="start" x="187.5" y="-504" font-family="Helvetica,sans-Serif" font-size="10.00">operator PTime()</text>
<text text-anchor="start" x="174.5" y="-489" font-family="Helvetica,sans-Serif" font-size="10.00">+</text>
<text text-anchor="start" x="187.5" y="-489" font-family="Helvetica,sans-Serif" font-size="10.00">operator string()</text>
<text text-anchor="start" x="174.5" y="-474" font-family="Helvetica,sans-Serif" font-size="10.00">+</text>
<text text-anchor="start" x="187.5" y="-474" font-family="Helvetica,sans-Serif" font-size="10.00">operator RTod()</text>
<text text-anchor="start" x="174.5" y="-459" font-family="Helvetica,sans-Serif" font-size="10.00">+</text>
<text text-anchor="start" x="187.5" y="-459" font-family="Helvetica,sans-Serif" font-size="10.00">noTime()</text>
<polygon fill="#666666" stroke="#666666" points="170.5,-1039 170.5,-1039 300.5,-1039 300.5,-1039 170.5,-1039"/>
<polygon fill="#666666" stroke="#666666" points="170.5,-1024 170.5,-1024 185.5,-1024 185.5,-1024 170.5,-1024"/>
<polygon fill="#666666" stroke="#666666" points="185.5,-1024 185.5,-1024 300.5,-1024 300.5,-1024 185.5,-1024"/>
<polygon fill="none" stroke="#666666" points="170.5,-452 170.5,-1056 300.5,-1056 300.5,-452 170.5,-452"/>
</a>
</g>
</g>
<!-- Node5&#45;&gt;Node4 -->
<g id="edge4_Node000004_Node000005" class="edge">
<title>Node5&#45;&gt;Node4</title>
<g id="a_edge4_Node000004_Node000005"><a xlink:title=" ">
<path fill="none" stroke="#63b8ff" d="M230.61,-447.69C230.42,-436 230.24,-424.48 230.06,-413.24"/>
<polygon fill="none" stroke="#63b8ff" points="230.06,-413.15 225.96,-407.22 229.86,-401.16 233.96,-407.09 230.06,-413.15"/>
</a>
</g>
<text text-anchor="middle" x="247.5" y="-422" font-family="Helvetica,sans-Serif" font-size="10.00" fill="grey"> +time</text>
</g>
</g>
</svg>
