<?xml version="1.0" encoding="UTF-8" standalone="no"?>
<!DOCTYPE svg PUBLIC "-//W3C//DTD SVG 1.1//EN"
 "http://www.w3.org/Graphics/SVG/1.1/DTD/svg11.dtd">
<!-- Generated by graphviz version 2.43.0 (0)
 -->
<!-- Title: Block Pages: 1 -->
<svg width="115pt" height="184pt"
 viewBox="0.00 0.00 115.00 184.00" xmlns="http://www.w3.org/2000/svg" xmlns:xlink="http://www.w3.org/1999/xlink">
<g id="graph0" class="graph" transform="scale(1 1) rotate(0) translate(4 180)">
<title>Block</title>
<!-- Node1 -->
<g id="Node000001" class="node">
<title>Node1</title>
<g id="a_Node000001"><a xlink:href="structBlock.html" target="_top" xlink:title=" ">
<path fill="white" stroke="#666666" stroke-width="2" d="M68,-72C68,-72 12,-72 12,-72 6,-72 0,-66 0,-60 0,-60 0,-12 0,-12 0,-6 6,0 12,0 12,0 68,0 68,0 74,0 80,-6 80,-12 80,-12 80,-60 80,-60 80,-66 74,-72 68,-72"/>
<text text-anchor="start" x="26" y="-56" font-family="Helvetica,sans-Serif" font-size="10.00">Block</text>
<text text-anchor="start" x="12" y="-41" font-family="Helvetica,sans-Serif" font-size="10.00">+</text>
<text text-anchor="start" x="25" y="-41" font-family="Helvetica,sans-Serif" font-size="10.00">trace</text>
<text text-anchor="start" x="12" y="-26" font-family="Helvetica,sans-Serif" font-size="10.00">+</text>
<text text-anchor="start" x="25" y="-26" font-family="Helvetica,sans-Serif" font-size="10.00">Block()</text>
<text text-anchor="start" x="12" y="-11" font-family="Helvetica,sans-Serif" font-size="10.00">+</text>
<text text-anchor="start" x="25" y="-11" font-family="Helvetica,sans-Serif" font-size="10.00">~Block()</text>
<polygon fill="#666666" stroke="#666666" points="8,-51 8,-51 72,-51 72,-51 8,-51"/>
<polygon fill="#666666" stroke="#666666" points="8,-36 8,-36 23,-36 23,-36 8,-36"/>
<polygon fill="#666666" stroke="#666666" points="23,-36 23,-36 72,-36 72,-36 23,-36"/>
<polygon fill="none" stroke="#666666" points="8,-4 8,-68 72,-68 72,-4 8,-4"/>
</a>
</g>
</g>
<!-- Node2 -->
<g id="Node000002" class="node">
<title>Node2</title>
<g id="a_Node000002"><a xlink:title=" ">
<path fill="white" stroke="#666666" d="M55,-176C55,-176 25,-176 25,-176 19,-176 13,-170 13,-164 13,-164 13,-131 13,-131 13,-125 19,-119 25,-119 25,-119 55,-119 55,-119 61,-119 67,-125 67,-131 67,-131 67,-164 67,-164 67,-170 61,-176 55,-176"/>
<text text-anchor="start" x="26" y="-159.5" font-family="Helvetica,sans-Serif" font-size="10.00">string</text>
<text text-anchor="start" x="38" y="-144.5" font-family="Helvetica,sans-Serif" font-size="10.00"> </text>
<text text-anchor="start" x="38" y="-129.5" font-family="Helvetica,sans-Serif" font-size="10.00"> </text>
<polygon fill="#666666" stroke="#666666" points="21,-154.5 21,-154.5 59,-154.5 59,-154.5 21,-154.5"/>
<polygon fill="#666666" stroke="#666666" points="21,-139.5 21,-139.5 59,-139.5 59,-139.5 21,-139.5"/>
<polygon fill="none" stroke="#666666" points="21,-123 21,-172 59,-172 59,-123 21,-123"/>
</a>
</g>
</g>
<!-- Node2&#45;&gt;Node1 -->
<g id="edge1_Node000001_Node000002" class="edge">
<title>Node2&#45;&gt;Node1</title>
<g id="a_edge1_Node000001_Node000002"><a xlink:title=" ">
<path fill="none" stroke="#63b8ff" d="M40,-118.87C40,-108.34 40,-96.01 40,-84.17"/>
<polygon fill="none" stroke="#63b8ff" points="40,-84.1 36,-78.1 40,-72.1 44,-78.1 40,-84.1"/>
</a>
</g>
<text text-anchor="middle" x="73.5" y="-93" font-family="Helvetica,sans-Serif" font-size="10.00" fill="grey"> +blockName</text>
</g>
</g>
</svg>
