<?xml version="1.0" encoding="UTF-8" standalone="no"?>
<!DOCTYPE svg PUBLIC "-//W3C//DTD SVG 1.1//EN"
 "http://www.w3.org/Graphics/SVG/1.1/DTD/svg11.dtd">
<!-- Generated by graphviz version 2.43.0 (0)
 -->
<!-- Title: TcpSocket::dataChunkDownloaded Pages: 1 -->
<svg width="383pt" height="45pt"
 viewBox="0.00 0.00 383.00 45.00" xmlns="http://www.w3.org/2000/svg" xmlns:xlink="http://www.w3.org/1999/xlink">
<g id="graph0" class="graph" transform="scale(1 1) rotate(0) translate(4 41)">
<title>TcpSocket::dataChunkDownloaded</title>
<!-- Node1 -->
<g id="Node000001" class="node">
<title>Node1</title>
<g id="a_Node000001"><a xlink:href="structTcpSocket.html#a0772c2b11a876fd273a8426d2b4a8bc8" target="_top" xlink:title=" ">
<path fill="#fff0f0" stroke="red" stroke-width="2" d="M368.67,-19C368.67,-19 197.33,-19 197.33,-19 194.17,-19 191,-15.83 191,-12.67 191,-12.67 191,-6.33 191,-6.33 191,-3.17 194.17,0 197.33,0 197.33,0 368.67,0 368.67,0 371.83,0 375,-3.17 375,-6.33 375,-6.33 375,-12.67 375,-12.67 375,-15.83 371.83,-19 368.67,-19"/>
<text text-anchor="middle" x="283" y="-7" font-family="Helvetica,sans-Serif" font-size="10.00">TcpSocket::dataChunkDownloaded</text>
</a>
</g>
</g>
<!-- Node2 -->
<g id="Node000002" class="node">
<title>Node2</title>
<g id="a_Node000002"><a xlink:href="structSisnetStream.html#a743f81c9442479914f1d2052b7818906" target="_top" xlink:title=" ">
<path fill="#fff0f0" stroke="red" d="M148.67,-19C148.67,-19 6.33,-19 6.33,-19 3.17,-19 0,-15.83 0,-12.67 0,-12.67 0,-6.33 0,-6.33 0,-3.17 3.17,0 6.33,0 6.33,0 148.67,0 148.67,0 151.83,0 155,-3.17 155,-6.33 155,-6.33 155,-12.67 155,-12.67 155,-15.83 151.83,-19 148.67,-19"/>
<text text-anchor="middle" x="77.5" y="-7" font-family="Helvetica,sans-Serif" font-size="10.00">SisnetStream::sisnetHandler</text>
</a>
</g>
</g>
<!-- Node1&#45;&gt;Node2 -->
<g id="edge1_Node000001_Node000002" class="edge">
<title>Node1&#45;&gt;Node2</title>
<g id="a_edge1_Node000001_Node000002"><a xlink:title=" ">
<path fill="none" stroke="#63b8ff" d="M180.84,-9.5C172.2,-9.5 163.56,-9.5 155.16,-9.5"/>
<polygon fill="#63b8ff" stroke="#63b8ff" points="180.96,-13 190.96,-9.5 180.96,-6 180.96,-13"/>
</a>
</g>
</g>
<!-- Node2&#45;&gt;Node2 -->
<g id="edge2_Node000002_Node000002" class="edge">
<title>Node2&#45;&gt;Node2</title>
<g id="a_edge2_Node000002_Node000002"><a xlink:title=" ">
<path fill="none" stroke="#63b8ff" d="M115.75,-26.69C115.74,-32.42 102.99,-37 77.5,-37 41.24,-37 30.76,-27.73 46.06,-19.08"/>
<polygon fill="#63b8ff" stroke="#63b8ff" points="118.22,-24.2 108.94,-19.08 113,-28.87 118.22,-24.2"/>
</a>
</g>
</g>
</g>
</svg>
