<?xml version="1.0" encoding="UTF-8" standalone="no"?>
<!DOCTYPE svg PUBLIC "-//W3C//DTD SVG 1.1//EN"
 "http://www.w3.org/Graphics/SVG/1.1/DTD/svg11.dtd">
<!-- Generated by graphviz version 2.43.0 (0)
 -->
<!-- Title: SSRCodeBias Pages: 1 -->
<svg width="130pt" height="248pt"
 viewBox="0.00 0.00 130.00 248.00" xmlns="http://www.w3.org/2000/svg" xmlns:xlink="http://www.w3.org/1999/xlink">
<g id="graph0" class="graph" transform="scale(1 1) rotate(0) translate(4 244)">
<title>SSRCodeBias</title>
<!-- Node1 -->
<g id="Node000001" class="node">
<title>Node1</title>
<g id="a_Node000001"><a xlink:href="structSSRCodeBias.html" target="_top" xlink:title=" ">
<path fill="white" stroke="#666666" stroke-width="2" d="M94.5,-57C94.5,-57 27.5,-57 27.5,-57 21.5,-57 15.5,-51 15.5,-45 15.5,-45 15.5,-12 15.5,-12 15.5,-6 21.5,0 27.5,0 27.5,0 94.5,0 94.5,0 100.5,0 106.5,-6 106.5,-12 106.5,-12 106.5,-45 106.5,-45 106.5,-51 100.5,-57 94.5,-57"/>
<text text-anchor="start" x="29" y="-40.5" font-family="Helvetica,sans-Serif" font-size="10.00">SSRCodeBias</text>
<text text-anchor="start" x="59.5" y="-25.5" font-family="Helvetica,sans-Serif" font-size="10.00"> </text>
<text text-anchor="start" x="59.5" y="-10.5" font-family="Helvetica,sans-Serif" font-size="10.00"> </text>
<polygon fill="#666666" stroke="#666666" points="24,-35.5 24,-35.5 99,-35.5 99,-35.5 24,-35.5"/>
<polygon fill="#666666" stroke="#666666" points="24,-20.5 24,-20.5 99,-20.5 99,-20.5 24,-20.5"/>
<polygon fill="none" stroke="#666666" points="23.5,-4 23.5,-53 98.5,-53 98.5,-4 23.5,-4"/>
</a>
</g>
</g>
<!-- Node2 -->
<g id="Node000002" class="node">
<title>Node2</title>
<g id="a_Node000002"><a xlink:href="structSSRBias.html" target="_top" xlink:title=" ">
<path fill="white" stroke="#666666" d="M110,-240C110,-240 12,-240 12,-240 6,-240 0,-234 0,-228 0,-228 0,-105 0,-105 0,-99 6,-93 12,-93 12,-93 110,-93 110,-93 116,-93 122,-99 122,-105 122,-105 122,-228 122,-228 122,-234 116,-240 110,-240"/>
<text text-anchor="start" x="41" y="-223.5" font-family="Helvetica,sans-Serif" font-size="10.00">SSRBias</text>
<text text-anchor="start" x="12" y="-208.5" font-family="Helvetica,sans-Serif" font-size="10.00">+</text>
<text text-anchor="start" x="25" y="-208.5" font-family="Helvetica,sans-Serif" font-size="10.00">ssrMeta</text>
<text text-anchor="start" x="12" y="-193.5" font-family="Helvetica,sans-Serif" font-size="10.00">+</text>
<text text-anchor="start" x="25" y="-193.5" font-family="Helvetica,sans-Serif" font-size="10.00">t0</text>
<text text-anchor="start" x="12" y="-178.5" font-family="Helvetica,sans-Serif" font-size="10.00">+</text>
<text text-anchor="start" x="25" y="-178.5" font-family="Helvetica,sans-Serif" font-size="10.00">udi</text>
<text text-anchor="start" x="12" y="-163.5" font-family="Helvetica,sans-Serif" font-size="10.00">+</text>
<text text-anchor="start" x="25" y="-163.5" font-family="Helvetica,sans-Serif" font-size="10.00">iod</text>
<text text-anchor="start" x="12" y="-148.5" font-family="Helvetica,sans-Serif" font-size="10.00">+</text>
<text text-anchor="start" x="25" y="-148.5" font-family="Helvetica,sans-Serif" font-size="10.00">nbias</text>
<text text-anchor="start" x="12" y="-133.5" font-family="Helvetica,sans-Serif" font-size="10.00">+</text>
<text text-anchor="start" x="25" y="-133.5" font-family="Helvetica,sans-Serif" font-size="10.00">obsCodeBiasMap</text>
<text text-anchor="start" x="12" y="-118.5" font-family="Helvetica,sans-Serif" font-size="10.00">+</text>
<text text-anchor="start" x="25" y="-118.5" font-family="Helvetica,sans-Serif" font-size="10.00">ionDCBOffset</text>
<text text-anchor="start" x="59" y="-103.5" font-family="Helvetica,sans-Serif" font-size="10.00"> </text>
<polygon fill="#666666" stroke="#666666" points="8,-218.5 8,-218.5 114,-218.5 114,-218.5 8,-218.5"/>
<polygon fill="#666666" stroke="#666666" points="8,-113.5 8,-113.5 23,-113.5 23,-113.5 8,-113.5"/>
<polygon fill="#666666" stroke="#666666" points="23,-113.5 23,-113.5 114,-113.5 114,-113.5 23,-113.5"/>
<polygon fill="none" stroke="#666666" points="8,-97 8,-236 114,-236 114,-97 8,-97"/>
</a>
</g>
</g>
<!-- Node2&#45;&gt;Node1 -->
<g id="edge1_Node000001_Node000002" class="edge">
<title>Node2&#45;&gt;Node1</title>
<g id="a_edge1_Node000001_Node000002"><a xlink:title=" ">
<path fill="none" stroke="#63b8ff" d="M61,-82.45C61,-73.45 61,-64.83 61,-57.25"/>
<polygon fill="none" stroke="#63b8ff" points="57.5,-82.72 61,-92.72 64.5,-82.72 57.5,-82.72"/>
</a>
</g>
</g>
</g>
</svg>
