<?xml version="1.0" encoding="UTF-8" standalone="no"?>
<!DOCTYPE svg PUBLIC "-//W3C//DTD SVG 1.1//EN"
 "http://www.w3.org/Graphics/SVG/1.1/DTD/svg11.dtd">
<!-- Generated by graphviz version 2.43.0 (0)
 -->
<!-- Title: KFState::doMeasRejectCallbacks Pages: 1 -->
<svg width="340pt" height="64pt"
 viewBox="0.00 0.00 340.00 64.00" xmlns="http://www.w3.org/2000/svg" xmlns:xlink="http://www.w3.org/1999/xlink">
<g id="graph0" class="graph" transform="scale(1 1) rotate(0) translate(4 60)">
<title>KFState::doMeasRejectCallbacks</title>
<!-- Node1 -->
<g id="Node000001" class="node">
<title>Node1</title>
<g id="a_Node000001"><a xlink:href="structKFState.html#aee2c453651d4033c3d1c6aae6a9f9ccd" target="_top" xlink:title=" ">
<path fill="#fff0f0" stroke="red" stroke-width="2" d="M325.67,-37C325.67,-37 162.33,-37 162.33,-37 159.17,-37 156,-33.83 156,-30.67 156,-30.67 156,-24.33 156,-24.33 156,-21.17 159.17,-18 162.33,-18 162.33,-18 325.67,-18 325.67,-18 328.83,-18 332,-21.17 332,-24.33 332,-24.33 332,-30.67 332,-30.67 332,-33.83 328.83,-37 325.67,-37"/>
<text text-anchor="middle" x="244" y="-25" font-family="Helvetica,sans-Serif" font-size="10.00">KFState::doMeasRejectCallbacks</text>
</a>
</g>
</g>
<!-- Node2 -->
<g id="Node000002" class="node">
<title>Node2</title>
<g id="a_Node000002"><a xlink:href="structKFState.html#a0d12c57e70876543084c182a660bbbd3" target="_top" xlink:title="Kalman filter operation.">
<path fill="#fff0f0" stroke="red" d="M113.67,-56C113.67,-56 6.33,-56 6.33,-56 3.17,-56 0,-52.83 0,-49.67 0,-49.67 0,-43.33 0,-43.33 0,-40.17 3.17,-37 6.33,-37 6.33,-37 113.67,-37 113.67,-37 116.83,-37 120,-40.17 120,-43.33 120,-43.33 120,-49.67 120,-49.67 120,-52.83 116.83,-56 113.67,-56"/>
<text text-anchor="middle" x="60" y="-44" font-family="Helvetica,sans-Serif" font-size="10.00">KFState::filterKalman</text>
</a>
</g>
</g>
<!-- Node1&#45;&gt;Node2 -->
<g id="edge1_Node000001_Node000002" class="edge">
<title>Node1&#45;&gt;Node2</title>
<g id="a_edge1_Node000001_Node000002"><a xlink:title=" ">
<path fill="none" stroke="#63b8ff" d="M146.02,-37.62C137.2,-38.54 128.45,-39.46 120.12,-40.33"/>
<polygon fill="#63b8ff" stroke="#63b8ff" points="146.42,-41.1 156,-36.58 145.69,-34.14 146.42,-41.1"/>
</a>
</g>
</g>
<!-- Node26 -->
<g id="Node000026" class="node">
<title>Node26</title>
<g id="a_Node000026"><a xlink:href="ppp__callbacks_8cpp.html#aa658529bdaa43724f9b3b1d2cea78149" target="_top" xlink:title="Reject measurements attached to worst state using measurement reject callback list.">
<path fill="#fff0f0" stroke="red" d="M95.17,-19C95.17,-19 24.83,-19 24.83,-19 21.67,-19 18.5,-15.83 18.5,-12.67 18.5,-12.67 18.5,-6.33 18.5,-6.33 18.5,-3.17 21.67,0 24.83,0 24.83,0 95.17,0 95.17,0 98.33,0 101.5,-3.17 101.5,-6.33 101.5,-6.33 101.5,-12.67 101.5,-12.67 101.5,-15.83 98.33,-19 95.17,-19"/>
<text text-anchor="middle" x="60" y="-7" font-family="Helvetica,sans-Serif" font-size="10.00">rejectByState</text>
</a>
</g>
</g>
<!-- Node1&#45;&gt;Node26 -->
<g id="edge2_Node000001_Node000026" class="edge">
<title>Node1&#45;&gt;Node26</title>
<g id="a_edge2_Node000001_Node000026"><a xlink:title=" ">
<path fill="none" stroke="#63b8ff" d="M145.75,-17.88C130.17,-16.34 114.84,-14.83 101.6,-13.52"/>
<polygon fill="#63b8ff" stroke="#63b8ff" points="145.7,-21.39 156,-18.9 146.39,-14.43 145.7,-21.39"/>
</a>
</g>
</g>
</g>
</svg>
