<?xml version="1.0" encoding="UTF-8" standalone="no"?>
<!DOCTYPE svg PUBLIC "-//W3C//DTD SVG 1.1//EN"
 "http://www.w3.org/Graphics/SVG/1.1/DTD/svg11.dtd">
<!-- Generated by graphviz version 2.43.0 (0)
 -->
<!-- Title: ObsList Pages: 1 -->
<svg width="128pt" height="169pt"
 viewBox="0.00 0.00 128.00 169.00" xmlns="http://www.w3.org/2000/svg" xmlns:xlink="http://www.w3.org/1999/xlink">
<g id="graph0" class="graph" transform="scale(1 1) rotate(0) translate(4 165)">
<title>ObsList</title>
<!-- Node1 -->
<g id="Node000001" class="node">
<title>Node1</title>
<g id="a_Node000001"><a xlink:href="structObsList.html" target="_top" xlink:title="List of observations for an epoch.">
<path fill="white" stroke="#666666" stroke-width="2" d="M99.5,-57C99.5,-57 20.5,-57 20.5,-57 14.5,-57 8.5,-51 8.5,-45 8.5,-45 8.5,-12 8.5,-12 8.5,-6 14.5,0 20.5,0 20.5,0 99.5,0 99.5,0 105.5,0 111.5,-6 111.5,-12 111.5,-12 111.5,-45 111.5,-45 111.5,-51 105.5,-57 99.5,-57"/>
<text text-anchor="start" x="42" y="-40.5" font-family="Helvetica,sans-Serif" font-size="10.00">ObsList</text>
<text text-anchor="start" x="58.5" y="-25.5" font-family="Helvetica,sans-Serif" font-size="10.00"> </text>
<text text-anchor="start" x="21" y="-10.5" font-family="Helvetica,sans-Serif" font-size="10.00">+</text>
<text text-anchor="start" x="34" y="-10.5" font-family="Helvetica,sans-Serif" font-size="10.00">operator+=()</text>
<polygon fill="#666666" stroke="#666666" points="17,-35.5 17,-35.5 104,-35.5 104,-35.5 17,-35.5"/>
<polygon fill="#666666" stroke="#666666" points="17,-20.5 17,-20.5 104,-20.5 104,-20.5 17,-20.5"/>
<polygon fill="none" stroke="#666666" points="16.5,-4 16.5,-53 103.5,-53 103.5,-4 16.5,-4"/>
</a>
</g>
</g>
<!-- Node2 -->
<g id="Node000002" class="node">
<title>Node2</title>
<g id="a_Node000002"><a xlink:title=" ">
<path fill="white" stroke="#666666" d="M108,-161C108,-161 12,-161 12,-161 6,-161 0,-155 0,-149 0,-149 0,-105 0,-105 0,-99 6,-93 12,-93 12,-93 108,-93 108,-93 114,-93 120,-99 120,-105 120,-105 120,-149 120,-149 120,-155 114,-161 108,-161"/>
<text text-anchor="start" x="13" y="-145" font-family="Helvetica,sans-Serif" font-size="10.00">vector&lt; shared_ptr</text>
<text text-anchor="start" x="13" y="-134" font-family="Helvetica,sans-Serif" font-size="10.00">&lt; Observation &gt; &gt;</text>
<text text-anchor="start" x="58" y="-119" font-family="Helvetica,sans-Serif" font-size="10.00"> </text>
<text text-anchor="start" x="58" y="-104" font-family="Helvetica,sans-Serif" font-size="10.00"> </text>
<polygon fill="#666666" stroke="#666666" points="8,-129 8,-129 112,-129 112,-129 8,-129"/>
<polygon fill="#666666" stroke="#666666" points="8,-114 8,-114 112,-114 112,-114 8,-114"/>
<polygon fill="none" stroke="#666666" points="8,-97 8,-157 112,-157 112,-97 8,-97"/>
</a>
</g>
</g>
<!-- Node2&#45;&gt;Node1 -->
<g id="edge1_Node000001_Node000002" class="edge">
<title>Node2&#45;&gt;Node1</title>
<g id="a_edge1_Node000001_Node000002"><a xlink:title=" ">
<path fill="none" stroke="#63b8ff" d="M60,-82.71C60,-73.97 60,-65.02 60,-57.01"/>
<polygon fill="none" stroke="#63b8ff" points="56.5,-82.79 60,-92.79 63.5,-82.79 56.5,-82.79"/>
</a>
</g>
</g>
</g>
</svg>
