<?xml version="1.0" encoding="UTF-8" standalone="no"?>
<!DOCTYPE svg PUBLIC "-//W3C//DTD SVG 1.1//EN"
 "http://www.w3.org/Graphics/SVG/1.1/DTD/svg11.dtd">
<!-- Generated by graphviz version 2.43.0 (0)
 -->
<!-- Title: SSRTropData Pages: 1 -->
<svg width="148pt" height="295pt"
 viewBox="0.00 0.00 147.50 295.00" xmlns="http://www.w3.org/2000/svg" xmlns:xlink="http://www.w3.org/1999/xlink">
<g id="graph0" class="graph" transform="scale(1 1) rotate(0) translate(4 291)">
<title>SSRTropData</title>
<!-- Node1 -->
<g id="Node000001" class="node">
<title>Node1</title>
<g id="a_Node000001"><a xlink:href="structSSRTropData.html" target="_top" xlink:title=" ">
<path fill="white" stroke="#666666" stroke-width="2" d="M93.5,-57C93.5,-57 29.5,-57 29.5,-57 23.5,-57 17.5,-51 17.5,-45 17.5,-45 17.5,-12 17.5,-12 17.5,-6 23.5,0 29.5,0 29.5,0 93.5,0 93.5,0 99.5,0 105.5,-6 105.5,-12 105.5,-12 105.5,-45 105.5,-45 105.5,-51 99.5,-57 93.5,-57"/>
<text text-anchor="start" x="30.5" y="-40.5" font-family="Helvetica,sans-Serif" font-size="10.00">SSRTropData</text>
<text text-anchor="start" x="34.5" y="-25.5" font-family="Helvetica,sans-Serif" font-size="10.00">+</text>
<text text-anchor="start" x="52.5" y="-25.5" font-family="Helvetica,sans-Serif" font-size="10.00">sigma</text>
<text text-anchor="start" x="59.5" y="-10.5" font-family="Helvetica,sans-Serif" font-size="10.00"> </text>
<polygon fill="#666666" stroke="#666666" points="25.5,-35.5 25.5,-35.5 97.5,-35.5 97.5,-35.5 25.5,-35.5"/>
<polygon fill="#666666" stroke="#666666" points="25.5,-20.5 25.5,-20.5 50.5,-20.5 50.5,-20.5 25.5,-20.5"/>
<polygon fill="#666666" stroke="#666666" points="50.5,-20.5 50.5,-20.5 97.5,-20.5 97.5,-20.5 50.5,-20.5"/>
<polygon fill="none" stroke="#666666" points="25.5,-4 25.5,-53 97.5,-53 97.5,-4 25.5,-4"/>
</a>
</g>
</g>
<!-- Node2 -->
<g id="Node000002" class="node">
<title>Node2</title>
<g id="a_Node000002"><a xlink:title=" ">
<path fill="white" stroke="#666666" d="M111,-183C111,-183 12,-183 12,-183 6,-183 0,-177 0,-171 0,-171 0,-138 0,-138 0,-132 6,-126 12,-126 12,-126 111,-126 111,-126 117,-126 123,-132 123,-138 123,-138 123,-171 123,-171 123,-177 117,-183 111,-183"/>
<text text-anchor="start" x="13.5" y="-166.5" font-family="Helvetica,sans-Serif" font-size="10.00">map&lt; int, double &gt;</text>
<text text-anchor="start" x="60" y="-151.5" font-family="Helvetica,sans-Serif" font-size="10.00"> </text>
<text text-anchor="start" x="60" y="-136.5" font-family="Helvetica,sans-Serif" font-size="10.00"> </text>
<polygon fill="#666666" stroke="#666666" points="8.5,-161.5 8.5,-161.5 115.5,-161.5 115.5,-161.5 8.5,-161.5"/>
<polygon fill="#666666" stroke="#666666" points="8.5,-146.5 8.5,-146.5 115.5,-146.5 115.5,-146.5 8.5,-146.5"/>
<polygon fill="none" stroke="#666666" points="8,-130 8,-179 115,-179 115,-130 8,-130"/>
</a>
</g>
</g>
<!-- Node2&#45;&gt;Node1 -->
<g id="edge1_Node000001_Node000002" class="edge">
<title>Node2&#45;&gt;Node1</title>
<g id="a_edge1_Node000001_Node000002"><a xlink:title=" ">
<path fill="none" stroke="#63b8ff" d="M61.5,-125.98C61.5,-109.4 61.5,-88 61.5,-69.56"/>
<polygon fill="none" stroke="#63b8ff" points="61.5,-69.37 57.5,-63.37 61.5,-57.37 65.5,-63.37 61.5,-69.37"/>
</a>
</g>
<text text-anchor="middle" x="85.5" y="-100" font-family="Helvetica,sans-Serif" font-size="10.00" fill="grey"> +gridDry</text>
<text text-anchor="middle" x="85.5" y="-89" font-family="Helvetica,sans-Serif" font-size="10.00" fill="grey">+gridWet</text>
<text text-anchor="middle" x="85.5" y="-78" font-family="Helvetica,sans-Serif" font-size="10.00" fill="grey">+polyDry</text>
</g>
<!-- Node3 -->
<g id="Node000003" class="node">
<title>Node3</title>
<g id="a_Node000003"><a xlink:title=" ">
<path fill="white" stroke="#666666" d="M73.5,-287C73.5,-287 49.5,-287 49.5,-287 43.5,-287 37.5,-281 37.5,-275 37.5,-275 37.5,-242 37.5,-242 37.5,-236 43.5,-230 49.5,-230 49.5,-230 73.5,-230 73.5,-230 79.5,-230 85.5,-236 85.5,-242 85.5,-242 85.5,-275 85.5,-275 85.5,-281 79.5,-287 73.5,-287"/>
<text text-anchor="start" x="50.5" y="-270.5" font-family="Helvetica,sans-Serif" font-size="10.00">map</text>
<text text-anchor="start" x="59.5" y="-255.5" font-family="Helvetica,sans-Serif" font-size="10.00"> </text>
<text text-anchor="start" x="59.5" y="-240.5" font-family="Helvetica,sans-Serif" font-size="10.00"> </text>
<polygon fill="#666666" stroke="#666666" points="45.5,-265.5 45.5,-265.5 77.5,-265.5 77.5,-265.5 45.5,-265.5"/>
<polygon fill="#666666" stroke="#666666" points="45.5,-250.5 45.5,-250.5 77.5,-250.5 77.5,-250.5 45.5,-250.5"/>
<polygon fill="none" stroke="#666666" points="45.5,-234 45.5,-283 77.5,-283 77.5,-234 45.5,-234"/>
</a>
</g>
</g>
<!-- Node3&#45;&gt;Node2 -->
<g id="edge2_Node000002_Node000003" class="edge">
<title>Node3&#45;&gt;Node2</title>
<g id="a_edge2_Node000002_Node000003"><a xlink:title=" ">
<path fill="none" stroke="orange" d="M61.5,-219.61C61.5,-207.51 61.5,-194.35 61.5,-183.12"/>
<polygon fill="orange" stroke="orange" points="58,-219.9 61.5,-229.9 65,-219.9 58,-219.9"/>
</a>
</g>
<text text-anchor="middle" x="100.5" y="-204" font-family="Helvetica,sans-Serif" font-size="10.00" fill="grey"> &lt; int, double &gt;</text>
</g>
</g>
</svg>
