<?xml version="1.0" encoding="UTF-8" standalone="no"?>
<!DOCTYPE svg PUBLIC "-//W3C//DTD SVG 1.1//EN"
 "http://www.w3.org/Graphics/SVG/1.1/DTD/svg11.dtd">
<!-- Generated by graphviz version 2.43.0 (0)
 -->
<!-- Title: MjDateTT::to_double Pages: 1 -->
<svg width="293pt" height="101pt"
 viewBox="0.00 0.00 293.00 101.00" xmlns="http://www.w3.org/2000/svg" xmlns:xlink="http://www.w3.org/1999/xlink">
<g id="graph0" class="graph" transform="scale(1 1) rotate(0) translate(4 97)">
<title>MjDateTT::to_double</title>
<!-- Node1 -->
<g id="Node000001" class="node">
<title>Node1</title>
<g id="a_Node000001"><a xlink:href="structMjDateTT.html#a59bc0eb943a43f7f024329249a73c2bb" target="_top" xlink:title=" ">
<path fill="#fff0f0" stroke="red" stroke-width="2" d="M278.67,-56C278.67,-56 174.33,-56 174.33,-56 171.17,-56 168,-52.83 168,-49.67 168,-49.67 168,-43.33 168,-43.33 168,-40.17 171.17,-37 174.33,-37 174.33,-37 278.67,-37 278.67,-37 281.83,-37 285,-40.17 285,-43.33 285,-43.33 285,-49.67 285,-49.67 285,-52.83 281.83,-56 278.67,-56"/>
<text text-anchor="middle" x="226.5" y="-44" font-family="Helvetica,sans-Serif" font-size="10.00">MjDateTT::to_double</text>
</a>
</g>
</g>
<!-- Node2 -->
<g id="Node000002" class="node">
<title>Node2</title>
<g id="a_Node000002"><a xlink:href="planets_8cpp.html#afbf4e9cc2d2186afa47982484f72b357" target="_top" xlink:title=" ">
<path fill="#fff0f0" stroke="red" d="M91.67,-93C91.67,-93 40.33,-93 40.33,-93 37.17,-93 34,-89.83 34,-86.67 34,-86.67 34,-80.33 34,-80.33 34,-77.17 37.17,-74 40.33,-74 40.33,-74 91.67,-74 91.67,-74 94.83,-74 98,-77.17 98,-80.33 98,-80.33 98,-86.67 98,-86.67 98,-89.83 94.83,-93 91.67,-93"/>
<text text-anchor="middle" x="66" y="-81" font-family="Helvetica,sans-Serif" font-size="10.00">jplEphPos</text>
</a>
</g>
</g>
<!-- Node1&#45;&gt;Node2 -->
<g id="edge1_Node000001_Node000002" class="edge">
<title>Node1&#45;&gt;Node2</title>
<g id="a_edge1_Node000001_Node000002"><a xlink:title=" ">
<path fill="none" stroke="#63b8ff" d="M174.91,-58.31C149.7,-64.2 120.02,-71.12 98.17,-76.22"/>
<polygon fill="#63b8ff" stroke="#63b8ff" points="175.74,-61.71 184.68,-56.03 174.15,-54.89 175.74,-61.71"/>
</a>
</g>
</g>
<!-- Node44 -->
<g id="Node000044" class="node">
<title>Node44</title>
<g id="a_Node000044"><a xlink:href="tides_8cpp.html#abbc26e24ca76fd096f95e3190906776f" target="_top" xlink:title="Displacement by ocean tide loading &#45; adjustments See ref [1] eq 7.16, [6] Note: This model/function d...">
<path fill="#fff0f0" stroke="red" d="M125.67,-56C125.67,-56 6.33,-56 6.33,-56 3.17,-56 0,-52.83 0,-49.67 0,-49.67 0,-43.33 0,-43.33 0,-40.17 3.17,-37 6.33,-37 6.33,-37 125.67,-37 125.67,-37 128.83,-37 132,-40.17 132,-43.33 132,-43.33 132,-49.67 132,-49.67 132,-52.83 128.83,-56 125.67,-56"/>
<text text-anchor="middle" x="66" y="-44" font-family="Helvetica,sans-Serif" font-size="10.00">tideOceanLoadAdjusted</text>
</a>
</g>
</g>
<!-- Node1&#45;&gt;Node44 -->
<g id="edge2_Node000001_Node000044" class="edge">
<title>Node1&#45;&gt;Node44</title>
<g id="a_edge2_Node000001_Node000044"><a xlink:title=" ">
<path fill="none" stroke="#63b8ff" d="M157.63,-46.5C149.18,-46.5 140.55,-46.5 132.14,-46.5"/>
<polygon fill="#63b8ff" stroke="#63b8ff" points="157.83,-50 167.83,-46.5 157.83,-43 157.83,-50"/>
</a>
</g>
</g>
<!-- Node46 -->
<g id="Node000046" class="node">
<title>Node46</title>
<g id="a_Node000046"><a xlink:href="tropGPT2_8cpp.html#a5653656bdc62fbfcc53b5ea4ac625fa0" target="_top" xlink:title="Troposphere zenith hydrastatic delay and mapping function.">
<path fill="#fff0f0" stroke="red" d="M90.67,-19C90.67,-19 41.33,-19 41.33,-19 38.17,-19 35,-15.83 35,-12.67 35,-12.67 35,-6.33 35,-6.33 35,-3.17 38.17,0 41.33,0 41.33,0 90.67,0 90.67,0 93.83,0 97,-3.17 97,-6.33 97,-6.33 97,-12.67 97,-12.67 97,-15.83 93.83,-19 90.67,-19"/>
<text text-anchor="middle" x="66" y="-7" font-family="Helvetica,sans-Serif" font-size="10.00">tropGPT2</text>
</a>
</g>
</g>
<!-- Node1&#45;&gt;Node46 -->
<g id="edge3_Node000001_Node000046" class="edge">
<title>Node1&#45;&gt;Node46</title>
<g id="a_edge3_Node000001_Node000046"><a xlink:title=" ">
<path fill="none" stroke="#63b8ff" d="M174.77,-34.66C149.2,-28.69 119.06,-21.65 97.17,-16.54"/>
<polygon fill="#63b8ff" stroke="#63b8ff" points="174.15,-38.11 184.68,-36.97 175.74,-31.29 174.15,-38.11"/>
</a>
</g>
</g>
</g>
</svg>
