<?xml version="1.0" encoding="UTF-8" standalone="no"?>
<!DOCTYPE svg PUBLIC "-//W3C//DTD SVG 1.1//EN"
 "http://www.w3.org/Graphics/SVG/1.1/DTD/svg11.dtd">
<!-- Generated by graphviz version 2.43.0 (0)
 -->
<!-- Title: IcdDecoder Pages: 1 -->
<svg width="161pt" height="536pt"
 viewBox="0.00 0.00 161.00 536.00" xmlns="http://www.w3.org/2000/svg" xmlns:xlink="http://www.w3.org/1999/xlink">
<g id="graph0" class="graph" transform="scale(1 1) rotate(0) translate(4 532)">
<title>IcdDecoder</title>
<!-- Node1 -->
<g id="Node000001" class="node">
<title>Node1</title>
<g id="a_Node000001"><a xlink:href="structIcdDecoder.html" target="_top" xlink:title=" ">
<path fill="white" stroke="#666666" stroke-width="2" d="M141,-528C141,-528 12,-528 12,-528 6,-528 0,-522 0,-516 0,-516 0,-408 0,-408 0,-402 6,-396 12,-396 12,-396 141,-396 141,-396 147,-396 153,-402 153,-408 153,-408 153,-516 153,-516 153,-522 147,-528 141,-528"/>
<text text-anchor="start" x="49.5" y="-512" font-family="Helvetica,sans-Serif" font-size="10.00">IcdDecoder</text>
<text text-anchor="start" x="12.5" y="-497" font-family="Helvetica,sans-Serif" font-size="10.00">+</text>
<text text-anchor="start" x="25.5" y="-497" font-family="Helvetica,sans-Serif" font-size="10.00">subframeMap</text>
<text text-anchor="start" x="12.5" y="-482" font-family="Helvetica,sans-Serif" font-size="10.00">+</text>
<text text-anchor="start" x="25.5" y="-482" font-family="Helvetica,sans-Serif" font-size="10.00">decodeGpsTlmWord()</text>
<text text-anchor="start" x="12.5" y="-467" font-family="Helvetica,sans-Serif" font-size="10.00">+</text>
<text text-anchor="start" x="25.5" y="-467" font-family="Helvetica,sans-Serif" font-size="10.00">decodeGpsHowWord()</text>
<text text-anchor="start" x="12.5" y="-452" font-family="Helvetica,sans-Serif" font-size="10.00">+</text>
<text text-anchor="start" x="25.5" y="-452" font-family="Helvetica,sans-Serif" font-size="10.00">decodeGPSSubframe1()</text>
<text text-anchor="start" x="12.5" y="-437" font-family="Helvetica,sans-Serif" font-size="10.00">+</text>
<text text-anchor="start" x="25.5" y="-437" font-family="Helvetica,sans-Serif" font-size="10.00">decodeGPSSubframe2()</text>
<text text-anchor="start" x="12.5" y="-422" font-family="Helvetica,sans-Serif" font-size="10.00">+</text>
<text text-anchor="start" x="25.5" y="-422" font-family="Helvetica,sans-Serif" font-size="10.00">decodeGPSSubframe3()</text>
<text text-anchor="start" x="12.5" y="-407" font-family="Helvetica,sans-Serif" font-size="10.00">+</text>
<text text-anchor="start" x="25.5" y="-407" font-family="Helvetica,sans-Serif" font-size="10.00">decodeGpsSubframe()</text>
<polygon fill="#666666" stroke="#666666" points="8.5,-507 8.5,-507 145.5,-507 145.5,-507 8.5,-507"/>
<polygon fill="#666666" stroke="#666666" points="8.5,-492 8.5,-492 23.5,-492 23.5,-492 8.5,-492"/>
<polygon fill="#666666" stroke="#666666" points="23.5,-492 23.5,-492 145.5,-492 145.5,-492 23.5,-492"/>
<polygon fill="none" stroke="#666666" points="8,-400 8,-524 145,-524 145,-400 8,-400"/>
</a>
</g>
</g>
<!-- Node2 -->
<g id="Node000002" class="node">
<title>Node2</title>
<g id="a_Node000002"><a xlink:href="structUbxDecoder.html" target="_top" xlink:title=" ">
<path fill="white" stroke="#666666" d="M131.5,-360C131.5,-360 21.5,-360 21.5,-360 15.5,-360 9.5,-354 9.5,-348 9.5,-348 9.5,-120 9.5,-120 9.5,-114 15.5,-108 21.5,-108 21.5,-108 131.5,-108 131.5,-108 137.5,-108 143.5,-114 143.5,-120 143.5,-120 143.5,-348 143.5,-348 143.5,-354 137.5,-360 131.5,-360"/>
<text text-anchor="start" x="46" y="-344" font-family="Helvetica,sans-Serif" font-size="10.00">UbxDecoder</text>
<text text-anchor="start" x="21.5" y="-329" font-family="Helvetica,sans-Serif" font-size="10.00">+</text>
<text text-anchor="start" x="34.5" y="-329" font-family="Helvetica,sans-Serif" font-size="10.00">lastTimeTag</text>
<text text-anchor="start" x="21.5" y="-314" font-family="Helvetica,sans-Serif" font-size="10.00">+</text>
<text text-anchor="start" x="34.5" y="-314" font-family="Helvetica,sans-Serif" font-size="10.00">lastTime</text>
<text text-anchor="start" x="21.5" y="-299" font-family="Helvetica,sans-Serif" font-size="10.00">+</text>
<text text-anchor="start" x="34.5" y="-299" font-family="Helvetica,sans-Serif" font-size="10.00">recId</text>
<text text-anchor="start" x="21.5" y="-284" font-family="Helvetica,sans-Serif" font-size="10.00">+</text>
<text text-anchor="start" x="34.5" y="-284" font-family="Helvetica,sans-Serif" font-size="10.00">raw_ubx_filename</text>
<text text-anchor="start" x="21.5" y="-269" font-family="Helvetica,sans-Serif" font-size="10.00">+</text>
<text text-anchor="start" x="34.5" y="-269" font-family="Helvetica,sans-Serif" font-size="10.00">gyroDataMaps</text>
<text text-anchor="start" x="21.5" y="-254" font-family="Helvetica,sans-Serif" font-size="10.00">+</text>
<text text-anchor="start" x="34.5" y="-254" font-family="Helvetica,sans-Serif" font-size="10.00">acclDataMaps</text>
<text text-anchor="start" x="21.5" y="-239" font-family="Helvetica,sans-Serif" font-size="10.00">+</text>
<text text-anchor="start" x="34.5" y="-239" font-family="Helvetica,sans-Serif" font-size="10.00">tempDataMaps</text>
<text text-anchor="start" x="21.5" y="-224" font-family="Helvetica,sans-Serif" font-size="10.00">+</text>
<text text-anchor="start" x="34.5" y="-224" font-family="Helvetica,sans-Serif" font-size="10.00">decodeEphFrames()</text>
<text text-anchor="start" x="21.5" y="-209" font-family="Helvetica,sans-Serif" font-size="10.00">+</text>
<text text-anchor="start" x="34.5" y="-209" font-family="Helvetica,sans-Serif" font-size="10.00">decodeRAWX()</text>
<text text-anchor="start" x="21.5" y="-194" font-family="Helvetica,sans-Serif" font-size="10.00">+</text>
<text text-anchor="start" x="34.5" y="-194" font-family="Helvetica,sans-Serif" font-size="10.00">decodeSFRBX()</text>
<text text-anchor="start" x="21.5" y="-179" font-family="Helvetica,sans-Serif" font-size="10.00">+</text>
<text text-anchor="start" x="34.5" y="-179" font-family="Helvetica,sans-Serif" font-size="10.00">decodeMEAS()</text>
<text text-anchor="start" x="21.5" y="-164" font-family="Helvetica,sans-Serif" font-size="10.00">+</text>
<text text-anchor="start" x="34.5" y="-164" font-family="Helvetica,sans-Serif" font-size="10.00">decodeRXM()</text>
<text text-anchor="start" x="21.5" y="-149" font-family="Helvetica,sans-Serif" font-size="10.00">+</text>
<text text-anchor="start" x="34.5" y="-149" font-family="Helvetica,sans-Serif" font-size="10.00">decodeESF()</text>
<text text-anchor="start" x="21.5" y="-134" font-family="Helvetica,sans-Serif" font-size="10.00">+</text>
<text text-anchor="start" x="34.5" y="-134" font-family="Helvetica,sans-Serif" font-size="10.00">decode()</text>
<text text-anchor="start" x="21.5" y="-119" font-family="Helvetica,sans-Serif" font-size="10.00">+</text>
<text text-anchor="start" x="34.5" y="-119" font-family="Helvetica,sans-Serif" font-size="10.00">recordFrame()</text>
<polygon fill="#666666" stroke="#666666" points="17.5,-339 17.5,-339 135.5,-339 135.5,-339 17.5,-339"/>
<polygon fill="#666666" stroke="#666666" points="17.5,-234 17.5,-234 32.5,-234 32.5,-234 17.5,-234"/>
<polygon fill="#666666" stroke="#666666" points="32.5,-234 32.5,-234 135.5,-234 135.5,-234 32.5,-234"/>
<polygon fill="none" stroke="#666666" points="17.5,-112 17.5,-356 135.5,-356 135.5,-112 17.5,-112"/>
</a>
</g>
</g>
<!-- Node1&#45;&gt;Node2 -->
<g id="edge1_Node000001_Node000002" class="edge">
<title>Node1&#45;&gt;Node2</title>
<g id="a_edge1_Node000001_Node000002"><a xlink:title=" ">
<path fill="none" stroke="#63b8ff" d="M76.5,-385.91C76.5,-377.56 76.5,-368.89 76.5,-360.12"/>
<polygon fill="none" stroke="#63b8ff" points="73,-385.93 76.5,-395.93 80,-385.93 73,-385.93"/>
</a>
</g>
</g>
<!-- Node3 -->
<g id="Node000003" class="node">
<title>Node3</title>
<g id="a_Node000003"><a xlink:href="structUbxParser.html" target="_top" xlink:title=" ">
<path fill="white" stroke="#666666" d="M113.5,-72C113.5,-72 39.5,-72 39.5,-72 33.5,-72 27.5,-66 27.5,-60 27.5,-60 27.5,-12 27.5,-12 27.5,-6 33.5,0 39.5,0 39.5,0 113.5,0 113.5,0 119.5,0 125.5,-6 125.5,-12 125.5,-12 125.5,-60 125.5,-60 125.5,-66 119.5,-72 113.5,-72"/>
<text text-anchor="start" x="51.5" y="-56" font-family="Helvetica,sans-Serif" font-size="10.00">UbxParser</text>
<text text-anchor="start" x="74.5" y="-41" font-family="Helvetica,sans-Serif" font-size="10.00"> </text>
<text text-anchor="start" x="39.5" y="-26" font-family="Helvetica,sans-Serif" font-size="10.00">+</text>
<text text-anchor="start" x="52.5" y="-26" font-family="Helvetica,sans-Serif" font-size="10.00">parse()</text>
<text text-anchor="start" x="39.5" y="-11" font-family="Helvetica,sans-Serif" font-size="10.00">+</text>
<text text-anchor="start" x="52.5" y="-11" font-family="Helvetica,sans-Serif" font-size="10.00">parserType()</text>
<polygon fill="#666666" stroke="#666666" points="35.5,-51 35.5,-51 117.5,-51 117.5,-51 35.5,-51"/>
<polygon fill="#666666" stroke="#666666" points="35.5,-36 35.5,-36 117.5,-36 117.5,-36 35.5,-36"/>
<polygon fill="none" stroke="#666666" points="35.5,-4 35.5,-68 117.5,-68 117.5,-4 35.5,-4"/>
</a>
</g>
</g>
<!-- Node2&#45;&gt;Node3 -->
<g id="edge2_Node000002_Node000003" class="edge">
<title>Node2&#45;&gt;Node3</title>
<g id="a_edge2_Node000002_Node000003"><a xlink:title=" ">
<path fill="none" stroke="#63b8ff" d="M76.5,-97.64C76.5,-88.48 76.5,-79.84 76.5,-72.1"/>
<polygon fill="none" stroke="#63b8ff" points="73,-97.76 76.5,-107.76 80,-97.76 73,-97.76"/>
</a>
</g>
</g>
</g>
</svg>
