<?xml version="1.0" encoding="UTF-8" standalone="no"?>
<!DOCTYPE svg PUBLIC "-//W3C//DTD SVG 1.1//EN"
 "http://www.w3.org/Graphics/SVG/1.1/DTD/svg11.dtd">
<!-- Generated by graphviz version 2.43.0 (0)
 -->
<!-- Title: Aod::interpolate Pages: 1 -->
<svg width="276pt" height="38pt"
 viewBox="0.00 0.00 276.00 38.00" xmlns="http://www.w3.org/2000/svg" xmlns:xlink="http://www.w3.org/1999/xlink">
<g id="graph0" class="graph" transform="scale(1 1) rotate(0) translate(4 34)">
<title>Aod::interpolate</title>
<!-- Node1 -->
<g id="Node000001" class="node">
<title>Node1</title>
<g id="a_Node000001"><a xlink:href="structAod.html#ab1e9e34d67412cf24c25d13a264a2321" target="_top" xlink:title=" ">
<path fill="#fff0f0" stroke="red" stroke-width="2" d="M261.67,-24.5C261.67,-24.5 179.33,-24.5 179.33,-24.5 176.17,-24.5 173,-21.33 173,-18.17 173,-18.17 173,-11.83 173,-11.83 173,-8.67 176.17,-5.5 179.33,-5.5 179.33,-5.5 261.67,-5.5 261.67,-5.5 264.83,-5.5 268,-8.67 268,-11.83 268,-11.83 268,-18.17 268,-18.17 268,-21.33 264.83,-24.5 261.67,-24.5"/>
<text text-anchor="middle" x="220.5" y="-12.5" font-family="Helvetica,sans-Serif" font-size="10.00">Aod::interpolate</text>
</a>
</g>
</g>
<!-- Node2 -->
<g id="Node000002" class="node">
<title>Node2</title>
<g id="a_Node000002"><a xlink:href="structOrbitIntegrator.html#a58c972cf5ddac52358ccbd8f7c34b9cc" target="_top" xlink:title=" ">
<path fill="#fff0f0" stroke="red" d="M127,-30C127,-30 10,-30 10,-30 5,-30 0,-25 0,-20 0,-20 0,-10 0,-10 0,-5 5,0 10,0 10,0 127,0 127,0 132,0 137,-5 137,-10 137,-10 137,-20 137,-20 137,-25 132,-30 127,-30"/>
<text text-anchor="start" x="8" y="-18" font-family="Helvetica,sans-Serif" font-size="10.00">OrbitIntegrator::compute</text>
<text text-anchor="middle" x="68.5" y="-7" font-family="Helvetica,sans-Serif" font-size="10.00">Common</text>
</a>
</g>
</g>
<!-- Node1&#45;&gt;Node2 -->
<g id="edge1_Node000001_Node000002" class="edge">
<title>Node1&#45;&gt;Node2</title>
<g id="a_edge1_Node000001_Node000002"><a xlink:title=" ">
<path fill="none" stroke="#63b8ff" d="M162.79,-15C154.38,-15 145.64,-15 137.03,-15"/>
<polygon fill="#63b8ff" stroke="#63b8ff" points="162.86,-18.5 172.86,-15 162.86,-11.5 162.86,-18.5"/>
</a>
</g>
</g>
</g>
</svg>
