<?xml version="1.0" encoding="UTF-8" standalone="no"?>
<!DOCTYPE svg PUBLIC "-//W3C//DTD SVG 1.1//EN"
 "http://www.w3.org/Graphics/SVG/1.1/DTD/svg11.dtd">
<!-- Generated by graphviz version 2.43.0 (0)
 -->
<!-- Title: SinexSolStatistic Pages: 1 -->
<svg width="116pt" height="214pt"
 viewBox="0.00 0.00 116.00 214.00" xmlns="http://www.w3.org/2000/svg" xmlns:xlink="http://www.w3.org/1999/xlink">
<g id="graph0" class="graph" transform="scale(1 1) rotate(0) translate(4 210)">
<title>SinexSolStatistic</title>
<!-- Node1 -->
<g id="Node000001" class="node">
<title>Node1</title>
<g id="a_Node000001"><a xlink:href="structSinexSolStatistic.html" target="_top" xlink:title=" ">
<path fill="white" stroke="#666666" stroke-width="2" d="M96,-102C96,-102 12,-102 12,-102 6,-102 0,-96 0,-90 0,-90 0,-12 0,-12 0,-6 6,0 12,0 12,0 96,0 96,0 102,0 108,-6 108,-12 108,-12 108,-90 108,-90 108,-96 102,-102 96,-102"/>
<text text-anchor="start" x="13" y="-86" font-family="Helvetica,sans-Serif" font-size="10.00">SinexSolStatistic</text>
<text text-anchor="start" x="22.5" y="-71" font-family="Helvetica,sans-Serif" font-size="10.00">+</text>
<text text-anchor="start" x="46" y="-71" font-family="Helvetica,sans-Serif" font-size="10.00">etype</text>
<text text-anchor="start" x="22.5" y="-56" font-family="Helvetica,sans-Serif" font-size="10.00">+</text>
<text text-anchor="start" x="46" y="-56" font-family="Helvetica,sans-Serif" font-size="10.00">ival</text>
<text text-anchor="start" x="22.5" y="-41" font-family="Helvetica,sans-Serif" font-size="10.00">+</text>
<text text-anchor="start" x="46" y="-41" font-family="Helvetica,sans-Serif" font-size="10.00">dval</text>
<text text-anchor="start" x="22.5" y="-26" font-family="Helvetica,sans-Serif" font-size="10.00">+</text>
<text text-anchor="start" x="46" y="-26" font-family="Helvetica,sans-Serif" font-size="10.00">value</text>
<text text-anchor="start" x="52" y="-11" font-family="Helvetica,sans-Serif" font-size="10.00"> </text>
<polygon fill="#666666" stroke="#666666" points="8,-81 8,-81 100,-81 100,-81 8,-81"/>
<polygon fill="#666666" stroke="#666666" points="8,-21 8,-21 44,-21 44,-21 8,-21"/>
<polygon fill="#666666" stroke="#666666" points="44,-21 44,-21 100,-21 100,-21 44,-21"/>
<polygon fill="none" stroke="#666666" points="8,-4 8,-98 100,-98 100,-4 8,-4"/>
</a>
</g>
</g>
<!-- Node2 -->
<g id="Node000002" class="node">
<title>Node2</title>
<g id="a_Node000002"><a xlink:title=" ">
<path fill="white" stroke="#666666" d="M69,-206C69,-206 39,-206 39,-206 33,-206 27,-200 27,-194 27,-194 27,-161 27,-161 27,-155 33,-149 39,-149 39,-149 69,-149 69,-149 75,-149 81,-155 81,-161 81,-161 81,-194 81,-194 81,-200 75,-206 69,-206"/>
<text text-anchor="start" x="40" y="-189.5" font-family="Helvetica,sans-Serif" font-size="10.00">string</text>
<text text-anchor="start" x="52" y="-174.5" font-family="Helvetica,sans-Serif" font-size="10.00"> </text>
<text text-anchor="start" x="52" y="-159.5" font-family="Helvetica,sans-Serif" font-size="10.00"> </text>
<polygon fill="#666666" stroke="#666666" points="35,-184.5 35,-184.5 73,-184.5 73,-184.5 35,-184.5"/>
<polygon fill="#666666" stroke="#666666" points="35,-169.5 35,-169.5 73,-169.5 73,-169.5 35,-169.5"/>
<polygon fill="none" stroke="#666666" points="35,-153 35,-202 73,-202 73,-153 35,-153"/>
</a>
</g>
</g>
<!-- Node2&#45;&gt;Node1 -->
<g id="edge1_Node000001_Node000002" class="edge">
<title>Node2&#45;&gt;Node1</title>
<g id="a_edge1_Node000001_Node000002"><a xlink:title=" ">
<path fill="none" stroke="#63b8ff" d="M54,-148.87C54,-138.55 54,-126.38 54,-114.2"/>
<polygon fill="none" stroke="#63b8ff" points="54,-114.1 50,-108.1 54,-102.1 58,-108.1 54,-114.1"/>
</a>
</g>
<text text-anchor="middle" x="74" y="-123" font-family="Helvetica,sans-Serif" font-size="10.00" fill="grey"> +name</text>
</g>
</g>
</svg>
