<?xml version="1.0" encoding="UTF-8" standalone="no"?>
<!DOCTYPE svg PUBLIC "-//W3C//DTD SVG 1.1//EN"
 "http://www.w3.org/Graphics/SVG/1.1/DTD/svg11.dtd">
<!-- Generated by graphviz version 2.43.0 (0)
 -->
<!-- Title: Eph Pages: 1 -->
<svg width="467pt" height="1412pt"
 viewBox="0.00 0.00 467.00 1412.00" xmlns="http://www.w3.org/2000/svg" xmlns:xlink="http://www.w3.org/1999/xlink">
<g id="graph0" class="graph" transform="scale(1 1) rotate(0) translate(4 1408)">
<title>Eph</title>
<!-- Node1 -->
<g id="Node000001" class="node">
<title>Node1</title>
<g id="a_Node000001"><a xlink:href="structEph.html" target="_top" xlink:title="GPS/QZS/GAL/BDS broadcast ephemeris.">
<path fill="white" stroke="#666666" stroke-width="2" d="M199,-537C199,-537 117,-537 117,-537 111,-537 105,-531 105,-525 105,-525 105,-12 105,-12 105,-6 111,0 117,0 117,0 199,0 199,0 205,0 211,-6 211,-12 211,-12 211,-525 211,-525 211,-531 205,-537 199,-537"/>
<text text-anchor="start" x="148.5" y="-520.5" font-family="Helvetica,sans-Serif" font-size="10.00">Eph</text>
<text text-anchor="start" x="117" y="-505.5" font-family="Helvetica,sans-Serif" font-size="10.00">+</text>
<text text-anchor="start" x="130" y="-505.5" font-family="Helvetica,sans-Serif" font-size="10.00">type</text>
<text text-anchor="start" x="117" y="-490.5" font-family="Helvetica,sans-Serif" font-size="10.00">+</text>
<text text-anchor="start" x="130" y="-490.5" font-family="Helvetica,sans-Serif" font-size="10.00">iode</text>
<text text-anchor="start" x="117" y="-475.5" font-family="Helvetica,sans-Serif" font-size="10.00">+</text>
<text text-anchor="start" x="130" y="-475.5" font-family="Helvetica,sans-Serif" font-size="10.00">iodc</text>
<text text-anchor="start" x="117" y="-460.5" font-family="Helvetica,sans-Serif" font-size="10.00">+</text>
<text text-anchor="start" x="130" y="-460.5" font-family="Helvetica,sans-Serif" font-size="10.00">aode</text>
<text text-anchor="start" x="117" y="-445.5" font-family="Helvetica,sans-Serif" font-size="10.00">+</text>
<text text-anchor="start" x="130" y="-445.5" font-family="Helvetica,sans-Serif" font-size="10.00">aodc</text>
<text text-anchor="start" x="117" y="-430.5" font-family="Helvetica,sans-Serif" font-size="10.00">+</text>
<text text-anchor="start" x="130" y="-430.5" font-family="Helvetica,sans-Serif" font-size="10.00">sva</text>
<text text-anchor="start" x="117" y="-415.5" font-family="Helvetica,sans-Serif" font-size="10.00">+</text>
<text text-anchor="start" x="130" y="-415.5" font-family="Helvetica,sans-Serif" font-size="10.00">svh</text>
<text text-anchor="start" x="117" y="-400.5" font-family="Helvetica,sans-Serif" font-size="10.00">+</text>
<text text-anchor="start" x="130" y="-400.5" font-family="Helvetica,sans-Serif" font-size="10.00">week</text>
<text text-anchor="start" x="117" y="-385.5" font-family="Helvetica,sans-Serif" font-size="10.00">+</text>
<text text-anchor="start" x="130" y="-385.5" font-family="Helvetica,sans-Serif" font-size="10.00">code</text>
<text text-anchor="start" x="117" y="-370.5" font-family="Helvetica,sans-Serif" font-size="10.00">+</text>
<text text-anchor="start" x="130" y="-370.5" font-family="Helvetica,sans-Serif" font-size="10.00">flag</text>
<text text-anchor="start" x="117" y="-355.5" font-family="Helvetica,sans-Serif" font-size="10.00">+</text>
<text text-anchor="start" x="130" y="-355.5" font-family="Helvetica,sans-Serif" font-size="10.00">howTow</text>
<text text-anchor="start" x="117" y="-340.5" font-family="Helvetica,sans-Serif" font-size="10.00">+</text>
<text text-anchor="start" x="130" y="-340.5" font-family="Helvetica,sans-Serif" font-size="10.00">toes</text>
<text text-anchor="start" x="117" y="-325.5" font-family="Helvetica,sans-Serif" font-size="10.00">+</text>
<text text-anchor="start" x="130" y="-325.5" font-family="Helvetica,sans-Serif" font-size="10.00">fit</text>
<text text-anchor="start" x="117" y="-310.5" font-family="Helvetica,sans-Serif" font-size="10.00">+</text>
<text text-anchor="start" x="130" y="-310.5" font-family="Helvetica,sans-Serif" font-size="10.00">f0</text>
<text text-anchor="start" x="117" y="-295.5" font-family="Helvetica,sans-Serif" font-size="10.00">+</text>
<text text-anchor="start" x="130" y="-295.5" font-family="Helvetica,sans-Serif" font-size="10.00">f1</text>
<text text-anchor="start" x="117" y="-280.5" font-family="Helvetica,sans-Serif" font-size="10.00">+</text>
<text text-anchor="start" x="130" y="-280.5" font-family="Helvetica,sans-Serif" font-size="10.00">f2</text>
<text text-anchor="start" x="117" y="-265.5" font-family="Helvetica,sans-Serif" font-size="10.00">+</text>
<text text-anchor="start" x="130" y="-265.5" font-family="Helvetica,sans-Serif" font-size="10.00">tgd</text>
<text text-anchor="start" x="117" y="-250.5" font-family="Helvetica,sans-Serif" font-size="10.00">+</text>
<text text-anchor="start" x="130" y="-250.5" font-family="Helvetica,sans-Serif" font-size="10.00">orb</text>
<text text-anchor="start" x="117" y="-235.5" font-family="Helvetica,sans-Serif" font-size="10.00">+</text>
<text text-anchor="start" x="130" y="-235.5" font-family="Helvetica,sans-Serif" font-size="10.00">tops</text>
<text text-anchor="start" x="117" y="-220.5" font-family="Helvetica,sans-Serif" font-size="10.00">+</text>
<text text-anchor="start" x="130" y="-220.5" font-family="Helvetica,sans-Serif" font-size="10.00">ura</text>
<text text-anchor="start" x="117" y="-205.5" font-family="Helvetica,sans-Serif" font-size="10.00">+</text>
<text text-anchor="start" x="130" y="-205.5" font-family="Helvetica,sans-Serif" font-size="10.00">isc</text>
<text text-anchor="start" x="117" y="-190.5" font-family="Helvetica,sans-Serif" font-size="10.00">+</text>
<text text-anchor="start" x="130" y="-190.5" font-family="Helvetica,sans-Serif" font-size="10.00">sis</text>
<text text-anchor="start" x="117" y="-175.5" font-family="Helvetica,sans-Serif" font-size="10.00">+</text>
<text text-anchor="start" x="130" y="-175.5" font-family="Helvetica,sans-Serif" font-size="10.00">tocs</text>
<text text-anchor="start" x="117" y="-160.5" font-family="Helvetica,sans-Serif" font-size="10.00">+</text>
<text text-anchor="start" x="130" y="-160.5" font-family="Helvetica,sans-Serif" font-size="10.00">weekRollOver</text>
<text text-anchor="start" x="117" y="-145.5" font-family="Helvetica,sans-Serif" font-size="10.00">+</text>
<text text-anchor="start" x="130" y="-145.5" font-family="Helvetica,sans-Serif" font-size="10.00">sqrtA</text>
<text text-anchor="start" x="117" y="-130.5" font-family="Helvetica,sans-Serif" font-size="10.00">+</text>
<text text-anchor="start" x="130" y="-130.5" font-family="Helvetica,sans-Serif" font-size="10.00">e5a_hs</text>
<text text-anchor="start" x="117" y="-115.5" font-family="Helvetica,sans-Serif" font-size="10.00">+</text>
<text text-anchor="start" x="130" y="-115.5" font-family="Helvetica,sans-Serif" font-size="10.00">e5a_dvs</text>
<text text-anchor="start" x="117" y="-100.5" font-family="Helvetica,sans-Serif" font-size="10.00">+</text>
<text text-anchor="start" x="130" y="-100.5" font-family="Helvetica,sans-Serif" font-size="10.00">e5b_hs</text>
<text text-anchor="start" x="117" y="-85.5" font-family="Helvetica,sans-Serif" font-size="10.00">+</text>
<text text-anchor="start" x="130" y="-85.5" font-family="Helvetica,sans-Serif" font-size="10.00">e5b_dvs</text>
<text text-anchor="start" x="117" y="-70.5" font-family="Helvetica,sans-Serif" font-size="10.00">+</text>
<text text-anchor="start" x="130" y="-70.5" font-family="Helvetica,sans-Serif" font-size="10.00">e1_hs</text>
<text text-anchor="start" x="117" y="-55.5" font-family="Helvetica,sans-Serif" font-size="10.00">+</text>
<text text-anchor="start" x="130" y="-55.5" font-family="Helvetica,sans-Serif" font-size="10.00">e1_dvs</text>
<text text-anchor="start" x="117" y="-40.5" font-family="Helvetica,sans-Serif" font-size="10.00">+</text>
<text text-anchor="start" x="130" y="-40.5" font-family="Helvetica,sans-Serif" font-size="10.00">ttms</text>
<text text-anchor="start" x="117" y="-25.5" font-family="Helvetica,sans-Serif" font-size="10.00">+</text>
<text text-anchor="start" x="130" y="-25.5" font-family="Helvetica,sans-Serif" font-size="10.00">fitFlag</text>
<text text-anchor="start" x="117" y="-10.5" font-family="Helvetica,sans-Serif" font-size="10.00">+</text>
<text text-anchor="start" x="130" y="-10.5" font-family="Helvetica,sans-Serif" font-size="10.00">serialize()</text>
<polygon fill="#666666" stroke="#666666" points="113,-515.5 113,-515.5 203,-515.5 203,-515.5 113,-515.5"/>
<polygon fill="#666666" stroke="#666666" points="113,-20.5 113,-20.5 128,-20.5 128,-20.5 113,-20.5"/>
<polygon fill="#666666" stroke="#666666" points="128,-20.5 128,-20.5 203,-20.5 203,-20.5 128,-20.5"/>
<polygon fill="none" stroke="#666666" points="113,-4 113,-533 203,-533 203,-4 113,-4"/>
</a>
</g>
</g>
<!-- Node2 -->
<g id="Node000002" class="node">
<title>Node2</title>
<g id="a_Node000002"><a xlink:href="structBrdcEph.html" target="_top" xlink:title=" ">
<path fill="white" stroke="#666666" d="M54,-981.5C54,-981.5 12,-981.5 12,-981.5 6,-981.5 0,-975.5 0,-969.5 0,-969.5 0,-936.5 0,-936.5 0,-930.5 6,-924.5 12,-924.5 12,-924.5 54,-924.5 54,-924.5 60,-924.5 66,-930.5 66,-936.5 66,-936.5 66,-969.5 66,-969.5 66,-975.5 60,-981.5 54,-981.5"/>
<text text-anchor="start" x="13" y="-965" font-family="Helvetica,sans-Serif" font-size="10.00">BrdcEph</text>
<text text-anchor="start" x="31" y="-950" font-family="Helvetica,sans-Serif" font-size="10.00"> </text>
<text text-anchor="start" x="31" y="-935" font-family="Helvetica,sans-Serif" font-size="10.00"> </text>
<polygon fill="#666666" stroke="#666666" points="8,-960 8,-960 58,-960 58,-960 8,-960"/>
<polygon fill="#666666" stroke="#666666" points="8,-945 8,-945 58,-945 58,-945 8,-945"/>
<polygon fill="none" stroke="#666666" points="8,-928.5 8,-977.5 58,-977.5 58,-928.5 8,-928.5"/>
</a>
</g>
</g>
<!-- Node2&#45;&gt;Node1 -->
<g id="edge1_Node000001_Node000002" class="edge">
<title>Node2&#45;&gt;Node1</title>
<g id="a_edge1_Node000001_Node000002"><a xlink:title=" ">
<path fill="none" stroke="#63b8ff" d="M36.36,-914.37C42.21,-852.17 55.55,-724.13 75,-617 83.39,-570.77 94.09,-521.47 104.98,-474.97"/>
<polygon fill="none" stroke="#63b8ff" points="32.86,-914.21 35.42,-924.49 39.83,-914.85 32.86,-914.21"/>
</a>
</g>
</g>
<!-- Node3 -->
<g id="Node000003" class="node">
<title>Node3</title>
<g id="a_Node000003"><a xlink:href="structKeplerEph.html" target="_top" xlink:title=" ">
<path fill="white" stroke="#666666" d="M147.5,-1101.5C147.5,-1101.5 96.5,-1101.5 96.5,-1101.5 90.5,-1101.5 84.5,-1095.5 84.5,-1089.5 84.5,-1089.5 84.5,-816.5 84.5,-816.5 84.5,-810.5 90.5,-804.5 96.5,-804.5 96.5,-804.5 147.5,-804.5 147.5,-804.5 153.5,-804.5 159.5,-810.5 159.5,-816.5 159.5,-816.5 159.5,-1089.5 159.5,-1089.5 159.5,-1095.5 153.5,-1101.5 147.5,-1101.5"/>
<text text-anchor="start" x="98" y="-1085" font-family="Helvetica,sans-Serif" font-size="10.00">KeplerEph</text>
<text text-anchor="start" x="98.5" y="-1070" font-family="Helvetica,sans-Serif" font-size="10.00">+</text>
<text text-anchor="start" x="113" y="-1070" font-family="Helvetica,sans-Serif" font-size="10.00">A</text>
<text text-anchor="start" x="98.5" y="-1055" font-family="Helvetica,sans-Serif" font-size="10.00">+</text>
<text text-anchor="start" x="113" y="-1055" font-family="Helvetica,sans-Serif" font-size="10.00">e</text>
<text text-anchor="start" x="98.5" y="-1040" font-family="Helvetica,sans-Serif" font-size="10.00">+</text>
<text text-anchor="start" x="113" y="-1040" font-family="Helvetica,sans-Serif" font-size="10.00">i0</text>
<text text-anchor="start" x="98.5" y="-1025" font-family="Helvetica,sans-Serif" font-size="10.00">+</text>
<text text-anchor="start" x="113" y="-1025" font-family="Helvetica,sans-Serif" font-size="10.00">OMG0</text>
<text text-anchor="start" x="98.5" y="-1010" font-family="Helvetica,sans-Serif" font-size="10.00">+</text>
<text text-anchor="start" x="113" y="-1010" font-family="Helvetica,sans-Serif" font-size="10.00">omg</text>
<text text-anchor="start" x="98.5" y="-995" font-family="Helvetica,sans-Serif" font-size="10.00">+</text>
<text text-anchor="start" x="113" y="-995" font-family="Helvetica,sans-Serif" font-size="10.00">M0</text>
<text text-anchor="start" x="98.5" y="-980" font-family="Helvetica,sans-Serif" font-size="10.00">+</text>
<text text-anchor="start" x="113" y="-980" font-family="Helvetica,sans-Serif" font-size="10.00">deln</text>
<text text-anchor="start" x="98.5" y="-965" font-family="Helvetica,sans-Serif" font-size="10.00">+</text>
<text text-anchor="start" x="113" y="-965" font-family="Helvetica,sans-Serif" font-size="10.00">OMGd</text>
<text text-anchor="start" x="98.5" y="-950" font-family="Helvetica,sans-Serif" font-size="10.00">+</text>
<text text-anchor="start" x="113" y="-950" font-family="Helvetica,sans-Serif" font-size="10.00">idot</text>
<text text-anchor="start" x="98.5" y="-935" font-family="Helvetica,sans-Serif" font-size="10.00">+</text>
<text text-anchor="start" x="113" y="-935" font-family="Helvetica,sans-Serif" font-size="10.00">crc</text>
<text text-anchor="start" x="98.5" y="-920" font-family="Helvetica,sans-Serif" font-size="10.00">+</text>
<text text-anchor="start" x="113" y="-920" font-family="Helvetica,sans-Serif" font-size="10.00">crs</text>
<text text-anchor="start" x="98.5" y="-905" font-family="Helvetica,sans-Serif" font-size="10.00">+</text>
<text text-anchor="start" x="113" y="-905" font-family="Helvetica,sans-Serif" font-size="10.00">cuc</text>
<text text-anchor="start" x="98.5" y="-890" font-family="Helvetica,sans-Serif" font-size="10.00">+</text>
<text text-anchor="start" x="113" y="-890" font-family="Helvetica,sans-Serif" font-size="10.00">cus</text>
<text text-anchor="start" x="98.5" y="-875" font-family="Helvetica,sans-Serif" font-size="10.00">+</text>
<text text-anchor="start" x="113" y="-875" font-family="Helvetica,sans-Serif" font-size="10.00">cic</text>
<text text-anchor="start" x="98.5" y="-860" font-family="Helvetica,sans-Serif" font-size="10.00">+</text>
<text text-anchor="start" x="113" y="-860" font-family="Helvetica,sans-Serif" font-size="10.00">cis</text>
<text text-anchor="start" x="98.5" y="-845" font-family="Helvetica,sans-Serif" font-size="10.00">+</text>
<text text-anchor="start" x="113" y="-845" font-family="Helvetica,sans-Serif" font-size="10.00">dn0d</text>
<text text-anchor="start" x="98.5" y="-830" font-family="Helvetica,sans-Serif" font-size="10.00">+</text>
<text text-anchor="start" x="113" y="-830" font-family="Helvetica,sans-Serif" font-size="10.00">Adot</text>
<text text-anchor="start" x="120.5" y="-815" font-family="Helvetica,sans-Serif" font-size="10.00"> </text>
<polygon fill="#666666" stroke="#666666" points="93,-1080 93,-1080 152,-1080 152,-1080 93,-1080"/>
<polygon fill="#666666" stroke="#666666" points="93,-825 93,-825 111,-825 111,-825 93,-825"/>
<polygon fill="#666666" stroke="#666666" points="111,-825 111,-825 152,-825 152,-825 111,-825"/>
<polygon fill="none" stroke="#666666" points="92.5,-808.5 92.5,-1097.5 151.5,-1097.5 151.5,-808.5 92.5,-808.5"/>
</a>
</g>
</g>
<!-- Node3&#45;&gt;Node1 -->
<g id="edge2_Node000001_Node000003" class="edge">
<title>Node3&#45;&gt;Node1</title>
<g id="a_edge2_Node000001_Node000003"><a xlink:title=" ">
<path fill="none" stroke="#63b8ff" d="M130.33,-794.16C134.35,-717.91 139.29,-624.26 143.87,-537.3"/>
<polygon fill="none" stroke="#63b8ff" points="126.82,-794.16 129.79,-804.33 133.81,-794.53 126.82,-794.16"/>
</a>
</g>
</g>
<!-- Node4 -->
<g id="Node000004" class="node">
<title>Node4</title>
<g id="a_Node000004"><a xlink:href="structSatSys.html" target="_top" xlink:title="Object holding satellite id, and providing related functions.">
<path fill="white" stroke="#666666" d="M282.5,-1094C282.5,-1094 189.5,-1094 189.5,-1094 183.5,-1094 177.5,-1088 177.5,-1082 177.5,-1082 177.5,-824 177.5,-824 177.5,-818 183.5,-812 189.5,-812 189.5,-812 282.5,-812 282.5,-812 288.5,-812 294.5,-818 294.5,-824 294.5,-824 294.5,-1082 294.5,-1082 294.5,-1088 288.5,-1094 282.5,-1094"/>
<text text-anchor="start" x="219.5" y="-1078" font-family="Helvetica,sans-Serif" font-size="10.00">SatSys</text>
<text text-anchor="start" x="190" y="-1063" font-family="Helvetica,sans-Serif" font-size="10.00">+</text>
<text text-anchor="start" x="203" y="-1063" font-family="Helvetica,sans-Serif" font-size="10.00">sys</text>
<text text-anchor="start" x="190" y="-1048" font-family="Helvetica,sans-Serif" font-size="10.00">+</text>
<text text-anchor="start" x="203" y="-1048" font-family="Helvetica,sans-Serif" font-size="10.00">prn</text>
<text text-anchor="start" x="190" y="-1033" font-family="Helvetica,sans-Serif" font-size="10.00">+</text>
<text text-anchor="start" x="203" y="-1033" font-family="Helvetica,sans-Serif" font-size="10.00">SatSys()</text>
<text text-anchor="start" x="190" y="-1018" font-family="Helvetica,sans-Serif" font-size="10.00">+</text>
<text text-anchor="start" x="203" y="-1018" font-family="Helvetica,sans-Serif" font-size="10.00">sysChar()</text>
<text text-anchor="start" x="190" y="-1003" font-family="Helvetica,sans-Serif" font-size="10.00">+</text>
<text text-anchor="start" x="203" y="-1003" font-family="Helvetica,sans-Serif" font-size="10.00">getId()</text>
<text text-anchor="start" x="190" y="-988" font-family="Helvetica,sans-Serif" font-size="10.00">+</text>
<text text-anchor="start" x="203" y="-988" font-family="Helvetica,sans-Serif" font-size="10.00">operator int()</text>
<text text-anchor="start" x="190" y="-973" font-family="Helvetica,sans-Serif" font-size="10.00">+</text>
<text text-anchor="start" x="203" y="-973" font-family="Helvetica,sans-Serif" font-size="10.00">setBlockType()</text>
<text text-anchor="start" x="190" y="-958" font-family="Helvetica,sans-Serif" font-size="10.00">+</text>
<text text-anchor="start" x="203" y="-958" font-family="Helvetica,sans-Serif" font-size="10.00">setSvn()</text>
<text text-anchor="start" x="190" y="-943" font-family="Helvetica,sans-Serif" font-size="10.00">+</text>
<text text-anchor="start" x="203" y="-943" font-family="Helvetica,sans-Serif" font-size="10.00">blockType()</text>
<text text-anchor="start" x="190" y="-928" font-family="Helvetica,sans-Serif" font-size="10.00">+</text>
<text text-anchor="start" x="203" y="-928" font-family="Helvetica,sans-Serif" font-size="10.00">svn()</text>
<text text-anchor="start" x="190" y="-913" font-family="Helvetica,sans-Serif" font-size="10.00">+</text>
<text text-anchor="start" x="203" y="-913" font-family="Helvetica,sans-Serif" font-size="10.00">fromHash()</text>
<text text-anchor="start" x="190" y="-898" font-family="Helvetica,sans-Serif" font-size="10.00">+</text>
<text text-anchor="start" x="203" y="-898" font-family="Helvetica,sans-Serif" font-size="10.00">id()</text>
<text text-anchor="start" x="190" y="-883" font-family="Helvetica,sans-Serif" font-size="10.00">+</text>
<text text-anchor="start" x="203" y="-883" font-family="Helvetica,sans-Serif" font-size="10.00">operator string()</text>
<text text-anchor="start" x="190" y="-868" font-family="Helvetica,sans-Serif" font-size="10.00">+</text>
<text text-anchor="start" x="203" y="-868" font-family="Helvetica,sans-Serif" font-size="10.00">SatSys()</text>
<text text-anchor="start" x="190" y="-853" font-family="Helvetica,sans-Serif" font-size="10.00">+</text>
<text text-anchor="start" x="203" y="-853" font-family="Helvetica,sans-Serif" font-size="10.00">sysName()</text>
<text text-anchor="start" x="190" y="-838" font-family="Helvetica,sans-Serif" font-size="10.00">+</text>
<text text-anchor="start" x="203" y="-838" font-family="Helvetica,sans-Serif" font-size="10.00">serialize()</text>
<text text-anchor="start" x="190" y="-823" font-family="Helvetica,sans-Serif" font-size="10.00">+</text>
<text text-anchor="start" x="203" y="-823" font-family="Helvetica,sans-Serif" font-size="10.00">sysFromChar()</text>
<polygon fill="#666666" stroke="#666666" points="186,-1073 186,-1073 287,-1073 287,-1073 186,-1073"/>
<polygon fill="#666666" stroke="#666666" points="186,-1043 186,-1043 201,-1043 201,-1043 186,-1043"/>
<polygon fill="#666666" stroke="#666666" points="201,-1043 201,-1043 287,-1043 287,-1043 201,-1043"/>
<polygon fill="none" stroke="#666666" points="185.5,-816 185.5,-1090 286.5,-1090 286.5,-816 185.5,-816"/>
</a>
</g>
</g>
<!-- Node4&#45;&gt;Node1 -->
<g id="edge3_Node000001_Node000004" class="edge">
<title>Node4&#45;&gt;Node1</title>
<g id="a_edge3_Node000001_Node000004"><a xlink:title=" ">
<path fill="none" stroke="#63b8ff" d="M219.98,-811.83C211.32,-736.04 200.31,-639.68 189.97,-549.28"/>
<polygon fill="none" stroke="#63b8ff" points="189.95,-549.06 185.29,-543.55 188.59,-537.14 193.24,-542.64 189.95,-549.06"/>
</a>
</g>
<text text-anchor="middle" x="209" y="-574.5" font-family="Helvetica,sans-Serif" font-size="10.00" fill="grey"> +Sat</text>
</g>
<!-- Node5 -->
<g id="Node000005" class="node">
<title>Node5</title>
<g id="a_Node000005"><a xlink:title=" ">
<path fill="#fff0f0" stroke="red" d="M290,-1404C290,-1404 182,-1404 182,-1404 176,-1404 170,-1398 170,-1392 170,-1392 170,-1348 170,-1348 170,-1342 176,-1336 182,-1336 182,-1336 290,-1336 290,-1336 296,-1336 302,-1342 302,-1348 302,-1348 302,-1392 302,-1392 302,-1398 296,-1404 290,-1404"/>
<text text-anchor="start" x="183" y="-1388" font-family="Helvetica,sans-Serif" font-size="10.00">map&lt; SatSys, SatSys</text>
<text text-anchor="start" x="207.5" y="-1377" font-family="Helvetica,sans-Serif" font-size="10.00">::SatData &gt;</text>
<text text-anchor="start" x="234" y="-1362" font-family="Helvetica,sans-Serif" font-size="10.00"> </text>
<text text-anchor="start" x="234" y="-1347" font-family="Helvetica,sans-Serif" font-size="10.00"> </text>
<polygon fill="red" stroke="red" points="178,-1372 178,-1372 294,-1372 294,-1372 178,-1372"/>
<polygon fill="red" stroke="red" points="178,-1357 178,-1357 294,-1357 294,-1357 178,-1357"/>
<polygon fill="none" stroke="red" points="178,-1340 178,-1400 294,-1400 294,-1340 178,-1340"/>
</a>
</g>
</g>
<!-- Node5&#45;&gt;Node4 -->
<g id="edge4_Node000004_Node000005" class="edge">
<title>Node5&#45;&gt;Node4</title>
<g id="a_edge4_Node000004_Node000005"><a xlink:title=" ">
<path fill="none" stroke="#63b8ff" d="M236,-1335.74C236,-1286.24 236,-1190.06 236,-1106.63"/>
<polygon fill="none" stroke="#63b8ff" points="236,-1106.42 232,-1100.42 236,-1094.42 240,-1100.42 236,-1106.42"/>
</a>
</g>
<text text-anchor="middle" x="271.5" y="-1310" font-family="Helvetica,sans-Serif" font-size="10.00" fill="grey"> +satDataMap</text>
</g>
<!-- Node7 -->
<g id="Node000007" class="node">
<title>Node7</title>
<g id="a_Node000007"><a xlink:href="structGTime.html" target="_top" xlink:title="Time structure used throughout this software.">
<path fill="white" stroke="#666666" d="M447,-1289C447,-1289 325,-1289 325,-1289 319,-1289 313,-1283 313,-1277 313,-1277 313,-629 313,-629 313,-623 319,-617 325,-617 325,-617 447,-617 447,-617 453,-617 459,-623 459,-629 459,-629 459,-1277 459,-1277 459,-1283 453,-1289 447,-1289"/>
<text text-anchor="start" x="369.5" y="-1273" font-family="Helvetica,sans-Serif" font-size="10.00">GTime</text>
<text text-anchor="start" x="325" y="-1258" font-family="Helvetica,sans-Serif" font-size="10.00">+</text>
<text text-anchor="start" x="338" y="-1258" font-family="Helvetica,sans-Serif" font-size="10.00">cacheN</text>
<text text-anchor="start" x="325" y="-1243" font-family="Helvetica,sans-Serif" font-size="10.00">+</text>
<text text-anchor="start" x="338" y="-1243" font-family="Helvetica,sans-Serif" font-size="10.00">cacheTime</text>
<text text-anchor="start" x="325" y="-1228" font-family="Helvetica,sans-Serif" font-size="10.00">+</text>
<text text-anchor="start" x="338" y="-1228" font-family="Helvetica,sans-Serif" font-size="10.00">bigTime</text>
<text text-anchor="start" x="325" y="-1213" font-family="Helvetica,sans-Serif" font-size="10.00">+</text>
<text text-anchor="start" x="338" y="-1213" font-family="Helvetica,sans-Serif" font-size="10.00">GTime()</text>
<text text-anchor="start" x="325" y="-1198" font-family="Helvetica,sans-Serif" font-size="10.00">+</text>
<text text-anchor="start" x="338" y="-1198" font-family="Helvetica,sans-Serif" font-size="10.00">GTime()</text>
<text text-anchor="start" x="325" y="-1183" font-family="Helvetica,sans-Serif" font-size="10.00">+</text>
<text text-anchor="start" x="338" y="-1183" font-family="Helvetica,sans-Serif" font-size="10.00">GTime()</text>
<text text-anchor="start" x="325" y="-1168" font-family="Helvetica,sans-Serif" font-size="10.00">+</text>
<text text-anchor="start" x="338" y="-1168" font-family="Helvetica,sans-Serif" font-size="10.00">to_string()</text>
<text text-anchor="start" x="325" y="-1153" font-family="Helvetica,sans-Serif" font-size="10.00">+</text>
<text text-anchor="start" x="338" y="-1153" font-family="Helvetica,sans-Serif" font-size="10.00">to_ISOstring()</text>
<text text-anchor="start" x="325" y="-1138" font-family="Helvetica,sans-Serif" font-size="10.00">+</text>
<text text-anchor="start" x="338" y="-1138" font-family="Helvetica,sans-Serif" font-size="10.00">to_decYear()</text>
<text text-anchor="start" x="325" y="-1123" font-family="Helvetica,sans-Serif" font-size="10.00">+</text>
<text text-anchor="start" x="338" y="-1123" font-family="Helvetica,sans-Serif" font-size="10.00">operator==()</text>
<text text-anchor="start" x="325" y="-1108" font-family="Helvetica,sans-Serif" font-size="10.00">+</text>
<text text-anchor="start" x="338" y="-1108" font-family="Helvetica,sans-Serif" font-size="10.00">operator!=()</text>
<text text-anchor="start" x="325" y="-1093" font-family="Helvetica,sans-Serif" font-size="10.00">+</text>
<text text-anchor="start" x="338" y="-1093" font-family="Helvetica,sans-Serif" font-size="10.00">operator&lt;()</text>
<text text-anchor="start" x="325" y="-1078" font-family="Helvetica,sans-Serif" font-size="10.00">+</text>
<text text-anchor="start" x="338" y="-1078" font-family="Helvetica,sans-Serif" font-size="10.00">operator&gt;()</text>
<text text-anchor="start" x="325" y="-1063" font-family="Helvetica,sans-Serif" font-size="10.00">+</text>
<text text-anchor="start" x="338" y="-1063" font-family="Helvetica,sans-Serif" font-size="10.00">operator&gt;=()</text>
<text text-anchor="start" x="325" y="-1048" font-family="Helvetica,sans-Serif" font-size="10.00">+</text>
<text text-anchor="start" x="338" y="-1048" font-family="Helvetica,sans-Serif" font-size="10.00">operator+()</text>
<text text-anchor="start" x="325" y="-1033" font-family="Helvetica,sans-Serif" font-size="10.00">+</text>
<text text-anchor="start" x="338" y="-1033" font-family="Helvetica,sans-Serif" font-size="10.00">operator+()</text>
<text text-anchor="start" x="325" y="-1018" font-family="Helvetica,sans-Serif" font-size="10.00">+</text>
<text text-anchor="start" x="338" y="-1018" font-family="Helvetica,sans-Serif" font-size="10.00">operator+()</text>
<text text-anchor="start" x="325" y="-1003" font-family="Helvetica,sans-Serif" font-size="10.00">+</text>
<text text-anchor="start" x="338" y="-1003" font-family="Helvetica,sans-Serif" font-size="10.00">operator+=()</text>
<text text-anchor="start" x="325" y="-988" font-family="Helvetica,sans-Serif" font-size="10.00">+</text>
<text text-anchor="start" x="338" y="-988" font-family="Helvetica,sans-Serif" font-size="10.00">operator&#45;=()</text>
<text text-anchor="start" x="325" y="-973" font-family="Helvetica,sans-Serif" font-size="10.00">+</text>
<text text-anchor="start" x="338" y="-973" font-family="Helvetica,sans-Serif" font-size="10.00">operator&#45;()</text>
<text text-anchor="start" x="325" y="-958" font-family="Helvetica,sans-Serif" font-size="10.00">+</text>
<text text-anchor="start" x="338" y="-958" font-family="Helvetica,sans-Serif" font-size="10.00">operator&#45;()</text>
<text text-anchor="start" x="325" y="-943" font-family="Helvetica,sans-Serif" font-size="10.00">+</text>
<text text-anchor="start" x="338" y="-943" font-family="Helvetica,sans-Serif" font-size="10.00">operator&#45;()</text>
<text text-anchor="start" x="325" y="-928" font-family="Helvetica,sans-Serif" font-size="10.00">+</text>
<text text-anchor="start" x="338" y="-928" font-family="Helvetica,sans-Serif" font-size="10.00">operator++()</text>
<text text-anchor="start" x="325" y="-913" font-family="Helvetica,sans-Serif" font-size="10.00">+</text>
<text text-anchor="start" x="338" y="-913" font-family="Helvetica,sans-Serif" font-size="10.00">GTime()</text>
<text text-anchor="start" x="325" y="-898" font-family="Helvetica,sans-Serif" font-size="10.00">+</text>
<text text-anchor="start" x="338" y="-898" font-family="Helvetica,sans-Serif" font-size="10.00">GTime()</text>
<text text-anchor="start" x="325" y="-883" font-family="Helvetica,sans-Serif" font-size="10.00">+</text>
<text text-anchor="start" x="338" y="-883" font-family="Helvetica,sans-Serif" font-size="10.00">GTime()</text>
<text text-anchor="start" x="325" y="-868" font-family="Helvetica,sans-Serif" font-size="10.00">+</text>
<text text-anchor="start" x="338" y="-868" font-family="Helvetica,sans-Serif" font-size="10.00">GTime()</text>
<text text-anchor="start" x="325" y="-853" font-family="Helvetica,sans-Serif" font-size="10.00">+</text>
<text text-anchor="start" x="338" y="-853" font-family="Helvetica,sans-Serif" font-size="10.00">GTime()</text>
<text text-anchor="start" x="325" y="-838" font-family="Helvetica,sans-Serif" font-size="10.00">+</text>
<text text-anchor="start" x="338" y="-838" font-family="Helvetica,sans-Serif" font-size="10.00">serialize()</text>
<text text-anchor="start" x="325" y="-823" font-family="Helvetica,sans-Serif" font-size="10.00">+</text>
<text text-anchor="start" x="338" y="-823" font-family="Helvetica,sans-Serif" font-size="10.00">floorTime()</text>
<text text-anchor="start" x="325" y="-808" font-family="Helvetica,sans-Serif" font-size="10.00">+</text>
<text text-anchor="start" x="338" y="-808" font-family="Helvetica,sans-Serif" font-size="10.00">gregString()</text>
<text text-anchor="start" x="325" y="-793" font-family="Helvetica,sans-Serif" font-size="10.00">+</text>
<text text-anchor="start" x="338" y="-793" font-family="Helvetica,sans-Serif" font-size="10.00">operator long double()</text>
<text text-anchor="start" x="325" y="-778" font-family="Helvetica,sans-Serif" font-size="10.00">+</text>
<text text-anchor="start" x="338" y="-778" font-family="Helvetica,sans-Serif" font-size="10.00">operator MjDateTT()</text>
<text text-anchor="start" x="325" y="-763" font-family="Helvetica,sans-Serif" font-size="10.00">+</text>
<text text-anchor="start" x="338" y="-763" font-family="Helvetica,sans-Serif" font-size="10.00">operator GEpoch()</text>
<text text-anchor="start" x="325" y="-748" font-family="Helvetica,sans-Serif" font-size="10.00">+</text>
<text text-anchor="start" x="338" y="-748" font-family="Helvetica,sans-Serif" font-size="10.00">operator UtcTime()</text>
<text text-anchor="start" x="325" y="-733" font-family="Helvetica,sans-Serif" font-size="10.00">+</text>
<text text-anchor="start" x="338" y="-733" font-family="Helvetica,sans-Serif" font-size="10.00">operator GWeek()</text>
<text text-anchor="start" x="325" y="-718" font-family="Helvetica,sans-Serif" font-size="10.00">+</text>
<text text-anchor="start" x="338" y="-718" font-family="Helvetica,sans-Serif" font-size="10.00">operator BWeek()</text>
<text text-anchor="start" x="325" y="-703" font-family="Helvetica,sans-Serif" font-size="10.00">+</text>
<text text-anchor="start" x="338" y="-703" font-family="Helvetica,sans-Serif" font-size="10.00">operator GTow()</text>
<text text-anchor="start" x="325" y="-688" font-family="Helvetica,sans-Serif" font-size="10.00">+</text>
<text text-anchor="start" x="338" y="-688" font-family="Helvetica,sans-Serif" font-size="10.00">operator BTow()</text>
<text text-anchor="start" x="325" y="-673" font-family="Helvetica,sans-Serif" font-size="10.00">+</text>
<text text-anchor="start" x="338" y="-673" font-family="Helvetica,sans-Serif" font-size="10.00">operator PTime()</text>
<text text-anchor="start" x="325" y="-658" font-family="Helvetica,sans-Serif" font-size="10.00">+</text>
<text text-anchor="start" x="338" y="-658" font-family="Helvetica,sans-Serif" font-size="10.00">operator string()</text>
<text text-anchor="start" x="325" y="-643" font-family="Helvetica,sans-Serif" font-size="10.00">+</text>
<text text-anchor="start" x="338" y="-643" font-family="Helvetica,sans-Serif" font-size="10.00">operator RTod()</text>
<text text-anchor="start" x="325" y="-628" font-family="Helvetica,sans-Serif" font-size="10.00">+</text>
<text text-anchor="start" x="338" y="-628" font-family="Helvetica,sans-Serif" font-size="10.00">noTime()</text>
<polygon fill="#666666" stroke="#666666" points="321,-1268 321,-1268 451,-1268 451,-1268 321,-1268"/>
<polygon fill="#666666" stroke="#666666" points="321,-1223 321,-1223 336,-1223 336,-1223 321,-1223"/>
<polygon fill="#666666" stroke="#666666" points="336,-1223 336,-1223 451,-1223 451,-1223 336,-1223"/>
<polygon fill="none" stroke="#666666" points="321,-621 321,-1285 451,-1285 451,-621 321,-621"/>
</a>
</g>
</g>
<!-- Node7&#45;&gt;Node1 -->
<g id="edge5_Node000001_Node000007" class="edge">
<title>Node7&#45;&gt;Node1</title>
<g id="a_edge5_Node000001_Node000007"><a xlink:title=" ">
<path fill="none" stroke="#63b8ff" d="M312.95,-648.29C309.7,-637.7 306.38,-627.24 303,-617 278.28,-542.19 244.7,-460.79 216.08,-395.6"/>
<polygon fill="none" stroke="#63b8ff" points="216,-395.43 209.92,-391.55 211.16,-384.45 217.24,-388.32 216,-395.43"/>
</a>
</g>
<text text-anchor="middle" x="310.5" y="-591" font-family="Helvetica,sans-Serif" font-size="10.00" fill="grey"> +toc</text>
<text text-anchor="middle" x="310.5" y="-580" font-family="Helvetica,sans-Serif" font-size="10.00" fill="grey">+toe</text>
<text text-anchor="middle" x="310.5" y="-569" font-family="Helvetica,sans-Serif" font-size="10.00" fill="grey">+top</text>
<text text-anchor="middle" x="310.5" y="-558" font-family="Helvetica,sans-Serif" font-size="10.00" fill="grey">+ttm</text>
</g>
<!-- Node8 -->
<g id="Node000008" class="node">
<title>Node8</title>
<g id="a_Node000008"><a xlink:title=" ">
<path fill="white" stroke="#666666" d="M401,-1398.5C401,-1398.5 371,-1398.5 371,-1398.5 365,-1398.5 359,-1392.5 359,-1386.5 359,-1386.5 359,-1353.5 359,-1353.5 359,-1347.5 365,-1341.5 371,-1341.5 371,-1341.5 401,-1341.5 401,-1341.5 407,-1341.5 413,-1347.5 413,-1353.5 413,-1353.5 413,-1386.5 413,-1386.5 413,-1392.5 407,-1398.5 401,-1398.5"/>
<text text-anchor="start" x="372" y="-1382" font-family="Helvetica,sans-Serif" font-size="10.00">string</text>
<text text-anchor="start" x="384" y="-1367" font-family="Helvetica,sans-Serif" font-size="10.00"> </text>
<text text-anchor="start" x="384" y="-1352" font-family="Helvetica,sans-Serif" font-size="10.00"> </text>
<polygon fill="#666666" stroke="#666666" points="367,-1377 367,-1377 405,-1377 405,-1377 367,-1377"/>
<polygon fill="#666666" stroke="#666666" points="367,-1362 367,-1362 405,-1362 405,-1362 367,-1362"/>
<polygon fill="none" stroke="#666666" points="367,-1345.5 367,-1394.5 405,-1394.5 405,-1345.5 367,-1345.5"/>
</a>
</g>
</g>
<!-- Node8&#45;&gt;Node7 -->
<g id="edge6_Node000007_Node000008" class="edge">
<title>Node8&#45;&gt;Node7</title>
<g id="a_edge6_Node000007_Node000008"><a xlink:title=" ">
<path fill="none" stroke="#63b8ff" d="M386,-1341.45C386,-1330.63 386,-1317.06 386,-1301.52"/>
<polygon fill="none" stroke="#63b8ff" points="386,-1301.27 382,-1295.27 386,-1289.27 390,-1295.27 386,-1301.27"/>
</a>
</g>
<text text-anchor="middle" x="420.5" y="-1310" font-family="Helvetica,sans-Serif" font-size="10.00" fill="grey"> +cacheString</text>
</g>
</g>
</svg>
