<?xml version="1.0" encoding="UTF-8" standalone="no"?>
<!DOCTYPE svg PUBLIC "-//W3C//DTD SVG 1.1//EN"
 "http://www.w3.org/Graphics/SVG/1.1/DTD/svg11.dtd">
<!-- Generated by graphviz version 2.43.0 (0)
 -->
<!-- Title: KFState::outputMeasurements Pages: 1 -->
<svg width="321pt" height="27pt"
 viewBox="0.00 0.00 321.00 27.00" xmlns="http://www.w3.org/2000/svg" xmlns:xlink="http://www.w3.org/1999/xlink">
<g id="graph0" class="graph" transform="scale(1 1) rotate(0) translate(4 23)">
<title>KFState::outputMeasurements</title>
<!-- Node1 -->
<g id="Node000001" class="node">
<title>Node1</title>
<g id="a_Node000001"><a xlink:href="structKFState.html#adfd3abb4d57396f7065a2b50dc4945c6" target="_top" xlink:title=" ">
<path fill="#fff0f0" stroke="red" stroke-width="2" d="M157.67,-19C157.67,-19 6.33,-19 6.33,-19 3.17,-19 0,-15.83 0,-12.67 0,-12.67 0,-6.33 0,-6.33 0,-3.17 3.17,0 6.33,0 6.33,0 157.67,0 157.67,0 160.83,0 164,-3.17 164,-6.33 164,-6.33 164,-12.67 164,-12.67 164,-15.83 160.83,-19 157.67,-19"/>
<text text-anchor="middle" x="82" y="-7" font-family="Helvetica,sans-Serif" font-size="10.00">KFState::outputMeasurements</text>
</a>
</g>
</g>
<!-- Node2 -->
<g id="Node000002" class="node">
<title>Node2</title>
<g id="a_Node000002"><a xlink:href="structKFKey.html#ab3ec437c948e525835dcb14e865968d7" target="_top" xlink:title="Create a string with the same spacing as ordinary outputs.">
<path fill="#fff0f0" stroke="red" d="M306.67,-19C306.67,-19 206.33,-19 206.33,-19 203.17,-19 200,-15.83 200,-12.67 200,-12.67 200,-6.33 200,-6.33 200,-3.17 203.17,0 206.33,0 206.33,0 306.67,0 306.67,0 309.83,0 313,-3.17 313,-6.33 313,-6.33 313,-12.67 313,-12.67 313,-15.83 309.83,-19 306.67,-19"/>
<text text-anchor="middle" x="256.5" y="-7" font-family="Helvetica,sans-Serif" font-size="10.00">KFKey::emptyString</text>
</a>
</g>
</g>
<!-- Node1&#45;&gt;Node2 -->
<g id="edge1_Node000001_Node000002" class="edge">
<title>Node1&#45;&gt;Node2</title>
<g id="a_edge1_Node000001_Node000002"><a xlink:title=" ">
<path fill="none" stroke="#63b8ff" d="M164.2,-9.5C172.77,-9.5 181.41,-9.5 189.78,-9.5"/>
<polygon fill="#63b8ff" stroke="#63b8ff" points="189.83,-13 199.83,-9.5 189.83,-6 189.83,-13"/>
</a>
</g>
</g>
</g>
</svg>
