<?xml version="1.0" encoding="UTF-8" standalone="no"?>
<!DOCTYPE svg PUBLIC "-//W3C//DTD SVG 1.1//EN"
 "http://www.w3.org/Graphics/SVG/1.1/DTD/svg11.dtd">
<!-- Generated by graphviz version 2.43.0 (0)
 -->
<!-- Title: KFState::getKFValue Pages: 1 -->
<svg width="124pt" height="45pt"
 viewBox="0.00 0.00 124.00 45.00" xmlns="http://www.w3.org/2000/svg" xmlns:xlink="http://www.w3.org/1999/xlink">
<g id="graph0" class="graph" transform="scale(1 1) rotate(0) translate(4 41)">
<title>KFState::getKFValue</title>
<!-- Node1 -->
<g id="Node000001" class="node">
<title>Node1</title>
<g id="a_Node000001"><a xlink:href="structKFState.html#aeca6e3874ad0c94607152d244016582f" target="_top" xlink:title="Returns the value and variance of a state within the kalman filter object.">
<path fill="#fff0f0" stroke="red" stroke-width="2" d="M109.67,-19C109.67,-19 6.33,-19 6.33,-19 3.17,-19 0,-15.83 0,-12.67 0,-12.67 0,-6.33 0,-6.33 0,-3.17 3.17,0 6.33,0 6.33,0 109.67,0 109.67,0 112.83,0 116,-3.17 116,-6.33 116,-6.33 116,-12.67 116,-12.67 116,-15.83 112.83,-19 109.67,-19"/>
<text text-anchor="middle" x="58" y="-7" font-family="Helvetica,sans-Serif" font-size="10.00">KFState::getKFValue</text>
</a>
</g>
</g>
<!-- Node1&#45;&gt;Node1 -->
<g id="edge1_Node000001_Node000001" class="edge">
<title>Node1&#45;&gt;Node1</title>
<g id="a_edge1_Node000001_Node000001"><a xlink:title=" ">
<path fill="none" stroke="#63b8ff" d="M40.43,-19.08C31.88,-27.73 37.74,-37 58,-37 70.66,-37 77.7,-33.38 79.11,-28.55"/>
<polygon fill="#63b8ff" stroke="#63b8ff" points="82.35,-27.22 75.57,-19.08 75.79,-29.68 82.35,-27.22"/>
</a>
</g>
</g>
</g>
</svg>
