<?xml version="1.0" encoding="UTF-8" standalone="no"?>
<!DOCTYPE svg PUBLIC "-//W3C//DTD SVG 1.1//EN"
 "http://www.w3.org/Graphics/SVG/1.1/DTD/svg11.dtd">
<!-- Generated by graphviz version 2.43.0 (0)
 -->
<!-- Title: CenterMassCorrections Pages: 1 -->
<svg width="318pt" height="288pt"
 viewBox="0.00 0.00 317.50 288.00" xmlns="http://www.w3.org/2000/svg" xmlns:xlink="http://www.w3.org/1999/xlink">
<g id="graph0" class="graph" transform="scale(1 1) rotate(0) translate(4 284)">
<title>CenterMassCorrections</title>
<!-- Node1 -->
<g id="Node000001" class="node">
<title>Node1</title>
<g id="a_Node000001"><a xlink:href="structCenterMassCorrections.html" target="_top" xlink:title=" ">
<path fill="white" stroke="#666666" stroke-width="2" d="M212.5,-72C212.5,-72 96.5,-72 96.5,-72 90.5,-72 84.5,-66 84.5,-60 84.5,-60 84.5,-12 84.5,-12 84.5,-6 90.5,0 96.5,0 96.5,0 212.5,0 212.5,0 218.5,0 224.5,-6 224.5,-12 224.5,-12 224.5,-60 224.5,-60 224.5,-66 218.5,-72 212.5,-72"/>
<text text-anchor="start" x="97.5" y="-56" font-family="Helvetica,sans-Serif" font-size="10.00">CenterMassCorrections</text>
<text text-anchor="start" x="109" y="-41" font-family="Helvetica,sans-Serif" font-size="10.00">+</text>
<text text-anchor="start" x="134.5" y="-41" font-family="Helvetica,sans-Serif" font-size="10.00">initialized</text>
<text text-anchor="start" x="109" y="-26" font-family="Helvetica,sans-Serif" font-size="10.00">+</text>
<text text-anchor="start" x="134.5" y="-26" font-family="Helvetica,sans-Serif" font-size="10.00">read()</text>
<text text-anchor="start" x="109" y="-11" font-family="Helvetica,sans-Serif" font-size="10.00">+</text>
<text text-anchor="start" x="134.5" y="-11" font-family="Helvetica,sans-Serif" font-size="10.00">estimate()</text>
<polygon fill="#666666" stroke="#666666" points="92.5,-51 92.5,-51 216.5,-51 216.5,-51 92.5,-51"/>
<polygon fill="#666666" stroke="#666666" points="92.5,-36 92.5,-36 132.5,-36 132.5,-36 92.5,-36"/>
<polygon fill="#666666" stroke="#666666" points="132.5,-36 132.5,-36 216.5,-36 216.5,-36 132.5,-36"/>
<polygon fill="none" stroke="#666666" points="92.5,-4 92.5,-68 216.5,-68 216.5,-4 92.5,-4"/>
</a>
</g>
</g>
<!-- Node2 -->
<g id="Node000002" class="node">
<title>Node2</title>
<g id="a_Node000002"><a xlink:title=" ">
<path fill="white" stroke="#666666" d="M135,-176C135,-176 12,-176 12,-176 6,-176 0,-170 0,-164 0,-164 0,-131 0,-131 0,-125 6,-119 12,-119 12,-119 135,-119 135,-119 141,-119 147,-125 147,-131 147,-131 147,-164 147,-164 147,-170 141,-176 135,-176"/>
<text text-anchor="start" x="13.5" y="-159.5" font-family="Helvetica,sans-Serif" font-size="10.00">map&lt; string, Vector6d &gt;</text>
<text text-anchor="start" x="72" y="-144.5" font-family="Helvetica,sans-Serif" font-size="10.00"> </text>
<text text-anchor="start" x="72" y="-129.5" font-family="Helvetica,sans-Serif" font-size="10.00"> </text>
<polygon fill="#666666" stroke="#666666" points="8.5,-154.5 8.5,-154.5 139.5,-154.5 139.5,-154.5 8.5,-154.5"/>
<polygon fill="#666666" stroke="#666666" points="8.5,-139.5 8.5,-139.5 139.5,-139.5 139.5,-139.5 8.5,-139.5"/>
<polygon fill="none" stroke="#666666" points="8,-123 8,-172 139,-172 139,-123 8,-123"/>
</a>
</g>
</g>
<!-- Node2&#45;&gt;Node1 -->
<g id="edge1_Node000001_Node000002" class="edge">
<title>Node2&#45;&gt;Node1</title>
<g id="a_edge1_Node000001_Node000002"><a xlink:title=" ">
<path fill="none" stroke="#63b8ff" d="M93.94,-118.87C102.22,-107.67 112,-94.45 121.26,-81.93"/>
<polygon fill="none" stroke="#63b8ff" points="121.4,-81.75 121.75,-74.54 128.54,-72.1 128.18,-79.3 121.4,-81.75"/>
</a>
</g>
<text text-anchor="middle" x="131.5" y="-93" font-family="Helvetica,sans-Serif" font-size="10.00" fill="grey"> +data</text>
</g>
<!-- Node3 -->
<g id="Node000003" class="node">
<title>Node3</title>
<g id="a_Node000003"><a xlink:title=" ">
<path fill="white" stroke="#666666" d="M166.5,-280C166.5,-280 142.5,-280 142.5,-280 136.5,-280 130.5,-274 130.5,-268 130.5,-268 130.5,-235 130.5,-235 130.5,-229 136.5,-223 142.5,-223 142.5,-223 166.5,-223 166.5,-223 172.5,-223 178.5,-229 178.5,-235 178.5,-235 178.5,-268 178.5,-268 178.5,-274 172.5,-280 166.5,-280"/>
<text text-anchor="start" x="143.5" y="-263.5" font-family="Helvetica,sans-Serif" font-size="10.00">map</text>
<text text-anchor="start" x="152.5" y="-248.5" font-family="Helvetica,sans-Serif" font-size="10.00"> </text>
<text text-anchor="start" x="152.5" y="-233.5" font-family="Helvetica,sans-Serif" font-size="10.00"> </text>
<polygon fill="#666666" stroke="#666666" points="138.5,-258.5 138.5,-258.5 170.5,-258.5 170.5,-258.5 138.5,-258.5"/>
<polygon fill="#666666" stroke="#666666" points="138.5,-243.5 138.5,-243.5 170.5,-243.5 170.5,-243.5 138.5,-243.5"/>
<polygon fill="none" stroke="#666666" points="138.5,-227 138.5,-276 170.5,-276 170.5,-227 138.5,-227"/>
</a>
</g>
</g>
<!-- Node3&#45;&gt;Node2 -->
<g id="edge2_Node000002_Node000003" class="edge">
<title>Node3&#45;&gt;Node2</title>
<g id="a_edge2_Node000002_Node000003"><a xlink:title=" ">
<path fill="none" stroke="orange" d="M122.45,-226.6C115.01,-220.12 107.51,-212.73 101.5,-205 94.78,-196.36 89.04,-185.84 84.54,-176.24"/>
<polygon fill="orange" stroke="orange" points="120.51,-229.54 130.44,-233.26 125,-224.17 120.51,-229.54"/>
</a>
</g>
<text text-anchor="middle" x="153" y="-197" font-family="Helvetica,sans-Serif" font-size="10.00" fill="grey"> &lt; string, Vector6d &gt;</text>
</g>
<!-- Node4 -->
<g id="Node000004" class="node">
<title>Node4</title>
<g id="a_Node000004"><a xlink:title=" ">
<path fill="white" stroke="#666666" d="M296,-176C296,-176 177,-176 177,-176 171,-176 165,-170 165,-164 165,-164 165,-131 165,-131 165,-125 171,-119 177,-119 177,-119 296,-119 296,-119 302,-119 308,-125 308,-131 308,-131 308,-164 308,-164 308,-170 302,-176 296,-176"/>
<text text-anchor="start" x="178.5" y="-159.5" font-family="Helvetica,sans-Serif" font-size="10.00">map&lt; string, Array6d &gt;</text>
<text text-anchor="start" x="235" y="-144.5" font-family="Helvetica,sans-Serif" font-size="10.00"> </text>
<text text-anchor="start" x="235" y="-129.5" font-family="Helvetica,sans-Serif" font-size="10.00"> </text>
<polygon fill="#666666" stroke="#666666" points="173.5,-154.5 173.5,-154.5 300.5,-154.5 300.5,-154.5 173.5,-154.5"/>
<polygon fill="#666666" stroke="#666666" points="173.5,-139.5 173.5,-139.5 300.5,-139.5 300.5,-139.5 173.5,-139.5"/>
<polygon fill="none" stroke="#666666" points="173,-123 173,-172 300,-172 300,-123 173,-123"/>
</a>
</g>
</g>
<!-- Node3&#45;&gt;Node4 -->
<g id="edge4_Node000004_Node000003" class="edge">
<title>Node3&#45;&gt;Node4</title>
<g id="a_edge4_Node000004_Node000003"><a xlink:title=" ">
<path fill="none" stroke="orange" d="M186.16,-224.51C192.61,-218.46 199.08,-211.79 204.5,-205 211.53,-196.19 217.96,-185.64 223.17,-176.06"/>
<polygon fill="orange" stroke="orange" points="183.72,-221.99 178.65,-231.29 188.41,-227.18 183.72,-221.99"/>
</a>
</g>
<text text-anchor="middle" x="260.5" y="-197" font-family="Helvetica,sans-Serif" font-size="10.00" fill="grey"> &lt; string, Array6d &gt;</text>
</g>
<!-- Node4&#45;&gt;Node1 -->
<g id="edge3_Node000001_Node000004" class="edge">
<title>Node4&#45;&gt;Node1</title>
<g id="a_edge3_Node000001_Node000004"><a xlink:title=" ">
<path fill="none" stroke="#63b8ff" d="M215.81,-118.87C207.42,-107.67 197.52,-94.45 188.15,-81.93"/>
<polygon fill="none" stroke="#63b8ff" points="187.98,-81.7 181.18,-79.3 180.78,-72.1 187.58,-74.5 187.98,-81.7"/>
</a>
</g>
<text text-anchor="middle" x="248" y="-93" font-family="Helvetica,sans-Serif" font-size="10.00" fill="grey"> +doodsonNumbers</text>
</g>
</g>
</svg>
