<?xml version="1.0" encoding="UTF-8" standalone="no"?>
<!DOCTYPE svg PUBLIC "-//W3C//DTD SVG 1.1//EN"
 "http://www.w3.org/Graphics/SVG/1.1/DTD/svg11.dtd">
<!-- Generated by graphviz version 2.43.0 (0)
 -->
<!-- Title: KFState::getSubState Pages: 1 -->
<svg width="279pt" height="27pt"
 viewBox="0.00 0.00 279.00 27.00" xmlns="http://www.w3.org/2000/svg" xmlns:xlink="http://www.w3.org/1999/xlink">
<g id="graph0" class="graph" transform="scale(1 1) rotate(0) translate(4 23)">
<title>KFState::getSubState</title>
<!-- Node1 -->
<g id="Node000001" class="node">
<title>Node1</title>
<g id="a_Node000001"><a xlink:href="structKFState.html#a7c8eaccb360214ba2a0b11df8c219f78" target="_top" xlink:title="Get a portion of a state by passing in a list of keys.">
<path fill="#fff0f0" stroke="red" stroke-width="2" d="M112.67,-19C112.67,-19 6.33,-19 6.33,-19 3.17,-19 0,-15.83 0,-12.67 0,-12.67 0,-6.33 0,-6.33 0,-3.17 3.17,0 6.33,0 6.33,0 112.67,0 112.67,0 115.83,0 119,-3.17 119,-6.33 119,-6.33 119,-12.67 119,-12.67 119,-15.83 115.83,-19 112.67,-19"/>
<text text-anchor="middle" x="59.5" y="-7" font-family="Helvetica,sans-Serif" font-size="10.00">KFState::getSubState</text>
</a>
</g>
</g>
<!-- Node2 -->
<g id="Node000002" class="node">
<title>Node2</title>
<g id="a_Node000002"><a xlink:href="structKFState.html#afcba27ad89c8ca5604093fed5a0a80bd" target="_top" xlink:title="Finds the position in the KF state vector of particular states.">
<path fill="#fff0f0" stroke="red" d="M264.67,-19C264.67,-19 161.33,-19 161.33,-19 158.17,-19 155,-15.83 155,-12.67 155,-12.67 155,-6.33 155,-6.33 155,-3.17 158.17,0 161.33,0 161.33,0 264.67,0 264.67,0 267.83,0 271,-3.17 271,-6.33 271,-6.33 271,-12.67 271,-12.67 271,-15.83 267.83,-19 264.67,-19"/>
<text text-anchor="middle" x="213" y="-7" font-family="Helvetica,sans-Serif" font-size="10.00">KFState::getKFIndex</text>
</a>
</g>
</g>
<!-- Node1&#45;&gt;Node2 -->
<g id="edge1_Node000001_Node000002" class="edge">
<title>Node1&#45;&gt;Node2</title>
<g id="a_edge1_Node000001_Node000002"><a xlink:title=" ">
<path fill="none" stroke="#63b8ff" d="M119.07,-9.5C127.36,-9.5 135.94,-9.5 144.38,-9.5"/>
<polygon fill="#63b8ff" stroke="#63b8ff" points="144.58,-13 154.58,-9.5 144.58,-6 144.58,-13"/>
</a>
</g>
</g>
</g>
</svg>
