<?xml version="1.0" encoding="UTF-8" standalone="no"?>
<!DOCTYPE svg PUBLIC "-//W3C//DTD SVG 1.1//EN"
 "http://www.w3.org/Graphics/SVG/1.1/DTD/svg11.dtd">
<!-- Generated by graphviz version 2.43.0 (0)
 -->
<!-- Title: KFState::stateChiSquare Pages: 1 -->
<svg width="298pt" height="27pt"
 viewBox="0.00 0.00 298.00 27.00" xmlns="http://www.w3.org/2000/svg" xmlns:xlink="http://www.w3.org/1999/xlink">
<g id="graph0" class="graph" transform="scale(1 1) rotate(0) translate(4 23)">
<title>KFState::stateChiSquare</title>
<!-- Node1 -->
<g id="Node000001" class="node">
<title>Node1</title>
<g id="a_Node000001"><a xlink:href="structKFState.html#aa963c92f094f4c0f9d43eea2661723dd" target="_top" xlink:title="Compute Chi&#45;square increment based on the change of fitting solution.">
<path fill="#fff0f0" stroke="red" stroke-width="2" d="M283.67,-19C283.67,-19 162.33,-19 162.33,-19 159.17,-19 156,-15.83 156,-12.67 156,-12.67 156,-6.33 156,-6.33 156,-3.17 159.17,0 162.33,0 162.33,0 283.67,0 283.67,0 286.83,0 290,-3.17 290,-6.33 290,-6.33 290,-12.67 290,-12.67 290,-15.83 286.83,-19 283.67,-19"/>
<text text-anchor="middle" x="223" y="-7" font-family="Helvetica,sans-Serif" font-size="10.00">KFState::stateChiSquare</text>
</a>
</g>
</g>
<!-- Node2 -->
<g id="Node000002" class="node">
<title>Node2</title>
<g id="a_Node000002"><a xlink:href="structKFState.html#a0d12c57e70876543084c182a660bbbd3" target="_top" xlink:title="Kalman filter operation.">
<path fill="#fff0f0" stroke="red" d="M113.67,-19C113.67,-19 6.33,-19 6.33,-19 3.17,-19 0,-15.83 0,-12.67 0,-12.67 0,-6.33 0,-6.33 0,-3.17 3.17,0 6.33,0 6.33,0 113.67,0 113.67,0 116.83,0 120,-3.17 120,-6.33 120,-6.33 120,-12.67 120,-12.67 120,-15.83 116.83,-19 113.67,-19"/>
<text text-anchor="middle" x="60" y="-7" font-family="Helvetica,sans-Serif" font-size="10.00">KFState::filterKalman</text>
</a>
</g>
</g>
<!-- Node1&#45;&gt;Node2 -->
<g id="edge1_Node000001_Node000002" class="edge">
<title>Node1&#45;&gt;Node2</title>
<g id="a_edge1_Node000001_Node000002"><a xlink:title=" ">
<path fill="none" stroke="#63b8ff" d="M145.57,-9.5C137,-9.5 128.36,-9.5 120.05,-9.5"/>
<polygon fill="#63b8ff" stroke="#63b8ff" points="145.59,-13 155.59,-9.5 145.59,-6 145.59,-13"/>
</a>
</g>
</g>
</g>
</svg>
