<?xml version="1.0" encoding="UTF-8" standalone="no"?>
<!DOCTYPE svg PUBLIC "-//W3C//DTD SVG 1.1//EN"
 "http://www.w3.org/Graphics/SVG/1.1/DTD/svg11.dtd">
<!-- Generated by graphviz version 2.43.0 (0)
 -->
<!-- Title: IteratorType::operator++ Pages: 1 -->
<svg width="362pt" height="27pt"
 viewBox="0.00 0.00 362.00 27.00" xmlns="http://www.w3.org/2000/svg" xmlns:xlink="http://www.w3.org/1999/xlink">
<g id="graph0" class="graph" transform="scale(1 1) rotate(0) translate(4 23)">
<title>IteratorType::operator++</title>
<!-- Node1 -->
<g id="Node000001" class="node">
<title>Node1</title>
<g id="a_Node000001"><a xlink:href="structIteratorType.html#a19ae7f451196b343ddd32c9d8ea118d2" target="_top" xlink:title=" ">
<path fill="#fff0f0" stroke="red" stroke-width="2" d="M132.67,-19C132.67,-19 6.33,-19 6.33,-19 3.17,-19 0,-15.83 0,-12.67 0,-12.67 0,-6.33 0,-6.33 0,-3.17 3.17,0 6.33,0 6.33,0 132.67,0 132.67,0 135.83,0 139,-3.17 139,-6.33 139,-6.33 139,-12.67 139,-12.67 139,-15.83 135.83,-19 132.67,-19"/>
<text text-anchor="middle" x="69.5" y="-7" font-family="Helvetica,sans-Serif" font-size="10.00">IteratorType::operator++</text>
</a>
</g>
</g>
<!-- Node2 -->
<g id="Node000002" class="node">
<title>Node2</title>
<g id="a_Node000002"><a xlink:href="structIteratorType.html#a7ecae54e30e0933a627c3e9da7803ac7" target="_top" xlink:title=" ">
<path fill="#fff0f0" stroke="red" d="M347.67,-19C347.67,-19 181.33,-19 181.33,-19 178.17,-19 175,-15.83 175,-12.67 175,-12.67 175,-6.33 175,-6.33 175,-3.17 178.17,0 181.33,0 181.33,0 347.67,0 347.67,0 350.83,0 354,-3.17 354,-6.33 354,-6.33 354,-12.67 354,-12.67 354,-15.83 350.83,-19 347.67,-19"/>
<text text-anchor="middle" x="264.5" y="-7" font-family="Helvetica,sans-Serif" font-size="10.00">IteratorType::incrementUntilGood</text>
</a>
</g>
</g>
<!-- Node1&#45;&gt;Node2 -->
<g id="edge1_Node000001_Node000002" class="edge">
<title>Node1&#45;&gt;Node2</title>
<g id="a_edge1_Node000001_Node000002"><a xlink:title=" ">
<path fill="none" stroke="#63b8ff" d="M139.09,-9.5C147.42,-9.5 156.06,-9.5 164.72,-9.5"/>
<polygon fill="#63b8ff" stroke="#63b8ff" points="164.88,-13 174.88,-9.5 164.88,-6 164.88,-13"/>
</a>
</g>
</g>
</g>
</svg>
