<?xml version="1.0" encoding="UTF-8" standalone="no"?>
<!DOCTYPE svg PUBLIC "-//W3C//DTD SVG 1.1//EN"
 "http://www.w3.org/Graphics/SVG/1.1/DTD/svg11.dtd">
<!-- Generated by graphviz version 2.43.0 (0)
 -->
<!-- Title: TcpSocket::timeoutHandler Pages: 1 -->
<svg width="352pt" height="64pt"
 viewBox="0.00 0.00 352.00 64.00" xmlns="http://www.w3.org/2000/svg" xmlns:xlink="http://www.w3.org/1999/xlink">
<g id="graph0" class="graph" transform="scale(1 1) rotate(0) translate(4 60)">
<title>TcpSocket::timeoutHandler</title>
<!-- Node1 -->
<g id="Node000001" class="node">
<title>Node1</title>
<g id="a_Node000001"><a xlink:href="structTcpSocket.html#af0d4224df8c4ae9c3ca8227bfd10a701" target="_top" xlink:title=" ">
<path fill="#fff0f0" stroke="red" stroke-width="2" d="M140.67,-37C140.67,-37 6.33,-37 6.33,-37 3.17,-37 0,-33.83 0,-30.67 0,-30.67 0,-24.33 0,-24.33 0,-21.17 3.17,-18 6.33,-18 6.33,-18 140.67,-18 140.67,-18 143.83,-18 147,-21.17 147,-24.33 147,-24.33 147,-30.67 147,-30.67 147,-33.83 143.83,-37 140.67,-37"/>
<text text-anchor="middle" x="73.5" y="-25" font-family="Helvetica,sans-Serif" font-size="10.00">TcpSocket::timeoutHandler</text>
</a>
</g>
</g>
<!-- Node2 -->
<g id="Node000002" class="node">
<title>Node2</title>
<g id="a_Node000002"><a xlink:href="structURL.html#ab0ccd3714f16e338f40eb008b2a25cf2" target="_top" xlink:title=" ">
<path fill="#fff0f0" stroke="red" d="M300.17,-56C300.17,-56 226.83,-56 226.83,-56 223.67,-56 220.5,-52.83 220.5,-49.67 220.5,-49.67 220.5,-43.33 220.5,-43.33 220.5,-40.17 223.67,-37 226.83,-37 226.83,-37 300.17,-37 300.17,-37 303.33,-37 306.5,-40.17 306.5,-43.33 306.5,-43.33 306.5,-49.67 306.5,-49.67 306.5,-52.83 303.33,-56 300.17,-56"/>
<text text-anchor="middle" x="263.5" y="-44" font-family="Helvetica,sans-Serif" font-size="10.00">URL::sanitised</text>
</a>
</g>
</g>
<!-- Node1&#45;&gt;Node2 -->
<g id="edge1_Node000001_Node000002" class="edge">
<title>Node1&#45;&gt;Node2</title>
<g id="a_edge1_Node000001_Node000002"><a xlink:title=" ">
<path fill="none" stroke="#63b8ff" d="M147.19,-34.85C168.21,-36.97 190.73,-39.25 210.24,-41.22"/>
<polygon fill="#63b8ff" stroke="#63b8ff" points="210.14,-44.73 220.44,-42.25 210.84,-37.76 210.14,-44.73"/>
</a>
</g>
</g>
<!-- Node3 -->
<g id="Node000003" class="node">
<title>Node3</title>
<g id="a_Node000003"><a xlink:href="structTcpSocket.html#ae4050e3ed6adf0dbe575ca992234f798" target="_top" xlink:title=" ">
<path fill="#fff0f0" stroke="red" d="M337.67,-19C337.67,-19 189.33,-19 189.33,-19 186.17,-19 183,-15.83 183,-12.67 183,-12.67 183,-6.33 183,-6.33 183,-3.17 186.17,0 189.33,0 189.33,0 337.67,0 337.67,0 340.83,0 344,-3.17 344,-6.33 344,-6.33 344,-12.67 344,-12.67 344,-15.83 340.83,-19 337.67,-19"/>
<text text-anchor="middle" x="263.5" y="-7" font-family="Helvetica,sans-Serif" font-size="10.00">TcpSocket::delayedReconnect</text>
</a>
</g>
</g>
<!-- Node1&#45;&gt;Node3 -->
<g id="edge2_Node000001_Node000003" class="edge">
<title>Node1&#45;&gt;Node3</title>
<g id="a_edge2_Node000001_Node000003"><a xlink:title=" ">
<path fill="none" stroke="#63b8ff" d="M147.19,-20.54C155.58,-19.74 164.21,-18.91 172.79,-18.09"/>
<polygon fill="#63b8ff" stroke="#63b8ff" points="173.21,-21.57 182.83,-17.13 172.54,-14.6 173.21,-21.57"/>
</a>
</g>
</g>
</g>
</svg>
