<?xml version="1.0" encoding="UTF-8" standalone="no"?>
<!DOCTYPE svg PUBLIC "-//W3C//DTD SVG 1.1//EN"
 "http://www.w3.org/Graphics/SVG/1.1/DTD/svg11.dtd">
<!-- Generated by graphviz version 2.43.0 (0)
 -->
<!-- Title: CommonKalmans Pages: 1 -->
<svg width="498pt" height="405pt"
 viewBox="0.00 0.00 498.00 405.00" xmlns="http://www.w3.org/2000/svg" xmlns:xlink="http://www.w3.org/1999/xlink">
<g id="graph0" class="graph" transform="scale(1 1) rotate(0) translate(4 401)">
<title>CommonKalmans</title>
<!-- Node1 -->
<g id="Node000001" class="node">
<title>Node1</title>
<g id="a_Node000001"><a xlink:href="structCommonKalmans.html" target="_top" xlink:title=" ">
<path fill="white" stroke="#666666" stroke-width="2" d="M288.5,-57C288.5,-57 198.5,-57 198.5,-57 192.5,-57 186.5,-51 186.5,-45 186.5,-45 186.5,-12 186.5,-12 186.5,-6 192.5,0 198.5,0 198.5,0 288.5,0 288.5,0 294.5,0 300.5,-6 300.5,-12 300.5,-12 300.5,-45 300.5,-45 300.5,-51 294.5,-57 288.5,-57"/>
<text text-anchor="start" x="199.5" y="-40.5" font-family="Helvetica,sans-Serif" font-size="10.00">CommonKalmans</text>
<text text-anchor="start" x="241.5" y="-25.5" font-family="Helvetica,sans-Serif" font-size="10.00"> </text>
<text text-anchor="start" x="201" y="-10.5" font-family="Helvetica,sans-Serif" font-size="10.00">+</text>
<text text-anchor="start" x="216.5" y="-10.5" font-family="Helvetica,sans-Serif" font-size="10.00">operator+=()</text>
<polygon fill="#666666" stroke="#666666" points="194.5,-35.5 194.5,-35.5 292.5,-35.5 292.5,-35.5 194.5,-35.5"/>
<polygon fill="#666666" stroke="#666666" points="194.5,-20.5 194.5,-20.5 292.5,-20.5 292.5,-20.5 194.5,-20.5"/>
<polygon fill="none" stroke="#666666" points="194.5,-4 194.5,-53 292.5,-53 292.5,-4 194.5,-4"/>
</a>
</g>
</g>
<!-- Node2 -->
<g id="Node000002" class="node">
<title>Node2</title>
<g id="a_Node000002"><a xlink:href="structKalmanModel.html" target="_top" xlink:title="Options associated with kalman filter states.">
<path fill="white" stroke="#666666" d="M283,-249C283,-249 204,-249 204,-249 198,-249 192,-243 192,-237 192,-237 192,-204 192,-204 192,-198 198,-192 204,-192 204,-192 283,-192 283,-192 289,-192 295,-198 295,-204 295,-204 295,-237 295,-237 295,-243 289,-249 283,-249"/>
<text text-anchor="start" x="210" y="-232.5" font-family="Helvetica,sans-Serif" font-size="10.00">KalmanModel</text>
<text text-anchor="start" x="242" y="-217.5" font-family="Helvetica,sans-Serif" font-size="10.00"> </text>
<text text-anchor="start" x="204.5" y="-202.5" font-family="Helvetica,sans-Serif" font-size="10.00">+</text>
<text text-anchor="start" x="217.5" y="-202.5" font-family="Helvetica,sans-Serif" font-size="10.00">operator+=()</text>
<polygon fill="#666666" stroke="#666666" points="200.5,-227.5 200.5,-227.5 287.5,-227.5 287.5,-227.5 200.5,-227.5"/>
<polygon fill="#666666" stroke="#666666" points="200.5,-212.5 200.5,-212.5 287.5,-212.5 287.5,-212.5 200.5,-212.5"/>
<polygon fill="none" stroke="#666666" points="200,-196 200,-245 287,-245 287,-196 200,-196"/>
</a>
</g>
</g>
<!-- Node2&#45;&gt;Node1 -->
<g id="edge1_Node000001_Node000002" class="edge">
<title>Node2&#45;&gt;Node1</title>
<g id="a_edge1_Node000001_Node000002"><a xlink:title=" ">
<path fill="none" stroke="#63b8ff" d="M243.5,-191.87C243.5,-159.65 243.5,-106.12 243.5,-69.39"/>
<polygon fill="none" stroke="#63b8ff" points="243.5,-69.16 239.5,-63.16 243.5,-57.16 247.5,-63.16 243.5,-69.16"/>
</a>
</g>
<text text-anchor="middle" x="275.5" y="-166" font-family="Helvetica,sans-Serif" font-size="10.00" fill="grey"> +ant_delta</text>
<text text-anchor="middle" x="275.5" y="-155" font-family="Helvetica,sans-Serif" font-size="10.00" fill="grey">+clk</text>
<text text-anchor="middle" x="275.5" y="-144" font-family="Helvetica,sans-Serif" font-size="10.00" fill="grey">+clk_rate</text>
<text text-anchor="middle" x="275.5" y="-133" font-family="Helvetica,sans-Serif" font-size="10.00" fill="grey">+code_bias</text>
<text text-anchor="middle" x="275.5" y="-122" font-family="Helvetica,sans-Serif" font-size="10.00" fill="grey">+orbit</text>
<text text-anchor="middle" x="275.5" y="-111" font-family="Helvetica,sans-Serif" font-size="10.00" fill="grey">+pco</text>
<text text-anchor="middle" x="275.5" y="-100" font-family="Helvetica,sans-Serif" font-size="10.00" fill="grey">+phase_bias</text>
<text text-anchor="middle" x="275.5" y="-89" font-family="Helvetica,sans-Serif" font-size="10.00" fill="grey">+pos</text>
<text text-anchor="middle" x="275.5" y="-78" font-family="Helvetica,sans-Serif" font-size="10.00" fill="grey">+pos_rate</text>
</g>
<!-- Node3 -->
<g id="Node000003" class="node">
<title>Node3</title>
<g id="a_Node000003"><a xlink:title=" ">
<path fill="#fff0f0" stroke="red" d="M101,-397C101,-397 12,-397 12,-397 6,-397 0,-391 0,-385 0,-385 0,-352 0,-352 0,-346 6,-340 12,-340 12,-340 101,-340 101,-340 107,-340 113,-346 113,-352 113,-352 113,-385 113,-385 113,-391 107,-397 101,-397"/>
<text text-anchor="start" x="13.5" y="-380.5" font-family="Helvetica,sans-Serif" font-size="10.00">vector&lt; double &gt;</text>
<text text-anchor="start" x="55" y="-365.5" font-family="Helvetica,sans-Serif" font-size="10.00"> </text>
<text text-anchor="start" x="55" y="-350.5" font-family="Helvetica,sans-Serif" font-size="10.00"> </text>
<polygon fill="red" stroke="red" points="8.5,-375.5 8.5,-375.5 105.5,-375.5 105.5,-375.5 8.5,-375.5"/>
<polygon fill="red" stroke="red" points="8.5,-360.5 8.5,-360.5 105.5,-360.5 105.5,-360.5 8.5,-360.5"/>
<polygon fill="none" stroke="red" points="8,-344 8,-393 105,-393 105,-344 8,-344"/>
</a>
</g>
</g>
<!-- Node3&#45;&gt;Node2 -->
<g id="edge2_Node000002_Node000003" class="edge">
<title>Node3&#45;&gt;Node2</title>
<g id="a_edge2_Node000002_Node000003"><a xlink:title=" ">
<path fill="none" stroke="#63b8ff" d="M58.93,-339.94C62.35,-317.38 70.6,-286.17 90.5,-267 114.37,-244 149.34,-232.56 179.82,-226.9"/>
<polygon fill="none" stroke="#63b8ff" points="179.85,-226.89 185.12,-221.97 191.69,-224.94 186.42,-229.86 179.85,-226.89"/>
</a>
</g>
<text text-anchor="middle" x="129.5" y="-314" font-family="Helvetica,sans-Serif" font-size="10.00" fill="grey"> +apriori_value</text>
<text text-anchor="middle" x="129.5" y="-303" font-family="Helvetica,sans-Serif" font-size="10.00" fill="grey">+mu</text>
<text text-anchor="middle" x="129.5" y="-292" font-family="Helvetica,sans-Serif" font-size="10.00" fill="grey">+process_noise</text>
<text text-anchor="middle" x="129.5" y="-281" font-family="Helvetica,sans-Serif" font-size="10.00" fill="grey">+sigma</text>
<text text-anchor="middle" x="129.5" y="-270" font-family="Helvetica,sans-Serif" font-size="10.00" fill="grey">+tau</text>
</g>
<!-- Node5 -->
<g id="Node000005" class="node">
<title>Node5</title>
<g id="a_Node000005"><a xlink:title=" ">
<path fill="#fff0f0" stroke="red" d="M220,-397C220,-397 143,-397 143,-397 137,-397 131,-391 131,-385 131,-385 131,-352 131,-352 131,-346 137,-340 143,-340 143,-340 220,-340 220,-340 226,-340 232,-346 232,-352 232,-352 232,-385 232,-385 232,-391 226,-397 220,-397"/>
<text text-anchor="start" x="144.5" y="-380.5" font-family="Helvetica,sans-Serif" font-size="10.00">vector&lt; bool &gt;</text>
<text text-anchor="start" x="180" y="-365.5" font-family="Helvetica,sans-Serif" font-size="10.00"> </text>
<text text-anchor="start" x="180" y="-350.5" font-family="Helvetica,sans-Serif" font-size="10.00"> </text>
<polygon fill="red" stroke="red" points="139.5,-375.5 139.5,-375.5 224.5,-375.5 224.5,-375.5 139.5,-375.5"/>
<polygon fill="red" stroke="red" points="139.5,-360.5 139.5,-360.5 224.5,-360.5 224.5,-360.5 139.5,-360.5"/>
<polygon fill="none" stroke="red" points="139,-344 139,-393 224,-393 224,-344 139,-344"/>
</a>
</g>
</g>
<!-- Node5&#45;&gt;Node2 -->
<g id="edge3_Node000002_Node000005" class="edge">
<title>Node5&#45;&gt;Node2</title>
<g id="a_edge3_Node000002_Node000005"><a xlink:title=" ">
<path fill="none" stroke="#63b8ff" d="M175.44,-339.92C172.24,-318.8 171.04,-289.56 182.5,-267 184.1,-263.85 186.03,-260.87 188.2,-258.04"/>
<polygon fill="none" stroke="#63b8ff" points="188.31,-257.92 189.41,-250.8 196.41,-249.07 195.31,-256.19 188.31,-257.92"/>
</a>
</g>
<text text-anchor="middle" x="233.5" y="-297.5" font-family="Helvetica,sans-Serif" font-size="10.00" fill="grey"> +estimate</text>
<text text-anchor="middle" x="233.5" y="-286.5" font-family="Helvetica,sans-Serif" font-size="10.00" fill="grey">+use_remote_sigma</text>
</g>
<!-- Node6 -->
<g id="Node000006" class="node">
<title>Node6</title>
<g id="a_Node000006"><a xlink:title=" ">
<path fill="#fff0f0" stroke="red" d="M348.5,-397C348.5,-397 264.5,-397 264.5,-397 258.5,-397 252.5,-391 252.5,-385 252.5,-385 252.5,-352 252.5,-352 252.5,-346 258.5,-340 264.5,-340 264.5,-340 348.5,-340 348.5,-340 354.5,-340 360.5,-346 360.5,-352 360.5,-352 360.5,-385 360.5,-385 360.5,-391 354.5,-397 348.5,-397"/>
<text text-anchor="start" x="265.5" y="-380.5" font-family="Helvetica,sans-Serif" font-size="10.00">vector&lt; string &gt;</text>
<text text-anchor="start" x="304.5" y="-365.5" font-family="Helvetica,sans-Serif" font-size="10.00"> </text>
<text text-anchor="start" x="304.5" y="-350.5" font-family="Helvetica,sans-Serif" font-size="10.00"> </text>
<polygon fill="red" stroke="red" points="260.5,-375.5 260.5,-375.5 352.5,-375.5 352.5,-375.5 260.5,-375.5"/>
<polygon fill="red" stroke="red" points="260.5,-360.5 260.5,-360.5 352.5,-360.5 352.5,-360.5 260.5,-360.5"/>
<polygon fill="none" stroke="red" points="260.5,-344 260.5,-393 352.5,-393 352.5,-344 260.5,-344"/>
</a>
</g>
</g>
<!-- Node6&#45;&gt;Node2 -->
<g id="edge4_Node000002_Node000006" class="edge">
<title>Node6&#45;&gt;Node2</title>
<g id="a_edge4_Node000002_Node000006"><a xlink:title=" ">
<path fill="none" stroke="#63b8ff" d="M304.3,-339.76C301.74,-318.82 296.25,-289.88 284.5,-267 283.1,-264.27 281.49,-261.57 279.74,-258.94"/>
<polygon fill="none" stroke="#63b8ff" points="279.62,-258.78 272.82,-256.37 272.43,-249.17 279.23,-251.58 279.62,-258.78"/>
</a>
</g>
<text text-anchor="middle" x="329.5" y="-292" font-family="Helvetica,sans-Serif" font-size="10.00" fill="grey"> +comment</text>
</g>
<!-- Node7 -->
<g id="Node000007" class="node">
<title>Node7</title>
<g id="a_Node000007"><a xlink:title=" ">
<path fill="#fff0f0" stroke="red" d="M478,-397C478,-397 391,-397 391,-397 385,-397 379,-391 379,-385 379,-385 379,-352 379,-352 379,-346 385,-340 391,-340 391,-340 478,-340 478,-340 484,-340 490,-346 490,-352 490,-352 490,-385 490,-385 490,-391 484,-397 478,-397"/>
<text text-anchor="start" x="392.5" y="-380.5" font-family="Helvetica,sans-Serif" font-size="10.00">map&lt; int, bool &gt;</text>
<text text-anchor="start" x="433" y="-365.5" font-family="Helvetica,sans-Serif" font-size="10.00"> </text>
<text text-anchor="start" x="433" y="-350.5" font-family="Helvetica,sans-Serif" font-size="10.00"> </text>
<polygon fill="red" stroke="red" points="387.5,-375.5 387.5,-375.5 482.5,-375.5 482.5,-375.5 387.5,-375.5"/>
<polygon fill="red" stroke="red" points="387.5,-360.5 387.5,-360.5 482.5,-360.5 482.5,-360.5 387.5,-360.5"/>
<polygon fill="none" stroke="red" points="387,-344 387,-393 482,-393 482,-344 387,-344"/>
</a>
</g>
</g>
<!-- Node7&#45;&gt;Node2 -->
<g id="edge5_Node000002_Node000007" class="edge">
<title>Node7&#45;&gt;Node2</title>
<g id="a_edge5_Node000002_Node000007"><a xlink:title=" ">
<path fill="none" stroke="#63b8ff" d="M420.55,-339.74C408.06,-317.38 387.82,-286.54 362.5,-267 346.11,-254.35 325.79,-244.87 306.62,-237.93"/>
<polygon fill="none" stroke="#63b8ff" points="306.54,-237.91 299.57,-239.76 295.18,-234.03 302.15,-232.18 306.54,-237.91"/>
</a>
</g>
<text text-anchor="middle" x="448" y="-292" font-family="Helvetica,sans-Serif" font-size="10.00" fill="grey"> +initialisedMap</text>
</g>
</g>
</svg>
