<?xml version="1.0" encoding="UTF-8" standalone="no"?>
<!DOCTYPE svg PUBLIC "-//W3C//DTD SVG 1.1//EN"
 "http://www.w3.org/Graphics/SVG/1.1/DTD/svg11.dtd">
<!-- Generated by graphviz version 2.43.0 (0)
 -->
<!-- Title: IERS2010::poleSolidEarthTide Pages: 1 -->
<svg width="321pt" height="27pt"
 viewBox="0.00 0.00 321.00 27.00" xmlns="http://www.w3.org/2000/svg" xmlns:xlink="http://www.w3.org/1999/xlink">
<g id="graph0" class="graph" transform="scale(1 1) rotate(0) translate(4 23)">
<title>IERS2010::poleSolidEarthTide</title>
<!-- Node1 -->
<g id="Node000001" class="node">
<title>Node1</title>
<g id="a_Node000001"><a xlink:href="structIERS2010.html#a6283c4fc62f79745033893cd35f6c6be" target="_top" xlink:title=" ">
<path fill="#fff0f0" stroke="red" stroke-width="2" d="M153.67,-19C153.67,-19 6.33,-19 6.33,-19 3.17,-19 0,-15.83 0,-12.67 0,-12.67 0,-6.33 0,-6.33 0,-3.17 3.17,0 6.33,0 6.33,0 153.67,0 153.67,0 156.83,0 160,-3.17 160,-6.33 160,-6.33 160,-12.67 160,-12.67 160,-15.83 156.83,-19 153.67,-19"/>
<text text-anchor="middle" x="80" y="-7" font-family="Helvetica,sans-Serif" font-size="10.00">IERS2010::poleSolidEarthTide</text>
</a>
</g>
</g>
<!-- Node2 -->
<g id="Node000002" class="node">
<title>Node2</title>
<g id="a_Node000002"><a xlink:href="structIERS2010.html#ab91dbe30a4ce5e08ec589a7b3f26480a" target="_top" xlink:title=" ">
<path fill="#fff0f0" stroke="red" d="M306.67,-19C306.67,-19 202.33,-19 202.33,-19 199.17,-19 196,-15.83 196,-12.67 196,-12.67 196,-6.33 196,-6.33 196,-3.17 199.17,0 202.33,0 202.33,0 306.67,0 306.67,0 309.83,0 313,-3.17 313,-6.33 313,-6.33 313,-12.67 313,-12.67 313,-15.83 309.83,-19 306.67,-19"/>
<text text-anchor="middle" x="254.5" y="-7" font-family="Helvetica,sans-Serif" font-size="10.00">IERS2010::meanPole</text>
</a>
</g>
</g>
<!-- Node1&#45;&gt;Node2 -->
<g id="edge1_Node000001_Node000002" class="edge">
<title>Node1&#45;&gt;Node2</title>
<g id="a_edge1_Node000001_Node000002"><a xlink:title=" ">
<path fill="none" stroke="#63b8ff" d="M160.18,-9.5C168.75,-9.5 177.4,-9.5 185.81,-9.5"/>
<polygon fill="#63b8ff" stroke="#63b8ff" points="185.93,-13 195.93,-9.5 185.93,-6 185.93,-13"/>
</a>
</g>
</g>
</g>
</svg>
