<?xml version="1.0" encoding="UTF-8" standalone="no"?>
<!DOCTYPE svg PUBLIC "-//W3C//DTD SVG 1.1//EN"
 "http://www.w3.org/Graphics/SVG/1.1/DTD/svg11.dtd">
<!-- Generated by graphviz version 2.43.0 (0)
 -->
<!-- Title: RtcmTrace::traceBrdcEph Pages: 1 -->
<svg width="422pt" height="121pt"
 viewBox="0.00 0.00 422.00 121.00" xmlns="http://www.w3.org/2000/svg" xmlns:xlink="http://www.w3.org/1999/xlink">
<g id="graph0" class="graph" transform="scale(1 1) rotate(0) translate(4 117)">
<title>RtcmTrace::traceBrdcEph</title>
<!-- Node1 -->
<g id="Node000001" class="node">
<title>Node1</title>
<g id="a_Node000001"><a xlink:href="structRtcmTrace.html#a7988263389150711e951a4df5f1dcdd1" target="_top" xlink:title="Write decoded/encoded GPS/GAL/BDS/QZS ephemeris messages to a json file.">
<path fill="#fff0f0" stroke="red" stroke-width="2" d="M131.67,-66C131.67,-66 6.33,-66 6.33,-66 3.17,-66 0,-62.83 0,-59.67 0,-59.67 0,-53.33 0,-53.33 0,-50.17 3.17,-47 6.33,-47 6.33,-47 131.67,-47 131.67,-47 134.83,-47 138,-50.17 138,-53.33 138,-53.33 138,-59.67 138,-59.67 138,-62.83 134.83,-66 131.67,-66"/>
<text text-anchor="middle" x="69" y="-54" font-family="Helvetica,sans-Serif" font-size="10.00">RtcmTrace::traceBrdcEph</text>
</a>
</g>
</g>
<!-- Node2 -->
<g id="Node000002" class="node">
<title>Node2</title>
<g id="a_Node000002"><a xlink:href="gTime_8cpp.html#abc73cf336f9fa1b3622c933d5925e073" target="_top" xlink:title=" ">
<path fill="#fff0f0" stroke="red" d="M248.67,-113C248.67,-113 205.33,-113 205.33,-113 202.17,-113 199,-109.83 199,-106.67 199,-106.67 199,-100.33 199,-100.33 199,-97.17 202.17,-94 205.33,-94 205.33,-94 248.67,-94 248.67,-94 251.83,-94 255,-97.17 255,-100.33 255,-100.33 255,-106.67 255,-106.67 255,-109.83 251.83,-113 248.67,-113"/>
<text text-anchor="middle" x="227" y="-101" font-family="Helvetica,sans-Serif" font-size="10.00">timeGet</text>
</a>
</g>
</g>
<!-- Node1&#45;&gt;Node2 -->
<g id="edge1_Node000001_Node000002" class="edge">
<title>Node1&#45;&gt;Node2</title>
<g id="a_edge1_Node000001_Node000002"><a xlink:title=" ">
<path fill="none" stroke="#63b8ff" d="M101.57,-66.01C126.91,-73.65 162.53,-84.38 189.17,-92.4"/>
<polygon fill="#63b8ff" stroke="#63b8ff" points="188.32,-95.8 198.9,-95.34 190.34,-89.1 188.32,-95.8"/>
</a>
</g>
</g>
<!-- Node3 -->
<g id="Node000003" class="node">
<title>Node3</title>
<g id="a_Node000003"><a xlink:href="structGTime.html#a98fdbaaec5a132a7e694f28b4f1907cb" target="_top" xlink:title=" ">
<path fill="#fff0f0" stroke="red" d="M407.67,-42C407.67,-42 322.33,-42 322.33,-42 319.17,-42 316,-38.83 316,-35.67 316,-35.67 316,-29.33 316,-29.33 316,-26.17 319.17,-23 322.33,-23 322.33,-23 407.67,-23 407.67,-23 410.83,-23 414,-26.17 414,-29.33 414,-29.33 414,-35.67 414,-35.67 414,-38.83 410.83,-42 407.67,-42"/>
<text text-anchor="middle" x="365" y="-30" font-family="Helvetica,sans-Serif" font-size="10.00">GTime::to_string</text>
</a>
</g>
</g>
<!-- Node1&#45;&gt;Node3 -->
<g id="edge2_Node000001_Node000003" class="edge">
<title>Node1&#45;&gt;Node3</title>
<g id="a_edge2_Node000001_Node000003"><a xlink:title=" ">
<path fill="none" stroke="#63b8ff" d="M121.88,-46.97C173.3,-40.91 251.92,-34.42 305.52,-31.76"/>
<polygon fill="#63b8ff" stroke="#63b8ff" points="305.73,-35.25 315.56,-31.29 305.41,-28.26 305.73,-35.25"/>
</a>
</g>
</g>
<!-- Node1&#45;&gt;Node3 -->
<g id="edge3_Node000001_Node000003" class="edge">
<title>Node1&#45;&gt;Node3</title>
<g id="a_edge3_Node000001_Node000003"><a xlink:title=" ">
<path fill="none" stroke="#63b8ff" d="M138.19,-56.73C189.02,-53.94 257.71,-48.24 305.94,-42.74"/>
<polygon fill="#63b8ff" stroke="#63b8ff" points="306.38,-46.22 315.9,-41.57 305.56,-39.26 306.38,-46.22"/>
</a>
</g>
</g>
<!-- Node4 -->
<g id="Node000004" class="node">
<title>Node4</title>
<g id="a_Node000004"><a xlink:href="rtcmTrace_8cpp.html#a6dc806eda86f39bd2d8348c20171456d" target="_top" xlink:title=" ">
<path fill="#fff0f0" stroke="red" d="M273.67,-19C273.67,-19 180.33,-19 180.33,-19 177.17,-19 174,-15.83 174,-12.67 174,-12.67 174,-6.33 174,-6.33 174,-3.17 177.17,0 180.33,0 180.33,0 273.67,0 273.67,0 276.83,0 280,-3.17 280,-6.33 280,-6.33 280,-12.67 280,-12.67 280,-15.83 276.83,-19 273.67,-19"/>
<text text-anchor="middle" x="227" y="-7" font-family="Helvetica,sans-Serif" font-size="10.00">traceBrdcEphBody</text>
</a>
</g>
</g>
<!-- Node1&#45;&gt;Node4 -->
<g id="edge4_Node000001_Node000004" class="edge">
<title>Node1&#45;&gt;Node4</title>
<g id="a_edge4_Node000001_Node000004"><a xlink:title=" ">
<path fill="none" stroke="#63b8ff" d="M101.57,-46.99C125.49,-39.78 158.57,-29.82 184.61,-21.97"/>
<polygon fill="#63b8ff" stroke="#63b8ff" points="185.65,-25.31 194.21,-19.08 183.63,-18.61 185.65,-25.31"/>
</a>
</g>
</g>
<!-- Node4&#45;&gt;Node3 -->
<g id="edge5_Node000004_Node000003" class="edge">
<title>Node4&#45;&gt;Node3</title>
<g id="a_edge5_Node000004_Node000003"><a xlink:title=" ">
<path fill="none" stroke="#63b8ff" d="M280.19,-11.74C296.63,-14.17 314.36,-17.38 329.27,-20.65"/>
<polygon fill="#63b8ff" stroke="#63b8ff" points="328.55,-24.08 339.09,-22.92 330.13,-17.26 328.55,-24.08"/>
</a>
</g>
</g>
<!-- Node4&#45;&gt;Node3 -->
<g id="edge6_Node000004_Node000003" class="edge">
<title>Node4&#45;&gt;Node3</title>
<g id="a_edge6_Node000004_Node000003"><a xlink:title=" ">
<path fill="none" stroke="#63b8ff" d="M252.63,-19.01C267.55,-22.67 287.26,-26.45 305.94,-29.37"/>
<polygon fill="#63b8ff" stroke="#63b8ff" points="305.48,-32.84 315.88,-30.85 306.51,-25.91 305.48,-32.84"/>
</a>
</g>
</g>
</g>
</svg>
