<?xml version="1.0" encoding="UTF-8" standalone="no"?>
<!DOCTYPE svg PUBLIC "-//W3C//DTD SVG 1.1//EN"
 "http://www.w3.org/Graphics/SVG/1.1/DTD/svg11.dtd">
<!-- Generated by graphviz version 2.43.0 (0)
 -->
<!-- Title: Vmf3 Pages: 1 -->
<svg width="349pt" height="284pt"
 viewBox="0.00 0.00 348.50 284.00" xmlns="http://www.w3.org/2000/svg" xmlns:xlink="http://www.w3.org/1999/xlink">
<g id="graph0" class="graph" transform="scale(1 1) rotate(0) translate(4 280)">
<title>Vmf3</title>
<!-- Node1 -->
<g id="Node000001" class="node">
<title>Node1</title>
<g id="a_Node000001"><a xlink:href="structVmf3.html" target="_top" xlink:title=" ">
<path fill="white" stroke="#666666" stroke-width="2" d="M170,-57C170,-57 141,-57 141,-57 135,-57 129,-51 129,-45 129,-45 129,-12 129,-12 129,-6 135,0 141,0 141,0 170,0 170,0 176,0 182,-6 182,-12 182,-12 182,-45 182,-45 182,-51 176,-57 170,-57"/>
<text text-anchor="start" x="142.5" y="-40.5" font-family="Helvetica,sans-Serif" font-size="10.00">Vmf3</text>
<text text-anchor="start" x="154" y="-25.5" font-family="Helvetica,sans-Serif" font-size="10.00"> </text>
<text text-anchor="start" x="154" y="-10.5" font-family="Helvetica,sans-Serif" font-size="10.00"> </text>
<polygon fill="#666666" stroke="#666666" points="137.5,-35.5 137.5,-35.5 174.5,-35.5 174.5,-35.5 137.5,-35.5"/>
<polygon fill="#666666" stroke="#666666" points="137.5,-20.5 137.5,-20.5 174.5,-20.5 174.5,-20.5 137.5,-20.5"/>
<polygon fill="none" stroke="#666666" points="137,-4 137,-53 174,-53 174,-4 137,-4"/>
</a>
</g>
</g>
<!-- Node2 -->
<g id="Node000002" class="node">
<title>Node2</title>
<g id="a_Node000002"><a xlink:title=" ">
<path fill="white" stroke="#666666" d="M195,-172C195,-172 12,-172 12,-172 6,-172 0,-166 0,-160 0,-160 0,-116 0,-116 0,-110 6,-104 12,-104 12,-104 195,-104 195,-104 201,-104 207,-110 207,-116 207,-116 207,-160 207,-160 207,-166 201,-172 195,-172"/>
<text text-anchor="start" x="13.5" y="-156" font-family="Helvetica,sans-Serif" font-size="10.00">map&lt; GTime, map&lt; double,</text>
<text text-anchor="start" x="13.5" y="-145" font-family="Helvetica,sans-Serif" font-size="10.00"> map&lt; double, Vmf3GridPoint &gt; &gt; &gt;</text>
<text text-anchor="start" x="102" y="-130" font-family="Helvetica,sans-Serif" font-size="10.00"> </text>
<text text-anchor="start" x="102" y="-115" font-family="Helvetica,sans-Serif" font-size="10.00"> </text>
<polygon fill="#666666" stroke="#666666" points="8.5,-140 8.5,-140 199.5,-140 199.5,-140 8.5,-140"/>
<polygon fill="#666666" stroke="#666666" points="8.5,-125 8.5,-125 199.5,-125 199.5,-125 8.5,-125"/>
<polygon fill="none" stroke="#666666" points="8,-108 8,-168 199,-168 199,-108 8,-108"/>
</a>
</g>
</g>
<!-- Node2&#45;&gt;Node1 -->
<g id="edge1_Node000001_Node000002" class="edge">
<title>Node2&#45;&gt;Node1</title>
<g id="a_edge1_Node000001_Node000002"><a xlink:title=" ">
<path fill="none" stroke="#63b8ff" d="M124.05,-94.51C130.11,-81.99 136.58,-68.62 142.06,-57.28"/>
<polygon fill="none" stroke="#63b8ff" points="120.73,-93.34 119.53,-103.87 127.03,-96.39 120.73,-93.34"/>
</a>
</g>
</g>
<!-- Node3 -->
<g id="Node000003" class="node">
<title>Node3</title>
<g id="a_Node000003"><a xlink:title=" ">
<path fill="white" stroke="#666666" d="M326,-166.5C326,-166.5 237,-166.5 237,-166.5 231,-166.5 225,-160.5 225,-154.5 225,-154.5 225,-121.5 225,-121.5 225,-115.5 231,-109.5 237,-109.5 237,-109.5 326,-109.5 326,-109.5 332,-109.5 338,-115.5 338,-121.5 338,-121.5 338,-154.5 338,-154.5 338,-160.5 332,-166.5 326,-166.5"/>
<text text-anchor="start" x="238.5" y="-150" font-family="Helvetica,sans-Serif" font-size="10.00">vector&lt; double &gt;</text>
<text text-anchor="start" x="280" y="-135" font-family="Helvetica,sans-Serif" font-size="10.00"> </text>
<text text-anchor="start" x="280" y="-120" font-family="Helvetica,sans-Serif" font-size="10.00"> </text>
<polygon fill="#666666" stroke="#666666" points="233.5,-145 233.5,-145 330.5,-145 330.5,-145 233.5,-145"/>
<polygon fill="#666666" stroke="#666666" points="233.5,-130 233.5,-130 330.5,-130 330.5,-130 233.5,-130"/>
<polygon fill="none" stroke="#666666" points="233,-113.5 233,-162.5 330,-162.5 330,-113.5 233,-113.5"/>
</a>
</g>
</g>
<!-- Node3&#45;&gt;Node1 -->
<g id="edge2_Node000001_Node000003" class="edge">
<title>Node3&#45;&gt;Node1</title>
<g id="a_edge2_Node000001_Node000003"><a xlink:title=" ">
<path fill="none" stroke="#63b8ff" d="M249.05,-109.32C231.58,-94.41 209.97,-75.97 191.92,-60.58"/>
<polygon fill="none" stroke="#63b8ff" points="191.44,-60.16 184.28,-59.31 182.31,-52.38 189.47,-53.23 191.44,-60.16"/>
</a>
</g>
<text text-anchor="middle" x="249" y="-78" font-family="Helvetica,sans-Serif" font-size="10.00" fill="grey"> +orography</text>
</g>
<!-- Node4 -->
<g id="Node000004" class="node">
<title>Node4</title>
<g id="a_Node000004"><a xlink:title=" ">
<path fill="white" stroke="#666666" d="M298,-276C298,-276 265,-276 265,-276 259,-276 253,-270 253,-264 253,-264 253,-231 253,-231 253,-225 259,-219 265,-219 265,-219 298,-219 298,-219 304,-219 310,-225 310,-231 310,-231 310,-264 310,-264 310,-270 304,-276 298,-276"/>
<text text-anchor="start" x="266.5" y="-259.5" font-family="Helvetica,sans-Serif" font-size="10.00">vector</text>
<text text-anchor="start" x="280" y="-244.5" font-family="Helvetica,sans-Serif" font-size="10.00"> </text>
<text text-anchor="start" x="280" y="-229.5" font-family="Helvetica,sans-Serif" font-size="10.00"> </text>
<polygon fill="#666666" stroke="#666666" points="261.5,-254.5 261.5,-254.5 302.5,-254.5 302.5,-254.5 261.5,-254.5"/>
<polygon fill="#666666" stroke="#666666" points="261.5,-239.5 261.5,-239.5 302.5,-239.5 302.5,-239.5 261.5,-239.5"/>
<polygon fill="none" stroke="#666666" points="261,-223 261,-272 302,-272 302,-223 261,-223"/>
</a>
</g>
</g>
<!-- Node4&#45;&gt;Node3 -->
<g id="edge3_Node000003_Node000004" class="edge">
<title>Node4&#45;&gt;Node3</title>
<g id="a_edge3_Node000003_Node000004"><a xlink:title=" ">
<path fill="none" stroke="orange" d="M281.5,-208.6C281.5,-194.75 281.5,-179.37 281.5,-166.59"/>
<polygon fill="orange" stroke="orange" points="278,-208.82 281.5,-218.82 285,-208.82 278,-208.82"/>
</a>
</g>
<text text-anchor="middle" x="311" y="-193" font-family="Helvetica,sans-Serif" font-size="10.00" fill="grey"> &lt; double &gt;</text>
</g>
</g>
</svg>
