<?xml version="1.0" encoding="UTF-8" standalone="no"?>
<!DOCTYPE svg PUBLIC "-//W3C//DTD SVG 1.1//EN"
 "http://www.w3.org/Graphics/SVG/1.1/DTD/svg11.dtd">
<!-- Generated by graphviz version 2.43.0 (0)
 -->
<!-- Title: Legendre Pages: 1 -->
<svg width="98pt" height="273pt"
 viewBox="0.00 0.00 98.00 273.00" xmlns="http://www.w3.org/2000/svg" xmlns:xlink="http://www.w3.org/1999/xlink">
<g id="graph0" class="graph" transform="scale(1 1) rotate(0) translate(4 269)">
<title>Legendre</title>
<!-- Node1 -->
<g id="Node000001" class="node">
<title>Node1</title>
<g id="a_Node000001"><a xlink:href="structLegendre.html" target="_top" xlink:title=" ">
<path fill="white" stroke="#666666" stroke-width="2" d="M78,-117C78,-117 12,-117 12,-117 6,-117 0,-111 0,-105 0,-105 0,-12 0,-12 0,-6 6,0 12,0 12,0 78,0 78,0 84,0 90,-6 90,-12 90,-12 90,-105 90,-105 90,-111 84,-117 78,-117"/>
<text text-anchor="start" x="22" y="-100.5" font-family="Helvetica,sans-Serif" font-size="10.00">Legendre</text>
<text text-anchor="start" x="12" y="-85.5" font-family="Helvetica,sans-Serif" font-size="10.00">+</text>
<text text-anchor="start" x="25" y="-85.5" font-family="Helvetica,sans-Serif" font-size="10.00">nmax</text>
<text text-anchor="start" x="12" y="-70.5" font-family="Helvetica,sans-Serif" font-size="10.00">+</text>
<text text-anchor="start" x="25" y="-70.5" font-family="Helvetica,sans-Serif" font-size="10.00">Legendre()</text>
<text text-anchor="start" x="12" y="-55.5" font-family="Helvetica,sans-Serif" font-size="10.00">+</text>
<text text-anchor="start" x="25" y="-55.5" font-family="Helvetica,sans-Serif" font-size="10.00">Legendre()</text>
<text text-anchor="start" x="12" y="-40.5" font-family="Helvetica,sans-Serif" font-size="10.00">+</text>
<text text-anchor="start" x="25" y="-40.5" font-family="Helvetica,sans-Serif" font-size="10.00">setNmax()</text>
<text text-anchor="start" x="12" y="-25.5" font-family="Helvetica,sans-Serif" font-size="10.00">+</text>
<text text-anchor="start" x="25" y="-25.5" font-family="Helvetica,sans-Serif" font-size="10.00">init()</text>
<text text-anchor="start" x="12" y="-10.5" font-family="Helvetica,sans-Serif" font-size="10.00">+</text>
<text text-anchor="start" x="25" y="-10.5" font-family="Helvetica,sans-Serif" font-size="10.00">calculate()</text>
<polygon fill="#666666" stroke="#666666" points="8,-95.5 8,-95.5 82,-95.5 82,-95.5 8,-95.5"/>
<polygon fill="#666666" stroke="#666666" points="8,-80.5 8,-80.5 23,-80.5 23,-80.5 8,-80.5"/>
<polygon fill="#666666" stroke="#666666" points="23,-80.5 23,-80.5 82,-80.5 82,-80.5 23,-80.5"/>
<polygon fill="none" stroke="#666666" points="8,-4 8,-113 82,-113 82,-4 8,-4"/>
</a>
</g>
</g>
<!-- Node2 -->
<g id="Node000002" class="node">
<title>Node2</title>
<g id="a_Node000002"><a xlink:title=" ">
<path fill="white" stroke="#666666" d="M68.5,-265C68.5,-265 21.5,-265 21.5,-265 15.5,-265 9.5,-259 9.5,-253 9.5,-253 9.5,-220 9.5,-220 9.5,-214 15.5,-208 21.5,-208 21.5,-208 68.5,-208 68.5,-208 74.5,-208 80.5,-214 80.5,-220 80.5,-220 80.5,-253 80.5,-253 80.5,-259 74.5,-265 68.5,-265"/>
<text text-anchor="start" x="23" y="-248.5" font-family="Helvetica,sans-Serif" font-size="10.00">MatrixXd</text>
<text text-anchor="start" x="43.5" y="-233.5" font-family="Helvetica,sans-Serif" font-size="10.00"> </text>
<text text-anchor="start" x="43.5" y="-218.5" font-family="Helvetica,sans-Serif" font-size="10.00"> </text>
<polygon fill="#666666" stroke="#666666" points="18,-243.5 18,-243.5 73,-243.5 73,-243.5 18,-243.5"/>
<polygon fill="#666666" stroke="#666666" points="18,-228.5 18,-228.5 73,-228.5 73,-228.5 18,-228.5"/>
<polygon fill="none" stroke="#666666" points="17.5,-212 17.5,-261 72.5,-261 72.5,-212 17.5,-212"/>
</a>
</g>
</g>
<!-- Node2&#45;&gt;Node1 -->
<g id="edge1_Node000001_Node000002" class="edge">
<title>Node2&#45;&gt;Node1</title>
<g id="a_edge1_Node000001_Node000002"><a xlink:title=" ">
<path fill="none" stroke="#63b8ff" d="M45,-207.61C45,-186.6 45,-156.82 45,-129.48"/>
<polygon fill="none" stroke="#63b8ff" points="45,-129.12 41,-123.12 45,-117.12 49,-123.12 45,-129.12"/>
</a>
</g>
<text text-anchor="middle" x="63.5" y="-182" font-family="Helvetica,sans-Serif" font-size="10.00" fill="grey"> +Pnm</text>
<text text-anchor="middle" x="63.5" y="-171" font-family="Helvetica,sans-Serif" font-size="10.00" fill="grey">+anm</text>
<text text-anchor="middle" x="63.5" y="-160" font-family="Helvetica,sans-Serif" font-size="10.00" fill="grey">+bnm</text>
<text text-anchor="middle" x="63.5" y="-149" font-family="Helvetica,sans-Serif" font-size="10.00" fill="grey">+dPnm</text>
<text text-anchor="middle" x="63.5" y="-138" font-family="Helvetica,sans-Serif" font-size="10.00" fill="grey">+fnm</text>
</g>
</g>
</svg>
