<?xml version="1.0" encoding="UTF-8" standalone="no"?>
<!DOCTYPE svg PUBLIC "-//W3C//DTD SVG 1.1//EN"
 "http://www.w3.org/Graphics/SVG/1.1/DTD/svg11.dtd">
<!-- Generated by graphviz version 2.43.0 (0)
 -->
<!-- Title: QC Pages: 1 -->
<svg width="220pt" height="374pt"
 viewBox="0.00 0.00 220.00 374.00" xmlns="http://www.w3.org/2000/svg" xmlns:xlink="http://www.w3.org/1999/xlink">
<g id="graph0" class="graph" transform="scale(1 1) rotate(0) translate(4 370)">
<title>QC</title>
<!-- Node1 -->
<g id="Node000001" class="node">
<title>Node1</title>
<g id="a_Node000001"><a xlink:href="structQC.html" target="_top" xlink:title=" ">
<path fill="white" stroke="#666666" stroke-width="2" d="M131.5,-87C131.5,-87 96.5,-87 96.5,-87 90.5,-87 84.5,-81 84.5,-75 84.5,-75 84.5,-12 84.5,-12 84.5,-6 90.5,0 96.5,0 96.5,0 131.5,0 131.5,0 137.5,0 143.5,-6 143.5,-12 143.5,-12 143.5,-75 143.5,-75 143.5,-81 137.5,-87 131.5,-87"/>
<text text-anchor="start" x="107" y="-70.5" font-family="Helvetica,sans-Serif" font-size="10.00">QC</text>
<text text-anchor="start" x="97" y="-55.5" font-family="Helvetica,sans-Serif" font-size="10.00">+</text>
<text text-anchor="start" x="110" y="-55.5" font-family="Helvetica,sans-Serif" font-size="10.00">amb</text>
<text text-anchor="start" x="97" y="-40.5" font-family="Helvetica,sans-Serif" font-size="10.00">+</text>
<text text-anchor="start" x="110" y="-40.5" font-family="Helvetica,sans-Serif" font-size="10.00">mw</text>
<text text-anchor="start" x="97" y="-25.5" font-family="Helvetica,sans-Serif" font-size="10.00">+</text>
<text text-anchor="start" x="110" y="-25.5" font-family="Helvetica,sans-Serif" font-size="10.00">gf</text>
<text text-anchor="start" x="112.5" y="-10.5" font-family="Helvetica,sans-Serif" font-size="10.00"> </text>
<polygon fill="#666666" stroke="#666666" points="93,-65.5 93,-65.5 136,-65.5 136,-65.5 93,-65.5"/>
<polygon fill="#666666" stroke="#666666" points="93,-20.5 93,-20.5 108,-20.5 108,-20.5 93,-20.5"/>
<polygon fill="#666666" stroke="#666666" points="108,-20.5 108,-20.5 136,-20.5 136,-20.5 108,-20.5"/>
<polygon fill="none" stroke="#666666" points="92.5,-4 92.5,-83 135.5,-83 135.5,-4 92.5,-4"/>
</a>
</g>
</g>
<!-- Node2 -->
<g id="Node000002" class="node">
<title>Node2</title>
<g id="a_Node000002"><a xlink:href="structAverage.html" target="_top" xlink:title=" ">
<path fill="white" stroke="#666666" d="M54,-239.5C54,-239.5 12,-239.5 12,-239.5 6,-239.5 0,-233.5 0,-227.5 0,-227.5 0,-179.5 0,-179.5 0,-173.5 6,-167.5 12,-167.5 12,-167.5 54,-167.5 54,-167.5 60,-167.5 66,-173.5 66,-179.5 66,-179.5 66,-227.5 66,-227.5 66,-233.5 60,-239.5 54,-239.5"/>
<text text-anchor="start" x="13" y="-223.5" font-family="Helvetica,sans-Serif" font-size="10.00">Average</text>
<text text-anchor="start" x="12" y="-208.5" font-family="Helvetica,sans-Serif" font-size="10.00">+</text>
<text text-anchor="start" x="25" y="-208.5" font-family="Helvetica,sans-Serif" font-size="10.00">mean</text>
<text text-anchor="start" x="12" y="-193.5" font-family="Helvetica,sans-Serif" font-size="10.00">+</text>
<text text-anchor="start" x="25" y="-193.5" font-family="Helvetica,sans-Serif" font-size="10.00">var</text>
<text text-anchor="start" x="31" y="-178.5" font-family="Helvetica,sans-Serif" font-size="10.00"> </text>
<polygon fill="#666666" stroke="#666666" points="8,-218.5 8,-218.5 58,-218.5 58,-218.5 8,-218.5"/>
<polygon fill="#666666" stroke="#666666" points="8,-188.5 8,-188.5 23,-188.5 23,-188.5 8,-188.5"/>
<polygon fill="#666666" stroke="#666666" points="23,-188.5 23,-188.5 58,-188.5 58,-188.5 23,-188.5"/>
<polygon fill="none" stroke="#666666" points="8,-171.5 8,-235.5 58,-235.5 58,-171.5 8,-171.5"/>
</a>
</g>
</g>
<!-- Node2&#45;&gt;Node1 -->
<g id="edge1_Node000001_Node000002" class="edge">
<title>Node2&#45;&gt;Node1</title>
<g id="a_edge1_Node000001_Node000002"><a xlink:title=" ">
<path fill="none" stroke="#63b8ff" d="M36.75,-167.04C39.89,-147.79 45.62,-124.1 56,-105 61.2,-95.43 68.32,-86.29 75.79,-78.14"/>
<polygon fill="none" stroke="#63b8ff" points="75.92,-78 77.23,-70.91 84.28,-69.39 82.97,-76.48 75.92,-78"/>
</a>
</g>
<text text-anchor="middle" x="83" y="-119" font-family="Helvetica,sans-Serif" font-size="10.00" fill="grey"> +emwSlip</text>
<text text-anchor="middle" x="83" y="-108" font-family="Helvetica,sans-Serif" font-size="10.00" fill="grey">+mwSlip</text>
</g>
<!-- Node3 -->
<g id="Node000003" class="node">
<title>Node3</title>
<g id="a_Node000003"><a xlink:href="structflt__t.html" target="_top" xlink:title="Cycle slip repair filter.">
<path fill="white" stroke="#666666" d="M131.5,-262C131.5,-262 96.5,-262 96.5,-262 90.5,-262 84.5,-256 84.5,-250 84.5,-250 84.5,-157 84.5,-157 84.5,-151 90.5,-145 96.5,-145 96.5,-145 131.5,-145 131.5,-145 137.5,-145 143.5,-151 143.5,-157 143.5,-157 143.5,-250 143.5,-250 143.5,-256 137.5,-262 131.5,-262"/>
<text text-anchor="start" x="105" y="-245.5" font-family="Helvetica,sans-Serif" font-size="10.00">flt_t</text>
<text text-anchor="start" x="97" y="-230.5" font-family="Helvetica,sans-Serif" font-size="10.00">+</text>
<text text-anchor="start" x="110" y="-230.5" font-family="Helvetica,sans-Serif" font-size="10.00">a</text>
<text text-anchor="start" x="97" y="-215.5" font-family="Helvetica,sans-Serif" font-size="10.00">+</text>
<text text-anchor="start" x="110" y="-215.5" font-family="Helvetica,sans-Serif" font-size="10.00">Qa</text>
<text text-anchor="start" x="97" y="-200.5" font-family="Helvetica,sans-Serif" font-size="10.00">+</text>
<text text-anchor="start" x="110" y="-200.5" font-family="Helvetica,sans-Serif" font-size="10.00">slip</text>
<text text-anchor="start" x="97" y="-185.5" font-family="Helvetica,sans-Serif" font-size="10.00">+</text>
<text text-anchor="start" x="110" y="-185.5" font-family="Helvetica,sans-Serif" font-size="10.00">amb</text>
<text text-anchor="start" x="97" y="-170.5" font-family="Helvetica,sans-Serif" font-size="10.00">+</text>
<text text-anchor="start" x="110" y="-170.5" font-family="Helvetica,sans-Serif" font-size="10.00">ne</text>
<text text-anchor="start" x="112.5" y="-155.5" font-family="Helvetica,sans-Serif" font-size="10.00"> </text>
<polygon fill="#666666" stroke="#666666" points="93,-240.5 93,-240.5 136,-240.5 136,-240.5 93,-240.5"/>
<polygon fill="#666666" stroke="#666666" points="93,-165.5 93,-165.5 108,-165.5 108,-165.5 93,-165.5"/>
<polygon fill="#666666" stroke="#666666" points="108,-165.5 108,-165.5 136,-165.5 136,-165.5 108,-165.5"/>
<polygon fill="none" stroke="#666666" points="92.5,-149 92.5,-258 135.5,-258 135.5,-149 92.5,-149"/>
</a>
</g>
</g>
<!-- Node3&#45;&gt;Node1 -->
<g id="edge2_Node000001_Node000003" class="edge">
<title>Node3&#45;&gt;Node1</title>
<g id="a_edge2_Node000001_Node000003"><a xlink:title=" ">
<path fill="none" stroke="#63b8ff" d="M114,-144.56C114,-129.85 114,-114.08 114,-99.52"/>
<polygon fill="none" stroke="#63b8ff" points="114,-99.09 110,-93.09 114,-87.09 118,-93.09 114,-99.09"/>
</a>
</g>
<text text-anchor="middle" x="125" y="-113.5" font-family="Helvetica,sans-Serif" font-size="10.00" fill="grey"> +flt</text>
</g>
<!-- Node4 -->
<g id="Node000004" class="node">
<title>Node4</title>
<g id="a_Node000004"><a xlink:href="structlc__t.html" target="_top" xlink:title=" ">
<path fill="#fff0f0" stroke="red" d="M157,-366C157,-366 137,-366 137,-366 131,-366 125,-360 125,-354 125,-354 125,-321 125,-321 125,-315 131,-309 137,-309 137,-309 157,-309 157,-309 163,-309 169,-315 169,-321 169,-321 169,-354 169,-354 169,-360 163,-366 157,-366"/>
<text text-anchor="start" x="138" y="-349.5" font-family="Helvetica,sans-Serif" font-size="10.00">lc_t</text>
<text text-anchor="start" x="145" y="-334.5" font-family="Helvetica,sans-Serif" font-size="10.00"> </text>
<text text-anchor="start" x="145" y="-319.5" font-family="Helvetica,sans-Serif" font-size="10.00"> </text>
<polygon fill="red" stroke="red" points="133,-344.5 133,-344.5 161,-344.5 161,-344.5 133,-344.5"/>
<polygon fill="red" stroke="red" points="133,-329.5 133,-329.5 161,-329.5 161,-329.5 133,-329.5"/>
<polygon fill="none" stroke="red" points="133,-313 133,-362 161,-362 161,-313 133,-313"/>
</a>
</g>
</g>
<!-- Node4&#45;&gt;Node1 -->
<g id="edge4_Node000001_Node000004" class="edge">
<title>Node4&#45;&gt;Node1</title>
<g id="a_edge4_Node000001_Node000004"><a xlink:title=" ">
<path fill="none" stroke="#63b8ff" d="M160.65,-308.65C162.87,-302.94 164.82,-296.88 166,-291 166.96,-286.21 166.25,-284.88 166,-280 161.94,-201.47 166.86,-178.9 140,-105 139.21,-102.82 138.38,-100.61 137.53,-98.39"/>
<polygon fill="none" stroke="#63b8ff" points="137.52,-98.37 131.58,-94.28 133.08,-87.22 139.01,-91.32 137.52,-98.37"/>
</a>
</g>
<text text-anchor="middle" x="189" y="-206.5" font-family="Helvetica,sans-Serif" font-size="10.00" fill="grey"> +lc_new</text>
<text text-anchor="middle" x="189" y="-195.5" font-family="Helvetica,sans-Serif" font-size="10.00" fill="grey">+lc_pre</text>
</g>
<!-- Node4&#45;&gt;Node3 -->
<g id="edge3_Node000003_Node000004" class="edge">
<title>Node4&#45;&gt;Node3</title>
<g id="a_edge3_Node000003_Node000004"><a xlink:title=" ">
<path fill="none" stroke="#63b8ff" d="M131.8,-308.67C129.18,-302.96 126.75,-296.89 125,-291 123.39,-285.57 122.01,-279.88 120.84,-274.12"/>
<polygon fill="none" stroke="#63b8ff" points="120.83,-274.08 115.83,-268.89 118.7,-262.27 123.7,-267.47 120.83,-274.08"/>
</a>
</g>
<text text-anchor="middle" x="145.5" y="-283" font-family="Helvetica,sans-Serif" font-size="10.00" fill="grey"> +lc_pre</text>
</g>
</g>
</svg>
