<?xml version="1.0" encoding="UTF-8" standalone="no"?>
<!DOCTYPE svg PUBLIC "-//W3C//DTD SVG 1.1//EN"
 "http://www.w3.org/Graphics/SVG/1.1/DTD/svg11.dtd">
<!-- Generated by graphviz version 2.43.0 (0)
 -->
<!-- Title: SatSys Pages: 1 -->
<svg width="217pt" height="509pt"
 viewBox="0.00 0.00 217.00 509.00" xmlns="http://www.w3.org/2000/svg" xmlns:xlink="http://www.w3.org/1999/xlink">
<g id="graph0" class="graph" transform="scale(1 1) rotate(0) translate(4 505)">
<title>SatSys</title>
<!-- Node1 -->
<g id="Node000001" class="node">
<title>Node1</title>
<g id="a_Node000001"><a xlink:href="structSatSys.html" target="_top" xlink:title="Object holding satellite id, and providing related functions.">
<path fill="white" stroke="#666666" stroke-width="2" d="M112.5,-282C112.5,-282 19.5,-282 19.5,-282 13.5,-282 7.5,-276 7.5,-270 7.5,-270 7.5,-12 7.5,-12 7.5,-6 13.5,0 19.5,0 19.5,0 112.5,0 112.5,0 118.5,0 124.5,-6 124.5,-12 124.5,-12 124.5,-270 124.5,-270 124.5,-276 118.5,-282 112.5,-282"/>
<text text-anchor="start" x="49.5" y="-266" font-family="Helvetica,sans-Serif" font-size="10.00">SatSys</text>
<text text-anchor="start" x="20" y="-251" font-family="Helvetica,sans-Serif" font-size="10.00">+</text>
<text text-anchor="start" x="33" y="-251" font-family="Helvetica,sans-Serif" font-size="10.00">sys</text>
<text text-anchor="start" x="20" y="-236" font-family="Helvetica,sans-Serif" font-size="10.00">+</text>
<text text-anchor="start" x="33" y="-236" font-family="Helvetica,sans-Serif" font-size="10.00">prn</text>
<text text-anchor="start" x="20" y="-221" font-family="Helvetica,sans-Serif" font-size="10.00">+</text>
<text text-anchor="start" x="33" y="-221" font-family="Helvetica,sans-Serif" font-size="10.00">SatSys()</text>
<text text-anchor="start" x="20" y="-206" font-family="Helvetica,sans-Serif" font-size="10.00">+</text>
<text text-anchor="start" x="33" y="-206" font-family="Helvetica,sans-Serif" font-size="10.00">sysChar()</text>
<text text-anchor="start" x="20" y="-191" font-family="Helvetica,sans-Serif" font-size="10.00">+</text>
<text text-anchor="start" x="33" y="-191" font-family="Helvetica,sans-Serif" font-size="10.00">getId()</text>
<text text-anchor="start" x="20" y="-176" font-family="Helvetica,sans-Serif" font-size="10.00">+</text>
<text text-anchor="start" x="33" y="-176" font-family="Helvetica,sans-Serif" font-size="10.00">operator int()</text>
<text text-anchor="start" x="20" y="-161" font-family="Helvetica,sans-Serif" font-size="10.00">+</text>
<text text-anchor="start" x="33" y="-161" font-family="Helvetica,sans-Serif" font-size="10.00">setBlockType()</text>
<text text-anchor="start" x="20" y="-146" font-family="Helvetica,sans-Serif" font-size="10.00">+</text>
<text text-anchor="start" x="33" y="-146" font-family="Helvetica,sans-Serif" font-size="10.00">setSvn()</text>
<text text-anchor="start" x="20" y="-131" font-family="Helvetica,sans-Serif" font-size="10.00">+</text>
<text text-anchor="start" x="33" y="-131" font-family="Helvetica,sans-Serif" font-size="10.00">blockType()</text>
<text text-anchor="start" x="20" y="-116" font-family="Helvetica,sans-Serif" font-size="10.00">+</text>
<text text-anchor="start" x="33" y="-116" font-family="Helvetica,sans-Serif" font-size="10.00">svn()</text>
<text text-anchor="start" x="20" y="-101" font-family="Helvetica,sans-Serif" font-size="10.00">+</text>
<text text-anchor="start" x="33" y="-101" font-family="Helvetica,sans-Serif" font-size="10.00">fromHash()</text>
<text text-anchor="start" x="20" y="-86" font-family="Helvetica,sans-Serif" font-size="10.00">+</text>
<text text-anchor="start" x="33" y="-86" font-family="Helvetica,sans-Serif" font-size="10.00">id()</text>
<text text-anchor="start" x="20" y="-71" font-family="Helvetica,sans-Serif" font-size="10.00">+</text>
<text text-anchor="start" x="33" y="-71" font-family="Helvetica,sans-Serif" font-size="10.00">operator string()</text>
<text text-anchor="start" x="20" y="-56" font-family="Helvetica,sans-Serif" font-size="10.00">+</text>
<text text-anchor="start" x="33" y="-56" font-family="Helvetica,sans-Serif" font-size="10.00">SatSys()</text>
<text text-anchor="start" x="20" y="-41" font-family="Helvetica,sans-Serif" font-size="10.00">+</text>
<text text-anchor="start" x="33" y="-41" font-family="Helvetica,sans-Serif" font-size="10.00">sysName()</text>
<text text-anchor="start" x="20" y="-26" font-family="Helvetica,sans-Serif" font-size="10.00">+</text>
<text text-anchor="start" x="33" y="-26" font-family="Helvetica,sans-Serif" font-size="10.00">serialize()</text>
<text text-anchor="start" x="20" y="-11" font-family="Helvetica,sans-Serif" font-size="10.00">+</text>
<text text-anchor="start" x="33" y="-11" font-family="Helvetica,sans-Serif" font-size="10.00">sysFromChar()</text>
<polygon fill="#666666" stroke="#666666" points="16,-261 16,-261 117,-261 117,-261 16,-261"/>
<polygon fill="#666666" stroke="#666666" points="16,-231 16,-231 31,-231 31,-231 16,-231"/>
<polygon fill="#666666" stroke="#666666" points="31,-231 31,-231 117,-231 117,-231 31,-231"/>
<polygon fill="none" stroke="#666666" points="15.5,-4 15.5,-278 116.5,-278 116.5,-4 15.5,-4"/>
</a>
</g>
</g>
<!-- Node2 -->
<g id="Node000002" class="node">
<title>Node2</title>
<g id="a_Node000002"><a xlink:title=" ">
<path fill="white" stroke="#666666" d="M120,-397C120,-397 12,-397 12,-397 6,-397 0,-391 0,-385 0,-385 0,-341 0,-341 0,-335 6,-329 12,-329 12,-329 120,-329 120,-329 126,-329 132,-335 132,-341 132,-341 132,-385 132,-385 132,-391 126,-397 120,-397"/>
<text text-anchor="start" x="13" y="-381" font-family="Helvetica,sans-Serif" font-size="10.00">map&lt; SatSys, SatSys</text>
<text text-anchor="start" x="37.5" y="-370" font-family="Helvetica,sans-Serif" font-size="10.00">::SatData &gt;</text>
<text text-anchor="start" x="64" y="-355" font-family="Helvetica,sans-Serif" font-size="10.00"> </text>
<text text-anchor="start" x="64" y="-340" font-family="Helvetica,sans-Serif" font-size="10.00"> </text>
<polygon fill="#666666" stroke="#666666" points="8,-365 8,-365 124,-365 124,-365 8,-365"/>
<polygon fill="#666666" stroke="#666666" points="8,-350 8,-350 124,-350 124,-350 8,-350"/>
<polygon fill="none" stroke="#666666" points="8,-333 8,-393 124,-393 124,-333 8,-333"/>
</a>
</g>
</g>
<!-- Node2&#45;&gt;Node1 -->
<g id="edge1_Node000001_Node000002" class="edge">
<title>Node2&#45;&gt;Node1</title>
<g id="a_edge1_Node000001_Node000002"><a xlink:title=" ">
<path fill="none" stroke="#63b8ff" d="M66,-328.59C66,-318.66 66,-307.08 66,-294.63"/>
<polygon fill="none" stroke="#63b8ff" points="66,-294.47 62,-288.47 66,-282.47 70,-288.47 66,-294.47"/>
</a>
</g>
<text text-anchor="middle" x="101.5" y="-303" font-family="Helvetica,sans-Serif" font-size="10.00" fill="grey"> +satDataMap</text>
</g>
<!-- Node3 -->
<g id="Node000003" class="node">
<title>Node3</title>
<g id="a_Node000003"><a xlink:title=" ">
<path fill="white" stroke="#666666" d="M78,-501C78,-501 54,-501 54,-501 48,-501 42,-495 42,-489 42,-489 42,-456 42,-456 42,-450 48,-444 54,-444 54,-444 78,-444 78,-444 84,-444 90,-450 90,-456 90,-456 90,-489 90,-489 90,-495 84,-501 78,-501"/>
<text text-anchor="start" x="55" y="-484.5" font-family="Helvetica,sans-Serif" font-size="10.00">map</text>
<text text-anchor="start" x="64" y="-469.5" font-family="Helvetica,sans-Serif" font-size="10.00"> </text>
<text text-anchor="start" x="64" y="-454.5" font-family="Helvetica,sans-Serif" font-size="10.00"> </text>
<polygon fill="#666666" stroke="#666666" points="50,-479.5 50,-479.5 82,-479.5 82,-479.5 50,-479.5"/>
<polygon fill="#666666" stroke="#666666" points="50,-464.5 50,-464.5 82,-464.5 82,-464.5 50,-464.5"/>
<polygon fill="none" stroke="#666666" points="50,-448 50,-497 82,-497 82,-448 50,-448"/>
</a>
</g>
</g>
<!-- Node3&#45;&gt;Node2 -->
<g id="edge2_Node000002_Node000003" class="edge">
<title>Node3&#45;&gt;Node2</title>
<g id="a_edge2_Node000002_Node000003"><a xlink:title=" ">
<path fill="none" stroke="orange" d="M66,-433.75C66,-421.88 66,-408.87 66,-397.34"/>
<polygon fill="orange" stroke="orange" points="62.5,-433.82 66,-443.82 69.5,-433.82 62.5,-433.82"/>
</a>
</g>
<text text-anchor="middle" x="137.5" y="-418" font-family="Helvetica,sans-Serif" font-size="10.00" fill="grey"> &lt; SatSys, SatSys::SatData &gt;</text>
</g>
</g>
</svg>
