<?xml version="1.0" encoding="UTF-8" standalone="no"?>
<!DOCTYPE svg PUBLIC "-//W3C//DTD SVG 1.1//EN"
 "http://www.w3.org/Graphics/SVG/1.1/DTD/svg11.dtd">
<!-- Generated by graphviz version 2.43.0 (0)
 -->
<!-- Title: MongoOptions Pages: 1 -->
<svg width="338pt" height="606pt"
 viewBox="0.00 0.00 338.00 606.00" xmlns="http://www.w3.org/2000/svg" xmlns:xlink="http://www.w3.org/1999/xlink">
<g id="graph0" class="graph" transform="scale(1 1) rotate(0) translate(4 602)">
<title>MongoOptions</title>
<!-- Node1 -->
<g id="Node000001" class="node">
<title>Node1</title>
<g id="a_Node000001"><a xlink:href="structMongoOptions.html" target="_top" xlink:title=" ">
<path fill="white" stroke="#666666" stroke-width="2" d="M177,-379C177,-379 53,-379 53,-379 47,-379 41,-373 41,-367 41,-367 41,-12 41,-12 41,-6 47,0 53,0 53,0 177,0 177,0 183,0 189,-6 189,-12 189,-12 189,-367 189,-367 189,-373 183,-379 177,-379"/>
<text text-anchor="start" x="79.5" y="-362.5" font-family="Helvetica,sans-Serif" font-size="10.00">MongoOptions</text>
<text text-anchor="start" x="53" y="-347.5" font-family="Helvetica,sans-Serif" font-size="10.00">+</text>
<text text-anchor="start" x="66" y="-347.5" font-family="Helvetica,sans-Serif" font-size="10.00">enable</text>
<text text-anchor="start" x="53" y="-332.5" font-family="Helvetica,sans-Serif" font-size="10.00">+</text>
<text text-anchor="start" x="66" y="-332.5" font-family="Helvetica,sans-Serif" font-size="10.00">output_measurements</text>
<text text-anchor="start" x="53" y="-317.5" font-family="Helvetica,sans-Serif" font-size="10.00">+</text>
<text text-anchor="start" x="66" y="-317.5" font-family="Helvetica,sans-Serif" font-size="10.00">output_components</text>
<text text-anchor="start" x="53" y="-302.5" font-family="Helvetica,sans-Serif" font-size="10.00">+</text>
<text text-anchor="start" x="66" y="-302.5" font-family="Helvetica,sans-Serif" font-size="10.00">output_cumulative</text>
<text text-anchor="start" x="53" y="-287.5" font-family="Helvetica,sans-Serif" font-size="10.00">+</text>
<text text-anchor="start" x="66" y="-287.5" font-family="Helvetica,sans-Serif" font-size="10.00">output_states</text>
<text text-anchor="start" x="53" y="-272.5" font-family="Helvetica,sans-Serif" font-size="10.00">+</text>
<text text-anchor="start" x="66" y="-272.5" font-family="Helvetica,sans-Serif" font-size="10.00">output_state_covars</text>
<text text-anchor="start" x="53" y="-257.5" font-family="Helvetica,sans-Serif" font-size="10.00">+</text>
<text text-anchor="start" x="66" y="-257.5" font-family="Helvetica,sans-Serif" font-size="10.00">output_trace</text>
<text text-anchor="start" x="53" y="-242.5" font-family="Helvetica,sans-Serif" font-size="10.00">+</text>
<text text-anchor="start" x="66" y="-242.5" font-family="Helvetica,sans-Serif" font-size="10.00">output_config</text>
<text text-anchor="start" x="53" y="-227.5" font-family="Helvetica,sans-Serif" font-size="10.00">+</text>
<text text-anchor="start" x="66" y="-227.5" font-family="Helvetica,sans-Serif" font-size="10.00">output_test_stats</text>
<text text-anchor="start" x="53" y="-212.5" font-family="Helvetica,sans-Serif" font-size="10.00">+</text>
<text text-anchor="start" x="66" y="-212.5" font-family="Helvetica,sans-Serif" font-size="10.00">output_logs</text>
<text text-anchor="start" x="53" y="-197.5" font-family="Helvetica,sans-Serif" font-size="10.00">+</text>
<text text-anchor="start" x="66" y="-197.5" font-family="Helvetica,sans-Serif" font-size="10.00">output_ssr_precursors</text>
<text text-anchor="start" x="53" y="-182.5" font-family="Helvetica,sans-Serif" font-size="10.00">+</text>
<text text-anchor="start" x="66" y="-182.5" font-family="Helvetica,sans-Serif" font-size="10.00">delete_history</text>
<text text-anchor="start" x="53" y="-167.5" font-family="Helvetica,sans-Serif" font-size="10.00">+</text>
<text text-anchor="start" x="66" y="-167.5" font-family="Helvetica,sans-Serif" font-size="10.00">cull_history</text>
<text text-anchor="start" x="53" y="-152.5" font-family="Helvetica,sans-Serif" font-size="10.00">+</text>
<text text-anchor="start" x="66" y="-152.5" font-family="Helvetica,sans-Serif" font-size="10.00">use_predictions</text>
<text text-anchor="start" x="53" y="-137.5" font-family="Helvetica,sans-Serif" font-size="10.00">+</text>
<text text-anchor="start" x="66" y="-137.5" font-family="Helvetica,sans-Serif" font-size="10.00">output_predictions</text>
<text text-anchor="start" x="53" y="-122.5" font-family="Helvetica,sans-Serif" font-size="10.00">+</text>
<text text-anchor="start" x="66" y="-122.5" font-family="Helvetica,sans-Serif" font-size="10.00">queue_outputs</text>
<text text-anchor="start" x="53" y="-107.5" font-family="Helvetica,sans-Serif" font-size="10.00">+</text>
<text text-anchor="start" x="66" y="-107.5" font-family="Helvetica,sans-Serif" font-size="10.00">prediction_offset</text>
<text text-anchor="start" x="53" y="-92.5" font-family="Helvetica,sans-Serif" font-size="10.00">+</text>
<text text-anchor="start" x="66" y="-92.5" font-family="Helvetica,sans-Serif" font-size="10.00">prediction_interval</text>
<text text-anchor="start" x="53" y="-77.5" font-family="Helvetica,sans-Serif" font-size="10.00">+</text>
<text text-anchor="start" x="66" y="-77.5" font-family="Helvetica,sans-Serif" font-size="10.00">forward_prediction</text>
<text text-anchor="start" x="66" y="-66.5" font-family="Helvetica,sans-Serif" font-size="10.00">_duration</text>
<text text-anchor="start" x="53" y="-51.5" font-family="Helvetica,sans-Serif" font-size="10.00">+</text>
<text text-anchor="start" x="66" y="-51.5" font-family="Helvetica,sans-Serif" font-size="10.00">reverse_prediction</text>
<text text-anchor="start" x="66" y="-40.5" font-family="Helvetica,sans-Serif" font-size="10.00">_duration</text>
<text text-anchor="start" x="53" y="-25.5" font-family="Helvetica,sans-Serif" font-size="10.00">+</text>
<text text-anchor="start" x="66" y="-25.5" font-family="Helvetica,sans-Serif" font-size="10.00">min_cull_age</text>
<text text-anchor="start" x="113" y="-10.5" font-family="Helvetica,sans-Serif" font-size="10.00"> </text>
<polygon fill="#666666" stroke="#666666" points="49,-357.5 49,-357.5 181,-357.5 181,-357.5 49,-357.5"/>
<polygon fill="#666666" stroke="#666666" points="49,-20.5 49,-20.5 64,-20.5 64,-20.5 49,-20.5"/>
<polygon fill="#666666" stroke="#666666" points="64,-20.5 64,-20.5 181,-20.5 181,-20.5 64,-20.5"/>
<polygon fill="none" stroke="#666666" points="49,-4 49,-375 181,-375 181,-4 49,-4"/>
</a>
</g>
</g>
<!-- Node2 -->
<g id="Node000002" class="node">
<title>Node2</title>
<g id="a_Node000002"><a xlink:title=" ">
<path fill="white" stroke="#666666" d="M186,-494C186,-494 12,-494 12,-494 6,-494 0,-488 0,-482 0,-482 0,-449 0,-449 0,-443 6,-437 12,-437 12,-437 186,-437 186,-437 192,-437 198,-443 198,-449 198,-449 198,-482 198,-482 198,-488 192,-494 186,-494"/>
<text text-anchor="start" x="13" y="-477.5" font-family="Helvetica,sans-Serif" font-size="10.00">array&lt; MongoInstanceOptions, 3 &gt;</text>
<text text-anchor="start" x="97" y="-462.5" font-family="Helvetica,sans-Serif" font-size="10.00"> </text>
<text text-anchor="start" x="97" y="-447.5" font-family="Helvetica,sans-Serif" font-size="10.00"> </text>
<polygon fill="#666666" stroke="#666666" points="8,-472.5 8,-472.5 190,-472.5 190,-472.5 8,-472.5"/>
<polygon fill="#666666" stroke="#666666" points="8,-457.5 8,-457.5 190,-457.5 190,-457.5 8,-457.5"/>
<polygon fill="none" stroke="#666666" points="8,-441 8,-490 190,-490 190,-441 8,-441"/>
</a>
</g>
</g>
<!-- Node2&#45;&gt;Node1 -->
<g id="edge1_Node000001_Node000002" class="edge">
<title>Node2&#45;&gt;Node1</title>
<g id="a_edge1_Node000001_Node000002"><a xlink:title=" ">
<path fill="none" stroke="#63b8ff" d="M101.2,-426.74C101.99,-413.21 102.95,-396.89 103.98,-379.22"/>
<polygon fill="none" stroke="#63b8ff" points="97.7,-426.79 100.61,-436.97 104.68,-427.19 97.7,-426.79"/>
</a>
</g>
</g>
<!-- Node3 -->
<g id="Node000003" class="node">
<title>Node3</title>
<g id="a_Node000003"><a xlink:title=" ">
<path fill="white" stroke="#666666" d="M297.5,-494C297.5,-494 228.5,-494 228.5,-494 222.5,-494 216.5,-488 216.5,-482 216.5,-482 216.5,-449 216.5,-449 216.5,-443 222.5,-437 228.5,-437 228.5,-437 297.5,-437 297.5,-437 303.5,-437 309.5,-443 309.5,-449 309.5,-449 309.5,-482 309.5,-482 309.5,-488 303.5,-494 297.5,-494"/>
<text text-anchor="start" x="230" y="-477.5" font-family="Helvetica,sans-Serif" font-size="10.00">vector&lt; KF &gt;</text>
<text text-anchor="start" x="261.5" y="-462.5" font-family="Helvetica,sans-Serif" font-size="10.00"> </text>
<text text-anchor="start" x="261.5" y="-447.5" font-family="Helvetica,sans-Serif" font-size="10.00"> </text>
<polygon fill="#666666" stroke="#666666" points="225,-472.5 225,-472.5 302,-472.5 302,-472.5 225,-472.5"/>
<polygon fill="#666666" stroke="#666666" points="225,-457.5 225,-457.5 302,-457.5 302,-457.5 225,-457.5"/>
<polygon fill="none" stroke="#666666" points="224.5,-441 224.5,-490 301.5,-490 301.5,-441 224.5,-441"/>
</a>
</g>
</g>
<!-- Node3&#45;&gt;Node1 -->
<g id="edge2_Node000001_Node000003" class="edge">
<title>Node3&#45;&gt;Node1</title>
<g id="a_edge2_Node000001_Node000003"><a xlink:title=" ">
<path fill="none" stroke="#63b8ff" d="M248.13,-436.97C235.2,-413.03 215.37,-376.33 194.94,-338.5"/>
<polygon fill="none" stroke="#63b8ff" points="194.87,-338.37 188.5,-334.99 189.17,-327.81 195.54,-331.19 194.87,-338.37"/>
</a>
</g>
<text text-anchor="middle" x="284" y="-411" font-family="Helvetica,sans-Serif" font-size="10.00" fill="grey"> +sent_predictions</text>
<text text-anchor="middle" x="284" y="-400" font-family="Helvetica,sans-Serif" font-size="10.00" fill="grey">+used_predictions</text>
</g>
<!-- Node4 -->
<g id="Node000004" class="node">
<title>Node4</title>
<g id="a_Node000004"><a xlink:title=" ">
<path fill="white" stroke="#666666" d="M279.5,-598C279.5,-598 246.5,-598 246.5,-598 240.5,-598 234.5,-592 234.5,-586 234.5,-586 234.5,-553 234.5,-553 234.5,-547 240.5,-541 246.5,-541 246.5,-541 279.5,-541 279.5,-541 285.5,-541 291.5,-547 291.5,-553 291.5,-553 291.5,-586 291.5,-586 291.5,-592 285.5,-598 279.5,-598"/>
<text text-anchor="start" x="248" y="-581.5" font-family="Helvetica,sans-Serif" font-size="10.00">vector</text>
<text text-anchor="start" x="261.5" y="-566.5" font-family="Helvetica,sans-Serif" font-size="10.00"> </text>
<text text-anchor="start" x="261.5" y="-551.5" font-family="Helvetica,sans-Serif" font-size="10.00"> </text>
<polygon fill="#666666" stroke="#666666" points="243,-576.5 243,-576.5 284,-576.5 284,-576.5 243,-576.5"/>
<polygon fill="#666666" stroke="#666666" points="243,-561.5 243,-561.5 284,-561.5 284,-561.5 243,-561.5"/>
<polygon fill="none" stroke="#666666" points="242.5,-545 242.5,-594 283.5,-594 283.5,-545 242.5,-545"/>
</a>
</g>
</g>
<!-- Node4&#45;&gt;Node3 -->
<g id="edge3_Node000003_Node000004" class="edge">
<title>Node4&#45;&gt;Node3</title>
<g id="a_edge3_Node000003_Node000004"><a xlink:title=" ">
<path fill="none" stroke="orange" d="M263,-530.61C263,-518.51 263,-505.35 263,-494.12"/>
<polygon fill="orange" stroke="orange" points="259.5,-530.9 263,-540.9 266.5,-530.9 259.5,-530.9"/>
</a>
</g>
<text text-anchor="middle" x="282.5" y="-515" font-family="Helvetica,sans-Serif" font-size="10.00" fill="grey"> &lt; KF &gt;</text>
</g>
</g>
</svg>
