<?xml version="1.0" encoding="UTF-8" standalone="no"?>
<!DOCTYPE svg PUBLIC "-//W3C//DTD SVG 1.1//EN"
 "http://www.w3.org/Graphics/SVG/1.1/DTD/svg11.dtd">
<!-- Generated by graphviz version 2.43.0 (0)
 -->
<!-- Title: InteractiveTerminal::setMode Pages: 1 -->
<svg width="266pt" height="113pt"
 viewBox="0.00 0.00 266.00 112.50" xmlns="http://www.w3.org/2000/svg" xmlns:xlink="http://www.w3.org/1999/xlink">
<g id="graph0" class="graph" transform="scale(1 1) rotate(0) translate(4 108.5)">
<title>InteractiveTerminal::setMode</title>
<!-- Node1 -->
<g id="Node000001" class="node">
<title>Node1</title>
<g id="a_Node000001"><a xlink:href="structInteractiveTerminal.html#a1673a1bc7c18472e291aa3b1ed1bb1b7" target="_top" xlink:title=" ">
<path fill="#fff0f0" stroke="red" stroke-width="2" d="M101,-91C101,-91 10,-91 10,-91 5,-91 0,-86 0,-81 0,-81 0,-71 0,-71 0,-66 5,-61 10,-61 10,-61 101,-61 101,-61 106,-61 111,-66 111,-71 111,-71 111,-81 111,-81 111,-86 106,-91 101,-91"/>
<text text-anchor="start" x="8" y="-79" font-family="Helvetica,sans-Serif" font-size="10.00">InteractiveTerminal</text>
<text text-anchor="middle" x="55.5" y="-68" font-family="Helvetica,sans-Serif" font-size="10.00">::setMode</text>
</a>
</g>
</g>
<!-- Node2 -->
<g id="Node000002" class="node">
<title>Node2</title>
<g id="a_Node000002"><a xlink:href="gTime_8cpp.html#abc73cf336f9fa1b3622c933d5925e073" target="_top" xlink:title=" ">
<path fill="#fff0f0" stroke="red" d="M224.17,-104.5C224.17,-104.5 180.83,-104.5 180.83,-104.5 177.67,-104.5 174.5,-101.33 174.5,-98.17 174.5,-98.17 174.5,-91.83 174.5,-91.83 174.5,-88.67 177.67,-85.5 180.83,-85.5 180.83,-85.5 224.17,-85.5 224.17,-85.5 227.33,-85.5 230.5,-88.67 230.5,-91.83 230.5,-91.83 230.5,-98.17 230.5,-98.17 230.5,-101.33 227.33,-104.5 224.17,-104.5"/>
<text text-anchor="middle" x="202.5" y="-92.5" font-family="Helvetica,sans-Serif" font-size="10.00">timeGet</text>
</a>
</g>
</g>
<!-- Node1&#45;&gt;Node2 -->
<g id="edge1_Node000001_Node000002" class="edge">
<title>Node1&#45;&gt;Node2</title>
<g id="a_edge1_Node000001_Node000002"><a xlink:title=" ">
<path fill="none" stroke="#63b8ff" d="M111.32,-76.61C128.95,-78.56 148.07,-81.25 164.14,-84.12"/>
<polygon fill="#63b8ff" stroke="#63b8ff" points="163.75,-87.6 174.22,-86.01 165.04,-80.72 163.75,-87.6"/>
</a>
</g>
</g>
<!-- Node1&#45;&gt;Node2 -->
<g id="edge3_Node000001_Node000002" class="edge">
<title>Node1&#45;&gt;Node2</title>
<g id="a_edge3_Node000001_Node000002"><a xlink:title=" ">
<path fill="none" stroke="#63b8ff" d="M111.32,-89.75C128.95,-92.43 148.07,-94.74 164.14,-96.09"/>
<polygon fill="#63b8ff" stroke="#63b8ff" points="163.99,-99.59 174.22,-96.84 164.51,-92.61 163.99,-99.59"/>
</a>
</g>
</g>
<!-- Node3 -->
<g id="Node000003" class="node">
<title>Node3</title>
<g id="a_Node000003"><a xlink:href="structGTime.html#aaa8a379d11cd6c040a6bbe680c0e913e" target="_top" xlink:title="Uninitialised time for comparisons.">
<path fill="#fff0f0" stroke="red" d="M242.17,-67.5C242.17,-67.5 162.83,-67.5 162.83,-67.5 159.67,-67.5 156.5,-64.33 156.5,-61.17 156.5,-61.17 156.5,-54.83 156.5,-54.83 156.5,-51.67 159.67,-48.5 162.83,-48.5 162.83,-48.5 242.17,-48.5 242.17,-48.5 245.33,-48.5 248.5,-51.67 248.5,-54.83 248.5,-54.83 248.5,-61.17 248.5,-61.17 248.5,-64.33 245.33,-67.5 242.17,-67.5"/>
<text text-anchor="middle" x="202.5" y="-55.5" font-family="Helvetica,sans-Serif" font-size="10.00">GTime::noTime</text>
</a>
</g>
</g>
<!-- Node1&#45;&gt;Node3 -->
<g id="edge2_Node000001_Node000003" class="edge">
<title>Node1&#45;&gt;Node3</title>
<g id="a_edge2_Node000001_Node000003"><a xlink:title=" ">
<path fill="none" stroke="#63b8ff" d="M111.32,-69.19C122.62,-67.79 134.52,-66.31 145.85,-64.91"/>
<polygon fill="#63b8ff" stroke="#63b8ff" points="146.56,-68.35 156.06,-63.64 145.7,-61.4 146.56,-68.35"/>
</a>
</g>
</g>
<!-- Node4 -->
<g id="Node000004" class="node">
<title>Node4</title>
<g id="a_Node000004"><a xlink:href="structInteractiveTerminal.html#a378d8feb06a2859e0379e31ad64b8d00" target="_top" xlink:title=" ">
<path fill="#fff0f0" stroke="red" d="M248,-30C248,-30 157,-30 157,-30 152,-30 147,-25 147,-20 147,-20 147,-10 147,-10 147,-5 152,0 157,0 157,0 248,0 248,0 253,0 258,-5 258,-10 258,-10 258,-20 258,-20 258,-25 253,-30 248,-30"/>
<text text-anchor="start" x="155" y="-18" font-family="Helvetica,sans-Serif" font-size="10.00">InteractiveTerminal</text>
<text text-anchor="middle" x="202.5" y="-7" font-family="Helvetica,sans-Serif" font-size="10.00">::drawMenus</text>
</a>
</g>
</g>
<!-- Node1&#45;&gt;Node4 -->
<g id="edge4_Node000001_Node000004" class="edge">
<title>Node1&#45;&gt;Node4</title>
<g id="a_edge4_Node000001_Node000004"><a xlink:title=" ">
<path fill="none" stroke="#63b8ff" d="M92.34,-60.92C111.67,-52.79 135.72,-42.67 156.32,-34.01"/>
<polygon fill="#63b8ff" stroke="#63b8ff" points="157.96,-37.11 165.82,-30.01 155.24,-30.66 157.96,-37.11"/>
</a>
</g>
</g>
</g>
</svg>
