<?xml version="1.0" encoding="UTF-8" standalone="no"?>
<!DOCTYPE svg PUBLIC "-//W3C//DTD SVG 1.1//EN"
 "http://www.w3.org/Graphics/SVG/1.1/DTD/svg11.dtd">
<!-- Generated by graphviz version 2.43.0 (0)
 -->
<!-- Title: PacketStatistics::nonFrameByteFound Pages: 1 -->
<svg width="309pt" height="101pt"
 viewBox="0.00 0.00 309.00 101.00" xmlns="http://www.w3.org/2000/svg" xmlns:xlink="http://www.w3.org/1999/xlink">
<g id="graph0" class="graph" transform="scale(1 1) rotate(0) translate(4 97)">
<title>PacketStatistics::nonFrameByteFound</title>
<!-- Node1 -->
<g id="Node000001" class="node">
<title>Node1</title>
<g id="a_Node000001"><a xlink:href="structPacketStatistics.html#a080db5e73adbd4447002c7b54f691f03" target="_top" xlink:title=" ">
<path fill="#fff0f0" stroke="red" stroke-width="2" d="M291,-61.5C291,-61.5 163,-61.5 163,-61.5 158,-61.5 153,-56.5 153,-51.5 153,-51.5 153,-41.5 153,-41.5 153,-36.5 158,-31.5 163,-31.5 163,-31.5 291,-31.5 291,-31.5 296,-31.5 301,-36.5 301,-41.5 301,-41.5 301,-51.5 301,-51.5 301,-56.5 296,-61.5 291,-61.5"/>
<text text-anchor="start" x="161" y="-49.5" font-family="Helvetica,sans-Serif" font-size="10.00">PacketStatistics::nonFrame</text>
<text text-anchor="middle" x="227" y="-38.5" font-family="Helvetica,sans-Serif" font-size="10.00">ByteFound</text>
</a>
</g>
</g>
<!-- Node2 -->
<g id="Node000002" class="node">
<title>Node2</title>
<g id="a_Node000002"><a xlink:href="structCustomParser.html#a1b307af55ea236fb3c0c248978844e30" target="_top" xlink:title=" ">
<path fill="#fff0f0" stroke="red" d="M110.67,-93C110.67,-93 6.33,-93 6.33,-93 3.17,-93 0,-89.83 0,-86.67 0,-86.67 0,-80.33 0,-80.33 0,-77.17 3.17,-74 6.33,-74 6.33,-74 110.67,-74 110.67,-74 113.83,-74 117,-77.17 117,-80.33 117,-80.33 117,-86.67 117,-86.67 117,-89.83 113.83,-93 110.67,-93"/>
<text text-anchor="middle" x="58.5" y="-81" font-family="Helvetica,sans-Serif" font-size="10.00">CustomParser::parse</text>
</a>
</g>
</g>
<!-- Node1&#45;&gt;Node2 -->
<g id="edge1_Node000001_Node000002" class="edge">
<title>Node1&#45;&gt;Node2</title>
<g id="a_edge1_Node000001_Node000002"><a xlink:title=" ">
<path fill="none" stroke="#63b8ff" d="M148.45,-63.73C132.58,-67.26 116.43,-70.85 102.32,-73.98"/>
<polygon fill="#63b8ff" stroke="#63b8ff" points="149.28,-67.14 158.28,-61.55 147.76,-60.3 149.28,-67.14"/>
</a>
</g>
</g>
<!-- Node3 -->
<g id="Node000003" class="node">
<title>Node3</title>
<g id="a_Node000003"><a xlink:href="structRtcmParser.html#a6138840942a03f0a06ecb288ab412716" target="_top" xlink:title=" ">
<path fill="#fff0f0" stroke="red" d="M104.67,-56C104.67,-56 12.33,-56 12.33,-56 9.17,-56 6,-52.83 6,-49.67 6,-49.67 6,-43.33 6,-43.33 6,-40.17 9.17,-37 12.33,-37 12.33,-37 104.67,-37 104.67,-37 107.83,-37 111,-40.17 111,-43.33 111,-43.33 111,-49.67 111,-49.67 111,-52.83 107.83,-56 104.67,-56"/>
<text text-anchor="middle" x="58.5" y="-44" font-family="Helvetica,sans-Serif" font-size="10.00">RtcmParser::parse</text>
</a>
</g>
</g>
<!-- Node1&#45;&gt;Node3 -->
<g id="edge2_Node000001_Node000003" class="edge">
<title>Node1&#45;&gt;Node3</title>
<g id="a_edge2_Node000001_Node000003"><a xlink:title=" ">
<path fill="none" stroke="#63b8ff" d="M142.77,-46.5C132.1,-46.5 121.43,-46.5 111.47,-46.5"/>
<polygon fill="#63b8ff" stroke="#63b8ff" points="142.97,-50 152.97,-46.5 142.97,-43 142.97,-50"/>
</a>
</g>
</g>
<!-- Node4 -->
<g id="Node000004" class="node">
<title>Node4</title>
<g id="a_Node000004"><a xlink:href="structUbxParser.html#aeb578c76a4db0173d21f6a7de471c06b" target="_top" xlink:title=" ">
<path fill="#fff0f0" stroke="red" d="M101.67,-19C101.67,-19 15.33,-19 15.33,-19 12.17,-19 9,-15.83 9,-12.67 9,-12.67 9,-6.33 9,-6.33 9,-3.17 12.17,0 15.33,0 15.33,0 101.67,0 101.67,0 104.83,0 108,-3.17 108,-6.33 108,-6.33 108,-12.67 108,-12.67 108,-15.83 104.83,-19 101.67,-19"/>
<text text-anchor="middle" x="58.5" y="-7" font-family="Helvetica,sans-Serif" font-size="10.00">UbxParser::parse</text>
</a>
</g>
</g>
<!-- Node1&#45;&gt;Node4 -->
<g id="edge3_Node000001_Node000004" class="edge">
<title>Node1&#45;&gt;Node4</title>
<g id="a_edge3_Node000001_Node000004"><a xlink:title=" ">
<path fill="none" stroke="#63b8ff" d="M148.45,-29.27C132.58,-25.74 116.43,-22.15 102.32,-19.02"/>
<polygon fill="#63b8ff" stroke="#63b8ff" points="147.76,-32.7 158.28,-31.45 149.28,-25.86 147.76,-32.7"/>
</a>
</g>
</g>
</g>
</svg>
