<?xml version="1.0" encoding="UTF-8" standalone="no"?>
<!DOCTYPE svg PUBLIC "-//W3C//DTD SVG 1.1//EN"
 "http://www.w3.org/Graphics/SVG/1.1/DTD/svg11.dtd">
<!-- Generated by graphviz version 2.43.0 (0)
 -->
<!-- Title: BTow Pages: 1 -->
<svg width="130pt" height="203pt"
 viewBox="0.00 0.00 130.00 203.00" xmlns="http://www.w3.org/2000/svg" xmlns:xlink="http://www.w3.org/1999/xlink">
<g id="graph0" class="graph" transform="scale(1 1) rotate(0) translate(4 199)">
<title>BTow</title>
<!-- Node1 -->
<g id="Node000001" class="node">
<title>Node1</title>
<g id="a_Node000001"><a xlink:href="structBTow.html" target="_top" xlink:title=" ">
<path fill="white" stroke="#666666" stroke-width="2" d="M84.5,-57C84.5,-57 37.5,-57 37.5,-57 31.5,-57 25.5,-51 25.5,-45 25.5,-45 25.5,-12 25.5,-12 25.5,-6 31.5,0 37.5,0 37.5,0 84.5,0 84.5,0 90.5,0 96.5,-6 96.5,-12 96.5,-12 96.5,-45 96.5,-45 96.5,-51 90.5,-57 84.5,-57"/>
<text text-anchor="start" x="48.5" y="-40.5" font-family="Helvetica,sans-Serif" font-size="10.00">BTow</text>
<text text-anchor="start" x="59.5" y="-25.5" font-family="Helvetica,sans-Serif" font-size="10.00"> </text>
<text text-anchor="start" x="38" y="-10.5" font-family="Helvetica,sans-Serif" font-size="10.00">+</text>
<text text-anchor="start" x="51" y="-10.5" font-family="Helvetica,sans-Serif" font-size="10.00">BTow()</text>
<polygon fill="#666666" stroke="#666666" points="34,-35.5 34,-35.5 89,-35.5 89,-35.5 34,-35.5"/>
<polygon fill="#666666" stroke="#666666" points="34,-20.5 34,-20.5 89,-20.5 89,-20.5 34,-20.5"/>
<polygon fill="none" stroke="#666666" points="33.5,-4 33.5,-53 88.5,-53 88.5,-4 33.5,-4"/>
</a>
</g>
</g>
<!-- Node2 -->
<g id="Node000002" class="node">
<title>Node2</title>
<g id="a_Node000002"><a xlink:href="structDouble.html" target="_top" xlink:title=" ">
<path fill="white" stroke="#666666" d="M110,-195C110,-195 12,-195 12,-195 6,-195 0,-189 0,-183 0,-183 0,-105 0,-105 0,-99 6,-93 12,-93 12,-93 110,-93 110,-93 116,-93 122,-99 122,-105 122,-105 122,-183 122,-183 122,-189 116,-195 110,-195"/>
<text text-anchor="start" x="43.5" y="-179" font-family="Helvetica,sans-Serif" font-size="10.00">Double</text>
<text text-anchor="start" x="12" y="-164" font-family="Helvetica,sans-Serif" font-size="10.00">+</text>
<text text-anchor="start" x="25" y="-164" font-family="Helvetica,sans-Serif" font-size="10.00">val</text>
<text text-anchor="start" x="12" y="-149" font-family="Helvetica,sans-Serif" font-size="10.00">+</text>
<text text-anchor="start" x="25" y="-149" font-family="Helvetica,sans-Serif" font-size="10.00">Double()</text>
<text text-anchor="start" x="12" y="-134" font-family="Helvetica,sans-Serif" font-size="10.00">+</text>
<text text-anchor="start" x="25" y="-134" font-family="Helvetica,sans-Serif" font-size="10.00">Double()</text>
<text text-anchor="start" x="12" y="-119" font-family="Helvetica,sans-Serif" font-size="10.00">+</text>
<text text-anchor="start" x="25" y="-119" font-family="Helvetica,sans-Serif" font-size="10.00">operator double()</text>
<text text-anchor="start" x="12" y="-104" font-family="Helvetica,sans-Serif" font-size="10.00">+</text>
<text text-anchor="start" x="25" y="-104" font-family="Helvetica,sans-Serif" font-size="10.00">operator=()</text>
<polygon fill="#666666" stroke="#666666" points="8,-174 8,-174 114,-174 114,-174 8,-174"/>
<polygon fill="#666666" stroke="#666666" points="8,-159 8,-159 23,-159 23,-159 8,-159"/>
<polygon fill="#666666" stroke="#666666" points="23,-159 23,-159 114,-159 114,-159 23,-159"/>
<polygon fill="none" stroke="#666666" points="8,-97 8,-191 114,-191 114,-97 8,-97"/>
</a>
</g>
</g>
<!-- Node2&#45;&gt;Node1 -->
<g id="edge1_Node000001_Node000002" class="edge">
<title>Node2&#45;&gt;Node1</title>
<g id="a_edge1_Node000001_Node000002"><a xlink:title=" ">
<path fill="none" stroke="#63b8ff" d="M61,-82.81C61,-73.88 61,-65.06 61,-57.25"/>
<polygon fill="none" stroke="#63b8ff" points="57.5,-82.89 61,-92.89 64.5,-82.89 57.5,-82.89"/>
</a>
</g>
</g>
</g>
</svg>
