<?xml version="1.0" encoding="UTF-8" standalone="no"?>
<!DOCTYPE svg PUBLIC "-//W3C//DTD SVG 1.1//EN"
 "http://www.w3.org/Graphics/SVG/1.1/DTD/svg11.dtd">
<!-- Generated by graphviz version 2.43.0 (0)
 -->
<!-- Title: OrbitIntegrator::computeAcceleration Pages: 1 -->
<svg width="324pt" height="38pt"
 viewBox="0.00 0.00 324.00 38.00" xmlns="http://www.w3.org/2000/svg" xmlns:xlink="http://www.w3.org/1999/xlink">
<g id="graph0" class="graph" transform="scale(1 1) rotate(0) translate(4 34)">
<title>OrbitIntegrator::computeAcceleration</title>
<!-- Node1 -->
<g id="Node000001" class="node">
<title>Node1</title>
<g id="a_Node000001"><a xlink:href="structOrbitIntegrator.html#a3ed19521cfc21cdaa2d7c8fa4f385499" target="_top" xlink:title=" ">
<path fill="#fff0f0" stroke="red" stroke-width="2" d="M306,-30C306,-30 189,-30 189,-30 184,-30 179,-25 179,-20 179,-20 179,-10 179,-10 179,-5 184,0 189,0 189,0 306,0 306,0 311,0 316,-5 316,-10 316,-10 316,-20 316,-20 316,-25 311,-30 306,-30"/>
<text text-anchor="start" x="187" y="-18" font-family="Helvetica,sans-Serif" font-size="10.00">OrbitIntegrator::compute</text>
<text text-anchor="middle" x="247.5" y="-7" font-family="Helvetica,sans-Serif" font-size="10.00">Acceleration</text>
</a>
</g>
</g>
<!-- Node2 -->
<g id="Node000002" class="node">
<title>Node2</title>
<g id="a_Node000002"><a xlink:href="structOrbitIntegrator.html#a22d86a24c4f6ae578e1b65ca9dd02f70" target="_top" xlink:title=" ">
<path fill="#fff0f0" stroke="red" d="M136.67,-24.5C136.67,-24.5 6.33,-24.5 6.33,-24.5 3.17,-24.5 0,-21.33 0,-18.17 0,-18.17 0,-11.83 0,-11.83 0,-8.67 3.17,-5.5 6.33,-5.5 6.33,-5.5 136.67,-5.5 136.67,-5.5 139.83,-5.5 143,-8.67 143,-11.83 143,-11.83 143,-18.17 143,-18.17 143,-21.33 139.83,-24.5 136.67,-24.5"/>
<text text-anchor="middle" x="71.5" y="-12.5" font-family="Helvetica,sans-Serif" font-size="10.00">OrbitIntegrator::operator()</text>
</a>
</g>
</g>
<!-- Node1&#45;&gt;Node2 -->
<g id="edge1_Node000001_Node000002" class="edge">
<title>Node1&#45;&gt;Node2</title>
<g id="a_edge1_Node000001_Node000002"><a xlink:title=" ">
<path fill="none" stroke="#63b8ff" d="M168.53,-15C160.11,-15 151.58,-15 143.25,-15"/>
<polygon fill="#63b8ff" stroke="#63b8ff" points="168.73,-18.5 178.73,-15 168.73,-11.5 168.73,-18.5"/>
</a>
</g>
</g>
</g>
</svg>
