<?xml version="1.0" encoding="UTF-8" standalone="no"?>
<!DOCTYPE svg PUBLIC "-//W3C//DTD SVG 1.1//EN"
 "http://www.w3.org/Graphics/SVG/1.1/DTD/svg11.dtd">
<!-- Generated by graphviz version 2.43.0 (0)
 -->
<!-- Title: SSRPhasBias Pages: 1 -->
<svg width="130pt" height="263pt"
 viewBox="0.00 0.00 130.00 263.00" xmlns="http://www.w3.org/2000/svg" xmlns:xlink="http://www.w3.org/1999/xlink">
<g id="graph0" class="graph" transform="scale(1 1) rotate(0) translate(4 259)">
<title>SSRPhasBias</title>
<!-- Node1 -->
<g id="Node000001" class="node">
<title>Node1</title>
<g id="a_Node000001"><a xlink:href="structSSRPhasBias.html" target="_top" xlink:title=" ">
<path fill="white" stroke="#666666" stroke-width="2" d="M98.5,-72C98.5,-72 23.5,-72 23.5,-72 17.5,-72 11.5,-66 11.5,-60 11.5,-60 11.5,-12 11.5,-12 11.5,-6 17.5,0 23.5,0 23.5,0 98.5,0 98.5,0 104.5,0 110.5,-6 110.5,-12 110.5,-12 110.5,-60 110.5,-60 110.5,-66 104.5,-72 98.5,-72"/>
<text text-anchor="start" x="29.5" y="-56" font-family="Helvetica,sans-Serif" font-size="10.00">SSRPhasBias</text>
<text text-anchor="start" x="24" y="-41" font-family="Helvetica,sans-Serif" font-size="10.00">+</text>
<text text-anchor="start" x="37" y="-41" font-family="Helvetica,sans-Serif" font-size="10.00">ssrPhase</text>
<text text-anchor="start" x="24" y="-26" font-family="Helvetica,sans-Serif" font-size="10.00">+</text>
<text text-anchor="start" x="37" y="-26" font-family="Helvetica,sans-Serif" font-size="10.00">ssrPhaseChs</text>
<text text-anchor="start" x="59.5" y="-11" font-family="Helvetica,sans-Serif" font-size="10.00"> </text>
<polygon fill="#666666" stroke="#666666" points="20,-51 20,-51 103,-51 103,-51 20,-51"/>
<polygon fill="#666666" stroke="#666666" points="20,-21 20,-21 35,-21 35,-21 20,-21"/>
<polygon fill="#666666" stroke="#666666" points="35,-21 35,-21 103,-21 103,-21 35,-21"/>
<polygon fill="none" stroke="#666666" points="19.5,-4 19.5,-68 102.5,-68 102.5,-4 19.5,-4"/>
</a>
</g>
</g>
<!-- Node2 -->
<g id="Node000002" class="node">
<title>Node2</title>
<g id="a_Node000002"><a xlink:href="structSSRBias.html" target="_top" xlink:title=" ">
<path fill="white" stroke="#666666" d="M110,-255C110,-255 12,-255 12,-255 6,-255 0,-249 0,-243 0,-243 0,-120 0,-120 0,-114 6,-108 12,-108 12,-108 110,-108 110,-108 116,-108 122,-114 122,-120 122,-120 122,-243 122,-243 122,-249 116,-255 110,-255"/>
<text text-anchor="start" x="41" y="-238.5" font-family="Helvetica,sans-Serif" font-size="10.00">SSRBias</text>
<text text-anchor="start" x="12" y="-223.5" font-family="Helvetica,sans-Serif" font-size="10.00">+</text>
<text text-anchor="start" x="25" y="-223.5" font-family="Helvetica,sans-Serif" font-size="10.00">ssrMeta</text>
<text text-anchor="start" x="12" y="-208.5" font-family="Helvetica,sans-Serif" font-size="10.00">+</text>
<text text-anchor="start" x="25" y="-208.5" font-family="Helvetica,sans-Serif" font-size="10.00">t0</text>
<text text-anchor="start" x="12" y="-193.5" font-family="Helvetica,sans-Serif" font-size="10.00">+</text>
<text text-anchor="start" x="25" y="-193.5" font-family="Helvetica,sans-Serif" font-size="10.00">udi</text>
<text text-anchor="start" x="12" y="-178.5" font-family="Helvetica,sans-Serif" font-size="10.00">+</text>
<text text-anchor="start" x="25" y="-178.5" font-family="Helvetica,sans-Serif" font-size="10.00">iod</text>
<text text-anchor="start" x="12" y="-163.5" font-family="Helvetica,sans-Serif" font-size="10.00">+</text>
<text text-anchor="start" x="25" y="-163.5" font-family="Helvetica,sans-Serif" font-size="10.00">nbias</text>
<text text-anchor="start" x="12" y="-148.5" font-family="Helvetica,sans-Serif" font-size="10.00">+</text>
<text text-anchor="start" x="25" y="-148.5" font-family="Helvetica,sans-Serif" font-size="10.00">obsCodeBiasMap</text>
<text text-anchor="start" x="12" y="-133.5" font-family="Helvetica,sans-Serif" font-size="10.00">+</text>
<text text-anchor="start" x="25" y="-133.5" font-family="Helvetica,sans-Serif" font-size="10.00">ionDCBOffset</text>
<text text-anchor="start" x="59" y="-118.5" font-family="Helvetica,sans-Serif" font-size="10.00"> </text>
<polygon fill="#666666" stroke="#666666" points="8,-233.5 8,-233.5 114,-233.5 114,-233.5 8,-233.5"/>
<polygon fill="#666666" stroke="#666666" points="8,-128.5 8,-128.5 23,-128.5 23,-128.5 8,-128.5"/>
<polygon fill="#666666" stroke="#666666" points="23,-128.5 23,-128.5 114,-128.5 114,-128.5 23,-128.5"/>
<polygon fill="none" stroke="#666666" points="8,-112 8,-251 114,-251 114,-112 8,-112"/>
</a>
</g>
</g>
<!-- Node2&#45;&gt;Node1 -->
<g id="edge1_Node000001_Node000002" class="edge">
<title>Node2&#45;&gt;Node1</title>
<g id="a_edge1_Node000001_Node000002"><a xlink:title=" ">
<path fill="none" stroke="#63b8ff" d="M61,-97.8C61,-88.9 61,-80.23 61,-72.36"/>
<polygon fill="none" stroke="#63b8ff" points="57.5,-97.91 61,-107.91 64.5,-97.91 57.5,-97.91"/>
</a>
</g>
</g>
</g>
</svg>
