<?xml version="1.0" encoding="UTF-8" standalone="no"?>
<!DOCTYPE svg PUBLIC "-//W3C//DTD SVG 1.1//EN"
 "http://www.w3.org/Graphics/SVG/1.1/DTD/svg11.dtd">
<!-- Generated by graphviz version 2.43.0 (0)
 -->
<!-- Title: CustomDecoder Pages: 1 -->
<svg width="731pt" height="966pt"
 viewBox="0.00 0.00 731.00 966.00" xmlns="http://www.w3.org/2000/svg" xmlns:xlink="http://www.w3.org/1999/xlink">
<g id="graph0" class="graph" transform="scale(1 1) rotate(0) translate(4 962)">
<title>CustomDecoder</title>
<!-- Node1 -->
<g id="Node000001" class="node">
<title>Node1</title>
<g id="a_Node000001"><a xlink:href="structCustomDecoder.html" target="_top" xlink:title=" ">
<path fill="white" stroke="#666666" stroke-width="2" d="M420,-162C420,-162 310,-162 310,-162 304,-162 298,-156 298,-150 298,-150 298,-12 298,-12 298,-6 304,0 310,0 310,0 420,0 420,0 426,0 432,-6 432,-12 432,-12 432,-150 432,-150 432,-156 426,-162 420,-162"/>
<text text-anchor="start" x="325.5" y="-146" font-family="Helvetica,sans-Serif" font-size="10.00">CustomDecoder</text>
<text text-anchor="start" x="310" y="-131" font-family="Helvetica,sans-Serif" font-size="10.00">+</text>
<text text-anchor="start" x="323" y="-131" font-family="Helvetica,sans-Serif" font-size="10.00">lastTimeTag</text>
<text text-anchor="start" x="310" y="-116" font-family="Helvetica,sans-Serif" font-size="10.00">+</text>
<text text-anchor="start" x="323" y="-116" font-family="Helvetica,sans-Serif" font-size="10.00">decodeEphFrames()</text>
<text text-anchor="start" x="310" y="-101" font-family="Helvetica,sans-Serif" font-size="10.00">+</text>
<text text-anchor="start" x="323" y="-101" font-family="Helvetica,sans-Serif" font-size="10.00">decodeRAWX()</text>
<text text-anchor="start" x="310" y="-86" font-family="Helvetica,sans-Serif" font-size="10.00">+</text>
<text text-anchor="start" x="323" y="-86" font-family="Helvetica,sans-Serif" font-size="10.00">decodeSFRBX()</text>
<text text-anchor="start" x="310" y="-71" font-family="Helvetica,sans-Serif" font-size="10.00">+</text>
<text text-anchor="start" x="323" y="-71" font-family="Helvetica,sans-Serif" font-size="10.00">decodeMEAS()</text>
<text text-anchor="start" x="310" y="-56" font-family="Helvetica,sans-Serif" font-size="10.00">+</text>
<text text-anchor="start" x="323" y="-56" font-family="Helvetica,sans-Serif" font-size="10.00">decodeRXM()</text>
<text text-anchor="start" x="310" y="-41" font-family="Helvetica,sans-Serif" font-size="10.00">+</text>
<text text-anchor="start" x="323" y="-41" font-family="Helvetica,sans-Serif" font-size="10.00">decodeESF()</text>
<text text-anchor="start" x="310" y="-26" font-family="Helvetica,sans-Serif" font-size="10.00">+</text>
<text text-anchor="start" x="323" y="-26" font-family="Helvetica,sans-Serif" font-size="10.00">decode()</text>
<text text-anchor="start" x="310" y="-11" font-family="Helvetica,sans-Serif" font-size="10.00">+</text>
<text text-anchor="start" x="323" y="-11" font-family="Helvetica,sans-Serif" font-size="10.00">recordFrame()</text>
<polygon fill="#666666" stroke="#666666" points="306,-141 306,-141 424,-141 424,-141 306,-141"/>
<polygon fill="#666666" stroke="#666666" points="306,-126 306,-126 321,-126 321,-126 306,-126"/>
<polygon fill="#666666" stroke="#666666" points="321,-126 321,-126 424,-126 424,-126 321,-126"/>
<polygon fill="none" stroke="#666666" points="306,-4 306,-158 424,-158 424,-4 306,-4"/>
</a>
</g>
</g>
<!-- Node2 -->
<g id="Node000002" class="node">
<title>Node2</title>
<g id="a_Node000002"><a xlink:href="structObsLister.html" target="_top" xlink:title=" ">
<path fill="white" stroke="#666666" d="M74,-554.5C74,-554.5 26,-554.5 26,-554.5 20,-554.5 14,-548.5 14,-542.5 14,-542.5 14,-509.5 14,-509.5 14,-503.5 20,-497.5 26,-497.5 26,-497.5 74,-497.5 74,-497.5 80,-497.5 86,-503.5 86,-509.5 86,-509.5 86,-542.5 86,-542.5 86,-548.5 80,-554.5 74,-554.5"/>
<text text-anchor="start" x="27" y="-538" font-family="Helvetica,sans-Serif" font-size="10.00">ObsLister</text>
<text text-anchor="start" x="48" y="-523" font-family="Helvetica,sans-Serif" font-size="10.00"> </text>
<text text-anchor="start" x="48" y="-508" font-family="Helvetica,sans-Serif" font-size="10.00"> </text>
<polygon fill="#666666" stroke="#666666" points="22,-533 22,-533 78,-533 78,-533 22,-533"/>
<polygon fill="#666666" stroke="#666666" points="22,-518 22,-518 78,-518 78,-518 22,-518"/>
<polygon fill="none" stroke="#666666" points="22,-501.5 22,-550.5 78,-550.5 78,-501.5 22,-501.5"/>
</a>
</g>
</g>
<!-- Node2&#45;&gt;Node1 -->
<g id="edge1_Node000001_Node000002" class="edge">
<title>Node2&#45;&gt;Node1</title>
<g id="a_edge1_Node000001_Node000002"><a xlink:title=" ">
<path fill="none" stroke="#63b8ff" d="M45.21,-486.96C39.5,-424.91 37.04,-300.78 95,-220 143.49,-152.42 234.97,-115.69 297.91,-97.48"/>
<polygon fill="none" stroke="#63b8ff" points="41.75,-487.48 46.23,-497.08 48.71,-486.78 41.75,-487.48"/>
</a>
</g>
</g>
<!-- Node3 -->
<g id="Node000003" class="node">
<title>Node3</title>
<g id="a_Node000003"><a xlink:title=" ">
<path fill="#fff0f0" stroke="red" d="M88,-958C88,-958 12,-958 12,-958 6,-958 0,-952 0,-946 0,-946 0,-913 0,-913 0,-907 6,-901 12,-901 12,-901 88,-901 88,-901 94,-901 100,-907 100,-913 100,-913 100,-946 100,-946 100,-952 94,-958 88,-958"/>
<text text-anchor="start" x="13" y="-941.5" font-family="Helvetica,sans-Serif" font-size="10.00">list&lt; ObsList &gt;</text>
<text text-anchor="start" x="48" y="-926.5" font-family="Helvetica,sans-Serif" font-size="10.00"> </text>
<text text-anchor="start" x="48" y="-911.5" font-family="Helvetica,sans-Serif" font-size="10.00"> </text>
<polygon fill="red" stroke="red" points="8,-936.5 8,-936.5 92,-936.5 92,-936.5 8,-936.5"/>
<polygon fill="red" stroke="red" points="8,-921.5 8,-921.5 92,-921.5 92,-921.5 8,-921.5"/>
<polygon fill="none" stroke="red" points="8,-905 8,-954 92,-954 92,-905 8,-905"/>
</a>
</g>
</g>
<!-- Node3&#45;&gt;Node2 -->
<g id="edge2_Node000002_Node000003" class="edge">
<title>Node3&#45;&gt;Node2</title>
<g id="a_edge2_Node000002_Node000003"><a xlink:title=" ">
<path fill="none" stroke="#63b8ff" d="M50,-900.9C50,-831.2 50,-647.82 50,-566.64"/>
<polygon fill="none" stroke="#63b8ff" points="50,-566.52 46,-560.52 50,-554.52 54,-560.52 50,-566.52"/>
</a>
</g>
<text text-anchor="middle" x="82" y="-864" font-family="Helvetica,sans-Serif" font-size="10.00" fill="grey"> +obsListList</text>
</g>
<!-- Node5 -->
<g id="Node000005" class="node">
<title>Node5</title>
<g id="a_Node000005"><a xlink:title=" ">
<path fill="white" stroke="#666666" d="M254,-565.5C254,-565.5 116,-565.5 116,-565.5 110,-565.5 104,-559.5 104,-553.5 104,-553.5 104,-498.5 104,-498.5 104,-492.5 110,-486.5 116,-486.5 116,-486.5 254,-486.5 254,-486.5 260,-486.5 266,-492.5 266,-498.5 266,-498.5 266,-553.5 266,-553.5 266,-559.5 260,-565.5 254,-565.5"/>
<text text-anchor="start" x="117" y="-549" font-family="Helvetica,sans-Serif" font-size="10.00">map&lt; string, map&lt; GTime,</text>
<text text-anchor="start" x="117" y="-538" font-family="Helvetica,sans-Serif" font-size="10.00"> Vector3d, std::greater</text>
<text text-anchor="start" x="146" y="-527" font-family="Helvetica,sans-Serif" font-size="10.00">&lt; GTime &gt; &gt; &gt;</text>
<text text-anchor="start" x="183" y="-512" font-family="Helvetica,sans-Serif" font-size="10.00"> </text>
<text text-anchor="start" x="183" y="-497" font-family="Helvetica,sans-Serif" font-size="10.00"> </text>
<polygon fill="#666666" stroke="#666666" points="112,-522 112,-522 258,-522 258,-522 112,-522"/>
<polygon fill="#666666" stroke="#666666" points="112,-507 112,-507 258,-507 258,-507 112,-507"/>
<polygon fill="none" stroke="#666666" points="112,-490.5 112,-561.5 258,-561.5 258,-490.5 112,-490.5"/>
</a>
</g>
</g>
<!-- Node5&#45;&gt;Node1 -->
<g id="edge3_Node000001_Node000005" class="edge">
<title>Node5&#45;&gt;Node1</title>
<g id="a_edge3_Node000001_Node000005"><a xlink:title=" ">
<path fill="none" stroke="#63b8ff" d="M189.92,-486.44C199.55,-420.39 224.94,-282.83 280,-180 283.27,-173.89 286.98,-167.84 290.98,-161.92"/>
<polygon fill="none" stroke="#63b8ff" points="291.01,-161.87 291.22,-154.66 297.95,-152.08 297.74,-159.29 291.01,-161.87"/>
</a>
</g>
<text text-anchor="middle" x="320.5" y="-194" font-family="Helvetica,sans-Serif" font-size="10.00" fill="grey"> +acclDataMaps</text>
<text text-anchor="middle" x="320.5" y="-183" font-family="Helvetica,sans-Serif" font-size="10.00" fill="grey">+gyroDataMaps</text>
</g>
<!-- Node6 -->
<g id="Node000006" class="node">
<title>Node6</title>
<g id="a_Node000006"><a xlink:title=" ">
<path fill="white" stroke="#666666" d="M287,-958C287,-958 263,-958 263,-958 257,-958 251,-952 251,-946 251,-946 251,-913 251,-913 251,-907 257,-901 263,-901 263,-901 287,-901 287,-901 293,-901 299,-907 299,-913 299,-913 299,-946 299,-946 299,-952 293,-958 287,-958"/>
<text text-anchor="start" x="264" y="-941.5" font-family="Helvetica,sans-Serif" font-size="10.00">map</text>
<text text-anchor="start" x="273" y="-926.5" font-family="Helvetica,sans-Serif" font-size="10.00"> </text>
<text text-anchor="start" x="273" y="-911.5" font-family="Helvetica,sans-Serif" font-size="10.00"> </text>
<polygon fill="#666666" stroke="#666666" points="259,-936.5 259,-936.5 291,-936.5 291,-936.5 259,-936.5"/>
<polygon fill="#666666" stroke="#666666" points="259,-921.5 259,-921.5 291,-921.5 291,-921.5 259,-921.5"/>
<polygon fill="none" stroke="#666666" points="259,-905 259,-954 291,-954 291,-905 259,-905"/>
</a>
</g>
</g>
<!-- Node6&#45;&gt;Node5 -->
<g id="edge4_Node000005_Node000006" class="edge">
<title>Node6&#45;&gt;Node5</title>
<g id="a_edge4_Node000005_Node000006"><a xlink:title=" ">
<path fill="none" stroke="orange" d="M242.4,-910.71C232.24,-903.48 222.11,-894.17 216,-883 159.6,-779.85 169.71,-634.34 178.77,-565.7"/>
<polygon fill="orange" stroke="orange" points="240.58,-913.7 250.86,-916.28 244.44,-907.85 240.58,-913.7"/>
</a>
</g>
<text text-anchor="start" x="216" y="-875" font-family="Helvetica,sans-Serif" font-size="10.00" fill="grey"> &lt; string, map&lt; GTime,</text>
<text text-anchor="start" x="216" y="-864" font-family="Helvetica,sans-Serif" font-size="10.00" fill="grey"> Vector3d, std::greater</text>
<text text-anchor="middle" x="274.5" y="-853" font-family="Helvetica,sans-Serif" font-size="10.00" fill="grey">&lt; GTime &gt; &gt; &gt;</text>
</g>
<!-- Node7 -->
<g id="Node000007" class="node">
<title>Node7</title>
<g id="a_Node000007"><a xlink:title=" ">
<path fill="white" stroke="#666666" d="M434,-565.5C434,-565.5 296,-565.5 296,-565.5 290,-565.5 284,-559.5 284,-553.5 284,-553.5 284,-498.5 284,-498.5 284,-492.5 290,-486.5 296,-486.5 296,-486.5 434,-486.5 434,-486.5 440,-486.5 446,-492.5 446,-498.5 446,-498.5 446,-553.5 446,-553.5 446,-559.5 440,-565.5 434,-565.5"/>
<text text-anchor="start" x="297" y="-549" font-family="Helvetica,sans-Serif" font-size="10.00">map&lt; string, map&lt; GTime,</text>
<text text-anchor="start" x="297" y="-538" font-family="Helvetica,sans-Serif" font-size="10.00"> double, std::greater</text>
<text text-anchor="start" x="326" y="-527" font-family="Helvetica,sans-Serif" font-size="10.00">&lt; GTime &gt; &gt; &gt;</text>
<text text-anchor="start" x="363" y="-512" font-family="Helvetica,sans-Serif" font-size="10.00"> </text>
<text text-anchor="start" x="363" y="-497" font-family="Helvetica,sans-Serif" font-size="10.00"> </text>
<polygon fill="#666666" stroke="#666666" points="292,-522 292,-522 438,-522 438,-522 292,-522"/>
<polygon fill="#666666" stroke="#666666" points="292,-507 292,-507 438,-507 438,-507 292,-507"/>
<polygon fill="none" stroke="#666666" points="292,-490.5 292,-561.5 438,-561.5 438,-490.5 292,-490.5"/>
</a>
</g>
</g>
<!-- Node6&#45;&gt;Node7 -->
<g id="edge6_Node000007_Node000006" class="edge">
<title>Node6&#45;&gt;Node7</title>
<g id="a_edge6_Node000007_Node000006"><a xlink:title=" ">
<path fill="none" stroke="orange" d="M307.57,-910.2C317.38,-903.02 327.09,-893.87 333,-883 389.13,-779.67 379.7,-634.25 371.01,-565.67"/>
<polygon fill="orange" stroke="orange" points="305.33,-907.49 299.02,-915.99 309.26,-913.28 305.33,-907.49"/>
</a>
</g>
<text text-anchor="start" x="345" y="-875" font-family="Helvetica,sans-Serif" font-size="10.00" fill="grey"> &lt; string, map&lt; GTime,</text>
<text text-anchor="start" x="345" y="-864" font-family="Helvetica,sans-Serif" font-size="10.00" fill="grey"> double, std::greater</text>
<text text-anchor="middle" x="403.5" y="-853" font-family="Helvetica,sans-Serif" font-size="10.00" fill="grey">&lt; GTime &gt; &gt; &gt;</text>
</g>
<!-- Node7&#45;&gt;Node1 -->
<g id="edge5_Node000001_Node000007" class="edge">
<title>Node7&#45;&gt;Node1</title>
<g id="a_edge5_Node000001_Node000007"><a xlink:title=" ">
<path fill="none" stroke="#63b8ff" d="M365,-486.46C365,-417.42 365,-270.87 365,-174.44"/>
<polygon fill="none" stroke="#63b8ff" points="365,-174.35 361,-168.35 365,-162.35 369,-168.35 365,-174.35"/>
</a>
</g>
<text text-anchor="middle" x="408.5" y="-188.5" font-family="Helvetica,sans-Serif" font-size="10.00" fill="grey"> +tempDataMaps</text>
</g>
<!-- Node8 -->
<g id="Node000008" class="node">
<title>Node8</title>
<g id="a_Node000008"><a xlink:href="structGTime.html" target="_top" xlink:title="Time structure used throughout this software.">
<path fill="white" stroke="#666666" d="M598,-832C598,-832 476,-832 476,-832 470,-832 464,-826 464,-820 464,-820 464,-232 464,-232 464,-226 470,-220 476,-220 476,-220 598,-220 598,-220 604,-220 610,-226 610,-232 610,-232 610,-820 610,-820 610,-826 604,-832 598,-832"/>
<text text-anchor="start" x="520.5" y="-816" font-family="Helvetica,sans-Serif" font-size="10.00">GTime</text>
<text text-anchor="start" x="476" y="-801" font-family="Helvetica,sans-Serif" font-size="10.00">+</text>
<text text-anchor="start" x="489" y="-801" font-family="Helvetica,sans-Serif" font-size="10.00">bigTime</text>
<text text-anchor="start" x="476" y="-786" font-family="Helvetica,sans-Serif" font-size="10.00">+</text>
<text text-anchor="start" x="489" y="-786" font-family="Helvetica,sans-Serif" font-size="10.00">GTime()</text>
<text text-anchor="start" x="476" y="-771" font-family="Helvetica,sans-Serif" font-size="10.00">+</text>
<text text-anchor="start" x="489" y="-771" font-family="Helvetica,sans-Serif" font-size="10.00">GTime()</text>
<text text-anchor="start" x="476" y="-756" font-family="Helvetica,sans-Serif" font-size="10.00">+</text>
<text text-anchor="start" x="489" y="-756" font-family="Helvetica,sans-Serif" font-size="10.00">GTime()</text>
<text text-anchor="start" x="476" y="-741" font-family="Helvetica,sans-Serif" font-size="10.00">+</text>
<text text-anchor="start" x="489" y="-741" font-family="Helvetica,sans-Serif" font-size="10.00">to_string()</text>
<text text-anchor="start" x="476" y="-726" font-family="Helvetica,sans-Serif" font-size="10.00">+</text>
<text text-anchor="start" x="489" y="-726" font-family="Helvetica,sans-Serif" font-size="10.00">operator==()</text>
<text text-anchor="start" x="476" y="-711" font-family="Helvetica,sans-Serif" font-size="10.00">+</text>
<text text-anchor="start" x="489" y="-711" font-family="Helvetica,sans-Serif" font-size="10.00">operator!=()</text>
<text text-anchor="start" x="476" y="-696" font-family="Helvetica,sans-Serif" font-size="10.00">+</text>
<text text-anchor="start" x="489" y="-696" font-family="Helvetica,sans-Serif" font-size="10.00">operator&lt;()</text>
<text text-anchor="start" x="476" y="-681" font-family="Helvetica,sans-Serif" font-size="10.00">+</text>
<text text-anchor="start" x="489" y="-681" font-family="Helvetica,sans-Serif" font-size="10.00">operator&gt;()</text>
<text text-anchor="start" x="476" y="-666" font-family="Helvetica,sans-Serif" font-size="10.00">+</text>
<text text-anchor="start" x="489" y="-666" font-family="Helvetica,sans-Serif" font-size="10.00">operator&gt;=()</text>
<text text-anchor="start" x="476" y="-651" font-family="Helvetica,sans-Serif" font-size="10.00">+</text>
<text text-anchor="start" x="489" y="-651" font-family="Helvetica,sans-Serif" font-size="10.00">operator+()</text>
<text text-anchor="start" x="476" y="-636" font-family="Helvetica,sans-Serif" font-size="10.00">+</text>
<text text-anchor="start" x="489" y="-636" font-family="Helvetica,sans-Serif" font-size="10.00">operator+()</text>
<text text-anchor="start" x="476" y="-621" font-family="Helvetica,sans-Serif" font-size="10.00">+</text>
<text text-anchor="start" x="489" y="-621" font-family="Helvetica,sans-Serif" font-size="10.00">operator+()</text>
<text text-anchor="start" x="476" y="-606" font-family="Helvetica,sans-Serif" font-size="10.00">+</text>
<text text-anchor="start" x="489" y="-606" font-family="Helvetica,sans-Serif" font-size="10.00">operator+=()</text>
<text text-anchor="start" x="476" y="-591" font-family="Helvetica,sans-Serif" font-size="10.00">+</text>
<text text-anchor="start" x="489" y="-591" font-family="Helvetica,sans-Serif" font-size="10.00">operator&#45;=()</text>
<text text-anchor="start" x="476" y="-576" font-family="Helvetica,sans-Serif" font-size="10.00">+</text>
<text text-anchor="start" x="489" y="-576" font-family="Helvetica,sans-Serif" font-size="10.00">operator&#45;()</text>
<text text-anchor="start" x="476" y="-561" font-family="Helvetica,sans-Serif" font-size="10.00">+</text>
<text text-anchor="start" x="489" y="-561" font-family="Helvetica,sans-Serif" font-size="10.00">operator&#45;()</text>
<text text-anchor="start" x="476" y="-546" font-family="Helvetica,sans-Serif" font-size="10.00">+</text>
<text text-anchor="start" x="489" y="-546" font-family="Helvetica,sans-Serif" font-size="10.00">operator&#45;()</text>
<text text-anchor="start" x="476" y="-531" font-family="Helvetica,sans-Serif" font-size="10.00">+</text>
<text text-anchor="start" x="489" y="-531" font-family="Helvetica,sans-Serif" font-size="10.00">operator++()</text>
<text text-anchor="start" x="476" y="-516" font-family="Helvetica,sans-Serif" font-size="10.00">+</text>
<text text-anchor="start" x="489" y="-516" font-family="Helvetica,sans-Serif" font-size="10.00">GTime()</text>
<text text-anchor="start" x="476" y="-501" font-family="Helvetica,sans-Serif" font-size="10.00">+</text>
<text text-anchor="start" x="489" y="-501" font-family="Helvetica,sans-Serif" font-size="10.00">GTime()</text>
<text text-anchor="start" x="476" y="-486" font-family="Helvetica,sans-Serif" font-size="10.00">+</text>
<text text-anchor="start" x="489" y="-486" font-family="Helvetica,sans-Serif" font-size="10.00">GTime()</text>
<text text-anchor="start" x="476" y="-471" font-family="Helvetica,sans-Serif" font-size="10.00">+</text>
<text text-anchor="start" x="489" y="-471" font-family="Helvetica,sans-Serif" font-size="10.00">GTime()</text>
<text text-anchor="start" x="476" y="-456" font-family="Helvetica,sans-Serif" font-size="10.00">+</text>
<text text-anchor="start" x="489" y="-456" font-family="Helvetica,sans-Serif" font-size="10.00">GTime()</text>
<text text-anchor="start" x="476" y="-441" font-family="Helvetica,sans-Serif" font-size="10.00">+</text>
<text text-anchor="start" x="489" y="-441" font-family="Helvetica,sans-Serif" font-size="10.00">serialize()</text>
<text text-anchor="start" x="476" y="-426" font-family="Helvetica,sans-Serif" font-size="10.00">+</text>
<text text-anchor="start" x="489" y="-426" font-family="Helvetica,sans-Serif" font-size="10.00">floorTime()</text>
<text text-anchor="start" x="476" y="-411" font-family="Helvetica,sans-Serif" font-size="10.00">+</text>
<text text-anchor="start" x="489" y="-411" font-family="Helvetica,sans-Serif" font-size="10.00">gregString()</text>
<text text-anchor="start" x="476" y="-396" font-family="Helvetica,sans-Serif" font-size="10.00">+</text>
<text text-anchor="start" x="489" y="-396" font-family="Helvetica,sans-Serif" font-size="10.00">operator long double()</text>
<text text-anchor="start" x="476" y="-381" font-family="Helvetica,sans-Serif" font-size="10.00">+</text>
<text text-anchor="start" x="489" y="-381" font-family="Helvetica,sans-Serif" font-size="10.00">operator MjDateTT()</text>
<text text-anchor="start" x="476" y="-366" font-family="Helvetica,sans-Serif" font-size="10.00">+</text>
<text text-anchor="start" x="489" y="-366" font-family="Helvetica,sans-Serif" font-size="10.00">operator GEpoch()</text>
<text text-anchor="start" x="476" y="-351" font-family="Helvetica,sans-Serif" font-size="10.00">+</text>
<text text-anchor="start" x="489" y="-351" font-family="Helvetica,sans-Serif" font-size="10.00">operator UtcTime()</text>
<text text-anchor="start" x="476" y="-336" font-family="Helvetica,sans-Serif" font-size="10.00">+</text>
<text text-anchor="start" x="489" y="-336" font-family="Helvetica,sans-Serif" font-size="10.00">operator GWeek()</text>
<text text-anchor="start" x="476" y="-321" font-family="Helvetica,sans-Serif" font-size="10.00">+</text>
<text text-anchor="start" x="489" y="-321" font-family="Helvetica,sans-Serif" font-size="10.00">operator BWeek()</text>
<text text-anchor="start" x="476" y="-306" font-family="Helvetica,sans-Serif" font-size="10.00">+</text>
<text text-anchor="start" x="489" y="-306" font-family="Helvetica,sans-Serif" font-size="10.00">operator GTow()</text>
<text text-anchor="start" x="476" y="-291" font-family="Helvetica,sans-Serif" font-size="10.00">+</text>
<text text-anchor="start" x="489" y="-291" font-family="Helvetica,sans-Serif" font-size="10.00">operator BTow()</text>
<text text-anchor="start" x="476" y="-276" font-family="Helvetica,sans-Serif" font-size="10.00">+</text>
<text text-anchor="start" x="489" y="-276" font-family="Helvetica,sans-Serif" font-size="10.00">operator PTime()</text>
<text text-anchor="start" x="476" y="-261" font-family="Helvetica,sans-Serif" font-size="10.00">+</text>
<text text-anchor="start" x="489" y="-261" font-family="Helvetica,sans-Serif" font-size="10.00">operator string()</text>
<text text-anchor="start" x="476" y="-246" font-family="Helvetica,sans-Serif" font-size="10.00">+</text>
<text text-anchor="start" x="489" y="-246" font-family="Helvetica,sans-Serif" font-size="10.00">operator RTod()</text>
<text text-anchor="start" x="476" y="-231" font-family="Helvetica,sans-Serif" font-size="10.00">+</text>
<text text-anchor="start" x="489" y="-231" font-family="Helvetica,sans-Serif" font-size="10.00">noTime()</text>
<polygon fill="#666666" stroke="#666666" points="472,-811 472,-811 602,-811 602,-811 472,-811"/>
<polygon fill="#666666" stroke="#666666" points="472,-796 472,-796 487,-796 487,-796 472,-796"/>
<polygon fill="#666666" stroke="#666666" points="487,-796 487,-796 602,-796 602,-796 487,-796"/>
<polygon fill="none" stroke="#666666" points="472,-224 472,-828 602,-828 602,-224 472,-224"/>
</a>
</g>
</g>
<!-- Node8&#45;&gt;Node1 -->
<g id="edge7_Node000001_Node000008" class="edge">
<title>Node8&#45;&gt;Node1</title>
<g id="a_edge7_Node000001_Node000008"><a xlink:title=" ">
<path fill="none" stroke="#63b8ff" d="M474.74,-219.76C469.03,-206.09 462.8,-192.76 456,-180 451.33,-171.24 445.68,-162.67 439.51,-154.47"/>
<polygon fill="none" stroke="#63b8ff" points="439.49,-154.45 432.64,-152.22 432.06,-145.03 438.91,-147.26 439.49,-154.45"/>
</a>
</g>
<text text-anchor="middle" x="491.5" y="-188.5" font-family="Helvetica,sans-Serif" font-size="10.00" fill="grey"> +lastTime</text>
</g>
<!-- Node9 -->
<g id="Node000009" class="node">
<title>Node9</title>
<g id="a_Node000009"><a xlink:title=" ">
<path fill="white" stroke="#666666" d="M670,-554.5C670,-554.5 640,-554.5 640,-554.5 634,-554.5 628,-548.5 628,-542.5 628,-542.5 628,-509.5 628,-509.5 628,-503.5 634,-497.5 640,-497.5 640,-497.5 670,-497.5 670,-497.5 676,-497.5 682,-503.5 682,-509.5 682,-509.5 682,-542.5 682,-542.5 682,-548.5 676,-554.5 670,-554.5"/>
<text text-anchor="start" x="641" y="-538" font-family="Helvetica,sans-Serif" font-size="10.00">string</text>
<text text-anchor="start" x="653" y="-523" font-family="Helvetica,sans-Serif" font-size="10.00"> </text>
<text text-anchor="start" x="653" y="-508" font-family="Helvetica,sans-Serif" font-size="10.00"> </text>
<polygon fill="#666666" stroke="#666666" points="636,-533 636,-533 674,-533 674,-533 636,-533"/>
<polygon fill="#666666" stroke="#666666" points="636,-518 636,-518 674,-518 674,-518 636,-518"/>
<polygon fill="none" stroke="#666666" points="636,-501.5 636,-550.5 674,-550.5 674,-501.5 636,-501.5"/>
</a>
</g>
</g>
<!-- Node9&#45;&gt;Node1 -->
<g id="edge8_Node000001_Node000009" class="edge">
<title>Node9&#45;&gt;Node1</title>
<g id="a_edge8_Node000001_Node000009"><a xlink:title=" ">
<path fill="none" stroke="#63b8ff" d="M659.59,-497.29C667.52,-440.02 677.75,-306.75 619,-220 578.11,-159.62 501.8,-123.32 443.46,-103.22"/>
<polygon fill="none" stroke="#63b8ff" points="443.43,-103.21 436.47,-105.11 432.04,-99.42 439,-97.52 443.43,-103.21"/>
</a>
</g>
<text text-anchor="middle" x="663.5" y="-194" font-family="Helvetica,sans-Serif" font-size="10.00" fill="grey"> +raw_custom_filename</text>
<text text-anchor="middle" x="663.5" y="-183" font-family="Helvetica,sans-Serif" font-size="10.00" fill="grey">+recId</text>
</g>
</g>
</svg>
