<?xml version="1.0" encoding="UTF-8" standalone="no"?>
<!DOCTYPE svg PUBLIC "-//W3C//DTD SVG 1.1//EN"
 "http://www.w3.org/Graphics/SVG/1.1/DTD/svg11.dtd">
<!-- Generated by graphviz version 2.43.0 (0)
 -->
<!-- Title: IcdDecoder::decodeGpsTlmWord Pages: 1 -->
<svg width="404pt" height="101pt"
 viewBox="0.00 0.00 404.00 101.00" xmlns="http://www.w3.org/2000/svg" xmlns:xlink="http://www.w3.org/1999/xlink">
<g id="graph0" class="graph" transform="scale(1 1) rotate(0) translate(4 97)">
<title>IcdDecoder::decodeGpsTlmWord</title>
<!-- Node1 -->
<g id="Node000001" class="node">
<title>Node1</title>
<g id="a_Node000001"><a xlink:href="structIcdDecoder.html#a79e3697462fd9605f031ed633f71e12b" target="_top" xlink:title=" ">
<path fill="#fff0f0" stroke="red" stroke-width="2" d="M389.67,-56C389.67,-56 227.33,-56 227.33,-56 224.17,-56 221,-52.83 221,-49.67 221,-49.67 221,-43.33 221,-43.33 221,-40.17 224.17,-37 227.33,-37 227.33,-37 389.67,-37 389.67,-37 392.83,-37 396,-40.17 396,-43.33 396,-43.33 396,-49.67 396,-49.67 396,-52.83 392.83,-56 389.67,-56"/>
<text text-anchor="middle" x="308.5" y="-44" font-family="Helvetica,sans-Serif" font-size="10.00">IcdDecoder::decodeGpsTlmWord</text>
</a>
</g>
</g>
<!-- Node2 -->
<g id="Node000002" class="node">
<title>Node2</title>
<g id="a_Node000002"><a xlink:href="structIcdDecoder.html#ad30f4972810c88dd00450b8a1ad2d244" target="_top" xlink:title=" ">
<path fill="#fff0f0" stroke="red" d="M178.67,-93C178.67,-93 6.33,-93 6.33,-93 3.17,-93 0,-89.83 0,-86.67 0,-86.67 0,-80.33 0,-80.33 0,-77.17 3.17,-74 6.33,-74 6.33,-74 178.67,-74 178.67,-74 181.83,-74 185,-77.17 185,-80.33 185,-80.33 185,-86.67 185,-86.67 185,-89.83 181.83,-93 178.67,-93"/>
<text text-anchor="middle" x="92.5" y="-81" font-family="Helvetica,sans-Serif" font-size="10.00">IcdDecoder::decodeGPSSubframe1</text>
</a>
</g>
</g>
<!-- Node1&#45;&gt;Node2 -->
<g id="edge1_Node000001_Node000002" class="edge">
<title>Node1&#45;&gt;Node2</title>
<g id="a_edge1_Node000001_Node000002"><a xlink:title=" ">
<path fill="none" stroke="#63b8ff" d="M242.46,-57.75C212.54,-62.92 177.42,-68.99 148.8,-73.94"/>
<polygon fill="#63b8ff" stroke="#63b8ff" points="243.13,-61.18 252.39,-56.03 241.94,-54.28 243.13,-61.18"/>
</a>
</g>
</g>
<!-- Node9 -->
<g id="Node000009" class="node">
<title>Node9</title>
<g id="a_Node000009"><a xlink:href="structIcdDecoder.html#a29584df4fce2ea922d887e0c5b5e2487" target="_top" xlink:title=" ">
<path fill="#fff0f0" stroke="red" d="M178.67,-56C178.67,-56 6.33,-56 6.33,-56 3.17,-56 0,-52.83 0,-49.67 0,-49.67 0,-43.33 0,-43.33 0,-40.17 3.17,-37 6.33,-37 6.33,-37 178.67,-37 178.67,-37 181.83,-37 185,-40.17 185,-43.33 185,-43.33 185,-49.67 185,-49.67 185,-52.83 181.83,-56 178.67,-56"/>
<text text-anchor="middle" x="92.5" y="-44" font-family="Helvetica,sans-Serif" font-size="10.00">IcdDecoder::decodeGPSSubframe2</text>
</a>
</g>
</g>
<!-- Node1&#45;&gt;Node9 -->
<g id="edge2_Node000001_Node000009" class="edge">
<title>Node1&#45;&gt;Node9</title>
<g id="a_edge2_Node000001_Node000009"><a xlink:title=" ">
<path fill="none" stroke="#63b8ff" d="M210.55,-46.5C202.13,-46.5 193.62,-46.5 185.24,-46.5"/>
<polygon fill="#63b8ff" stroke="#63b8ff" points="210.77,-50 220.77,-46.5 210.77,-43 210.77,-50"/>
</a>
</g>
</g>
<!-- Node10 -->
<g id="Node000010" class="node">
<title>Node10</title>
<g id="a_Node000010"><a xlink:href="structIcdDecoder.html#afaba292d1d3b077eaf2e7ba3a8cd2ff0" target="_top" xlink:title=" ">
<path fill="#fff0f0" stroke="red" d="M178.67,-19C178.67,-19 6.33,-19 6.33,-19 3.17,-19 0,-15.83 0,-12.67 0,-12.67 0,-6.33 0,-6.33 0,-3.17 3.17,0 6.33,0 6.33,0 178.67,0 178.67,0 181.83,0 185,-3.17 185,-6.33 185,-6.33 185,-12.67 185,-12.67 185,-15.83 181.83,-19 178.67,-19"/>
<text text-anchor="middle" x="92.5" y="-7" font-family="Helvetica,sans-Serif" font-size="10.00">IcdDecoder::decodeGPSSubframe3</text>
</a>
</g>
</g>
<!-- Node1&#45;&gt;Node10 -->
<g id="edge3_Node000001_Node000010" class="edge">
<title>Node1&#45;&gt;Node10</title>
<g id="a_edge3_Node000001_Node000010"><a xlink:title=" ">
<path fill="none" stroke="#63b8ff" d="M242.46,-35.25C212.54,-30.08 177.42,-24.01 148.8,-19.06"/>
<polygon fill="#63b8ff" stroke="#63b8ff" points="241.94,-38.72 252.39,-36.97 243.13,-31.82 241.94,-38.72"/>
</a>
</g>
</g>
</g>
</svg>
