<?xml version="1.0" encoding="UTF-8" standalone="no"?>
<!DOCTYPE svg PUBLIC "-//W3C//DTD SVG 1.1//EN"
 "http://www.w3.org/Graphics/SVG/1.1/DTD/svg11.dtd">
<!-- Generated by graphviz version 2.43.0 (0)
 -->
<!-- Title: IERS2010::solidEarthTide1 Pages: 1 -->
<svg width="300pt" height="27pt"
 viewBox="0.00 0.00 300.00 27.00" xmlns="http://www.w3.org/2000/svg" xmlns:xlink="http://www.w3.org/1999/xlink">
<g id="graph0" class="graph" transform="scale(1 1) rotate(0) translate(4 23)">
<title>IERS2010::solidEarthTide1</title>
<!-- Node1 -->
<g id="Node000001" class="node">
<title>Node1</title>
<g id="a_Node000001"><a xlink:href="structIERS2010.html#ac058313fbc47a8f3ca8fc7739f34a546" target="_top" xlink:title="Implementation of the first part of the solidEarth tides (Eq 6.6 and 6.7 IERS2010)">
<path fill="#fff0f0" stroke="red" stroke-width="2" d="M137.67,-19C137.67,-19 6.33,-19 6.33,-19 3.17,-19 0,-15.83 0,-12.67 0,-12.67 0,-6.33 0,-6.33 0,-3.17 3.17,0 6.33,0 6.33,0 137.67,0 137.67,0 140.83,0 144,-3.17 144,-6.33 144,-6.33 144,-12.67 144,-12.67 144,-15.83 140.83,-19 137.67,-19"/>
<text text-anchor="middle" x="72" y="-7" font-family="Helvetica,sans-Serif" font-size="10.00">IERS2010::solidEarthTide1</text>
</a>
</g>
</g>
<!-- Node2 -->
<g id="Node000002" class="node">
<title>Node2</title>
<g id="a_Node000002"><a xlink:href="structLegendre.html#a5a8d9f92b728272375c620f652f7ea36" target="_top" xlink:title=" ">
<path fill="#fff0f0" stroke="red" d="M285.67,-19C285.67,-19 186.33,-19 186.33,-19 183.17,-19 180,-15.83 180,-12.67 180,-12.67 180,-6.33 180,-6.33 180,-3.17 183.17,0 186.33,0 186.33,0 285.67,0 285.67,0 288.83,0 292,-3.17 292,-6.33 292,-6.33 292,-12.67 292,-12.67 292,-15.83 288.83,-19 285.67,-19"/>
<text text-anchor="middle" x="236" y="-7" font-family="Helvetica,sans-Serif" font-size="10.00">Legendre::calculate</text>
</a>
</g>
</g>
<!-- Node1&#45;&gt;Node2 -->
<g id="edge1_Node000001_Node000002" class="edge">
<title>Node1&#45;&gt;Node2</title>
<g id="a_edge1_Node000001_Node000002"><a xlink:title=" ">
<path fill="none" stroke="#63b8ff" d="M144.06,-9.5C152.52,-9.5 161.13,-9.5 169.5,-9.5"/>
<polygon fill="#63b8ff" stroke="#63b8ff" points="169.59,-13 179.59,-9.5 169.59,-6 169.59,-13"/>
</a>
</g>
</g>
</g>
</svg>
