<?xml version="1.0" encoding="UTF-8" standalone="no"?>
<!DOCTYPE svg PUBLIC "-//W3C//DTD SVG 1.1//EN"
 "http://www.w3.org/Graphics/SVG/1.1/DTD/svg11.dtd">
<!-- Generated by graphviz version 2.43.0 (0)
 -->
<!-- Title: IcdDecoder::decodeGPSSubframe1 Pages: 1 -->
<svg width="547pt" height="195pt"
 viewBox="0.00 0.00 547.00 195.00" xmlns="http://www.w3.org/2000/svg" xmlns:xlink="http://www.w3.org/1999/xlink">
<g id="graph0" class="graph" transform="scale(1 1) rotate(0) translate(4 191)">
<title>IcdDecoder::decodeGPSSubframe1</title>
<!-- Node1 -->
<g id="Node000001" class="node">
<title>Node1</title>
<g id="a_Node000001"><a xlink:href="structIcdDecoder.html#ad30f4972810c88dd00450b8a1ad2d244" target="_top" xlink:title=" ">
<path fill="#fff0f0" stroke="red" stroke-width="2" d="M178.67,-103C178.67,-103 6.33,-103 6.33,-103 3.17,-103 0,-99.83 0,-96.67 0,-96.67 0,-90.33 0,-90.33 0,-87.17 3.17,-84 6.33,-84 6.33,-84 178.67,-84 178.67,-84 181.83,-84 185,-87.17 185,-90.33 185,-90.33 185,-96.67 185,-96.67 185,-99.83 181.83,-103 178.67,-103"/>
<text text-anchor="middle" x="92.5" y="-91" font-family="Helvetica,sans-Serif" font-size="10.00">IcdDecoder::decodeGPSSubframe1</text>
</a>
</g>
</g>
<!-- Node2 -->
<g id="Node000002" class="node">
<title>Node2</title>
<g id="a_Node000002"><a xlink:href="structIcdDecoder.html#a79e3697462fd9605f031ed633f71e12b" target="_top" xlink:title=" ">
<path fill="#fff0f0" stroke="red" d="M391.17,-187C391.17,-187 228.83,-187 228.83,-187 225.67,-187 222.5,-183.83 222.5,-180.67 222.5,-180.67 222.5,-174.33 222.5,-174.33 222.5,-171.17 225.67,-168 228.83,-168 228.83,-168 391.17,-168 391.17,-168 394.33,-168 397.5,-171.17 397.5,-174.33 397.5,-174.33 397.5,-180.67 397.5,-180.67 397.5,-183.83 394.33,-187 391.17,-187"/>
<text text-anchor="middle" x="310" y="-175" font-family="Helvetica,sans-Serif" font-size="10.00">IcdDecoder::decodeGpsTlmWord</text>
</a>
</g>
</g>
<!-- Node1&#45;&gt;Node2 -->
<g id="edge1_Node000001_Node000002" class="edge">
<title>Node1&#45;&gt;Node2</title>
<g id="a_edge1_Node000001_Node000002"><a xlink:title=" ">
<path fill="none" stroke="#63b8ff" d="M108.58,-103.07C131.83,-117.4 178.23,-144.38 221,-159.5 227.32,-161.73 234,-163.73 240.74,-165.49"/>
<polygon fill="#63b8ff" stroke="#63b8ff" points="240.08,-168.93 250.63,-167.92 241.75,-162.14 240.08,-168.93"/>
</a>
</g>
</g>
<!-- Node3 -->
<g id="Node000003" class="node">
<title>Node3</title>
<g id="a_Node000003"><a xlink:href="structIcdDecoder.html#acb598e47f5b9091532e280c590007025" target="_top" xlink:title=" ">
<path fill="#fff0f0" stroke="red" d="M392.67,-150C392.67,-150 227.33,-150 227.33,-150 224.17,-150 221,-146.83 221,-143.67 221,-143.67 221,-137.33 221,-137.33 221,-134.17 224.17,-131 227.33,-131 227.33,-131 392.67,-131 392.67,-131 395.83,-131 399,-134.17 399,-137.33 399,-137.33 399,-143.67 399,-143.67 399,-146.83 395.83,-150 392.67,-150"/>
<text text-anchor="middle" x="310" y="-138" font-family="Helvetica,sans-Serif" font-size="10.00">IcdDecoder::decodeGpsHowWord</text>
</a>
</g>
</g>
<!-- Node1&#45;&gt;Node3 -->
<g id="edge2_Node000001_Node000003" class="edge">
<title>Node1&#45;&gt;Node3</title>
<g id="a_edge2_Node000001_Node000003"><a xlink:title=" ">
<path fill="none" stroke="#63b8ff" d="M137.11,-103.01C171.17,-110.44 218.68,-120.8 255.12,-128.75"/>
<polygon fill="#63b8ff" stroke="#63b8ff" points="254.57,-132.21 265.09,-130.92 256.06,-125.37 254.57,-132.21"/>
</a>
</g>
</g>
<!-- Node4 -->
<g id="Node000004" class="node">
<title>Node4</title>
<g id="a_Node000004"><a xlink:href="ubxDecoder_8cpp.html#a3f7c471b91d0090e112befb07c810ee0" target="_top" xlink:title=" ">
<path fill="#fff0f0" stroke="red" d="M532.67,-103C532.67,-103 441.33,-103 441.33,-103 438.17,-103 435,-99.83 435,-96.67 435,-96.67 435,-90.33 435,-90.33 435,-87.17 438.17,-84 441.33,-84 441.33,-84 532.67,-84 532.67,-84 535.83,-84 539,-87.17 539,-90.33 539,-90.33 539,-96.67 539,-96.67 539,-99.83 535.83,-103 532.67,-103"/>
<text text-anchor="middle" x="487" y="-91" font-family="Helvetica,sans-Serif" font-size="10.00">gpsBitUFromWord</text>
</a>
</g>
</g>
<!-- Node1&#45;&gt;Node4 -->
<g id="edge4_Node000001_Node000004" class="edge">
<title>Node1&#45;&gt;Node4</title>
<g id="a_edge4_Node000001_Node000004"><a xlink:title=" ">
<path fill="none" stroke="#63b8ff" d="M185.03,-87.69C258.74,-86.22 360.32,-86.47 424.57,-88.43"/>
<polygon fill="#63b8ff" stroke="#63b8ff" points="424.84,-91.94 434.95,-88.78 425.07,-84.95 424.84,-91.94"/>
</a>
</g>
</g>
<!-- Node1&#45;&gt;Node4 -->
<g id="edge5_Node000001_Node000004" class="edge">
<title>Node1&#45;&gt;Node4</title>
<g id="a_edge5_Node000001_Node000004"><a xlink:title=" ">
<path fill="none" stroke="#63b8ff" d="M185.03,-99.31C258.74,-100.78 360.32,-100.53 424.57,-98.57"/>
<polygon fill="#63b8ff" stroke="#63b8ff" points="425.07,-102.05 434.95,-98.22 424.84,-95.06 425.07,-102.05"/>
</a>
</g>
</g>
<!-- Node5 -->
<g id="Node000005" class="node">
<title>Node5</title>
<g id="a_Node000005"><a xlink:href="ubxDecoder_8cpp.html#aa710d3a4e32d533b7f8e00d16e8e82c8" target="_top" xlink:title=" ">
<path fill="#fff0f0" stroke="red" d="M355.17,-56C355.17,-56 264.83,-56 264.83,-56 261.67,-56 258.5,-52.83 258.5,-49.67 258.5,-49.67 258.5,-43.33 258.5,-43.33 258.5,-40.17 261.67,-37 264.83,-37 264.83,-37 355.17,-37 355.17,-37 358.33,-37 361.5,-40.17 361.5,-43.33 361.5,-43.33 361.5,-49.67 361.5,-49.67 361.5,-52.83 358.33,-56 355.17,-56"/>
<text text-anchor="middle" x="310" y="-44" font-family="Helvetica,sans-Serif" font-size="10.00">gpsBitSFromWord</text>
</a>
</g>
</g>
<!-- Node1&#45;&gt;Node5 -->
<g id="edge6_Node000001_Node000005" class="edge">
<title>Node1&#45;&gt;Node5</title>
<g id="a_edge6_Node000001_Node000005"><a xlink:title=" ">
<path fill="none" stroke="#63b8ff" d="M116.97,-83.98C148.24,-74.8 204.7,-61.9 248.33,-53.59"/>
<polygon fill="#63b8ff" stroke="#63b8ff" points="249.09,-57.01 258.27,-51.74 247.8,-50.13 249.09,-57.01"/>
</a>
</g>
</g>
<!-- Node1&#45;&gt;Node5 -->
<g id="edge7_Node000001_Node000005" class="edge">
<title>Node1&#45;&gt;Node5</title>
<g id="a_edge7_Node000001_Node000005"><a xlink:title=" ">
<path fill="none" stroke="#63b8ff" d="M166.76,-83.96C203.76,-76.59 246.83,-66.73 275.8,-58.78"/>
<polygon fill="#63b8ff" stroke="#63b8ff" points="276.76,-62.14 285.42,-56.05 274.85,-55.41 276.76,-62.14"/>
</a>
</g>
</g>
<!-- Node6 -->
<g id="Node000006" class="node">
<title>Node6</title>
<g id="a_Node000006"><a xlink:href="gTime_8cpp.html#abc73cf336f9fa1b3622c933d5925e073" target="_top" xlink:title=" ">
<path fill="#fff0f0" stroke="red" d="M331.67,-19C331.67,-19 288.33,-19 288.33,-19 285.17,-19 282,-15.83 282,-12.67 282,-12.67 282,-6.33 282,-6.33 282,-3.17 285.17,0 288.33,0 288.33,0 331.67,0 331.67,0 334.83,0 338,-3.17 338,-6.33 338,-6.33 338,-12.67 338,-12.67 338,-15.83 334.83,-19 331.67,-19"/>
<text text-anchor="middle" x="310" y="-7" font-family="Helvetica,sans-Serif" font-size="10.00">timeGet</text>
</a>
</g>
</g>
<!-- Node1&#45;&gt;Node6 -->
<g id="edge8_Node000001_Node000006" class="edge">
<title>Node1&#45;&gt;Node6</title>
<g id="a_edge8_Node000001_Node000006"><a xlink:title=" ">
<path fill="none" stroke="#63b8ff" d="M109.01,-83.92C132.44,-69.83 178.63,-43.58 221,-28.5 237.31,-22.69 255.97,-18.36 271.9,-15.3"/>
<polygon fill="#63b8ff" stroke="#63b8ff" points="272.72,-18.71 281.93,-13.48 271.46,-11.83 272.72,-18.71"/>
</a>
</g>
</g>
<!-- Node3&#45;&gt;Node4 -->
<g id="edge3_Node000003_Node000004" class="edge">
<title>Node3&#45;&gt;Node4</title>
<g id="a_edge3_Node000003_Node000004"><a xlink:title=" ">
<path fill="none" stroke="#63b8ff" d="M346.41,-130.99C373.48,-123.72 411.01,-113.64 440.34,-105.76"/>
<polygon fill="#63b8ff" stroke="#63b8ff" points="441.59,-109.05 450.34,-103.08 439.77,-102.29 441.59,-109.05"/>
</a>
</g>
</g>
</g>
</svg>
