<?xml version="1.0" encoding="UTF-8" standalone="no"?>
<!DOCTYPE svg PUBLIC "-//W3C//DTD SVG 1.1//EN"
 "http://www.w3.org/Graphics/SVG/1.1/DTD/svg11.dtd">
<!-- Generated by graphviz version 2.43.0 (0)
 -->
<!-- Title: Sofa::iauMoon Pages: 1 -->
<svg width="216pt" height="27pt"
 viewBox="0.00 0.00 216.00 27.00" xmlns="http://www.w3.org/2000/svg" xmlns:xlink="http://www.w3.org/1999/xlink">
<g id="graph0" class="graph" transform="scale(1 1) rotate(0) translate(4 23)">
<title>Sofa::iauMoon</title>
<!-- Node1 -->
<g id="Node000001" class="node">
<title>Node1</title>
<g id="a_Node000001"><a xlink:href="structSofa.html#ac3a02f652ff7b705f8a55c64aeec7e60" target="_top" xlink:title=" ">
<path fill="#fff0f0" stroke="red" stroke-width="2" d="M201.67,-19C201.67,-19 128.33,-19 128.33,-19 125.17,-19 122,-15.83 122,-12.67 122,-12.67 122,-6.33 122,-6.33 122,-3.17 125.17,0 128.33,0 128.33,0 201.67,0 201.67,0 204.83,0 208,-3.17 208,-6.33 208,-6.33 208,-12.67 208,-12.67 208,-15.83 204.83,-19 201.67,-19"/>
<text text-anchor="middle" x="165" y="-7" font-family="Helvetica,sans-Serif" font-size="10.00">Sofa::iauMoon</text>
</a>
</g>
</g>
<!-- Node2 -->
<g id="Node000002" class="node">
<title>Node2</title>
<g id="a_Node000002"><a xlink:href="planets_8cpp.html#afa5d7098a27c088c2dae5e00aced234b" target="_top" xlink:title=" ">
<path fill="#fff0f0" stroke="red" d="M79.67,-19C79.67,-19 6.33,-19 6.33,-19 3.17,-19 0,-15.83 0,-12.67 0,-12.67 0,-6.33 0,-6.33 0,-3.17 3.17,0 6.33,0 6.33,0 79.67,0 79.67,0 82.83,0 86,-3.17 86,-6.33 86,-6.33 86,-12.67 86,-12.67 86,-15.83 82.83,-19 79.67,-19"/>
<text text-anchor="middle" x="43" y="-7" font-family="Helvetica,sans-Serif" font-size="10.00">planetPosEcef</text>
</a>
</g>
</g>
<!-- Node1&#45;&gt;Node2 -->
<g id="edge1_Node000001_Node000002" class="edge">
<title>Node1&#45;&gt;Node2</title>
<g id="a_edge1_Node000001_Node000002"><a xlink:title=" ">
<path fill="none" stroke="#63b8ff" d="M111.55,-9.5C103.12,-9.5 94.49,-9.5 86.33,-9.5"/>
<polygon fill="#63b8ff" stroke="#63b8ff" points="111.69,-13 121.69,-9.5 111.69,-6 111.69,-13"/>
</a>
</g>
</g>
</g>
</svg>
