<?xml version="1.0" encoding="UTF-8" standalone="no"?>
<!DOCTYPE svg PUBLIC "-//W3C//DTD SVG 1.1//EN"
 "http://www.w3.org/Graphics/SVG/1.1/DTD/svg11.dtd">
<!-- Generated by graphviz version 2.43.0 (0)
 -->
<!-- Title: Sinex_solstatistic_t Pages: 1 -->
<svg width="129pt" height="214pt"
 viewBox="0.00 0.00 129.00 214.00" xmlns="http://www.w3.org/2000/svg" xmlns:xlink="http://www.w3.org/1999/xlink">
<g id="graph0" class="graph" transform="scale(1 1) rotate(0) translate(4 210)">
<title>Sinex_solstatistic_t</title>
<!-- Node1 -->
<g id="Node000001" class="node">
<title>Node1</title>
<g id="a_Node000001"><a xlink:href="structSinex__solstatistic__t.html" target="_top" xlink:title=" ">
<path fill="white" stroke="#666666" stroke-width="2" d="M109,-102C109,-102 12,-102 12,-102 6,-102 0,-96 0,-90 0,-90 0,-12 0,-12 0,-6 6,0 12,0 12,0 109,0 109,0 115,0 121,-6 121,-12 121,-12 121,-90 121,-90 121,-96 115,-102 109,-102"/>
<text text-anchor="start" x="13.5" y="-86" font-family="Helvetica,sans-Serif" font-size="10.00">Sinex_solstatistic_t</text>
<text text-anchor="start" x="26.5" y="-71" font-family="Helvetica,sans-Serif" font-size="10.00">+</text>
<text text-anchor="start" x="53.5" y="-71" font-family="Helvetica,sans-Serif" font-size="10.00">etype</text>
<text text-anchor="start" x="26.5" y="-56" font-family="Helvetica,sans-Serif" font-size="10.00">+</text>
<text text-anchor="start" x="53.5" y="-56" font-family="Helvetica,sans-Serif" font-size="10.00">ival</text>
<text text-anchor="start" x="26.5" y="-41" font-family="Helvetica,sans-Serif" font-size="10.00">+</text>
<text text-anchor="start" x="53.5" y="-41" font-family="Helvetica,sans-Serif" font-size="10.00">dval</text>
<text text-anchor="start" x="26.5" y="-26" font-family="Helvetica,sans-Serif" font-size="10.00">+</text>
<text text-anchor="start" x="53.5" y="-26" font-family="Helvetica,sans-Serif" font-size="10.00">value</text>
<text text-anchor="start" x="59" y="-11" font-family="Helvetica,sans-Serif" font-size="10.00"> </text>
<polygon fill="#666666" stroke="#666666" points="8.5,-81 8.5,-81 113.5,-81 113.5,-81 8.5,-81"/>
<polygon fill="#666666" stroke="#666666" points="8.5,-21 8.5,-21 51.5,-21 51.5,-21 8.5,-21"/>
<polygon fill="#666666" stroke="#666666" points="51.5,-21 51.5,-21 113.5,-21 113.5,-21 51.5,-21"/>
<polygon fill="none" stroke="#666666" points="8,-4 8,-98 113,-98 113,-4 8,-4"/>
</a>
</g>
</g>
<!-- Node2 -->
<g id="Node000002" class="node">
<title>Node2</title>
<g id="a_Node000002"><a xlink:title=" ">
<path fill="white" stroke="#666666" d="M75.5,-206C75.5,-206 45.5,-206 45.5,-206 39.5,-206 33.5,-200 33.5,-194 33.5,-194 33.5,-161 33.5,-161 33.5,-155 39.5,-149 45.5,-149 45.5,-149 75.5,-149 75.5,-149 81.5,-149 87.5,-155 87.5,-161 87.5,-161 87.5,-194 87.5,-194 87.5,-200 81.5,-206 75.5,-206"/>
<text text-anchor="start" x="46.5" y="-189.5" font-family="Helvetica,sans-Serif" font-size="10.00">string</text>
<text text-anchor="start" x="58.5" y="-174.5" font-family="Helvetica,sans-Serif" font-size="10.00"> </text>
<text text-anchor="start" x="58.5" y="-159.5" font-family="Helvetica,sans-Serif" font-size="10.00"> </text>
<polygon fill="#666666" stroke="#666666" points="41.5,-184.5 41.5,-184.5 79.5,-184.5 79.5,-184.5 41.5,-184.5"/>
<polygon fill="#666666" stroke="#666666" points="41.5,-169.5 41.5,-169.5 79.5,-169.5 79.5,-169.5 41.5,-169.5"/>
<polygon fill="none" stroke="#666666" points="41.5,-153 41.5,-202 79.5,-202 79.5,-153 41.5,-153"/>
</a>
</g>
</g>
<!-- Node2&#45;&gt;Node1 -->
<g id="edge1_Node000001_Node000002" class="edge">
<title>Node2&#45;&gt;Node1</title>
<g id="a_edge1_Node000001_Node000002"><a xlink:title=" ">
<path fill="none" stroke="#63b8ff" d="M60.5,-148.87C60.5,-138.55 60.5,-126.38 60.5,-114.2"/>
<polygon fill="none" stroke="#63b8ff" points="60.5,-114.1 56.5,-108.1 60.5,-102.1 64.5,-108.1 60.5,-114.1"/>
</a>
</g>
<text text-anchor="middle" x="80.5" y="-123" font-family="Helvetica,sans-Serif" font-size="10.00" fill="grey"> +name</text>
</g>
</g>
</svg>
