<?xml version="1.0" encoding="UTF-8" standalone="no"?>
<!DOCTYPE svg PUBLIC "-//W3C//DTD SVG 1.1//EN"
 "http://www.w3.org/Graphics/SVG/1.1/DTD/svg11.dtd">
<!-- Generated by graphviz version 2.43.0 (0)
 -->
<!-- Title: ACSConfig::getRecOpts Pages: 1 -->
<svg width="654pt" height="1451pt"
 viewBox="0.00 0.00 654.00 1451.00" xmlns="http://www.w3.org/2000/svg" xmlns:xlink="http://www.w3.org/1999/xlink">
<g id="graph0" class="graph" transform="scale(1 1) rotate(0) translate(4 1447)">
<title>ACSConfig::getRecOpts</title>
<!-- Node1 -->
<g id="Node000001" class="node">
<title>Node1</title>
<g id="a_Node000001"><a xlink:href="structACSConfig.html#acbb130e061ba4b7bf620e4fb68e1b794" target="_top" xlink:title="Set receiver options for a specific receiver using a hierarchy of sources.">
<path fill="#fff0f0" stroke="red" stroke-width="2" d="M639.67,-730C639.67,-730 523.33,-730 523.33,-730 520.17,-730 517,-726.83 517,-723.67 517,-723.67 517,-717.33 517,-717.33 517,-714.17 520.17,-711 523.33,-711 523.33,-711 639.67,-711 639.67,-711 642.83,-711 646,-714.17 646,-717.33 646,-717.33 646,-723.67 646,-723.67 646,-726.83 642.83,-730 639.67,-730"/>
<text text-anchor="middle" x="581.5" y="-718" font-family="Helvetica,sans-Serif" font-size="10.00">ACSConfig::getRecOpts</text>
</a>
</g>
</g>
<!-- Node2 -->
<g id="Node000002" class="node">
<title>Node2</title>
<g id="a_Node000002"><a xlink:href="main_8cpp.html#a54d210f60c2488eb2654eaf7a3bbf6c4" target="_top" xlink:title="Create a station object from an input.">
<path fill="#fff0f0" stroke="red" d="M451.67,-1443C451.67,-1443 372.33,-1443 372.33,-1443 369.17,-1443 366,-1439.83 366,-1436.67 366,-1436.67 366,-1430.33 366,-1430.33 366,-1427.17 369.17,-1424 372.33,-1424 372.33,-1424 451.67,-1424 451.67,-1424 454.83,-1424 458,-1427.17 458,-1430.33 458,-1430.33 458,-1436.67 458,-1436.67 458,-1439.83 454.83,-1443 451.67,-1443"/>
<text text-anchor="middle" x="412" y="-1431" font-family="Helvetica,sans-Serif" font-size="10.00">addStationData</text>
</a>
</g>
</g>
<!-- Node1&#45;&gt;Node2 -->
<g id="edge1_Node000001_Node000002" class="edge">
<title>Node1&#45;&gt;Node2</title>
<g id="a_edge1_Node000001_Node000002"><a xlink:title=" ">
<path fill="none" stroke="#63b8ff" d="M580.5,-740.27C580.11,-842.65 573.25,-1311.81 481,-1415.5 474.99,-1422.25 466.78,-1426.6 458.13,-1429.38"/>
<polygon fill="#63b8ff" stroke="#63b8ff" points="584,-740.12 580.52,-730.11 577,-740.1 584,-740.12"/>
</a>
</g>
</g>
<!-- Node7 -->
<g id="Node000007" class="node">
<title>Node7</title>
<g id="a_Node000007"><a xlink:href="ppp__pseudoobs_8cpp.html#a02995a7f24f39419730eea3b664553cf" target="_top" xlink:title=" ">
<path fill="#fff0f0" stroke="red" d="M454.67,-1406C454.67,-1406 369.33,-1406 369.33,-1406 366.17,-1406 363,-1402.83 363,-1399.67 363,-1399.67 363,-1393.33 363,-1393.33 363,-1390.17 366.17,-1387 369.33,-1387 369.33,-1387 454.67,-1387 454.67,-1387 457.83,-1387 461,-1390.17 461,-1393.33 461,-1393.33 461,-1399.67 461,-1399.67 461,-1402.83 457.83,-1406 454.67,-1406"/>
<text text-anchor="middle" x="412" y="-1394" font-family="Helvetica,sans-Serif" font-size="10.00">ambgPseudoObs</text>
</a>
</g>
</g>
<!-- Node1&#45;&gt;Node7 -->
<g id="edge2_Node000001_Node000007" class="edge">
<title>Node1&#45;&gt;Node7</title>
<g id="a_edge2_Node000001_Node000007"><a xlink:title=" ">
<path fill="none" stroke="#63b8ff" d="M580.33,-740.14C579.07,-838.97 568.56,-1280.87 481,-1378.5 475.7,-1384.41 468.71,-1388.48 461.22,-1391.26"/>
<polygon fill="#63b8ff" stroke="#63b8ff" points="583.83,-740.1 580.44,-730.06 576.83,-740.02 583.83,-740.1"/>
</a>
</g>
</g>
<!-- Node9 -->
<g id="Node000009" class="node">
<title>Node9</title>
<g id="a_Node000009"><a xlink:href="main_8cpp.html#a85051f6840a4b64c19e25a4b461723e4" target="_top" xlink:title=" ">
<path fill="#fff0f0" stroke="red" d="M451.17,-1369C451.17,-1369 372.83,-1369 372.83,-1369 369.67,-1369 366.5,-1365.83 366.5,-1362.67 366.5,-1362.67 366.5,-1356.33 366.5,-1356.33 366.5,-1353.17 369.67,-1350 372.83,-1350 372.83,-1350 451.17,-1350 451.17,-1350 454.33,-1350 457.5,-1353.17 457.5,-1356.33 457.5,-1356.33 457.5,-1362.67 457.5,-1362.67 457.5,-1365.83 454.33,-1369 451.17,-1369"/>
<text text-anchor="middle" x="412" y="-1357" font-family="Helvetica,sans-Serif" font-size="10.00">avoidCollisions</text>
</a>
</g>
</g>
<!-- Node1&#45;&gt;Node9 -->
<g id="edge3_Node000001_Node000009" class="edge">
<title>Node1&#45;&gt;Node9</title>
<g id="a_edge3_Node000001_Node000009"><a xlink:title=" ">
<path fill="none" stroke="#63b8ff" d="M579.93,-740.51C576.85,-835.69 559.22,-1241.87 481,-1335.5 474.9,-1342.8 466.43,-1347.88 457.53,-1351.42"/>
<polygon fill="#63b8ff" stroke="#63b8ff" points="583.44,-740.37 580.25,-730.27 576.44,-740.16 583.44,-740.37"/>
</a>
</g>
</g>
<!-- Node10 -->
<g id="Node000010" class="node">
<title>Node10</title>
<g id="a_Node000010"><a xlink:href="localAtmosRegion_8cpp.html#a4f2c14c2994a3bb5761636e9196b34e8" target="_top" xlink:title=" ">
<path fill="#fff0f0" stroke="red" d="M278.17,-1312C278.17,-1312 174.83,-1312 174.83,-1312 171.67,-1312 168.5,-1308.83 168.5,-1305.67 168.5,-1305.67 168.5,-1299.33 168.5,-1299.33 168.5,-1296.17 171.67,-1293 174.83,-1293 174.83,-1293 278.17,-1293 278.17,-1293 281.33,-1293 284.5,-1296.17 284.5,-1299.33 284.5,-1299.33 284.5,-1305.67 284.5,-1305.67 284.5,-1308.83 281.33,-1312 278.17,-1312"/>
<text text-anchor="middle" x="226.5" y="-1300" font-family="Helvetica,sans-Serif" font-size="10.00">configAtmosRegions</text>
</a>
</g>
</g>
<!-- Node1&#45;&gt;Node10 -->
<g id="edge4_Node000001_Node000010" class="edge">
<title>Node1&#45;&gt;Node10</title>
<g id="a_edge4_Node000001_Node000010"><a xlink:title=" ">
<path fill="none" stroke="#63b8ff" d="M580.36,-740.31C579.24,-833.65 569.29,-1228.02 481,-1302.5 415.57,-1357.69 303.23,-1329.02 253.03,-1312.06"/>
<polygon fill="#63b8ff" stroke="#63b8ff" points="583.86,-740.07 580.46,-730.04 576.86,-740 583.86,-740.07"/>
</a>
</g>
</g>
<!-- Node4 -->
<g id="Node000004" class="node">
<title>Node4</title>
<g id="a_Node000004"><a xlink:href="main_8cpp.html#a2c1eabb2ea9b242d8d9fd2c1795849e9" target="_top" xlink:title=" ">
<path fill="#fff0f0" stroke="red" d="M70.67,-862C70.67,-862 39.33,-862 39.33,-862 36.17,-862 33,-858.83 33,-855.67 33,-855.67 33,-849.33 33,-849.33 33,-846.17 36.17,-843 39.33,-843 39.33,-843 70.67,-843 70.67,-843 73.83,-843 77,-846.17 77,-849.33 77,-849.33 77,-855.67 77,-855.67 77,-858.83 73.83,-862 70.67,-862"/>
<text text-anchor="middle" x="55" y="-850" font-family="Helvetica,sans-Serif" font-size="10.00">ginan</text>
</a>
</g>
</g>
<!-- Node1&#45;&gt;Node4 -->
<g id="edge22_Node000001_Node000004" class="edge">
<title>Node1&#45;&gt;Node4</title>
<g id="a_edge22_Node000001_Node000004"><a xlink:title=" ">
<path fill="none" stroke="#63b8ff" d="M579.48,-740.15C575.77,-788.51 558.74,-913.16 481,-965.5 339.45,-1060.79 121.12,-903.57 67.97,-862.11"/>
<polygon fill="#63b8ff" stroke="#63b8ff" points="582.97,-740.27 580.13,-730.07 575.99,-739.82 582.97,-740.27"/>
</a>
</g>
</g>
<!-- Node11 -->
<g id="Node000011" class="node">
<title>Node11</title>
<g id="a_Node000011"><a xlink:href="acsQC_8cpp.html#a9a7675a515de2802ed917e9d32dd897d" target="_top" xlink:title="Cycle slip detection for dual&#45;frequency.">
<path fill="#fff0f0" stroke="red" d="M438.17,-1293C438.17,-1293 385.83,-1293 385.83,-1293 382.67,-1293 379.5,-1289.83 379.5,-1286.67 379.5,-1286.67 379.5,-1280.33 379.5,-1280.33 379.5,-1277.17 382.67,-1274 385.83,-1274 385.83,-1274 438.17,-1274 438.17,-1274 441.33,-1274 444.5,-1277.17 444.5,-1280.33 444.5,-1280.33 444.5,-1286.67 444.5,-1286.67 444.5,-1289.83 441.33,-1293 438.17,-1293"/>
<text text-anchor="middle" x="412" y="-1281" font-family="Helvetica,sans-Serif" font-size="10.00">cycleslip2</text>
</a>
</g>
</g>
<!-- Node1&#45;&gt;Node11 -->
<g id="edge6_Node000001_Node000011" class="edge">
<title>Node1&#45;&gt;Node11</title>
<g id="a_edge6_Node000001_Node000011"><a xlink:title=" ">
<path fill="none" stroke="#63b8ff" d="M579.65,-740.28C575.45,-828.64 554.12,-1186.43 481,-1265.5 471.71,-1275.54 457.54,-1280.24 444.53,-1282.35"/>
<polygon fill="#63b8ff" stroke="#63b8ff" points="583.16,-740.2 580.11,-730.05 576.16,-739.88 583.16,-740.2"/>
</a>
</g>
</g>
<!-- Node12 -->
<g id="Node000012" class="node">
<title>Node12</title>
<g id="a_Node000012"><a xlink:href="acsQC_8cpp.html#a7b37fc255c80330a5497de5bee8f2dbb" target="_top" xlink:title="Cycle slip detection and repair.">
<path fill="#fff0f0" stroke="red" d="M252.67,-1256C252.67,-1256 200.33,-1256 200.33,-1256 197.17,-1256 194,-1252.83 194,-1249.67 194,-1249.67 194,-1243.33 194,-1243.33 194,-1240.17 197.17,-1237 200.33,-1237 200.33,-1237 252.67,-1237 252.67,-1237 255.83,-1237 259,-1240.17 259,-1243.33 259,-1243.33 259,-1249.67 259,-1249.67 259,-1252.83 255.83,-1256 252.67,-1256"/>
<text text-anchor="middle" x="226.5" y="-1244" font-family="Helvetica,sans-Serif" font-size="10.00">detectslip</text>
</a>
</g>
</g>
<!-- Node1&#45;&gt;Node12 -->
<g id="edge13_Node000001_Node000012" class="edge">
<title>Node1&#45;&gt;Node12</title>
<g id="a_edge13_Node000001_Node000012"><a xlink:title=" ">
<path fill="none" stroke="#63b8ff" d="M578.16,-740.05C569.2,-811.92 534.8,-1060.14 481,-1115.5 436.58,-1161.21 399.71,-1125.41 343,-1154.5 298.75,-1177.2 255.24,-1218.33 236.76,-1236.92"/>
<polygon fill="#63b8ff" stroke="#63b8ff" points="581.64,-740.44 579.38,-730.09 574.69,-739.59 581.64,-740.44"/>
</a>
</g>
</g>
<!-- Node18 -->
<g id="Node000018" class="node">
<title>Node18</title>
<g id="a_Node000018"><a xlink:href="acsQC_8cpp.html#a5278f59e23c92b2a1912d5dde5e2f809" target="_top" xlink:title="Cycle slip detection and repair for triple&#45;frequency.">
<path fill="#fff0f0" stroke="red" d="M438.17,-1256C438.17,-1256 385.83,-1256 385.83,-1256 382.67,-1256 379.5,-1252.83 379.5,-1249.67 379.5,-1249.67 379.5,-1243.33 379.5,-1243.33 379.5,-1240.17 382.67,-1237 385.83,-1237 385.83,-1237 438.17,-1237 438.17,-1237 441.33,-1237 444.5,-1240.17 444.5,-1243.33 444.5,-1243.33 444.5,-1249.67 444.5,-1249.67 444.5,-1252.83 441.33,-1256 438.17,-1256"/>
<text text-anchor="middle" x="412" y="-1244" font-family="Helvetica,sans-Serif" font-size="10.00">cycleslip3</text>
</a>
</g>
</g>
<!-- Node1&#45;&gt;Node18 -->
<g id="edge8_Node000001_Node000018" class="edge">
<title>Node1&#45;&gt;Node18</title>
<g id="a_edge8_Node000001_Node000018"><a xlink:title=" ">
<path fill="none" stroke="#63b8ff" d="M579.36,-740.27C574.11,-824.88 549.43,-1155.45 481,-1228.5 471.73,-1238.39 457.72,-1243.09 444.81,-1245.24"/>
<polygon fill="#63b8ff" stroke="#63b8ff" points="582.86,-740.41 579.97,-730.21 575.88,-739.99 582.86,-740.41"/>
</a>
</g>
</g>
<!-- Node19 -->
<g id="Node000019" class="node">
<title>Node19</title>
<g id="a_Node000019"><a xlink:href="debug_8cpp.html#a9779f5f24c300e72581f3858ed638c9e" target="_top" xlink:title=" ">
<path fill="#fff0f0" stroke="red" d="M448.67,-1219C448.67,-1219 375.33,-1219 375.33,-1219 372.17,-1219 369,-1215.83 369,-1212.67 369,-1212.67 369,-1206.33 369,-1206.33 369,-1203.17 372.17,-1200 375.33,-1200 375.33,-1200 448.67,-1200 448.67,-1200 451.83,-1200 455,-1203.17 455,-1206.33 455,-1206.33 455,-1212.67 455,-1212.67 455,-1215.83 451.83,-1219 448.67,-1219"/>
<text text-anchor="middle" x="412" y="-1207" font-family="Helvetica,sans-Serif" font-size="10.00">debugAttitude</text>
</a>
</g>
</g>
<!-- Node1&#45;&gt;Node19 -->
<g id="edge10_Node000001_Node000019" class="edge">
<title>Node1&#45;&gt;Node19</title>
<g id="a_edge10_Node000001_Node000019"><a xlink:title=" ">
<path fill="none" stroke="#63b8ff" d="M579.01,-740.61C572.58,-821.84 544.67,-1124.53 481,-1191.5 474.18,-1198.67 464.87,-1203.1 455.33,-1205.82"/>
<polygon fill="#63b8ff" stroke="#63b8ff" points="582.52,-740.53 579.8,-730.29 575.55,-739.99 582.52,-740.53"/>
</a>
</g>
</g>
<!-- Node20 -->
<g id="Node000020" class="node">
<title>Node20</title>
<g id="a_Node000020"><a xlink:href="rinex_8cpp.html#a774458b36a7a13e1263568e05106dc83" target="_top" xlink:title="Decode obs header.">
<path fill="#fff0f0" stroke="red" d="M444.67,-1182C444.67,-1182 379.33,-1182 379.33,-1182 376.17,-1182 373,-1178.83 373,-1175.67 373,-1175.67 373,-1169.33 373,-1169.33 373,-1166.17 376.17,-1163 379.33,-1163 379.33,-1163 444.67,-1163 444.67,-1163 447.83,-1163 451,-1166.17 451,-1169.33 451,-1169.33 451,-1175.67 451,-1175.67 451,-1178.83 447.83,-1182 444.67,-1182"/>
<text text-anchor="middle" x="412" y="-1170" font-family="Helvetica,sans-Serif" font-size="10.00">decodeObsH</text>
</a>
</g>
</g>
<!-- Node1&#45;&gt;Node20 -->
<g id="edge11_Node000001_Node000020" class="edge">
<title>Node1&#45;&gt;Node20</title>
<g id="a_edge11_Node000001_Node000020"><a xlink:title=" ">
<path fill="none" stroke="#63b8ff" d="M578.44,-740.09C570.14,-815.51 536.89,-1086.05 481,-1148.5 473.24,-1157.18 462.14,-1162.72 451.15,-1166.25"/>
<polygon fill="#63b8ff" stroke="#63b8ff" points="581.93,-740.39 579.52,-730.07 574.97,-739.64 581.93,-740.39"/>
</a>
</g>
</g>
<!-- Node21 -->
<g id="Node000021" class="node">
<title>Node21</title>
<g id="a_Node000021"><a xlink:href="rinex_8cpp.html#a8751d1a1d98fb7862f17d0a3ebc22310" target="_top" xlink:title="Read rinex header.">
<path fill="#fff0f0" stroke="red" d="M252.67,-1107C252.67,-1107 200.33,-1107 200.33,-1107 197.17,-1107 194,-1103.83 194,-1100.67 194,-1100.67 194,-1094.33 194,-1094.33 194,-1091.17 197.17,-1088 200.33,-1088 200.33,-1088 252.67,-1088 252.67,-1088 255.83,-1088 259,-1091.17 259,-1094.33 259,-1094.33 259,-1100.67 259,-1100.67 259,-1103.83 255.83,-1107 252.67,-1107"/>
<text text-anchor="middle" x="226.5" y="-1095" font-family="Helvetica,sans-Serif" font-size="10.00">readRnxH</text>
</a>
</g>
</g>
<!-- Node1&#45;&gt;Node21 -->
<g id="edge40_Node000001_Node000021" class="edge">
<title>Node1&#45;&gt;Node21</title>
<g id="a_edge40_Node000001_Node000021"><a xlink:title=" ">
<path fill="none" stroke="#63b8ff" d="M575.68,-701C565.44,-664.28 537.64,-585.68 481,-553.5 427.67,-523.2 388.62,-512.51 343,-553.5 287.14,-603.69 324.55,-816.49 307,-889.5 287.94,-968.81 246.29,-1058.68 232.24,-1087.83"/>
<polygon fill="#63b8ff" stroke="#63b8ff" points="572.37,-702.18 578.31,-710.95 579.14,-700.39 572.37,-702.18"/>
</a>
</g>
</g>
<!-- Node24 -->
<g id="Node000024" class="node">
<title>Node24</title>
<g id="a_Node000024"><a xlink:href="spp_8cpp.html#ad923112e4e6dfdfc8b050b68851fe1d0" target="_top" xlink:title="Estimate receiver position and biases using code measurements.">
<path fill="#fff0f0" stroke="red" d="M430.17,-1106C430.17,-1106 393.83,-1106 393.83,-1106 390.67,-1106 387.5,-1102.83 387.5,-1099.67 387.5,-1099.67 387.5,-1093.33 387.5,-1093.33 387.5,-1090.17 390.67,-1087 393.83,-1087 393.83,-1087 430.17,-1087 430.17,-1087 433.33,-1087 436.5,-1090.17 436.5,-1093.33 436.5,-1093.33 436.5,-1099.67 436.5,-1099.67 436.5,-1102.83 433.33,-1106 430.17,-1106"/>
<text text-anchor="middle" x="412" y="-1094" font-family="Helvetica,sans-Serif" font-size="10.00">estpos</text>
</a>
</g>
</g>
<!-- Node1&#45;&gt;Node24 -->
<g id="edge14_Node000001_Node000024" class="edge">
<title>Node1&#45;&gt;Node24</title>
<g id="a_edge14_Node000001_Node000024"><a xlink:title=" ">
<path fill="none" stroke="#63b8ff" d="M581.32,-740.2C582.68,-800.21 578.23,-982.46 481,-1078.5 469.36,-1090 451.27,-1094.39 436.68,-1095.97"/>
<polygon fill="#63b8ff" stroke="#63b8ff" points="584.82,-740.07 581.01,-730.18 577.82,-740.28 584.82,-740.07"/>
</a>
</g>
</g>
<!-- Node27 -->
<g id="Node000027" class="node">
<title>Node27</title>
<g id="a_Node000027"><a xlink:href="ionoModel_8cpp.html#ae7821a74f98f349d4508712aeced88e1" target="_top" xlink:title="Updating the ionosphere model parameters The ionosphere model should be initialized by calling &#39;confi...">
<path fill="#fff0f0" stroke="red" d="M452.17,-1069C452.17,-1069 371.83,-1069 371.83,-1069 368.67,-1069 365.5,-1065.83 365.5,-1062.67 365.5,-1062.67 365.5,-1056.33 365.5,-1056.33 365.5,-1053.17 368.67,-1050 371.83,-1050 371.83,-1050 452.17,-1050 452.17,-1050 455.33,-1050 458.5,-1053.17 458.5,-1056.33 458.5,-1056.33 458.5,-1062.67 458.5,-1062.67 458.5,-1065.83 455.33,-1069 452.17,-1069"/>
<text text-anchor="middle" x="412" y="-1057" font-family="Helvetica,sans-Serif" font-size="10.00">filterIonosphere</text>
</a>
</g>
</g>
<!-- Node1&#45;&gt;Node27 -->
<g id="edge15_Node000001_Node000027" class="edge">
<title>Node1&#45;&gt;Node27</title>
<g id="a_edge15_Node000001_Node000027"><a xlink:title=" ">
<path fill="none" stroke="#63b8ff" d="M580.57,-740.35C579.65,-796.36 569.06,-957.05 481,-1041.5 474.83,-1047.42 466.95,-1051.44 458.76,-1054.17"/>
<polygon fill="#63b8ff" stroke="#63b8ff" points="584.07,-740.08 580.65,-730.05 577.07,-740.03 584.07,-740.08"/>
</a>
</g>
</g>
<!-- Node29 -->
<g id="Node000029" class="node">
<title>Node29</title>
<g id="a_Node000029"><a xlink:href="erp_8cpp.html#afe3874cc58d609f4ccc2b03a5ef632b8" target="_top" xlink:title="Get earth rotation parameter values.">
<path fill="#fff0f0" stroke="red" d="M429.67,-1032C429.67,-1032 394.33,-1032 394.33,-1032 391.17,-1032 388,-1028.83 388,-1025.67 388,-1025.67 388,-1019.33 388,-1019.33 388,-1016.17 391.17,-1013 394.33,-1013 394.33,-1013 429.67,-1013 429.67,-1013 432.83,-1013 436,-1016.17 436,-1019.33 436,-1019.33 436,-1025.67 436,-1025.67 436,-1028.83 432.83,-1032 429.67,-1032"/>
<text text-anchor="middle" x="412" y="-1020" font-family="Helvetica,sans-Serif" font-size="10.00">getErp</text>
</a>
</g>
</g>
<!-- Node1&#45;&gt;Node29 -->
<g id="edge16_Node000001_Node000029" class="edge">
<title>Node1&#45;&gt;Node29</title>
<g id="a_edge16_Node000001_Node000029"><a xlink:title=" ">
<path fill="none" stroke="#63b8ff" d="M579.1,-740.35C574.48,-790.65 555.48,-924.35 481,-998.5 469.02,-1010.42 450.77,-1016.45 436.19,-1019.48"/>
<polygon fill="#63b8ff" stroke="#63b8ff" points="582.6,-740.44 579.93,-730.19 575.62,-739.87 582.6,-740.44"/>
</a>
</g>
</g>
<!-- Node55 -->
<g id="Node000055" class="node">
<title>Node55</title>
<g id="a_Node000055"><a xlink:href="minimumConstraints_8cpp.html#aa40934b017f373d875c3470591eff52e" target="_top" xlink:title=" ">
<path fill="#fff0f0" stroke="red" d="M246.67,-880C246.67,-880 206.33,-880 206.33,-880 203.17,-880 200,-876.83 200,-873.67 200,-873.67 200,-867.33 200,-867.33 200,-864.17 203.17,-861 206.33,-861 206.33,-861 246.67,-861 246.67,-861 249.83,-861 253,-864.17 253,-867.33 253,-867.33 253,-873.67 253,-873.67 253,-876.83 249.83,-880 246.67,-880"/>
<text text-anchor="middle" x="226.5" y="-868" font-family="Helvetica,sans-Serif" font-size="10.00">mincon</text>
</a>
</g>
</g>
<!-- Node1&#45;&gt;Node55 -->
<g id="edge25_Node000001_Node000055" class="edge">
<title>Node1&#45;&gt;Node55</title>
<g id="a_edge25_Node000001_Node000055"><a xlink:title=" ">
<path fill="none" stroke="#63b8ff" d="M572.33,-739.67C558.46,-769.54 527.24,-826.36 481,-851.5 406.56,-891.98 301.18,-882.43 253.15,-875.12"/>
<polygon fill="#63b8ff" stroke="#63b8ff" points="575.62,-740.88 576.51,-730.32 569.23,-738.02 575.62,-740.88"/>
</a>
</g>
</g>
<!-- Node58 -->
<g id="Node000058" class="node">
<title>Node58</title>
<g id="a_Node000058"><a xlink:href="ppp__pseudoobs_8cpp.html#ac2b5126ef33590aefb40b9f839bc4ba6" target="_top" xlink:title=" ">
<path fill="#fff0f0" stroke="red" d="M103.67,-712C103.67,-712 6.33,-712 6.33,-712 3.17,-712 0,-708.83 0,-705.67 0,-705.67 0,-699.33 0,-699.33 0,-696.17 3.17,-693 6.33,-693 6.33,-693 103.67,-693 103.67,-693 106.83,-693 110,-696.17 110,-699.33 110,-699.33 110,-705.67 110,-705.67 110,-708.83 106.83,-712 103.67,-712"/>
<text text-anchor="middle" x="55" y="-700" font-family="Helvetica,sans-Serif" font-size="10.00">receiverPseudoObs</text>
</a>
</g>
</g>
<!-- Node1&#45;&gt;Node58 -->
<g id="edge42_Node000001_Node000058" class="edge">
<title>Node1&#45;&gt;Node58</title>
<g id="a_edge42_Node000001_Node000058"><a xlink:title=" ">
<path fill="none" stroke="#63b8ff" d="M579.04,-700.85C574.38,-654.13 555.43,-536.65 481,-487.5 355.54,-404.65 265.09,-442.72 146,-534.5 90.7,-577.12 65.42,-663.61 58.24,-692.7"/>
<polygon fill="#63b8ff" stroke="#63b8ff" points="575.56,-701.23 579.92,-710.89 582.53,-700.62 575.56,-701.23"/>
</a>
</g>
</g>
<!-- Node39 -->
<g id="Node000039" class="node">
<title>Node39</title>
<g id="a_Node000039"><a xlink:href="ppp__obs_8cpp.html#aa9dc8925a7e4b904e12660d44616f1fc" target="_top" xlink:title=" ">
<path fill="#fff0f0" stroke="red" d="M257.17,-805C257.17,-805 195.83,-805 195.83,-805 192.67,-805 189.5,-801.83 189.5,-798.67 189.5,-798.67 189.5,-792.33 189.5,-792.33 189.5,-789.17 192.67,-786 195.83,-786 195.83,-786 257.17,-786 257.17,-786 260.33,-786 263.5,-789.17 263.5,-792.33 263.5,-792.33 263.5,-798.67 263.5,-798.67 263.5,-801.83 260.33,-805 257.17,-805"/>
<text text-anchor="middle" x="226.5" y="-793" font-family="Helvetica,sans-Serif" font-size="10.00">receiverPPP</text>
</a>
</g>
</g>
<!-- Node1&#45;&gt;Node39 -->
<g id="edge41_Node000001_Node000039" class="edge">
<title>Node1&#45;&gt;Node39</title>
<g id="a_edge41_Node000001_Node000039"><a xlink:title=" ">
<path fill="none" stroke="#63b8ff" d="M577.61,-700.66C570.27,-658.44 546.59,-560.22 481,-519.5 428.89,-487.15 389.27,-479.24 343,-519.5 255.66,-595.5 385.36,-692.27 307,-777.5 296.08,-789.38 279.12,-794.24 263.67,-795.99"/>
<polygon fill="#63b8ff" stroke="#63b8ff" points="574.16,-701.25 579.21,-710.56 581.07,-700.13 574.16,-701.25"/>
</a>
</g>
</g>
<!-- Node41 -->
<g id="Node000041" class="node">
<title>Node41</title>
<g id="a_Node000041"><a xlink:href="ppp__slr_8cpp.html#a0f53eb82b1b0572a1aabec8b6fe5a6ad" target="_top" xlink:title=" ">
<path fill="#fff0f0" stroke="red" d="M254.67,-768C254.67,-768 198.33,-768 198.33,-768 195.17,-768 192,-764.83 192,-761.67 192,-761.67 192,-755.33 192,-755.33 192,-752.17 195.17,-749 198.33,-749 198.33,-749 254.67,-749 254.67,-749 257.83,-749 261,-752.17 261,-755.33 261,-755.33 261,-761.67 261,-761.67 261,-764.83 257.83,-768 254.67,-768"/>
<text text-anchor="middle" x="226.5" y="-756" font-family="Helvetica,sans-Serif" font-size="10.00">receiverSlr</text>
</a>
</g>
</g>
<!-- Node1&#45;&gt;Node41 -->
<g id="edge43_Node000001_Node000041" class="edge">
<title>Node1&#45;&gt;Node41</title>
<g id="a_edge43_Node000001_Node000041"><a xlink:title=" ">
<path fill="none" stroke="#63b8ff" d="M579.25,-700.69C575.04,-653.03 557,-532.18 481,-481.5 429.97,-447.47 389.74,-441.79 343,-481.5 267.5,-545.65 359.25,-617.32 307,-701.5 293.3,-723.58 267.58,-739.63 249.1,-748.97"/>
<polygon fill="#63b8ff" stroke="#63b8ff" points="575.78,-701.2 580.03,-710.9 582.76,-700.67 575.78,-701.2"/>
</a>
</g>
</g>
<!-- Node80 -->
<g id="Node000080" class="node">
<title>Node80</title>
<g id="a_Node000080"><a xlink:href="tides_8cpp.html#a39a8c3eb047cfec80cee2b90ad29962d" target="_top" xlink:title=" ">
<path fill="#fff0f0" stroke="red" d="M248.67,-562C248.67,-562 204.33,-562 204.33,-562 201.17,-562 198,-558.83 198,-555.67 198,-555.67 198,-549.33 198,-549.33 198,-546.17 201.17,-543 204.33,-543 204.33,-543 248.67,-543 248.67,-543 251.83,-543 255,-546.17 255,-549.33 255,-549.33 255,-555.67 255,-555.67 255,-558.83 251.83,-562 248.67,-562"/>
<text text-anchor="middle" x="226.5" y="-550" font-family="Helvetica,sans-Serif" font-size="10.00">tideDisp</text>
</a>
</g>
</g>
<!-- Node1&#45;&gt;Node80 -->
<g id="edge52_Node000001_Node000080" class="edge">
<title>Node1&#45;&gt;Node80</title>
<g id="a_edge52_Node000001_Node000080"><a xlink:title=" ">
<path fill="none" stroke="#63b8ff" d="M580.1,-700.6C577.82,-610.98 563.52,-246.28 481,-177.5 433.88,-138.23 392.34,-141.07 343,-177.5 280.11,-223.93 237.16,-488.49 228.94,-542.77"/>
<polygon fill="#63b8ff" stroke="#63b8ff" points="576.6,-700.83 580.33,-710.75 583.6,-700.67 576.6,-700.83"/>
</a>
</g>
</g>
<!-- Node85 -->
<g id="Node000085" class="node">
<title>Node85</title>
<g id="a_Node000085"><a xlink:href="ppp__pseudoobs_8cpp.html#ae73c509527efa6401eb80a02825fb7fd" target="_top" xlink:title=" ">
<path fill="#fff0f0" stroke="red" d="M451.67,-956C451.67,-956 372.33,-956 372.33,-956 369.17,-956 366,-952.83 366,-949.67 366,-949.67 366,-943.33 366,-943.33 366,-940.17 369.17,-937 372.33,-937 372.33,-937 451.67,-937 451.67,-937 454.83,-937 458,-940.17 458,-943.33 458,-943.33 458,-949.67 458,-949.67 458,-952.83 454.83,-956 451.67,-956"/>
<text text-anchor="middle" x="412" y="-944" font-family="Helvetica,sans-Serif" font-size="10.00">ionoPseudoObs</text>
</a>
</g>
</g>
<!-- Node1&#45;&gt;Node85 -->
<g id="edge23_Node000001_Node000085" class="edge">
<title>Node1&#45;&gt;Node85</title>
<g id="a_edge23_Node000001_Node000085"><a xlink:title=" ">
<path fill="none" stroke="#63b8ff" d="M576.19,-739.88C566.33,-779.75 538.44,-871.48 481,-922.5 473.89,-928.82 465,-933.5 456.03,-936.96"/>
<polygon fill="#63b8ff" stroke="#63b8ff" points="579.61,-740.63 578.5,-730.09 572.79,-739.02 579.61,-740.63"/>
</a>
</g>
</g>
<!-- Node15 -->
<g id="Node000015" class="node">
<title>Node15</title>
<g id="a_Node000015"><a xlink:href="main_8cpp.html#ae9a767ba206649ca2e395dd210c2218b" target="_top" xlink:title="Perform operations for each station This function occurs in parallel with other stations &#45; ensure tha...">
<path fill="#fff0f0" stroke="red" d="M300.67,-692C300.67,-692 152.33,-692 152.33,-692 149.17,-692 146,-688.83 146,-685.67 146,-685.67 146,-679.33 146,-679.33 146,-676.17 149.17,-673 152.33,-673 152.33,-673 300.67,-673 300.67,-673 303.83,-673 307,-676.17 307,-679.33 307,-679.33 307,-685.67 307,-685.67 307,-688.83 303.83,-692 300.67,-692"/>
<text text-anchor="middle" x="226.5" y="-680" font-family="Helvetica,sans-Serif" font-size="10.00">mainOncePerEpochPerStation</text>
</a>
</g>
</g>
<!-- Node1&#45;&gt;Node15 -->
<g id="edge24_Node000001_Node000015" class="edge">
<title>Node1&#45;&gt;Node15</title>
<g id="a_edge24_Node000001_Node000015"><a xlink:title=" ">
<path fill="none" stroke="#63b8ff" d="M572.74,-739.64C559.27,-769.96 528.37,-827.99 481,-851.5 426.06,-878.76 392.61,-887.56 343,-851.5 301.05,-821 337.43,-782.5 307,-740.5 291.26,-718.78 264.93,-701.89 246.91,-692.07"/>
<polygon fill="#63b8ff" stroke="#63b8ff" points="576.08,-740.74 576.78,-730.17 569.64,-738 576.08,-740.74"/>
</a>
</g>
</g>
<!-- Node86 -->
<g id="Node000086" class="node">
<title>Node86</title>
<g id="a_Node000086"><a xlink:href="ionoMeas_8cpp.html#ab3f111d5e6d66de4751fbce467a29372" target="_top" xlink:title=" ">
<path fill="#fff0f0" stroke="red" d="M444.67,-842C444.67,-842 379.33,-842 379.33,-842 376.17,-842 373,-838.83 373,-835.67 373,-835.67 373,-829.33 373,-829.33 373,-826.17 376.17,-823 379.33,-823 379.33,-823 444.67,-823 444.67,-823 447.83,-823 451,-826.17 451,-829.33 451,-829.33 451,-835.67 451,-835.67 451,-838.83 447.83,-842 444.67,-842"/>
<text text-anchor="middle" x="412" y="-830" font-family="Helvetica,sans-Serif" font-size="10.00">obsIonoData</text>
</a>
</g>
</g>
<!-- Node1&#45;&gt;Node86 -->
<g id="edge26_Node000001_Node000086" class="edge">
<title>Node1&#45;&gt;Node86</title>
<g id="a_edge26_Node000001_Node000086"><a xlink:title=" ">
<path fill="none" stroke="#63b8ff" d="M566.74,-738.03C549.12,-759.28 516.59,-794.69 481,-814.5 471.93,-819.55 461.39,-823.23 451.35,-825.89"/>
<polygon fill="#63b8ff" stroke="#63b8ff" points="569.56,-740.1 573.14,-730.13 564.13,-735.69 569.56,-740.1"/>
</a>
</g>
</g>
<!-- Node87 -->
<g id="Node000087" class="node">
<title>Node87</title>
<g id="a_Node000087"><a xlink:href="preprocessor_8cpp.html#a5bf581abef6389557c3fdd95086a5c42" target="_top" xlink:title=" ">
<path fill="#fff0f0" stroke="red" d="M446.17,-805C446.17,-805 377.83,-805 377.83,-805 374.67,-805 371.5,-801.83 371.5,-798.67 371.5,-798.67 371.5,-792.33 371.5,-792.33 371.5,-789.17 374.67,-786 377.83,-786 377.83,-786 446.17,-786 446.17,-786 449.33,-786 452.5,-789.17 452.5,-792.33 452.5,-792.33 452.5,-798.67 452.5,-798.67 452.5,-801.83 449.33,-805 446.17,-805"/>
<text text-anchor="middle" x="412" y="-793" font-family="Helvetica,sans-Serif" font-size="10.00">obsVariances</text>
</a>
</g>
</g>
<!-- Node1&#45;&gt;Node87 -->
<g id="edge27_Node000001_Node000087" class="edge">
<title>Node1&#45;&gt;Node87</title>
<g id="a_edge27_Node000001_Node000087"><a xlink:title=" ">
<path fill="none" stroke="#63b8ff" d="M558.08,-735.62C538.46,-748.29 508.82,-766.08 481,-777.5 472.08,-781.16 462.18,-784.28 452.77,-786.84"/>
<polygon fill="#63b8ff" stroke="#63b8ff" points="560.16,-738.44 566.6,-730.03 556.32,-732.59 560.16,-738.44"/>
</a>
</g>
</g>
<!-- Node88 -->
<g id="Node000088" class="node">
<title>Node88</title>
<g id="a_Node000088"><a xlink:href="cost_8cpp.html#abc021ac32635abe4cf6daef44cabb888" target="_top" xlink:title="Outputs troposphere COST file.">
<path fill="#fff0f0" stroke="red" d="M440.67,-768C440.67,-768 383.33,-768 383.33,-768 380.17,-768 377,-764.83 377,-761.67 377,-761.67 377,-755.33 377,-755.33 377,-752.17 380.17,-749 383.33,-749 383.33,-749 440.67,-749 440.67,-749 443.83,-749 447,-752.17 447,-755.33 447,-755.33 447,-761.67 447,-761.67 447,-764.83 443.83,-768 440.67,-768"/>
<text text-anchor="middle" x="412" y="-756" font-family="Helvetica,sans-Serif" font-size="10.00">outputCost</text>
</a>
</g>
</g>
<!-- Node1&#45;&gt;Node88 -->
<g id="edge29_Node000001_Node000088" class="edge">
<title>Node1&#45;&gt;Node88</title>
<g id="a_edge29_Node000001_Node000088"><a xlink:title=" ">
<path fill="none" stroke="#63b8ff" d="M528.35,-732.33C501.87,-738.34 470.45,-745.47 447.09,-750.77"/>
<polygon fill="#63b8ff" stroke="#63b8ff" points="529.25,-735.71 538.23,-730.09 527.71,-728.89 529.25,-735.71"/>
</a>
</g>
</g>
<!-- Node16 -->
<g id="Node000016" class="node">
<title>Node16</title>
<g id="a_Node000016"><a xlink:href="structACSConfig.html#acbe400e2cc2760cbebd28dda6413c4ad" target="_top" xlink:title="Parse options to set acsConfig values.">
<path fill="#fff0f0" stroke="red" d="M270.17,-655C270.17,-655 182.83,-655 182.83,-655 179.67,-655 176.5,-651.83 176.5,-648.67 176.5,-648.67 176.5,-642.33 176.5,-642.33 176.5,-639.17 179.67,-636 182.83,-636 182.83,-636 270.17,-636 270.17,-636 273.33,-636 276.5,-639.17 276.5,-642.33 276.5,-642.33 276.5,-648.67 276.5,-648.67 276.5,-651.83 273.33,-655 270.17,-655"/>
<text text-anchor="middle" x="226.5" y="-643" font-family="Helvetica,sans-Serif" font-size="10.00">ACSConfig::parse</text>
</a>
</g>
</g>
<!-- Node1&#45;&gt;Node16 -->
<g id="edge30_Node000001_Node000016" class="edge">
<title>Node1&#45;&gt;Node16</title>
<g id="a_edge30_Node000001_Node000016"><a xlink:title=" ">
<path fill="none" stroke="#63b8ff" d="M506.75,-727.66C458.04,-729.32 394.02,-725.49 343,-701.5 322.24,-691.74 326.95,-675.84 307,-664.5 297.75,-659.24 287.09,-655.43 276.65,-652.68"/>
<polygon fill="#63b8ff" stroke="#63b8ff" points="507.06,-731.15 516.91,-727.22 506.77,-724.15 507.06,-731.15"/>
</a>
</g>
</g>
<!-- Node89 -->
<g id="Node000089" class="node">
<title>Node89</title>
<g id="a_Node000089"><a xlink:href="ppp__obs_8cpp.html#a9b2ff8aad927c7fc5fd2303a9d473f3e" target="_top" xlink:title=" ">
<path fill="#fff0f0" stroke="red" d="M454.67,-692C454.67,-692 369.33,-692 369.33,-692 366.17,-692 363,-688.83 363,-685.67 363,-685.67 363,-679.33 363,-679.33 363,-676.17 366.17,-673 369.33,-673 369.33,-673 454.67,-673 454.67,-673 457.83,-673 461,-676.17 461,-679.33 461,-679.33 461,-685.67 461,-685.67 461,-688.83 457.83,-692 454.67,-692"/>
<text text-anchor="middle" x="412" y="-680" font-family="Helvetica,sans-Serif" font-size="10.00">pppRecCodeBias</text>
</a>
</g>
</g>
<!-- Node1&#45;&gt;Node89 -->
<g id="edge32_Node000001_Node000089" class="edge">
<title>Node1&#45;&gt;Node89</title>
<g id="a_edge32_Node000001_Node000089"><a xlink:title=" ">
<path fill="none" stroke="#63b8ff" d="M528.38,-708.68C504.77,-703.32 477.22,-697.07 454.96,-692.02"/>
<polygon fill="#63b8ff" stroke="#63b8ff" points="527.71,-712.11 538.23,-710.91 529.25,-705.29 527.71,-712.11"/>
</a>
</g>
</g>
<!-- Node14 -->
<g id="Node000014" class="node">
<title>Node14</title>
<g id="a_Node000014"><a xlink:href="preprocessor_8cpp.html#a66089b6d3c4e1fd48ff14fd9d0a1f933" target="_top" xlink:title=" ">
<path fill="#fff0f0" stroke="red" d="M445.67,-655C445.67,-655 378.33,-655 378.33,-655 375.17,-655 372,-651.83 372,-648.67 372,-648.67 372,-642.33 372,-642.33 372,-639.17 375.17,-636 378.33,-636 378.33,-636 445.67,-636 445.67,-636 448.83,-636 452,-639.17 452,-642.33 452,-642.33 452,-648.67 452,-648.67 452,-651.83 448.83,-655 445.67,-655"/>
<text text-anchor="middle" x="412" y="-643" font-family="Helvetica,sans-Serif" font-size="10.00">preprocessor</text>
</a>
</g>
</g>
<!-- Node1&#45;&gt;Node14 -->
<g id="edge34_Node000001_Node000014" class="edge">
<title>Node1&#45;&gt;Node14</title>
<g id="a_edge34_Node000001_Node000014"><a xlink:title=" ">
<path fill="none" stroke="#63b8ff" d="M557.32,-705.34C537.65,-693 508.35,-675.82 481,-664.5 471.83,-660.7 461.65,-657.41 452.02,-654.67"/>
<polygon fill="#63b8ff" stroke="#63b8ff" points="555.58,-708.38 565.9,-710.79 559.34,-702.47 555.58,-708.38"/>
</a>
</g>
</g>
<!-- Node90 -->
<g id="Node000090" class="node">
<title>Node90</title>
<g id="a_Node000090"><a xlink:href="ppp__pseudoobs_8cpp.html#accfefc993178e71db6783bbe525342a7" target="_top" xlink:title=" ">
<path fill="#fff0f0" stroke="red" d="M450.17,-618C450.17,-618 373.83,-618 373.83,-618 370.67,-618 367.5,-614.83 367.5,-611.67 367.5,-611.67 367.5,-605.33 367.5,-605.33 367.5,-602.17 370.67,-599 373.83,-599 373.83,-599 450.17,-599 450.17,-599 453.33,-599 456.5,-602.17 456.5,-605.33 456.5,-605.33 456.5,-611.67 456.5,-611.67 456.5,-614.83 453.33,-618 450.17,-618"/>
<text text-anchor="middle" x="412" y="-606" font-family="Helvetica,sans-Serif" font-size="10.00">pseudoRecDcb</text>
</a>
</g>
</g>
<!-- Node1&#45;&gt;Node90 -->
<g id="edge38_Node000001_Node000090" class="edge">
<title>Node1&#45;&gt;Node90</title>
<g id="a_edge38_Node000001_Node000090"><a xlink:title=" ">
<path fill="none" stroke="#63b8ff" d="M566.38,-702.92C548.61,-681.95 516.15,-647.25 481,-627.5 473.52,-623.3 465.05,-619.97 456.68,-617.36"/>
<polygon fill="#63b8ff" stroke="#63b8ff" points="563.78,-705.27 572.85,-710.73 569.17,-700.8 563.78,-705.27"/>
</a>
</g>
</g>
<!-- Node91 -->
<g id="Node000091" class="node">
<title>Node91</title>
<g id="a_Node000091"><a xlink:href="ppp__ambres_8cpp.html#a020b06329797411a2dc7746aadd19361" target="_top" xlink:title=" ">
<path fill="#fff0f0" stroke="red" d="M445.67,-581C445.67,-581 378.33,-581 378.33,-581 375.17,-581 372,-577.83 372,-574.67 372,-574.67 372,-568.33 372,-568.33 372,-565.17 375.17,-562 378.33,-562 378.33,-562 445.67,-562 445.67,-562 448.83,-562 452,-565.17 452,-568.33 452,-568.33 452,-574.67 452,-574.67 452,-577.83 448.83,-581 445.67,-581"/>
<text text-anchor="middle" x="412" y="-569" font-family="Helvetica,sans-Serif" font-size="10.00">queryBiasUC</text>
</a>
</g>
</g>
<!-- Node1&#45;&gt;Node91 -->
<g id="edge39_Node000001_Node000091" class="edge">
<title>Node1&#45;&gt;Node91</title>
<g id="a_edge39_Node000001_Node000091"><a xlink:title=" ">
<path fill="none" stroke="#63b8ff" d="M571.25,-701.73C556.26,-673.31 523.97,-619.59 481,-590.5 472.47,-584.73 462.22,-580.7 452.29,-577.89"/>
<polygon fill="#63b8ff" stroke="#63b8ff" points="568.3,-703.66 575.97,-710.97 574.53,-700.47 568.3,-703.66"/>
</a>
</g>
</g>
<!-- Node95 -->
<g id="Node000095" class="node">
<title>Node95</title>
<g id="a_Node000095"><a xlink:href="ppp_8cpp.html#a075655f5235940732703f2e6ca41421a" target="_top" xlink:title="Remove ambiguity states from filter when they deemed old or bad This effectively reinitialises them o...">
<path fill="#fff0f0" stroke="red" d="M471.17,-391C471.17,-391 352.83,-391 352.83,-391 349.67,-391 346.5,-387.83 346.5,-384.67 346.5,-384.67 346.5,-378.33 346.5,-378.33 346.5,-375.17 349.67,-372 352.83,-372 352.83,-372 471.17,-372 471.17,-372 474.33,-372 477.5,-375.17 477.5,-378.33 477.5,-378.33 477.5,-384.67 477.5,-384.67 477.5,-387.83 474.33,-391 471.17,-391"/>
<text text-anchor="middle" x="412" y="-379" font-family="Helvetica,sans-Serif" font-size="10.00">removeBadAmbiguities</text>
</a>
</g>
</g>
<!-- Node1&#45;&gt;Node95 -->
<g id="edge44_Node000001_Node000095" class="edge">
<title>Node1&#45;&gt;Node95</title>
<g id="a_edge44_Node000001_Node000095"><a xlink:title=" ">
<path fill="none" stroke="#63b8ff" d="M580.07,-700.62C577.81,-645.89 564.01,-491.32 481,-405.5 474.91,-399.2 467.06,-394.55 458.88,-391.12"/>
<polygon fill="#63b8ff" stroke="#63b8ff" points="576.58,-700.85 580.4,-710.73 583.57,-700.62 576.58,-700.85"/>
</a>
</g>
</g>
<!-- Node96 -->
<g id="Node000096" class="node">
<title>Node96</title>
<g id="a_Node000096"><a xlink:href="ppp_8cpp.html#a3d11452be1ce2ea58117c7fd3ac9f981" target="_top" xlink:title="Remove ambiguity states from filter when they deemed old or bad This effectively reinitialises them o...">
<path fill="#fff0f0" stroke="red" d="M471.67,-354C471.67,-354 352.33,-354 352.33,-354 349.17,-354 346,-350.83 346,-347.67 346,-347.67 346,-341.33 346,-341.33 346,-338.17 349.17,-335 352.33,-335 352.33,-335 471.67,-335 471.67,-335 474.83,-335 478,-338.17 478,-341.33 478,-341.33 478,-347.67 478,-347.67 478,-350.83 474.83,-354 471.67,-354"/>
<text text-anchor="middle" x="412" y="-342" font-family="Helvetica,sans-Serif" font-size="10.00">removeBadIonospheres</text>
</a>
</g>
</g>
<!-- Node1&#45;&gt;Node96 -->
<g id="edge45_Node000001_Node000096" class="edge">
<title>Node1&#45;&gt;Node96</title>
<g id="a_edge45_Node000001_Node000096"><a xlink:title=" ">
<path fill="none" stroke="#63b8ff" d="M581.25,-700.53C582.35,-640.48 577.15,-459.71 481,-363.5 477.19,-359.69 472.68,-356.62 467.82,-354.16"/>
<polygon fill="#63b8ff" stroke="#63b8ff" points="577.74,-700.78 580.97,-710.88 584.74,-700.97 577.74,-700.78"/>
</a>
</g>
</g>
<!-- Node97 -->
<g id="Node000097" class="node">
<title>Node97</title>
<g id="a_Node000097"><a xlink:href="ppp_8cpp.html#ac02b107ae8826ef55bf8e6e156ef8b63" target="_top" xlink:title="Compare estimated station position with benchmark in SINEX file.">
<path fill="#fff0f0" stroke="red" d="M461.17,-317C461.17,-317 362.83,-317 362.83,-317 359.67,-317 356.5,-313.83 356.5,-310.67 356.5,-310.67 356.5,-304.33 356.5,-304.33 356.5,-301.17 359.67,-298 362.83,-298 362.83,-298 461.17,-298 461.17,-298 464.33,-298 467.5,-301.17 467.5,-304.33 467.5,-304.33 467.5,-310.67 467.5,-310.67 467.5,-313.83 464.33,-317 461.17,-317"/>
<text text-anchor="middle" x="412" y="-305" font-family="Helvetica,sans-Serif" font-size="10.00">selectAprioriSource</text>
</a>
</g>
</g>
<!-- Node1&#45;&gt;Node97 -->
<g id="edge46_Node000001_Node000097" class="edge">
<title>Node1&#45;&gt;Node97</title>
<g id="a_edge46_Node000001_Node000097"><a xlink:title=" ">
<path fill="none" stroke="#63b8ff" d="M578.16,-700.99C569.19,-629.28 534.77,-381.64 481,-326.5 477.15,-322.55 472.55,-319.4 467.59,-316.9"/>
<polygon fill="#63b8ff" stroke="#63b8ff" points="574.69,-701.43 579.38,-710.93 581.64,-700.58 574.69,-701.43"/>
</a>
</g>
</g>
<!-- Node98 -->
<g id="Node000098" class="node">
<title>Node98</title>
<g id="a_Node000098"><a xlink:href="tropSinex_8cpp.html#a97e226ce7219f7e1f35c2fde83f435af" target="_top" xlink:title="Set data for trop description block.">
<path fill="#fff0f0" stroke="red" d="M449.17,-280C449.17,-280 374.83,-280 374.83,-280 371.67,-280 368.5,-276.83 368.5,-273.67 368.5,-273.67 368.5,-267.33 368.5,-267.33 368.5,-264.17 371.67,-261 374.83,-261 374.83,-261 449.17,-261 449.17,-261 452.33,-261 455.5,-264.17 455.5,-267.33 455.5,-267.33 455.5,-273.67 455.5,-273.67 455.5,-276.83 452.33,-280 449.17,-280"/>
<text text-anchor="middle" x="412" y="-268" font-family="Helvetica,sans-Serif" font-size="10.00">setDescription</text>
</a>
</g>
</g>
<!-- Node1&#45;&gt;Node98 -->
<g id="edge48_Node000001_Node000098" class="edge">
<title>Node1&#45;&gt;Node98</title>
<g id="a_edge48_Node000001_Node000098"><a xlink:title=" ">
<path fill="none" stroke="#63b8ff" d="M578.61,-700.59C570.97,-623.95 539.81,-349.25 481,-288.5 474.2,-281.48 465.02,-277.09 455.59,-274.37"/>
<polygon fill="#63b8ff" stroke="#63b8ff" points="575.15,-701.16 579.61,-710.77 582.12,-700.48 575.15,-701.16"/>
</a>
</g>
</g>
<!-- Node100 -->
<g id="Node000100" class="node">
<title>Node100</title>
<g id="a_Node000100"><a xlink:href="tropSinex_8cpp.html#ad57f3048f1df0be47d338e2a87bea7ae" target="_top" xlink:title="Set troposphere solution data from filter.">
<path fill="#fff0f0" stroke="red" d="M463.67,-243C463.67,-243 360.33,-243 360.33,-243 357.17,-243 354,-239.83 354,-236.67 354,-236.67 354,-230.33 354,-230.33 354,-227.17 357.17,-224 360.33,-224 360.33,-224 463.67,-224 463.67,-224 466.83,-224 470,-227.17 470,-230.33 470,-230.33 470,-236.67 470,-236.67 470,-239.83 466.83,-243 463.67,-243"/>
<text text-anchor="middle" x="412" y="-231" font-family="Helvetica,sans-Serif" font-size="10.00">setTropSolFromFilter</text>
</a>
</g>
</g>
<!-- Node1&#45;&gt;Node100 -->
<g id="edge49_Node000001_Node000100" class="edge">
<title>Node1&#45;&gt;Node100</title>
<g id="a_edge49_Node000001_Node000100"><a xlink:title=" ">
<path fill="none" stroke="#63b8ff" d="M579,-700.47C572.52,-619.59 544.44,-318.17 481,-251.5 477.8,-248.14 474.05,-245.38 469.99,-243.11"/>
<polygon fill="#63b8ff" stroke="#63b8ff" points="575.53,-701.05 579.8,-710.75 582.51,-700.51 575.53,-701.05"/>
</a>
</g>
</g>
<!-- Node102 -->
<g id="Node000102" class="node">
<title>Node102</title>
<g id="a_Node000102"><a xlink:href="pea__snx_8cpp.html#a998d8ea068788de9c3ca4f572a114e44" target="_top" xlink:title=" ">
<path fill="#fff0f0" stroke="red" d="M474.67,-206C474.67,-206 349.33,-206 349.33,-206 346.17,-206 343,-202.83 343,-199.67 343,-199.67 343,-193.33 343,-193.33 343,-190.17 346.17,-187 349.33,-187 349.33,-187 474.67,-187 474.67,-187 477.83,-187 481,-190.17 481,-193.33 481,-193.33 481,-199.67 481,-199.67 481,-202.83 477.83,-206 474.67,-206"/>
<text text-anchor="middle" x="412" y="-194" font-family="Helvetica,sans-Serif" font-size="10.00">sinexPerEpochPerStation</text>
</a>
</g>
</g>
<!-- Node1&#45;&gt;Node102 -->
<g id="edge50_Node000001_Node000102" class="edge">
<title>Node1&#45;&gt;Node102</title>
<g id="a_edge50_Node000001_Node000102"><a xlink:title=" ">
<path fill="none" stroke="#63b8ff" d="M579.35,-700.8C574.05,-616.52 549.2,-287.25 481,-214.5 477.83,-211.11 474.1,-208.34 470.05,-206.06"/>
<polygon fill="#63b8ff" stroke="#63b8ff" points="575.86,-701.05 579.96,-710.82 582.85,-700.63 575.86,-701.05"/>
</a>
</g>
</g>
<!-- Node103 -->
<g id="Node000103" class="node">
<title>Node103</title>
<g id="a_Node000103"><a xlink:href="ppp__pseudoobs_8cpp.html#a0df461e27bceaa75ec50285c2abf8f27" target="_top" xlink:title=" ">
<path fill="#fff0f0" stroke="red" d="M450.67,-130C450.67,-130 373.33,-130 373.33,-130 370.17,-130 367,-126.83 367,-123.67 367,-123.67 367,-117.33 367,-117.33 367,-114.17 370.17,-111 373.33,-111 373.33,-111 450.67,-111 450.67,-111 453.83,-111 457,-114.17 457,-117.33 457,-117.33 457,-123.67 457,-123.67 457,-126.83 453.83,-130 450.67,-130"/>
<text text-anchor="middle" x="412" y="-118" font-family="Helvetica,sans-Serif" font-size="10.00">tropPseudoObs</text>
</a>
</g>
</g>
<!-- Node1&#45;&gt;Node103 -->
<g id="edge53_Node000001_Node000103" class="edge">
<title>Node1&#45;&gt;Node103</title>
<g id="a_edge53_Node000001_Node000103"><a xlink:title=" ">
<path fill="none" stroke="#63b8ff" d="M579.71,-700.9C575.68,-610.17 554.62,-231.68 481,-144.5 474.78,-137.13 466.15,-132.03 457.12,-128.49"/>
<polygon fill="#63b8ff" stroke="#63b8ff" points="576.21,-701.08 580.14,-710.92 583.21,-700.78 576.21,-701.08"/>
</a>
</g>
</g>
<!-- Node104 -->
<g id="Node000104" class="node">
<title>Node104</title>
<g id="a_Node000104"><a xlink:href="ppppp_8cpp.html#a45f0cda97e5e3cff2eeb13b2cea9562f" target="_top" xlink:title="Prepare stec values clocks to minimise residuals to klobuchar model.">
<path fill="#fff0f0" stroke="red" d="M466.67,-93C466.67,-93 357.33,-93 357.33,-93 354.17,-93 351,-89.83 351,-86.67 351,-86.67 351,-80.33 351,-80.33 351,-77.17 354.17,-74 357.33,-74 357.33,-74 466.67,-74 466.67,-74 469.83,-74 473,-77.17 473,-80.33 473,-80.33 473,-86.67 473,-86.67 473,-89.83 469.83,-93 466.67,-93"/>
<text text-anchor="middle" x="412" y="-81" font-family="Helvetica,sans-Serif" font-size="10.00">updateAvgIonosphere</text>
</a>
</g>
</g>
<!-- Node1&#45;&gt;Node104 -->
<g id="edge54_Node000001_Node000104" class="edge">
<title>Node1&#45;&gt;Node104</title>
<g id="a_edge54_Node000001_Node000104"><a xlink:title=" ">
<path fill="none" stroke="#63b8ff" d="M580.12,-700.52C577.87,-604.64 563.48,-192.61 481,-101.5 477.97,-98.15 474.39,-95.39 470.49,-93.13"/>
<polygon fill="#63b8ff" stroke="#63b8ff" points="576.62,-700.68 580.33,-710.6 583.62,-700.53 576.62,-700.68"/>
</a>
</g>
</g>
<!-- Node105 -->
<g id="Node000105" class="node">
<title>Node105</title>
<g id="a_Node000105"><a xlink:href="ppppp_8cpp.html#a1a8f284c03d52ec377672f704c6f3504" target="_top" xlink:title="Prepare receiver clocks using spp values to minimise pre&#45;fit residuals.">
<path fill="#fff0f0" stroke="red" d="M456.17,-56C456.17,-56 367.83,-56 367.83,-56 364.67,-56 361.5,-52.83 361.5,-49.67 361.5,-49.67 361.5,-43.33 361.5,-43.33 361.5,-40.17 364.67,-37 367.83,-37 367.83,-37 456.17,-37 456.17,-37 459.33,-37 462.5,-40.17 462.5,-43.33 462.5,-43.33 462.5,-49.67 462.5,-49.67 462.5,-52.83 459.33,-56 456.17,-56"/>
<text text-anchor="middle" x="412" y="-44" font-family="Helvetica,sans-Serif" font-size="10.00">updateRecClocks</text>
</a>
</g>
</g>
<!-- Node1&#45;&gt;Node105 -->
<g id="edge55_Node000001_Node000105" class="edge">
<title>Node1&#45;&gt;Node105</title>
<g id="a_edge55_Node000001_Node000105"><a xlink:title=" ">
<path fill="none" stroke="#63b8ff" d="M580.32,-700.91C579.02,-602.39 568.32,-161.82 481,-64.5 476.03,-58.96 469.56,-55.03 462.6,-52.27"/>
<polygon fill="#63b8ff" stroke="#63b8ff" points="576.82,-701.01 580.44,-710.97 583.82,-700.93 576.82,-701.01"/>
</a>
</g>
</g>
<!-- Node106 -->
<g id="Node000106" class="node">
<title>Node106</title>
<g id="a_Node000106"><a xlink:href="ionexWrite_8cpp.html#a210edc109068291059974a8a9622aa1a" target="_top" xlink:title=" ">
<path fill="#fff0f0" stroke="red" d="M452.67,-19C452.67,-19 371.33,-19 371.33,-19 368.17,-19 365,-15.83 365,-12.67 365,-12.67 365,-6.33 365,-6.33 365,-3.17 368.17,0 371.33,0 371.33,0 452.67,0 452.67,0 455.83,0 459,-3.17 459,-6.33 459,-6.33 459,-12.67 459,-12.67 459,-15.83 455.83,-19 452.67,-19"/>
<text text-anchor="middle" x="412" y="-7" font-family="Helvetica,sans-Serif" font-size="10.00">writeIonexHead</text>
</a>
</g>
</g>
<!-- Node1&#45;&gt;Node106 -->
<g id="edge56_Node000001_Node000106" class="edge">
<title>Node1&#45;&gt;Node106</title>
<g id="a_edge56_Node000001_Node000106"><a xlink:title=" ">
<path fill="none" stroke="#63b8ff" d="M580.49,-700.79C580.06,-598.7 573.01,-130.88 481,-27.5 475.24,-21.02 467.44,-16.75 459.18,-13.97"/>
<polygon fill="#63b8ff" stroke="#63b8ff" points="576.99,-700.93 580.52,-710.92 583.99,-700.91 576.99,-700.93"/>
</a>
</g>
</g>
<!-- Node10&#45;&gt;Node4 -->
<g id="edge5_Node000010_Node000004" class="edge">
<title>Node10&#45;&gt;Node4</title>
<g id="a_edge5_Node000010_Node000004"><a xlink:title=" ">
<path fill="none" stroke="#63b8ff" d="M178.04,-1288.9C166.05,-1283.39 154.26,-1275.82 146,-1265.5 93.16,-1199.47 62.51,-917.52 56.93,-862.01"/>
<polygon fill="#63b8ff" stroke="#63b8ff" points="177.05,-1292.28 187.63,-1292.88 179.74,-1285.81 177.05,-1292.28"/>
</a>
</g>
</g>
<!-- Node11&#45;&gt;Node12 -->
<g id="edge7_Node000011_Node000012" class="edge">
<title>Node11&#45;&gt;Node12</title>
<g id="a_edge7_Node000011_Node000012"><a xlink:title=" ">
<path fill="none" stroke="#63b8ff" d="M369.53,-1275.14C336.09,-1268.4 289.78,-1259.06 259.25,-1252.9"/>
<polygon fill="#63b8ff" stroke="#63b8ff" points="368.96,-1278.59 379.46,-1277.14 370.34,-1271.73 368.96,-1278.59"/>
</a>
</g>
</g>
<!-- Node18&#45;&gt;Node12 -->
<g id="edge9_Node000018_Node000012" class="edge">
<title>Node18&#45;&gt;Node12</title>
<g id="a_edge9_Node000018_Node000012"><a xlink:title=" ">
<path fill="none" stroke="#63b8ff" d="M369.09,-1246.5C335.69,-1246.5 289.65,-1246.5 259.25,-1246.5"/>
<polygon fill="#63b8ff" stroke="#63b8ff" points="369.46,-1250 379.46,-1246.5 369.46,-1243 369.46,-1250"/>
</a>
</g>
</g>
<!-- Node20&#45;&gt;Node21 -->
<g id="edge12_Node000020_Node000021" class="edge">
<title>Node20&#45;&gt;Node21</title>
<g id="a_edge12_Node000020_Node000021"><a xlink:title=" ">
<path fill="none" stroke="#63b8ff" d="M378.13,-1159.07C341.54,-1144.11 283.32,-1120.31 251.02,-1107.11"/>
<polygon fill="#63b8ff" stroke="#63b8ff" points="376.81,-1162.3 387.39,-1162.85 379.45,-1155.83 376.81,-1162.3"/>
</a>
</g>
</g>
<!-- Node29&#45;&gt;Node55 -->
<g id="edge17_Node000029_Node000055" class="edge">
<title>Node29&#45;&gt;Node55</title>
<g id="a_edge17_Node000029_Node000055"><a xlink:title=" ">
<path fill="none" stroke="#63b8ff" d="M391.7,-1006.51C353.56,-974.92 269.61,-905.38 238.97,-880"/>
<polygon fill="#63b8ff" stroke="#63b8ff" points="389.59,-1009.31 399.52,-1012.99 394.05,-1003.92 389.59,-1009.31"/>
</a>
</g>
</g>
<!-- Node29&#45;&gt;Node39 -->
<g id="edge19_Node000029_Node000039" class="edge">
<title>Node29&#45;&gt;Node39</title>
<g id="a_edge19_Node000029_Node000039"><a xlink:title=" ">
<path fill="none" stroke="#63b8ff" d="M386.46,-1007.15C371.96,-996.94 354.3,-982.35 343,-965.5 313.64,-921.73 337.99,-895.13 307,-852.5 291.52,-831.21 265.64,-814.8 247.63,-805.17"/>
<polygon fill="#63b8ff" stroke="#63b8ff" points="384.74,-1010.21 394.99,-1012.91 388.66,-1004.41 384.74,-1010.21"/>
</a>
</g>
</g>
<!-- Node29&#45;&gt;Node41 -->
<g id="edge20_Node000029_Node000041" class="edge">
<title>Node29&#45;&gt;Node41</title>
<g id="a_edge20_Node000029_Node000041"><a xlink:title=" ">
<path fill="none" stroke="#63b8ff" d="M385.17,-1007.22C370.53,-997.2 353.15,-982.77 343,-965.5 299.91,-892.15 365.78,-839.01 307,-777.5 295.24,-765.19 277.03,-760.24 261.01,-758.47"/>
<polygon fill="#63b8ff" stroke="#63b8ff" points="383.56,-1010.35 393.85,-1012.88 387.39,-1004.48 383.56,-1010.35"/>
</a>
</g>
</g>
<!-- Node29&#45;&gt;Node80 -->
<g id="edge21_Node000029_Node000080" class="edge">
<title>Node29&#45;&gt;Node80</title>
<g id="a_edge21_Node000029_Node000080"><a xlink:title=" ">
<path fill="none" stroke="#63b8ff" d="M384.36,-1007.33C369.59,-997.42 352.36,-983.06 343,-965.5 271.95,-832.18 374.11,-762.85 307,-627.5 292.59,-598.43 261.96,-574.73 243.21,-562.2"/>
<polygon fill="#63b8ff" stroke="#63b8ff" points="382.83,-1010.5 393.15,-1012.91 386.59,-1004.59 382.83,-1010.5"/>
</a>
</g>
</g>
<!-- Node55&#45;&gt;Node58 -->
<g id="edge18_Node000055_Node000058" class="edge">
<title>Node55&#45;&gt;Node58</title>
<g id="a_edge18_Node000055_Node000058"><a xlink:title=" ">
<path fill="none" stroke="#63b8ff" d="M200.75,-855.64C184.35,-845.19 162.83,-830.29 146,-814.5 110.17,-780.87 76.19,-732.67 62.43,-712.25"/>
<polygon fill="#63b8ff" stroke="#63b8ff" points="198.95,-858.63 209.28,-860.96 202.65,-852.7 198.95,-858.63"/>
</a>
</g>
</g>
<!-- Node87&#45;&gt;Node15 -->
<g id="edge28_Node000087_Node000015" class="edge">
<title>Node87&#45;&gt;Node15</title>
<g id="a_edge28_Node000087_Node000015"><a xlink:title=" ">
<path fill="none" stroke="#63b8ff" d="M361.83,-785.92C355.27,-783.66 348.81,-780.9 343,-777.5 323.19,-765.92 324.33,-755.54 307,-740.5 285.58,-721.91 258.51,-703.04 242.13,-692.07"/>
<polygon fill="#63b8ff" stroke="#63b8ff" points="360.86,-789.28 371.44,-788.86 362.91,-782.59 360.86,-789.28"/>
</a>
</g>
</g>
<!-- Node16&#45;&gt;Node4 -->
<g id="edge31_Node000016_Node000004" class="edge">
<title>Node16&#45;&gt;Node4</title>
<g id="a_edge31_Node000016_Node000004"><a xlink:title=" ">
<path fill="none" stroke="#63b8ff" d="M166.1,-653.38C158.85,-656.11 151.92,-659.72 146,-664.5 130.55,-676.98 75.43,-806.27 60.02,-842.89"/>
<polygon fill="#63b8ff" stroke="#63b8ff" points="167.66,-656.56 176.13,-650.2 165.54,-649.89 167.66,-656.56"/>
</a>
</g>
</g>
<!-- Node89&#45;&gt;Node39 -->
<g id="edge33_Node000089_Node000039" class="edge">
<title>Node89&#45;&gt;Node39</title>
<g id="a_edge33_Node000089_Node000039"><a xlink:title=" ">
<path fill="none" stroke="#63b8ff" d="M391.27,-698.5C377.47,-709.9 358.76,-725.74 343,-740.5 326.25,-756.18 327.01,-766.28 307,-777.5 293.79,-784.9 277.74,-789.26 263.52,-791.83"/>
<polygon fill="#63b8ff" stroke="#63b8ff" points="393.65,-701.08 399.16,-692.03 389.21,-695.67 393.65,-701.08"/>
</a>
</g>
</g>
<!-- Node14&#45;&gt;Node4 -->
<g id="edge35_Node000014_Node000004" class="edge">
<title>Node14&#45;&gt;Node4</title>
<g id="a_edge35_Node000014_Node000004"><a xlink:title=" ">
<path fill="none" stroke="#63b8ff" d="M362.06,-655.78C355.42,-658.14 348.88,-661.01 343,-664.5 323.27,-676.21 326.93,-690.13 307,-701.5 243.05,-737.98 208.15,-701.03 146,-740.5 103.67,-767.38 72.33,-821.09 60.82,-842.93"/>
<polygon fill="#63b8ff" stroke="#63b8ff" points="363.33,-659.05 371.79,-652.69 361.2,-652.38 363.33,-659.05"/>
</a>
</g>
</g>
<!-- Node14&#45;&gt;Node15 -->
<g id="edge36_Node000014_Node000015" class="edge">
<title>Node14&#45;&gt;Node15</title>
<g id="a_edge36_Node000014_Node000015"><a xlink:title=" ">
<path fill="none" stroke="#63b8ff" d="M361.65,-655.45C334.73,-660.88 301.56,-667.57 274.94,-672.93"/>
<polygon fill="#63b8ff" stroke="#63b8ff" points="362.52,-658.85 371.63,-653.44 361.14,-651.98 362.52,-658.85"/>
</a>
</g>
</g>
<!-- Node14&#45;&gt;Node16 -->
<g id="edge37_Node000014_Node000016" class="edge">
<title>Node14&#45;&gt;Node16</title>
<g id="a_edge37_Node000014_Node000016"><a xlink:title=" ">
<path fill="none" stroke="#63b8ff" d="M361.49,-645.5C335.16,-645.5 302.89,-645.5 276.62,-645.5"/>
<polygon fill="#63b8ff" stroke="#63b8ff" points="361.63,-649 371.63,-645.5 361.63,-642 361.63,-649"/>
</a>
</g>
</g>
<!-- Node97&#45;&gt;Node15 -->
<g id="edge47_Node000097_Node000015" class="edge">
<title>Node97&#45;&gt;Node15</title>
<g id="a_edge47_Node000097_Node000015"><a xlink:title=" ">
<path fill="none" stroke="#63b8ff" d="M347.96,-321.61C346.18,-323.09 344.51,-324.71 343,-326.5 245.42,-441.83 407.42,-551.64 307,-664.5 304.08,-667.78 300.71,-670.53 297.03,-672.82"/>
<polygon fill="#63b8ff" stroke="#63b8ff" points="350.04,-324.43 356.48,-316.02 346.19,-318.58 350.04,-324.43"/>
</a>
</g>
</g>
<!-- Node102&#45;&gt;Node15 -->
<g id="edge51_Node000102_Node000015" class="edge">
<title>Node102&#45;&gt;Node15</title>
<g id="a_edge51_Node000102_Node000015"><a xlink:title=" ">
<path fill="none" stroke="#63b8ff" d="M344.93,-212.37C344.26,-213.05 343.62,-213.76 343,-214.5 278.69,-291.49 372.69,-588.68 307,-664.5 304.13,-667.82 300.78,-670.59 297.13,-672.91"/>
<polygon fill="#63b8ff" stroke="#63b8ff" points="347.23,-215.01 352.9,-206.06 342.89,-209.52 347.23,-215.01"/>
</a>
</g>
</g>
</g>
</svg>
