<?xml version="1.0" encoding="UTF-8" standalone="no"?>
<!DOCTYPE svg PUBLIC "-//W3C//DTD SVG 1.1//EN"
 "http://www.w3.org/Graphics/SVG/1.1/DTD/svg11.dtd">
<!-- Generated by graphviz version 2.43.0 (0)
 -->
<!-- Title: KFState::outputStates Pages: 1 -->
<svg width="653pt" height="591pt"
 viewBox="0.00 0.00 653.00 591.00" xmlns="http://www.w3.org/2000/svg" xmlns:xlink="http://www.w3.org/1999/xlink">
<g id="graph0" class="graph" transform="scale(1 1) rotate(0) translate(4 587)">
<title>KFState::outputStates</title>
<!-- Node1 -->
<g id="Node000001" class="node">
<title>Node1</title>
<g id="a_Node000001"><a xlink:href="structKFState.html#a0c84e911a5ea760fe728baec661e33f0" target="_top" xlink:title="Output keys and states in human readable format.">
<path fill="#fff0f0" stroke="red" stroke-width="2" d="M638.67,-302C638.67,-302 529.33,-302 529.33,-302 526.17,-302 523,-298.83 523,-295.67 523,-295.67 523,-289.33 523,-289.33 523,-286.17 526.17,-283 529.33,-283 529.33,-283 638.67,-283 638.67,-283 641.83,-283 645,-286.17 645,-289.33 645,-289.33 645,-295.67 645,-295.67 645,-298.83 641.83,-302 638.67,-302"/>
<text text-anchor="middle" x="584" y="-290" font-family="Helvetica,sans-Serif" font-size="10.00">KFState::outputStates</text>
</a>
</g>
</g>
<!-- Node2 -->
<g id="Node000002" class="node">
<title>Node2</title>
<g id="a_Node000002"><a xlink:href="debug_8cpp.html#ae4e8d5c9ae89428a527a780093a3d872" target="_top" xlink:title=" ">
<path fill="#fff0f0" stroke="red" d="M426.67,-583C426.67,-583 397.33,-583 397.33,-583 394.17,-583 391,-579.83 391,-576.67 391,-576.67 391,-570.33 391,-570.33 391,-567.17 394.17,-564 397.33,-564 397.33,-564 426.67,-564 426.67,-564 429.83,-564 433,-567.17 433,-570.33 433,-570.33 433,-576.67 433,-576.67 433,-579.83 429.83,-583 426.67,-583"/>
<text text-anchor="middle" x="412" y="-571" font-family="Helvetica,sans-Serif" font-size="10.00">accel</text>
</a>
</g>
</g>
<!-- Node1&#45;&gt;Node2 -->
<g id="edge1_Node000001_Node000002" class="edge">
<title>Node1&#45;&gt;Node2</title>
<g id="a_edge1_Node000001_Node000002"><a xlink:title=" ">
<path fill="none" stroke="#63b8ff" d="M581.88,-312.37C578.01,-361.47 560.96,-489.35 487,-555.5 472.32,-568.63 449.66,-572.58 433.28,-573.58"/>
<polygon fill="#63b8ff" stroke="#63b8ff" points="585.39,-312.36 582.58,-302.15 578.41,-311.89 585.39,-312.36"/>
</a>
</g>
</g>
<!-- Node3 -->
<g id="Node000003" class="node">
<title>Node3</title>
<g id="a_Node000003"><a xlink:href="ppp__ambres_8cpp.html#ad41d635b049a650ddbe2f7e13d29e85b" target="_top" xlink:title=" ">
<path fill="#fff0f0" stroke="red" d="M480.67,-546C480.67,-546 343.33,-546 343.33,-546 340.17,-546 337,-542.83 337,-539.67 337,-539.67 337,-533.33 337,-533.33 337,-530.17 340.17,-527 343.33,-527 343.33,-527 480.67,-527 480.67,-527 483.83,-527 487,-530.17 487,-533.33 487,-533.33 487,-539.67 487,-539.67 487,-542.83 483.83,-546 480.67,-546"/>
<text text-anchor="middle" x="412" y="-534" font-family="Helvetica,sans-Serif" font-size="10.00">applyBestIntegerAmbiguity</text>
</a>
</g>
</g>
<!-- Node1&#45;&gt;Node3 -->
<g id="edge2_Node000001_Node000003" class="edge">
<title>Node1&#45;&gt;Node3</title>
<g id="a_edge2_Node000001_Node000003"><a xlink:title=" ">
<path fill="none" stroke="#63b8ff" d="M580.52,-312.54C573.95,-356.82 551.87,-463.43 487,-518.5 482.97,-521.92 478.39,-524.72 473.53,-526.99"/>
<polygon fill="#63b8ff" stroke="#63b8ff" points="584.01,-312.85 581.9,-302.47 577.08,-311.9 584.01,-312.85"/>
</a>
</g>
</g>
<!-- Node11 -->
<g id="Node000011" class="node">
<title>Node11</title>
<g id="a_Node000011"><a xlink:href="ppp__ambres_8cpp.html#a604fb46557eb8261b38abf76fb147433" target="_top" xlink:title=" ">
<path fill="#fff0f0" stroke="red" d="M463.67,-509C463.67,-509 360.33,-509 360.33,-509 357.17,-509 354,-505.83 354,-502.67 354,-502.67 354,-496.33 354,-496.33 354,-493.17 357.17,-490 360.33,-490 360.33,-490 463.67,-490 463.67,-490 466.83,-490 470,-493.17 470,-496.33 470,-496.33 470,-502.67 470,-502.67 470,-505.83 466.83,-509 463.67,-509"/>
<text text-anchor="middle" x="412" y="-497" font-family="Helvetica,sans-Serif" font-size="10.00">applyUCAmbiguities</text>
</a>
</g>
</g>
<!-- Node1&#45;&gt;Node11 -->
<g id="edge3_Node000001_Node000011" class="edge">
<title>Node1&#45;&gt;Node11</title>
<g id="a_edge3_Node000001_Node000011"><a xlink:title=" ">
<path fill="none" stroke="#63b8ff" d="M578.8,-312.13C569.45,-350.81 543.2,-437 487,-481.5 482.02,-485.44 476.31,-488.53 470.32,-490.96"/>
<polygon fill="#63b8ff" stroke="#63b8ff" points="582.26,-312.67 581.08,-302.14 575.44,-311.11 582.26,-312.67"/>
</a>
</g>
</g>
<!-- Node12 -->
<g id="Node000012" class="node">
<title>Node12</title>
<g id="a_Node000012"><a xlink:href="ionoModel_8cpp.html#ae7821a74f98f349d4508712aeced88e1" target="_top" xlink:title="Updating the ionosphere model parameters The ionosphere model should be initialized by calling &#39;confi...">
<path fill="#fff0f0" stroke="red" d="M452.17,-472C452.17,-472 371.83,-472 371.83,-472 368.67,-472 365.5,-468.83 365.5,-465.67 365.5,-465.67 365.5,-459.33 365.5,-459.33 365.5,-456.17 368.67,-453 371.83,-453 371.83,-453 452.17,-453 452.17,-453 455.33,-453 458.5,-456.17 458.5,-459.33 458.5,-459.33 458.5,-465.67 458.5,-465.67 458.5,-468.83 455.33,-472 452.17,-472"/>
<text text-anchor="middle" x="412" y="-460" font-family="Helvetica,sans-Serif" font-size="10.00">filterIonosphere</text>
</a>
</g>
</g>
<!-- Node1&#45;&gt;Node12 -->
<g id="edge4_Node000001_Node000012" class="edge">
<title>Node1&#45;&gt;Node12</title>
<g id="a_edge4_Node000001_Node000012"><a xlink:title=" ">
<path fill="none" stroke="#63b8ff" d="M576.32,-311.85C564.02,-344.49 534.59,-410.3 487,-444.5 478.73,-450.44 468.74,-454.44 458.82,-457.12"/>
<polygon fill="#63b8ff" stroke="#63b8ff" points="579.72,-312.73 579.84,-302.14 573.14,-310.35 579.72,-312.73"/>
</a>
</g>
</g>
<!-- Node7 -->
<g id="Node000007" class="node">
<title>Node7</title>
<g id="a_Node000007"><a xlink:href="outputs_8cpp.html#ab72aaa4a378c8714b6de17cc45e9314c" target="_top" xlink:title=" ">
<path fill="#fff0f0" stroke="red" d="M291,-246.5C291,-246.5 157,-246.5 157,-246.5 152,-246.5 147,-241.5 147,-236.5 147,-236.5 147,-226.5 147,-226.5 147,-221.5 152,-216.5 157,-216.5 157,-216.5 291,-216.5 291,-216.5 296,-216.5 301,-221.5 301,-226.5 301,-226.5 301,-236.5 301,-236.5 301,-241.5 296,-246.5 291,-246.5"/>
<text text-anchor="start" x="155" y="-234.5" font-family="Helvetica,sans-Serif" font-size="10.00">perEpochPostProcessingAnd</text>
<text text-anchor="middle" x="224" y="-223.5" font-family="Helvetica,sans-Serif" font-size="10.00">Outputs</text>
</a>
</g>
</g>
<!-- Node1&#45;&gt;Node7 -->
<g id="edge18_Node000001_Node000007" class="edge">
<title>Node1&#45;&gt;Node7</title>
<g id="a_edge18_Node000001_Node000007"><a xlink:title=" ">
<path fill="none" stroke="#63b8ff" d="M557.47,-278.08C538.62,-268.18 512.01,-255.75 487,-249.5 425.74,-234.19 354.08,-230.18 301.2,-229.72"/>
<polygon fill="#63b8ff" stroke="#63b8ff" points="555.85,-281.18 566.31,-282.83 559.17,-275.01 555.85,-281.18"/>
</a>
</g>
</g>
<!-- Node8 -->
<g id="Node000008" class="node">
<title>Node8</title>
<g id="a_Node000008"><a xlink:href="main_8cpp.html#a479f892b35943104163405de9a93be14" target="_top" xlink:title=" ">
<path fill="#fff0f0" stroke="red" d="M104.67,-241C104.67,-241 6.33,-241 6.33,-241 3.17,-241 0,-237.83 0,-234.67 0,-234.67 0,-228.33 0,-228.33 0,-225.17 3.17,-222 6.33,-222 6.33,-222 104.67,-222 104.67,-222 107.83,-222 111,-225.17 111,-228.33 111,-228.33 111,-234.67 111,-234.67 111,-237.83 107.83,-241 104.67,-241"/>
<text text-anchor="middle" x="55.5" y="-229" font-family="Helvetica,sans-Serif" font-size="10.00">mainOncePerEpoch</text>
</a>
</g>
</g>
<!-- Node1&#45;&gt;Node8 -->
<g id="edge8_Node000001_Node000008" class="edge">
<title>Node1&#45;&gt;Node8</title>
<g id="a_edge8_Node000001_Node000008"><a xlink:title=" ">
<path fill="none" stroke="#63b8ff" d="M563.71,-308.8C545.3,-323.32 516.12,-343.74 487,-353.5 343.58,-401.55 280.21,-440.15 147,-368.5 94.78,-340.41 67.67,-267.53 59.34,-241.18"/>
<polygon fill="#63b8ff" stroke="#63b8ff" points="566.27,-311.23 571.84,-302.22 561.86,-305.79 566.27,-311.23"/>
</a>
</g>
</g>
<!-- Node13 -->
<g id="Node000013" class="node">
<title>Node13</title>
<g id="a_Node000013"><a xlink:href="debug_8cpp.html#a6b386ae3f1e24bab3a4c831fa043a400" target="_top" xlink:title=" ">
<path fill="#fff0f0" stroke="red" d="M440.67,-435C440.67,-435 383.33,-435 383.33,-435 380.17,-435 377,-431.83 377,-428.67 377,-428.67 377,-422.33 377,-422.33 377,-419.17 380.17,-416 383.33,-416 383.33,-416 440.67,-416 440.67,-416 443.83,-416 447,-419.17 447,-422.33 447,-422.33 447,-428.67 447,-428.67 447,-431.83 443.83,-435 440.67,-435"/>
<text text-anchor="middle" x="412" y="-423" font-family="Helvetica,sans-Serif" font-size="10.00">infiniteTest</text>
</a>
</g>
</g>
<!-- Node1&#45;&gt;Node13 -->
<g id="edge7_Node000001_Node000013" class="edge">
<title>Node1&#45;&gt;Node13</title>
<g id="a_edge7_Node000001_Node000013"><a xlink:title=" ">
<path fill="none" stroke="#63b8ff" d="M571.51,-310.77C555.44,-334.91 524.03,-377.18 487,-401.5 475.03,-409.36 460.29,-414.83 447.12,-418.53"/>
<polygon fill="#63b8ff" stroke="#63b8ff" points="574.57,-312.5 577.08,-302.21 568.7,-308.69 574.57,-312.5"/>
</a>
</g>
</g>
<!-- Node5 -->
<g id="Node000005" class="node">
<title>Node5</title>
<g id="a_Node000005"><a xlink:href="main_8cpp.html#a2b0d1066eac1a878cf982adcdd550ce1" target="_top" xlink:title="Perform any post&#45;final epoch calculations and outputs, then begin reverse smoothing and tidy up.">
<path fill="#fff0f0" stroke="red" d="M275.17,-359C275.17,-359 172.83,-359 172.83,-359 169.67,-359 166.5,-355.83 166.5,-352.67 166.5,-352.67 166.5,-346.33 166.5,-346.33 166.5,-343.17 169.67,-340 172.83,-340 172.83,-340 275.17,-340 275.17,-340 278.33,-340 281.5,-343.17 281.5,-346.33 281.5,-346.33 281.5,-352.67 281.5,-352.67 281.5,-355.83 278.33,-359 275.17,-359"/>
<text text-anchor="middle" x="224" y="-347" font-family="Helvetica,sans-Serif" font-size="10.00">mainPostProcessing</text>
</a>
</g>
</g>
<!-- Node1&#45;&gt;Node5 -->
<g id="edge9_Node000001_Node000005" class="edge">
<title>Node1&#45;&gt;Node5</title>
<g id="a_edge9_Node000001_Node000005"><a xlink:title=" ">
<path fill="none" stroke="#63b8ff" d="M554.56,-306.42C535.83,-314.91 510.51,-325.13 487,-330.5 417.53,-346.37 335.26,-349.95 281.69,-350.32"/>
<polygon fill="#63b8ff" stroke="#63b8ff" points="556.11,-309.55 563.7,-302.17 553.16,-303.2 556.11,-309.55"/>
</a>
</g>
</g>
<!-- Node14 -->
<g id="Node000014" class="node">
<title>Node14</title>
<g id="a_Node000014"><a xlink:href="minimumConstraints_8cpp.html#aa40934b017f373d875c3470591eff52e" target="_top" xlink:title=" ">
<path fill="#fff0f0" stroke="red" d="M432.17,-321C432.17,-321 391.83,-321 391.83,-321 388.67,-321 385.5,-317.83 385.5,-314.67 385.5,-314.67 385.5,-308.33 385.5,-308.33 385.5,-305.17 388.67,-302 391.83,-302 391.83,-302 432.17,-302 432.17,-302 435.33,-302 438.5,-305.17 438.5,-308.33 438.5,-308.33 438.5,-314.67 438.5,-314.67 438.5,-317.83 435.33,-321 432.17,-321"/>
<text text-anchor="middle" x="412" y="-309" font-family="Helvetica,sans-Serif" font-size="10.00">mincon</text>
</a>
</g>
</g>
<!-- Node1&#45;&gt;Node14 -->
<g id="edge10_Node000001_Node000014" class="edge">
<title>Node1&#45;&gt;Node14</title>
<g id="a_edge10_Node000001_Node000014"><a xlink:title=" ">
<path fill="none" stroke="#63b8ff" d="M512.31,-300.4C486.19,-303.32 458.22,-306.45 438.64,-308.63"/>
<polygon fill="#63b8ff" stroke="#63b8ff" points="513.04,-303.84 522.59,-299.25 512.26,-296.88 513.04,-303.84"/>
</a>
</g>
</g>
<!-- Node17 -->
<g id="Node000017" class="node">
<title>Node17</title>
<g id="a_Node000017"><a xlink:href="minimumConstraints_8cpp.html#aeb8c374e79e38289a66b8b65d6574141" target="_top" xlink:title=" ">
<path fill="#fff0f0" stroke="red" d="M255.17,-321C255.17,-321 192.83,-321 192.83,-321 189.67,-321 186.5,-317.83 186.5,-314.67 186.5,-314.67 186.5,-308.33 186.5,-308.33 186.5,-305.17 189.67,-302 192.83,-302 192.83,-302 255.17,-302 255.17,-302 258.33,-302 261.5,-305.17 261.5,-308.33 261.5,-308.33 261.5,-314.67 261.5,-314.67 261.5,-317.83 258.33,-321 255.17,-321"/>
<text text-anchor="middle" x="224" y="-309" font-family="Helvetica,sans-Serif" font-size="10.00">minconOnly</text>
</a>
</g>
</g>
<!-- Node1&#45;&gt;Node17 -->
<g id="edge16_Node000001_Node000017" class="edge">
<title>Node1&#45;&gt;Node17</title>
<g id="a_edge16_Node000001_Node000017"><a xlink:title=" ">
<path fill="none" stroke="#63b8ff" d="M512.76,-289.9C463.48,-288.78 396.11,-288.66 337,-293.5 311.68,-295.57 283.44,-300.13 261.65,-304.14"/>
<polygon fill="#63b8ff" stroke="#63b8ff" points="512.9,-293.4 522.99,-290.15 513.08,-286.4 512.9,-293.4"/>
</a>
</g>
</g>
<!-- Node18 -->
<g id="Node000018" class="node">
<title>Node18</title>
<g id="a_Node000018"><a xlink:href="debug_8cpp.html#a80d24c0bf09dad23394c5fcac25aa80b" target="_top" xlink:title=" ">
<path fill="#fff0f0" stroke="red" d="M259.17,-284C259.17,-284 188.83,-284 188.83,-284 185.67,-284 182.5,-280.83 182.5,-277.67 182.5,-277.67 182.5,-271.33 182.5,-271.33 182.5,-268.17 185.67,-265 188.83,-265 188.83,-265 259.17,-265 259.17,-265 262.33,-265 265.5,-268.17 265.5,-271.33 265.5,-271.33 265.5,-277.67 265.5,-277.67 265.5,-280.83 262.33,-284 259.17,-284"/>
<text text-anchor="middle" x="224" y="-272" font-family="Helvetica,sans-Serif" font-size="10.00">minimumTest</text>
</a>
</g>
</g>
<!-- Node1&#45;&gt;Node18 -->
<g id="edge17_Node000001_Node000018" class="edge">
<title>Node1&#45;&gt;Node18</title>
<g id="a_edge17_Node000001_Node000018"><a xlink:title=" ">
<path fill="none" stroke="#63b8ff" d="M552.42,-279.08C533.88,-271.69 509.54,-263.27 487,-259.5 409.48,-246.55 317.47,-257.86 265.7,-266.62"/>
<polygon fill="#63b8ff" stroke="#63b8ff" points="551.22,-282.37 561.8,-282.93 553.88,-275.89 551.22,-282.37"/>
</a>
</g>
</g>
<!-- Node9 -->
<g id="Node000009" class="node">
<title>Node9</title>
<g id="a_Node000009"><a xlink:href="rtsSmoothing_8cpp.html#a65cd5f94ab58227ab032b1e894ca3987" target="_top" xlink:title=" ">
<path fill="#fff0f0" stroke="red" d="M263.67,-191C263.67,-191 184.33,-191 184.33,-191 181.17,-191 178,-187.83 178,-184.67 178,-184.67 178,-178.33 178,-178.33 178,-175.17 181.17,-172 184.33,-172 184.33,-172 263.67,-172 263.67,-172 266.83,-172 270,-175.17 270,-178.33 270,-178.33 270,-184.67 270,-184.67 270,-187.83 266.83,-191 263.67,-191"/>
<text text-anchor="middle" x="224" y="-179" font-family="Helvetica,sans-Serif" font-size="10.00">postRTSActions</text>
</a>
</g>
</g>
<!-- Node1&#45;&gt;Node9 -->
<g id="edge19_Node000001_Node000009" class="edge">
<title>Node1&#45;&gt;Node9</title>
<g id="a_edge19_Node000001_Node000009"><a xlink:title=" ">
<path fill="none" stroke="#63b8ff" d="M563.97,-276C545.54,-260.95 516.18,-239.31 487,-227.5 414.65,-198.23 323.64,-187.56 270.14,-183.68"/>
<polygon fill="#63b8ff" stroke="#63b8ff" points="562.17,-279.06 572.09,-282.79 566.66,-273.69 562.17,-279.06"/>
</a>
</g>
</g>
<!-- Node21 -->
<g id="Node000021" class="node">
<title>Node21</title>
<g id="a_Node000021"><a xlink:href="ppppp_8cpp.html#a9997f03cab80cd8db895650860eb025e" target="_top" xlink:title=" ">
<path fill="#fff0f0" stroke="red" d="M235.17,-139C235.17,-139 212.83,-139 212.83,-139 209.67,-139 206.5,-135.83 206.5,-132.67 206.5,-132.67 206.5,-126.33 206.5,-126.33 206.5,-123.17 209.67,-120 212.83,-120 212.83,-120 235.17,-120 235.17,-120 238.33,-120 241.5,-123.17 241.5,-126.33 241.5,-126.33 241.5,-132.67 241.5,-132.67 241.5,-135.83 238.33,-139 235.17,-139"/>
<text text-anchor="middle" x="224" y="-127" font-family="Helvetica,sans-Serif" font-size="10.00">ppp</text>
</a>
</g>
</g>
<!-- Node1&#45;&gt;Node21 -->
<g id="edge20_Node000001_Node000021" class="edge">
<title>Node1&#45;&gt;Node21</title>
<g id="a_edge20_Node000001_Node000021"><a xlink:title=" ">
<path fill="none" stroke="#63b8ff" d="M571.67,-274.39C555.79,-250.57 524.57,-209.21 487,-187.5 403.91,-139.48 284.89,-131.19 241.57,-129.78"/>
<polygon fill="#63b8ff" stroke="#63b8ff" points="568.79,-276.38 577.17,-282.86 574.66,-272.57 568.79,-276.38"/>
</a>
</g>
</g>
<!-- Node22 -->
<g id="Node000022" class="node">
<title>Node22</title>
<g id="a_Node000022"><a xlink:href="spp_8cpp.html#a2ec47af9ec762fa7586a8309d413cf84" target="_top" xlink:title="Compute receiver position, velocity, clock bias by single&#45;point positioning with pseudorange observab...">
<path fill="#fff0f0" stroke="red" d="M422.67,-93C422.67,-93 401.33,-93 401.33,-93 398.17,-93 395,-89.83 395,-86.67 395,-86.67 395,-80.33 395,-80.33 395,-77.17 398.17,-74 401.33,-74 401.33,-74 422.67,-74 422.67,-74 425.83,-74 429,-77.17 429,-80.33 429,-80.33 429,-86.67 429,-86.67 429,-89.83 425.83,-93 422.67,-93"/>
<text text-anchor="middle" x="412" y="-81" font-family="Helvetica,sans-Serif" font-size="10.00">spp</text>
</a>
</g>
</g>
<!-- Node1&#45;&gt;Node22 -->
<g id="edge22_Node000001_Node000022" class="edge">
<title>Node1&#45;&gt;Node22</title>
<g id="a_edge22_Node000001_Node000022"><a xlink:title=" ">
<path fill="none" stroke="#63b8ff" d="M578.24,-273.11C568.04,-235.6 540.52,-152.85 487,-107.5 470.41,-93.44 445.42,-87.58 429.15,-85.16"/>
<polygon fill="#63b8ff" stroke="#63b8ff" points="574.86,-274.01 580.76,-282.81 581.63,-272.25 574.86,-274.01"/>
</a>
</g>
</g>
<!-- Node25 -->
<g id="Node000025" class="node">
<title>Node25</title>
<g id="a_Node000025"><a xlink:href="walkthrough_8cpp.html#af3e41749378ce9de79e7bdb41df88419" target="_top" xlink:title="Ginan kalman filter basics The basic structure for kalman filtering in ginan is the KFState struct,...">
<path fill="#fff0f0" stroke="red" d="M447.17,-56C447.17,-56 376.83,-56 376.83,-56 373.67,-56 370.5,-52.83 370.5,-49.67 370.5,-49.67 370.5,-43.33 370.5,-43.33 370.5,-40.17 373.67,-37 376.83,-37 376.83,-37 447.17,-37 447.17,-37 450.33,-37 453.5,-40.17 453.5,-43.33 453.5,-43.33 453.5,-49.67 453.5,-49.67 453.5,-52.83 450.33,-56 447.17,-56"/>
<text text-anchor="middle" x="412" y="-44" font-family="Helvetica,sans-Serif" font-size="10.00">walkthrough1</text>
</a>
</g>
</g>
<!-- Node1&#45;&gt;Node25 -->
<g id="edge23_Node000001_Node000025" class="edge">
<title>Node1&#45;&gt;Node25</title>
<g id="a_edge23_Node000001_Node000025"><a xlink:title=" ">
<path fill="none" stroke="#63b8ff" d="M580.67,-272.9C574.32,-228.61 552.57,-120.34 487,-64.5 477.74,-56.61 465.58,-52.07 453.8,-49.49"/>
<polygon fill="#63b8ff" stroke="#63b8ff" points="577.21,-273.48 581.99,-282.93 584.15,-272.56 577.21,-273.48"/>
</a>
</g>
</g>
<!-- Node27 -->
<g id="Node000027" class="node">
<title>Node27</title>
<g id="a_Node000027"><a xlink:href="walkthrough_8cpp.html#aff7ddc151473d418c066b30f06e6b42e" target="_top" xlink:title=" ">
<path fill="#fff0f0" stroke="red" d="M447.17,-19C447.17,-19 376.83,-19 376.83,-19 373.67,-19 370.5,-15.83 370.5,-12.67 370.5,-12.67 370.5,-6.33 370.5,-6.33 370.5,-3.17 373.67,0 376.83,0 376.83,0 447.17,0 447.17,0 450.33,0 453.5,-3.17 453.5,-6.33 453.5,-6.33 453.5,-12.67 453.5,-12.67 453.5,-15.83 450.33,-19 447.17,-19"/>
<text text-anchor="middle" x="412" y="-7" font-family="Helvetica,sans-Serif" font-size="10.00">walkthrough2</text>
</a>
</g>
</g>
<!-- Node1&#45;&gt;Node27 -->
<g id="edge24_Node000001_Node000027" class="edge">
<title>Node1&#45;&gt;Node27</title>
<g id="a_edge24_Node000001_Node000027"><a xlink:title=" ">
<path fill="none" stroke="#63b8ff" d="M581.96,-272.8C578.25,-223.56 561.53,-94.32 487,-27.5 477.84,-19.29 465.58,-14.67 453.66,-12.12"/>
<polygon fill="#63b8ff" stroke="#63b8ff" points="578.46,-273.03 582.61,-282.78 585.45,-272.57 578.46,-273.03"/>
</a>
</g>
</g>
<!-- Node12&#45;&gt;Node7 -->
<g id="edge5_Node000012_Node000007" class="edge">
<title>Node12&#45;&gt;Node7</title>
<g id="a_edge5_Node000012_Node000007"><a xlink:title=" ">
<path fill="none" stroke="#63b8ff" d="M355.56,-456.58C348.6,-453.79 342.14,-449.9 337,-444.5 278.35,-382.88 357.17,-320.4 301,-256.5 297.61,-252.64 293.61,-249.37 289.25,-246.61"/>
<polygon fill="#63b8ff" stroke="#63b8ff" points="354.68,-459.98 365.27,-459.74 356.84,-453.32 354.68,-459.98"/>
</a>
</g>
</g>
<!-- Node7&#45;&gt;Node8 -->
<g id="edge6_Node000007_Node000008" class="edge">
<title>Node7&#45;&gt;Node8</title>
<g id="a_edge6_Node000007_Node000008"><a xlink:title=" ">
<path fill="none" stroke="#63b8ff" d="M136.45,-231.5C127.83,-231.5 119.25,-231.5 111.1,-231.5"/>
<polygon fill="#63b8ff" stroke="#63b8ff" points="136.57,-235 146.57,-231.5 136.57,-228 136.57,-235"/>
</a>
</g>
</g>
<!-- Node14&#45;&gt;Node7 -->
<g id="edge14_Node000014_Node000007" class="edge">
<title>Node14&#45;&gt;Node7</title>
<g id="a_edge14_Node000014_Node000007"><a xlink:title=" ">
<path fill="none" stroke="#63b8ff" d="M384.81,-297.05C362.83,-285.25 330.41,-268.61 301,-256.5 292.52,-253.01 283.37,-249.66 274.44,-246.6"/>
<polygon fill="#63b8ff" stroke="#63b8ff" points="383.38,-300.25 393.84,-301.94 386.71,-294.1 383.38,-300.25"/>
</a>
</g>
</g>
<!-- Node14&#45;&gt;Node5 -->
<g id="edge11_Node000014_Node000005" class="edge">
<title>Node14&#45;&gt;Node5</title>
<g id="a_edge11_Node000014_Node000005"><a xlink:title=" ">
<path fill="none" stroke="#63b8ff" d="M375.29,-318.8C345.86,-324.81 303.89,-333.38 271.78,-339.94"/>
<polygon fill="#63b8ff" stroke="#63b8ff" points="376.04,-322.21 385.14,-316.78 374.64,-315.36 376.04,-322.21"/>
</a>
</g>
</g>
<!-- Node14&#45;&gt;Node17 -->
<g id="edge12_Node000014_Node000017" class="edge">
<title>Node14&#45;&gt;Node17</title>
<g id="a_edge12_Node000014_Node000017"><a xlink:title=" ">
<path fill="none" stroke="#63b8ff" d="M375.1,-311.5C342.42,-311.5 294.39,-311.5 261.51,-311.5"/>
<polygon fill="#63b8ff" stroke="#63b8ff" points="375.14,-315 385.14,-311.5 375.14,-308 375.14,-315"/>
</a>
</g>
</g>
<!-- Node14&#45;&gt;Node18 -->
<g id="edge13_Node000014_Node000018" class="edge">
<title>Node14&#45;&gt;Node18</title>
<g id="a_edge13_Node000014_Node000018"><a xlink:title=" ">
<path fill="none" stroke="#63b8ff" d="M375.09,-304.36C343.76,-298.12 298.32,-289.09 265.66,-282.59"/>
<polygon fill="#63b8ff" stroke="#63b8ff" points="374.65,-307.84 385.14,-306.36 376.01,-300.97 374.65,-307.84"/>
</a>
</g>
</g>
<!-- Node14&#45;&gt;Node9 -->
<g id="edge15_Node000014_Node000009" class="edge">
<title>Node14&#45;&gt;Node9</title>
<g id="a_edge15_Node000014_Node000009"><a xlink:title=" ">
<path fill="none" stroke="#63b8ff" d="M396.65,-293.87C377.18,-271.01 340.29,-231.24 301,-207.5 289.42,-200.5 275.71,-195.08 263.14,-191.04"/>
<polygon fill="#63b8ff" stroke="#63b8ff" points="394.13,-296.31 403.23,-301.74 399.5,-291.82 394.13,-296.31"/>
</a>
</g>
</g>
<!-- Node21&#45;&gt;Node8 -->
<g id="edge21_Node000021_Node000008" class="edge">
<title>Node21&#45;&gt;Node8</title>
<g id="a_edge21_Node000021_Node000008"><a xlink:title=" ">
<path fill="none" stroke="#63b8ff" d="M196.76,-139.07C181.75,-144.99 162.83,-153.22 147,-162.5 116.15,-180.59 83.69,-207.6 67.31,-221.86"/>
<polygon fill="#63b8ff" stroke="#63b8ff" points="198.35,-142.21 206.43,-135.36 195.84,-135.68 198.35,-142.21"/>
</a>
</g>
</g>
</g>
</svg>
