<?xml version="1.0" encoding="UTF-8" standalone="no"?>
<!DOCTYPE svg PUBLIC "-//W3C//DTD SVG 1.1//EN"
 "http://www.w3.org/Graphics/SVG/1.1/DTD/svg11.dtd">
<!-- Generated by graphviz version 2.43.0 (0)
 -->
<!-- Title: GTime::floorTime Pages: 1 -->
<svg width="511pt" height="281pt"
 viewBox="0.00 0.00 511.00 281.00" xmlns="http://www.w3.org/2000/svg" xmlns:xlink="http://www.w3.org/1999/xlink">
<g id="graph0" class="graph" transform="scale(1 1) rotate(0) translate(4 277)">
<title>GTime::floorTime</title>
<!-- Node1 -->
<g id="Node000001" class="node">
<title>Node1</title>
<g id="a_Node000001"><a xlink:href="structGTime.html#a72505f23b2252f690f124c2eaf026f91" target="_top" xlink:title=" ">
<path fill="#fff0f0" stroke="red" stroke-width="2" d="M496.67,-137C496.67,-137 408.33,-137 408.33,-137 405.17,-137 402,-133.83 402,-130.67 402,-130.67 402,-124.33 402,-124.33 402,-121.17 405.17,-118 408.33,-118 408.33,-118 496.67,-118 496.67,-118 499.83,-118 503,-121.17 503,-124.33 503,-124.33 503,-130.67 503,-130.67 503,-133.83 499.83,-137 496.67,-137"/>
<text text-anchor="middle" x="452.5" y="-125" font-family="Helvetica,sans-Serif" font-size="10.00">GTime::floorTime</text>
</a>
</g>
</g>
<!-- Node2 -->
<g id="Node000002" class="node">
<title>Node2</title>
<g id="a_Node000002"><a xlink:href="gTime_8cpp.html#abd3e80e328e3d4afed1001aa34ca9d16" target="_top" xlink:title="Returns (posix) for current epoch.">
<path fill="#fff0f0" stroke="red" d="M320.17,-273C320.17,-273 235.83,-273 235.83,-273 232.67,-273 229.5,-269.83 229.5,-266.67 229.5,-266.67 229.5,-260.33 229.5,-260.33 229.5,-257.17 232.67,-254 235.83,-254 235.83,-254 320.17,-254 320.17,-254 323.33,-254 326.5,-257.17 326.5,-260.33 326.5,-260.33 326.5,-266.67 326.5,-266.67 326.5,-269.83 323.33,-273 320.17,-273"/>
<text text-anchor="middle" x="278" y="-261" font-family="Helvetica,sans-Serif" font-size="10.00">currentLogptime</text>
</a>
</g>
</g>
<!-- Node1&#45;&gt;Node2 -->
<g id="edge1_Node000001_Node000002" class="edge">
<title>Node1&#45;&gt;Node2</title>
<g id="a_edge1_Node000001_Node000002"><a xlink:title=" ">
<path fill="none" stroke="#63b8ff" d="M443.13,-146.73C430.48,-173.38 403.89,-221.01 366,-245.5 354.34,-253.04 340.13,-257.5 326.6,-260.12"/>
<polygon fill="#63b8ff" stroke="#63b8ff" points="446.45,-147.88 447.42,-137.33 440.08,-144.97 446.45,-147.88"/>
</a>
</g>
</g>
<!-- Node5 -->
<g id="Node000005" class="node">
<title>Node5</title>
<g id="a_Node000005"><a xlink:href="main_8cpp.html#a3c04138a5bfe5d72780bb7e82a18e627" target="_top" xlink:title=" ">
<path fill="#fff0f0" stroke="red" d="M91.17,-235C91.17,-235 62.83,-235 62.83,-235 59.67,-235 56.5,-231.83 56.5,-228.67 56.5,-228.67 56.5,-222.33 56.5,-222.33 56.5,-219.17 59.67,-216 62.83,-216 62.83,-216 91.17,-216 91.17,-216 94.33,-216 97.5,-219.17 97.5,-222.33 97.5,-222.33 97.5,-228.67 97.5,-228.67 97.5,-231.83 94.33,-235 91.17,-235"/>
<text text-anchor="middle" x="77" y="-223" font-family="Helvetica,sans-Serif" font-size="10.00">main</text>
</a>
</g>
</g>
<!-- Node1&#45;&gt;Node5 -->
<g id="edge4_Node000001_Node000005" class="edge">
<title>Node1&#45;&gt;Node5</title>
<g id="a_edge4_Node000001_Node000005"><a xlink:title=" ">
<path fill="none" stroke="#63b8ff" d="M426.28,-142.09C409.64,-151.16 387.1,-162.41 366,-169.5 315.31,-186.54 153.98,-213.31 97.64,-222.38"/>
<polygon fill="#63b8ff" stroke="#63b8ff" points="428.31,-144.97 435.34,-137.05 424.9,-138.86 428.31,-144.97"/>
</a>
</g>
</g>
<!-- Node8 -->
<g id="Node000008" class="node">
<title>Node8</title>
<g id="a_Node000008"><a xlink:href="rinexClkWrite_8cpp.html#a87a652e05ec91c35c1e56c0650176dfa" target="_top" xlink:title=" ">
<path fill="#fff0f0" stroke="red" d="M338.17,-236C338.17,-236 217.83,-236 217.83,-236 214.67,-236 211.5,-232.83 211.5,-229.67 211.5,-229.67 211.5,-223.33 211.5,-223.33 211.5,-220.17 214.67,-217 217.83,-217 217.83,-217 338.17,-217 338.17,-217 341.33,-217 344.5,-220.17 344.5,-223.33 344.5,-223.33 344.5,-229.67 344.5,-229.67 344.5,-232.83 341.33,-236 338.17,-236"/>
<text text-anchor="middle" x="278" y="-224" font-family="Helvetica,sans-Serif" font-size="10.00">getSysOutputFilenames</text>
</a>
</g>
</g>
<!-- Node1&#45;&gt;Node8 -->
<g id="edge3_Node000001_Node000008" class="edge">
<title>Node1&#45;&gt;Node8</title>
<g id="a_edge3_Node000001_Node000008"><a xlink:title=" ">
<path fill="none" stroke="#63b8ff" d="M436.39,-144.68C420.49,-161.73 393.93,-187.44 366,-202.5 354.55,-208.67 341.38,-213.37 328.81,-216.89"/>
<polygon fill="#63b8ff" stroke="#63b8ff" points="439.15,-146.84 443.3,-137.09 433.98,-142.13 439.15,-146.84"/>
</a>
</g>
</g>
<!-- Node17 -->
<g id="Node000017" class="node">
<title>Node17</title>
<g id="a_Node000017"><a xlink:href="structNtripUploader.html#aed62670c2d0d02f1bb0d930f42e68609" target="_top" xlink:title=" ">
<path fill="#fff0f0" stroke="red" d="M356,-142.5C356,-142.5 200,-142.5 200,-142.5 195,-142.5 190,-137.5 190,-132.5 190,-132.5 190,-122.5 190,-122.5 190,-117.5 195,-112.5 200,-112.5 200,-112.5 356,-112.5 356,-112.5 361,-112.5 366,-117.5 366,-122.5 366,-122.5 366,-132.5 366,-132.5 366,-137.5 361,-142.5 356,-142.5"/>
<text text-anchor="start" x="198" y="-130.5" font-family="Helvetica,sans-Serif" font-size="10.00">NtripUploader::messageTimeout</text>
<text text-anchor="middle" x="278" y="-119.5" font-family="Helvetica,sans-Serif" font-size="10.00">Handler</text>
</a>
</g>
</g>
<!-- Node1&#45;&gt;Node17 -->
<g id="edge5_Node000001_Node000017" class="edge">
<title>Node1&#45;&gt;Node17</title>
<g id="a_edge5_Node000001_Node000017"><a xlink:title=" ">
<path fill="none" stroke="#63b8ff" d="M391.44,-127.5C383.25,-127.5 374.72,-127.5 366.17,-127.5"/>
<polygon fill="#63b8ff" stroke="#63b8ff" points="391.61,-131 401.61,-127.5 391.61,-124 391.61,-131"/>
</a>
</g>
</g>
<!-- Node10 -->
<g id="Node000010" class="node">
<title>Node10</title>
<g id="a_Node000010"><a xlink:href="outputs_8cpp.html#ab72aaa4a378c8714b6de17cc45e9314c" target="_top" xlink:title=" ">
<path fill="#fff0f0" stroke="red" d="M144,-62.5C144,-62.5 10,-62.5 10,-62.5 5,-62.5 0,-57.5 0,-52.5 0,-52.5 0,-42.5 0,-42.5 0,-37.5 5,-32.5 10,-32.5 10,-32.5 144,-32.5 144,-32.5 149,-32.5 154,-37.5 154,-42.5 154,-42.5 154,-52.5 154,-52.5 154,-57.5 149,-62.5 144,-62.5"/>
<text text-anchor="start" x="8" y="-50.5" font-family="Helvetica,sans-Serif" font-size="10.00">perEpochPostProcessingAnd</text>
<text text-anchor="middle" x="77" y="-39.5" font-family="Helvetica,sans-Serif" font-size="10.00">Outputs</text>
</a>
</g>
</g>
<!-- Node1&#45;&gt;Node10 -->
<g id="edge7_Node000001_Node000010" class="edge">
<title>Node1&#45;&gt;Node10</title>
<g id="a_edge7_Node000001_Node000010"><a xlink:title=" ">
<path fill="none" stroke="#63b8ff" d="M410.17,-115.17C396.21,-111.19 380.49,-106.94 366,-103.5 294.63,-86.57 212.43,-70.97 154.16,-60.56"/>
<polygon fill="#63b8ff" stroke="#63b8ff" points="409.41,-118.59 419.99,-117.99 411.35,-111.86 409.41,-118.59"/>
</a>
</g>
</g>
<!-- Node11 -->
<g id="Node000011" class="node">
<title>Node11</title>
<g id="a_Node000011"><a xlink:href="rtsSmoothing_8cpp.html#a65cd5f94ab58227ab032b1e894ca3987" target="_top" xlink:title=" ">
<path fill="#fff0f0" stroke="red" d="M317.67,-56C317.67,-56 238.33,-56 238.33,-56 235.17,-56 232,-52.83 232,-49.67 232,-49.67 232,-43.33 232,-43.33 232,-40.17 235.17,-37 238.33,-37 238.33,-37 317.67,-37 317.67,-37 320.83,-37 324,-40.17 324,-43.33 324,-43.33 324,-49.67 324,-49.67 324,-52.83 320.83,-56 317.67,-56"/>
<text text-anchor="middle" x="278" y="-44" font-family="Helvetica,sans-Serif" font-size="10.00">postRTSActions</text>
</a>
</g>
</g>
<!-- Node1&#45;&gt;Node11 -->
<g id="edge8_Node000001_Node000011" class="edge">
<title>Node1&#45;&gt;Node11</title>
<g id="a_edge8_Node000001_Node000011"><a xlink:title=" ">
<path fill="none" stroke="#63b8ff" d="M431.86,-111.75C415.18,-99.05 390.18,-81.55 366,-70.5 352.89,-64.51 337.97,-59.72 324.23,-56.05"/>
<polygon fill="#63b8ff" stroke="#63b8ff" points="429.72,-114.52 439.77,-117.89 434.01,-108.99 429.72,-114.52"/>
</a>
</g>
</g>
<!-- Node20 -->
<g id="Node000020" class="node">
<title>Node20</title>
<g id="a_Node000020"><a xlink:href="biasSINEXwrite_8cpp.html#a6c7446a6a1e0b4bd45275115a06b5c46" target="_top" xlink:title="Write stored bias output to SINEX file Return number of written biases (&#45;1 if file not found)">
<path fill="#fff0f0" stroke="red" d="M316.17,-19C316.17,-19 239.83,-19 239.83,-19 236.67,-19 233.5,-15.83 233.5,-12.67 233.5,-12.67 233.5,-6.33 233.5,-6.33 233.5,-3.17 236.67,0 239.83,0 239.83,0 316.17,0 316.17,0 319.33,0 322.5,-3.17 322.5,-6.33 322.5,-6.33 322.5,-12.67 322.5,-12.67 322.5,-15.83 319.33,-19 316.17,-19"/>
<text text-anchor="middle" x="278" y="-7" font-family="Helvetica,sans-Serif" font-size="10.00">writeBiasSinex</text>
</a>
</g>
</g>
<!-- Node1&#45;&gt;Node20 -->
<g id="edge9_Node000001_Node000020" class="edge">
<title>Node1&#45;&gt;Node20</title>
<g id="a_edge9_Node000001_Node000020"><a xlink:title=" ">
<path fill="none" stroke="#63b8ff" d="M441.15,-109.22C427.18,-86.32 400.07,-47.63 366,-27.5 352.99,-19.81 337.19,-15.37 322.64,-12.82"/>
<polygon fill="#63b8ff" stroke="#63b8ff" points="438.22,-111.14 446.32,-117.97 444.25,-107.58 438.22,-111.14"/>
</a>
</g>
</g>
<!-- Node2&#45;&gt;Node5 -->
<g id="edge2_Node000002_Node000005" class="edge">
<title>Node2&#45;&gt;Node5</title>
<g id="a_edge2_Node000002_Node000005"><a xlink:title=" ">
<path fill="none" stroke="#63b8ff" d="M219.44,-252.51C178.39,-244.67 125.69,-234.61 97.63,-229.25"/>
<polygon fill="#63b8ff" stroke="#63b8ff" points="218.86,-255.96 229.33,-254.4 220.17,-249.08 218.86,-255.96"/>
</a>
</g>
</g>
<!-- Node17&#45;&gt;Node17 -->
<g id="edge6_Node000017_Node000017" class="edge">
<title>Node17&#45;&gt;Node17</title>
<g id="a_edge6_Node000017_Node000017"><a xlink:title=" ">
<path fill="none" stroke="#63b8ff" d="M308.46,-153.1C304.29,-157.47 294.14,-160.5 278,-160.5 250.81,-160.5 240.62,-151.91 247.41,-142.78"/>
<polygon fill="#63b8ff" stroke="#63b8ff" points="311.96,-152.82 308.59,-142.78 304.96,-152.73 311.96,-152.82"/>
</a>
</g>
</g>
<!-- Node20&#45;&gt;Node10 -->
<g id="edge10_Node000020_Node000010" class="edge">
<title>Node20&#45;&gt;Node10</title>
<g id="a_edge10_Node000020_Node000010"><a xlink:title=" ">
<path fill="none" stroke="#63b8ff" d="M223.49,-19.72C202.16,-23.79 177.21,-28.56 154.06,-32.98"/>
<polygon fill="#63b8ff" stroke="#63b8ff" points="224.16,-23.15 233.33,-17.84 222.85,-16.28 224.16,-23.15"/>
</a>
</g>
</g>
</g>
</svg>
