<?xml version="1.0" encoding="UTF-8" standalone="no"?>
<!DOCTYPE svg PUBLIC "-//W3C//DTD SVG 1.1//EN"
 "http://www.w3.org/Graphics/SVG/1.1/DTD/svg11.dtd">
<!-- Generated by graphviz version 2.43.0 (0)
 -->
<!-- Title: VectorEnu::u Pages: 1 -->
<svg width="403pt" height="428pt"
 viewBox="0.00 0.00 403.00 428.23" xmlns="http://www.w3.org/2000/svg" xmlns:xlink="http://www.w3.org/1999/xlink">
<g id="graph0" class="graph" transform="scale(1 1) rotate(0) translate(4 424.23)">
<title>VectorEnu::u</title>
<!-- Node1 -->
<g id="Node000001" class="node">
<title>Node1</title>
<g id="a_Node000001"><a xlink:href="structVectorEnu.html#a9dc9aa9b550edbb98110a836698a71e5" target="_top" xlink:title=" ">
<path fill="#fff0f0" stroke="red" stroke-width="2" d="M388.67,-222C388.67,-222 324.33,-222 324.33,-222 321.17,-222 318,-218.83 318,-215.67 318,-215.67 318,-209.33 318,-209.33 318,-206.17 321.17,-203 324.33,-203 324.33,-203 388.67,-203 388.67,-203 391.83,-203 395,-206.17 395,-209.33 395,-209.33 395,-215.67 395,-215.67 395,-218.83 391.83,-222 388.67,-222"/>
<text text-anchor="middle" x="356.5" y="-210" font-family="Helvetica,sans-Serif" font-size="10.00">VectorEnu::u</text>
</a>
</g>
</g>
<!-- Node2 -->
<g id="Node000002" class="node">
<title>Node2</title>
<g id="a_Node000002"><a xlink:href="debug_8cpp.html#a561256d9ead53db67f481d3bf5c19ca7" target="_top" xlink:title=" ">
<path fill="#fff0f0" stroke="red" d="M95.17,-335C95.17,-335 23.83,-335 23.83,-335 20.67,-335 17.5,-331.83 17.5,-328.67 17.5,-328.67 17.5,-322.33 17.5,-322.33 17.5,-319.17 20.67,-316 23.83,-316 23.83,-316 95.17,-316 95.17,-316 98.33,-316 101.5,-319.17 101.5,-322.33 101.5,-322.33 101.5,-328.67 101.5,-328.67 101.5,-331.83 98.33,-335 95.17,-335"/>
<text text-anchor="middle" x="59.5" y="-323" font-family="Helvetica,sans-Serif" font-size="10.00">debugHardisp</text>
</a>
</g>
</g>
<!-- Node1&#45;&gt;Node2 -->
<g id="edge1_Node000001_Node000002" class="edge">
<title>Node1&#45;&gt;Node2</title>
<g id="a_edge1_Node000001_Node000002"><a xlink:title=" ">
<path fill="none" stroke="#63b8ff" d="M354.63,-232.19C351.69,-272.05 338.76,-361.75 282,-400.5 235.38,-432.33 208.3,-419.08 155,-400.5 117.22,-387.33 83.21,-352.06 68.38,-335"/>
<polygon fill="#63b8ff" stroke="#63b8ff" points="358.13,-232.34 355.24,-222.15 351.14,-231.92 358.13,-232.34"/>
</a>
</g>
</g>
<!-- Node3 -->
<g id="Node000003" class="node">
<title>Node3</title>
<g id="a_Node000003"><a xlink:href="debug_8cpp.html#a321dc270c343abb0651a7dae8016073f" target="_top" xlink:title=" ">
<path fill="#fff0f0" stroke="red" d="M261.67,-391C261.67,-391 175.33,-391 175.33,-391 172.17,-391 169,-387.83 169,-384.67 169,-384.67 169,-378.33 169,-378.33 169,-375.17 172.17,-372 175.33,-372 175.33,-372 261.67,-372 261.67,-372 264.83,-372 268,-375.17 268,-378.33 268,-378.33 268,-384.67 268,-384.67 268,-387.83 264.83,-391 261.67,-391"/>
<text text-anchor="middle" x="218.5" y="-379" font-family="Helvetica,sans-Serif" font-size="10.00">debugTideAtmos</text>
</a>
</g>
</g>
<!-- Node1&#45;&gt;Node3 -->
<g id="edge2_Node000001_Node000003" class="edge">
<title>Node1&#45;&gt;Node3</title>
<g id="a_edge2_Node000001_Node000003"><a xlink:title=" ">
<path fill="none" stroke="#63b8ff" d="M351.34,-232.34C343.51,-264.66 323.52,-328.59 282,-363.5 277.85,-366.99 273.06,-369.8 268.02,-372.07"/>
<polygon fill="#63b8ff" stroke="#63b8ff" points="354.81,-232.85 353.61,-222.32 347.98,-231.3 354.81,-232.85"/>
</a>
</g>
</g>
<!-- Node4 -->
<g id="Node000004" class="node">
<title>Node4</title>
<g id="a_Node000004"><a xlink:href="debug_8cpp.html#af70de86752b2299dc960e06802ce7295" target="_top" xlink:title=" ">
<path fill="#fff0f0" stroke="red" d="M261.17,-354C261.17,-354 175.83,-354 175.83,-354 172.67,-354 169.5,-350.83 169.5,-347.67 169.5,-347.67 169.5,-341.33 169.5,-341.33 169.5,-338.17 172.67,-335 175.83,-335 175.83,-335 261.17,-335 261.17,-335 264.33,-335 267.5,-338.17 267.5,-341.33 267.5,-341.33 267.5,-347.67 267.5,-347.67 267.5,-350.83 264.33,-354 261.17,-354"/>
<text text-anchor="middle" x="218.5" y="-342" font-family="Helvetica,sans-Serif" font-size="10.00">debugTideOcean</text>
</a>
</g>
</g>
<!-- Node1&#45;&gt;Node4 -->
<g id="edge3_Node000001_Node000004" class="edge">
<title>Node1&#45;&gt;Node4</title>
<g id="a_edge3_Node000001_Node000004"><a xlink:title=" ">
<path fill="none" stroke="#63b8ff" d="M347.1,-231.37C335.6,-255.22 312.82,-296.09 282,-320.5 274.26,-326.63 264.76,-331.34 255.54,-334.89"/>
<polygon fill="#63b8ff" stroke="#63b8ff" points="350.41,-232.55 351.45,-222.01 344.06,-229.6 350.41,-232.55"/>
</a>
</g>
</g>
<!-- Node5 -->
<g id="Node000005" class="node">
<title>Node5</title>
<g id="a_Node000005"><a xlink:href="debug_8cpp.html#a024d78c0bdafab9654bb34addd8d14cc" target="_top" xlink:title=" ">
<path fill="#fff0f0" stroke="red" d="M112.67,-204C112.67,-204 6.33,-204 6.33,-204 3.17,-204 0,-200.83 0,-197.67 0,-197.67 0,-191.33 0,-191.33 0,-188.17 3.17,-185 6.33,-185 6.33,-185 112.67,-185 112.67,-185 115.83,-185 119,-188.17 119,-191.33 119,-191.33 119,-197.67 119,-197.67 119,-200.83 115.83,-204 112.67,-204"/>
<text text-anchor="middle" x="59.5" y="-192" font-family="Helvetica,sans-Serif" font-size="10.00">debugTideOceanPole</text>
</a>
</g>
</g>
<!-- Node1&#45;&gt;Node5 -->
<g id="edge4_Node000001_Node000005" class="edge">
<title>Node1&#45;&gt;Node5</title>
<g id="a_edge4_Node000001_Node000005"><a xlink:title=" ">
<path fill="none" stroke="#63b8ff" d="M344.19,-230.6C331.58,-248.89 309.32,-276.02 282,-287.5 229.96,-309.36 207.23,-308.89 155,-287.5 113.04,-270.31 79.7,-224.51 66.56,-204.3"/>
<polygon fill="#63b8ff" stroke="#63b8ff" points="347.14,-232.48 349.73,-222.21 341.3,-228.62 347.14,-232.48"/>
</a>
</g>
</g>
<!-- Node6 -->
<g id="Node000006" class="node">
<title>Node6</title>
<g id="a_Node000006"><a xlink:href="debug_8cpp.html#a87c5753b6cf593f61c84b8b25cf8303f" target="_top" xlink:title=" ">
<path fill="#fff0f0" stroke="red" d="M268.67,-278C268.67,-278 168.33,-278 168.33,-278 165.17,-278 162,-274.83 162,-271.67 162,-271.67 162,-265.33 162,-265.33 162,-262.17 165.17,-259 168.33,-259 168.33,-259 268.67,-259 268.67,-259 271.83,-259 275,-262.17 275,-265.33 275,-265.33 275,-271.67 275,-271.67 275,-274.83 271.83,-278 268.67,-278"/>
<text text-anchor="middle" x="218.5" y="-266" font-family="Helvetica,sans-Serif" font-size="10.00">debugTideSolidPole</text>
</a>
</g>
</g>
<!-- Node1&#45;&gt;Node6 -->
<g id="edge5_Node000001_Node000006" class="edge">
<title>Node1&#45;&gt;Node6</title>
<g id="a_edge5_Node000001_Node000006"><a xlink:title=" ">
<path fill="none" stroke="#63b8ff" d="M330.33,-227.08C316.4,-234.75 298.59,-243.9 282,-250.5 274.13,-253.63 265.51,-256.47 257.25,-258.93"/>
<polygon fill="#63b8ff" stroke="#63b8ff" points="332.28,-230 339.3,-222.06 328.86,-223.89 332.28,-230"/>
</a>
</g>
</g>
<!-- Node7 -->
<g id="Node000007" class="node">
<title>Node7</title>
<g id="a_Node000007"><a xlink:href="geomagField_8cpp.html#a1a9089a9e8fb29db7da8a88c9abcf491" target="_top" xlink:title="Compute the geomagnetic field components in geocentric local reference system at given time and posit...">
<path fill="#fff0f0" stroke="red" d="M270.17,-241C270.17,-241 166.83,-241 166.83,-241 163.67,-241 160.5,-237.83 160.5,-234.67 160.5,-234.67 160.5,-228.33 160.5,-228.33 160.5,-225.17 163.67,-222 166.83,-222 166.83,-222 270.17,-222 270.17,-222 273.33,-222 276.5,-225.17 276.5,-228.33 276.5,-228.33 276.5,-234.67 276.5,-234.67 276.5,-237.83 273.33,-241 270.17,-241"/>
<text text-anchor="middle" x="218.5" y="-229" font-family="Helvetica,sans-Serif" font-size="10.00">getGeomagIntensity</text>
</a>
</g>
</g>
<!-- Node1&#45;&gt;Node7 -->
<g id="edge6_Node000001_Node000007" class="edge">
<title>Node1&#45;&gt;Node7</title>
<g id="a_edge6_Node000001_Node000007"><a xlink:title=" ">
<path fill="none" stroke="#63b8ff" d="M308.06,-219.13C297.88,-220.55 287.03,-222.07 276.53,-223.53"/>
<polygon fill="#63b8ff" stroke="#63b8ff" points="308.56,-222.59 317.98,-217.74 307.59,-215.66 308.56,-222.59"/>
</a>
</g>
</g>
<!-- Node16 -->
<g id="Node000016" class="node">
<title>Node16</title>
<g id="a_Node000016"><a xlink:href="cost_8cpp.html#abc021ac32635abe4cf6daef44cabb888" target="_top" xlink:title="Outputs troposphere COST file.">
<path fill="#fff0f0" stroke="red" d="M247.17,-204C247.17,-204 189.83,-204 189.83,-204 186.67,-204 183.5,-200.83 183.5,-197.67 183.5,-197.67 183.5,-191.33 183.5,-191.33 183.5,-188.17 186.67,-185 189.83,-185 189.83,-185 247.17,-185 247.17,-185 250.33,-185 253.5,-188.17 253.5,-191.33 253.5,-191.33 253.5,-197.67 253.5,-197.67 253.5,-200.83 250.33,-204 247.17,-204"/>
<text text-anchor="middle" x="218.5" y="-192" font-family="Helvetica,sans-Serif" font-size="10.00">outputCost</text>
</a>
</g>
</g>
<!-- Node1&#45;&gt;Node16 -->
<g id="edge7_Node000001_Node000016" class="edge">
<title>Node1&#45;&gt;Node16</title>
<g id="a_edge7_Node000001_Node000016"><a xlink:title=" ">
<path fill="none" stroke="#63b8ff" d="M308,-206.21C290.09,-203.84 270.09,-201.2 253.64,-199.02"/>
<polygon fill="#63b8ff" stroke="#63b8ff" points="307.6,-209.69 317.98,-207.53 308.52,-202.75 307.6,-209.69"/>
</a>
</g>
</g>
<!-- Node20 -->
<g id="Node000020" class="node">
<title>Node20</title>
<g id="a_Node000020"><a xlink:href="sinex_8cpp.html#a351e5badfc064f99de81bf140cf4d232" target="_top" xlink:title=" ">
<path fill="#fff0f0" stroke="red" d="M271.67,-167C271.67,-167 165.33,-167 165.33,-167 162.17,-167 159,-163.83 159,-160.67 159,-160.67 159,-154.33 159,-154.33 159,-151.17 162.17,-148 165.33,-148 165.33,-148 271.67,-148 271.67,-148 274.83,-148 278,-151.17 278,-154.33 278,-154.33 278,-160.67 278,-160.67 278,-163.83 274.83,-167 271.67,-167"/>
<text text-anchor="middle" x="218.5" y="-155" font-family="Helvetica,sans-Serif" font-size="10.00">parseSiteEccentricity</text>
</a>
</g>
</g>
<!-- Node1&#45;&gt;Node20 -->
<g id="edge8_Node000001_Node000020" class="edge">
<title>Node1&#45;&gt;Node20</title>
<g id="a_edge8_Node000001_Node000020"><a xlink:title=" ">
<path fill="none" stroke="#63b8ff" d="M329.1,-198.29C315.31,-191.2 298,-182.81 282,-176.5 273.24,-173.05 263.59,-169.84 254.55,-167.08"/>
<polygon fill="#63b8ff" stroke="#63b8ff" points="327.55,-201.43 338.04,-202.96 330.79,-195.23 327.55,-201.43"/>
</a>
</g>
</g>
<!-- Node23 -->
<g id="Node000023" class="node">
<title>Node23</title>
<g id="a_Node000023"><a xlink:href="antenna_8cpp.html#a8c56b39d78caff862f84c8364a392bc4" target="_top" xlink:title="Read antex file.">
<path fill="#fff0f0" stroke="red" d="M247.17,-130C247.17,-130 189.83,-130 189.83,-130 186.67,-130 183.5,-126.83 183.5,-123.67 183.5,-123.67 183.5,-117.33 183.5,-117.33 183.5,-114.17 186.67,-111 189.83,-111 189.83,-111 247.17,-111 247.17,-111 250.33,-111 253.5,-114.17 253.5,-117.33 253.5,-117.33 253.5,-123.67 253.5,-123.67 253.5,-126.83 250.33,-130 247.17,-130"/>
<text text-anchor="middle" x="218.5" y="-118" font-family="Helvetica,sans-Serif" font-size="10.00">readantexf</text>
</a>
</g>
</g>
<!-- Node1&#45;&gt;Node23 -->
<g id="edge9_Node000001_Node000023" class="edge">
<title>Node1&#45;&gt;Node23</title>
<g id="a_edge9_Node000001_Node000023"><a xlink:title=" ">
<path fill="none" stroke="#63b8ff" d="M341.88,-194.67C328.37,-178.14 306.23,-153.98 282,-139.5 273.34,-134.32 263.14,-130.45 253.53,-127.6"/>
<polygon fill="#63b8ff" stroke="#63b8ff" points="339.5,-197.3 348.46,-202.96 344.99,-192.95 339.5,-197.3"/>
</a>
</g>
</g>
<!-- Node24 -->
<g id="Node000024" class="node">
<title>Node24</title>
<g id="a_Node000024"><a xlink:href="tides_8cpp.html#a1425ef4f680e83dce84af83d374efa25" target="_top" xlink:title="Read ocean pole load tide coefficients.">
<path fill="#fff0f0" stroke="red" d="M270.17,-93C270.17,-93 166.83,-93 166.83,-93 163.67,-93 160.5,-89.83 160.5,-86.67 160.5,-86.67 160.5,-80.33 160.5,-80.33 160.5,-77.17 163.67,-74 166.83,-74 166.83,-74 270.17,-74 270.17,-74 273.33,-74 276.5,-77.17 276.5,-80.33 276.5,-80.33 276.5,-86.67 276.5,-86.67 276.5,-89.83 273.33,-93 270.17,-93"/>
<text text-anchor="middle" x="218.5" y="-81" font-family="Helvetica,sans-Serif" font-size="10.00">readOceanPoleCoeff</text>
</a>
</g>
</g>
<!-- Node1&#45;&gt;Node24 -->
<g id="edge10_Node000001_Node000024" class="edge">
<title>Node1&#45;&gt;Node24</title>
<g id="a_edge10_Node000001_Node000024"><a xlink:title=" ">
<path fill="none" stroke="#63b8ff" d="M347.87,-193.38C336.98,-168.52 314.61,-125.43 282,-101.5 277.36,-98.09 272.08,-95.33 266.62,-93.09"/>
<polygon fill="#63b8ff" stroke="#63b8ff" points="344.74,-194.95 351.84,-202.82 351.19,-192.24 344.74,-194.95"/>
</a>
</g>
</g>
<!-- Node25 -->
<g id="Node000025" class="node">
<title>Node25</title>
<g id="a_Node000025"><a xlink:href="rtkcmn_8cpp.html#a043d5d9da866bca2f19bf4a74ad8b2f5" target="_top" xlink:title="satellite azimuth/elevation angle">
<path fill="#fff0f0" stroke="red" d="M238.17,-56C238.17,-56 198.83,-56 198.83,-56 195.67,-56 192.5,-52.83 192.5,-49.67 192.5,-49.67 192.5,-43.33 192.5,-43.33 192.5,-40.17 195.67,-37 198.83,-37 198.83,-37 238.17,-37 238.17,-37 241.33,-37 244.5,-40.17 244.5,-43.33 244.5,-43.33 244.5,-49.67 244.5,-49.67 244.5,-52.83 241.33,-56 238.17,-56"/>
<text text-anchor="middle" x="218.5" y="-44" font-family="Helvetica,sans-Serif" font-size="10.00">satazel</text>
</a>
</g>
</g>
<!-- Node1&#45;&gt;Node25 -->
<g id="edge12_Node000001_Node000025" class="edge">
<title>Node1&#45;&gt;Node25</title>
<g id="a_edge12_Node000001_Node000025"><a xlink:title=" ">
<path fill="none" stroke="#63b8ff" d="M351.22,-193.05C343.22,-161.36 322.99,-98.69 282,-64.5 271.51,-55.75 256.97,-51.25 244.56,-48.94"/>
<polygon fill="#63b8ff" stroke="#63b8ff" points="347.83,-193.95 353.55,-202.87 354.65,-192.33 347.83,-193.95"/>
</a>
</g>
</g>
<!-- Node33 -->
<g id="Node000033" class="node">
<title>Node33</title>
<g id="a_Node000033"><a xlink:href="tides_8cpp.html#a0d0d76f88aa8ce52eb4f4a8cbb02995d" target="_top" xlink:title="Displacement by ocean tide loading with HARDISP See ref [1] 7.1.2, [5], [7].">
<path fill="#fff0f0" stroke="red" d="M275.67,-19C275.67,-19 161.33,-19 161.33,-19 158.17,-19 155,-15.83 155,-12.67 155,-12.67 155,-6.33 155,-6.33 155,-3.17 158.17,0 161.33,0 161.33,0 275.67,0 275.67,0 278.83,0 282,-3.17 282,-6.33 282,-6.33 282,-12.67 282,-12.67 282,-15.83 278.83,-19 275.67,-19"/>
<text text-anchor="middle" x="218.5" y="-7" font-family="Helvetica,sans-Serif" font-size="10.00">tideOceanLoadHardisp</text>
</a>
</g>
</g>
<!-- Node1&#45;&gt;Node33 -->
<g id="edge13_Node000001_Node000033" class="edge">
<title>Node1&#45;&gt;Node33</title>
<g id="a_edge13_Node000001_Node000033"><a xlink:title=" ">
<path fill="none" stroke="#63b8ff" d="M353.32,-192.56C348.1,-154.73 331.42,-72.31 282,-27.5 278.24,-24.09 273.86,-21.32 269.21,-19.07"/>
<polygon fill="#63b8ff" stroke="#63b8ff" points="349.88,-193.29 354.59,-202.78 356.83,-192.42 349.88,-193.29"/>
</a>
</g>
</g>
<!-- Node24&#45;&gt;Node5 -->
<g id="edge11_Node000024_Node000005" class="edge">
<title>Node24&#45;&gt;Node5</title>
<g id="a_edge11_Node000024_Node000005"><a xlink:title=" ">
<path fill="none" stroke="#63b8ff" d="M164.05,-96.89C160.92,-98.29 157.88,-99.82 155,-101.5 116.45,-124.03 82.06,-165.82 67.66,-184.74"/>
<polygon fill="#63b8ff" stroke="#63b8ff" points="165.63,-100.03 173.65,-93.1 163.06,-93.52 165.63,-100.03"/>
</a>
</g>
</g>
<!-- Node33&#45;&gt;Node2 -->
<g id="edge14_Node000033_Node000002" class="edge">
<title>Node33&#45;&gt;Node2</title>
<g id="a_edge14_Node000033_Node000002"><a xlink:title=" ">
<path fill="none" stroke="#63b8ff" d="M157.45,-25.05C156.6,-25.83 155.78,-26.65 155,-27.5 98.18,-89.64 146.78,-134.01 119,-213.5 105.03,-253.47 78.87,-296.83 66.85,-315.75"/>
<polygon fill="#63b8ff" stroke="#63b8ff" points="159.79,-27.69 165.91,-19.03 155.73,-21.98 159.79,-27.69"/>
</a>
</g>
</g>
</g>
</svg>
