<?xml version="1.0" encoding="UTF-8" standalone="no"?>
<!DOCTYPE svg PUBLIC "-//W3C//DTD SVG 1.1//EN"
 "http://www.w3.org/Graphics/SVG/1.1/DTD/svg11.dtd">
<!-- Generated by graphviz version 2.43.0 (0)
 -->
<!-- Title: DS2DCParser::parse Pages: 1 -->
<svg width="223pt" height="64pt"
 viewBox="0.00 0.00 223.00 64.00" xmlns="http://www.w3.org/2000/svg" xmlns:xlink="http://www.w3.org/1999/xlink">
<g id="graph0" class="graph" transform="scale(1 1) rotate(0) translate(4 60)">
<title>DS2DCParser::parse</title>
<!-- Node1 -->
<g id="Node000001" class="node">
<title>Node1</title>
<g id="a_Node000001"><a xlink:href="structDS2DCParser.html#a0a09e4c428b162be3894a85451a9dd95" target="_top" xlink:title=" ">
<path fill="#fff0f0" stroke="red" stroke-width="2" d="M106.67,-37C106.67,-37 6.33,-37 6.33,-37 3.17,-37 0,-33.83 0,-30.67 0,-30.67 0,-24.33 0,-24.33 0,-21.17 3.17,-18 6.33,-18 6.33,-18 106.67,-18 106.67,-18 109.83,-18 113,-21.17 113,-24.33 113,-24.33 113,-30.67 113,-30.67 113,-33.83 109.83,-37 106.67,-37"/>
<text text-anchor="middle" x="56.5" y="-25" font-family="Helvetica,sans-Serif" font-size="10.00">DS2DCParser::parse</text>
</a>
</g>
</g>
<!-- Node2 -->
<g id="Node000002" class="node">
<title>Node2</title>
<g id="a_Node000002"><a xlink:href="common_8cpp.html#a143f5fa72a5c2aa56901ad78710eb4c2" target="_top" xlink:title="crc&#45;24q parity compute crc&#45;24q parity for sbas, rtcm3 see reference [2] A.4.3.3 Parity">
<path fill="#fff0f0" stroke="red" d="M200.17,-56C200.17,-56 163.83,-56 163.83,-56 160.67,-56 157.5,-52.83 157.5,-49.67 157.5,-49.67 157.5,-43.33 157.5,-43.33 157.5,-40.17 160.67,-37 163.83,-37 163.83,-37 200.17,-37 200.17,-37 203.33,-37 206.5,-40.17 206.5,-43.33 206.5,-43.33 206.5,-49.67 206.5,-49.67 206.5,-52.83 203.33,-56 200.17,-56"/>
<text text-anchor="middle" x="182" y="-44" font-family="Helvetica,sans-Serif" font-size="10.00">crc24q</text>
</a>
</g>
</g>
<!-- Node1&#45;&gt;Node2 -->
<g id="edge1_Node000001_Node000002" class="edge">
<title>Node1&#45;&gt;Node2</title>
<g id="a_edge1_Node000001_Node000002"><a xlink:title=" ">
<path fill="none" stroke="#63b8ff" d="M113.11,-36.06C124.73,-37.84 136.64,-39.68 147.18,-41.3"/>
<polygon fill="#63b8ff" stroke="#63b8ff" points="146.78,-44.78 157.2,-42.84 147.85,-37.86 146.78,-44.78"/>
</a>
</g>
</g>
<!-- Node3 -->
<g id="Node000003" class="node">
<title>Node3</title>
<g id="a_Node000003"><a xlink:href="gTime_8cpp.html#a6ab7d9a372acf84508cf00f0befd6095" target="_top" xlink:title=" ">
<path fill="#fff0f0" stroke="red" d="M208.67,-19C208.67,-19 155.33,-19 155.33,-19 152.17,-19 149,-15.83 149,-12.67 149,-12.67 149,-6.33 149,-6.33 149,-3.17 152.17,0 155.33,0 155.33,0 208.67,0 208.67,0 211.83,0 215,-3.17 215,-6.33 215,-6.33 215,-12.67 215,-12.67 215,-15.83 211.83,-19 208.67,-19"/>
<text text-anchor="middle" x="182" y="-7" font-family="Helvetica,sans-Serif" font-size="10.00">gpst2time</text>
</a>
</g>
</g>
<!-- Node1&#45;&gt;Node3 -->
<g id="edge2_Node000001_Node000003" class="edge">
<title>Node1&#45;&gt;Node3</title>
<g id="a_edge2_Node000001_Node000003"><a xlink:title=" ">
<path fill="none" stroke="#63b8ff" d="M113.11,-19.4C121.75,-18.14 130.56,-16.85 138.84,-15.65"/>
<polygon fill="#63b8ff" stroke="#63b8ff" points="139.6,-19.07 148.99,-14.16 138.59,-12.14 139.6,-19.07"/>
</a>
</g>
</g>
</g>
</svg>
