<?xml version="1.0" encoding="UTF-8" standalone="no"?>
<!DOCTYPE svg PUBLIC "-//W3C//DTD SVG 1.1//EN"
 "http://www.w3.org/Graphics/SVG/1.1/DTD/svg11.dtd">
<!-- Generated by graphviz version 2.43.0 (0)
 -->
<!-- Title: RtcmTrace::traceSsrEph Pages: 1 -->
<svg width="345pt" height="64pt"
 viewBox="0.00 0.00 345.00 64.00" xmlns="http://www.w3.org/2000/svg" xmlns:xlink="http://www.w3.org/1999/xlink">
<g id="graph0" class="graph" transform="scale(1 1) rotate(0) translate(4 60)">
<title>RtcmTrace::traceSsrEph</title>
<!-- Node1 -->
<g id="Node000001" class="node">
<title>Node1</title>
<g id="a_Node000001"><a xlink:href="structRtcmTrace.html#ab77b0368e1844bb77eb8a91845c35673" target="_top" xlink:title=" ">
<path fill="#fff0f0" stroke="red" stroke-width="2" d="M330.67,-37C330.67,-37 212.33,-37 212.33,-37 209.17,-37 206,-33.83 206,-30.67 206,-30.67 206,-24.33 206,-24.33 206,-21.17 209.17,-18 212.33,-18 212.33,-18 330.67,-18 330.67,-18 333.83,-18 337,-21.17 337,-24.33 337,-24.33 337,-30.67 337,-30.67 337,-33.83 333.83,-37 330.67,-37"/>
<text text-anchor="middle" x="271.5" y="-25" font-family="Helvetica,sans-Serif" font-size="10.00">RtcmTrace::traceSsrEph</text>
</a>
</g>
</g>
<!-- Node2 -->
<g id="Node000002" class="node">
<title>Node2</title>
<g id="a_Node000002"><a xlink:href="structRtcmDecoder.html#adae4ba7ddd9f744631b806a5d550fe39" target="_top" xlink:title="decode RTCM SSR messages">
<path fill="#fff0f0" stroke="red" d="M150.17,-56C150.17,-56 19.83,-56 19.83,-56 16.67,-56 13.5,-52.83 13.5,-49.67 13.5,-49.67 13.5,-43.33 13.5,-43.33 13.5,-40.17 16.67,-37 19.83,-37 19.83,-37 150.17,-37 150.17,-37 153.33,-37 156.5,-40.17 156.5,-43.33 156.5,-43.33 156.5,-49.67 156.5,-49.67 156.5,-52.83 153.33,-56 150.17,-56"/>
<text text-anchor="middle" x="85" y="-44" font-family="Helvetica,sans-Serif" font-size="10.00">RtcmDecoder::decodeSSR</text>
</a>
</g>
</g>
<!-- Node1&#45;&gt;Node2 -->
<g id="edge1_Node000001_Node000002" class="edge">
<title>Node1&#45;&gt;Node2</title>
<g id="a_edge1_Node000001_Node000002"><a xlink:title=" ">
<path fill="none" stroke="#63b8ff" d="M195.77,-35.2C182.9,-36.52 169.55,-37.9 156.78,-39.21"/>
<polygon fill="#63b8ff" stroke="#63b8ff" points="196.38,-38.65 205.97,-34.15 195.66,-31.69 196.38,-38.65"/>
</a>
</g>
</g>
<!-- Node5 -->
<g id="Node000005" class="node">
<title>Node5</title>
<g id="a_Node000005"><a xlink:href="structRtcmEncoder.html#a9a9812f3f6389d6d39eb59a0faff70b7" target="_top" xlink:title="encode orbit/clock messages">
<path fill="#fff0f0" stroke="red" d="M163.67,-19C163.67,-19 6.33,-19 6.33,-19 3.17,-19 0,-15.83 0,-12.67 0,-12.67 0,-6.33 0,-6.33 0,-3.17 3.17,0 6.33,0 6.33,0 163.67,0 163.67,0 166.83,0 170,-3.17 170,-6.33 170,-6.33 170,-12.67 170,-12.67 170,-15.83 166.83,-19 163.67,-19"/>
<text text-anchor="middle" x="85" y="-7" font-family="Helvetica,sans-Serif" font-size="10.00">RtcmEncoder::encodeSsrOrbClk</text>
</a>
</g>
</g>
<!-- Node1&#45;&gt;Node5 -->
<g id="edge2_Node000001_Node000005" class="edge">
<title>Node1&#45;&gt;Node5</title>
<g id="a_edge2_Node000001_Node000005"><a xlink:title=" ">
<path fill="none" stroke="#63b8ff" d="M195.83,-20.21C187.41,-19.39 178.8,-18.55 170.27,-17.72"/>
<polygon fill="#63b8ff" stroke="#63b8ff" points="195.68,-23.72 205.97,-21.2 196.36,-16.75 195.68,-23.72"/>
</a>
</g>
</g>
</g>
</svg>
