<?xml version="1.0" encoding="UTF-8" standalone="no"?>
<!DOCTYPE svg PUBLIC "-//W3C//DTD SVG 1.1//EN"
 "http://www.w3.org/Graphics/SVG/1.1/DTD/svg11.dtd">
<!-- Generated by graphviz version 2.43.0 (0)
 -->
<!-- Title: PppOptions Pages: 1 -->
<svg width="1021pt" height="704pt"
 viewBox="0.00 0.00 1021.00 704.00" xmlns="http://www.w3.org/2000/svg" xmlns:xlink="http://www.w3.org/1999/xlink">
<g id="graph0" class="graph" transform="scale(1 1) rotate(0) translate(4 700)">
<title>PppOptions</title>
<!-- Node1 -->
<g id="Node000001" class="node">
<title>Node1</title>
<g id="a_Node000001"><a xlink:href="structPppOptions.html" target="_top" xlink:title="Options associated with the ppp processing mode of operation.">
<path fill="white" stroke="#666666" stroke-width="2" d="M790.5,-177C790.5,-177 674.5,-177 674.5,-177 668.5,-177 662.5,-171 662.5,-165 662.5,-165 662.5,-12 662.5,-12 662.5,-6 668.5,0 674.5,0 674.5,0 790.5,0 790.5,0 796.5,0 802.5,-6 802.5,-12 802.5,-12 802.5,-165 802.5,-165 802.5,-171 796.5,-177 790.5,-177"/>
<text text-anchor="start" x="704.5" y="-160.5" font-family="Helvetica,sans-Serif" font-size="10.00">PppOptions</text>
<text text-anchor="start" x="674.5" y="-145.5" font-family="Helvetica,sans-Serif" font-size="10.00">+</text>
<text text-anchor="start" x="687.5" y="-145.5" font-family="Helvetica,sans-Serif" font-size="10.00">equate_ionospheres</text>
<text text-anchor="start" x="674.5" y="-130.5" font-family="Helvetica,sans-Serif" font-size="10.00">+</text>
<text text-anchor="start" x="687.5" y="-130.5" font-family="Helvetica,sans-Serif" font-size="10.00">equate_tropospheres</text>
<text text-anchor="start" x="674.5" y="-115.5" font-family="Helvetica,sans-Serif" font-size="10.00">+</text>
<text text-anchor="start" x="687.5" y="-115.5" font-family="Helvetica,sans-Serif" font-size="10.00">use_rtk_combo</text>
<text text-anchor="start" x="674.5" y="-100.5" font-family="Helvetica,sans-Serif" font-size="10.00">+</text>
<text text-anchor="start" x="687.5" y="-100.5" font-family="Helvetica,sans-Serif" font-size="10.00">add_eop_component</text>
<text text-anchor="start" x="674.5" y="-85.5" font-family="Helvetica,sans-Serif" font-size="10.00">+</text>
<text text-anchor="start" x="687.5" y="-85.5" font-family="Helvetica,sans-Serif" font-size="10.00">satellite_chunking</text>
<text text-anchor="start" x="674.5" y="-70.5" font-family="Helvetica,sans-Serif" font-size="10.00">+</text>
<text text-anchor="start" x="687.5" y="-70.5" font-family="Helvetica,sans-Serif" font-size="10.00">receiver_chunking</text>
<text text-anchor="start" x="674.5" y="-55.5" font-family="Helvetica,sans-Serif" font-size="10.00">+</text>
<text text-anchor="start" x="687.5" y="-55.5" font-family="Helvetica,sans-Serif" font-size="10.00">chunk_size</text>
<text text-anchor="start" x="674.5" y="-40.5" font-family="Helvetica,sans-Serif" font-size="10.00">+</text>
<text text-anchor="start" x="687.5" y="-40.5" font-family="Helvetica,sans-Serif" font-size="10.00">nuke_enable</text>
<text text-anchor="start" x="674.5" y="-25.5" font-family="Helvetica,sans-Serif" font-size="10.00">+</text>
<text text-anchor="start" x="687.5" y="-25.5" font-family="Helvetica,sans-Serif" font-size="10.00">nuke_interval</text>
<text text-anchor="start" x="730.5" y="-10.5" font-family="Helvetica,sans-Serif" font-size="10.00"> </text>
<polygon fill="#666666" stroke="#666666" points="670.5,-155.5 670.5,-155.5 794.5,-155.5 794.5,-155.5 670.5,-155.5"/>
<polygon fill="#666666" stroke="#666666" points="670.5,-20.5 670.5,-20.5 685.5,-20.5 685.5,-20.5 670.5,-20.5"/>
<polygon fill="#666666" stroke="#666666" points="685.5,-20.5 685.5,-20.5 794.5,-20.5 794.5,-20.5 685.5,-20.5"/>
<polygon fill="none" stroke="#666666" points="670.5,-4 670.5,-173 794.5,-173 794.5,-4 670.5,-4"/>
</a>
</g>
</g>
<!-- Node2 -->
<g id="Node000002" class="node">
<title>Node2</title>
<g id="a_Node000002"><a xlink:href="structFilterOptions.html" target="_top" xlink:title=" ">
<path fill="white" stroke="#666666" d="M348,-382C348,-382 237,-382 237,-382 231,-382 225,-376 225,-370 225,-370 225,-247 225,-247 225,-241 231,-235 237,-235 237,-235 348,-235 348,-235 354,-235 360,-241 360,-247 360,-247 360,-370 360,-370 360,-376 354,-382 348,-382"/>
<text text-anchor="start" x="261.5" y="-365.5" font-family="Helvetica,sans-Serif" font-size="10.00">FilterOptions</text>
<text text-anchor="start" x="237.5" y="-350.5" font-family="Helvetica,sans-Serif" font-size="10.00">+</text>
<text text-anchor="start" x="250.5" y="-350.5" font-family="Helvetica,sans-Serif" font-size="10.00">chi_square_test</text>
<text text-anchor="start" x="237.5" y="-335.5" font-family="Helvetica,sans-Serif" font-size="10.00">+</text>
<text text-anchor="start" x="250.5" y="-335.5" font-family="Helvetica,sans-Serif" font-size="10.00">chi_square_mode</text>
<text text-anchor="start" x="237.5" y="-320.5" font-family="Helvetica,sans-Serif" font-size="10.00">+</text>
<text text-anchor="start" x="250.5" y="-320.5" font-family="Helvetica,sans-Serif" font-size="10.00">simulate_filter_only</text>
<text text-anchor="start" x="237.5" y="-305.5" font-family="Helvetica,sans-Serif" font-size="10.00">+</text>
<text text-anchor="start" x="250.5" y="-305.5" font-family="Helvetica,sans-Serif" font-size="10.00">assume_linearity</text>
<text text-anchor="start" x="237.5" y="-290.5" font-family="Helvetica,sans-Serif" font-size="10.00">+</text>
<text text-anchor="start" x="250.5" y="-290.5" font-family="Helvetica,sans-Serif" font-size="10.00">advanced_postfits</text>
<text text-anchor="start" x="237.5" y="-275.5" font-family="Helvetica,sans-Serif" font-size="10.00">+</text>
<text text-anchor="start" x="250.5" y="-275.5" font-family="Helvetica,sans-Serif" font-size="10.00">joseph_stabilisation</text>
<text text-anchor="start" x="237.5" y="-260.5" font-family="Helvetica,sans-Serif" font-size="10.00">+</text>
<text text-anchor="start" x="250.5" y="-260.5" font-family="Helvetica,sans-Serif" font-size="10.00">inverter</text>
<text text-anchor="start" x="291" y="-245.5" font-family="Helvetica,sans-Serif" font-size="10.00"> </text>
<polygon fill="#666666" stroke="#666666" points="233.5,-360.5 233.5,-360.5 352.5,-360.5 352.5,-360.5 233.5,-360.5"/>
<polygon fill="#666666" stroke="#666666" points="233.5,-255.5 233.5,-255.5 248.5,-255.5 248.5,-255.5 233.5,-255.5"/>
<polygon fill="#666666" stroke="#666666" points="248.5,-255.5 248.5,-255.5 352.5,-255.5 352.5,-255.5 248.5,-255.5"/>
<polygon fill="none" stroke="#666666" points="233,-239 233,-378 352,-378 352,-239 233,-239"/>
</a>
</g>
</g>
<!-- Node2&#45;&gt;Node1 -->
<g id="edge1_Node000001_Node000002" class="edge">
<title>Node2&#45;&gt;Node1</title>
<g id="a_edge1_Node000001_Node000002"><a xlink:title=" ">
<path fill="none" stroke="#63b8ff" d="M369.38,-269.41C452.09,-228.43 582.49,-163.82 662.45,-124.2"/>
<polygon fill="none" stroke="#63b8ff" points="367.69,-266.34 360.29,-273.92 370.8,-272.61 367.69,-266.34"/>
</a>
</g>
</g>
<!-- Node3 -->
<g id="Node000003" class="node">
<title>Node3</title>
<g id="a_Node000003"><a xlink:href="structRtsOptions.html" target="_top" xlink:title=" ">
<path fill="#fff0f0" stroke="red" d="M280,-592C280,-592 149,-592 149,-592 143,-592 137,-586 137,-580 137,-580 137,-487 137,-487 137,-481 143,-475 149,-475 149,-475 280,-475 280,-475 286,-475 292,-481 292,-487 292,-487 292,-580 292,-580 292,-586 286,-592 280,-592"/>
<text text-anchor="start" x="188" y="-575.5" font-family="Helvetica,sans-Serif" font-size="10.00">RtsOptions</text>
<text text-anchor="start" x="149.5" y="-560.5" font-family="Helvetica,sans-Serif" font-size="10.00">+</text>
<text text-anchor="start" x="162.5" y="-560.5" font-family="Helvetica,sans-Serif" font-size="10.00">rts_lag</text>
<text text-anchor="start" x="149.5" y="-545.5" font-family="Helvetica,sans-Serif" font-size="10.00">+</text>
<text text-anchor="start" x="162.5" y="-545.5" font-family="Helvetica,sans-Serif" font-size="10.00">rts_interval</text>
<text text-anchor="start" x="149.5" y="-530.5" font-family="Helvetica,sans-Serif" font-size="10.00">+</text>
<text text-anchor="start" x="162.5" y="-530.5" font-family="Helvetica,sans-Serif" font-size="10.00">output_intermediate_rts</text>
<text text-anchor="start" x="149.5" y="-515.5" font-family="Helvetica,sans-Serif" font-size="10.00">+</text>
<text text-anchor="start" x="162.5" y="-515.5" font-family="Helvetica,sans-Serif" font-size="10.00">queue_rts_outputs</text>
<text text-anchor="start" x="149.5" y="-500.5" font-family="Helvetica,sans-Serif" font-size="10.00">+</text>
<text text-anchor="start" x="162.5" y="-500.5" font-family="Helvetica,sans-Serif" font-size="10.00">rts_inverter</text>
<text text-anchor="start" x="213" y="-485.5" font-family="Helvetica,sans-Serif" font-size="10.00"> </text>
<polygon fill="red" stroke="red" points="145.5,-570.5 145.5,-570.5 284.5,-570.5 284.5,-570.5 145.5,-570.5"/>
<polygon fill="red" stroke="red" points="145.5,-495.5 145.5,-495.5 160.5,-495.5 160.5,-495.5 145.5,-495.5"/>
<polygon fill="red" stroke="red" points="160.5,-495.5 160.5,-495.5 284.5,-495.5 284.5,-495.5 160.5,-495.5"/>
<polygon fill="none" stroke="red" points="145,-479 145,-588 284,-588 284,-479 145,-479"/>
</a>
</g>
</g>
<!-- Node3&#45;&gt;Node2 -->
<g id="edge2_Node000002_Node000003" class="edge">
<title>Node3&#45;&gt;Node2</title>
<g id="a_edge2_Node000002_Node000003"><a xlink:title=" ">
<path fill="none" stroke="#63b8ff" d="M238,-465.3C247.18,-439.06 257.73,-408.91 267.08,-382.17"/>
<polygon fill="none" stroke="#63b8ff" points="234.69,-464.19 234.69,-474.78 241.29,-466.5 234.69,-464.19"/>
</a>
</g>
</g>
<!-- Node5 -->
<g id="Node000005" class="node">
<title>Node5</title>
<g id="a_Node000005"><a xlink:href="structPrefitOptions.html" target="_top" xlink:title=" ">
<path fill="white" stroke="#666666" d="M417,-584.5C417,-584.5 322,-584.5 322,-584.5 316,-584.5 310,-578.5 310,-572.5 310,-572.5 310,-494.5 310,-494.5 310,-488.5 316,-482.5 322,-482.5 322,-482.5 417,-482.5 417,-482.5 423,-482.5 429,-488.5 429,-494.5 429,-494.5 429,-572.5 429,-572.5 429,-578.5 423,-584.5 417,-584.5"/>
<text text-anchor="start" x="338" y="-568.5" font-family="Helvetica,sans-Serif" font-size="10.00">PrefitOptions</text>
<text text-anchor="start" x="322.5" y="-553.5" font-family="Helvetica,sans-Serif" font-size="10.00">+</text>
<text text-anchor="start" x="335.5" y="-553.5" font-family="Helvetica,sans-Serif" font-size="10.00">max_iterations</text>
<text text-anchor="start" x="322.5" y="-538.5" font-family="Helvetica,sans-Serif" font-size="10.00">+</text>
<text text-anchor="start" x="335.5" y="-538.5" font-family="Helvetica,sans-Serif" font-size="10.00">sigma_check</text>
<text text-anchor="start" x="322.5" y="-523.5" font-family="Helvetica,sans-Serif" font-size="10.00">+</text>
<text text-anchor="start" x="335.5" y="-523.5" font-family="Helvetica,sans-Serif" font-size="10.00">sigma_threshold</text>
<text text-anchor="start" x="322.5" y="-508.5" font-family="Helvetica,sans-Serif" font-size="10.00">+</text>
<text text-anchor="start" x="335.5" y="-508.5" font-family="Helvetica,sans-Serif" font-size="10.00">omega_test</text>
<text text-anchor="start" x="368" y="-493.5" font-family="Helvetica,sans-Serif" font-size="10.00"> </text>
<polygon fill="#666666" stroke="#666666" points="318.5,-563.5 318.5,-563.5 421.5,-563.5 421.5,-563.5 318.5,-563.5"/>
<polygon fill="#666666" stroke="#666666" points="318.5,-503.5 318.5,-503.5 333.5,-503.5 333.5,-503.5 318.5,-503.5"/>
<polygon fill="#666666" stroke="#666666" points="333.5,-503.5 333.5,-503.5 421.5,-503.5 421.5,-503.5 333.5,-503.5"/>
<polygon fill="none" stroke="#666666" points="318,-486.5 318,-580.5 421,-580.5 421,-486.5 318,-486.5"/>
</a>
</g>
</g>
<!-- Node5&#45;&gt;Node2 -->
<g id="edge3_Node000002_Node000005" class="edge">
<title>Node5&#45;&gt;Node2</title>
<g id="a_edge3_Node000002_Node000005"><a xlink:title=" ">
<path fill="none" stroke="#63b8ff" d="M352.22,-482.45C343.22,-456.38 331.96,-423.79 321.66,-393.94"/>
<polygon fill="none" stroke="#63b8ff" points="321.53,-393.57 315.79,-389.2 317.61,-382.23 323.35,-386.59 321.53,-393.57"/>
</a>
</g>
<text text-anchor="middle" x="372.5" y="-426" font-family="Helvetica,sans-Serif" font-size="10.00" fill="grey"> +prefitOpts</text>
</g>
<!-- Node6 -->
<g id="Node000006" class="node">
<title>Node6</title>
<g id="a_Node000006"><a xlink:href="structPostfitOptions.html" target="_top" xlink:title=" ">
<path fill="white" stroke="#666666" d="M107,-577C107,-577 12,-577 12,-577 6,-577 0,-571 0,-565 0,-565 0,-502 0,-502 0,-496 6,-490 12,-490 12,-490 107,-490 107,-490 113,-490 119,-496 119,-502 119,-502 119,-565 119,-565 119,-571 113,-577 107,-577"/>
<text text-anchor="start" x="25.5" y="-560.5" font-family="Helvetica,sans-Serif" font-size="10.00">PostfitOptions</text>
<text text-anchor="start" x="12.5" y="-545.5" font-family="Helvetica,sans-Serif" font-size="10.00">+</text>
<text text-anchor="start" x="25.5" y="-545.5" font-family="Helvetica,sans-Serif" font-size="10.00">max_iterations</text>
<text text-anchor="start" x="12.5" y="-530.5" font-family="Helvetica,sans-Serif" font-size="10.00">+</text>
<text text-anchor="start" x="25.5" y="-530.5" font-family="Helvetica,sans-Serif" font-size="10.00">sigma_check</text>
<text text-anchor="start" x="12.5" y="-515.5" font-family="Helvetica,sans-Serif" font-size="10.00">+</text>
<text text-anchor="start" x="25.5" y="-515.5" font-family="Helvetica,sans-Serif" font-size="10.00">sigma_threshold</text>
<text text-anchor="start" x="58" y="-500.5" font-family="Helvetica,sans-Serif" font-size="10.00"> </text>
<polygon fill="#666666" stroke="#666666" points="8.5,-555.5 8.5,-555.5 111.5,-555.5 111.5,-555.5 8.5,-555.5"/>
<polygon fill="#666666" stroke="#666666" points="8.5,-510.5 8.5,-510.5 23.5,-510.5 23.5,-510.5 8.5,-510.5"/>
<polygon fill="#666666" stroke="#666666" points="23.5,-510.5 23.5,-510.5 111.5,-510.5 111.5,-510.5 23.5,-510.5"/>
<polygon fill="none" stroke="#666666" points="8,-494 8,-573 111,-573 111,-494 8,-494"/>
</a>
</g>
</g>
<!-- Node6&#45;&gt;Node2 -->
<g id="edge4_Node000002_Node000006" class="edge">
<title>Node6&#45;&gt;Node2</title>
<g id="a_edge4_Node000002_Node000006"><a xlink:title=" ">
<path fill="none" stroke="#63b8ff" d="M92.32,-489.9C114.05,-462.87 143.89,-427.87 173.5,-400 186.32,-387.93 200.7,-375.9 214.92,-364.74"/>
<polygon fill="none" stroke="#63b8ff" points="215.23,-364.5 217.52,-357.67 224.72,-357.16 222.42,-364 215.23,-364.5"/>
</a>
</g>
<text text-anchor="middle" x="206" y="-426" font-family="Helvetica,sans-Serif" font-size="10.00" fill="grey"> +postfitOpts</text>
</g>
<!-- Node7 -->
<g id="Node000007" class="node">
<title>Node7</title>
<g id="a_Node000007"><a xlink:href="structKalmanModel.html" target="_top" xlink:title="Options associated with kalman filter states.">
<path fill="white" stroke="#666666" d="M720,-337C720,-337 641,-337 641,-337 635,-337 629,-331 629,-325 629,-325 629,-292 629,-292 629,-286 635,-280 641,-280 641,-280 720,-280 720,-280 726,-280 732,-286 732,-292 732,-292 732,-325 732,-325 732,-331 726,-337 720,-337"/>
<text text-anchor="start" x="647" y="-320.5" font-family="Helvetica,sans-Serif" font-size="10.00">KalmanModel</text>
<text text-anchor="start" x="679" y="-305.5" font-family="Helvetica,sans-Serif" font-size="10.00"> </text>
<text text-anchor="start" x="641.5" y="-290.5" font-family="Helvetica,sans-Serif" font-size="10.00">+</text>
<text text-anchor="start" x="654.5" y="-290.5" font-family="Helvetica,sans-Serif" font-size="10.00">operator+=()</text>
<polygon fill="#666666" stroke="#666666" points="637.5,-315.5 637.5,-315.5 724.5,-315.5 724.5,-315.5 637.5,-315.5"/>
<polygon fill="#666666" stroke="#666666" points="637.5,-300.5 637.5,-300.5 724.5,-300.5 724.5,-300.5 637.5,-300.5"/>
<polygon fill="none" stroke="#666666" points="637,-284 637,-333 724,-333 724,-284 637,-284"/>
</a>
</g>
</g>
<!-- Node7&#45;&gt;Node1 -->
<g id="edge5_Node000001_Node000007" class="edge">
<title>Node7&#45;&gt;Node1</title>
<g id="a_edge5_Node000001_Node000007"><a xlink:title=" ">
<path fill="none" stroke="#63b8ff" d="M683.33,-279.97C686.01,-257.04 690.64,-223.62 697.5,-195 697.98,-193 698.48,-190.98 699,-188.96"/>
<polygon fill="none" stroke="#63b8ff" points="699.03,-188.84 696.72,-182.01 702.15,-177.25 704.45,-184.08 699.03,-188.84"/>
</a>
</g>
<text text-anchor="middle" x="726" y="-209" font-family="Helvetica,sans-Serif" font-size="10.00" fill="grey"> +eop</text>
<text text-anchor="middle" x="726" y="-198" font-family="Helvetica,sans-Serif" font-size="10.00" fill="grey">+eop_rates</text>
</g>
<!-- Node8 -->
<g id="Node000008" class="node">
<title>Node8</title>
<g id="a_Node000008"><a xlink:title=" ">
<path fill="white" stroke="#666666" d="M677,-562C677,-562 588,-562 588,-562 582,-562 576,-556 576,-550 576,-550 576,-517 576,-517 576,-511 582,-505 588,-505 588,-505 677,-505 677,-505 683,-505 689,-511 689,-517 689,-517 689,-550 689,-550 689,-556 683,-562 677,-562"/>
<text text-anchor="start" x="589.5" y="-545.5" font-family="Helvetica,sans-Serif" font-size="10.00">vector&lt; double &gt;</text>
<text text-anchor="start" x="631" y="-530.5" font-family="Helvetica,sans-Serif" font-size="10.00"> </text>
<text text-anchor="start" x="631" y="-515.5" font-family="Helvetica,sans-Serif" font-size="10.00"> </text>
<polygon fill="#666666" stroke="#666666" points="584.5,-540.5 584.5,-540.5 681.5,-540.5 681.5,-540.5 584.5,-540.5"/>
<polygon fill="#666666" stroke="#666666" points="584.5,-525.5 584.5,-525.5 681.5,-525.5 681.5,-525.5 584.5,-525.5"/>
<polygon fill="none" stroke="#666666" points="584,-509 584,-558 681,-558 681,-509 584,-509"/>
</a>
</g>
</g>
<!-- Node8&#45;&gt;Node7 -->
<g id="edge6_Node000007_Node000008" class="edge">
<title>Node8&#45;&gt;Node7</title>
<g id="a_edge6_Node000007_Node000008"><a xlink:title=" ">
<path fill="none" stroke="#63b8ff" d="M628.28,-504.86C625.06,-477.71 622.55,-435.34 631.5,-400 636.13,-381.71 645.29,-363.1 654.44,-347.56"/>
<polygon fill="none" stroke="#63b8ff" points="654.44,-347.55 654.17,-340.35 660.72,-337.33 660.99,-344.53 654.44,-347.55"/>
</a>
</g>
<text text-anchor="middle" x="670.5" y="-448" font-family="Helvetica,sans-Serif" font-size="10.00" fill="grey"> +apriori_value</text>
<text text-anchor="middle" x="670.5" y="-437" font-family="Helvetica,sans-Serif" font-size="10.00" fill="grey">+mu</text>
<text text-anchor="middle" x="670.5" y="-426" font-family="Helvetica,sans-Serif" font-size="10.00" fill="grey">+process_noise</text>
<text text-anchor="middle" x="670.5" y="-415" font-family="Helvetica,sans-Serif" font-size="10.00" fill="grey">+sigma</text>
<text text-anchor="middle" x="670.5" y="-404" font-family="Helvetica,sans-Serif" font-size="10.00" fill="grey">+tau</text>
</g>
<!-- Node9 -->
<g id="Node000009" class="node">
<title>Node9</title>
<g id="a_Node000009"><a xlink:title=" ">
<path fill="white" stroke="#666666" d="M835,-696C835,-696 802,-696 802,-696 796,-696 790,-690 790,-684 790,-684 790,-651 790,-651 790,-645 796,-639 802,-639 802,-639 835,-639 835,-639 841,-639 847,-645 847,-651 847,-651 847,-684 847,-684 847,-690 841,-696 835,-696"/>
<text text-anchor="start" x="803.5" y="-679.5" font-family="Helvetica,sans-Serif" font-size="10.00">vector</text>
<text text-anchor="start" x="817" y="-664.5" font-family="Helvetica,sans-Serif" font-size="10.00"> </text>
<text text-anchor="start" x="817" y="-649.5" font-family="Helvetica,sans-Serif" font-size="10.00"> </text>
<polygon fill="#666666" stroke="#666666" points="798.5,-674.5 798.5,-674.5 839.5,-674.5 839.5,-674.5 798.5,-674.5"/>
<polygon fill="#666666" stroke="#666666" points="798.5,-659.5 798.5,-659.5 839.5,-659.5 839.5,-659.5 798.5,-659.5"/>
<polygon fill="none" stroke="#666666" points="798,-643 798,-692 839,-692 839,-643 798,-643"/>
</a>
</g>
</g>
<!-- Node9&#45;&gt;Node8 -->
<g id="edge7_Node000008_Node000009" class="edge">
<title>Node9&#45;&gt;Node8</title>
<g id="a_edge7_Node000008_Node000009"><a xlink:title=" ">
<path fill="none" stroke="orange" d="M780.44,-652.97C761.01,-645.15 737.52,-634.23 718.5,-621 694.51,-604.32 671.39,-580.48 655.18,-562.06"/>
<polygon fill="orange" stroke="orange" points="779.31,-656.29 789.9,-656.67 781.86,-649.77 779.31,-656.29"/>
</a>
</g>
<text text-anchor="middle" x="748" y="-613" font-family="Helvetica,sans-Serif" font-size="10.00" fill="grey"> &lt; double &gt;</text>
</g>
<!-- Node10 -->
<g id="Node000010" class="node">
<title>Node10</title>
<g id="a_Node000010"><a xlink:title=" ">
<path fill="white" stroke="#666666" d="M796,-562C796,-562 719,-562 719,-562 713,-562 707,-556 707,-550 707,-550 707,-517 707,-517 707,-511 713,-505 719,-505 719,-505 796,-505 796,-505 802,-505 808,-511 808,-517 808,-517 808,-550 808,-550 808,-556 802,-562 796,-562"/>
<text text-anchor="start" x="720.5" y="-545.5" font-family="Helvetica,sans-Serif" font-size="10.00">vector&lt; bool &gt;</text>
<text text-anchor="start" x="756" y="-530.5" font-family="Helvetica,sans-Serif" font-size="10.00"> </text>
<text text-anchor="start" x="756" y="-515.5" font-family="Helvetica,sans-Serif" font-size="10.00"> </text>
<polygon fill="#666666" stroke="#666666" points="715.5,-540.5 715.5,-540.5 800.5,-540.5 800.5,-540.5 715.5,-540.5"/>
<polygon fill="#666666" stroke="#666666" points="715.5,-525.5 715.5,-525.5 800.5,-525.5 800.5,-525.5 715.5,-525.5"/>
<polygon fill="none" stroke="#666666" points="715,-509 715,-558 800,-558 800,-509 715,-509"/>
</a>
</g>
</g>
<!-- Node9&#45;&gt;Node10 -->
<g id="edge9_Node000010_Node000009" class="edge">
<title>Node9&#45;&gt;Node10</title>
<g id="a_edge9_Node000010_Node000009"><a xlink:title=" ">
<path fill="none" stroke="orange" d="M790.82,-630.41C788.9,-627.3 787.1,-624.14 785.5,-621 775.99,-602.29 768.8,-579.67 764.09,-562.26"/>
<polygon fill="orange" stroke="orange" points="788.04,-632.55 796.45,-638.99 793.89,-628.71 788.04,-632.55"/>
</a>
</g>
<text text-anchor="middle" x="809" y="-613" font-family="Helvetica,sans-Serif" font-size="10.00" fill="grey"> &lt; bool &gt;</text>
</g>
<!-- Node11 -->
<g id="Node000011" class="node">
<title>Node11</title>
<g id="a_Node000011"><a xlink:title=" ">
<path fill="white" stroke="#666666" d="M922.5,-562C922.5,-562 838.5,-562 838.5,-562 832.5,-562 826.5,-556 826.5,-550 826.5,-550 826.5,-517 826.5,-517 826.5,-511 832.5,-505 838.5,-505 838.5,-505 922.5,-505 922.5,-505 928.5,-505 934.5,-511 934.5,-517 934.5,-517 934.5,-550 934.5,-550 934.5,-556 928.5,-562 922.5,-562"/>
<text text-anchor="start" x="839.5" y="-545.5" font-family="Helvetica,sans-Serif" font-size="10.00">vector&lt; string &gt;</text>
<text text-anchor="start" x="878.5" y="-530.5" font-family="Helvetica,sans-Serif" font-size="10.00"> </text>
<text text-anchor="start" x="878.5" y="-515.5" font-family="Helvetica,sans-Serif" font-size="10.00"> </text>
<polygon fill="#666666" stroke="#666666" points="834.5,-540.5 834.5,-540.5 926.5,-540.5 926.5,-540.5 834.5,-540.5"/>
<polygon fill="#666666" stroke="#666666" points="834.5,-525.5 834.5,-525.5 926.5,-525.5 926.5,-525.5 834.5,-525.5"/>
<polygon fill="none" stroke="#666666" points="834.5,-509 834.5,-558 926.5,-558 926.5,-509 834.5,-509"/>
</a>
</g>
</g>
<!-- Node9&#45;&gt;Node11 -->
<g id="edge11_Node000011_Node000009" class="edge">
<title>Node9&#45;&gt;Node11</title>
<g id="a_edge11_Node000011_Node000009"><a xlink:title=" ">
<path fill="none" stroke="orange" d="M835.78,-629.7C845.84,-608.29 858.31,-581.75 867.52,-562.14"/>
<polygon fill="orange" stroke="orange" points="832.58,-628.29 831.5,-638.83 838.92,-631.27 832.58,-628.29"/>
</a>
</g>
<text text-anchor="middle" x="870.5" y="-613" font-family="Helvetica,sans-Serif" font-size="10.00" fill="grey"> &lt; string &gt;</text>
</g>
<!-- Node15 -->
<g id="Node000015" class="node">
<title>Node15</title>
<g id="a_Node000015"><a xlink:title=" ">
<path fill="white" stroke="#666666" d="M1001,-457C1001,-457 932,-457 932,-457 926,-457 920,-451 920,-445 920,-445 920,-412 920,-412 920,-406 926,-400 932,-400 932,-400 1001,-400 1001,-400 1007,-400 1013,-406 1013,-412 1013,-412 1013,-445 1013,-445 1013,-451 1007,-457 1001,-457"/>
<text text-anchor="start" x="933.5" y="-440.5" font-family="Helvetica,sans-Serif" font-size="10.00">vector&lt; KF &gt;</text>
<text text-anchor="start" x="965" y="-425.5" font-family="Helvetica,sans-Serif" font-size="10.00"> </text>
<text text-anchor="start" x="965" y="-410.5" font-family="Helvetica,sans-Serif" font-size="10.00"> </text>
<polygon fill="#666666" stroke="#666666" points="928.5,-435.5 928.5,-435.5 1005.5,-435.5 1005.5,-435.5 928.5,-435.5"/>
<polygon fill="#666666" stroke="#666666" points="928.5,-420.5 928.5,-420.5 1005.5,-420.5 1005.5,-420.5 928.5,-420.5"/>
<polygon fill="none" stroke="#666666" points="928,-404 928,-453 1005,-453 1005,-404 928,-404"/>
</a>
</g>
</g>
<!-- Node9&#45;&gt;Node15 -->
<g id="edge15_Node000015_Node000009" class="edge">
<title>Node9&#45;&gt;Node15</title>
<g id="a_edge15_Node000015_Node000009"><a xlink:title=" ">
<path fill="none" stroke="orange" d="M856.63,-654.64C885.71,-643.44 923.99,-623.57 943.5,-592 969.26,-550.31 970.79,-491.29 969.02,-457.04"/>
<polygon fill="orange" stroke="orange" points="855.35,-651.38 847.16,-658.11 857.75,-657.96 855.35,-651.38"/>
</a>
</g>
<text text-anchor="middle" x="947" y="-613" font-family="Helvetica,sans-Serif" font-size="10.00" fill="grey"> &lt; KF &gt;</text>
</g>
<!-- Node10&#45;&gt;Node7 -->
<g id="edge8_Node000007_Node000010" class="edge">
<title>Node10&#45;&gt;Node7</title>
<g id="a_edge8_Node000007_Node000010"><a xlink:title=" ">
<path fill="none" stroke="#63b8ff" d="M747.9,-504.71C734.35,-465.46 709.54,-393.59 694.09,-348.86"/>
<polygon fill="none" stroke="#63b8ff" points="694.01,-348.63 688.27,-344.27 690.1,-337.29 695.84,-341.66 694.01,-348.63"/>
</a>
</g>
<text text-anchor="middle" x="781.5" y="-431.5" font-family="Helvetica,sans-Serif" font-size="10.00" fill="grey"> +estimate</text>
<text text-anchor="middle" x="781.5" y="-420.5" font-family="Helvetica,sans-Serif" font-size="10.00" fill="grey">+use_remote_sigma</text>
</g>
<!-- Node11&#45;&gt;Node7 -->
<g id="edge10_Node000007_Node000011" class="edge">
<title>Node11&#45;&gt;Node7</title>
<g id="a_edge10_Node000007_Node000011"><a xlink:title=" ">
<path fill="none" stroke="#63b8ff" d="M870.48,-504.94C865.33,-490.66 859,-472.92 853.5,-457 844.78,-431.76 854.48,-417.72 834.5,-400 804.63,-373.51 781.2,-401.73 746.5,-382 731.29,-373.35 717.65,-359.96 706.78,-347.03"/>
<polygon fill="none" stroke="#63b8ff" points="706.51,-346.69 699.64,-344.5 699.02,-337.31 705.89,-339.5 706.51,-346.69"/>
</a>
</g>
<text text-anchor="middle" x="882.5" y="-426" font-family="Helvetica,sans-Serif" font-size="10.00" fill="grey"> +comment</text>
</g>
<!-- Node12 -->
<g id="Node000012" class="node">
<title>Node12</title>
<g id="a_Node000012"><a xlink:title=" ">
<path fill="#fff0f0" stroke="red" d="M546,-562C546,-562 459,-562 459,-562 453,-562 447,-556 447,-550 447,-550 447,-517 447,-517 447,-511 453,-505 459,-505 459,-505 546,-505 546,-505 552,-505 558,-511 558,-517 558,-517 558,-550 558,-550 558,-556 552,-562 546,-562"/>
<text text-anchor="start" x="460.5" y="-545.5" font-family="Helvetica,sans-Serif" font-size="10.00">map&lt; int, bool &gt;</text>
<text text-anchor="start" x="501" y="-530.5" font-family="Helvetica,sans-Serif" font-size="10.00"> </text>
<text text-anchor="start" x="501" y="-515.5" font-family="Helvetica,sans-Serif" font-size="10.00"> </text>
<polygon fill="red" stroke="red" points="455.5,-540.5 455.5,-540.5 550.5,-540.5 550.5,-540.5 455.5,-540.5"/>
<polygon fill="red" stroke="red" points="455.5,-525.5 455.5,-525.5 550.5,-525.5 550.5,-525.5 455.5,-525.5"/>
<polygon fill="none" stroke="red" points="455,-509 455,-558 550,-558 550,-509 455,-509"/>
</a>
</g>
</g>
<!-- Node12&#45;&gt;Node7 -->
<g id="edge12_Node000007_Node000012" class="edge">
<title>Node12&#45;&gt;Node7</title>
<g id="a_edge12_Node000007_Node000012"><a xlink:title=" ">
<path fill="none" stroke="#63b8ff" d="M504.73,-504.89C508.27,-476.2 517.34,-431.24 540.5,-400 560.36,-373.22 590.7,-352.21 618.06,-337.21"/>
<polygon fill="none" stroke="#63b8ff" points="618.16,-337.16 621.6,-330.82 628.77,-331.55 625.33,-337.89 618.16,-337.16"/>
</a>
</g>
<text text-anchor="middle" x="581" y="-426" font-family="Helvetica,sans-Serif" font-size="10.00" fill="grey"> +initialisedMap</text>
</g>
<!-- Node14 -->
<g id="Node000014" class="node">
<title>Node14</title>
<g id="a_Node000014"><a xlink:href="structIonosphericOptions.html" target="_top" xlink:title="Options associated with the ionospheric modelling processing mode of operation.">
<path fill="white" stroke="#666666" d="M984.5,-359.5C984.5,-359.5 868.5,-359.5 868.5,-359.5 862.5,-359.5 856.5,-353.5 856.5,-347.5 856.5,-347.5 856.5,-269.5 856.5,-269.5 856.5,-263.5 862.5,-257.5 868.5,-257.5 868.5,-257.5 984.5,-257.5 984.5,-257.5 990.5,-257.5 996.5,-263.5 996.5,-269.5 996.5,-269.5 996.5,-347.5 996.5,-347.5 996.5,-353.5 990.5,-359.5 984.5,-359.5"/>
<text text-anchor="start" x="879.5" y="-343.5" font-family="Helvetica,sans-Serif" font-size="10.00">IonosphericOptions</text>
<text text-anchor="start" x="868.5" y="-328.5" font-family="Helvetica,sans-Serif" font-size="10.00">+</text>
<text text-anchor="start" x="881.5" y="-328.5" font-family="Helvetica,sans-Serif" font-size="10.00">corr_mode</text>
<text text-anchor="start" x="868.5" y="-313.5" font-family="Helvetica,sans-Serif" font-size="10.00">+</text>
<text text-anchor="start" x="881.5" y="-313.5" font-family="Helvetica,sans-Serif" font-size="10.00">common_ionosphere</text>
<text text-anchor="start" x="868.5" y="-298.5" font-family="Helvetica,sans-Serif" font-size="10.00">+</text>
<text text-anchor="start" x="881.5" y="-298.5" font-family="Helvetica,sans-Serif" font-size="10.00">use_if_combo</text>
<text text-anchor="start" x="868.5" y="-283.5" font-family="Helvetica,sans-Serif" font-size="10.00">+</text>
<text text-anchor="start" x="881.5" y="-283.5" font-family="Helvetica,sans-Serif" font-size="10.00">use_gf_combo</text>
<text text-anchor="start" x="924.5" y="-268.5" font-family="Helvetica,sans-Serif" font-size="10.00"> </text>
<polygon fill="#666666" stroke="#666666" points="864.5,-338.5 864.5,-338.5 988.5,-338.5 988.5,-338.5 864.5,-338.5"/>
<polygon fill="#666666" stroke="#666666" points="864.5,-278.5 864.5,-278.5 879.5,-278.5 879.5,-278.5 864.5,-278.5"/>
<polygon fill="#666666" stroke="#666666" points="879.5,-278.5 879.5,-278.5 988.5,-278.5 988.5,-278.5 879.5,-278.5"/>
<polygon fill="none" stroke="#666666" points="864.5,-261.5 864.5,-355.5 988.5,-355.5 988.5,-261.5 864.5,-261.5"/>
</a>
</g>
</g>
<!-- Node14&#45;&gt;Node1 -->
<g id="edge13_Node000001_Node000014" class="edge">
<title>Node14&#45;&gt;Node1</title>
<g id="a_edge13_Node000001_Node000014"><a xlink:title=" ">
<path fill="none" stroke="#63b8ff" d="M881.99,-257.49C860.89,-233.77 835.04,-204.72 810.8,-177.49"/>
<polygon fill="none" stroke="#63b8ff" points="810.63,-177.3 803.66,-175.48 802.66,-168.34 809.63,-170.16 810.63,-177.3"/>
</a>
</g>
<text text-anchor="middle" x="868" y="-203.5" font-family="Helvetica,sans-Serif" font-size="10.00" fill="grey"> +ionoOpts</text>
</g>
<!-- Node15&#45;&gt;Node1 -->
<g id="edge14_Node000001_Node000015" class="edge">
<title>Node15&#45;&gt;Node1</title>
<g id="a_edge14_Node000001_Node000015"><a xlink:title=" ">
<path fill="none" stroke="#63b8ff" d="M919.82,-401.5C918.38,-400.97 916.94,-400.46 915.5,-400 886.07,-390.5 799.29,-403.95 777.5,-382 718.51,-322.57 768.17,-277.61 754.5,-195 754.18,-193.09 753.86,-191.17 753.52,-189.23"/>
<polygon fill="none" stroke="#63b8ff" points="753.48,-189 748.49,-183.8 751.36,-177.19 756.36,-182.39 753.48,-189"/>
</a>
</g>
<text text-anchor="middle" x="812.5" y="-306" font-family="Helvetica,sans-Serif" font-size="10.00" fill="grey"> +nuke_states</text>
</g>
</g>
</svg>
