<?xml version="1.0" encoding="UTF-8" standalone="no"?>
<!DOCTYPE svg PUBLIC "-//W3C//DTD SVG 1.1//EN"
 "http://www.w3.org/Graphics/SVG/1.1/DTD/svg11.dtd">
<!-- Generated by graphviz version 2.43.0 (0)
 -->
<!-- Title: Duration::to_int Pages: 1 -->
<svg width="270pt" height="101pt"
 viewBox="0.00 0.00 270.00 101.00" xmlns="http://www.w3.org/2000/svg" xmlns:xlink="http://www.w3.org/1999/xlink">
<g id="graph0" class="graph" transform="scale(1 1) rotate(0) translate(4 97)">
<title>Duration::to_int</title>
<!-- Node1 -->
<g id="Node000001" class="node">
<title>Node1</title>
<g id="a_Node000001"><a xlink:href="structDuration.html#aa0e0c9082c2072b733d2c5ef7dc55973" target="_top" xlink:title=" ">
<path fill="#fff0f0" stroke="red" stroke-width="2" d="M255.67,-56C255.67,-56 176.33,-56 176.33,-56 173.17,-56 170,-52.83 170,-49.67 170,-49.67 170,-43.33 170,-43.33 170,-40.17 173.17,-37 176.33,-37 176.33,-37 255.67,-37 255.67,-37 258.83,-37 262,-40.17 262,-43.33 262,-43.33 262,-49.67 262,-49.67 262,-52.83 258.83,-56 255.67,-56"/>
<text text-anchor="middle" x="216" y="-44" font-family="Helvetica,sans-Serif" font-size="10.00">Duration::to_int</text>
</a>
</g>
</g>
<!-- Node2 -->
<g id="Node000002" class="node">
<title>Node2</title>
<g id="a_Node000002"><a xlink:href="structGTime.html#af1c382fdfacba6418bb148bd4959fe0a" target="_top" xlink:title=" ">
<path fill="#fff0f0" stroke="red" d="M127.17,-93C127.17,-93 6.83,-93 6.83,-93 3.67,-93 0.5,-89.83 0.5,-86.67 0.5,-86.67 0.5,-80.33 0.5,-80.33 0.5,-77.17 3.67,-74 6.83,-74 6.83,-74 127.17,-74 127.17,-74 130.33,-74 133.5,-77.17 133.5,-80.33 133.5,-80.33 133.5,-86.67 133.5,-86.67 133.5,-89.83 130.33,-93 127.17,-93"/>
<text text-anchor="middle" x="67" y="-81" font-family="Helvetica,sans-Serif" font-size="10.00">GTime::operator BWeek</text>
</a>
</g>
</g>
<!-- Node1&#45;&gt;Node2 -->
<g id="edge1_Node000001_Node000002" class="edge">
<title>Node1&#45;&gt;Node2</title>
<g id="a_edge1_Node000001_Node000002"><a xlink:title=" ">
<path fill="none" stroke="#63b8ff" d="M167.35,-58.49C147.47,-63.5 124.7,-69.23 105.98,-73.94"/>
<polygon fill="#63b8ff" stroke="#63b8ff" points="168.3,-61.86 177.14,-56.03 166.59,-55.08 168.3,-61.86"/>
</a>
</g>
</g>
<!-- Node3 -->
<g id="Node000003" class="node">
<title>Node3</title>
<g id="a_Node000003"><a xlink:href="structGTime.html#a6db5d36b744d836a0ac3b915c1a35374" target="_top" xlink:title=" ">
<path fill="#fff0f0" stroke="red" d="M127.67,-56C127.67,-56 6.33,-56 6.33,-56 3.17,-56 0,-52.83 0,-49.67 0,-49.67 0,-43.33 0,-43.33 0,-40.17 3.17,-37 6.33,-37 6.33,-37 127.67,-37 127.67,-37 130.83,-37 134,-40.17 134,-43.33 134,-43.33 134,-49.67 134,-49.67 134,-52.83 130.83,-56 127.67,-56"/>
<text text-anchor="middle" x="67" y="-44" font-family="Helvetica,sans-Serif" font-size="10.00">GTime::operator GWeek</text>
</a>
</g>
</g>
<!-- Node1&#45;&gt;Node3 -->
<g id="edge2_Node000001_Node000003" class="edge">
<title>Node1&#45;&gt;Node3</title>
<g id="a_edge2_Node000001_Node000003"><a xlink:title=" ">
<path fill="none" stroke="#63b8ff" d="M159.46,-46.5C151.22,-46.5 142.66,-46.5 134.23,-46.5"/>
<polygon fill="#63b8ff" stroke="#63b8ff" points="159.7,-50 169.7,-46.5 159.7,-43 159.7,-50"/>
</a>
</g>
</g>
<!-- Node4 -->
<g id="Node000004" class="node">
<title>Node4</title>
<g id="a_Node000004"><a xlink:href="gTime_8cpp.html#a37bc65d232e726cdbc51122a8a8ec00e" target="_top" xlink:title=" ">
<path fill="#fff0f0" stroke="red" d="M91.67,-19C91.67,-19 42.33,-19 42.33,-19 39.17,-19 36,-15.83 36,-12.67 36,-12.67 36,-6.33 36,-6.33 36,-3.17 39.17,0 42.33,0 42.33,0 91.67,0 91.67,0 94.83,0 98,-3.17 98,-6.33 98,-6.33 98,-12.67 98,-12.67 98,-15.83 94.83,-19 91.67,-19"/>
<text text-anchor="middle" x="67" y="-7" font-family="Helvetica,sans-Serif" font-size="10.00">time2yds</text>
</a>
</g>
</g>
<!-- Node1&#45;&gt;Node4 -->
<g id="edge3_Node000001_Node000004" class="edge">
<title>Node1&#45;&gt;Node4</title>
<g id="a_edge3_Node000001_Node000004"><a xlink:title=" ">
<path fill="none" stroke="#63b8ff" d="M167.36,-34.51C144.67,-28.8 118.23,-22.14 98.32,-17.13"/>
<polygon fill="#63b8ff" stroke="#63b8ff" points="166.59,-37.92 177.14,-36.97 168.3,-31.14 166.59,-37.92"/>
</a>
</g>
</g>
</g>
</svg>
