<?xml version="1.0" encoding="UTF-8" standalone="no"?>
<!DOCTYPE svg PUBLIC "-//W3C//DTD SVG 1.1//EN"
 "http://www.w3.org/Graphics/SVG/1.1/DTD/svg11.dtd">
<!-- Generated by graphviz version 2.43.0 (0)
 -->
<!-- Title: SignalInfo Pages: 1 -->
<svg width="89pt" height="95pt"
 viewBox="0.00 0.00 89.00 95.00" xmlns="http://www.w3.org/2000/svg" xmlns:xlink="http://www.w3.org/1999/xlink">
<g id="graph0" class="graph" transform="scale(1 1) rotate(0) translate(4 91)">
<title>SignalInfo</title>
<!-- Node1 -->
<g id="Node000001" class="node">
<title>Node1</title>
<g id="a_Node000001"><a xlink:href="structSignalInfo.html" target="_top" xlink:title=" ">
<path fill="white" stroke="#666666" stroke-width="2" d="M69,-87C69,-87 12,-87 12,-87 6,-87 0,-81 0,-75 0,-75 0,-12 0,-12 0,-6 6,0 12,0 12,0 69,0 69,0 75,0 81,-6 81,-12 81,-12 81,-75 81,-75 81,-81 75,-87 69,-87"/>
<text text-anchor="start" x="16.5" y="-70.5" font-family="Helvetica,sans-Serif" font-size="10.00">SignalInfo</text>
<text text-anchor="start" x="12.5" y="-55.5" font-family="Helvetica,sans-Serif" font-size="10.00">+</text>
<text text-anchor="start" x="25.5" y="-55.5" font-family="Helvetica,sans-Serif" font-size="10.00">signal_id</text>
<text text-anchor="start" x="12.5" y="-40.5" font-family="Helvetica,sans-Serif" font-size="10.00">+</text>
<text text-anchor="start" x="25.5" y="-40.5" font-family="Helvetica,sans-Serif" font-size="10.00">ftype</text>
<text text-anchor="start" x="12.5" y="-25.5" font-family="Helvetica,sans-Serif" font-size="10.00">+</text>
<text text-anchor="start" x="25.5" y="-25.5" font-family="Helvetica,sans-Serif" font-size="10.00">obsCode</text>
<text text-anchor="start" x="39" y="-10.5" font-family="Helvetica,sans-Serif" font-size="10.00"> </text>
<polygon fill="#666666" stroke="#666666" points="8.5,-65.5 8.5,-65.5 73.5,-65.5 73.5,-65.5 8.5,-65.5"/>
<polygon fill="#666666" stroke="#666666" points="8.5,-20.5 8.5,-20.5 23.5,-20.5 23.5,-20.5 8.5,-20.5"/>
<polygon fill="#666666" stroke="#666666" points="23.5,-20.5 23.5,-20.5 73.5,-20.5 73.5,-20.5 23.5,-20.5"/>
<polygon fill="none" stroke="#666666" points="8,-4 8,-83 73,-83 73,-4 8,-4"/>
</a>
</g>
</g>
</g>
</svg>
