<?xml version="1.0" encoding="UTF-8" standalone="no"?>
<!DOCTYPE svg PUBLIC "-//W3C//DTD SVG 1.1//EN"
 "http://www.w3.org/Graphics/SVG/1.1/DTD/svg11.dtd">
<!-- Generated by graphviz version 2.43.0 (0)
 -->
<!-- Title: Sofa::iauGmst Pages: 1 -->
<svg width="324pt" height="64pt"
 viewBox="0.00 0.00 324.00 64.00" xmlns="http://www.w3.org/2000/svg" xmlns:xlink="http://www.w3.org/1999/xlink">
<g id="graph0" class="graph" transform="scale(1 1) rotate(0) translate(4 60)">
<title>Sofa::iauGmst</title>
<!-- Node1 -->
<g id="Node000001" class="node">
<title>Node1</title>
<g id="a_Node000001"><a xlink:href="structSofa.html#a3668c9368947f097705078736820f5e1" target="_top" xlink:title=" ">
<path fill="#fff0f0" stroke="red" stroke-width="2" d="M309.67,-37C309.67,-37 236.33,-37 236.33,-37 233.17,-37 230,-33.83 230,-30.67 230,-30.67 230,-24.33 230,-24.33 230,-21.17 233.17,-18 236.33,-18 236.33,-18 309.67,-18 309.67,-18 312.83,-18 316,-21.17 316,-24.33 316,-24.33 316,-30.67 316,-30.67 316,-33.83 312.83,-37 309.67,-37"/>
<text text-anchor="middle" x="273" y="-25" font-family="Helvetica,sans-Serif" font-size="10.00">Sofa::iauGmst</text>
</a>
</g>
</g>
<!-- Node2 -->
<g id="Node000002" class="node">
<title>Node2</title>
<g id="a_Node000002"><a xlink:href="structFundamentalArgs.html#a91c84943ce3b6a20fdd556d43c4280b5" target="_top" xlink:title=" ">
<path fill="#fff0f0" stroke="red" d="M187.67,-56C187.67,-56 6.33,-56 6.33,-56 3.17,-56 0,-52.83 0,-49.67 0,-49.67 0,-43.33 0,-43.33 0,-40.17 3.17,-37 6.33,-37 6.33,-37 187.67,-37 187.67,-37 190.83,-37 194,-40.17 194,-43.33 194,-43.33 194,-49.67 194,-49.67 194,-52.83 190.83,-56 187.67,-56"/>
<text text-anchor="middle" x="97" y="-44" font-family="Helvetica,sans-Serif" font-size="10.00">FundamentalArgs::FundamentalArgs</text>
</a>
</g>
</g>
<!-- Node1&#45;&gt;Node2 -->
<g id="edge1_Node000001_Node000002" class="edge">
<title>Node1&#45;&gt;Node2</title>
<g id="a_edge1_Node000001_Node000002"><a xlink:title=" ">
<path fill="none" stroke="#63b8ff" d="M219.69,-33.21C208.75,-34.41 196.94,-35.7 185.12,-36.99"/>
<polygon fill="#63b8ff" stroke="#63b8ff" points="220.32,-36.66 229.88,-32.1 219.56,-29.71 220.32,-36.66"/>
</a>
</g>
</g>
<!-- Node3 -->
<g id="Node000003" class="node">
<title>Node3</title>
<g id="a_Node000003"><a xlink:href="tides_8cpp.html#ab9e903f458c0264cff4b22d87c78c477" target="_top" xlink:title="Displacement by solid Earth tide See ref [1] 7.1.1 Note: permanent deformation not removed,...">
<path fill="#fff0f0" stroke="red" d="M133.17,-19C133.17,-19 60.83,-19 60.83,-19 57.67,-19 54.5,-15.83 54.5,-12.67 54.5,-12.67 54.5,-6.33 54.5,-6.33 54.5,-3.17 57.67,0 60.83,0 60.83,0 133.17,0 133.17,0 136.33,0 139.5,-3.17 139.5,-6.33 139.5,-6.33 139.5,-12.67 139.5,-12.67 139.5,-15.83 136.33,-19 133.17,-19"/>
<text text-anchor="middle" x="97" y="-7" font-family="Helvetica,sans-Serif" font-size="10.00">tideSolidEarth</text>
</a>
</g>
</g>
<!-- Node1&#45;&gt;Node3 -->
<g id="edge2_Node000001_Node000003" class="edge">
<title>Node1&#45;&gt;Node3</title>
<g id="a_edge2_Node000001_Node000003"><a xlink:title=" ">
<path fill="none" stroke="#63b8ff" d="M219.61,-22.08C194.04,-19.44 163.71,-16.3 139.73,-13.82"/>
<polygon fill="#63b8ff" stroke="#63b8ff" points="219.57,-25.6 229.88,-23.14 220.29,-18.63 219.57,-25.6"/>
</a>
</g>
</g>
</g>
</svg>
