<?xml version="1.0" encoding="UTF-8" standalone="no"?>
<!DOCTYPE svg PUBLIC "-//W3C//DTD SVG 1.1//EN"
 "http://www.w3.org/Graphics/SVG/1.1/DTD/svg11.dtd">
<!-- Generated by graphviz version 2.43.0 (0)
 -->
<!-- Title: CustomDecoder::decodeESF Pages: 1 -->
<svg width="362pt" height="27pt"
 viewBox="0.00 0.00 362.00 27.00" xmlns="http://www.w3.org/2000/svg" xmlns:xlink="http://www.w3.org/1999/xlink">
<g id="graph0" class="graph" transform="scale(1 1) rotate(0) translate(4 23)">
<title>CustomDecoder::decodeESF</title>
<!-- Node1 -->
<g id="Node000001" class="node">
<title>Node1</title>
<g id="a_Node000001"><a xlink:href="structCustomDecoder.html#a08bfa0a7e2348a70f2da67dc8a6b0c33" target="_top" xlink:title=" ">
<path fill="#fff0f0" stroke="red" stroke-width="2" d="M147.67,-19C147.67,-19 6.33,-19 6.33,-19 3.17,-19 0,-15.83 0,-12.67 0,-12.67 0,-6.33 0,-6.33 0,-3.17 3.17,0 6.33,0 6.33,0 147.67,0 147.67,0 150.83,0 154,-3.17 154,-6.33 154,-6.33 154,-12.67 154,-12.67 154,-15.83 150.83,-19 147.67,-19"/>
<text text-anchor="middle" x="77" y="-7" font-family="Helvetica,sans-Serif" font-size="10.00">CustomDecoder::decodeESF</text>
</a>
</g>
</g>
<!-- Node2 -->
<g id="Node000002" class="node">
<title>Node2</title>
<g id="a_Node000002"><a xlink:href="structCustomDecoder.html#abc180451c6b4a75dd3befe47b0b152ac" target="_top" xlink:title=" ">
<path fill="#fff0f0" stroke="red" d="M347.67,-19C347.67,-19 196.33,-19 196.33,-19 193.17,-19 190,-15.83 190,-12.67 190,-12.67 190,-6.33 190,-6.33 190,-3.17 193.17,0 196.33,0 196.33,0 347.67,0 347.67,0 350.83,0 354,-3.17 354,-6.33 354,-6.33 354,-12.67 354,-12.67 354,-15.83 350.83,-19 347.67,-19"/>
<text text-anchor="middle" x="272" y="-7" font-family="Helvetica,sans-Serif" font-size="10.00">CustomDecoder::decodeMEAS</text>
</a>
</g>
</g>
<!-- Node1&#45;&gt;Node2 -->
<g id="edge1_Node000001_Node000002" class="edge">
<title>Node1&#45;&gt;Node2</title>
<g id="a_edge1_Node000001_Node000002"><a xlink:title=" ">
<path fill="none" stroke="#63b8ff" d="M154,-9.5C162.49,-9.5 171.21,-9.5 179.86,-9.5"/>
<polygon fill="#63b8ff" stroke="#63b8ff" points="179.98,-13 189.98,-9.5 179.98,-6 179.98,-13"/>
</a>
</g>
</g>
</g>
</svg>
