<?xml version="1.0" encoding="UTF-8" standalone="no"?>
<!DOCTYPE svg PUBLIC "-//W3C//DTD SVG 1.1//EN"
 "http://www.w3.org/Graphics/SVG/1.1/DTD/svg11.dtd">
<!-- Generated by graphviz version 2.43.0 (0)
 -->
<!-- Title: CustomParser::parse Pages: 1 -->
<svg width="323pt" height="257pt"
 viewBox="0.00 0.00 323.00 256.50" xmlns="http://www.w3.org/2000/svg" xmlns:xlink="http://www.w3.org/1999/xlink">
<g id="graph0" class="graph" transform="scale(1 1) rotate(0) translate(4 252.5)">
<title>CustomParser::parse</title>
<!-- Node1 -->
<g id="Node000001" class="node">
<title>Node1</title>
<g id="a_Node000001"><a xlink:href="structCustomParser.html#a1b307af55ea236fb3c0c248978844e30" target="_top" xlink:title=" ">
<path fill="#fff0f0" stroke="red" stroke-width="2" d="M110.67,-123C110.67,-123 6.33,-123 6.33,-123 3.17,-123 0,-119.83 0,-116.67 0,-116.67 0,-110.33 0,-110.33 0,-107.17 3.17,-104 6.33,-104 6.33,-104 110.67,-104 110.67,-104 113.83,-104 117,-107.17 117,-110.33 117,-110.33 117,-116.67 117,-116.67 117,-119.83 113.83,-123 110.67,-123"/>
<text text-anchor="middle" x="58.5" y="-111" font-family="Helvetica,sans-Serif" font-size="10.00">CustomParser::parse</text>
</a>
</g>
</g>
<!-- Node2 -->
<g id="Node000002" class="node">
<title>Node2</title>
<g id="a_Node000002"><a xlink:href="structPacketStatistics.html#a080db5e73adbd4447002c7b54f691f03" target="_top" xlink:title=" ">
<path fill="#fff0f0" stroke="red" d="M298,-248.5C298,-248.5 170,-248.5 170,-248.5 165,-248.5 160,-243.5 160,-238.5 160,-238.5 160,-228.5 160,-228.5 160,-223.5 165,-218.5 170,-218.5 170,-218.5 298,-218.5 298,-218.5 303,-218.5 308,-223.5 308,-228.5 308,-228.5 308,-238.5 308,-238.5 308,-243.5 303,-248.5 298,-248.5"/>
<text text-anchor="start" x="168" y="-236.5" font-family="Helvetica,sans-Serif" font-size="10.00">PacketStatistics::nonFrame</text>
<text text-anchor="middle" x="234" y="-225.5" font-family="Helvetica,sans-Serif" font-size="10.00">ByteFound</text>
</a>
</g>
</g>
<!-- Node1&#45;&gt;Node2 -->
<g id="edge1_Node000001_Node000002" class="edge">
<title>Node1&#45;&gt;Node2</title>
<g id="a_edge1_Node000001_Node000002"><a xlink:title=" ">
<path fill="none" stroke="#63b8ff" d="M66.29,-123.25C80.26,-142.59 114.21,-185.98 153,-209.5 155.79,-211.19 158.71,-212.77 161.71,-214.25"/>
<polygon fill="#63b8ff" stroke="#63b8ff" points="160.36,-217.48 170.92,-218.36 163.21,-211.08 160.36,-217.48"/>
</a>
</g>
</g>
<!-- Node3 -->
<g id="Node000003" class="node">
<title>Node3</title>
<g id="a_Node000003"><a xlink:href="structPacketStatistics.html#ac2f8d993a9d06c8241746a66e642e1ca" target="_top" xlink:title=" ">
<path fill="#fff0f0" stroke="red" d="M297,-200.5C297,-200.5 171,-200.5 171,-200.5 166,-200.5 161,-195.5 161,-190.5 161,-190.5 161,-180.5 161,-180.5 161,-175.5 166,-170.5 171,-170.5 171,-170.5 297,-170.5 297,-170.5 302,-170.5 307,-175.5 307,-180.5 307,-180.5 307,-190.5 307,-190.5 307,-195.5 302,-200.5 297,-200.5"/>
<text text-anchor="start" x="169" y="-188.5" font-family="Helvetica,sans-Serif" font-size="10.00">PacketStatistics::preamble</text>
<text text-anchor="middle" x="234" y="-177.5" font-family="Helvetica,sans-Serif" font-size="10.00">Found</text>
</a>
</g>
</g>
<!-- Node1&#45;&gt;Node3 -->
<g id="edge2_Node000001_Node000003" class="edge">
<title>Node1&#45;&gt;Node3</title>
<g id="a_edge2_Node000001_Node000003"><a xlink:title=" ">
<path fill="none" stroke="#63b8ff" d="M75.96,-123.12C94.3,-133.56 125.07,-150.25 153,-161.5 157.96,-163.5 163.15,-165.42 168.4,-167.24"/>
<polygon fill="#63b8ff" stroke="#63b8ff" points="167.29,-170.56 177.89,-170.41 169.51,-163.92 167.29,-170.56"/>
</a>
</g>
</g>
<!-- Node4 -->
<g id="Node000004" class="node">
<title>Node4</title>
<g id="a_Node000004"><a xlink:href="structPacketStatistics.html#a332885ac12f530a7fc8a15dfc81fe747" target="_top" xlink:title=" ">
<path fill="#fff0f0" stroke="red" d="M298.5,-152.5C298.5,-152.5 169.5,-152.5 169.5,-152.5 164.5,-152.5 159.5,-147.5 159.5,-142.5 159.5,-142.5 159.5,-132.5 159.5,-132.5 159.5,-127.5 164.5,-122.5 169.5,-122.5 169.5,-122.5 298.5,-122.5 298.5,-122.5 303.5,-122.5 308.5,-127.5 308.5,-132.5 308.5,-132.5 308.5,-142.5 308.5,-142.5 308.5,-147.5 303.5,-152.5 298.5,-152.5"/>
<text text-anchor="start" x="167.5" y="-140.5" font-family="Helvetica,sans-Serif" font-size="10.00">PacketStatistics::checksum</text>
<text text-anchor="middle" x="234" y="-129.5" font-family="Helvetica,sans-Serif" font-size="10.00">Failure</text>
</a>
</g>
</g>
<!-- Node1&#45;&gt;Node4 -->
<g id="edge3_Node000001_Node000004" class="edge">
<title>Node1&#45;&gt;Node4</title>
<g id="a_edge3_Node000001_Node000004"><a xlink:title=" ">
<path fill="none" stroke="#63b8ff" d="M117.27,-121.49C127.61,-122.92 138.57,-124.44 149.47,-125.94"/>
<polygon fill="#63b8ff" stroke="#63b8ff" points="149.04,-129.42 159.43,-127.32 150,-122.49 149.04,-129.42"/>
</a>
</g>
</g>
<!-- Node5 -->
<g id="Node000005" class="node">
<title>Node5</title>
<g id="a_Node000005"><a xlink:href="structPacketStatistics.html#a2718aa30f1f5cacbd389d6037a1c64a9" target="_top" xlink:title=" ">
<path fill="#fff0f0" stroke="red" d="M298.5,-104.5C298.5,-104.5 169.5,-104.5 169.5,-104.5 164.5,-104.5 159.5,-99.5 159.5,-94.5 159.5,-94.5 159.5,-84.5 159.5,-84.5 159.5,-79.5 164.5,-74.5 169.5,-74.5 169.5,-74.5 298.5,-74.5 298.5,-74.5 303.5,-74.5 308.5,-79.5 308.5,-84.5 308.5,-84.5 308.5,-94.5 308.5,-94.5 308.5,-99.5 303.5,-104.5 298.5,-104.5"/>
<text text-anchor="start" x="167.5" y="-92.5" font-family="Helvetica,sans-Serif" font-size="10.00">PacketStatistics::checksum</text>
<text text-anchor="middle" x="234" y="-81.5" font-family="Helvetica,sans-Serif" font-size="10.00">Success</text>
</a>
</g>
</g>
<!-- Node1&#45;&gt;Node5 -->
<g id="edge4_Node000001_Node000005" class="edge">
<title>Node1&#45;&gt;Node5</title>
<g id="a_edge4_Node000001_Node000005"><a xlink:title=" ">
<path fill="none" stroke="#63b8ff" d="M117.27,-105.51C127.61,-104.08 138.57,-102.56 149.47,-101.06"/>
<polygon fill="#63b8ff" stroke="#63b8ff" points="150,-104.51 159.43,-99.68 149.04,-97.58 150,-104.51"/>
</a>
</g>
</g>
<!-- Node6 -->
<g id="Node000006" class="node">
<title>Node6</title>
<g id="a_Node000006"><a xlink:href="structCustomDecoder.html#aa281dfeccce5bc1fb0cac4b1ead39dcf" target="_top" xlink:title=" ">
<path fill="#fff0f0" stroke="red" d="M308.67,-56C308.67,-56 159.33,-56 159.33,-56 156.17,-56 153,-52.83 153,-49.67 153,-49.67 153,-43.33 153,-43.33 153,-40.17 156.17,-37 159.33,-37 159.33,-37 308.67,-37 308.67,-37 311.83,-37 315,-40.17 315,-43.33 315,-43.33 315,-49.67 315,-49.67 315,-52.83 311.83,-56 308.67,-56"/>
<text text-anchor="middle" x="234" y="-44" font-family="Helvetica,sans-Serif" font-size="10.00">CustomDecoder::recordFrame</text>
</a>
</g>
</g>
<!-- Node1&#45;&gt;Node6 -->
<g id="edge5_Node000001_Node000006" class="edge">
<title>Node1&#45;&gt;Node6</title>
<g id="a_edge5_Node000001_Node000006"><a xlink:title=" ">
<path fill="none" stroke="#63b8ff" d="M75.18,-103.96C93.34,-93.27 124.41,-76.06 153,-65.5 159.98,-62.92 167.44,-60.6 174.89,-58.55"/>
<polygon fill="#63b8ff" stroke="#63b8ff" points="175.85,-61.92 184.64,-56 174.08,-55.15 175.85,-61.92"/>
</a>
</g>
</g>
<!-- Node7 -->
<g id="Node000007" class="node">
<title>Node7</title>
<g id="a_Node000007"><a xlink:href="structCustomDecoder.html#a1904db26f92b7a03abea464d19b8366f" target="_top" xlink:title=" ">
<path fill="#fff0f0" stroke="red" d="M295.67,-19C295.67,-19 172.33,-19 172.33,-19 169.17,-19 166,-15.83 166,-12.67 166,-12.67 166,-6.33 166,-6.33 166,-3.17 169.17,0 172.33,0 172.33,0 295.67,0 295.67,0 298.83,0 302,-3.17 302,-6.33 302,-6.33 302,-12.67 302,-12.67 302,-15.83 298.83,-19 295.67,-19"/>
<text text-anchor="middle" x="234" y="-7" font-family="Helvetica,sans-Serif" font-size="10.00">CustomDecoder::decode</text>
</a>
</g>
</g>
<!-- Node1&#45;&gt;Node7 -->
<g id="edge6_Node000001_Node000007" class="edge">
<title>Node1&#45;&gt;Node7</title>
<g id="a_edge6_Node000001_Node000007"><a xlink:title=" ">
<path fill="none" stroke="#63b8ff" d="M67.12,-103.9C81.78,-86.14 115.75,-48.16 153,-28.5 157.46,-26.15 162.22,-24.08 167.1,-22.27"/>
<polygon fill="#63b8ff" stroke="#63b8ff" points="168.23,-25.58 176.6,-19.08 166.01,-18.94 168.23,-25.58"/>
</a>
</g>
</g>
</g>
</svg>
