<?xml version="1.0" encoding="UTF-8" standalone="no"?>
<!DOCTYPE svg PUBLIC "-//W3C//DTD SVG 1.1//EN"
 "http://www.w3.org/Graphics/SVG/1.1/DTD/svg11.dtd">
<!-- Generated by graphviz version 2.43.0 (0)
 -->
<!-- Title: CommonOptions Pages: 1 -->
<svg width="336pt" height="1162pt"
 viewBox="0.00 0.00 336.00 1162.00" xmlns="http://www.w3.org/2000/svg" xmlns:xlink="http://www.w3.org/1999/xlink">
<g id="graph0" class="graph" transform="scale(1 1) rotate(0) translate(4 1158)">
<title>CommonOptions</title>
<!-- Node1 -->
<g id="Node000001" class="node">
<title>Node1</title>
<g id="a_Node000001"><a xlink:href="structCommonOptions.html" target="_top" xlink:title=" ">
<path fill="white" stroke="#666666" stroke-width="2" d="M226.5,-1154C226.5,-1154 109.5,-1154 109.5,-1154 103.5,-1154 97.5,-1148 97.5,-1142 97.5,-1142 97.5,-731 97.5,-731 97.5,-725 103.5,-719 109.5,-719 109.5,-719 226.5,-719 226.5,-719 232.5,-719 238.5,-725 238.5,-731 238.5,-731 238.5,-1142 238.5,-1142 238.5,-1148 232.5,-1154 226.5,-1154"/>
<text text-anchor="start" x="127.5" y="-1137.5" font-family="Helvetica,sans-Serif" font-size="10.00">CommonOptions</text>
<text text-anchor="start" x="110" y="-1122.5" font-family="Helvetica,sans-Serif" font-size="10.00">+</text>
<text text-anchor="start" x="123" y="-1122.5" font-family="Helvetica,sans-Serif" font-size="10.00">exclude</text>
<text text-anchor="start" x="110" y="-1107.5" font-family="Helvetica,sans-Serif" font-size="10.00">+</text>
<text text-anchor="start" x="123" y="-1107.5" font-family="Helvetica,sans-Serif" font-size="10.00">pseudo_sigma</text>
<text text-anchor="start" x="110" y="-1092.5" font-family="Helvetica,sans-Serif" font-size="10.00">+</text>
<text text-anchor="start" x="123" y="-1092.5" font-family="Helvetica,sans-Serif" font-size="10.00">laser_sigma</text>
<text text-anchor="start" x="110" y="-1077.5" font-family="Helvetica,sans-Serif" font-size="10.00">+</text>
<text text-anchor="start" x="123" y="-1077.5" font-family="Helvetica,sans-Serif" font-size="10.00">clock_codes</text>
<text text-anchor="start" x="110" y="-1062.5" font-family="Helvetica,sans-Serif" font-size="10.00">+</text>
<text text-anchor="start" x="123" y="-1062.5" font-family="Helvetica,sans-Serif" font-size="10.00">apriori_sigma_enu</text>
<text text-anchor="start" x="110" y="-1047.5" font-family="Helvetica,sans-Serif" font-size="10.00">+</text>
<text text-anchor="start" x="123" y="-1047.5" font-family="Helvetica,sans-Serif" font-size="10.00">mincon_scale_apriori</text>
<text text-anchor="start" x="123" y="-1036.5" font-family="Helvetica,sans-Serif" font-size="10.00">_sigma</text>
<text text-anchor="start" x="110" y="-1021.5" font-family="Helvetica,sans-Serif" font-size="10.00">+</text>
<text text-anchor="start" x="123" y="-1021.5" font-family="Helvetica,sans-Serif" font-size="10.00">mincon_scale_filter</text>
<text text-anchor="start" x="123" y="-1010.5" font-family="Helvetica,sans-Serif" font-size="10.00">_sigma</text>
<text text-anchor="start" x="110" y="-995.5" font-family="Helvetica,sans-Serif" font-size="10.00">+</text>
<text text-anchor="start" x="123" y="-995.5" font-family="Helvetica,sans-Serif" font-size="10.00">antenna_boresight</text>
<text text-anchor="start" x="110" y="-980.5" font-family="Helvetica,sans-Serif" font-size="10.00">+</text>
<text text-anchor="start" x="123" y="-980.5" font-family="Helvetica,sans-Serif" font-size="10.00">antenna_azimuth</text>
<text text-anchor="start" x="110" y="-965.5" font-family="Helvetica,sans-Serif" font-size="10.00">+</text>
<text text-anchor="start" x="123" y="-965.5" font-family="Helvetica,sans-Serif" font-size="10.00">ellipse_propagation</text>
<text text-anchor="start" x="123" y="-954.5" font-family="Helvetica,sans-Serif" font-size="10.00">_time_tolerance</text>
<text text-anchor="start" x="110" y="-939.5" font-family="Helvetica,sans-Serif" font-size="10.00">+</text>
<text text-anchor="start" x="123" y="-939.5" font-family="Helvetica,sans-Serif" font-size="10.00">enable</text>
<text text-anchor="start" x="110" y="-924.5" font-family="Helvetica,sans-Serif" font-size="10.00">+</text>
<text text-anchor="start" x="123" y="-924.5" font-family="Helvetica,sans-Serif" font-size="10.00">sources</text>
<text text-anchor="start" x="110" y="-909.5" font-family="Helvetica,sans-Serif" font-size="10.00">+</text>
<text text-anchor="start" x="123" y="-909.5" font-family="Helvetica,sans-Serif" font-size="10.00">posModel</text>
<text text-anchor="start" x="110" y="-894.5" font-family="Helvetica,sans-Serif" font-size="10.00">+</text>
<text text-anchor="start" x="123" y="-894.5" font-family="Helvetica,sans-Serif" font-size="10.00">clockModel</text>
<text text-anchor="start" x="110" y="-879.5" font-family="Helvetica,sans-Serif" font-size="10.00">+</text>
<text text-anchor="start" x="123" y="-879.5" font-family="Helvetica,sans-Serif" font-size="10.00">model_dt</text>
<text text-anchor="start" x="110" y="-864.5" font-family="Helvetica,sans-Serif" font-size="10.00">+</text>
<text text-anchor="start" x="123" y="-864.5" font-family="Helvetica,sans-Serif" font-size="10.00">attitudeModel</text>
<text text-anchor="start" x="110" y="-849.5" font-family="Helvetica,sans-Serif" font-size="10.00">+</text>
<text text-anchor="start" x="123" y="-849.5" font-family="Helvetica,sans-Serif" font-size="10.00">default_bias</text>
<text text-anchor="start" x="110" y="-834.5" font-family="Helvetica,sans-Serif" font-size="10.00">+</text>
<text text-anchor="start" x="123" y="-834.5" font-family="Helvetica,sans-Serif" font-size="10.00">undefined_sigma</text>
<text text-anchor="start" x="110" y="-819.5" font-family="Helvetica,sans-Serif" font-size="10.00">+</text>
<text text-anchor="start" x="123" y="-819.5" font-family="Helvetica,sans-Serif" font-size="10.00">codeBiasModel</text>
<text text-anchor="start" x="110" y="-804.5" font-family="Helvetica,sans-Serif" font-size="10.00">+</text>
<text text-anchor="start" x="123" y="-804.5" font-family="Helvetica,sans-Serif" font-size="10.00">phaseBiasModel</text>
<text text-anchor="start" x="110" y="-789.5" font-family="Helvetica,sans-Serif" font-size="10.00">+</text>
<text text-anchor="start" x="123" y="-789.5" font-family="Helvetica,sans-Serif" font-size="10.00">pcoModel</text>
<text text-anchor="start" x="110" y="-774.5" font-family="Helvetica,sans-Serif" font-size="10.00">+</text>
<text text-anchor="start" x="123" y="-774.5" font-family="Helvetica,sans-Serif" font-size="10.00">pcvModel</text>
<text text-anchor="start" x="110" y="-759.5" font-family="Helvetica,sans-Serif" font-size="10.00">+</text>
<text text-anchor="start" x="123" y="-759.5" font-family="Helvetica,sans-Serif" font-size="10.00">phaseWindupModel</text>
<text text-anchor="start" x="110" y="-744.5" font-family="Helvetica,sans-Serif" font-size="10.00">+</text>
<text text-anchor="start" x="123" y="-744.5" font-family="Helvetica,sans-Serif" font-size="10.00">initialisedMap</text>
<text text-anchor="start" x="110" y="-729.5" font-family="Helvetica,sans-Serif" font-size="10.00">+</text>
<text text-anchor="start" x="123" y="-729.5" font-family="Helvetica,sans-Serif" font-size="10.00">operator+=()</text>
<polygon fill="#666666" stroke="#666666" points="106,-1132.5 106,-1132.5 231,-1132.5 231,-1132.5 106,-1132.5"/>
<polygon fill="#666666" stroke="#666666" points="106,-739.5 106,-739.5 121,-739.5 121,-739.5 106,-739.5"/>
<polygon fill="#666666" stroke="#666666" points="121,-739.5 121,-739.5 231,-739.5 231,-739.5 121,-739.5"/>
<polygon fill="none" stroke="#666666" points="105.5,-723 105.5,-1150 230.5,-1150 230.5,-723 105.5,-723"/>
</a>
</g>
</g>
<!-- Node2 -->
<g id="Node000002" class="node">
<title>Node2</title>
<g id="a_Node000002"><a xlink:href="structReceiverOptions.html" target="_top" xlink:title="Options to be applied to kalman filter states for individual receivers.">
<path fill="white" stroke="#666666" d="M152,-683C152,-683 12,-683 12,-683 6,-683 0,-677 0,-671 0,-671 0,-12 0,-12 0,-6 6,0 12,0 12,0 152,0 152,0 158,0 164,-6 164,-12 164,-12 164,-671 164,-671 164,-677 158,-683 152,-683"/>
<text text-anchor="start" x="41.5" y="-666.5" font-family="Helvetica,sans-Serif" font-size="10.00">ReceiverOptions</text>
<text text-anchor="start" x="12" y="-651.5" font-family="Helvetica,sans-Serif" font-size="10.00">+</text>
<text text-anchor="start" x="25" y="-651.5" font-family="Helvetica,sans-Serif" font-size="10.00">_initialised</text>
<text text-anchor="start" x="12" y="-636.5" font-family="Helvetica,sans-Serif" font-size="10.00">+</text>
<text text-anchor="start" x="25" y="-636.5" font-family="Helvetica,sans-Serif" font-size="10.00">id</text>
<text text-anchor="start" x="12" y="-621.5" font-family="Helvetica,sans-Serif" font-size="10.00">+</text>
<text text-anchor="start" x="25" y="-621.5" font-family="Helvetica,sans-Serif" font-size="10.00">rinex23Conv</text>
<text text-anchor="start" x="12" y="-606.5" font-family="Helvetica,sans-Serif" font-size="10.00">+</text>
<text text-anchor="start" x="25" y="-606.5" font-family="Helvetica,sans-Serif" font-size="10.00">kill</text>
<text text-anchor="start" x="12" y="-591.5" font-family="Helvetica,sans-Serif" font-size="10.00">+</text>
<text text-anchor="start" x="25" y="-591.5" font-family="Helvetica,sans-Serif" font-size="10.00">zero_dcb_codes</text>
<text text-anchor="start" x="12" y="-576.5" font-family="Helvetica,sans-Serif" font-size="10.00">+</text>
<text text-anchor="start" x="25" y="-576.5" font-family="Helvetica,sans-Serif" font-size="10.00">apriori_pos</text>
<text text-anchor="start" x="12" y="-561.5" font-family="Helvetica,sans-Serif" font-size="10.00">+</text>
<text text-anchor="start" x="25" y="-561.5" font-family="Helvetica,sans-Serif" font-size="10.00">antenna_type</text>
<text text-anchor="start" x="12" y="-546.5" font-family="Helvetica,sans-Serif" font-size="10.00">+</text>
<text text-anchor="start" x="25" y="-546.5" font-family="Helvetica,sans-Serif" font-size="10.00">receiver_type</text>
<text text-anchor="start" x="12" y="-531.5" font-family="Helvetica,sans-Serif" font-size="10.00">+</text>
<text text-anchor="start" x="25" y="-531.5" font-family="Helvetica,sans-Serif" font-size="10.00">sat_id</text>
<text text-anchor="start" x="12" y="-516.5" font-family="Helvetica,sans-Serif" font-size="10.00">+</text>
<text text-anchor="start" x="25" y="-516.5" font-family="Helvetica,sans-Serif" font-size="10.00">elevation_mask_deg</text>
<text text-anchor="start" x="12" y="-501.5" font-family="Helvetica,sans-Serif" font-size="10.00">+</text>
<text text-anchor="start" x="25" y="-501.5" font-family="Helvetica,sans-Serif" font-size="10.00">enable</text>
<text text-anchor="start" x="12" y="-486.5" font-family="Helvetica,sans-Serif" font-size="10.00">+</text>
<text text-anchor="start" x="25" y="-486.5" font-family="Helvetica,sans-Serif" font-size="10.00">eccentricity</text>
<text text-anchor="start" x="12" y="-471.5" font-family="Helvetica,sans-Serif" font-size="10.00">+</text>
<text text-anchor="start" x="25" y="-471.5" font-family="Helvetica,sans-Serif" font-size="10.00">eccentricityModel</text>
<text text-anchor="start" x="12" y="-456.5" font-family="Helvetica,sans-Serif" font-size="10.00">+</text>
<text text-anchor="start" x="25" y="-456.5" font-family="Helvetica,sans-Serif" font-size="10.00">models</text>
<text text-anchor="start" x="12" y="-441.5" font-family="Helvetica,sans-Serif" font-size="10.00">+</text>
<text text-anchor="start" x="25" y="-441.5" font-family="Helvetica,sans-Serif" font-size="10.00">tropModel</text>
<text text-anchor="start" x="12" y="-426.5" font-family="Helvetica,sans-Serif" font-size="10.00">+</text>
<text text-anchor="start" x="25" y="-426.5" font-family="Helvetica,sans-Serif" font-size="10.00">solid</text>
<text text-anchor="start" x="12" y="-411.5" font-family="Helvetica,sans-Serif" font-size="10.00">+</text>
<text text-anchor="start" x="25" y="-411.5" font-family="Helvetica,sans-Serif" font-size="10.00">otl</text>
<text text-anchor="start" x="12" y="-396.5" font-family="Helvetica,sans-Serif" font-size="10.00">+</text>
<text text-anchor="start" x="25" y="-396.5" font-family="Helvetica,sans-Serif" font-size="10.00">atl</text>
<text text-anchor="start" x="12" y="-381.5" font-family="Helvetica,sans-Serif" font-size="10.00">+</text>
<text text-anchor="start" x="25" y="-381.5" font-family="Helvetica,sans-Serif" font-size="10.00">spole</text>
<text text-anchor="start" x="12" y="-366.5" font-family="Helvetica,sans-Serif" font-size="10.00">+</text>
<text text-anchor="start" x="25" y="-366.5" font-family="Helvetica,sans-Serif" font-size="10.00">opole</text>
<text text-anchor="start" x="12" y="-351.5" font-family="Helvetica,sans-Serif" font-size="10.00">+</text>
<text text-anchor="start" x="25" y="-351.5" font-family="Helvetica,sans-Serif" font-size="10.00">tideModels</text>
<text text-anchor="start" x="12" y="-336.5" font-family="Helvetica,sans-Serif" font-size="10.00">+</text>
<text text-anchor="start" x="25" y="-336.5" font-family="Helvetica,sans-Serif" font-size="10.00">range</text>
<text text-anchor="start" x="12" y="-321.5" font-family="Helvetica,sans-Serif" font-size="10.00">+</text>
<text text-anchor="start" x="25" y="-321.5" font-family="Helvetica,sans-Serif" font-size="10.00">relativity</text>
<text text-anchor="start" x="12" y="-306.5" font-family="Helvetica,sans-Serif" font-size="10.00">+</text>
<text text-anchor="start" x="25" y="-306.5" font-family="Helvetica,sans-Serif" font-size="10.00">relativity2</text>
<text text-anchor="start" x="12" y="-291.5" font-family="Helvetica,sans-Serif" font-size="10.00">+</text>
<text text-anchor="start" x="25" y="-291.5" font-family="Helvetica,sans-Serif" font-size="10.00">sagnac</text>
<text text-anchor="start" x="12" y="-276.5" font-family="Helvetica,sans-Serif" font-size="10.00">+</text>
<text text-anchor="start" x="25" y="-276.5" font-family="Helvetica,sans-Serif" font-size="10.00">integer_ambiguity</text>
<text text-anchor="start" x="12" y="-261.5" font-family="Helvetica,sans-Serif" font-size="10.00">+</text>
<text text-anchor="start" x="25" y="-261.5" font-family="Helvetica,sans-Serif" font-size="10.00">ionospheric_component</text>
<text text-anchor="start" x="12" y="-246.5" font-family="Helvetica,sans-Serif" font-size="10.00">+</text>
<text text-anchor="start" x="25" y="-246.5" font-family="Helvetica,sans-Serif" font-size="10.00">ionospheric_component2</text>
<text text-anchor="start" x="12" y="-231.5" font-family="Helvetica,sans-Serif" font-size="10.00">+</text>
<text text-anchor="start" x="25" y="-231.5" font-family="Helvetica,sans-Serif" font-size="10.00">ionospheric_component3</text>
<text text-anchor="start" x="12" y="-216.5" font-family="Helvetica,sans-Serif" font-size="10.00">+</text>
<text text-anchor="start" x="25" y="-216.5" font-family="Helvetica,sans-Serif" font-size="10.00">ionospheric_model</text>
<text text-anchor="start" x="12" y="-201.5" font-family="Helvetica,sans-Serif" font-size="10.00">+</text>
<text text-anchor="start" x="25" y="-201.5" font-family="Helvetica,sans-Serif" font-size="10.00">tropospheric_map</text>
<text text-anchor="start" x="12" y="-186.5" font-family="Helvetica,sans-Serif" font-size="10.00">+</text>
<text text-anchor="start" x="25" y="-186.5" font-family="Helvetica,sans-Serif" font-size="10.00">eop</text>
<text text-anchor="start" x="12" y="-171.5" font-family="Helvetica,sans-Serif" font-size="10.00">+</text>
<text text-anchor="start" x="25" y="-171.5" font-family="Helvetica,sans-Serif" font-size="10.00">mapping_function</text>
<text text-anchor="start" x="12" y="-156.5" font-family="Helvetica,sans-Serif" font-size="10.00">+</text>
<text text-anchor="start" x="25" y="-156.5" font-family="Helvetica,sans-Serif" font-size="10.00">geomagnetic_field_height</text>
<text text-anchor="start" x="12" y="-141.5" font-family="Helvetica,sans-Serif" font-size="10.00">+</text>
<text text-anchor="start" x="25" y="-141.5" font-family="Helvetica,sans-Serif" font-size="10.00">mapping_function_layer</text>
<text text-anchor="start" x="25" y="-130.5" font-family="Helvetica,sans-Serif" font-size="10.00">_height</text>
<text text-anchor="start" x="12" y="-115.5" font-family="Helvetica,sans-Serif" font-size="10.00">+</text>
<text text-anchor="start" x="25" y="-115.5" font-family="Helvetica,sans-Serif" font-size="10.00">iono_sigma_limit</text>
<text text-anchor="start" x="12" y="-100.5" font-family="Helvetica,sans-Serif" font-size="10.00">+</text>
<text text-anchor="start" x="25" y="-100.5" font-family="Helvetica,sans-Serif" font-size="10.00">error_model</text>
<text text-anchor="start" x="12" y="-85.5" font-family="Helvetica,sans-Serif" font-size="10.00">+</text>
<text text-anchor="start" x="25" y="-85.5" font-family="Helvetica,sans-Serif" font-size="10.00">code_sigma</text>
<text text-anchor="start" x="12" y="-70.5" font-family="Helvetica,sans-Serif" font-size="10.00">+</text>
<text text-anchor="start" x="25" y="-70.5" font-family="Helvetica,sans-Serif" font-size="10.00">phase_sigma</text>
<text text-anchor="start" x="12" y="-55.5" font-family="Helvetica,sans-Serif" font-size="10.00">+</text>
<text text-anchor="start" x="25" y="-55.5" font-family="Helvetica,sans-Serif" font-size="10.00">inheritors</text>
<text text-anchor="start" x="12" y="-40.5" font-family="Helvetica,sans-Serif" font-size="10.00">+</text>
<text text-anchor="start" x="25" y="-40.5" font-family="Helvetica,sans-Serif" font-size="10.00">inheritedFrom</text>
<text text-anchor="start" x="12" y="-25.5" font-family="Helvetica,sans-Serif" font-size="10.00">+</text>
<text text-anchor="start" x="25" y="-25.5" font-family="Helvetica,sans-Serif" font-size="10.00">initialisedMap</text>
<text text-anchor="start" x="12" y="-10.5" font-family="Helvetica,sans-Serif" font-size="10.00">+</text>
<text text-anchor="start" x="25" y="-10.5" font-family="Helvetica,sans-Serif" font-size="10.00">operator+=()</text>
<polygon fill="#666666" stroke="#666666" points="8,-661.5 8,-661.5 156,-661.5 156,-661.5 8,-661.5"/>
<polygon fill="#666666" stroke="#666666" points="8,-20.5 8,-20.5 23,-20.5 23,-20.5 8,-20.5"/>
<polygon fill="#666666" stroke="#666666" points="23,-20.5 23,-20.5 156,-20.5 156,-20.5 23,-20.5"/>
<polygon fill="none" stroke="#666666" points="8,-4 8,-679 156,-679 156,-4 8,-4"/>
</a>
</g>
</g>
<!-- Node1&#45;&gt;Node2 -->
<g id="edge1_Node000001_Node000002" class="edge">
<title>Node1&#45;&gt;Node2</title>
<g id="a_edge1_Node000001_Node000002"><a xlink:title=" ">
<path fill="none" stroke="#63b8ff" d="M135.14,-708.94C133.91,-700.43 132.66,-691.84 131.41,-683.2"/>
<polygon fill="none" stroke="#63b8ff" points="131.69,-709.5 136.59,-718.9 138.62,-708.5 131.69,-709.5"/>
</a>
</g>
</g>
<!-- Node3 -->
<g id="Node000003" class="node">
<title>Node3</title>
<g id="a_Node000003"><a xlink:href="structSatelliteOptions.html" target="_top" xlink:title="Options to be applied to kalman filter states for individual satellites.">
<path fill="white" stroke="#666666" d="M316,-430C316,-430 194,-430 194,-430 188,-430 182,-424 182,-418 182,-418 182,-265 182,-265 182,-259 188,-253 194,-253 194,-253 316,-253 316,-253 322,-253 328,-259 328,-265 328,-265 328,-418 328,-418 328,-424 322,-430 316,-430"/>
<text text-anchor="start" x="215.5" y="-413.5" font-family="Helvetica,sans-Serif" font-size="10.00">SatelliteOptions</text>
<text text-anchor="start" x="194" y="-398.5" font-family="Helvetica,sans-Serif" font-size="10.00">+</text>
<text text-anchor="start" x="207" y="-398.5" font-family="Helvetica,sans-Serif" font-size="10.00">_initialised</text>
<text text-anchor="start" x="194" y="-383.5" font-family="Helvetica,sans-Serif" font-size="10.00">+</text>
<text text-anchor="start" x="207" y="-383.5" font-family="Helvetica,sans-Serif" font-size="10.00">id</text>
<text text-anchor="start" x="194" y="-368.5" font-family="Helvetica,sans-Serif" font-size="10.00">+</text>
<text text-anchor="start" x="207" y="-368.5" font-family="Helvetica,sans-Serif" font-size="10.00">error_model</text>
<text text-anchor="start" x="194" y="-353.5" font-family="Helvetica,sans-Serif" font-size="10.00">+</text>
<text text-anchor="start" x="207" y="-353.5" font-family="Helvetica,sans-Serif" font-size="10.00">code_sigma</text>
<text text-anchor="start" x="194" y="-338.5" font-family="Helvetica,sans-Serif" font-size="10.00">+</text>
<text text-anchor="start" x="207" y="-338.5" font-family="Helvetica,sans-Serif" font-size="10.00">phase_sigma</text>
<text text-anchor="start" x="194" y="-323.5" font-family="Helvetica,sans-Serif" font-size="10.00">+</text>
<text text-anchor="start" x="207" y="-323.5" font-family="Helvetica,sans-Serif" font-size="10.00">inheritors</text>
<text text-anchor="start" x="194" y="-308.5" font-family="Helvetica,sans-Serif" font-size="10.00">+</text>
<text text-anchor="start" x="207" y="-308.5" font-family="Helvetica,sans-Serif" font-size="10.00">inheritedFrom</text>
<text text-anchor="start" x="194" y="-293.5" font-family="Helvetica,sans-Serif" font-size="10.00">+</text>
<text text-anchor="start" x="207" y="-293.5" font-family="Helvetica,sans-Serif" font-size="10.00">initialisedMap</text>
<text text-anchor="start" x="194" y="-278.5" font-family="Helvetica,sans-Serif" font-size="10.00">+</text>
<text text-anchor="start" x="207" y="-278.5" font-family="Helvetica,sans-Serif" font-size="10.00">operator+=()</text>
<text text-anchor="start" x="194" y="-263.5" font-family="Helvetica,sans-Serif" font-size="10.00">+</text>
<text text-anchor="start" x="207" y="-263.5" font-family="Helvetica,sans-Serif" font-size="10.00">uninitialiseInheritors()</text>
<polygon fill="#666666" stroke="#666666" points="190,-408.5 190,-408.5 320,-408.5 320,-408.5 190,-408.5"/>
<polygon fill="#666666" stroke="#666666" points="190,-288.5 190,-288.5 205,-288.5 205,-288.5 190,-288.5"/>
<polygon fill="#666666" stroke="#666666" points="205,-288.5 205,-288.5 320,-288.5 320,-288.5 205,-288.5"/>
<polygon fill="none" stroke="#666666" points="190,-257 190,-426 320,-426 320,-257 190,-257"/>
</a>
</g>
</g>
<!-- Node1&#45;&gt;Node3 -->
<g id="edge2_Node000001_Node000003" class="edge">
<title>Node1&#45;&gt;Node3</title>
<g id="a_edge2_Node000001_Node000003"><a xlink:title=" ">
<path fill="none" stroke="#63b8ff" d="M201.24,-708.9C215.53,-611.51 231.39,-503.46 242.15,-430.09"/>
<polygon fill="none" stroke="#63b8ff" points="197.77,-708.49 199.78,-718.9 204.69,-709.51 197.77,-708.49"/>
</a>
</g>
</g>
</g>
</svg>
