<?xml version="1.0" encoding="UTF-8" standalone="no"?>
<!DOCTYPE svg PUBLIC "-//W3C//DTD SVG 1.1//EN"
 "http://www.w3.org/Graphics/SVG/1.1/DTD/svg11.dtd">
<!-- Generated by graphviz version 2.43.0 (0)
 -->
<!-- Title: SerialStream::getIStream_ptr Pages: 1 -->
<svg width="327pt" height="27pt"
 viewBox="0.00 0.00 327.00 27.00" xmlns="http://www.w3.org/2000/svg" xmlns:xlink="http://www.w3.org/1999/xlink">
<g id="graph0" class="graph" transform="scale(1 1) rotate(0) translate(4 23)">
<title>SerialStream::getIStream_ptr</title>
<!-- Node1 -->
<g id="Node000001" class="node">
<title>Node1</title>
<g id="a_Node000001"><a xlink:href="structSerialStream.html#a230ed90f7d1845cde60eafa64b3c7390" target="_top" xlink:title=" ">
<path fill="#fff0f0" stroke="red" stroke-width="2" d="M151.67,-19C151.67,-19 6.33,-19 6.33,-19 3.17,-19 0,-15.83 0,-12.67 0,-12.67 0,-6.33 0,-6.33 0,-3.17 3.17,0 6.33,0 6.33,0 151.67,0 151.67,0 154.83,0 158,-3.17 158,-6.33 158,-6.33 158,-12.67 158,-12.67 158,-15.83 154.83,-19 151.67,-19"/>
<text text-anchor="middle" x="79" y="-7" font-family="Helvetica,sans-Serif" font-size="10.00">SerialStream::getIStream_ptr</text>
</a>
</g>
</g>
<!-- Node2 -->
<g id="Node000002" class="node">
<title>Node2</title>
<g id="a_Node000002"><a xlink:href="structSerialStream.html#a1ee9cf21c97d0534461a771d03ea4057" target="_top" xlink:title=" ">
<path fill="#fff0f0" stroke="red" d="M312.67,-19C312.67,-19 200.33,-19 200.33,-19 197.17,-19 194,-15.83 194,-12.67 194,-12.67 194,-6.33 194,-6.33 194,-3.17 197.17,0 200.33,0 200.33,0 312.67,0 312.67,0 315.83,0 319,-3.17 319,-6.33 319,-6.33 319,-12.67 319,-12.67 319,-15.83 315.83,-19 312.67,-19"/>
<text text-anchor="middle" x="256.5" y="-7" font-family="Helvetica,sans-Serif" font-size="10.00">SerialStream::getData</text>
</a>
</g>
</g>
<!-- Node1&#45;&gt;Node2 -->
<g id="edge1_Node000001_Node000002" class="edge">
<title>Node1&#45;&gt;Node2</title>
<g id="a_edge1_Node000001_Node000002"><a xlink:title=" ">
<path fill="none" stroke="#63b8ff" d="M158.25,-9.5C166.77,-9.5 175.4,-9.5 183.83,-9.5"/>
<polygon fill="#63b8ff" stroke="#63b8ff" points="183.99,-13 193.99,-9.5 183.99,-6 183.99,-13"/>
</a>
</g>
</g>
</g>
</svg>
