<?xml version="1.0" encoding="UTF-8" standalone="no"?>
<!DOCTYPE svg PUBLIC "-//W3C//DTD SVG 1.1//EN"
 "http://www.w3.org/Graphics/SVG/1.1/DTD/svg11.dtd">
<!-- Generated by graphviz version 2.43.0 (0)
 -->
<!-- Title: RinexStation Pages: 1 -->
<svg width="169pt" height="235pt"
 viewBox="0.00 0.00 168.50 235.00" xmlns="http://www.w3.org/2000/svg" xmlns:xlink="http://www.w3.org/1999/xlink">
<g id="graph0" class="graph" transform="scale(1 1) rotate(0) translate(4 231)">
<title>RinexStation</title>
<!-- Node1 -->
<g id="Node000001" class="node">
<title>Node1</title>
<g id="a_Node000001"><a xlink:href="structRinexStation.html" target="_top" xlink:title=" ">
<path fill="white" stroke="#666666" stroke-width="2" d="M108.5,-57C108.5,-57 43.5,-57 43.5,-57 37.5,-57 31.5,-51 31.5,-45 31.5,-45 31.5,-12 31.5,-12 31.5,-6 37.5,0 43.5,0 43.5,0 108.5,0 108.5,0 114.5,0 120.5,-6 120.5,-12 120.5,-12 120.5,-45 120.5,-45 120.5,-51 114.5,-57 108.5,-57"/>
<text text-anchor="start" x="45" y="-40.5" font-family="Helvetica,sans-Serif" font-size="10.00">RinexStation</text>
<text text-anchor="start" x="74.5" y="-25.5" font-family="Helvetica,sans-Serif" font-size="10.00"> </text>
<text text-anchor="start" x="74.5" y="-10.5" font-family="Helvetica,sans-Serif" font-size="10.00"> </text>
<polygon fill="#666666" stroke="#666666" points="40,-35.5 40,-35.5 113,-35.5 113,-35.5 40,-35.5"/>
<polygon fill="#666666" stroke="#666666" points="40,-20.5 40,-20.5 113,-20.5 113,-20.5 40,-20.5"/>
<polygon fill="none" stroke="#666666" points="39.5,-4 39.5,-53 112.5,-53 112.5,-4 39.5,-4"/>
</a>
</g>
</g>
<!-- Node2 -->
<g id="Node000002" class="node">
<title>Node2</title>
<g id="a_Node000002"><a xlink:title=" ">
<path fill="white" stroke="#666666" d="M42,-227C42,-227 12,-227 12,-227 6,-227 0,-221 0,-215 0,-215 0,-182 0,-182 0,-176 6,-170 12,-170 12,-170 42,-170 42,-170 48,-170 54,-176 54,-182 54,-182 54,-215 54,-215 54,-221 48,-227 42,-227"/>
<text text-anchor="start" x="13" y="-210.5" font-family="Helvetica,sans-Serif" font-size="10.00">string</text>
<text text-anchor="start" x="25" y="-195.5" font-family="Helvetica,sans-Serif" font-size="10.00"> </text>
<text text-anchor="start" x="25" y="-180.5" font-family="Helvetica,sans-Serif" font-size="10.00"> </text>
<polygon fill="#666666" stroke="#666666" points="8,-205.5 8,-205.5 46,-205.5 46,-205.5 8,-205.5"/>
<polygon fill="#666666" stroke="#666666" points="8,-190.5 8,-190.5 46,-190.5 46,-190.5 8,-190.5"/>
<polygon fill="none" stroke="#666666" points="8,-174 8,-223 46,-223 46,-174 8,-174"/>
</a>
</g>
</g>
<!-- Node2&#45;&gt;Node1 -->
<g id="edge1_Node000001_Node000002" class="edge">
<title>Node2&#45;&gt;Node1</title>
<g id="a_edge1_Node000001_Node000002"><a xlink:title=" ">
<path fill="none" stroke="#63b8ff" d="M21.28,-169.96C17.29,-144.26 14.77,-105.43 28,-75 29.24,-72.14 30.76,-69.38 32.48,-66.73"/>
<polygon fill="none" stroke="#63b8ff" points="32.63,-66.53 33.14,-59.34 39.97,-57.04 39.47,-64.23 32.63,-66.53"/>
</a>
</g>
<text text-anchor="middle" x="66" y="-144" font-family="Helvetica,sans-Serif" font-size="10.00" fill="grey"> +antDesc</text>
<text text-anchor="middle" x="66" y="-133" font-family="Helvetica,sans-Serif" font-size="10.00" fill="grey">+antSerial</text>
<text text-anchor="middle" x="66" y="-122" font-family="Helvetica,sans-Serif" font-size="10.00" fill="grey">+id</text>
<text text-anchor="middle" x="66" y="-111" font-family="Helvetica,sans-Serif" font-size="10.00" fill="grey">+marker</text>
<text text-anchor="middle" x="66" y="-100" font-family="Helvetica,sans-Serif" font-size="10.00" fill="grey">+recFWVersion</text>
<text text-anchor="middle" x="66" y="-89" font-family="Helvetica,sans-Serif" font-size="10.00" fill="grey">+recSerial</text>
<text text-anchor="middle" x="66" y="-78" font-family="Helvetica,sans-Serif" font-size="10.00" fill="grey">+recType</text>
</g>
<!-- Node3 -->
<g id="Node000003" class="node">
<title>Node3</title>
<g id="a_Node000003"><a xlink:title=" ">
<path fill="white" stroke="#666666" d="M148.5,-227C148.5,-227 103.5,-227 103.5,-227 97.5,-227 91.5,-221 91.5,-215 91.5,-215 91.5,-182 91.5,-182 91.5,-176 97.5,-170 103.5,-170 103.5,-170 148.5,-170 148.5,-170 154.5,-170 160.5,-176 160.5,-182 160.5,-182 160.5,-215 160.5,-215 160.5,-221 154.5,-227 148.5,-227"/>
<text text-anchor="start" x="105" y="-210.5" font-family="Helvetica,sans-Serif" font-size="10.00">Vector3d</text>
<text text-anchor="start" x="124.5" y="-195.5" font-family="Helvetica,sans-Serif" font-size="10.00"> </text>
<text text-anchor="start" x="124.5" y="-180.5" font-family="Helvetica,sans-Serif" font-size="10.00"> </text>
<polygon fill="#666666" stroke="#666666" points="100,-205.5 100,-205.5 153,-205.5 153,-205.5 100,-205.5"/>
<polygon fill="#666666" stroke="#666666" points="100,-190.5 100,-190.5 153,-190.5 153,-190.5 100,-190.5"/>
<polygon fill="none" stroke="#666666" points="99.5,-174 99.5,-223 152.5,-223 152.5,-174 99.5,-174"/>
</a>
</g>
</g>
<!-- Node3&#45;&gt;Node1 -->
<g id="edge2_Node000001_Node000003" class="edge">
<title>Node3&#45;&gt;Node1</title>
<g id="a_edge2_Node000001_Node000003"><a xlink:title=" ">
<path fill="none" stroke="#63b8ff" d="M124.01,-169.95C121.49,-144.6 115.94,-106.29 104,-75 103.1,-72.63 102.06,-70.25 100.95,-67.88"/>
<polygon fill="none" stroke="#63b8ff" points="100.82,-67.65 94.48,-64.22 95.2,-57.05 101.54,-60.47 100.82,-67.65"/>
</a>
</g>
<text text-anchor="middle" x="134.5" y="-116.5" font-family="Helvetica,sans-Serif" font-size="10.00" fill="grey"> +del</text>
<text text-anchor="middle" x="134.5" y="-105.5" font-family="Helvetica,sans-Serif" font-size="10.00" fill="grey">+pos</text>
</g>
</g>
</svg>
