<?xml version="1.0" encoding="UTF-8" standalone="no"?>
<!DOCTYPE svg PUBLIC "-//W3C//DTD SVG 1.1//EN"
 "http://www.w3.org/Graphics/SVG/1.1/DTD/svg11.dtd">
<!-- Generated by graphviz version 2.43.0 (0)
 -->
<!-- Title: KFMeasEntry::addDsgnEntry Pages: 1 -->
<svg width="495pt" height="789pt"
 viewBox="0.00 0.00 495.00 789.00" xmlns="http://www.w3.org/2000/svg" xmlns:xlink="http://www.w3.org/1999/xlink">
<g id="graph0" class="graph" transform="scale(1 1) rotate(0) translate(4 785)">
<title>KFMeasEntry::addDsgnEntry</title>
<!-- Node1 -->
<g id="Node000001" class="node">
<title>Node1</title>
<g id="a_Node000001"><a xlink:href="structKFMeasEntry.html#a358f854f4544c59fd129e46a1baf0e34" target="_top" xlink:title="Adds a design matrix entry for this measurement.">
<path fill="#fff0f0" stroke="red" stroke-width="2" d="M480.67,-393C480.67,-393 338.33,-393 338.33,-393 335.17,-393 332,-389.83 332,-386.67 332,-386.67 332,-380.33 332,-380.33 332,-377.17 335.17,-374 338.33,-374 338.33,-374 480.67,-374 480.67,-374 483.83,-374 487,-377.17 487,-380.33 487,-380.33 487,-386.67 487,-386.67 487,-389.83 483.83,-393 480.67,-393"/>
<text text-anchor="middle" x="409.5" y="-381" font-family="Helvetica,sans-Serif" font-size="10.00">KFMeasEntry::addDsgnEntry</text>
</a>
</g>
</g>
<!-- Node2 -->
<g id="Node000002" class="node">
<title>Node2</title>
<g id="a_Node000002"><a xlink:href="debug_8cpp.html#ae4e8d5c9ae89428a527a780093a3d872" target="_top" xlink:title=" ">
<path fill="#fff0f0" stroke="red" d="M235.67,-781C235.67,-781 206.33,-781 206.33,-781 203.17,-781 200,-777.83 200,-774.67 200,-774.67 200,-768.33 200,-768.33 200,-765.17 203.17,-762 206.33,-762 206.33,-762 235.67,-762 235.67,-762 238.83,-762 242,-765.17 242,-768.33 242,-768.33 242,-774.67 242,-774.67 242,-777.83 238.83,-781 235.67,-781"/>
<text text-anchor="middle" x="221" y="-769" font-family="Helvetica,sans-Serif" font-size="10.00">accel</text>
</a>
</g>
</g>
<!-- Node1&#45;&gt;Node2 -->
<g id="edge1_Node000001_Node000002" class="edge">
<title>Node1&#45;&gt;Node2</title>
<g id="a_edge1_Node000001_Node000002"><a xlink:title=" ">
<path fill="none" stroke="#63b8ff" d="M408.84,-403.59C408.74,-465.59 399.61,-655.59 296,-753.5 281.59,-767.12 258.66,-770.96 242.14,-771.8"/>
<polygon fill="#63b8ff" stroke="#63b8ff" points="412.34,-403.23 408.77,-393.26 405.34,-403.28 412.34,-403.23"/>
</a>
</g>
</g>
<!-- Node3 -->
<g id="Node000003" class="node">
<title>Node3</title>
<g id="a_Node000003"><a xlink:href="ppp__pseudoobs_8cpp.html#a02995a7f24f39419730eea3b664553cf" target="_top" xlink:title=" ">
<path fill="#fff0f0" stroke="red" d="M263.67,-744C263.67,-744 178.33,-744 178.33,-744 175.17,-744 172,-740.83 172,-737.67 172,-737.67 172,-731.33 172,-731.33 172,-728.17 175.17,-725 178.33,-725 178.33,-725 263.67,-725 263.67,-725 266.83,-725 270,-728.17 270,-731.33 270,-731.33 270,-737.67 270,-737.67 270,-740.83 266.83,-744 263.67,-744"/>
<text text-anchor="middle" x="221" y="-732" font-family="Helvetica,sans-Serif" font-size="10.00">ambgPseudoObs</text>
</a>
</g>
</g>
<!-- Node1&#45;&gt;Node3 -->
<g id="edge2_Node000001_Node000003" class="edge">
<title>Node1&#45;&gt;Node3</title>
<g id="a_edge2_Node000001_Node000003"><a xlink:title=" ">
<path fill="none" stroke="#63b8ff" d="M408.06,-403.48C405.66,-461.26 390.49,-629.91 296,-716.5 288.79,-723.11 279.56,-727.4 270.09,-730.17"/>
<polygon fill="#63b8ff" stroke="#63b8ff" points="411.57,-403.29 408.4,-393.18 404.57,-403.06 411.57,-403.29"/>
</a>
</g>
</g>
<!-- Node8 -->
<g id="Node000008" class="node">
<title>Node8</title>
<g id="a_Node000008"><a xlink:href="ppp__ambres_8cpp.html#ad41d635b049a650ddbe2f7e13d29e85b" target="_top" xlink:title=" ">
<path fill="#fff0f0" stroke="red" d="M289.67,-707C289.67,-707 152.33,-707 152.33,-707 149.17,-707 146,-703.83 146,-700.67 146,-700.67 146,-694.33 146,-694.33 146,-691.17 149.17,-688 152.33,-688 152.33,-688 289.67,-688 289.67,-688 292.83,-688 296,-691.17 296,-694.33 296,-694.33 296,-700.67 296,-700.67 296,-703.83 292.83,-707 289.67,-707"/>
<text text-anchor="middle" x="221" y="-695" font-family="Helvetica,sans-Serif" font-size="10.00">applyBestIntegerAmbiguity</text>
</a>
</g>
</g>
<!-- Node1&#45;&gt;Node8 -->
<g id="edge3_Node000001_Node000008" class="edge">
<title>Node1&#45;&gt;Node8</title>
<g id="a_edge3_Node000001_Node000008"><a xlink:title=" ">
<path fill="none" stroke="#63b8ff" d="M407.11,-403.38C402.28,-456.73 381.44,-604.09 296,-679.5 292.13,-682.91 287.73,-685.7 283.04,-687.98"/>
<polygon fill="#63b8ff" stroke="#63b8ff" points="410.62,-403.47 407.94,-393.22 403.64,-402.91 410.62,-403.47"/>
</a>
</g>
</g>
<!-- Node14 -->
<g id="Node000014" class="node">
<title>Node14</title>
<g id="a_Node000014"><a xlink:href="ppp__ambres_8cpp.html#a604fb46557eb8261b38abf76fb147433" target="_top" xlink:title=" ">
<path fill="#fff0f0" stroke="red" d="M272.67,-670C272.67,-670 169.33,-670 169.33,-670 166.17,-670 163,-666.83 163,-663.67 163,-663.67 163,-657.33 163,-657.33 163,-654.17 166.17,-651 169.33,-651 169.33,-651 272.67,-651 272.67,-651 275.83,-651 279,-654.17 279,-657.33 279,-657.33 279,-663.67 279,-663.67 279,-666.83 275.83,-670 272.67,-670"/>
<text text-anchor="middle" x="221" y="-658" font-family="Helvetica,sans-Serif" font-size="10.00">applyUCAmbiguities</text>
</a>
</g>
</g>
<!-- Node1&#45;&gt;Node14 -->
<g id="edge4_Node000001_Node000014" class="edge">
<title>Node1&#45;&gt;Node14</title>
<g id="a_edge4_Node000001_Node000014"><a xlink:title=" ">
<path fill="none" stroke="#63b8ff" d="M405.94,-403.15C398.55,-451.7 372.55,-578.04 296,-642.5 291.04,-646.67 285.27,-649.91 279.18,-652.41"/>
<polygon fill="#63b8ff" stroke="#63b8ff" points="409.44,-403.44 407.38,-393.04 402.51,-402.45 409.44,-403.44"/>
</a>
</g>
</g>
<!-- Node15 -->
<g id="Node000015" class="node">
<title>Node15</title>
<g id="a_Node000015"><a xlink:href="ppp__obs_8cpp.html#add051d3b2749187ac05342e8d9c21290" target="_top" xlink:title=" ">
<path fill="#fff0f0" stroke="red" d="M260.17,-615C260.17,-615 181.83,-615 181.83,-615 178.67,-615 175.5,-611.83 175.5,-608.67 175.5,-608.67 175.5,-602.33 175.5,-602.33 175.5,-599.17 178.67,-596 181.83,-596 181.83,-596 260.17,-596 260.17,-596 263.33,-596 266.5,-599.17 266.5,-602.33 266.5,-602.33 266.5,-608.67 266.5,-608.67 266.5,-611.83 263.33,-615 260.17,-615"/>
<text text-anchor="middle" x="221" y="-603" font-family="Helvetica,sans-Serif" font-size="10.00">eopAdjustment</text>
</a>
</g>
</g>
<!-- Node1&#45;&gt;Node15 -->
<g id="edge5_Node000001_Node000015" class="edge">
<title>Node1&#45;&gt;Node15</title>
<g id="a_edge5_Node000001_Node000015"><a xlink:title=" ">
<path fill="none" stroke="#63b8ff" d="M403.4,-403.34C391.78,-444.44 359.28,-539.12 296,-587.5 287.49,-594 276.96,-598.19 266.54,-600.88"/>
<polygon fill="#63b8ff" stroke="#63b8ff" points="406.84,-404.03 406.08,-393.46 400.09,-402.19 406.84,-404.03"/>
</a>
</g>
</g>
<!-- Node21 -->
<g id="Node000021" class="node">
<title>Node21</title>
<g id="a_Node000021"><a xlink:href="spp_8cpp.html#ad923112e4e6dfdfc8b050b68851fe1d0" target="_top" xlink:title="Estimate receiver position and biases using code measurements.">
<path fill="#fff0f0" stroke="red" d="M239.17,-578C239.17,-578 202.83,-578 202.83,-578 199.67,-578 196.5,-574.83 196.5,-571.67 196.5,-571.67 196.5,-565.33 196.5,-565.33 196.5,-562.17 199.67,-559 202.83,-559 202.83,-559 239.17,-559 239.17,-559 242.33,-559 245.5,-562.17 245.5,-565.33 245.5,-565.33 245.5,-571.67 245.5,-571.67 245.5,-574.83 242.33,-578 239.17,-578"/>
<text text-anchor="middle" x="221" y="-566" font-family="Helvetica,sans-Serif" font-size="10.00">estpos</text>
</a>
</g>
</g>
<!-- Node1&#45;&gt;Node21 -->
<g id="edge7_Node000001_Node000021" class="edge">
<title>Node1&#45;&gt;Node21</title>
<g id="a_edge7_Node000001_Node000021"><a xlink:title=" ">
<path fill="none" stroke="#63b8ff" d="M401.07,-402.83C386.53,-437.99 350.86,-512.3 296,-550.5 281.24,-560.78 261.28,-565.21 245.81,-567.12"/>
<polygon fill="#63b8ff" stroke="#63b8ff" points="404.44,-403.84 404.9,-393.26 397.94,-401.24 404.44,-403.84"/>
</a>
</g>
</g>
<!-- Node27 -->
<g id="Node000027" class="node">
<title>Node27</title>
<g id="a_Node000027"><a xlink:href="ionoModel_8cpp.html#ae7821a74f98f349d4508712aeced88e1" target="_top" xlink:title="Updating the ionosphere model parameters The ionosphere model should be initialized by calling &#39;confi...">
<path fill="#fff0f0" stroke="red" d="M261.17,-541C261.17,-541 180.83,-541 180.83,-541 177.67,-541 174.5,-537.83 174.5,-534.67 174.5,-534.67 174.5,-528.33 174.5,-528.33 174.5,-525.17 177.67,-522 180.83,-522 180.83,-522 261.17,-522 261.17,-522 264.33,-522 267.5,-525.17 267.5,-528.33 267.5,-528.33 267.5,-534.67 267.5,-534.67 267.5,-537.83 264.33,-541 261.17,-541"/>
<text text-anchor="middle" x="221" y="-529" font-family="Helvetica,sans-Serif" font-size="10.00">filterIonosphere</text>
</a>
</g>
</g>
<!-- Node1&#45;&gt;Node27 -->
<g id="edge8_Node000001_Node000027" class="edge">
<title>Node1&#45;&gt;Node27</title>
<g id="a_edge8_Node000001_Node000027"><a xlink:title=" ">
<path fill="none" stroke="#63b8ff" d="M397.76,-402.06C380.23,-430.62 342.72,-484.98 296,-513.5 287.42,-518.74 277.42,-522.45 267.59,-525.08"/>
<polygon fill="#63b8ff" stroke="#63b8ff" points="400.97,-403.51 403.1,-393.13 394.96,-399.91 400.97,-403.51"/>
</a>
</g>
</g>
<!-- Node28 -->
<g id="Node000028" class="node">
<title>Node28</title>
<g id="a_Node000028"><a xlink:href="ppp__pseudoobs_8cpp.html#a2851c6a4dfd04eb338a17257bfc2b865" target="_top" xlink:title=" ">
<path fill="#fff0f0" stroke="red" d="M261.17,-504C261.17,-504 180.83,-504 180.83,-504 177.67,-504 174.5,-500.83 174.5,-497.67 174.5,-497.67 174.5,-491.33 174.5,-491.33 174.5,-488.17 177.67,-485 180.83,-485 180.83,-485 261.17,-485 261.17,-485 264.33,-485 267.5,-488.17 267.5,-491.33 267.5,-491.33 267.5,-497.67 267.5,-497.67 267.5,-500.83 264.33,-504 261.17,-504"/>
<text text-anchor="middle" x="221" y="-492" font-family="Helvetica,sans-Serif" font-size="10.00">filterPseudoObs</text>
</a>
</g>
</g>
<!-- Node1&#45;&gt;Node28 -->
<g id="edge9_Node000001_Node000028" class="edge">
<title>Node1&#45;&gt;Node28</title>
<g id="a_edge9_Node000001_Node000028"><a xlink:title=" ">
<path fill="none" stroke="#63b8ff" d="M393.02,-400.33C372.75,-421.33 335.17,-456.86 296,-476.5 287.25,-480.88 277.38,-484.24 267.76,-486.79"/>
<polygon fill="#63b8ff" stroke="#63b8ff" points="395.57,-402.72 399.91,-393.05 390.49,-397.91 395.57,-402.72"/>
</a>
</g>
</g>
<!-- Node29 -->
<g id="Node000029" class="node">
<title>Node29</title>
<g id="a_Node000029"><a xlink:href="debug_8cpp.html#a6b386ae3f1e24bab3a4c831fa043a400" target="_top" xlink:title=" ">
<path fill="#fff0f0" stroke="red" d="M249.67,-467C249.67,-467 192.33,-467 192.33,-467 189.17,-467 186,-463.83 186,-460.67 186,-460.67 186,-454.33 186,-454.33 186,-451.17 189.17,-448 192.33,-448 192.33,-448 249.67,-448 249.67,-448 252.83,-448 256,-451.17 256,-454.33 256,-454.33 256,-460.67 256,-460.67 256,-463.83 252.83,-467 249.67,-467"/>
<text text-anchor="middle" x="221" y="-455" font-family="Helvetica,sans-Serif" font-size="10.00">infiniteTest</text>
</a>
</g>
</g>
<!-- Node1&#45;&gt;Node29 -->
<g id="edge10_Node000001_Node000029" class="edge">
<title>Node1&#45;&gt;Node29</title>
<g id="a_edge10_Node000001_Node000029"><a xlink:title=" ">
<path fill="none" stroke="#63b8ff" d="M383.42,-398.02C361.08,-410.45 327.2,-428.1 296,-439.5 283.33,-444.13 269.01,-447.92 256.37,-450.82"/>
<polygon fill="#63b8ff" stroke="#63b8ff" points="385.25,-401.01 392.24,-393.05 381.81,-394.91 385.25,-401.01"/>
</a>
</g>
</g>
<!-- Node30 -->
<g id="Node000030" class="node">
<title>Node30</title>
<g id="a_Node000030"><a xlink:href="ppp__pseudoobs_8cpp.html#ae73c509527efa6401eb80a02825fb7fd" target="_top" xlink:title=" ">
<path fill="#fff0f0" stroke="red" d="M260.67,-430C260.67,-430 181.33,-430 181.33,-430 178.17,-430 175,-426.83 175,-423.67 175,-423.67 175,-417.33 175,-417.33 175,-414.17 178.17,-411 181.33,-411 181.33,-411 260.67,-411 260.67,-411 263.83,-411 267,-414.17 267,-417.33 267,-417.33 267,-423.67 267,-423.67 267,-426.83 263.83,-430 260.67,-430"/>
<text text-anchor="middle" x="221" y="-418" font-family="Helvetica,sans-Serif" font-size="10.00">ionoPseudoObs</text>
</a>
</g>
</g>
<!-- Node1&#45;&gt;Node30 -->
<g id="edge11_Node000001_Node000030" class="edge">
<title>Node1&#45;&gt;Node30</title>
<g id="a_edge11_Node000001_Node000030"><a xlink:title=" ">
<path fill="none" stroke="#63b8ff" d="M350.45,-395.02C323.65,-400.33 292.31,-406.55 267.3,-411.51"/>
<polygon fill="#63b8ff" stroke="#63b8ff" points="351.34,-398.41 360.47,-393.03 349.98,-391.54 351.34,-398.41"/>
</a>
</g>
</g>
<!-- Node31 -->
<g id="Node000031" class="node">
<title>Node31</title>
<g id="a_Node000031"><a xlink:href="minimumConstraints_8cpp.html#aa40934b017f373d875c3470591eff52e" target="_top" xlink:title=" ">
<path fill="#fff0f0" stroke="red" d="M241.17,-393C241.17,-393 200.83,-393 200.83,-393 197.67,-393 194.5,-389.83 194.5,-386.67 194.5,-386.67 194.5,-380.33 194.5,-380.33 194.5,-377.17 197.67,-374 200.83,-374 200.83,-374 241.17,-374 241.17,-374 244.33,-374 247.5,-377.17 247.5,-380.33 247.5,-380.33 247.5,-386.67 247.5,-386.67 247.5,-389.83 244.33,-393 241.17,-393"/>
<text text-anchor="middle" x="221" y="-381" font-family="Helvetica,sans-Serif" font-size="10.00">mincon</text>
</a>
</g>
</g>
<!-- Node1&#45;&gt;Node31 -->
<g id="edge12_Node000001_Node000031" class="edge">
<title>Node1&#45;&gt;Node31</title>
<g id="a_edge12_Node000001_Node000031"><a xlink:title=" ">
<path fill="none" stroke="#63b8ff" d="M321.59,-383.5C294.71,-383.5 267.13,-383.5 247.83,-383.5"/>
<polygon fill="#63b8ff" stroke="#63b8ff" points="321.84,-387 331.84,-383.5 321.84,-380 321.84,-387"/>
</a>
</g>
</g>
<!-- Node34 -->
<g id="Node000034" class="node">
<title>Node34</title>
<g id="a_Node000034"><a xlink:href="debug_8cpp.html#a80d24c0bf09dad23394c5fcac25aa80b" target="_top" xlink:title=" ">
<path fill="#fff0f0" stroke="red" d="M90.17,-374C90.17,-374 19.83,-374 19.83,-374 16.67,-374 13.5,-370.83 13.5,-367.67 13.5,-367.67 13.5,-361.33 13.5,-361.33 13.5,-358.17 16.67,-355 19.83,-355 19.83,-355 90.17,-355 90.17,-355 93.33,-355 96.5,-358.17 96.5,-361.33 96.5,-361.33 96.5,-367.67 96.5,-367.67 96.5,-370.83 93.33,-374 90.17,-374"/>
<text text-anchor="middle" x="55" y="-362" font-family="Helvetica,sans-Serif" font-size="10.00">minimumTest</text>
</a>
</g>
</g>
<!-- Node1&#45;&gt;Node34 -->
<g id="edge15_Node000001_Node000034" class="edge">
<title>Node1&#45;&gt;Node34</title>
<g id="a_edge15_Node000001_Node000034"><a xlink:title=" ">
<path fill="none" stroke="#63b8ff" d="M349.51,-372.3C332.32,-369.52 313.47,-366.93 296,-365.5 226.23,-359.81 144.67,-361.16 96.85,-362.76"/>
<polygon fill="#63b8ff" stroke="#63b8ff" points="348.97,-375.76 359.41,-373.96 350.13,-368.86 348.97,-375.76"/>
</a>
</g>
</g>
<!-- Node35 -->
<g id="Node000035" class="node">
<title>Node35</title>
<g id="a_Node000035"><a xlink:href="ppp__pseudoobs_8cpp.html#ac2b5126ef33590aefb40b9f839bc4ba6" target="_top" xlink:title=" ">
<path fill="#fff0f0" stroke="red" d="M103.67,-299C103.67,-299 6.33,-299 6.33,-299 3.17,-299 0,-295.83 0,-292.67 0,-292.67 0,-286.33 0,-286.33 0,-283.17 3.17,-280 6.33,-280 6.33,-280 103.67,-280 103.67,-280 106.83,-280 110,-283.17 110,-286.33 110,-286.33 110,-292.67 110,-292.67 110,-295.83 106.83,-299 103.67,-299"/>
<text text-anchor="middle" x="55" y="-287" font-family="Helvetica,sans-Serif" font-size="10.00">receiverPseudoObs</text>
</a>
</g>
</g>
<!-- Node1&#45;&gt;Node35 -->
<g id="edge18_Node000001_Node000035" class="edge">
<title>Node1&#45;&gt;Node35</title>
<g id="a_edge18_Node000001_Node000035"><a xlink:title=" ">
<path fill="none" stroke="#63b8ff" d="M399.27,-364.54C383.19,-334 346.84,-274.97 296,-251.5 219.21,-216.05 115.48,-259.44 74.12,-279.92"/>
<polygon fill="#63b8ff" stroke="#63b8ff" points="396.28,-366.39 403.93,-373.71 402.52,-363.21 396.28,-366.39"/>
</a>
</g>
</g>
<!-- Node36 -->
<g id="Node000036" class="node">
<title>Node36</title>
<g id="a_Node000036"><a xlink:href="ppp__pseudoobs_8cpp.html#a49ce4050de278a66c933406b92bbbf39" target="_top" xlink:title=" ">
<path fill="#fff0f0" stroke="red" d="M261.17,-317C261.17,-317 180.83,-317 180.83,-317 177.67,-317 174.5,-313.83 174.5,-310.67 174.5,-310.67 174.5,-304.33 174.5,-304.33 174.5,-301.17 177.67,-298 180.83,-298 180.83,-298 261.17,-298 261.17,-298 264.33,-298 267.5,-301.17 267.5,-304.33 267.5,-304.33 267.5,-310.67 267.5,-310.67 267.5,-313.83 264.33,-317 261.17,-317"/>
<text text-anchor="middle" x="221" y="-305" font-family="Helvetica,sans-Serif" font-size="10.00">orbitPseudoObs</text>
</a>
</g>
</g>
<!-- Node1&#45;&gt;Node36 -->
<g id="edge16_Node000001_Node000036" class="edge">
<title>Node1&#45;&gt;Node36</title>
<g id="a_edge16_Node000001_Node000036"><a xlink:title=" ">
<path fill="none" stroke="#63b8ff" d="M380.7,-369.52C358.17,-358.47 325.45,-343.03 296,-331.5 282.54,-326.23 267.41,-321.17 254.35,-317.07"/>
<polygon fill="#63b8ff" stroke="#63b8ff" points="379.18,-372.67 389.69,-373.96 382.28,-366.4 379.18,-372.67"/>
</a>
</g>
</g>
<!-- Node37 -->
<g id="Node000037" class="node">
<title>Node37</title>
<g id="a_Node000037"><a xlink:href="ppp__pseudoobs_8cpp.html#accfefc993178e71db6783bbe525342a7" target="_top" xlink:title=" ">
<path fill="#fff0f0" stroke="red" d="M259.17,-280C259.17,-280 182.83,-280 182.83,-280 179.67,-280 176.5,-276.83 176.5,-273.67 176.5,-273.67 176.5,-267.33 176.5,-267.33 176.5,-264.17 179.67,-261 182.83,-261 182.83,-261 259.17,-261 259.17,-261 262.33,-261 265.5,-264.17 265.5,-267.33 265.5,-267.33 265.5,-273.67 265.5,-273.67 265.5,-276.83 262.33,-280 259.17,-280"/>
<text text-anchor="middle" x="221" y="-268" font-family="Helvetica,sans-Serif" font-size="10.00">pseudoRecDcb</text>
</a>
</g>
</g>
<!-- Node1&#45;&gt;Node37 -->
<g id="edge17_Node000001_Node000037" class="edge">
<title>Node1&#45;&gt;Node37</title>
<g id="a_edge17_Node000001_Node000037"><a xlink:title=" ">
<path fill="none" stroke="#63b8ff" d="M393.02,-366.57C372.75,-345.42 335.16,-309.58 296,-289.5 286.68,-284.72 276.06,-281.08 265.84,-278.33"/>
<polygon fill="#63b8ff" stroke="#63b8ff" points="390.5,-369 399.9,-373.89 395.6,-364.21 390.5,-369"/>
</a>
</g>
</g>
<!-- Node20 -->
<g id="Node000020" class="node">
<title>Node20</title>
<g id="a_Node000020"><a xlink:href="ppp__slr_8cpp.html#a0f53eb82b1b0572a1aabec8b6fe5a6ad" target="_top" xlink:title=" ">
<path fill="#fff0f0" stroke="red" d="M249.17,-204C249.17,-204 192.83,-204 192.83,-204 189.67,-204 186.5,-200.83 186.5,-197.67 186.5,-197.67 186.5,-191.33 186.5,-191.33 186.5,-188.17 189.67,-185 192.83,-185 192.83,-185 249.17,-185 249.17,-185 252.33,-185 255.5,-188.17 255.5,-191.33 255.5,-191.33 255.5,-197.67 255.5,-197.67 255.5,-200.83 252.33,-204 249.17,-204"/>
<text text-anchor="middle" x="221" y="-192" font-family="Helvetica,sans-Serif" font-size="10.00">receiverSlr</text>
</a>
</g>
</g>
<!-- Node1&#45;&gt;Node20 -->
<g id="edge19_Node000001_Node000020" class="edge">
<title>Node1&#45;&gt;Node20</title>
<g id="a_edge19_Node000001_Node000020"><a xlink:title=" ">
<path fill="none" stroke="#63b8ff" d="M400.51,-364.3C385.27,-329.99 348.81,-258.06 296,-218.5 284.22,-209.67 269.05,-204.01 255.52,-200.42"/>
<polygon fill="#63b8ff" stroke="#63b8ff" points="397.38,-365.87 404.55,-373.66 403.8,-363.09 397.38,-365.87"/>
</a>
</g>
</g>
<!-- Node17 -->
<g id="Node000017" class="node">
<title>Node17</title>
<g id="a_Node000017"><a xlink:href="ppp__obs_8cpp.html#a375577932a02b1ae21ad60b7e39b040e" target="_top" xlink:title=" ">
<path fill="#fff0f0" stroke="red" d="M267.17,-167C267.17,-167 174.83,-167 174.83,-167 171.67,-167 168.5,-163.83 168.5,-160.67 168.5,-160.67 168.5,-154.33 168.5,-154.33 168.5,-151.17 171.67,-148 174.83,-148 174.83,-148 267.17,-148 267.17,-148 270.33,-148 273.5,-151.17 273.5,-154.33 273.5,-154.33 273.5,-160.67 273.5,-160.67 273.5,-163.83 270.33,-167 267.17,-167"/>
<text text-anchor="middle" x="221" y="-155" font-family="Helvetica,sans-Serif" font-size="10.00">receiverUducGnss</text>
</a>
</g>
</g>
<!-- Node1&#45;&gt;Node17 -->
<g id="edge20_Node000001_Node000017" class="edge">
<title>Node1&#45;&gt;Node17</title>
<g id="a_edge20_Node000001_Node000017"><a xlink:title=" ">
<path fill="none" stroke="#63b8ff" d="M403.75,-364.13C392.56,-322.69 360.47,-225.2 296,-175.5 289.4,-170.41 281.57,-166.74 273.51,-164.09"/>
<polygon fill="#63b8ff" stroke="#63b8ff" points="400.37,-365.01 406.26,-373.82 407.14,-363.26 400.37,-365.01"/>
</a>
</g>
</g>
<!-- Node38 -->
<g id="Node000038" class="node">
<title>Node38</title>
<g id="a_Node000038"><a xlink:href="ppp__pseudoobs_8cpp.html#a52383a80aee53c1d20ad7952dc63ce17" target="_top" xlink:title=" ">
<path fill="#fff0f0" stroke="red" d="M283.17,-130C283.17,-130 158.83,-130 158.83,-130 155.67,-130 152.5,-126.83 152.5,-123.67 152.5,-123.67 152.5,-117.33 152.5,-117.33 152.5,-114.17 155.67,-111 158.83,-111 158.83,-111 283.17,-111 283.17,-111 286.33,-111 289.5,-114.17 289.5,-117.33 289.5,-117.33 289.5,-123.67 289.5,-123.67 289.5,-126.83 286.33,-130 283.17,-130"/>
<text text-anchor="middle" x="221" y="-118" font-family="Helvetica,sans-Serif" font-size="10.00">satClockPivotPseudoObs</text>
</a>
</g>
</g>
<!-- Node1&#45;&gt;Node38 -->
<g id="edge21_Node000001_Node000038" class="edge">
<title>Node1&#45;&gt;Node38</title>
<g id="a_edge21_Node000001_Node000038"><a xlink:title=" ">
<path fill="none" stroke="#63b8ff" d="M405.43,-363.97C397.03,-317.33 369.23,-198.88 296,-138.5 291.92,-135.14 287.31,-132.38 282.43,-130.13"/>
<polygon fill="#63b8ff" stroke="#63b8ff" points="402,-364.69 407.13,-373.96 408.9,-363.52 402,-364.69"/>
</a>
</g>
</g>
<!-- Node39 -->
<g id="Node000039" class="node">
<title>Node39</title>
<g id="a_Node000039"><a xlink:href="ppp__pseudoobs_8cpp.html#a0df461e27bceaa75ec50285c2abf8f27" target="_top" xlink:title=" ">
<path fill="#fff0f0" stroke="red" d="M259.67,-93C259.67,-93 182.33,-93 182.33,-93 179.17,-93 176,-89.83 176,-86.67 176,-86.67 176,-80.33 176,-80.33 176,-77.17 179.17,-74 182.33,-74 182.33,-74 259.67,-74 259.67,-74 262.83,-74 266,-77.17 266,-80.33 266,-80.33 266,-86.67 266,-86.67 266,-89.83 262.83,-93 259.67,-93"/>
<text text-anchor="middle" x="221" y="-81" font-family="Helvetica,sans-Serif" font-size="10.00">tropPseudoObs</text>
</a>
</g>
</g>
<!-- Node1&#45;&gt;Node39 -->
<g id="edge22_Node000001_Node000039" class="edge">
<title>Node1&#45;&gt;Node39</title>
<g id="a_edge22_Node000001_Node000039"><a xlink:title=" ">
<path fill="none" stroke="#63b8ff" d="M406.72,-363.87C400.96,-312.43 378.15,-172.82 296,-101.5 287.71,-94.31 277.02,-89.88 266.35,-87.19"/>
<polygon fill="#63b8ff" stroke="#63b8ff" points="403.25,-364.37 407.75,-373.96 410.21,-363.65 403.25,-364.37"/>
</a>
</g>
</g>
<!-- Node40 -->
<g id="Node000040" class="node">
<title>Node40</title>
<g id="a_Node000040"><a xlink:href="walkthrough_8cpp.html#af3e41749378ce9de79e7bdb41df88419" target="_top" xlink:title="Ginan kalman filter basics The basic structure for kalman filtering in ginan is the KFState struct,...">
<path fill="#fff0f0" stroke="red" d="M256.17,-56C256.17,-56 185.83,-56 185.83,-56 182.67,-56 179.5,-52.83 179.5,-49.67 179.5,-49.67 179.5,-43.33 179.5,-43.33 179.5,-40.17 182.67,-37 185.83,-37 185.83,-37 256.17,-37 256.17,-37 259.33,-37 262.5,-40.17 262.5,-43.33 262.5,-43.33 262.5,-49.67 262.5,-49.67 262.5,-52.83 259.33,-56 256.17,-56"/>
<text text-anchor="middle" x="221" y="-44" font-family="Helvetica,sans-Serif" font-size="10.00">walkthrough1</text>
</a>
</g>
</g>
<!-- Node1&#45;&gt;Node40 -->
<g id="edge23_Node000001_Node000040" class="edge">
<title>Node1&#45;&gt;Node40</title>
<g id="a_edge23_Node000001_Node000040"><a xlink:title=" ">
<path fill="none" stroke="#63b8ff" d="M407.73,-363.62C404.43,-307.54 387.09,-146.87 296,-64.5 286.88,-56.25 274.62,-51.62 262.71,-49.07"/>
<polygon fill="#63b8ff" stroke="#63b8ff" points="404.25,-364.11 408.24,-373.93 411.24,-363.77 404.25,-364.11"/>
</a>
</g>
</g>
<!-- Node42 -->
<g id="Node000042" class="node">
<title>Node42</title>
<g id="a_Node000042"><a xlink:href="walkthrough_8cpp.html#aff7ddc151473d418c066b30f06e6b42e" target="_top" xlink:title=" ">
<path fill="#fff0f0" stroke="red" d="M256.17,-19C256.17,-19 185.83,-19 185.83,-19 182.67,-19 179.5,-15.83 179.5,-12.67 179.5,-12.67 179.5,-6.33 179.5,-6.33 179.5,-3.17 182.67,0 185.83,0 185.83,0 256.17,0 256.17,0 259.33,0 262.5,-3.17 262.5,-6.33 262.5,-6.33 262.5,-12.67 262.5,-12.67 262.5,-15.83 259.33,-19 256.17,-19"/>
<text text-anchor="middle" x="221" y="-7" font-family="Helvetica,sans-Serif" font-size="10.00">walkthrough2</text>
</a>
</g>
</g>
<!-- Node1&#45;&gt;Node42 -->
<g id="edge24_Node000001_Node000042" class="edge">
<title>Node1&#45;&gt;Node42</title>
<g id="a_edge24_Node000001_Node000042"><a xlink:title=" ">
<path fill="none" stroke="#63b8ff" d="M408.57,-363.75C407.64,-303.63 396.32,-121.27 296,-27.5 287.02,-19.1 274.79,-14.43 262.87,-11.89"/>
<polygon fill="#63b8ff" stroke="#63b8ff" points="405.07,-363.82 408.64,-373.79 412.07,-363.77 405.07,-363.82"/>
</a>
</g>
</g>
<!-- Node15&#45;&gt;Node15 -->
<g id="edge6_Node000015_Node000015" class="edge">
<title>Node15&#45;&gt;Node15</title>
<g id="a_edge6_Node000015_Node000015"><a xlink:title=" ">
<path fill="none" stroke="#63b8ff" d="M251.99,-623.82C250.69,-629.01 240.36,-633 221,-633 191.5,-633 182.97,-623.73 195.41,-615.08"/>
<polygon fill="#63b8ff" stroke="#63b8ff" points="254.82,-621.75 246.59,-615.08 248.87,-625.43 254.82,-621.75"/>
</a>
</g>
</g>
<!-- Node31&#45;&gt;Node34 -->
<g id="edge13_Node000031_Node000034" class="edge">
<title>Node31&#45;&gt;Node34</title>
<g id="a_edge13_Node000031_Node000034"><a xlink:title=" ">
<path fill="none" stroke="#63b8ff" d="M184.28,-379.36C158.49,-376.37 123.62,-372.33 96.75,-369.22"/>
<polygon fill="#63b8ff" stroke="#63b8ff" points="184.04,-382.86 194.38,-380.53 184.84,-375.9 184.04,-382.86"/>
</a>
</g>
</g>
<!-- Node31&#45;&gt;Node35 -->
<g id="edge14_Node000031_Node000035" class="edge">
<title>Node31&#45;&gt;Node35</title>
<g id="a_edge14_Node000031_Node000035"><a xlink:title=" ">
<path fill="none" stroke="#63b8ff" d="M194.51,-368.89C160.55,-349.43 101.43,-315.54 72.67,-299.06"/>
<polygon fill="#63b8ff" stroke="#63b8ff" points="192.96,-372.03 203.37,-373.97 196.44,-365.96 192.96,-372.03"/>
</a>
</g>
</g>
</g>
</svg>
