<?xml version="1.0" encoding="UTF-8" standalone="no"?>
<!DOCTYPE svg PUBLIC "-//W3C//DTD SVG 1.1//EN"
 "http://www.w3.org/Graphics/SVG/1.1/DTD/svg11.dtd">
<!-- Generated by graphviz version 2.43.0 (0)
 -->
<!-- Title: otl_input Pages: 1 -->
<svg width="140pt" height="371pt"
 viewBox="0.00 0.00 140.00 371.00" xmlns="http://www.w3.org/2000/svg" xmlns:xlink="http://www.w3.org/1999/xlink">
<g id="graph0" class="graph" transform="scale(1 1) rotate(0) translate(4 367)">
<title>otl_input</title>
<!-- Node1 -->
<g id="Node000001" class="node">
<title>Node1</title>
<g id="a_Node000001"><a xlink:href="structotl__input.html" target="_top" xlink:title=" ">
<path fill="white" stroke="#666666" stroke-width="2" d="M90,-237C90,-237 12,-237 12,-237 6,-237 0,-231 0,-225 0,-225 0,-12 0,-12 0,-6 6,0 12,0 12,0 90,0 90,0 96,0 102,-6 102,-12 102,-12 102,-225 102,-225 102,-231 96,-237 90,-237"/>
<text text-anchor="start" x="29.5" y="-220.5" font-family="Helvetica,sans-Serif" font-size="10.00">otl_input</text>
<text text-anchor="start" x="12" y="-205.5" font-family="Helvetica,sans-Serif" font-size="10.00">+</text>
<text text-anchor="start" x="25" y="-205.5" font-family="Helvetica,sans-Serif" font-size="10.00">tide_file</text>
<text text-anchor="start" x="12" y="-190.5" font-family="Helvetica,sans-Serif" font-size="10.00">+</text>
<text text-anchor="start" x="25" y="-190.5" font-family="Helvetica,sans-Serif" font-size="10.00">xyz_coords</text>
<text text-anchor="start" x="12" y="-175.5" font-family="Helvetica,sans-Serif" font-size="10.00">+</text>
<text text-anchor="start" x="25" y="-175.5" font-family="Helvetica,sans-Serif" font-size="10.00">lon</text>
<text text-anchor="start" x="12" y="-160.5" font-family="Helvetica,sans-Serif" font-size="10.00">+</text>
<text text-anchor="start" x="25" y="-160.5" font-family="Helvetica,sans-Serif" font-size="10.00">lat</text>
<text text-anchor="start" x="12" y="-145.5" font-family="Helvetica,sans-Serif" font-size="10.00">+</text>
<text text-anchor="start" x="25" y="-145.5" font-family="Helvetica,sans-Serif" font-size="10.00">code</text>
<text text-anchor="start" x="12" y="-130.5" font-family="Helvetica,sans-Serif" font-size="10.00">+</text>
<text text-anchor="start" x="25" y="-130.5" font-family="Helvetica,sans-Serif" font-size="10.00">dispZ_in</text>
<text text-anchor="start" x="12" y="-115.5" font-family="Helvetica,sans-Serif" font-size="10.00">+</text>
<text text-anchor="start" x="25" y="-115.5" font-family="Helvetica,sans-Serif" font-size="10.00">dispEW_in</text>
<text text-anchor="start" x="12" y="-100.5" font-family="Helvetica,sans-Serif" font-size="10.00">+</text>
<text text-anchor="start" x="25" y="-100.5" font-family="Helvetica,sans-Serif" font-size="10.00">dispNS_in</text>
<text text-anchor="start" x="12" y="-85.5" font-family="Helvetica,sans-Serif" font-size="10.00">+</text>
<text text-anchor="start" x="25" y="-85.5" font-family="Helvetica,sans-Serif" font-size="10.00">dispZ_out</text>
<text text-anchor="start" x="12" y="-70.5" font-family="Helvetica,sans-Serif" font-size="10.00">+</text>
<text text-anchor="start" x="25" y="-70.5" font-family="Helvetica,sans-Serif" font-size="10.00">dispEW_out</text>
<text text-anchor="start" x="12" y="-55.5" font-family="Helvetica,sans-Serif" font-size="10.00">+</text>
<text text-anchor="start" x="25" y="-55.5" font-family="Helvetica,sans-Serif" font-size="10.00">dispNS_out</text>
<text text-anchor="start" x="12" y="-40.5" font-family="Helvetica,sans-Serif" font-size="10.00">+</text>
<text text-anchor="start" x="25" y="-40.5" font-family="Helvetica,sans-Serif" font-size="10.00">wave_names</text>
<text text-anchor="start" x="12" y="-25.5" font-family="Helvetica,sans-Serif" font-size="10.00">+</text>
<text text-anchor="start" x="25" y="-25.5" font-family="Helvetica,sans-Serif" font-size="10.00">out_disp</text>
<text text-anchor="start" x="49" y="-10.5" font-family="Helvetica,sans-Serif" font-size="10.00"> </text>
<polygon fill="#666666" stroke="#666666" points="8,-215.5 8,-215.5 94,-215.5 94,-215.5 8,-215.5"/>
<polygon fill="#666666" stroke="#666666" points="8,-20.5 8,-20.5 23,-20.5 23,-20.5 8,-20.5"/>
<polygon fill="#666666" stroke="#666666" points="23,-20.5 23,-20.5 94,-20.5 94,-20.5 23,-20.5"/>
<polygon fill="none" stroke="#666666" points="8,-4 8,-233 94,-233 94,-4 8,-4"/>
</a>
</g>
</g>
<!-- Node2 -->
<g id="Node000002" class="node">
<title>Node2</title>
<g id="a_Node000002"><a xlink:title=" ">
<path fill="white" stroke="#666666" d="M66,-363C66,-363 36,-363 36,-363 30,-363 24,-357 24,-351 24,-351 24,-318 24,-318 24,-312 30,-306 36,-306 36,-306 66,-306 66,-306 72,-306 78,-312 78,-318 78,-318 78,-351 78,-351 78,-357 72,-363 66,-363"/>
<text text-anchor="start" x="37" y="-346.5" font-family="Helvetica,sans-Serif" font-size="10.00">string</text>
<text text-anchor="start" x="49" y="-331.5" font-family="Helvetica,sans-Serif" font-size="10.00"> </text>
<text text-anchor="start" x="49" y="-316.5" font-family="Helvetica,sans-Serif" font-size="10.00"> </text>
<polygon fill="#666666" stroke="#666666" points="32,-341.5 32,-341.5 70,-341.5 70,-341.5 32,-341.5"/>
<polygon fill="#666666" stroke="#666666" points="32,-326.5 32,-326.5 70,-326.5 70,-326.5 32,-326.5"/>
<polygon fill="none" stroke="#666666" points="32,-310 32,-359 70,-359 70,-310 32,-310"/>
</a>
</g>
</g>
<!-- Node2&#45;&gt;Node1 -->
<g id="edge1_Node000001_Node000002" class="edge">
<title>Node2&#45;&gt;Node1</title>
<g id="a_edge1_Node000001_Node000002"><a xlink:title=" ">
<path fill="none" stroke="#63b8ff" d="M51,-305.96C51,-290.72 51,-270.56 51,-249.12"/>
<polygon fill="none" stroke="#63b8ff" points="51,-249.1 47,-243.1 51,-237.1 55,-243.1 51,-249.1"/>
</a>
</g>
<text text-anchor="middle" x="91.5" y="-280" font-family="Helvetica,sans-Serif" font-size="10.00" fill="grey"> +green</text>
<text text-anchor="middle" x="91.5" y="-269" font-family="Helvetica,sans-Serif" font-size="10.00" fill="grey">+output_blq_file</text>
<text text-anchor="middle" x="91.5" y="-258" font-family="Helvetica,sans-Serif" font-size="10.00" fill="grey">+type</text>
</g>
</g>
</svg>
