<?xml version="1.0" encoding="UTF-8" standalone="no"?>
<!DOCTYPE svg PUBLIC "-//W3C//DTD SVG 1.1//EN"
 "http://www.w3.org/Graphics/SVG/1.1/DTD/svg11.dtd">
<!-- Generated by graphviz version 2.43.0 (0)
 -->
<!-- Title: UtcTime Pages: 1 -->
<svg width="130pt" height="125pt"
 viewBox="0.00 0.00 130.00 125.00" xmlns="http://www.w3.org/2000/svg" xmlns:xlink="http://www.w3.org/1999/xlink">
<g id="graph0" class="graph" transform="scale(1 1) rotate(0) translate(4 121)">
<title>UtcTime</title>
<!-- Node1 -->
<g id="Node000001" class="node">
<title>Node1</title>
<g id="a_Node000001"><a xlink:href="structUtcTime.html" target="_top" xlink:title=" ">
<path fill="white" stroke="#666666" stroke-width="2" d="M110,-117C110,-117 12,-117 12,-117 6,-117 0,-111 0,-105 0,-105 0,-12 0,-12 0,-6 6,0 12,0 12,0 110,0 110,0 116,0 122,-6 122,-12 122,-12 122,-105 122,-105 122,-111 116,-117 110,-117"/>
<text text-anchor="start" x="40" y="-100.5" font-family="Helvetica,sans-Serif" font-size="10.00">UtcTime</text>
<text text-anchor="start" x="12" y="-85.5" font-family="Helvetica,sans-Serif" font-size="10.00">+</text>
<text text-anchor="start" x="25" y="-85.5" font-family="Helvetica,sans-Serif" font-size="10.00">bigTime</text>
<text text-anchor="start" x="12" y="-70.5" font-family="Helvetica,sans-Serif" font-size="10.00">+</text>
<text text-anchor="start" x="25" y="-70.5" font-family="Helvetica,sans-Serif" font-size="10.00">operator+()</text>
<text text-anchor="start" x="12" y="-55.5" font-family="Helvetica,sans-Serif" font-size="10.00">+</text>
<text text-anchor="start" x="25" y="-55.5" font-family="Helvetica,sans-Serif" font-size="10.00">to_string()</text>
<text text-anchor="start" x="12" y="-40.5" font-family="Helvetica,sans-Serif" font-size="10.00">+</text>
<text text-anchor="start" x="25" y="-40.5" font-family="Helvetica,sans-Serif" font-size="10.00">to_ISOstring()</text>
<text text-anchor="start" x="12" y="-25.5" font-family="Helvetica,sans-Serif" font-size="10.00">+</text>
<text text-anchor="start" x="25" y="-25.5" font-family="Helvetica,sans-Serif" font-size="10.00">UtcTime()</text>
<text text-anchor="start" x="12" y="-10.5" font-family="Helvetica,sans-Serif" font-size="10.00">+</text>
<text text-anchor="start" x="25" y="-10.5" font-family="Helvetica,sans-Serif" font-size="10.00">operator GTime()</text>
<polygon fill="#666666" stroke="#666666" points="8,-95.5 8,-95.5 114,-95.5 114,-95.5 8,-95.5"/>
<polygon fill="#666666" stroke="#666666" points="8,-80.5 8,-80.5 23,-80.5 23,-80.5 8,-80.5"/>
<polygon fill="#666666" stroke="#666666" points="23,-80.5 23,-80.5 114,-80.5 114,-80.5 23,-80.5"/>
<polygon fill="none" stroke="#666666" points="8,-4 8,-113 114,-113 114,-4 8,-4"/>
</a>
</g>
</g>
</g>
</svg>
