<?xml version="1.0" encoding="UTF-8" standalone="no"?>
<!DOCTYPE svg PUBLIC "-//W3C//DTD SVG 1.1//EN"
 "http://www.w3.org/Graphics/SVG/1.1/DTD/svg11.dtd">
<!-- Generated by graphviz version 2.43.0 (0)
 -->
<!-- Title: NetworkStatistics::getNetworkStatistics Pages: 1 -->
<svg width="219pt" height="38pt"
 viewBox="0.00 0.00 219.00 38.00" xmlns="http://www.w3.org/2000/svg" xmlns:xlink="http://www.w3.org/1999/xlink">
<g id="graph0" class="graph" transform="scale(1 1) rotate(0) translate(4 34)">
<title>NetworkStatistics::getNetworkStatistics</title>
<!-- Node1 -->
<g id="Node000001" class="node">
<title>Node1</title>
<g id="a_Node000001"><a xlink:href="structNetworkStatistics.html#a6355d0b3c27f8f95ad1b6646fa7333f8" target="_top" xlink:title=" ">
<path fill="#fff0f0" stroke="red" stroke-width="2" d="M109,-30C109,-30 10,-30 10,-30 5,-30 0,-25 0,-20 0,-20 0,-10 0,-10 0,-5 5,0 10,0 10,0 109,0 109,0 114,0 119,-5 119,-10 119,-10 119,-20 119,-20 119,-25 114,-30 109,-30"/>
<text text-anchor="start" x="8" y="-18" font-family="Helvetica,sans-Serif" font-size="10.00">NetworkStatistics::</text>
<text text-anchor="middle" x="59.5" y="-7" font-family="Helvetica,sans-Serif" font-size="10.00">getNetworkStatistics</text>
</a>
</g>
</g>
<!-- Node2 -->
<g id="Node000002" class="node">
<title>Node2</title>
<g id="a_Node000002"><a xlink:href="gTime_8cpp.html#abc73cf336f9fa1b3622c933d5925e073" target="_top" xlink:title=" ">
<path fill="#fff0f0" stroke="red" d="M204.67,-24.5C204.67,-24.5 161.33,-24.5 161.33,-24.5 158.17,-24.5 155,-21.33 155,-18.17 155,-18.17 155,-11.83 155,-11.83 155,-8.67 158.17,-5.5 161.33,-5.5 161.33,-5.5 204.67,-5.5 204.67,-5.5 207.83,-5.5 211,-8.67 211,-11.83 211,-11.83 211,-18.17 211,-18.17 211,-21.33 207.83,-24.5 204.67,-24.5"/>
<text text-anchor="middle" x="183" y="-12.5" font-family="Helvetica,sans-Serif" font-size="10.00">timeGet</text>
</a>
</g>
</g>
<!-- Node1&#45;&gt;Node2 -->
<g id="edge1_Node000001_Node000002" class="edge">
<title>Node1&#45;&gt;Node2</title>
<g id="a_edge1_Node000001_Node000002"><a xlink:title=" ">
<path fill="none" stroke="#63b8ff" d="M119.11,-15C127.81,-15 136.56,-15 144.65,-15"/>
<polygon fill="#63b8ff" stroke="#63b8ff" points="144.86,-18.5 154.86,-15 144.86,-11.5 144.86,-18.5"/>
</a>
</g>
</g>
</g>
</svg>
