<?xml version="1.0" encoding="UTF-8" standalone="no"?>
<!DOCTYPE svg PUBLIC "-//W3C//DTD SVG 1.1//EN"
 "http://www.w3.org/Graphics/SVG/1.1/DTD/svg11.dtd">
<!-- Generated by graphviz version 2.43.0 (0)
 -->
<!-- Title: TcpSocket::disconnect Pages: 1 -->
<svg width="328pt" height="27pt"
 viewBox="0.00 0.00 328.00 27.00" xmlns="http://www.w3.org/2000/svg" xmlns:xlink="http://www.w3.org/1999/xlink">
<g id="graph0" class="graph" transform="scale(1 1) rotate(0) translate(4 23)">
<title>TcpSocket::disconnect</title>
<!-- Node1 -->
<g id="Node000001" class="node">
<title>Node1</title>
<g id="a_Node000001"><a xlink:href="structTcpSocket.html#a06f4a0ebc4512f0d4260573ed61d157c" target="_top" xlink:title=" ">
<path fill="#fff0f0" stroke="red" stroke-width="2" d="M313.67,-19C313.67,-19 203.33,-19 203.33,-19 200.17,-19 197,-15.83 197,-12.67 197,-12.67 197,-6.33 197,-6.33 197,-3.17 200.17,0 203.33,0 203.33,0 313.67,0 313.67,0 316.83,0 320,-3.17 320,-6.33 320,-6.33 320,-12.67 320,-12.67 320,-15.83 316.83,-19 313.67,-19"/>
<text text-anchor="middle" x="258.5" y="-7" font-family="Helvetica,sans-Serif" font-size="10.00">TcpSocket::disconnect</text>
</a>
</g>
</g>
<!-- Node2 -->
<g id="Node000002" class="node">
<title>Node2</title>
<g id="a_Node000002"><a xlink:href="structTcpSocket.html#ae4050e3ed6adf0dbe575ca992234f798" target="_top" xlink:title=" ">
<path fill="#fff0f0" stroke="red" d="M154.67,-19C154.67,-19 6.33,-19 6.33,-19 3.17,-19 0,-15.83 0,-12.67 0,-12.67 0,-6.33 0,-6.33 0,-3.17 3.17,0 6.33,0 6.33,0 154.67,0 154.67,0 157.83,0 161,-3.17 161,-6.33 161,-6.33 161,-12.67 161,-12.67 161,-15.83 157.83,-19 154.67,-19"/>
<text text-anchor="middle" x="80.5" y="-7" font-family="Helvetica,sans-Serif" font-size="10.00">TcpSocket::delayedReconnect</text>
</a>
</g>
</g>
<!-- Node1&#45;&gt;Node2 -->
<g id="edge1_Node000001_Node000002" class="edge">
<title>Node1&#45;&gt;Node2</title>
<g id="a_edge1_Node000001_Node000002"><a xlink:title=" ">
<path fill="none" stroke="#63b8ff" d="M186.78,-9.5C178.34,-9.5 169.69,-9.5 161.14,-9.5"/>
<polygon fill="#63b8ff" stroke="#63b8ff" points="186.93,-13 196.93,-9.5 186.93,-6 186.93,-13"/>
</a>
</g>
</g>
</g>
</svg>
