<?xml version="1.0" encoding="UTF-8" standalone="no"?>
<!DOCTYPE svg PUBLIC "-//W3C//DTD SVG 1.1//EN"
 "http://www.w3.org/Graphics/SVG/1.1/DTD/svg11.dtd">
<!-- Generated by graphviz version 2.43.0 (0)
 -->
<!-- Title: MinimumConstraintOptions Pages: 1 -->
<svg width="169pt" height="596pt"
 viewBox="0.00 0.00 169.00 596.00" xmlns="http://www.w3.org/2000/svg" xmlns:xlink="http://www.w3.org/1999/xlink">
<g id="graph0" class="graph" transform="scale(1 1) rotate(0) translate(4 592)">
<title>MinimumConstraintOptions</title>
<!-- Node1 -->
<g id="Node000001" class="node">
<title>Node1</title>
<g id="a_Node000001"><a xlink:href="structMinimumConstraintOptions.html" target="_top" xlink:title="Options associated with the minimum constraints mode of operation.">
<path fill="white" stroke="#666666" stroke-width="2" d="M149,-177C149,-177 12,-177 12,-177 6,-177 0,-171 0,-165 0,-165 0,-12 0,-12 0,-6 6,0 12,0 12,0 149,0 149,0 155,0 161,-6 161,-12 161,-12 161,-165 161,-165 161,-171 155,-177 149,-177"/>
<text text-anchor="start" x="13.5" y="-160.5" font-family="Helvetica,sans-Serif" font-size="10.00">MinimumConstraintOptions</text>
<text text-anchor="start" x="15.5" y="-145.5" font-family="Helvetica,sans-Serif" font-size="10.00">+</text>
<text text-anchor="start" x="31.5" y="-145.5" font-family="Helvetica,sans-Serif" font-size="10.00">delay</text>
<text text-anchor="start" x="15.5" y="-130.5" font-family="Helvetica,sans-Serif" font-size="10.00">+</text>
<text text-anchor="start" x="31.5" y="-130.5" font-family="Helvetica,sans-Serif" font-size="10.00">scale</text>
<text text-anchor="start" x="15.5" y="-115.5" font-family="Helvetica,sans-Serif" font-size="10.00">+</text>
<text text-anchor="start" x="31.5" y="-115.5" font-family="Helvetica,sans-Serif" font-size="10.00">rotation</text>
<text text-anchor="start" x="15.5" y="-100.5" font-family="Helvetica,sans-Serif" font-size="10.00">+</text>
<text text-anchor="start" x="31.5" y="-100.5" font-family="Helvetica,sans-Serif" font-size="10.00">translation</text>
<text text-anchor="start" x="15.5" y="-85.5" font-family="Helvetica,sans-Serif" font-size="10.00">+</text>
<text text-anchor="start" x="31.5" y="-85.5" font-family="Helvetica,sans-Serif" font-size="10.00">once_per_epoch</text>
<text text-anchor="start" x="15.5" y="-70.5" font-family="Helvetica,sans-Serif" font-size="10.00">+</text>
<text text-anchor="start" x="31.5" y="-70.5" font-family="Helvetica,sans-Serif" font-size="10.00">full_vcv</text>
<text text-anchor="start" x="15.5" y="-55.5" font-family="Helvetica,sans-Serif" font-size="10.00">+</text>
<text text-anchor="start" x="31.5" y="-55.5" font-family="Helvetica,sans-Serif" font-size="10.00">constrain_orbits</text>
<text text-anchor="start" x="15.5" y="-40.5" font-family="Helvetica,sans-Serif" font-size="10.00">+</text>
<text text-anchor="start" x="31.5" y="-40.5" font-family="Helvetica,sans-Serif" font-size="10.00">transform_unweighted</text>
<text text-anchor="start" x="15.5" y="-25.5" font-family="Helvetica,sans-Serif" font-size="10.00">+</text>
<text text-anchor="start" x="31.5" y="-25.5" font-family="Helvetica,sans-Serif" font-size="10.00">application_mode</text>
<text text-anchor="start" x="79" y="-10.5" font-family="Helvetica,sans-Serif" font-size="10.00"> </text>
<polygon fill="#666666" stroke="#666666" points="8.5,-155.5 8.5,-155.5 153.5,-155.5 153.5,-155.5 8.5,-155.5"/>
<polygon fill="#666666" stroke="#666666" points="8.5,-20.5 8.5,-20.5 29.5,-20.5 29.5,-20.5 8.5,-20.5"/>
<polygon fill="#666666" stroke="#666666" points="29.5,-20.5 29.5,-20.5 153.5,-20.5 153.5,-20.5 29.5,-20.5"/>
<polygon fill="none" stroke="#666666" points="8,-4 8,-173 153,-173 153,-4 8,-4"/>
</a>
</g>
</g>
<!-- Node2 -->
<g id="Node000002" class="node">
<title>Node2</title>
<g id="a_Node000002"><a xlink:href="structFilterOptions.html" target="_top" xlink:title=" ">
<path fill="white" stroke="#666666" d="M136,-390C136,-390 25,-390 25,-390 19,-390 13,-384 13,-378 13,-378 13,-225 13,-225 13,-219 19,-213 25,-213 25,-213 136,-213 136,-213 142,-213 148,-219 148,-225 148,-225 148,-378 148,-378 148,-384 142,-390 136,-390"/>
<text text-anchor="start" x="49.5" y="-373.5" font-family="Helvetica,sans-Serif" font-size="10.00">FilterOptions</text>
<text text-anchor="start" x="25.5" y="-358.5" font-family="Helvetica,sans-Serif" font-size="10.00">+</text>
<text text-anchor="start" x="38.5" y="-358.5" font-family="Helvetica,sans-Serif" font-size="10.00">chi_square_test</text>
<text text-anchor="start" x="25.5" y="-343.5" font-family="Helvetica,sans-Serif" font-size="10.00">+</text>
<text text-anchor="start" x="38.5" y="-343.5" font-family="Helvetica,sans-Serif" font-size="10.00">chi_square_mode</text>
<text text-anchor="start" x="25.5" y="-328.5" font-family="Helvetica,sans-Serif" font-size="10.00">+</text>
<text text-anchor="start" x="38.5" y="-328.5" font-family="Helvetica,sans-Serif" font-size="10.00">simulate_filter_only</text>
<text text-anchor="start" x="25.5" y="-313.5" font-family="Helvetica,sans-Serif" font-size="10.00">+</text>
<text text-anchor="start" x="38.5" y="-313.5" font-family="Helvetica,sans-Serif" font-size="10.00">assume_linearity</text>
<text text-anchor="start" x="25.5" y="-298.5" font-family="Helvetica,sans-Serif" font-size="10.00">+</text>
<text text-anchor="start" x="38.5" y="-298.5" font-family="Helvetica,sans-Serif" font-size="10.00">advanced_postfits</text>
<text text-anchor="start" x="25.5" y="-283.5" font-family="Helvetica,sans-Serif" font-size="10.00">+</text>
<text text-anchor="start" x="38.5" y="-283.5" font-family="Helvetica,sans-Serif" font-size="10.00">joseph_stabilisation</text>
<text text-anchor="start" x="25.5" y="-268.5" font-family="Helvetica,sans-Serif" font-size="10.00">+</text>
<text text-anchor="start" x="38.5" y="-268.5" font-family="Helvetica,sans-Serif" font-size="10.00">inverter</text>
<text text-anchor="start" x="25.5" y="-253.5" font-family="Helvetica,sans-Serif" font-size="10.00">+</text>
<text text-anchor="start" x="38.5" y="-253.5" font-family="Helvetica,sans-Serif" font-size="10.00">prefitOpts</text>
<text text-anchor="start" x="25.5" y="-238.5" font-family="Helvetica,sans-Serif" font-size="10.00">+</text>
<text text-anchor="start" x="38.5" y="-238.5" font-family="Helvetica,sans-Serif" font-size="10.00">postfitOpts</text>
<text text-anchor="start" x="79" y="-223.5" font-family="Helvetica,sans-Serif" font-size="10.00"> </text>
<polygon fill="#666666" stroke="#666666" points="21.5,-368.5 21.5,-368.5 140.5,-368.5 140.5,-368.5 21.5,-368.5"/>
<polygon fill="#666666" stroke="#666666" points="21.5,-233.5 21.5,-233.5 36.5,-233.5 36.5,-233.5 21.5,-233.5"/>
<polygon fill="#666666" stroke="#666666" points="36.5,-233.5 36.5,-233.5 140.5,-233.5 140.5,-233.5 36.5,-233.5"/>
<polygon fill="none" stroke="#666666" points="21,-217 21,-386 140,-386 140,-217 21,-217"/>
</a>
</g>
</g>
<!-- Node2&#45;&gt;Node1 -->
<g id="edge1_Node000001_Node000002" class="edge">
<title>Node2&#45;&gt;Node1</title>
<g id="a_edge1_Node000001_Node000002"><a xlink:title=" ">
<path fill="none" stroke="#63b8ff" d="M80.5,-202.58C80.5,-194.12 80.5,-185.59 80.5,-177.22"/>
<polygon fill="none" stroke="#63b8ff" points="77,-202.85 80.5,-212.85 84,-202.85 77,-202.85"/>
</a>
</g>
</g>
<!-- Node3 -->
<g id="Node000003" class="node">
<title>Node3</title>
<g id="a_Node000003"><a xlink:href="structRtsOptions.html" target="_top" xlink:title=" ">
<path fill="white" stroke="#666666" d="M146,-588C146,-588 15,-588 15,-588 9,-588 3,-582 3,-576 3,-576 3,-438 3,-438 3,-432 9,-426 15,-426 15,-426 146,-426 146,-426 152,-426 158,-432 158,-438 158,-438 158,-576 158,-576 158,-582 152,-588 146,-588"/>
<text text-anchor="start" x="54" y="-572" font-family="Helvetica,sans-Serif" font-size="10.00">RtsOptions</text>
<text text-anchor="start" x="15.5" y="-557" font-family="Helvetica,sans-Serif" font-size="10.00">+</text>
<text text-anchor="start" x="28.5" y="-557" font-family="Helvetica,sans-Serif" font-size="10.00">rts_filename</text>
<text text-anchor="start" x="15.5" y="-542" font-family="Helvetica,sans-Serif" font-size="10.00">+</text>
<text text-anchor="start" x="28.5" y="-542" font-family="Helvetica,sans-Serif" font-size="10.00">rts_directory</text>
<text text-anchor="start" x="15.5" y="-527" font-family="Helvetica,sans-Serif" font-size="10.00">+</text>
<text text-anchor="start" x="28.5" y="-527" font-family="Helvetica,sans-Serif" font-size="10.00">rts_lag</text>
<text text-anchor="start" x="15.5" y="-512" font-family="Helvetica,sans-Serif" font-size="10.00">+</text>
<text text-anchor="start" x="28.5" y="-512" font-family="Helvetica,sans-Serif" font-size="10.00">rts_interval</text>
<text text-anchor="start" x="15.5" y="-497" font-family="Helvetica,sans-Serif" font-size="10.00">+</text>
<text text-anchor="start" x="28.5" y="-497" font-family="Helvetica,sans-Serif" font-size="10.00">rts_smoothed_suffix</text>
<text text-anchor="start" x="15.5" y="-482" font-family="Helvetica,sans-Serif" font-size="10.00">+</text>
<text text-anchor="start" x="28.5" y="-482" font-family="Helvetica,sans-Serif" font-size="10.00">output_intermediate_rts</text>
<text text-anchor="start" x="15.5" y="-467" font-family="Helvetica,sans-Serif" font-size="10.00">+</text>
<text text-anchor="start" x="28.5" y="-467" font-family="Helvetica,sans-Serif" font-size="10.00">queue_rts_outputs</text>
<text text-anchor="start" x="15.5" y="-452" font-family="Helvetica,sans-Serif" font-size="10.00">+</text>
<text text-anchor="start" x="28.5" y="-452" font-family="Helvetica,sans-Serif" font-size="10.00">rts_inverter</text>
<text text-anchor="start" x="79" y="-437" font-family="Helvetica,sans-Serif" font-size="10.00"> </text>
<polygon fill="#666666" stroke="#666666" points="11.5,-567 11.5,-567 150.5,-567 150.5,-567 11.5,-567"/>
<polygon fill="#666666" stroke="#666666" points="11.5,-447 11.5,-447 26.5,-447 26.5,-447 11.5,-447"/>
<polygon fill="#666666" stroke="#666666" points="26.5,-447 26.5,-447 150.5,-447 150.5,-447 26.5,-447"/>
<polygon fill="none" stroke="#666666" points="11,-430 11,-584 150,-584 150,-430 11,-430"/>
</a>
</g>
</g>
<!-- Node3&#45;&gt;Node2 -->
<g id="edge2_Node000002_Node000003" class="edge">
<title>Node3&#45;&gt;Node2</title>
<g id="a_edge2_Node000002_Node000003"><a xlink:title=" ">
<path fill="none" stroke="#63b8ff" d="M80.5,-415.65C80.5,-407.22 80.5,-398.69 80.5,-390.29"/>
<polygon fill="none" stroke="#63b8ff" points="77,-415.86 80.5,-425.86 84,-415.86 77,-415.86"/>
</a>
</g>
</g>
</g>
</svg>
