<?xml version="1.0" encoding="UTF-8" standalone="no"?>
<!DOCTYPE svg PUBLIC "-//W3C//DTD SVG 1.1//EN"
 "http://www.w3.org/Graphics/SVG/1.1/DTD/svg11.dtd">
<!-- Generated by graphviz version 2.43.0 (0)
 -->
<!-- Title: CodeType Pages: 1 -->
<svg width="82pt" height="80pt"
 viewBox="0.00 0.00 82.00 80.00" xmlns="http://www.w3.org/2000/svg" xmlns:xlink="http://www.w3.org/1999/xlink">
<g id="graph0" class="graph" transform="scale(1 1) rotate(0) translate(4 76)">
<title>CodeType</title>
<!-- Node1 -->
<g id="Node000001" class="node">
<title>Node1</title>
<g id="a_Node000001"><a xlink:href="structCodeType.html" target="_top" xlink:title=" ">
<path fill="white" stroke="#666666" stroke-width="2" d="M62,-72C62,-72 12,-72 12,-72 6,-72 0,-66 0,-60 0,-60 0,-12 0,-12 0,-6 6,0 12,0 12,0 62,0 62,0 68,0 74,-6 74,-12 74,-12 74,-60 74,-60 74,-66 68,-72 62,-72"/>
<text text-anchor="start" x="13" y="-56" font-family="Helvetica,sans-Serif" font-size="10.00">CodeType</text>
<text text-anchor="start" x="15" y="-41" font-family="Helvetica,sans-Serif" font-size="10.00">+</text>
<text text-anchor="start" x="31" y="-41" font-family="Helvetica,sans-Serif" font-size="10.00">type</text>
<text text-anchor="start" x="15" y="-26" font-family="Helvetica,sans-Serif" font-size="10.00">+</text>
<text text-anchor="start" x="31" y="-26" font-family="Helvetica,sans-Serif" font-size="10.00">code</text>
<text text-anchor="start" x="35" y="-11" font-family="Helvetica,sans-Serif" font-size="10.00"> </text>
<polygon fill="#666666" stroke="#666666" points="8,-51 8,-51 66,-51 66,-51 8,-51"/>
<polygon fill="#666666" stroke="#666666" points="8,-21 8,-21 29,-21 29,-21 8,-21"/>
<polygon fill="#666666" stroke="#666666" points="29,-21 29,-21 66,-21 66,-21 29,-21"/>
<polygon fill="none" stroke="#666666" points="8,-4 8,-68 66,-68 66,-4 8,-4"/>
</a>
</g>
</g>
</g>
</svg>
