<?xml version="1.0" encoding="UTF-8" standalone="no"?>
<!DOCTYPE svg PUBLIC "-//W3C//DTD SVG 1.1//EN"
 "http://www.w3.org/Graphics/SVG/1.1/DTD/svg11.dtd">
<!-- Generated by graphviz version 2.43.0 (0)
 -->
<!-- Title: CustomDecoder::decode Pages: 1 -->
<svg width="297pt" height="27pt"
 viewBox="0.00 0.00 297.00 27.00" xmlns="http://www.w3.org/2000/svg" xmlns:xlink="http://www.w3.org/1999/xlink">
<g id="graph0" class="graph" transform="scale(1 1) rotate(0) translate(4 23)">
<title>CustomDecoder::decode</title>
<!-- Node1 -->
<g id="Node000001" class="node">
<title>Node1</title>
<g id="a_Node000001"><a xlink:href="structCustomDecoder.html#a1904db26f92b7a03abea464d19b8366f" target="_top" xlink:title=" ">
<path fill="#fff0f0" stroke="red" stroke-width="2" d="M282.67,-19C282.67,-19 159.33,-19 159.33,-19 156.17,-19 153,-15.83 153,-12.67 153,-12.67 153,-6.33 153,-6.33 153,-3.17 156.17,0 159.33,0 159.33,0 282.67,0 282.67,0 285.83,0 289,-3.17 289,-6.33 289,-6.33 289,-12.67 289,-12.67 289,-15.83 285.83,-19 282.67,-19"/>
<text text-anchor="middle" x="221" y="-7" font-family="Helvetica,sans-Serif" font-size="10.00">CustomDecoder::decode</text>
</a>
</g>
</g>
<!-- Node2 -->
<g id="Node000002" class="node">
<title>Node2</title>
<g id="a_Node000002"><a xlink:href="structCustomParser.html#a1b307af55ea236fb3c0c248978844e30" target="_top" xlink:title=" ">
<path fill="#fff0f0" stroke="red" d="M110.67,-19C110.67,-19 6.33,-19 6.33,-19 3.17,-19 0,-15.83 0,-12.67 0,-12.67 0,-6.33 0,-6.33 0,-3.17 3.17,0 6.33,0 6.33,0 110.67,0 110.67,0 113.83,0 117,-3.17 117,-6.33 117,-6.33 117,-12.67 117,-12.67 117,-15.83 113.83,-19 110.67,-19"/>
<text text-anchor="middle" x="58.5" y="-7" font-family="Helvetica,sans-Serif" font-size="10.00">CustomParser::parse</text>
</a>
</g>
</g>
<!-- Node1&#45;&gt;Node2 -->
<g id="edge1_Node000001_Node000002" class="edge">
<title>Node1&#45;&gt;Node2</title>
<g id="a_edge1_Node000001_Node000002"><a xlink:title=" ">
<path fill="none" stroke="#63b8ff" d="M142.79,-9.5C134.17,-9.5 125.51,-9.5 117.2,-9.5"/>
<polygon fill="#63b8ff" stroke="#63b8ff" points="142.86,-13 152.86,-9.5 142.86,-6 142.86,-13"/>
</a>
</g>
</g>
</g>
</svg>
