<?xml version="1.0" encoding="UTF-8" standalone="no"?>
<!DOCTYPE svg PUBLIC "-//W3C//DTD SVG 1.1//EN"
 "http://www.w3.org/Graphics/SVG/1.1/DTD/svg11.dtd">
<!-- Generated by graphviz version 2.43.0 (0)
 -->
<!-- Title: UYds::UYds Pages: 1 -->
<svg width="213pt" height="27pt"
 viewBox="0.00 0.00 213.00 27.00" xmlns="http://www.w3.org/2000/svg" xmlns:xlink="http://www.w3.org/1999/xlink">
<g id="graph0" class="graph" transform="scale(1 1) rotate(0) translate(4 23)">
<title>UYds::UYds</title>
<!-- Node1 -->
<g id="Node000001" class="node">
<title>Node1</title>
<g id="a_Node000001"><a xlink:href="structUYds.html#a66402e9dc5e8ffaaa8e6b95125d10dcc" target="_top" xlink:title=" ">
<path fill="#fff0f0" stroke="red" stroke-width="2" d="M198.67,-19C198.67,-19 139.33,-19 139.33,-19 136.17,-19 133,-15.83 133,-12.67 133,-12.67 133,-6.33 133,-6.33 133,-3.17 136.17,0 139.33,0 139.33,0 198.67,0 198.67,0 201.83,0 205,-3.17 205,-6.33 205,-6.33 205,-12.67 205,-12.67 205,-15.83 201.83,-19 198.67,-19"/>
<text text-anchor="middle" x="169" y="-7" font-family="Helvetica,sans-Serif" font-size="10.00">UYds::UYds</text>
</a>
</g>
</g>
<!-- Node2 -->
<g id="Node000002" class="node">
<title>Node2</title>
<g id="a_Node000002"><a xlink:href="structUYds.html#a8354f1e39818b9b4284e0b413bc2831e" target="_top" xlink:title=" ">
<path fill="#fff0f0" stroke="red" d="M90.67,-19C90.67,-19 6.33,-19 6.33,-19 3.17,-19 0,-15.83 0,-12.67 0,-12.67 0,-6.33 0,-6.33 0,-3.17 3.17,0 6.33,0 6.33,0 90.67,0 90.67,0 93.83,0 97,-3.17 97,-6.33 97,-6.33 97,-12.67 97,-12.67 97,-15.83 93.83,-19 90.67,-19"/>
<text text-anchor="middle" x="48.5" y="-7" font-family="Helvetica,sans-Serif" font-size="10.00">UYds::operator=</text>
</a>
</g>
</g>
<!-- Node1&#45;&gt;Node2 -->
<g id="edge1_Node000001_Node000002" class="edge">
<title>Node1&#45;&gt;Node2</title>
<g id="a_edge1_Node000001_Node000002"><a xlink:title=" ">
<path fill="none" stroke="#63b8ff" d="M122.49,-9.5C114.18,-9.5 105.48,-9.5 97.1,-9.5"/>
<polygon fill="#63b8ff" stroke="#63b8ff" points="122.77,-13 132.77,-9.5 122.77,-6 122.77,-13"/>
</a>
</g>
</g>
</g>
</svg>
