<?xml version="1.0" encoding="UTF-8" standalone="no"?>
<!DOCTYPE svg PUBLIC "-//W3C//DTD SVG 1.1//EN"
 "http://www.w3.org/Graphics/SVG/1.1/DTD/svg11.dtd">
<!-- Generated by graphviz version 2.43.0 (0)
 -->
<!-- Title: Receiver Pages: 1 -->
<svg width="280pt" height="683pt"
 viewBox="0.00 0.00 279.50 683.00" xmlns="http://www.w3.org/2000/svg" xmlns:xlink="http://www.w3.org/1999/xlink">
<g id="graph0" class="graph" transform="scale(1 1) rotate(0) translate(4 679)">
<title>Receiver</title>
<!-- Node1 -->
<g id="Node000001" class="node">
<title>Node1</title>
<g id="a_Node000001"><a xlink:href="structReceiver.html" target="_top" xlink:title="Object to maintain receiver station data.">
<path fill="white" stroke="#666666" stroke-width="2" d="M191.5,-462C191.5,-462 87.5,-462 87.5,-462 81.5,-462 75.5,-456 75.5,-450 75.5,-450 75.5,-12 75.5,-12 75.5,-6 81.5,0 87.5,0 87.5,0 191.5,0 191.5,0 197.5,0 203.5,-6 203.5,-12 203.5,-12 203.5,-450 203.5,-450 203.5,-456 197.5,-462 191.5,-462"/>
<text text-anchor="start" x="118" y="-446" font-family="Helvetica,sans-Serif" font-size="10.00">Receiver</text>
<text text-anchor="start" x="87.5" y="-431" font-family="Helvetica,sans-Serif" font-size="10.00">+</text>
<text text-anchor="start" x="100.5" y="-431" font-family="Helvetica,sans-Serif" font-size="10.00">isPseudoRec</text>
<text text-anchor="start" x="87.5" y="-416" font-family="Helvetica,sans-Serif" font-size="10.00">+</text>
<text text-anchor="start" x="100.5" y="-416" font-family="Helvetica,sans-Serif" font-size="10.00">invalid</text>
<text text-anchor="start" x="87.5" y="-401" font-family="Helvetica,sans-Serif" font-size="10.00">+</text>
<text text-anchor="start" x="100.5" y="-401" font-family="Helvetica,sans-Serif" font-size="10.00">snx</text>
<text text-anchor="start" x="87.5" y="-386" font-family="Helvetica,sans-Serif" font-size="10.00">+</text>
<text text-anchor="start" x="100.5" y="-386" font-family="Helvetica,sans-Serif" font-size="10.00">metaDataMap</text>
<text text-anchor="start" x="87.5" y="-371" font-family="Helvetica,sans-Serif" font-size="10.00">+</text>
<text text-anchor="start" x="100.5" y="-371" font-family="Helvetica,sans-Serif" font-size="10.00">obsList</text>
<text text-anchor="start" x="87.5" y="-356" font-family="Helvetica,sans-Serif" font-size="10.00">+</text>
<text text-anchor="start" x="100.5" y="-356" font-family="Helvetica,sans-Serif" font-size="10.00">id</text>
<text text-anchor="start" x="87.5" y="-341" font-family="Helvetica,sans-Serif" font-size="10.00">+</text>
<text text-anchor="start" x="100.5" y="-341" font-family="Helvetica,sans-Serif" font-size="10.00">primaryApriori</text>
<text text-anchor="start" x="87.5" y="-326" font-family="Helvetica,sans-Serif" font-size="10.00">+</text>
<text text-anchor="start" x="100.5" y="-326" font-family="Helvetica,sans-Serif" font-size="10.00">aprioriTime</text>
<text text-anchor="start" x="87.5" y="-311" font-family="Helvetica,sans-Serif" font-size="10.00">+</text>
<text text-anchor="start" x="100.5" y="-311" font-family="Helvetica,sans-Serif" font-size="10.00">aprioriClk</text>
<text text-anchor="start" x="87.5" y="-296" font-family="Helvetica,sans-Serif" font-size="10.00">+</text>
<text text-anchor="start" x="100.5" y="-296" font-family="Helvetica,sans-Serif" font-size="10.00">aprioriClkVar</text>
<text text-anchor="start" x="87.5" y="-281" font-family="Helvetica,sans-Serif" font-size="10.00">+</text>
<text text-anchor="start" x="100.5" y="-281" font-family="Helvetica,sans-Serif" font-size="10.00">aprioriPos</text>
<text text-anchor="start" x="87.5" y="-266" font-family="Helvetica,sans-Serif" font-size="10.00">+</text>
<text text-anchor="start" x="100.5" y="-266" font-family="Helvetica,sans-Serif" font-size="10.00">aprioriVar</text>
<text text-anchor="start" x="87.5" y="-251" font-family="Helvetica,sans-Serif" font-size="10.00">+</text>
<text text-anchor="start" x="100.5" y="-251" font-family="Helvetica,sans-Serif" font-size="10.00">minconApriori</text>
<text text-anchor="start" x="87.5" y="-236" font-family="Helvetica,sans-Serif" font-size="10.00">+</text>
<text text-anchor="start" x="100.5" y="-236" font-family="Helvetica,sans-Serif" font-size="10.00">pos</text>
<text text-anchor="start" x="87.5" y="-221" font-family="Helvetica,sans-Serif" font-size="10.00">+</text>
<text text-anchor="start" x="100.5" y="-221" font-family="Helvetica,sans-Serif" font-size="10.00">ready</text>
<text text-anchor="start" x="87.5" y="-206" font-family="Helvetica,sans-Serif" font-size="10.00">+</text>
<text text-anchor="start" x="100.5" y="-206" font-family="Helvetica,sans-Serif" font-size="10.00">antBoresight</text>
<text text-anchor="start" x="87.5" y="-191" font-family="Helvetica,sans-Serif" font-size="10.00">+</text>
<text text-anchor="start" x="100.5" y="-191" font-family="Helvetica,sans-Serif" font-size="10.00">antAzimuth</text>
<text text-anchor="start" x="87.5" y="-176" font-family="Helvetica,sans-Serif" font-size="10.00">+</text>
<text text-anchor="start" x="100.5" y="-176" font-family="Helvetica,sans-Serif" font-size="10.00">traceFilename</text>
<text text-anchor="start" x="87.5" y="-161" font-family="Helvetica,sans-Serif" font-size="10.00">+</text>
<text text-anchor="start" x="100.5" y="-161" font-family="Helvetica,sans-Serif" font-size="10.00">jsonTraceFilename</text>
<text text-anchor="start" x="87.5" y="-146" font-family="Helvetica,sans-Serif" font-size="10.00">+</text>
<text text-anchor="start" x="100.5" y="-146" font-family="Helvetica,sans-Serif" font-size="10.00">savedSlips</text>
<text text-anchor="start" x="87.5" y="-131" font-family="Helvetica,sans-Serif" font-size="10.00">+</text>
<text text-anchor="start" x="100.5" y="-131" font-family="Helvetica,sans-Serif" font-size="10.00">failure</text>
<text text-anchor="start" x="87.5" y="-116" font-family="Helvetica,sans-Serif" font-size="10.00">+</text>
<text text-anchor="start" x="100.5" y="-116" font-family="Helvetica,sans-Serif" font-size="10.00">failureSinex</text>
<text text-anchor="start" x="87.5" y="-101" font-family="Helvetica,sans-Serif" font-size="10.00">+</text>
<text text-anchor="start" x="100.5" y="-101" font-family="Helvetica,sans-Serif" font-size="10.00">failureAprioriPos</text>
<text text-anchor="start" x="87.5" y="-86" font-family="Helvetica,sans-Serif" font-size="10.00">+</text>
<text text-anchor="start" x="100.5" y="-86" font-family="Helvetica,sans-Serif" font-size="10.00">failureEccentricity</text>
<text text-anchor="start" x="87.5" y="-71" font-family="Helvetica,sans-Serif" font-size="10.00">+</text>
<text text-anchor="start" x="100.5" y="-71" font-family="Helvetica,sans-Serif" font-size="10.00">failureAntenna</text>
<text text-anchor="start" x="87.5" y="-56" font-family="Helvetica,sans-Serif" font-size="10.00">+</text>
<text text-anchor="start" x="100.5" y="-56" font-family="Helvetica,sans-Serif" font-size="10.00">@37</text>
<text text-anchor="start" x="87.5" y="-41" font-family="Helvetica,sans-Serif" font-size="10.00">+</text>
<text text-anchor="start" x="100.5" y="-41" font-family="Helvetica,sans-Serif" font-size="10.00">pppTideCache</text>
<text text-anchor="start" x="87.5" y="-26" font-family="Helvetica,sans-Serif" font-size="10.00">+</text>
<text text-anchor="start" x="100.5" y="-26" font-family="Helvetica,sans-Serif" font-size="10.00">pppEopCache</text>
<text text-anchor="start" x="137.5" y="-11" font-family="Helvetica,sans-Serif" font-size="10.00"> </text>
<polygon fill="#666666" stroke="#666666" points="83.5,-441 83.5,-441 195.5,-441 195.5,-441 83.5,-441"/>
<polygon fill="#666666" stroke="#666666" points="83.5,-21 83.5,-21 98.5,-21 98.5,-21 83.5,-21"/>
<polygon fill="#666666" stroke="#666666" points="98.5,-21 98.5,-21 195.5,-21 195.5,-21 98.5,-21"/>
<polygon fill="none" stroke="#666666" points="83.5,-4 83.5,-458 195.5,-458 195.5,-4 83.5,-4"/>
</a>
</g>
</g>
<!-- Node2 -->
<g id="Node000002" class="node">
<title>Node2</title>
<g id="a_Node000002"><a xlink:href="structReceiverLogs.html" target="_top" xlink:title=" ">
<path fill="white" stroke="#666666" d="M123,-675C123,-675 12,-675 12,-675 6,-675 0,-669 0,-663 0,-663 0,-510 0,-510 0,-504 6,-498 12,-498 12,-498 123,-498 123,-498 129,-498 135,-504 135,-510 135,-510 135,-663 135,-663 135,-669 129,-675 123,-675"/>
<text text-anchor="start" x="35" y="-658.5" font-family="Helvetica,sans-Serif" font-size="10.00">ReceiverLogs</text>
<text text-anchor="start" x="12.5" y="-643.5" font-family="Helvetica,sans-Serif" font-size="10.00">+</text>
<text text-anchor="start" x="25.5" y="-643.5" font-family="Helvetica,sans-Serif" font-size="10.00">firstEpoch</text>
<text text-anchor="start" x="12.5" y="-628.5" font-family="Helvetica,sans-Serif" font-size="10.00">+</text>
<text text-anchor="start" x="25.5" y="-628.5" font-family="Helvetica,sans-Serif" font-size="10.00">lastEpoch</text>
<text text-anchor="start" x="12.5" y="-613.5" font-family="Helvetica,sans-Serif" font-size="10.00">+</text>
<text text-anchor="start" x="25.5" y="-613.5" font-family="Helvetica,sans-Serif" font-size="10.00">epochCount</text>
<text text-anchor="start" x="12.5" y="-598.5" font-family="Helvetica,sans-Serif" font-size="10.00">+</text>
<text text-anchor="start" x="25.5" y="-598.5" font-family="Helvetica,sans-Serif" font-size="10.00">obsCount</text>
<text text-anchor="start" x="12.5" y="-583.5" font-family="Helvetica,sans-Serif" font-size="10.00">+</text>
<text text-anchor="start" x="25.5" y="-583.5" font-family="Helvetica,sans-Serif" font-size="10.00">slipCount</text>
<text text-anchor="start" x="12.5" y="-568.5" font-family="Helvetica,sans-Serif" font-size="10.00">+</text>
<text text-anchor="start" x="25.5" y="-568.5" font-family="Helvetica,sans-Serif" font-size="10.00">codeCount</text>
<text text-anchor="start" x="12.5" y="-553.5" font-family="Helvetica,sans-Serif" font-size="10.00">+</text>
<text text-anchor="start" x="25.5" y="-553.5" font-family="Helvetica,sans-Serif" font-size="10.00">satCount</text>
<text text-anchor="start" x="12.5" y="-538.5" font-family="Helvetica,sans-Serif" font-size="10.00">+</text>
<text text-anchor="start" x="25.5" y="-538.5" font-family="Helvetica,sans-Serif" font-size="10.00">receiverErrorEpochs</text>
<text text-anchor="start" x="12.5" y="-523.5" font-family="Helvetica,sans-Serif" font-size="10.00">+</text>
<text text-anchor="start" x="25.5" y="-523.5" font-family="Helvetica,sans-Serif" font-size="10.00">receiverErrorCount</text>
<text text-anchor="start" x="66" y="-508.5" font-family="Helvetica,sans-Serif" font-size="10.00"> </text>
<polygon fill="#666666" stroke="#666666" points="8.5,-653.5 8.5,-653.5 127.5,-653.5 127.5,-653.5 8.5,-653.5"/>
<polygon fill="#666666" stroke="#666666" points="8.5,-518.5 8.5,-518.5 23.5,-518.5 23.5,-518.5 8.5,-518.5"/>
<polygon fill="#666666" stroke="#666666" points="23.5,-518.5 23.5,-518.5 127.5,-518.5 127.5,-518.5 23.5,-518.5"/>
<polygon fill="none" stroke="#666666" points="8,-502 8,-671 127,-671 127,-502 8,-502"/>
</a>
</g>
</g>
<!-- Node2&#45;&gt;Node1 -->
<g id="edge1_Node000001_Node000002" class="edge">
<title>Node2&#45;&gt;Node1</title>
<g id="a_edge1_Node000001_Node000002"><a xlink:title=" ">
<path fill="none" stroke="#63b8ff" d="M87.41,-487.75C89.09,-479.51 90.83,-470.97 92.6,-462.25"/>
<polygon fill="none" stroke="#63b8ff" points="83.96,-487.17 85.39,-497.66 90.82,-488.56 83.96,-487.17"/>
</a>
</g>
</g>
<!-- Node3 -->
<g id="Node000003" class="node">
<title>Node3</title>
<g id="a_Node000003"><a xlink:href="structRtk.html" target="_top" xlink:title=" ">
<path fill="white" stroke="#666666" d="M259.5,-675C259.5,-675 165.5,-675 165.5,-675 159.5,-675 153.5,-669 153.5,-663 153.5,-663 153.5,-510 153.5,-510 153.5,-504 159.5,-498 165.5,-498 165.5,-498 259.5,-498 259.5,-498 265.5,-498 271.5,-504 271.5,-510 271.5,-510 271.5,-663 271.5,-663 271.5,-669 265.5,-675 259.5,-675"/>
<text text-anchor="start" x="204" y="-658.5" font-family="Helvetica,sans-Serif" font-size="10.00">Rtk</text>
<text text-anchor="start" x="165.5" y="-643.5" font-family="Helvetica,sans-Serif" font-size="10.00">+</text>
<text text-anchor="start" x="178.5" y="-643.5" font-family="Helvetica,sans-Serif" font-size="10.00">sol</text>
<text text-anchor="start" x="165.5" y="-628.5" font-family="Helvetica,sans-Serif" font-size="10.00">+</text>
<text text-anchor="start" x="178.5" y="-628.5" font-family="Helvetica,sans-Serif" font-size="10.00">antennaType</text>
<text text-anchor="start" x="165.5" y="-613.5" font-family="Helvetica,sans-Serif" font-size="10.00">+</text>
<text text-anchor="start" x="178.5" y="-613.5" font-family="Helvetica,sans-Serif" font-size="10.00">receiverType</text>
<text text-anchor="start" x="165.5" y="-598.5" font-family="Helvetica,sans-Serif" font-size="10.00">+</text>
<text text-anchor="start" x="178.5" y="-598.5" font-family="Helvetica,sans-Serif" font-size="10.00">antennaId</text>
<text text-anchor="start" x="165.5" y="-583.5" font-family="Helvetica,sans-Serif" font-size="10.00">+</text>
<text text-anchor="start" x="178.5" y="-583.5" font-family="Helvetica,sans-Serif" font-size="10.00">satStatMap</text>
<text text-anchor="start" x="165.5" y="-568.5" font-family="Helvetica,sans-Serif" font-size="10.00">+</text>
<text text-anchor="start" x="178.5" y="-568.5" font-family="Helvetica,sans-Serif" font-size="10.00">otlDisplacement</text>
<text text-anchor="start" x="165.5" y="-553.5" font-family="Helvetica,sans-Serif" font-size="10.00">+</text>
<text text-anchor="start" x="178.5" y="-553.5" font-family="Helvetica,sans-Serif" font-size="10.00">atlDisplacement</text>
<text text-anchor="start" x="165.5" y="-538.5" font-family="Helvetica,sans-Serif" font-size="10.00">+</text>
<text text-anchor="start" x="178.5" y="-538.5" font-family="Helvetica,sans-Serif" font-size="10.00">antDelta</text>
<text text-anchor="start" x="165.5" y="-523.5" font-family="Helvetica,sans-Serif" font-size="10.00">+</text>
<text text-anchor="start" x="178.5" y="-523.5" font-family="Helvetica,sans-Serif" font-size="10.00">attStatus</text>
<text text-anchor="start" x="210.5" y="-508.5" font-family="Helvetica,sans-Serif" font-size="10.00"> </text>
<polygon fill="#666666" stroke="#666666" points="161.5,-653.5 161.5,-653.5 263.5,-653.5 263.5,-653.5 161.5,-653.5"/>
<polygon fill="#666666" stroke="#666666" points="161.5,-518.5 161.5,-518.5 176.5,-518.5 176.5,-518.5 161.5,-518.5"/>
<polygon fill="#666666" stroke="#666666" points="176.5,-518.5 176.5,-518.5 263.5,-518.5 263.5,-518.5 176.5,-518.5"/>
<polygon fill="none" stroke="#666666" points="161.5,-502 161.5,-671 263.5,-671 263.5,-502 161.5,-502"/>
</a>
</g>
</g>
<!-- Node3&#45;&gt;Node1 -->
<g id="edge2_Node000001_Node000003" class="edge">
<title>Node3&#45;&gt;Node1</title>
<g id="a_edge2_Node000001_Node000003"><a xlink:title=" ">
<path fill="none" stroke="#63b8ff" d="M192.31,-487.75C190.61,-479.51 188.85,-470.97 187.05,-462.25"/>
<polygon fill="none" stroke="#63b8ff" points="188.91,-488.58 194.36,-497.66 195.77,-487.16 188.91,-488.58"/>
</a>
</g>
</g>
</g>
</svg>
