<?xml version="1.0" encoding="UTF-8" standalone="no"?>
<!DOCTYPE svg PUBLIC "-//W3C//DTD SVG 1.1//EN"
 "http://www.w3.org/Graphics/SVG/1.1/DTD/svg11.dtd">
<!-- Generated by graphviz version 2.43.0 (0)
 -->
<!-- Title: NtripStream::requestResponseHandler Pages: 1 -->
<svg width="535pt" height="244pt"
 viewBox="0.00 0.00 535.00 243.50" xmlns="http://www.w3.org/2000/svg" xmlns:xlink="http://www.w3.org/1999/xlink">
<g id="graph0" class="graph" transform="scale(1 1) rotate(0) translate(4 239.5)">
<title>NtripStream::requestResponseHandler</title>
<!-- Node1 -->
<g id="Node000001" class="node">
<title>Node1</title>
<g id="a_Node000001"><a xlink:href="structNtripStream.html#a8e7a5e1d0ae5f1837f336fe2d31c5ae4" target="_top" xlink:title=" ">
<path fill="#fff0f0" stroke="red" stroke-width="2" d="M156,-108.5C156,-108.5 10,-108.5 10,-108.5 5,-108.5 0,-103.5 0,-98.5 0,-98.5 0,-88.5 0,-88.5 0,-83.5 5,-78.5 10,-78.5 10,-78.5 156,-78.5 156,-78.5 161,-78.5 166,-83.5 166,-88.5 166,-88.5 166,-98.5 166,-98.5 166,-103.5 161,-108.5 156,-108.5"/>
<text text-anchor="start" x="8" y="-96.5" font-family="Helvetica,sans-Serif" font-size="10.00">NtripStream::requestResponse</text>
<text text-anchor="middle" x="83" y="-85.5" font-family="Helvetica,sans-Serif" font-size="10.00">Handler</text>
</a>
</g>
</g>
<!-- Node2 -->
<g id="Node000002" class="node">
<title>Node2</title>
<g id="a_Node000002"><a xlink:href="structNetworkStatistics.html#ae5b148edcc8d178932e524e789d7baed" target="_top" xlink:title=" ">
<path fill="#fff0f0" stroke="red" d="M347,-235.5C347,-235.5 218,-235.5 218,-235.5 213,-235.5 208,-230.5 208,-225.5 208,-225.5 208,-215.5 208,-215.5 208,-210.5 213,-205.5 218,-205.5 218,-205.5 347,-205.5 347,-205.5 352,-205.5 357,-210.5 357,-215.5 357,-215.5 357,-225.5 357,-225.5 357,-230.5 352,-235.5 347,-235.5"/>
<text text-anchor="start" x="216" y="-223.5" font-family="Helvetica,sans-Serif" font-size="10.00">NetworkStatistics::</text>
<text text-anchor="middle" x="282.5" y="-212.5" font-family="Helvetica,sans-Serif" font-size="10.00">onChunkReceivedStatistics</text>
</a>
</g>
</g>
<!-- Node1&#45;&gt;Node2 -->
<g id="edge1_Node000001_Node000002" class="edge">
<title>Node1&#45;&gt;Node2</title>
<g id="a_edge1_Node000001_Node000002"><a xlink:title=" ">
<path fill="none" stroke="#63b8ff" d="M97.36,-108.71C117.78,-131.05 158.93,-172.67 202,-196.5 205.22,-198.28 208.58,-199.94 212.03,-201.5"/>
<polygon fill="#63b8ff" stroke="#63b8ff" points="210.75,-204.75 221.33,-205.35 213.43,-198.29 210.75,-204.75"/>
</a>
</g>
</g>
<!-- Node3 -->
<g id="Node000003" class="node">
<title>Node3</title>
<g id="a_Node000003"><a xlink:href="structTcpSocket.html#ae4050e3ed6adf0dbe575ca992234f798" target="_top" xlink:title=" ">
<path fill="#fff0f0" stroke="red" d="M356.67,-187C356.67,-187 208.33,-187 208.33,-187 205.17,-187 202,-183.83 202,-180.67 202,-180.67 202,-174.33 202,-174.33 202,-171.17 205.17,-168 208.33,-168 208.33,-168 356.67,-168 356.67,-168 359.83,-168 363,-171.17 363,-174.33 363,-174.33 363,-180.67 363,-180.67 363,-183.83 359.83,-187 356.67,-187"/>
<text text-anchor="middle" x="282.5" y="-175" font-family="Helvetica,sans-Serif" font-size="10.00">TcpSocket::delayedReconnect</text>
</a>
</g>
</g>
<!-- Node1&#45;&gt;Node3 -->
<g id="edge2_Node000001_Node000003" class="edge">
<title>Node1&#45;&gt;Node3</title>
<g id="a_edge2_Node000001_Node000003"><a xlink:title=" ">
<path fill="none" stroke="#63b8ff" d="M118.34,-108.51C141.22,-121.42 172.41,-139.15 202,-150.5 218.64,-156.88 238.15,-161.34 253.67,-165.3"/>
<polygon fill="#63b8ff" stroke="#63b8ff" points="253.14,-168.78 263.7,-167.97 254.94,-162.01 253.14,-168.78"/>
</a>
</g>
</g>
<!-- Node1&#45;&gt;Node3 -->
<g id="edge7_Node000001_Node000003" class="edge">
<title>Node1&#45;&gt;Node3</title>
<g id="a_edge7_Node000001_Node000003"><a xlink:title=" ">
<path fill="none" stroke="#63b8ff" d="M97.88,-108.79C117.55,-124.86 155.26,-148.86 192.18,-164.53"/>
<polygon fill="#63b8ff" stroke="#63b8ff" points="190.95,-167.81 201.53,-168.32 193.58,-161.32 190.95,-167.81"/>
</a>
</g>
</g>
<!-- Node4 -->
<g id="Node000004" class="node">
<title>Node4</title>
<g id="a_Node000004"><a xlink:href="structTcpSocket.html#ae3b75807774e6b4d266e3a1e0073a42e" target="_top" xlink:title=" ">
<path fill="#fff0f0" stroke="red" d="M520.67,-103C520.67,-103 405.33,-103 405.33,-103 402.17,-103 399,-99.83 399,-96.67 399,-96.67 399,-90.33 399,-90.33 399,-87.17 402.17,-84 405.33,-84 405.33,-84 520.67,-84 520.67,-84 523.83,-84 527,-87.17 527,-90.33 527,-90.33 527,-96.67 527,-96.67 527,-99.83 523.83,-103 520.67,-103"/>
<text text-anchor="middle" x="463" y="-91" font-family="Helvetica,sans-Serif" font-size="10.00">TcpSocket::networkLog</text>
</a>
</g>
</g>
<!-- Node1&#45;&gt;Node4 -->
<g id="edge5_Node000001_Node000004" class="edge">
<title>Node1&#45;&gt;Node4</title>
<g id="a_edge5_Node000001_Node000004"><a xlink:title=" ">
<path fill="none" stroke="#63b8ff" d="M166.02,-87.82C232.25,-86.33 324.61,-86.4 388.47,-88.03"/>
<polygon fill="#63b8ff" stroke="#63b8ff" points="388.76,-91.53 398.86,-88.31 388.96,-84.54 388.76,-91.53"/>
</a>
</g>
</g>
<!-- Node1&#45;&gt;Node4 -->
<g id="edge9_Node000001_Node000004" class="edge">
<title>Node1&#45;&gt;Node4</title>
<g id="a_edge9_Node000001_Node000004"><a xlink:title=" ">
<path fill="none" stroke="#63b8ff" d="M166.02,-99.18C232.25,-100.67 324.61,-100.6 388.47,-98.97"/>
<polygon fill="#63b8ff" stroke="#63b8ff" points="388.96,-102.46 398.86,-98.69 388.76,-95.47 388.96,-102.46"/>
</a>
</g>
</g>
<!-- Node7 -->
<g id="Node000007" class="node">
<title>Node7</title>
<g id="a_Node000007"><a xlink:href="structNtripStream.html#a83b83e8224d27404c02a2427069fb78e" target="_top" xlink:title=" ">
<path fill="#fff0f0" stroke="red" d="M356.17,-150C356.17,-150 208.83,-150 208.83,-150 205.67,-150 202.5,-146.83 202.5,-143.67 202.5,-143.67 202.5,-137.33 202.5,-137.33 202.5,-134.17 205.67,-131 208.83,-131 208.83,-131 356.17,-131 356.17,-131 359.33,-131 362.5,-134.17 362.5,-137.33 362.5,-137.33 362.5,-143.67 362.5,-143.67 362.5,-146.83 359.33,-150 356.17,-150"/>
<text text-anchor="middle" x="282.5" y="-138" font-family="Helvetica,sans-Serif" font-size="10.00">NtripStream::serverResponse</text>
</a>
</g>
</g>
<!-- Node1&#45;&gt;Node7 -->
<g id="edge4_Node000001_Node000007" class="edge">
<title>Node1&#45;&gt;Node7</title>
<g id="a_edge4_Node000001_Node000007"><a xlink:title=" ">
<path fill="none" stroke="#63b8ff" d="M147.03,-108.5C174.34,-115 205.86,-122.5 231.51,-128.6"/>
<polygon fill="#63b8ff" stroke="#63b8ff" points="230.86,-132.05 241.4,-130.96 232.48,-125.24 230.86,-132.05"/>
</a>
</g>
</g>
<!-- Node10 -->
<g id="Node000010" class="node">
<title>Node10</title>
<g id="a_Node000010"><a xlink:href="structURL.html#ab0ccd3714f16e338f40eb008b2a25cf2" target="_top" xlink:title=" ">
<path fill="#fff0f0" stroke="red" d="M319.17,-56C319.17,-56 245.83,-56 245.83,-56 242.67,-56 239.5,-52.83 239.5,-49.67 239.5,-49.67 239.5,-43.33 239.5,-43.33 239.5,-40.17 242.67,-37 245.83,-37 245.83,-37 319.17,-37 319.17,-37 322.33,-37 325.5,-40.17 325.5,-43.33 325.5,-43.33 325.5,-49.67 325.5,-49.67 325.5,-52.83 322.33,-56 319.17,-56"/>
<text text-anchor="middle" x="282.5" y="-44" font-family="Helvetica,sans-Serif" font-size="10.00">URL::sanitised</text>
</a>
</g>
</g>
<!-- Node1&#45;&gt;Node10 -->
<g id="edge6_Node000001_Node000010" class="edge">
<title>Node1&#45;&gt;Node10</title>
<g id="a_edge6_Node000001_Node000010"><a xlink:title=" ">
<path fill="none" stroke="#63b8ff" d="M123.97,-78.44C154.31,-69.8 196.28,-59.65 229.27,-52.89"/>
<polygon fill="#63b8ff" stroke="#63b8ff" points="230.08,-56.3 239.2,-50.91 228.71,-49.44 230.08,-56.3"/>
</a>
</g>
</g>
<!-- Node1&#45;&gt;Node10 -->
<g id="edge8_Node000001_Node000010" class="edge">
<title>Node1&#45;&gt;Node10</title>
<g id="a_edge8_Node000001_Node000010"><a xlink:title=" ">
<path fill="none" stroke="#63b8ff" d="M166.04,-80.64C195.64,-73.91 227.29,-65.85 249.96,-59.11"/>
<polygon fill="#63b8ff" stroke="#63b8ff" points="251.17,-62.4 259.7,-56.11 249.11,-55.71 251.17,-62.4"/>
</a>
</g>
</g>
<!-- Node11 -->
<g id="Node000011" class="node">
<title>Node11</title>
<g id="a_Node000011"><a xlink:href="structTcpSocket.html#a2c944f0ce56e451a2b3830c6eae0a883" target="_top" xlink:title=" ">
<path fill="#fff0f0" stroke="red" d="M336.67,-19C336.67,-19 228.33,-19 228.33,-19 225.17,-19 222,-15.83 222,-12.67 222,-12.67 222,-6.33 222,-6.33 222,-3.17 225.17,0 228.33,0 228.33,0 336.67,0 336.67,0 339.83,0 343,-3.17 343,-6.33 343,-6.33 343,-12.67 343,-12.67 343,-15.83 339.83,-19 336.67,-19"/>
<text text-anchor="middle" x="282.5" y="-7" font-family="Helvetica,sans-Serif" font-size="10.00">TcpSocket::connected</text>
</a>
</g>
</g>
<!-- Node1&#45;&gt;Node11 -->
<g id="edge10_Node000001_Node000011" class="edge">
<title>Node1&#45;&gt;Node11</title>
<g id="a_edge10_Node000001_Node000011"><a xlink:title=" ">
<path fill="none" stroke="#63b8ff" d="M107.05,-78.35C130.2,-63.74 167.32,-41.91 202,-28.5 208.64,-25.93 215.74,-23.64 222.85,-21.61"/>
<polygon fill="#63b8ff" stroke="#63b8ff" points="223.77,-24.99 232.52,-19.02 221.95,-18.23 223.77,-24.99"/>
</a>
</g>
</g>
<!-- Node3&#45;&gt;Node4 -->
<g id="edge3_Node000003_Node000004" class="edge">
<title>Node3&#45;&gt;Node4</title>
<g id="a_edge3_Node000003_Node000004"><a xlink:title=" ">
<path fill="none" stroke="#63b8ff" d="M338.22,-167.89C346.68,-165.62 355.2,-162.85 363,-159.5 392.96,-146.64 423.61,-124.55 442.71,-109.5"/>
<polygon fill="#63b8ff" stroke="#63b8ff" points="445.02,-112.13 450.63,-103.14 440.64,-106.67 445.02,-112.13"/>
</a>
</g>
</g>
</g>
</svg>
