<?xml version="1.0" encoding="UTF-8" standalone="no"?>
<!DOCTYPE svg PUBLIC "-//W3C//DTD SVG 1.1//EN"
 "http://www.w3.org/Graphics/SVG/1.1/DTD/svg11.dtd">
<!-- Generated by graphviz version 2.43.0 (0)
 -->
<!-- Title: SinexPreCode Pages: 1 -->
<svg width="125pt" height="180pt"
 viewBox="0.00 0.00 125.00 180.00" xmlns="http://www.w3.org/2000/svg" xmlns:xlink="http://www.w3.org/1999/xlink">
<g id="graph0" class="graph" transform="scale(1 1) rotate(0) translate(4 176)">
<title>SinexPreCode</title>
<!-- Node1 -->
<g id="Node000001" class="node">
<title>Node1</title>
<g id="a_Node000001"><a xlink:href="structSinexPreCode.html" target="_top" xlink:title=" ">
<path fill="white" stroke="#666666" stroke-width="2" d="M82,-57C82,-57 12,-57 12,-57 6,-57 0,-51 0,-45 0,-45 0,-12 0,-12 0,-6 6,0 12,0 12,0 82,0 82,0 88,0 94,-6 94,-12 94,-12 94,-45 94,-45 94,-51 88,-57 82,-57"/>
<text text-anchor="start" x="13" y="-40.5" font-family="Helvetica,sans-Serif" font-size="10.00">SinexPreCode</text>
<text text-anchor="start" x="45" y="-25.5" font-family="Helvetica,sans-Serif" font-size="10.00"> </text>
<text text-anchor="start" x="45" y="-10.5" font-family="Helvetica,sans-Serif" font-size="10.00"> </text>
<polygon fill="#666666" stroke="#666666" points="8,-35.5 8,-35.5 86,-35.5 86,-35.5 8,-35.5"/>
<polygon fill="#666666" stroke="#666666" points="8,-20.5 8,-20.5 86,-20.5 86,-20.5 8,-20.5"/>
<polygon fill="none" stroke="#666666" points="8,-4 8,-53 86,-53 86,-4 8,-4"/>
</a>
</g>
</g>
<!-- Node2 -->
<g id="Node000002" class="node">
<title>Node2</title>
<g id="a_Node000002"><a xlink:title=" ">
<path fill="white" stroke="#666666" d="M62,-172C62,-172 32,-172 32,-172 26,-172 20,-166 20,-160 20,-160 20,-127 20,-127 20,-121 26,-115 32,-115 32,-115 62,-115 62,-115 68,-115 74,-121 74,-127 74,-127 74,-160 74,-160 74,-166 68,-172 62,-172"/>
<text text-anchor="start" x="33" y="-155.5" font-family="Helvetica,sans-Serif" font-size="10.00">string</text>
<text text-anchor="start" x="45" y="-140.5" font-family="Helvetica,sans-Serif" font-size="10.00"> </text>
<text text-anchor="start" x="45" y="-125.5" font-family="Helvetica,sans-Serif" font-size="10.00"> </text>
<polygon fill="#666666" stroke="#666666" points="28,-150.5 28,-150.5 66,-150.5 66,-150.5 28,-150.5"/>
<polygon fill="#666666" stroke="#666666" points="28,-135.5 28,-135.5 66,-135.5 66,-135.5 28,-135.5"/>
<polygon fill="none" stroke="#666666" points="28,-119 28,-168 66,-168 66,-119 28,-119"/>
</a>
</g>
</g>
<!-- Node2&#45;&gt;Node1 -->
<g id="edge1_Node000001_Node000002" class="edge">
<title>Node2&#45;&gt;Node1</title>
<g id="a_edge1_Node000001_Node000002"><a xlink:title=" ">
<path fill="none" stroke="#63b8ff" d="M47,-114.86C47,-101.18 47,-84.41 47,-69.37"/>
<polygon fill="none" stroke="#63b8ff" points="47,-69.25 43,-63.25 47,-57.25 51,-63.25 47,-69.25"/>
</a>
</g>
<text text-anchor="middle" x="82" y="-89" font-family="Helvetica,sans-Serif" font-size="10.00" fill="grey"> +comment</text>
<text text-anchor="middle" x="82" y="-78" font-family="Helvetica,sans-Serif" font-size="10.00" fill="grey">+precesscode</text>
</g>
</g>
</svg>
