<?xml version="1.0" encoding="UTF-8" standalone="no"?>
<!DOCTYPE svg PUBLIC "-//W3C//DTD SVG 1.1//EN"
 "http://www.w3.org/Graphics/SVG/1.1/DTD/svg11.dtd">
<!-- Generated by graphviz version 2.43.0 (0)
 -->
<!-- Title: Parser Pages: 1 -->
<svg width="106pt" height="95pt"
 viewBox="0.00 0.00 106.00 95.00" xmlns="http://www.w3.org/2000/svg" xmlns:xlink="http://www.w3.org/1999/xlink">
<g id="graph0" class="graph" transform="scale(1 1) rotate(0) translate(4 91)">
<title>Parser</title>
<!-- Node1 -->
<g id="Node000001" class="node">
<title>Node1</title>
<g id="a_Node000001"><a xlink:href="structParser.html" target="_top" xlink:title=" ">
<path fill="white" stroke="#666666" stroke-width="2" d="M86,-87C86,-87 12,-87 12,-87 6,-87 0,-81 0,-75 0,-75 0,-12 0,-12 0,-6 6,0 12,0 12,0 86,0 86,0 92,0 98,-6 98,-12 98,-12 98,-75 98,-75 98,-81 92,-87 86,-87"/>
<text text-anchor="start" x="33.5" y="-70.5" font-family="Helvetica,sans-Serif" font-size="10.00">Parser</text>
<text text-anchor="start" x="47" y="-55.5" font-family="Helvetica,sans-Serif" font-size="10.00"> </text>
<text text-anchor="start" x="12" y="-40.5" font-family="Helvetica,sans-Serif" font-size="10.00">+</text>
<text text-anchor="start" x="25" y="-40.5" font-family="Helvetica,sans-Serif" font-size="10.00">parse()</text>
<text text-anchor="start" x="12" y="-25.5" font-family="Helvetica,sans-Serif" font-size="10.00">+</text>
<text text-anchor="start" x="25" y="-25.5" font-family="Helvetica,sans-Serif" font-size="10.00">parserType()</text>
<text text-anchor="start" x="12" y="-10.5" font-family="Helvetica,sans-Serif" font-size="10.00">+</text>
<text text-anchor="start" x="25" y="-10.5" font-family="Helvetica,sans-Serif" font-size="10.00">~Parser()</text>
<polygon fill="#666666" stroke="#666666" points="8,-65.5 8,-65.5 90,-65.5 90,-65.5 8,-65.5"/>
<polygon fill="#666666" stroke="#666666" points="8,-50.5 8,-50.5 90,-50.5 90,-50.5 8,-50.5"/>
<polygon fill="none" stroke="#666666" points="8,-4 8,-83 90,-83 90,-4 8,-4"/>
</a>
</g>
</g>
</g>
</svg>
