<?xml version="1.0" encoding="UTF-8" standalone="no"?>
<!DOCTYPE svg PUBLIC "-//W3C//DTD SVG 1.1//EN"
 "http://www.w3.org/Graphics/SVG/1.1/DTD/svg11.dtd">
<!-- Generated by graphviz version 2.43.0 (0)
 -->
<!-- Title: RtcmEncoder::getUdiIndex Pages: 1 -->
<svg width="366pt" height="56pt"
 viewBox="0.00 0.00 366.00 56.00" xmlns="http://www.w3.org/2000/svg" xmlns:xlink="http://www.w3.org/1999/xlink">
<g id="graph0" class="graph" transform="scale(1 1) rotate(0) translate(4 52)">
<title>RtcmEncoder::getUdiIndex</title>
<!-- Node1 -->
<g id="Node000001" class="node">
<title>Node1</title>
<g id="a_Node000001"><a xlink:href="structRtcmEncoder.html#a7d44e45822f54c629d33bfa9588b0b64" target="_top" xlink:title=" ">
<path fill="#fff0f0" stroke="red" stroke-width="2" d="M351.67,-24.5C351.67,-24.5 218.33,-24.5 218.33,-24.5 215.17,-24.5 212,-21.33 212,-18.17 212,-18.17 212,-11.83 212,-11.83 212,-8.67 215.17,-5.5 218.33,-5.5 218.33,-5.5 351.67,-5.5 351.67,-5.5 354.83,-5.5 358,-8.67 358,-11.83 358,-11.83 358,-18.17 358,-18.17 358,-21.33 354.83,-24.5 351.67,-24.5"/>
<text text-anchor="middle" x="285" y="-12.5" font-family="Helvetica,sans-Serif" font-size="10.00">RtcmEncoder::getUdiIndex</text>
</a>
</g>
</g>
<!-- Node2 -->
<g id="Node000002" class="node">
<title>Node2</title>
<g id="a_Node000002"><a xlink:href="structNtripUploader.html#aed62670c2d0d02f1bb0d930f42e68609" target="_top" xlink:title=" ">
<path fill="#fff0f0" stroke="red" d="M166,-30C166,-30 10,-30 10,-30 5,-30 0,-25 0,-20 0,-20 0,-10 0,-10 0,-5 5,0 10,0 10,0 166,0 166,0 171,0 176,-5 176,-10 176,-10 176,-20 176,-20 176,-25 171,-30 166,-30"/>
<text text-anchor="start" x="8" y="-18" font-family="Helvetica,sans-Serif" font-size="10.00">NtripUploader::messageTimeout</text>
<text text-anchor="middle" x="88" y="-7" font-family="Helvetica,sans-Serif" font-size="10.00">Handler</text>
</a>
</g>
</g>
<!-- Node1&#45;&gt;Node2 -->
<g id="edge1_Node000001_Node000002" class="edge">
<title>Node1&#45;&gt;Node2</title>
<g id="a_edge1_Node000001_Node000002"><a xlink:title=" ">
<path fill="none" stroke="#63b8ff" d="M201.76,-15C193.34,-15 184.76,-15 176.29,-15"/>
<polygon fill="#63b8ff" stroke="#63b8ff" points="201.94,-18.5 211.94,-15 201.94,-11.5 201.94,-18.5"/>
</a>
</g>
</g>
<!-- Node2&#45;&gt;Node2 -->
<g id="edge2_Node000002_Node000002" class="edge">
<title>Node2&#45;&gt;Node2</title>
<g id="a_edge2_Node000002_Node000002"><a xlink:title=" ">
<path fill="none" stroke="#63b8ff" d="M122.31,-40.6C117.62,-44.97 106.18,-48 88,-48 57.37,-48 45.89,-39.41 53.55,-30.28"/>
<polygon fill="#63b8ff" stroke="#63b8ff" points="125.81,-40.32 122.45,-30.28 118.81,-40.22 125.81,-40.32"/>
</a>
</g>
</g>
</g>
</svg>
