<?xml version="1.0" encoding="UTF-8" standalone="no"?>
<!DOCTYPE svg PUBLIC "-//W3C//DTD SVG 1.1//EN"
 "http://www.w3.org/Graphics/SVG/1.1/DTD/svg11.dtd">
<!-- Generated by graphviz version 2.43.0 (0)
 -->
<!-- Title: PTime Pages: 1 -->
<svg width="130pt" height="80pt"
 viewBox="0.00 0.00 130.00 80.00" xmlns="http://www.w3.org/2000/svg" xmlns:xlink="http://www.w3.org/1999/xlink">
<g id="graph0" class="graph" transform="scale(1 1) rotate(0) translate(4 76)">
<title>PTime</title>
<!-- Node1 -->
<g id="Node000001" class="node">
<title>Node1</title>
<g id="a_Node000001"><a xlink:href="structPTime.html" target="_top" xlink:title=" ">
<path fill="white" stroke="#666666" stroke-width="2" d="M110,-72C110,-72 12,-72 12,-72 6,-72 0,-66 0,-60 0,-60 0,-12 0,-12 0,-6 6,0 12,0 12,0 110,0 110,0 116,0 122,-6 122,-12 122,-12 122,-60 122,-60 122,-66 116,-72 110,-72"/>
<text text-anchor="start" x="45.5" y="-56" font-family="Helvetica,sans-Serif" font-size="10.00">PTime</text>
<text text-anchor="start" x="12" y="-41" font-family="Helvetica,sans-Serif" font-size="10.00">+</text>
<text text-anchor="start" x="25" y="-41" font-family="Helvetica,sans-Serif" font-size="10.00">bigTime</text>
<text text-anchor="start" x="12" y="-26" font-family="Helvetica,sans-Serif" font-size="10.00">+</text>
<text text-anchor="start" x="25" y="-26" font-family="Helvetica,sans-Serif" font-size="10.00">PTime()</text>
<text text-anchor="start" x="12" y="-11" font-family="Helvetica,sans-Serif" font-size="10.00">+</text>
<text text-anchor="start" x="25" y="-11" font-family="Helvetica,sans-Serif" font-size="10.00">operator GTime()</text>
<polygon fill="#666666" stroke="#666666" points="8,-51 8,-51 114,-51 114,-51 8,-51"/>
<polygon fill="#666666" stroke="#666666" points="8,-36 8,-36 23,-36 23,-36 8,-36"/>
<polygon fill="#666666" stroke="#666666" points="23,-36 23,-36 114,-36 114,-36 23,-36"/>
<polygon fill="none" stroke="#666666" points="8,-4 8,-68 114,-68 114,-4 8,-4"/>
</a>
</g>
</g>
</g>
</svg>
