<?xml version="1.0" encoding="UTF-8" standalone="no"?>
<!DOCTYPE svg PUBLIC "-//W3C//DTD SVG 1.1//EN"
 "http://www.w3.org/Graphics/SVG/1.1/DTD/svg11.dtd">
<!-- Generated by graphviz version 2.43.0 (0)
 -->
<!-- Title: OrbexEntry Pages: 1 -->
<svg width="325pt" height="587pt"
 viewBox="0.00 0.00 324.50 587.00" xmlns="http://www.w3.org/2000/svg" xmlns:xlink="http://www.w3.org/1999/xlink">
<g id="graph0" class="graph" transform="scale(1 1) rotate(0) translate(4 583)">
<title>OrbexEntry</title>
<!-- Node1 -->
<g id="Node000001" class="node">
<title>Node1</title>
<g id="a_Node000001"><a xlink:href="structOrbexEntry.html" target="_top" xlink:title="ORBEX entry to write out.">
<path fill="white" stroke="#666666" stroke-width="2" d="M206.5,-102C206.5,-102 147.5,-102 147.5,-102 141.5,-102 135.5,-96 135.5,-90 135.5,-90 135.5,-12 135.5,-12 135.5,-6 141.5,0 147.5,0 147.5,0 206.5,0 206.5,0 212.5,0 218.5,-6 218.5,-12 218.5,-12 218.5,-90 218.5,-90 218.5,-96 212.5,-102 206.5,-102"/>
<text text-anchor="start" x="150" y="-86" font-family="Helvetica,sans-Serif" font-size="10.00">OrbexEntry</text>
<text text-anchor="start" x="148" y="-71" font-family="Helvetica,sans-Serif" font-size="10.00">+</text>
<text text-anchor="start" x="161" y="-71" font-family="Helvetica,sans-Serif" font-size="10.00">clk</text>
<text text-anchor="start" x="148" y="-56" font-family="Helvetica,sans-Serif" font-size="10.00">+</text>
<text text-anchor="start" x="161" y="-56" font-family="Helvetica,sans-Serif" font-size="10.00">clkVel</text>
<text text-anchor="start" x="148" y="-41" font-family="Helvetica,sans-Serif" font-size="10.00">+</text>
<text text-anchor="start" x="161" y="-41" font-family="Helvetica,sans-Serif" font-size="10.00">clkStd</text>
<text text-anchor="start" x="148" y="-26" font-family="Helvetica,sans-Serif" font-size="10.00">+</text>
<text text-anchor="start" x="161" y="-26" font-family="Helvetica,sans-Serif" font-size="10.00">clkVelStd</text>
<text text-anchor="start" x="175.5" y="-11" font-family="Helvetica,sans-Serif" font-size="10.00"> </text>
<polygon fill="#666666" stroke="#666666" points="144,-81 144,-81 211,-81 211,-81 144,-81"/>
<polygon fill="#666666" stroke="#666666" points="144,-21 144,-21 159,-21 159,-21 144,-21"/>
<polygon fill="#666666" stroke="#666666" points="159,-21 159,-21 211,-21 211,-21 159,-21"/>
<polygon fill="none" stroke="#666666" points="143.5,-4 143.5,-98 210.5,-98 210.5,-4 143.5,-4"/>
</a>
</g>
</g>
<!-- Node2 -->
<g id="Node000002" class="node">
<title>Node2</title>
<g id="a_Node000002"><a xlink:href="structSatSys.html" target="_top" xlink:title="Object holding satellite id, and providing related functions.">
<path fill="white" stroke="#666666" d="M112.5,-464C112.5,-464 19.5,-464 19.5,-464 13.5,-464 7.5,-458 7.5,-452 7.5,-452 7.5,-194 7.5,-194 7.5,-188 13.5,-182 19.5,-182 19.5,-182 112.5,-182 112.5,-182 118.5,-182 124.5,-188 124.5,-194 124.5,-194 124.5,-452 124.5,-452 124.5,-458 118.5,-464 112.5,-464"/>
<text text-anchor="start" x="49.5" y="-448" font-family="Helvetica,sans-Serif" font-size="10.00">SatSys</text>
<text text-anchor="start" x="20" y="-433" font-family="Helvetica,sans-Serif" font-size="10.00">+</text>
<text text-anchor="start" x="33" y="-433" font-family="Helvetica,sans-Serif" font-size="10.00">sys</text>
<text text-anchor="start" x="20" y="-418" font-family="Helvetica,sans-Serif" font-size="10.00">+</text>
<text text-anchor="start" x="33" y="-418" font-family="Helvetica,sans-Serif" font-size="10.00">prn</text>
<text text-anchor="start" x="20" y="-403" font-family="Helvetica,sans-Serif" font-size="10.00">+</text>
<text text-anchor="start" x="33" y="-403" font-family="Helvetica,sans-Serif" font-size="10.00">SatSys()</text>
<text text-anchor="start" x="20" y="-388" font-family="Helvetica,sans-Serif" font-size="10.00">+</text>
<text text-anchor="start" x="33" y="-388" font-family="Helvetica,sans-Serif" font-size="10.00">sysChar()</text>
<text text-anchor="start" x="20" y="-373" font-family="Helvetica,sans-Serif" font-size="10.00">+</text>
<text text-anchor="start" x="33" y="-373" font-family="Helvetica,sans-Serif" font-size="10.00">getId()</text>
<text text-anchor="start" x="20" y="-358" font-family="Helvetica,sans-Serif" font-size="10.00">+</text>
<text text-anchor="start" x="33" y="-358" font-family="Helvetica,sans-Serif" font-size="10.00">operator int()</text>
<text text-anchor="start" x="20" y="-343" font-family="Helvetica,sans-Serif" font-size="10.00">+</text>
<text text-anchor="start" x="33" y="-343" font-family="Helvetica,sans-Serif" font-size="10.00">setBlockType()</text>
<text text-anchor="start" x="20" y="-328" font-family="Helvetica,sans-Serif" font-size="10.00">+</text>
<text text-anchor="start" x="33" y="-328" font-family="Helvetica,sans-Serif" font-size="10.00">setSvn()</text>
<text text-anchor="start" x="20" y="-313" font-family="Helvetica,sans-Serif" font-size="10.00">+</text>
<text text-anchor="start" x="33" y="-313" font-family="Helvetica,sans-Serif" font-size="10.00">blockType()</text>
<text text-anchor="start" x="20" y="-298" font-family="Helvetica,sans-Serif" font-size="10.00">+</text>
<text text-anchor="start" x="33" y="-298" font-family="Helvetica,sans-Serif" font-size="10.00">svn()</text>
<text text-anchor="start" x="20" y="-283" font-family="Helvetica,sans-Serif" font-size="10.00">+</text>
<text text-anchor="start" x="33" y="-283" font-family="Helvetica,sans-Serif" font-size="10.00">fromHash()</text>
<text text-anchor="start" x="20" y="-268" font-family="Helvetica,sans-Serif" font-size="10.00">+</text>
<text text-anchor="start" x="33" y="-268" font-family="Helvetica,sans-Serif" font-size="10.00">id()</text>
<text text-anchor="start" x="20" y="-253" font-family="Helvetica,sans-Serif" font-size="10.00">+</text>
<text text-anchor="start" x="33" y="-253" font-family="Helvetica,sans-Serif" font-size="10.00">operator string()</text>
<text text-anchor="start" x="20" y="-238" font-family="Helvetica,sans-Serif" font-size="10.00">+</text>
<text text-anchor="start" x="33" y="-238" font-family="Helvetica,sans-Serif" font-size="10.00">SatSys()</text>
<text text-anchor="start" x="20" y="-223" font-family="Helvetica,sans-Serif" font-size="10.00">+</text>
<text text-anchor="start" x="33" y="-223" font-family="Helvetica,sans-Serif" font-size="10.00">sysName()</text>
<text text-anchor="start" x="20" y="-208" font-family="Helvetica,sans-Serif" font-size="10.00">+</text>
<text text-anchor="start" x="33" y="-208" font-family="Helvetica,sans-Serif" font-size="10.00">serialize()</text>
<text text-anchor="start" x="20" y="-193" font-family="Helvetica,sans-Serif" font-size="10.00">+</text>
<text text-anchor="start" x="33" y="-193" font-family="Helvetica,sans-Serif" font-size="10.00">sysFromChar()</text>
<polygon fill="#666666" stroke="#666666" points="16,-443 16,-443 117,-443 117,-443 16,-443"/>
<polygon fill="#666666" stroke="#666666" points="16,-413 16,-413 31,-413 31,-413 16,-413"/>
<polygon fill="#666666" stroke="#666666" points="31,-413 31,-413 117,-413 117,-413 31,-413"/>
<polygon fill="none" stroke="#666666" points="15.5,-186 15.5,-460 116.5,-460 116.5,-186 15.5,-186"/>
</a>
</g>
</g>
<!-- Node2&#45;&gt;Node1 -->
<g id="edge1_Node000001_Node000002" class="edge">
<title>Node2&#45;&gt;Node1</title>
<g id="a_edge1_Node000001_Node000002"><a xlink:title=" ">
<path fill="none" stroke="#63b8ff" d="M119.4,-181.87C127.74,-161.03 136.44,-139.89 145,-120 145.93,-117.84 146.88,-115.65 147.86,-113.44"/>
<polygon fill="none" stroke="#63b8ff" points="147.93,-113.28 146.75,-106.16 152.86,-102.33 154.04,-109.44 147.93,-113.28"/>
</a>
</g>
<text text-anchor="middle" x="159" y="-139.5" font-family="Helvetica,sans-Serif" font-size="10.00" fill="grey"> +Sat</text>
</g>
<!-- Node3 -->
<g id="Node000003" class="node">
<title>Node3</title>
<g id="a_Node000003"><a xlink:title=" ">
<path fill="#fff0f0" stroke="red" d="M120,-579C120,-579 12,-579 12,-579 6,-579 0,-573 0,-567 0,-567 0,-523 0,-523 0,-517 6,-511 12,-511 12,-511 120,-511 120,-511 126,-511 132,-517 132,-523 132,-523 132,-567 132,-567 132,-573 126,-579 120,-579"/>
<text text-anchor="start" x="13" y="-563" font-family="Helvetica,sans-Serif" font-size="10.00">map&lt; SatSys, SatSys</text>
<text text-anchor="start" x="37.5" y="-552" font-family="Helvetica,sans-Serif" font-size="10.00">::SatData &gt;</text>
<text text-anchor="start" x="64" y="-537" font-family="Helvetica,sans-Serif" font-size="10.00"> </text>
<text text-anchor="start" x="64" y="-522" font-family="Helvetica,sans-Serif" font-size="10.00"> </text>
<polygon fill="red" stroke="red" points="8,-547 8,-547 124,-547 124,-547 8,-547"/>
<polygon fill="red" stroke="red" points="8,-532 8,-532 124,-532 124,-532 8,-532"/>
<polygon fill="none" stroke="red" points="8,-515 8,-575 124,-575 124,-515 8,-515"/>
</a>
</g>
</g>
<!-- Node3&#45;&gt;Node2 -->
<g id="edge2_Node000002_Node000003" class="edge">
<title>Node3&#45;&gt;Node2</title>
<g id="a_edge2_Node000002_Node000003"><a xlink:title=" ">
<path fill="none" stroke="#63b8ff" d="M66,-510.59C66,-500.66 66,-489.08 66,-476.63"/>
<polygon fill="none" stroke="#63b8ff" points="66,-476.47 62,-470.47 66,-464.47 70,-470.47 66,-476.47"/>
</a>
</g>
<text text-anchor="middle" x="101.5" y="-485" font-family="Helvetica,sans-Serif" font-size="10.00" fill="grey"> +satDataMap</text>
</g>
<!-- Node5 -->
<g id="Node000005" class="node">
<title>Node5</title>
<g id="a_Node000005"><a xlink:title=" ">
<path fill="white" stroke="#666666" d="M199.5,-351.5C199.5,-351.5 154.5,-351.5 154.5,-351.5 148.5,-351.5 142.5,-345.5 142.5,-339.5 142.5,-339.5 142.5,-306.5 142.5,-306.5 142.5,-300.5 148.5,-294.5 154.5,-294.5 154.5,-294.5 199.5,-294.5 199.5,-294.5 205.5,-294.5 211.5,-300.5 211.5,-306.5 211.5,-306.5 211.5,-339.5 211.5,-339.5 211.5,-345.5 205.5,-351.5 199.5,-351.5"/>
<text text-anchor="start" x="156" y="-335" font-family="Helvetica,sans-Serif" font-size="10.00">Vector3d</text>
<text text-anchor="start" x="175.5" y="-320" font-family="Helvetica,sans-Serif" font-size="10.00"> </text>
<text text-anchor="start" x="175.5" y="-305" font-family="Helvetica,sans-Serif" font-size="10.00"> </text>
<polygon fill="#666666" stroke="#666666" points="151,-330 151,-330 204,-330 204,-330 151,-330"/>
<polygon fill="#666666" stroke="#666666" points="151,-315 151,-315 204,-315 204,-315 151,-315"/>
<polygon fill="none" stroke="#666666" points="150.5,-298.5 150.5,-347.5 203.5,-347.5 203.5,-298.5 150.5,-298.5"/>
</a>
</g>
</g>
<!-- Node5&#45;&gt;Node1 -->
<g id="edge3_Node000001_Node000005" class="edge">
<title>Node5&#45;&gt;Node1</title>
<g id="a_edge3_Node000001_Node000005"><a xlink:title=" ">
<path fill="none" stroke="#63b8ff" d="M177,-294.37C177,-252.3 177,-171.08 177,-114.3"/>
<polygon fill="none" stroke="#63b8ff" points="177,-114.22 173,-108.22 177,-102.22 181,-108.22 177,-114.22"/>
</a>
</g>
<text text-anchor="middle" x="198" y="-156" font-family="Helvetica,sans-Serif" font-size="10.00" fill="grey"> +pos</text>
<text text-anchor="middle" x="198" y="-145" font-family="Helvetica,sans-Serif" font-size="10.00" fill="grey">+posStd</text>
<text text-anchor="middle" x="198" y="-134" font-family="Helvetica,sans-Serif" font-size="10.00" fill="grey">+vel</text>
<text text-anchor="middle" x="198" y="-123" font-family="Helvetica,sans-Serif" font-size="10.00" fill="grey">+velStd</text>
</g>
<!-- Node6 -->
<g id="Node000006" class="node">
<title>Node6</title>
<g id="a_Node000006"><a xlink:title=" ">
<path fill="white" stroke="#666666" d="M304.5,-351.5C304.5,-351.5 241.5,-351.5 241.5,-351.5 235.5,-351.5 229.5,-345.5 229.5,-339.5 229.5,-339.5 229.5,-306.5 229.5,-306.5 229.5,-300.5 235.5,-294.5 241.5,-294.5 241.5,-294.5 304.5,-294.5 304.5,-294.5 310.5,-294.5 316.5,-300.5 316.5,-306.5 316.5,-306.5 316.5,-339.5 316.5,-339.5 316.5,-345.5 310.5,-351.5 304.5,-351.5"/>
<text text-anchor="start" x="243" y="-335" font-family="Helvetica,sans-Serif" font-size="10.00">Quaterniond</text>
<text text-anchor="start" x="271.5" y="-320" font-family="Helvetica,sans-Serif" font-size="10.00"> </text>
<text text-anchor="start" x="271.5" y="-305" font-family="Helvetica,sans-Serif" font-size="10.00"> </text>
<polygon fill="#666666" stroke="#666666" points="238,-330 238,-330 309,-330 309,-330 238,-330"/>
<polygon fill="#666666" stroke="#666666" points="238,-315 238,-315 309,-315 309,-315 238,-315"/>
<polygon fill="none" stroke="#666666" points="237.5,-298.5 237.5,-347.5 308.5,-347.5 308.5,-298.5 237.5,-298.5"/>
</a>
</g>
</g>
<!-- Node6&#45;&gt;Node1 -->
<g id="edge4_Node000001_Node000006" class="edge">
<title>Node6&#45;&gt;Node1</title>
<g id="a_edge4_Node000001_Node000006"><a xlink:title=" ">
<path fill="none" stroke="#63b8ff" d="M269.29,-294.2C263.26,-254.3 249.29,-179.08 223,-120 221.92,-117.57 220.75,-115.13 219.51,-112.69"/>
<polygon fill="none" stroke="#63b8ff" points="219.47,-112.63 213.08,-109.29 213.7,-102.11 220.09,-105.44 219.47,-112.63"/>
</a>
</g>
<text text-anchor="middle" x="248" y="-139.5" font-family="Helvetica,sans-Serif" font-size="10.00" fill="grey"> +q</text>
</g>
</g>
</svg>
