<?xml version="1.0" encoding="UTF-8" standalone="no"?>
<!DOCTYPE svg PUBLIC "-//W3C//DTD SVG 1.1//EN"
 "http://www.w3.org/Graphics/SVG/1.1/DTD/svg11.dtd">
<!-- Generated by graphviz version 2.43.0 (0)
 -->
<!-- Title: SatSys::sysName Pages: 1 -->
<svg width="272pt" height="64pt"
 viewBox="0.00 0.00 272.00 64.00" xmlns="http://www.w3.org/2000/svg" xmlns:xlink="http://www.w3.org/1999/xlink">
<g id="graph0" class="graph" transform="scale(1 1) rotate(0) translate(4 60)">
<title>SatSys::sysName</title>
<!-- Node1 -->
<g id="Node000001" class="node">
<title>Node1</title>
<g id="a_Node000001"><a xlink:href="structSatSys.html#a099c890a6a613ec08f3260a51f0544f8" target="_top" xlink:title=" ">
<path fill="#fff0f0" stroke="red" stroke-width="2" d="M257.67,-37C257.67,-37 169.33,-37 169.33,-37 166.17,-37 163,-33.83 163,-30.67 163,-30.67 163,-24.33 163,-24.33 163,-21.17 166.17,-18 169.33,-18 169.33,-18 257.67,-18 257.67,-18 260.83,-18 264,-21.17 264,-24.33 264,-24.33 264,-30.67 264,-30.67 264,-33.83 260.83,-37 257.67,-37"/>
<text text-anchor="middle" x="213.5" y="-25" font-family="Helvetica,sans-Serif" font-size="10.00">SatSys::sysName</text>
</a>
</g>
</g>
<!-- Node2 -->
<g id="Node000002" class="node">
<title>Node2</title>
<g id="a_Node000002"><a xlink:href="rinex_8cpp.html#a774458b36a7a13e1263568e05106dc83" target="_top" xlink:title="Decode obs header.">
<path fill="#fff0f0" stroke="red" d="M96.17,-56C96.17,-56 30.83,-56 30.83,-56 27.67,-56 24.5,-52.83 24.5,-49.67 24.5,-49.67 24.5,-43.33 24.5,-43.33 24.5,-40.17 27.67,-37 30.83,-37 30.83,-37 96.17,-37 96.17,-37 99.33,-37 102.5,-40.17 102.5,-43.33 102.5,-43.33 102.5,-49.67 102.5,-49.67 102.5,-52.83 99.33,-56 96.17,-56"/>
<text text-anchor="middle" x="63.5" y="-44" font-family="Helvetica,sans-Serif" font-size="10.00">decodeObsH</text>
</a>
</g>
</g>
<!-- Node1&#45;&gt;Node2 -->
<g id="edge1_Node000001_Node000002" class="edge">
<title>Node1&#45;&gt;Node2</title>
<g id="a_edge1_Node000001_Node000002"><a xlink:title=" ">
<path fill="none" stroke="#63b8ff" d="M152.48,-35.21C135.63,-37.37 117.78,-39.66 102.59,-41.61"/>
<polygon fill="#63b8ff" stroke="#63b8ff" points="153.33,-38.62 162.81,-33.88 152.44,-31.68 153.33,-38.62"/>
</a>
</g>
</g>
<!-- Node6 -->
<g id="Node000006" class="node">
<title>Node6</title>
<g id="a_Node000006"><a xlink:href="structACSConfig.html#a20ca3689eafecfa2b7e656c28e340256" target="_top" xlink:title="Set satellite options for a specific satellite using a hierarchy of sources.">
<path fill="#fff0f0" stroke="red" d="M120.67,-19C120.67,-19 6.33,-19 6.33,-19 3.17,-19 0,-15.83 0,-12.67 0,-12.67 0,-6.33 0,-6.33 0,-3.17 3.17,0 6.33,0 6.33,0 120.67,0 120.67,0 123.83,0 127,-3.17 127,-6.33 127,-6.33 127,-12.67 127,-12.67 127,-15.83 123.83,-19 120.67,-19"/>
<text text-anchor="middle" x="63.5" y="-7" font-family="Helvetica,sans-Serif" font-size="10.00">ACSConfig::getSatOpts</text>
</a>
</g>
</g>
<!-- Node1&#45;&gt;Node6 -->
<g id="edge2_Node000001_Node000006" class="edge">
<title>Node1&#45;&gt;Node6</title>
<g id="a_edge2_Node000001_Node000006"><a xlink:title=" ">
<path fill="none" stroke="#63b8ff" d="M152.72,-20.23C144.31,-19.21 135.66,-18.15 127.2,-17.13"/>
<polygon fill="#63b8ff" stroke="#63b8ff" points="152.46,-23.72 162.81,-21.46 153.3,-16.77 152.46,-23.72"/>
</a>
</g>
</g>
</g>
</svg>
