<?xml version="1.0" encoding="UTF-8" standalone="no"?>
<!DOCTYPE svg PUBLIC "-//W3C//DTD SVG 1.1//EN"
 "http://www.w3.org/Graphics/SVG/1.1/DTD/svg11.dtd">
<!-- Generated by graphviz version 2.43.0 (0)
 -->
<!-- Title: SatelliteOptions Pages: 1 -->
<svg width="1717pt" height="1206pt"
 viewBox="0.00 0.00 1716.50 1206.00" xmlns="http://www.w3.org/2000/svg" xmlns:xlink="http://www.w3.org/1999/xlink">
<g id="graph0" class="graph" transform="scale(1 1) rotate(0) translate(4 1202)">
<title>SatelliteOptions</title>
<!-- Node1 -->
<g id="Node000001" class="node">
<title>Node1</title>
<g id="a_Node000001"><a xlink:href="structSatelliteOptions.html" target="_top" xlink:title="Options to be applied to kalman filter states for individual satellites.">
<path fill="white" stroke="#666666" stroke-width="2" d="M1209,-117C1209,-117 1087,-117 1087,-117 1081,-117 1075,-111 1075,-105 1075,-105 1075,-12 1075,-12 1075,-6 1081,0 1087,0 1087,0 1209,0 1209,0 1215,0 1221,-6 1221,-12 1221,-12 1221,-105 1221,-105 1221,-111 1215,-117 1209,-117"/>
<text text-anchor="start" x="1108.5" y="-100.5" font-family="Helvetica,sans-Serif" font-size="10.00">SatelliteOptions</text>
<text text-anchor="start" x="1087" y="-85.5" font-family="Helvetica,sans-Serif" font-size="10.00">+</text>
<text text-anchor="start" x="1100" y="-85.5" font-family="Helvetica,sans-Serif" font-size="10.00">_initialised</text>
<text text-anchor="start" x="1087" y="-70.5" font-family="Helvetica,sans-Serif" font-size="10.00">+</text>
<text text-anchor="start" x="1100" y="-70.5" font-family="Helvetica,sans-Serif" font-size="10.00">error_model</text>
<text text-anchor="start" x="1087" y="-55.5" font-family="Helvetica,sans-Serif" font-size="10.00">+</text>
<text text-anchor="start" x="1100" y="-55.5" font-family="Helvetica,sans-Serif" font-size="10.00">code_sigma</text>
<text text-anchor="start" x="1087" y="-40.5" font-family="Helvetica,sans-Serif" font-size="10.00">+</text>
<text text-anchor="start" x="1100" y="-40.5" font-family="Helvetica,sans-Serif" font-size="10.00">phase_sigma</text>
<text text-anchor="start" x="1087" y="-25.5" font-family="Helvetica,sans-Serif" font-size="10.00">+</text>
<text text-anchor="start" x="1100" y="-25.5" font-family="Helvetica,sans-Serif" font-size="10.00">operator+=()</text>
<text text-anchor="start" x="1087" y="-10.5" font-family="Helvetica,sans-Serif" font-size="10.00">+</text>
<text text-anchor="start" x="1100" y="-10.5" font-family="Helvetica,sans-Serif" font-size="10.00">uninitialiseInheritors()</text>
<polygon fill="#666666" stroke="#666666" points="1083,-95.5 1083,-95.5 1213,-95.5 1213,-95.5 1083,-95.5"/>
<polygon fill="#666666" stroke="#666666" points="1083,-35.5 1083,-35.5 1098,-35.5 1098,-35.5 1083,-35.5"/>
<polygon fill="#666666" stroke="#666666" points="1098,-35.5 1098,-35.5 1213,-35.5 1213,-35.5 1098,-35.5"/>
<polygon fill="none" stroke="#666666" points="1083,-4 1083,-113 1213,-113 1213,-4 1083,-4"/>
</a>
</g>
</g>
<!-- Node2 -->
<g id="Node000002" class="node">
<title>Node2</title>
<g id="a_Node000002"><a xlink:href="structSatelliteKalmans.html" target="_top" xlink:title=" ">
<path fill="white" stroke="#666666" d="M288,-365C288,-365 202,-365 202,-365 196,-365 190,-359 190,-353 190,-353 190,-320 190,-320 190,-314 196,-308 202,-308 202,-308 288,-308 288,-308 294,-308 300,-314 300,-320 300,-320 300,-353 300,-353 300,-359 294,-365 288,-365"/>
<text text-anchor="start" x="203" y="-348.5" font-family="Helvetica,sans-Serif" font-size="10.00">SatelliteKalmans</text>
<text text-anchor="start" x="243" y="-333.5" font-family="Helvetica,sans-Serif" font-size="10.00"> </text>
<text text-anchor="start" x="203.5" y="-318.5" font-family="Helvetica,sans-Serif" font-size="10.00">+</text>
<text text-anchor="start" x="218" y="-318.5" font-family="Helvetica,sans-Serif" font-size="10.00">operator+=()</text>
<polygon fill="#666666" stroke="#666666" points="198,-343.5 198,-343.5 292,-343.5 292,-343.5 198,-343.5"/>
<polygon fill="#666666" stroke="#666666" points="198,-328.5 198,-328.5 292,-328.5 292,-328.5 198,-328.5"/>
<polygon fill="none" stroke="#666666" points="198,-312 198,-361 292,-361 292,-312 198,-312"/>
</a>
</g>
</g>
<!-- Node2&#45;&gt;Node1 -->
<g id="edge1_Node000001_Node000002" class="edge">
<title>Node2&#45;&gt;Node1</title>
<g id="a_edge1_Node000001_Node000002"><a xlink:title=" ">
<path fill="none" stroke="#63b8ff" d="M309.24,-306.78C393.65,-269.86 547.15,-205.6 683,-164 819.08,-122.33 982.21,-89.48 1074.61,-72.41"/>
<polygon fill="none" stroke="#63b8ff" points="307.79,-303.59 300.04,-310.81 310.61,-310 307.79,-303.59"/>
</a>
</g>
</g>
<!-- Node3 -->
<g id="Node000003" class="node">
<title>Node3</title>
<g id="a_Node000003"><a xlink:href="structCommonKalmans.html" target="_top" xlink:title=" ">
<path fill="#fff0f0" stroke="red" d="M102,-876.5C102,-876.5 12,-876.5 12,-876.5 6,-876.5 0,-870.5 0,-864.5 0,-864.5 0,-831.5 0,-831.5 0,-825.5 6,-819.5 12,-819.5 12,-819.5 102,-819.5 102,-819.5 108,-819.5 114,-825.5 114,-831.5 114,-831.5 114,-864.5 114,-864.5 114,-870.5 108,-876.5 102,-876.5"/>
<text text-anchor="start" x="13" y="-860" font-family="Helvetica,sans-Serif" font-size="10.00">CommonKalmans</text>
<text text-anchor="start" x="55" y="-845" font-family="Helvetica,sans-Serif" font-size="10.00"> </text>
<text text-anchor="start" x="14.5" y="-830" font-family="Helvetica,sans-Serif" font-size="10.00">+</text>
<text text-anchor="start" x="30" y="-830" font-family="Helvetica,sans-Serif" font-size="10.00">operator+=()</text>
<polygon fill="red" stroke="red" points="8,-855 8,-855 106,-855 106,-855 8,-855"/>
<polygon fill="red" stroke="red" points="8,-840 8,-840 106,-840 106,-840 8,-840"/>
<polygon fill="none" stroke="red" points="8,-823.5 8,-872.5 106,-872.5 106,-823.5 8,-823.5"/>
</a>
</g>
</g>
<!-- Node3&#45;&gt;Node2 -->
<g id="edge2_Node000002_Node000003" class="edge">
<title>Node3&#45;&gt;Node2</title>
<g id="a_edge2_Node000002_Node000003"><a xlink:title=" ">
<path fill="none" stroke="#63b8ff" d="M65.07,-809.27C75.95,-760.63 96.99,-673.77 123,-602 155.3,-512.85 205.73,-412.4 230.41,-365.03"/>
<polygon fill="none" stroke="#63b8ff" points="61.59,-808.82 62.84,-819.34 68.42,-810.34 61.59,-808.82"/>
</a>
</g>
</g>
<!-- Node11 -->
<g id="Node000011" class="node">
<title>Node11</title>
<g id="a_Node000011"><a xlink:href="structInertialKalmans.html" target="_top" xlink:title=" ">
<path fill="#fff0f0" stroke="red" d="M224,-876.5C224,-876.5 144,-876.5 144,-876.5 138,-876.5 132,-870.5 132,-864.5 132,-864.5 132,-831.5 132,-831.5 132,-825.5 138,-819.5 144,-819.5 144,-819.5 224,-819.5 224,-819.5 230,-819.5 236,-825.5 236,-831.5 236,-831.5 236,-864.5 236,-864.5 236,-870.5 230,-876.5 224,-876.5"/>
<text text-anchor="start" x="145" y="-860" font-family="Helvetica,sans-Serif" font-size="10.00">InertialKalmans</text>
<text text-anchor="start" x="182" y="-845" font-family="Helvetica,sans-Serif" font-size="10.00"> </text>
<text text-anchor="start" x="144" y="-830" font-family="Helvetica,sans-Serif" font-size="10.00">+</text>
<text text-anchor="start" x="157" y="-830" font-family="Helvetica,sans-Serif" font-size="10.00">operator+=()</text>
<polygon fill="red" stroke="red" points="140,-855 140,-855 228,-855 228,-855 140,-855"/>
<polygon fill="red" stroke="red" points="140,-840 140,-840 228,-840 228,-840 140,-840"/>
<polygon fill="none" stroke="red" points="140,-823.5 140,-872.5 228,-872.5 228,-823.5 140,-823.5"/>
</a>
</g>
</g>
<!-- Node11&#45;&gt;Node2 -->
<g id="edge3_Node000002_Node000011" class="edge">
<title>Node11&#45;&gt;Node2</title>
<g id="a_edge3_Node000002_Node000011"><a xlink:title=" ">
<path fill="none" stroke="#63b8ff" d="M188.53,-809.2C200.25,-711.27 231.42,-450.97 241.67,-365.28"/>
<polygon fill="none" stroke="#63b8ff" points="185.04,-808.9 187.32,-819.25 191.99,-809.73 185.04,-808.9"/>
</a>
</g>
</g>
<!-- Node12 -->
<g id="Node000012" class="node">
<title>Node12</title>
<g id="a_Node000012"><a xlink:href="structEmpKalmans.html" target="_top" xlink:title=" ">
<path fill="#fff0f0" stroke="red" d="M345.5,-1094C345.5,-1094 266.5,-1094 266.5,-1094 260.5,-1094 254.5,-1088 254.5,-1082 254.5,-1082 254.5,-614 254.5,-614 254.5,-608 260.5,-602 266.5,-602 266.5,-602 345.5,-602 345.5,-602 351.5,-602 357.5,-608 357.5,-614 357.5,-614 357.5,-1082 357.5,-1082 357.5,-1088 351.5,-1094 345.5,-1094"/>
<text text-anchor="start" x="274" y="-1078" font-family="Helvetica,sans-Serif" font-size="10.00">EmpKalmans</text>
<text text-anchor="start" x="267" y="-1063" font-family="Helvetica,sans-Serif" font-size="10.00">+</text>
<text text-anchor="start" x="280" y="-1063" font-family="Helvetica,sans-Serif" font-size="10.00">emp_y_0</text>
<text text-anchor="start" x="267" y="-1048" font-family="Helvetica,sans-Serif" font-size="10.00">+</text>
<text text-anchor="start" x="280" y="-1048" font-family="Helvetica,sans-Serif" font-size="10.00">emp_y_1</text>
<text text-anchor="start" x="267" y="-1033" font-family="Helvetica,sans-Serif" font-size="10.00">+</text>
<text text-anchor="start" x="280" y="-1033" font-family="Helvetica,sans-Serif" font-size="10.00">emp_y_2</text>
<text text-anchor="start" x="267" y="-1018" font-family="Helvetica,sans-Serif" font-size="10.00">+</text>
<text text-anchor="start" x="280" y="-1018" font-family="Helvetica,sans-Serif" font-size="10.00">emp_y_3</text>
<text text-anchor="start" x="267" y="-1003" font-family="Helvetica,sans-Serif" font-size="10.00">+</text>
<text text-anchor="start" x="280" y="-1003" font-family="Helvetica,sans-Serif" font-size="10.00">emp_y_4</text>
<text text-anchor="start" x="267" y="-988" font-family="Helvetica,sans-Serif" font-size="10.00">+</text>
<text text-anchor="start" x="280" y="-988" font-family="Helvetica,sans-Serif" font-size="10.00">emp_r_0</text>
<text text-anchor="start" x="267" y="-973" font-family="Helvetica,sans-Serif" font-size="10.00">+</text>
<text text-anchor="start" x="280" y="-973" font-family="Helvetica,sans-Serif" font-size="10.00">emp_r_1</text>
<text text-anchor="start" x="267" y="-958" font-family="Helvetica,sans-Serif" font-size="10.00">+</text>
<text text-anchor="start" x="280" y="-958" font-family="Helvetica,sans-Serif" font-size="10.00">emp_r_2</text>
<text text-anchor="start" x="267" y="-943" font-family="Helvetica,sans-Serif" font-size="10.00">+</text>
<text text-anchor="start" x="280" y="-943" font-family="Helvetica,sans-Serif" font-size="10.00">emp_r_3</text>
<text text-anchor="start" x="267" y="-928" font-family="Helvetica,sans-Serif" font-size="10.00">+</text>
<text text-anchor="start" x="280" y="-928" font-family="Helvetica,sans-Serif" font-size="10.00">emp_r_4</text>
<text text-anchor="start" x="267" y="-913" font-family="Helvetica,sans-Serif" font-size="10.00">+</text>
<text text-anchor="start" x="280" y="-913" font-family="Helvetica,sans-Serif" font-size="10.00">emp_t_0</text>
<text text-anchor="start" x="267" y="-898" font-family="Helvetica,sans-Serif" font-size="10.00">+</text>
<text text-anchor="start" x="280" y="-898" font-family="Helvetica,sans-Serif" font-size="10.00">emp_t_1</text>
<text text-anchor="start" x="267" y="-883" font-family="Helvetica,sans-Serif" font-size="10.00">+</text>
<text text-anchor="start" x="280" y="-883" font-family="Helvetica,sans-Serif" font-size="10.00">emp_t_2</text>
<text text-anchor="start" x="267" y="-868" font-family="Helvetica,sans-Serif" font-size="10.00">+</text>
<text text-anchor="start" x="280" y="-868" font-family="Helvetica,sans-Serif" font-size="10.00">emp_t_3</text>
<text text-anchor="start" x="267" y="-853" font-family="Helvetica,sans-Serif" font-size="10.00">+</text>
<text text-anchor="start" x="280" y="-853" font-family="Helvetica,sans-Serif" font-size="10.00">emp_t_4</text>
<text text-anchor="start" x="267" y="-838" font-family="Helvetica,sans-Serif" font-size="10.00">+</text>
<text text-anchor="start" x="280" y="-838" font-family="Helvetica,sans-Serif" font-size="10.00">emp_n_0</text>
<text text-anchor="start" x="267" y="-823" font-family="Helvetica,sans-Serif" font-size="10.00">+</text>
<text text-anchor="start" x="280" y="-823" font-family="Helvetica,sans-Serif" font-size="10.00">emp_n_1</text>
<text text-anchor="start" x="267" y="-808" font-family="Helvetica,sans-Serif" font-size="10.00">+</text>
<text text-anchor="start" x="280" y="-808" font-family="Helvetica,sans-Serif" font-size="10.00">emp_n_2</text>
<text text-anchor="start" x="267" y="-793" font-family="Helvetica,sans-Serif" font-size="10.00">+</text>
<text text-anchor="start" x="280" y="-793" font-family="Helvetica,sans-Serif" font-size="10.00">emp_n_3</text>
<text text-anchor="start" x="267" y="-778" font-family="Helvetica,sans-Serif" font-size="10.00">+</text>
<text text-anchor="start" x="280" y="-778" font-family="Helvetica,sans-Serif" font-size="10.00">emp_n_4</text>
<text text-anchor="start" x="267" y="-763" font-family="Helvetica,sans-Serif" font-size="10.00">+</text>
<text text-anchor="start" x="280" y="-763" font-family="Helvetica,sans-Serif" font-size="10.00">emp_p_0</text>
<text text-anchor="start" x="267" y="-748" font-family="Helvetica,sans-Serif" font-size="10.00">+</text>
<text text-anchor="start" x="280" y="-748" font-family="Helvetica,sans-Serif" font-size="10.00">emp_p_1</text>
<text text-anchor="start" x="267" y="-733" font-family="Helvetica,sans-Serif" font-size="10.00">+</text>
<text text-anchor="start" x="280" y="-733" font-family="Helvetica,sans-Serif" font-size="10.00">emp_p_2</text>
<text text-anchor="start" x="267" y="-718" font-family="Helvetica,sans-Serif" font-size="10.00">+</text>
<text text-anchor="start" x="280" y="-718" font-family="Helvetica,sans-Serif" font-size="10.00">emp_p_3</text>
<text text-anchor="start" x="267" y="-703" font-family="Helvetica,sans-Serif" font-size="10.00">+</text>
<text text-anchor="start" x="280" y="-703" font-family="Helvetica,sans-Serif" font-size="10.00">emp_p_4</text>
<text text-anchor="start" x="267" y="-688" font-family="Helvetica,sans-Serif" font-size="10.00">+</text>
<text text-anchor="start" x="280" y="-688" font-family="Helvetica,sans-Serif" font-size="10.00">emp_q_0</text>
<text text-anchor="start" x="267" y="-673" font-family="Helvetica,sans-Serif" font-size="10.00">+</text>
<text text-anchor="start" x="280" y="-673" font-family="Helvetica,sans-Serif" font-size="10.00">emp_q_1</text>
<text text-anchor="start" x="267" y="-658" font-family="Helvetica,sans-Serif" font-size="10.00">+</text>
<text text-anchor="start" x="280" y="-658" font-family="Helvetica,sans-Serif" font-size="10.00">emp_q_2</text>
<text text-anchor="start" x="267" y="-643" font-family="Helvetica,sans-Serif" font-size="10.00">+</text>
<text text-anchor="start" x="280" y="-643" font-family="Helvetica,sans-Serif" font-size="10.00">emp_q_3</text>
<text text-anchor="start" x="267" y="-628" font-family="Helvetica,sans-Serif" font-size="10.00">+</text>
<text text-anchor="start" x="280" y="-628" font-family="Helvetica,sans-Serif" font-size="10.00">emp_q_4</text>
<text text-anchor="start" x="267" y="-613" font-family="Helvetica,sans-Serif" font-size="10.00">+</text>
<text text-anchor="start" x="280" y="-613" font-family="Helvetica,sans-Serif" font-size="10.00">operator+=()</text>
<polygon fill="red" stroke="red" points="263,-1073 263,-1073 350,-1073 350,-1073 263,-1073"/>
<polygon fill="red" stroke="red" points="263,-623 263,-623 278,-623 278,-623 263,-623"/>
<polygon fill="red" stroke="red" points="278,-623 278,-623 350,-623 350,-623 278,-623"/>
<polygon fill="none" stroke="red" points="262.5,-606 262.5,-1090 349.5,-1090 349.5,-606 262.5,-606"/>
</a>
</g>
</g>
<!-- Node12&#45;&gt;Node2 -->
<g id="edge4_Node000002_Node000012" class="edge">
<title>Node12&#45;&gt;Node2</title>
<g id="a_edge4_Node000002_Node000012"><a xlink:title=" ">
<path fill="none" stroke="#63b8ff" d="M275.47,-591.97C264.53,-500.66 253.61,-409.39 248.3,-365.1"/>
<polygon fill="none" stroke="#63b8ff" points="272,-592.44 276.66,-601.95 278.95,-591.61 272,-592.44"/>
</a>
</g>
</g>
<!-- Node13 -->
<g id="Node000013" class="node">
<title>Node13</title>
<g id="a_Node000013"><a xlink:href="structCommonOptions.html" target="_top" xlink:title=" ">
<path fill="white" stroke="#666666" d="M821.5,-509C821.5,-509 704.5,-509 704.5,-509 698.5,-509 692.5,-503 692.5,-497 692.5,-497 692.5,-176 692.5,-176 692.5,-170 698.5,-164 704.5,-164 704.5,-164 821.5,-164 821.5,-164 827.5,-164 833.5,-170 833.5,-176 833.5,-176 833.5,-497 833.5,-497 833.5,-503 827.5,-509 821.5,-509"/>
<text text-anchor="start" x="722.5" y="-492.5" font-family="Helvetica,sans-Serif" font-size="10.00">CommonOptions</text>
<text text-anchor="start" x="705" y="-477.5" font-family="Helvetica,sans-Serif" font-size="10.00">+</text>
<text text-anchor="start" x="718" y="-477.5" font-family="Helvetica,sans-Serif" font-size="10.00">exclude</text>
<text text-anchor="start" x="705" y="-462.5" font-family="Helvetica,sans-Serif" font-size="10.00">+</text>
<text text-anchor="start" x="718" y="-462.5" font-family="Helvetica,sans-Serif" font-size="10.00">pseudo_sigma</text>
<text text-anchor="start" x="705" y="-447.5" font-family="Helvetica,sans-Serif" font-size="10.00">+</text>
<text text-anchor="start" x="718" y="-447.5" font-family="Helvetica,sans-Serif" font-size="10.00">laser_sigma</text>
<text text-anchor="start" x="705" y="-432.5" font-family="Helvetica,sans-Serif" font-size="10.00">+</text>
<text text-anchor="start" x="718" y="-432.5" font-family="Helvetica,sans-Serif" font-size="10.00">mincon_scale_apriori</text>
<text text-anchor="start" x="718" y="-421.5" font-family="Helvetica,sans-Serif" font-size="10.00">_sigma</text>
<text text-anchor="start" x="705" y="-406.5" font-family="Helvetica,sans-Serif" font-size="10.00">+</text>
<text text-anchor="start" x="718" y="-406.5" font-family="Helvetica,sans-Serif" font-size="10.00">mincon_scale_filter</text>
<text text-anchor="start" x="718" y="-395.5" font-family="Helvetica,sans-Serif" font-size="10.00">_sigma</text>
<text text-anchor="start" x="705" y="-380.5" font-family="Helvetica,sans-Serif" font-size="10.00">+</text>
<text text-anchor="start" x="718" y="-380.5" font-family="Helvetica,sans-Serif" font-size="10.00">ellipse_propagation</text>
<text text-anchor="start" x="718" y="-369.5" font-family="Helvetica,sans-Serif" font-size="10.00">_time_tolerance</text>
<text text-anchor="start" x="705" y="-354.5" font-family="Helvetica,sans-Serif" font-size="10.00">+</text>
<text text-anchor="start" x="718" y="-354.5" font-family="Helvetica,sans-Serif" font-size="10.00">enable</text>
<text text-anchor="start" x="705" y="-339.5" font-family="Helvetica,sans-Serif" font-size="10.00">+</text>
<text text-anchor="start" x="718" y="-339.5" font-family="Helvetica,sans-Serif" font-size="10.00">posModel</text>
<text text-anchor="start" x="705" y="-324.5" font-family="Helvetica,sans-Serif" font-size="10.00">+</text>
<text text-anchor="start" x="718" y="-324.5" font-family="Helvetica,sans-Serif" font-size="10.00">clockModel</text>
<text text-anchor="start" x="705" y="-309.5" font-family="Helvetica,sans-Serif" font-size="10.00">+</text>
<text text-anchor="start" x="718" y="-309.5" font-family="Helvetica,sans-Serif" font-size="10.00">model_dt</text>
<text text-anchor="start" x="705" y="-294.5" font-family="Helvetica,sans-Serif" font-size="10.00">+</text>
<text text-anchor="start" x="718" y="-294.5" font-family="Helvetica,sans-Serif" font-size="10.00">attitudeModel</text>
<text text-anchor="start" x="705" y="-279.5" font-family="Helvetica,sans-Serif" font-size="10.00">+</text>
<text text-anchor="start" x="718" y="-279.5" font-family="Helvetica,sans-Serif" font-size="10.00">default_bias</text>
<text text-anchor="start" x="705" y="-264.5" font-family="Helvetica,sans-Serif" font-size="10.00">+</text>
<text text-anchor="start" x="718" y="-264.5" font-family="Helvetica,sans-Serif" font-size="10.00">undefined_sigma</text>
<text text-anchor="start" x="705" y="-249.5" font-family="Helvetica,sans-Serif" font-size="10.00">+</text>
<text text-anchor="start" x="718" y="-249.5" font-family="Helvetica,sans-Serif" font-size="10.00">codeBiasModel</text>
<text text-anchor="start" x="705" y="-234.5" font-family="Helvetica,sans-Serif" font-size="10.00">+</text>
<text text-anchor="start" x="718" y="-234.5" font-family="Helvetica,sans-Serif" font-size="10.00">phaseBiasModel</text>
<text text-anchor="start" x="705" y="-219.5" font-family="Helvetica,sans-Serif" font-size="10.00">+</text>
<text text-anchor="start" x="718" y="-219.5" font-family="Helvetica,sans-Serif" font-size="10.00">pcoModel</text>
<text text-anchor="start" x="705" y="-204.5" font-family="Helvetica,sans-Serif" font-size="10.00">+</text>
<text text-anchor="start" x="718" y="-204.5" font-family="Helvetica,sans-Serif" font-size="10.00">pcvModel</text>
<text text-anchor="start" x="705" y="-189.5" font-family="Helvetica,sans-Serif" font-size="10.00">+</text>
<text text-anchor="start" x="718" y="-189.5" font-family="Helvetica,sans-Serif" font-size="10.00">phaseWindupModel</text>
<text text-anchor="start" x="705" y="-174.5" font-family="Helvetica,sans-Serif" font-size="10.00">+</text>
<text text-anchor="start" x="718" y="-174.5" font-family="Helvetica,sans-Serif" font-size="10.00">operator+=()</text>
<polygon fill="#666666" stroke="#666666" points="701,-487.5 701,-487.5 826,-487.5 826,-487.5 701,-487.5"/>
<polygon fill="#666666" stroke="#666666" points="701,-184.5 701,-184.5 716,-184.5 716,-184.5 701,-184.5"/>
<polygon fill="#666666" stroke="#666666" points="716,-184.5 716,-184.5 826,-184.5 826,-184.5 716,-184.5"/>
<polygon fill="none" stroke="#666666" points="700.5,-168 700.5,-505 825.5,-505 825.5,-168 700.5,-168"/>
</a>
</g>
</g>
<!-- Node13&#45;&gt;Node1 -->
<g id="edge5_Node000001_Node000013" class="edge">
<title>Node13&#45;&gt;Node1</title>
<g id="a_edge5_Node000001_Node000013"><a xlink:title=" ">
<path fill="none" stroke="#63b8ff" d="M841.8,-279.01C910.14,-230.02 1008.27,-159.67 1074.89,-111.91"/>
<polygon fill="none" stroke="#63b8ff" points="839.7,-276.21 833.61,-284.88 843.78,-281.9 839.7,-276.21"/>
</a>
</g>
</g>
<!-- Node14 -->
<g id="Node000014" class="node">
<title>Node14</title>
<g id="a_Node000014"><a xlink:title=" ">
<path fill="#fff0f0" stroke="red" d="M498.5,-876.5C498.5,-876.5 387.5,-876.5 387.5,-876.5 381.5,-876.5 375.5,-870.5 375.5,-864.5 375.5,-864.5 375.5,-831.5 375.5,-831.5 375.5,-825.5 381.5,-819.5 387.5,-819.5 387.5,-819.5 498.5,-819.5 498.5,-819.5 504.5,-819.5 510.5,-825.5 510.5,-831.5 510.5,-831.5 510.5,-864.5 510.5,-864.5 510.5,-870.5 504.5,-876.5 498.5,-876.5"/>
<text text-anchor="start" x="389" y="-860" font-family="Helvetica,sans-Serif" font-size="10.00">vector&lt; E_ObsCode &gt;</text>
<text text-anchor="start" x="441.5" y="-845" font-family="Helvetica,sans-Serif" font-size="10.00"> </text>
<text text-anchor="start" x="441.5" y="-830" font-family="Helvetica,sans-Serif" font-size="10.00"> </text>
<polygon fill="red" stroke="red" points="384,-855 384,-855 503,-855 503,-855 384,-855"/>
<polygon fill="red" stroke="red" points="384,-840 384,-840 503,-840 503,-840 384,-840"/>
<polygon fill="none" stroke="red" points="383.5,-823.5 383.5,-872.5 502.5,-872.5 502.5,-823.5 383.5,-823.5"/>
</a>
</g>
</g>
<!-- Node14&#45;&gt;Node13 -->
<g id="edge6_Node000013_Node000014" class="edge">
<title>Node14&#45;&gt;Node13</title>
<g id="a_edge6_Node000013_Node000014"><a xlink:title=" ">
<path fill="none" stroke="#63b8ff" d="M441.51,-819.29C439.69,-760.59 442.49,-621.38 502,-527 545.02,-458.78 622.25,-407.33 681.58,-375.39"/>
<polygon fill="none" stroke="#63b8ff" points="681.83,-375.26 685.26,-368.92 692.44,-369.65 689,-375.99 681.83,-375.26"/>
</a>
</g>
<text text-anchor="middle" x="537.5" y="-553" font-family="Helvetica,sans-Serif" font-size="10.00" fill="grey"> +clock_codes</text>
</g>
<!-- Node5 -->
<g id="Node000005" class="node">
<title>Node5</title>
<g id="a_Node000005"><a xlink:title=" ">
<path fill="#fff0f0" stroke="red" d="M629.5,-876.5C629.5,-876.5 540.5,-876.5 540.5,-876.5 534.5,-876.5 528.5,-870.5 528.5,-864.5 528.5,-864.5 528.5,-831.5 528.5,-831.5 528.5,-825.5 534.5,-819.5 540.5,-819.5 540.5,-819.5 629.5,-819.5 629.5,-819.5 635.5,-819.5 641.5,-825.5 641.5,-831.5 641.5,-831.5 641.5,-864.5 641.5,-864.5 641.5,-870.5 635.5,-876.5 629.5,-876.5"/>
<text text-anchor="start" x="542" y="-860" font-family="Helvetica,sans-Serif" font-size="10.00">vector&lt; double &gt;</text>
<text text-anchor="start" x="583.5" y="-845" font-family="Helvetica,sans-Serif" font-size="10.00"> </text>
<text text-anchor="start" x="583.5" y="-830" font-family="Helvetica,sans-Serif" font-size="10.00"> </text>
<polygon fill="red" stroke="red" points="537,-855 537,-855 634,-855 634,-855 537,-855"/>
<polygon fill="red" stroke="red" points="537,-840 537,-840 634,-840 634,-840 537,-840"/>
<polygon fill="none" stroke="red" points="536.5,-823.5 536.5,-872.5 633.5,-872.5 633.5,-823.5 536.5,-823.5"/>
</a>
</g>
</g>
<!-- Node5&#45;&gt;Node13 -->
<g id="edge7_Node000013_Node000005" class="edge">
<title>Node5&#45;&gt;Node13</title>
<g id="a_edge7_Node000013_Node000005"><a xlink:title=" ">
<path fill="none" stroke="#63b8ff" d="M579.21,-819.19C568.65,-762.03 550.82,-628.22 591,-527 610.27,-478.46 648.1,-434.55 683.39,-401.24"/>
<polygon fill="none" stroke="#63b8ff" points="683.48,-401.16 685.17,-394.14 692.29,-393.01 690.61,-400.02 683.48,-401.16"/>
</a>
</g>
<text text-anchor="middle" x="642" y="-553" font-family="Helvetica,sans-Serif" font-size="10.00" fill="grey"> +apriori_sigma_enu</text>
</g>
<!-- Node15 -->
<g id="Node000015" class="node">
<title>Node15</title>
<g id="a_Node000015"><a xlink:title=" ">
<path fill="white" stroke="#666666" d="M724.5,-876.5C724.5,-876.5 679.5,-876.5 679.5,-876.5 673.5,-876.5 667.5,-870.5 667.5,-864.5 667.5,-864.5 667.5,-831.5 667.5,-831.5 667.5,-825.5 673.5,-819.5 679.5,-819.5 679.5,-819.5 724.5,-819.5 724.5,-819.5 730.5,-819.5 736.5,-825.5 736.5,-831.5 736.5,-831.5 736.5,-864.5 736.5,-864.5 736.5,-870.5 730.5,-876.5 724.5,-876.5"/>
<text text-anchor="start" x="681" y="-860" font-family="Helvetica,sans-Serif" font-size="10.00">Vector3d</text>
<text text-anchor="start" x="700.5" y="-845" font-family="Helvetica,sans-Serif" font-size="10.00"> </text>
<text text-anchor="start" x="700.5" y="-830" font-family="Helvetica,sans-Serif" font-size="10.00"> </text>
<polygon fill="#666666" stroke="#666666" points="676,-855 676,-855 729,-855 729,-855 676,-855"/>
<polygon fill="#666666" stroke="#666666" points="676,-840 676,-840 729,-840 729,-840 676,-840"/>
<polygon fill="none" stroke="#666666" points="675.5,-823.5 675.5,-872.5 728.5,-872.5 728.5,-823.5 675.5,-823.5"/>
</a>
</g>
</g>
<!-- Node15&#45;&gt;Node13 -->
<g id="edge8_Node000013_Node000015" class="edge">
<title>Node15&#45;&gt;Node13</title>
<g id="a_edge8_Node000013_Node000015"><a xlink:title=" ">
<path fill="none" stroke="#63b8ff" d="M699.3,-819.38C694.46,-763.68 686.29,-634.04 703,-527 703.3,-525.07 703.62,-523.13 703.95,-521.19"/>
<polygon fill="none" stroke="#63b8ff" points="703.99,-520.99 701.15,-514.36 706.18,-509.19 709.02,-515.82 703.99,-520.99"/>
</a>
</g>
<text text-anchor="middle" x="753" y="-558.5" font-family="Helvetica,sans-Serif" font-size="10.00" fill="grey"> +antenna_azimuth</text>
<text text-anchor="middle" x="753" y="-547.5" font-family="Helvetica,sans-Serif" font-size="10.00" fill="grey">+antenna_boresight</text>
</g>
<!-- Node16 -->
<g id="Node000016" class="node">
<title>Node16</title>
<g id="a_Node000016"><a xlink:title=" ">
<path fill="#fff0f0" stroke="red" d="M875,-876.5C875,-876.5 775,-876.5 775,-876.5 769,-876.5 763,-870.5 763,-864.5 763,-864.5 763,-831.5 763,-831.5 763,-825.5 769,-819.5 775,-819.5 775,-819.5 875,-819.5 875,-819.5 881,-819.5 887,-825.5 887,-831.5 887,-831.5 887,-864.5 887,-864.5 887,-870.5 881,-876.5 875,-876.5"/>
<text text-anchor="start" x="776" y="-860" font-family="Helvetica,sans-Serif" font-size="10.00">vector&lt; E_Source &gt;</text>
<text text-anchor="start" x="823" y="-845" font-family="Helvetica,sans-Serif" font-size="10.00"> </text>
<text text-anchor="start" x="823" y="-830" font-family="Helvetica,sans-Serif" font-size="10.00"> </text>
<polygon fill="red" stroke="red" points="771,-855 771,-855 879,-855 879,-855 771,-855"/>
<polygon fill="red" stroke="red" points="771,-840 771,-840 879,-840 879,-840 771,-840"/>
<polygon fill="none" stroke="red" points="771,-823.5 771,-872.5 879,-872.5 879,-823.5 771,-823.5"/>
</a>
</g>
</g>
<!-- Node16&#45;&gt;Node13 -->
<g id="edge9_Node000013_Node000016" class="edge">
<title>Node16&#45;&gt;Node13</title>
<g id="a_edge9_Node000013_Node000016"><a xlink:title=" ">
<path fill="none" stroke="#63b8ff" d="M824.4,-819.47C822.9,-763.92 817.97,-634.55 803,-527 802.73,-525.06 802.45,-523.11 802.17,-521.15"/>
<polygon fill="none" stroke="#63b8ff" points="802.13,-520.9 797.26,-515.57 800.31,-509.03 805.17,-514.36 802.13,-520.9"/>
</a>
</g>
<text text-anchor="middle" x="834.5" y="-553" font-family="Helvetica,sans-Serif" font-size="10.00" fill="grey"> +sources</text>
</g>
<!-- Node9 -->
<g id="Node000009" class="node">
<title>Node9</title>
<g id="a_Node000009"><a xlink:title=" ">
<path fill="white" stroke="#666666" d="M1036.5,-876.5C1036.5,-876.5 949.5,-876.5 949.5,-876.5 943.5,-876.5 937.5,-870.5 937.5,-864.5 937.5,-864.5 937.5,-831.5 937.5,-831.5 937.5,-825.5 943.5,-819.5 949.5,-819.5 949.5,-819.5 1036.5,-819.5 1036.5,-819.5 1042.5,-819.5 1048.5,-825.5 1048.5,-831.5 1048.5,-831.5 1048.5,-864.5 1048.5,-864.5 1048.5,-870.5 1042.5,-876.5 1036.5,-876.5"/>
<text text-anchor="start" x="951" y="-860" font-family="Helvetica,sans-Serif" font-size="10.00">map&lt; int, bool &gt;</text>
<text text-anchor="start" x="991.5" y="-845" font-family="Helvetica,sans-Serif" font-size="10.00"> </text>
<text text-anchor="start" x="991.5" y="-830" font-family="Helvetica,sans-Serif" font-size="10.00"> </text>
<polygon fill="#666666" stroke="#666666" points="946,-855 946,-855 1041,-855 1041,-855 946,-855"/>
<polygon fill="#666666" stroke="#666666" points="946,-840 946,-840 1041,-840 1041,-840 946,-840"/>
<polygon fill="none" stroke="#666666" points="945.5,-823.5 945.5,-872.5 1040.5,-872.5 1040.5,-823.5 945.5,-823.5"/>
</a>
</g>
</g>
<!-- Node9&#45;&gt;Node1 -->
<g id="edge20_Node000001_Node000009" class="edge">
<title>Node9&#45;&gt;Node1</title>
<g id="a_edge20_Node000001_Node000009"><a xlink:title=" ">
<path fill="none" stroke="#63b8ff" d="M994.07,-819.43C997.19,-771.18 1009.38,-670.08 1057,-602 1065.06,-590.48 1076.14,-596.27 1083,-584 1128.63,-502.42 1085.74,-255.25 1106,-164 1108.61,-152.26 1112.38,-140.13 1116.62,-128.48"/>
<polygon fill="none" stroke="#63b8ff" points="1116.71,-128.23 1115.11,-121.2 1120.98,-117.01 1122.59,-124.04 1116.71,-128.23"/>
</a>
</g>
<text text-anchor="middle" x="1146.5" y="-334" font-family="Helvetica,sans-Serif" font-size="10.00" fill="grey"> +initialisedMap</text>
</g>
<!-- Node9&#45;&gt;Node13 -->
<g id="edge10_Node000013_Node000009" class="edge">
<title>Node9&#45;&gt;Node13</title>
<g id="a_edge10_Node000013_Node000009"><a xlink:title=" ">
<path fill="none" stroke="#63b8ff" d="M983.04,-819.09C962.67,-762.85 913.87,-632.29 863,-527 855.51,-511.49 847.45,-495.39 839.28,-479.42"/>
<polygon fill="none" stroke="#63b8ff" points="839.1,-479.06 832.8,-475.55 833.61,-468.39 839.92,-471.9 839.1,-479.06"/>
</a>
</g>
<text text-anchor="middle" x="927.5" y="-553" font-family="Helvetica,sans-Serif" font-size="10.00" fill="grey"> +initialisedMap</text>
</g>
<!-- Node17 -->
<g id="Node000017" class="node">
<title>Node17</title>
<g id="a_Node000017"><a xlink:href="structOrbitOptions.html" target="_top" xlink:title="Options associated with orbital force models.">
<path fill="white" stroke="#666666" d="M1342,-455C1342,-455 1208,-455 1208,-455 1202,-455 1196,-449 1196,-443 1196,-443 1196,-230 1196,-230 1196,-224 1202,-218 1208,-218 1208,-218 1342,-218 1342,-218 1348,-218 1354,-224 1354,-230 1354,-230 1354,-443 1354,-443 1354,-449 1348,-455 1342,-455"/>
<text text-anchor="start" x="1244" y="-438.5" font-family="Helvetica,sans-Serif" font-size="10.00">OrbitOptions</text>
<text text-anchor="start" x="1208" y="-423.5" font-family="Helvetica,sans-Serif" font-size="10.00">+</text>
<text text-anchor="start" x="1221" y="-423.5" font-family="Helvetica,sans-Serif" font-size="10.00">mass</text>
<text text-anchor="start" x="1208" y="-408.5" font-family="Helvetica,sans-Serif" font-size="10.00">+</text>
<text text-anchor="start" x="1221" y="-408.5" font-family="Helvetica,sans-Serif" font-size="10.00">area</text>
<text text-anchor="start" x="1208" y="-393.5" font-family="Helvetica,sans-Serif" font-size="10.00">+</text>
<text text-anchor="start" x="1221" y="-393.5" font-family="Helvetica,sans-Serif" font-size="10.00">power</text>
<text text-anchor="start" x="1208" y="-378.5" font-family="Helvetica,sans-Serif" font-size="10.00">+</text>
<text text-anchor="start" x="1221" y="-378.5" font-family="Helvetica,sans-Serif" font-size="10.00">srp_cr</text>
<text text-anchor="start" x="1208" y="-363.5" font-family="Helvetica,sans-Serif" font-size="10.00">+</text>
<text text-anchor="start" x="1221" y="-363.5" font-family="Helvetica,sans-Serif" font-size="10.00">empirical</text>
<text text-anchor="start" x="1208" y="-348.5" font-family="Helvetica,sans-Serif" font-size="10.00">+</text>
<text text-anchor="start" x="1221" y="-348.5" font-family="Helvetica,sans-Serif" font-size="10.00">antenna_thrust</text>
<text text-anchor="start" x="1208" y="-333.5" font-family="Helvetica,sans-Serif" font-size="10.00">+</text>
<text text-anchor="start" x="1221" y="-333.5" font-family="Helvetica,sans-Serif" font-size="10.00">albedo</text>
<text text-anchor="start" x="1208" y="-318.5" font-family="Helvetica,sans-Serif" font-size="10.00">+</text>
<text text-anchor="start" x="1221" y="-318.5" font-family="Helvetica,sans-Serif" font-size="10.00">solar_radiation_pressure</text>
<text text-anchor="start" x="1208" y="-303.5" font-family="Helvetica,sans-Serif" font-size="10.00">+</text>
<text text-anchor="start" x="1221" y="-303.5" font-family="Helvetica,sans-Serif" font-size="10.00">enable</text>
<text text-anchor="start" x="1208" y="-288.5" font-family="Helvetica,sans-Serif" font-size="10.00">+</text>
<text text-anchor="start" x="1221" y="-288.5" font-family="Helvetica,sans-Serif" font-size="10.00">interval</text>
<text text-anchor="start" x="1208" y="-273.5" font-family="Helvetica,sans-Serif" font-size="10.00">+</text>
<text text-anchor="start" x="1221" y="-273.5" font-family="Helvetica,sans-Serif" font-size="10.00">pos_proc_noise</text>
<text text-anchor="start" x="1208" y="-258.5" font-family="Helvetica,sans-Serif" font-size="10.00">+</text>
<text text-anchor="start" x="1221" y="-258.5" font-family="Helvetica,sans-Serif" font-size="10.00">vel_proc_noise</text>
<text text-anchor="start" x="1208" y="-243.5" font-family="Helvetica,sans-Serif" font-size="10.00">+</text>
<text text-anchor="start" x="1221" y="-243.5" font-family="Helvetica,sans-Serif" font-size="10.00">pseudoPulses</text>
<text text-anchor="start" x="1208" y="-228.5" font-family="Helvetica,sans-Serif" font-size="10.00">+</text>
<text text-anchor="start" x="1221" y="-228.5" font-family="Helvetica,sans-Serif" font-size="10.00">operator+=()</text>
<polygon fill="#666666" stroke="#666666" points="1204,-433.5 1204,-433.5 1346,-433.5 1346,-433.5 1204,-433.5"/>
<polygon fill="#666666" stroke="#666666" points="1204,-238.5 1204,-238.5 1219,-238.5 1219,-238.5 1204,-238.5"/>
<polygon fill="#666666" stroke="#666666" points="1219,-238.5 1219,-238.5 1346,-238.5 1346,-238.5 1219,-238.5"/>
<polygon fill="none" stroke="#666666" points="1204,-222 1204,-451 1346,-451 1346,-222 1204,-222"/>
</a>
</g>
</g>
<!-- Node9&#45;&gt;Node17 -->
<g id="edge16_Node000017_Node000009" class="edge">
<title>Node9&#45;&gt;Node17</title>
<g id="a_edge16_Node000017_Node000009"><a xlink:title=" ">
<path fill="none" stroke="#63b8ff" d="M986.83,-819.08C974.88,-756.81 956.3,-605.84 1036,-527 1082.48,-481.02 1127.98,-545.82 1182,-509 1198.73,-497.6 1212.71,-482.17 1224.33,-465.22"/>
<polygon fill="none" stroke="#63b8ff" points="1224.37,-465.16 1224.27,-457.95 1230.89,-455.08 1230.99,-462.29 1224.37,-465.16"/>
</a>
</g>
<text text-anchor="middle" x="1076.5" y="-553" font-family="Helvetica,sans-Serif" font-size="10.00" fill="grey"> +initialisedMap</text>
</g>
<!-- Node10 -->
<g id="Node000010" class="node">
<title>Node10</title>
<g id="a_Node000010"><a xlink:title=" ">
<path fill="white" stroke="#666666" d="M1294,-1198C1294,-1198 1270,-1198 1270,-1198 1264,-1198 1258,-1192 1258,-1186 1258,-1186 1258,-1153 1258,-1153 1258,-1147 1264,-1141 1270,-1141 1270,-1141 1294,-1141 1294,-1141 1300,-1141 1306,-1147 1306,-1153 1306,-1153 1306,-1186 1306,-1186 1306,-1192 1300,-1198 1294,-1198"/>
<text text-anchor="start" x="1271" y="-1181.5" font-family="Helvetica,sans-Serif" font-size="10.00">map</text>
<text text-anchor="start" x="1280" y="-1166.5" font-family="Helvetica,sans-Serif" font-size="10.00"> </text>
<text text-anchor="start" x="1280" y="-1151.5" font-family="Helvetica,sans-Serif" font-size="10.00"> </text>
<polygon fill="#666666" stroke="#666666" points="1266,-1176.5 1266,-1176.5 1298,-1176.5 1298,-1176.5 1266,-1176.5"/>
<polygon fill="#666666" stroke="#666666" points="1266,-1161.5 1266,-1161.5 1298,-1161.5 1298,-1161.5 1266,-1161.5"/>
<polygon fill="none" stroke="#666666" points="1266,-1145 1266,-1194 1298,-1194 1298,-1145 1266,-1145"/>
</a>
</g>
</g>
<!-- Node10&#45;&gt;Node9 -->
<g id="edge11_Node000009_Node000010" class="edge">
<title>Node10&#45;&gt;Node9</title>
<g id="a_edge11_Node000009_Node000010"><a xlink:title=" ">
<path fill="none" stroke="orange" d="M1247.52,-1166.97C1198.12,-1162.88 1107.61,-1147.97 1057,-1094 999.56,-1032.75 992.21,-926.52 992.17,-876.52"/>
<polygon fill="orange" stroke="orange" points="1247.47,-1170.48 1257.7,-1167.71 1247.98,-1163.5 1247.47,-1170.48"/>
</a>
</g>
<text text-anchor="middle" x="1125" y="-1115" font-family="Helvetica,sans-Serif" font-size="10.00" fill="grey"> &lt; int, bool &gt;</text>
</g>
<!-- Node21 -->
<g id="Node000021" class="node">
<title>Node21</title>
<g id="a_Node000021"><a xlink:title=" ">
<path fill="white" stroke="#666666" d="M1696.5,-584C1696.5,-584 1529.5,-584 1529.5,-584 1523.5,-584 1517.5,-578 1517.5,-572 1517.5,-572 1517.5,-539 1517.5,-539 1517.5,-533 1523.5,-527 1529.5,-527 1529.5,-527 1696.5,-527 1696.5,-527 1702.5,-527 1708.5,-533 1708.5,-539 1708.5,-539 1708.5,-572 1708.5,-572 1708.5,-578 1702.5,-584 1696.5,-584"/>
<text text-anchor="start" x="1531" y="-567.5" font-family="Helvetica,sans-Serif" font-size="10.00">map&lt; string, SatelliteOptions * &gt;</text>
<text text-anchor="start" x="1611.5" y="-552.5" font-family="Helvetica,sans-Serif" font-size="10.00"> </text>
<text text-anchor="start" x="1611.5" y="-537.5" font-family="Helvetica,sans-Serif" font-size="10.00"> </text>
<polygon fill="#666666" stroke="#666666" points="1526,-562.5 1526,-562.5 1701,-562.5 1701,-562.5 1526,-562.5"/>
<polygon fill="#666666" stroke="#666666" points="1526,-547.5 1526,-547.5 1701,-547.5 1701,-547.5 1526,-547.5"/>
<polygon fill="none" stroke="#666666" points="1525.5,-531 1525.5,-580 1700.5,-580 1700.5,-531 1525.5,-531"/>
</a>
</g>
</g>
<!-- Node10&#45;&gt;Node21 -->
<g id="edge19_Node000021_Node000010" class="edge">
<title>Node10&#45;&gt;Node21</title>
<g id="a_edge19_Node000021_Node000010"><a xlink:title=" ">
<path fill="none" stroke="orange" d="M1316.47,-1167.69C1367.1,-1164.54 1460.96,-1150.83 1511,-1094 1644.69,-942.16 1626.52,-670.89 1616.65,-584.05"/>
<polygon fill="orange" stroke="orange" points="1316.16,-1164.21 1306.36,-1168.22 1316.53,-1171.2 1316.16,-1164.21"/>
</a>
</g>
<text text-anchor="middle" x="1564" y="-1115" font-family="Helvetica,sans-Serif" font-size="10.00" fill="grey"> &lt; string, SatelliteOptions * &gt;</text>
</g>
<!-- Node17&#45;&gt;Node1 -->
<g id="edge12_Node000001_Node000017" class="edge">
<title>Node17&#45;&gt;Node1</title>
<g id="a_edge12_Node000001_Node000017"><a xlink:title=" ">
<path fill="none" stroke="#63b8ff" d="M1216.45,-208.26C1201.81,-176.43 1186.81,-143.84 1174.6,-117.31"/>
<polygon fill="none" stroke="#63b8ff" points="1213.41,-210.03 1220.77,-217.65 1219.77,-207.1 1213.41,-210.03"/>
</a>
</g>
</g>
<!-- Node18 -->
<g id="Node000018" class="node">
<title>Node18</title>
<g id="a_Node000018"><a xlink:title=" ">
<path fill="#fff0f0" stroke="red" d="M1195.5,-876.5C1195.5,-876.5 1078.5,-876.5 1078.5,-876.5 1072.5,-876.5 1066.5,-870.5 1066.5,-864.5 1066.5,-864.5 1066.5,-831.5 1066.5,-831.5 1066.5,-825.5 1072.5,-819.5 1078.5,-819.5 1078.5,-819.5 1195.5,-819.5 1195.5,-819.5 1201.5,-819.5 1207.5,-825.5 1207.5,-831.5 1207.5,-831.5 1207.5,-864.5 1207.5,-864.5 1207.5,-870.5 1201.5,-876.5 1195.5,-876.5"/>
<text text-anchor="start" x="1080" y="-860" font-family="Helvetica,sans-Serif" font-size="10.00">vector&lt; E_ThirdBody &gt;</text>
<text text-anchor="start" x="1135.5" y="-845" font-family="Helvetica,sans-Serif" font-size="10.00"> </text>
<text text-anchor="start" x="1135.5" y="-830" font-family="Helvetica,sans-Serif" font-size="10.00"> </text>
<polygon fill="red" stroke="red" points="1075,-855 1075,-855 1200,-855 1200,-855 1075,-855"/>
<polygon fill="red" stroke="red" points="1075,-840 1075,-840 1200,-840 1200,-840 1075,-840"/>
<polygon fill="none" stroke="red" points="1074.5,-823.5 1074.5,-872.5 1199.5,-872.5 1199.5,-823.5 1074.5,-823.5"/>
</a>
</g>
</g>
<!-- Node18&#45;&gt;Node17 -->
<g id="edge13_Node000017_Node000018" class="edge">
<title>Node18&#45;&gt;Node17</title>
<g id="a_edge13_Node000017_Node000018"><a xlink:title=" ">
<path fill="none" stroke="#63b8ff" d="M1128.88,-819.42C1113.25,-760.36 1085.48,-619.55 1145,-527 1154.89,-511.62 1168.79,-521.64 1182,-509 1195.25,-496.32 1207.05,-481.34 1217.43,-465.59"/>
<polygon fill="none" stroke="#63b8ff" points="1217.63,-465.28 1217.46,-458.07 1224.05,-455.14 1224.22,-462.35 1217.63,-465.28"/>
</a>
</g>
<text text-anchor="middle" x="1209.5" y="-553" font-family="Helvetica,sans-Serif" font-size="10.00" fill="grey"> +planetary_perturbations</text>
</g>
<!-- Node7 -->
<g id="Node000007" class="node">
<title>Node7</title>
<g id="a_Node000007"><a xlink:title=" ">
<path fill="#fff0f0" stroke="red" d="M1320.5,-876.5C1320.5,-876.5 1243.5,-876.5 1243.5,-876.5 1237.5,-876.5 1231.5,-870.5 1231.5,-864.5 1231.5,-864.5 1231.5,-831.5 1231.5,-831.5 1231.5,-825.5 1237.5,-819.5 1243.5,-819.5 1243.5,-819.5 1320.5,-819.5 1320.5,-819.5 1326.5,-819.5 1332.5,-825.5 1332.5,-831.5 1332.5,-831.5 1332.5,-864.5 1332.5,-864.5 1332.5,-870.5 1326.5,-876.5 1320.5,-876.5"/>
<text text-anchor="start" x="1245" y="-860" font-family="Helvetica,sans-Serif" font-size="10.00">vector&lt; bool &gt;</text>
<text text-anchor="start" x="1280.5" y="-845" font-family="Helvetica,sans-Serif" font-size="10.00"> </text>
<text text-anchor="start" x="1280.5" y="-830" font-family="Helvetica,sans-Serif" font-size="10.00"> </text>
<polygon fill="red" stroke="red" points="1240,-855 1240,-855 1325,-855 1325,-855 1240,-855"/>
<polygon fill="red" stroke="red" points="1240,-840 1240,-840 1325,-840 1325,-840 1240,-840"/>
<polygon fill="none" stroke="red" points="1239.5,-823.5 1239.5,-872.5 1324.5,-872.5 1324.5,-823.5 1239.5,-823.5"/>
</a>
</g>
</g>
<!-- Node7&#45;&gt;Node17 -->
<g id="edge14_Node000017_Node000007" class="edge">
<title>Node7&#45;&gt;Node17</title>
<g id="a_edge14_Node000017_Node000007"><a xlink:title=" ">
<path fill="none" stroke="#63b8ff" d="M1281.62,-819.25C1280.72,-753.8 1278.42,-586.37 1276.78,-467.33"/>
<polygon fill="none" stroke="#63b8ff" points="1276.78,-467.24 1272.7,-461.29 1276.62,-455.24 1280.7,-461.18 1276.78,-467.24"/>
</a>
</g>
<text text-anchor="middle" x="1339.5" y="-558.5" font-family="Helvetica,sans-Serif" font-size="10.00" fill="grey"> +empirical_dyb_eclipse</text>
<text text-anchor="middle" x="1339.5" y="-547.5" font-family="Helvetica,sans-Serif" font-size="10.00" fill="grey">+empirical_rtn_eclipse</text>
</g>
<!-- Node19 -->
<g id="Node000019" class="node">
<title>Node19</title>
<g id="a_Node000019"><a xlink:title=" ">
<path fill="#fff0f0" stroke="red" d="M1489.5,-876.5C1489.5,-876.5 1362.5,-876.5 1362.5,-876.5 1356.5,-876.5 1350.5,-870.5 1350.5,-864.5 1350.5,-864.5 1350.5,-831.5 1350.5,-831.5 1350.5,-825.5 1356.5,-819.5 1362.5,-819.5 1362.5,-819.5 1489.5,-819.5 1489.5,-819.5 1495.5,-819.5 1501.5,-825.5 1501.5,-831.5 1501.5,-831.5 1501.5,-864.5 1501.5,-864.5 1501.5,-870.5 1495.5,-876.5 1489.5,-876.5"/>
<text text-anchor="start" x="1364" y="-860" font-family="Helvetica,sans-Serif" font-size="10.00">vector&lt; SurfaceDetails &gt;</text>
<text text-anchor="start" x="1424.5" y="-845" font-family="Helvetica,sans-Serif" font-size="10.00"> </text>
<text text-anchor="start" x="1424.5" y="-830" font-family="Helvetica,sans-Serif" font-size="10.00"> </text>
<polygon fill="red" stroke="red" points="1359,-855 1359,-855 1494,-855 1494,-855 1359,-855"/>
<polygon fill="red" stroke="red" points="1359,-840 1359,-840 1494,-840 1494,-840 1359,-840"/>
<polygon fill="none" stroke="red" points="1358.5,-823.5 1358.5,-872.5 1493.5,-872.5 1493.5,-823.5 1358.5,-823.5"/>
</a>
</g>
</g>
<!-- Node19&#45;&gt;Node17 -->
<g id="edge15_Node000017_Node000019" class="edge">
<title>Node19&#45;&gt;Node17</title>
<g id="a_edge15_Node000017_Node000019"><a xlink:title=" ">
<path fill="none" stroke="#63b8ff" d="M1427.65,-819.27C1431.2,-750.37 1436.79,-573.63 1404,-527 1392.55,-510.72 1377.49,-522.64 1363,-509 1349.71,-496.49 1338.08,-481.52 1328.02,-465.71"/>
<polygon fill="none" stroke="#63b8ff" points="1327.87,-465.47 1321.34,-462.42 1321.63,-455.22 1328.17,-458.26 1327.87,-465.47"/>
</a>
</g>
<text text-anchor="middle" x="1465" y="-553" font-family="Helvetica,sans-Serif" font-size="10.00" fill="grey"> +surface_details</text>
</g>
<!-- Node20 -->
<g id="Node000020" class="node">
<title>Node20</title>
<g id="a_Node000020"><a xlink:title=" ">
<path fill="white" stroke="#666666" d="M1414,-365C1414,-365 1384,-365 1384,-365 1378,-365 1372,-359 1372,-353 1372,-353 1372,-320 1372,-320 1372,-314 1378,-308 1384,-308 1384,-308 1414,-308 1414,-308 1420,-308 1426,-314 1426,-320 1426,-320 1426,-353 1426,-353 1426,-359 1420,-365 1414,-365"/>
<text text-anchor="start" x="1385" y="-348.5" font-family="Helvetica,sans-Serif" font-size="10.00">string</text>
<text text-anchor="start" x="1397" y="-333.5" font-family="Helvetica,sans-Serif" font-size="10.00"> </text>
<text text-anchor="start" x="1397" y="-318.5" font-family="Helvetica,sans-Serif" font-size="10.00"> </text>
<polygon fill="#666666" stroke="#666666" points="1380,-343.5 1380,-343.5 1418,-343.5 1418,-343.5 1380,-343.5"/>
<polygon fill="#666666" stroke="#666666" points="1380,-328.5 1380,-328.5 1418,-328.5 1418,-328.5 1380,-328.5"/>
<polygon fill="none" stroke="#666666" points="1380,-312 1380,-361 1418,-361 1418,-312 1380,-312"/>
</a>
</g>
</g>
<!-- Node20&#45;&gt;Node1 -->
<g id="edge17_Node000001_Node000020" class="edge">
<title>Node20&#45;&gt;Node1</title>
<g id="a_edge17_Node000001_Node000020"><a xlink:title=" ">
<path fill="none" stroke="#63b8ff" d="M1400.3,-307.78C1400.58,-271.07 1395.85,-206.09 1363,-164 1330.76,-122.69 1278.03,-96.71 1232.85,-80.98"/>
<polygon fill="none" stroke="#63b8ff" points="1232.63,-80.91 1225.67,-82.8 1221.25,-77.11 1228.2,-75.21 1232.63,-80.91"/>
</a>
</g>
<text text-anchor="middle" x="1355.5" y="-138" font-family="Helvetica,sans-Serif" font-size="10.00" fill="grey"> +id</text>
</g>
<!-- Node21&#45;&gt;Node1 -->
<g id="edge18_Node000001_Node000021" class="edge">
<title>Node21&#45;&gt;Node1</title>
<g id="a_edge18_Node000001_Node000021"><a xlink:title=" ">
<path fill="none" stroke="#63b8ff" d="M1607.53,-526.99C1592.35,-457.27 1543.43,-271.57 1435,-164 1380.62,-110.06 1296.24,-83.72 1233.03,-71.01"/>
<polygon fill="none" stroke="#63b8ff" points="1232.87,-70.98 1226.22,-73.78 1221.08,-68.72 1227.73,-65.92 1232.87,-70.98"/>
</a>
</g>
<text text-anchor="middle" x="1642" y="-339.5" font-family="Helvetica,sans-Serif" font-size="10.00" fill="grey"> +inheritedFrom</text>
<text text-anchor="middle" x="1642" y="-328.5" font-family="Helvetica,sans-Serif" font-size="10.00" fill="grey">+inheritors</text>
</g>
</g>
</svg>
