<?xml version="1.0" encoding="UTF-8" standalone="no"?>
<!DOCTYPE svg PUBLIC "-//W3C//DTD SVG 1.1//EN"
 "http://www.w3.org/Graphics/SVG/1.1/DTD/svg11.dtd">
<!-- Generated by graphviz version 2.43.0 (0)
 -->
<!-- Title: GeomagMainField Pages: 1 -->
<svg width="142pt" height="195pt"
 viewBox="0.00 0.00 142.00 195.00" xmlns="http://www.w3.org/2000/svg" xmlns:xlink="http://www.w3.org/1999/xlink">
<g id="graph0" class="graph" transform="scale(1 1) rotate(0) translate(4 191)">
<title>GeomagMainField</title>
<!-- Node1 -->
<g id="Node000001" class="node">
<title>Node1</title>
<g id="a_Node000001"><a xlink:href="structGeomagMainField.html" target="_top" xlink:title="Structure for variables related to the International Geomagnetic Reference Field 13th Generation Inte...">
<path fill="white" stroke="#666666" stroke-width="2" d="M122,-72C122,-72 12,-72 12,-72 6,-72 0,-66 0,-60 0,-60 0,-12 0,-12 0,-6 6,0 12,0 12,0 122,0 122,0 128,0 134,-6 134,-12 134,-12 134,-60 134,-60 134,-66 128,-72 122,-72"/>
<text text-anchor="start" x="22.5" y="-56" font-family="Helvetica,sans-Serif" font-size="10.00">GeomagMainField</text>
<text text-anchor="start" x="12" y="-41" font-family="Helvetica,sans-Serif" font-size="10.00">+</text>
<text text-anchor="start" x="25" y="-41" font-family="Helvetica,sans-Serif" font-size="10.00">year</text>
<text text-anchor="start" x="12" y="-26" font-family="Helvetica,sans-Serif" font-size="10.00">+</text>
<text text-anchor="start" x="25" y="-26" font-family="Helvetica,sans-Serif" font-size="10.00">maxDegree</text>
<text text-anchor="start" x="12" y="-11" font-family="Helvetica,sans-Serif" font-size="10.00">+</text>
<text text-anchor="start" x="25" y="-11" font-family="Helvetica,sans-Serif" font-size="10.00">GeomagMainField()</text>
<polygon fill="#666666" stroke="#666666" points="8,-51 8,-51 126,-51 126,-51 8,-51"/>
<polygon fill="#666666" stroke="#666666" points="8,-21 8,-21 23,-21 23,-21 8,-21"/>
<polygon fill="#666666" stroke="#666666" points="23,-21 23,-21 126,-21 126,-21 23,-21"/>
<polygon fill="none" stroke="#666666" points="8,-4 8,-68 126,-68 126,-4 8,-4"/>
</a>
</g>
</g>
<!-- Node2 -->
<g id="Node000002" class="node">
<title>Node2</title>
<g id="a_Node000002"><a xlink:title=" ">
<path fill="white" stroke="#666666" d="M90.5,-187C90.5,-187 43.5,-187 43.5,-187 37.5,-187 31.5,-181 31.5,-175 31.5,-175 31.5,-142 31.5,-142 31.5,-136 37.5,-130 43.5,-130 43.5,-130 90.5,-130 90.5,-130 96.5,-130 102.5,-136 102.5,-142 102.5,-142 102.5,-175 102.5,-175 102.5,-181 96.5,-187 90.5,-187"/>
<text text-anchor="start" x="45" y="-170.5" font-family="Helvetica,sans-Serif" font-size="10.00">MatrixXd</text>
<text text-anchor="start" x="65.5" y="-155.5" font-family="Helvetica,sans-Serif" font-size="10.00"> </text>
<text text-anchor="start" x="65.5" y="-140.5" font-family="Helvetica,sans-Serif" font-size="10.00"> </text>
<polygon fill="#666666" stroke="#666666" points="40,-165.5 40,-165.5 95,-165.5 95,-165.5 40,-165.5"/>
<polygon fill="#666666" stroke="#666666" points="40,-150.5 40,-150.5 95,-150.5 95,-150.5 40,-150.5"/>
<polygon fill="none" stroke="#666666" points="39.5,-134 39.5,-183 94.5,-183 94.5,-134 39.5,-134"/>
</a>
</g>
</g>
<!-- Node2&#45;&gt;Node1 -->
<g id="edge1_Node000001_Node000002" class="edge">
<title>Node2&#45;&gt;Node1</title>
<g id="a_edge1_Node000001_Node000002"><a xlink:title=" ">
<path fill="none" stroke="#63b8ff" d="M67,-129.85C67,-116.37 67,-99.76 67,-84.34"/>
<polygon fill="none" stroke="#63b8ff" points="67,-84.31 63,-78.31 67,-72.31 71,-78.31 67,-84.31"/>
</a>
</g>
<text text-anchor="middle" x="84" y="-104" font-family="Helvetica,sans-Serif" font-size="10.00" fill="grey"> +gnm</text>
<text text-anchor="middle" x="84" y="-93" font-family="Helvetica,sans-Serif" font-size="10.00" fill="grey">+hnm</text>
</g>
</g>
</svg>
