<?xml version="1.0" encoding="UTF-8" standalone="no"?>
<!DOCTYPE svg PUBLIC "-//W3C//DTD SVG 1.1//EN"
 "http://www.w3.org/Graphics/SVG/1.1/DTD/svg11.dtd">
<!-- Generated by graphviz version 2.43.0 (0)
 -->
<!-- Title: S_LC Pages: 1 -->
<svg width="106pt" height="335pt"
 viewBox="0.00 0.00 106.00 335.00" xmlns="http://www.w3.org/2000/svg" xmlns:xlink="http://www.w3.org/1999/xlink">
<g id="graph0" class="graph" transform="scale(1 1) rotate(0) translate(4 331)">
<title>S_LC</title>
<!-- Node1 -->
<g id="Node000001" class="node">
<title>Node1</title>
<g id="a_Node000001"><a xlink:href="structS__LC.html" target="_top" xlink:title=" ">
<path fill="white" stroke="#666666" stroke-width="2" d="M86,-327C86,-327 12,-327 12,-327 6,-327 0,-321 0,-315 0,-315 0,-12 0,-12 0,-6 6,0 12,0 12,0 86,0 86,0 92,0 98,-6 98,-12 98,-12 98,-315 98,-315 98,-321 92,-327 86,-327"/>
<text text-anchor="start" x="37" y="-310.5" font-family="Helvetica,sans-Serif" font-size="10.00">S_LC</text>
<text text-anchor="start" x="12" y="-295.5" font-family="Helvetica,sans-Serif" font-size="10.00">+</text>
<text text-anchor="start" x="25" y="-295.5" font-family="Helvetica,sans-Serif" font-size="10.00">valid</text>
<text text-anchor="start" x="12" y="-280.5" font-family="Helvetica,sans-Serif" font-size="10.00">+</text>
<text text-anchor="start" x="25" y="-280.5" font-family="Helvetica,sans-Serif" font-size="10.00">GF_Phas_m</text>
<text text-anchor="start" x="12" y="-265.5" font-family="Helvetica,sans-Serif" font-size="10.00">+</text>
<text text-anchor="start" x="25" y="-265.5" font-family="Helvetica,sans-Serif" font-size="10.00">GF_Code_m</text>
<text text-anchor="start" x="12" y="-250.5" font-family="Helvetica,sans-Serif" font-size="10.00">+</text>
<text text-anchor="start" x="25" y="-250.5" font-family="Helvetica,sans-Serif" font-size="10.00">WL_Phas_m</text>
<text text-anchor="start" x="12" y="-235.5" font-family="Helvetica,sans-Serif" font-size="10.00">+</text>
<text text-anchor="start" x="25" y="-235.5" font-family="Helvetica,sans-Serif" font-size="10.00">WL_Phas_c</text>
<text text-anchor="start" x="12" y="-220.5" font-family="Helvetica,sans-Serif" font-size="10.00">+</text>
<text text-anchor="start" x="25" y="-220.5" font-family="Helvetica,sans-Serif" font-size="10.00">WL_Code_m</text>
<text text-anchor="start" x="12" y="-205.5" font-family="Helvetica,sans-Serif" font-size="10.00">+</text>
<text text-anchor="start" x="25" y="-205.5" font-family="Helvetica,sans-Serif" font-size="10.00">WL_Code_c</text>
<text text-anchor="start" x="12" y="-190.5" font-family="Helvetica,sans-Serif" font-size="10.00">+</text>
<text text-anchor="start" x="25" y="-190.5" font-family="Helvetica,sans-Serif" font-size="10.00">NL_Phas_m</text>
<text text-anchor="start" x="12" y="-175.5" font-family="Helvetica,sans-Serif" font-size="10.00">+</text>
<text text-anchor="start" x="25" y="-175.5" font-family="Helvetica,sans-Serif" font-size="10.00">NL_Phas_c</text>
<text text-anchor="start" x="12" y="-160.5" font-family="Helvetica,sans-Serif" font-size="10.00">+</text>
<text text-anchor="start" x="25" y="-160.5" font-family="Helvetica,sans-Serif" font-size="10.00">NL_Code_m</text>
<text text-anchor="start" x="12" y="-145.5" font-family="Helvetica,sans-Serif" font-size="10.00">+</text>
<text text-anchor="start" x="25" y="-145.5" font-family="Helvetica,sans-Serif" font-size="10.00">NL_Code_c</text>
<text text-anchor="start" x="12" y="-130.5" font-family="Helvetica,sans-Serif" font-size="10.00">+</text>
<text text-anchor="start" x="25" y="-130.5" font-family="Helvetica,sans-Serif" font-size="10.00">IF_Phas_m</text>
<text text-anchor="start" x="12" y="-115.5" font-family="Helvetica,sans-Serif" font-size="10.00">+</text>
<text text-anchor="start" x="25" y="-115.5" font-family="Helvetica,sans-Serif" font-size="10.00">IF_Code_m</text>
<text text-anchor="start" x="12" y="-100.5" font-family="Helvetica,sans-Serif" font-size="10.00">+</text>
<text text-anchor="start" x="25" y="-100.5" font-family="Helvetica,sans-Serif" font-size="10.00">MW_m</text>
<text text-anchor="start" x="12" y="-85.5" font-family="Helvetica,sans-Serif" font-size="10.00">+</text>
<text text-anchor="start" x="25" y="-85.5" font-family="Helvetica,sans-Serif" font-size="10.00">MW_c</text>
<text text-anchor="start" x="12" y="-70.5" font-family="Helvetica,sans-Serif" font-size="10.00">+</text>
<text text-anchor="start" x="25" y="-70.5" font-family="Helvetica,sans-Serif" font-size="10.00">lam_A</text>
<text text-anchor="start" x="12" y="-55.5" font-family="Helvetica,sans-Serif" font-size="10.00">+</text>
<text text-anchor="start" x="25" y="-55.5" font-family="Helvetica,sans-Serif" font-size="10.00">lam_B</text>
<text text-anchor="start" x="12" y="-40.5" font-family="Helvetica,sans-Serif" font-size="10.00">+</text>
<text text-anchor="start" x="25" y="-40.5" font-family="Helvetica,sans-Serif" font-size="10.00">lam_WL</text>
<text text-anchor="start" x="12" y="-25.5" font-family="Helvetica,sans-Serif" font-size="10.00">+</text>
<text text-anchor="start" x="25" y="-25.5" font-family="Helvetica,sans-Serif" font-size="10.00">lam_NL</text>
<text text-anchor="start" x="47" y="-10.5" font-family="Helvetica,sans-Serif" font-size="10.00"> </text>
<polygon fill="#666666" stroke="#666666" points="8,-305.5 8,-305.5 90,-305.5 90,-305.5 8,-305.5"/>
<polygon fill="#666666" stroke="#666666" points="8,-20.5 8,-20.5 23,-20.5 23,-20.5 8,-20.5"/>
<polygon fill="#666666" stroke="#666666" points="23,-20.5 23,-20.5 90,-20.5 90,-20.5 23,-20.5"/>
<polygon fill="none" stroke="#666666" points="8,-4 8,-323 90,-323 90,-4 8,-4"/>
</a>
</g>
</g>
</g>
</svg>
