<?xml version="1.0" encoding="UTF-8" standalone="no"?>
<!DOCTYPE svg PUBLIC "-//W3C//DTD SVG 1.1//EN"
 "http://www.w3.org/Graphics/SVG/1.1/DTD/svg11.dtd">
<!-- Generated by graphviz version 2.43.0 (0)
 -->
<!-- Title: KFState::setExponentialNoise Pages: 1 -->
<svg width="322pt" height="64pt"
 viewBox="0.00 0.00 322.00 64.00" xmlns="http://www.w3.org/2000/svg" xmlns:xlink="http://www.w3.org/1999/xlink">
<g id="graph0" class="graph" transform="scale(1 1) rotate(0) translate(4 60)">
<title>KFState::setExponentialNoise</title>
<!-- Node1 -->
<g id="Node000001" class="node">
<title>Node1</title>
<g id="a_Node000001"><a xlink:href="structKFState.html#aece25f1cafe5d3b85dc07f6ec1f57196" target="_top" xlink:title=" ">
<path fill="#fff0f0" stroke="red" stroke-width="2" d="M307.67,-37C307.67,-37 159.33,-37 159.33,-37 156.17,-37 153,-33.83 153,-30.67 153,-30.67 153,-24.33 153,-24.33 153,-21.17 156.17,-18 159.33,-18 159.33,-18 307.67,-18 307.67,-18 310.83,-18 314,-21.17 314,-24.33 314,-24.33 314,-30.67 314,-30.67 314,-33.83 310.83,-37 307.67,-37"/>
<text text-anchor="middle" x="233.5" y="-25" font-family="Helvetica,sans-Serif" font-size="10.00">KFState::setExponentialNoise</text>
</a>
</g>
</g>
<!-- Node2 -->
<g id="Node000002" class="node">
<title>Node2</title>
<g id="a_Node000002"><a xlink:href="ppp__callbacks_8cpp.html#a7cfa90aea5f0628c57a71537e9e365c8" target="_top" xlink:title="Remove any states connected to a bad clock if it glitches.">
<path fill="#fff0f0" stroke="red" d="M107.17,-56C107.17,-56 9.83,-56 9.83,-56 6.67,-56 3.5,-52.83 3.5,-49.67 3.5,-49.67 3.5,-43.33 3.5,-43.33 3.5,-40.17 6.67,-37 9.83,-37 9.83,-37 107.17,-37 107.17,-37 110.33,-37 113.5,-40.17 113.5,-43.33 113.5,-43.33 113.5,-49.67 113.5,-49.67 113.5,-52.83 110.33,-56 107.17,-56"/>
<text text-anchor="middle" x="58.5" y="-44" font-family="Helvetica,sans-Serif" font-size="10.00">orbitGlitchReaction</text>
</a>
</g>
</g>
<!-- Node1&#45;&gt;Node2 -->
<g id="edge1_Node000001_Node000002" class="edge">
<title>Node1&#45;&gt;Node2</title>
<g id="a_edge1_Node000001_Node000002"><a xlink:title=" ">
<path fill="none" stroke="#63b8ff" d="M142.84,-37.35C132.84,-38.45 122.9,-39.54 113.55,-40.56"/>
<polygon fill="#63b8ff" stroke="#63b8ff" points="143.28,-40.82 152.84,-36.25 142.51,-33.86 143.28,-40.82"/>
</a>
</g>
</g>
<!-- Node5 -->
<g id="Node000005" class="node">
<title>Node5</title>
<g id="a_Node000005"><a xlink:href="ppppp_8cpp.html#a0c7e9127b8ac6b4b5f865d1220efe547" target="_top" xlink:title=" ">
<path fill="#fff0f0" stroke="red" d="M110.67,-19C110.67,-19 6.33,-19 6.33,-19 3.17,-19 0,-15.83 0,-12.67 0,-12.67 0,-6.33 0,-6.33 0,-3.17 3.17,0 6.33,0 6.33,0 110.67,0 110.67,0 113.83,0 117,-3.17 117,-6.33 117,-6.33 117,-12.67 117,-12.67 117,-15.83 113.83,-19 110.67,-19"/>
<text text-anchor="middle" x="58.5" y="-7" font-family="Helvetica,sans-Serif" font-size="10.00">updatePseudoPulses</text>
</a>
</g>
</g>
<!-- Node1&#45;&gt;Node5 -->
<g id="edge2_Node000001_Node000005" class="edge">
<title>Node1&#45;&gt;Node5</title>
<g id="a_edge2_Node000001_Node000005"><a xlink:title=" ">
<path fill="none" stroke="#63b8ff" d="M142.64,-18.15C133.95,-17.25 125.31,-16.35 117.07,-15.49"/>
<polygon fill="#63b8ff" stroke="#63b8ff" points="142.53,-21.66 152.84,-19.21 143.25,-14.7 142.53,-21.66"/>
</a>
</g>
</g>
</g>
</svg>
