<?xml version="1.0" encoding="UTF-8" standalone="no"?>
<!DOCTYPE svg PUBLIC "-//W3C//DTD SVG 1.1//EN"
 "http://www.w3.org/Graphics/SVG/1.1/DTD/svg11.dtd">
<!-- Generated by graphviz version 2.43.0 (0)
 -->
<!-- Title: InteractiveTerminal::drawWindow Pages: 1 -->
<svg width="413pt" height="142pt"
 viewBox="0.00 0.00 413.00 142.00" xmlns="http://www.w3.org/2000/svg" xmlns:xlink="http://www.w3.org/1999/xlink">
<g id="graph0" class="graph" transform="scale(1 1) rotate(0) translate(4 138)">
<title>InteractiveTerminal::drawWindow</title>
<!-- Node1 -->
<g id="Node000001" class="node">
<title>Node1</title>
<g id="a_Node000001"><a xlink:href="structInteractiveTerminal.html#a4a681f1d153cf94ef2309d216d8ff141" target="_top" xlink:title=" ">
<path fill="#fff0f0" stroke="red" stroke-width="2" d="M395,-73C395,-73 304,-73 304,-73 299,-73 294,-68 294,-63 294,-63 294,-53 294,-53 294,-48 299,-43 304,-43 304,-43 395,-43 395,-43 400,-43 405,-48 405,-53 405,-53 405,-63 405,-63 405,-68 400,-73 395,-73"/>
<text text-anchor="start" x="302" y="-61" font-family="Helvetica,sans-Serif" font-size="10.00">InteractiveTerminal</text>
<text text-anchor="middle" x="349.5" y="-50" font-family="Helvetica,sans-Serif" font-size="10.00">::drawWindow</text>
</a>
</g>
</g>
<!-- Node2 -->
<g id="Node000002" class="node">
<title>Node2</title>
<g id="a_Node000002"><a xlink:href="structInteractiveTerminal.html#acaff8ba8e5700113836f7d680285996d" target="_top" xlink:title=" ">
<path fill="#fff0f0" stroke="red" d="M248,-116C248,-116 157,-116 157,-116 152,-116 147,-111 147,-106 147,-106 147,-96 147,-96 147,-91 152,-86 157,-86 157,-86 248,-86 248,-86 253,-86 258,-91 258,-96 258,-96 258,-106 258,-106 258,-111 253,-116 248,-116"/>
<text text-anchor="start" x="155" y="-104" font-family="Helvetica,sans-Serif" font-size="10.00">InteractiveTerminal</text>
<text text-anchor="middle" x="202.5" y="-93" font-family="Helvetica,sans-Serif" font-size="10.00">::addString</text>
</a>
</g>
</g>
<!-- Node1&#45;&gt;Node2 -->
<g id="edge1_Node000001_Node000002" class="edge">
<title>Node1&#45;&gt;Node2</title>
<g id="a_edge1_Node000001_Node000002"><a xlink:title=" ">
<path fill="none" stroke="#63b8ff" d="M288.08,-75.92C276.89,-79.24 265.3,-82.67 254.43,-85.9"/>
<polygon fill="#63b8ff" stroke="#63b8ff" points="289.19,-79.24 297.79,-73.04 287.2,-72.53 289.19,-79.24"/>
</a>
</g>
</g>
<!-- Node5 -->
<g id="Node000005" class="node">
<title>Node5</title>
<g id="a_Node000005"><a xlink:href="structInteractiveTerminal.html#aa4d56fa8b2ff55eed67139e196fe0a62" target="_top" xlink:title=" ">
<path fill="#fff0f0" stroke="red" d="M101,-51C101,-51 10,-51 10,-51 5,-51 0,-46 0,-41 0,-41 0,-31 0,-31 0,-26 5,-21 10,-21 10,-21 101,-21 101,-21 106,-21 111,-26 111,-31 111,-31 111,-41 111,-41 111,-46 106,-51 101,-51"/>
<text text-anchor="start" x="8" y="-39" font-family="Helvetica,sans-Serif" font-size="10.00">InteractiveTerminal</text>
<text text-anchor="middle" x="55.5" y="-28" font-family="Helvetica,sans-Serif" font-size="10.00">::enable</text>
</a>
</g>
</g>
<!-- Node1&#45;&gt;Node5 -->
<g id="edge3_Node000001_Node000005" class="edge">
<title>Node1&#45;&gt;Node5</title>
<g id="a_edge3_Node000001_Node000005"><a xlink:title=" ">
<path fill="none" stroke="#63b8ff" d="M283.85,-53.13C232.08,-49.23 160.28,-43.82 111.31,-40.13"/>
<polygon fill="#63b8ff" stroke="#63b8ff" points="283.68,-56.63 293.92,-53.89 284.21,-49.65 283.68,-56.63"/>
</a>
</g>
</g>
<!-- Node8 -->
<g id="Node000008" class="node">
<title>Node8</title>
<g id="a_Node000008"><a xlink:href="structInteractiveTerminal.html#a5e1d392a4ef1e649558cf0b9d9978a40" target="_top" xlink:title=" ">
<path fill="#fff0f0" stroke="red" d="M248,-30C248,-30 157,-30 157,-30 152,-30 147,-25 147,-20 147,-20 147,-10 147,-10 147,-5 152,0 157,0 157,0 248,0 248,0 253,0 258,-5 258,-10 258,-10 258,-20 258,-20 258,-25 253,-30 248,-30"/>
<text text-anchor="start" x="155" y="-18" font-family="Helvetica,sans-Serif" font-size="10.00">InteractiveTerminal</text>
<text text-anchor="middle" x="202.5" y="-7" font-family="Helvetica,sans-Serif" font-size="10.00">::keyboardHandler</text>
</a>
</g>
</g>
<!-- Node1&#45;&gt;Node8 -->
<g id="edge4_Node000001_Node000008" class="edge">
<title>Node1&#45;&gt;Node8</title>
<g id="a_edge4_Node000001_Node000008"><a xlink:title=" ">
<path fill="none" stroke="#63b8ff" d="M288.08,-40.08C276.89,-36.76 265.3,-33.33 254.43,-30.1"/>
<polygon fill="#63b8ff" stroke="#63b8ff" points="287.2,-43.47 297.79,-42.96 289.19,-36.76 287.2,-43.47"/>
</a>
</g>
</g>
<!-- Node2&#45;&gt;Node2 -->
<g id="edge2_Node000002_Node000002" class="edge">
<title>Node2&#45;&gt;Node2</title>
<g id="a_edge2_Node000002_Node000002"><a xlink:title=" ">
<path fill="none" stroke="#63b8ff" d="M228.06,-126.6C224.56,-130.97 216.04,-134 202.5,-134 179.69,-134 171.13,-125.41 176.84,-116.28"/>
<polygon fill="#63b8ff" stroke="#63b8ff" points="231.56,-126.31 228.16,-116.28 224.56,-126.24 231.56,-126.31"/>
</a>
</g>
</g>
<!-- Node8&#45;&gt;Node5 -->
<g id="edge5_Node000008_Node000005" class="edge">
<title>Node8&#45;&gt;Node5</title>
<g id="a_edge5_Node000008_Node000005"><a xlink:title=" ">
<path fill="none" stroke="#63b8ff" d="M136.54,-24.41C128.14,-25.62 119.61,-26.86 111.4,-28.05"/>
<polygon fill="#63b8ff" stroke="#63b8ff" points="137.29,-27.84 146.68,-22.94 136.28,-20.91 137.29,-27.84"/>
</a>
</g>
</g>
</g>
</svg>
