<?xml version="1.0" encoding="UTF-8" standalone="no"?>
<!DOCTYPE svg PUBLIC "-//W3C//DTD SVG 1.1//EN"
 "http://www.w3.org/Graphics/SVG/1.1/DTD/svg11.dtd">
<!-- Generated by graphviz version 2.43.0 (0)
 -->
<!-- Title: RtcmDecoder::decodeEphemeris Pages: 1 -->
<svg width="541pt" height="641pt"
 viewBox="0.00 0.00 541.00 641.00" xmlns="http://www.w3.org/2000/svg" xmlns:xlink="http://www.w3.org/1999/xlink">
<g id="graph0" class="graph" transform="scale(1 1) rotate(0) translate(4 637)">
<title>RtcmDecoder::decodeEphemeris</title>
<!-- Node1 -->
<g id="Node000001" class="node">
<title>Node1</title>
<g id="a_Node000001"><a xlink:href="structRtcmDecoder.html#a424082e15bbf15120f1fc5f0635b01b9" target="_top" xlink:title="decode RTCM navigation messages">
<path fill="#fff0f0" stroke="red" stroke-width="2" d="M169.67,-391C169.67,-391 6.33,-391 6.33,-391 3.17,-391 0,-387.83 0,-384.67 0,-384.67 0,-378.33 0,-378.33 0,-375.17 3.17,-372 6.33,-372 6.33,-372 169.67,-372 169.67,-372 172.83,-372 176,-375.17 176,-378.33 176,-378.33 176,-384.67 176,-384.67 176,-387.83 172.83,-391 169.67,-391"/>
<text text-anchor="middle" x="88" y="-379" font-family="Helvetica,sans-Serif" font-size="10.00">RtcmDecoder::decodeEphemeris</text>
</a>
</g>
</g>
<!-- Node2 -->
<g id="Node000002" class="node">
<title>Node2</title>
<g id="a_Node000002"><a xlink:href="rtcmDecoder_8cpp.html#aaa6463f592ed6478626814466d3d02a5" target="_top" xlink:title="increasingly extract unsigned bits from byte data">
<path fill="#fff0f0" stroke="red" d="M312.67,-633C312.67,-633 260.33,-633 260.33,-633 257.17,-633 254,-629.83 254,-626.67 254,-626.67 254,-620.33 254,-620.33 254,-617.17 257.17,-614 260.33,-614 260.33,-614 312.67,-614 312.67,-614 315.83,-614 319,-617.17 319,-620.33 319,-620.33 319,-626.67 319,-626.67 319,-629.83 315.83,-633 312.67,-633"/>
<text text-anchor="middle" x="286.5" y="-621" font-family="Helvetica,sans-Serif" font-size="10.00">getbituInc</text>
</a>
</g>
</g>
<!-- Node1&#45;&gt;Node2 -->
<g id="edge1_Node000001_Node000002" class="edge">
<title>Node1&#45;&gt;Node2</title>
<g id="a_edge1_Node000001_Node000002"><a xlink:title=" ">
<path fill="none" stroke="#63b8ff" d="M92.33,-391.07C102.67,-425.39 138.08,-539.79 212,-596.5 222.02,-604.18 234.87,-608.64 247.02,-611.68"/>
<polygon fill="#63b8ff" stroke="#63b8ff" points="246.45,-615.14 256.98,-613.94 248,-608.31 246.45,-615.14"/>
</a>
</g>
</g>
<!-- Node1&#45;&gt;Node2 -->
<g id="edge2_Node000001_Node000002" class="edge">
<title>Node1&#45;&gt;Node2</title>
<g id="a_edge2_Node000001_Node000002"><a xlink:title=" ">
<path fill="none" stroke="#63b8ff" d="M90.59,-391.26C98.12,-427.88 133.15,-554.01 212,-614.5 221.1,-621.48 232.54,-625.79 243.66,-628.09"/>
<polygon fill="#63b8ff" stroke="#63b8ff" points="243.29,-631.57 253.71,-629.65 244.37,-624.66 243.29,-631.57"/>
</a>
</g>
</g>
<!-- Node4 -->
<g id="Node000004" class="node">
<title>Node4</title>
<g id="a_Node000004"><a xlink:href="structRtcmDecoder.html#a9a64ac779c6f793b094aeaab8c917dd1" target="_top" xlink:title="adjust GPS week number according to RTCM time">
<path fill="#fff0f0" stroke="red" d="M354.67,-596C354.67,-596 218.33,-596 218.33,-596 215.17,-596 212,-592.83 212,-589.67 212,-589.67 212,-583.33 212,-583.33 212,-580.17 215.17,-577 218.33,-577 218.33,-577 354.67,-577 354.67,-577 357.83,-577 361,-580.17 361,-583.33 361,-583.33 361,-589.67 361,-589.67 361,-592.83 357.83,-596 354.67,-596"/>
<text text-anchor="middle" x="286.5" y="-584" font-family="Helvetica,sans-Serif" font-size="10.00">RtcmDecoder::adjGpsWeek</text>
</a>
</g>
</g>
<!-- Node1&#45;&gt;Node4 -->
<g id="edge3_Node000001_Node000004" class="edge">
<title>Node1&#45;&gt;Node4</title>
<g id="a_edge3_Node000001_Node000004"><a xlink:title=" ">
<path fill="none" stroke="#63b8ff" d="M94.15,-391.41C107.58,-422.18 147.23,-513.79 212,-559.5 222.93,-567.21 236.78,-571.64 249.51,-574.73"/>
<polygon fill="#63b8ff" stroke="#63b8ff" points="248.88,-578.18 259.4,-576.97 250.42,-571.35 248.88,-578.18"/>
</a>
</g>
</g>
<!-- Node1&#45;&gt;Node4 -->
<g id="edge18_Node000001_Node000004" class="edge">
<title>Node1&#45;&gt;Node4</title>
<g id="a_edge18_Node000001_Node000004"><a xlink:title=" ">
<path fill="none" stroke="#63b8ff" d="M91.2,-391.02C100.41,-422.39 138.38,-519.73 204.16,-571.63"/>
<polygon fill="#63b8ff" stroke="#63b8ff" points="202.22,-574.55 212.32,-577.73 206.41,-568.94 202.22,-574.55"/>
</a>
</g>
</g>
<!-- Node5 -->
<g id="Node000005" class="node">
<title>Node5</title>
<g id="a_Node000005"><a xlink:href="structRtcmDecoder.html#af4dcc94b23423696a4e8025d8235a1b1" target="_top" xlink:title=" ">
<path fill="#fff0f0" stroke="red" d="M526.67,-475C526.67,-475 403.33,-475 403.33,-475 400.17,-475 397,-471.83 397,-468.67 397,-468.67 397,-462.33 397,-462.33 397,-459.17 400.17,-456 403.33,-456 403.33,-456 526.67,-456 526.67,-456 529.83,-456 533,-459.17 533,-462.33 533,-462.33 533,-468.67 533,-468.67 533,-471.83 529.83,-475 526.67,-475"/>
<text text-anchor="middle" x="465" y="-463" font-family="Helvetica,sans-Serif" font-size="10.00">RtcmDecoder::rtcmTime</text>
</a>
</g>
</g>
<!-- Node1&#45;&gt;Node5 -->
<g id="edge8_Node000001_Node000005" class="edge">
<title>Node1&#45;&gt;Node5</title>
<g id="a_edge8_Node000001_Node000005"><a xlink:title=" ">
<path fill="none" stroke="#63b8ff" d="M118.82,-391.03C143.13,-402.23 178.75,-419.34 212,-428.5 269.27,-444.29 336.19,-451.21 386.67,-455.55"/>
<polygon fill="#63b8ff" stroke="#63b8ff" points="386.6,-459.05 396.86,-456.41 387.19,-452.08 386.6,-459.05"/>
</a>
</g>
</g>
<!-- Node1&#45;&gt;Node5 -->
<g id="edge14_Node000001_Node000005" class="edge">
<title>Node1&#45;&gt;Node5</title>
<g id="a_edge14_Node000001_Node000005"><a xlink:title=" ">
<path fill="none" stroke="#63b8ff" d="M97.3,-391.05C116.64,-406.59 166.53,-433.97 212,-446.5 269.27,-462.29 336.19,-469.21 386.67,-470.91"/>
<polygon fill="#63b8ff" stroke="#63b8ff" points="386.77,-474.41 396.86,-471.19 386.96,-467.42 386.77,-474.41"/>
</a>
</g>
</g>
<!-- Node8 -->
<g id="Node000008" class="node">
<title>Node8</title>
<g id="a_Node000008"><a xlink:href="common_8cpp.html#a47b796248ca1aabdfc761d61bb878142" target="_top" xlink:title="URA index to URA value (m) GLOBAL POSITIONING SYSTEM STANDARD POSITIONING SERVICE SIGNAL SPECIFICATIO...">
<path fill="#fff0f0" stroke="red" d="M311.17,-559C311.17,-559 261.83,-559 261.83,-559 258.67,-559 255.5,-555.83 255.5,-552.67 255.5,-552.67 255.5,-546.33 255.5,-546.33 255.5,-543.17 258.67,-540 261.83,-540 261.83,-540 311.17,-540 311.17,-540 314.33,-540 317.5,-543.17 317.5,-546.33 317.5,-546.33 317.5,-552.67 317.5,-552.67 317.5,-555.83 314.33,-559 311.17,-559"/>
<text text-anchor="middle" x="286.5" y="-547" font-family="Helvetica,sans-Serif" font-size="10.00">svaToUra</text>
</a>
</g>
</g>
<!-- Node1&#45;&gt;Node8 -->
<g id="edge5_Node000001_Node000008" class="edge">
<title>Node1&#45;&gt;Node8</title>
<g id="a_edge5_Node000001_Node000008"><a xlink:title=" ">
<path fill="none" stroke="#63b8ff" d="M96.64,-391.2C113.29,-417.38 155.86,-487.14 212,-522.5 224.05,-530.09 239.07,-534.48 252.38,-537.7"/>
<polygon fill="#63b8ff" stroke="#63b8ff" points="251.62,-541.12 262.16,-539.97 253.21,-534.3 251.62,-541.12"/>
</a>
</g>
</g>
<!-- Node1&#45;&gt;Node8 -->
<g id="edge17_Node000001_Node000008" class="edge">
<title>Node1&#45;&gt;Node8</title>
<g id="a_edge17_Node000001_Node000008"><a xlink:title=" ">
<path fill="none" stroke="#63b8ff" d="M92.22,-391.29C104.36,-420.11 149.88,-501.37 212,-540.5 221.87,-546.72 233.74,-550.79 245.03,-553.08"/>
<polygon fill="#63b8ff" stroke="#63b8ff" points="244.74,-556.57 255.17,-554.69 245.84,-549.66 244.74,-556.57"/>
</a>
</g>
</g>
<!-- Node9 -->
<g id="Node000009" class="node">
<title>Node9</title>
<g id="a_Node000009"><a xlink:href="rtcmDecoder_8cpp.html#a8f81fd7eaa74dfc180469d0accafb183" target="_top" xlink:title="increasingly extract signed bits from byte data">
<path fill="#fff0f0" stroke="red" d="M312.67,-522C312.67,-522 260.33,-522 260.33,-522 257.17,-522 254,-518.83 254,-515.67 254,-515.67 254,-509.33 254,-509.33 254,-506.17 257.17,-503 260.33,-503 260.33,-503 312.67,-503 312.67,-503 315.83,-503 319,-506.17 319,-509.33 319,-509.33 319,-515.67 319,-515.67 319,-518.83 315.83,-522 312.67,-522"/>
<text text-anchor="middle" x="286.5" y="-510" font-family="Helvetica,sans-Serif" font-size="10.00">getbitsInc</text>
</a>
</g>
</g>
<!-- Node1&#45;&gt;Node9 -->
<g id="edge6_Node000001_Node000009" class="edge">
<title>Node1&#45;&gt;Node9</title>
<g id="a_edge6_Node000001_Node000009"><a xlink:title=" ">
<path fill="none" stroke="#63b8ff" d="M102.66,-391.02C123.93,-410.73 167.19,-454.09 212,-479.5 227.46,-488.27 246.6,-494.39 261.47,-499.5"/>
<polygon fill="#63b8ff" stroke="#63b8ff" points="260.39,-502.83 270.98,-502.9 262.74,-496.24 260.39,-502.83"/>
</a>
</g>
</g>
<!-- Node1&#45;&gt;Node9 -->
<g id="edge7_Node000001_Node000009" class="edge">
<title>Node1&#45;&gt;Node9</title>
<g id="a_edge7_Node000001_Node000009"><a xlink:title=" ">
<path fill="none" stroke="#63b8ff" d="M94.03,-391.16C109.7,-413.95 159.8,-467.91 212,-497.5 221.92,-503.13 233.36,-507.66 244.21,-510.88"/>
<polygon fill="#63b8ff" stroke="#63b8ff" points="243.38,-514.28 253.95,-513.46 245.18,-507.52 243.38,-514.28"/>
</a>
</g>
</g>
<!-- Node11 -->
<g id="Node000011" class="node">
<title>Node11</title>
<g id="a_Node000011"><a xlink:href="biases_8cpp.html#a4189b53abc056c39f46bd56d0032b546" target="_top" xlink:title="Convert GPS/QZS TGD into OSBs &amp; DSB.">
<path fill="#fff0f0" stroke="red" d="M337.67,-428C337.67,-428 235.33,-428 235.33,-428 232.17,-428 229,-424.83 229,-421.67 229,-421.67 229,-415.33 229,-415.33 229,-412.17 232.17,-409 235.33,-409 235.33,-409 337.67,-409 337.67,-409 340.83,-409 344,-412.17 344,-415.33 344,-415.33 344,-421.67 344,-421.67 344,-424.83 340.83,-428 337.67,-428"/>
<text text-anchor="middle" x="286.5" y="-416" font-family="Helvetica,sans-Serif" font-size="10.00">decomposeTGDBias</text>
</a>
</g>
</g>
<!-- Node1&#45;&gt;Node11 -->
<g id="edge9_Node000001_Node000011" class="edge">
<title>Node1&#45;&gt;Node11</title>
<g id="a_edge9_Node000001_Node000011"><a xlink:title=" ">
<path fill="none" stroke="#63b8ff" d="M175.19,-391.02C201.6,-395.8 229.18,-401.45 250.17,-406.52"/>
<polygon fill="#63b8ff" stroke="#63b8ff" points="249.35,-409.92 259.9,-408.95 251.05,-403.13 249.35,-409.92"/>
</a>
</g>
</g>
<!-- Node1&#45;&gt;Node11 -->
<g id="edge19_Node000001_Node000011" class="edge">
<title>Node1&#45;&gt;Node11</title>
<g id="a_edge19_Node000001_Node000011"><a xlink:title=" ">
<path fill="none" stroke="#63b8ff" d="M114.69,-391.07C141.03,-397.91 183.09,-406.4 218.88,-412.38"/>
<polygon fill="#63b8ff" stroke="#63b8ff" points="218.36,-415.85 228.79,-414 219.49,-408.94 218.36,-415.85"/>
</a>
</g>
</g>
<!-- Node12 -->
<g id="Node000012" class="node">
<title>Node12</title>
<g id="a_Node000012"><a xlink:href="structSatSys.html#aec6d07b90d1e8172b8b6a6966abef4fd" target="_top" xlink:title="Returns a std::string of this satellite&#39;s id.">
<path fill="#fff0f0" stroke="red" d="M491.17,-243C491.17,-243 438.83,-243 438.83,-243 435.67,-243 432.5,-239.83 432.5,-236.67 432.5,-236.67 432.5,-230.33 432.5,-230.33 432.5,-227.17 435.67,-224 438.83,-224 438.83,-224 491.17,-224 491.17,-224 494.33,-224 497.5,-227.17 497.5,-230.33 497.5,-230.33 497.5,-236.67 497.5,-236.67 497.5,-239.83 494.33,-243 491.17,-243"/>
<text text-anchor="middle" x="465" y="-231" font-family="Helvetica,sans-Serif" font-size="10.00">SatSys::id</text>
</a>
</g>
</g>
<!-- Node1&#45;&gt;Node12 -->
<g id="edge26_Node000001_Node000012" class="edge">
<title>Node1&#45;&gt;Node12</title>
<g id="a_edge26_Node000001_Node000012"><a xlink:title=" ">
<path fill="none" stroke="#63b8ff" d="M90.52,-371.93C97.72,-336.25 131.58,-214.8 212,-169.5 269.7,-137 296.76,-153.42 361,-169.5 395.45,-178.12 430.98,-200.7 449.98,-216.98"/>
<polygon fill="#63b8ff" stroke="#63b8ff" points="447.78,-219.7 457.49,-223.94 452.54,-214.57 447.78,-219.7"/>
</a>
</g>
</g>
<!-- Node1&#45;&gt;Node12 -->
<g id="edge32_Node000001_Node000012" class="edge">
<title>Node1&#45;&gt;Node12</title>
<g id="a_edge32_Node000001_Node000012"><a xlink:title=" ">
<path fill="none" stroke="#63b8ff" d="M92.33,-371.86C102.47,-338.32 136.96,-229.77 212,-187.5 269.7,-155 296.76,-171.42 361,-187.5 386.3,-193.83 412.17,-207.68 431.66,-218.76"/>
<polygon fill="#63b8ff" stroke="#63b8ff" points="430,-221.84 440.42,-223.78 433.48,-215.77 430,-221.84"/>
</a>
</g>
</g>
<!-- Node17 -->
<g id="Node000017" class="node">
<title>Node17</title>
<g id="a_Node000017"><a xlink:href="rtcmDecoder_8cpp.html#a33beca135638237503bffc4badf8fb94" target="_top" xlink:title="increasingly extract sign&#45;magnitude bits applied in GLO nav messages from byte data">
<path fill="#fff0f0" stroke="red" d="M312.67,-391C312.67,-391 260.33,-391 260.33,-391 257.17,-391 254,-387.83 254,-384.67 254,-384.67 254,-378.33 254,-378.33 254,-375.17 257.17,-372 260.33,-372 260.33,-372 312.67,-372 312.67,-372 315.83,-372 319,-375.17 319,-378.33 319,-378.33 319,-384.67 319,-384.67 319,-387.83 315.83,-391 312.67,-391"/>
<text text-anchor="middle" x="286.5" y="-379" font-family="Helvetica,sans-Serif" font-size="10.00">getbitgInc</text>
</a>
</g>
</g>
<!-- Node1&#45;&gt;Node17 -->
<g id="edge12_Node000001_Node000017" class="edge">
<title>Node1&#45;&gt;Node17</title>
<g id="a_edge12_Node000001_Node000017"><a xlink:title=" ">
<path fill="none" stroke="#63b8ff" d="M176.05,-374.79C199.54,-374.62 223.9,-374.98 243.66,-375.86"/>
<polygon fill="#63b8ff" stroke="#63b8ff" points="243.67,-379.36 253.83,-376.38 244.03,-372.37 243.67,-379.36"/>
</a>
</g>
</g>
<!-- Node1&#45;&gt;Node17 -->
<g id="edge13_Node000001_Node000017" class="edge">
<title>Node1&#45;&gt;Node17</title>
<g id="a_edge13_Node000001_Node000017"><a xlink:title=" ">
<path fill="none" stroke="#63b8ff" d="M176.05,-388.21C199.54,-388.38 223.9,-388.02 243.66,-387.14"/>
<polygon fill="#63b8ff" stroke="#63b8ff" points="244.03,-390.63 253.83,-386.62 243.67,-383.64 244.03,-390.63"/>
</a>
</g>
</g>
<!-- Node19 -->
<g id="Node000019" class="node">
<title>Node19</title>
<g id="a_Node000019"><a xlink:href="structRtcmDecoder.html#a9793312f3999d7f59d79ca5cbba95797" target="_top" xlink:title="adjust BDT week number according to RTCM time">
<path fill="#fff0f0" stroke="red" d="M353.67,-354C353.67,-354 219.33,-354 219.33,-354 216.17,-354 213,-350.83 213,-347.67 213,-347.67 213,-341.33 213,-341.33 213,-338.17 216.17,-335 219.33,-335 219.33,-335 353.67,-335 353.67,-335 356.83,-335 360,-338.17 360,-341.33 360,-341.33 360,-347.67 360,-347.67 360,-350.83 356.83,-354 353.67,-354"/>
<text text-anchor="middle" x="286.5" y="-342" font-family="Helvetica,sans-Serif" font-size="10.00">RtcmDecoder::adjBdtWeek</text>
</a>
</g>
</g>
<!-- Node1&#45;&gt;Node19 -->
<g id="edge15_Node000001_Node000019" class="edge">
<title>Node1&#45;&gt;Node19</title>
<g id="a_edge15_Node000001_Node000019"><a xlink:title=" ">
<path fill="none" stroke="#63b8ff" d="M139.6,-371.97C165.63,-367.07 197.55,-361.06 224.88,-355.91"/>
<polygon fill="#63b8ff" stroke="#63b8ff" points="225.55,-359.35 234.73,-354.06 224.25,-352.47 225.55,-359.35"/>
</a>
</g>
</g>
<!-- Node20 -->
<g id="Node000020" class="node">
<title>Node20</title>
<g id="a_Node000020"><a xlink:href="structRtcmDecoder.html#a3f27b2fcee11a1266301ca9abec7d70d" target="_top" xlink:title="adjust GST week number according to RTCM time">
<path fill="#fff0f0" stroke="red" d="M353.67,-317C353.67,-317 219.33,-317 219.33,-317 216.17,-317 213,-313.83 213,-310.67 213,-310.67 213,-304.33 213,-304.33 213,-301.17 216.17,-298 219.33,-298 219.33,-298 353.67,-298 353.67,-298 356.83,-298 360,-301.17 360,-304.33 360,-304.33 360,-310.67 360,-310.67 360,-313.83 356.83,-317 353.67,-317"/>
<text text-anchor="middle" x="286.5" y="-305" font-family="Helvetica,sans-Serif" font-size="10.00">RtcmDecoder::adjGstWeek</text>
</a>
</g>
</g>
<!-- Node1&#45;&gt;Node20 -->
<g id="edge20_Node000001_Node000020" class="edge">
<title>Node1&#45;&gt;Node20</title>
<g id="a_edge20_Node000001_Node000020"><a xlink:title=" ">
<path fill="none" stroke="#63b8ff" d="M107.77,-371.91C131.56,-360.05 174.03,-339.79 212,-326.5 218.93,-324.08 226.32,-321.81 233.64,-319.74"/>
<polygon fill="#63b8ff" stroke="#63b8ff" points="234.81,-323.05 243.54,-317.05 232.98,-316.29 234.81,-323.05"/>
</a>
</g>
</g>
<!-- Node21 -->
<g id="Node000021" class="node">
<title>Node21</title>
<g id="a_Node000021"><a xlink:href="common_8cpp.html#a3e64e6b27352f5d683cfbfd28e9bc69a" target="_top" xlink:title="Galileo SISA index to SISA value (m) EUROPEAN GNSS (GALILEO) OPEN SERVICE SIGNAL&#45;IN&#45;SPACE INTERFACE C...">
<path fill="#fff0f0" stroke="red" d="M312.67,-280C312.67,-280 260.33,-280 260.33,-280 257.17,-280 254,-276.83 254,-273.67 254,-273.67 254,-267.33 254,-267.33 254,-264.17 257.17,-261 260.33,-261 260.33,-261 312.67,-261 312.67,-261 315.83,-261 319,-264.17 319,-267.33 319,-267.33 319,-273.67 319,-273.67 319,-276.83 315.83,-280 312.67,-280"/>
<text text-anchor="middle" x="286.5" y="-268" font-family="Helvetica,sans-Serif" font-size="10.00">svaToSisa</text>
</a>
</g>
</g>
<!-- Node1&#45;&gt;Node21 -->
<g id="edge22_Node000001_Node000021" class="edge">
<title>Node1&#45;&gt;Node21</title>
<g id="a_edge22_Node000001_Node000021"><a xlink:title=" ">
<path fill="none" stroke="#63b8ff" d="M98.94,-371.86C118.77,-353.18 165.36,-311.89 212,-289.5 221.9,-284.75 233.15,-281.07 243.82,-278.28"/>
<polygon fill="#63b8ff" stroke="#63b8ff" points="244.9,-281.62 253.8,-275.87 243.26,-274.81 244.9,-281.62"/>
</a>
</g>
</g>
<!-- Node22 -->
<g id="Node000022" class="node">
<title>Node22</title>
<g id="a_Node000022"><a xlink:href="biases_8cpp.html#a063ba8fe35a80404ea27345b60592828" target="_top" xlink:title="Convert GAL BGDs into OSBs &amp; DSB.">
<path fill="#fff0f0" stroke="red" d="M338.17,-243C338.17,-243 234.83,-243 234.83,-243 231.67,-243 228.5,-239.83 228.5,-236.67 228.5,-236.67 228.5,-230.33 228.5,-230.33 228.5,-227.17 231.67,-224 234.83,-224 234.83,-224 338.17,-224 338.17,-224 341.33,-224 344.5,-227.17 344.5,-230.33 344.5,-230.33 344.5,-236.67 344.5,-236.67 344.5,-239.83 341.33,-243 338.17,-243"/>
<text text-anchor="middle" x="286.5" y="-231" font-family="Helvetica,sans-Serif" font-size="10.00">decomposeBGDBias</text>
</a>
</g>
</g>
<!-- Node1&#45;&gt;Node22 -->
<g id="edge23_Node000001_Node000022" class="edge">
<title>Node1&#45;&gt;Node22</title>
<g id="a_edge23_Node000001_Node000022"><a xlink:title=" ">
<path fill="none" stroke="#63b8ff" d="M95.43,-371.65C111.78,-347.4 157.57,-284.47 212,-252.5 215.71,-250.32 219.66,-248.39 223.75,-246.68"/>
<polygon fill="#63b8ff" stroke="#63b8ff" points="225.29,-249.84 233.44,-243.07 222.85,-243.28 225.29,-249.84"/>
</a>
</g>
</g>
<!-- Node23 -->
<g id="Node000023" class="node">
<title>Node23</title>
<g id="a_Node000023"><a xlink:href="trace_8hpp.html#a2d64b4f1eca5df0579a517a3dbd3dbc6" target="_top" xlink:title=" ">
<path fill="#fff0f0" stroke="red" d="M331.17,-206C331.17,-206 241.83,-206 241.83,-206 238.67,-206 235.5,-202.83 235.5,-199.67 235.5,-199.67 235.5,-193.33 235.5,-193.33 235.5,-190.17 238.67,-187 241.83,-187 241.83,-187 331.17,-187 331.17,-187 334.33,-187 337.5,-190.17 337.5,-193.33 337.5,-193.33 337.5,-199.67 337.5,-199.67 337.5,-202.83 334.33,-206 331.17,-206"/>
<text text-anchor="middle" x="286.5" y="-194" font-family="Helvetica,sans-Serif" font-size="10.00">traceTrivialDebug</text>
</a>
</g>
</g>
<!-- Node1&#45;&gt;Node23 -->
<g id="edge25_Node000001_Node000023" class="edge">
<title>Node1&#45;&gt;Node23</title>
<g id="a_edge25_Node000001_Node000023"><a xlink:title=" ">
<path fill="none" stroke="#63b8ff" d="M91.73,-371.9C102.76,-341.5 146.56,-250.6 212,-206.5 216.26,-203.63 220.93,-201.19 225.79,-199.15"/>
<polygon fill="#63b8ff" stroke="#63b8ff" points="227.07,-202.41 235.29,-195.72 224.69,-195.82 227.07,-202.41"/>
</a>
</g>
</g>
<!-- Node1&#45;&gt;Node23 -->
<g id="edge31_Node000001_Node000023" class="edge">
<title>Node1&#45;&gt;Node23</title>
<g id="a_edge31_Node000001_Node000023"><a xlink:title=" ">
<path fill="none" stroke="#63b8ff" d="M95.54,-371.61C110.9,-343.36 152.51,-264.59 212,-224.5 224.02,-216.4 239.27,-211.75 252.77,-208.37"/>
<polygon fill="#63b8ff" stroke="#63b8ff" points="253.75,-211.74 262.66,-206 252.12,-204.93 253.75,-211.74"/>
</a>
</g>
</g>
<!-- Node24 -->
<g id="Node000024" class="node">
<title>Node24</title>
<g id="a_Node000024"><a xlink:href="structGTime.html#a98fdbaaec5a132a7e694f28b4f1907cb" target="_top" xlink:title=" ">
<path fill="#fff0f0" stroke="red" d="M507.67,-80C507.67,-80 422.33,-80 422.33,-80 419.17,-80 416,-76.83 416,-73.67 416,-73.67 416,-67.33 416,-67.33 416,-64.17 419.17,-61 422.33,-61 422.33,-61 507.67,-61 507.67,-61 510.83,-61 514,-64.17 514,-67.33 514,-67.33 514,-73.67 514,-73.67 514,-76.83 510.83,-80 507.67,-80"/>
<text text-anchor="middle" x="465" y="-68" font-family="Helvetica,sans-Serif" font-size="10.00">GTime::to_string</text>
</a>
</g>
</g>
<!-- Node1&#45;&gt;Node24 -->
<g id="edge27_Node000001_Node000024" class="edge">
<title>Node1&#45;&gt;Node24</title>
<g id="a_edge27_Node000001_Node000024"><a xlink:title=" ">
<path fill="none" stroke="#63b8ff" d="M90.69,-371.84C98.68,-335.62 135.39,-210.87 212,-146.5 267.74,-99.66 350.42,-78.27 405.71,-70.86"/>
<polygon fill="#63b8ff" stroke="#63b8ff" points="406.2,-74.33 415.7,-69.63 405.35,-67.38 406.2,-74.33"/>
</a>
</g>
</g>
<!-- Node1&#45;&gt;Node24 -->
<g id="edge33_Node000001_Node000024" class="edge">
<title>Node1&#45;&gt;Node24</title>
<g id="a_edge33_Node000001_Node000024"><a xlink:title=" ">
<path fill="none" stroke="#63b8ff" d="M92.69,-371.62C103.77,-337.19 140.52,-224.56 212,-164.5 272.27,-113.85 364.05,-92.96 418.63,-82"/>
<polygon fill="#63b8ff" stroke="#63b8ff" points="419.57,-85.38 428.7,-80 418.21,-78.52 419.57,-85.38"/>
</a>
</g>
</g>
<!-- Node25 -->
<g id="Node000025" class="node">
<title>Node25</title>
<g id="a_Node000025"><a xlink:href="structRtcmTrace.html#a7988263389150711e951a4df5f1dcdd1" target="_top" xlink:title="Write decoded/encoded GPS/GAL/BDS/QZS ephemeris messages to a json file.">
<path fill="#fff0f0" stroke="red" d="M349.17,-56C349.17,-56 223.83,-56 223.83,-56 220.67,-56 217.5,-52.83 217.5,-49.67 217.5,-49.67 217.5,-43.33 217.5,-43.33 217.5,-40.17 220.67,-37 223.83,-37 223.83,-37 349.17,-37 349.17,-37 352.33,-37 355.5,-40.17 355.5,-43.33 355.5,-43.33 355.5,-49.67 355.5,-49.67 355.5,-52.83 352.33,-56 349.17,-56"/>
<text text-anchor="middle" x="286.5" y="-44" font-family="Helvetica,sans-Serif" font-size="10.00">RtcmTrace::traceBrdcEph</text>
</a>
</g>
</g>
<!-- Node1&#45;&gt;Node25 -->
<g id="edge28_Node000001_Node000025" class="edge">
<title>Node1&#45;&gt;Node25</title>
<g id="a_edge28_Node000001_Node000025"><a xlink:title=" ">
<path fill="none" stroke="#63b8ff" d="M89.63,-371.77C93.25,-329.1 114.51,-160.72 211.19,-63.34"/>
<polygon fill="#63b8ff" stroke="#63b8ff" points="213.85,-65.64 218.59,-56.16 208.98,-60.61 213.85,-65.64"/>
</a>
</g>
</g>
<!-- Node1&#45;&gt;Node25 -->
<g id="edge34_Node000001_Node000025" class="edge">
<title>Node1&#45;&gt;Node25</title>
<g id="a_edge34_Node000001_Node000025"><a xlink:title=" ">
<path fill="none" stroke="#63b8ff" d="M90.27,-371.87C95.55,-330.02 120.02,-166.03 212,-79.5 223.33,-68.84 239.46,-62.92 253.73,-58.79"/>
<polygon fill="#63b8ff" stroke="#63b8ff" points="254.97,-62.07 263.69,-56.05 253.12,-55.32 254.97,-62.07"/>
</a>
</g>
</g>
<!-- Node27 -->
<g id="Node000027" class="node">
<title>Node27</title>
<g id="a_Node000027"><a xlink:href="structRtcmTrace.html#ad992e657cb98f1cd8eb87eaf2d11f912" target="_top" xlink:title="Write unknown message to a json file.">
<path fill="#fff0f0" stroke="red" d="M352.17,-19C352.17,-19 220.83,-19 220.83,-19 217.67,-19 214.5,-15.83 214.5,-12.67 214.5,-12.67 214.5,-6.33 214.5,-6.33 214.5,-3.17 217.67,0 220.83,0 220.83,0 352.17,0 352.17,0 355.33,0 358.5,-3.17 358.5,-6.33 358.5,-6.33 358.5,-12.67 358.5,-12.67 358.5,-15.83 355.33,-19 352.17,-19"/>
<text text-anchor="middle" x="286.5" y="-7" font-family="Helvetica,sans-Serif" font-size="10.00">RtcmTrace::traceUnknown</text>
</a>
</g>
</g>
<!-- Node1&#45;&gt;Node27 -->
<g id="edge35_Node000001_Node000027" class="edge">
<title>Node1&#45;&gt;Node27</title>
<g id="a_edge35_Node000001_Node000027"><a xlink:title=" ">
<path fill="none" stroke="#63b8ff" d="M89.2,-371.83C90.71,-325.7 103.48,-126.24 212,-27.5 213.15,-26.45 214.36,-25.46 215.61,-24.52"/>
<polygon fill="#63b8ff" stroke="#63b8ff" points="217.72,-27.33 224.41,-19.12 214.06,-21.37 217.72,-27.33"/>
</a>
</g>
</g>
<!-- Node4&#45;&gt;Node5 -->
<g id="edge4_Node000004_Node000005" class="edge">
<title>Node4&#45;&gt;Node5</title>
<g id="a_edge4_Node000004_Node000005"><a xlink:title=" ">
<path fill="none" stroke="#63b8ff" d="M341.41,-576.94C348.23,-574.69 354.93,-571.92 361,-568.5 399.52,-546.81 433.46,-506.72 451.11,-483.47"/>
<polygon fill="#63b8ff" stroke="#63b8ff" points="454.11,-485.3 457.25,-475.18 448.49,-481.13 454.11,-485.3"/>
</a>
</g>
</g>
<!-- Node11&#45;&gt;Node12 -->
<g id="edge10_Node000011_Node000012" class="edge">
<title>Node11&#45;&gt;Node12</title>
<g id="a_edge10_Node000011_Node000012"><a xlink:title=" ">
<path fill="none" stroke="#63b8ff" d="M314.4,-408.97C329.32,-405.82 347.51,-401.32 361,-391.5 410.95,-355.14 441.82,-286.48 455.58,-252.73"/>
<polygon fill="#63b8ff" stroke="#63b8ff" points="458.97,-253.67 459.45,-243.09 452.48,-251.07 458.97,-253.67"/>
</a>
</g>
</g>
<!-- Node11&#45;&gt;Node12 -->
<g id="edge11_Node000011_Node000012" class="edge">
<title>Node11&#45;&gt;Node12</title>
<g id="a_edge11_Node000011_Node000012"><a xlink:title=" ">
<path fill="none" stroke="#63b8ff" d="M344.12,-418.45C350.13,-416.16 355.9,-413.21 361,-409.5 416.15,-369.36 448.04,-289.85 459.32,-252.8"/>
<polygon fill="#63b8ff" stroke="#63b8ff" points="462.69,-253.73 462.06,-243.15 455.96,-251.81 462.69,-253.73"/>
</a>
</g>
</g>
<!-- Node19&#45;&gt;Node5 -->
<g id="edge16_Node000019_Node000005" class="edge">
<title>Node19&#45;&gt;Node5</title>
<g id="a_edge16_Node000019_Node000005"><a xlink:title=" ">
<path fill="none" stroke="#63b8ff" d="M339.08,-354.11C346.69,-356.58 354.24,-359.66 361,-363.5 399.25,-385.23 433.28,-424.84 451.03,-447.78"/>
<polygon fill="#63b8ff" stroke="#63b8ff" points="448.38,-450.09 457.21,-455.96 453.97,-445.87 448.38,-450.09"/>
</a>
</g>
</g>
<!-- Node20&#45;&gt;Node5 -->
<g id="edge21_Node000020_Node000005" class="edge">
<title>Node20&#45;&gt;Node5</title>
<g id="a_edge21_Node000020_Node000005"><a xlink:title=" ">
<path fill="none" stroke="#63b8ff" d="M341.93,-317.03C348.66,-319.49 355.21,-322.6 361,-326.5 407.12,-357.58 440.41,-416.42 455.3,-446.6"/>
<polygon fill="#63b8ff" stroke="#63b8ff" points="452.32,-448.48 459.79,-455.99 458.63,-445.46 452.32,-448.48"/>
</a>
</g>
</g>
<!-- Node22&#45;&gt;Node12 -->
<g id="edge24_Node000022_Node000012" class="edge">
<title>Node22&#45;&gt;Node12</title>
<g id="a_edge24_Node000022_Node000012"><a xlink:title=" ">
<path fill="none" stroke="#63b8ff" d="M344.8,-233.5C370.03,-233.5 399.12,-233.5 422.25,-233.5"/>
<polygon fill="#63b8ff" stroke="#63b8ff" points="422.42,-237 432.42,-233.5 422.42,-230 422.42,-237"/>
</a>
</g>
</g>
<!-- Node25&#45;&gt;Node24 -->
<g id="edge29_Node000025_Node000024" class="edge">
<title>Node25&#45;&gt;Node24</title>
<g id="a_edge29_Node000025_Node000024"><a xlink:title=" ">
<path fill="none" stroke="#63b8ff" d="M355.74,-49.19C378.37,-51.9 402.86,-55.49 422.81,-59.09"/>
<polygon fill="#63b8ff" stroke="#63b8ff" points="422.33,-62.56 432.8,-60.96 423.62,-55.68 422.33,-62.56"/>
</a>
</g>
</g>
<!-- Node25&#45;&gt;Node24 -->
<g id="edge30_Node000025_Node000024" class="edge">
<title>Node25&#45;&gt;Node24</title>
<g id="a_edge30_Node000025_Node000024"><a xlink:title=" ">
<path fill="none" stroke="#63b8ff" d="M318.65,-56.03C342.73,-60.76 376.75,-65.75 405.82,-68.98"/>
<polygon fill="#63b8ff" stroke="#63b8ff" points="405.56,-72.47 415.87,-70.04 406.3,-65.51 405.56,-72.47"/>
</a>
</g>
</g>
</g>
</svg>
