<?xml version="1.0" encoding="UTF-8" standalone="no"?>
<!DOCTYPE svg PUBLIC "-//W3C//DTD SVG 1.1//EN"
 "http://www.w3.org/Graphics/SVG/1.1/DTD/svg11.dtd">
<!-- Generated by graphviz version 2.43.0 (0)
 -->
<!-- Title: SatSys::blockType Pages: 1 -->
<svg width="478pt" height="103pt"
 viewBox="0.00 0.00 478.00 103.00" xmlns="http://www.w3.org/2000/svg" xmlns:xlink="http://www.w3.org/1999/xlink">
<g id="graph0" class="graph" transform="scale(1 1) rotate(0) translate(4 99)">
<title>SatSys::blockType</title>
<!-- Node1 -->
<g id="Node000001" class="node">
<title>Node1</title>
<g id="a_Node000001"><a xlink:href="structSatSys.html#a01de9e9cee76346f43550516bba9558e" target="_top" xlink:title=" ">
<path fill="#fff0f0" stroke="red" stroke-width="2" d="M463.67,-57C463.67,-57 372.33,-57 372.33,-57 369.17,-57 366,-53.83 366,-50.67 366,-50.67 366,-44.33 366,-44.33 366,-41.17 369.17,-38 372.33,-38 372.33,-38 463.67,-38 463.67,-38 466.83,-38 470,-41.17 470,-44.33 470,-44.33 470,-50.67 470,-50.67 470,-53.83 466.83,-57 463.67,-57"/>
<text text-anchor="middle" x="418" y="-45" font-family="Helvetica,sans-Serif" font-size="10.00">SatSys::blockType</text>
</a>
</g>
</g>
<!-- Node2 -->
<g id="Node000002" class="node">
<title>Node2</title>
<g id="a_Node000002"><a xlink:href="structACSConfig.html#a20ca3689eafecfa2b7e656c28e340256" target="_top" xlink:title="Set satellite options for a specific satellite using a hierarchy of sources.">
<path fill="#fff0f0" stroke="red" d="M323.67,-95C323.67,-95 209.33,-95 209.33,-95 206.17,-95 203,-91.83 203,-88.67 203,-88.67 203,-82.33 203,-82.33 203,-79.17 206.17,-76 209.33,-76 209.33,-76 323.67,-76 323.67,-76 326.83,-76 330,-79.17 330,-82.33 330,-82.33 330,-88.67 330,-88.67 330,-91.83 326.83,-95 323.67,-95"/>
<text text-anchor="middle" x="266.5" y="-83" font-family="Helvetica,sans-Serif" font-size="10.00">ACSConfig::getSatOpts</text>
</a>
</g>
</g>
<!-- Node1&#45;&gt;Node2 -->
<g id="edge1_Node000001_Node000002" class="edge">
<title>Node1&#45;&gt;Node2</title>
<g id="a_edge1_Node000001_Node000002"><a xlink:title=" ">
<path fill="none" stroke="#63b8ff" d="M369.35,-59.61C348.53,-64.9 324.46,-71.02 304.95,-75.98"/>
<polygon fill="#63b8ff" stroke="#63b8ff" points="370.45,-62.94 379.27,-57.09 368.72,-56.16 370.45,-62.94"/>
</a>
</g>
</g>
<!-- Node17 -->
<g id="Node000017" class="node">
<title>Node17</title>
<g id="a_Node000017"><a xlink:href="main_8cpp.html#a79eb17a8eaafbf1dde7569cb7eae3b7e" target="_top" xlink:title=" ">
<path fill="#fff0f0" stroke="red" d="M160.67,-57C160.67,-57 6.33,-57 6.33,-57 3.17,-57 0,-53.83 0,-50.67 0,-50.67 0,-44.33 0,-44.33 0,-41.17 3.17,-38 6.33,-38 6.33,-38 160.67,-38 160.67,-38 163.83,-38 167,-41.17 167,-44.33 167,-44.33 167,-50.67 167,-50.67 167,-53.83 163.83,-57 160.67,-57"/>
<text text-anchor="middle" x="83.5" y="-45" font-family="Helvetica,sans-Serif" font-size="10.00">mainOncePerEpochPerSatellite</text>
</a>
</g>
</g>
<!-- Node1&#45;&gt;Node17 -->
<g id="edge3_Node000001_Node000017" class="edge">
<title>Node1&#45;&gt;Node17</title>
<g id="a_edge3_Node000001_Node000017"><a xlink:title=" ">
<path fill="none" stroke="#63b8ff" d="M355.51,-47.5C302.51,-47.5 225.55,-47.5 167.17,-47.5"/>
<polygon fill="#63b8ff" stroke="#63b8ff" points="355.78,-51 365.78,-47.5 355.78,-44 355.78,-51"/>
</a>
</g>
</g>
<!-- Node62 -->
<g id="Node000062" class="node">
<title>Node62</title>
<g id="a_Node000062"><a xlink:href="structSatSys.html#aa2f7732319c19c6aa872606483a9c471" target="_top" xlink:title=" ">
<path fill="#fff0f0" stroke="red" d="M320.17,-19C320.17,-19 212.83,-19 212.83,-19 209.67,-19 206.5,-15.83 206.5,-12.67 206.5,-12.67 206.5,-6.33 206.5,-6.33 206.5,-3.17 209.67,0 212.83,0 212.83,0 320.17,0 320.17,0 323.33,0 326.5,-3.17 326.5,-6.33 326.5,-6.33 326.5,-12.67 326.5,-12.67 326.5,-15.83 323.33,-19 320.17,-19"/>
<text text-anchor="middle" x="266.5" y="-7" font-family="Helvetica,sans-Serif" font-size="10.00">SatSys::setBlockType</text>
</a>
</g>
</g>
<!-- Node1&#45;&gt;Node62 -->
<g id="edge4_Node000001_Node000062" class="edge">
<title>Node1&#45;&gt;Node62</title>
<g id="a_edge4_Node000001_Node000062"><a xlink:title=" ">
<path fill="none" stroke="#63b8ff" d="M369.35,-35.39C348.53,-30.1 324.46,-23.98 304.95,-19.02"/>
<polygon fill="#63b8ff" stroke="#63b8ff" points="368.72,-38.84 379.27,-37.91 370.45,-32.06 368.72,-38.84"/>
</a>
</g>
</g>
<!-- Node2&#45;&gt;Node17 -->
<g id="edge2_Node000002_Node000017" class="edge">
<title>Node2&#45;&gt;Node17</title>
<g id="a_edge2_Node000002_Node000017"><a xlink:title=" ">
<path fill="none" stroke="#63b8ff" d="M209.86,-73.82C184.19,-68.43 154.11,-62.11 129.85,-57.02"/>
<polygon fill="#63b8ff" stroke="#63b8ff" points="209.32,-77.28 219.83,-75.91 210.76,-70.43 209.32,-77.28"/>
</a>
</g>
</g>
<!-- Node62&#45;&gt;Node17 -->
<g id="edge5_Node000062_Node000017" class="edge">
<title>Node62&#45;&gt;Node17</title>
<g id="a_edge5_Node000062_Node000017"><a xlink:title=" ">
<path fill="none" stroke="#63b8ff" d="M209.86,-21.18C184.19,-26.57 154.11,-32.89 129.85,-37.98"/>
<polygon fill="#63b8ff" stroke="#63b8ff" points="210.76,-24.57 219.83,-19.09 209.32,-17.72 210.76,-24.57"/>
</a>
</g>
</g>
</g>
</svg>
