<?xml version="1.0" encoding="UTF-8" standalone="no"?>
<!DOCTYPE svg PUBLIC "-//W3C//DTD SVG 1.1//EN"
 "http://www.w3.org/Graphics/SVG/1.1/DTD/svg11.dtd">
<!-- Generated by graphviz version 2.43.0 (0)
 -->
<!-- Title: Pseudo Pages: 1 -->
<svg width="507pt" height="1390pt"
 viewBox="0.00 0.00 506.50 1390.00" xmlns="http://www.w3.org/2000/svg" xmlns:xlink="http://www.w3.org/1999/xlink">
<g id="graph0" class="graph" transform="scale(1 1) rotate(0) translate(4 1386)">
<title>Pseudo</title>
<!-- Node1 -->
<g id="Node000001" class="node">
<title>Node1</title>
<g id="a_Node000001"><a xlink:href="structPseudo.html" target="_top" xlink:title=" ">
<path fill="white" stroke="#666666" stroke-width="2" d="M169,-72C169,-72 125,-72 125,-72 119,-72 113,-66 113,-60 113,-60 113,-12 113,-12 113,-6 119,0 125,0 125,0 169,0 169,0 175,0 181,-6 181,-12 181,-12 181,-60 181,-60 181,-66 175,-72 169,-72"/>
<text text-anchor="start" x="129" y="-56" font-family="Helvetica,sans-Serif" font-size="10.00">Pseudo</text>
<text text-anchor="start" x="125" y="-41" font-family="Helvetica,sans-Serif" font-size="10.00">+</text>
<text text-anchor="start" x="138" y="-41" font-family="Helvetica,sans-Serif" font-size="10.00">value</text>
<text text-anchor="start" x="125" y="-26" font-family="Helvetica,sans-Serif" font-size="10.00">+</text>
<text text-anchor="start" x="138" y="-26" font-family="Helvetica,sans-Serif" font-size="10.00">sigma</text>
<text text-anchor="start" x="145" y="-11" font-family="Helvetica,sans-Serif" font-size="10.00"> </text>
<polygon fill="#666666" stroke="#666666" points="121,-51 121,-51 173,-51 173,-51 121,-51"/>
<polygon fill="#666666" stroke="#666666" points="121,-21 121,-21 136,-21 136,-21 121,-21"/>
<polygon fill="#666666" stroke="#666666" points="136,-21 136,-21 173,-21 173,-21 136,-21"/>
<polygon fill="none" stroke="#666666" points="121,-4 121,-68 173,-68 173,-4 121,-4"/>
</a>
</g>
</g>
<!-- Node2 -->
<g id="Node000002" class="node">
<title>Node2</title>
<g id="a_Node000002"><a xlink:href="structGTime.html" target="_top" xlink:title="Time structure used throughout this software.">
<path fill="white" stroke="#666666" d="M134,-956C134,-956 12,-956 12,-956 6,-956 0,-950 0,-944 0,-944 0,-296 0,-296 0,-290 6,-284 12,-284 12,-284 134,-284 134,-284 140,-284 146,-290 146,-296 146,-296 146,-944 146,-944 146,-950 140,-956 134,-956"/>
<text text-anchor="start" x="56.5" y="-940" font-family="Helvetica,sans-Serif" font-size="10.00">GTime</text>
<text text-anchor="start" x="12" y="-925" font-family="Helvetica,sans-Serif" font-size="10.00">+</text>
<text text-anchor="start" x="25" y="-925" font-family="Helvetica,sans-Serif" font-size="10.00">cacheN</text>
<text text-anchor="start" x="12" y="-910" font-family="Helvetica,sans-Serif" font-size="10.00">+</text>
<text text-anchor="start" x="25" y="-910" font-family="Helvetica,sans-Serif" font-size="10.00">cacheTime</text>
<text text-anchor="start" x="12" y="-895" font-family="Helvetica,sans-Serif" font-size="10.00">+</text>
<text text-anchor="start" x="25" y="-895" font-family="Helvetica,sans-Serif" font-size="10.00">bigTime</text>
<text text-anchor="start" x="12" y="-880" font-family="Helvetica,sans-Serif" font-size="10.00">+</text>
<text text-anchor="start" x="25" y="-880" font-family="Helvetica,sans-Serif" font-size="10.00">GTime()</text>
<text text-anchor="start" x="12" y="-865" font-family="Helvetica,sans-Serif" font-size="10.00">+</text>
<text text-anchor="start" x="25" y="-865" font-family="Helvetica,sans-Serif" font-size="10.00">GTime()</text>
<text text-anchor="start" x="12" y="-850" font-family="Helvetica,sans-Serif" font-size="10.00">+</text>
<text text-anchor="start" x="25" y="-850" font-family="Helvetica,sans-Serif" font-size="10.00">GTime()</text>
<text text-anchor="start" x="12" y="-835" font-family="Helvetica,sans-Serif" font-size="10.00">+</text>
<text text-anchor="start" x="25" y="-835" font-family="Helvetica,sans-Serif" font-size="10.00">to_string()</text>
<text text-anchor="start" x="12" y="-820" font-family="Helvetica,sans-Serif" font-size="10.00">+</text>
<text text-anchor="start" x="25" y="-820" font-family="Helvetica,sans-Serif" font-size="10.00">to_ISOstring()</text>
<text text-anchor="start" x="12" y="-805" font-family="Helvetica,sans-Serif" font-size="10.00">+</text>
<text text-anchor="start" x="25" y="-805" font-family="Helvetica,sans-Serif" font-size="10.00">to_decYear()</text>
<text text-anchor="start" x="12" y="-790" font-family="Helvetica,sans-Serif" font-size="10.00">+</text>
<text text-anchor="start" x="25" y="-790" font-family="Helvetica,sans-Serif" font-size="10.00">operator==()</text>
<text text-anchor="start" x="12" y="-775" font-family="Helvetica,sans-Serif" font-size="10.00">+</text>
<text text-anchor="start" x="25" y="-775" font-family="Helvetica,sans-Serif" font-size="10.00">operator!=()</text>
<text text-anchor="start" x="12" y="-760" font-family="Helvetica,sans-Serif" font-size="10.00">+</text>
<text text-anchor="start" x="25" y="-760" font-family="Helvetica,sans-Serif" font-size="10.00">operator&lt;()</text>
<text text-anchor="start" x="12" y="-745" font-family="Helvetica,sans-Serif" font-size="10.00">+</text>
<text text-anchor="start" x="25" y="-745" font-family="Helvetica,sans-Serif" font-size="10.00">operator&gt;()</text>
<text text-anchor="start" x="12" y="-730" font-family="Helvetica,sans-Serif" font-size="10.00">+</text>
<text text-anchor="start" x="25" y="-730" font-family="Helvetica,sans-Serif" font-size="10.00">operator&gt;=()</text>
<text text-anchor="start" x="12" y="-715" font-family="Helvetica,sans-Serif" font-size="10.00">+</text>
<text text-anchor="start" x="25" y="-715" font-family="Helvetica,sans-Serif" font-size="10.00">operator+()</text>
<text text-anchor="start" x="12" y="-700" font-family="Helvetica,sans-Serif" font-size="10.00">+</text>
<text text-anchor="start" x="25" y="-700" font-family="Helvetica,sans-Serif" font-size="10.00">operator+()</text>
<text text-anchor="start" x="12" y="-685" font-family="Helvetica,sans-Serif" font-size="10.00">+</text>
<text text-anchor="start" x="25" y="-685" font-family="Helvetica,sans-Serif" font-size="10.00">operator+()</text>
<text text-anchor="start" x="12" y="-670" font-family="Helvetica,sans-Serif" font-size="10.00">+</text>
<text text-anchor="start" x="25" y="-670" font-family="Helvetica,sans-Serif" font-size="10.00">operator+=()</text>
<text text-anchor="start" x="12" y="-655" font-family="Helvetica,sans-Serif" font-size="10.00">+</text>
<text text-anchor="start" x="25" y="-655" font-family="Helvetica,sans-Serif" font-size="10.00">operator&#45;=()</text>
<text text-anchor="start" x="12" y="-640" font-family="Helvetica,sans-Serif" font-size="10.00">+</text>
<text text-anchor="start" x="25" y="-640" font-family="Helvetica,sans-Serif" font-size="10.00">operator&#45;()</text>
<text text-anchor="start" x="12" y="-625" font-family="Helvetica,sans-Serif" font-size="10.00">+</text>
<text text-anchor="start" x="25" y="-625" font-family="Helvetica,sans-Serif" font-size="10.00">operator&#45;()</text>
<text text-anchor="start" x="12" y="-610" font-family="Helvetica,sans-Serif" font-size="10.00">+</text>
<text text-anchor="start" x="25" y="-610" font-family="Helvetica,sans-Serif" font-size="10.00">operator&#45;()</text>
<text text-anchor="start" x="12" y="-595" font-family="Helvetica,sans-Serif" font-size="10.00">+</text>
<text text-anchor="start" x="25" y="-595" font-family="Helvetica,sans-Serif" font-size="10.00">operator++()</text>
<text text-anchor="start" x="12" y="-580" font-family="Helvetica,sans-Serif" font-size="10.00">+</text>
<text text-anchor="start" x="25" y="-580" font-family="Helvetica,sans-Serif" font-size="10.00">GTime()</text>
<text text-anchor="start" x="12" y="-565" font-family="Helvetica,sans-Serif" font-size="10.00">+</text>
<text text-anchor="start" x="25" y="-565" font-family="Helvetica,sans-Serif" font-size="10.00">GTime()</text>
<text text-anchor="start" x="12" y="-550" font-family="Helvetica,sans-Serif" font-size="10.00">+</text>
<text text-anchor="start" x="25" y="-550" font-family="Helvetica,sans-Serif" font-size="10.00">GTime()</text>
<text text-anchor="start" x="12" y="-535" font-family="Helvetica,sans-Serif" font-size="10.00">+</text>
<text text-anchor="start" x="25" y="-535" font-family="Helvetica,sans-Serif" font-size="10.00">GTime()</text>
<text text-anchor="start" x="12" y="-520" font-family="Helvetica,sans-Serif" font-size="10.00">+</text>
<text text-anchor="start" x="25" y="-520" font-family="Helvetica,sans-Serif" font-size="10.00">GTime()</text>
<text text-anchor="start" x="12" y="-505" font-family="Helvetica,sans-Serif" font-size="10.00">+</text>
<text text-anchor="start" x="25" y="-505" font-family="Helvetica,sans-Serif" font-size="10.00">serialize()</text>
<text text-anchor="start" x="12" y="-490" font-family="Helvetica,sans-Serif" font-size="10.00">+</text>
<text text-anchor="start" x="25" y="-490" font-family="Helvetica,sans-Serif" font-size="10.00">floorTime()</text>
<text text-anchor="start" x="12" y="-475" font-family="Helvetica,sans-Serif" font-size="10.00">+</text>
<text text-anchor="start" x="25" y="-475" font-family="Helvetica,sans-Serif" font-size="10.00">gregString()</text>
<text text-anchor="start" x="12" y="-460" font-family="Helvetica,sans-Serif" font-size="10.00">+</text>
<text text-anchor="start" x="25" y="-460" font-family="Helvetica,sans-Serif" font-size="10.00">operator long double()</text>
<text text-anchor="start" x="12" y="-445" font-family="Helvetica,sans-Serif" font-size="10.00">+</text>
<text text-anchor="start" x="25" y="-445" font-family="Helvetica,sans-Serif" font-size="10.00">operator MjDateTT()</text>
<text text-anchor="start" x="12" y="-430" font-family="Helvetica,sans-Serif" font-size="10.00">+</text>
<text text-anchor="start" x="25" y="-430" font-family="Helvetica,sans-Serif" font-size="10.00">operator GEpoch()</text>
<text text-anchor="start" x="12" y="-415" font-family="Helvetica,sans-Serif" font-size="10.00">+</text>
<text text-anchor="start" x="25" y="-415" font-family="Helvetica,sans-Serif" font-size="10.00">operator UtcTime()</text>
<text text-anchor="start" x="12" y="-400" font-family="Helvetica,sans-Serif" font-size="10.00">+</text>
<text text-anchor="start" x="25" y="-400" font-family="Helvetica,sans-Serif" font-size="10.00">operator GWeek()</text>
<text text-anchor="start" x="12" y="-385" font-family="Helvetica,sans-Serif" font-size="10.00">+</text>
<text text-anchor="start" x="25" y="-385" font-family="Helvetica,sans-Serif" font-size="10.00">operator BWeek()</text>
<text text-anchor="start" x="12" y="-370" font-family="Helvetica,sans-Serif" font-size="10.00">+</text>
<text text-anchor="start" x="25" y="-370" font-family="Helvetica,sans-Serif" font-size="10.00">operator GTow()</text>
<text text-anchor="start" x="12" y="-355" font-family="Helvetica,sans-Serif" font-size="10.00">+</text>
<text text-anchor="start" x="25" y="-355" font-family="Helvetica,sans-Serif" font-size="10.00">operator BTow()</text>
<text text-anchor="start" x="12" y="-340" font-family="Helvetica,sans-Serif" font-size="10.00">+</text>
<text text-anchor="start" x="25" y="-340" font-family="Helvetica,sans-Serif" font-size="10.00">operator PTime()</text>
<text text-anchor="start" x="12" y="-325" font-family="Helvetica,sans-Serif" font-size="10.00">+</text>
<text text-anchor="start" x="25" y="-325" font-family="Helvetica,sans-Serif" font-size="10.00">operator string()</text>
<text text-anchor="start" x="12" y="-310" font-family="Helvetica,sans-Serif" font-size="10.00">+</text>
<text text-anchor="start" x="25" y="-310" font-family="Helvetica,sans-Serif" font-size="10.00">operator RTod()</text>
<text text-anchor="start" x="12" y="-295" font-family="Helvetica,sans-Serif" font-size="10.00">+</text>
<text text-anchor="start" x="25" y="-295" font-family="Helvetica,sans-Serif" font-size="10.00">noTime()</text>
<polygon fill="#666666" stroke="#666666" points="8,-935 8,-935 138,-935 138,-935 8,-935"/>
<polygon fill="#666666" stroke="#666666" points="8,-890 8,-890 23,-890 23,-890 8,-890"/>
<polygon fill="#666666" stroke="#666666" points="23,-890 23,-890 138,-890 138,-890 23,-890"/>
<polygon fill="none" stroke="#666666" points="8,-288 8,-952 138,-952 138,-288 8,-288"/>
</a>
</g>
</g>
<!-- Node2&#45;&gt;Node1 -->
<g id="edge1_Node000001_Node000002" class="edge">
<title>Node2&#45;&gt;Node1</title>
<g id="a_edge1_Node000001_Node000002"><a xlink:title=" ">
<path fill="none" stroke="#63b8ff" d="M115.62,-283.82C125.65,-204.89 135.12,-130.4 140.98,-84.31"/>
<polygon fill="none" stroke="#63b8ff" points="140.99,-84.27 137.78,-77.82 142.5,-72.37 145.71,-78.83 140.99,-84.27"/>
</a>
</g>
<text text-anchor="middle" x="154" y="-190" font-family="Helvetica,sans-Serif" font-size="10.00" fill="grey"> +time</text>
</g>
<!-- Node3 -->
<g id="Node000003" class="node">
<title>Node3</title>
<g id="a_Node000003"><a xlink:title=" ">
<path fill="white" stroke="#666666" d="M176,-1382C176,-1382 146,-1382 146,-1382 140,-1382 134,-1376 134,-1370 134,-1370 134,-1337 134,-1337 134,-1331 140,-1325 146,-1325 146,-1325 176,-1325 176,-1325 182,-1325 188,-1331 188,-1337 188,-1337 188,-1370 188,-1370 188,-1376 182,-1382 176,-1382"/>
<text text-anchor="start" x="147" y="-1365.5" font-family="Helvetica,sans-Serif" font-size="10.00">string</text>
<text text-anchor="start" x="159" y="-1350.5" font-family="Helvetica,sans-Serif" font-size="10.00"> </text>
<text text-anchor="start" x="159" y="-1335.5" font-family="Helvetica,sans-Serif" font-size="10.00"> </text>
<polygon fill="#666666" stroke="#666666" points="142,-1360.5 142,-1360.5 180,-1360.5 180,-1360.5 142,-1360.5"/>
<polygon fill="#666666" stroke="#666666" points="142,-1345.5 142,-1345.5 180,-1345.5 180,-1345.5 142,-1345.5"/>
<polygon fill="none" stroke="#666666" points="142,-1329 142,-1378 180,-1378 180,-1329 142,-1329"/>
</a>
</g>
</g>
<!-- Node3&#45;&gt;Node2 -->
<g id="edge2_Node000002_Node000003" class="edge">
<title>Node3&#45;&gt;Node2</title>
<g id="a_edge2_Node000002_Node000003"><a xlink:title=" ">
<path fill="none" stroke="#63b8ff" d="M133.8,-1345.52C114.53,-1339.01 90.05,-1327.18 78,-1307 18.21,-1206.88 3.43,-1083 7.97,-968.18"/>
<polygon fill="none" stroke="#63b8ff" points="7.97,-968.01 4.25,-961.83 8.52,-956.02 12.24,-962.2 7.97,-968.01"/>
</a>
</g>
<text text-anchor="middle" x="112.5" y="-1288" font-family="Helvetica,sans-Serif" font-size="10.00" fill="grey"> +cacheString</text>
</g>
<!-- Node4 -->
<g id="Node000004" class="node">
<title>Node4</title>
<g id="a_Node000004"><a xlink:href="structKFKey.html" target="_top" xlink:title="Keys used to interface with Kalman filter objects.">
<path fill="white" stroke="#666666" d="M302.5,-266C302.5,-266 209.5,-266 209.5,-266 203.5,-266 197.5,-260 197.5,-254 197.5,-254 197.5,-131 197.5,-131 197.5,-125 203.5,-119 209.5,-119 209.5,-119 302.5,-119 302.5,-119 308.5,-119 314.5,-125 314.5,-131 314.5,-131 314.5,-254 314.5,-254 314.5,-260 308.5,-266 302.5,-266"/>
<text text-anchor="start" x="241" y="-249.5" font-family="Helvetica,sans-Serif" font-size="10.00">KFKey</text>
<text text-anchor="start" x="210" y="-234.5" font-family="Helvetica,sans-Serif" font-size="10.00">+</text>
<text text-anchor="start" x="223" y="-234.5" font-family="Helvetica,sans-Serif" font-size="10.00">type</text>
<text text-anchor="start" x="210" y="-219.5" font-family="Helvetica,sans-Serif" font-size="10.00">+</text>
<text text-anchor="start" x="223" y="-219.5" font-family="Helvetica,sans-Serif" font-size="10.00">num</text>
<text text-anchor="start" x="210" y="-204.5" font-family="Helvetica,sans-Serif" font-size="10.00">+</text>
<text text-anchor="start" x="223" y="-204.5" font-family="Helvetica,sans-Serif" font-size="10.00">operator==()</text>
<text text-anchor="start" x="210" y="-189.5" font-family="Helvetica,sans-Serif" font-size="10.00">+</text>
<text text-anchor="start" x="223" y="-189.5" font-family="Helvetica,sans-Serif" font-size="10.00">operator&lt;()</text>
<text text-anchor="start" x="210" y="-174.5" font-family="Helvetica,sans-Serif" font-size="10.00">+</text>
<text text-anchor="start" x="223" y="-174.5" font-family="Helvetica,sans-Serif" font-size="10.00">operator string()</text>
<text text-anchor="start" x="210" y="-159.5" font-family="Helvetica,sans-Serif" font-size="10.00">+</text>
<text text-anchor="start" x="223" y="-159.5" font-family="Helvetica,sans-Serif" font-size="10.00">commaString()</text>
<text text-anchor="start" x="210" y="-144.5" font-family="Helvetica,sans-Serif" font-size="10.00">+</text>
<text text-anchor="start" x="223" y="-144.5" font-family="Helvetica,sans-Serif" font-size="10.00">serialize()</text>
<text text-anchor="start" x="210" y="-129.5" font-family="Helvetica,sans-Serif" font-size="10.00">+</text>
<text text-anchor="start" x="223" y="-129.5" font-family="Helvetica,sans-Serif" font-size="10.00">emptyString()</text>
<polygon fill="#666666" stroke="#666666" points="206,-244.5 206,-244.5 307,-244.5 307,-244.5 206,-244.5"/>
<polygon fill="#666666" stroke="#666666" points="206,-214.5 206,-214.5 221,-214.5 221,-214.5 206,-214.5"/>
<polygon fill="#666666" stroke="#666666" points="221,-214.5 221,-214.5 307,-214.5 307,-214.5 221,-214.5"/>
<polygon fill="none" stroke="#666666" points="205.5,-123 205.5,-262 306.5,-262 306.5,-123 205.5,-123"/>
</a>
</g>
</g>
<!-- Node3&#45;&gt;Node4 -->
<g id="edge5_Node000004_Node000003" class="edge">
<title>Node3&#45;&gt;Node4</title>
<g id="a_edge5_Node000004_Node000003"><a xlink:title=" ">
<path fill="none" stroke="#63b8ff" d="M160.84,-1324.92C160.67,-1262.4 161.23,-1105.17 170,-974 186.98,-720.07 224.93,-421.43 244.23,-278.33"/>
<polygon fill="none" stroke="#63b8ff" points="244.26,-278.11 241.1,-271.63 245.87,-266.22 249.03,-272.7 244.26,-278.11"/>
</a>
</g>
<text text-anchor="middle" x="199" y="-1118" font-family="Helvetica,sans-Serif" font-size="10.00" fill="grey"> +comment</text>
<text text-anchor="middle" x="199" y="-1107" font-family="Helvetica,sans-Serif" font-size="10.00" fill="grey">+str</text>
</g>
<!-- Node8 -->
<g id="Node000008" class="node">
<title>Node8</title>
<g id="a_Node000008"><a xlink:href="structReceiver.html" target="_top" xlink:title="Object to maintain receiver station data.">
<path fill="#fff0f0" stroke="red" d="M351,-1226C351,-1226 249,-1226 249,-1226 243,-1226 237,-1220 237,-1214 237,-1214 237,-1016 237,-1016 237,-1010 243,-1004 249,-1004 249,-1004 351,-1004 351,-1004 357,-1004 363,-1010 363,-1016 363,-1016 363,-1214 363,-1214 363,-1220 357,-1226 351,-1226"/>
<text text-anchor="start" x="278.5" y="-1210" font-family="Helvetica,sans-Serif" font-size="10.00">Receiver</text>
<text text-anchor="start" x="249" y="-1195" font-family="Helvetica,sans-Serif" font-size="10.00">+</text>
<text text-anchor="start" x="262" y="-1195" font-family="Helvetica,sans-Serif" font-size="10.00">isPseudoRec</text>
<text text-anchor="start" x="249" y="-1180" font-family="Helvetica,sans-Serif" font-size="10.00">+</text>
<text text-anchor="start" x="262" y="-1180" font-family="Helvetica,sans-Serif" font-size="10.00">invalid</text>
<text text-anchor="start" x="249" y="-1165" font-family="Helvetica,sans-Serif" font-size="10.00">+</text>
<text text-anchor="start" x="262" y="-1165" font-family="Helvetica,sans-Serif" font-size="10.00">primaryApriori</text>
<text text-anchor="start" x="249" y="-1150" font-family="Helvetica,sans-Serif" font-size="10.00">+</text>
<text text-anchor="start" x="262" y="-1150" font-family="Helvetica,sans-Serif" font-size="10.00">aprioriClk</text>
<text text-anchor="start" x="249" y="-1135" font-family="Helvetica,sans-Serif" font-size="10.00">+</text>
<text text-anchor="start" x="262" y="-1135" font-family="Helvetica,sans-Serif" font-size="10.00">aprioriClkVar</text>
<text text-anchor="start" x="249" y="-1120" font-family="Helvetica,sans-Serif" font-size="10.00">+</text>
<text text-anchor="start" x="262" y="-1120" font-family="Helvetica,sans-Serif" font-size="10.00">ready</text>
<text text-anchor="start" x="249" y="-1105" font-family="Helvetica,sans-Serif" font-size="10.00">+</text>
<text text-anchor="start" x="262" y="-1105" font-family="Helvetica,sans-Serif" font-size="10.00">failure</text>
<text text-anchor="start" x="249" y="-1090" font-family="Helvetica,sans-Serif" font-size="10.00">+</text>
<text text-anchor="start" x="262" y="-1090" font-family="Helvetica,sans-Serif" font-size="10.00">failureSinex</text>
<text text-anchor="start" x="249" y="-1075" font-family="Helvetica,sans-Serif" font-size="10.00">+</text>
<text text-anchor="start" x="262" y="-1075" font-family="Helvetica,sans-Serif" font-size="10.00">failureAprioriPos</text>
<text text-anchor="start" x="249" y="-1060" font-family="Helvetica,sans-Serif" font-size="10.00">+</text>
<text text-anchor="start" x="262" y="-1060" font-family="Helvetica,sans-Serif" font-size="10.00">failureEccentricity</text>
<text text-anchor="start" x="249" y="-1045" font-family="Helvetica,sans-Serif" font-size="10.00">+</text>
<text text-anchor="start" x="262" y="-1045" font-family="Helvetica,sans-Serif" font-size="10.00">failureAntenna</text>
<text text-anchor="start" x="249" y="-1030" font-family="Helvetica,sans-Serif" font-size="10.00">+</text>
<text text-anchor="start" x="262" y="-1030" font-family="Helvetica,sans-Serif" font-size="10.00">@37</text>
<text text-anchor="start" x="298" y="-1015" font-family="Helvetica,sans-Serif" font-size="10.00"> </text>
<polygon fill="red" stroke="red" points="245,-1205 245,-1205 355,-1205 355,-1205 245,-1205"/>
<polygon fill="red" stroke="red" points="245,-1025 245,-1025 260,-1025 260,-1025 245,-1025"/>
<polygon fill="red" stroke="red" points="260,-1025 260,-1025 355,-1025 355,-1025 260,-1025"/>
<polygon fill="none" stroke="red" points="245,-1008 245,-1222 355,-1222 355,-1008 245,-1008"/>
</a>
</g>
</g>
<!-- Node3&#45;&gt;Node8 -->
<g id="edge7_Node000008_Node000003" class="edge">
<title>Node3&#45;&gt;Node8</title>
<g id="a_edge7_Node000008_Node000003"><a xlink:title=" ">
<path fill="none" stroke="#63b8ff" d="M179.41,-1324.94C192.02,-1305.81 208.94,-1279.61 223,-1256 226.77,-1249.66 230.59,-1243.14 234.4,-1236.52"/>
<polygon fill="none" stroke="#63b8ff" points="234.42,-1236.49 233.94,-1229.29 240.39,-1226.08 240.88,-1233.27 234.42,-1236.49"/>
</a>
</g>
<text text-anchor="middle" x="262" y="-1299" font-family="Helvetica,sans-Serif" font-size="10.00" fill="grey"> +id</text>
<text text-anchor="middle" x="262" y="-1288" font-family="Helvetica,sans-Serif" font-size="10.00" fill="grey">+jsonTraceFilename</text>
<text text-anchor="middle" x="262" y="-1277" font-family="Helvetica,sans-Serif" font-size="10.00" fill="grey">+traceFilename</text>
</g>
<!-- Node4&#45;&gt;Node1 -->
<g id="edge3_Node000001_Node000004" class="edge">
<title>Node4&#45;&gt;Node1</title>
<g id="a_edge3_Node000001_Node000004"><a xlink:title=" ">
<path fill="none" stroke="#63b8ff" d="M204.69,-118.77C195.81,-106.18 186.81,-93.43 178.65,-81.86"/>
<polygon fill="none" stroke="#63b8ff" points="178.63,-81.84 171.91,-79.24 171.72,-72.03 178.44,-74.63 178.63,-81.84"/>
</a>
</g>
<text text-anchor="middle" x="212" y="-93" font-family="Helvetica,sans-Serif" font-size="10.00" fill="grey"> +kfKey</text>
</g>
<!-- Node5 -->
<g id="Node000005" class="node">
<title>Node5</title>
<g id="a_Node000005"><a xlink:href="structSatSys.html" target="_top" xlink:title="Object holding satellite id, and providing related functions.">
<path fill="#fff0f0" stroke="red" d="M486.5,-1256C486.5,-1256 393.5,-1256 393.5,-1256 387.5,-1256 381.5,-1250 381.5,-1244 381.5,-1244 381.5,-986 381.5,-986 381.5,-980 387.5,-974 393.5,-974 393.5,-974 486.5,-974 486.5,-974 492.5,-974 498.5,-980 498.5,-986 498.5,-986 498.5,-1244 498.5,-1244 498.5,-1250 492.5,-1256 486.5,-1256"/>
<text text-anchor="start" x="423.5" y="-1240" font-family="Helvetica,sans-Serif" font-size="10.00">SatSys</text>
<text text-anchor="start" x="394" y="-1225" font-family="Helvetica,sans-Serif" font-size="10.00">+</text>
<text text-anchor="start" x="407" y="-1225" font-family="Helvetica,sans-Serif" font-size="10.00">sys</text>
<text text-anchor="start" x="394" y="-1210" font-family="Helvetica,sans-Serif" font-size="10.00">+</text>
<text text-anchor="start" x="407" y="-1210" font-family="Helvetica,sans-Serif" font-size="10.00">prn</text>
<text text-anchor="start" x="394" y="-1195" font-family="Helvetica,sans-Serif" font-size="10.00">+</text>
<text text-anchor="start" x="407" y="-1195" font-family="Helvetica,sans-Serif" font-size="10.00">SatSys()</text>
<text text-anchor="start" x="394" y="-1180" font-family="Helvetica,sans-Serif" font-size="10.00">+</text>
<text text-anchor="start" x="407" y="-1180" font-family="Helvetica,sans-Serif" font-size="10.00">sysChar()</text>
<text text-anchor="start" x="394" y="-1165" font-family="Helvetica,sans-Serif" font-size="10.00">+</text>
<text text-anchor="start" x="407" y="-1165" font-family="Helvetica,sans-Serif" font-size="10.00">getId()</text>
<text text-anchor="start" x="394" y="-1150" font-family="Helvetica,sans-Serif" font-size="10.00">+</text>
<text text-anchor="start" x="407" y="-1150" font-family="Helvetica,sans-Serif" font-size="10.00">operator int()</text>
<text text-anchor="start" x="394" y="-1135" font-family="Helvetica,sans-Serif" font-size="10.00">+</text>
<text text-anchor="start" x="407" y="-1135" font-family="Helvetica,sans-Serif" font-size="10.00">setBlockType()</text>
<text text-anchor="start" x="394" y="-1120" font-family="Helvetica,sans-Serif" font-size="10.00">+</text>
<text text-anchor="start" x="407" y="-1120" font-family="Helvetica,sans-Serif" font-size="10.00">setSvn()</text>
<text text-anchor="start" x="394" y="-1105" font-family="Helvetica,sans-Serif" font-size="10.00">+</text>
<text text-anchor="start" x="407" y="-1105" font-family="Helvetica,sans-Serif" font-size="10.00">blockType()</text>
<text text-anchor="start" x="394" y="-1090" font-family="Helvetica,sans-Serif" font-size="10.00">+</text>
<text text-anchor="start" x="407" y="-1090" font-family="Helvetica,sans-Serif" font-size="10.00">svn()</text>
<text text-anchor="start" x="394" y="-1075" font-family="Helvetica,sans-Serif" font-size="10.00">+</text>
<text text-anchor="start" x="407" y="-1075" font-family="Helvetica,sans-Serif" font-size="10.00">fromHash()</text>
<text text-anchor="start" x="394" y="-1060" font-family="Helvetica,sans-Serif" font-size="10.00">+</text>
<text text-anchor="start" x="407" y="-1060" font-family="Helvetica,sans-Serif" font-size="10.00">id()</text>
<text text-anchor="start" x="394" y="-1045" font-family="Helvetica,sans-Serif" font-size="10.00">+</text>
<text text-anchor="start" x="407" y="-1045" font-family="Helvetica,sans-Serif" font-size="10.00">operator string()</text>
<text text-anchor="start" x="394" y="-1030" font-family="Helvetica,sans-Serif" font-size="10.00">+</text>
<text text-anchor="start" x="407" y="-1030" font-family="Helvetica,sans-Serif" font-size="10.00">SatSys()</text>
<text text-anchor="start" x="394" y="-1015" font-family="Helvetica,sans-Serif" font-size="10.00">+</text>
<text text-anchor="start" x="407" y="-1015" font-family="Helvetica,sans-Serif" font-size="10.00">sysName()</text>
<text text-anchor="start" x="394" y="-1000" font-family="Helvetica,sans-Serif" font-size="10.00">+</text>
<text text-anchor="start" x="407" y="-1000" font-family="Helvetica,sans-Serif" font-size="10.00">serialize()</text>
<text text-anchor="start" x="394" y="-985" font-family="Helvetica,sans-Serif" font-size="10.00">+</text>
<text text-anchor="start" x="407" y="-985" font-family="Helvetica,sans-Serif" font-size="10.00">sysFromChar()</text>
<polygon fill="red" stroke="red" points="390,-1235 390,-1235 491,-1235 491,-1235 390,-1235"/>
<polygon fill="red" stroke="red" points="390,-1205 390,-1205 405,-1205 405,-1205 390,-1205"/>
<polygon fill="red" stroke="red" points="405,-1205 405,-1205 491,-1205 491,-1205 405,-1205"/>
<polygon fill="none" stroke="red" points="389.5,-978 389.5,-1252 490.5,-1252 490.5,-978 389.5,-978"/>
</a>
</g>
</g>
<!-- Node5&#45;&gt;Node4 -->
<g id="edge4_Node000004_Node000005" class="edge">
<title>Node5&#45;&gt;Node4</title>
<g id="a_edge4_Node000004_Node000005"><a xlink:title=" ">
<path fill="none" stroke="#63b8ff" d="M449.22,-973.88C454.8,-802.81 445.73,-508.57 341,-284 336.2,-273.71 329.77,-263.82 322.59,-254.6"/>
<polygon fill="none" stroke="#63b8ff" points="322.52,-254.5 315.61,-252.42 314.88,-245.25 321.78,-247.33 322.52,-254.5"/>
</a>
</g>
<text text-anchor="middle" x="464" y="-617.5" font-family="Helvetica,sans-Serif" font-size="10.00" fill="grey"> +Sat</text>
</g>
<!-- Node8&#45;&gt;Node4 -->
<g id="edge6_Node000004_Node000008" class="edge">
<title>Node8&#45;&gt;Node4</title>
<g id="a_edge6_Node000004_Node000008"><a xlink:title=" ">
<path fill="none" stroke="#63b8ff" d="M294.74,-1003.88C285.85,-817.89 268.04,-445.48 260.05,-278.23"/>
<polygon fill="none" stroke="#63b8ff" points="260.04,-278.05 255.76,-272.25 259.47,-266.07 263.75,-271.87 260.04,-278.05"/>
</a>
</g>
<text text-anchor="middle" x="314" y="-617.5" font-family="Helvetica,sans-Serif" font-size="10.00" fill="grey"> +rec_ptr</text>
</g>
</g>
</svg>
