<?xml version="1.0" encoding="UTF-8" standalone="no"?>
<!DOCTYPE svg PUBLIC "-//W3C//DTD SVG 1.1//EN"
 "http://www.w3.org/Graphics/SVG/1.1/DTD/svg11.dtd">
<!-- Generated by graphviz version 2.43.0 (0)
 -->
<!-- Title: Sofa::iauXys Pages: 1 -->
<svg width="179pt" height="27pt"
 viewBox="0.00 0.00 179.00 27.00" xmlns="http://www.w3.org/2000/svg" xmlns:xlink="http://www.w3.org/1999/xlink">
<g id="graph0" class="graph" transform="scale(1 1) rotate(0) translate(4 23)">
<title>Sofa::iauXys</title>
<!-- Node1 -->
<g id="Node000001" class="node">
<title>Node1</title>
<g id="a_Node000001"><a xlink:href="structSofa.html#ae1c6d560c4c92cbbeb269d4697bde3be" target="_top" xlink:title=" ">
<path fill="#fff0f0" stroke="red" stroke-width="2" d="M164.67,-19C164.67,-19 100.33,-19 100.33,-19 97.17,-19 94,-15.83 94,-12.67 94,-12.67 94,-6.33 94,-6.33 94,-3.17 97.17,0 100.33,0 100.33,0 164.67,0 164.67,0 167.83,0 171,-3.17 171,-6.33 171,-6.33 171,-12.67 171,-12.67 171,-15.83 167.83,-19 164.67,-19"/>
<text text-anchor="middle" x="132.5" y="-7" font-family="Helvetica,sans-Serif" font-size="10.00">Sofa::iauXys</text>
</a>
</g>
</g>
<!-- Node2 -->
<g id="Node000002" class="node">
<title>Node2</title>
<g id="a_Node000002"><a xlink:href="coordinates_8cpp.html#ad5579407e3fbc4df3feb1b7d5e910075" target="_top" xlink:title=" ">
<path fill="#fff0f0" stroke="red" d="M51.67,-19C51.67,-19 6.33,-19 6.33,-19 3.17,-19 0,-15.83 0,-12.67 0,-12.67 0,-6.33 0,-6.33 0,-3.17 3.17,0 6.33,0 6.33,0 51.67,0 51.67,0 54.83,0 58,-3.17 58,-6.33 58,-6.33 58,-12.67 58,-12.67 58,-15.83 54.83,-19 51.67,-19"/>
<text text-anchor="middle" x="29" y="-7" font-family="Helvetica,sans-Serif" font-size="10.00">eci2ecef</text>
</a>
</g>
</g>
<!-- Node1&#45;&gt;Node2 -->
<g id="edge1_Node000001_Node000002" class="edge">
<title>Node1&#45;&gt;Node2</title>
<g id="a_edge1_Node000001_Node000002"><a xlink:title=" ">
<path fill="none" stroke="#63b8ff" d="M83.8,-9.5C75.02,-9.5 66.12,-9.5 58.15,-9.5"/>
<polygon fill="#63b8ff" stroke="#63b8ff" points="83.99,-13 93.99,-9.5 83.99,-6 83.99,-13"/>
</a>
</g>
</g>
</g>
</svg>
