<?xml version="1.0" encoding="UTF-8" standalone="no"?>
<!DOCTYPE svg PUBLIC "-//W3C//DTD SVG 1.1//EN"
 "http://www.w3.org/Graphics/SVG/1.1/DTD/svg11.dtd">
<!-- Generated by graphviz version 2.43.0 (0)
 -->
<!-- Title: RtcmDecoder::decodeMSM Pages: 1 -->
<svg width="463pt" height="349pt"
 viewBox="0.00 0.00 463.00 349.28" xmlns="http://www.w3.org/2000/svg" xmlns:xlink="http://www.w3.org/1999/xlink">
<g id="graph0" class="graph" transform="scale(1 1) rotate(0) translate(4 345.28)">
<title>RtcmDecoder::decodeMSM</title>
<!-- Node1 -->
<g id="Node000001" class="node">
<title>Node1</title>
<g id="a_Node000001"><a xlink:href="structRtcmDecoder.html#a794dff6b6cac1bb2f8dfa1b2e5bd6c61" target="_top" xlink:title=" ">
<path fill="#fff0f0" stroke="red" stroke-width="2" d="M141.67,-167C141.67,-167 6.33,-167 6.33,-167 3.17,-167 0,-163.83 0,-160.67 0,-160.67 0,-154.33 0,-154.33 0,-151.17 3.17,-148 6.33,-148 6.33,-148 141.67,-148 141.67,-148 144.83,-148 148,-151.17 148,-154.33 148,-154.33 148,-160.67 148,-160.67 148,-163.83 144.83,-167 141.67,-167"/>
<text text-anchor="middle" x="74" y="-155" font-family="Helvetica,sans-Serif" font-size="10.00">RtcmDecoder::decodeMSM</text>
</a>
</g>
</g>
<!-- Node2 -->
<g id="Node000002" class="node">
<title>Node2</title>
<g id="a_Node000002"><a xlink:href="rtcmDecoder_8cpp.html#aaa6463f592ed6478626814466d3d02a5" target="_top" xlink:title="increasingly extract unsigned bits from byte data">
<path fill="#fff0f0" stroke="red" d="M448.67,-337C448.67,-337 396.33,-337 396.33,-337 393.17,-337 390,-333.83 390,-330.67 390,-330.67 390,-324.33 390,-324.33 390,-321.17 393.17,-318 396.33,-318 396.33,-318 448.67,-318 448.67,-318 451.83,-318 455,-321.17 455,-324.33 455,-324.33 455,-330.67 455,-330.67 455,-333.83 451.83,-337 448.67,-337"/>
<text text-anchor="middle" x="422.5" y="-325" font-family="Helvetica,sans-Serif" font-size="10.00">getbituInc</text>
</a>
</g>
</g>
<!-- Node1&#45;&gt;Node2 -->
<g id="edge1_Node000001_Node000002" class="edge">
<title>Node1&#45;&gt;Node2</title>
<g id="a_edge1_Node000001_Node000002"><a xlink:title=" ">
<path fill="none" stroke="#63b8ff" d="M81.43,-167.32C95.28,-193.16 131.04,-260.41 184,-290.5 245.33,-325.35 329.88,-326.27 379.8,-325.59"/>
<polygon fill="#63b8ff" stroke="#63b8ff" points="379.96,-329.08 389.91,-325.43 379.85,-322.08 379.96,-329.08"/>
</a>
</g>
</g>
<!-- Node1&#45;&gt;Node2 -->
<g id="edge2_Node000001_Node000002" class="edge">
<title>Node1&#45;&gt;Node2</title>
<g id="a_edge2_Node000001_Node000002"><a xlink:title=" ">
<path fill="none" stroke="#63b8ff" d="M77.6,-167.19C87.47,-195.59 125.1,-275.03 184,-308.5 245.33,-343.35 329.88,-344.27 379.8,-338.32"/>
<polygon fill="#63b8ff" stroke="#63b8ff" points="380.47,-341.76 389.91,-336.96 379.53,-334.83 380.47,-341.76"/>
</a>
</g>
</g>
<!-- Node4 -->
<g id="Node000004" class="node">
<title>Node4</title>
<g id="a_Node000004"><a xlink:href="structRtcmDecoder.html#af4dcc94b23423696a4e8025d8235a1b1" target="_top" xlink:title=" ">
<path fill="#fff0f0" stroke="red" d="M330.67,-290C330.67,-290 207.33,-290 207.33,-290 204.17,-290 201,-286.83 201,-283.67 201,-283.67 201,-277.33 201,-277.33 201,-274.17 204.17,-271 207.33,-271 207.33,-271 330.67,-271 330.67,-271 333.83,-271 337,-274.17 337,-277.33 337,-277.33 337,-283.67 337,-283.67 337,-286.83 333.83,-290 330.67,-290"/>
<text text-anchor="middle" x="269" y="-278" font-family="Helvetica,sans-Serif" font-size="10.00">RtcmDecoder::rtcmTime</text>
</a>
</g>
</g>
<!-- Node1&#45;&gt;Node4 -->
<g id="edge3_Node000001_Node000004" class="edge">
<title>Node1&#45;&gt;Node4</title>
<g id="a_edge3_Node000001_Node000004"><a xlink:title=" ">
<path fill="none" stroke="#63b8ff" d="M81.94,-167.15C97.58,-188.12 137.84,-237.94 184,-262.5 187.53,-264.38 191.24,-266.06 195.05,-267.56"/>
<polygon fill="#63b8ff" stroke="#63b8ff" points="194.11,-270.94 204.71,-270.96 196.44,-264.34 194.11,-270.94"/>
</a>
</g>
</g>
<!-- Node7 -->
<g id="Node000007" class="node">
<title>Node7</title>
<g id="a_Node000007"><a xlink:href="structRtcmDecoder.html#a2d3cb177d3e79308289e9b23b5c46bbc" target="_top" xlink:title=" ">
<path fill="#fff0f0" stroke="red" d="M338.67,-253C338.67,-253 199.33,-253 199.33,-253 196.17,-253 193,-249.83 193,-246.67 193,-246.67 193,-240.33 193,-240.33 193,-237.17 196.17,-234 199.33,-234 199.33,-234 338.67,-234 338.67,-234 341.83,-234 345,-237.17 345,-240.33 345,-240.33 345,-246.67 345,-246.67 345,-249.83 341.83,-253 338.67,-253"/>
<text text-anchor="middle" x="269" y="-241" font-family="Helvetica,sans-Serif" font-size="10.00">RtcmDecoder::traceLatency</text>
</a>
</g>
</g>
<!-- Node1&#45;&gt;Node7 -->
<g id="edge4_Node000001_Node000007" class="edge">
<title>Node1&#45;&gt;Node7</title>
<g id="a_edge4_Node000001_Node000007"><a xlink:title=" ">
<path fill="none" stroke="#63b8ff" d="M87.67,-167.24C107.26,-181.82 146.56,-209.25 184,-224.5 190.23,-227.04 196.87,-229.27 203.58,-231.23"/>
<polygon fill="#63b8ff" stroke="#63b8ff" points="202.85,-234.66 213.42,-233.9 204.69,-227.9 202.85,-234.66"/>
</a>
</g>
</g>
<!-- Node8 -->
<g id="Node000008" class="node">
<title>Node8</title>
<g id="a_Node000008"><a xlink:href="structRtcmDecoder.html#a1e061b150f360e6e69190f77b505198c" target="_top" xlink:title=" ">
<path fill="#fff0f0" stroke="red" d="M318,-215.5C318,-215.5 220,-215.5 220,-215.5 215,-215.5 210,-210.5 210,-205.5 210,-205.5 210,-195.5 210,-195.5 210,-190.5 215,-185.5 220,-185.5 220,-185.5 318,-185.5 318,-185.5 323,-185.5 328,-190.5 328,-195.5 328,-195.5 328,-205.5 328,-205.5 328,-210.5 323,-215.5 318,-215.5"/>
<text text-anchor="start" x="218" y="-203.5" font-family="Helvetica,sans-Serif" font-size="10.00">RtcmDecoder::signal</text>
<text text-anchor="middle" x="269" y="-192.5" font-family="Helvetica,sans-Serif" font-size="10.00">_to_code</text>
</a>
</g>
</g>
<!-- Node1&#45;&gt;Node8 -->
<g id="edge5_Node000001_Node000008" class="edge">
<title>Node1&#45;&gt;Node8</title>
<g id="a_edge5_Node000001_Node000008"><a xlink:title=" ">
<path fill="none" stroke="#63b8ff" d="M117.83,-167.04C141.97,-172.42 172.67,-179.26 200.01,-185.35"/>
<polygon fill="#63b8ff" stroke="#63b8ff" points="199.39,-188.8 209.91,-187.56 200.91,-181.97 199.39,-188.8"/>
</a>
</g>
</g>
<!-- Node9 -->
<g id="Node000009" class="node">
<title>Node9</title>
<g id="a_Node000009"><a xlink:href="rtcmDecoder_8cpp.html#ac0235020c0ce59b7095c246bcb8496cb" target="_top" xlink:title="increasingly extract signed bits from RTCM messages with scale factor/resolution applied">
<path fill="#fff0f0" stroke="red" d="M308.17,-167C308.17,-167 229.83,-167 229.83,-167 226.67,-167 223.5,-163.83 223.5,-160.67 223.5,-160.67 223.5,-154.33 223.5,-154.33 223.5,-151.17 226.67,-148 229.83,-148 229.83,-148 308.17,-148 308.17,-148 311.33,-148 314.5,-151.17 314.5,-154.33 314.5,-154.33 314.5,-160.67 314.5,-160.67 314.5,-163.83 311.33,-167 308.17,-167"/>
<text text-anchor="middle" x="269" y="-155" font-family="Helvetica,sans-Serif" font-size="10.00">getbitsIncScale</text>
</a>
</g>
</g>
<!-- Node1&#45;&gt;Node9 -->
<g id="edge6_Node000001_Node000009" class="edge">
<title>Node1&#45;&gt;Node9</title>
<g id="a_edge6_Node000001_Node000009"><a xlink:title=" ">
<path fill="none" stroke="#63b8ff" d="M148.24,-150.93C169.76,-150.59 192.92,-150.73 213.09,-151.34"/>
<polygon fill="#63b8ff" stroke="#63b8ff" points="213.22,-154.85 223.34,-151.7 213.47,-147.85 213.22,-154.85"/>
</a>
</g>
</g>
<!-- Node1&#45;&gt;Node9 -->
<g id="edge7_Node000001_Node000009" class="edge">
<title>Node1&#45;&gt;Node9</title>
<g id="a_edge7_Node000001_Node000009"><a xlink:title=" ">
<path fill="none" stroke="#63b8ff" d="M148.24,-164.07C169.76,-164.41 192.92,-164.27 213.09,-163.66"/>
<polygon fill="#63b8ff" stroke="#63b8ff" points="213.47,-167.15 223.34,-163.3 213.22,-160.15 213.47,-167.15"/>
</a>
</g>
</g>
<!-- Node12 -->
<g id="Node000012" class="node">
<title>Node12</title>
<g id="a_Node000012"><a xlink:href="rtcmDecoder_8cpp.html#a5e5d26d65b7b8b3a25c4d761960a282b" target="_top" xlink:title=" ">
<path fill="#fff0f0" stroke="red" d="M327.17,-130C327.17,-130 210.83,-130 210.83,-130 207.67,-130 204.5,-126.83 204.5,-123.67 204.5,-123.67 204.5,-117.33 204.5,-117.33 204.5,-114.17 207.67,-111 210.83,-111 210.83,-111 327.17,-111 327.17,-111 330.33,-111 333.5,-114.17 333.5,-117.33 333.5,-117.33 333.5,-123.67 333.5,-123.67 333.5,-126.83 330.33,-130 327.17,-130"/>
<text text-anchor="middle" x="269" y="-118" font-family="Helvetica,sans-Serif" font-size="10.00">lockTimeFromIndicator</text>
</a>
</g>
</g>
<!-- Node1&#45;&gt;Node12 -->
<g id="edge8_Node000001_Node000012" class="edge">
<title>Node1&#45;&gt;Node12</title>
<g id="a_edge8_Node000001_Node000012"><a xlink:title=" ">
<path fill="none" stroke="#63b8ff" d="M124.7,-147.97C150.15,-143.09 181.34,-137.11 208.11,-131.98"/>
<polygon fill="#63b8ff" stroke="#63b8ff" points="208.97,-135.38 218.13,-130.06 207.65,-128.51 208.97,-135.38"/>
</a>
</g>
</g>
<!-- Node13 -->
<g id="Node000013" class="node">
<title>Node13</title>
<g id="a_Node000013"><a xlink:href="rtcmDecoder_8cpp.html#a1f2ff04aa3d45fed395d6df26ebe7709" target="_top" xlink:title=" ">
<path fill="#fff0f0" stroke="red" d="M347.67,-93C347.67,-93 190.33,-93 190.33,-93 187.17,-93 184,-89.83 184,-86.67 184,-86.67 184,-80.33 184,-80.33 184,-77.17 187.17,-74 190.33,-74 190.33,-74 347.67,-74 347.67,-74 350.83,-74 354,-77.17 354,-80.33 354,-80.33 354,-86.67 354,-86.67 354,-89.83 350.83,-93 347.67,-93"/>
<text text-anchor="middle" x="269" y="-81" font-family="Helvetica,sans-Serif" font-size="10.00">highResLockTimeFromIndicator</text>
</a>
</g>
</g>
<!-- Node1&#45;&gt;Node13 -->
<g id="edge9_Node000001_Node000013" class="edge">
<title>Node1&#45;&gt;Node13</title>
<g id="a_edge9_Node000001_Node000013"><a xlink:title=" ">
<path fill="none" stroke="#63b8ff" d="M91.06,-147.81C111.84,-135.66 149.49,-114.9 184,-102.5 191.22,-99.91 198.93,-97.59 206.63,-95.54"/>
<polygon fill="#63b8ff" stroke="#63b8ff" points="207.5,-98.93 216.34,-93.09 205.79,-92.14 207.5,-98.93"/>
</a>
</g>
</g>
<!-- Node14 -->
<g id="Node000014" class="node">
<title>Node14</title>
<g id="a_Node000014"><a xlink:href="rtcmDecoder_8cpp.html#a1859a6292dbeabca9b05b0a4455a00f9" target="_top" xlink:title="increasingly extract unsigned bits from RTCM messages with scale factor/resolution applied">
<path fill="#fff0f0" stroke="red" d="M308.67,-56C308.67,-56 229.33,-56 229.33,-56 226.17,-56 223,-52.83 223,-49.67 223,-49.67 223,-43.33 223,-43.33 223,-40.17 226.17,-37 229.33,-37 229.33,-37 308.67,-37 308.67,-37 311.83,-37 315,-40.17 315,-43.33 315,-43.33 315,-49.67 315,-49.67 315,-52.83 311.83,-56 308.67,-56"/>
<text text-anchor="middle" x="269" y="-44" font-family="Helvetica,sans-Serif" font-size="10.00">getbituIncScale</text>
</a>
</g>
</g>
<!-- Node1&#45;&gt;Node14 -->
<g id="edge10_Node000001_Node000014" class="edge">
<title>Node1&#45;&gt;Node14</title>
<g id="a_edge10_Node000001_Node000014"><a xlink:title=" ">
<path fill="none" stroke="#63b8ff" d="M83.25,-147.98C100.15,-129.13 140.77,-87.01 184,-65.5 192.94,-61.05 202.92,-57.63 212.8,-55.01"/>
<polygon fill="#63b8ff" stroke="#63b8ff" points="213.71,-58.39 222.61,-52.64 212.07,-51.59 213.71,-58.39"/>
</a>
</g>
</g>
<!-- Node15 -->
<g id="Node000015" class="node">
<title>Node15</title>
<g id="a_Node000015"><a xlink:href="structRtcmTrace.html#abcc1eaba01587cf66fb1637b0969c161" target="_top" xlink:title="Write msm message to a json file.">
<path fill="#fff0f0" stroke="red" d="M323.67,-19C323.67,-19 214.33,-19 214.33,-19 211.17,-19 208,-15.83 208,-12.67 208,-12.67 208,-6.33 208,-6.33 208,-3.17 211.17,0 214.33,0 214.33,0 323.67,0 323.67,0 326.83,0 330,-3.17 330,-6.33 330,-6.33 330,-12.67 330,-12.67 330,-15.83 326.83,-19 323.67,-19"/>
<text text-anchor="middle" x="269" y="-7" font-family="Helvetica,sans-Serif" font-size="10.00">RtcmTrace::traceMSM</text>
</a>
</g>
</g>
<!-- Node1&#45;&gt;Node15 -->
<g id="edge12_Node000001_Node000015" class="edge">
<title>Node1&#45;&gt;Node15</title>
<g id="a_edge12_Node000001_Node000015"><a xlink:title=" ">
<path fill="none" stroke="#63b8ff" d="M80.14,-147.9C93.63,-123.65 132.63,-59.7 184,-28.5 188.44,-25.8 193.22,-23.49 198.17,-21.5"/>
<polygon fill="#63b8ff" stroke="#63b8ff" points="199.59,-24.71 207.84,-18.07 197.25,-18.12 199.59,-24.71"/>
</a>
</g>
</g>
<!-- Node14&#45;&gt;Node2 -->
<g id="edge11_Node000014_Node000002" class="edge">
<title>Node14&#45;&gt;Node2</title>
<g id="a_edge11_Node000014_Node000002"><a xlink:title=" ">
<path fill="none" stroke="#63b8ff" d="M315.35,-47.77C329.31,-50.33 343.7,-55.5 354,-65.5 389.24,-99.71 411.95,-252.86 419.08,-307.81"/>
<polygon fill="#63b8ff" stroke="#63b8ff" points="415.64,-308.48 420.37,-317.96 422.59,-307.6 415.64,-308.48"/>
</a>
</g>
</g>
</g>
</svg>
