<?xml version="1.0" encoding="UTF-8" standalone="no"?>
<!DOCTYPE svg PUBLIC "-//W3C//DTD SVG 1.1//EN"
 "http://www.w3.org/Graphics/SVG/1.1/DTD/svg11.dtd">
<!-- Generated by graphviz version 2.43.0 (0)
 -->
<!-- Title: NtripUploader::connected Pages: 1 -->
<svg width="347pt" height="64pt"
 viewBox="0.00 0.00 347.00 64.00" xmlns="http://www.w3.org/2000/svg" xmlns:xlink="http://www.w3.org/1999/xlink">
<g id="graph0" class="graph" transform="scale(1 1) rotate(0) translate(4 60)">
<title>NtripUploader::connected</title>
<!-- Node1 -->
<g id="Node000001" class="node">
<title>Node1</title>
<g id="a_Node000001"><a xlink:href="structNtripUploader.html#a898eb17a065327e8637abb7876c06bd9" target="_top" xlink:title=" ">
<path fill="#fff0f0" stroke="red" stroke-width="2" d="M134.67,-37C134.67,-37 6.33,-37 6.33,-37 3.17,-37 0,-33.83 0,-30.67 0,-30.67 0,-24.33 0,-24.33 0,-21.17 3.17,-18 6.33,-18 6.33,-18 134.67,-18 134.67,-18 137.83,-18 141,-21.17 141,-24.33 141,-24.33 141,-30.67 141,-30.67 141,-33.83 137.83,-37 134.67,-37"/>
<text text-anchor="middle" x="70.5" y="-25" font-family="Helvetica,sans-Serif" font-size="10.00">NtripUploader::connected</text>
</a>
</g>
</g>
<!-- Node2 -->
<g id="Node000002" class="node">
<title>Node2</title>
<g id="a_Node000002"><a xlink:href="structTcpSocket.html#a03ed6daf30143b309d99966c9318b347" target="_top" xlink:title=" ">
<path fill="#fff0f0" stroke="red" d="M310.67,-56C310.67,-56 205.33,-56 205.33,-56 202.17,-56 199,-52.83 199,-49.67 199,-49.67 199,-43.33 199,-43.33 199,-40.17 202.17,-37 205.33,-37 205.33,-37 310.67,-37 310.67,-37 313.83,-37 317,-40.17 317,-43.33 317,-43.33 317,-49.67 317,-49.67 317,-52.83 313.83,-56 310.67,-56"/>
<text text-anchor="middle" x="258" y="-44" font-family="Helvetica,sans-Serif" font-size="10.00">TcpSocket::startRead</text>
</a>
</g>
</g>
<!-- Node1&#45;&gt;Node2 -->
<g id="edge1_Node000001_Node000002" class="edge">
<title>Node1&#45;&gt;Node2</title>
<g id="a_edge1_Node000001_Node000002"><a xlink:title=" ">
<path fill="none" stroke="#63b8ff" d="M141.1,-34.63C156.7,-36.23 173.24,-37.92 188.78,-39.51"/>
<polygon fill="#63b8ff" stroke="#63b8ff" points="188.53,-43.01 198.83,-40.54 189.24,-36.04 188.53,-43.01"/>
</a>
</g>
</g>
<!-- Node3 -->
<g id="Node000003" class="node">
<title>Node3</title>
<g id="a_Node000003"><a xlink:href="structNtripUploader.html#af0617de893f9f0c1873cbc7cfd12ccb0" target="_top" xlink:title=" ">
<path fill="#fff0f0" stroke="red" d="M332.67,-19C332.67,-19 183.33,-19 183.33,-19 180.17,-19 177,-15.83 177,-12.67 177,-12.67 177,-6.33 177,-6.33 177,-3.17 180.17,0 183.33,0 183.33,0 332.67,0 332.67,0 335.83,0 339,-3.17 339,-6.33 339,-6.33 339,-12.67 339,-12.67 339,-15.83 335.83,-19 332.67,-19"/>
<text text-anchor="middle" x="258" y="-7" font-family="Helvetica,sans-Serif" font-size="10.00">NtripUploader::startBroadcast</text>
</a>
</g>
</g>
<!-- Node1&#45;&gt;Node3 -->
<g id="edge2_Node000001_Node000003" class="edge">
<title>Node1&#45;&gt;Node3</title>
<g id="a_edge2_Node000001_Node000003"><a xlink:title=" ">
<path fill="none" stroke="#63b8ff" d="M141.1,-20.75C149.45,-19.94 158.07,-19.1 166.66,-18.27"/>
<polygon fill="#63b8ff" stroke="#63b8ff" points="167.1,-21.74 176.71,-17.29 166.42,-14.77 167.1,-21.74"/>
</a>
</g>
</g>
</g>
</svg>
