<?xml version="1.0" encoding="UTF-8" standalone="no"?>
<!DOCTYPE svg PUBLIC "-//W3C//DTD SVG 1.1//EN"
 "http://www.w3.org/Graphics/SVG/1.1/DTD/svg11.dtd">
<!-- Generated by graphviz version 2.43.0 (0)
 -->
<!-- Title: AttStatus Pages: 1 -->
<svg width="270pt" height="1018pt"
 viewBox="0.00 0.00 269.50 1018.00" xmlns="http://www.w3.org/2000/svg" xmlns:xlink="http://www.w3.org/1999/xlink">
<g id="graph0" class="graph" transform="scale(1 1) rotate(0) translate(4 1014)">
<title>AttStatus</title>
<!-- Node1 -->
<g id="Node000001" class="node">
<title>Node1</title>
<g id="a_Node000001"><a xlink:href="structAttStatus.html" target="_top" xlink:title="Persistent data for yaw model.">
<path fill="white" stroke="#666666" stroke-width="2" d="M186.5,-132C186.5,-132 99.5,-132 99.5,-132 93.5,-132 87.5,-126 87.5,-120 87.5,-120 87.5,-12 87.5,-12 87.5,-6 93.5,0 99.5,0 99.5,0 186.5,0 186.5,0 192.5,0 198.5,-6 198.5,-12 198.5,-12 198.5,-120 198.5,-120 198.5,-126 192.5,-132 186.5,-132"/>
<text text-anchor="start" x="120.5" y="-116" font-family="Helvetica,sans-Serif" font-size="10.00">AttStatus</text>
<text text-anchor="start" x="100" y="-101" font-family="Helvetica,sans-Serif" font-size="10.00">+</text>
<text text-anchor="start" x="113" y="-101" font-family="Helvetica,sans-Serif" font-size="10.00">startSign</text>
<text text-anchor="start" x="100" y="-86" font-family="Helvetica,sans-Serif" font-size="10.00">+</text>
<text text-anchor="start" x="113" y="-86" font-family="Helvetica,sans-Serif" font-size="10.00">startYaw</text>
<text text-anchor="start" x="100" y="-71" font-family="Helvetica,sans-Serif" font-size="10.00">+</text>
<text text-anchor="start" x="113" y="-71" font-family="Helvetica,sans-Serif" font-size="10.00">startYawRate</text>
<text text-anchor="start" x="100" y="-56" font-family="Helvetica,sans-Serif" font-size="10.00">+</text>
<text text-anchor="start" x="113" y="-56" font-family="Helvetica,sans-Serif" font-size="10.00">nominalYaw</text>
<text text-anchor="start" x="100" y="-41" font-family="Helvetica,sans-Serif" font-size="10.00">+</text>
<text text-anchor="start" x="113" y="-41" font-family="Helvetica,sans-Serif" font-size="10.00">modelYaw</text>
<text text-anchor="start" x="100" y="-26" font-family="Helvetica,sans-Serif" font-size="10.00">+</text>
<text text-anchor="start" x="113" y="-26" font-family="Helvetica,sans-Serif" font-size="10.00">modelYawValid</text>
<text text-anchor="start" x="141.5" y="-11" font-family="Helvetica,sans-Serif" font-size="10.00"> </text>
<polygon fill="#666666" stroke="#666666" points="96,-111 96,-111 191,-111 191,-111 96,-111"/>
<polygon fill="#666666" stroke="#666666" points="96,-21 96,-21 111,-21 111,-21 96,-21"/>
<polygon fill="#666666" stroke="#666666" points="111,-21 111,-21 191,-21 191,-21 111,-21"/>
<polygon fill="none" stroke="#666666" points="95.5,-4 95.5,-128 190.5,-128 190.5,-4 95.5,-4"/>
</a>
</g>
</g>
<!-- Node2 -->
<g id="Node000002" class="node">
<title>Node2</title>
<g id="a_Node000002"><a xlink:href="structGTime.html" target="_top" xlink:title="Time structure used throughout this software.">
<path fill="white" stroke="#666666" d="M134,-906C134,-906 12,-906 12,-906 6,-906 0,-900 0,-894 0,-894 0,-246 0,-246 0,-240 6,-234 12,-234 12,-234 134,-234 134,-234 140,-234 146,-240 146,-246 146,-246 146,-894 146,-894 146,-900 140,-906 134,-906"/>
<text text-anchor="start" x="56.5" y="-890" font-family="Helvetica,sans-Serif" font-size="10.00">GTime</text>
<text text-anchor="start" x="12" y="-875" font-family="Helvetica,sans-Serif" font-size="10.00">+</text>
<text text-anchor="start" x="25" y="-875" font-family="Helvetica,sans-Serif" font-size="10.00">cacheN</text>
<text text-anchor="start" x="12" y="-860" font-family="Helvetica,sans-Serif" font-size="10.00">+</text>
<text text-anchor="start" x="25" y="-860" font-family="Helvetica,sans-Serif" font-size="10.00">cacheTime</text>
<text text-anchor="start" x="12" y="-845" font-family="Helvetica,sans-Serif" font-size="10.00">+</text>
<text text-anchor="start" x="25" y="-845" font-family="Helvetica,sans-Serif" font-size="10.00">bigTime</text>
<text text-anchor="start" x="12" y="-830" font-family="Helvetica,sans-Serif" font-size="10.00">+</text>
<text text-anchor="start" x="25" y="-830" font-family="Helvetica,sans-Serif" font-size="10.00">GTime()</text>
<text text-anchor="start" x="12" y="-815" font-family="Helvetica,sans-Serif" font-size="10.00">+</text>
<text text-anchor="start" x="25" y="-815" font-family="Helvetica,sans-Serif" font-size="10.00">GTime()</text>
<text text-anchor="start" x="12" y="-800" font-family="Helvetica,sans-Serif" font-size="10.00">+</text>
<text text-anchor="start" x="25" y="-800" font-family="Helvetica,sans-Serif" font-size="10.00">GTime()</text>
<text text-anchor="start" x="12" y="-785" font-family="Helvetica,sans-Serif" font-size="10.00">+</text>
<text text-anchor="start" x="25" y="-785" font-family="Helvetica,sans-Serif" font-size="10.00">to_string()</text>
<text text-anchor="start" x="12" y="-770" font-family="Helvetica,sans-Serif" font-size="10.00">+</text>
<text text-anchor="start" x="25" y="-770" font-family="Helvetica,sans-Serif" font-size="10.00">to_ISOstring()</text>
<text text-anchor="start" x="12" y="-755" font-family="Helvetica,sans-Serif" font-size="10.00">+</text>
<text text-anchor="start" x="25" y="-755" font-family="Helvetica,sans-Serif" font-size="10.00">to_decYear()</text>
<text text-anchor="start" x="12" y="-740" font-family="Helvetica,sans-Serif" font-size="10.00">+</text>
<text text-anchor="start" x="25" y="-740" font-family="Helvetica,sans-Serif" font-size="10.00">operator==()</text>
<text text-anchor="start" x="12" y="-725" font-family="Helvetica,sans-Serif" font-size="10.00">+</text>
<text text-anchor="start" x="25" y="-725" font-family="Helvetica,sans-Serif" font-size="10.00">operator!=()</text>
<text text-anchor="start" x="12" y="-710" font-family="Helvetica,sans-Serif" font-size="10.00">+</text>
<text text-anchor="start" x="25" y="-710" font-family="Helvetica,sans-Serif" font-size="10.00">operator&lt;()</text>
<text text-anchor="start" x="12" y="-695" font-family="Helvetica,sans-Serif" font-size="10.00">+</text>
<text text-anchor="start" x="25" y="-695" font-family="Helvetica,sans-Serif" font-size="10.00">operator&gt;()</text>
<text text-anchor="start" x="12" y="-680" font-family="Helvetica,sans-Serif" font-size="10.00">+</text>
<text text-anchor="start" x="25" y="-680" font-family="Helvetica,sans-Serif" font-size="10.00">operator&gt;=()</text>
<text text-anchor="start" x="12" y="-665" font-family="Helvetica,sans-Serif" font-size="10.00">+</text>
<text text-anchor="start" x="25" y="-665" font-family="Helvetica,sans-Serif" font-size="10.00">operator+()</text>
<text text-anchor="start" x="12" y="-650" font-family="Helvetica,sans-Serif" font-size="10.00">+</text>
<text text-anchor="start" x="25" y="-650" font-family="Helvetica,sans-Serif" font-size="10.00">operator+()</text>
<text text-anchor="start" x="12" y="-635" font-family="Helvetica,sans-Serif" font-size="10.00">+</text>
<text text-anchor="start" x="25" y="-635" font-family="Helvetica,sans-Serif" font-size="10.00">operator+()</text>
<text text-anchor="start" x="12" y="-620" font-family="Helvetica,sans-Serif" font-size="10.00">+</text>
<text text-anchor="start" x="25" y="-620" font-family="Helvetica,sans-Serif" font-size="10.00">operator+=()</text>
<text text-anchor="start" x="12" y="-605" font-family="Helvetica,sans-Serif" font-size="10.00">+</text>
<text text-anchor="start" x="25" y="-605" font-family="Helvetica,sans-Serif" font-size="10.00">operator&#45;=()</text>
<text text-anchor="start" x="12" y="-590" font-family="Helvetica,sans-Serif" font-size="10.00">+</text>
<text text-anchor="start" x="25" y="-590" font-family="Helvetica,sans-Serif" font-size="10.00">operator&#45;()</text>
<text text-anchor="start" x="12" y="-575" font-family="Helvetica,sans-Serif" font-size="10.00">+</text>
<text text-anchor="start" x="25" y="-575" font-family="Helvetica,sans-Serif" font-size="10.00">operator&#45;()</text>
<text text-anchor="start" x="12" y="-560" font-family="Helvetica,sans-Serif" font-size="10.00">+</text>
<text text-anchor="start" x="25" y="-560" font-family="Helvetica,sans-Serif" font-size="10.00">operator&#45;()</text>
<text text-anchor="start" x="12" y="-545" font-family="Helvetica,sans-Serif" font-size="10.00">+</text>
<text text-anchor="start" x="25" y="-545" font-family="Helvetica,sans-Serif" font-size="10.00">operator++()</text>
<text text-anchor="start" x="12" y="-530" font-family="Helvetica,sans-Serif" font-size="10.00">+</text>
<text text-anchor="start" x="25" y="-530" font-family="Helvetica,sans-Serif" font-size="10.00">GTime()</text>
<text text-anchor="start" x="12" y="-515" font-family="Helvetica,sans-Serif" font-size="10.00">+</text>
<text text-anchor="start" x="25" y="-515" font-family="Helvetica,sans-Serif" font-size="10.00">GTime()</text>
<text text-anchor="start" x="12" y="-500" font-family="Helvetica,sans-Serif" font-size="10.00">+</text>
<text text-anchor="start" x="25" y="-500" font-family="Helvetica,sans-Serif" font-size="10.00">GTime()</text>
<text text-anchor="start" x="12" y="-485" font-family="Helvetica,sans-Serif" font-size="10.00">+</text>
<text text-anchor="start" x="25" y="-485" font-family="Helvetica,sans-Serif" font-size="10.00">GTime()</text>
<text text-anchor="start" x="12" y="-470" font-family="Helvetica,sans-Serif" font-size="10.00">+</text>
<text text-anchor="start" x="25" y="-470" font-family="Helvetica,sans-Serif" font-size="10.00">GTime()</text>
<text text-anchor="start" x="12" y="-455" font-family="Helvetica,sans-Serif" font-size="10.00">+</text>
<text text-anchor="start" x="25" y="-455" font-family="Helvetica,sans-Serif" font-size="10.00">serialize()</text>
<text text-anchor="start" x="12" y="-440" font-family="Helvetica,sans-Serif" font-size="10.00">+</text>
<text text-anchor="start" x="25" y="-440" font-family="Helvetica,sans-Serif" font-size="10.00">floorTime()</text>
<text text-anchor="start" x="12" y="-425" font-family="Helvetica,sans-Serif" font-size="10.00">+</text>
<text text-anchor="start" x="25" y="-425" font-family="Helvetica,sans-Serif" font-size="10.00">gregString()</text>
<text text-anchor="start" x="12" y="-410" font-family="Helvetica,sans-Serif" font-size="10.00">+</text>
<text text-anchor="start" x="25" y="-410" font-family="Helvetica,sans-Serif" font-size="10.00">operator long double()</text>
<text text-anchor="start" x="12" y="-395" font-family="Helvetica,sans-Serif" font-size="10.00">+</text>
<text text-anchor="start" x="25" y="-395" font-family="Helvetica,sans-Serif" font-size="10.00">operator MjDateTT()</text>
<text text-anchor="start" x="12" y="-380" font-family="Helvetica,sans-Serif" font-size="10.00">+</text>
<text text-anchor="start" x="25" y="-380" font-family="Helvetica,sans-Serif" font-size="10.00">operator GEpoch()</text>
<text text-anchor="start" x="12" y="-365" font-family="Helvetica,sans-Serif" font-size="10.00">+</text>
<text text-anchor="start" x="25" y="-365" font-family="Helvetica,sans-Serif" font-size="10.00">operator UtcTime()</text>
<text text-anchor="start" x="12" y="-350" font-family="Helvetica,sans-Serif" font-size="10.00">+</text>
<text text-anchor="start" x="25" y="-350" font-family="Helvetica,sans-Serif" font-size="10.00">operator GWeek()</text>
<text text-anchor="start" x="12" y="-335" font-family="Helvetica,sans-Serif" font-size="10.00">+</text>
<text text-anchor="start" x="25" y="-335" font-family="Helvetica,sans-Serif" font-size="10.00">operator BWeek()</text>
<text text-anchor="start" x="12" y="-320" font-family="Helvetica,sans-Serif" font-size="10.00">+</text>
<text text-anchor="start" x="25" y="-320" font-family="Helvetica,sans-Serif" font-size="10.00">operator GTow()</text>
<text text-anchor="start" x="12" y="-305" font-family="Helvetica,sans-Serif" font-size="10.00">+</text>
<text text-anchor="start" x="25" y="-305" font-family="Helvetica,sans-Serif" font-size="10.00">operator BTow()</text>
<text text-anchor="start" x="12" y="-290" font-family="Helvetica,sans-Serif" font-size="10.00">+</text>
<text text-anchor="start" x="25" y="-290" font-family="Helvetica,sans-Serif" font-size="10.00">operator PTime()</text>
<text text-anchor="start" x="12" y="-275" font-family="Helvetica,sans-Serif" font-size="10.00">+</text>
<text text-anchor="start" x="25" y="-275" font-family="Helvetica,sans-Serif" font-size="10.00">operator string()</text>
<text text-anchor="start" x="12" y="-260" font-family="Helvetica,sans-Serif" font-size="10.00">+</text>
<text text-anchor="start" x="25" y="-260" font-family="Helvetica,sans-Serif" font-size="10.00">operator RTod()</text>
<text text-anchor="start" x="12" y="-245" font-family="Helvetica,sans-Serif" font-size="10.00">+</text>
<text text-anchor="start" x="25" y="-245" font-family="Helvetica,sans-Serif" font-size="10.00">noTime()</text>
<polygon fill="#666666" stroke="#666666" points="8,-885 8,-885 138,-885 138,-885 8,-885"/>
<polygon fill="#666666" stroke="#666666" points="8,-840 8,-840 23,-840 23,-840 8,-840"/>
<polygon fill="#666666" stroke="#666666" points="23,-840 23,-840 138,-840 138,-840 23,-840"/>
<polygon fill="none" stroke="#666666" points="8,-238 8,-902 138,-902 138,-238 8,-238"/>
</a>
</g>
</g>
<!-- Node2&#45;&gt;Node1 -->
<g id="edge1_Node000001_Node000002" class="edge">
<title>Node2&#45;&gt;Node1</title>
<g id="a_edge1_Node000001_Node000002"><a xlink:title=" ">
<path fill="none" stroke="#63b8ff" d="M80.97,-233.79C85.52,-205.18 91.41,-176.92 99,-150 99.6,-147.86 100.27,-145.71 100.99,-143.55"/>
<polygon fill="none" stroke="#63b8ff" points="101.07,-143.32 99.43,-136.3 105.28,-132.08 106.92,-139.1 101.07,-143.32"/>
</a>
</g>
<text text-anchor="middle" x="140.5" y="-191.5" font-family="Helvetica,sans-Serif" font-size="10.00" fill="grey"> +excludeTime</text>
<text text-anchor="middle" x="140.5" y="-180.5" font-family="Helvetica,sans-Serif" font-size="10.00" fill="grey">+modelYawTime</text>
<text text-anchor="middle" x="140.5" y="-169.5" font-family="Helvetica,sans-Serif" font-size="10.00" fill="grey">+startTime</text>
</g>
<!-- Node3 -->
<g id="Node000003" class="node">
<title>Node3</title>
<g id="a_Node000003"><a xlink:title=" ">
<path fill="white" stroke="#666666" d="M88,-1010C88,-1010 58,-1010 58,-1010 52,-1010 46,-1004 46,-998 46,-998 46,-965 46,-965 46,-959 52,-953 58,-953 58,-953 88,-953 88,-953 94,-953 100,-959 100,-965 100,-965 100,-998 100,-998 100,-1004 94,-1010 88,-1010"/>
<text text-anchor="start" x="59" y="-993.5" font-family="Helvetica,sans-Serif" font-size="10.00">string</text>
<text text-anchor="start" x="71" y="-978.5" font-family="Helvetica,sans-Serif" font-size="10.00"> </text>
<text text-anchor="start" x="71" y="-963.5" font-family="Helvetica,sans-Serif" font-size="10.00"> </text>
<polygon fill="#666666" stroke="#666666" points="54,-988.5 54,-988.5 92,-988.5 92,-988.5 54,-988.5"/>
<polygon fill="#666666" stroke="#666666" points="54,-973.5 54,-973.5 92,-973.5 92,-973.5 54,-973.5"/>
<polygon fill="none" stroke="#666666" points="54,-957 54,-1006 92,-1006 92,-957 54,-957"/>
</a>
</g>
</g>
<!-- Node3&#45;&gt;Node2 -->
<g id="edge2_Node000002_Node000003" class="edge">
<title>Node3&#45;&gt;Node2</title>
<g id="a_edge2_Node000002_Node000003"><a xlink:title=" ">
<path fill="none" stroke="#63b8ff" d="M73,-953C73,-943.43 73,-931.7 73,-918.37"/>
<polygon fill="none" stroke="#63b8ff" points="73,-918.26 69,-912.26 73,-906.26 77,-912.26 73,-918.26"/>
</a>
</g>
<text text-anchor="middle" x="107.5" y="-927" font-family="Helvetica,sans-Serif" font-size="10.00" fill="grey"> +cacheString</text>
</g>
<!-- Node4 -->
<g id="Node000004" class="node">
<title>Node4</title>
<g id="a_Node000004"><a xlink:href="structVectorEcef.html" target="_top" xlink:title=" ">
<path fill="white" stroke="#666666" d="M249.5,-636C249.5,-636 176.5,-636 176.5,-636 170.5,-636 164.5,-630 164.5,-624 164.5,-624 164.5,-516 164.5,-516 164.5,-510 170.5,-504 176.5,-504 176.5,-504 249.5,-504 249.5,-504 255.5,-504 261.5,-510 261.5,-516 261.5,-516 261.5,-624 261.5,-624 261.5,-630 255.5,-636 249.5,-636"/>
<text text-anchor="start" x="187.5" y="-620" font-family="Helvetica,sans-Serif" font-size="10.00">VectorEcef</text>
<text text-anchor="start" x="211.5" y="-605" font-family="Helvetica,sans-Serif" font-size="10.00"> </text>
<text text-anchor="start" x="177" y="-590" font-family="Helvetica,sans-Serif" font-size="10.00">+</text>
<text text-anchor="start" x="190" y="-590" font-family="Helvetica,sans-Serif" font-size="10.00">VectorEcef()</text>
<text text-anchor="start" x="177" y="-575" font-family="Helvetica,sans-Serif" font-size="10.00">+</text>
<text text-anchor="start" x="190" y="-575" font-family="Helvetica,sans-Serif" font-size="10.00">VectorEcef()</text>
<text text-anchor="start" x="177" y="-560" font-family="Helvetica,sans-Serif" font-size="10.00">+</text>
<text text-anchor="start" x="190" y="-560" font-family="Helvetica,sans-Serif" font-size="10.00">operator=()</text>
<text text-anchor="start" x="177" y="-545" font-family="Helvetica,sans-Serif" font-size="10.00">+</text>
<text text-anchor="start" x="190" y="-545" font-family="Helvetica,sans-Serif" font-size="10.00">operator*()</text>
<text text-anchor="start" x="177" y="-530" font-family="Helvetica,sans-Serif" font-size="10.00">+</text>
<text text-anchor="start" x="190" y="-530" font-family="Helvetica,sans-Serif" font-size="10.00">operator&#45;()</text>
<text text-anchor="start" x="177" y="-515" font-family="Helvetica,sans-Serif" font-size="10.00">+</text>
<text text-anchor="start" x="190" y="-515" font-family="Helvetica,sans-Serif" font-size="10.00">operator+()</text>
<polygon fill="#666666" stroke="#666666" points="173,-615 173,-615 254,-615 254,-615 173,-615"/>
<polygon fill="#666666" stroke="#666666" points="173,-600 173,-600 254,-600 254,-600 173,-600"/>
<polygon fill="none" stroke="#666666" points="172.5,-508 172.5,-632 253.5,-632 253.5,-508 172.5,-508"/>
</a>
</g>
</g>
<!-- Node4&#45;&gt;Node1 -->
<g id="edge3_Node000001_Node000004" class="edge">
<title>Node4&#45;&gt;Node1</title>
<g id="a_edge3_Node000001_Node000004"><a xlink:title=" ">
<path fill="none" stroke="#63b8ff" d="M215.43,-503.92C216.92,-420.5 214.02,-272.06 182,-150 181.47,-147.99 180.9,-145.97 180.28,-143.94"/>
<polygon fill="none" stroke="#63b8ff" points="180.2,-143.69 174.48,-139.29 176.34,-132.33 182.05,-136.72 180.2,-143.69"/>
</a>
</g>
<text text-anchor="middle" x="218" y="-208" font-family="Helvetica,sans-Serif" font-size="10.00" fill="grey"> +eXAnt</text>
<text text-anchor="middle" x="218" y="-197" font-family="Helvetica,sans-Serif" font-size="10.00" fill="grey">+eXBody</text>
<text text-anchor="middle" x="218" y="-186" font-family="Helvetica,sans-Serif" font-size="10.00" fill="grey">+eYAnt</text>
<text text-anchor="middle" x="218" y="-175" font-family="Helvetica,sans-Serif" font-size="10.00" fill="grey">+eYBody</text>
<text text-anchor="middle" x="218" y="-164" font-family="Helvetica,sans-Serif" font-size="10.00" fill="grey">+eZAnt</text>
<text text-anchor="middle" x="218" y="-153" font-family="Helvetica,sans-Serif" font-size="10.00" fill="grey">+eZBody</text>
</g>
<!-- Node5 -->
<g id="Node000005" class="node">
<title>Node5</title>
<g id="a_Node000005"><a xlink:title=" ">
<path fill="white" stroke="#666666" d="M235.5,-1010C235.5,-1010 190.5,-1010 190.5,-1010 184.5,-1010 178.5,-1004 178.5,-998 178.5,-998 178.5,-965 178.5,-965 178.5,-959 184.5,-953 190.5,-953 190.5,-953 235.5,-953 235.5,-953 241.5,-953 247.5,-959 247.5,-965 247.5,-965 247.5,-998 247.5,-998 247.5,-1004 241.5,-1010 235.5,-1010"/>
<text text-anchor="start" x="192" y="-993.5" font-family="Helvetica,sans-Serif" font-size="10.00">Vector3d</text>
<text text-anchor="start" x="211.5" y="-978.5" font-family="Helvetica,sans-Serif" font-size="10.00"> </text>
<text text-anchor="start" x="211.5" y="-963.5" font-family="Helvetica,sans-Serif" font-size="10.00"> </text>
<polygon fill="#666666" stroke="#666666" points="187,-988.5 187,-988.5 240,-988.5 240,-988.5 187,-988.5"/>
<polygon fill="#666666" stroke="#666666" points="187,-973.5 187,-973.5 240,-973.5 240,-973.5 187,-973.5"/>
<polygon fill="none" stroke="#666666" points="186.5,-957 186.5,-1006 239.5,-1006 239.5,-957 186.5,-957"/>
</a>
</g>
</g>
<!-- Node5&#45;&gt;Node4 -->
<g id="edge4_Node000004_Node000005" class="edge">
<title>Node5&#45;&gt;Node4</title>
<g id="a_edge4_Node000004_Node000005"><a xlink:title=" ">
<path fill="none" stroke="#63b8ff" d="M213,-942.9C213,-873.1 213,-722.72 213,-636.08"/>
<polygon fill="none" stroke="#63b8ff" points="209.5,-943 213,-953 216.5,-943 209.5,-943"/>
</a>
</g>
</g>
</g>
</svg>
