<?xml version="1.0" encoding="UTF-8" standalone="no"?>
<!DOCTYPE svg PUBLIC "-//W3C//DTD SVG 1.1//EN"
 "http://www.w3.org/Graphics/SVG/1.1/DTD/svg11.dtd">
<!-- Generated by graphviz version 2.43.0 (0)
 -->
<!-- Title: SphComp Pages: 1 -->
<svg width="88pt" height="140pt"
 viewBox="0.00 0.00 88.00 140.00" xmlns="http://www.w3.org/2000/svg" xmlns:xlink="http://www.w3.org/1999/xlink">
<g id="graph0" class="graph" transform="scale(1 1) rotate(0) translate(4 136)">
<title>SphComp</title>
<!-- Node1 -->
<g id="Node000001" class="node">
<title>Node1</title>
<g id="a_Node000001"><a xlink:href="structSphComp.html" target="_top" xlink:title=" ">
<path fill="white" stroke="#666666" stroke-width="2" d="M68,-132C68,-132 12,-132 12,-132 6,-132 0,-126 0,-120 0,-120 0,-12 0,-12 0,-6 6,0 12,0 12,0 68,0 68,0 74,0 80,-6 80,-12 80,-12 80,-120 80,-120 80,-126 74,-132 68,-132"/>
<text text-anchor="start" x="16.5" y="-116" font-family="Helvetica,sans-Serif" font-size="10.00">SphComp</text>
<text text-anchor="start" x="12" y="-101" font-family="Helvetica,sans-Serif" font-size="10.00">+</text>
<text text-anchor="start" x="25" y="-101" font-family="Helvetica,sans-Serif" font-size="10.00">layer</text>
<text text-anchor="start" x="12" y="-86" font-family="Helvetica,sans-Serif" font-size="10.00">+</text>
<text text-anchor="start" x="25" y="-86" font-family="Helvetica,sans-Serif" font-size="10.00">order</text>
<text text-anchor="start" x="12" y="-71" font-family="Helvetica,sans-Serif" font-size="10.00">+</text>
<text text-anchor="start" x="25" y="-71" font-family="Helvetica,sans-Serif" font-size="10.00">degree</text>
<text text-anchor="start" x="12" y="-56" font-family="Helvetica,sans-Serif" font-size="10.00">+</text>
<text text-anchor="start" x="25" y="-56" font-family="Helvetica,sans-Serif" font-size="10.00">trigType</text>
<text text-anchor="start" x="12" y="-41" font-family="Helvetica,sans-Serif" font-size="10.00">+</text>
<text text-anchor="start" x="25" y="-41" font-family="Helvetica,sans-Serif" font-size="10.00">value</text>
<text text-anchor="start" x="12" y="-26" font-family="Helvetica,sans-Serif" font-size="10.00">+</text>
<text text-anchor="start" x="25" y="-26" font-family="Helvetica,sans-Serif" font-size="10.00">variance</text>
<text text-anchor="start" x="38" y="-11" font-family="Helvetica,sans-Serif" font-size="10.00"> </text>
<polygon fill="#666666" stroke="#666666" points="8,-111 8,-111 72,-111 72,-111 8,-111"/>
<polygon fill="#666666" stroke="#666666" points="8,-21 8,-21 23,-21 23,-21 8,-21"/>
<polygon fill="#666666" stroke="#666666" points="23,-21 23,-21 72,-21 72,-21 23,-21"/>
<polygon fill="none" stroke="#666666" points="8,-4 8,-128 72,-128 72,-4 8,-4"/>
</a>
</g>
</g>
</g>
</svg>
