<?xml version="1.0" encoding="UTF-8" standalone="no"?>
<!DOCTYPE svg PUBLIC "-//W3C//DTD SVG 1.1//EN"
 "http://www.w3.org/Graphics/SVG/1.1/DTD/svg11.dtd">
<!-- Generated by graphviz version 2.43.0 (0)
 -->
<!-- Title: RtcmEncoder Pages: 1 -->
<svg width="198pt" height="926pt"
 viewBox="0.00 0.00 198.00 926.00" xmlns="http://www.w3.org/2000/svg" xmlns:xlink="http://www.w3.org/1999/xlink">
<g id="graph0" class="graph" transform="scale(1 1) rotate(0) translate(4 922)">
<title>RtcmEncoder</title>
<!-- Node1 -->
<g id="Node000001" class="node">
<title>Node1</title>
<g id="a_Node000001"><a xlink:href="structRtcmEncoder.html" target="_top" xlink:title=" ">
<path fill="white" stroke="#666666" stroke-width="2" d="M178,-585C178,-585 12,-585 12,-585 6,-585 0,-579 0,-573 0,-573 0,-315 0,-315 0,-309 6,-303 12,-303 12,-303 178,-303 178,-303 184,-303 190,-309 190,-315 190,-315 190,-573 190,-573 190,-579 184,-585 178,-585"/>
<text text-anchor="start" x="62.5" y="-569" font-family="Helvetica,sans-Serif" font-size="10.00">RtcmEncoder</text>
<text text-anchor="start" x="12" y="-554" font-family="Helvetica,sans-Serif" font-size="10.00">+</text>
<text text-anchor="start" x="25" y="-554" font-family="Helvetica,sans-Serif" font-size="10.00">data</text>
<text text-anchor="start" x="12" y="-539" font-family="Helvetica,sans-Serif" font-size="10.00">+</text>
<text text-anchor="start" x="25" y="-539" font-family="Helvetica,sans-Serif" font-size="10.00">masterIod</text>
<text text-anchor="start" x="12" y="-524" font-family="Helvetica,sans-Serif" font-size="10.00">+</text>
<text text-anchor="start" x="25" y="-524" font-family="Helvetica,sans-Serif" font-size="10.00">lastRegSsrEphMap</text>
<text text-anchor="start" x="12" y="-509" font-family="Helvetica,sans-Serif" font-size="10.00">+</text>
<text text-anchor="start" x="25" y="-509" font-family="Helvetica,sans-Serif" font-size="10.00">lastRegSsrClkMap</text>
<text text-anchor="start" x="12" y="-494" font-family="Helvetica,sans-Serif" font-size="10.00">+</text>
<text text-anchor="start" x="25" y="-494" font-family="Helvetica,sans-Serif" font-size="10.00">updateInterval</text>
<text text-anchor="start" x="12" y="-479" font-family="Helvetica,sans-Serif" font-size="10.00">+</text>
<text text-anchor="start" x="25" y="-479" font-family="Helvetica,sans-Serif" font-size="10.00">RtcmEncoder()</text>
<text text-anchor="start" x="12" y="-464" font-family="Helvetica,sans-Serif" font-size="10.00">+</text>
<text text-anchor="start" x="25" y="-464" font-family="Helvetica,sans-Serif" font-size="10.00">encodeWriteMessages()</text>
<text text-anchor="start" x="12" y="-449" font-family="Helvetica,sans-Serif" font-size="10.00">+</text>
<text text-anchor="start" x="25" y="-449" font-family="Helvetica,sans-Serif" font-size="10.00">encodeWriteMessageToBuffer()</text>
<text text-anchor="start" x="12" y="-434" font-family="Helvetica,sans-Serif" font-size="10.00">+</text>
<text text-anchor="start" x="25" y="-434" font-family="Helvetica,sans-Serif" font-size="10.00">encodeTimeStampRTCM()</text>
<text text-anchor="start" x="12" y="-419" font-family="Helvetica,sans-Serif" font-size="10.00">+</text>
<text text-anchor="start" x="25" y="-419" font-family="Helvetica,sans-Serif" font-size="10.00">encodeSsrHeader()</text>
<text text-anchor="start" x="12" y="-404" font-family="Helvetica,sans-Serif" font-size="10.00">+</text>
<text text-anchor="start" x="25" y="-404" font-family="Helvetica,sans-Serif" font-size="10.00">encodeSsrOrbClk()</text>
<text text-anchor="start" x="12" y="-389" font-family="Helvetica,sans-Serif" font-size="10.00">+</text>
<text text-anchor="start" x="25" y="-389" font-family="Helvetica,sans-Serif" font-size="10.00">encodeSsrUra()</text>
<text text-anchor="start" x="12" y="-374" font-family="Helvetica,sans-Serif" font-size="10.00">+</text>
<text text-anchor="start" x="25" y="-374" font-family="Helvetica,sans-Serif" font-size="10.00">encodeSsrCode()</text>
<text text-anchor="start" x="12" y="-359" font-family="Helvetica,sans-Serif" font-size="10.00">+</text>
<text text-anchor="start" x="25" y="-359" font-family="Helvetica,sans-Serif" font-size="10.00">encodeSsrPhase()</text>
<text text-anchor="start" x="12" y="-344" font-family="Helvetica,sans-Serif" font-size="10.00">+</text>
<text text-anchor="start" x="25" y="-344" font-family="Helvetica,sans-Serif" font-size="10.00">encodeEphemeris()</text>
<text text-anchor="start" x="12" y="-329" font-family="Helvetica,sans-Serif" font-size="10.00">+</text>
<text text-anchor="start" x="25" y="-329" font-family="Helvetica,sans-Serif" font-size="10.00">encodeEphemeris()</text>
<text text-anchor="start" x="12" y="-314" font-family="Helvetica,sans-Serif" font-size="10.00">+</text>
<text text-anchor="start" x="25" y="-314" font-family="Helvetica,sans-Serif" font-size="10.00">getUdiIndex()</text>
<polygon fill="#666666" stroke="#666666" points="8,-564 8,-564 182,-564 182,-564 8,-564"/>
<polygon fill="#666666" stroke="#666666" points="8,-489 8,-489 23,-489 23,-489 8,-489"/>
<polygon fill="#666666" stroke="#666666" points="23,-489 23,-489 182,-489 182,-489 23,-489"/>
<polygon fill="none" stroke="#666666" points="8,-307 8,-581 182,-581 182,-307 8,-307"/>
</a>
</g>
</g>
<!-- Node3 -->
<g id="Node000003" class="node">
<title>Node3</title>
<g id="a_Node000003"><a xlink:href="structNtripUploader.html" target="_top" xlink:title=" ">
<path fill="white" stroke="#666666" d="M167,-267C167,-267 23,-267 23,-267 17,-267 11,-261 11,-255 11,-255 11,-12 11,-12 11,-6 17,0 23,0 23,0 167,0 167,0 173,0 179,-6 179,-12 179,-12 179,-255 179,-255 179,-261 173,-267 167,-267"/>
<text text-anchor="start" x="60.5" y="-250.5" font-family="Helvetica,sans-Serif" font-size="10.00">NtripUploader</text>
<text text-anchor="start" x="23" y="-235.5" font-family="Helvetica,sans-Serif" font-size="10.00">+</text>
<text text-anchor="start" x="36" y="-235.5" font-family="Helvetica,sans-Serif" font-size="10.00">timeNextMessage</text>
<text text-anchor="start" x="23" y="-220.5" font-family="Helvetica,sans-Serif" font-size="10.00">+</text>
<text text-anchor="start" x="36" y="-220.5" font-family="Helvetica,sans-Serif" font-size="10.00">outMessagesMtx</text>
<text text-anchor="start" x="23" y="-205.5" font-family="Helvetica,sans-Serif" font-size="10.00">+</text>
<text text-anchor="start" x="36" y="-205.5" font-family="Helvetica,sans-Serif" font-size="10.00">outMessages</text>
<text text-anchor="start" x="23" y="-190.5" font-family="Helvetica,sans-Serif" font-size="10.00">+</text>
<text text-anchor="start" x="36" y="-190.5" font-family="Helvetica,sans-Serif" font-size="10.00">sendTimer</text>
<text text-anchor="start" x="23" y="-175.5" font-family="Helvetica,sans-Serif" font-size="10.00">+</text>
<text text-anchor="start" x="36" y="-175.5" font-family="Helvetica,sans-Serif" font-size="10.00">numberChunksSent</text>
<text text-anchor="start" x="23" y="-160.5" font-family="Helvetica,sans-Serif" font-size="10.00">+</text>
<text text-anchor="start" x="36" y="-160.5" font-family="Helvetica,sans-Serif" font-size="10.00">previousTargetTime</text>
<text text-anchor="start" x="23" y="-145.5" font-family="Helvetica,sans-Serif" font-size="10.00">+</text>
<text text-anchor="start" x="36" y="-145.5" font-family="Helvetica,sans-Serif" font-size="10.00">ntripStr</text>
<text text-anchor="start" x="23" y="-130.5" font-family="Helvetica,sans-Serif" font-size="10.00">+</text>
<text text-anchor="start" x="36" y="-130.5" font-family="Helvetica,sans-Serif" font-size="10.00">id</text>
<text text-anchor="start" x="23" y="-115.5" font-family="Helvetica,sans-Serif" font-size="10.00">+</text>
<text text-anchor="start" x="36" y="-115.5" font-family="Helvetica,sans-Serif" font-size="10.00">streamConfig</text>
<text text-anchor="start" x="23" y="-100.5" font-family="Helvetica,sans-Serif" font-size="10.00">+</text>
<text text-anchor="start" x="36" y="-100.5" font-family="Helvetica,sans-Serif" font-size="10.00">NtripUploader()</text>
<text text-anchor="start" x="23" y="-85.5" font-family="Helvetica,sans-Serif" font-size="10.00">+</text>
<text text-anchor="start" x="36" y="-85.5" font-family="Helvetica,sans-Serif" font-size="10.00">startBroadcast()</text>
<text text-anchor="start" x="23" y="-70.5" font-family="Helvetica,sans-Serif" font-size="10.00">+</text>
<text text-anchor="start" x="36" y="-70.5" font-family="Helvetica,sans-Serif" font-size="10.00">connected()</text>
<text text-anchor="start" x="23" y="-55.5" font-family="Helvetica,sans-Serif" font-size="10.00">+</text>
<text text-anchor="start" x="36" y="-55.5" font-family="Helvetica,sans-Serif" font-size="10.00">messageTimeoutHandler()</text>
<text text-anchor="start" x="23" y="-40.5" font-family="Helvetica,sans-Serif" font-size="10.00">+</text>
<text text-anchor="start" x="36" y="-40.5" font-family="Helvetica,sans-Serif" font-size="10.00">writeHandler()</text>
<text text-anchor="start" x="23" y="-25.5" font-family="Helvetica,sans-Serif" font-size="10.00">+</text>
<text text-anchor="start" x="36" y="-25.5" font-family="Helvetica,sans-Serif" font-size="10.00">serverResponse()</text>
<text text-anchor="start" x="23" y="-10.5" font-family="Helvetica,sans-Serif" font-size="10.00">+</text>
<text text-anchor="start" x="36" y="-10.5" font-family="Helvetica,sans-Serif" font-size="10.00">getJsonNetworkStatistics()</text>
<polygon fill="#666666" stroke="#666666" points="19,-245.5 19,-245.5 171,-245.5 171,-245.5 19,-245.5"/>
<polygon fill="#666666" stroke="#666666" points="19,-110.5 19,-110.5 34,-110.5 34,-110.5 19,-110.5"/>
<polygon fill="#666666" stroke="#666666" points="34,-110.5 34,-110.5 171,-110.5 171,-110.5 34,-110.5"/>
<polygon fill="none" stroke="#666666" points="19,-4 19,-263 171,-263 171,-4 19,-4"/>
</a>
</g>
</g>
<!-- Node1&#45;&gt;Node3 -->
<g id="edge2_Node000001_Node000003" class="edge">
<title>Node1&#45;&gt;Node3</title>
<g id="a_edge2_Node000001_Node000003"><a xlink:title=" ">
<path fill="none" stroke="#63b8ff" d="M95,-292.51C95,-284.1 95,-275.69 95,-267.35"/>
<polygon fill="none" stroke="#63b8ff" points="91.5,-292.74 95,-302.74 98.5,-292.74 91.5,-292.74"/>
</a>
</g>
</g>
<!-- Node2 -->
<g id="Node000002" class="node">
<title>Node2</title>
<g id="a_Node000002"><a xlink:href="structRtcmTrace.html" target="_top" xlink:title=" ">
<path fill="white" stroke="#666666" d="M151.5,-918C151.5,-918 38.5,-918 38.5,-918 32.5,-918 26.5,-912 26.5,-906 26.5,-906 26.5,-633 26.5,-633 26.5,-627 32.5,-621 38.5,-621 38.5,-621 151.5,-621 151.5,-621 157.5,-621 163.5,-627 163.5,-633 163.5,-633 163.5,-906 163.5,-906 163.5,-912 157.5,-918 151.5,-918"/>
<text text-anchor="start" x="69.5" y="-901.5" font-family="Helvetica,sans-Serif" font-size="10.00">RtcmTrace</text>
<text text-anchor="start" x="39" y="-886.5" font-family="Helvetica,sans-Serif" font-size="10.00">+</text>
<text text-anchor="start" x="52" y="-886.5" font-family="Helvetica,sans-Serif" font-size="10.00">rtcmTraceFilename</text>
<text text-anchor="start" x="39" y="-871.5" font-family="Helvetica,sans-Serif" font-size="10.00">+</text>
<text text-anchor="start" x="52" y="-871.5" font-family="Helvetica,sans-Serif" font-size="10.00">rtcmMountpoint</text>
<text text-anchor="start" x="39" y="-856.5" font-family="Helvetica,sans-Serif" font-size="10.00">+</text>
<text text-anchor="start" x="52" y="-856.5" font-family="Helvetica,sans-Serif" font-size="10.00">qzssL6</text>
<text text-anchor="start" x="39" y="-841.5" font-family="Helvetica,sans-Serif" font-size="10.00">+</text>
<text text-anchor="start" x="52" y="-841.5" font-family="Helvetica,sans-Serif" font-size="10.00">RtcmTrace()</text>
<text text-anchor="start" x="39" y="-826.5" font-family="Helvetica,sans-Serif" font-size="10.00">+</text>
<text text-anchor="start" x="52" y="-826.5" font-family="Helvetica,sans-Serif" font-size="10.00">networkLog()</text>
<text text-anchor="start" x="39" y="-811.5" font-family="Helvetica,sans-Serif" font-size="10.00">+</text>
<text text-anchor="start" x="52" y="-811.5" font-family="Helvetica,sans-Serif" font-size="10.00">messageChunkLog()</text>
<text text-anchor="start" x="39" y="-796.5" font-family="Helvetica,sans-Serif" font-size="10.00">+</text>
<text text-anchor="start" x="52" y="-796.5" font-family="Helvetica,sans-Serif" font-size="10.00">messageRtcmLog()</text>
<text text-anchor="start" x="39" y="-781.5" font-family="Helvetica,sans-Serif" font-size="10.00">+</text>
<text text-anchor="start" x="52" y="-781.5" font-family="Helvetica,sans-Serif" font-size="10.00">traceSsrEph()</text>
<text text-anchor="start" x="39" y="-766.5" font-family="Helvetica,sans-Serif" font-size="10.00">+</text>
<text text-anchor="start" x="52" y="-766.5" font-family="Helvetica,sans-Serif" font-size="10.00">traceSsrClk()</text>
<text text-anchor="start" x="39" y="-751.5" font-family="Helvetica,sans-Serif" font-size="10.00">+</text>
<text text-anchor="start" x="52" y="-751.5" font-family="Helvetica,sans-Serif" font-size="10.00">traceSsrUra()</text>
<text text-anchor="start" x="39" y="-736.5" font-family="Helvetica,sans-Serif" font-size="10.00">+</text>
<text text-anchor="start" x="52" y="-736.5" font-family="Helvetica,sans-Serif" font-size="10.00">traceSsrHRClk()</text>
<text text-anchor="start" x="39" y="-721.5" font-family="Helvetica,sans-Serif" font-size="10.00">+</text>
<text text-anchor="start" x="52" y="-721.5" font-family="Helvetica,sans-Serif" font-size="10.00">traceSsrCodeBias()</text>
<text text-anchor="start" x="39" y="-706.5" font-family="Helvetica,sans-Serif" font-size="10.00">+</text>
<text text-anchor="start" x="52" y="-706.5" font-family="Helvetica,sans-Serif" font-size="10.00">traceSsrPhasBias()</text>
<text text-anchor="start" x="39" y="-691.5" font-family="Helvetica,sans-Serif" font-size="10.00">+</text>
<text text-anchor="start" x="52" y="-691.5" font-family="Helvetica,sans-Serif" font-size="10.00">traceTimestamp()</text>
<text text-anchor="start" x="39" y="-676.5" font-family="Helvetica,sans-Serif" font-size="10.00">+</text>
<text text-anchor="start" x="52" y="-676.5" font-family="Helvetica,sans-Serif" font-size="10.00">traceBrdcEph()</text>
<text text-anchor="start" x="39" y="-661.5" font-family="Helvetica,sans-Serif" font-size="10.00">+</text>
<text text-anchor="start" x="52" y="-661.5" font-family="Helvetica,sans-Serif" font-size="10.00">traceBrdcEph()</text>
<text text-anchor="start" x="39" y="-646.5" font-family="Helvetica,sans-Serif" font-size="10.00">+</text>
<text text-anchor="start" x="52" y="-646.5" font-family="Helvetica,sans-Serif" font-size="10.00">traceMSM()</text>
<text text-anchor="start" x="39" y="-631.5" font-family="Helvetica,sans-Serif" font-size="10.00">+</text>
<text text-anchor="start" x="52" y="-631.5" font-family="Helvetica,sans-Serif" font-size="10.00">traceUnknown()</text>
<polygon fill="#666666" stroke="#666666" points="35,-896.5 35,-896.5 156,-896.5 156,-896.5 35,-896.5"/>
<polygon fill="#666666" stroke="#666666" points="35,-851.5 35,-851.5 50,-851.5 50,-851.5 35,-851.5"/>
<polygon fill="#666666" stroke="#666666" points="50,-851.5 50,-851.5 156,-851.5 156,-851.5 50,-851.5"/>
<polygon fill="none" stroke="#666666" points="34.5,-625 34.5,-914 155.5,-914 155.5,-625 34.5,-625"/>
</a>
</g>
</g>
<!-- Node2&#45;&gt;Node1 -->
<g id="edge1_Node000001_Node000002" class="edge">
<title>Node2&#45;&gt;Node1</title>
<g id="a_edge1_Node000001_Node000002"><a xlink:title=" ">
<path fill="none" stroke="#63b8ff" d="M95,-610.95C95,-602.42 95,-593.87 95,-585.41"/>
<polygon fill="none" stroke="#63b8ff" points="91.5,-610.95 95,-620.95 98.5,-610.95 91.5,-610.95"/>
</a>
</g>
</g>
</g>
</svg>
