<?xml version="1.0" encoding="UTF-8" standalone="no"?>
<!DOCTYPE svg PUBLIC "-//W3C//DTD SVG 1.1//EN"
 "http://www.w3.org/Graphics/SVG/1.1/DTD/svg11.dtd">
<!-- Generated by graphviz version 2.43.0 (0)
 -->
<!-- Title: GTime::operator GTow Pages: 1 -->
<svg width="282pt" height="27pt"
 viewBox="0.00 0.00 282.00 27.00" xmlns="http://www.w3.org/2000/svg" xmlns:xlink="http://www.w3.org/1999/xlink">
<g id="graph0" class="graph" transform="scale(1 1) rotate(0) translate(4 23)">
<title>GTime::operator GTow</title>
<!-- Node1 -->
<g id="Node000001" class="node">
<title>Node1</title>
<g id="a_Node000001"><a xlink:href="structGTime.html#ae7d017943694b0d08d0d2d9574ccd157" target="_top" xlink:title=" ">
<path fill="#fff0f0" stroke="red" stroke-width="2" d="M118.67,-19C118.67,-19 6.33,-19 6.33,-19 3.17,-19 0,-15.83 0,-12.67 0,-12.67 0,-6.33 0,-6.33 0,-3.17 3.17,0 6.33,0 6.33,0 118.67,0 118.67,0 121.83,0 125,-3.17 125,-6.33 125,-6.33 125,-12.67 125,-12.67 125,-15.83 121.83,-19 118.67,-19"/>
<text text-anchor="middle" x="62.5" y="-7" font-family="Helvetica,sans-Serif" font-size="10.00">GTime::operator GTow</text>
</a>
</g>
</g>
<!-- Node2 -->
<g id="Node000002" class="node">
<title>Node2</title>
<g id="a_Node000002"><a xlink:href="structDuration.html#a76e22d65c9f48ad9eb4e65cce4c8e415" target="_top" xlink:title=" ">
<path fill="#fff0f0" stroke="red" d="M267.67,-19C267.67,-19 167.33,-19 167.33,-19 164.17,-19 161,-15.83 161,-12.67 161,-12.67 161,-6.33 161,-6.33 161,-3.17 164.17,0 167.33,0 167.33,0 267.67,0 267.67,0 270.83,0 274,-3.17 274,-6.33 274,-6.33 274,-12.67 274,-12.67 274,-15.83 270.83,-19 267.67,-19"/>
<text text-anchor="middle" x="217.5" y="-7" font-family="Helvetica,sans-Serif" font-size="10.00">Duration::to_double</text>
</a>
</g>
</g>
<!-- Node1&#45;&gt;Node2 -->
<g id="edge1_Node000001_Node000002" class="edge">
<title>Node1&#45;&gt;Node2</title>
<g id="a_edge1_Node000001_Node000002"><a xlink:title=" ">
<path fill="none" stroke="#63b8ff" d="M125.29,-9.5C133.66,-9.5 142.28,-9.5 150.72,-9.5"/>
<polygon fill="#63b8ff" stroke="#63b8ff" points="150.9,-13 160.9,-9.5 150.9,-6 150.9,-13"/>
</a>
</g>
</g>
</g>
</svg>
