<?xml version="1.0" encoding="UTF-8" standalone="no"?>
<!DOCTYPE svg PUBLIC "-//W3C//DTD SVG 1.1//EN"
 "http://www.w3.org/Graphics/SVG/1.1/DTD/svg11.dtd">
<!-- Generated by graphviz version 2.43.0 (0)
 -->
<!-- Title: StreamParser::parse Pages: 1 -->
<svg width="290pt" height="64pt"
 viewBox="0.00 0.00 290.00 64.00" xmlns="http://www.w3.org/2000/svg" xmlns:xlink="http://www.w3.org/1999/xlink">
<g id="graph0" class="graph" transform="scale(1 1) rotate(0) translate(4 60)">
<title>StreamParser::parse</title>
<!-- Node1 -->
<g id="Node000001" class="node">
<title>Node1</title>
<g id="a_Node000001"><a xlink:href="structStreamParser.html#a78ac18a6adf2850103320c9e2f05fc2e" target="_top" xlink:title=" ">
<path fill="#fff0f0" stroke="red" stroke-width="2" d="M108.67,-37C108.67,-37 6.33,-37 6.33,-37 3.17,-37 0,-33.83 0,-30.67 0,-30.67 0,-24.33 0,-24.33 0,-21.17 3.17,-18 6.33,-18 6.33,-18 108.67,-18 108.67,-18 111.83,-18 115,-21.17 115,-24.33 115,-24.33 115,-30.67 115,-30.67 115,-33.83 111.83,-37 108.67,-37"/>
<text text-anchor="middle" x="57.5" y="-25" font-family="Helvetica,sans-Serif" font-size="10.00">StreamParser::parse</text>
</a>
</g>
</g>
<!-- Node2 -->
<g id="Node000002" class="node">
<title>Node2</title>
<g id="a_Node000002"><a xlink:href="structStream.html#a342bc7a0cdb87de848ccd050ab8bf457" target="_top" xlink:title=" ">
<path fill="#fff0f0" stroke="red" d="M275.67,-56C275.67,-56 157.33,-56 157.33,-56 154.17,-56 151,-52.83 151,-49.67 151,-49.67 151,-43.33 151,-43.33 151,-40.17 154.17,-37 157.33,-37 157.33,-37 275.67,-37 275.67,-37 278.83,-37 282,-40.17 282,-43.33 282,-43.33 282,-49.67 282,-49.67 282,-52.83 278.83,-56 275.67,-56"/>
<text text-anchor="middle" x="216.5" y="-44" font-family="Helvetica,sans-Serif" font-size="10.00">Stream::getIStream_ptr</text>
</a>
</g>
</g>
<!-- Node1&#45;&gt;Node2 -->
<g id="edge1_Node000001_Node000002" class="edge">
<title>Node1&#45;&gt;Node2</title>
<g id="a_edge1_Node000001_Node000002"><a xlink:title=" ">
<path fill="none" stroke="#63b8ff" d="M115.18,-34.36C123.51,-35.37 132.2,-36.42 140.83,-37.46"/>
<polygon fill="#63b8ff" stroke="#63b8ff" points="140.56,-40.96 150.91,-38.68 141.4,-34.01 140.56,-40.96"/>
</a>
</g>
</g>
<!-- Node3 -->
<g id="Node000003" class="node">
<title>Node3</title>
<g id="a_Node000003"><a xlink:href="structParser.html#abf204bb143ddbec1c777239d6be42eee" target="_top" xlink:title=" ">
<path fill="#fff0f0" stroke="red" d="M250.17,-19C250.17,-19 182.83,-19 182.83,-19 179.67,-19 176.5,-15.83 176.5,-12.67 176.5,-12.67 176.5,-6.33 176.5,-6.33 176.5,-3.17 179.67,0 182.83,0 182.83,0 250.17,0 250.17,0 253.33,0 256.5,-3.17 256.5,-6.33 256.5,-6.33 256.5,-12.67 256.5,-12.67 256.5,-15.83 253.33,-19 250.17,-19"/>
<text text-anchor="middle" x="216.5" y="-7" font-family="Helvetica,sans-Serif" font-size="10.00">Parser::parse</text>
</a>
</g>
</g>
<!-- Node1&#45;&gt;Node3 -->
<g id="edge2_Node000001_Node000003" class="edge">
<title>Node1&#45;&gt;Node3</title>
<g id="a_edge2_Node000001_Node000003"><a xlink:title=" ">
<path fill="none" stroke="#63b8ff" d="M115.18,-21C131.75,-19.1 149.73,-17.04 165.83,-15.19"/>
<polygon fill="#63b8ff" stroke="#63b8ff" points="166.57,-18.63 176.11,-14.02 165.78,-11.68 166.57,-18.63"/>
</a>
</g>
</g>
</g>
</svg>
