<?xml version="1.0" encoding="UTF-8" standalone="no"?>
<!DOCTYPE svg PUBLIC "-//W3C//DTD SVG 1.1//EN"
 "http://www.w3.org/Graphics/SVG/1.1/DTD/svg11.dtd">
<!-- Generated by graphviz version 2.43.0 (0)
 -->
<!-- Title: MjDateUtc Pages: 1 -->
<svg width="105pt" height="95pt"
 viewBox="0.00 0.00 105.00 95.00" xmlns="http://www.w3.org/2000/svg" xmlns:xlink="http://www.w3.org/1999/xlink">
<g id="graph0" class="graph" transform="scale(1 1) rotate(0) translate(4 91)">
<title>MjDateUtc</title>
<!-- Node1 -->
<g id="Node000001" class="node">
<title>Node1</title>
<g id="a_Node000001"><a xlink:href="structMjDateUtc.html" target="_top" xlink:title=" ">
<path fill="white" stroke="#666666" stroke-width="2" d="M85,-87C85,-87 12,-87 12,-87 6,-87 0,-81 0,-75 0,-75 0,-12 0,-12 0,-6 6,0 12,0 12,0 85,0 85,0 91,0 97,-6 97,-12 97,-12 97,-75 97,-75 97,-81 91,-87 85,-87"/>
<text text-anchor="start" x="23" y="-70.5" font-family="Helvetica,sans-Serif" font-size="10.00">MjDateUtc</text>
<text text-anchor="start" x="12.5" y="-55.5" font-family="Helvetica,sans-Serif" font-size="10.00">+</text>
<text text-anchor="start" x="25.5" y="-55.5" font-family="Helvetica,sans-Serif" font-size="10.00">val</text>
<text text-anchor="start" x="12.5" y="-40.5" font-family="Helvetica,sans-Serif" font-size="10.00">+</text>
<text text-anchor="start" x="25.5" y="-40.5" font-family="Helvetica,sans-Serif" font-size="10.00">MjDateUtc()</text>
<text text-anchor="start" x="12.5" y="-25.5" font-family="Helvetica,sans-Serif" font-size="10.00">+</text>
<text text-anchor="start" x="25.5" y="-25.5" font-family="Helvetica,sans-Serif" font-size="10.00">MjDateUtc()</text>
<text text-anchor="start" x="12.5" y="-10.5" font-family="Helvetica,sans-Serif" font-size="10.00">+</text>
<text text-anchor="start" x="25.5" y="-10.5" font-family="Helvetica,sans-Serif" font-size="10.00">to_double()</text>
<polygon fill="#666666" stroke="#666666" points="8.5,-65.5 8.5,-65.5 89.5,-65.5 89.5,-65.5 8.5,-65.5"/>
<polygon fill="#666666" stroke="#666666" points="8.5,-50.5 8.5,-50.5 23.5,-50.5 23.5,-50.5 8.5,-50.5"/>
<polygon fill="#666666" stroke="#666666" points="23.5,-50.5 23.5,-50.5 89.5,-50.5 89.5,-50.5 23.5,-50.5"/>
<polygon fill="none" stroke="#666666" points="8,-4 8,-83 89,-83 89,-4 8,-4"/>
</a>
</g>
</g>
</g>
</svg>
