<?xml version="1.0" encoding="UTF-8" standalone="no"?>
<!DOCTYPE svg PUBLIC "-//W3C//DTD SVG 1.1//EN"
 "http://www.w3.org/Graphics/SVG/1.1/DTD/svg11.dtd">
<!-- Generated by graphviz version 2.43.0 (0)
 -->
<!-- Title: IcdDecoder::decodeGpsSubframe Pages: 1 -->
<svg width="395pt" height="27pt"
 viewBox="0.00 0.00 395.00 27.00" xmlns="http://www.w3.org/2000/svg" xmlns:xlink="http://www.w3.org/1999/xlink">
<g id="graph0" class="graph" transform="scale(1 1) rotate(0) translate(4 23)">
<title>IcdDecoder::decodeGpsSubframe</title>
<!-- Node1 -->
<g id="Node000001" class="node">
<title>Node1</title>
<g id="a_Node000001"><a xlink:href="structIcdDecoder.html#afb7c938f9952f314e4959e98d1077682" target="_top" xlink:title=" ">
<path fill="#fff0f0" stroke="red" stroke-width="2" d="M380.67,-19C380.67,-19 214.33,-19 214.33,-19 211.17,-19 208,-15.83 208,-12.67 208,-12.67 208,-6.33 208,-6.33 208,-3.17 211.17,0 214.33,0 214.33,0 380.67,0 380.67,0 383.83,0 387,-3.17 387,-6.33 387,-6.33 387,-12.67 387,-12.67 387,-15.83 383.83,-19 380.67,-19"/>
<text text-anchor="middle" x="297.5" y="-7" font-family="Helvetica,sans-Serif" font-size="10.00">IcdDecoder::decodeGpsSubframe</text>
</a>
</g>
</g>
<!-- Node2 -->
<g id="Node000002" class="node">
<title>Node2</title>
<g id="a_Node000002"><a xlink:href="structUbxDecoder.html#a3edfc6fc421d31970881abd2f6db1f6d" target="_top" xlink:title=" ">
<path fill="#fff0f0" stroke="red" d="M165.67,-19C165.67,-19 6.33,-19 6.33,-19 3.17,-19 0,-15.83 0,-12.67 0,-12.67 0,-6.33 0,-6.33 0,-3.17 3.17,0 6.33,0 6.33,0 165.67,0 165.67,0 168.83,0 172,-3.17 172,-6.33 172,-6.33 172,-12.67 172,-12.67 172,-15.83 168.83,-19 165.67,-19"/>
<text text-anchor="middle" x="86" y="-7" font-family="Helvetica,sans-Serif" font-size="10.00">UbxDecoder::decodeEphFrames</text>
</a>
</g>
</g>
<!-- Node1&#45;&gt;Node2 -->
<g id="edge1_Node000001_Node000002" class="edge">
<title>Node1&#45;&gt;Node2</title>
<g id="a_edge1_Node000001_Node000002"><a xlink:title=" ">
<path fill="none" stroke="#63b8ff" d="M197.92,-9.5C189.33,-9.5 180.69,-9.5 172.22,-9.5"/>
<polygon fill="#63b8ff" stroke="#63b8ff" points="197.96,-13 207.96,-9.5 197.96,-6 197.96,-13"/>
</a>
</g>
</g>
</g>
</svg>
