<?xml version="1.0" encoding="UTF-8" standalone="no"?>
<!DOCTYPE svg PUBLIC "-//W3C//DTD SVG 1.1//EN"
 "http://www.w3.org/Graphics/SVG/1.1/DTD/svg11.dtd">
<!-- Generated by graphviz version 2.43.0 (0)
 -->
<!-- Title: XFormData Pages: 1 -->
<svg width="89pt" height="185pt"
 viewBox="0.00 0.00 89.00 185.00" xmlns="http://www.w3.org/2000/svg" xmlns:xlink="http://www.w3.org/1999/xlink">
<g id="graph0" class="graph" transform="scale(1 1) rotate(0) translate(4 181)">
<title>XFormData</title>
<!-- Node1 -->
<g id="Node000001" class="node">
<title>Node1</title>
<g id="a_Node000001"><a xlink:href="structXFormData.html" target="_top" xlink:title=" ">
<path fill="white" stroke="#666666" stroke-width="2" d="M69,-177C69,-177 12,-177 12,-177 6,-177 0,-171 0,-165 0,-165 0,-12 0,-12 0,-6 6,0 12,0 12,0 69,0 69,0 75,0 81,-6 81,-12 81,-12 81,-165 81,-165 81,-171 75,-177 69,-177"/>
<text text-anchor="start" x="13.5" y="-160.5" font-family="Helvetica,sans-Serif" font-size="10.00">XFormData</text>
<text text-anchor="start" x="14" y="-145.5" font-family="Helvetica,sans-Serif" font-size="10.00">+</text>
<text text-anchor="start" x="28.5" y="-145.5" font-family="Helvetica,sans-Serif" font-size="10.00">xp_pm</text>
<text text-anchor="start" x="14" y="-130.5" font-family="Helvetica,sans-Serif" font-size="10.00">+</text>
<text text-anchor="start" x="28.5" y="-130.5" font-family="Helvetica,sans-Serif" font-size="10.00">yp_pm</text>
<text text-anchor="start" x="14" y="-115.5" font-family="Helvetica,sans-Serif" font-size="10.00">+</text>
<text text-anchor="start" x="28.5" y="-115.5" font-family="Helvetica,sans-Serif" font-size="10.00">ut1_pm</text>
<text text-anchor="start" x="14" y="-100.5" font-family="Helvetica,sans-Serif" font-size="10.00">+</text>
<text text-anchor="start" x="28.5" y="-100.5" font-family="Helvetica,sans-Serif" font-size="10.00">lod_pm</text>
<text text-anchor="start" x="14" y="-85.5" font-family="Helvetica,sans-Serif" font-size="10.00">+</text>
<text text-anchor="start" x="28.5" y="-85.5" font-family="Helvetica,sans-Serif" font-size="10.00">xp_o</text>
<text text-anchor="start" x="14" y="-70.5" font-family="Helvetica,sans-Serif" font-size="10.00">+</text>
<text text-anchor="start" x="28.5" y="-70.5" font-family="Helvetica,sans-Serif" font-size="10.00">yp_o</text>
<text text-anchor="start" x="14" y="-55.5" font-family="Helvetica,sans-Serif" font-size="10.00">+</text>
<text text-anchor="start" x="28.5" y="-55.5" font-family="Helvetica,sans-Serif" font-size="10.00">ut1_o</text>
<text text-anchor="start" x="14" y="-40.5" font-family="Helvetica,sans-Serif" font-size="10.00">+</text>
<text text-anchor="start" x="28.5" y="-40.5" font-family="Helvetica,sans-Serif" font-size="10.00">sp</text>
<text text-anchor="start" x="14" y="-25.5" font-family="Helvetica,sans-Serif" font-size="10.00">+</text>
<text text-anchor="start" x="28.5" y="-25.5" font-family="Helvetica,sans-Serif" font-size="10.00">era</text>
<text text-anchor="start" x="39" y="-10.5" font-family="Helvetica,sans-Serif" font-size="10.00"> </text>
<polygon fill="#666666" stroke="#666666" points="8.5,-155.5 8.5,-155.5 73.5,-155.5 73.5,-155.5 8.5,-155.5"/>
<polygon fill="#666666" stroke="#666666" points="8.5,-20.5 8.5,-20.5 26.5,-20.5 26.5,-20.5 8.5,-20.5"/>
<polygon fill="#666666" stroke="#666666" points="26.5,-20.5 26.5,-20.5 73.5,-20.5 73.5,-20.5 26.5,-20.5"/>
<polygon fill="none" stroke="#666666" points="8,-4 8,-173 73,-173 73,-4 8,-4"/>
</a>
</g>
</g>
</g>
</svg>
