<?xml version="1.0" encoding="UTF-8" standalone="no"?>
<!DOCTYPE svg PUBLIC "-//W3C//DTD SVG 1.1//EN"
 "http://www.w3.org/Graphics/SVG/1.1/DTD/svg11.dtd">
<!-- Generated by graphviz version 2.43.0 (0)
 -->
<!-- Title: Aod Pages: 1 -->
<svg width="106pt" height="80pt"
 viewBox="0.00 0.00 106.00 80.00" xmlns="http://www.w3.org/2000/svg" xmlns:xlink="http://www.w3.org/1999/xlink">
<g id="graph0" class="graph" transform="scale(1 1) rotate(0) translate(4 76)">
<title>Aod</title>
<!-- Node1 -->
<g id="Node000001" class="node">
<title>Node1</title>
<g id="a_Node000001"><a xlink:href="structAod.html" target="_top" xlink:title=" ">
<path fill="white" stroke="#666666" stroke-width="2" d="M86,-72C86,-72 12,-72 12,-72 6,-72 0,-66 0,-60 0,-60 0,-12 0,-12 0,-6 6,0 12,0 12,0 86,0 86,0 92,0 98,-6 98,-12 98,-12 98,-60 98,-60 98,-66 92,-72 86,-72"/>
<text text-anchor="start" x="39.5" y="-56" font-family="Helvetica,sans-Serif" font-size="10.00">Aod</text>
<text text-anchor="start" x="12" y="-41" font-family="Helvetica,sans-Serif" font-size="10.00">+</text>
<text text-anchor="start" x="25" y="-41" font-family="Helvetica,sans-Serif" font-size="10.00">data</text>
<text text-anchor="start" x="12" y="-26" font-family="Helvetica,sans-Serif" font-size="10.00">+</text>
<text text-anchor="start" x="25" y="-26" font-family="Helvetica,sans-Serif" font-size="10.00">read()</text>
<text text-anchor="start" x="12" y="-11" font-family="Helvetica,sans-Serif" font-size="10.00">+</text>
<text text-anchor="start" x="25" y="-11" font-family="Helvetica,sans-Serif" font-size="10.00">interpolate()</text>
<polygon fill="#666666" stroke="#666666" points="8,-51 8,-51 90,-51 90,-51 8,-51"/>
<polygon fill="#666666" stroke="#666666" points="8,-36 8,-36 23,-36 23,-36 8,-36"/>
<polygon fill="#666666" stroke="#666666" points="23,-36 23,-36 90,-36 90,-36 23,-36"/>
<polygon fill="none" stroke="#666666" points="8,-4 8,-68 90,-68 90,-4 8,-4"/>
</a>
</g>
</g>
</g>
</svg>
