<?xml version="1.0" encoding="UTF-8" standalone="no"?>
<!DOCTYPE svg PUBLIC "-//W3C//DTD SVG 1.1//EN"
 "http://www.w3.org/Graphics/SVG/1.1/DTD/svg11.dtd">
<!-- Generated by graphviz version 2.43.0 (0)
 -->
<!-- Title: KeplerEph Pages: 1 -->
<svg width="83pt" height="305pt"
 viewBox="0.00 0.00 83.00 305.00" xmlns="http://www.w3.org/2000/svg" xmlns:xlink="http://www.w3.org/1999/xlink">
<g id="graph0" class="graph" transform="scale(1 1) rotate(0) translate(4 301)">
<title>KeplerEph</title>
<!-- Node1 -->
<g id="Node000001" class="node">
<title>Node1</title>
<g id="a_Node000001"><a xlink:href="structKeplerEph.html" target="_top" xlink:title=" ">
<path fill="white" stroke="#666666" stroke-width="2" d="M63,-297C63,-297 12,-297 12,-297 6,-297 0,-291 0,-285 0,-285 0,-12 0,-12 0,-6 6,0 12,0 12,0 63,0 63,0 69,0 75,-6 75,-12 75,-12 75,-285 75,-285 75,-291 69,-297 63,-297"/>
<text text-anchor="start" x="13.5" y="-280.5" font-family="Helvetica,sans-Serif" font-size="10.00">KeplerEph</text>
<text text-anchor="start" x="14" y="-265.5" font-family="Helvetica,sans-Serif" font-size="10.00">+</text>
<text text-anchor="start" x="28.5" y="-265.5" font-family="Helvetica,sans-Serif" font-size="10.00">A</text>
<text text-anchor="start" x="14" y="-250.5" font-family="Helvetica,sans-Serif" font-size="10.00">+</text>
<text text-anchor="start" x="28.5" y="-250.5" font-family="Helvetica,sans-Serif" font-size="10.00">e</text>
<text text-anchor="start" x="14" y="-235.5" font-family="Helvetica,sans-Serif" font-size="10.00">+</text>
<text text-anchor="start" x="28.5" y="-235.5" font-family="Helvetica,sans-Serif" font-size="10.00">i0</text>
<text text-anchor="start" x="14" y="-220.5" font-family="Helvetica,sans-Serif" font-size="10.00">+</text>
<text text-anchor="start" x="28.5" y="-220.5" font-family="Helvetica,sans-Serif" font-size="10.00">OMG0</text>
<text text-anchor="start" x="14" y="-205.5" font-family="Helvetica,sans-Serif" font-size="10.00">+</text>
<text text-anchor="start" x="28.5" y="-205.5" font-family="Helvetica,sans-Serif" font-size="10.00">omg</text>
<text text-anchor="start" x="14" y="-190.5" font-family="Helvetica,sans-Serif" font-size="10.00">+</text>
<text text-anchor="start" x="28.5" y="-190.5" font-family="Helvetica,sans-Serif" font-size="10.00">M0</text>
<text text-anchor="start" x="14" y="-175.5" font-family="Helvetica,sans-Serif" font-size="10.00">+</text>
<text text-anchor="start" x="28.5" y="-175.5" font-family="Helvetica,sans-Serif" font-size="10.00">deln</text>
<text text-anchor="start" x="14" y="-160.5" font-family="Helvetica,sans-Serif" font-size="10.00">+</text>
<text text-anchor="start" x="28.5" y="-160.5" font-family="Helvetica,sans-Serif" font-size="10.00">OMGd</text>
<text text-anchor="start" x="14" y="-145.5" font-family="Helvetica,sans-Serif" font-size="10.00">+</text>
<text text-anchor="start" x="28.5" y="-145.5" font-family="Helvetica,sans-Serif" font-size="10.00">idot</text>
<text text-anchor="start" x="14" y="-130.5" font-family="Helvetica,sans-Serif" font-size="10.00">+</text>
<text text-anchor="start" x="28.5" y="-130.5" font-family="Helvetica,sans-Serif" font-size="10.00">crc</text>
<text text-anchor="start" x="14" y="-115.5" font-family="Helvetica,sans-Serif" font-size="10.00">+</text>
<text text-anchor="start" x="28.5" y="-115.5" font-family="Helvetica,sans-Serif" font-size="10.00">crs</text>
<text text-anchor="start" x="14" y="-100.5" font-family="Helvetica,sans-Serif" font-size="10.00">+</text>
<text text-anchor="start" x="28.5" y="-100.5" font-family="Helvetica,sans-Serif" font-size="10.00">cuc</text>
<text text-anchor="start" x="14" y="-85.5" font-family="Helvetica,sans-Serif" font-size="10.00">+</text>
<text text-anchor="start" x="28.5" y="-85.5" font-family="Helvetica,sans-Serif" font-size="10.00">cus</text>
<text text-anchor="start" x="14" y="-70.5" font-family="Helvetica,sans-Serif" font-size="10.00">+</text>
<text text-anchor="start" x="28.5" y="-70.5" font-family="Helvetica,sans-Serif" font-size="10.00">cic</text>
<text text-anchor="start" x="14" y="-55.5" font-family="Helvetica,sans-Serif" font-size="10.00">+</text>
<text text-anchor="start" x="28.5" y="-55.5" font-family="Helvetica,sans-Serif" font-size="10.00">cis</text>
<text text-anchor="start" x="14" y="-40.5" font-family="Helvetica,sans-Serif" font-size="10.00">+</text>
<text text-anchor="start" x="28.5" y="-40.5" font-family="Helvetica,sans-Serif" font-size="10.00">dn0d</text>
<text text-anchor="start" x="14" y="-25.5" font-family="Helvetica,sans-Serif" font-size="10.00">+</text>
<text text-anchor="start" x="28.5" y="-25.5" font-family="Helvetica,sans-Serif" font-size="10.00">Adot</text>
<text text-anchor="start" x="36" y="-10.5" font-family="Helvetica,sans-Serif" font-size="10.00"> </text>
<polygon fill="#666666" stroke="#666666" points="8.5,-275.5 8.5,-275.5 67.5,-275.5 67.5,-275.5 8.5,-275.5"/>
<polygon fill="#666666" stroke="#666666" points="8.5,-20.5 8.5,-20.5 26.5,-20.5 26.5,-20.5 8.5,-20.5"/>
<polygon fill="#666666" stroke="#666666" points="26.5,-20.5 26.5,-20.5 67.5,-20.5 67.5,-20.5 26.5,-20.5"/>
<polygon fill="none" stroke="#666666" points="8,-4 8,-293 67,-293 67,-4 8,-4"/>
</a>
</g>
</g>
</g>
</svg>
