<?xml version="1.0" encoding="UTF-8" standalone="no"?>
<!DOCTYPE svg PUBLIC "-//W3C//DTD SVG 1.1//EN"
 "http://www.w3.org/Graphics/SVG/1.1/DTD/svg11.dtd">
<!-- Generated by graphviz version 2.43.0 (0)
 -->
<!-- Title: URL::URL Pages: 1 -->
<svg width="168pt" height="27pt"
 viewBox="0.00 0.00 168.00 27.00" xmlns="http://www.w3.org/2000/svg" xmlns:xlink="http://www.w3.org/1999/xlink">
<g id="graph0" class="graph" transform="scale(1 1) rotate(0) translate(4 23)">
<title>URL::URL</title>
<!-- Node1 -->
<g id="Node000001" class="node">
<title>Node1</title>
<g id="a_Node000001"><a xlink:href="structURL.html#ad6ecb93e145465c5b20f2e90f2f1163a" target="_top" xlink:title=" ">
<path fill="#fff0f0" stroke="red" stroke-width="2" d="M153.67,-19C153.67,-19 104.33,-19 104.33,-19 101.17,-19 98,-15.83 98,-12.67 98,-12.67 98,-6.33 98,-6.33 98,-3.17 101.17,0 104.33,0 104.33,0 153.67,0 153.67,0 156.83,0 160,-3.17 160,-6.33 160,-6.33 160,-12.67 160,-12.67 160,-15.83 156.83,-19 153.67,-19"/>
<text text-anchor="middle" x="129" y="-7" font-family="Helvetica,sans-Serif" font-size="10.00">URL::URL</text>
</a>
</g>
</g>
<!-- Node2 -->
<g id="Node000002" class="node">
<title>Node2</title>
<g id="a_Node000002"><a xlink:href="structURL.html#a056e923965c1506ed0f07353ef46d482" target="_top" xlink:title=" ">
<path fill="#fff0f0" stroke="red" d="M55.67,-19C55.67,-19 6.33,-19 6.33,-19 3.17,-19 0,-15.83 0,-12.67 0,-12.67 0,-6.33 0,-6.33 0,-3.17 3.17,0 6.33,0 6.33,0 55.67,0 55.67,0 58.83,0 62,-3.17 62,-6.33 62,-6.33 62,-12.67 62,-12.67 62,-15.83 58.83,-19 55.67,-19"/>
<text text-anchor="middle" x="31" y="-7" font-family="Helvetica,sans-Serif" font-size="10.00">URL::URL</text>
</a>
</g>
</g>
<!-- Node1&#45;&gt;Node2 -->
<g id="edge1_Node000001_Node000002" class="edge">
<title>Node1&#45;&gt;Node2</title>
<g id="a_edge1_Node000001_Node000002"><a xlink:title=" ">
<path fill="none" stroke="#63b8ff" d="M87.65,-9.5C79.06,-9.5 70.13,-9.5 62,-9.5"/>
<polygon fill="#63b8ff" stroke="#63b8ff" points="87.89,-13 97.89,-9.5 87.89,-6 87.89,-13"/>
</a>
</g>
</g>
</g>
</svg>
