<?xml version="1.0" encoding="UTF-8" standalone="no"?>
<!DOCTYPE svg PUBLIC "-//W3C//DTD SVG 1.1//EN"
 "http://www.w3.org/Graphics/SVG/1.1/DTD/svg11.dtd">
<!-- Generated by graphviz version 2.43.0 (0)
 -->
<!-- Title: Rinex23Conversion Pages: 1 -->
<svg width="222pt" height="295pt"
 viewBox="0.00 0.00 222.00 295.00" xmlns="http://www.w3.org/2000/svg" xmlns:xlink="http://www.w3.org/1999/xlink">
<g id="graph0" class="graph" transform="scale(1 1) rotate(0) translate(4 291)">
<title>Rinex23Conversion</title>
<!-- Node1 -->
<g id="Node000001" class="node">
<title>Node1</title>
<g id="a_Node000001"><a xlink:href="structRinex23Conversion.html" target="_top" xlink:title="Rinex 2 conversions for individual receivers.">
<path fill="white" stroke="#666666" stroke-width="2" d="M114.5,-57C114.5,-57 17.5,-57 17.5,-57 11.5,-57 5.5,-51 5.5,-45 5.5,-45 5.5,-12 5.5,-12 5.5,-6 11.5,0 17.5,0 17.5,0 114.5,0 114.5,0 120.5,0 126.5,-6 126.5,-12 126.5,-12 126.5,-45 126.5,-45 126.5,-51 120.5,-57 114.5,-57"/>
<text text-anchor="start" x="19" y="-40.5" font-family="Helvetica,sans-Serif" font-size="10.00">Rinex23Conversion</text>
<text text-anchor="start" x="64.5" y="-25.5" font-family="Helvetica,sans-Serif" font-size="10.00"> </text>
<text text-anchor="start" x="22.5" y="-10.5" font-family="Helvetica,sans-Serif" font-size="10.00">+</text>
<text text-anchor="start" x="40" y="-10.5" font-family="Helvetica,sans-Serif" font-size="10.00">operator+=()</text>
<polygon fill="#666666" stroke="#666666" points="14,-35.5 14,-35.5 119,-35.5 119,-35.5 14,-35.5"/>
<polygon fill="#666666" stroke="#666666" points="14,-20.5 14,-20.5 119,-20.5 119,-20.5 14,-20.5"/>
<polygon fill="none" stroke="#666666" points="13.5,-4 13.5,-53 118.5,-53 118.5,-4 13.5,-4"/>
</a>
</g>
</g>
<!-- Node2 -->
<g id="Node000002" class="node">
<title>Node2</title>
<g id="a_Node000002"><a xlink:title=" ">
<path fill="white" stroke="#666666" d="M120,-183C120,-183 12,-183 12,-183 6,-183 0,-177 0,-171 0,-171 0,-127 0,-127 0,-121 6,-115 12,-115 12,-115 120,-115 120,-115 126,-115 132,-121 132,-127 132,-127 132,-171 132,-171 132,-177 126,-183 120,-183"/>
<text text-anchor="start" x="13" y="-167" font-family="Helvetica,sans-Serif" font-size="10.00">map&lt; E_ObsCode2, E</text>
<text text-anchor="start" x="35.5" y="-156" font-family="Helvetica,sans-Serif" font-size="10.00">_ObsCode &gt;</text>
<text text-anchor="start" x="64" y="-141" font-family="Helvetica,sans-Serif" font-size="10.00"> </text>
<text text-anchor="start" x="64" y="-126" font-family="Helvetica,sans-Serif" font-size="10.00"> </text>
<polygon fill="#666666" stroke="#666666" points="8,-151 8,-151 124,-151 124,-151 8,-151"/>
<polygon fill="#666666" stroke="#666666" points="8,-136 8,-136 124,-136 124,-136 8,-136"/>
<polygon fill="none" stroke="#666666" points="8,-119 8,-179 124,-179 124,-119 8,-119"/>
</a>
</g>
</g>
<!-- Node2&#45;&gt;Node1 -->
<g id="edge1_Node000001_Node000002" class="edge">
<title>Node2&#45;&gt;Node1</title>
<g id="a_edge1_Node000001_Node000002"><a xlink:title=" ">
<path fill="none" stroke="#63b8ff" d="M66,-114.99C66,-100.9 66,-84.33 66,-69.55"/>
<polygon fill="none" stroke="#63b8ff" points="66,-69.13 62,-63.13 66,-57.13 70,-63.13 66,-69.13"/>
</a>
</g>
<text text-anchor="middle" x="96" y="-89" font-family="Helvetica,sans-Serif" font-size="10.00" fill="grey"> +codeConv</text>
<text text-anchor="middle" x="96" y="-78" font-family="Helvetica,sans-Serif" font-size="10.00" fill="grey">+phasConv</text>
</g>
<!-- Node3 -->
<g id="Node000003" class="node">
<title>Node3</title>
<g id="a_Node000003"><a xlink:title=" ">
<path fill="white" stroke="#666666" d="M78,-287C78,-287 54,-287 54,-287 48,-287 42,-281 42,-275 42,-275 42,-242 42,-242 42,-236 48,-230 54,-230 54,-230 78,-230 78,-230 84,-230 90,-236 90,-242 90,-242 90,-275 90,-275 90,-281 84,-287 78,-287"/>
<text text-anchor="start" x="55" y="-270.5" font-family="Helvetica,sans-Serif" font-size="10.00">map</text>
<text text-anchor="start" x="64" y="-255.5" font-family="Helvetica,sans-Serif" font-size="10.00"> </text>
<text text-anchor="start" x="64" y="-240.5" font-family="Helvetica,sans-Serif" font-size="10.00"> </text>
<polygon fill="#666666" stroke="#666666" points="50,-265.5 50,-265.5 82,-265.5 82,-265.5 50,-265.5"/>
<polygon fill="#666666" stroke="#666666" points="50,-250.5 50,-250.5 82,-250.5 82,-250.5 50,-250.5"/>
<polygon fill="none" stroke="#666666" points="50,-234 50,-283 82,-283 82,-234 50,-234"/>
</a>
</g>
</g>
<!-- Node3&#45;&gt;Node2 -->
<g id="edge2_Node000002_Node000003" class="edge">
<title>Node3&#45;&gt;Node2</title>
<g id="a_edge2_Node000002_Node000003"><a xlink:title=" ">
<path fill="none" stroke="orange" d="M66,-219.75C66,-207.88 66,-194.87 66,-183.34"/>
<polygon fill="orange" stroke="orange" points="62.5,-219.82 66,-229.82 69.5,-219.82 62.5,-219.82"/>
</a>
</g>
<text text-anchor="middle" x="140" y="-204" font-family="Helvetica,sans-Serif" font-size="10.00" fill="grey"> &lt; E_ObsCode2, E_ObsCode &gt;</text>
</g>
</g>
</svg>
