<?xml version="1.0" encoding="UTF-8" standalone="no"?>
<!DOCTYPE svg PUBLIC "-//W3C//DTD SVG 1.1//EN"
 "http://www.w3.org/Graphics/SVG/1.1/DTD/svg11.dtd">
<!-- Generated by graphviz version 2.43.0 (0)
 -->
<!-- Title: SatSys::operator string Pages: 1 -->
<svg width="237pt" height="27pt"
 viewBox="0.00 0.00 237.00 27.00" xmlns="http://www.w3.org/2000/svg" xmlns:xlink="http://www.w3.org/1999/xlink">
<g id="graph0" class="graph" transform="scale(1 1) rotate(0) translate(4 23)">
<title>SatSys::operator string</title>
<!-- Node1 -->
<g id="Node000001" class="node">
<title>Node1</title>
<g id="a_Node000001"><a xlink:href="structSatSys.html#a71f4fa0f771fa90cb9110794a8dfd61b" target="_top" xlink:title="Returns a string of this satellite&#39;s id.">
<path fill="#fff0f0" stroke="red" stroke-width="2" d="M121.67,-19C121.67,-19 6.33,-19 6.33,-19 3.17,-19 0,-15.83 0,-12.67 0,-12.67 0,-6.33 0,-6.33 0,-3.17 3.17,0 6.33,0 6.33,0 121.67,0 121.67,0 124.83,0 128,-3.17 128,-6.33 128,-6.33 128,-12.67 128,-12.67 128,-15.83 124.83,-19 121.67,-19"/>
<text text-anchor="middle" x="64" y="-7" font-family="Helvetica,sans-Serif" font-size="10.00">SatSys::operator string</text>
</a>
</g>
</g>
<!-- Node2 -->
<g id="Node000002" class="node">
<title>Node2</title>
<g id="a_Node000002"><a xlink:href="structSatSys.html#aec6d07b90d1e8172b8b6a6966abef4fd" target="_top" xlink:title="Returns a std::string of this satellite&#39;s id.">
<path fill="#fff0f0" stroke="red" d="M222.67,-19C222.67,-19 170.33,-19 170.33,-19 167.17,-19 164,-15.83 164,-12.67 164,-12.67 164,-6.33 164,-6.33 164,-3.17 167.17,0 170.33,0 170.33,0 222.67,0 222.67,0 225.83,0 229,-3.17 229,-6.33 229,-6.33 229,-12.67 229,-12.67 229,-15.83 225.83,-19 222.67,-19"/>
<text text-anchor="middle" x="196.5" y="-7" font-family="Helvetica,sans-Serif" font-size="10.00">SatSys::id</text>
</a>
</g>
</g>
<!-- Node1&#45;&gt;Node2 -->
<g id="edge1_Node000001_Node000002" class="edge">
<title>Node1&#45;&gt;Node2</title>
<g id="a_edge1_Node000001_Node000002"><a xlink:title=" ">
<path fill="none" stroke="#63b8ff" d="M128.34,-9.5C136.92,-9.5 145.54,-9.5 153.61,-9.5"/>
<polygon fill="#63b8ff" stroke="#63b8ff" points="153.86,-13 163.86,-9.5 153.86,-6 153.86,-13"/>
</a>
</g>
</g>
</g>
</svg>
