<?xml version="1.0" encoding="UTF-8" standalone="no"?>
<!DOCTYPE svg PUBLIC "-//W3C//DTD SVG 1.1//EN"
 "http://www.w3.org/Graphics/SVG/1.1/DTD/svg11.dtd">
<!-- Generated by graphviz version 2.43.0 (0)
 -->
<!-- Title: outputSummaries Pages: 1 -->
<svg width="263pt" height="27pt"
 viewBox="0.00 0.00 263.00 27.00" xmlns="http://www.w3.org/2000/svg" xmlns:xlink="http://www.w3.org/1999/xlink">
<g id="graph0" class="graph" transform="scale(1 1) rotate(0) translate(4 23)">
<title>outputSummaries</title>
<!-- Node1 -->
<g id="Node000001" class="node">
<title>Node1</title>
<g id="a_Node000001"><a xlink:href="summary_8cpp.html#ae58340dcec67e632dd4ede1edfb11d0a" target="_top" xlink:title="Output statistics from each station.">
<path fill="#fff0f0" stroke="red" stroke-width="2" d="M248.67,-19C248.67,-19 157.33,-19 157.33,-19 154.17,-19 151,-15.83 151,-12.67 151,-12.67 151,-6.33 151,-6.33 151,-3.17 154.17,0 157.33,0 157.33,0 248.67,0 248.67,0 251.83,0 255,-3.17 255,-6.33 255,-6.33 255,-12.67 255,-12.67 255,-15.83 251.83,-19 248.67,-19"/>
<text text-anchor="middle" x="203" y="-7" font-family="Helvetica,sans-Serif" font-size="10.00">outputSummaries</text>
</a>
</g>
</g>
<!-- Node2 -->
<g id="Node000002" class="node">
<title>Node2</title>
<g id="a_Node000002"><a xlink:href="main_8cpp.html#a2b0d1066eac1a878cf982adcdd550ce1" target="_top" xlink:title="Perform any post&#45;final epoch calculations and outputs, then begin reverse smoothing and tidy up.">
<path fill="#fff0f0" stroke="red" d="M108.67,-19C108.67,-19 6.33,-19 6.33,-19 3.17,-19 0,-15.83 0,-12.67 0,-12.67 0,-6.33 0,-6.33 0,-3.17 3.17,0 6.33,0 6.33,0 108.67,0 108.67,0 111.83,0 115,-3.17 115,-6.33 115,-6.33 115,-12.67 115,-12.67 115,-15.83 111.83,-19 108.67,-19"/>
<text text-anchor="middle" x="57.5" y="-7" font-family="Helvetica,sans-Serif" font-size="10.00">mainPostProcessing</text>
</a>
</g>
</g>
<!-- Node1&#45;&gt;Node2 -->
<g id="edge1_Node000001_Node000002" class="edge">
<title>Node1&#45;&gt;Node2</title>
<g id="a_edge1_Node000001_Node000002"><a xlink:title=" ">
<path fill="none" stroke="#63b8ff" d="M140.54,-9.5C132.19,-9.5 123.65,-9.5 115.38,-9.5"/>
<polygon fill="#63b8ff" stroke="#63b8ff" points="140.6,-13 150.6,-9.5 140.6,-6 140.6,-13"/>
</a>
</g>
</g>
</g>
</svg>
