<?xml version="1.0" encoding="UTF-8" standalone="no"?>
<!DOCTYPE svg PUBLIC "-//W3C//DTD SVG 1.1//EN"
 "http://www.w3.org/Graphics/SVG/1.1/DTD/svg11.dtd">
<!-- Generated by graphviz version 2.43.0 (0)
 -->
<!-- Title: outputStatistics Pages: 1 -->
<svg width="297pt" height="76pt"
 viewBox="0.00 0.00 297.00 75.50" xmlns="http://www.w3.org/2000/svg" xmlns:xlink="http://www.w3.org/1999/xlink">
<g id="graph0" class="graph" transform="scale(1 1) rotate(0) translate(4 71.5)">
<title>outputStatistics</title>
<!-- Node1 -->
<g id="Node000001" class="node">
<title>Node1</title>
<g id="a_Node000001"><a xlink:href="summary_8cpp.html#a12c28641db36becdeac64e075107d855" target="_top" xlink:title=" ">
<path fill="#fff0f0" stroke="red" stroke-width="2" d="M282.67,-40C282.67,-40 202.33,-40 202.33,-40 199.17,-40 196,-36.83 196,-33.67 196,-33.67 196,-27.33 196,-27.33 196,-24.17 199.17,-21 202.33,-21 202.33,-21 282.67,-21 282.67,-21 285.83,-21 289,-24.17 289,-27.33 289,-27.33 289,-33.67 289,-33.67 289,-36.83 285.83,-40 282.67,-40"/>
<text text-anchor="middle" x="242.5" y="-28" font-family="Helvetica,sans-Serif" font-size="10.00">outputStatistics</text>
</a>
</g>
</g>
<!-- Node2 -->
<g id="Node000002" class="node">
<title>Node2</title>
<g id="a_Node000002"><a xlink:href="main_8cpp.html#a712043e1e94db2f9f7c1022f2bc006e2" target="_top" xlink:title=" ">
<path fill="#fff0f0" stroke="red" d="M150,-67.5C150,-67.5 10,-67.5 10,-67.5 5,-67.5 0,-62.5 0,-57.5 0,-57.5 0,-47.5 0,-47.5 0,-42.5 5,-37.5 10,-37.5 10,-37.5 150,-37.5 150,-37.5 155,-37.5 160,-42.5 160,-47.5 160,-47.5 160,-57.5 160,-57.5 160,-62.5 155,-67.5 150,-67.5"/>
<text text-anchor="start" x="8" y="-55.5" font-family="Helvetica,sans-Serif" font-size="10.00">mainPerEpochPostProcessing</text>
<text text-anchor="middle" x="80" y="-44.5" font-family="Helvetica,sans-Serif" font-size="10.00">AndOutputs</text>
</a>
</g>
</g>
<!-- Node1&#45;&gt;Node2 -->
<g id="edge1_Node000001_Node000002" class="edge">
<title>Node1&#45;&gt;Node2</title>
<g id="a_edge1_Node000001_Node000002"><a xlink:title=" ">
<path fill="none" stroke="#63b8ff" d="M185.96,-38.11C177.6,-39.26 168.84,-40.46 160.09,-41.66"/>
<polygon fill="#63b8ff" stroke="#63b8ff" points="186.5,-41.57 195.94,-36.75 185.55,-34.64 186.5,-41.57"/>
</a>
</g>
</g>
<!-- Node6 -->
<g id="Node000006" class="node">
<title>Node6</title>
<g id="a_Node000006"><a xlink:href="main_8cpp.html#a2b0d1066eac1a878cf982adcdd550ce1" target="_top" xlink:title="Perform any post&#45;final epoch calculations and outputs, then begin reverse smoothing and tidy up.">
<path fill="#fff0f0" stroke="red" d="M131.17,-19C131.17,-19 28.83,-19 28.83,-19 25.67,-19 22.5,-15.83 22.5,-12.67 22.5,-12.67 22.5,-6.33 22.5,-6.33 22.5,-3.17 25.67,0 28.83,0 28.83,0 131.17,0 131.17,0 134.33,0 137.5,-3.17 137.5,-6.33 137.5,-6.33 137.5,-12.67 137.5,-12.67 137.5,-15.83 134.33,-19 131.17,-19"/>
<text text-anchor="middle" x="80" y="-7" font-family="Helvetica,sans-Serif" font-size="10.00">mainPostProcessing</text>
</a>
</g>
</g>
<!-- Node1&#45;&gt;Node6 -->
<g id="edge2_Node000001_Node000006" class="edge">
<title>Node1&#45;&gt;Node6</title>
<g id="a_edge2_Node000001_Node000006"><a xlink:title=" ">
<path fill="none" stroke="#63b8ff" d="M185.89,-23.22C170.25,-21.18 153.23,-18.95 137.54,-16.9"/>
<polygon fill="#63b8ff" stroke="#63b8ff" points="185.57,-26.71 195.94,-24.54 186.48,-19.77 185.57,-26.71"/>
</a>
</g>
</g>
</g>
</svg>
