<?xml version="1.0" encoding="UTF-8" standalone="no"?>
<!DOCTYPE svg PUBLIC "-//W3C//DTD SVG 1.1//EN"
 "http://www.w3.org/Graphics/SVG/1.1/DTD/svg11.dtd">
<!-- Generated by graphviz version 2.43.0 (0)
 -->
<!-- Title: readBlq Pages: 1 -->
<svg width="186pt" height="27pt"
 viewBox="0.00 0.00 186.00 27.00" xmlns="http://www.w3.org/2000/svg" xmlns:xlink="http://www.w3.org/1999/xlink">
<g id="graph0" class="graph" transform="scale(1 1) rotate(0) translate(4 23)">
<title>readBlq</title>
<!-- Node1 -->
<g id="Node000001" class="node">
<title>Node1</title>
<g id="a_Node000001"><a xlink:href="tides_8cpp.html#aeb36d9680b44b6ea52bc6f261fe64130" target="_top" xlink:title="Read BLQ ocean/atmospheric tide loading parameters.">
<path fill="#fff0f0" stroke="red" stroke-width="2" d="M47.67,-19C47.67,-19 6.33,-19 6.33,-19 3.17,-19 0,-15.83 0,-12.67 0,-12.67 0,-6.33 0,-6.33 0,-3.17 3.17,0 6.33,0 6.33,0 47.67,0 47.67,0 50.83,0 54,-3.17 54,-6.33 54,-6.33 54,-12.67 54,-12.67 54,-15.83 50.83,-19 47.67,-19"/>
<text text-anchor="middle" x="27" y="-7" font-family="Helvetica,sans-Serif" font-size="10.00">readBlq</text>
</a>
</g>
</g>
<!-- Node2 -->
<g id="Node000002" class="node">
<title>Node2</title>
<g id="a_Node000002"><a xlink:href="tides_8cpp.html#a22861873fc8c560c6d8d7a95b1335d52" target="_top" xlink:title="Read BLQ record for a single station.">
<path fill="#fff0f0" stroke="red" d="M171.67,-19C171.67,-19 96.33,-19 96.33,-19 93.17,-19 90,-15.83 90,-12.67 90,-12.67 90,-6.33 90,-6.33 90,-3.17 93.17,0 96.33,0 96.33,0 171.67,0 171.67,0 174.83,0 178,-3.17 178,-6.33 178,-6.33 178,-12.67 178,-12.67 178,-15.83 174.83,-19 171.67,-19"/>
<text text-anchor="middle" x="134" y="-7" font-family="Helvetica,sans-Serif" font-size="10.00">readBlqRecord</text>
</a>
</g>
</g>
<!-- Node1&#45;&gt;Node2 -->
<g id="edge1_Node000001_Node000002" class="edge">
<title>Node1&#45;&gt;Node2</title>
<g id="a_edge1_Node000001_Node000002"><a xlink:title=" ">
<path fill="none" stroke="#63b8ff" d="M54.23,-3.57C62.08,-3.03 70.99,-2.76 79.93,-2.75"/>
<polygon fill="#63b8ff" stroke="#63b8ff" points="79.94,-6.25 89.97,-2.85 80.01,0.75 79.94,-6.25"/>
</a>
</g>
</g>
<!-- Node1&#45;&gt;Node2 -->
<g id="edge2_Node000001_Node000002" class="edge">
<title>Node1&#45;&gt;Node2</title>
<g id="a_edge2_Node000001_Node000002"><a xlink:title=" ">
<path fill="none" stroke="#63b8ff" d="M54.23,-15.43C62.08,-15.97 70.99,-16.24 79.93,-16.25"/>
<polygon fill="#63b8ff" stroke="#63b8ff" points="80.01,-19.75 89.97,-16.15 79.94,-12.75 80.01,-19.75"/>
</a>
</g>
</g>
</g>
</svg>
