<?xml version="1.0" encoding="UTF-8" standalone="no"?>
<!DOCTYPE svg PUBLIC "-//W3C//DTD SVG 1.1//EN"
 "http://www.w3.org/Graphics/SVG/1.1/DTD/svg11.dtd">
<!-- Generated by graphviz version 2.43.0 (0)
 -->
<!-- Title: tideSolidPole Pages: 1 -->
<svg width="229pt" height="175pt"
 viewBox="0.00 0.00 229.00 175.00" xmlns="http://www.w3.org/2000/svg" xmlns:xlink="http://www.w3.org/1999/xlink">
<g id="graph0" class="graph" transform="scale(1 1) rotate(0) translate(4 171)">
<title>tideSolidPole</title>
<!-- Node1 -->
<g id="Node000001" class="node">
<title>Node1</title>
<g id="a_Node000001"><a xlink:href="tides_8cpp.html#aeae22242d3396386a1b71e573226478d" target="_top" xlink:title="Displacement by solid Earth pole tide See ref [1] 7.1.4.">
<path fill="#fff0f0" stroke="red" stroke-width="2" d="M73.67,-74C73.67,-74 6.33,-74 6.33,-74 3.17,-74 0,-70.83 0,-67.67 0,-67.67 0,-61.33 0,-61.33 0,-58.17 3.17,-55 6.33,-55 6.33,-55 73.67,-55 73.67,-55 76.83,-55 80,-58.17 80,-61.33 80,-61.33 80,-67.67 80,-67.67 80,-70.83 76.83,-74 73.67,-74"/>
<text text-anchor="middle" x="40" y="-62" font-family="Helvetica,sans-Serif" font-size="10.00">tideSolidPole</text>
</a>
</g>
</g>
<!-- Node2 -->
<g id="Node000002" class="node">
<title>Node2</title>
<g id="a_Node000002"><a xlink:href="structVectorPos.html#ae607eb1f43de3cf1aaa024c2fdabc514" target="_top" xlink:title=" ">
<path fill="#fff0f0" stroke="red" d="M213.67,-167C213.67,-167 123.33,-167 123.33,-167 120.17,-167 117,-163.83 117,-160.67 117,-160.67 117,-154.33 117,-154.33 117,-151.17 120.17,-148 123.33,-148 123.33,-148 213.67,-148 213.67,-148 216.83,-148 220,-151.17 220,-154.33 220,-154.33 220,-160.67 220,-160.67 220,-163.83 216.83,-167 213.67,-167"/>
<text text-anchor="middle" x="168.5" y="-155" font-family="Helvetica,sans-Serif" font-size="10.00">VectorPos::latDeg</text>
</a>
</g>
</g>
<!-- Node1&#45;&gt;Node2 -->
<g id="edge1_Node000001_Node000002" class="edge">
<title>Node1&#45;&gt;Node2</title>
<g id="a_edge1_Node000001_Node000002"><a xlink:title=" ">
<path fill="none" stroke="#63b8ff" d="M48.25,-74.17C60.55,-89.95 87,-121.28 116,-139.5 118.48,-141.06 121.12,-142.5 123.83,-143.84"/>
<polygon fill="#63b8ff" stroke="#63b8ff" points="122.69,-147.16 133.25,-147.97 125.5,-140.75 122.69,-147.16"/>
</a>
</g>
</g>
<!-- Node3 -->
<g id="Node000003" class="node">
<title>Node3</title>
<g id="a_Node000003"><a xlink:href="structVectorPos.html#aa693d5a52133cfb55040b768c6175bae" target="_top" xlink:title=" ">
<path fill="#fff0f0" stroke="red" d="M214.67,-130C214.67,-130 122.33,-130 122.33,-130 119.17,-130 116,-126.83 116,-123.67 116,-123.67 116,-117.33 116,-117.33 116,-114.17 119.17,-111 122.33,-111 122.33,-111 214.67,-111 214.67,-111 217.83,-111 221,-114.17 221,-117.33 221,-117.33 221,-123.67 221,-123.67 221,-126.83 217.83,-130 214.67,-130"/>
<text text-anchor="middle" x="168.5" y="-118" font-family="Helvetica,sans-Serif" font-size="10.00">VectorPos::lonDeg</text>
</a>
</g>
</g>
<!-- Node1&#45;&gt;Node3 -->
<g id="edge2_Node000001_Node000003" class="edge">
<title>Node1&#45;&gt;Node3</title>
<g id="a_edge2_Node000001_Node000003"><a xlink:title=" ">
<path fill="none" stroke="#63b8ff" d="M58.27,-74.08C73.27,-82.19 95.72,-93.86 116,-102.5 119.97,-104.19 124.16,-105.85 128.36,-107.44"/>
<polygon fill="#63b8ff" stroke="#63b8ff" points="127.51,-110.85 138.1,-110.98 129.9,-104.27 127.51,-110.85"/>
</a>
</g>
</g>
<!-- Node4 -->
<g id="Node000004" class="node">
<title>Node4</title>
<g id="a_Node000004"><a xlink:href="tides_8cpp.html#a355b2b8163e37996af1622c2780315c8" target="_top" xlink:title="IERS mean pole See ref [2.2] eq.21 Eugene: This function will be gone in the future as IERS2010::mean...">
<path fill="#fff0f0" stroke="red" d="M203.67,-93C203.67,-93 133.33,-93 133.33,-93 130.17,-93 127,-89.83 127,-86.67 127,-86.67 127,-80.33 127,-80.33 127,-77.17 130.17,-74 133.33,-74 133.33,-74 203.67,-74 203.67,-74 206.83,-74 210,-77.17 210,-80.33 210,-80.33 210,-86.67 210,-86.67 210,-89.83 206.83,-93 203.67,-93"/>
<text text-anchor="middle" x="168.5" y="-81" font-family="Helvetica,sans-Serif" font-size="10.00">iersMeanPole</text>
</a>
</g>
</g>
<!-- Node1&#45;&gt;Node4 -->
<g id="edge3_Node000001_Node000004" class="edge">
<title>Node1&#45;&gt;Node4</title>
<g id="a_edge3_Node000001_Node000004"><a xlink:title=" ">
<path fill="none" stroke="#63b8ff" d="M80.33,-70.41C91.89,-72.14 104.7,-74.07 116.86,-75.89"/>
<polygon fill="#63b8ff" stroke="#63b8ff" points="116.47,-79.38 126.88,-77.4 117.51,-72.45 116.47,-79.38"/>
</a>
</g>
</g>
<!-- Node6 -->
<g id="Node000006" class="node">
<title>Node6</title>
<g id="a_Node000006"><a xlink:href="structVectorPos.html#a63e862a389b3548bc5b4aedabd94540b" target="_top" xlink:title=" ">
<path fill="#fff0f0" stroke="red" d="M203.67,-56C203.67,-56 133.33,-56 133.33,-56 130.17,-56 127,-52.83 127,-49.67 127,-49.67 127,-43.33 127,-43.33 127,-40.17 130.17,-37 133.33,-37 133.33,-37 203.67,-37 203.67,-37 206.83,-37 210,-40.17 210,-43.33 210,-43.33 210,-49.67 210,-49.67 210,-52.83 206.83,-56 203.67,-56"/>
<text text-anchor="middle" x="168.5" y="-44" font-family="Helvetica,sans-Serif" font-size="10.00">VectorPos::lat</text>
</a>
</g>
</g>
<!-- Node1&#45;&gt;Node6 -->
<g id="edge4_Node000001_Node000006" class="edge">
<title>Node1&#45;&gt;Node6</title>
<g id="a_edge4_Node000001_Node000006"><a xlink:title=" ">
<path fill="none" stroke="#63b8ff" d="M80.33,-58.9C91.89,-57.26 104.7,-55.44 116.86,-53.71"/>
<polygon fill="#63b8ff" stroke="#63b8ff" points="117.47,-57.15 126.88,-52.28 116.49,-50.22 117.47,-57.15"/>
</a>
</g>
</g>
<!-- Node7 -->
<g id="Node000007" class="node">
<title>Node7</title>
<g id="a_Node000007"><a xlink:href="structVectorPos.html#ab7ade23bd200ec4145eb389b58737dee" target="_top" xlink:title=" ">
<path fill="#fff0f0" stroke="red" d="M205.17,-19C205.17,-19 131.83,-19 131.83,-19 128.67,-19 125.5,-15.83 125.5,-12.67 125.5,-12.67 125.5,-6.33 125.5,-6.33 125.5,-3.17 128.67,0 131.83,0 131.83,0 205.17,0 205.17,0 208.33,0 211.5,-3.17 211.5,-6.33 211.5,-6.33 211.5,-12.67 211.5,-12.67 211.5,-15.83 208.33,-19 205.17,-19"/>
<text text-anchor="middle" x="168.5" y="-7" font-family="Helvetica,sans-Serif" font-size="10.00">VectorPos::lon</text>
</a>
</g>
</g>
<!-- Node1&#45;&gt;Node7 -->
<g id="edge5_Node000001_Node000007" class="edge">
<title>Node1&#45;&gt;Node7</title>
<g id="a_edge5_Node000001_Node000007"><a xlink:title=" ">
<path fill="none" stroke="#63b8ff" d="M49.21,-54.7C62.88,-44.23 91.26,-29.97 116,-19.5 116.1,-19.46 116.19,-19.42 116.29,-19.38"/>
<polygon fill="#63b8ff" stroke="#63b8ff" points="117.54,-22.65 125.49,-15.65 114.91,-16.16 117.54,-22.65"/>
</a>
</g>
</g>
<!-- Node1&#45;&gt;Node7 -->
<g id="edge6_Node000001_Node000007" class="edge">
<title>Node1&#45;&gt;Node7</title>
<g id="a_edge6_Node000001_Node000007"><a xlink:title=" ">
<path fill="none" stroke="#63b8ff" d="M76.93,-54.92C89.21,-49.45 103.1,-42.96 116,-37.5 126.93,-32.87 139.41,-28.25 149.34,-23.69"/>
<polygon fill="#63b8ff" stroke="#63b8ff" points="150.95,-26.8 158.28,-19.15 147.78,-20.56 150.95,-26.8"/>
</a>
</g>
</g>
</g>
</svg>
