<?xml version="1.0" encoding="UTF-8" standalone="no"?>
<!DOCTYPE svg PUBLIC "-//W3C//DTD SVG 1.1//EN"
 "http://www.w3.org/Graphics/SVG/1.1/DTD/svg11.dtd">
<!-- Generated by graphviz version 2.43.0 (0)
 -->
<!-- Title: tideSolidEarthDehant Pages: 1 -->
<svg width="286pt" height="64pt"
 viewBox="0.00 0.00 286.00 64.00" xmlns="http://www.w3.org/2000/svg" xmlns:xlink="http://www.w3.org/1999/xlink">
<g id="graph0" class="graph" transform="scale(1 1) rotate(0) translate(4 60)">
<title>tideSolidEarthDehant</title>
<!-- Node1 -->
<g id="Node000001" class="node">
<title>Node1</title>
<g id="a_Node000001"><a xlink:href="tides_8cpp.html#a60b9852b1de1e0f2462506c8ae16ec8b" target="_top" xlink:title="Displacement by solid Earth tide with DEHANTTIDEINEL See ref [1] 7.1.1, [3], [7].">
<path fill="#fff0f0" stroke="red" stroke-width="2" d="M113.67,-37C113.67,-37 6.33,-37 6.33,-37 3.17,-37 0,-33.83 0,-30.67 0,-30.67 0,-24.33 0,-24.33 0,-21.17 3.17,-18 6.33,-18 6.33,-18 113.67,-18 113.67,-18 116.83,-18 120,-21.17 120,-24.33 120,-24.33 120,-30.67 120,-30.67 120,-33.83 116.83,-37 113.67,-37"/>
<text text-anchor="middle" x="60" y="-25" font-family="Helvetica,sans-Serif" font-size="10.00">tideSolidEarthDehant</text>
</a>
</g>
</g>
<!-- Node2 -->
<g id="Node000002" class="node">
<title>Node2</title>
<g id="a_Node000002"><a xlink:href="structMjDateUtc.html#ac35e3ac8d68de9b2bdae2c893e6e6fc8" target="_top" xlink:title=" ">
<path fill="#fff0f0" stroke="red" d="M271.67,-56C271.67,-56 162.33,-56 162.33,-56 159.17,-56 156,-52.83 156,-49.67 156,-49.67 156,-43.33 156,-43.33 156,-40.17 159.17,-37 162.33,-37 162.33,-37 271.67,-37 271.67,-37 274.83,-37 278,-40.17 278,-43.33 278,-43.33 278,-49.67 278,-49.67 278,-52.83 274.83,-56 271.67,-56"/>
<text text-anchor="middle" x="217" y="-44" font-family="Helvetica,sans-Serif" font-size="10.00">MjDateUtc::to_double</text>
</a>
</g>
</g>
<!-- Node1&#45;&gt;Node2 -->
<g id="edge1_Node000001_Node000002" class="edge">
<title>Node1&#45;&gt;Node2</title>
<g id="a_edge1_Node000001_Node000002"><a xlink:title=" ">
<path fill="none" stroke="#63b8ff" d="M120.04,-34.74C128.47,-35.77 137.2,-36.84 145.81,-37.9"/>
<polygon fill="#63b8ff" stroke="#63b8ff" points="145.49,-41.38 155.84,-39.13 146.34,-34.43 145.49,-41.38"/>
</a>
</g>
</g>
<!-- Node3 -->
<g id="Node000003" class="node">
<title>Node3</title>
<g id="a_Node000003"><a xlink:href="structMjDateTT.html#a3dd023609ae8713593b45d4b6e7ab9d3" target="_top" xlink:title=" ">
<path fill="#fff0f0" stroke="red" d="M266.17,-19C266.17,-19 167.83,-19 167.83,-19 164.67,-19 161.5,-15.83 161.5,-12.67 161.5,-12.67 161.5,-6.33 161.5,-6.33 161.5,-3.17 164.67,0 167.83,0 167.83,0 266.17,0 266.17,0 269.33,0 272.5,-3.17 272.5,-6.33 272.5,-6.33 272.5,-12.67 272.5,-12.67 272.5,-15.83 269.33,-19 266.17,-19"/>
<text text-anchor="middle" x="217" y="-7" font-family="Helvetica,sans-Serif" font-size="10.00">MjDateTT::to_j2000</text>
</a>
</g>
</g>
<!-- Node1&#45;&gt;Node3 -->
<g id="edge2_Node000001_Node000003" class="edge">
<title>Node1&#45;&gt;Node3</title>
<g id="a_edge2_Node000001_Node000003"><a xlink:title=" ">
<path fill="none" stroke="#63b8ff" d="M120.04,-20.64C130.24,-19.46 140.9,-18.22 151.24,-17.02"/>
<polygon fill="#63b8ff" stroke="#63b8ff" points="151.92,-20.46 161.45,-15.83 151.12,-13.51 151.92,-20.46"/>
</a>
</g>
</g>
</g>
</svg>
