<?xml version="1.0" encoding="UTF-8" standalone="no"?>
<!DOCTYPE svg PUBLIC "-//W3C//DTD SVG 1.1//EN"
 "http://www.w3.org/Graphics/SVG/1.1/DTD/svg11.dtd">
<!-- Generated by graphviz version 2.43.0 (0)
 -->
<!-- Title: traceFormatedFloat Pages: 1 -->
<svg width="278pt" height="212pt"
 viewBox="0.00 0.00 278.00 212.00" xmlns="http://www.w3.org/2000/svg" xmlns:xlink="http://www.w3.org/1999/xlink">
<g id="graph0" class="graph" transform="scale(1 1) rotate(0) translate(4 208)">
<title>traceFormatedFloat</title>
<!-- Node1 -->
<g id="Node000001" class="node">
<title>Node1</title>
<g id="a_Node000001"><a xlink:href="trace_8cpp.html#a755e8144b75554c3f9f4407284f37437" target="_top" xlink:title=" ">
<path fill="#fff0f0" stroke="red" stroke-width="2" d="M263.67,-111C263.67,-111 163.33,-111 163.33,-111 160.17,-111 157,-107.83 157,-104.67 157,-104.67 157,-98.33 157,-98.33 157,-95.17 160.17,-92 163.33,-92 163.33,-92 263.67,-92 263.67,-92 266.83,-92 270,-95.17 270,-98.33 270,-98.33 270,-104.67 270,-104.67 270,-107.83 266.83,-111 263.67,-111"/>
<text text-anchor="middle" x="213.5" y="-99" font-family="Helvetica,sans-Serif" font-size="10.00">traceFormatedFloat</text>
</a>
</g>
</g>
<!-- Node2 -->
<g id="Node000002" class="node">
<title>Node2</title>
<g id="a_Node000002"><a xlink:href="rinexNavWrite_8cpp.html#a751a48d904460a987ac675171d6d9239" target="_top" xlink:title=" ">
<path fill="#fff0f0" stroke="red" d="M114.17,-204C114.17,-204 6.83,-204 6.83,-204 3.67,-204 0.5,-200.83 0.5,-197.67 0.5,-197.67 0.5,-191.33 0.5,-191.33 0.5,-188.17 3.67,-185 6.83,-185 6.83,-185 114.17,-185 114.17,-185 117.33,-185 120.5,-188.17 120.5,-191.33 120.5,-191.33 120.5,-197.67 120.5,-197.67 120.5,-200.83 117.33,-204 114.17,-204"/>
<text text-anchor="middle" x="60.5" y="-192" font-family="Helvetica,sans-Serif" font-size="10.00">outputNavRinexCeph</text>
</a>
</g>
</g>
<!-- Node1&#45;&gt;Node2 -->
<g id="edge1_Node000001_Node000002" class="edge">
<title>Node1&#45;&gt;Node2</title>
<g id="a_edge1_Node000001_Node000002"><a xlink:title=" ">
<path fill="none" stroke="#63b8ff" d="M196.2,-118.29C178.95,-135.19 150.23,-160.9 121,-176.5 114.81,-179.8 107.93,-182.59 101.11,-184.91"/>
<polygon fill="#63b8ff" stroke="#63b8ff" points="198.68,-120.77 203.28,-111.22 193.73,-115.81 198.68,-120.77"/>
</a>
</g>
</g>
<!-- Node5 -->
<g id="Node000005" class="node">
<title>Node5</title>
<g id="a_Node000005"><a xlink:href="rinexNavWrite_8cpp.html#a44ce18e58314bf68508dc220c1e807cc" target="_top" xlink:title=" ">
<path fill="#fff0f0" stroke="red" d="M111.67,-167C111.67,-167 9.33,-167 9.33,-167 6.17,-167 3,-163.83 3,-160.67 3,-160.67 3,-154.33 3,-154.33 3,-151.17 6.17,-148 9.33,-148 9.33,-148 111.67,-148 111.67,-148 114.83,-148 118,-151.17 118,-154.33 118,-154.33 118,-160.67 118,-160.67 118,-163.83 114.83,-167 111.67,-167"/>
<text text-anchor="middle" x="60.5" y="-155" font-family="Helvetica,sans-Serif" font-size="10.00">outputNavRinexEOP</text>
</a>
</g>
</g>
<!-- Node1&#45;&gt;Node5 -->
<g id="edge2_Node000001_Node000005" class="edge">
<title>Node1&#45;&gt;Node5</title>
<g id="a_edge2_Node000001_Node000005"><a xlink:title=" ">
<path fill="none" stroke="#63b8ff" d="M182.05,-115.04C164.39,-122.67 141.63,-132.12 121,-139.5 112.67,-142.48 103.57,-145.4 95.05,-147.99"/>
<polygon fill="#63b8ff" stroke="#63b8ff" points="183.52,-118.22 191.29,-111.02 180.72,-111.8 183.52,-118.22"/>
</a>
</g>
</g>
<!-- Node11 -->
<g id="Node000011" class="node">
<title>Node11</title>
<g id="a_Node000011"><a xlink:href="rinexNavWrite_8cpp.html#af49aa619a891c6d00f32ac721ab01cd0" target="_top" xlink:title=" ">
<path fill="#fff0f0" stroke="red" d="M110.67,-130C110.67,-130 10.33,-130 10.33,-130 7.17,-130 4,-126.83 4,-123.67 4,-123.67 4,-117.33 4,-117.33 4,-114.17 7.17,-111 10.33,-111 10.33,-111 110.67,-111 110.67,-111 113.83,-111 117,-114.17 117,-117.33 117,-117.33 117,-123.67 117,-123.67 117,-126.83 113.83,-130 110.67,-130"/>
<text text-anchor="middle" x="60.5" y="-118" font-family="Helvetica,sans-Serif" font-size="10.00">outputNavRinexEph</text>
</a>
</g>
</g>
<!-- Node1&#45;&gt;Node11 -->
<g id="edge3_Node000001_Node000011" class="edge">
<title>Node1&#45;&gt;Node11</title>
<g id="a_edge3_Node000001_Node000011"><a xlink:title=" ">
<path fill="none" stroke="#63b8ff" d="M146.56,-109.8C136.72,-111.04 126.66,-112.3 117.07,-113.51"/>
<polygon fill="#63b8ff" stroke="#63b8ff" points="147.22,-113.24 156.7,-108.52 146.34,-106.3 147.22,-113.24"/>
</a>
</g>
</g>
<!-- Node12 -->
<g id="Node000012" class="node">
<title>Node12</title>
<g id="a_Node000012"><a xlink:href="rinexNavWrite_8cpp.html#a46fd4ea12d70dbba01d33413b01d175f" target="_top" xlink:title=" ">
<path fill="#fff0f0" stroke="red" d="M114.67,-93C114.67,-93 6.33,-93 6.33,-93 3.17,-93 0,-89.83 0,-86.67 0,-86.67 0,-80.33 0,-80.33 0,-77.17 3.17,-74 6.33,-74 6.33,-74 114.67,-74 114.67,-74 117.83,-74 121,-77.17 121,-80.33 121,-80.33 121,-86.67 121,-86.67 121,-89.83 117.83,-93 114.67,-93"/>
<text text-anchor="middle" x="60.5" y="-81" font-family="Helvetica,sans-Serif" font-size="10.00">outputNavRinexGeph</text>
</a>
</g>
</g>
<!-- Node1&#45;&gt;Node12 -->
<g id="edge4_Node000001_Node000012" class="edge">
<title>Node1&#45;&gt;Node12</title>
<g id="a_edge4_Node000001_Node000012"><a xlink:title=" ">
<path fill="none" stroke="#63b8ff" d="M146.51,-93.63C138.07,-92.63 129.46,-91.6 121.12,-90.61"/>
<polygon fill="#63b8ff" stroke="#63b8ff" points="146.36,-97.14 156.7,-94.85 147.19,-90.19 146.36,-97.14"/>
</a>
</g>
</g>
<!-- Node13 -->
<g id="Node000013" class="node">
<title>Node13</title>
<g id="a_Node000013"><a xlink:href="rinexNavWrite_8cpp.html#aa67df0b1827f3ff1c4da263aed385531" target="_top" xlink:title=" ">
<path fill="#fff0f0" stroke="red" d="M110.67,-56C110.67,-56 10.33,-56 10.33,-56 7.17,-56 4,-52.83 4,-49.67 4,-49.67 4,-43.33 4,-43.33 4,-40.17 7.17,-37 10.33,-37 10.33,-37 110.67,-37 110.67,-37 113.83,-37 117,-40.17 117,-43.33 117,-43.33 117,-49.67 117,-49.67 117,-52.83 113.83,-56 110.67,-56"/>
<text text-anchor="middle" x="60.5" y="-44" font-family="Helvetica,sans-Serif" font-size="10.00">outputNavRinexION</text>
</a>
</g>
</g>
<!-- Node1&#45;&gt;Node13 -->
<g id="edge5_Node000001_Node000013" class="edge">
<title>Node1&#45;&gt;Node13</title>
<g id="a_edge5_Node000001_Node000013"><a xlink:title=" ">
<path fill="none" stroke="#63b8ff" d="M179.68,-87.98C162.34,-80.99 140.63,-72.49 121,-65.5 111.91,-62.26 101.95,-58.98 92.82,-56.08"/>
<polygon fill="#63b8ff" stroke="#63b8ff" points="178.76,-91.39 189.34,-91.9 181.39,-84.9 178.76,-91.39"/>
</a>
</g>
</g>
<!-- Node14 -->
<g id="Node000014" class="node">
<title>Node14</title>
<g id="a_Node000014"><a xlink:href="rinexNavWrite_8cpp.html#a1f47486483dce4060d409ab0a0e43698" target="_top" xlink:title=" ">
<path fill="#fff0f0" stroke="red" d="M111.67,-19C111.67,-19 9.33,-19 9.33,-19 6.17,-19 3,-15.83 3,-12.67 3,-12.67 3,-6.33 3,-6.33 3,-3.17 6.17,0 9.33,0 9.33,0 111.67,0 111.67,0 114.83,0 118,-3.17 118,-6.33 118,-6.33 118,-12.67 118,-12.67 118,-15.83 114.83,-19 111.67,-19"/>
<text text-anchor="middle" x="60.5" y="-7" font-family="Helvetica,sans-Serif" font-size="10.00">outputNavRinexSTO</text>
</a>
</g>
</g>
<!-- Node1&#45;&gt;Node14 -->
<g id="edge6_Node000001_Node000014" class="edge">
<title>Node1&#45;&gt;Node14</title>
<g id="a_edge6_Node000001_Node000014"><a xlink:title=" ">
<path fill="none" stroke="#63b8ff" d="M195.03,-84.29C177.57,-67.94 149.33,-43.66 121,-28.5 114.02,-24.77 106.18,-21.62 98.54,-19.02"/>
<polygon fill="#63b8ff" stroke="#63b8ff" points="193.03,-87.23 202.68,-91.61 197.87,-82.17 193.03,-87.23"/>
</a>
</g>
</g>
</g>
</svg>
