<?xml version="1.0" encoding="UTF-8" standalone="no"?>
<!DOCTYPE svg PUBLIC "-//W3C//DTD SVG 1.1//EN"
 "http://www.w3.org/Graphics/SVG/1.1/DTD/svg11.dtd">
<!-- Generated by graphviz version 2.43.0 (0)
 -->
<!-- Title: getmet Pages: 1 -->
<svg width="158pt" height="27pt"
 viewBox="0.00 0.00 158.00 27.00" xmlns="http://www.w3.org/2000/svg" xmlns:xlink="http://www.w3.org/1999/xlink">
<g id="graph0" class="graph" transform="scale(1 1) rotate(0) translate(4 23)">
<title>getmet</title>
<!-- Node1 -->
<g id="Node000001" class="node">
<title>Node1</title>
<g id="a_Node000001"><a xlink:href="tropSBAS_8cpp.html#ac83fd8246caa5739f6cddb91110fd1bf" target="_top" xlink:title="get meterological parameters">
<path fill="#fff0f0" stroke="red" stroke-width="2" d="M143.67,-19C143.67,-19 104.33,-19 104.33,-19 101.17,-19 98,-15.83 98,-12.67 98,-12.67 98,-6.33 98,-6.33 98,-3.17 101.17,0 104.33,0 104.33,0 143.67,0 143.67,0 146.83,0 150,-3.17 150,-6.33 150,-6.33 150,-12.67 150,-12.67 150,-15.83 146.83,-19 143.67,-19"/>
<text text-anchor="middle" x="124" y="-7" font-family="Helvetica,sans-Serif" font-size="10.00">getmet</text>
</a>
</g>
</g>
<!-- Node2 -->
<g id="Node000002" class="node">
<title>Node2</title>
<g id="a_Node000002"><a xlink:href="tropSBAS_8cpp.html#ad65c38914aa6333618890e8ad1aa3256" target="_top" xlink:title=" ">
<path fill="#fff0f0" stroke="red" d="M55.67,-19C55.67,-19 6.33,-19 6.33,-19 3.17,-19 0,-15.83 0,-12.67 0,-12.67 0,-6.33 0,-6.33 0,-3.17 3.17,0 6.33,0 6.33,0 55.67,0 55.67,0 58.83,0 62,-3.17 62,-6.33 62,-6.33 62,-12.67 62,-12.67 62,-15.83 58.83,-19 55.67,-19"/>
<text text-anchor="middle" x="31" y="-7" font-family="Helvetica,sans-Serif" font-size="10.00">tropSBAS</text>
</a>
</g>
</g>
<!-- Node1&#45;&gt;Node2 -->
<g id="edge1_Node000001_Node000002" class="edge">
<title>Node1&#45;&gt;Node2</title>
<g id="a_edge1_Node000001_Node000002"><a xlink:title=" ">
<path fill="none" stroke="#63b8ff" d="M87.38,-9.5C79,-9.5 70.16,-9.5 62.05,-9.5"/>
<polygon fill="#63b8ff" stroke="#63b8ff" points="87.65,-13 97.65,-9.5 87.65,-6 87.65,-13"/>
</a>
</g>
</g>
</g>
</svg>
