<?xml version="1.0" encoding="UTF-8" standalone="no"?>
<!DOCTYPE svg PUBLIC "-//W3C//DTD SVG 1.1//EN"
 "http://www.w3.org/Graphics/SVG/1.1/DTD/svg11.dtd">
<!-- Generated by graphviz version 2.43.0 (0)
 -->
<!-- Title: tropSAAS Pages: 1 -->
<svg width="282pt" height="114pt"
 viewBox="0.00 0.00 282.00 114.03" xmlns="http://www.w3.org/2000/svg" xmlns:xlink="http://www.w3.org/1999/xlink">
<g id="graph0" class="graph" transform="scale(1 1) rotate(0) translate(4 110.03)">
<title>tropSAAS</title>
<!-- Node1 -->
<g id="Node000001" class="node">
<title>Node1</title>
<g id="a_Node000001"><a xlink:href="tropSAAS_8cpp.html#a1d3b00af7bf0b5ded35bb5efd1602f38" target="_top" xlink:title=" ">
<path fill="#fff0f0" stroke="red" stroke-width="2" d="M267.67,-50.03C267.67,-50.03 218.33,-50.03 218.33,-50.03 215.17,-50.03 212,-46.86 212,-43.69 212,-43.69 212,-37.36 212,-37.36 212,-34.19 215.17,-31.03 218.33,-31.03 218.33,-31.03 267.67,-31.03 267.67,-31.03 270.83,-31.03 274,-34.19 274,-37.36 274,-37.36 274,-43.69 274,-43.69 274,-46.86 270.83,-50.03 267.67,-50.03"/>
<text text-anchor="middle" x="243" y="-38.03" font-family="Helvetica,sans-Serif" font-size="10.00">tropSAAS</text>
</a>
</g>
</g>
<!-- Node2 -->
<g id="Node000002" class="node">
<title>Node2</title>
<g id="a_Node000002"><a xlink:href="spp_8cpp.html#ad923112e4e6dfdfc8b050b68851fe1d0" target="_top" xlink:title="Estimate receiver position and biases using code measurements.">
<path fill="#fff0f0" stroke="red" d="M157.17,-106.03C157.17,-106.03 120.83,-106.03 120.83,-106.03 117.67,-106.03 114.5,-102.86 114.5,-99.69 114.5,-99.69 114.5,-93.36 114.5,-93.36 114.5,-90.19 117.67,-87.03 120.83,-87.03 120.83,-87.03 157.17,-87.03 157.17,-87.03 160.33,-87.03 163.5,-90.19 163.5,-93.36 163.5,-93.36 163.5,-99.69 163.5,-99.69 163.5,-102.86 160.33,-106.03 157.17,-106.03"/>
<text text-anchor="middle" x="139" y="-94.03" font-family="Helvetica,sans-Serif" font-size="10.00">estpos</text>
</a>
</g>
</g>
<!-- Node1&#45;&gt;Node2 -->
<g id="edge1_Node000001_Node000002" class="edge">
<title>Node1&#45;&gt;Node2</title>
<g id="a_edge1_Node000001_Node000002"><a xlink:title=" ">
<path fill="none" stroke="#63b8ff" d="M217.1,-55.32C204.82,-62.5 189.74,-71.14 176,-78.53 170.71,-81.37 164.91,-84.33 159.54,-87.02"/>
<polygon fill="#63b8ff" stroke="#63b8ff" points="219.03,-58.25 225.88,-50.16 215.48,-52.21 219.03,-58.25"/>
</a>
</g>
</g>
<!-- Node10 -->
<g id="Node000010" class="node">
<title>Node10</title>
<g id="a_Node000010"><a xlink:href="tropCSSR_8cpp.html#a00162918c37e119307c3c670a6eeebb8" target="_top" xlink:title="SSR Troposphere model compute tropospheric delay using compact SSR contents Neill Mapping functions i...">
<path fill="#fff0f0" stroke="red" d="M163.67,-69.03C163.67,-69.03 114.33,-69.03 114.33,-69.03 111.17,-69.03 108,-65.86 108,-62.69 108,-62.69 108,-56.36 108,-56.36 108,-53.19 111.17,-50.03 114.33,-50.03 114.33,-50.03 163.67,-50.03 163.67,-50.03 166.83,-50.03 170,-53.19 170,-56.36 170,-56.36 170,-62.69 170,-62.69 170,-65.86 166.83,-69.03 163.67,-69.03"/>
<text text-anchor="middle" x="139" y="-57.03" font-family="Helvetica,sans-Serif" font-size="10.00">tropCSSR</text>
</a>
</g>
</g>
<!-- Node1&#45;&gt;Node10 -->
<g id="edge2_Node000001_Node000010" class="edge">
<title>Node1&#45;&gt;Node10</title>
<g id="a_edge2_Node000001_Node000010"><a xlink:title=" ">
<path fill="none" stroke="#63b8ff" d="M202.05,-47.97C191.45,-49.94 180.18,-52.04 170.19,-53.9"/>
<polygon fill="#63b8ff" stroke="#63b8ff" points="202.76,-51.4 211.95,-46.12 201.48,-44.51 202.76,-51.4"/>
</a>
</g>
</g>
<!-- Node11 -->
<g id="Node000011" class="node">
<title>Node11</title>
<g id="a_Node000011"><a xlink:href="tropModels_8cpp.html#a4e0e7ea77b35161d438a4bc48e02c6d7" target="_top" xlink:title=" ">
<path fill="#fff0f0" stroke="red" d="M59.67,-31.03C59.67,-31.03 6.33,-31.03 6.33,-31.03 3.17,-31.03 0,-27.86 0,-24.69 0,-24.69 0,-18.36 0,-18.36 0,-15.19 3.17,-12.03 6.33,-12.03 6.33,-12.03 59.67,-12.03 59.67,-12.03 62.83,-12.03 66,-15.19 66,-18.36 66,-18.36 66,-24.69 66,-24.69 66,-27.86 62.83,-31.03 59.67,-31.03"/>
<text text-anchor="middle" x="33" y="-19.03" font-family="Helvetica,sans-Serif" font-size="10.00">tropModel</text>
</a>
</g>
</g>
<!-- Node1&#45;&gt;Node11 -->
<g id="edge5_Node000001_Node000011" class="edge">
<title>Node1&#45;&gt;Node11</title>
<g id="a_edge5_Node000001_Node000011"><a xlink:title=" ">
<path fill="none" stroke="#63b8ff" d="M220.53,-25.23C208.15,-17.36 191.92,-8.59 176,-4.53 137.51,5.29 91.66,-3.8 62.69,-12.01"/>
<polygon fill="#63b8ff" stroke="#63b8ff" points="218.91,-28.36 229.17,-30.98 222.78,-22.53 218.91,-28.36"/>
</a>
</g>
</g>
<!-- Node19 -->
<g id="Node000019" class="node">
<title>Node19</title>
<g id="a_Node000019"><a xlink:href="tropModels_8cpp.html#a6ac7045326cea50a1c96ad1f23a1bd09" target="_top" xlink:title=" ">
<path fill="#fff0f0" stroke="red" d="M169.67,-32.03C169.67,-32.03 108.33,-32.03 108.33,-32.03 105.17,-32.03 102,-28.86 102,-25.69 102,-25.69 102,-19.36 102,-19.36 102,-16.19 105.17,-13.03 108.33,-13.03 108.33,-13.03 169.67,-13.03 169.67,-13.03 172.83,-13.03 176,-16.19 176,-19.36 176,-19.36 176,-25.69 176,-25.69 176,-28.86 172.83,-32.03 169.67,-32.03"/>
<text text-anchor="middle" x="139" y="-20.03" font-family="Helvetica,sans-Serif" font-size="10.00">tropDryZTD</text>
</a>
</g>
</g>
<!-- Node1&#45;&gt;Node19 -->
<g id="edge4_Node000001_Node000019" class="edge">
<title>Node1&#45;&gt;Node19</title>
<g id="a_edge4_Node000001_Node000019"><a xlink:title=" ">
<path fill="none" stroke="#63b8ff" d="M201.93,-33.45C193.48,-31.96 184.62,-30.4 176.33,-28.94"/>
<polygon fill="#63b8ff" stroke="#63b8ff" points="201.49,-36.93 211.95,-35.22 202.71,-30.04 201.49,-36.93"/>
</a>
</g>
</g>
<!-- Node10&#45;&gt;Node11 -->
<g id="edge3_Node000010_Node000011" class="edge">
<title>Node10&#45;&gt;Node11</title>
<g id="a_edge3_Node000010_Node000011"><a xlink:title=" ">
<path fill="none" stroke="#63b8ff" d="M102.1,-46.41C88.34,-41.38 72.92,-35.75 60.24,-31.11"/>
<polygon fill="#63b8ff" stroke="#63b8ff" points="101.16,-49.79 111.76,-49.94 103.56,-43.22 101.16,-49.79"/>
</a>
</g>
</g>
</g>
</svg>
