<?xml version="1.0" encoding="UTF-8" standalone="no"?>
<!DOCTYPE svg PUBLIC "-//W3C//DTD SVG 1.1//EN"
 "http://www.w3.org/Graphics/SVG/1.1/DTD/svg11.dtd">
<!-- Generated by graphviz version 2.43.0 (0)
 -->
<!-- Title: tropCSSR Pages: 1 -->
<svg width="350pt" height="195pt"
 viewBox="0.00 0.00 350.00 195.00" xmlns="http://www.w3.org/2000/svg" xmlns:xlink="http://www.w3.org/1999/xlink">
<g id="graph0" class="graph" transform="scale(1 1) rotate(0) translate(4 191)">
<title>tropCSSR</title>
<!-- Node1 -->
<g id="Node000001" class="node">
<title>Node1</title>
<g id="a_Node000001"><a xlink:href="tropCSSR_8cpp.html#a00162918c37e119307c3c670a6eeebb8" target="_top" xlink:title="SSR Troposphere model compute tropospheric delay using compact SSR contents Neill Mapping functions i...">
<path fill="#fff0f0" stroke="red" stroke-width="2" d="M55.67,-79C55.67,-79 6.33,-79 6.33,-79 3.17,-79 0,-75.83 0,-72.67 0,-72.67 0,-66.33 0,-66.33 0,-63.17 3.17,-60 6.33,-60 6.33,-60 55.67,-60 55.67,-60 58.83,-60 62,-63.17 62,-66.33 62,-66.33 62,-72.67 62,-72.67 62,-75.83 58.83,-79 55.67,-79"/>
<text text-anchor="middle" x="31" y="-67" font-family="Helvetica,sans-Serif" font-size="10.00">tropCSSR</text>
</a>
</g>
</g>
<!-- Node2 -->
<g id="Node000002" class="node">
<title>Node2</title>
<g id="a_Node000002"><a xlink:href="tropSAAS_8cpp.html#a1d3b00af7bf0b5ded35bb5efd1602f38" target="_top" xlink:title=" ">
<path fill="#fff0f0" stroke="red" d="M175.17,-187C175.17,-187 125.83,-187 125.83,-187 122.67,-187 119.5,-183.83 119.5,-180.67 119.5,-180.67 119.5,-174.33 119.5,-174.33 119.5,-171.17 122.67,-168 125.83,-168 125.83,-168 175.17,-168 175.17,-168 178.33,-168 181.5,-171.17 181.5,-174.33 181.5,-174.33 181.5,-180.67 181.5,-180.67 181.5,-183.83 178.33,-187 175.17,-187"/>
<text text-anchor="middle" x="150.5" y="-175" font-family="Helvetica,sans-Serif" font-size="10.00">tropSAAS</text>
</a>
</g>
</g>
<!-- Node1&#45;&gt;Node2 -->
<g id="edge1_Node000001_Node000002" class="edge">
<title>Node1&#45;&gt;Node2</title>
<g id="a_edge1_Node000001_Node000002"><a xlink:title=" ">
<path fill="none" stroke="#63b8ff" d="M36.56,-79.13C45.69,-97.4 67.94,-137.25 98,-159.5 101.65,-162.2 105.75,-164.53 109.99,-166.52"/>
<polygon fill="#63b8ff" stroke="#63b8ff" points="108.81,-169.81 119.39,-170.36 111.45,-163.33 108.81,-169.81"/>
</a>
</g>
</g>
<!-- Node3 -->
<g id="Node000003" class="node">
<title>Node3</title>
<g id="a_Node000003"><a xlink:href="structVectorPos.html#ae607eb1f43de3cf1aaa024c2fdabc514" target="_top" xlink:title=" ">
<path fill="#fff0f0" stroke="red" d="M335.67,-103C335.67,-103 245.33,-103 245.33,-103 242.17,-103 239,-99.83 239,-96.67 239,-96.67 239,-90.33 239,-90.33 239,-87.17 242.17,-84 245.33,-84 245.33,-84 335.67,-84 335.67,-84 338.83,-84 342,-87.17 342,-90.33 342,-90.33 342,-96.67 342,-96.67 342,-99.83 338.83,-103 335.67,-103"/>
<text text-anchor="middle" x="290.5" y="-91" font-family="Helvetica,sans-Serif" font-size="10.00">VectorPos::latDeg</text>
</a>
</g>
</g>
<!-- Node1&#45;&gt;Node3 -->
<g id="edge4_Node000001_Node000003" class="edge">
<title>Node1&#45;&gt;Node3</title>
<g id="a_edge4_Node000001_Node000003"><a xlink:title=" ">
<path fill="none" stroke="#63b8ff" d="M62.04,-67.78C104.08,-69.18 181.21,-75.98 233.89,-82.65"/>
<polygon fill="#63b8ff" stroke="#63b8ff" points="233.71,-86.15 244.08,-83.98 234.62,-79.21 233.71,-86.15"/>
</a>
</g>
</g>
<!-- Node1&#45;&gt;Node3 -->
<g id="edge7_Node000001_Node000003" class="edge">
<title>Node1&#45;&gt;Node3</title>
<g id="a_edge7_Node000001_Node000003"><a xlink:title=" ">
<path fill="none" stroke="#63b8ff" d="M62.04,-76.82C102.71,-83.05 176.23,-90.34 228.67,-93.66"/>
<polygon fill="#63b8ff" stroke="#63b8ff" points="228.67,-97.17 238.86,-94.28 229.09,-90.18 228.67,-97.17"/>
</a>
</g>
</g>
<!-- Node9 -->
<g id="Node000009" class="node">
<title>Node9</title>
<g id="a_Node000009"><a xlink:href="localAtmosRegion_8cpp.html#a22c3de486f9cab9033418ae9b2903fa8" target="_top" xlink:title=" ">
<path fill="#fff0f0" stroke="red" d="M193.17,-150C193.17,-150 107.83,-150 107.83,-150 104.67,-150 101.5,-146.83 101.5,-143.67 101.5,-143.67 101.5,-137.33 101.5,-137.33 101.5,-134.17 104.67,-131 107.83,-131 107.83,-131 193.17,-131 193.17,-131 196.33,-131 199.5,-134.17 199.5,-137.33 199.5,-137.33 199.5,-143.67 199.5,-143.67 199.5,-146.83 196.33,-150 193.17,-150"/>
<text text-anchor="middle" x="150.5" y="-138" font-family="Helvetica,sans-Serif" font-size="10.00">checkSSRRegion</text>
</a>
</g>
</g>
<!-- Node1&#45;&gt;Node9 -->
<g id="edge3_Node000001_Node000009" class="edge">
<title>Node1&#45;&gt;Node9</title>
<g id="a_edge3_Node000001_Node000009"><a xlink:title=" ">
<path fill="none" stroke="#63b8ff" d="M44.2,-79.22C57.11,-89.26 78.31,-105.03 98,-116.5 104.13,-120.07 110.88,-123.53 117.41,-126.65"/>
<polygon fill="#63b8ff" stroke="#63b8ff" points="116.19,-129.95 126.74,-130.97 119.13,-123.59 116.19,-129.95"/>
</a>
</g>
</g>
<!-- Node10 -->
<g id="Node000010" class="node">
<title>Node10</title>
<g id="a_Node000010"><a xlink:href="structVectorPos.html#aa693d5a52133cfb55040b768c6175bae" target="_top" xlink:title=" ">
<path fill="#fff0f0" stroke="red" d="M196.67,-56C196.67,-56 104.33,-56 104.33,-56 101.17,-56 98,-52.83 98,-49.67 98,-49.67 98,-43.33 98,-43.33 98,-40.17 101.17,-37 104.33,-37 104.33,-37 196.67,-37 196.67,-37 199.83,-37 203,-40.17 203,-43.33 203,-43.33 203,-49.67 203,-49.67 203,-52.83 199.83,-56 196.67,-56"/>
<text text-anchor="middle" x="150.5" y="-44" font-family="Helvetica,sans-Serif" font-size="10.00">VectorPos::lonDeg</text>
</a>
</g>
</g>
<!-- Node1&#45;&gt;Node10 -->
<g id="edge5_Node000001_Node000010" class="edge">
<title>Node1&#45;&gt;Node10</title>
<g id="a_edge5_Node000001_Node000010"><a xlink:title=" ">
<path fill="none" stroke="#63b8ff" d="M53.28,-59.99C63.09,-57.21 75.29,-54.35 87.68,-51.86"/>
<polygon fill="#63b8ff" stroke="#63b8ff" points="88.45,-55.28 97.61,-49.95 87.13,-48.4 88.45,-55.28"/>
</a>
</g>
</g>
<!-- Node1&#45;&gt;Node10 -->
<g id="edge6_Node000001_Node000010" class="edge">
<title>Node1&#45;&gt;Node10</title>
<g id="a_edge6_Node000001_Node000010"><a xlink:title=" ">
<path fill="none" stroke="#63b8ff" d="M62.26,-69.57C79.54,-67.19 101.16,-62.97 118.55,-58.59"/>
<polygon fill="#63b8ff" stroke="#63b8ff" points="119.48,-61.96 128.24,-56 117.67,-55.2 119.48,-61.96"/>
</a>
</g>
</g>
<!-- Node6 -->
<g id="Node000006" class="node">
<title>Node6</title>
<g id="a_Node000006"><a xlink:href="tropGPT2_8cpp.html#aa061d99eb567e08008ee2e0b0463926d" target="_top" xlink:title="coefficients multiplication">
<path fill="#fff0f0" stroke="red" d="M163.17,-19C163.17,-19 137.83,-19 137.83,-19 134.67,-19 131.5,-15.83 131.5,-12.67 131.5,-12.67 131.5,-6.33 131.5,-6.33 131.5,-3.17 134.67,0 137.83,0 137.83,0 163.17,0 163.17,0 166.33,0 169.5,-3.17 169.5,-6.33 169.5,-6.33 169.5,-12.67 169.5,-12.67 169.5,-15.83 166.33,-19 163.17,-19"/>
<text text-anchor="middle" x="150.5" y="-7" font-family="Helvetica,sans-Serif" font-size="10.00">coef</text>
</a>
</g>
</g>
<!-- Node1&#45;&gt;Node6 -->
<g id="edge8_Node000001_Node000006" class="edge">
<title>Node1&#45;&gt;Node6</title>
<g id="a_edge8_Node000001_Node000006"><a xlink:title=" ">
<path fill="none" stroke="#63b8ff" d="M38.31,-59.65C49.77,-47.89 74.97,-30.76 98,-19.5 105.5,-15.83 113.9,-12.45 121.7,-9.95"/>
<polygon fill="#63b8ff" stroke="#63b8ff" points="122.8,-13.28 131.49,-7.22 120.92,-6.53 122.8,-13.28"/>
</a>
</g>
</g>
<!-- Node1&#45;&gt;Node6 -->
<g id="edge9_Node000001_Node000006" class="edge">
<title>Node1&#45;&gt;Node6</title>
<g id="a_edge9_Node000001_Node000006"><a xlink:title=" ">
<path fill="none" stroke="#63b8ff" d="M57.96,-59.91C69.84,-52.97 84.31,-44.19 98,-37.5 108.42,-32.41 120.58,-27.86 130.46,-23.53"/>
<polygon fill="#63b8ff" stroke="#63b8ff" points="132.26,-26.55 139.77,-19.07 129.24,-20.23 132.26,-26.55"/>
</a>
</g>
</g>
<!-- Node2&#45;&gt;Node3 -->
<g id="edge2_Node000002_Node000003" class="edge">
<title>Node2&#45;&gt;Node3</title>
<g id="a_edge2_Node000002_Node000003"><a xlink:title=" ">
<path fill="none" stroke="#63b8ff" d="M181.6,-168.77C188.8,-166.2 196.33,-163.09 203,-159.5 228.63,-145.69 254.76,-124.59 271.49,-109.98"/>
<polygon fill="#63b8ff" stroke="#63b8ff" points="274.18,-112.26 279.33,-103 269.53,-107.03 274.18,-112.26"/>
</a>
</g>
</g>
</g>
</svg>
