<?xml version="1.0" encoding="UTF-8" standalone="no"?>
<!DOCTYPE svg PUBLIC "-//W3C//DTD SVG 1.1//EN"
 "http://www.w3.org/Graphics/SVG/1.1/DTD/svg11.dtd">
<!-- Generated by graphviz version 2.43.0 (0)
 -->
<!-- Title: tropModelCoef Pages: 1 -->
<svg width="238pt" height="64pt"
 viewBox="0.00 0.00 238.00 64.00" xmlns="http://www.w3.org/2000/svg" xmlns:xlink="http://www.w3.org/1999/xlink">
<g id="graph0" class="graph" transform="scale(1 1) rotate(0) translate(4 60)">
<title>tropModelCoef</title>
<!-- Node1 -->
<g id="Node000001" class="node">
<title>Node1</title>
<g id="a_Node000001"><a xlink:href="tropModels_8cpp.html#ae2e859a3c8b8d21b5d2de98286079474" target="_top" xlink:title=" ">
<path fill="#fff0f0" stroke="red" stroke-width="2" d="M82.67,-37C82.67,-37 6.33,-37 6.33,-37 3.17,-37 0,-33.83 0,-30.67 0,-30.67 0,-24.33 0,-24.33 0,-21.17 3.17,-18 6.33,-18 6.33,-18 82.67,-18 82.67,-18 85.83,-18 89,-21.17 89,-24.33 89,-24.33 89,-30.67 89,-30.67 89,-33.83 85.83,-37 82.67,-37"/>
<text text-anchor="middle" x="44.5" y="-25" font-family="Helvetica,sans-Serif" font-size="10.00">tropModelCoef</text>
</a>
</g>
</g>
<!-- Node2 -->
<g id="Node000002" class="node">
<title>Node2</title>
<g id="a_Node000002"><a xlink:href="structVectorPos.html#ae607eb1f43de3cf1aaa024c2fdabc514" target="_top" xlink:title=" ">
<path fill="#fff0f0" stroke="red" d="M222.67,-56C222.67,-56 132.33,-56 132.33,-56 129.17,-56 126,-52.83 126,-49.67 126,-49.67 126,-43.33 126,-43.33 126,-40.17 129.17,-37 132.33,-37 132.33,-37 222.67,-37 222.67,-37 225.83,-37 229,-40.17 229,-43.33 229,-43.33 229,-49.67 229,-49.67 229,-52.83 225.83,-56 222.67,-56"/>
<text text-anchor="middle" x="177.5" y="-44" font-family="Helvetica,sans-Serif" font-size="10.00">VectorPos::latDeg</text>
</a>
</g>
</g>
<!-- Node1&#45;&gt;Node2 -->
<g id="edge1_Node000001_Node000002" class="edge">
<title>Node1&#45;&gt;Node2</title>
<g id="a_edge1_Node000001_Node000002"><a xlink:title=" ">
<path fill="none" stroke="#63b8ff" d="M89.12,-33.83C97.67,-35.07 106.77,-36.39 115.76,-37.69"/>
<polygon fill="#63b8ff" stroke="#63b8ff" points="115.42,-41.18 125.81,-39.15 116.42,-34.25 115.42,-41.18"/>
</a>
</g>
</g>
<!-- Node3 -->
<g id="Node000003" class="node">
<title>Node3</title>
<g id="a_Node000003"><a xlink:href="structVectorPos.html#aa693d5a52133cfb55040b768c6175bae" target="_top" xlink:title=" ">
<path fill="#fff0f0" stroke="red" d="M223.67,-19C223.67,-19 131.33,-19 131.33,-19 128.17,-19 125,-15.83 125,-12.67 125,-12.67 125,-6.33 125,-6.33 125,-3.17 128.17,0 131.33,0 131.33,0 223.67,0 223.67,0 226.83,0 230,-3.17 230,-6.33 230,-6.33 230,-12.67 230,-12.67 230,-15.83 226.83,-19 223.67,-19"/>
<text text-anchor="middle" x="177.5" y="-7" font-family="Helvetica,sans-Serif" font-size="10.00">VectorPos::lonDeg</text>
</a>
</g>
</g>
<!-- Node1&#45;&gt;Node3 -->
<g id="edge2_Node000001_Node000003" class="edge">
<title>Node1&#45;&gt;Node3</title>
<g id="a_edge2_Node000001_Node000003"><a xlink:title=" ">
<path fill="none" stroke="#63b8ff" d="M89.12,-21.51C97.36,-20.37 106.12,-19.17 114.79,-17.98"/>
<polygon fill="#63b8ff" stroke="#63b8ff" points="115.46,-21.42 124.89,-16.59 114.51,-14.48 115.46,-21.42"/>
</a>
</g>
</g>
</g>
</svg>
