<?xml version="1.0" encoding="UTF-8" standalone="no"?>
<!DOCTYPE svg PUBLIC "-//W3C//DTD SVG 1.1//EN"
 "http://www.w3.org/Graphics/SVG/1.1/DTD/svg11.dtd">
<!-- Generated by graphviz version 2.43.0 (0)
 -->
<!-- Title: readvmf3 Pages: 1 -->
<svg width="200pt" height="27pt"
 viewBox="0.00 0.00 200.00 27.00" xmlns="http://www.w3.org/2000/svg" xmlns:xlink="http://www.w3.org/1999/xlink">
<g id="graph0" class="graph" transform="scale(1 1) rotate(0) translate(4 23)">
<title>readvmf3</title>
<!-- Node1 -->
<g id="Node000001" class="node">
<title>Node1</title>
<g id="a_Node000001"><a xlink:href="tropVMF3_8cpp.html#a5d110a6f9820120ea75dce88891a17ef" target="_top" xlink:title="read vmf3 grid">
<path fill="#fff0f0" stroke="red" stroke-width="2" d="M57.67,-19C57.67,-19 6.33,-19 6.33,-19 3.17,-19 0,-15.83 0,-12.67 0,-12.67 0,-6.33 0,-6.33 0,-3.17 3.17,0 6.33,0 6.33,0 57.67,0 57.67,0 60.83,0 64,-3.17 64,-6.33 64,-6.33 64,-12.67 64,-12.67 64,-15.83 60.83,-19 57.67,-19"/>
<text text-anchor="middle" x="32" y="-7" font-family="Helvetica,sans-Serif" font-size="10.00">readvmf3</text>
</a>
</g>
</g>
<!-- Node2 -->
<g id="Node000002" class="node">
<title>Node2</title>
<g id="a_Node000002"><a xlink:href="structGTime.html#aaa8a379d11cd6c040a6bbe680c0e913e" target="_top" xlink:title="Uninitialised time for comparisons.">
<path fill="#fff0f0" stroke="red" d="M185.67,-19C185.67,-19 106.33,-19 106.33,-19 103.17,-19 100,-15.83 100,-12.67 100,-12.67 100,-6.33 100,-6.33 100,-3.17 103.17,0 106.33,0 106.33,0 185.67,0 185.67,0 188.83,0 192,-3.17 192,-6.33 192,-6.33 192,-12.67 192,-12.67 192,-15.83 188.83,-19 185.67,-19"/>
<text text-anchor="middle" x="146" y="-7" font-family="Helvetica,sans-Serif" font-size="10.00">GTime::noTime</text>
</a>
</g>
</g>
<!-- Node1&#45;&gt;Node2 -->
<g id="edge1_Node000001_Node000002" class="edge">
<title>Node1&#45;&gt;Node2</title>
<g id="a_edge1_Node000001_Node000002"><a xlink:title=" ">
<path fill="none" stroke="#63b8ff" d="M64.2,-3.38C72.11,-2.95 80.84,-2.74 89.56,-2.75"/>
<polygon fill="#63b8ff" stroke="#63b8ff" points="89.7,-6.25 99.74,-2.86 89.77,0.75 89.7,-6.25"/>
</a>
</g>
</g>
<!-- Node1&#45;&gt;Node2 -->
<g id="edge2_Node000001_Node000002" class="edge">
<title>Node1&#45;&gt;Node2</title>
<g id="a_edge2_Node000001_Node000002"><a xlink:title=" ">
<path fill="none" stroke="#63b8ff" d="M64.2,-15.62C72.11,-16.05 80.84,-16.26 89.56,-16.25"/>
<polygon fill="#63b8ff" stroke="#63b8ff" points="89.77,-19.75 99.74,-16.14 89.7,-12.75 89.77,-19.75"/>
</a>
</g>
</g>
</g>
</svg>
