<?xml version="1.0" encoding="UTF-8" standalone="no"?>
<!DOCTYPE svg PUBLIC "-//W3C//DTD SVG 1.1//EN"
 "http://www.w3.org/Graphics/SVG/1.1/DTD/svg11.dtd">
<!-- Generated by graphviz version 2.43.0 (0)
 -->
<!-- Title: setDescription Pages: 1 -->
<svg width="260pt" height="27pt"
 viewBox="0.00 0.00 260.00 27.00" xmlns="http://www.w3.org/2000/svg" xmlns:xlink="http://www.w3.org/1999/xlink">
<g id="graph0" class="graph" transform="scale(1 1) rotate(0) translate(4 23)">
<title>setDescription</title>
<!-- Node1 -->
<g id="Node000001" class="node">
<title>Node1</title>
<g id="a_Node000001"><a xlink:href="tropSinex_8cpp.html#a97e226ce7219f7e1f35c2fde83f435af" target="_top" xlink:title="Set data for trop description block.">
<path fill="#fff0f0" stroke="red" stroke-width="2" d="M80.67,-19C80.67,-19 6.33,-19 6.33,-19 3.17,-19 0,-15.83 0,-12.67 0,-12.67 0,-6.33 0,-6.33 0,-3.17 3.17,0 6.33,0 6.33,0 80.67,0 80.67,0 83.83,0 87,-3.17 87,-6.33 87,-6.33 87,-12.67 87,-12.67 87,-15.83 83.83,-19 80.67,-19"/>
<text text-anchor="middle" x="43.5" y="-7" font-family="Helvetica,sans-Serif" font-size="10.00">setDescription</text>
</a>
</g>
</g>
<!-- Node2 -->
<g id="Node000002" class="node">
<title>Node2</title>
<g id="a_Node000002"><a xlink:href="structACSConfig.html#acbb130e061ba4b7bf620e4fb68e1b794" target="_top" xlink:title="Set receiver options for a specific receiver using a hierarchy of sources.">
<path fill="#fff0f0" stroke="red" d="M245.67,-19C245.67,-19 129.33,-19 129.33,-19 126.17,-19 123,-15.83 123,-12.67 123,-12.67 123,-6.33 123,-6.33 123,-3.17 126.17,0 129.33,0 129.33,0 245.67,0 245.67,0 248.83,0 252,-3.17 252,-6.33 252,-6.33 252,-12.67 252,-12.67 252,-15.83 248.83,-19 245.67,-19"/>
<text text-anchor="middle" x="187.5" y="-7" font-family="Helvetica,sans-Serif" font-size="10.00">ACSConfig::getRecOpts</text>
</a>
</g>
</g>
<!-- Node1&#45;&gt;Node2 -->
<g id="edge1_Node000001_Node000002" class="edge">
<title>Node1&#45;&gt;Node2</title>
<g id="a_edge1_Node000001_Node000002"><a xlink:title=" ">
<path fill="none" stroke="#63b8ff" d="M87.1,-9.5C95.21,-9.5 103.9,-9.5 112.65,-9.5"/>
<polygon fill="#63b8ff" stroke="#63b8ff" points="112.92,-13 122.92,-9.5 112.92,-6 112.92,-13"/>
</a>
</g>
</g>
</g>
</svg>
