<?xml version="1.0" encoding="UTF-8" standalone="no"?>
<!DOCTYPE svg PUBLIC "-//W3C//DTD SVG 1.1//EN"
 "http://www.w3.org/Graphics/SVG/1.1/DTD/svg11.dtd">
<!-- Generated by graphviz version 2.43.0 (0)
 -->
<!-- Title: tropGPT2 Pages: 1 -->
<svg width="223pt" height="212pt"
 viewBox="0.00 0.00 223.00 212.00" xmlns="http://www.w3.org/2000/svg" xmlns:xlink="http://www.w3.org/1999/xlink">
<g id="graph0" class="graph" transform="scale(1 1) rotate(0) translate(4 208)">
<title>tropGPT2</title>
<!-- Node1 -->
<g id="Node000001" class="node">
<title>Node1</title>
<g id="a_Node000001"><a xlink:href="tropGPT2_8cpp.html#a5653656bdc62fbfcc53b5ea4ac625fa0" target="_top" xlink:title="Troposphere zenith hydrastatic delay and mapping function.">
<path fill="#fff0f0" stroke="red" stroke-width="2" d="M55.67,-111C55.67,-111 6.33,-111 6.33,-111 3.17,-111 0,-107.83 0,-104.67 0,-104.67 0,-98.33 0,-98.33 0,-95.17 3.17,-92 6.33,-92 6.33,-92 55.67,-92 55.67,-92 58.83,-92 62,-95.17 62,-98.33 62,-98.33 62,-104.67 62,-104.67 62,-107.83 58.83,-111 55.67,-111"/>
<text text-anchor="middle" x="31" y="-99" font-family="Helvetica,sans-Serif" font-size="10.00">tropGPT2</text>
</a>
</g>
</g>
<!-- Node2 -->
<g id="Node000002" class="node">
<title>Node2</title>
<g id="a_Node000002"><a xlink:href="structMjDateTT.html#a59bc0eb943a43f7f024329249a73c2bb" target="_top" xlink:title=" ">
<path fill="#fff0f0" stroke="red" d="M208.67,-204C208.67,-204 104.33,-204 104.33,-204 101.17,-204 98,-200.83 98,-197.67 98,-197.67 98,-191.33 98,-191.33 98,-188.17 101.17,-185 104.33,-185 104.33,-185 208.67,-185 208.67,-185 211.83,-185 215,-188.17 215,-191.33 215,-191.33 215,-197.67 215,-197.67 215,-200.83 211.83,-204 208.67,-204"/>
<text text-anchor="middle" x="156.5" y="-192" font-family="Helvetica,sans-Serif" font-size="10.00">MjDateTT::to_double</text>
</a>
</g>
</g>
<!-- Node1&#45;&gt;Node2 -->
<g id="edge1_Node000001_Node000002" class="edge">
<title>Node1&#45;&gt;Node2</title>
<g id="a_edge1_Node000001_Node000002"><a xlink:title=" ">
<path fill="none" stroke="#63b8ff" d="M37.87,-111.06C48.12,-126.95 70.8,-158.83 98,-176.5 100.43,-178.08 103,-179.52 105.66,-180.85"/>
<polygon fill="#63b8ff" stroke="#63b8ff" points="104.38,-184.11 114.95,-184.9 107.18,-177.69 104.38,-184.11"/>
</a>
</g>
</g>
<!-- Node3 -->
<g id="Node000003" class="node">
<title>Node3</title>
<g id="a_Node000003"><a xlink:href="structVectorPos.html#a63e862a389b3548bc5b4aedabd94540b" target="_top" xlink:title=" ">
<path fill="#fff0f0" stroke="red" d="M191.67,-167C191.67,-167 121.33,-167 121.33,-167 118.17,-167 115,-163.83 115,-160.67 115,-160.67 115,-154.33 115,-154.33 115,-151.17 118.17,-148 121.33,-148 121.33,-148 191.67,-148 191.67,-148 194.83,-148 198,-151.17 198,-154.33 198,-154.33 198,-160.67 198,-160.67 198,-163.83 194.83,-167 191.67,-167"/>
<text text-anchor="middle" x="156.5" y="-155" font-family="Helvetica,sans-Serif" font-size="10.00">VectorPos::lat</text>
</a>
</g>
</g>
<!-- Node1&#45;&gt;Node3 -->
<g id="edge2_Node000001_Node000003" class="edge">
<title>Node1&#45;&gt;Node3</title>
<g id="a_edge2_Node000001_Node000003"><a xlink:title=" ">
<path fill="none" stroke="#63b8ff" d="M46.46,-111.06C59.51,-119.39 79.47,-131.38 98,-139.5 102.15,-141.32 106.55,-143.04 110.99,-144.64"/>
<polygon fill="#63b8ff" stroke="#63b8ff" points="110.1,-148.03 120.69,-147.95 112.36,-141.41 110.1,-148.03"/>
</a>
</g>
</g>
<!-- Node4 -->
<g id="Node000004" class="node">
<title>Node4</title>
<g id="a_Node000004"><a xlink:href="structVectorPos.html#ab7ade23bd200ec4145eb389b58737dee" target="_top" xlink:title=" ">
<path fill="#fff0f0" stroke="red" d="M193.17,-130C193.17,-130 119.83,-130 119.83,-130 116.67,-130 113.5,-126.83 113.5,-123.67 113.5,-123.67 113.5,-117.33 113.5,-117.33 113.5,-114.17 116.67,-111 119.83,-111 119.83,-111 193.17,-111 193.17,-111 196.33,-111 199.5,-114.17 199.5,-117.33 199.5,-117.33 199.5,-123.67 199.5,-123.67 199.5,-126.83 196.33,-130 193.17,-130"/>
<text text-anchor="middle" x="156.5" y="-118" font-family="Helvetica,sans-Serif" font-size="10.00">VectorPos::lon</text>
</a>
</g>
</g>
<!-- Node1&#45;&gt;Node4 -->
<g id="edge3_Node000001_Node000004" class="edge">
<title>Node1&#45;&gt;Node4</title>
<g id="a_edge3_Node000001_Node000004"><a xlink:title=" ">
<path fill="none" stroke="#63b8ff" d="M62.21,-106.15C74.62,-108.06 89.36,-110.32 103.41,-112.49"/>
<polygon fill="#63b8ff" stroke="#63b8ff" points="103.06,-115.97 113.48,-114.04 104.13,-109.06 103.06,-115.97"/>
</a>
</g>
</g>
<!-- Node5 -->
<g id="Node000005" class="node">
<title>Node5</title>
<g id="a_Node000005"><a xlink:href="structVectorPos.html#a9517f77c95322d34dc896a88db4a804f" target="_top" xlink:title=" ">
<path fill="#fff0f0" stroke="red" d="M193.17,-93C193.17,-93 119.83,-93 119.83,-93 116.67,-93 113.5,-89.83 113.5,-86.67 113.5,-86.67 113.5,-80.33 113.5,-80.33 113.5,-77.17 116.67,-74 119.83,-74 119.83,-74 193.17,-74 193.17,-74 196.33,-74 199.5,-77.17 199.5,-80.33 199.5,-80.33 199.5,-86.67 199.5,-86.67 199.5,-89.83 196.33,-93 193.17,-93"/>
<text text-anchor="middle" x="156.5" y="-81" font-family="Helvetica,sans-Serif" font-size="10.00">VectorPos::hgt</text>
</a>
</g>
</g>
<!-- Node1&#45;&gt;Node5 -->
<g id="edge4_Node000001_Node000005" class="edge">
<title>Node1&#45;&gt;Node5</title>
<g id="a_edge4_Node000001_Node000005"><a xlink:title=" ">
<path fill="none" stroke="#63b8ff" d="M62.21,-97.1C74.62,-95.29 89.36,-93.14 103.41,-91.09"/>
<polygon fill="#63b8ff" stroke="#63b8ff" points="104.09,-94.53 113.48,-89.62 103.08,-87.6 104.09,-94.53"/>
</a>
</g>
</g>
<!-- Node6 -->
<g id="Node000006" class="node">
<title>Node6</title>
<g id="a_Node000006"><a xlink:href="tropGPT2_8cpp.html#acc5284a2fa33a318b01e4b32ac4e4a9d" target="_top" xlink:title="global pressure and temperature">
<path fill="#fff0f0" stroke="red" d="M169.17,-56C169.17,-56 143.83,-56 143.83,-56 140.67,-56 137.5,-52.83 137.5,-49.67 137.5,-49.67 137.5,-43.33 137.5,-43.33 137.5,-40.17 140.67,-37 143.83,-37 143.83,-37 169.17,-37 169.17,-37 172.33,-37 175.5,-40.17 175.5,-43.33 175.5,-43.33 175.5,-49.67 175.5,-49.67 175.5,-52.83 172.33,-56 169.17,-56"/>
<text text-anchor="middle" x="156.5" y="-44" font-family="Helvetica,sans-Serif" font-size="10.00">gpt2</text>
</a>
</g>
</g>
<!-- Node1&#45;&gt;Node6 -->
<g id="edge5_Node000001_Node000006" class="edge">
<title>Node1&#45;&gt;Node6</title>
<g id="a_edge5_Node000001_Node000006"><a xlink:title=" ">
<path fill="none" stroke="#63b8ff" d="M47.6,-91.95C60.73,-84.16 80.16,-73.24 98,-65.5 107.42,-61.41 118.02,-57.68 127.53,-54.62"/>
<polygon fill="#63b8ff" stroke="#63b8ff" points="128.8,-57.9 137.32,-51.59 126.73,-51.21 128.8,-57.9"/>
</a>
</g>
</g>
<!-- Node10 -->
<g id="Node000010" class="node">
<title>Node10</title>
<g id="a_Node000010"><a xlink:href="tropGPT2_8cpp.html#aee2c019dfbbe04e348825d0b8ce5dbee" target="_top" xlink:title="vienna mapping function.">
<path fill="#fff0f0" stroke="red" d="M171.17,-19C171.17,-19 141.83,-19 141.83,-19 138.67,-19 135.5,-15.83 135.5,-12.67 135.5,-12.67 135.5,-6.33 135.5,-6.33 135.5,-3.17 138.67,0 141.83,0 141.83,0 171.17,0 171.17,0 174.33,0 177.5,-3.17 177.5,-6.33 177.5,-6.33 177.5,-12.67 177.5,-12.67 177.5,-15.83 174.33,-19 171.17,-19"/>
<text text-anchor="middle" x="156.5" y="-7" font-family="Helvetica,sans-Serif" font-size="10.00">vmf1</text>
</a>
</g>
</g>
<!-- Node1&#45;&gt;Node10 -->
<g id="edge6_Node000001_Node000010" class="edge">
<title>Node1&#45;&gt;Node10</title>
<g id="a_edge6_Node000001_Node000010"><a xlink:title=" ">
<path fill="none" stroke="#63b8ff" d="M38.47,-91.5C49.09,-75.86 71.66,-45.66 98,-28.5 106.35,-23.06 116.39,-19.05 125.73,-16.15"/>
<polygon fill="#63b8ff" stroke="#63b8ff" points="126.79,-19.49 135.48,-13.42 124.9,-12.74 126.79,-19.49"/>
</a>
</g>
</g>
</g>
</svg>
