<?xml version="1.0" encoding="UTF-8" standalone="no"?>
<!DOCTYPE svg PUBLIC "-//W3C//DTD SVG 1.1//EN"
 "http://www.w3.org/Graphics/SVG/1.1/DTD/svg11.dtd">
<!-- Generated by graphviz version 2.43.0 (0)
 -->
<!-- Title: setDescription Pages: 1 -->
<svg width="226pt" height="27pt"
 viewBox="0.00 0.00 226.00 27.00" xmlns="http://www.w3.org/2000/svg" xmlns:xlink="http://www.w3.org/1999/xlink">
<g id="graph0" class="graph" transform="scale(1 1) rotate(0) translate(4 23)">
<title>setDescription</title>
<!-- Node1 -->
<g id="Node000001" class="node">
<title>Node1</title>
<g id="a_Node000001"><a xlink:href="tropSinex_8cpp.html#a97e226ce7219f7e1f35c2fde83f435af" target="_top" xlink:title="Set data for trop description block.">
<path fill="#fff0f0" stroke="red" stroke-width="2" d="M211.67,-19C211.67,-19 137.33,-19 137.33,-19 134.17,-19 131,-15.83 131,-12.67 131,-12.67 131,-6.33 131,-6.33 131,-3.17 134.17,0 137.33,0 137.33,0 211.67,0 211.67,0 214.83,0 218,-3.17 218,-6.33 218,-6.33 218,-12.67 218,-12.67 218,-15.83 214.83,-19 211.67,-19"/>
<text text-anchor="middle" x="174.5" y="-7" font-family="Helvetica,sans-Serif" font-size="10.00">setDescription</text>
</a>
</g>
</g>
<!-- Node2 -->
<g id="Node000002" class="node">
<title>Node2</title>
<g id="a_Node000002"><a xlink:href="tropSinex_8cpp.html#a7d4d797b1dca3898283e8b3d00b0e60f" target="_top" xlink:title="Output troposphere SINEX data.">
<path fill="#fff0f0" stroke="red" d="M88.67,-19C88.67,-19 6.33,-19 6.33,-19 3.17,-19 0,-15.83 0,-12.67 0,-12.67 0,-6.33 0,-6.33 0,-3.17 3.17,0 6.33,0 6.33,0 88.67,0 88.67,0 91.83,0 95,-3.17 95,-6.33 95,-6.33 95,-12.67 95,-12.67 95,-15.83 91.83,-19 88.67,-19"/>
<text text-anchor="middle" x="47.5" y="-7" font-family="Helvetica,sans-Serif" font-size="10.00">outputTropSinex</text>
</a>
</g>
</g>
<!-- Node1&#45;&gt;Node2 -->
<g id="edge1_Node000001_Node000002" class="edge">
<title>Node1&#45;&gt;Node2</title>
<g id="a_edge1_Node000001_Node000002"><a xlink:title=" ">
<path fill="none" stroke="#63b8ff" d="M120.69,-9.5C112.24,-9.5 103.55,-9.5 95.26,-9.5"/>
<polygon fill="#63b8ff" stroke="#63b8ff" points="120.83,-13 130.83,-9.5 120.83,-6 120.83,-13"/>
</a>
</g>
</g>
</g>
</svg>
