<?xml version="1.0" encoding="UTF-8" standalone="no"?>
<!DOCTYPE svg PUBLIC "-//W3C//DTD SVG 1.1//EN"
 "http://www.w3.org/Graphics/SVG/1.1/DTD/svg11.dtd">
<!-- Generated by graphviz version 2.43.0 (0)
 -->
<!-- Title: tropSBAS Pages: 1 -->
<svg width="209pt" height="138pt"
 viewBox="0.00 0.00 209.00 138.00" xmlns="http://www.w3.org/2000/svg" xmlns:xlink="http://www.w3.org/1999/xlink">
<g id="graph0" class="graph" transform="scale(1 1) rotate(0) translate(4 134)">
<title>tropSBAS</title>
<!-- Node1 -->
<g id="Node000001" class="node">
<title>Node1</title>
<g id="a_Node000001"><a xlink:href="tropSBAS_8cpp.html#ad65c38914aa6333618890e8ad1aa3256" target="_top" xlink:title=" ">
<path fill="#fff0f0" stroke="red" stroke-width="2" d="M55.67,-93C55.67,-93 6.33,-93 6.33,-93 3.17,-93 0,-89.83 0,-86.67 0,-86.67 0,-80.33 0,-80.33 0,-77.17 3.17,-74 6.33,-74 6.33,-74 55.67,-74 55.67,-74 58.83,-74 62,-77.17 62,-80.33 62,-80.33 62,-86.67 62,-86.67 62,-89.83 58.83,-93 55.67,-93"/>
<text text-anchor="middle" x="31" y="-81" font-family="Helvetica,sans-Serif" font-size="10.00">tropSBAS</text>
</a>
</g>
</g>
<!-- Node2 -->
<g id="Node000002" class="node">
<title>Node2</title>
<g id="a_Node000002"><a xlink:href="structVectorPos.html#a9517f77c95322d34dc896a88db4a804f" target="_top" xlink:title=" ">
<path fill="#fff0f0" stroke="red" d="M186.17,-130C186.17,-130 112.83,-130 112.83,-130 109.67,-130 106.5,-126.83 106.5,-123.67 106.5,-123.67 106.5,-117.33 106.5,-117.33 106.5,-114.17 109.67,-111 112.83,-111 112.83,-111 186.17,-111 186.17,-111 189.33,-111 192.5,-114.17 192.5,-117.33 192.5,-117.33 192.5,-123.67 192.5,-123.67 192.5,-126.83 189.33,-130 186.17,-130"/>
<text text-anchor="middle" x="149.5" y="-118" font-family="Helvetica,sans-Serif" font-size="10.00">VectorPos::hgt</text>
</a>
</g>
</g>
<!-- Node1&#45;&gt;Node2 -->
<g id="edge1_Node000001_Node000002" class="edge">
<title>Node1&#45;&gt;Node2</title>
<g id="a_edge1_Node000001_Node000002"><a xlink:title=" ">
<path fill="none" stroke="#63b8ff" d="M62,-87.04C81.23,-92.02 105.87,-99.97 123.93,-107.07"/>
<polygon fill="#63b8ff" stroke="#63b8ff" points="122.64,-110.32 133.22,-110.91 125.31,-103.85 122.64,-110.32"/>
</a>
</g>
</g>
<!-- Node1&#45;&gt;Node2 -->
<g id="edge2_Node000001_Node000002" class="edge">
<title>Node1&#45;&gt;Node2</title>
<g id="a_edge2_Node000001_Node000002"><a xlink:title=" ">
<path fill="none" stroke="#63b8ff" d="M47.23,-93.07C59.88,-98.61 78.63,-105.23 96.58,-110.72"/>
<polygon fill="#63b8ff" stroke="#63b8ff" points="95.84,-114.16 106.42,-113.65 97.83,-107.45 95.84,-114.16"/>
</a>
</g>
</g>
<!-- Node3 -->
<g id="Node000003" class="node">
<title>Node3</title>
<g id="a_Node000003"><a xlink:href="tropSBAS_8cpp.html#ac83fd8246caa5739f6cddb91110fd1bf" target="_top" xlink:title="get meterological parameters">
<path fill="#fff0f0" stroke="red" d="M169.17,-93C169.17,-93 129.83,-93 129.83,-93 126.67,-93 123.5,-89.83 123.5,-86.67 123.5,-86.67 123.5,-80.33 123.5,-80.33 123.5,-77.17 126.67,-74 129.83,-74 129.83,-74 169.17,-74 169.17,-74 172.33,-74 175.5,-77.17 175.5,-80.33 175.5,-80.33 175.5,-86.67 175.5,-86.67 175.5,-89.83 172.33,-93 169.17,-93"/>
<text text-anchor="middle" x="149.5" y="-81" font-family="Helvetica,sans-Serif" font-size="10.00">getmet</text>
</a>
</g>
</g>
<!-- Node1&#45;&gt;Node3 -->
<g id="edge3_Node000001_Node000003" class="edge">
<title>Node1&#45;&gt;Node3</title>
<g id="a_edge3_Node000001_Node000003"><a xlink:title=" ">
<path fill="none" stroke="#63b8ff" d="M62,-83.5C77.6,-83.5 96.76,-83.5 113.08,-83.5"/>
<polygon fill="#63b8ff" stroke="#63b8ff" points="113.33,-87 123.33,-83.5 113.33,-80 113.33,-87"/>
</a>
</g>
</g>
<!-- Node4 -->
<g id="Node000004" class="node">
<title>Node4</title>
<g id="a_Node000004"><a xlink:href="structVectorPos.html#ae607eb1f43de3cf1aaa024c2fdabc514" target="_top" xlink:title=" ">
<path fill="#fff0f0" stroke="red" d="M194.67,-56C194.67,-56 104.33,-56 104.33,-56 101.17,-56 98,-52.83 98,-49.67 98,-49.67 98,-43.33 98,-43.33 98,-40.17 101.17,-37 104.33,-37 104.33,-37 194.67,-37 194.67,-37 197.83,-37 201,-40.17 201,-43.33 201,-43.33 201,-49.67 201,-49.67 201,-52.83 197.83,-56 194.67,-56"/>
<text text-anchor="middle" x="149.5" y="-44" font-family="Helvetica,sans-Serif" font-size="10.00">VectorPos::latDeg</text>
</a>
</g>
</g>
<!-- Node1&#45;&gt;Node4 -->
<g id="edge4_Node000001_Node000004" class="edge">
<title>Node1&#45;&gt;Node4</title>
<g id="a_edge4_Node000001_Node000004"><a xlink:title=" ">
<path fill="none" stroke="#63b8ff" d="M62,-73.97C76.16,-69.48 93.25,-64.05 108.5,-59.2"/>
<polygon fill="#63b8ff" stroke="#63b8ff" points="109.72,-62.49 118.2,-56.12 107.6,-55.82 109.72,-62.49"/>
</a>
</g>
</g>
<!-- Node5 -->
<g id="Node000005" class="node">
<title>Node5</title>
<g id="a_Node000005"><a xlink:href="structVectorPos.html#a63e862a389b3548bc5b4aedabd94540b" target="_top" xlink:title=" ">
<path fill="#fff0f0" stroke="red" d="M184.67,-19C184.67,-19 114.33,-19 114.33,-19 111.17,-19 108,-15.83 108,-12.67 108,-12.67 108,-6.33 108,-6.33 108,-3.17 111.17,0 114.33,0 114.33,0 184.67,0 184.67,0 187.83,0 191,-3.17 191,-6.33 191,-6.33 191,-12.67 191,-12.67 191,-15.83 187.83,-19 184.67,-19"/>
<text text-anchor="middle" x="149.5" y="-7" font-family="Helvetica,sans-Serif" font-size="10.00">VectorPos::lat</text>
</a>
</g>
</g>
<!-- Node1&#45;&gt;Node5 -->
<g id="edge5_Node000001_Node000005" class="edge">
<title>Node1&#45;&gt;Node5</title>
<g id="a_edge5_Node000001_Node000005"><a xlink:title=" ">
<path fill="none" stroke="#63b8ff" d="M41.49,-73.79C53.66,-61.8 75.83,-41.41 98,-28.5 101.41,-26.52 105.06,-24.67 108.79,-22.97"/>
<polygon fill="#63b8ff" stroke="#63b8ff" points="110.24,-26.16 118.1,-19.05 107.53,-19.7 110.24,-26.16"/>
</a>
</g>
</g>
</g>
</svg>
