<?xml version="1.0" encoding="UTF-8" standalone="no"?>
<!DOCTYPE svg PUBLIC "-//W3C//DTD SVG 1.1//EN"
 "http://www.w3.org/Graphics/SVG/1.1/DTD/svg11.dtd">
<!-- Generated by graphviz version 2.43.0 (0)
 -->
<!-- Title: setTropSolCommentList Pages: 1 -->
<svg width="243pt" height="27pt"
 viewBox="0.00 0.00 243.00 27.00" xmlns="http://www.w3.org/2000/svg" xmlns:xlink="http://www.w3.org/1999/xlink">
<g id="graph0" class="graph" transform="scale(1 1) rotate(0) translate(4 23)">
<title>setTropSolCommentList</title>
<!-- Node1 -->
<g id="Node000001" class="node">
<title>Node1</title>
<g id="a_Node000001"><a xlink:href="tropSinex_8cpp.html#a01609b567cee9fc597731f8a38b66e1c" target="_top" xlink:title="Set troposphere solution header comment.">
<path fill="#fff0f0" stroke="red" stroke-width="2" d="M228.67,-19C228.67,-19 109.33,-19 109.33,-19 106.17,-19 103,-15.83 103,-12.67 103,-12.67 103,-6.33 103,-6.33 103,-3.17 106.17,0 109.33,0 109.33,0 228.67,0 228.67,0 231.83,0 235,-3.17 235,-6.33 235,-6.33 235,-12.67 235,-12.67 235,-15.83 231.83,-19 228.67,-19"/>
<text text-anchor="middle" x="169" y="-7" font-family="Helvetica,sans-Serif" font-size="10.00">setTropSolCommentList</text>
</a>
</g>
</g>
<!-- Node2 -->
<g id="Node000002" class="node">
<title>Node2</title>
<g id="a_Node000002"><a xlink:href="tropSinex_8cpp.html#acd54f7b8acedc9407cd6fab6d27805dd" target="_top" xlink:title="Set troposphere solution data.">
<path fill="#fff0f0" stroke="red" d="M60.67,-19C60.67,-19 6.33,-19 6.33,-19 3.17,-19 0,-15.83 0,-12.67 0,-12.67 0,-6.33 0,-6.33 0,-3.17 3.17,0 6.33,0 6.33,0 60.67,0 60.67,0 63.83,0 67,-3.17 67,-6.33 67,-6.33 67,-12.67 67,-12.67 67,-15.83 63.83,-19 60.67,-19"/>
<text text-anchor="middle" x="33.5" y="-7" font-family="Helvetica,sans-Serif" font-size="10.00">setTropSol</text>
</a>
</g>
</g>
<!-- Node1&#45;&gt;Node2 -->
<g id="edge1_Node000001_Node000002" class="edge">
<title>Node1&#45;&gt;Node2</title>
<g id="a_edge1_Node000001_Node000002"><a xlink:title=" ">
<path fill="none" stroke="#63b8ff" d="M92.73,-9.5C83.85,-9.5 75.17,-9.5 67.34,-9.5"/>
<polygon fill="#63b8ff" stroke="#63b8ff" points="92.81,-13 102.81,-9.5 92.81,-6 92.81,-13"/>
</a>
</g>
</g>
</g>
</svg>
