<?xml version="1.0" encoding="UTF-8" standalone="no"?>
<!DOCTYPE svg PUBLIC "-//W3C//DTD SVG 1.1//EN"
 "http://www.w3.org/Graphics/SVG/1.1/DTD/svg11.dtd">
<!-- Generated by graphviz version 2.43.0 (0)
 -->
<!-- Title: setSiteAntCalib Pages: 1 -->
<svg width="211pt" height="27pt"
 viewBox="0.00 0.00 211.00 27.00" xmlns="http://www.w3.org/2000/svg" xmlns:xlink="http://www.w3.org/1999/xlink">
<g id="graph0" class="graph" transform="scale(1 1) rotate(0) translate(4 23)">
<title>setSiteAntCalib</title>
<!-- Node1 -->
<g id="Node000001" class="node">
<title>Node1</title>
<g id="a_Node000001"><a xlink:href="tropSinex_8cpp.html#a46f3559d46a9ca2fd745fc2a46ee12f5" target="_top" xlink:title="Set antenna calibration model data for SITE/ANTENNA block.">
<path fill="#fff0f0" stroke="red" stroke-width="2" d="M85.67,-19C85.67,-19 6.33,-19 6.33,-19 3.17,-19 0,-15.83 0,-12.67 0,-12.67 0,-6.33 0,-6.33 0,-3.17 3.17,0 6.33,0 6.33,0 85.67,0 85.67,0 88.83,0 92,-3.17 92,-6.33 92,-6.33 92,-12.67 92,-12.67 92,-15.83 88.83,-19 85.67,-19"/>
<text text-anchor="middle" x="46" y="-7" font-family="Helvetica,sans-Serif" font-size="10.00">setSiteAntCalib</text>
</a>
</g>
</g>
<!-- Node2 -->
<g id="Node000002" class="node">
<title>Node2</title>
<g id="a_Node000002"><a xlink:href="antenna_8cpp.html#a204d102006d5bff3d311de7f6f189e44" target="_top" xlink:title=" ">
<path fill="#fff0f0" stroke="red" d="M196.67,-19C196.67,-19 134.33,-19 134.33,-19 131.17,-19 128,-15.83 128,-12.67 128,-12.67 128,-6.33 128,-6.33 128,-3.17 131.17,0 134.33,0 134.33,0 196.67,0 196.67,0 199.83,0 203,-3.17 203,-6.33 203,-6.33 203,-12.67 203,-12.67 203,-15.83 199.83,-19 196.67,-19"/>
<text text-anchor="middle" x="165.5" y="-7" font-family="Helvetica,sans-Serif" font-size="10.00">findAntenna</text>
</a>
</g>
</g>
<!-- Node1&#45;&gt;Node2 -->
<g id="edge1_Node000001_Node000002" class="edge">
<title>Node1&#45;&gt;Node2</title>
<g id="a_edge1_Node000001_Node000002"><a xlink:title=" ">
<path fill="none" stroke="#63b8ff" d="M92.09,-9.5C100.47,-9.5 109.23,-9.5 117.66,-9.5"/>
<polygon fill="#63b8ff" stroke="#63b8ff" points="117.72,-13 127.72,-9.5 117.72,-6 117.72,-13"/>
</a>
</g>
</g>
</g>
</svg>
