<?xml version="1.0" encoding="UTF-8" standalone="no"?>
<!DOCTYPE svg PUBLIC "-//W3C//DTD SVG 1.1//EN"
 "http://www.w3.org/Graphics/SVG/1.1/DTD/svg11.dtd">
<!-- Generated by graphviz version 2.43.0 (0)
 -->
<!-- Title: writeTropSiteId Pages: 1 -->
<svg width="362pt" height="382pt"
 viewBox="0.00 0.00 362.00 382.00" xmlns="http://www.w3.org/2000/svg" xmlns:xlink="http://www.w3.org/1999/xlink">
<g id="graph0" class="graph" transform="scale(1 1) rotate(0) translate(4 378)">
<title>writeTropSiteId</title>
<!-- Node1 -->
<g id="Node000001" class="node">
<title>Node1</title>
<g id="a_Node000001"><a xlink:href="tropSinex_8cpp.html#a1faee2ac53f3a75f110a3d3fadd79354" target="_top" xlink:title="Write SITE/ID block.">
<path fill="#fff0f0" stroke="red" stroke-width="2" d="M82.67,-204C82.67,-204 6.33,-204 6.33,-204 3.17,-204 0,-200.83 0,-197.67 0,-197.67 0,-191.33 0,-191.33 0,-188.17 3.17,-185 6.33,-185 6.33,-185 82.67,-185 82.67,-185 85.83,-185 89,-188.17 89,-191.33 89,-191.33 89,-197.67 89,-197.67 89,-200.83 85.83,-204 82.67,-204"/>
<text text-anchor="middle" x="44.5" y="-192" font-family="Helvetica,sans-Serif" font-size="10.00">writeTropSiteId</text>
</a>
</g>
</g>
<!-- Node2 -->
<g id="Node000002" class="node">
<title>Node2</title>
<g id="a_Node000002"><a xlink:href="sinex_8cpp.html#ade0ffbf6a284b0467d88c28563df76ab" target="_top" xlink:title=" ">
<path fill="#fff0f0" stroke="red" d="M225.67,-374C225.67,-374 131.33,-374 131.33,-374 128.17,-374 125,-370.83 125,-367.67 125,-367.67 125,-361.33 125,-361.33 125,-358.17 128.17,-355 131.33,-355 131.33,-355 225.67,-355 225.67,-355 228.83,-355 232,-358.17 232,-361.33 232,-361.33 232,-367.67 232,-367.67 232,-370.83 228.83,-374 225.67,-374"/>
<text text-anchor="middle" x="178.5" y="-362" font-family="Helvetica,sans-Serif" font-size="10.00">writeAsComments</text>
</a>
</g>
</g>
<!-- Node1&#45;&gt;Node2 -->
<g id="edge1_Node000001_Node000002" class="edge">
<title>Node1&#45;&gt;Node2</title>
<g id="a_edge1_Node000001_Node000002"><a xlink:title=" ">
<path fill="none" stroke="#63b8ff" d="M48.32,-204.02C56.29,-229.44 81.31,-299.76 125,-340.5 129.08,-344.3 133.86,-347.58 138.85,-350.39"/>
<polygon fill="#63b8ff" stroke="#63b8ff" points="137.44,-353.6 147.95,-354.95 140.58,-347.34 137.44,-353.6"/>
</a>
</g>
</g>
<!-- Node3 -->
<g id="Node000003" class="node">
<title>Node3</title>
<g id="a_Node000003"><a xlink:href="structVectorPos.html#a63e862a389b3548bc5b4aedabd94540b" target="_top" xlink:title=" ">
<path fill="#fff0f0" stroke="red" d="M346.17,-278C346.17,-278 275.83,-278 275.83,-278 272.67,-278 269.5,-274.83 269.5,-271.67 269.5,-271.67 269.5,-265.33 269.5,-265.33 269.5,-262.17 272.67,-259 275.83,-259 275.83,-259 346.17,-259 346.17,-259 349.33,-259 352.5,-262.17 352.5,-265.33 352.5,-265.33 352.5,-271.67 352.5,-271.67 352.5,-274.83 349.33,-278 346.17,-278"/>
<text text-anchor="middle" x="311" y="-266" font-family="Helvetica,sans-Serif" font-size="10.00">VectorPos::lat</text>
</a>
</g>
</g>
<!-- Node1&#45;&gt;Node3 -->
<g id="edge2_Node000001_Node000003" class="edge">
<title>Node1&#45;&gt;Node3</title>
<g id="a_edge2_Node000001_Node000003"><a xlink:title=" ">
<path fill="none" stroke="#63b8ff" d="M54.66,-204.32C68.41,-218.31 95.88,-243.51 125,-254.5 168.11,-270.78 220.8,-273.23 258.91,-272.23"/>
<polygon fill="#63b8ff" stroke="#63b8ff" points="259.39,-275.72 269.26,-271.87 259.14,-268.72 259.39,-275.72"/>
</a>
</g>
</g>
<!-- Node4 -->
<g id="Node000004" class="node">
<title>Node4</title>
<g id="a_Node000004"><a xlink:href="structVectorPos.html#ab7ade23bd200ec4145eb389b58737dee" target="_top" xlink:title=" ">
<path fill="#fff0f0" stroke="red" d="M347.67,-241C347.67,-241 274.33,-241 274.33,-241 271.17,-241 268,-237.83 268,-234.67 268,-234.67 268,-228.33 268,-228.33 268,-225.17 271.17,-222 274.33,-222 274.33,-222 347.67,-222 347.67,-222 350.83,-222 354,-225.17 354,-228.33 354,-228.33 354,-234.67 354,-234.67 354,-237.83 350.83,-241 347.67,-241"/>
<text text-anchor="middle" x="311" y="-229" font-family="Helvetica,sans-Serif" font-size="10.00">VectorPos::lon</text>
</a>
</g>
</g>
<!-- Node1&#45;&gt;Node4 -->
<g id="edge3_Node000001_Node000004" class="edge">
<title>Node1&#45;&gt;Node4</title>
<g id="a_edge3_Node000001_Node000004"><a xlink:title=" ">
<path fill="none" stroke="#63b8ff" d="M58.43,-204.15C73.5,-214.73 99.6,-231.07 125,-237.5 168.71,-248.56 220.08,-245.7 257.58,-240.85"/>
<polygon fill="#63b8ff" stroke="#63b8ff" points="258.35,-244.27 267.77,-239.44 257.39,-237.34 258.35,-244.27"/>
</a>
</g>
</g>
<!-- Node5 -->
<g id="Node000005" class="node">
<title>Node5</title>
<g id="a_Node000005"><a xlink:href="structVectorPos.html#a9517f77c95322d34dc896a88db4a804f" target="_top" xlink:title=" ">
<path fill="#fff0f0" stroke="red" d="M347.67,-204C347.67,-204 274.33,-204 274.33,-204 271.17,-204 268,-200.83 268,-197.67 268,-197.67 268,-191.33 268,-191.33 268,-188.17 271.17,-185 274.33,-185 274.33,-185 347.67,-185 347.67,-185 350.83,-185 354,-188.17 354,-191.33 354,-191.33 354,-197.67 354,-197.67 354,-200.83 350.83,-204 347.67,-204"/>
<text text-anchor="middle" x="311" y="-192" font-family="Helvetica,sans-Serif" font-size="10.00">VectorPos::hgt</text>
</a>
</g>
</g>
<!-- Node1&#45;&gt;Node5 -->
<g id="edge4_Node000001_Node000005" class="edge">
<title>Node1&#45;&gt;Node5</title>
<g id="a_edge4_Node000001_Node000005"><a xlink:title=" ">
<path fill="none" stroke="#63b8ff" d="M89.36,-197.57C100.87,-199.84 113.33,-202.2 125,-203.5 172.26,-208.78 184.75,-208.88 232,-203.5 240.44,-202.54 249.29,-201.01 257.88,-199.37"/>
<polygon fill="#63b8ff" stroke="#63b8ff" points="258.67,-202.78 267.8,-197.4 257.31,-195.91 258.67,-202.78"/>
</a>
</g>
</g>
<!-- Node1&#45;&gt;Node5 -->
<g id="edge17_Node000001_Node000005" class="edge">
<title>Node1&#45;&gt;Node5</title>
<g id="a_edge17_Node000001_Node000005"><a xlink:title=" ">
<path fill="none" stroke="#63b8ff" d="M56.95,-204.06C72.28,-211.35 100.39,-218.75 125,-221.5 172.26,-226.78 184.75,-226.88 232,-221.5 251.82,-219.24 273.94,-213.86 289.55,-207.97"/>
<polygon fill="#63b8ff" stroke="#63b8ff" points="290.93,-211.19 298.77,-204.06 288.2,-204.74 290.93,-211.19"/>
</a>
</g>
</g>
<!-- Node6 -->
<g id="Node000006" class="node">
<title>Node6</title>
<g id="a_Node000006"><a xlink:href="coordinates_8cpp.html#a726b77659a6e94017c3acc10bca86a29" target="_top" xlink:title="Transform geodetic postion to ecef.">
<path fill="#fff0f0" stroke="red" d="M202.67,-204C202.67,-204 154.33,-204 154.33,-204 151.17,-204 148,-200.83 148,-197.67 148,-197.67 148,-191.33 148,-191.33 148,-188.17 151.17,-185 154.33,-185 154.33,-185 202.67,-185 202.67,-185 205.83,-185 209,-188.17 209,-191.33 209,-191.33 209,-197.67 209,-197.67 209,-200.83 205.83,-204 202.67,-204"/>
<text text-anchor="middle" x="178.5" y="-192" font-family="Helvetica,sans-Serif" font-size="10.00">pos2ecef</text>
</a>
</g>
</g>
<!-- Node1&#45;&gt;Node6 -->
<g id="edge5_Node000001_Node000006" class="edge">
<title>Node1&#45;&gt;Node6</title>
<g id="a_edge5_Node000001_Node000006"><a xlink:title=" ">
<path fill="none" stroke="#63b8ff" d="M89.09,-194.5C104.71,-194.5 122.23,-194.5 137.53,-194.5"/>
<polygon fill="#63b8ff" stroke="#63b8ff" points="137.71,-198 147.71,-194.5 137.71,-191 137.71,-198"/>
</a>
</g>
</g>
<!-- Node7 -->
<g id="Node000007" class="node">
<title>Node7</title>
<g id="a_Node000007"><a xlink:href="sinex_8cpp.html#ab4839f5d809abfd7161c3bb29b968421" target="_top" xlink:title=" ">
<path fill="#fff0f0" stroke="red" d="M206.17,-167C206.17,-167 150.83,-167 150.83,-167 147.67,-167 144.5,-163.83 144.5,-160.67 144.5,-160.67 144.5,-154.33 144.5,-154.33 144.5,-151.17 147.67,-148 150.83,-148 150.83,-148 206.17,-148 206.17,-148 209.33,-148 212.5,-151.17 212.5,-154.33 212.5,-154.33 212.5,-160.67 212.5,-160.67 212.5,-163.83 209.33,-167 206.17,-167"/>
<text text-anchor="middle" x="178.5" y="-155" font-family="Helvetica,sans-Serif" font-size="10.00">getRecSnx</text>
</a>
</g>
</g>
<!-- Node1&#45;&gt;Node7 -->
<g id="edge12_Node000001_Node000007" class="edge">
<title>Node1&#45;&gt;Node7</title>
<g id="a_edge12_Node000001_Node000007"><a xlink:title=" ">
<path fill="none" stroke="#63b8ff" d="M79.49,-184.97C96.1,-180.32 116.26,-174.66 133.98,-169.7"/>
<polygon fill="#63b8ff" stroke="#63b8ff" points="135.39,-172.94 144.08,-166.87 133.51,-166.2 135.39,-172.94"/>
</a>
</g>
</g>
<!-- Node10 -->
<g id="Node000010" class="node">
<title>Node10</title>
<g id="a_Node000010"><a xlink:href="coordinates_8cpp.html#a46582195cc36d33afb1a3d469eec8127" target="_top" xlink:title="transform local tangental coordinate vector to ecef">
<path fill="#fff0f0" stroke="red" d="M203.17,-130C203.17,-130 153.83,-130 153.83,-130 150.67,-130 147.5,-126.83 147.5,-123.67 147.5,-123.67 147.5,-117.33 147.5,-117.33 147.5,-114.17 150.67,-111 153.83,-111 153.83,-111 203.17,-111 203.17,-111 206.33,-111 209.5,-114.17 209.5,-117.33 209.5,-117.33 209.5,-123.67 209.5,-123.67 209.5,-126.83 206.33,-130 203.17,-130"/>
<text text-anchor="middle" x="178.5" y="-118" font-family="Helvetica,sans-Serif" font-size="10.00">enu2ecef</text>
</a>
</g>
</g>
<!-- Node1&#45;&gt;Node10 -->
<g id="edge13_Node000001_Node000010" class="edge">
<title>Node1&#45;&gt;Node10</title>
<g id="a_edge13_Node000001_Node000010"><a xlink:title=" ">
<path fill="none" stroke="#63b8ff" d="M56.95,-184.84C71.83,-172.68 98.99,-151.78 125,-138.5 129.07,-136.42 133.43,-134.5 137.84,-132.74"/>
<polygon fill="#63b8ff" stroke="#63b8ff" points="139.31,-135.93 147.46,-129.16 136.87,-129.37 139.31,-135.93"/>
</a>
</g>
</g>
<!-- Node12 -->
<g id="Node000012" class="node">
<title>Node12</title>
<g id="a_Node000012"><a xlink:href="utils_8cpp.html#ae91d83cf693cdc7e1efacbe4d8d9656e" target="_top" xlink:title=" ">
<path fill="#fff0f0" stroke="red" d="M202.67,-93C202.67,-93 154.33,-93 154.33,-93 151.17,-93 148,-89.83 148,-86.67 148,-86.67 148,-80.33 148,-80.33 148,-77.17 151.17,-74 154.33,-74 154.33,-74 202.67,-74 202.67,-74 205.83,-74 209,-77.17 209,-80.33 209,-80.33 209,-86.67 209,-86.67 209,-89.83 205.83,-93 202.67,-93"/>
<text text-anchor="middle" x="178.5" y="-81" font-family="Helvetica,sans-Serif" font-size="10.00">ecef2pos</text>
</a>
</g>
</g>
<!-- Node1&#45;&gt;Node12 -->
<g id="edge14_Node000001_Node000012" class="edge">
<title>Node1&#45;&gt;Node12</title>
<g id="a_edge14_Node000001_Node000012"><a xlink:title=" ">
<path fill="none" stroke="#63b8ff" d="M51.23,-184.85C62.84,-166.13 90.92,-124.66 125,-101.5 129.07,-98.73 133.6,-96.36 138.26,-94.32"/>
<polygon fill="#63b8ff" stroke="#63b8ff" points="139.79,-97.48 147.86,-90.61 137.27,-90.95 139.79,-97.48"/>
</a>
</g>
</g>
<!-- Node13 -->
<g id="Node000013" class="node">
<title>Node13</title>
<g id="a_Node000013"><a xlink:href="structVectorPos.html#ae607eb1f43de3cf1aaa024c2fdabc514" target="_top" xlink:title=" ">
<path fill="#fff0f0" stroke="red" d="M223.67,-56C223.67,-56 133.33,-56 133.33,-56 130.17,-56 127,-52.83 127,-49.67 127,-49.67 127,-43.33 127,-43.33 127,-40.17 130.17,-37 133.33,-37 133.33,-37 223.67,-37 223.67,-37 226.83,-37 230,-40.17 230,-43.33 230,-43.33 230,-49.67 230,-49.67 230,-52.83 226.83,-56 223.67,-56"/>
<text text-anchor="middle" x="178.5" y="-44" font-family="Helvetica,sans-Serif" font-size="10.00">VectorPos::latDeg</text>
</a>
</g>
</g>
<!-- Node1&#45;&gt;Node13 -->
<g id="edge15_Node000001_Node000013" class="edge">
<title>Node1&#45;&gt;Node13</title>
<g id="a_edge15_Node000001_Node000013"><a xlink:title=" ">
<path fill="none" stroke="#63b8ff" d="M48.8,-184.77C57.42,-160.77 82.9,-98.27 125,-64.5 126.58,-63.23 128.25,-62.05 129.99,-60.96"/>
<polygon fill="#63b8ff" stroke="#63b8ff" points="131.94,-63.88 139.14,-56.11 128.67,-57.7 131.94,-63.88"/>
</a>
</g>
</g>
<!-- Node14 -->
<g id="Node000014" class="node">
<title>Node14</title>
<g id="a_Node000014"><a xlink:href="structVectorPos.html#aa693d5a52133cfb55040b768c6175bae" target="_top" xlink:title=" ">
<path fill="#fff0f0" stroke="red" d="M224.67,-19C224.67,-19 132.33,-19 132.33,-19 129.17,-19 126,-15.83 126,-12.67 126,-12.67 126,-6.33 126,-6.33 126,-3.17 129.17,0 132.33,0 132.33,0 224.67,0 224.67,0 227.83,0 231,-3.17 231,-6.33 231,-6.33 231,-12.67 231,-12.67 231,-15.83 227.83,-19 224.67,-19"/>
<text text-anchor="middle" x="178.5" y="-7" font-family="Helvetica,sans-Serif" font-size="10.00">VectorPos::lonDeg</text>
</a>
</g>
</g>
<!-- Node1&#45;&gt;Node14 -->
<g id="edge16_Node000001_Node000014" class="edge">
<title>Node1&#45;&gt;Node14</title>
<g id="a_edge16_Node000001_Node000014"><a xlink:title=" ">
<path fill="none" stroke="#63b8ff" d="M47.4,-184.61C53.42,-156.01 74.68,-72.39 125,-27.5 126.31,-26.33 127.7,-25.24 129.15,-24.22"/>
<polygon fill="#63b8ff" stroke="#63b8ff" points="131.1,-27.13 138.01,-19.09 127.6,-21.07 131.1,-27.13"/>
</a>
</g>
</g>
<!-- Node6&#45;&gt;Node3 -->
<g id="edge6_Node000006_Node000003" class="edge">
<title>Node6&#45;&gt;Node3</title>
<g id="a_edge6_Node000006_Node000003"><a xlink:title=" ">
<path fill="none" stroke="#63b8ff" d="M204.42,-204.19C221.81,-214.45 245.8,-229.81 268,-241.5 276.09,-245.76 285.42,-249.84 293.22,-253.85"/>
<polygon fill="#63b8ff" stroke="#63b8ff" points="291.67,-256.99 302.09,-258.91 295.14,-250.91 291.67,-256.99"/>
</a>
</g>
</g>
<!-- Node6&#45;&gt;Node3 -->
<g id="edge7_Node000006_Node000003" class="edge">
<title>Node6&#45;&gt;Node3</title>
<g id="a_edge7_Node000006_Node000003"><a xlink:title=" ">
<path fill="none" stroke="#63b8ff" d="M186.16,-204.07C199.32,-217.11 229.93,-238.44 260.3,-255.31"/>
<polygon fill="#63b8ff" stroke="#63b8ff" points="258.81,-258.48 269.27,-260.16 262.14,-252.33 258.81,-258.48"/>
</a>
</g>
</g>
<!-- Node6&#45;&gt;Node4 -->
<g id="edge8_Node000006_Node000004" class="edge">
<title>Node6&#45;&gt;Node4</title>
<g id="a_edge8_Node000006_Node000004"><a xlink:title=" ">
<path fill="none" stroke="#63b8ff" d="M209.11,-197.14C231.44,-202.09 261.81,-210.76 283.38,-218.39"/>
<polygon fill="#63b8ff" stroke="#63b8ff" points="282.3,-221.72 292.9,-221.92 284.74,-215.16 282.3,-221.72"/>
</a>
</g>
</g>
<!-- Node6&#45;&gt;Node4 -->
<g id="edge9_Node000006_Node000004" class="edge">
<title>Node6&#45;&gt;Node4</title>
<g id="a_edge9_Node000006_Node000004"><a xlink:title=" ">
<path fill="none" stroke="#63b8ff" d="M196.56,-204.07C212.2,-210.18 236.18,-217.61 258.07,-223.4"/>
<polygon fill="#63b8ff" stroke="#63b8ff" points="257.39,-226.84 267.94,-225.93 259.13,-220.06 257.39,-226.84"/>
</a>
</g>
</g>
<!-- Node6&#45;&gt;Node5 -->
<g id="edge10_Node000006_Node000005" class="edge">
<title>Node6&#45;&gt;Node5</title>
<g id="a_edge10_Node000006_Node000005"><a xlink:title=" ">
<path fill="none" stroke="#63b8ff" d="M209.11,-188.74C223.44,-187.85 241.06,-187.56 257.56,-187.87"/>
<polygon fill="#63b8ff" stroke="#63b8ff" points="257.55,-191.37 267.64,-188.13 257.73,-184.37 257.55,-191.37"/>
</a>
</g>
</g>
<!-- Node6&#45;&gt;Node5 -->
<g id="edge11_Node000006_Node000005" class="edge">
<title>Node6&#45;&gt;Node5</title>
<g id="a_edge11_Node000006_Node000005"><a xlink:title=" ">
<path fill="none" stroke="#63b8ff" d="M209.11,-200.26C223.44,-201.15 241.06,-201.44 257.56,-201.13"/>
<polygon fill="#63b8ff" stroke="#63b8ff" points="257.73,-204.63 267.64,-200.87 257.55,-197.63 257.73,-204.63"/>
</a>
</g>
</g>
</g>
</svg>
