<?xml version="1.0" encoding="UTF-8" standalone="no"?>
<!DOCTYPE svg PUBLIC "-//W3C//DTD SVG 1.1//EN"
 "http://www.w3.org/Graphics/SVG/1.1/DTD/svg11.dtd">
<!-- Generated by graphviz version 2.43.0 (0)
 -->
<!-- Title: ecef2pos Pages: 1 -->
<svg width="343pt" height="845pt"
 viewBox="0.00 0.00 343.00 845.00" xmlns="http://www.w3.org/2000/svg" xmlns:xlink="http://www.w3.org/1999/xlink">
<g id="graph0" class="graph" transform="scale(1 1) rotate(0) translate(4 841)">
<title>ecef2pos</title>
<!-- Node1 -->
<g id="Node000001" class="node">
<title>Node1</title>
<g id="a_Node000001"><a xlink:href="utils_8cpp.html#ae91d83cf693cdc7e1efacbe4d8d9656e" target="_top" xlink:title=" ">
<path fill="#fff0f0" stroke="red" stroke-width="2" d="M328.67,-426C328.67,-426 280.33,-426 280.33,-426 277.17,-426 274,-422.83 274,-419.67 274,-419.67 274,-413.33 274,-413.33 274,-410.17 277.17,-407 280.33,-407 280.33,-407 328.67,-407 328.67,-407 331.83,-407 335,-410.17 335,-413.33 335,-413.33 335,-419.67 335,-419.67 335,-422.83 331.83,-426 328.67,-426"/>
<text text-anchor="middle" x="304.5" y="-414" font-family="Helvetica,sans-Serif" font-size="10.00">ecef2pos</text>
</a>
</g>
</g>
<!-- Node2 -->
<g id="Node000002" class="node">
<title>Node2</title>
<g id="a_Node000002"><a xlink:href="attitude_8cpp.html#a7024eb226a006702c72fe4a963ae8b19" target="_top" xlink:title="Nominal receiver attitude &#45; unit vectors of receiver&#45;fixed coordinates (ECEF) Orientation of receiver...">
<path fill="#fff0f0" stroke="red" d="M223.17,-837C223.17,-837 136.83,-837 136.83,-837 133.67,-837 130.5,-833.83 130.5,-830.67 130.5,-830.67 130.5,-824.33 130.5,-824.33 130.5,-821.17 133.67,-818 136.83,-818 136.83,-818 223.17,-818 223.17,-818 226.33,-818 229.5,-821.17 229.5,-824.33 229.5,-824.33 229.5,-830.67 229.5,-830.67 229.5,-833.83 226.33,-837 223.17,-837"/>
<text text-anchor="middle" x="180" y="-825" font-family="Helvetica,sans-Serif" font-size="10.00">basicRecAttitude</text>
</a>
</g>
</g>
<!-- Node1&#45;&gt;Node2 -->
<g id="edge1_Node000001_Node000002" class="edge">
<title>Node1&#45;&gt;Node2</title>
<g id="a_edge1_Node000001_Node000002"><a xlink:title=" ">
<path fill="none" stroke="#63b8ff" d="M302.84,-436.74C300.1,-508.96 287.3,-752.73 238,-809.5 235.07,-812.87 231.52,-815.61 227.64,-817.85"/>
<polygon fill="#63b8ff" stroke="#63b8ff" points="306.36,-436.45 303.21,-426.34 299.36,-436.2 306.36,-436.45"/>
</a>
</g>
</g>
<!-- Node4 -->
<g id="Node000004" class="node">
<title>Node4</title>
<g id="a_Node000004"><a xlink:href="localAtmosRegion_8cpp.html#a4f2c14c2994a3bb5761636e9196b34e8" target="_top" xlink:title=" ">
<path fill="#fff0f0" stroke="red" d="M231.67,-800C231.67,-800 128.33,-800 128.33,-800 125.17,-800 122,-796.83 122,-793.67 122,-793.67 122,-787.33 122,-787.33 122,-784.17 125.17,-781 128.33,-781 128.33,-781 231.67,-781 231.67,-781 234.83,-781 238,-784.17 238,-787.33 238,-787.33 238,-793.67 238,-793.67 238,-796.83 234.83,-800 231.67,-800"/>
<text text-anchor="middle" x="180" y="-788" font-family="Helvetica,sans-Serif" font-size="10.00">configAtmosRegions</text>
</a>
</g>
</g>
<!-- Node1&#45;&gt;Node4 -->
<g id="edge2_Node000001_Node000004" class="edge">
<title>Node1&#45;&gt;Node4</title>
<g id="a_edge2_Node000001_Node000004"><a xlink:title=" ">
<path fill="none" stroke="#63b8ff" d="M302.49,-436.13C298.67,-503.15 282.93,-721.63 238,-772.5 234.98,-775.92 231.31,-778.7 227.31,-780.95"/>
<polygon fill="#63b8ff" stroke="#63b8ff" points="305.99,-436.25 303.04,-426.08 299,-435.87 305.99,-436.25"/>
</a>
</g>
</g>
<!-- Node6 -->
<g id="Node000006" class="node">
<title>Node6</title>
<g id="a_Node000006"><a xlink:href="debug_8cpp.html#a25e72c6bf87e11fee70e99be7816a530" target="_top" xlink:title=" ">
<path fill="#fff0f0" stroke="red" d="M208.67,-763C208.67,-763 151.33,-763 151.33,-763 148.17,-763 145,-759.83 145,-756.67 145,-756.67 145,-750.33 145,-750.33 145,-747.17 148.17,-744 151.33,-744 151.33,-744 208.67,-744 208.67,-744 211.83,-744 215,-747.17 215,-750.33 215,-750.33 215,-756.67 215,-756.67 215,-759.83 211.83,-763 208.67,-763"/>
<text text-anchor="middle" x="180" y="-751" font-family="Helvetica,sans-Serif" font-size="10.00">debugIGRF</text>
</a>
</g>
</g>
<!-- Node1&#45;&gt;Node6 -->
<g id="edge3_Node000001_Node000006" class="edge">
<title>Node1&#45;&gt;Node6</title>
<g id="a_edge3_Node000001_Node000006"><a xlink:title=" ">
<path fill="none" stroke="#63b8ff" d="M302.04,-436.08C297.01,-498.38 278.45,-690.63 238,-735.5 232.02,-742.13 223.63,-746.33 215.12,-749"/>
<polygon fill="#63b8ff" stroke="#63b8ff" points="305.54,-436.26 302.82,-426.02 298.56,-435.72 305.54,-436.26"/>
</a>
</g>
</g>
<!-- Node7 -->
<g id="Node000007" class="node">
<title>Node7</title>
<g id="a_Node000007"><a xlink:href="spp_8cpp.html#ad923112e4e6dfdfc8b050b68851fe1d0" target="_top" xlink:title="Estimate receiver position and biases using code measurements.">
<path fill="#fff0f0" stroke="red" d="M198.17,-726C198.17,-726 161.83,-726 161.83,-726 158.67,-726 155.5,-722.83 155.5,-719.67 155.5,-719.67 155.5,-713.33 155.5,-713.33 155.5,-710.17 158.67,-707 161.83,-707 161.83,-707 198.17,-707 198.17,-707 201.33,-707 204.5,-710.17 204.5,-713.33 204.5,-713.33 204.5,-719.67 204.5,-719.67 204.5,-722.83 201.33,-726 198.17,-726"/>
<text text-anchor="middle" x="180" y="-714" font-family="Helvetica,sans-Serif" font-size="10.00">estpos</text>
</a>
</g>
</g>
<!-- Node1&#45;&gt;Node7 -->
<g id="edge4_Node000001_Node000007" class="edge">
<title>Node1&#45;&gt;Node7</title>
<g id="a_edge4_Node000001_Node000007"><a xlink:title=" ">
<path fill="none" stroke="#63b8ff" d="M301.43,-436.38C295.06,-494.03 273.93,-659.67 238,-698.5 229.47,-707.72 216.27,-712.24 204.72,-714.45"/>
<polygon fill="#63b8ff" stroke="#63b8ff" points="304.95,-436.4 302.54,-426.08 297.99,-435.65 304.95,-436.4"/>
</a>
</g>
</g>
<!-- Node14 -->
<g id="Node000014" class="node">
<title>Node14</title>
<g id="a_Node000014"><a xlink:href="ionoLocalSTEC_8cpp.html#a4ac0ae5657ac53a7056034344425230a" target="_top" xlink:title=" ">
<path fill="#fff0f0" stroke="red" d="M221.17,-689C221.17,-689 138.83,-689 138.83,-689 135.67,-689 132.5,-685.83 132.5,-682.67 132.5,-682.67 132.5,-676.33 132.5,-676.33 132.5,-673.17 135.67,-670 138.83,-670 138.83,-670 221.17,-670 221.17,-670 224.33,-670 227.5,-673.17 227.5,-676.33 227.5,-676.33 227.5,-682.67 227.5,-682.67 227.5,-685.83 224.33,-689 221.17,-689"/>
<text text-anchor="middle" x="180" y="-677" font-family="Helvetica,sans-Serif" font-size="10.00">getCmpSSRIono</text>
</a>
</g>
</g>
<!-- Node1&#45;&gt;Node14 -->
<g id="edge5_Node000001_Node000014" class="edge">
<title>Node1&#45;&gt;Node14</title>
<g id="a_edge5_Node000001_Node000014"><a xlink:title=" ">
<path fill="none" stroke="#63b8ff" d="M303.62,-436.16C302.84,-480.73 294.88,-590.63 238,-655.5 232.48,-661.8 225.03,-666.48 217.34,-669.96"/>
<polygon fill="#63b8ff" stroke="#63b8ff" points="307.12,-436.1 303.69,-426.07 300.12,-436.05 307.12,-436.1"/>
</a>
</g>
</g>
<!-- Node19 -->
<g id="Node000019" class="node">
<title>Node19</title>
<g id="a_Node000019"><a xlink:href="ionoSpherical_8cpp.html#ad01dd353d17b69b39684a5bb3169fea5" target="_top" xlink:title=" ">
<path fill="#fff0f0" stroke="red" d="M79.67,-613C79.67,-613 6.33,-613 6.33,-613 3.17,-613 0,-609.83 0,-606.67 0,-606.67 0,-600.33 0,-600.33 0,-597.17 3.17,-594 6.33,-594 6.33,-594 79.67,-594 79.67,-594 82.83,-594 86,-597.17 86,-600.33 86,-600.33 86,-606.67 86,-606.67 86,-609.83 82.83,-613 79.67,-613"/>
<text text-anchor="middle" x="43" y="-601" font-family="Helvetica,sans-Serif" font-size="10.00">getEpcSsrIono</text>
</a>
</g>
</g>
<!-- Node1&#45;&gt;Node19 -->
<g id="edge6_Node000001_Node000019" class="edge">
<title>Node1&#45;&gt;Node19</title>
<g id="a_edge6_Node000001_Node000019"><a xlink:title=" ">
<path fill="none" stroke="#63b8ff" d="M304.17,-436.18C304.41,-478.62 298.21,-578.46 238,-622.5 185.01,-661.26 100.92,-630.36 63.3,-613.12"/>
<polygon fill="#63b8ff" stroke="#63b8ff" points="307.67,-435.97 303.98,-426.04 300.67,-436.1 307.67,-435.97"/>
</a>
</g>
</g>
<!-- Node21 -->
<g id="Node000021" class="node">
<title>Node21</title>
<g id="a_Node000021"><a xlink:href="ionoSphericalCaps_8cpp.html#af953ae8b4e5d94daecada20e21dd59a2" target="_top" xlink:title="transforms the Ionosphere Piercing Point and checks if it falls in area of coverage time: I time of o...">
<path fill="#fff0f0" stroke="red" d="M222.17,-613C222.17,-613 137.83,-613 137.83,-613 134.67,-613 131.5,-609.83 131.5,-606.67 131.5,-606.67 131.5,-600.33 131.5,-600.33 131.5,-597.17 134.67,-594 137.83,-594 137.83,-594 222.17,-594 222.17,-594 225.33,-594 228.5,-597.17 228.5,-600.33 228.5,-600.33 228.5,-606.67 228.5,-606.67 228.5,-609.83 225.33,-613 222.17,-613"/>
<text text-anchor="middle" x="180" y="-601" font-family="Helvetica,sans-Serif" font-size="10.00">ippCheckSphcap</text>
</a>
</g>
</g>
<!-- Node1&#45;&gt;Node21 -->
<g id="edge7_Node000001_Node000021" class="edge">
<title>Node1&#45;&gt;Node21</title>
<g id="a_edge7_Node000001_Node000021"><a xlink:title=" ">
<path fill="none" stroke="#63b8ff" d="M301.35,-436.49C296.5,-471.65 281.51,-544.69 238,-585.5 234.37,-588.91 230.09,-591.67 225.54,-593.91"/>
<polygon fill="#63b8ff" stroke="#63b8ff" points="304.87,-436.47 302.63,-426.12 297.93,-435.61 304.87,-436.47"/>
</a>
</g>
</g>
<!-- Node31 -->
<g id="Node000031" class="node">
<title>Node31</title>
<g id="a_Node000031"><a xlink:href="ionoSpherical_8cpp.html#a5b7bfe4a5b9c8c410133e7e6efbfc753" target="_top" xlink:title="rotates the Ionosphere piercing point time: I time of observations (to update the rotation matrix) IP...">
<path fill="#fff0f0" stroke="red" d="M221.17,-576C221.17,-576 138.83,-576 138.83,-576 135.67,-576 132.5,-572.83 132.5,-569.67 132.5,-569.67 132.5,-563.33 132.5,-563.33 132.5,-560.17 135.67,-557 138.83,-557 138.83,-557 221.17,-557 221.17,-557 224.33,-557 227.5,-560.17 227.5,-563.33 227.5,-563.33 227.5,-569.67 227.5,-569.67 227.5,-572.83 224.33,-576 221.17,-576"/>
<text text-anchor="middle" x="180" y="-564" font-family="Helvetica,sans-Serif" font-size="10.00">ippCheckSphhar</text>
</a>
</g>
</g>
<!-- Node1&#45;&gt;Node31 -->
<g id="edge8_Node000001_Node000031" class="edge">
<title>Node1&#45;&gt;Node31</title>
<g id="a_edge8_Node000001_Node000031"><a xlink:title=" ">
<path fill="none" stroke="#63b8ff" d="M298.01,-435.99C289.41,-463.22 270.34,-512.68 238,-542.5 231.29,-548.69 222.75,-553.41 214.34,-556.96"/>
<polygon fill="#63b8ff" stroke="#63b8ff" points="301.45,-436.69 300.97,-426.1 294.75,-434.68 301.45,-436.69"/>
</a>
</g>
</g>
<!-- Node33 -->
<g id="Node000033" class="node">
<title>Node33</title>
<g id="a_Node000033"><a xlink:href="minimumConstraints_8cpp.html#aa40934b017f373d875c3470591eff52e" target="_top" xlink:title=" ">
<path fill="#fff0f0" stroke="red" d="M63.17,-500C63.17,-500 22.83,-500 22.83,-500 19.67,-500 16.5,-496.83 16.5,-493.67 16.5,-493.67 16.5,-487.33 16.5,-487.33 16.5,-484.17 19.67,-481 22.83,-481 22.83,-481 63.17,-481 63.17,-481 66.33,-481 69.5,-484.17 69.5,-487.33 69.5,-487.33 69.5,-493.67 69.5,-493.67 69.5,-496.83 66.33,-500 63.17,-500"/>
<text text-anchor="middle" x="43" y="-488" font-family="Helvetica,sans-Serif" font-size="10.00">mincon</text>
</a>
</g>
</g>
<!-- Node1&#45;&gt;Node33 -->
<g id="edge10_Node000001_Node000033" class="edge">
<title>Node1&#45;&gt;Node33</title>
<g id="a_edge10_Node000001_Node000033"><a xlink:title=" ">
<path fill="none" stroke="#63b8ff" d="M296.39,-435.67C286.92,-458.07 267.81,-494.03 238,-509.5 181.53,-538.8 103.37,-514.82 65.84,-500.01"/>
<polygon fill="#63b8ff" stroke="#63b8ff" points="299.72,-436.77 300.17,-426.19 293.22,-434.18 299.72,-436.77"/>
</a>
</g>
</g>
<!-- Node40 -->
<g id="Node000040" class="node">
<title>Node40</title>
<g id="a_Node000040"><a xlink:href="minimumConstraints_8cpp.html#ad6ae3cccdb74463ea328f08da634a458" target="_top" xlink:title=" ">
<path fill="#fff0f0" stroke="red" d="M215.17,-500C215.17,-500 144.83,-500 144.83,-500 141.67,-500 138.5,-496.83 138.5,-493.67 138.5,-493.67 138.5,-487.33 138.5,-487.33 138.5,-484.17 141.67,-481 144.83,-481 144.83,-481 215.17,-481 215.17,-481 218.33,-481 221.5,-484.17 221.5,-487.33 221.5,-487.33 221.5,-493.67 221.5,-493.67 221.5,-496.83 218.33,-500 215.17,-500"/>
<text text-anchor="middle" x="180" y="-488" font-family="Helvetica,sans-Serif" font-size="10.00">minOrbitData</text>
</a>
</g>
</g>
<!-- Node1&#45;&gt;Node40 -->
<g id="edge11_Node000001_Node000040" class="edge">
<title>Node1&#45;&gt;Node40</title>
<g id="a_edge11_Node000001_Node000040"><a xlink:title=" ">
<path fill="none" stroke="#63b8ff" d="M286.81,-433.61C274.31,-445.61 256.28,-461.27 238,-471.5 231.35,-475.22 223.86,-478.36 216.55,-480.95"/>
<polygon fill="#63b8ff" stroke="#63b8ff" points="289.51,-435.86 294.17,-426.35 284.59,-430.88 289.51,-435.86"/>
</a>
</g>
</g>
<!-- Node41 -->
<g id="Node000041" class="node">
<title>Node41</title>
<g id="a_Node000041"><a xlink:href="minimumConstraints_8cpp.html#abb849f43f8ddc113a68e426f98df6b22" target="_top" xlink:title=" ">
<path fill="#fff0f0" stroke="red" d="M212.17,-463C212.17,-463 147.83,-463 147.83,-463 144.67,-463 141.5,-459.83 141.5,-456.67 141.5,-456.67 141.5,-450.33 141.5,-450.33 141.5,-447.17 144.67,-444 147.83,-444 147.83,-444 212.17,-444 212.17,-444 215.33,-444 218.5,-447.17 218.5,-450.33 218.5,-450.33 218.5,-456.67 218.5,-456.67 218.5,-459.83 215.33,-463 212.17,-463"/>
<text text-anchor="middle" x="180" y="-451" font-family="Helvetica,sans-Serif" font-size="10.00">minSiteData</text>
</a>
</g>
</g>
<!-- Node1&#45;&gt;Node41 -->
<g id="edge13_Node000001_Node000041" class="edge">
<title>Node1&#45;&gt;Node41</title>
<g id="a_edge13_Node000001_Node000041"><a xlink:title=" ">
<path fill="none" stroke="#63b8ff" d="M263.86,-428.47C247.23,-433.49 228.17,-439.25 212.52,-443.98"/>
<polygon fill="#63b8ff" stroke="#63b8ff" points="265.29,-431.7 273.85,-425.46 263.26,-425 265.29,-431.7"/>
</a>
</g>
</g>
<!-- Node30 -->
<g id="Node000030" class="node">
<title>Node30</title>
<g id="a_Node000030"><a xlink:href="ionoMeas_8cpp.html#ab3f111d5e6d66de4751fbce467a29372" target="_top" xlink:title=" ">
<path fill="#fff0f0" stroke="red" d="M212.67,-426C212.67,-426 147.33,-426 147.33,-426 144.17,-426 141,-422.83 141,-419.67 141,-419.67 141,-413.33 141,-413.33 141,-410.17 144.17,-407 147.33,-407 147.33,-407 212.67,-407 212.67,-407 215.83,-407 219,-410.17 219,-413.33 219,-413.33 219,-419.67 219,-419.67 219,-422.83 215.83,-426 212.67,-426"/>
<text text-anchor="middle" x="180" y="-414" font-family="Helvetica,sans-Serif" font-size="10.00">obsIonoData</text>
</a>
</g>
</g>
<!-- Node1&#45;&gt;Node30 -->
<g id="edge15_Node000001_Node000030" class="edge">
<title>Node1&#45;&gt;Node30</title>
<g id="a_edge15_Node000001_Node000030"><a xlink:title=" ">
<path fill="none" stroke="#63b8ff" d="M263.8,-416.5C249.48,-416.5 233.37,-416.5 219.19,-416.5"/>
<polygon fill="#63b8ff" stroke="#63b8ff" points="263.85,-420 273.85,-416.5 263.85,-413 263.85,-420"/>
</a>
</g>
</g>
<!-- Node42 -->
<g id="Node000042" class="node">
<title>Node42</title>
<g id="a_Node000042"><a xlink:href="cost_8cpp.html#abc021ac32635abe4cf6daef44cabb888" target="_top" xlink:title="Outputs troposphere COST file.">
<path fill="#fff0f0" stroke="red" d="M208.67,-389C208.67,-389 151.33,-389 151.33,-389 148.17,-389 145,-385.83 145,-382.67 145,-382.67 145,-376.33 145,-376.33 145,-373.17 148.17,-370 151.33,-370 151.33,-370 208.67,-370 208.67,-370 211.83,-370 215,-373.17 215,-376.33 215,-376.33 215,-382.67 215,-382.67 215,-385.83 211.83,-389 208.67,-389"/>
<text text-anchor="middle" x="180" y="-377" font-family="Helvetica,sans-Serif" font-size="10.00">outputCost</text>
</a>
</g>
</g>
<!-- Node1&#45;&gt;Node42 -->
<g id="edge16_Node000001_Node000042" class="edge">
<title>Node1&#45;&gt;Node42</title>
<g id="a_edge16_Node000001_Node000042"><a xlink:title=" ">
<path fill="none" stroke="#63b8ff" d="M263.86,-404.53C247.23,-399.51 228.17,-393.75 212.52,-389.02"/>
<polygon fill="#63b8ff" stroke="#63b8ff" points="263.26,-408 273.85,-407.54 265.29,-401.3 263.26,-408"/>
</a>
</g>
</g>
<!-- Node43 -->
<g id="Node000043" class="node">
<title>Node43</title>
<g id="a_Node000043"><a xlink:href="interpolate__loading_8cpp.html#a98f7bd618e2c0a14e80b1b1f026aff06" target="_top" xlink:title=" ">
<path fill="#fff0f0" stroke="red" d="M223.17,-352C223.17,-352 136.83,-352 136.83,-352 133.67,-352 130.5,-348.83 130.5,-345.67 130.5,-345.67 130.5,-339.33 130.5,-339.33 130.5,-336.17 133.67,-333 136.83,-333 136.83,-333 223.17,-333 223.17,-333 226.33,-333 229.5,-336.17 229.5,-339.33 229.5,-339.33 229.5,-345.67 229.5,-345.67 229.5,-348.83 226.33,-352 223.17,-352"/>
<text text-anchor="middle" x="180" y="-340" font-family="Helvetica,sans-Serif" font-size="10.00">program_options</text>
</a>
</g>
</g>
<!-- Node1&#45;&gt;Node43 -->
<g id="edge17_Node000001_Node000043" class="edge">
<title>Node1&#45;&gt;Node43</title>
<g id="a_edge17_Node000001_Node000043"><a xlink:title=" ">
<path fill="none" stroke="#63b8ff" d="M287.35,-399.4C274.88,-387.08 256.67,-370.86 238,-360.5 232.01,-357.18 225.32,-354.37 218.69,-352.04"/>
<polygon fill="#63b8ff" stroke="#63b8ff" points="285.14,-402.15 294.65,-406.83 290.14,-397.25 285.14,-402.15"/>
</a>
</g>
</g>
<!-- Node45 -->
<g id="Node000045" class="node">
<title>Node45</title>
<g id="a_Node000045"><a xlink:href="ppp__slr_8cpp.html#a0f53eb82b1b0572a1aabec8b6fe5a6ad" target="_top" xlink:title=" ">
<path fill="#fff0f0" stroke="red" d="M208.17,-315C208.17,-315 151.83,-315 151.83,-315 148.67,-315 145.5,-311.83 145.5,-308.67 145.5,-308.67 145.5,-302.33 145.5,-302.33 145.5,-299.17 148.67,-296 151.83,-296 151.83,-296 208.17,-296 208.17,-296 211.33,-296 214.5,-299.17 214.5,-302.33 214.5,-302.33 214.5,-308.67 214.5,-308.67 214.5,-311.83 211.33,-315 208.17,-315"/>
<text text-anchor="middle" x="180" y="-303" font-family="Helvetica,sans-Serif" font-size="10.00">receiverSlr</text>
</a>
</g>
</g>
<!-- Node1&#45;&gt;Node45 -->
<g id="edge18_Node000001_Node000045" class="edge">
<title>Node1&#45;&gt;Node45</title>
<g id="a_edge18_Node000001_Node000045"><a xlink:title=" ">
<path fill="none" stroke="#63b8ff" d="M294.85,-397.55C284.32,-376.5 264.57,-342.94 238,-323.5 231.13,-318.48 222.82,-314.82 214.68,-312.18"/>
<polygon fill="#63b8ff" stroke="#63b8ff" points="291.79,-399.26 299.28,-406.76 298.1,-396.23 291.79,-399.26"/>
</a>
</g>
</g>
<!-- Node46 -->
<g id="Node000046" class="node">
<title>Node46</title>
<g id="a_Node000046"><a xlink:href="ppp__obs_8cpp.html#a375577932a02b1ae21ad60b7e39b040e" target="_top" xlink:title=" ">
<path fill="#fff0f0" stroke="red" d="M226.17,-278C226.17,-278 133.83,-278 133.83,-278 130.67,-278 127.5,-274.83 127.5,-271.67 127.5,-271.67 127.5,-265.33 127.5,-265.33 127.5,-262.17 130.67,-259 133.83,-259 133.83,-259 226.17,-259 226.17,-259 229.33,-259 232.5,-262.17 232.5,-265.33 232.5,-265.33 232.5,-271.67 232.5,-271.67 232.5,-274.83 229.33,-278 226.17,-278"/>
<text text-anchor="middle" x="180" y="-266" font-family="Helvetica,sans-Serif" font-size="10.00">receiverUducGnss</text>
</a>
</g>
</g>
<!-- Node1&#45;&gt;Node46 -->
<g id="edge19_Node000001_Node000046" class="edge">
<title>Node1&#45;&gt;Node46</title>
<g id="a_edge19_Node000001_Node000046"><a xlink:title=" ">
<path fill="none" stroke="#63b8ff" d="M298.78,-396.77C290.97,-368.33 272.66,-315.99 238,-286.5 233.97,-283.07 229.28,-280.29 224.36,-278.04"/>
<polygon fill="#63b8ff" stroke="#63b8ff" points="295.46,-397.91 301.35,-406.72 302.24,-396.17 295.46,-397.91"/>
</a>
</g>
</g>
<!-- Node47 -->
<g id="Node000047" class="node">
<title>Node47</title>
<g id="a_Node000047"><a xlink:href="ppp_8cpp.html#a147ea2bf0bd356bafdb785a868364b5f" target="_top" xlink:title=" ">
<path fill="#fff0f0" stroke="red" d="M229.17,-241C229.17,-241 130.83,-241 130.83,-241 127.67,-241 124.5,-237.83 124.5,-234.67 124.5,-234.67 124.5,-228.33 124.5,-228.33 124.5,-225.17 127.67,-222 130.83,-222 130.83,-222 229.17,-222 229.17,-222 232.33,-222 235.5,-225.17 235.5,-228.33 235.5,-228.33 235.5,-234.67 235.5,-234.67 235.5,-237.83 232.33,-241 229.17,-241"/>
<text text-anchor="middle" x="180" y="-229" font-family="Helvetica,sans-Serif" font-size="10.00">selectAprioriSource</text>
</a>
</g>
</g>
<!-- Node1&#45;&gt;Node47 -->
<g id="edge20_Node000001_Node000047" class="edge">
<title>Node1&#45;&gt;Node47</title>
<g id="a_edge20_Node000001_Node000047"><a xlink:title=" ">
<path fill="none" stroke="#63b8ff" d="M301.27,-396.74C296.31,-361.99 281.14,-289.81 238,-249.5 234.36,-246.1 230.08,-243.34 225.53,-241.1"/>
<polygon fill="#63b8ff" stroke="#63b8ff" points="297.84,-397.52 302.59,-406.99 304.79,-396.63 297.84,-397.52"/>
</a>
</g>
</g>
<!-- Node48 -->
<g id="Node000048" class="node">
<title>Node48</title>
<g id="a_Node000048"><a xlink:href="tropSinex_8cpp.html#ad57f3048f1df0be47d338e2a87bea7ae" target="_top" xlink:title="Set troposphere solution data from filter.">
<path fill="#fff0f0" stroke="red" d="M231.67,-204C231.67,-204 128.33,-204 128.33,-204 125.17,-204 122,-200.83 122,-197.67 122,-197.67 122,-191.33 122,-191.33 122,-188.17 125.17,-185 128.33,-185 128.33,-185 231.67,-185 231.67,-185 234.83,-185 238,-188.17 238,-191.33 238,-191.33 238,-197.67 238,-197.67 238,-200.83 234.83,-204 231.67,-204"/>
<text text-anchor="middle" x="180" y="-192" font-family="Helvetica,sans-Serif" font-size="10.00">setTropSolFromFilter</text>
</a>
</g>
</g>
<!-- Node1&#45;&gt;Node48 -->
<g id="edge21_Node000001_Node000048" class="edge">
<title>Node1&#45;&gt;Node48</title>
<g id="a_edge21_Node000001_Node000048"><a xlink:title=" ">
<path fill="none" stroke="#63b8ff" d="M302.91,-396.67C300.63,-356.29 289.7,-263.96 238,-212.5 234.54,-209.06 230.43,-206.28 226.03,-204.02"/>
<polygon fill="#63b8ff" stroke="#63b8ff" points="299.42,-396.98 303.36,-406.82 306.42,-396.67 299.42,-396.98"/>
</a>
</g>
</g>
<!-- Node51 -->
<g id="Node000051" class="node">
<title>Node51</title>
<g id="a_Node000051"><a xlink:href="tides_8cpp.html#a39a8c3eb047cfec80cee2b90ad29962d" target="_top" xlink:title=" ">
<path fill="#fff0f0" stroke="red" d="M202.17,-167C202.17,-167 157.83,-167 157.83,-167 154.67,-167 151.5,-163.83 151.5,-160.67 151.5,-160.67 151.5,-154.33 151.5,-154.33 151.5,-151.17 154.67,-148 157.83,-148 157.83,-148 202.17,-148 202.17,-148 205.33,-148 208.5,-151.17 208.5,-154.33 208.5,-154.33 208.5,-160.67 208.5,-160.67 208.5,-163.83 205.33,-167 202.17,-167"/>
<text text-anchor="middle" x="180" y="-155" font-family="Helvetica,sans-Serif" font-size="10.00">tideDisp</text>
</a>
</g>
</g>
<!-- Node1&#45;&gt;Node51 -->
<g id="edge22_Node000001_Node000051" class="edge">
<title>Node1&#45;&gt;Node51</title>
<g id="a_edge22_Node000001_Node000051"><a xlink:title=" ">
<path fill="none" stroke="#63b8ff" d="M304.09,-396.59C304.31,-351.04 298.35,-238.35 238,-175.5 230.31,-167.49 219.09,-163.03 208.63,-160.56"/>
<polygon fill="#63b8ff" stroke="#63b8ff" points="300.59,-396.6 303.93,-406.65 307.59,-396.71 300.59,-396.6"/>
</a>
</g>
</g>
<!-- Node55 -->
<g id="Node000055" class="node">
<title>Node55</title>
<g id="a_Node000055"><a xlink:href="gpx_8cpp.html#af9cdc05b3e40dc1ffa48b4ff09d108c8" target="_top" xlink:title=" ">
<path fill="#fff0f0" stroke="red" d="M217.17,-130C217.17,-130 142.83,-130 142.83,-130 139.67,-130 136.5,-126.83 136.5,-123.67 136.5,-123.67 136.5,-117.33 136.5,-117.33 136.5,-114.17 139.67,-111 142.83,-111 142.83,-111 217.17,-111 217.17,-111 220.33,-111 223.5,-114.17 223.5,-117.33 223.5,-117.33 223.5,-123.67 223.5,-123.67 223.5,-126.83 220.33,-130 217.17,-130"/>
<text text-anchor="middle" x="180" y="-118" font-family="Helvetica,sans-Serif" font-size="10.00">writeGPXEntry</text>
</a>
</g>
</g>
<!-- Node1&#45;&gt;Node55 -->
<g id="edge23_Node000001_Node000055" class="edge">
<title>Node1&#45;&gt;Node55</title>
<g id="a_edge23_Node000001_Node000055"><a xlink:title=" ">
<path fill="none" stroke="#63b8ff" d="M301.35,-396.52C294.81,-339.33 273.42,-176.67 238,-138.5 234.05,-134.24 229.1,-130.98 223.77,-128.49"/>
<polygon fill="#63b8ff" stroke="#63b8ff" points="297.9,-397.21 302.49,-406.76 304.86,-396.44 297.9,-397.21"/>
</a>
</g>
</g>
<!-- Node57 -->
<g id="Node000057" class="node">
<title>Node57</title>
<g id="a_Node000057"><a xlink:href="pos_8cpp.html#afbd1387aa03f2c5caca0ef70fda36795" target="_top" xlink:title=" ">
<path fill="#fff0f0" stroke="red" d="M216.67,-93C216.67,-93 143.33,-93 143.33,-93 140.17,-93 137,-89.83 137,-86.67 137,-86.67 137,-80.33 137,-80.33 137,-77.17 140.17,-74 143.33,-74 143.33,-74 216.67,-74 216.67,-74 219.83,-74 223,-77.17 223,-80.33 223,-80.33 223,-86.67 223,-86.67 223,-89.83 219.83,-93 216.67,-93"/>
<text text-anchor="middle" x="180" y="-81" font-family="Helvetica,sans-Serif" font-size="10.00">writePOSEntry</text>
</a>
</g>
</g>
<!-- Node1&#45;&gt;Node57 -->
<g id="edge24_Node000001_Node000057" class="edge">
<title>Node1&#45;&gt;Node57</title>
<g id="a_edge24_Node000001_Node000057"><a xlink:title=" ">
<path fill="none" stroke="#63b8ff" d="M301.97,-396.76C296.79,-334.8 277.93,-145.68 238,-101.5 233.89,-96.96 228.65,-93.55 223.02,-91"/>
<polygon fill="#63b8ff" stroke="#63b8ff" points="298.49,-397.1 302.78,-406.78 305.46,-396.54 298.49,-397.1"/>
</a>
</g>
</g>
<!-- Node59 -->
<g id="Node000059" class="node">
<title>Node59</title>
<g id="a_Node000059"><a xlink:href="pos_8cpp.html#a4b91c67a13824995cf263e892c6e1ab3" target="_top" xlink:title=" ">
<path fill="#fff0f0" stroke="red" d="M221.67,-56C221.67,-56 138.33,-56 138.33,-56 135.17,-56 132,-52.83 132,-49.67 132,-49.67 132,-43.33 132,-43.33 132,-40.17 135.17,-37 138.33,-37 138.33,-37 221.67,-37 221.67,-37 224.83,-37 228,-40.17 228,-43.33 228,-43.33 228,-49.67 228,-49.67 228,-52.83 224.83,-56 221.67,-56"/>
<text text-anchor="middle" x="180" y="-44" font-family="Helvetica,sans-Serif" font-size="10.00">writePOSHeader</text>
</a>
</g>
</g>
<!-- Node1&#45;&gt;Node59 -->
<g id="edge25_Node000001_Node000059" class="edge">
<title>Node1&#45;&gt;Node59</title>
<g id="a_edge25_Node000001_Node000059"><a xlink:title=" ">
<path fill="none" stroke="#63b8ff" d="M302.44,-396.65C298.46,-329.87 282.39,-114.66 238,-64.5 234.97,-61.08 231.3,-58.3 227.3,-56.05"/>
<polygon fill="#63b8ff" stroke="#63b8ff" points="298.94,-396.91 303.01,-406.69 305.93,-396.51 298.94,-396.91"/>
</a>
</g>
</g>
<!-- Node60 -->
<g id="Node000060" class="node">
<title>Node60</title>
<g id="a_Node000060"><a xlink:href="tropSinex_8cpp.html#a1faee2ac53f3a75f110a3d3fadd79354" target="_top" xlink:title="Write SITE/ID block.">
<path fill="#fff0f0" stroke="red" d="M218.17,-19C218.17,-19 141.83,-19 141.83,-19 138.67,-19 135.5,-15.83 135.5,-12.67 135.5,-12.67 135.5,-6.33 135.5,-6.33 135.5,-3.17 138.67,0 141.83,0 141.83,0 218.17,0 218.17,0 221.33,0 224.5,-3.17 224.5,-6.33 224.5,-6.33 224.5,-12.67 224.5,-12.67 224.5,-15.83 221.33,-19 218.17,-19"/>
<text text-anchor="middle" x="180" y="-7" font-family="Helvetica,sans-Serif" font-size="10.00">writeTropSiteId</text>
</a>
</g>
</g>
<!-- Node1&#45;&gt;Node60 -->
<g id="edge26_Node000001_Node000060" class="edge">
<title>Node1&#45;&gt;Node60</title>
<g id="a_edge26_Node000001_Node000060"><a xlink:title=" ">
<path fill="none" stroke="#63b8ff" d="M302.81,-396.46C299.97,-324.97 286.85,-83.67 238,-27.5 234.32,-23.27 229.66,-20.03 224.59,-17.54"/>
<polygon fill="#63b8ff" stroke="#63b8ff" points="299.33,-396.9 303.2,-406.76 306.32,-396.64 299.33,-396.9"/>
</a>
</g>
</g>
<!-- Node31&#45;&gt;Node19 -->
<g id="edge9_Node000031_Node000019" class="edge">
<title>Node31&#45;&gt;Node19</title>
<g id="a_edge9_Node000031_Node000019"><a xlink:title=" ">
<path fill="none" stroke="#63b8ff" d="M134.53,-578.69C116.53,-583.62 96.04,-589.24 79.12,-593.88"/>
<polygon fill="#63b8ff" stroke="#63b8ff" points="135.51,-582.05 144.23,-576.03 133.66,-575.3 135.51,-582.05"/>
</a>
</g>
</g>
<!-- Node40&#45;&gt;Node33 -->
<g id="edge12_Node000040_Node000033" class="edge">
<title>Node40&#45;&gt;Node33</title>
<g id="a_edge12_Node000040_Node000033"><a xlink:title=" ">
<path fill="none" stroke="#63b8ff" d="M128.26,-490.5C108.25,-490.5 86.14,-490.5 69.59,-490.5"/>
<polygon fill="#63b8ff" stroke="#63b8ff" points="128.5,-494 138.5,-490.5 128.5,-487 128.5,-494"/>
</a>
</g>
</g>
<!-- Node41&#45;&gt;Node33 -->
<g id="edge14_Node000041_Node000033" class="edge">
<title>Node41&#45;&gt;Node33</title>
<g id="a_edge14_Node000041_Node000033"><a xlink:title=" ">
<path fill="none" stroke="#63b8ff" d="M134.34,-465.74C112.88,-471.62 87.93,-478.46 69.69,-483.46"/>
<polygon fill="#63b8ff" stroke="#63b8ff" points="135.51,-469.05 144.23,-463.03 133.66,-462.3 135.51,-469.05"/>
</a>
</g>
</g>
</g>
</svg>
