<?xml version="1.0" encoding="UTF-8" standalone="no"?>
<!DOCTYPE svg PUBLIC "-//W3C//DTD SVG 1.1//EN"
 "http://www.w3.org/Graphics/SVG/1.1/DTD/svg11.dtd">
<!-- Generated by graphviz version 2.43.0 (0)
 -->
<!-- Title: walkthrough Pages: 1 -->
<svg width="204pt" height="64pt"
 viewBox="0.00 0.00 204.00 64.00" xmlns="http://www.w3.org/2000/svg" xmlns:xlink="http://www.w3.org/1999/xlink">
<g id="graph0" class="graph" transform="scale(1 1) rotate(0) translate(4 60)">
<title>walkthrough</title>
<!-- Node1 -->
<g id="Node000001" class="node">
<title>Node1</title>
<g id="a_Node000001"><a xlink:href="walkthrough_8cpp.html#a79b73e7112a20488bc4f7e48ebaf1510" target="_top" xlink:title=" ">
<path fill="#fff0f0" stroke="red" stroke-width="2" d="M70.67,-37C70.67,-37 6.33,-37 6.33,-37 3.17,-37 0,-33.83 0,-30.67 0,-30.67 0,-24.33 0,-24.33 0,-21.17 3.17,-18 6.33,-18 6.33,-18 70.67,-18 70.67,-18 73.83,-18 77,-21.17 77,-24.33 77,-24.33 77,-30.67 77,-30.67 77,-33.83 73.83,-37 70.67,-37"/>
<text text-anchor="middle" x="38.5" y="-25" font-family="Helvetica,sans-Serif" font-size="10.00">walkthrough</text>
</a>
</g>
</g>
<!-- Node2 -->
<g id="Node000002" class="node">
<title>Node2</title>
<g id="a_Node000002"><a xlink:href="walkthrough_8cpp.html#af3e41749378ce9de79e7bdb41df88419" target="_top" xlink:title="Ginan kalman filter basics The basic structure for kalman filtering in ginan is the KFState struct,...">
<path fill="#fff0f0" stroke="red" d="M189.67,-56C189.67,-56 119.33,-56 119.33,-56 116.17,-56 113,-52.83 113,-49.67 113,-49.67 113,-43.33 113,-43.33 113,-40.17 116.17,-37 119.33,-37 119.33,-37 189.67,-37 189.67,-37 192.83,-37 196,-40.17 196,-43.33 196,-43.33 196,-49.67 196,-49.67 196,-52.83 192.83,-56 189.67,-56"/>
<text text-anchor="middle" x="154.5" y="-44" font-family="Helvetica,sans-Serif" font-size="10.00">walkthrough1</text>
</a>
</g>
</g>
<!-- Node1&#45;&gt;Node2 -->
<g id="edge1_Node000001_Node000002" class="edge">
<title>Node1&#45;&gt;Node2</title>
<g id="a_edge1_Node000001_Node000002"><a xlink:title=" ">
<path fill="none" stroke="#63b8ff" d="M77.14,-33.77C85.35,-35.14 94.16,-36.61 102.78,-38.05"/>
<polygon fill="#63b8ff" stroke="#63b8ff" points="102.32,-41.52 112.76,-39.71 103.47,-34.61 102.32,-41.52"/>
</a>
</g>
</g>
<!-- Node50 -->
<g id="Node000050" class="node">
<title>Node50</title>
<g id="a_Node000050"><a xlink:href="walkthrough_8cpp.html#aff7ddc151473d418c066b30f06e6b42e" target="_top" xlink:title=" ">
<path fill="#fff0f0" stroke="red" d="M189.67,-19C189.67,-19 119.33,-19 119.33,-19 116.17,-19 113,-15.83 113,-12.67 113,-12.67 113,-6.33 113,-6.33 113,-3.17 116.17,0 119.33,0 119.33,0 189.67,0 189.67,0 192.83,0 196,-3.17 196,-6.33 196,-6.33 196,-12.67 196,-12.67 196,-15.83 192.83,-19 189.67,-19"/>
<text text-anchor="middle" x="154.5" y="-7" font-family="Helvetica,sans-Serif" font-size="10.00">walkthrough2</text>
</a>
</g>
</g>
<!-- Node1&#45;&gt;Node50 -->
<g id="edge2_Node000001_Node000050" class="edge">
<title>Node1&#45;&gt;Node50</title>
<g id="a_edge2_Node000001_Node000050"><a xlink:title=" ">
<path fill="none" stroke="#63b8ff" d="M77.14,-21.56C85.35,-20.26 94.16,-18.87 102.78,-17.51"/>
<polygon fill="#63b8ff" stroke="#63b8ff" points="103.42,-20.95 112.76,-15.93 102.33,-14.04 103.42,-20.95"/>
</a>
</g>
</g>
</g>
</svg>
